<?xml version="1.0" encoding="UTF-8" standalone="no"?>
<!-- Created with Inkscape (http://www.inkscape.org/) -->

<svg
   width="484.39893mm"
   height="301.9841mm"
   viewBox="0 0 484.39892 301.98408"
   version="1.1"
   id="svg1"
   xml:space="preserve"
   inkscape:version="1.4.3 (0d15f75, 2025-12-25)"
   sodipodi:docname="get-started.svg"
   xmlns:inkscape="http://www.inkscape.org/namespaces/inkscape"
   xmlns:sodipodi="http://sodipodi.sourceforge.net/DTD/sodipodi-0.dtd"
   xmlns="http://www.w3.org/2000/svg"
   xmlns:svg="http://www.w3.org/2000/svg"><sodipodi:namedview
     id="namedview1"
     pagecolor="#ffffff"
     bordercolor="#000000"
     borderopacity="0.25"
     inkscape:showpageshadow="2"
     inkscape:pageopacity="0.0"
     inkscape:pagecheckerboard="0"
     inkscape:deskcolor="#d1d1d1"
     inkscape:document-units="mm"
     inkscape:zoom="0.4637325"
     inkscape:cx="853.94058"
     inkscape:cy="302.97639"
     inkscape:window-width="1920"
     inkscape:window-height="1080"
     inkscape:window-x="0"
     inkscape:window-y="0"
     inkscape:window-maximized="0"
     inkscape:current-layer="layer1" /><defs
     id="defs1" /><g
     inkscape:label="Layer 1"
     inkscape:groupmode="layer"
     id="layer1"
     transform="translate(186.61376,604.40027)"><path
       style="fill:#ffffff"
       d="m 257.3039,-302.95848 c -0.3638,-0.29499 -2.07851,-1.49743 -3.81047,-2.67208 -1.73196,-1.17465 -4.11321,-2.84528 -5.29167,-3.71251 -1.17846,-0.86723 -3.27374,-2.10646 -4.65619,-2.75385 -1.38245,-0.64738 -3.10886,-1.49162 -3.83646,-1.87608 -0.7276,-0.38446 -2.38694,-1.41097 -3.68741,-2.28114 -1.30047,-0.87017 -3.91984,-2.73469 -5.82083,-4.14339 -1.90099,-1.40869 -4.28978,-3.10081 -5.30843,-3.76027 -1.01864,-0.65945 -4.29286,-2.5452 -7.27604,-4.19057 -2.98317,-1.64536 -7.68614,-4.23846 -10.45104,-5.76243 -2.76489,-1.52397 -7.51514,-4.0723 -10.5561,-5.66295 -3.04096,-1.59065 -7.74392,-4.23529 -10.45104,-5.87699 -2.70711,-1.64169 -7.71999,-4.68564 -11.13973,-6.76434 -3.41974,-2.07869 -8.00365,-4.64345 -10.18646,-5.69945 -2.18281,-1.05601 -6.58813,-3.17262 -9.78958,-4.70359 -3.20146,-1.53096 -6.77334,-3.16156 -7.9375,-3.62356 -1.16417,-0.46199 -4.61698,-1.76612 -7.67292,-2.89805 -3.05594,-1.13193 -6.56828,-2.38746 -7.80521,-2.79005 -1.23693,-0.4026 -2.57638,-0.89739 -2.97656,-1.09954 -0.40018,-0.20215 -0.72761,-0.58804 -0.72761,-0.85753 0,-0.26948 0.16627,-0.62796 0.36949,-0.79661 0.28663,-0.23789 0.86509,-0.13217 2.57968,0.47143 1.21562,0.42795 4.11521,1.48865 6.44354,2.35713 2.32834,0.86847 5.72162,2.14163 7.54063,2.82925 1.81901,0.68761 6.24153,2.66735 9.82783,4.39941 3.58629,1.73207 6.59187,3.14921 6.67906,3.14921 0.0872,0 1.32014,0.52325 2.73988,1.16279 1.41975,0.63953 3.71245,1.8053 5.09489,2.59059 1.38245,0.7853 6.83847,4.08343 12.1245,7.32918 5.76046,3.53708 12.16218,7.21584 15.9789,9.18231 3.50238,1.80451 6.49979,3.38518 6.66092,3.5126 0.16114,0.12742 4.04344,2.31144 8.62735,4.85338 4.58391,2.54195 9.28687,5.11799 10.45104,5.72455 1.16417,0.60656 3.21652,1.90559 4.56078,2.88674 1.34426,0.98114 4.0478,2.94918 6.00787,4.37341 1.96006,1.42423 4.56712,3.12327 5.79346,3.77565 1.22634,0.65238 3.04718,1.46543 4.0463,1.80678 0.99913,0.34135 2.46072,1.00193 3.24799,1.46796 0.78726,0.46604 2.65397,1.64286 4.14823,2.61518 1.49425,0.97231 4.09975,2.66068 5.78999,3.75193 1.98764,1.28327 3.12426,2.18773 3.21784,2.5606 0.0796,0.31707 0.0664,0.82321 -0.0293,1.12476 -0.12863,0.40528 -0.3936,0.54672 -1.01607,0.54237 -0.46314,-0.003 -1.13973,-0.24724 -1.50353,-0.54223 z m 2.53899,-10.11619 c -0.28992,-0.21199 -0.4373,-0.59452 -0.3813,-0.98971 0.0555,-0.39167 0.38198,-0.78306 0.83297,-0.99855 0.63812,-0.30491 0.83211,-0.29517 1.38906,0.0698 0.35605,0.2333 0.64736,0.65105 0.64736,0.92834 0,0.27729 -0.18709,0.69127 -0.41577,0.91994 -0.22867,0.22868 -0.68217,0.41578 -1.00776,0.41578 -0.3256,0 -0.80465,-0.1555 -1.06456,-0.34556 z m -14.06059,-9.90705 c -0.50121,-0.5457 -0.91186,-1.13251 -0.91255,-1.30402 -7e-4,-0.1715 0.18583,-0.49892 0.41451,-0.7276 0.22867,-0.22868 0.55822,-0.41577 0.73233,-0.41577 0.17411,0 0.76091,0.30195 1.30402,0.67099 0.76271,0.51828 0.98746,0.84737 0.98746,1.4459 0,0.49534 -0.18464,0.87372 -0.51177,1.0488 -0.28148,0.15064 -0.64474,0.27389 -0.80724,0.27389 -0.16251,0 -0.70555,-0.44648 -1.20676,-0.99219 z m 17.72125,-4.40953 c -0.11988,-0.47765 0.47049,-1.89879 2.33564,-5.62239 1.37284,-2.74075 2.84416,-5.57849 3.2696,-6.3061 0.42545,-0.7276 1.45124,-2.75228 2.27955,-4.49927 0.82831,-1.747 2.15496,-4.95829 2.94812,-7.1362 1.04906,-2.8806 1.59014,-4.0259 1.98527,-4.20221 0.38732,-0.17283 0.73558,-0.1163 1.21371,0.19698 0.3688,0.24165 0.67175,0.64497 0.67322,0.89628 10e-4,0.25131 -0.25867,1.20106 -0.57809,2.11057 -0.31943,0.9095 -0.67782,1.65364 -0.79643,1.65364 -0.11861,0 -0.21566,0.23279 -0.21566,0.5173 0,0.28452 -0.46572,1.57562 -1.03493,2.86912 -0.56922,1.29351 -1.59685,3.47174 -2.28362,4.84052 -0.68676,1.36878 -2.12128,4.00248 -3.18781,5.85268 -1.06653,1.8502 -2.49652,4.64817 -3.17775,6.21771 -0.68123,1.56954 -1.3706,2.94119 -1.53193,3.0481 -0.16133,0.10691 -0.61848,0.19621 -1.01589,0.19844 -0.54508,0.003 -0.76197,-0.15296 -0.883,-0.63517 z m -14.34882,-4.1762 c -0.17462,-0.17462 -0.3175,-0.50947 -0.3175,-0.74411 0,-0.23464 0.3634,-1.49075 0.80755,-2.79136 0.44414,-1.3006 1.9285,-6.07216 3.29857,-10.60345 1.37007,-4.5313 2.83264,-9.09955 3.25016,-10.15169 0.41751,-1.05213 0.95962,-2.02517 1.20468,-2.16231 0.24505,-0.13714 0.681,-0.17462 0.96877,-0.0833 0.28777,0.0913 0.59676,0.45912 0.68666,0.81731 0.10615,0.42293 -0.12069,1.36751 -0.64706,2.69434 -0.44578,1.12371 -1.87605,5.25779 -3.17837,9.18685 -1.30233,3.92907 -2.75454,8.55149 -3.22714,10.27206 -0.4726,1.72057 -1.02911,3.29815 -1.23669,3.50573 -0.20758,0.20758 -0.58323,0.37742 -0.83477,0.37742 -0.25155,0 -0.60023,-0.14287 -0.77486,-0.3175 z m -11.723,-0.82984 c -0.22672,-0.49759 -0.12124,-1.07269 0.54072,-2.94815 0.4523,-1.28149 1.42115,-4.77249 2.15298,-7.75779 0.73184,-2.9853 1.61277,-6.74856 1.95764,-8.36279 0.34486,-1.61423 0.70796,-3.72139 0.80689,-4.68257 0.10786,-1.04792 0.0557,-2.34556 -0.13018,-3.24114 -0.22934,-1.10473 -0.42667,-1.49355 -0.75796,-1.49355 -0.24635,0 -2.09306,0.89788 -4.1038,1.99529 -2.01075,1.09741 -3.98692,2.0615 -4.39149,2.14241 -0.43344,0.0867 -1.07693,-0.0294 -1.56661,-0.28262 -0.60459,-0.31264 -1.10922,-0.9865 -1.85203,-2.47314 -0.56156,-1.12387 -1.17097,-2.51965 -1.35426,-3.10173 -0.18328,-0.58209 -0.42009,-1.15362 -0.52624,-1.27008 -0.10616,-0.11645 -0.76364,1.3123 -1.46108,3.175 -0.69743,1.86271 -1.52925,3.92253 -1.84847,4.57737 -0.31923,0.65484 -1.59551,3.21469 -2.83619,5.68854 -1.24068,2.47386 -2.58002,5.48145 -2.97631,6.68355 -0.4609,1.39808 -0.90942,2.28673 -1.24476,2.4662 -0.39764,0.21281 -0.67971,0.17871 -1.16796,-0.14121 -0.35405,-0.23198 -0.64372,-0.66236 -0.64372,-0.9564 0,-0.29404 0.43198,-1.69028 0.95995,-3.10276 0.52797,-1.41247 2.05974,-4.77079 3.40393,-7.46292 1.34419,-2.69214 3.07066,-6.6212 3.8366,-8.73125 0.76594,-2.11005 1.60915,-4.2659 1.87379,-4.79077 0.26999,-0.53547 0.81431,-1.0923 1.24022,-1.26872 0.52604,-0.21789 0.96905,-0.23456 1.44315,-0.0543 0.37626,0.14305 0.97491,0.65445 1.33033,1.13643 0.35542,0.48198 0.9225,1.5907 1.26018,2.46383 0.33767,0.87312 0.8349,2.03398 1.10494,2.57968 0.34499,0.69715 0.66643,0.99433 1.08094,0.99937 0.32446,0.004 2.01868,-0.72204 3.76493,-1.61332 2.02043,-1.03122 3.60796,-1.66447 4.36563,-1.74141 0.82414,-0.0837 1.47566,0.0261 2.11666,0.35656 0.58796,0.30314 1.1498,0.91213 1.53892,1.66808 0.57488,1.11678 0.6058,1.42034 0.49859,4.89479 -0.11172,3.62065 -0.16559,3.90401 -2.38912,12.56771 -1.25115,4.87494 -2.51667,9.56495 -2.81228,10.42224 -0.29561,0.85728 -0.67174,1.72049 -0.83585,1.91823 -0.16411,0.19774 -0.70308,0.35953 -1.1977,0.35953 -0.68573,0 -0.96622,-0.14682 -1.18098,-0.61818 z m -30.33382,-14.76865 c -0.18118,-0.18118 -0.32942,-0.57678 -0.32942,-0.8791 0,-0.30233 0.41671,-2.54201 0.92604,-4.97707 0.50932,-2.43507 0.92604,-4.76939 0.92604,-5.18738 0,-0.49038 -0.16426,-0.8131 -0.46302,-0.90969 -0.25466,-0.0823 -3.02287,-1.0455 -6.15156,-2.14036 l -5.68855,-1.99065 -1.01323,1.11731 c -0.55729,0.61452 -1.74791,2.02748 -2.64584,3.1399 -0.89792,1.11243 -1.97059,2.45877 -2.38369,2.99187 -0.57393,0.74064 -0.91089,0.95006 -1.42852,0.88782 -0.37258,-0.0448 -0.8085,-0.29084 -0.9687,-0.54675 -0.22067,-0.35253 -0.19507,-0.62162 0.10561,-1.11022 0.21828,-0.3547 1.5875,-2.08985 3.04271,-3.85589 1.45521,-1.76603 2.72804,-3.35003 2.82851,-3.51999 0.10047,-0.16996 0.25111,-0.63462 0.33476,-1.03259 0.10663,-0.50732 0.36833,-0.77721 0.87565,-0.90304 0.41196,-0.10217 2.37579,-1.73774 4.56004,-3.7978 2.11005,-1.99009 4.56572,-4.27967 5.45703,-5.08795 0.89132,-0.80829 1.99315,-1.55144 2.4485,-1.65145 0.57189,-0.12561 1.13047,-0.0321 1.80629,0.30244 0.66683,0.33008 1.16684,0.86342 1.57024,1.67491 0.32552,0.65485 0.7182,1.91476 0.87261,2.7998 0.15441,0.88505 0.28026,3.68302 0.27968,6.21771 -6.6e-4,2.83636 -0.15557,5.5751 -0.40285,7.12208 -0.22097,1.38245 -0.77195,4.23995 -1.22439,6.35 -0.45244,2.11005 -0.91223,3.89599 -1.02176,3.96875 -0.10953,0.0728 -0.24365,0.37042 -0.29806,0.66146 -0.0684,0.36581 -0.34368,0.55326 -0.8918,0.60724 -0.43609,0.0429 -0.94113,-0.0702 -1.12232,-0.25136 z m 2.19414,-16.5116 c 0.10311,-1.10028 0.10806,-2.85645 0.011,-3.9026 -0.097,-1.04616 -0.2961,-2.61647 -0.44234,-3.4896 -0.14623,-0.87312 -0.3885,-1.9748 -0.53837,-2.44816 l -0.27248,-0.86067 -3.48496,3.1503 c -1.91673,1.73266 -4.12249,3.80319 -4.90169,4.60117 l -1.41674,1.45088 5.12091,1.71522 c 2.81649,0.94338 5.25957,1.7307 5.42905,1.7496 0.19606,0.0219 0.37635,-0.69334 0.49562,-1.96614 z m -32.17543,1.66365 c -0.66504,-0.61509 -2.42116,-2.22793 -3.90251,-3.58408 -1.48134,-1.35614 -3.06694,-3.00873 -3.52357,-3.67242 -0.4794,-0.69679 -0.88232,-1.66888 -0.95351,-2.30047 -0.0904,-0.80199 0.0921,-1.65749 0.68412,-3.20675 0.44407,-1.16213 1.45097,-3.8989 2.23755,-6.08171 0.78659,-2.18282 1.79627,-5.21891 2.24375,-6.74688 0.44747,-1.52797 0.94521,-3.28211 1.10609,-3.8981 0.16238,-0.62174 0.52392,-1.24383 0.81268,-1.39838 0.36529,-0.19549 0.67775,-0.19406 1.04935,0.005 0.30292,0.16212 0.52917,0.554 0.52917,0.91656 0,0.34835 -0.88194,3.23142 -1.95985,6.40684 -1.07792,3.17541 -2.50667,7.45811 -3.175,9.51709 -0.66834,2.05899 -1.21515,3.87736 -1.21515,4.04081 0,0.16346 0.50601,0.84802 1.12448,1.52124 0.61846,0.67323 2.49369,2.41398 4.16718,3.86833 1.67349,1.45435 3.25107,2.87859 3.50573,3.16497 0.25466,0.28639 0.46302,0.84089 0.46302,1.23223 0,0.39133 -0.14287,0.85439 -0.3175,1.02902 -0.17462,0.17462 -0.62111,0.31474 -0.99218,0.31137 -0.4204,-0.004 -1.13043,-0.42765 -1.88385,-1.12448 z m -23.2648,-9.73333 c -0.65484,-0.12011 -1.96453,-0.44207 -2.91042,-0.71547 -1.19684,-0.34595 -1.79731,-0.66794 -1.97472,-1.05893 -0.14021,-0.309 -0.52717,-0.63015 -0.8599,-0.71366 -0.47552,-0.11935 -0.60496,-0.33646 -0.60496,-1.01472 0,-0.47459 0.41566,-1.84846 0.92369,-3.05304 0.50803,-1.20458 1.58759,-4.118 2.39903,-6.47426 0.81145,-2.35626 1.76762,-5.51457 2.12483,-7.01848 0.35721,-1.5039 0.83114,-3.16915 1.05318,-3.70055 0.22203,-0.53141 0.6659,-1.24729 0.98638,-1.59086 0.32047,-0.34357 1.02442,-0.85121 1.56433,-1.12809 0.54336,-0.27865 1.52265,-0.50342 2.19335,-0.50342 0.67731,0 1.65569,0.2265 2.21841,0.51358 0.55368,0.28247 1.37017,0.92755 1.81442,1.43352 0.44424,0.50597 1.04383,1.55478 1.33241,2.33069 0.28858,0.77592 0.608,1.91139 0.70982,2.52329 0.10238,0.61524 0.0492,1.76727 -0.11896,2.57729 -0.1685,0.81167 -0.68503,2.01756 -1.15848,2.70458 -0.55688,0.80809 -1.37203,1.52644 -2.3409,2.06293 l -1.48651,0.82311 0.93394,0.63994 c 0.51366,0.35197 1.46465,1.29146 2.1133,2.08774 0.64865,0.79629 1.42419,1.9277 1.72342,2.51424 0.32015,0.62754 0.55745,1.63405 0.57659,2.44564 0.0242,1.02474 -0.11057,1.57152 -0.52428,2.12748 -0.30625,0.41154 -0.94462,0.97534 -1.41859,1.25288 -0.47397,0.27754 -1.53308,0.66264 -2.35359,0.85577 -0.82051,0.19312 -2.44433,0.33899 -3.6085,0.32415 -1.16416,-0.0148 -2.65245,-0.12525 -3.30729,-0.24535 z m 6.28589,-3.29674 c 0.88782,-0.26366 1.41139,-0.58051 1.51888,-0.9192 0.0902,-0.28427 -0.0242,-0.91351 -0.25422,-1.3983 -0.23005,-0.48479 -1.04077,-1.48848 -1.8016,-2.23043 -0.76083,-0.74194 -2.39536,-2.03063 -3.63228,-2.86375 -1.23693,-0.83311 -2.31019,-1.67836 -2.38502,-1.87833 -0.0748,-0.19996 -0.80472,1.393 -1.62197,3.53991 -0.81725,2.14692 -1.56154,4.1519 -1.65397,4.45552 -0.15383,0.50527 0.0284,0.59862 2.15114,1.10209 1.27555,0.30253 3.22032,0.56013 4.32169,0.57245 1.10138,0.0123 2.61218,-0.15867 3.35735,-0.37996 z m -3.36539,-11.50228 c 0.99258,-10e-4 1.84419,-0.19368 2.63978,-0.59694 0.69592,-0.35274 1.39242,-0.97265 1.70932,-1.52135 0.38448,-0.66572 0.5297,-1.37679 0.5166,-2.52947 -0.0134,-1.17822 -0.18869,-1.91134 -0.66107,-2.7646 -0.35356,-0.63864 -1.0287,-1.38594 -1.50032,-1.66066 -0.8344,-0.48605 -0.88411,-0.48641 -1.84698,-0.0135 -0.69411,0.3409 -1.08544,0.76241 -1.31089,1.41201 -0.17677,0.50932 -0.73507,2.41432 -1.24066,4.23333 -0.5056,1.81901 -1.00087,3.51509 -1.1006,3.76906 -0.16776,0.42721 -0.1248,0.43228 0.5741,0.0678 0.41549,-0.2167 1.41481,-0.39473 2.22072,-0.39563 z m -310.06261,8.92806 c -1.11029,-1.20054 -3.57087,-3.79015 -5.46797,-5.75469 -1.89709,-1.96453 -4.21317,-4.46484 -5.14683,-5.55625 -0.93366,-1.0914 -3.08277,-3.41312 -4.77579,-5.15937 -1.69302,-1.74625 -4.49599,-4.84188 -6.22882,-6.87917 -1.73284,-2.03729 -4.58356,-5.31151 -6.33495,-7.27604 -1.75138,-1.96453 -3.55235,-4.04812 -4.00214,-4.63021 -0.44979,-0.58208 -0.97022,-1.48539 -1.15651,-2.00735 -0.20226,-0.56673 -0.26631,-1.33492 -0.15899,-1.90697 0.0988,-0.52687 0.67435,-1.58809 1.27891,-2.35827 0.60456,-0.77018 2.05864,-2.35315 3.23127,-3.51771 1.17264,-1.16456 4.15613,-4.0789 6.62998,-6.47631 2.47386,-2.3974 7.8912,-7.69907 12.03855,-11.78148 4.14734,-4.08241 9.77579,-9.53221 12.50767,-12.11067 2.73187,-2.57846 5.11908,-4.68811 5.30489,-4.68811 0.18582,0 0.48073,0.14287 0.65535,0.3175 0.17463,0.17462 0.3175,0.50797 0.3175,0.74078 0,0.23281 -2.35148,2.55575 -5.22552,5.1621 -2.87404,2.60635 -8.50335,8.01776 -12.50958,12.02536 -4.00623,4.0076 -8.76449,8.89389 -10.5739,10.85842 -1.80941,1.96453 -4.56609,4.88157 -6.12595,6.4823 -1.55986,1.60072 -3.32028,3.50354 -3.91204,4.22848 -0.59176,0.72494 -1.07592,1.51551 -1.07592,1.75683 0,0.24132 0.54977,1.18558 1.22171,2.09835 0.67194,0.91276 2.12764,2.74157 3.23487,4.064 1.10724,1.32243 3.6344,4.24989 5.61592,6.50546 1.98152,2.25557 4.90446,5.3512 6.49544,6.87917 1.59097,1.52797 3.86026,3.96875 5.04286,5.42396 1.1826,1.4552 2.94688,3.41974 3.92062,4.36562 0.97374,0.94589 3.36658,3.4662 5.31742,5.6007 2.47404,2.70695 3.54699,4.07155 3.54699,4.51115 0,0.34663 -0.14288,0.77311 -0.3175,0.94773 -0.17463,0.17463 -0.54505,0.3175 -0.82317,0.3175 -0.29385,0 -1.35129,-0.91436 -2.52437,-2.18281 z m 397.13604,0.1618 c -0.9263,-0.20083 -2.65271,-0.64828 -3.83646,-0.99434 -1.18374,-0.34605 -3.34289,-1.10765 -4.7981,-1.69245 -1.4552,-0.5848 -4.07458,-1.73787 -5.82083,-2.56239 -1.74625,-0.82452 -4.2628,-1.96363 -5.59234,-2.53137 -1.32954,-0.56774 -4.18704,-1.55605 -6.35,-2.19625 -2.16296,-0.64019 -6.4925,-1.93979 -9.6212,-2.888 -3.1287,-0.94821 -6.99823,-2.08309 -8.59896,-2.52197 -1.60073,-0.43887 -4.25268,-1.10402 -5.89322,-1.4781 -1.78398,-0.40679 -6.13305,-1.8656 -10.82097,-3.62968 -5.62197,-2.11557 -8.7061,-3.12656 -10.90782,-3.57561 -1.68831,-0.34435 -5.6295,-0.9852 -8.7582,-1.42411 -3.12869,-0.43892 -7.39504,-0.95514 -9.48076,-1.14715 -2.69316,-0.24793 -3.86138,-0.45839 -4.03084,-0.72615 -0.13125,-0.20737 -0.24045,-0.5769 -0.24268,-0.82116 -0.002,-0.24427 0.19184,-0.64002 0.43127,-0.87944 0.34238,-0.34238 0.72365,-0.3991 1.78593,-0.26567 0.74285,0.0933 3.49375,0.45048 6.11313,0.79374 2.61937,0.34326 5.65546,0.69747 6.74687,0.78713 1.09141,0.0897 3.71078,0.46407 5.82083,0.83204 2.78751,0.48611 4.63222,0.98542 6.74688,1.8262 1.60073,0.63645 4.69189,1.88188 6.86924,2.76762 2.17736,0.88575 5.08078,1.96115 6.45205,2.38979 1.37127,0.42864 3.63291,0.97348 5.02585,1.21076 1.39295,0.23728 3.66875,0.76652 5.05733,1.1761 1.38858,0.40957 4.66782,1.39741 7.28719,2.1952 2.61938,0.79779 6.90563,2.07412 9.525,2.8363 2.61938,0.76217 5.59594,1.71544 6.61459,2.11836 1.01864,0.40293 3.16177,1.35054 4.7625,2.10581 1.60073,0.75526 4.16923,1.87962 5.70779,2.49857 1.53856,0.61895 4.03887,1.49305 5.55625,1.94243 1.51738,0.44938 3.93006,1.07914 5.36151,1.39947 2.12407,0.47533 2.65207,0.69092 2.87149,1.17249 0.18764,0.41183 0.1779,0.76003 -0.0323,1.15271 -0.23058,0.43086 -0.53131,0.55463 -1.28399,0.52846 -0.54058,-0.0188 -1.74076,-0.1985 -2.66707,-0.39934 z m -369.21129,-0.69096 c -0.36292,-0.26813 -0.54667,-1.38255 -0.97064,-5.88698 -0.28763,-3.05594 -0.65097,-7.1636 -0.80742,-9.12813 -0.15646,-1.96453 -0.46658,-4.7625 -0.68916,-6.21771 -0.22259,-1.45521 -0.51041,-4.96755 -0.6396,-7.80521 -0.12919,-2.83765 -0.35387,-7.06437 -0.49929,-9.3927 -0.14543,-2.32834 -0.33389,-8.93631 -0.41881,-14.68438 -0.0849,-5.74807 -0.25453,-13.4049 -0.37691,-17.01517 -0.18524,-5.4648 -0.15965,-6.69012 0.15277,-7.31638 0.2064,-0.41373 0.53936,-0.81521 0.73992,-0.89217 0.20056,-0.077 0.57671,0.0151 0.83589,0.20464 0.42698,0.31221 0.49051,1.1366 0.67656,8.77922 0.11293,4.63906 0.13623,9.92293 0.0518,11.74194 -0.0844,1.81901 -0.0206,6.10526 0.14199,9.525 0.16255,3.41974 0.36908,7.19423 0.45898,8.38775 l 0.16344,2.17003 1.7557,-0.14036 c 0.96564,-0.0772 2.82727,-0.24363 4.13696,-0.36984 1.30969,-0.12621 4.22672,-0.47741 6.48229,-0.78044 2.25558,-0.30304 5.3512,-0.78552 6.87917,-1.07219 1.52797,-0.28666 3.26033,-0.52139 3.84969,-0.52162 0.58936,-2.3e-4 1.18467,-0.11266 1.32291,-0.24985 0.13825,-0.1372 1.75907,-0.43485 3.601819,-0.66146 1.842753,-0.22661 3.854071,-0.41202 4.469594,-0.41202 h 1.119133 l -0.191941,-2.71198 c -0.105568,-1.49158 -0.300666,-4.08119 -0.433551,-5.75468 -0.132885,-1.67349 -0.319773,-9.01172 -0.415306,-16.30717 -0.171725,-13.11397 -0.16765,-13.2677 0.359178,-13.54965 0.390928,-0.20921 0.642078,-0.19981 0.942831,0.0353 0.358149,0.27997 0.427617,2.14278 0.549693,14.74027 0.09475,9.77735 0.270749,15.86789 0.546673,18.91771 0.223816,2.47385 0.40962,4.51379 0.412899,4.5332 0.0033,0.0194 0.238664,0.0961 0.523079,0.17052 0.285717,0.0747 0.599635,0.464 0.701522,0.86995 0.14652,0.58378 0.05387,0.8477 -0.450972,1.28469 l -0.635376,0.54997 0.16528,8.20208 c 0.128275,6.36568 0.291734,9.04083 0.730068,11.94822 0.310633,2.06037 0.859734,6.1085 1.220226,8.99583 0.360491,2.88734 0.657039,6.02956 0.658995,6.98272 0.0021,0.9998 -0.130776,1.86736 -0.313944,2.05052 -0.174625,0.17463 -0.576766,0.3175 -0.893645,0.3175 -0.31688,0 -0.711319,-0.16287 -0.876531,-0.36194 -0.165212,-0.19907 -0.415172,-1.83618 -0.555466,-3.63802 -0.140295,-1.80184 -0.437686,-5.35967 -0.66087,-7.90629 -0.223185,-2.54661 -0.523585,-5.80368 -0.667556,-7.23793 -0.143971,-1.43424 -0.261766,-5.31525 -0.261766,-8.62445 0,-3.30921 -0.07736,-7.10659 -0.171911,-8.43864 -0.113527,-1.59937 -0.278818,-2.42189 -0.486697,-2.42189 -0.173132,0 -0.446652,0.28941 -0.607822,0.64314 -0.225714,0.49539 -0.554594,0.67433 -1.431532,0.77889 -0.626173,0.0747 -2.864902,0.32117 -4.974954,0.54781 -2.11005,0.22663 -6.03911,0.53671 -8.73125,0.68907 -2.69213,0.15235 -6.20448,0.44609 -7.80521,0.65274 -1.60073,0.20666 -4.16057,0.44621 -5.68854,0.53233 -1.52797,0.0861 -3.06421,0.2158 -3.41387,0.28816 l -0.63574,0.13157 0.18465,4.0197 c 0.10156,2.21084 0.2876,4.85315 0.41343,5.8718 0.12582,1.01864 0.53448,3.57849 0.90813,5.68854 0.37365,2.11005 0.79453,5.08661 0.93529,6.61458 0.14076,1.52797 0.33974,4.88773 0.44218,7.46613 0.14406,3.62625 0.11008,4.77979 -0.15006,5.09323 -0.18497,0.22287 -0.53709,0.40522 -0.7825,0.40522 -0.24541,0 -0.64766,-0.14882 -0.89388,-0.33072 z m 109.691924,-1.21534 c -0.39547,-0.5349 -0.65224,-1.50983 -0.88846,-3.37344 -0.22189,-1.75054 -0.29534,-4.90597 -0.22115,-9.50029 0.0611,-3.78354 0.10301,-9.49854 0.0931,-12.7 l -0.018,-5.82083 -1.0943,-3.34779 c -0.60186,-1.84128 -1.23618,-4.16252 -1.40959,-5.1583 -0.20823,-1.19577 -0.25796,-3.13502 -0.14644,-5.71136 0.0929,-2.14546 0.46621,-6.01548 0.82967,-8.60003 0.36345,-2.58455 0.84158,-6.36606 1.0625,-8.40336 0.22093,-2.03729 0.52542,-4.31592 0.67665,-5.06363 0.15123,-0.74771 0.47765,-1.5373 0.72537,-1.75465 0.24773,-0.21734 0.72413,-0.47865 1.05868,-0.5807 0.39348,-0.12001 0.86061,-0.025 1.32291,0.26901 0.39306,0.25 3.15543,2.91927 6.1386098,5.93172 2.98318,3.01245 6.91224002,6.79538 8.73125,8.40651 1.81901,1.61112 4.08106,3.64302 5.02677,4.51534 1.23177,1.13617 1.83213,1.52539 2.11667,1.37227 0.21845,-0.11756 1.7707002,-1.62394 3.4494302,-3.34751 1.67874,-1.72357 3.92806,-4.18871 4.9985,-5.47808 1.07044,-1.28937 2.67445,-3.31343 3.56447,-4.49792 0.89002,-1.18448 2.20177,-3.19741 2.91499,-4.47317 0.86128,-1.54061 1.59002,-2.5008 2.17003,-2.85927 0.69057,-0.4268 0.98556,-0.47962 1.40996,-0.25249 0.29518,0.15797 0.59257,0.55168 0.66089,0.8749 0.0683,0.32322 0.25312,2.31408 0.41068,4.42413 0.15757,2.11005 0.45553,10.08724 0.66215,17.72709 0.20661,7.63984 0.49893,14.78359 0.64959,15.875 0.15067,1.0914 0.74444,4.54422 1.31949,7.67291 0.57505,3.1287 1.18982,6.81964 1.36616,8.20209 0.17634,1.38245 0.32388,4.06135 0.32787,5.95312 0.005,2.22092 -0.10726,3.65051 -0.31597,4.0349 -0.22077,0.40662 -0.5669,0.59531 -1.09204,0.59531 -0.42285,0 -0.83672,-0.10985 -0.9197,-0.24412 -0.083,-0.13426 -0.27304,-0.87841 -0.42236,-1.65364 -0.14932,-0.77524 -0.38755,-3.70688 -0.5294,-6.51476 -0.14185,-2.80787 -0.54323,-7.03459 -0.89195,-9.3927 -0.34873,-2.35812 -0.70934,-5.18046 -0.80138,-6.27186 -0.092,-1.09141 -0.34576,-3.22201 -0.56385,-4.73466 -0.21808,-1.51266 -0.32646,-3.23907 -0.24083,-3.83646 0.0856,-0.5974 -0.0245,-6.10951 -0.24466,-12.24915 -0.22019,-6.13963 -0.54425,-11.94393 -0.72012,-12.89844 -0.17588,-0.9545 -0.41826,-1.73546 -0.53862,-1.73546 -0.12037,0 -0.21885,0.12738 -0.21885,0.28306 0,0.15568 -0.37926,0.84029 -0.84279,1.52135 -0.46354,0.68106 -2.01543,2.66705 -3.44864,4.4133 -1.43322,1.74625 -3.61781,4.36562 -4.85464,5.82083 -1.23684,1.45521 -2.81034,3.31744 -3.49668,4.1383 -0.68633,0.82086 -1.71819,1.80312 -2.2930302,2.18281 -0.57483,0.37969 -1.40827,0.6899 -1.85208,0.68936 -0.44381,-5.4e-4 -1.16636,-0.22018 -1.60566,-0.48808 -0.4393,-0.26789 -2.10514,-1.90456 -3.70187,-3.63703 -1.59674,-1.73247 -3.38142998,-3.62619 -3.96598,-4.20828 -0.58456,-0.58208 -2.12246,-1.9513 -3.41758,-3.0427 -1.29511,-1.09141 -3.08005,-2.56901 -3.96654,-3.28355 -0.88649,-0.71455 -2.3000498,-1.88675 -3.1412498,-2.6049 -0.88911,-0.75905 -1.68871,-1.24459 -1.90986,-1.15973 -0.20924,0.0803 -0.55326,0.55963 -0.7645,1.06521 -0.21125,0.50557 -0.58731,1.90973 -0.8357,3.12036 -0.37523,1.82885 -0.45339,3.81221 -0.46209,11.72615 -0.006,5.59626 0.10537,10.17979 0.27041,11.1125 0.15449,0.87312 0.59547,2.77812 0.97995,4.23333 0.38449,1.45521 0.7708,3.72705 0.85847,5.04854 0.0877,1.32148 0.0185,4.11945 -0.15385,6.21771 -0.17229,2.09825 -0.332,5.95813 -0.3549,8.5775 -0.0229,2.61938 0.12167,6.45666 0.32128,8.52729 0.2765,2.86834 0.29056,3.92361 0.059,4.43177 -0.16714,0.36684 -0.52218,0.66698 -0.78898,0.66698 -0.26679,0 -0.73538,-0.33854 -1.04129,-0.75231 z m -35.213007,-0.48695 c -0.191305,-0.0765 -0.456422,-0.42477 -0.589148,-0.77387 -0.132726,-0.3491 -0.361886,-3.16434 -0.509244,-6.25611 -0.147357,-3.09176 -0.498488,-7.70497 -0.78029,-10.25159 -0.281803,-2.54661 -0.662682,-7.26328 -0.846399,-10.48149 -0.307716,-5.39032 -0.293629,-6.20323 0.178814,-10.31875 0.426354,-3.71403 0.505422,-6.07385 0.468831,-13.99247 -0.02421,-5.23875 -0.126974,-11.7121 -0.22837,-14.38523 l -0.184356,-4.86024 -8.183667,0.16703 c -5.50751,0.1124 -8.352945,0.0764 -8.701318,-0.11001 -0.284707,-0.15238 -0.51765,-0.52586 -0.51765,-0.82997 0,-0.468 -0.116922,-0.52955 -0.761144,-0.4007 -0.433225,0.0866 -0.957001,0.009 -1.215753,-0.18019 -0.274226,-0.20052 -0.418392,-0.589 -0.363334,-0.97905 l 0.09127,-0.64664 12.170833,-0.16312 c 6.693958,-0.0897 14.552083,-0.29883 17.462499,-0.46469 2.910417,-0.16586 6.303698,-0.41616 7.540625,-0.55622 1.236927,-0.14007 2.844271,-0.27792 3.571875,-0.30635 0.727604,-0.0284 1.59336,-0.0322 1.923902,-0.008 0.348648,0.0252 0.721123,0.30711 0.887116,0.67142 0.202487,0.44441 0.204045,0.78137 0.0053,1.15267 -0.175272,0.32751 -0.871961,0.69056 -1.853821,0.96605 -0.865161,0.24276 -3.221597,0.55045 -5.236524,0.68376 -2.014926,0.13332 -6.031749,0.39109 -8.926272,0.57282 l -5.26277,0.33043 0.05939,11.9222 c 0.03266,6.55722 -0.02253,17.13828 -0.122654,23.51348 -0.121345,7.72647 -0.08407,12.84313 0.111782,15.34583 0.161604,2.06501 0.466276,5.5405 0.677051,7.72332 0.210774,2.18281 0.465987,5.84007 0.567138,8.12725 0.141428,3.19788 0.106161,4.2522 -0.152668,4.56407 -0.185119,0.22305 -0.47083,0.39615 -0.634913,0.38466 -0.164083,-0.0115 -0.454855,-0.0835 -0.64616,-0.16004 z m 134.226987,-0.61168 c -0.87312,-0.11456 -6.39977,-0.22121 -12.28145,-0.23701 -6.57104,-0.0176 -11.3503,-0.14301 -12.39637,-0.32518 -1.26544,-0.22036 -1.94328,-0.50794 -2.64077,-1.12034 -0.5161,-0.45314 -1.09399,-1.19637 -1.28421,-1.65164 -0.19022,-0.45527 -0.58751,-2.54072 -0.88285,-4.63434 -0.29535,-2.09362 -0.77682,-6.1591 -1.06994,-9.0344 -0.29312,-2.8753 -0.53295,-5.70119 -0.53295,-6.27977 0,-0.57857 -0.34762,-2.80996 -0.77248,-4.95864 -0.42487,-2.14868 -0.84909,-5.09732 -0.94271,-6.55253 -0.0936,-1.45521 -0.53907,-4.4913 -0.98987,-6.74687 -0.72689,-3.63692 -0.8188,-4.61009 -0.81208,-8.59896 0.004,-2.47386 -0.1067,-8.6397 -0.24637,-13.70188 -0.17782,-6.44503 -0.16991,-9.30521 0.0264,-9.54173 0.15418,-0.18577 0.21347,-0.74971 0.13177,-1.25319 -0.10981,-0.67669 -0.0122,-1.08386 0.37441,-1.56126 0.46439,-0.57351 0.60051,-0.61049 1.2155,-0.33029 0.6737,0.30696 0.69272,0.38228 0.69939,2.76861 0.004,1.34919 0.11925,5.61519 0.2566,9.48 0.15304,4.30596 0.45933,8.50648 0.791,10.84791 0.3142,2.21802 0.65399,6.70694 0.80996,10.70016 0.1769,4.52907 0.43752,7.78305 0.76287,9.525 0.27179,1.45521 0.57491,3.47927 0.67359,4.49792 0.0987,1.01864 0.46214,2.98318 0.8077,4.36562 0.34556,1.38245 0.74738,3.58511 0.89294,4.8948 0.14556,1.30968 0.33749,3.45281 0.42652,4.7625 0.089,1.30968 0.32945,3.54012 0.53428,4.95652 0.20484,1.4164 0.61552,3.05177 0.91263,3.63415 0.29711,0.58239 0.80656,1.23008 1.13211,1.43933 0.32555,0.20925 1.30628,0.51314 2.1794,0.67533 0.89254,0.16578 4.36736,0.2923 7.9375,0.289 3.4925,-0.003 7.65969,0.11606 9.26042,0.26509 1.60073,0.14903 4.59796,0.36317 6.6605,0.47586 2.42649,0.13257 3.8973,0.32707 4.16719,0.55105 0.22941,0.19039 0.4171,0.62074 0.4171,0.95633 0,0.33559 -0.1871,0.79726 -0.41577,1.02594 -0.22868,0.22867 -0.85376,0.41708 -1.38906,0.41868 -0.53531,0.002 -1.39001,0.0487 -1.89933,0.10471 -0.50933,0.056 -1.64042,0.008 -2.51355,-0.10648 z m 22.604876,-2.27058 c -0.28088,-0.33844 -0.2845,-0.65114 -0.0192,-1.65365 0.17997,-0.67995 0.61808,-1.67894 0.97357,-2.21997 0.35549,-0.54103 2.04618,-2.46194 3.75708,-4.26869 2.58294,-2.72765 3.37638,-3.7728 4.67646,-6.16006 0.86115,-1.58129 2.19463,-4.01334 2.96329,-5.40457 0.76866,-1.39122 2.62914,-4.18919 4.13441,-6.21771 1.50527,-2.02851 4.27013,-5.5932 6.14414,-7.92153 1.87401,-2.32834 3.99326,-5.12631 4.70944,-6.21771 1.20786,-1.84068 1.29427,-2.08167 1.19332,-3.32797 -0.0746,-0.9207 -0.32629,-1.62855 -0.79974,-2.24896 -0.38001,-0.49795 -1.34653,-1.47117 -2.14783,-2.16272 -0.8013,-0.69154 -5.42339,-3.98918 -10.2713,-7.32808 -4.84791,-3.3389 -9.94547,-6.89361 -11.32792,-7.89935 -1.38245,-1.00575 -3.82323,-2.51639 -5.42396,-3.35699 -1.60073,-0.8406 -5.008166,-2.64753 -7.572086,-4.01539 -2.56393,-1.36787 -6.17888,-3.07329 -8.03323,-3.78982 -1.85435,-0.71654 -3.65589,-1.4891 -4.00342,-1.71682 -0.38056,-0.24935 -0.63188,-0.67098 -0.63188,-1.06007 0,-0.35533 0.21613,-0.76172 0.4803,-0.9031 0.27954,-0.14961 0.86014,-0.16769 1.38906,-0.0433 0.49982,0.11758 2.15892,0.71387 3.68689,1.32508 1.52796,0.61122 4.08781,1.80244 5.68854,2.64716 1.60073,0.84472 5.172596,2.70134 7.937496,4.12582 2.76489,1.42448 5.80099,3.06249 6.74687,3.64002 0.94589,0.57753 3.38667,2.21226 5.42396,3.63273 2.03729,1.42048 5.52636,3.72167 7.75349,5.11376 2.2399,1.40007 5.72762,3.91528 7.80521,5.6288 2.06573,1.70375 4.50002,3.81822 5.40953,4.69882 1.62746,1.57575 1.65364,1.62377 1.65364,3.03272 0,1.01387 -0.17111,1.71096 -0.5864,2.3889 -0.32252,0.5265 -1.84288,2.68367 -3.37857,4.79373 -1.53569,2.11005 -3.36201,4.64096 -4.0585,5.62425 -0.69648,0.98329 -2.52701,4.13845 -4.06784,7.01146 -1.54083,2.87301 -3.39799,6.09184 -4.12703,7.15294 -0.72904,1.0611 -2.593,3.44235 -4.14214,5.29167 -1.54914,1.84931 -3.21922,3.9577 -3.71129,4.6853 -0.49207,0.72761 -1.89741,2.53763 -3.12299,4.02227 -1.22557,1.48464 -2.50956,2.88362 -2.8533,3.10885 -0.34374,0.22523 -0.91225,0.40951 -1.26335,0.40951 -0.35111,0 -0.79424,-0.18781 -0.98475,-0.41736 z m 55.24877,-35.58717 c -0.25466,-0.14833 -0.46302,-0.54685 -0.46302,-0.8856 0,-0.33875 0.14883,-0.73382 0.33073,-0.87793 0.1819,-0.14411 1.58088,-0.34188 3.10885,-0.43949 1.52797,-0.0976 4.445,-0.41215 6.48229,-0.69896 2.03729,-0.28682 5.07339,-0.75484 6.74688,-1.04006 1.67349,-0.28522 4.82864,-0.64542 7.01145,-0.80044 2.18282,-0.15502 5.93329,-0.46513 8.33438,-0.68912 2.40109,-0.224 5.55625,-0.51231 7.01146,-0.6407 1.45521,-0.12839 4.37224,-0.24228 6.48229,-0.25308 2.11005,-0.0108 5.31742,-0.12723 7.12749,-0.25873 2.09467,-0.15217 3.46526,-0.14584 3.77031,0.0174 0.31657,0.16942 0.47928,0.55811 0.47928,1.14493 0,0.59616 -0.15231,0.95195 -0.46302,1.08153 -0.25466,0.1062 -4.8088,0.35113 -10.12031,0.54427 -5.31151,0.19315 -11.56229,0.53201 -13.89063,0.75303 -2.32833,0.22102 -6.34741,0.52744 -8.93128,0.68095 -2.58387,0.15351 -6.92965,0.57786 -9.65729,0.94302 -2.72764,0.36515 -6.74528,0.89808 -8.92809,1.18429 -2.18281,0.2862 -3.96875,0.51677 -3.96875,0.51236 0,-0.004 -0.20836,-0.12936 -0.46302,-0.27769 z m -7.52489,-16.28664 c -0.0914,-0.23807 -0.0489,-0.61861 0.0943,-0.84565 0.14321,-0.22705 1.14443,-0.67442 2.22492,-0.99416 1.08049,-0.31974 4.94108,-1.4218 8.57911,-2.44902 3.63802,-1.02722 8.7577,-2.53546 11.37708,-3.35163 2.61937,-0.81618 6.31031,-1.89091 8.20208,-2.38829 1.89177,-0.49738 5.64224,-1.27051 8.33438,-1.71807 2.69213,-0.44756 6.74026,-1.29327 8.99583,-1.87936 2.25557,-0.58609 7.79198,-2.29244 12.30312,-3.7919 4.51115,-1.49946 9.69037,-3.0437 11.50938,-3.43164 1.81901,-0.38795 5.21229,-1.11765 7.54062,-1.62157 2.32834,-0.50392 5.84068,-1.3307 7.80521,-1.8373 1.96453,-0.5066 6.13172,-1.56943 9.26042,-2.36186 3.1287,-0.79242 8.12044,-1.93152 11.09277,-2.53132 2.97233,-0.59981 7.51385,-1.61982 10.09228,-2.26669 2.57842,-0.64687 6.99261,-1.95381 9.80931,-2.90431 2.81669,-0.9505 7.53359,-2.51456 10.48199,-3.4757 5.19853,-1.69465 5.37665,-1.73311 5.88698,-1.27127 0.28944,0.26194 0.52625,0.68135 0.52625,0.93202 0,0.25066 -0.16796,0.59516 -0.37325,0.76553 -0.20529,0.17038 -2.67584,1.02663 -5.49011,1.90279 -2.81427,0.87615 -7.61716,2.30778 -10.6731,3.18138 -3.05593,0.87361 -8.29468,2.22363 -11.64166,3.00006 -3.34698,0.77642 -7.99042,1.78588 -10.31875,2.24324 -2.32834,0.45736 -6.79318,1.49084 -9.92188,2.29662 -3.1287,0.80578 -6.80523,1.75224 -8.17008,2.10326 -1.36485,0.35101 -5.47251,1.29873 -9.12813,2.10604 -3.65562,0.80731 -7.95627,1.81501 -9.557,2.23933 -1.60073,0.42432 -6.06557,1.83206 -9.92187,3.1283 -3.8563,1.29624 -9.45224,2.9552 -12.43542,3.68658 -2.98317,0.73137 -7.09083,1.59106 -9.12812,1.91041 -2.03729,0.31936 -4.89479,0.87545 -6.35,1.23577 -1.45521,0.36033 -5.26521,1.47157 -8.46667,2.46944 -3.20146,0.99787 -9.33716,2.83524 -13.6349,4.08305 -4.29774,1.24782 -8.02218,2.26875 -8.27653,2.26875 -0.25436,0 -0.53721,-0.19477 -0.62856,-0.43283 z m 18.59111,-8.87684 c -0.28011,-0.16138 -0.78548,-0.60327 -1.12303,-0.98198 -0.33756,-0.3787 -1.84889,-3.12934 -3.35851,-6.11251 -1.50962,-2.98318 -3.35574,-6.60391 -4.10248,-8.04607 -1.16758,-2.2549 -1.35772,-2.83293 -1.35772,-4.12749 0,-1.2463 0.13402,-1.69039 0.7787,-2.58035 0.42829,-0.59123 1.3454,-1.46486 2.03802,-1.9414 0.69263,-0.47654 1.68166,-1.01748 2.19786,-1.20208 0.5162,-0.1846 1.58293,-0.34086 2.3705,-0.34725 1.06272,-0.009 1.72137,0.15799 2.55428,0.6461 0.74834,0.43856 1.3071,1.03946 1.67689,1.80333 0.33365,0.68922 0.55458,1.6664 0.55458,2.45288 0,0.719 -0.10635,1.6781 -0.23633,2.13133 l -0.23634,0.82404 1.45271,0.14994 c 0.85353,0.0881 1.80254,0.38964 2.30086,0.73109 0.46648,0.31964 1.10289,0.96977 1.41424,1.44474 0.31135,0.47497 0.76498,1.54774 1.00807,2.38394 0.32098,1.10413 0.41094,2.17993 0.32861,3.92954 -0.0904,1.9221 -0.2586,2.712 -0.83175,3.90707 -0.39512,0.82384 -1.18747,1.92168 -1.76078,2.43963 -0.57331,0.51796 -1.73052,1.28689 -2.57157,1.70874 -0.84105,0.42185 -1.7673,0.83747 -2.05834,0.9236 -0.29105,0.0861 -0.75835,0.0245 -1.03847,-0.13684 z m 4.01226,-5.52314 c 0.3259,-0.46621 0.71219,-1.27837 0.85842,-1.80481 0.14623,-0.52644 0.26654,-1.45732 0.26735,-2.06863 8.1e-4,-0.6113 -0.12722,-1.71156 -0.28453,-2.44504 -0.19501,-0.9093 -0.51067,-1.5119 -0.99218,-1.89407 -0.6125,-0.48613 -0.93233,-0.53978 -2.41074,-0.40443 -1.15417,0.10567 -2.33292,0.45447 -3.65067,1.08027 l -1.94612,0.92421 1.85793,3.64505 c 1.02186,2.00478 2.0989,4.03454 2.39343,4.51057 l 0.5355,0.86552 1.38953,-0.7805 c 0.76425,-0.42927 1.65618,-1.16193 1.98208,-1.62814 z m -8.03535,-10.19229 c 0.67255,-0.3759 1.56858,-1.10292 1.99119,-1.61562 0.42261,-0.5127 0.90704,-1.42741 1.0765,-2.03268 0.2155,-0.76969 0.22728,-1.31315 0.0392,-1.80788 -0.14792,-0.38906 -0.50494,-0.83368 -0.79338,-0.98805 -0.28844,-0.15437 -0.89364,-0.28067 -1.34489,-0.28067 -0.45125,0 -1.14369,0.20004 -1.53875,0.44453 -0.39506,0.24449 -1.10525,0.80362 -1.57819,1.24252 -0.64779,0.60117 -0.8599,1.02178 -0.8599,1.70521 0,0.49896 0.31392,1.60669 0.69759,2.46164 0.38368,0.85494 0.7854,1.55444 0.89272,1.55444 0.10732,0 0.74539,-0.30755 1.41793,-0.68344 z m 19.40473,6.51766 c -0.6932,-0.60864 -1.2896,-1.75856 -2.71018,-5.22552 -1.00177,-2.44484 -3.3444,-7.48716 -5.20584,-11.20516 -1.86145,-3.71799 -3.38445,-6.93863 -3.38445,-7.15698 0,-0.21834 0.14288,-0.53986 0.3175,-0.71448 0.17463,-0.17463 0.57289,-0.3175 0.88504,-0.3175 0.31214,0 0.75197,0.20836 0.9774,0.46302 0.22543,0.25466 1.69297,3.02286 3.2612,6.15156 1.56823,3.1287 3.87638,8.01026 5.12922,10.84792 l 2.27789,5.15937 0.98958,0.0824 c 0.54426,0.0453 1.96942,-0.16717 3.16702,-0.47225 1.19759,-0.30508 3.12994,-0.8958 4.29411,-1.31273 1.16417,-0.41692 3.24196,-1.2544 4.61731,-1.86106 2.09129,-0.92246 2.6028,-1.05647 3.12473,-0.81867 0.5159,0.23506 0.60987,0.45043 0.54207,1.2423 l -0.082,0.95794 -4.36562,1.80144 c -2.40109,0.99079 -5.42074,2.10683 -6.71033,2.48008 -1.56982,0.45436 -2.98767,0.67864 -4.29027,0.67864 -1.77704,0 -2.02256,-0.0676 -2.83435,-0.78036 z m -58.0788,-1.38922 c -0.17462,-0.17463 -0.3175,-0.51349 -0.3175,-0.75303 0,-0.28985 3.0312,-2.25701 9.06198,-5.88096 4.98409,-2.99499 10.65787,-6.47152 12.60841,-7.72563 1.95054,-1.25411 4.56991,-3.07217 5.82083,-4.04014 1.25092,-0.96798 3.64362,-2.7841 5.31711,-4.03583 1.67349,-1.25173 3.87615,-2.86136 4.8948,-3.57695 1.01864,-0.71559 3.52734,-2.63397 5.57488,-4.26307 2.5343,-2.01638 4.70271,-4.04648 6.79217,-6.35893 1.68815,-1.86831 3.88242,-4.18312 4.87615,-5.14402 0.99374,-0.9609 2.87836,-2.67189 4.18804,-3.80218 1.30969,-1.1303 3.86954,-3.13904 5.68855,-4.46386 1.81901,-1.32483 8.68307,-5.98369 15.25346,-10.35303 6.5704,-4.36934 13.83321,-9.1283 16.13959,-10.57547 2.30637,-1.44716 6.75325,-4.32613 9.88195,-6.3977 3.12869,-2.07157 7.11729,-4.75963 8.86354,-5.97348 1.74625,-1.21384 5.08,-3.41481 7.40833,-4.89103 2.32833,-1.47622 5.63002,-3.41716 7.33708,-4.3132 2.13811,-1.12228 3.26978,-1.57645 3.63741,-1.45977 0.29351,0.0932 0.6063,0.45883 0.6951,0.81261 0.0888,0.35377 0.0943,0.81828 0.0122,1.03224 -0.0821,0.21396 -1.2558,0.94138 -2.60822,1.61651 -1.35242,0.67512 -4.42348,2.41034 -6.82457,3.85605 -2.4011,1.44571 -5.43719,3.32282 -6.74688,4.17134 -1.30968,0.84853 -4.7625,3.02744 -7.67291,4.84202 -2.91042,1.81459 -8.44683,5.29726 -12.30313,7.73928 -3.8563,2.44202 -9.33317,6.01232 -12.17083,7.934 -2.83766,1.92168 -7.24297,4.90433 -9.78958,6.62811 -2.54662,1.72378 -5.99943,4.14523 -7.67292,5.381 -1.67349,1.23577 -4.1738,3.16526 -5.55625,4.28775 -1.38245,1.12249 -3.43233,2.85877 -4.5553,3.8584 -1.12297,0.99963 -3.46467,3.37845 -5.2038,5.28627 -2.14443,2.35244 -4.33981,4.39955 -6.82178,6.36104 -2.01286,1.59076 -5.92193,4.54493 -8.68683,6.56482 -2.76489,2.01989 -6.21771,4.58635 -7.67291,5.70326 -1.45521,1.1169 -3.49219,2.63188 -4.52661,3.36662 -1.03443,0.73474 -5.26114,3.40949 -9.39271,5.94391 -4.13156,2.53441 -9.1198,5.58284 -11.08497,6.77428 -1.96517,1.19145 -3.69753,2.16627 -3.84969,2.16627 -0.15216,0 -0.41952,-0.14288 -0.59415,-0.3175 z m 83.60034,-5.17261 c -0.13105,-0.25466 -0.31602,-3.55864 -0.41104,-7.34219 -0.095,-3.78354 -0.24084,-11.54705 -0.32405,-17.25223 l -0.15129,-10.37308 0.70446,-0.70445 c 0.62409,-0.6241 0.86235,-0.69137 2.08847,-0.58969 1.0387,0.0861 1.76079,0.36487 2.89419,1.11718 0.83061,0.55133 2.16753,1.79363 2.97094,2.76068 0.8034,0.96704 2.04113,2.88935 2.75051,4.2718 0.70937,1.38245 1.99739,4.23995 2.86226,6.35 0.86487,2.11005 1.96433,4.84849 2.44325,6.08542 0.47892,1.23693 1.33565,3.17985 1.90385,4.31762 0.66927,1.34014 0.97417,2.2543 0.86577,2.59581 -0.092,0.28994 -0.43958,0.65121 -0.77235,0.80283 -0.43457,0.19801 -0.77216,0.18624 -1.19818,-0.0418 -0.36619,-0.19598 -1.07302,-1.34524 -1.8474,-3.00378 -0.68985,-1.47749 -1.70826,-3.84721 -2.26312,-5.26603 -0.55486,-1.41883 -1.14866,-2.57969 -1.31954,-2.57969 -0.17089,0 -1.7379,0.46361 -3.48226,1.03024 -1.74435,0.56663 -3.84663,1.17038 -4.67172,1.34167 l -1.50017,0.31144 v 2.79299 c 0,1.53615 0.13202,5.10152 0.29339,7.92306 0.23027,4.0264 0.2233,5.21453 -0.0324,5.52263 -0.17918,0.2159 -0.60468,0.39255 -0.94554,0.39255 -0.34086,0 -0.72698,-0.20836 -0.85803,-0.46302 z m 6.7092,-20.0671 c 1.60471,-0.51116 3.08594,-1.03339 3.29162,-1.16051 0.30713,-0.18981 0.1753,-0.69637 -0.73756,-2.83424 -0.61134,-1.43171 -1.68855,-3.50374 -2.39381,-4.60452 -0.8048,-1.25613 -1.9886,-2.60931 -3.17908,-3.63392 -1.04324,-0.89789 -1.95327,-1.63252 -2.0223,-1.63252 -0.069,0 -0.12549,3.44015 -0.12549,7.64479 v 7.64479 l 1.12447,-0.24724 c 0.61847,-0.13598 2.43743,-0.66546 4.04215,-1.17663 z m -95.86579,15.45012 c -0.17462,-0.17462 -0.3175,-0.49242 -0.3175,-0.70621 0,-0.21379 0.37263,-1.05318 0.82806,-1.86531 0.45544,-0.81213 1.42935,-2.25051 2.16425,-3.19639 0.7349,-0.94589 2.23751,-2.78974 3.33913,-4.09746 1.10161,-1.30771 3.25309,-3.67543 4.78106,-5.26159 1.52797,-1.58616 4.56406,-4.49697 6.74688,-6.46846 2.18281,-1.9715 6.40953,-5.86921 9.3927,-8.66158 2.98318,-2.79238 6.31693,-5.84064 7.40834,-6.77392 1.0914,-0.93329 3.21758,-2.75795 4.72483,-4.0548 1.50725,-1.29686 3.21993,-2.92656 3.80597,-3.62156 0.58603,-0.695 1.89042,-1.99677 2.89864,-2.89283 1.66818,-1.48259 1.89115,-1.60276 2.47789,-1.33542 0.46797,0.21322 0.64475,0.50458 0.64475,1.06265 0,0.64222 -0.62915,1.37898 -3.81933,4.4726 -2.10064,2.03704 -4.74978,4.458 -5.88698,5.3799 -1.13721,0.9219 -3.08763,2.57296 -4.33428,3.66901 -1.24665,1.09606 -4.16368,3.72693 -6.48229,5.8464 -2.31862,2.11946 -6.23972,5.58468 -8.71358,7.70049 -2.47385,2.11581 -5.74807,5.14465 -7.27604,6.73075 -1.52797,1.5861 -3.80378,4.13354 -5.05737,5.66097 -1.25358,1.52742 -2.92046,3.73912 -3.70416,4.91487 -0.78371,1.17576 -1.62775,2.51521 -1.87564,2.97657 -0.25602,0.47646 -0.66176,0.83882 -0.93927,0.83882 -0.26871,0 -0.63143,-0.14287 -0.80606,-0.3175 z m -10.84792,-5.55625 c -0.17462,-0.17462 -0.3175,-0.48708 -0.3175,-0.69435 0,-0.20727 1.11151,-2.11823 2.47002,-4.24657 1.35851,-2.12834 3.69992,-6.07236 5.20315,-8.7645 1.50323,-2.69213 3.65682,-6.4426 4.78577,-8.33437 1.12895,-1.89177 2.74636,-4.41101 3.59424,-5.59832 0.84789,-1.1873 3.0993,-4.2234 5.00313,-6.74687 1.90383,-2.52348 4.64873,-6.25502 6.09979,-8.29231 1.45106,-2.03729 4.04296,-5.7798 5.75978,-8.31668 1.71682,-2.53688 4.02207,-5.80168 5.12276,-7.2551 1.10069,-1.45343 4.49041,-5.62859 7.53271,-9.27812 3.04229,-3.64954 7.21948,-8.81831 9.28265,-11.48616 2.06317,-2.66785 4.85673,-6.29926 6.20791,-8.06979 1.35118,-1.77053 3.34639,-4.19368 4.43379,-5.38478 1.08741,-1.19109 2.22285,-2.24362 2.5232,-2.33895 0.34782,-0.11039 0.73136,-0.006 1.05631,0.2884 0.28062,0.25395 0.51021,0.69409 0.51021,0.97809 0,0.284 -0.80912,1.36687 -1.79805,2.40639 -0.98893,1.03952 -2.52096,2.72347 -3.40452,3.74211 -0.88356,1.01865 -2.60452,3.05056 -3.82435,4.51535 -1.21983,1.46479 -3.70028,4.44136 -5.51211,6.61458 -1.81184,2.17323 -5.28802,6.34925 -7.72486,9.28004 -2.43684,2.9308 -5.39503,6.56221 -6.57376,8.0698 -1.17874,1.50759 -3.70652,5.06279 -5.61731,7.90044 -1.91079,2.83766 -5.91548,8.73125 -8.89931,13.09688 -2.98383,4.36562 -6.07172,8.7068 -6.86198,9.64706 -0.79026,0.94026 -2.00079,2.5476 -2.69007,3.57188 -0.68928,1.02427 -2.9177,4.66028 -4.95204,8.08002 -2.03434,3.41974 -4.80933,8.12271 -6.16665,10.45104 -1.35731,2.32833 -2.8122,4.73935 -3.23309,5.35781 -0.42088,0.61847 -0.97383,1.12448 -1.22878,1.12448 -0.25494,0 -0.60641,-0.14287 -0.78104,-0.3175 z m 130.99455,-0.52902 c -0.15007,-0.18926 -0.54324,-1.17754 -0.8737,-2.19619 -0.33045,-1.01864 -0.95064,-2.74505 -1.37818,-3.83646 -0.42754,-1.0914 -1.65288,-3.83533 -2.72298,-6.09762 -1.07011,-2.26229 -2.29896,-5.00073 -2.7308,-6.08542 -0.43183,-1.08469 -1.51722,-3.45794 -2.41196,-5.27389 -1.38092,-2.80268 -1.61499,-3.48222 -1.54864,-4.49583 0.0675,-1.03087 0.18667,-1.24609 0.87192,-1.57448 0.44393,-0.21275 1.49339,-0.36942 2.38125,-0.35549 0.87313,0.0137 2.65906,0.3408 3.96875,0.72689 1.30969,0.38609 3.21469,1.05385 4.23333,1.48391 l 1.85209,0.78193 0.52916,-0.66325 c 0.29104,-0.36479 1.28652,-2.77852 2.21216,-5.36385 1.07529,-3.00328 1.92911,-4.96333 2.36461,-5.42821 0.37488,-0.40018 0.8747,-0.7276 1.11071,-0.7276 0.236,0 0.62534,0.14883 0.8652,0.33073 0.23985,0.1819 0.48758,0.62907 0.55049,0.99372 0.0629,0.36464 0.47933,1.25761 0.92535,1.98437 0.49983,0.81444 1.41426,3.35152 2.38352,6.61305 0.86492,2.91042 1.88663,6.72042 2.27046,8.46667 0.38384,1.74625 1.24828,5.56225 1.92099,8.48 0.77615,3.36641 1.15921,5.55956 1.04825,6.00163 -0.0962,0.38315 -0.42668,0.77657 -0.73449,0.87427 -0.37787,0.11993 -0.72489,0.0124 -1.06836,-0.33109 -0.33346,-0.33346 -0.81524,-1.82424 -1.39842,-4.32718 -0.48934,-2.10015 -1.37976,-6.23864 -1.97873,-9.19662 -0.59896,-2.95799 -1.5017,-6.6547 -2.00608,-8.21491 -0.50439,-1.56022 -1.32146,-3.76675 -1.81572,-4.9034 l -0.89866,-2.06664 -0.67667,2.07947 c -0.37218,1.14371 -1.03932,3.2774 -1.48254,4.74153 -0.50997,1.68462 -1.03219,2.87469 -1.42226,3.24115 -0.40451,0.38001 -0.95247,0.57908 -1.59398,0.57908 -0.54808,0 -2.05177,-0.45812 -3.42253,-1.04271 -1.34473,-0.57349 -3.37569,-1.29728 -4.51324,-1.60842 -1.13755,-0.31114 -2.48988,-0.74186 -3.00516,-0.95716 -0.51529,-0.2153 -0.98236,-0.34598 -1.03795,-0.29039 -0.0556,0.0556 0.3877,1.10436 0.98508,2.3306 0.59738,1.22625 2.0715,4.55126 3.27581,7.38891 1.20432,2.83766 3.01853,7.06438 4.0316,9.39271 1.01306,2.32834 2.12219,5.04426 2.46472,6.0354 0.46648,1.34976 0.55258,1.91423 0.34305,2.24896 -0.15386,0.24579 -0.57558,0.48268 -0.93717,0.52642 -0.36158,0.0437 -0.7802,-0.0753 -0.93028,-0.26459 z m -285.431829,-6.03056 c -0.582083,-0.28967 -2.619898,-1.92669 -4.528476,-3.63782 -1.908579,-1.71113 -3.823672,-3.52786 -4.255763,-4.03718 -0.432092,-0.50932 -1.102949,-1.40017 -1.490795,-1.97965 -0.510763,-0.76314 -0.705174,-1.39155 -0.705174,-2.27942 0,-0.85036 0.17272,-1.4454 0.563913,-1.94272 0.310152,-0.39429 0.875698,-0.84019 1.25677,-0.99089 0.381072,-0.15069 1.347702,-0.4276 2.148067,-0.61535 0.800364,-0.18775 2.110052,-0.42039 2.910417,-0.51698 0.800364,-0.0966 2.139817,-0.30253 2.976562,-0.45764 l 1.521354,-0.28203 -0.0023,-3.73589 c -0.0012,-2.05474 -0.121144,-5.10511 -0.266443,-6.7786 -0.145299,-1.67349 -0.855424,-5.95974 -1.578054,-9.525 -0.722631,-3.56526 -1.490026,-7.85151 -1.705322,-9.525 -0.215296,-1.67349 -0.47331,-4.42803 -0.573364,-6.12121 l -0.181916,-3.0785 0.732642,-0.48005 c 0.713331,-0.46739 0.743945,-0.46608 1.161493,0.0496 0.330454,0.40812 0.446399,1.25497 0.505325,3.69084 0.04206,1.73866 0.255287,4.64886 0.473838,6.46712 0.21855,1.81825 0.745839,5.03294 1.171753,7.14375 0.425915,2.1108 1.07487,5.26658 1.442123,7.01283 0.486605,2.31375 0.743151,4.67923 0.945764,8.72038 0.152917,3.04995 0.335252,5.6026 0.405189,5.67253 0.06994,0.0699 1.176505,-0.074 2.459041,-0.31986 1.282536,-0.24585 2.88052,-0.44701 3.551076,-0.44701 0.896304,0 1.409551,0.16374 1.937964,0.61826 0.588631,0.50632 0.715082,0.82968 0.698392,1.78594 -0.01121,0.64222 -0.272556,1.75259 -0.58077,2.46748 -0.308215,0.71489 -1.353966,2.61989 -2.323893,4.23333 -0.969926,1.61344 -2.394606,3.91471 -3.165955,5.11392 -0.771349,1.19922 -1.402453,2.36549 -1.402453,2.59172 0,0.22622 -0.292245,0.70356 -0.649432,1.06075 -0.426909,0.42691 -0.94819,0.64936 -1.521354,0.64922 -0.479558,-1.1e-4 -1.348173,-0.23721 -1.930256,-0.52687 z m 1.018516,-8.48917 c -0.248092,-2.82643 -0.534999,-5.23808 -0.637569,-5.35923 -0.102571,-0.12115 -1.226575,-0.0254 -2.497788,0.21283 -1.271213,0.2382 -3.130668,0.61813 -4.132123,0.84429 -1.29083,0.2915 -1.820827,0.5305 -1.820827,0.82107 0,0.22543 0.492514,1.04826 1.094476,1.82851 0.601961,0.78026 2.417665,2.58789 4.034895,4.01697 1.617231,1.42908 3.178545,2.72904 3.469587,2.8888 0.291041,0.15976 0.6217,0.1994 0.734797,0.0881 0.113096,-0.11131 0.0026,-2.51491 -0.245448,-5.34133 z m 4.834385,-1.36864 c 1.355972,-2.27854 1.801408,-3.28093 1.899454,-4.27446 l 0.128081,-1.29789 -1.162093,0.16064 c -0.639151,0.0883 -1.791751,0.29629 -2.561334,0.4621 -1.102504,0.23753 -1.372827,0.39455 -1.274688,0.74038 0.0685,0.2414 0.272185,1.95696 0.452626,3.81235 0.18044,1.85539 0.422238,3.37344 0.537328,3.37344 0.115089,0 1.006371,-1.33946 1.980626,-2.97656 z m 317.553908,5.87689 c -0.24374,-0.14222 -0.58249,-0.6807 -0.75276,-1.19663 -0.17027,-0.51593 -0.24129,-1.21015 -0.15782,-1.54271 0.0941,-0.37511 0.53059,-0.76574 1.14963,-1.02896 0.54883,-0.23336 1.2716,-0.50059 1.60615,-0.59385 0.37066,-0.10333 0.86158,-0.004 1.25677,0.25535 0.51056,0.33453 0.6485,0.65153 0.6485,1.49029 0,0.58596 -0.17419,1.40222 -0.38709,1.81392 -0.2129,0.4117 -0.57982,0.82251 -0.81539,0.9129 -0.23556,0.0904 -0.80551,0.16074 -1.26655,0.15631 -0.46105,-0.004 -1.03769,-0.1244 -1.28144,-0.26662 z m -5.19245,-12.74283 c -0.17462,-0.17463 -0.3175,-0.508 -0.3175,-0.74084 0,-0.23283 -0.11778,-0.54111 -0.26174,-0.68507 -0.14395,-0.14396 -0.49611,-1.38816 -0.78257,-2.7649 -0.28646,-1.37673 -0.64748,-4.53436 -0.80228,-7.01696 -0.1548,-2.48259 -0.38759,-5.1615 -0.51731,-5.95312 -0.12972,-0.79163 -0.5494,-2.68948 -0.93261,-4.21745 -0.38322,-1.52797 -1.16749,-4.28465 -1.74283,-6.12597 -0.57534,-1.84132 -1.04607,-3.69274 -1.04607,-4.11427 0,-0.42153 0.14287,-0.9093 0.3175,-1.08392 0.17462,-0.17463 0.57676,-0.3175 0.89364,-0.3175 0.31688,0 0.69798,0.14882 0.84688,0.33073 0.1489,0.1819 0.63597,1.28323 1.08237,2.44739 0.4464,1.16417 1.16236,3.25895 1.59102,4.65506 0.42866,1.39612 1.02773,4.00065 1.33128,5.78785 0.30354,1.7872 0.55189,3.57451 0.55189,3.9718 0,0.39728 0.60328,3.56728 1.34063,7.04444 0.73734,3.47716 1.40906,6.84043 1.4927,7.47394 0.10931,0.82796 0.0485,1.2174 -0.21615,1.38501 -0.20252,0.12825 -0.85042,0.235 -1.43978,0.23723 -0.58936,0.002 -1.21444,-0.13883 -1.38907,-0.31345 z m -314.901687,-54.6501 c -0.506364,-0.25444 -1.372048,-1.05792 -1.923742,-1.78553 -0.551694,-0.7276 -1.077663,-1.60923 -1.16882,-1.95918 -0.09116,-0.34994 -0.05095,-0.81824 0.08934,-1.04065 0.140295,-0.22241 0.437056,-0.51917 0.659469,-0.65947 0.222412,-0.14029 0.69643,-0.18178 1.053373,-0.0922 0.388191,0.0974 0.889823,0.59139 1.248306,1.22923 0.329625,0.58649 0.834413,1.19216 1.12175,1.34594 0.287338,0.15378 0.758056,0.20481 1.046041,0.11341 0.287986,-0.0914 0.759738,-0.62904 1.04834,-1.19474 0.334105,-0.6549 0.524729,-1.55478 0.524729,-2.47708 0,-0.79669 -0.126365,-1.7837 -0.280811,-2.19336 -0.154446,-0.40965 -0.659379,-1.13727 -1.122073,-1.61693 -0.462693,-0.47966 -1.328553,-1.15768 -1.924131,-1.50672 -0.595579,-0.34903 -1.519397,-1.11778 -2.052928,-1.70834 -0.836042,-0.9254 -0.970057,-1.25099 -0.970057,-2.35676 0,-0.89299 0.181248,-1.55198 0.596212,-2.16775 0.327916,-0.48659 1.008564,-1.12554 1.512551,-1.41989 0.621669,-0.36307 1.387128,-0.53469 2.380351,-0.53369 0.805206,8.1e-4 1.976173,0.15215 2.60215,0.3363 0.744942,0.21916 1.212449,0.5357 1.353238,0.91627 0.123906,0.33493 0.09818,0.83806 -0.06068,1.18673 -0.264747,0.58109 -0.361819,0.59832 -2.426583,0.43079 -1.821735,-0.14782 -2.219347,-0.10597 -2.598813,0.27349 -0.246405,0.24641 -0.44801,0.59583 -0.44801,0.77649 0,0.18066 0.327422,0.63481 0.727604,1.00923 0.400182,0.37441 1.084792,0.86106 1.521354,1.08144 0.436563,0.22038 1.25682,0.85113 1.822793,1.40166 0.565974,0.55052 1.333268,1.66373 1.705097,2.47378 0.548783,1.19556 0.674856,1.8713 0.669691,3.58949 -0.0049,1.61752 -0.149662,2.44469 -0.614028,3.50766 -0.334216,0.76504 -1.006095,1.74081 -1.493064,2.16838 -0.48697,0.42756 -1.335138,0.90228 -1.884819,1.05493 -0.549681,0.15264 -1.178013,0.27802 -1.396295,0.2786 -0.218281,5.9e-4 -0.811172,-0.20711 -1.317536,-0.46154 z m -10.022117,-1.61581 c -0.358579,-0.35858 -0.543358,-1.0835 -0.682366,-2.67706 l -0.190628,-2.18532 -0.97128,0.16061 c -0.534204,0.0883 -2.071112,0.16191 -3.41535,0.16351 l -2.44407,0.003 -0.907053,1.80116 c -0.498879,0.99064 -1.094142,1.95644 -1.322807,2.14621 -0.244248,0.20271 -0.688372,0.27663 -1.076618,0.17918 -0.412189,-0.10345 -0.72382,-0.4167 -0.82817,-0.83246 -0.128172,-0.51068 0.452681,-1.94857 2.483371,-6.14753 1.457872,-3.01452 3.037494,-6.5525 3.510272,-7.86219 0.472777,-1.30969 1.030973,-2.6445 1.240435,-2.96624 0.209462,-0.32175 0.603817,-0.65577 0.876343,-0.74227 0.272527,-0.0865 0.73672,-0.0282 1.03154,0.12961 0.29482,0.15779 0.614336,0.61087 0.710036,1.00685 0.0957,0.39598 0.377848,1.01762 0.626996,1.38143 0.249148,0.3638 0.821453,1.79255 1.271789,3.175 0.450335,1.38244 1.013457,3.28534 1.251382,4.22865 0.237924,0.94331 0.600593,2.66971 0.805932,3.83645 0.205338,1.16675 0.373506,2.80177 0.373704,3.6334 2.93e-4,1.22435 -0.09701,1.56416 -0.51141,1.78594 -0.281475,0.15064 -0.698194,0.27389 -0.926042,0.27389 -0.227848,0 -0.635551,-0.22128 -0.906006,-0.49174 z m -1.793367,-7.44948 c 0.126497,-0.11907 -0.151474,-1.55354 -0.622906,-3.21451 -0.468239,-1.64971 -0.895126,-3.04576 -0.948639,-3.10232 -0.05351,-0.0566 -0.212608,0.20045 -0.353546,0.57115 -0.140937,0.37069 -0.799112,1.85828 -1.46261,3.30576 -0.663499,1.44748 -1.206362,2.7209 -1.206362,2.82983 0,0.10893 0.982266,0.11414 2.182813,0.0116 1.200547,-0.10256 2.285609,-0.28323 2.41125,-0.4015 z m -44.659538,7.26086 c -0.228675,-0.22867 -0.415774,-0.63591 -0.415774,-0.90496 0,-0.26905 0.368989,-1.54047 0.819975,-2.82537 0.450986,-1.2849 1.502315,-3.884 2.336287,-5.77577 0.833972,-1.89177 1.856295,-4.31115 2.27183,-5.37641 0.558607,-1.43203 0.945718,-2.03518 1.4853,-2.3142 0.498838,-0.25796 0.922883,-0.30283 1.339967,-0.14177 0.335601,0.12958 0.864637,0.51613 1.175637,0.859 0.311,0.34286 0.811902,1.11463 1.113117,1.71505 0.301215,0.60041 1.134441,2.56495 1.851613,4.36562 0.717173,1.80068 1.555724,4.17452 1.863446,5.27521 0.307722,1.10069 0.559495,2.19351 0.559495,2.4285 0,0.23498 -0.187098,0.61434 -0.415774,0.84302 -0.228676,0.22867 -0.563107,0.41577 -0.74318,0.41577 -0.180074,0 -0.5299,-0.14883 -0.777391,-0.33073 -0.247491,-0.1819 -0.699008,-1.22369 -1.003369,-2.3151 -0.304362,-1.09141 -0.632214,-2.06929 -0.72856,-2.17308 -0.09634,-0.10379 -1.721414,0.066 -3.611262,0.37726 -1.889849,0.31128 -3.526493,0.69386 -3.636987,0.85016 -0.110493,0.15631 -0.513708,1.29623 -0.896032,2.53316 -0.382325,1.23693 -0.880224,2.39779 -1.106443,2.57969 -0.226219,0.1819 -0.558641,0.33073 -0.738715,0.33073 -0.180073,0 -0.514504,-0.1871 -0.74318,-0.41578 z m 8.646205,-8.61136 c 0.545703,-0.13952 0.992188,-0.2844 0.992188,-0.32194 0,-0.0376 -0.41454,-1.07476 -0.9212,-2.30491 -0.506661,-1.23015 -0.928677,-2.65336 -0.937814,-3.16268 -0.01355,-0.75537 -0.282641,-0.2695 -1.460049,2.63628 -0.793891,1.95928 -1.443437,3.60757 -1.443437,3.66285 0,0.0553 0.625078,0.0203 1.389062,-0.0777 0.763985,-0.098 1.835547,-0.29238 2.38125,-0.4319 z m -22.812716,7.16941 c -0.59975,-0.14109 -1.40306,-0.72036 -2.3151,-1.66944 -0.93519,-0.97317 -1.39666,-1.67466 -1.39666,-2.12311 0,-0.39213 0.24373,-0.84043 0.58804,-1.0816 0.32342,-0.22653 0.74994,-0.41187 0.94781,-0.41187 0.19788,0 0.95824,0.59531 1.68968,1.32291 0.73144,0.72761 1.56685,1.32292 1.85646,1.32292 0.28962,0 0.90176,-0.17914 1.36031,-0.39808 0.45856,-0.21895 1.10903,-0.80267 1.44551,-1.29716 0.35782,-0.52588 0.71255,-1.59618 0.85457,-2.57848 0.13355,-0.92367 0.2452,-3.31652 0.24813,-5.31743 0.004,-2.52309 -0.086,-3.63802 -0.29254,-3.63802 -0.16383,0 -1.6612,0.32108 -3.3275,0.71351 -2.23381,0.52608 -3.14595,0.64061 -3.47245,0.436 -0.24355,-0.15263 -0.47833,-0.51389 -0.52173,-0.80281 -0.0434,-0.28891 0.0875,-0.66338 0.29083,-0.83216 0.20336,-0.16877 1.78975,-0.59606 3.52531,-0.94954 1.73555,-0.35347 4.91368,-1.06967 7.06249,-1.59156 2.978812,-0.72346 4.030006,-0.88302 4.424969,-0.67164 0.296099,0.15847 0.518025,0.55263 0.518025,0.92008 0,0.35356 -0.208359,0.749 -0.463021,0.87876 -0.254661,0.12976 -1.486473,0.44636 -2.73736,0.70356 l -2.274343,0.46765 -0.16564,5.14893 c -0.11683,3.63191 -0.29986,5.62732 -0.62123,6.77266 -0.35881,1.27878 -0.73981,1.91504 -1.79336,2.99488 -0.8851,0.90719 -1.69586,1.46879 -2.39609,1.65973 -0.58208,0.15872 -1.29646,0.27706 -1.5875,0.26298 -0.29104,-0.0141 -0.94246,-0.12284 -1.44761,-0.24167 z m 99.6230338,-1.11156 c -0.28894,-0.41252 -0.41281,-1.22201 -0.415,-2.71198 -0.002,-1.16817 -0.23984,-4.02176 -0.52917,-6.34131 -0.2893198,-2.31956 -0.5253798,-4.76034 -0.5245698,-5.42396 8.1e-4,-0.66363 0.13176,-1.68284 0.291,-2.26492 0.1858498,-0.67934 0.7375998,-1.49306 1.5407298,-2.27229 0.86896,-0.8431 1.62704,-1.30859 2.48147,-1.52374 0.88724,-0.22341 1.57214,-0.23317 2.45636,-0.035 0.67435,0.15113 1.73668,0.62607 2.36074,1.05543 0.67878002,0.46702 1.35776002,1.24155 1.68998002,1.92782 0.30543,0.63094 0.55466,1.49652 0.55385,1.92352 -8.1e-4,0.427 -0.12335,1.21517 -0.27231,1.75148 -0.14895,0.53632 -0.77337,1.52097 -1.38758,2.18812 -0.61422002,0.66715 -1.86895002,1.60955 -2.78830002,2.09422 l -1.67154,0.88122 0.8319,0.34459 c 0.45755,0.18952 1.38006,0.92354 2.05002,1.63115 0.66996,0.70761 1.66904002,1.90978 2.22017002,2.67149 0.55113,0.76171 1.00589,1.68853 1.01058,2.05961 0.005,0.37108 -0.13434,0.81756 -0.30896,0.99219 -0.17463,0.17462 -0.70027,0.3175 -1.16809,0.3175 -0.72161002,0 -1.00359002,-0.21065 -1.85952002,-1.38906 -0.55492,-0.76399 -1.89123,-2.32157 -2.96959,-3.46129 l -1.96065,-2.07222 0.16321,1.54306 c 0.0898,0.84868 0.23997,2.44624 0.33378,3.55013 0.11278,1.32724 0.0668,2.20104 -0.13589,2.57969 -0.18396,0.34373 -0.56113,0.57261 -0.9436,0.57261 -0.35847,0 -0.81729,-0.2572 -1.04902,-0.58804 z m 3.80507,-12.23601 c 0.9881,-0.4976 2.11039,-1.2777 2.49396,-1.73356 0.38358,-0.45585 0.69742,-1.12651 0.69742,-1.49034 0,-0.37447 -0.32714,-0.98865 -0.75394,-1.41545 -0.41467,-0.41467 -1.17411,-0.83276 -1.68765,-0.9291 -0.64161,-0.12037 -1.19933,-0.0378 -1.78279,0.26391 -0.54627,0.28248 -1.03065,0.84954 -1.3582,1.59004 -0.43035,0.97286 -0.4821,1.50266 -0.33444,3.42363 0.15888,2.06693 0.20884,2.22391 0.55189,1.73413 0.20747,-0.29619 1.18565,-0.94566 2.17375,-1.44326 z m -15.1971598,12.12063 c -0.29104,-0.0687 -0.92633,-0.24872 -1.41176,-0.40017 -0.48542,-0.15144 -1.29611,-0.63842 -1.80152,-1.08218 -0.50542,-0.44376 -1.156622,-1.27274 -1.447125,-1.84217 -0.290503,-0.56944 -0.59633,-1.61069 -0.679615,-2.31391 -0.107285,-0.90585 0.01106,-1.80684 0.40598,-3.09076 0.306575,-0.9967 0.827775,-2.24446 1.15822,-2.77281 0.33045,-0.52834 0.95922,-1.36177 1.39727,-1.85208 0.43804,-0.4903 1.39054,-1.38042 2.11666,-1.97804 0.72612,-0.59762 1.53721,-1.16274 1.80241,-1.25582 0.2652,-0.0931 0.71169,-0.0464 0.99219,0.1037 0.32466,0.17375 0.51,0.5534 0.51,1.04467 0,0.6135 -0.23708,0.93484 -1.15631,1.56729 -0.63596,0.43755 -1.70112,1.40153 -2.36702,2.14217 -0.66719,0.74208 -1.45467,1.99863 -1.75412,2.79896 -0.29886,0.79878 -0.54339,1.71654 -0.54339,2.03947 0,0.32292 0.11622,0.99236 0.25827,1.48765 0.14205,0.49528 0.51162,1.1702 0.82128,1.49982 0.31498,0.33528 1.16285,0.73339 1.92455,0.90365 0.74884,0.1674 1.69047,0.4295 2.0925,0.58245 0.4365,0.16606 0.7986,0.54757 0.89886,0.94701 0.0923,0.36791 0.0489,0.85885 -0.0966,1.09099 -0.16886,0.26946 -0.68519,0.43705 -1.42802,0.4635 -0.63994,0.0228 -1.40165,-0.0147 -1.69269,-0.0834 z m 27.4228598,-0.17625 c -0.17177,-0.20698 -0.4007,-2.72599 -0.55905,-6.15156 -0.14748,-3.19059 -0.26929,-7.19155 -0.27067,-8.89102 -0.002,-2.48637 0.0805,-3.17293 0.42224,-3.51471 0.2725,-0.2725 0.62815,-0.36133 0.99219,-0.24782 0.31208,0.0973 0.6549,0.30971 0.76182,0.472 0.10691,0.16229 0.19586,2.37866 0.19767,4.92528 0.002,2.54661 0.13993,6.50223 0.30694,8.79027 0.24267,3.32449 0.23631,4.24121 -0.0316,4.56406 -0.18441,0.2222 -0.60379,0.404 -0.93195,0.404 -0.32817,0 -0.72757,-0.15773 -0.88756,-0.3505 z m -75.0937298,-1.70002 c -0.37047,-0.40018 -2.38565,-3.22792 -4.478178,-6.28386 -2.092529,-3.05593 -3.88295,-5.84256 -3.978714,-6.19251 -0.09577,-0.34995 -0.05528,-0.8262 0.08997,-1.05833 0.145246,-0.23214 0.577754,-0.45958 0.961127,-0.50542 0.588481,-0.0704 0.810966,0.11305 1.428522,1.17765 0.402314,0.69354 2.025324,3.20751 3.606689,5.5866 1.581366,2.37909 2.916871,4.28396 2.96779,4.23304 0.05092,-0.0509 0.453716,-2.63223 0.895103,-5.73625 0.441387,-3.10402 0.802522,-5.68346 0.802522,-5.7321 0,-0.0486 0.242623,-0.21828 0.539161,-0.37698 0.296538,-0.15871 0.772915,-0.21436 1.058614,-0.12369 0.2857,0.0907 0.630595,0.37254 0.766435,0.62636 0.164856,0.30804 -0.0066,2.18808 -0.515563,5.65395 -0.510173,3.47396 -0.942274,5.54476 -1.305596,6.25693 -0.298678,0.58545 -0.543051,1.35836 -0.543051,1.71756 0,0.35921 -0.187098,0.8402 -0.415773,1.06888 -0.228676,0.22867 -0.593457,0.41577 -0.810624,0.41577 -0.217167,0 -0.697962,-0.32742 -1.068432,-0.7276 z m 84.20227,0.31183 c -0.25393,-0.25393 -0.42139,-0.89764 -0.43021,-1.65365 -0.008,-0.68083 -0.12539,-2.90474 -0.26101,-4.94204 -0.13561,-2.03729 -0.31179,-4.1622 -0.3915,-4.72203 -0.0797,-0.55982 -0.31768,-1.75045 -0.52883,-2.64583 -0.21115,-0.89538 -0.38566,-2.056 -0.38782,-2.57915 -0.003,-0.61141 -0.19293,-1.12224 -0.53307,-1.43007 -0.29104,-0.26339 -0.52917,-0.74351 -0.52917,-1.06694 0,-0.32343 0.14974,-0.71233 0.33276,-0.86423 0.18302,-0.15189 1.75334,-0.40836 3.48959,-0.56994 2.28666,-0.21279 3.53967,-0.21429 4.54572,-0.005 0.76388,0.15858 1.77107,0.54931 2.23821,0.86827 0.46713,0.31897 1.06978,0.99481 1.33923,1.50186 0.26945,0.50705 0.48991,1.37408 0.48991,1.92673 0,0.55265 -0.1637,1.3966 -0.36378,1.87545 -0.20008,0.47885 -0.74397,1.30366 -1.20865,1.8329 -0.46468,0.52924 -1.48547,1.26531 -2.26843,1.63571 -0.78295,0.37039 -1.87617,0.76758 -2.42937,0.88263 l -1.00581,0.20919 0.0959,4.68748 c 0.0706,3.45129 0.01,4.79131 -0.23083,5.08118 -0.17971,0.21653 -0.60132,0.39369 -0.93691,0.39369 -0.33559,0 -0.79726,-0.1871 -1.02593,-0.41577 z m 4.21443,-13.53595 c 0.43656,-0.21977 1.0143,-0.59331 1.28386,-0.83008 0.26956,-0.23677 0.66013,-0.75927 0.86793,-1.16111 0.28851,-0.55792 0.30834,-0.86042 0.0839,-1.27979 -0.16165,-0.30205 -0.72526,-0.72941 -1.25248,-0.9497 -0.7154,-0.29891 -1.43376,-0.35598 -2.83176,-0.22498 l -1.87319,0.17553 0.52517,2.59257 0.52518,2.59257 0.93882,-0.25771 c 0.51635,-0.14174 1.29601,-0.43752 1.73257,-0.6573 z m 12.35604,11.78214 c -0.18772,-0.18773 -0.31597,-1.07993 -0.31375,-2.18281 0.002,-1.02593 0.17971,-4.24657 0.39477,-7.15698 0.21507,-2.91042 0.39198,-5.60592 0.39313,-5.98999 l 0.002,-0.69833 -2.24347,0.13997 c -1.59613,0.0996 -2.35956,0.0436 -2.64583,-0.19397 -0.2213,-0.18367 -0.40236,-0.60243 -0.40236,-0.9306 0,-0.32817 0.14883,-0.71749 0.33073,-0.86516 0.1819,-0.14768 2.29526,-0.40429 4.69635,-0.57025 2.40109,-0.16596 5.24281,-0.47314 6.31492,-0.68262 1.28207,-0.2505 2.10914,-0.29533 2.41627,-0.13096 0.25683,0.13745 0.54008,0.44044 0.62944,0.67331 0.0894,0.23286 0.0404,0.65148 -0.1088,0.93026 -0.1492,0.27879 -0.53572,0.57112 -0.85895,0.64965 -0.32322,0.0785 -1.71877,0.2918 -3.10121,0.47397 l -2.51354,0.33121 -0.30745,4.09321 c -0.1691,2.25127 -0.31793,5.73815 -0.33073,7.74863 -0.0128,2.01048 -0.14653,3.88571 -0.29718,4.16719 -0.1694,0.31653 -0.55296,0.51177 -1.00541,0.51177 -0.40234,0 -0.8744,-0.14288 -1.04903,-0.3175 z m -123.703018,-29.02081 c -0.413133,-0.27239 -1.157273,-1.06646 -1.653646,-1.76462 -0.496373,-0.69816 -0.902496,-1.58716 -0.902496,-1.97555 0,-0.3884 0.228307,-0.91279 0.507348,-1.16532 0.279041,-0.25253 0.78115,-0.41981 1.115797,-0.37173 0.366526,0.0527 0.913402,0.54232 1.375424,1.23154 0.421836,0.62927 1.034318,1.26594 1.36107,1.41482 0.443239,0.20195 0.795903,0.16633 1.388842,-0.14029 0.437111,-0.22604 0.989395,-0.82117 1.227299,-1.32252 0.237904,-0.50134 0.429938,-1.48885 0.426742,-2.19447 -0.0032,-0.70561 -0.226824,-1.76957 -0.496952,-2.36435 -0.28676,-0.6314 -1.137636,-1.62232 -2.04471,-2.38125 -0.854463,-0.7149 -2.227288,-1.95467 -3.050724,-2.75504 -1.081282,-1.05098 -1.547464,-1.72366 -1.678266,-2.42167 -0.124676,-0.66531 -0.04678,-1.24953 0.249969,-1.87489 0.258454,-0.54465 0.877535,-1.16059 1.545974,-1.53811 0.906533,-0.512 1.481372,-0.6269 3.075817,-0.6148 1.716931,0.013 2.022214,0.0906 2.453521,0.62322 0.313458,0.38711 0.431448,0.81142 0.324445,1.16678 -0.09249,0.30714 -0.261075,0.65878 -0.374644,0.78143 -0.113568,0.12265 -0.988407,0.24292 -1.944084,0.26726 -0.955678,0.0243 -1.860304,0.16697 -2.010279,0.31695 -0.187189,0.18718 -0.13919,0.46327 0.153091,0.88056 0.234177,0.33433 1.037788,0.99938 1.785804,1.47788 0.748016,0.4785 1.875325,1.38529 2.505131,2.0151 0.629806,0.6298 1.452759,1.74585 1.828784,2.48009 0.517366,1.01024 0.712526,1.85795 0.80225,3.48471 0.06989,1.26715 -0.0087,2.53541 -0.191481,3.08917 -0.170526,0.51671 -0.712765,1.46688 -1.204974,2.11151 -0.492209,0.64463 -1.307565,1.36786 -1.811901,1.60718 -0.528212,0.25066 -1.57306,0.4344 -2.464488,0.43339 -1.065927,-10e-4 -1.781271,-0.15586 -2.298663,-0.49698 z m 18.213649,-0.9826 c -0.436562,-0.23735 -1.232876,-0.85156 -1.769587,-1.36492 -0.53671,-0.51336 -1.248681,-1.54148 -1.582158,-2.28472 -0.477617,-1.06448 -0.606781,-1.82871 -0.608488,-3.60029 -0.0018,-1.82157 0.110074,-2.46008 0.588468,-3.35995 0.32485,-0.61104 0.859202,-1.30099 1.18745,-1.53322 0.328249,-0.23222 1.151302,-0.77797 1.829009,-1.21276 l 1.232194,-0.79054 1.912914,0.39885 c 1.052103,0.21937 2.186329,0.57801 2.520502,0.79696 0.334173,0.21896 0.898435,0.78751 1.253916,1.26345 0.355481,0.47594 0.79452,1.32746 0.975643,1.89227 0.200176,0.62422 0.282441,1.83662 0.209783,3.09174 -0.09422,1.62752 -0.29749,2.4263 -0.959818,3.77168 -0.514492,1.04508 -1.220902,1.99718 -1.821959,2.45563 -0.78107,0.59575 -1.307854,0.76496 -2.577895,0.82805 -1.101263,0.0547 -1.842352,-0.0545 -2.389974,-0.35223 z m 3.393326,-3.27445 c 0.364233,-0.43287 0.813208,-1.23654 0.997724,-1.78594 0.184515,-0.5494 0.343575,-1.60547 0.353466,-2.34682 0.0099,-0.74135 -0.156399,-1.67425 -0.369535,-2.0731 -0.213135,-0.39885 -0.716713,-0.89541 -1.119061,-1.10347 -0.497958,-0.25751 -1.088627,-0.3212 -1.849862,-0.19947 -0.615076,0.0983 -1.383529,0.44403 -1.707675,0.76818 -0.324145,0.32415 -0.672625,1.03322 -0.774399,1.57573 -0.103402,0.55117 -0.04326,1.61992 0.136309,2.42232 0.231504,1.03447 0.599778,1.72864 1.317167,2.48278 0.655111,0.68866 1.228092,1.04681 1.67472,1.04681 0.428241,0 0.923417,-0.29058 1.341146,-0.78702 z m 39.159982,2.77869 c -0.752138,-0.38204 -1.682252,-1.10724 -2.066919,-1.61157 -0.384667,-0.50432 -1.01888,-1.59983 -1.409361,-2.43446 -0.634874,-1.35701 -0.710097,-1.82534 -0.711205,-4.42793 -0.0011,-2.67067 0.05917,-3.02504 0.732077,-4.30196 0.431409,-0.81864 1.193916,-1.72634 1.852083,-2.20475 0.615322,-0.44727 1.535485,-0.99934 2.044808,-1.22682 0.549989,-0.24565 1.731868,-0.4233 2.910416,-0.43748 1.455437,-0.0175 2.231213,0.10648 2.910422,0.46517 0.50932,0.26897 1.32315,0.86267 1.80851,1.31932 0.48535,0.45665 1.0509,1.15178 1.25677,1.54474 0.20586,0.39295 0.3743,1.26207 0.3743,1.93137 0,0.66929 -0.17847,1.56202 -0.3966,1.98383 -0.21813,0.42182 -0.78367,1.0543 -1.25677,1.40553 -0.4731,0.35123 -1.27689,0.78572 -1.78621,0.96554 -0.509328,0.17981 -2.333746,0.39155 -4.054268,0.47053 l -3.128221,0.14359 0.172283,0.69049 c 0.09476,0.37977 0.412622,1.08033 0.706369,1.5568 0.293748,0.47647 0.873866,1.04201 1.289153,1.25677 0.415287,0.21475 1.12081,0.39046 1.56783,0.39046 0.447019,0 1.77798,-0.4853 2.95769,-1.07845 1.499234,-0.7538 2.336484,-1.03037 2.781254,-0.91874 0.34997,0.0878 0.77044,0.45407 0.93437,0.81386 0.21372,0.46905 0.21826,0.82931 0.0161,1.27311 -0.17255,0.3787 -1.13228,1.0613 -2.4726,1.75861 -1.764019,0.91775 -2.528849,1.16181 -3.92765,1.25337 -1.487024,0.0973 -1.933898,0.0137 -3.104581,-0.58093 z m 5.520504,-9.74625 c 0.530087,-0.22148 1.104607,-0.66579 1.276687,-0.98734 0.2442,-0.45628 0.23799,-0.72459 -0.0282,-1.22207 -0.18763,-0.35058 -0.71985,-0.87148 -1.182717,-1.15755 -0.522291,-0.32279 -1.310532,-0.52012 -2.077657,-0.52012 -0.709225,0 -1.673187,0.22299 -2.261593,0.52317 -0.564031,0.28775 -1.265746,0.86056 -1.559367,1.27291 -0.293621,0.41236 -0.617419,1.08267 -0.719551,1.4896 -0.126786,0.50516 -0.06942,0.81991 0.180845,0.99217 0.201661,0.13882 1.500383,0.19825 2.887171,0.13212 1.386346,-0.0661 2.954341,-0.3014 3.484432,-0.52289 z m -33.587082,6.10094 c -0.14529,-0.1831 -0.325835,-2.95963 -0.404462,-6.22008 -0.139567,-5.7875 -0.132283,-5.89618 0.421205,-6.28386 0.309775,-0.21697 0.655798,-0.3945 0.76894,-0.3945 0.113141,0 0.443837,0.23813 0.734878,0.52917 0.291042,0.29104 0.529167,0.8491 0.529167,1.24012 v 0.71096 l 0.727604,-0.68075 c 0.400183,-0.37442 1.108645,-0.87294 1.574361,-1.10784 0.465716,-0.23489 1.299154,-0.42663 1.852083,-0.42609 0.55293,5.5e-4 1.388679,0.23473 1.857221,0.52041 0.468542,0.28569 1.205334,1.00734 1.637315,1.60367 0.431982,0.59633 0.830642,1.2199 0.885911,1.38571 0.05527,0.16581 0.551944,-0.19824 1.103721,-0.80899 0.604975,-0.66963 1.411828,-1.23287 2.032508,-1.41883 0.785531,-0.23536 1.275284,-0.23468 2.06811,0.003 0.57136,0.17118 1.342165,0.67173 1.712902,1.11233 0.370737,0.44059 0.92039,1.59858 1.221452,2.57331 0.301062,0.97472 0.619388,2.86836 0.70739,4.20807 0.132517,2.01738 0.08407,2.55175 -0.282011,3.11046 -0.308657,0.47107 -0.677815,0.6746 -1.223567,0.6746 -0.523497,0 -0.904814,-0.19656 -1.154867,-0.59531 -0.205324,-0.32743 -0.439081,-1.60735 -0.519461,-2.84428 -0.08038,-1.23692 -0.271216,-2.67117 -0.424081,-3.18722 -0.152865,-0.51604 -0.45066,-1.17089 -0.661767,-1.45521 -0.303982,-0.4094 -0.483378,-0.45771 -0.862349,-0.23224 -0.263184,0.15658 -0.916053,0.9304 -1.450819,1.71958 -0.534766,0.78919 -1.03717,1.75923 -1.116454,2.15564 -0.100519,0.5026 -0.359187,0.77473 -0.854586,0.89907 -0.39074,0.0981 -0.89241,0.0635 -1.114823,-0.0768 -0.222413,-0.1403 -0.491483,-0.42572 -0.597934,-0.63428 -0.106452,-0.20855 -0.50411,-1.27634 -0.883685,-2.37285 -0.379575,-1.09652 -0.990218,-2.31729 -1.356984,-2.71283 -0.636827,-0.68679 -0.701524,-0.70124 -1.437111,-0.32085 -0.423646,0.21908 -1.150942,0.87202 -1.616214,1.45099 -0.465273,0.57897 -1.065981,1.12251 -1.334908,1.20786 -0.438952,0.13932 -0.488957,0.47266 -0.488957,3.25944 0,2.06165 -0.106637,3.2109 -0.3175,3.42176 -0.174625,0.17462 -0.576765,0.3175 -0.893645,0.3175 -0.316879,0 -0.694242,-0.14883 -0.838583,-0.33073 z"
       id="path1" /></g></svg>
