<svg width="800mm" height="450mm" version="1.1" viewBox="0 0 800 450" xml:space="preserve" xmlns="http://www.w3.org/2000/svg"><g transform="translate(210.84 61.573)"><path d="m243.72 315.44c-4.1611-0.7432-8.8438-3.1514-10.75-5.5288-1.0404-1.2972-1.1128-1.5806-1.1081-4.3342 5e-3 -3.4283 1.0336-6.904 2.7365-9.2547 1.3995-1.932 6.4826-5.9269 10.005-7.8633 3.1282-1.7196 4.7977-1.958 5.6083-0.80075 0.28463 0.40634 1.2496 1.2031 2.1444 1.7706 2.4333 1.5432 5.4502 4.7313 6.5326 6.9035 0.84861 1.7029 0.95906 2.3454 0.95527 5.5568-3e-3 1.9972-0.23204 4.4867-0.51041 5.5324-0.94152 3.5368-3.1597 6.4022-5.8189 7.5167-1.4577 0.61096-7.461 0.9185-9.7943 0.50175zm8.2025-2.8764c2.7694-0.76932 4.6525-4.1402 4.9466-8.8544 0.22783-3.6518-0.41253-5.8209-2.3976-8.1213l-1.4025-1.6253-4.218 4.4031c-2.3199 2.4217-5.0441 5.5098-6.0538 6.8624s-2.3924 3.14-3.0726 3.972l-1.2368 1.5127 1.199 0.62885c2.7061 1.4192 9.1933 2.0671 12.236 1.222zm-13.66-6.2306c1.074-1.2416 2.3355-2.8262 2.8031-3.5215 0.46765-0.69527 2.8939-3.3464 5.3916-5.8915l4.5413-4.6274-1.2641-1.0612c-0.92489-0.7764-1.5025-1.0058-2.1523-0.85478-3.3014 0.7672-9.4687 5.2946-10.97 8.0531-1.2931 2.3758-2.1728 5.9474-1.8666 7.579 0.28587 1.5238 0.79653 2.5817 1.2463 2.5817 0.17485 0 1.1967-1.0158 2.2708-2.2574zm41.089-29.159c-2.0858-0.15338-10.294-0.29879-18.24-0.32313-11.97-0.0367-14.881-0.14528-16.975-0.63337-2.0522-0.47821-5.724-0.63476-19.504-0.83159-16.307-0.23293-17.057-0.27373-19.043-1.0362-1.9582-0.75168-2.5993-0.79227-12.1-0.76634-5.5175 0.015-11.982 0.15595-14.366 0.31307-4.7966 0.31615-5.6179 0.0972-6.4271-1.7138-0.32635-0.73041-0.43535-7.3496-0.43535-26.438 0-14.005-0.0407-35.654-0.0902-48.11l-0.0904-22.647-2.2574-0.10757c-2.0162-0.0961-2.2695-0.193-2.3711-0.90744-0.12682-0.89158 0.41982-1.11 3.1838-1.2719l1.6253-0.0953 0.0943-44.967c0.0635-30.249-0.0292-45.558-0.28324-46.773-0.2077-0.99323-0.6878-2.2121-1.0669-2.7087l-0.68926-0.9028-21.601-0.0979c-22.883-0.10375-40.166-0.56141-43.453-1.1506-1.0926-0.19588-5.7247-0.45651-10.294-0.57916-6.7892-0.18224-8.6869-0.34915-10.385-0.91339-1.9334-0.64229-3.2922-0.68948-19.504-0.67726-26.253 0.0198-31.606 0.47879-33.63 2.884-1.3251 1.5747-1.4406 3.4537-0.61011 9.9248 0.65415 5.0972 0.74164 7.7512 0.74168 22.499 2.7e-5 13.54-0.11754 17.696-0.61802 21.851-0.50594 4.2004-0.6206 8.4724-0.63206 23.549l-0.01406 18.418 2.55-0.1174c1.9796-0.0912 2.6552 0.01 3.0202 0.44905 0.98864 1.1912 0.2212 1.6592-2.7212 1.6592h-2.772l0.2311 6.411c0.12709 3.526 0.33776 8.7677 0.46814 11.648 0.30436 6.7241-0.49853 32.657-1.2077 39.008-0.33948 3.0401-0.63924 10.655-0.79615 20.226-0.32343 19.729-0.04245 18.898-6.7184 19.851-1.3905 0.19843-5.0475 0.36722-8.1266 0.37509-5.2702 0.0136-12.372 0.63246-16.434 1.4324-5.6527 1.1132-52.786 0.83736-60.137-0.35195-1.4197-0.2297-12.586-0.43553-28.25-0.52074-14.246-0.0775-26.071-0.24473-26.276-0.37163-0.6067-0.37497-0.42636-1.9448 0.25874-2.2522 0.81949-0.36768 40.246 0.0879 48.489 0.56031 3.4764 0.19924 9.6526 0.5338 13.725 0.74345 4.0723 0.20967 8.5419 0.46928 9.9325 0.57692 1.3905 0.1077 8.6232 0.0218 16.073-0.19073 7.4494-0.21255 15.982-0.36885 18.962-0.34732 3.978 0.0287 6.6654-0.16567 10.113-0.73152 2.7687-0.45442 7.7336-0.89645 12.1-1.0772 7.8847-0.32649 11.605-0.80041 12.898-1.6428 0.43916-0.2862 0.98076-1.1974 1.2036-2.0248 0.23656-0.87852 0.54852-7.6782 0.74987-16.344 0.18964-8.162 0.49124-15.978 0.67026-17.368 0.179-1.3906 0.52486-10.005 0.76857-19.143 0.39335-14.749 0.3752-17.75-0.1617-26.727-0.33263-5.5622-0.60285-10.519-0.60046-11.016 0.0041-0.89805-0.01092-0.90231-2.8867-0.78512-2.4689 0.10061-2.9259 0.027-3.1296-0.5037-0.15181-0.39562 0.0055-0.79947 0.43099-1.1111 0.77494-0.56665 3.8828-0.65433 4.8498-0.13681 0.63254 0.33852 0.66619-0.3343 0.83566-16.705 0.12614-12.19 0.35087-18.809 0.78737-23.197 0.51329-5.1598 0.58568-9.0808 0.45343-24.56-0.13891-16.258-0.2479-19.077-0.9286-24.014-1.0303-7.4738-0.6359-9.4341 2.1881-10.875 3.1883-1.6266 5.9192-1.8114 29.547-1.9995 19.94-0.1588 22.416-0.1159 24.199 0.41988 1.3467 0.40459 4.313 0.69364 9.2101 0.89753 3.973 0.16542 9.5803 0.5646 12.461 0.88706 3.0122 0.33722 8.306 0.59331 12.461 0.6028 3.973 0.01 12.181 0.0995 18.24 0.20109 6.0588 0.10156 16.085-5e-3 22.28-0.23899 8.2012-0.3084 11.465-0.31559 12.006-0.0265 0.97671 0.52272 1.7665 2.1029 2.2188 4.4392 0.33351 1.7227 0.43787 46.713 0.26619 114.76-0.0534 21.144 0.40499 77.383 0.63252 77.613 0.0758 0.0766 7.0911 0.1579 15.589 0.18059 14.466 0.0386 15.555 0.0861 17.077 0.745 1.5046 0.65144 2.8729 0.72123 18.42 0.93937 13.226 0.18558 17.385 0.35771 19.574 0.81007 2.3392 0.48348 6.228 0.58422 24.56 0.6363 22.132 0.0629 23.665-4e-3 31.894-1.3954 2.2239-0.37596 5.5913-0.61057 8.7632-0.61057 4.829 0 5.1668-0.0452 5.3965-0.72237 0.13473-0.3973 0.30633-33.554 0.38123-73.681 0.0749-40.127 0.16572-84.18 0.20184-97.894 0.0751-28.526-0.16206-26.514 3.2107-27.237 1.8245-0.39128 46.685-1.2632 47.244-0.91822 0.59039 0.36489 12.023-0.56776 17.225-1.4051 19.257-3.0999 19.409-3.113 23.584-2.0339 1.6885 0.43634 4.2078 0.8749 5.5983 0.97458 2.9775 0.21342 11.019-0.32976 17.878-1.2076 2.6818-0.34321 6.745-0.62532 9.0295-0.6269 3.5154-0.0027 4.6253 0.14667 7.2236 0.97044 1.6885 0.53532 5.3255 1.4653 8.0823 2.0666 2.7567 0.6013 5.1706 1.1912 5.3643 1.3108 0.19361 0.11972 0.58894 0.78459 0.87851 1.4776 0.77649 1.8584 0.69501 24.015-0.1133 30.797-1.1799 9.8995-0.97252 155.32 0.23202 162.7 0.24609 1.5077 0.62581 2.427 1.2681 3.07 0.88605 0.88705 1.0952 0.92182 6.237 1.0368 3.436 0.0768 6.6633-0.0734 9.1126-0.42415 5.6988-0.81604 13.215-1.2923 23.657-1.499 23.408-0.46331 61.026-0.78642 68.083-0.58479l7.7654 0.22188v1.0606c0 1.8948-0.56396 1.9202-20.407 0.91947-9.4236-0.47527-32.931-0.2369-40.452 0.41021-2.4831 0.21364-8.9031 0.36429-14.267 0.33479-9.1897-0.0505-16.114 0.34705-24.94 1.4322-3.9371 0.48402-13.857 0.45624-15.289-0.0429-2.4819-0.86519-2.8497-3.1865-3.1127-19.645-0.11426-7.1514-0.26692-42.014-0.33916-77.473-0.12791-62.8-0.11289-64.588 0.58268-68.986 0.8094-5.1177 1.2956-20.705 0.84984-27.245-0.29938-4.3923-0.70424-5.1733-2.9126-5.6189-5.385-1.0864-7.534-1.6167-9.9194-2.4478-2.4748-0.86223-3.2082-0.94493-8.4878-0.95705-4.2536-0.0096-7.2566 0.20803-11.377 0.82513-4.8294 0.72324-6.3672 0.80549-11.197 0.59891-3.0791-0.13173-6.9605-0.47212-8.6254-0.75644-1.6649-0.28432-4.0216-0.51539-5.2371-0.51349-2.6654 0.0041-15.393 1.2795-17.607 1.7642-6.2732 1.3735-9.7076 1.5578-31.015 1.6647-19.08 0.0957-31.887 0.49964-34.859 1.0995l-1.0886 0.21972-0.12777 28.234c-0.0703 15.529-0.23056 60.045-0.35612 98.925l-0.22829 70.691-0.81238 0.8123c-0.76126 0.76117-1.2272 0.82833-7.4042 1.0671-6.4264 0.24845-11.368 0.63787-17.608 1.3876-4.7596 0.5719-8.1528 0.67437-12.28 0.37086zm-416.86-5.6777c-0.30669-0.35702-1.1542-1.564-1.8835-2.6822-1.5059-2.3093-3.7212-4.4672-7.0027-6.8213-1.2418-0.89092-2.3571-1.9876-2.4783-2.4372-0.26268-0.97389 0.39933-1.8915 1.3646-1.8915 0.7164 0 3.7653 2.1049 6.0869 4.2024l1.3243 1.1964 0.24871-7.6656c0.13678-4.2161 0.4876-10.429 0.77956-13.806 0.79753-9.2244 1.0706-27.333 0.52014-34.493-0.59149-7.6937-0.88953-99.096-0.33387-102.39 0.45595-2.704 1.1388-19.337 0.99368-24.202l-0.10771-3.6118-0.90553 0.95135c-0.49806 0.52324-1.1243 1.5797-1.3918 2.3477-0.26743 0.76797-1.2414 3.0666-2.1645 5.108-1.7406 3.8495-2.6297 4.7013-3.8501 3.6885-0.86084-0.71441-0.64015-1.7202 1.063-4.8447 0.88005-1.6144 1.9577-3.8912 2.3948-5.0595 0.50391-1.3468 1.3688-2.6982 2.3634-3.6928 1.3774-1.3774 1.7632-1.5686 3.1646-1.5686 1.4857 0 1.7336 0.14868 3.5894 2.1531 1.8333 1.9801 4.5856 6.6728 4.5856 7.8184 0 0.26611 0.48758 1.7113 1.0835 3.2115 1.2124 3.052 1.4004 5.0382 0.50917 5.3802-0.3159 0.12122-0.74243 0.11658-0.94784-0.0109-0.51665-0.31935-2.1632-4.073-3.3061-7.5369-0.52435-1.5892-1.4242-3.599-1.9996-4.4662l-1.0462-1.5768-0.2041 3.0215c-0.11221 1.6618-0.29897 6.841-0.41492 11.509-0.1159 4.6682-0.35345 9.3816-0.52779 10.474-0.17434 1.0926-0.32529 10.438-0.33544 20.768-0.01 10.33-0.21043 29.834-0.44504 43.342-0.38228 22.011-0.36404 25.535 0.17572 33.951 0.67176 10.474 0.7994 34.275 0.21789 40.633-0.36115 3.9486-0.85805 24.842-0.58382 24.548 0.0861-0.0924 0.65818-1.4281 1.2711-2.968 2.4543-6.1658 6.6361-10.801 7.445-8.252 0.14716 0.46364-0.29962 1.431-1.3762 2.9798-2.3168 3.333-3.4958 5.8239-4.59 9.6974-0.86087 3.0475-1.0676 3.4432-1.8489 3.5386-0.50841 0.0621-1.1149-0.16655-1.4372-0.54178zm-45.094-48.902c-2.6208-0.51183-5.9575-2.3552-7.5615-4.1774-2.2724-2.5816-2.7545-5.2291-1.4448-7.9346 1.7128-3.5381 5.2288-5.5504 9.698-5.5504 2.7435 0 3.5126 0.4741 3.145 1.9386-0.25023 0.99703-1.1025 1.3001-3.6755 1.307-1.242 3e-3 -2.4379 0.31023-3.7424 0.96029-2.1802 1.0864-2.92 2.3409-2.92 4.9513 0 1.3685 0.19287 1.7837 1.3544 2.9158 0.74493 0.72603 2.2483 1.7604 3.3409 2.2986 1.9473 0.9592 2.1105 0.97733 8.2704 0.91901 10.329-0.0977 12.68-0.91127 13.23-4.5778 0.34287-2.2864-0.35055-3.3334-2.4341-3.6751-0.85197-0.13971-1.8335-0.50533-2.1811-0.81246-0.58969-0.52099-0.63206-0.46158-0.63206 0.8863 0 2.1645-1.4619 3.2938-2.683 2.0726-0.82671-0.82672-0.83111-10.453-5e-3 -11.632 1.2549-1.7916 2.325-0.55442 2.3312 2.695 3e-3 1.1553 0.10388 2.7049 0.226 3.4436 0.21163 1.2802 0.25753 1.3182 0.97935 0.81265 1.024-0.71721 3.3886-0.6682 4.9307 0.10224 1.7406 0.86954 2.527 2.5934 2.5277 5.5409 1e-3 6.1416-3.514 7.9526-15.283 7.8729-3.2151-0.0217-6.577-0.1824-7.4709-0.35698zm12.956-23.97c-0.10442-0.10443-1.884-0.26167-3.9544-0.34932-7.9158-0.33515-13.691-1.4631-18.594-3.6314-3.5343-1.563-4.6798-3.5554-2.9585-5.1455 1.203-1.1112 3.0337-1.7614 7.3846-2.6227 5.1812-1.0256 9.5282-2.2056 16.724-4.5398 6.7816-2.1998 10.373-2.7762 11.187-1.7955 0.91322 1.1004-0.0109 1.6509-4.8664 2.9-2.5825 0.6643-6.0769 1.6117-7.7654 2.1053l-3.07 0.89752 0.0856 4.0954c0.0471 2.2525 0.16385 4.2995 0.25954 4.5489 0.13037 0.33983 1.7551 0.45342 6.4855 0.45342 6.0169 0 6.3365 0.0356 6.8467 0.76406 0.34828 0.49724 0.43585 1.0333 0.25073 1.535-0.26199 0.71007-0.58217 0.77898-4.0548 0.87273-2.0737 0.056-3.8558 0.0162-3.9603-0.0882zm-8.7792-5.7022c-0.12559-1.2416-0.3174-3.0152-0.4262-3.9414l-0.19782-1.684-2.5625 0.87157c-1.4094 0.47937-4.3751 1.2542-6.5904 1.7218-2.2153 0.46762-4.3274 1.0178-4.6934 1.2227-0.60849 0.34053-0.57244 0.4206 0.42037 0.93401 2.0097 1.0392 10.19 2.9205 13.43 3.0888 0.82702 0.043 0.84244-0.0123 0.61974-2.2133zm293.66-7.1458c-2.0732-0.62073-3.5883-2.9399-2.2549-3.4516 0.27337-0.10498 1.4752 0.0628 2.6707 0.3725 3.0628 0.79365 3.4485 0.73176 4.9294-0.79116 1.884-1.9375 3.0995-4.5595 3.0995-6.6862 0-2.2214-0.46417-3.085-2.004-3.7283-1.801-0.75253-3.0864-0.63697-6.8697 0.61756-2.7728 0.91946-3.5047 1.0452-3.947 0.67814-0.44476-0.36911-0.54297-1.5771-0.54297-6.6784 0-5.69 0.0627-6.3074 0.72558-7.1502 0.96121-1.222 3.3147-1.7033 8.3295-1.7033 3.864 0 3.9731 0.0223 4.3695 0.89227 0.69984 1.536 7e-3 1.8833-4.1292 2.0684-2.0334 0.0909-4.0431 0.35124-4.4662 0.57835-0.42307 0.22712-1.054 1.1084-1.402 1.9585-0.74168 1.8115-1.1678 6.5738-0.61855 6.9132 0.20294 0.12546 1.0762-0.0928 1.9406-0.48509 1.159-0.52593 2.3692-0.71523 4.6099-0.72107 5.3817-0.0141 7.4516 2.0028 7.1986 7.014-0.23099 4.5743-3.3421 9.359-6.6898 10.289-1.6117 0.44756-3.4822 0.4527-4.9487 0.0137zm-13.625-1.1743c-0.90314-0.68787-1.1357-1.9361-0.63664-3.4169 0.6339-1.8809 1.1666-2.3949 2.2104-2.1329 2.7826 0.6984 3.6198 3.0809 1.7424 4.9584-1.1103 1.1103-2.3456 1.3306-3.3162 0.59141zm-19.472-1.3463c-0.69217-0.39995-1.7064-0.90378-2.2539-1.1196-0.91422-0.36047-1.2942-1.0799-1.3137-2.4874-0.0041-0.29797-0.43915-2.0046-0.96672-3.7924-1.8531-6.2799-1.2692-12.702 1.3878-15.265 2.0976-2.0232 4.5454-2.3822 8.908-1.3065 2.564 0.63224 3.7382 1.3916 3.5295 2.2826-0.07262 0.31019 0.22333 1.0516 0.65776 1.6475 2.6438 3.6268 3.7614 8.2472 3.0587 12.646-0.53301 3.3365-1.1962 4.4663-4.0789 6.9485-1.313 1.1306-1.4794 1.1738-4.5166 1.1738-2.5028 0-3.413-0.15002-4.4119-0.72714zm7.6162-3.4511c2.5595-2.4522 3.3465-7.6314 1.7304-11.388l-0.77207-1.7948-0.96384 1.9084c-0.53009 1.0496-2.383 3.94-4.1176 6.4231l-3.1538 4.5148 0.99196 0.79593c1.7626 1.4143 4.5412 1.2112 6.2849-0.45942zm-4.9017-9.2774c2.3001-3.3672 3.5059-4.8179 4.1235-4.9611l0.87284-0.2024-1.1767-1.3402c-1.3383-1.5242-3.3941-2.2491-5.5563-1.959-2.796 0.37501-4.0702 2.8709-3.7651 7.3748 0.23859 3.522 1.2155 6.8731 1.827 6.267 0.23328-0.23122 1.8869-2.5618 3.6748-5.1791zm-126.36 3.8948c-0.38333-0.99895 0.78367-1.6358 2.9976-1.6358 2.2022 0 3.1817 0.57124 2.779 1.6207-0.29876 0.77855-5.4785 0.79205-5.7766 0.015zm8.0726-0.33299c0-1.0555 0.57988-1.3028 3.0554-1.3028 2.0161 0 2.9845 0.60489 2.5947 1.6207-0.16147 0.42079-0.83491 0.54638-2.9299 0.54638-2.6283 0-2.7202-0.0292-2.7202-0.86431zm7.946 0.0152c0-1.068 0.57701-1.3196 3.0093-1.3124 2.1687 7e-3 2.8921 0.35382 2.7109 1.3019-0.1115 0.58357-0.52288 0.69391-2.925 0.78457-2.7498 0.10375-2.7952 0.0912-2.7952-0.77401zm7.946-0.0152c0-1.0397 0.58358-1.3028 2.8894-1.3028 2.3059 0 2.8894 0.26312 2.8894 1.3028 0 0.8396-0.0826 0.86431-2.8894 0.86431-2.8068 0-2.8894-0.0247-2.8894-0.86431zm8.1868 0.62352c-0.44647-0.44647-0.24516-1.4862 0.33052-1.7071 0.31422-0.12054 1.3574-0.21924 2.3181-0.21924 2.3059 0 2.8894 0.26312 2.8894 1.3028 0 0.83305-0.095789 0.86431-2.6487 0.86431-1.4568 0-2.757-0.10839-2.8894-0.24079zm7.834-0.30559c-0.38981-1.0158 0.57861-1.6207 2.5947-1.6207 2.4755 0 3.0554 0.24725 3.0554 1.3028 0 0.83511-0.091871 0.86431-2.7202 0.86431-2.0949 0-2.7684-0.12559-2.9299-0.54638zm7.946 0c-0.40272-1.0495 0.5768-1.6207 2.779-1.6207 2.2139 0 3.381 0.63682 2.9976 1.6358-0.29816 0.77699-5.4779 0.76349-5.7767-0.015zm7.9277-0.0476c-0.35121-0.91523 0.88641-1.5731 2.9595-1.5731 2.073 0 3.3107 0.65785 2.9595 1.5731-0.18373 0.47876-0.75788 0.594-2.9595 0.594-2.2016 0-2.7758-0.11521-2.9595-0.594zm23.962 0.0627c-0.38333-0.99894 0.78367-1.6358 2.9976-1.6358 2.2022 0 3.1817 0.57124 2.779 1.6207-0.29876 0.77855-5.4785 0.79205-5.7766 0.015zm8.0726-0.31779c0-1.068 0.577-1.3196 3.0093-1.3124 2.1687 7e-3 2.8921 0.35382 2.7109 1.3019-0.11153 0.58357-0.52288 0.69391-2.925 0.78457-2.7498 0.10375-2.7952 0.0912-2.7952-0.77401zm7.946 0c0-1.068 0.577-1.3196 3.0093-1.3124 2.1687 7e-3 2.8921 0.35382 2.7109 1.3019-0.11153 0.58357-0.52288 0.69391-2.925 0.78457-2.7498 0.10375-2.7952 0.0912-2.7952-0.77401zm8.1868 0.60833c-0.44647-0.44647-0.24516-1.4862 0.33053-1.7071 0.31422-0.12054 1.3574-0.21924 2.3181-0.21924 2.3059 0 2.8894 0.26312 2.8894 1.3028 0 0.83305-0.09583 0.86431-2.6487 0.86431-1.4568 0-2.757-0.10839-2.8894-0.24079zm72.952-0.29054c-0.38333-0.99894 0.78367-1.6358 2.9976-1.6358 2.2022 0 3.1817 0.57124 2.779 1.6207-0.29876 0.77855-5.4785 0.79205-5.7766 0.015zm8.0726-0.33298c0-1.0555 0.57988-1.3028 3.0554-1.3028 2.0161 0 2.9845 0.60489 2.5947 1.6207-0.16146 0.42079-0.83491 0.54638-2.9298 0.54638-2.6283 0-2.7202-0.0292-2.7202-0.86431zm7.946 0.0152c0-1.068 0.577-1.3196 3.0093-1.3124 2.1687 7e-3 2.8921 0.35382 2.7109 1.3019-0.11152 0.58358-0.52288 0.69392-2.925 0.78458-2.7498 0.10374-2.7952 0.0912-2.7952-0.77401zm7.946-0.0152c0-1.0397 0.58359-1.3028 2.8894-1.3028s2.8894 0.26312 2.8894 1.3028c0 0.8396-0.0826 0.86431-2.8894 0.86431-2.8068 0-2.8894-0.0247-2.8894-0.86431zm16.021 0.31793c-0.38981-1.0158 0.5786-1.6207 2.5947-1.6207 2.4755 0 3.0554 0.24725 3.0554 1.3028 0 0.83511-0.0919 0.86431-2.7202 0.86431-2.0949 0-2.7684-0.12559-2.9298-0.54638zm7.946 0c-0.40272-1.0495 0.57679-1.6207 2.779-1.6207 2.214 0 3.381 0.63682 2.9976 1.6358-0.29816 0.777-5.4779 0.7635-5.7766-0.015zm7.9277-0.0476c-0.3512-0.91523 0.88642-1.5731 2.9595-1.5731 2.073 0 3.3107 0.65785 2.9595 1.5731-0.18373 0.47876-0.75788 0.594-2.9595 0.594-2.2016 0-2.7758-0.11521-2.9595-0.594zm7.946 0c-0.35121-0.91523 0.88641-1.5731 2.9595-1.5731 2.073 0 3.3107 0.65785 2.9595 1.5731-0.18371 0.47876-0.75788 0.594-2.9595 0.594s-2.7758-0.11521-2.9595-0.594zm8.07 0.0626c-0.38333-0.99894 0.78367-1.6358 2.9976-1.6358 2.2022 0 3.1817 0.57124 2.779 1.6207-0.29875 0.77855-5.4785 0.79205-5.7766 0.015zm7.946 0c-0.38333-0.99894 0.78367-1.6358 2.9976-1.6358 2.2022 0 3.1817 0.57124 2.779 1.6207-0.29877 0.77855-5.4785 0.79205-5.7766 0.015zm8.0726-0.31779c0-1.068 0.57701-1.3196 3.0093-1.3124 2.1687 7e-3 2.8921 0.35382 2.7109 1.3019-0.11153 0.58358-0.52289 0.69392-2.925 0.78458-2.7498 0.10374-2.7952 0.0912-2.7952-0.77401zm7.946 0c0-1.068 0.577-1.3196 3.0093-1.3124 2.1687 7e-3 2.8921 0.35382 2.7109 1.3019-0.11153 0.58358-0.52289 0.69392-2.925 0.78458-2.7498 0.10374-2.7952 0.0912-2.7952-0.77401zm8.1868 0.60833c-0.44646-0.44647-0.24515-1.4862 0.33053-1.7071 0.31422-0.12053 1.3574-0.21923 2.3181-0.21923 2.3059 0 2.8894 0.26312 2.8894 1.3028 0 0.83304-0.0958 0.86431-2.6486 0.86431-1.4568 0-2.757-0.10839-2.8894-0.24079zm-436.41-2.8576c-0.45292-1.8046-0.71603-1.7797 18.461-1.7469 15.052 0.0258 17.993 0.11303 18.265 0.54176 0.45415 0.71748 0.41134 1.3233-0.11685 1.6544-0.24831 0.15562-8.537 0.31711-18.419 0.35887l-17.968 0.0759zm7.2588-11.353c-0.79689-0.15965-2.3836-0.70364-3.526-1.2089-4.6382-2.0512-2.8336-3.7653 7.4878-7.1122 7.1874-2.3306 15.961-6.028 18.584-7.8318l1.9787-1.3605-2.8696-0.23181c-1.5783-0.1275-3.6132-0.40622-4.522-0.61941-0.90879-0.21318-4.322-0.57089-7.5848-0.79491-11.967-0.8216-12.253-0.87117-12.253-2.1234 0-1.2563 0.8927-1.5536 4.0551-1.3507 1.6434 0.10552 5.5885 0.35285 8.7669 0.54972 6.2604 0.38779 11.093 1.1313 15.35 2.3616 2.4008 0.69385 2.7213 0.88899 2.8183 1.7161 0.0855 0.72891-0.27692 1.2805-1.6553 2.5198-0.97057 0.87263-2.32 1.8702-2.9988 2.2168-2.0597 1.0518-12.088 5.1021-18.029 7.2817-3.0791 1.1296-5.8421 2.1468-6.1401 2.2603-0.38217 0.14559-0.19652 0.35327 0.63024 0.70503 0.91105 0.38763 4.1191 0.51871 14.408 0.58867 12.155 0.0827 13.269 0.14161 13.635 0.72206 0.29063 0.46091 0.29061 0.80324-3e-5 1.2641-0.36666 0.58146-1.4511 0.63631-13.542 0.68501-7.2291 0.0291-13.796-0.0777-14.593-0.23735zm280.61-98.784c-0.40164-1.6003 0.32616-1.9818 3.7798-1.9815l3.1161 3.28e-4 -0.25889-12.877c-0.14239-7.0821-0.31038-13.031-0.37331-13.22-0.06293-0.18879-1.3754 1.5422-2.9166 3.8467-2.5144 3.7597-2.9112 4.19-3.8637 4.19-0.826 0-1.1109-0.19682-1.2842-0.8873-0.17907-0.71345 0.32463-1.6511 2.5709-4.7856 5.1066-7.1261 6.6154-8.5518 7.6612-7.2393 0.33686 0.42281 0.45657 3.0649 1.0473 23.116l0.23143 7.8557h3.6707c3.9141 0 5.0783 0.39293 4.8394 1.6333-0.0724 0.37546-0.53694 0.79547-1.0325 0.93337s-4.5143 0.26692-8.9304 0.28672l-8.0294 0.03604zm223.95-1.5721c-1.4467-0.88225-5.1782-5.0613-5.4492-6.103-0.26854-1.0319 0.42558-1.8915 1.5274-1.8915 0.60382 0 1.3465 0.62323 2.5744 2.1602l1.7257 2.1602 0.25018-3.1534c0.1376-1.7344 0.26548-6.8104 0.28417-11.28 0.0543-13.01 0.85537-17.102 3.7856-19.337 1.8705-1.4267 5.6799-2.0731 11.03-1.8717 5.4256 0.2042 6.5977 0.56324 6.4349 1.9711l-0.11426 0.98838-6.5013 0.0041c-6.0566 0.0041-6.6059 0.06061-8.031 0.82199-2.7877 1.4894-3.3474 3.3436-3.5143 11.643-0.062 3.0791-0.22889 8.3613-0.37104 11.738-0.14572 3.4621-0.11726 6.503 0.0651 6.9721 0.31267 0.80386 0.3631 0.77709 1.4888-0.79035 1.2713-1.7703 2.34-2.3299 3.1561-1.6526 0.72692 0.6033 0.69355 0.7419-0.78722 3.2685-2.0926 3.5706-3.5809 5.0246-5.1413 5.023-0.72182-7.37e-4 -1.8076-0.30336-2.413-0.6725zm61.101-10.592c-1.5701-0.87868-3.3588-6.9362-3.5504-12.024-0.0882-2.3429-3e-3 -2.865 0.52667-3.2066 1.2936-0.83529 1.8702 0.10743 2.2002 3.5969 0.16722 1.7682 0.53985 4.0765 0.82808 5.1294l0.52402 1.9145 1.339-2.6369c1.8269-3.5976 2.5396-3.6744 4.7522-0.51213l1.6073 2.2971 1.1081-3.4398c1.1262-3.4962 1.7616-4.3587 2.8914-3.9252 0.76599 0.29395 0.65285 1.1249-0.95696 7.0276-1.048 3.8429-1.6764 5.1256-2.5108 5.1256-0.59526 0-2.3183-2.1018-3.3255-4.0566l-0.95178-1.8472-1.2695 2.7476c-0.69822 1.5112-1.2695 2.9151-1.2695 3.1198 0 0.65365-1.2278 1.0895-1.9425 0.68948zm-17.173-1.6469c-2.8647-1.4624-2.3041-3.0182 0.9809-2.7223 1.7381 0.15654 2.1628 0.07399 2.7029-0.52512 0.89542-0.99334 0.54997-1.585-2.2433-3.8418-2.7389-2.2129-3.4793-3.5281-3.1062-5.517 0.60116-3.2044 4.2584-4.5286 8.7905-3.1827 2.1179 0.62894 2.8579 1.54 2.2197 2.7325-0.33761 0.63085-0.62782 0.72182-1.7283 0.54178-3.5711-0.58424-4.6942-0.63489-5.4235-0.24458-1.225 0.65561-0.98277 1.9561 0.5794 3.1102 4.8501 3.5834 6.1519 6.1423 4.2653 8.3845-1.5211 1.8078-4.8141 2.3995-7.0374 1.2646zm60.352-1.0708c-1.3511-0.25737-3.4886-2.6678-4.0067-4.5182-0.60664-2.1667-0.24057-4.2116 1.0804-6.0352 1.4559-2.0099 3.4687-2.9482 6.8162-3.1776 3.071-0.21048 3.9026 0.22682 3.4979 1.8394-0.22857 0.91069-1.3594 1.3149-3.6784 1.3149-4.1063 0-6.3946 3.933-3.7986 6.529 0.58067 0.58067 1.434 1.067 1.8962 1.0808 4.9323 0.14671 4.8088 0.12286 4.9264 0.94935 0.22371 1.5723-3.3887 2.6547-6.7334 2.0176zm13.111-0.55397c-0.0927-0.24831-0.20946-3.5193-0.25955-7.2689-0.0823-6.1576-0.0299-6.8565 0.541-7.2218 0.46109-0.29501 0.80303-0.29688 1.2641-0.0068 0.50681 0.31872 0.65268 1.0117 0.73609 3.4967l0.10402 3.0992 7.5589 0.2266-7.7e-4 -3.4493c-8e-4 -3.6636 0.25379-4.3161 1.6841-4.3161 1.455 0 1.6332 1.0102 1.39 7.879-0.27682 7.8156-0.31173 8.0129-1.4177 8.0129-1.0816 0-1.2959-0.57296-1.2959-3.4639v-2.3212l-2.0768 0.19878c-1.1422 0.10934-2.9301 0.28498-3.973 0.39033l-1.8962 0.19154v1.8037c0 0.99201-0.16825 2.118-0.37389 2.5023-0.41804 0.78112-1.7244 0.94381-1.9844 0.24715zm-39.344-0.6089c-0.80986-1.3104-1.213-11.502-0.48386-12.231 0.66353-0.66353 2.0254-0.51572 2.4433 0.2652 0.47408 0.88582 0.49169 10.141 0.0217 11.377-0.35029 0.92136-1.5543 1.279-1.9811 0.58845zm12.124-1.6022c-0.22617-0.27251-0.51431-2.2973-0.64031-4.4995l-0.22909-4.004-2.346-0.10552c-2.6-0.11699-3.5098-0.781-2.743-2.0018 0.50516-0.80422 3.3895-0.96365 9.5026-0.52525 4.4909 0.32205 5.2135 0.59417 4.991 1.8797-0.0722 0.41742-0.75353 0.56632-2.9682 0.64869-1.7385 0.0647-2.9837 0.27878-3.1509 0.54176-0.15203 0.23918-0.27889 1.949-0.28193 3.7995-3e-3 1.8506-0.17378 3.679-0.37943 4.0633-0.43769 0.81785-1.1739 0.90308-1.7548 0.20314zm17.717-16.952c-0.45182-0.54441-0.39097-14.953 0.0662-15.691 0.15392-0.24832 0.57927-0.45148 0.94522-0.45148 0.97551 0 5.4188 4.9339 7.8432 8.7092l2.1037 3.2759 0.18235-4.7173c0.19056-4.9298 0.59354-6.1264 1.895-5.627 1.3677 0.52482 1.3453 10.796-0.0293 13.438-1.2072 2.3205-2.1934 2.113-3.8642-0.81265-1.5262-2.6726-4.282-6.6868-5.5788-8.1266l-1.1386-1.2641 0.20935 5.1598c0.13474 3.3194 0.074 5.4128-0.17032 5.8692-0.43217 0.80752-1.875 0.94643-2.4636 0.23718zm-75.562-0.45176c-0.67418-0.81234-0.98353-13.655-0.34738-14.422 0.63594-0.76627 2.0735-0.68048 2.5181 0.15026 0.57984 1.0834 0.0422 13.671-0.61186 14.325-0.65333 0.65333-0.98161 0.64208-1.5588-0.05338zm8.4824-0.41456c-0.55118-0.55118-0.58919-1.2068-0.36018-6.2139 0.26913-5.8842 0.51035-6.8948 1.6458-6.8948 0.82289 0 1.3515 0.52937 5.049 5.0565 1.5414 1.8872 3.1491 3.7408 3.5728 4.1193l0.77028 0.68805v-3.8249c0-4.4851 0.35359-5.7807 1.5319-5.6125 1.2342 0.1761 1.5306 3.0758 0.81522 7.9758-0.31214 2.1381-0.65543 4.1166-0.76286 4.3965-0.31174 0.81235-1.2565 0.98724-2.1545 0.39881-0.94907-0.62184-4.4441-4.6082-6.2668-7.1478-0.67722-0.94359-1.2915-1.7156-1.365-1.7156-0.0736 0-0.10975 1.872-0.0804 4.1599 0.0534 4.1724-0.2111 5.2308-1.3072 5.2308-0.25946 0-0.74904-0.27729-1.088-0.6162zm49.234-0.35507c-1.3905-0.36343-1.0945-1.6806 1.6142-7.1822 1.4598-2.965 2.92-6.0816 3.2448-6.9258 0.84263-2.1901 1.7677-2.0504 4.1858 0.63175 1.5456 1.7144 2.1893 2.8571 3.361 5.9662 1.6884 4.4806 1.8046 6.4948 0.37465 6.4948-0.69435 0-0.99802-0.35951-1.6253-1.9243-0.75931-1.8941-0.79129-1.9211-2.0356-1.7196-0.69527 0.11262-2.2062 0.2065-3.3575 0.20868l-2.0934 0.0041-0.82984 1.7911c-0.87105 1.8801-1.5994 2.9328-1.9803 2.8623-0.12463-0.02307-0.51098-0.11617-0.85848-0.20703zm8.54-9.4127c-0.51243-1.1422-1.0198-2.2915-1.1275-2.554-0.14425-0.35152-2.2659 3.8902-2.2659 4.5301 0 0.05542 0.97314 0.10074 2.1625 0.10074h2.1625zm-36.134 8.9416c-1.021-0.41194-1.3093-0.92907-1.0222-1.8336 0.21185-0.66745 0.42571-0.71741 2.1492-0.50207 1.4444 0.18045 2.2343 0.08709 3.2193-0.38026 2.2948-1.0889 1.4674-2.6404-1.8175-3.4076-2.3976-0.56003-3.477-1.679-3.477-3.6044 0-0.79615 0.27863-1.8728 0.61918-2.3925 0.79523-1.2137 3.2176-2.3111 5.1237-2.3212 1.7257-0.0096 2.4828 0.66582 2.1653 1.9307-0.22957 0.91471-1.1067 1.2989-2.984 1.307-1.2643 0.0055-2.905 1.1199-2.5336 1.7209 0.13201 0.21354 0.92986 0.49502 1.7731 0.62551 2.6295 0.40693 3.825 0.91914 4.7719 2.0445 2.5911 3.0794-0.4695 7.2068-5.3012 7.1489-1.0508-0.01228-2.2596-0.16373-2.6863-0.33587zm71.825-0.09269c-0.205-0.24831-0.49025-2.6791-0.63388-5.4017l-0.26117-4.9502-2.1719-0.10634c-2.4208-0.11849-3.3144-0.81503-2.5689-2.0025 0.79071-1.2596 13.661-2.1213 15.152-1.0144 0.55985 0.41572 0.62095 0.65221 0.30331 1.1738-0.30745 0.50485-1.2098 0.74871-3.973 1.0736-1.9664 0.23123-3.5994 0.4344-3.6289 0.45148-0.0296 0.01706-0.0774 2.2495-0.10647 4.9609-0.0289 2.7114-0.21371 5.2307-0.41046 5.5983-0.41329 0.77225-1.1627 0.86788-1.7001 0.21695zm-53.121-1.8369c-0.22024-0.26537-0.5087-2.3783-0.64105-4.6954l-0.24061-4.2129h-3.0081c-2.9116 0-3.0154-0.02908-3.2359-0.90765-0.46429-1.8498 0.043-1.9818 7.6182-1.9818 7.3355 0 7.9989 0.14583 7.701 1.6928-0.13023 0.67617-1.8145 1.136-4.3071 1.1759l-1.3014 0.02075-0.23358 2.7633c-0.12846 1.5198-0.2336 3.4377-0.2336 4.2619 0 2.0661-1.1312 3.0718-2.1179 1.8829z" fill="#fff"/></g></svg>
