<svg width="172.91mm" height="39.843mm" version="1.1" viewBox="0 0 172.91 39.843" xmlns="http://www.w3.org/2000/svg">
 <g transform="translate(-946.15 191.03)">
  <path d="m1013.7-191c-1.3971 0.18739-3.3228 1.2077-4.2308 2.2417-2.2978 2.6171-4.5104 10.173-4.9872 17.03-0.3558 5.1166-0.8948 6.8456-2.1338 6.8456-1.1501 0-2.3891-1.9123-3.7366-5.7676-1.7619-5.0405-3.4856-6.9324-6.3154-6.9324-1.5882 0-2.5424 0.43699-3.6111 1.6542-2.1842 2.4877-2.8474 4.4909-3.5455 10.705-0.9487 8.4451-1.3336 9.9882-2.5684 10.302-1.4839 0.37675-2.5964-1.5686-3.3884-5.9262-1.6144-8.882-1.7168-9.1908-3.5062-10.563-0.6293-0.48246-1.7122-0.97765-2.5461-1.1643-1.2654-0.2832-1.6087-0.26446-2.68 0.1447-2.6637 1.0173-3.72 2.7362-4.4431 7.228-0.4104 2.5499-0.9403 3.8518-1.742 4.2809-1.5639 0.83694-2.6223-0.0885-3.8551-3.3703-2.3931-6.3708-4.5549-9.4007-7.8253-10.969-1.7709-0.84913-4.4864-1.3465-5.4183-0.99219-0.9639 0.36645-1.3543 1.3956-0.832 2.1926 0.3285 0.50136 0.7364 0.67123 1.9554 0.81391 2.0064 0.23483 3.3612 0.91163 4.9424 2.4686 1.4967 1.4738 2.119 2.6222 3.4804 6.4244 1.2704 3.5483 2.1294 5.359 2.8577 6.0224 1.3554 1.2345 4.9387 1.6276 6.5365 0.71727 1.3849-0.78905 2.5047-3.2597 3.1631-6.9779 0.2938-1.6589 0.7444-3.3758 1.001-3.8153 1.0099-1.7292 3.1958-1.4794 4.0494 0.46251 0.2605 0.5927 0.7799 2.9229 1.1544 5.1785 1.0087 6.0746 1.6099 7.7587 3.3704 9.4454 2.4963 2.3916 6.3102 2.1448 7.5861-0.49092 0.6656-1.3748 1.4375-5.68 2.0247-11.295 0.2335-2.2332 0.6092-4.6048 0.835-5.27 0.9236-2.7202 2.4701-4.1199 3.8556-3.4887 0.7475 0.34061 1.2783 1.3884 2.7415 5.4105 1.4553 4.0001 2.4973 5.5274 4.458 6.5355 1.4168 0.72848 3.5736 0.56749 4.546-0.33951 1.6282-1.5188 2.6417-4.6218 2.8882-8.8418 0.1868-3.1971 1.0772-7.6716 2.2706-11.412 1.349-4.2278 3.3763-5.7424 5.2648-3.9331 1.0661 1.0214 1.5028 2.3484 2.0009 6.0844 0.2328 1.7462 0.6451 4.2597 0.9168 5.5857 0.2716 1.326 0.6851 3.8728 0.9183 5.6591 0.4562 3.4958 1.1115 6.9021 1.9931 10.355 0.9083 3.5575 2.1305 5.565 4.193 6.8895 0.9618 0.61771 1.4316 0.75831 2.2066 0.65991 1.3995-0.17763 2.7826-1.1209 3.3905-2.3125 1.1262-2.2075 1.3596-3.8368 1.5808-11.02 0.2289-7.4324 0.5226-9.196 1.6645-9.9958 1.3201-0.92465 3.6111-0.0679 4.3134 1.6128 0.216 0.51682 0.5671 2.211 0.7803 3.7646 0.5319 3.8769 0.8831 5.5491 1.4289 6.8068 1.3488 3.1083 4.7871 4.9586 6.7836 3.6504 0.8231-0.5393 1.4074-1.6801 2.3518-4.5899 1.0391-3.2012 1.3993-3.8793 2.2453-4.2297 0.6041-0.25024 0.8988-0.2322 1.5317 0.0951 0.9169 0.47412 1.078 0.83309 2.297 5.1072 0.5053 1.7719 1.096 3.6456 1.3126 4.1641 1.5301 3.6619 4.7118 5.7321 6.9851 4.5444 2.3878-1.2474 3.2785-3.474 4.2974-10.739 1.064-7.5864 3.553-14.817 5.1005-14.817 1.9744 0 3.5461 3.5001 5.0984 11.353 1.0461 5.2919 1.8122 7.2485 3.4168 8.7276 1.4987 1.3814 3.559 1.8965 4.9485 1.2371 1.7934-0.85103 3.1902-3.381 4.3073-7.8016 1.2884-5.0983 2.4243-6.36 4.5552-5.0607 1.2197 0.74367 1.6078 1.6923 2.5901 6.3278 1.639 7.7344 3.1154 10.087 6.3298 10.087 0.9634 0 1.3787-0.16181 2.1467-0.83612 1.8265-1.6037 2.6085-3.8463 3.5522-10.19 0.6902-4.6396 1.1075-6.0757 2.1477-7.3908 1.0126-1.2802 2.2973-2.0862 4.3382-2.7208 1.7599-0.54715 2.1513-0.94907 1.8996-1.9518-0.2862-1.1405-1.6056-1.3978-3.6504-0.7121-2.2396 0.75101-3.1124 1.3201-4.717 3.0758-2.143 2.3448-2.192 2.4854-3.2965 9.5519-0.674 4.3126-1.1682 5.816-2.2277 6.7743-1.2358 1.1176-2.0422-0.35631-3.0892-5.6456-1.2756-6.4435-2.0004-7.9197-4.7977-9.7725-1.4615-0.96811-2.7993-1.0676-4.27-0.3173-2.2813 1.1639-3.2349 2.7691-4.8405 8.1478-1.1434 3.8304-1.9001 5.1082-3.0252 5.1082-1.3238 0-1.9051-1.4659-3.2003-8.0698-1.6835-8.5838-4.2002-13.144-7.3758-13.363-1.6109-0.11136-1.9708 0.0295-3.3843 1.3214-1.7385 1.5888-2.3592 2.8301-3.9863 7.9721-0.8988 2.8404-1.4012 5.0899-1.8908 8.4667-0.7454 5.1416-1.0116 6.1853-1.7963 7.0461-1.1014 1.2082-2.2555 0.50993-3.1972-1.9337-0.221-0.57369-0.8358-2.5906-1.3663-4.4824-1.4966-5.3363-2.2011-6.2461-5.2178-6.737-3.3857-0.55103-5.026 0.59333-6.2901 4.3878-0.8669 2.6022-1.7626 4.2013-2.3528 4.2013-0.9891 0-1.627-1.9785-2.3766-7.3706-0.6213-4.47-1.9748-7.2942-3.9811-8.306-2.279-1.1492-4.7381-0.64749-6.766 1.3803-2.0405 2.0403-2.2508 2.9409-2.5296 10.845-0.3133 8.8839-0.6963 10.728-2.2298 10.728-1.5414 0-2.3239-1.8432-3.65-8.599-0.5142-2.6194-1.0723-5.9531-1.2402-7.4083s-0.5267-3.6579-0.7974-4.8948c-0.2706-1.2369-0.6726-3.6327-0.8934-5.3242-0.4743-3.6342-1.0583-5.3102-2.5296-7.259-1.32-1.7482-2.8463-2.6134-4.2726-2.4221z" fill="#fff"/>
 </g>
</svg>
