<svg width="168.64mm" height="58.893mm" version="1.1" viewBox="0 0 168.64 58.893" xmlns="http://www.w3.org/2000/svg">
 <g transform="translate(1453.6 -1144.1)">
  <path d="m-1367.8 1144.1c-0.5705 0.028-1.1651 0.077-1.6825 0.3385-0.7635 0.5292-1.4884 1.113-2.2293 1.6736-4.9675 3.8378-9.9078 7.7108-14.826 11.611-2.0266 1.6091-4.0608 3.217-5.9396 4.9995-0.3348 0.3199-0.6644 0.6619-0.8426 1.0974-0.4487 0.9889-0.3806 2.1115-0.2565 3.1628 0.3367 2.5237 1.1445 4.9516 1.6195 7.4486 0.5118 2.6232 0.8165 5.2888 1.2145 7.9355 0.1511 1.0037 0.3862 2.0086 0.8688 2.9093 0.4396 0.8689 0.9851 1.6822 1.6239 2.4173 1.4892 1.733 3.2218 3.2379 5.0045 4.6597 1.5818 1.2601 3.2432 2.4148 4.9239 3.5383 1.7819 1.237 3.5443 2.506 5.2278 3.8749 1.0929 0.9063 2.2019 1.8012 3.4008 2.5647 0.4447 0.2486 0.9032 0.4926 1.3989 0.6216 0.6163 0.149 1.2121-0.1538 1.7674-0.3811 1.2543-0.5607 2.2985-1.4796 3.3267-2.3711 1.9167-1.7075 3.7251-3.5327 5.622-5.2623 2.0421-1.8816 4.1351-3.7156 6.3609-5.3818 0.9863-0.7728 1.9801-1.5396 2.9204-2.3683 1.1473-1.0878 2.1444-2.3251 3.0612-3.61 0.4432-0.6546 0.908-1.3118 1.183-2.0587 0.1738-0.6517 0.1352-1.3363 0.1205-2.0041-0.074-1.49-0.2639-2.9824-0.6818-4.4174-0.3155-1.4166-0.5069-2.8805-0.7049-4.3236-0.2668-2.0008-0.4679-4.0067-0.6518-6.0158-0.2236-2.1002-0.5387-4.2266-1.3799-6.1801-0.3236-0.7935-0.7981-1.5165-1.3599-2.1611-1.2736-1.4717-2.8001-2.6985-4.3583-3.8541-2.6661-1.9552-5.5166-3.6444-8.4091-5.2366-1.1616-0.6731-2.3244-1.3526-3.4064-2.1497-0.5276-0.4428-1.0982-0.9006-1.8017-1.0035-0.3671-0.063-0.7424-0.077-1.1143-0.073zm59.078 0.9754c-3.6913 0.012-7.3839 0-11.074 0.12-1.2872 0.06-2.5855 0.095-3.8508 0.359-0.6655 0.1381-1.3062 0.4461-1.7681 0.9539-0.8363 0.8905-1.4652 1.9515-2.0485 3.0184-0.542 0.993-0.9695 2.041-1.4068 3.0825-1.3249 3.0822-2.9194 6.0406-4.7206 8.872-0.8309 1.361-1.6586 2.7495-2.1415 4.2785-0.2721 0.899-0.4012 1.8526-0.3036 2.7897 0.047 0.4484 0.2926 0.8436 0.6004 1.1611 0.3297 0.4842 0.4743 1.0742 0.6347 1.6215 0.46 1.755 0.734 3.579 0.9796 5.3821 0.3455 2.6057 0.5647 5.2204 0.7471 7.8447 0.2054 2.6841 0.3875 5.372 0.7158 8.0444 0.1479 1.0601 0.2787 2.1393 0.669 3.1434 0.2268 0.5882 0.6716 1.1237 1.281 1.3314 0.6823 0.1723 1.3935 0.1719 2.0923 0.2135 2.953 0.1026 5.9086 0.086 8.8629 0.1004 4.4141 0 8.8283 0.017 13.242-0.024 1.3428-0.025 2.6906-0.02 4.026-0.1758 0.862-0.103 1.6805-0.4165 2.478-0.7446 0.7083-0.2885 1.3021-0.7937 1.7865-1.3774 0.8991-1.0386 1.5999-2.228 2.2854-3.413 0.4719-0.8428 0.8888-1.7089 1.3886-2.5343 1.4763-2.5228 3.0647-4.9714 4.6854-7.4051 1.0599-1.6234 2.1463-3.2351 3.0671-4.9439 0.6008-1.1343 1.0607-2.3505 1.3062-3.6119 0.3492-1.9688 0.2074-3.9865-0.058-5.9563-0.4553-3.2182-1.2957-6.3668-2.2314-9.4747-0.5142-1.7235-1.1198-3.4301-1.6143-5.1526-0.292-1.0053-0.4828-2.0526-0.5114-3.0918-0.049-1.1435 0-2.3032-0.2389-3.4286-0.062-0.2781-0.1825-0.603-0.4903-0.6821-0.6229-0.1793-1.2808-0.1668-1.9228-0.2082-3.0837-0.099-6.1698-0.076-9.2547-0.091-2.4044-1e-3 -4.8088 0-7.2133-1e-3zm-57.007 2.8737c1.6572 1.0612 3.3987 1.9812 5.1103 2.9501 2.6273 1.5243 5.1577 3.2248 7.5105 5.1482 0.9394 0.7885 1.8809 1.5952 2.6397 2.5649 0.4389 0.5737 0.6783 1.2684 0.909 1.9448 0.541 1.7488 0.7607 3.5754 0.9612 5.3887 0.1681 1.6209 0.2827 3.2577 0.488 4.8793 0.2443 2.0348 0.5279 4.0664 0.9416 6.0744 0.1811 0.9903 0.3843 1.9832 0.4989 2.9868 0 0.1529-0.01 0.319-0.092 0.4508-0.4592-0.1781-0.8516-0.492-1.2606-0.7606-2.2844-1.6012-4.4367-3.3798-6.7101-4.9955-2.2715-1.641-4.5888-3.2181-6.9381-4.7465l-2.6754-1.7601c0.094-0.826 0.2539-1.6515 0.1944-2.4866-0.1051-1.9133-0.4976-3.7941-0.8151-5.6798-0.4649-2.6642-0.8818-5.3284-1.1645-8.0184-0.1616-1.5077-0.3076-3.0155-0.461-4.525 0.2879 0.1949 0.5758 0.3897 0.8636 0.5845zm-57.762-0.2036c-4.3223 0.01-8.6453-0.011-12.967 0.093-1.4403 0.05-2.8877 0.08-4.3138 0.3049-0.7605 0.1186-1.539 0.3697-2.0891 0.9341-0.7791 0.7822-1.3628 1.733-1.9113 2.6842-0.6089 1.0656-1.1004 2.1917-1.5638 3.3267-1.3366 3.138-2.9501 6.1482-4.7787 9.0247-0.8237 1.3463-1.6445 2.7183-2.1367 4.2264-0.2909 0.9139-0.4281 1.8866-0.3378 2.8439 0.041 0.4703 0.2987 0.8875 0.6255 1.216 0.3746 0.5279 0.5309 1.1715 0.7073 1.785 0.4679 1.8214 0.7329 3.6805 0.9703 5.5417 0.4286 3.366 0.6116 6.7597 0.8856 10.144 0.1768 2.1062 0.3308 4.2178 0.664 6.3061 0.155 0.851 0.3025 1.7358 0.7605 2.4853 0.2226 0.3394 0.5395 0.6302 0.9172 0.784 0.6796 0.1434 1.3799 0.1453 2.0708 0.1915 3.3656 0.1419 6.7352 0.1527 10.103 0.1625 4.6672-0.01 9.3356-0.035 14-0.2082 1.0708-0.051 2.146-0.079 3.2093-0.225 0.324-0.029 0.5758-0.2573 0.882-0.3455 0.302-0.1298 0.6289-0.1667 0.9476-0.2298 0.7311-0.2224 1.2714-0.8091 1.7536-1.3724 1.0592-1.3033 1.8727-2.7832 2.6624-4.2596 0.8771-1.6824 1.8917-3.291 2.8939-4.905 1.633-2.6258 3.4134-5.1561 5.0275-7.7929 0.6853-1.1195 1.3123-2.2873 1.6919-3.5495 0.5909-1.7579 0.6142-3.645 0.4829-5.4769-0.2405-2.9849-0.9107-5.916-1.6889-8.801-0.554-2.0633-1.2172-4.0959-1.8559-6.1321-0.5068-1.674-1.022-3.3749-1.1708-5.1081-0.063-0.6877-0.049-1.3782-0.038-2.0674 0.01-0.3807-0.1212-0.7989-0.4712-0.9961-0.5155-0.3022-1.1299-0.3515-1.7111-0.4201-1.7086-0.1516-3.4265-0.1438-5.1406-0.1599-3.027-0.015-6.0542 0-9.0814 0zm54.234 0.329c0.2193 1.3108 0.224 2.6454 0.3922 3.9623 0.3499 2.9333 0.8512 5.8454 1.3207 8.7611 0.2686 1.6742 0.5727 3.3419 0.8088 5.0198 0.034 0.3969 0.1304 0.8174-0.011 1.2041-0.1522 0.278-0.4348 0.4609-0.5778 0.7482-0.1132 0.1698-0.1681 0.369-0.2061 0.5643-0.349 0.5329-0.8259 0.9667-1.2681 1.4209-1.8262 1.7826-3.7509 3.4614-5.7007 5.1068-1.6432 1.3877-3.3249 2.7202-5.0538 3.9987-1.8241 1.3667-3.6373 2.7486-5.458 4.1201-0.5881 0.4101-1.1819 0.8533-1.8785 1.0575-0.3179 0.073-0.6452 0.038-0.955-0.011-0.174-1.0406-0.3896-2.0646-0.5142-3.1093-0.1644-1.2496-0.2599-2.5063-0.4565-3.7522-0.3601-2.4689-0.8534-4.9173-1.4625-7.3368-0.2728-1.2123-0.5325-2.4496-0.5178-3.6902 0.02-0.5085 0.07-1.0866 0.3942-1.5142 0.789-0.7456 1.6448-1.4169 2.4816-2.1077 4-3.2493 8.0537-6.428 12.125-9.588 1.9991-1.5381 3.988-3.091 6.0348-4.5656 0.1627-0.1102 0.3209-0.2272 0.49-0.3276v0.023zm64.498 0.1873c3.6696 0.014 7.3398 0.013 11.009 0.092 0.1542 0.01 0.3039 0.01 0.4516 0.019-0.4545 0.7489-1.0037 1.4356-1.442 2.1949-1.6736 2.7655-3.2611 5.5826-4.8433 8.401-1.0451 1.8615-2.0607 3.7384-3.0786 5.6148-0.437 0.7492-0.8693 1.511-1.433 2.1739-0.2689 0.2807-0.6903 0.3356-1.0409 0.4096-0.6816 0.1199-1.4139 0.065-2.1265 0.1193-1.8606 0.087-3.7094 0.3359-5.5696 0.4336-3.8435 0.2163-7.7078 0.1579-11.559 0.092-2.1594-0.05-4.3202-0.07-6.4771-0.1886-0.558-0.053-1.1602-0.053-1.6912-0.2777-0.2756-0.1511-0.4784-0.402-0.719-0.5999 0.4842-0.9913 1.018-1.9567 1.5707-2.9111 1.0457-1.832 2.1595-3.6333 3.1578-5.4953 0.938-1.7329 1.8351-3.4885 2.63-5.2921 0.4989-1.0631 0.989-2.1267 1.5836-3.1355 0.307-0.4497 0.6231-0.9562 1.162-1.15 0.7825-0.2903 1.6291-0.3204 2.453-0.383 2.3902-0.1207 4.8006-0.104 7.1992-0.1166 2.9213 0 5.8426 0 8.7639-2e-4zm-117.55 2.6715c3.6774 0.014 7.3554 0.013 11.032 0.093 0.1468 0.01 0.2879 0.01 0.4285 0.018-0.4545 0.7489-1.0039 1.4355-1.442 2.195-1.7097 2.8252-3.3297 5.7042-4.9454 8.5838-1.0145 1.8073-1.9985 3.6313-2.9878 5.4525-0.4347 0.743-0.866 1.5014-1.4217 2.1533-0.272 0.2841-0.7049 0.3396-1.0613 0.4128-0.7041 0.1187-1.4152 0.061-2.1294 0.1172-1.8528 0.088-3.694 0.3353-5.5464 0.4324-3.8357 0.2167-7.6922 0.1578-11.536 0.093-2.1648-0.05-4.3434-0.071-6.4982-0.1887-0.5655-0.055-1.1563-0.053-1.6879-0.2759-0.2794-0.1486-0.4818-0.4038-0.7245-0.6022 0.4484-0.9094 0.9221-1.7901 1.4316-2.667 1.0986-1.9367 2.278-3.8349 3.3305-5.8007 0.9253-1.7132 1.8115-3.4482 2.5965-5.2307 0.5022-1.0672 0.9945-2.1434 1.5982-3.158 0.3033-0.4442 0.6199-0.9403 1.1523-1.1296 0.7872-0.29 1.6477-0.321 2.4699-0.3816 2.5454-0.1265 5.0951-0.1032 7.6428-0.1171 2.7661-1e-3 5.5323 0 8.2984 0zm103.79 0.024c-0.9672 0.049-1.9793 0.2385-2.7738 0.8258-0.3822 0.2893-0.7255 0.741-0.6442 1.2475 0.1058 0.6949 0.6509 1.233 1.2312 1.5794 0.4427 0.2408 0.9161 0.4496 1.4165 0.5318 0.6694 0.084 1.2727-0.2973 1.8381-0.5982 0.6029-0.3517 1.2586-0.6968 1.6574-1.292 0.2466-0.3631 0.223-0.8516 0-1.2199-0.2598-0.4449-0.6261-0.8985-1.1614-0.9972-0.5137-0.1025-1.0438-0.082-1.5647-0.077zm12.335 0.9145c-0.3383 0.02-0.6909 0.031-1.0083 0.1574-0.3441 0.2042-0.3684 0.6613-0.3484 1.0198 0.065 0.7421 0.3334 1.4873 0.832 2.049 0.3845 0.4345 0.9916 0.5935 1.5543 0.535 0.6394-0.066 1.2763-0.1909 1.8897-0.3846 0.4796-0.1543 1.0077-0.4387 1.1324-0.9697 0.086-0.4089 0.011-0.8449-0.1496-1.2262-0.2393-0.4737-0.7919-0.631-1.2598-0.7824-0.8543-0.2605-1.747-0.4182-2.6423-0.3983zm13.976 0.3894c0.3942 0.8093 0.6624 1.6727 0.9522 2.5231 1.0228 3.2183 1.9483 6.4789 2.6171 9.7862 0.3878 1.9622 0.6982 3.9499 0.7284 5.9472 0.012 0.8681-0.042 1.727-0.2718 2.5621-0.4608 1.7303-1.3439 3.3036-2.277 4.8236-0.9254 1.5082-1.9789 2.9311-2.9803 4.3881-1.3682 2.0116-2.6773 4.0652-3.8665 6.1883-0.3321 0.5475-0.6264 1.1271-1.0458 1.6147-0.086 0.1243-0.09-0.075-0.1121-0.1364-0.8503-3.8485-1.7107-7.6997-2.294-11.602-0.3253-2.1417-0.5074-4.2926-0.6677-6.452-0.079-1.0742-0.1785-2.1474-0.2445-3.2221 0.016-0.7059 0.4917-1.2752 0.8951-1.8119 0.7834-1.164 1.4643-2.3935 2.1523-3.615 1.043-1.8943 2.0431-3.8113 3.1115-5.6894 0.8807-1.5541 1.7792-3.1292 2.7445-4.6117 0.1722-0.2475 0.3323-0.5057 0.5368-0.7285l0.012 0.02zm-144.92 0.026c-0.3628 0.059-0.6562 0.3126-0.9507 0.5152-0.5823 0.4511-1.1576 0.9337-1.5927 1.5332-0.271 0.4047-0.1273 0.93 0.056 1.34 0.2553 0.5375 0.6165 1.0266 1.0442 1.4392 0.393 0.3297 0.915 0.5813 1.4389 0.4671 0.733-0.1328 1.4341-0.4789 1.9756-0.9916 0.4636-0.443 0.5651-1.1265 0.563-1.7388-0.017-0.5139-0.128-1.0811-0.5474-1.4239-0.5037-0.4452-1.0729-0.8302-1.6989-1.0803-0.092-0.033-0.1895-0.062-0.288-0.06zm27.777 2.1961c0.7817 2.7362 1.6856 5.4373 2.4183 8.188 0.7272 2.7005 1.3692 5.4443 1.6423 8.2195 0.1081 1.2148 0.1777 2.445 0.039 3.6656-0.2212 1.816-1.1192 3.4366-2.0444 4.9871-1.3851 2.2786-2.9438 4.4445-4.4468 6.6452-1.2294 1.864-2.3585 3.7917-3.4261 5.7524-0.238 0.429-0.4758 0.8581-0.7137 1.2872-0.581-3.1798-1.278-6.3369-1.8957-9.508-0.6261-3.298-1.0091-6.6332-1.2575-9.9822-0.058-0.8177-0.1268-1.6359-0.1611-2.4545 0.065-0.4979 0.3227-0.9211 0.5955-1.3353 0.722-0.9505 1.2989-2.0009 1.8919-3.0346 0.8312-1.4932 1.6029-3.0133 2.4342-4.5061 1.3155-2.3757 2.6514-4.7433 4.0952-7.0393 0.2472-0.377 0.4834-0.763 0.7681-1.1136 0.02 0.076 0.041 0.1524 0.061 0.2286zm34.231 1.8176c-0.6006 0.028-1.1833 0.3679-1.4585 0.91-0.5376 0.9579-0.5468 2.2264 0.065 3.1527 0.4777 0.6979 1.3545 1.1561 2.2059 0.9839 0.9247-0.1658 1.6326-0.9651 1.8581-1.8529 0.167-0.6251 0.1816-1.3354-0.1737-1.9012-0.5126-0.838-1.5208-1.3464-2.4972-1.2925zm-54.683 0.7949c-0.5064 0.039-0.9675 0.2887-1.4124 0.5154-0.5008 0.2861-1.0217 0.5829-1.3911 1.0358-0.3256 0.51-0.2381 1.166-0.056 1.7117 0.2657 0.7457 0.7606 1.4702 1.5061 1.796 0.5973 0.2529 1.3094 0.3405 1.9049 0.035 0.7057-0.364 1.2654-1.0065 1.5469-1.7473 0.1759-0.4361-0.048-0.8909-0.242-1.2787-0.3567-0.6673-0.7926-1.3069-1.3565-1.8167-0.1429-0.1189-0.307-0.2455-0.5007-0.251zm119.64 1.9093c-0.3526 0.038-0.6125 0.3303-0.7993 0.6081-0.3957 0.6867-0.3275 1.5633 0 2.2623 0.4953 1.0861 1.9092 1.5986 2.9969 1.1289 0.6097-0.2402 1.057-0.8029 1.1981-1.4376 0.137-0.4655 0.062-1.0112-0.2922-1.3633-0.5372-0.5471-1.3055-0.7561-2.0151-0.9811-0.3548-0.1-0.7156-0.2357-1.0896-0.2173zm-12.394 0.3522c-0.9624 0.045-1.8019 0.5968-2.5416 1.1674-0.354 0.2963-0.7403 0.5921-0.9585 1.0083-0.1123 0.2911 0.082 0.5906 0.2397 0.8253 0.303 0.4018 0.6985 0.7806 1.1961 0.9137 0.7591 0.1218 1.5232-0.148 2.182-0.508 0.6121-0.3542 1.2209-0.8377 1.4544-1.531 0.1805-0.5055 0.1-1.1345-0.3273-1.4935-0.3375-0.297-0.8049-0.4009-1.2448-0.3822zm-34.339 0.9444c-0.3908 0.056-0.7132 0.3184-1.034 0.5302-0.4989 0.3773-1.0086 0.7741-1.3557 1.3024-0.2172 0.4135-0.012 0.9051 0.2431 1.2517 0.366 0.5227 0.9992 0.8045 1.6274 0.8155 0.8697 0.027 1.7984-0.4032 2.2009-1.2008 0.2572-0.4917 0.1678-1.0974-0.1254-1.5526-0.3114-0.4993-0.7639-0.9614-1.3449-1.1227-0.069-0.015-0.1403-0.025-0.2114-0.024zm-68.293 3.2606c-0.4392 0.032-0.6971 0.4424-0.99 0.7172-0.4626 0.461-0.9031 1.051-0.8745 1.7375 0.026 0.5125 0.2808 1.0024 0.642 1.3598 0.4437 0.4086 1.0994 0.3914 1.6581 0.3127 0.7714-0.1194 1.535-0.3073 2.2692-0.5726 0.4338-0.157 0.8852-0.4428 0.9988-0.9218 0.086-0.3953 0.094-0.8194-0.018-1.2103-0.1555-0.47-0.6657-0.6583-1.0929-0.8016-0.7093-0.2195-1.4295-0.4056-2.1518-0.5768-0.1448-0.03-0.2931-0.053-0.4414-0.044zm39.051 0.4913c-0.377 6e-4 -0.737 0.229-0.887 0.5774-0.4267 0.8147-0.7118 1.6921-1.0441 2.5472 0.5258 0.5048 1.0065 1.0597 1.5776 1.5148 0.3031 0.2448 0.7215 0.392 1.1008 0.2421 0.8699-0.2595 1.4688-1.1069 1.5608-1.9907 0.121-0.9075-0.2731-1.8612-1.0105-2.4072-0.3691-0.2831-0.8236-0.4968-1.2976-0.4836zm13.31 0.7935c-0.7329 0.025-1.5288 0.252-1.9791 0.8712-0.3451 0.4145-0.3498 1.0008-0.1927 1.4928 0.2096 0.6964 0.6993 1.331 1.3872 1.6052 0.4695 0.235 1.0563 0.3574 1.5388 0.088 0.7029-0.3886 1.264-1.099 1.3405-1.9153 0.091-0.8016-0.3365-1.6645-1.096-1.9839-0.3116-0.1421-0.6599-0.1757-0.9987-0.1577zm77.334 2.6851c-0.8926 0.044-1.6483 0.8779-1.6121 1.7694 0.013 0.6967 0.4909 1.263 0.9574 1.7321 0.458 0.4348 0.9632 0.8477 1.5561 1.0809 0.4939 0.1756 1.0888 0.294 1.566 0.01 0.4241-0.2791 0.4902-0.8359 0.4907-1.3018-0.01-0.6464-0.086-1.2956-0.2401-1.9239-0.085-0.3741-0.3352-0.7225-0.7128-0.8407-0.3963-0.126-0.8118-0.1923-1.1923-0.3677-0.255-0.1132-0.533-0.177-0.8129-0.1586zm-8.7732 2.048c0.1009 2.0338 0.1207 4.0714 0.2452 6.104 0.1745 2.8117 0.7753 5.571 1.3191 8.3284 0.4226 2.139 0.8851 4.2707 1.1916 6.4259 0.087 0.7666 0.2065 1.5571 0.028 2.3194-0.1115 0.4167-0.3943 0.7902-0.7654 1.0089-0.5037 0.203-1.07 0.1992-1.5965 0.2428-2.4463 0.1169-4.8965 0.1047-7.3449 0.1335-5.7882 0.038-11.576 0.068-17.365 0.1014-0.2068-0.3354-0.4774-0.6434-0.5638-1.0382-0.3062-1.0917-0.481-2.2144-0.6626-3.34-0.3564-2.3642-0.6654-4.7353-1.0158-7.1004-0.2898-2.0125-0.6111-4.016-0.8291-6.0368-0.1984-1.7926-0.3924-3.5935-0.4849-5.392-0.02-0.1347-0.032-0.2668 0.1499-0.2353 1.3332-0.138 2.6698-0.1723 4.0104-0.2241 3.1509-0.089 6.3024-0.1558 9.4526-0.269 3.4608-0.1264 6.923-0.2548 10.376-0.5216 0.8767-0.078 1.7607-0.1311 2.6219-0.3201 0.409-0.1157 0.8142-0.2456 1.2228-0.3627 0 0.059 0.011 0.1173 0.011 0.1759zm-107.72 0.3431c-0.8381 0.054-1.5353 0.6132-2.0829 1.2069-0.2711 0.3092-0.575 0.6192-0.7136 1.0142-0.021 0.2799 0.1633 0.5252 0.2741 0.7699 0.4769 0.8534 1.0173 1.6763 1.6471 2.4249 0.5068 0.5264 1.373 0.5305 1.9706 0.1592 0.4268-0.2162 0.5897-0.7014 0.6706-1.1409 0.1368-0.7778 0.1777-1.57 0.2043-2.3582 0.014-0.4718-0.044-0.991-0.3956-1.3416-0.3902-0.4563-0.961-0.7747-1.5746-0.7344zm46.573 0.6549c1.8483 1.2448 3.7263 2.4485 5.5372 3.7493 2.4501 1.7309 4.8561 3.5231 7.2643 5.3117 1.2826 0.937 2.5576 1.8879 3.8814 2.7667 0.2361 0.1571 0.5232 0.2398 0.7209 0.4513-0.3581 0.4964-0.8211 0.9069-1.2508 1.34-1.2581 1.2162-2.5775 2.3593-3.9432 3.4534-2.8567 2.3706-5.6359 4.8337-8.3682 7.3453-1.5509 1.4273-3.0552 2.9122-4.7134 4.2176-0.3652 0.2522-0.7517 0.5036-1.1882 0.6081-0.4919 0.1034-0.9679-0.1517-1.3656-0.3877-1.0292-0.6467-1.9594-1.4347-2.9129-2.1849-1.9138-1.5387-3.9094-2.9768-5.9394-4.3588-2.0466-1.3429-4.0252-2.7794-5.9215-4.33-0.5963-0.5054-1.2172-0.9927-1.73-1.5857-0.1448-0.1043-0.01-0.2034 0.085-0.2786 0.4506-0.3751 0.9827-0.6348 1.4432-0.9978 1.8487-1.3831 3.6339-2.8475 5.4381-4.2881 1.3801-1.1065 2.7633-2.2107 4.0767-3.3967 0.8951-0.8073 1.7683-1.6385 2.69-2.4174 1.2359-1.0671 2.5267-2.0688 3.748-3.1518 0.6511-0.5432 1.2301-1.1742 1.9299-1.6571 0.156-0.093 0.3286-0.2254 0.5182-0.2088zm-56.402 1.6648c0.096 1.8924 0.1206 3.804 0.2344 5.7014 0.179 2.9548 0.8165 5.8531 1.3865 8.7505 0.4032 2.0371 0.8404 4.0754 1.1314 6.1234 0.089 0.7746 0.2114 1.5734 0.032 2.3438-0.114 0.421-0.4002 0.8034-0.7816 1.0162-0.5082 0.1959-1.0729 0.1955-1.6035 0.2367-2.5083 0.1185-5.0203 0.1042-7.5307 0.1346-5.7183 0.036-11.437 0.066-17.155 0.1-0.2128-0.3412-0.485-0.6577-0.5711-1.061-0.3547-1.2931-0.5455-2.6178-0.7521-3.9406-0.4579-3.2446-0.9123-6.4897-1.3969-9.7304-0.3182-2.2977-0.5682-4.6059-0.7154-6.9236-0.015-0.4261-0.056-0.8699-0.015-1.3017 1.5258-0.089 3.0678-0.1164 4.6014-0.161 5.6519-0.1394 11.306-0.2832 16.95-0.6117 1.5016-0.098 3.0076-0.1787 4.4981-0.3906 0.576-0.083 1.1188-0.3035 1.6787-0.4529 0 0.056 0.01 0.1115 0.01 0.1673zm110.67 0.9108c-0.4558 0.013-0.7532 0.4146-0.9724 0.767-0.2371 0.3361-0.3556 0.7607-0.2602 1.1674 0.1468 0.8216 0.5303 1.6112 1.1345 2.1929 0.3291 0.2672 0.7227 0.5141 1.1584 0.5258 0.2504-0.049 0.4895-0.1629 0.7495-0.1672 0.3215-0.129 0.5243-0.44 0.7203-0.7104 0.2118-0.2979 0.3866-0.6628 0.2905-1.0362-0.1211-0.5019-0.3129-0.9868-0.5319-1.4535-0.2177-0.4709-0.6086-0.8707-1.1124-1.0244-0.3801-0.1254-0.77-0.2739-1.1763-0.2614zm-73.512 0.095c-0.6048 0.029-1.2693 0.1657-1.692 0.6339-0.289 0.3619-0.2595 0.8629-0.2274 1.299 0.098 0.8233 0.3362 1.6493 0.7968 2.3453 0.1909 0.2884 0.4894 0.5359 0.8518 0.5331 0.4072 0.035 0.781-0.169 1.1728-0.2444 0.4092-0.079 0.8055-0.2589 1.0864-0.5746 0.6213-0.6771 0.8229-1.6659 0.6718-2.5561-0.089-0.5193-0.5601-0.8344-0.9835-1.0785-0.5111-0.2728-1.1017-0.3727-1.6767-0.3577zm-43.813 2.6452c-0.6035 0.061-1.0463 0.5344-1.4324 0.9578-0.5403 0.5948-1.0247 1.3438-0.9825 2.1799 0.044 0.7781 0.5698 1.4701 1.2301 1.8503 0.5926 0.3325 1.3226 0.2354 1.9182-0.036 0.6533-0.2687 1.2884-0.7238 1.5292-1.4161 0.1842-0.5471 0.2257-1.1464 0.1243-1.7142-0.1276-0.662-0.6781-1.1279-1.2384-1.4421-0.3497-0.2022-0.7294-0.4155-1.1485-0.3796zm-14.843 1.0167c-0.4882 0.01-1.0506 0.056-1.3789 0.4672-0.4601 0.5178-0.4696 1.2696-0.3518 1.9155 0.1738 0.9046 0.6328 1.8195 1.4562 2.2922 0.5993 0.3746 1.4028 0.4307 2.0183 0.061 0.7342-0.4262 1.2689-1.2709 1.1605-2.1379-0.095-0.8304-0.6106-1.5386-1.1642-2.1336-0.3058-0.3345-0.7655-0.4556-1.2048-0.4598-0.1784-0.01-0.3569-0.01-0.5353 0zm125.98 2.9942c-0.485 0.034-0.913 0.2986-1.3364 0.5136-0.4145 0.2512-0.8458 0.5328-1.0996 0.9576-0.1893 0.4812-0.044 1.0193 0.1333 1.482 0.2883 0.7123 0.8236 1.3723 1.5771 1.6118 1.1185 0.3941 2.4741-0.1878 2.9563-1.2717 0.2565-0.5744 0.2847-1.2669 0.028-1.8462-0.3084-0.6174-0.9597-0.9459-1.546-1.2491-0.2225-0.1096-0.4609-0.2063-0.7135-0.198zm-40.117 0.7567c-0.6322 0.024-1.2616 0.2753-1.6914 0.7484-0.6928 0.7294-0.9955 1.887-0.561 2.8234 0.2711 0.5592 0.8263 0.958 1.4249 1.0981 0.6762 0.1499 1.3509-0.1762 1.8587-0.6021 0.3048-0.2284 0.5974-0.5383 0.6109-0.9414 0.024-0.5462-0.064-1.0917-0.1517-1.6293-0.099-0.5047-0.2537-1.0873-0.7351-1.3585-0.2298-0.1242-0.4979-0.1525-0.7553-0.1386zm-76.545 1.7093c-0.9175 0.047-1.8189 0.3626-2.5844 0.8669-0.3823 0.2523-0.7412 0.6169-0.7865 1.0959-0.09 0.7609 0.1792 1.522 0.5621 2.1695 0.3751 0.6267 0.9498 1.1392 1.623 1.4248 0.5632 0.229 1.1919 0.067 1.7105-0.2003 0.895-0.4013 1.4877-1.311 1.6205-2.2676 0.1371-0.9166-0.077-1.951-0.7781-2.5988-0.368-0.3393-0.869-0.5099-1.3671-0.4904zm65.106 1.5389c-0.3358 0.01-0.7329 0.078-0.9008 0.4082-0.449 0.8357-0.3514 1.8801 0.065 2.7082 0.2043 0.4291 0.5599 0.7585 0.9514 1.0163 0.2772 0.2129 0.6488 0.3327 0.9883 0.2022 0.4098-0.1523 0.8157-0.3414 1.1596-0.6148 0.5634-0.46 0.7532-1.2162 0.757-1.9149 0-0.4729 0.01-1.0289-0.3607-1.3811-0.4044-0.3461-0.971-0.3597-1.4756-0.4018-0.394-0.02-0.7895-0.033-1.1841-0.022zm-9.8501 1.2363c-0.3647 0.022-0.8217 0.1201-0.9641 0.5049-0.1541 0.2825-0.46 0.4124-0.746 0.5177-0.4285 0.186-0.6851 0.6827-0.5723 1.1391 0.147 0.6509 0.7222 1.1081 1.3084 1.3615 0.8782 0.382 1.9804 0.2084 2.6604-0.4791 0.4107-0.3977 0.7712-0.958 0.662-1.5548-0.097-0.4951-0.4422-0.9311-0.8777-1.1762-0.4478-0.238-0.9665-0.3339-1.4707-0.3131zm54.211 0.5367c-0.619 0.01-1.2003 0.3631-1.5211 0.8868-0.3674 0.5747-0.5556 1.248-0.662 1.9164-0.089 0.5361 0.069 1.0947 0.4118 1.5143 0.2526 0.3783 0.6511 0.6856 1.1196 0.7069 0.7594 0.041 1.4529-0.4092 1.9563-0.9408 0.6014-0.644 1.0242-1.55 0.8537-2.4448-0.1331-0.6857-0.6107-1.3319-1.3008-1.5293-0.2755-0.09-0.569-0.1169-0.8575-0.1095zm-103.35 1.783c-0.3324 0-0.6686 0.1542-0.8345 0.453-0.4294 0.6649-0.5397 1.4738-0.604 2.2467-0.01 0.55-0.043 1.1332 0.1954 1.6444 0.2387 0.4371 0.6407 0.7717 1.0744 1.0059 0.8926 0.4504 2.0288 0.4773 2.8979-0.044 0.7301-0.4389 1.0885-1.3285 1.0199-2.1579-0.059-0.9227-0.5496-1.7694-1.2171-2.3904-0.3622-0.3775-0.8381-0.6549-1.3648-0.7079-0.3865-0.046-0.7783-0.062-1.1672-0.05zm-13.636 0.889c-0.7894 0.062-1.5085 0.499-2.0612 1.0467-0.4456 0.4377-0.7252 1.0448-0.7204 1.6737-0.017 0.9821 0.5187 2.0176 1.455 2.4014 1.0254 0.439 2.278 0.01 2.9356-0.863 0.4991-0.6265 0.6372-1.5033 0.3784-2.2585-0.2318-0.7081-0.654-1.3871-1.2848-1.8023-0.2085-0.1322-0.4531-0.2176-0.7026-0.198z" fill="#fff"/>
 </g>
</svg>
