<svg width="170.83mm" height="54.772mm" version="1.1" viewBox="0 0 170.83 54.772" xmlns="http://www.w3.org/2000/svg">
 <g transform="translate(-2667.5 450.06)">
  <path d="m2762.6-450.03c-0.2597 0.0504-0.5364 0.16265-0.8119 0.34313-0.3371 0.22086-2.3271 2.3916-4.4224 4.8235-4.2535 4.9368-8.5158 9.6871-10.908 12.156l-1.587 1.6381-1.8748-1.7456c-2.8562-2.6589-5.4594-4.6616-9.65-7.4238-2.0982-1.383-4.839-3.4669-6.0901-4.6312-3.8076-3.5434-4.8381-3.9854-5.9159-2.5363-0.3647 0.49101-0.447 0.82697-0.2765 1.1317 0.6496 1.1608 6.7763 6.4089 10.073 8.6289 3.6593 2.4639 7.0936 5.1346 9.9348 7.7261l1.5379 1.403-0.6646 0.62477-0.6651 0.62425-2.0639-1.848c-3.2633-2.9218-11.324-9.4552-14.367-11.645-1.528-1.0995-3.4494-2.5766-4.2695-3.2825-1.8854-1.6228-2.8943-1.7037-3.638-0.29145-0.5805 1.1023 0.5348 2.2916 6.0198 6.4167 5.6261 4.2312 16.043 13.047 16.043 13.577 0 0.68384-1.0109 0.14372-4.009-2.143-3.6615-2.7927-5.1315-4.051-9.6175-8.2331-7.0222-6.5464-10.318-8.8396-11.536-8.0264-0.6507 0.4344-0.9127 1.3313-0.5937 2.0314 0.1696 0.37212 0.3893 0.67645 0.4883 0.67645 0.419 0 4.8823 3.705 8.0698 6.6988 4.9161 4.6176 7.2258 6.6299 10.98 9.5674 1.819 1.4232 3.3073 2.6921 3.3073 2.8195 0 0.29853-2.2106 3.4643-7.0378 10.079-2.1245 2.9114-4.2017 5.92-4.6157 6.6854-0.7296 1.3488-0.7386 1.4129-0.2982 2.0852 0.3465 0.52887 0.6732 0.69349 1.3766 0.69349 1.0618 0 0.4966 0.71967 6.0302-7.6734 2.0631-3.1291 4.5152-6.7009 5.4492-7.9375 0.9339-1.2366 1.7267-2.2878 1.7627-2.3358s0.3675 0.11105 0.7374 0.35346l0.6729 0.4408-1.2568 1.6309c-0.6912 0.89701-2.4371 3.1787-3.8804 5.0705-1.4432 1.8918-3.7912 4.894-5.2172 6.6714-1.426 1.7775-2.7102 3.5417-2.8541 3.9202-0.3263 0.8582 0.047 1.6411 0.9462 1.9828 1.2756 0.48496 1.2138 0.54906 8.3168-8.7121 1.528-1.9922 3.6509-4.7705 4.717-6.1738 1.2839-1.6899 2.0656-2.5023 2.3151-2.4066 0.2072 0.0795 0.3767 0.20441 0.3767 0.27751s-0.7704 1.102-1.712 2.2867c-10.649 13.397-12.507 16.375-11.231 17.997h6e-4c1.0236 1.3014 2.2779 0.81828 3.1502-1.2139 0.7403-1.7248 1.5877-2.9707 4.3553-6.3996 1.1867-1.4703 2.9133-3.7448 3.8369-5.0545 2.1315-3.0227 4.0559-5.4059 4.3124-5.3413 0.1093 0.0276 2.5497 2.3179 5.4235 5.0896 7.0655 6.8144 10.168 9.3047 14.943 11.997 0.8337 0.47004 1.5852 0.96668 1.6692 1.1033 0.3259 0.52734 1.6891 0.26068 2.1332-0.41703 0.4158-0.63463 0.4044-0.71269-0.2522-1.7048-0.4563-0.68961-1.7027-1.7068-3.7021-3.0215-3.765-2.4757-5.4661-3.8804-9.9627-8.2269-1.9645-1.899-4.5489-4.3597-5.7428-5.4684s-2.0987-2.0881-2.0097-2.1766c0.1659-0.16587 1.0815 0.59963 7.274 6.0818 2.0267 1.7942 4.5728 3.7641 5.7795 4.4716 1.1863 0.6955 2.8899 1.8068 3.7858 2.4696 2.899 2.1447 5.765 4.007 6.1665 4.007 1.5726 0 1.8815-1.5672 0.5969-3.0303-0.9905-1.1281-4.5386-3.7599-7.7804-5.7707-2.1389-1.3267-9.0711-7.0023-11.968-9.7984-1.0513-1.0148-1.0935-1.1097-0.6868-1.5591 0.2382-0.26327 0.547-0.47904 0.6857-0.47904 0.3867 0 4.2072 3.2138 7.69 6.4683 2.913 2.7221 6.004 5.0427 12.44 9.3395 2.2876 1.5273 2.6908 1.7094 3.3073 1.494 0.9417-0.32903 1.082-1.5699 0.2914-2.575-0.6155-0.78242-3.9274-3.2987-7.908-6.0089-1.3738-0.93532-4.176-3.2495-6.2276-5.1428-2.0515-1.8933-4.475-4.0313-5.3857-4.7506l-1.6562-1.3079 4.4581-4.5129c6.1927-6.2692 8.3474-8.5984 10.784-11.657 1.1596-1.4552 2.2582-2.7408 2.4412-2.8572 0.4226-0.2689 0.4325-1.5669 0.015-1.9844-0.893-0.89302-3.0193 0.29978-5.3692 3.0117-1.7066 1.9695-8.6498 9.524-12.484 13.584l-2.3554 2.4939-1.8314-1.6547 5.0446-5.1056c8.7685-8.8753 13.344-14.006 13.344-14.962 0-0.84134-0.6558-1.2091-1.7792-0.99839-1.0768 0.20201-1.8318 0.92343-13.652 13.043-5.1311 5.261-5.8045 5.8625-6.2782 5.609-0.4885-0.26143-0.2804-0.55092 2.6231-3.6442 1.7347-1.848 3.781-4.1339 4.547-5.0798 0.766-0.94589 2.665-3.0295 4.2199-4.6302 2.9031-2.9887 5.0281-5.8113 5.0281-6.6792 0-0.81111-0.6286-1.2189-1.4076-1.0676zm-84.469 3.6458c-1.0074 0-1.5687 0.89704-2.5047 4.0028-0.4856 1.6112-1.2046 3.4363-1.5973 4.0556-0.8513 1.3422-2.5476 2.2603-4.1765 2.2603-0.8462 0-1.2837 0.16432-1.7927 0.67334-0.3971 0.39711-0.6088 0.84012-0.5168 1.08 0.086 0.22372 0.1561 0.51657 0.1561 0.65061 0 0.13405 1.1105 0.76596 2.4681 1.4046 2.9314 1.379 4.007 2.4841 5.195 5.3377 0.4418 1.0612 0.8031 2.0486 0.8031 2.1937 0 0.14508 0.3166 0.51234 0.7033 0.81649 1.0685 0.84048 1.9934 0.35244 4.425-2.3358 1.3465-1.4886 4.0248-3.3667 6.8663-4.8147 3.3116-1.6875 3.6158-1.9449 3.6158-3.0556 0-1.0907-0.7107-1.5117-3.204-1.8976-2.4669-0.3818-4.3227-1.2476-5.2885-2.467-0.445-0.56191-1.4027-2.3617-2.1281-3.9998-1.3803-3.1169-1.9903-3.9047-3.0241-3.9047zm136.73 3.4411c-0.5358-0.078-1.0058 0.69071-1.6221 2.2753-0.9422 2.4223-1.8869 3.6384-3.5156 4.5248-1.2971 0.70597-2.1048 1.743-1.8701 2.4019 0.067 0.18704 0.9731 0.76589 2.0143 1.2862 3.0531 1.5258 3.4563 2.0756 3.8943 5.3082 0.1807 1.3332 0.432 2.1782 0.7111 2.3921 0.834 0.63916 1.1051 0.38144 2.4329-2.3151 1.3797-2.8017 1.7463-3.191 4.1657-4.4271 1.6931-0.86505 1.9398-1.0819 1.8758-1.6428-0.054-0.47173-0.4807-0.88287-1.5802-1.5239-1.8949-1.1048-3.0316-2.4913-4.4886-5.4746-0.8802-1.8023-1.4817-2.727-2.0175-2.805zm-136.38 3.4675 0.9482 1.5363c1.1465 1.8575 2.7325 3.3385 4.3336 4.0468l1.1886 0.52555-1.4842 0.83354c-0.8162 0.45843-2.2492 1.4485-3.1848 2.1999l-1.7012 1.3663-1.0046-1.7177c-0.5525-0.94463-1.4541-2.1237-2.0035-2.62l-0.9984-0.90227 1.1809-1.0883c0.6495-0.59871 1.5285-1.7844 1.9533-2.6345zm136.58 1.0289c0.096 0 0.4526 0.59432 0.7927 1.3203 0.5728 1.2231 1.82 2.6838 3.0138 3.5305 0.47 0.33337 0.4432 0.38763-0.4589 0.94517-0.5264 0.32536-1.3758 1.081-1.8877 1.679-0.6151 0.71866-0.9307 0.93666-0.9307 0.64337 0-0.70113-1.8277-2.541-3.2308-3.252l-1.2801-0.64854 1.5359-1.4216c0.8447-0.78201 1.701-1.7311 1.9032-2.1089 0.2023-0.37786 0.4466-0.68729 0.5426-0.68729zm-22.401 2.1771c-0.6748-0.0918-1.3343 0.24826-1.7193 1.0558-0.2277 0.47747-0.8576 2.5916-1.4004 4.6979-1.143 4.4358-1.5687 5.3806-3.0112 6.6838-1.5247 1.3775-2.053 1.5942-4.3909 1.7999-1.7243 0.15173-2.185 0.29028-2.5797 0.77773-0.663 0.81869-0.6043 1.2653 0.2739 2.0857 0.9141 0.85389 2.0853 1.4499 3.9692 2.019 2.0284 0.61279 3.3599 1.5916 4.6592 3.4256 1.5517 2.1903 2.1547 3.456 2.8024 5.8839 0.3707 1.3899 0.7681 2.2652 1.2097 2.665 0.8079 0.73116 1.1621 0.74367 2.0175 0.0708 0.4877-0.38361 0.8212-1.1125 1.2407-2.712 1.6534-6.3055 3.1753-7.8034 10.731-10.56 2.9392-1.0721 3.737-2.1538 2.4473-3.3176-0.3654-0.32975-1.7672-0.81678-3.6297-1.2614-3.1613-0.75468-4.6657-1.3894-6.5495-2.7631-1.3126-0.95722-1.8129-1.879-2.961-5.4524-0.4675-1.4552-1.0507-3.0583-1.2961-3.5626-0.448-0.9208-1.1385-1.4446-1.8133-1.5363zm-92.604 1.0583c-0.6748-0.0918-1.3342 0.24826-1.7192 1.0558-0.2276 0.47748-0.8578 2.5916-1.4005 4.6979-1.143 4.4358-1.5688 5.3806-3.0112 6.6838-1.5247 1.3775-2.053 1.5942-4.3909 1.7999-1.7242 0.15173-2.185 0.29028-2.5797 0.77773-0.6629 0.8187-0.6039 1.2653 0.2744 2.0857 0.9141 0.85389 2.0849 1.4499 3.9688 2.019 2.0285 0.61278 3.3598 1.5916 4.6591 3.4256 1.5517 2.1903 2.1547 3.456 2.8024 5.8839 0.3707 1.3899 0.7681 2.2652 1.2098 2.665 0.8078 0.73115 1.162 0.74367 2.0174 0.0708 0.4877-0.38361 0.8214-1.1125 1.2408-2.712 1.6534-6.3055 3.1756-7.8034 10.732-10.56 2.9391-1.0721 3.7366-2.1538 2.4469-3.3176-0.3653-0.32975-1.7672-0.81678-3.6298-1.2614-3.1612-0.75468-4.6657-1.3894-6.5494-2.7631-1.3126-0.95722-1.813-1.879-2.9611-5.4524-0.4676-1.4552-1.0507-3.0583-1.296-3.5626-0.4481-0.9208-1.1385-1.4446-1.8134-1.5363zm92.709 6.7252 0.8335 1.7472c1.0691 2.2401 3.5722 4.6014 5.9976 5.658 0.9388 0.40899 1.704 0.80635 1.694 0.88315s-0.7203 0.47479-1.5844 0.88419c-0.8642 0.40939-2.1981 1.3174-2.9637 2.018-0.7657 0.70051-1.8255 2.0079-2.3554 2.9052l-0.9632 1.6314-0.6005-1.0036c-1.219-2.0389-2.7433-3.8204-4.2158-4.9274l-1.5126-1.1374 1.0072-0.57929c1.5037-0.86542 3.2866-3.6764 4.2142-6.6435zm-92.604 1.0583 0.8336 1.7472c1.0691 2.2401 3.5721 4.6014 5.9975 5.6581 0.9389 0.409 1.704 0.80635 1.694 0.88315s-0.7202 0.47479-1.5844 0.88418-2.198 1.3174-2.9637 2.018c-0.7656 0.70052-1.8255 2.0079-2.3554 2.9052l-0.9632 1.6314-0.6005-1.0036c-1.219-2.0389-2.7432-3.8204-4.2158-4.9274l-1.5125-1.1374 1.0071-0.5793c1.5037-0.86542 3.2866-3.6764 4.2143-6.6435zm44.637 0.91158c0.2364-0.0199 0.4581 0.10664 0.6831 0.37775 0.2729 0.32885 0.2472 0.49705-0.141 0.92604-0.5682 0.62787-1.0051 0.66471-1.4552 0.12247-0.2729-0.32885-0.2472-0.49705 0.141-0.92604 0.2842-0.31394 0.5356-0.48034 0.7721-0.50022zm82.344 1.8278c-0.9475 0-1.4413 0.76137-1.895 2.9228-0.2277 1.0846-0.657 2.4755-0.9544 3.0908-0.8402 1.7389-3.4142 3.5114-5.099 3.5114-1.0149 0-1.4324 0.24928-2.0241 1.2066-0.4034 0.65275-0.4818 1.0154-0.2946 1.3653 0.409 0.76409 1.1532 1.306 2.2883 1.665 1.6706 0.52841 2.4295 1.2158 3.3052 2.9946 1.1286 2.2926 1.5717 4.1009 1.7616 7.1882 0.1105 1.7965 0.2924 2.7945 0.5659 3.1089 0.5795 0.66604 1.8108 0.59458 2.2799-0.1323 0.2113-0.32742 0.6307-1.5925 0.9318-2.8117 0.8728-3.5351 1.679-4.4707 6.0838-7.058 2.5742-1.512 4.254-2.9856 4.254-3.7316 0-0.92284-0.9282-1.6119-2.4324-1.8051-4.5267-0.58125-5.2736-1.4509-6.5742-7.6559-0.6384-3.046-1.1013-3.8592-2.1968-3.8592zm-78.535 0.78031 0.7478 0.64338c0.7387 0.63542 0.7414 0.64988 0.246 1.1973-0.6069 0.67051-0.6546 0.67121-1.4346 0.0212l-0.6185-0.51522 0.5297-0.67334zm-7.5054 1.3379c0.2284-0.0676 0.728 0.15132 1.0686 0.52761 0.3632 0.40139 0.389 0.5269 0.107 0.5209-0.4089-9e-3 -1.2981-0.61232-1.2981-0.88056 0-0.0911 0.046-0.14541 0.1225-0.16795zm4.3108 2.9089c0.1455 0 0.4127 0.1786 0.5938 0.39688 0.184 0.22139 0.2127 0.39687 0.065 0.39687-0.1455 0-0.4127-0.17859-0.5938-0.39687-0.184-0.22139-0.2127-0.39688-0.065-0.39688zm81.494 3.3884 0.6532 1.4268c0.8468 1.8497 2.0268 3.1748 3.3647 3.7781 0.5893 0.26572 1.0712 0.57254 1.0712 0.68213s-0.5654 0.52607-1.2567 0.92501c-0.6912 0.39894-1.8627 1.2364-2.6035 1.8614l-1.3467 1.1364-0.6139-1.5058c-0.724-1.7763-1.3393-2.7429-2.5859-4.0623l-0.9157-0.96945 0.8909-0.44804c0.4902-0.24656 1.4425-0.98281 2.1167-1.6361zm-147.54 1.6356c-0.1843-0.027-0.3594 0.0105-0.5255 0.11317-0.1423 0.088-0.585 1.1414-0.9834 2.3404-0.5663 1.7044-0.9489 2.3857-1.7534 3.1233-1.1294 1.0356-1.7652 2.0628-1.5942 2.5761 0.061 0.18198 0.6057 0.57958 1.2107 0.88315 2.2392 1.1235 2.9522 2.1693 3.2329 4.7423 0.1022 0.93665 0.2933 1.9111 0.4248 2.1658 0.1317 0.25491 0.5384 0.46301 0.9049 0.46301 0.5227 0 0.7498-0.21298 1.0593-0.99218 1.4722-3.707 2.3834-4.8288 4.8044-5.9159 2.3001-1.0327 2.232-1.5163-0.4077-2.897-1.9399-1.0146-3.0708-2.1813-4.4659-4.607-0.719-1.2501-1.3539-1.9143-1.9069-1.9952zm0.5654 3.8654 0.6113 1.2025c0.571 1.1236 2.0416 2.6775 2.7605 2.9171 0.1857 0.0619-0.1078 0.53925-0.7095 1.155-0.5641 0.57725-1.2108 1.3406-1.4376 1.6965l-0.4124 0.64751-0.1617-0.80874c-0.1987-0.9935-1.3071-2.3497-2.3684-2.8985l-0.7922-0.40979 0.7943-0.83768c0.4369-0.46062 1.0018-1.2485 1.2552-1.7508z" fill="#fff"/>
 </g>
</svg>
