<svg width="621.97mm" height="339.43mm" version="1.1" viewBox="0 0 621.97 339.43" xml:space="preserve" xmlns="http://www.w3.org/2000/svg"><g transform="translate(-1356.5 1197.3)"><path d="m1848.4-858.21c-0.058-0.1819-0.1674-2.6525-0.2439-5.4901-0.1443-5.354-0.4133-7.6489-1.6254-13.871-0.8046-4.1294-0.7707-5.4619 0.1899-7.4734 0.4312-0.9028 0.7895-1.3033 1.2209-1.3644 0.7916-0.1122 1.9029 0.621 1.9029 1.2555 0 0.2725 0.3572 1.3348 0.7938 2.3607 0.4645 1.0917 0.7954 2.3376 0.7978 3.0042 0.01 2.0202 0.2221 2.0523 2.6828 0.4013 1.2144-0.8147 3.3323-2.5001 4.7065-3.7453 3.1659-2.8685 3.769-2.9333 3.8787-0.4162 0.1192 2.7336-2.9179 6.7134-7.2804 9.5402-0.7402 0.4797-1.3458 0.9566-1.3458 1.06 0 0.4024 3.6597 3.8839 5.2226 4.9682 0.9071 0.6292 2.2045 1.7941 2.8832 2.5885 1.007 1.1787 1.2563 1.6772 1.3556 2.7105 0.1366 1.4209-0.3266 2.1558-1.3587 2.1558-0.9364 0-2.8291-1.3618-4.2585-3.0641-0.7233-0.8614-2.4818-2.7765-3.9077-4.2558l-2.5925-2.6896 0.1616 1.7636c0.089 0.97 0.2811 2.478 0.4272 3.3511 0.7839 4.6845 0.6324 5.4516-1.3341 6.7541-1.2572 0.8328-2.1032 1.0022-2.2765 0.4558zm-15.935-1.8297c-0.1559-0.1942-0.5531-0.8878-0.8826-1.5413-0.5645-1.1197-0.5902-1.4048-0.4465-4.9522l0.1525-3.7641-0.9745-0.1458c-1.9208-0.2874-3.0675-0.7853-3.4709-1.5072-0.8973-1.6055 0.6188-2.9803 3.6341-3.2954l1.6403-0.1715 0.2914-1.0823c0.4137-1.5364 1.3013-3.1898 2.8503-5.3094 0.7384-1.0104 1.3079-1.8715 1.2657-1.9137-0.042-0.042-0.469 0.036-0.9483 0.1732-0.4794 0.1374-2.0788 0.3195-3.5544 0.4045-1.4755 0.085-4.3839 0.2791-6.463 0.4312-2.9143 0.2131-3.8689 0.2029-4.1672-0.045-0.542-0.4497-0.4819-1.2452 0.1184-1.5664 0.3347-0.1792 0.4581-0.4508 0.3656-0.8045-0.2942-1.1249 0.2863-1.3248 3.8578-1.3282 1.8376 0 5.127-0.178 7.3098-0.3915 5.6536-0.553 7.3011-0.5225 8.4515 0.1563 0.6716 0.3962 0.9412 0.7411 0.9412 1.204 0 0.3568-1.0716 2.82-2.3812 5.4738-1.3097 2.6538-2.3813 4.9035-2.3813 4.9992 0 0.096 0.5655 0.2104 1.2568 0.2547l1.2567 0.081 0.051 1.4552c0.03 0.8536-0.096 1.6807-0.3041 2.0007-0.3701 0.5685-1.9767 1.1743-3.1145 1.1743-0.6379 0-0.6667 0.077-0.8421 2.2377-0.1 1.2307-0.1001 3.4202-6e-4 4.8656 0.2037 2.9577 0.334 2.7587-2.0224 3.0905-0.8571 0.1206-1.2878 0.068-1.4894-0.1834zm-217.42-8.3518c-0.3642-0.949-0.501-10.277-0.1703-11.611 0.4408-1.778 1.4117-3.1608 2.8679-4.0843 1.047-0.664 1.4932-0.7796 3.0093-0.7796 1.5245 0 1.8957 0.097 2.5863 0.6785 2.0438 1.7198 1.2941 5.2708-1.5563 7.3717l-1.0503 0.7742 2.3095 1.5184c3.0964 2.0359 4.3579 3.2226 4.2477 3.996-0.047 0.3326-0.2893 0.6435-0.5377 0.6908-0.2483 0.047-1.8189-0.8169-3.4902-1.9205-2.9566-1.9524-5.494-3.3117-6.1917-3.3169-0.2602 0-0.3085 0.3836-0.1984 1.5849 0.08 0.8731 0.2119 2.3111 0.2931 3.1954 0.097 1.0516 0.04 1.7382-0.1646 1.9844-0.4438 0.5346-1.7386 0.4806-1.9543-0.082zm4.9444-10.291c1.4148-0.4561 2.3185-1.4171 2.3185-2.4655 0-1.731-1.4734-2.2092-3.2789-1.0642-1.2881 0.8169-2.2597 2.3816-2.2716 3.6584-0.01 0.5772 0.07 0.6115 0.9864 0.4501 0.5457-0.096 1.5562-0.3566 2.2456-0.5788zm-15.522 10.171c-0.1596-0.5045-0.5759-2.6142-1.1068-5.6084-0.3318-1.8711-0.6168-2.7569-1.0026-3.1164-0.782-0.7286-0.9143-3.6952-0.2223-4.9852 0.6296-1.1737 2.3288-2.0512 4.6812-2.4175 2.3351-0.3635 3.1158-0.1703 3.0059 0.7441-0.076 0.6316-0.2784 0.7383-2.4165 1.2735-1.3928 0.3486-2.5554 0.8058-2.8836 1.134-0.5273 0.5273-0.532 0.5879-0.1138 1.4693 0.24 0.5056 0.4363 1.2288 0.4363 1.6069 0 0.6632 0.056 0.6877 1.5703 0.6877 1.9784 0 2.9276 0.3431 2.9276 1.0583 0 0.6901-0.938 1.0583-2.6961 1.0583h-1.3388l0.1726 0.8599c0.4482 2.2328 0.7141 4.4833 0.6383 5.4035-0.073 0.884-0.1759 1.0233-0.8124 1.0965-0.433 0.05-0.7739-0.058-0.8393-0.2645zm123.75-0.9992c-1.0492-0.6398-1.7236-1.8926-1.6159-3.002 0.1183-1.218 0.8518-1.2371 2.0635-0.054 2.1398 2.0894 3.0204 0.4639 2.4103-4.449-0.1775-1.4297-0.3769-2.7405-0.4431-2.913-0.072-0.1877-0.7301-0.3223-1.6378-0.3352-1.7402-0.025-2.6937-0.4465-4.0994-1.8139-1.6611-1.6159-2.4552-3.5997-1.7308-4.3242 0.7177-0.7176 1.5028-0.3627 2.1878 0.989 0.7843 1.5478 2.1329 2.6623 3.2215 2.6623 1.0334 0 1.417-0.4304 1.417-1.5899 0-1.2401 0.5067-1.926 1.3361-1.8087 0.5413 0.077 0.6737 0.2827 0.8236 1.2819 0.098 0.6549 0.3967 2.6194 0.6632 4.3656 0.6356 4.1658 0.6439 8.6836 0.018 9.8397-0.2512 0.4641-0.722 1.0297-1.0463 1.2568-0.8111 0.5681-2.5472 0.5167-3.5678-0.1055zm-70.764-1.1922-3.0835-1.3983-0.5806 0.7854c-0.7784 1.0528-2.4688 1.7814-4.1492 1.7885-1.7228 0.01-2.625-0.3299-3.7445-1.3994-1.5701-1.5-2.0254-2.674-2.0203-5.2093 0-2.1986 0.041-2.326 1.6235-5.6886 1.6614-3.5294 1.9937-3.8888 3.1005-3.3524 0.3083 0.1494 0.998 0.3434 1.5326 0.4312 2.2238 0.365 4.0921 4.0313 4.6179 9.0621l0.1698 1.624 1.6181 0.7053c4.4476 1.9387 5.4589 2.7389 4.6672 3.6928-0.1847 0.2226-0.4106 0.394-0.5019 0.3808-0.091-0.013-1.5536-0.6531-3.2496-1.4221zm-6.0077-1.4416c0.7687-0.6232 0.5977-0.8198-0.8749-1.0059-1.2657-0.1599-2.0724-0.7075-2.0724-1.4067 0-1.0535 1.3125-1.2758 3.6597-0.6199 0.6011 0.1679 0.6125 0.1391 0.4423-1.1209-0.4545-3.3631-1.3237-5.0602-3.1407-6.1323l-0.8848-0.522-0.9202 1.6221c-1.3322 2.3484-1.8021 3.7064-1.8021 5.2079 0 2.7071 1.4643 4.4841 3.6951 4.4841 0.8603 0 1.476-0.1643 1.898-0.5064zm37.292 1.724c-0.2278-0.2745-0.2532-2.2689-0.099-7.739 0.2056-7.2724 0.2159-7.3703 0.7792-7.4506 0.7298-0.104 1.1687 0.3619 4.3265 4.5925 1.5127 2.0266 3.4903 4.2875 4.7877 5.4734 1.2158 1.1114 2.2447 1.9864 2.2864 1.9447 0.042-0.042-0.062-2.4245-0.2297-5.2951-0.2639-4.5073-0.2529-5.2718 0.081-5.6056 0.6065-0.6065 1.1833-0.1777 1.5753 1.1712 0.4656 1.6017 0.4159 8.572-0.077 10.765-0.3025 1.3467-0.4522 1.6011-0.9868 1.6767-0.5104 0.072-1.1891-0.5019-3.5719-3.021-1.6179-1.7106-3.8181-4.1915-4.8892-5.5131s-2.0102-2.4625-2.0869-2.5353c-0.077-0.073-0.069 2.3554 0.018 5.396 0.099 3.4681 0.06 5.7112-0.1052 6.0193-0.3094 0.5781-1.371 0.6492-1.8093 0.1211zm-22.512-0.4552c-1.0132-0.4019-2.3569-1.8128-3.0867-3.2413-0.9524-1.8639-1.4014-4.3705-1.4066-7.8531 0-3.2485 0.1444-3.6909 1.2455-3.6909 0.8611 0 1.166 0.9836 0.969 3.1266-0.2122 2.3086 0.2657 6.1038 0.9334 7.4125 1.0215 2.0024 2.9132 2.9241 4.6408 2.2611 1.192-0.4574 1.5845-3.4515 0.9551-7.2844-0.3283-1.9988-0.1426-2.6573 0.7201-2.5535 0.8489 0.1021 1.2863 1.2882 1.6459 4.4632 0.573 5.0578-1.0414 7.6873-4.6898 7.6389-0.6959-0.01-1.5629-0.1348-1.9267-0.2791zm12.18-0.6967c-1.7618-0.8888-1.9933-1.7008-1.9933-6.9913 0-4.3424 0.04-4.7299 0.5572-5.4233 0.6854-0.9185 2.0759-1.3624 4.3508-1.3891 1.87-0.022 2.368 0.2366 2.368 1.2297 0 0.8084-0.8868 1.136-2.923 1.0799-0.912-0.025-1.7166 0.087-1.8939 0.2644-0.1695 0.1695-0.3599 1.0243-0.4232 1.8996l-0.1152 1.5915h2.1296c2.2201 0 3.083 0.374 2.9082 1.2605-0.1224 0.6207-0.7002 0.8181-2.9236 0.999l-2.0506 0.1669v0.891c0 1.1895 0.4531 2.1192 1.1981 2.4587 0.3358 0.153 1.6313 0.361 2.8789 0.4622 2.2765 0.1847 2.9435 0.4938 2.6601 1.2326-0.3003 0.7825-5.3123 0.9819-6.7281 0.2677zm35.623 0.084c-1.8121-0.4871-3.3481-1.662-4.3451-3.3237-0.7955-1.326-0.8599-1.6066-0.8599-3.7501 0-2.9387 0.6645-4.884 2.0617-6.0357 0.9204-0.7586 1.0902-0.7989 3.3637-0.7989 2.6714 0 3.5705 0.3678 3.5705 1.4609 0 0.9056-0.8172 1.2768-2.0544 0.9331-2.5583-0.7104-3.7331-0.1166-4.4443 2.2465-1.4827 4.9265 2.0864 8.4917 6.8724 6.8649 0.7728-0.2627 1.6002-0.4028 1.8386-0.3113 0.731 0.2805 0.4934 1.2811-0.5258 2.2147-0.8751 0.8015-1.1016 0.8771-2.5797 0.8608-0.8912-0.01-2.1952-0.1724-2.8977-0.3612zm-80.069-0.6255c-0.6955-0.6954-1.3361-2.6367-1.3361-4.0487 0-0.2911-0.1888-0.8945-0.4196-1.3408s-0.3513-1.0655-0.2677-1.3759c0.084-0.3104-0.039-1.6149-0.2729-2.8988l-0.4248-2.3344 0.7477-0.7804c1.0011-1.0449 2.181-1.3473 4.8707-1.2482l2.2489 0.083v1.8521h-2.8446c-1.5645 0-2.8444 0.024-2.8443 0.053 2e-4 0.029 0.1117 0.6245 0.2478 1.3229 0.136 0.6984 0.32 1.7163 0.4088 2.262 0.1589 0.9764 0.1805 0.9922 1.3575 0.9922 1.414 0 2.2196 0.3683 2.2196 1.0147 0 0.7773-0.5689 1.1019-1.931 1.1019h-1.2959l0.1877 1.6537c0.1033 0.9095 0.3081 1.8025 0.4552 1.9844 0.1725 0.2131 0.997 0.3307 2.3194 0.3307 2.1107 0 2.8148 0.3103 2.5094 1.1059-0.1599 0.4168-2.6277 1.0108-4.1993 1.0108-0.7385 0-1.1883-0.1917-1.7365-0.74zm319.88-16.579c-0.1759-0.2119-0.2336-0.5246-0.1284-0.6949 0.4152-0.6718 2.349-2.2308 4.6354-3.737 3.314-2.1833 7.019-5.8331 7.2646-7.1563 0.2359-1.2709-0.2852-2.1065-1.7971-2.8818-1.1179-0.5734-8.0392-2.9108-9.6351-3.2539-1.0812-0.2326-1.5101-0.7601-1.2996-1.5988 0.2456-0.9784 1.4679-0.8716 5.7131 0.4993 4.7885 1.5464 7.3373 2.7478 8.4005 3.9596 0.7361 0.8389 0.8595 1.1787 0.8574 2.3599 0 1.9031-0.9817 3.5105-3.7384 6.1424-2.2556 2.1534-8.7384 6.7469-9.522 6.7468-0.2369 0-0.5745-0.1733-0.7504-0.3853zm-557.38-0.8087c-0.3335-1.3286-0.1793-1.3563 8.5552-1.5355 4.4759-0.092 11.412-0.2875 15.414-0.4349 15.693-0.5779 29.459-0.8049 49.683-0.8194 11.601-0.01 25.379-0.1348 30.618-0.2811 5.2388-0.1463 25.718-0.3617 45.508-0.4786 24.018-0.1418 37.127-0.317 39.423-0.5269 1.8918-0.1729 5.7018-0.5468 8.4667-0.8309 2.7648-0.284 7.5273-0.6366 10.583-0.7834 3.0559-0.1468 6.3301-0.3818 7.276-0.5222 2.6731-0.3968 6.4415-0.3134 11.57 0.2561 14.325 1.5908 30.456 1.6626 63.704 0.2835 3.0559-0.1268 26.571-0.1674 52.255-0.09 41.814 0.1256 47.114 0.096 50.668-0.2873 19.263-2.0752 18.854-2.0551 46.434-2.2806 13.752-0.1125 28.932-0.3348 33.734-0.4941 7.9709-0.2644 10.418-0.4395 19.315-1.3821 1.6008-0.1696 8.6254-0.403 15.61-0.5186 13.246-0.2192 15.558-0.35 23.749-1.3432 5.9175-0.7176 6.6222-0.6431 12.56 1.3279 5.2236 1.7338 6.931 2.0731 13.242 2.6312 5.5579 0.4915 6.3737 0.7252 5.9933 1.7167-0.1298 0.3383-0.5044 0.4439-1.5739 0.4439-1.2652 0-2.5832-0.1458-9.7846-1.082-2.2738-0.2956-5.8792-1.2031-8.7832-2.2108-0.9901-0.3435-2.9995-0.8714-4.4653-1.1729-2.3036-0.4739-2.9853-0.5125-5.027-0.2845-3.4487 0.385-12.772 1.515-14.004 1.6971-0.5821 0.086-6.5352 0.2673-13.229 0.4027-11.45 0.2317-19.381 0.5477-23.019 0.9172-3.8321 0.3892-20.354 0.7447-43.524 0.9365-26.75 0.2214-26.415 0.2068-43.259 1.885l-8.202 0.8171-46.17-0.1375c-36.33-0.1083-48.059-0.061-55.033 0.2223-30.5 1.2385-48.725 1.1568-60.59-0.2715-7.1493-0.8607-7.9992-0.9012-10.74-0.5124-1.4417 0.2046-5.1081 0.4977-8.1476 0.6514s-6.6114 0.3866-7.9375 0.5177c-14.987 1.4809-18.407 1.5919-49.387 1.603-14.909 0.01-30.382 0.1279-34.384 0.2724-4.0018 0.1445-22.397 0.372-40.878 0.5055-38.092 0.2752-58.659 0.7598-67.998 1.6019-1.4552 0.1312-3.864 0.2426-5.3528 0.2475-2.6736 0.01-2.709 7e-4 -2.8738-0.656zm91.285-9.5c-1.0719-0.4667-2.3754-2.077-2.8968-3.5786-0.2303-0.663-0.4893-2.247-0.5757-3.5199l-0.1571-2.3144-1.3841-0.6548c-1.7568-0.8311-4.7975-1.3081-6.9395-1.0886-1.6169 0.1656-2.9752 0.5942-2.9752 0.9388 0 0.094 0.4313 0.5805 0.9583 1.082 2.5398 2.4164 2.6702 6.7471 0.2509 8.3323-1.876 1.2292-3.9802 0.9648-4.9683-0.6243-0.8566-1.3774-0.8591-5.379 0-7.2758l0.5736-1.2734-1.9709-0.936c-1.8643-0.8854-2.1252-0.9371-4.8211-0.9553-3.6403-0.025-5.1967 0.2303-4.9726 0.8144 0.3292 0.8579 0.464 2.6888 0.2856 3.8788-0.3712 2.4753-2.5532 3.8529-6.0826 3.8401-3.1714-0.012-5.0457-1.5716-4.8346-4.0243 0.1945-2.2602 1.6751-3.8103 4.8865-5.1155l1.45-0.5893-0.632-0.4141c-1.3737-0.9001-2.9161-1.2281-5.7499-1.2227-2.4946 0-6.0152 0.3325-6.2661 0.5834-0.051 0.05 0.1006 0.6271 0.3358 1.2813 0.4062 1.1296 0.3995 1.2825-0.1331 3.0362-0.9417 3.1002-3.0467 4.4869-5.741 3.782-2.1881-0.5725-3.3097-1.9942-3.3097-4.195 0-1.8106 0.9487-3.1126 3.0427-4.1758l1.0583-0.5374-0.7937-0.3131c-1.0618-0.4188-4.2623-0.9544-6.9454-1.1623l-2.1828-0.1691-4e-4 2.0567c-6e-4 3.0933-1.0073 4.6452-3.2494 5.009-2.1205 0.3441-5.4578-1.8255-6.0201-3.9137-0.2292-0.851-0.1899-1.2263 0.2269-2.1685 0.4119-0.9311 0.7407-1.2413 1.7985-1.6963 0.7119-0.3063 2.0425-0.6415 2.9568-0.7449 1.0344-0.1171 1.6267-0.2997 1.5679-0.4835-0.1937-0.6052-3.8265-3.0918-5.6145-3.8431-1.4846-0.6237-2.6444-0.8608-5.8447-1.1949-5.5553-0.5799-5.1945-0.6226-4.7021 0.5559 0.7302 1.7476-0.2774 5.2116-1.9809 6.8103-1.7204 1.6145-5.6308 0.9651-7.2417-1.2026-1.8006-2.423-1.6475-5.8728 0.3135-7.0654l0.8166-0.4966-2.8512-0.2047c-1.5682-0.1125-3.3385-0.2053-3.9342-0.2061-1.2242 0-2.8336 0.8352-4.6457 2.4157-0.6328 0.5519-2.5197 2.0131-4.1932 3.2471-1.6735 1.2339-3.814 2.9318-4.7566 3.7731-3.7784 3.3719-7.4444 4.7912-11.912 4.6118-2.3923-0.096-2.7094-0.1786-5.0661-1.3179-3.5823-1.732-5.9702-4.2195-5.4219-5.6482 0.2998-0.7814 1.2072-0.3795 2.7171 1.2035 1.108 1.1616 2.1344 1.902 3.7398 2.6975 1.9782 0.9802 2.4561 1.1072 4.5109 1.199 1.93 0.086 2.6048 0 4.2118-0.553 2.494-0.8543 3.7425-1.6174 6.1562-3.7625 1.0914-0.97 2.9964-2.4882 4.2333-3.3739s3.3801-2.5805 4.7625-3.7664c1.3825-1.1858 2.7517-2.2792 3.0427-2.4297 0.957-0.4948 2.4398-0.6267 3.7439-0.3329 1.7895 0.4032 8.1945 1.0265 16.232 1.5798 5.4354 0.3741 7.1782 0.6912 9.3927 1.7086 2.2275 1.0233 5.1194 3.3064 6.0769 4.7976l0.6967 1.0849 2.9632 0.1798c3.9951 0.2424 6.8297 0.7808 8.5554 1.6251l1.4342 0.7017 2.5186-0.4535c1.8994-0.342 3.4102-0.4217 6.1441-0.3242 4.0548 0.1446 5.7841 0.6214 7.8017 2.1512 0.9853 0.747 1.2389 0.8233 2.1738 0.6543 1.8106-0.3275 6.5285-0.231 8.4327 0.1725 1 0.2118 2.4801 0.7588 3.2892 1.2154l1.471 0.8302 1.1637-0.5653c2.7601-1.341 7.7579-1.3121 11.166 0.064l1.5708 0.6345 0.1636-0.7448c0.4977-2.2658 5.6722-7.7971 8.5661-9.1567l1.5466-0.7266-0.4553-1.3306c-0.2504-0.7319-0.534-1.7557-0.6302-2.2752l-0.1748-0.9446-2.709 0.4993c-1.4899 0.2746-3.8995 0.5211-5.3547 0.5477-1.9323 0.035-2.7255 0.1503-2.9412 0.4261-0.3881 0.4962-1.7762 0.1001-7.113-2.0301-2.1828-0.8712-4.619-1.737-5.4137-1.9239-0.7948-0.1869-2.6561-0.8472-4.1363-1.4673-1.4858-0.6225-4.1557-1.4479-5.9609-1.8427-2.0846-0.456-4.3254-1.1757-6.1825-1.9857-5.3878-2.3499-8.1992-3.6084-9.0702-4.0601-0.4761-0.2469-2.6788-1.147-4.8948-2.0002-5.4736-2.1075-11.775-5.2323-12.477-6.1868-0.4831-0.6575-0.5705-1.2859-0.7361-5.2916-0.1033-2.5001-0.2644-12.463-0.3579-22.14-0.1298-13.428-0.091-18.19 0.162-20.108 0.2337-1.7682 0.3857-9.927 0.5128-27.517 0.1701-23.537 0.2142-25.254 0.752-29.277 0.7661-5.7312 1.7085-10.747 2.955-15.728 2.0482-8.1843 2.9009-10.144 4.9825-11.453 1.3989-0.8794 13.596-6.5853 15.788-7.3856 1.0187-0.3719 3.0092-1.1518 4.4235-1.7329 3.1648-1.3005 4.5576-1.7056 8.2765-2.4073 4.1544-0.7838 7.0721-1.5835 11.94-3.2724 6.3919-2.2178 10.091-3.0734 15.18-3.511 2.4011-0.2065 5.2586-0.4992 6.35-0.6506 3.0578-0.424 13.55-2.0865 16.801-2.6622 1.6007-0.2834 4.8154-0.8157 7.1437-1.1827 3.7038-0.584 6.6434-1.2614 11.642-2.6829 0.8113-0.2308 3.6761-0.4706 7.4083-0.6202 8.1377-0.3263 14.561-1.1066 23.945-2.9088 5.5831-1.0723 10.839-1.9356 13.626-2.238 4.1905-0.4547 10.076-1.2615 12.7-1.7411 5.0482-0.9224 10.493-1.8415 13.097-2.2105 1.3825-0.196 3.0493-0.4782 3.7042-0.6271 0.6548-0.1489 1.8455-0.3938 2.6458-0.5442 0.8004-0.1504 3.6579-0.7138 6.35-1.2519 4.2575-0.8511 5.4116-0.9819 8.8636-1.0047 3.8752-0.025 4.0872 0 8.9958 1.2118 2.7649 0.6809 5.8605 1.5378 6.8792 1.9042 2.4959 0.8979 6.8766 2.017 7.9003 2.0182 0.9925 0 2.3575 0.7812 2.9503 1.6858 0.2355 0.3595 0.5429 1.4665 0.6829 2.46s0.4916 2.4414 0.7813 3.2176c0.2896 0.7762 0.7669 3.0384 1.0605 5.0271 0.93 6.2987 2.0744 14.897 2.3511 17.666 0.1803 1.8046 0.601 3.6954 1.2952 5.8209 0.5655 1.7314 1.2985 4.2792 1.629 5.6616 0.3305 1.3825 0.6875 2.6098 0.7934 2.7275 0.1059 0.1176 2.0458-1.0135 4.3109-2.5136 2.265-1.5001 6.6741-4.3237 9.7977-6.2748 3.1237-1.9511 7.9846-5.1715 10.802-7.1564 9.7975-6.9029 21.815-15.05 25.628-17.374 2.11-1.2861 6.3963-4.0585 9.525-6.161 6.2931-4.229 7.8808-5.2811 19.579-12.974 4.4384-2.9186 8.7112-5.7078 9.4952-6.1982l1.4254-0.8915-1.5577-0.2013c-0.8567-0.1107-3.1055-0.2753-4.9973-0.3657l-3.4395-0.1646-0.083-0.7183c-0.068-0.586 0.045-0.7504 0.6092-0.8921 0.9604-0.241 11.734 0.049 12.683 0.341 1.0561 0.3255 1.4612 1.0002 0.9233 1.5381-0.3404 0.3404-0.3644 0.6375-0.14 1.7332 0.2679 1.3075 0.2533 1.3565-1.3044 4.3835-3.1078 6.039-3.9513 7.2195-4.6551 6.5157-0.2453-0.2453 0-1.0159 1.0869-3.4337 2.3084-5.1283 2.6898-6.1489 2.604-6.9681l-0.082-0.7818-2.1166 1.2749c-1.8872 1.1367-12.762 8.2656-21.431 14.049-12.382 8.2603-15.261 10.154-17.912 11.782-3.2214 1.9776-20.166 13.433-24.289 16.42-3.1908 2.312-10.142 6.8883-16.272 10.712-6.8242 4.257-9.6573 6.2772-9.6573 6.8861 0 0.2786 0.4751 2.8028 1.0558 5.6094 1.8031 8.7155 2.1359 10.778 2.5096 15.554 0.9456 12.083 1.0151 12.725 1.3648 12.591 0.3074-0.118 12.17-2.4889 29.862-5.9683 9.974-1.9615 16.876-3.0508 24.342-3.8414 2.1828-0.2312 4.1473-0.472 4.3656-0.5351 0.2183-0.063 2.4209-0.4156 4.8948-0.7834 4.7068-0.6999 7.0077-1.2155 13.362-2.9942 7.5328-2.1089 18.749-4.9084 24.606-6.1416 3.2742-0.6894 7.8581-1.677 10.186-2.1946 4.2352-0.9416 10.215-1.5222 10.883-1.0568 0.1651 0.115 0.3489 0.4472 0.4085 0.7382 0.1066 0.521 0.113 0.5206 0.4145-0.024 0.2845-0.5145 0.1861-0.603-1.389-1.2498-2.0658-0.8484-4.876-1.3276-6.4865-1.1061-1.5712 0.216-2.6403-0.1888-2.6403-0.9997 0-1.0549 0.4747-1.2501 3.04-1.2501 2.7517 0 4.6667 0.4297 7.0415 1.58 2.8325 1.3722 3.4742 2.4331 2.4183 3.9987-1.58 2.3427-11.041 11.984-12.213 12.446-0.5419 0.2134-1.3454-0.2056-1.3454-0.7017 0-0.4807 0.868-1.5388 2.2489-2.7412 1.6499-1.4367 7.0582-6.9544 8.0759-8.2394 0.692-0.8737 0.787-1.1012 0.3888-0.9306-0.29 0.1243-2.1941 0.3171-4.2314 0.4285-4.0693 0.2226-4.0637 0.2218-8.9958 1.3133-1.8918 0.4186-5.285 1.1211-7.5406 1.5611-2.2556 0.4399-5.2321 1.1042-6.6146 1.4761-1.3824 0.3718-5.252 1.3741-8.599 2.2273-3.3469 0.8532-7.6171 1.9863-9.4892 2.5182-7.4281 2.1101-15.779 3.6018-25.965 4.6377-3.3806 0.3438-13.767 2.0561-19.393 3.1972-2.1397 0.434-8.5156 1.684-14.168 2.7778-5.653 1.0939-11.972 2.3545-14.041 2.8014l-3.7632 0.8125 0.2174 1.5894c0.2301 1.6828 2.6423 11.233 3.7938 15.021 0.3761 1.2369 0.9208 3.7968 1.2104 5.6885 0.2897 1.8918 0.8532 4.8654 1.2522 6.608l0.7256 3.1683 6.3405 0.985c11.439 1.777 16.873 2.3832 29.227 3.2601 2.9832 0.2118 8.9363 0.6849 13.229 1.0513 4.2929 0.3665 11.198 0.7856 15.346 0.9313 6.8096 0.2393 11.73 0.56 14.288 0.9313 0.5093 0.074 4.1067 0.4326 7.9942 0.797 6.3447 0.5947 8.795 0.9188 17.67 2.3372 1.3825 0.221 5.1007 0.5968 8.2628 0.8351 3.162 0.2384 6.853 0.6612 8.202 0.9396 3.6617 0.7556 3.7109 0.737 2.1784-0.8255-0.7222-0.7362-2.1009-1.8595-3.0639-2.4961-1.8527-1.2247-2.1377-1.5973-1.9043-2.4897 0.2346-0.8971 1.5685-0.7075 3.1685 0.4504 0.7509 0.5434 2.6261 2.2072 4.1672 3.6973 3.5454 3.4282 3.611 3.755 1.0124 5.0481-3.2342 1.6093-6.5941 3.7045-9.17 5.7181-3.5924 2.8081-3.7781 2.9182-4.2555 2.5219-0.6736-0.5591-0.4166-1.1466 1.0094-2.3071 4.04-3.2879 6.2777-4.9788 7.5248-5.6859 0.764-0.4332 1.3885-0.8656 1.3878-0.9608 0-0.3295-7.8209-1.6683-12.037-2.0612-2.3283-0.2169-6.436-0.7536-9.1281-1.1926-7.1051-1.1586-7.4826-1.2068-14.155-1.8078-3.347-0.3014-6.264-0.5996-6.4823-0.6626-1.0473-0.3024-10.454-0.953-17.329-1.1985-4.2193-0.1507-11.72-0.6204-16.669-1.0438-4.9486-0.4235-10.128-0.8417-11.511-0.9293-9.3197-0.5909-16.998-1.4094-26.145-2.7872-3.8833-0.5849-7.4474-1.135-7.9204-1.2224-0.9732-0.1799-1.0348 0.013-0.6023 1.8845 0.1345 0.5822 0.4895 2.9634 0.7887 5.2916 0.2993 2.3283 0.9819 6.8526 1.517 10.054 1.081 6.4679 1.0632 7.2727-0.1923 8.7026-0.6008 0.6843-1.3468 1.0747-3.2752 1.7142-1.3735 0.4554-2.6905 0.828-2.9266 0.828-0.2362 0-2.5604 0.7144-5.165 1.5875s-4.9464 1.5875-5.204 1.5875-2.1984 0.5911-4.3129 1.3135c-3.5636 1.2176-10.903 3.2908-19.19 5.4207-4.1988 1.0792-16.551 3.6003-21.96 4.4821-4.5473 0.7413-6.5016 0.9961-13.494 1.7591-9.2716 1.0116-18.077 2.889-32.023 6.8269-6.5525 1.8503-12.278 3.2025-17.587 4.154-2.1101 0.3781-6.3963 1.1448-9.525 1.7038-3.1287 0.5589-6.2839 1.1514-7.0115 1.3166-1.5447 0.3507-13.476 3.4964-23.166 6.1077-3.7188 1.0022-8.4217 2.1858-10.451 2.6302s-3.9729 0.8714-4.319 0.9489c-0.5791 0.1295-0.6166 0.2346-0.4689 1.3124 0.088 0.6444 0.3358 1.5908 0.5498 2.1031l0.3892 0.9314 2.1963 0.015c2.7611 0.019 3.8551 0.3881 4.6573 1.5725 0.8119 1.1986 0.6684 2.6471-0.3695 3.7304-1.6109 1.6815-3.9603 1.2665-6.2355-1.1014-1.4713-1.5313-1.514-1.5539-2.3812-1.2584-1.4235 0.485-2.8584 1.5929-5.1226 3.9552-2.0292 2.1171-2.8035 3.2769-3.1568 4.7284-0.1493 0.6136 0.032 0.7639 2.5127 2.0789 1.4705 0.7796 3.0759 1.8196 3.5675 2.3112 2.0033 2.0033 1.3764 5.1478-1.2829 6.4351-1.3055 0.632-2.3414 0.6842-3.507 0.1766zm2.7784-2.4264c0.9189-0.7732 1.0636-1.7513 0.3994-2.6996-0.3721-0.5313-4.1943-2.9654-4.6564-2.9654-0.5883 0 0.6506 4.4996 1.5249 5.5387 0.8413 0.9997 1.6497 1.0371 2.7321 0.1263zm-17.744-0.2534c1.2071-1.5347 0.9021-4.1333-0.6217-5.2955-0.4653-0.3549-0.9148-0.6452-0.9989-0.6452-0.2205 0-0.6665 1.5188-0.8683 2.9567-0.3829 2.7285 1.1985 4.6245 2.4889 2.984zm-18.21-3.1671c1.3943-0.721 1.9241-2.4981 1.2884-4.3217-0.3537-1.0146-0.9005-1.0645-3.0731-0.2808-1.9721 0.7115-3.251 1.9985-3.251 3.2717 0 0.7332 0.1487 1.0022 0.7276 1.3162 0.9501 0.5155 3.324 0.5235 4.3081 0.015zm-16.553-2.609c0.952-0.952 1.3553-2.568 0.9656-3.8688-0.381-1.2717-0.7252-1.32-2.6325-0.3696-2.3213 1.1568-2.8403 3.1148-1.13 4.2636 1.1508 0.773 2.0064 0.7653 2.7969-0.025zm-14.286-3.9532c0.2212-0.3375 0.479-1.3495 0.573-2.249l0.1709-1.6354h-1.1621c-3.6861 0-5.3589 1.9192-3.2186 3.6834 1.2817 1.0565 3.0131 1.1514 3.6368 0.1995zm-19.284-5.7585c1.204-1.1312 1.2858-4.0829 0.1486-5.3652-0.3584-0.4042-0.6875-0.4667-1.8366-0.3487-1.8096 0.1858-2.9766 0.8737-3.5873 2.1148-0.5674 1.1528-0.4458 1.9506 0.4573 3.0005 1.2423 1.4443 3.6053 1.7378 4.818 0.5986zm97.325-0.752c0.8407-0.9291 0.4441-1.4491-1.2902-1.6913-0.8612-0.1202-1.7927-0.1174-2.0699 0.01-0.4735 0.2113-0.4585 0.2705 0.2463 0.9771 1.2729 1.276 2.3733 1.5262 3.1138 0.708zm-20.367-9.233c-0.1821-0.7017-0.4663-3.0532-0.6318-5.2255-0.1654-2.1724-0.4127-5.0213-0.5494-6.331-0.2465-2.3605-1.0375-10.822-1.5829-16.933-0.1558-1.7463-0.6319-5.4967-1.058-8.3344-0.426-2.8377-0.9655-6.5286-1.1988-8.2021s-0.7653-4.7096-1.1823-6.7469c-0.4169-2.0372-1.4775-7.2165-2.3569-11.509-2.0636-10.075-3.4055-20.57-4.3975-34.396-0.8529-11.886-1.1375-14.214-2.4102-19.711-0.5072-2.1909-1.2709-6.8134-1.7048-10.319-0.632-5.1062-1.7383-11.678-2.7708-16.461-0.077-0.3559-0.2667-0.5322-0.4836-0.449-0.1964 0.075-1.3989-0.2943-2.6723-0.8214-4.4505-1.8422-5.4331-1.9833-13.61-1.9538-4.0149 0.015-7.5951 0.1086-7.956 0.2092-0.9482 0.264-2.2074 2.0611-3.1121 4.4412-0.9904 2.6058-2.5062 8.8492-3.361 13.844-1.5341 8.9636-1.5396 9.0776-1.754 36.248-0.1176 14.909-0.3116 26.027-0.4731 27.12-0.3433 2.3222-0.3803 29.463-0.045 32.941 0.1333 1.3825 0.3785 4.5376 0.5449 7.0115 0.1987 2.955 0.4438 4.7982 0.7144 5.3735 0.7928 1.6853 5.3986 4.3049 11.859 6.7447 2.4808 0.937 4.8621 1.8851 5.2917 2.107 0.7856 0.4059 3.3983 1.5002 8.0639 3.3777 1.3862 0.5578 4.1363 1.3692 6.1114 1.8031 1.9751 0.434 4.5914 1.2013 5.814 1.7053s3.2945 1.2412 4.6042 1.6384 2.7384 0.9107 3.175 1.1411c0.7361 0.3886 6.9454 2.8892 7.3034 2.9412 0.088 0.013 0.011-0.5509-0.1712-1.2526zm9.272 0.4562c3.0453-0.4913 2.958-0.4532 2.8467-1.2415-0.056-0.3944 0-1.5743 0.1303-2.622 0.2261-1.8609 0.2157-1.9167-0.4497-2.4087-0.3747-0.2769-1.0339-1.1461-1.465-1.9314-0.7014-1.278-0.7944-1.7241-0.8854-4.2503-0.1185-3.2886 0.2615-4.7972 1.6745-6.6478l0.8949-1.1719-0.6284-1.5581c-0.893-2.2141-1.8997-5.8051-2.1186-7.5576-0.1158-0.9264-0.053-2.2354 0.1651-3.4369 0.4145-2.285 0.4659-1.7679-0.5317-5.3532-0.4413-1.5859-0.9417-4.0827-1.1121-5.5484-0.3625-3.1185-0.183-7.7867 0.3574-9.2912 0.3751-1.0444 0.3668-1.0771-0.8887-3.5208-1.6232-3.1595-2.2206-5.7338-1.9985-8.6131 0.1507-1.9546 0.1063-2.2404-0.5588-3.5958-0.6528-1.3303-0.7186-1.7275-0.6826-4.1182 0.022-1.4552 0.2284-3.7174 0.4588-5.027 0.2304-1.3097 0.5451-3.6127 0.6994-5.1177l0.2805-2.7364-1.2326-1.4969c-0.678-0.8233-1.6212-2.2709-2.0959-3.2167-1.0378-2.0678-3.1955-8.7673-3.5364-10.98-0.229-1.486-0.054-4.7924 0.3493-6.6145 0.1475-0.666-0.126-1.3264-1.6985-4.1011-2.5058-4.4218-2.9898-5.7419-3.0069-8.2021-0.016-2.3317 0.3913-3.4416 1.8645-5.0772l1.0273-1.1405-0.5128-5.912-1.1831-0.2979c-4.1943-1.0561-6.1895-4.1633-4.9426-7.6973 0.5451-1.545 2.3015-3.8154 3.5724-4.6176 2.4142-1.524 6.6287-0.4934 9.011 2.2036 1.3471 1.5251 1.566 2.072 1.566 3.9136 0 2.9083-2.1691 5.5869-5.0933 6.2897-0.7144 0.1717-0.727 0.2095-0.6963 2.0881 0.052 3.1967 0.074 3.2297 2.1068 3.274 2.0276 0.044 3.5044 0.6823 4.604 1.989 0.6241 0.7417 0.7064 1.0337 0.601 2.1309-0.1438 1.4965-0.6956 2.209-2.2492 2.9042-0.8088 0.3618-1.4022 0.4524-2.1167 0.3231-1.8272-0.3309-2.4411-0.8286-3.3088-2.6829l-0.8157-1.7431-0.6191 0.7694c-1.839 2.2855-1.4666 4.9414 1.3547 9.6608 0.9913 1.6582 1.8332 3.051 1.871 3.0952 0.038 0.044 0.4689-0.1636 0.9583-0.462 1.0808-0.6589 3.3333-0.731 4.4703-0.143 1.5818 0.8179 1.9557 2.7971 0.9348 4.9484-0.8235 1.7353-3.0311 2.0679-4.8726 0.734l-1.098-0.7954-0.045 1.6553c-0.103 3.7982 0.042 4.5631 1.7858 9.4065 1.3428 3.7301 1.9696 5.0483 3.1079 6.5363 0.4452 0.582 0.8421 1.1039 0.8819 1.1597 0.04 0.056 0.4915-0.2667 1.0038-0.7165 3.1232-2.7422 7.263-0.7757 7.2826 3.4594 0.012 2.6749-2.6058 3.6246-5.6958 2.066-0.8486-0.428-1.6393-0.7187-1.7571-0.6458-0.1178 0.073-0.2142 0.5897-0.2142 1.1488 0 0.559-0.2381 2.4093-0.5292 4.1117-0.5191 3.0364-0.6776 6.2983-0.3631 7.4718l0.1589 0.5927 0.494-0.6281c1.1261-1.4316 5.1883-2.0846 7.0331-1.1306 1.9314 0.9988 2.4449 2.7079 1.2428 4.1365-1.2679 1.5068-2.567 1.9931-5.3245 1.9931h-2.4474v2.0025c0 2.1745 0.4781 4.1294 1.5161 6.1996 1.0308 2.0558 0.9889 2.0352 2.5353 1.2412 1.2093-0.621 1.6586-0.7012 3.7779-0.6746 3.7941 0.048 5.0587 0.8898 4.7987 3.1964-0.1564 1.3871-1.0517 2.4476-2.7678 3.2783-1.766 0.8549-4.4022 0.6403-6.0039-0.4887l-1.1911-0.8395-0.2081 0.9799c-0.1145 0.539-0.1904 2.4682-0.1688 4.2872 0.031 2.6393 0.1804 3.8417 0.7375 5.9531 1.0658 4.0396 0.8969 3.7051 1.5633 3.0952 2.2881-2.094 6.6124-2.2069 8.2873-0.2163 0.9291 1.1041 0.7791 2.9971-0.3291 4.1539-1.78 1.8579-5.7175 2.902-7.5314 1.9971-0.4751-0.237-0.9051-0.4309-0.9555-0.4309-0.05 0-0.092 0.7588-0.092 1.6863 0 1.5563 1.2602 6.5146 2.1546 8.4777l0.2861 0.6279 1.2271-0.5479c2.4567-1.0968 7.2737-0.873 8.4177 0.3911 0.645 0.7127 0.6166 2.3899-0.053 3.1302-1.1066 1.2236-2.4869 1.7062-4.8888 1.7096-2.051 0-2.382-0.072-3.7609-0.8537l-1.512-0.8568-0.654 1.1214c-1.318 2.2599-1.514 6.2592-0.4127 8.418 0.674 1.3211 0.9716 1.4664 1.6664 0.8136 1.0336-0.9709 2.4951-1.4205 3.9839-1.2253 2.7587 0.3615 4.6661 1.9146 4.2734 3.4795-0.3404 1.3562-3.389 2.0418-6.1987 1.394-0.6377-0.147-1.2003-0.2264-1.2502-0.1765-0.05 0.05-0.1696 0.938-0.2658 1.9735l-0.175 1.8827 3.5441-0.7513c1.9493-0.4132 10.363-2.5497 18.697-4.7477 17.357-4.5778 15.932-4.2522 28.477-6.5066 10.837-1.9476 11.357-2.0636 20.611-4.6046 17.891-4.9121 26.066-6.6132 35.767-7.4428 6.6378-0.5676 12.742-1.5836 25.268-4.2053 6.502-1.361 7.3801-1.5755 14.155-3.4586 3.056-0.8493 6.6278-1.8337 7.9375-2.1873 1.3097-0.3537 3.5124-1.0708 4.8948-1.5935 1.3825-0.5227 3.8233-1.3298 5.424-1.7936 1.6007-0.4637 5.2892-1.6301 8.1965-2.5918 4.8984-1.6204 5.3302-1.8146 5.887-2.6477 0.8054-1.205 0.7928-3.2501-0.052-8.3724-0.3587-2.1767-0.8994-5.907-1.2014-8.2894-0.6036-4.7613-1.1457-7.6511-1.4928-7.9585-0.1239-0.1097-2.547-0.5696-5.3847-1.022-13.47-2.1476-14.336-2.2193-29.298-2.426-0.4762-0.01-0.7184-1.2633-0.3329-1.7278 0.445-0.53612 2.4078-0.50952 10.316 0.1395 7.4909 0.6149 12.714 1.2588 19.53 2.4078 2.6653 0.4493 4.8883 0.7746 4.9399 0.723 0.052-0.052-0.1881-1.2605-0.5328-2.6864-0.3447-1.4259-0.8638-4.2234-1.1536-6.2167-0.2897-1.9933-0.8969-4.8148-1.3493-6.27-1.1374-3.6592-3.4232-12.797-3.6592-14.628-0.1434-1.1128-0.2976-1.4952-0.5845-1.45-1.0564 0.1664-10.785 2.2437-13.222 2.8233-1.528 0.3634-4.5641 1.2121-6.7469 1.8859-4.3883 1.3548-6.3594 1.6002-6.8423 0.8518-0.4445-0.6889 0.089-1.3406 1.3126-1.6031 0.5675-0.1218 2.002-0.45 3.1877-0.7294 4.6131-1.087 9.4859-2.1827 15.799-3.5526 3.6177-0.785 6.639-1.4887 6.7141-1.5637 0.1544-0.1545-0.8485-13.388-1.2752-16.827-0.1535-1.2369-0.5613-3.6182-0.9062-5.2917-1.1287-5.4765-1.9151-9.3752-2.0896-10.359l-0.1713-0.966-5.1603 3.4171c-5.3649 3.5525-6.6407 4.4656-15.86 11.35-3.0559 2.2819-5.7348 4.2112-5.9531 4.2874-0.2183 0.076-0.6648 0.039-0.9922-0.083-0.7915-0.2942-0.8047-1.4352-0.022-1.8897 1.9887-1.1545 8.93-5.8785 12.465-8.4834 2.2964-1.6922 6.6124-4.7045 9.5911-6.6941 3.3121-2.2124 5.4154-3.7831 5.4149-4.0438 0-0.8654-1.8485-7.3819-2.7612-9.743-0.9623-2.4894-0.9916-2.6709-1.7466-10.792-0.1624-1.7463-0.5922-4.7824-0.9553-6.7469-0.363-1.9645-0.8388-4.5816-1.0572-5.8157-0.2185-1.2341-0.6693-3.0225-1.0018-3.9742-0.3324-0.9517-0.6889-2.5184-0.792-3.4816-0.2641-2.4658-0.7729-2.9049-3.363-2.9018-1.0714 0-2.9601 0.1851-4.1971 0.4085-2.622 0.4735-12.027 2.9328-19.972 5.2224-3.058 0.8812-7.5245 2.121-9.9256 2.7552-4.5488 1.2014-9.6416 2.8113-14.155 4.4748-1.4552 0.5363-4.6103 1.5153-7.0114 2.1756l-4.3657 1.2004-8.9958 0.2134c-4.9477 0.1173-10.603 0.3431-12.568 0.5016-8.9546 0.7227-20.391 1.9796-27.832 3.0589-4.4664 0.6478-9.9432 1.3604-12.171 1.5836-2.2276 0.2231-5.0623 0.5247-6.2992 0.6701s-3.4396 0.3872-4.8948 0.5373-3.3602 0.3827-4.2333 0.5169-4.1474 0.5495-7.2761 0.9229c-5.8989 0.7039-7.0767 0.9007-13.494 2.2543-5.0015 1.0551-5.1197 1.0868-10.848 2.9066-2.6922 0.8553-5.7282 1.7438-6.7469 1.9743-2.6295 0.5951-4.9881 1.3947-7.2441 2.4557l-1.9524 0.9182 0.1805 2.5514c0.099 1.4033 0.5223 4.5755 0.9401 7.0493 0.4178 2.4739 1.0145 6.695 1.326 9.3803 0.5529 4.7666 1.0068 7.3478 2.0961 11.919 0.7338 3.0793 1.2132 7.3163 2.006 17.727 0.3712 4.8749 0.8413 10.292 1.0447 12.038 0.2034 1.7463 0.45 4.1275 0.5481 5.2917 0.4454 5.2864 1.3806 10.502 5.1473 28.707 0.4065 1.9645 0.9935 5.4173 1.3044 7.6729s0.7461 5.2119 0.9671 6.5696c0.6787 4.1707 1.1668 8.1989 1.4472 11.943 0.3028 4.0434 1.2633 12.921 1.4562 13.459 0.07 0.1948 0.3026 2.6356 0.5174 5.424 0.4083 5.3006 0.6776 6.7791 1.3341 7.3239 0.9412 0.7811 3.0375 0.8524 6.873 0.2336zm81.227-42.836c-4.4522-0.2848-12.483-1.6449-14.979-2.5367-5.0073-1.7893-12.775-5.5315-15.213-7.3295-4.5665-3.3671-7.7624-7.4935-11.11-14.344-4.4434-9.0941-4.9916-11.594-4.989-22.754 0-8.1292 0.2865-10.871 1.7034-16.404 0.7307-2.8535 1.4135-4.1736 4.7597-9.2017 3.4264-5.1487 5.6697-7.8244 8.2572-9.8489 2.4074-1.8837 4.0298-2.6993 7.8902-3.9664 1.6735-0.5493 4.7722-1.6266 6.8859-2.394 4.0878-1.484 7.608-2.5028 10.841-3.1375 5.5486-1.0891 8.1492-1.191 13.189-0.5167 2.6835 0.359 3.3689 0.5423 3.8365 1.026 0.3131 0.3239 0.9114 0.6693 1.3296 0.7674 1.1174 0.2624 5.2504 2.3096 7.9001 3.9132 1.2707 0.769 3.0517 1.8149 3.9578 2.3243 2.1882 1.23 4.9828 3.8871 6.7749 6.4416 0.8011 1.1418 2.3746 3.1485 3.4966 4.4593 3.1703 3.7034 5.268 7.5772 6.7766 12.515 0.7061 2.3112 0.7307 2.6031 0.835 9.9219 0.1227 8.6105-0.099 11.672-1.3779 19.06-0.9866 5.6974-1.4285 7.0943-3.2012 10.119-1.8114 3.0909-6.4899 9.1743-8.0992 10.531-3.6308 3.0614-10.846 7.7972-14.203 9.3219-4.3731 1.9865-8.1429 2.4888-15.262 2.0334zm9.8058-2.1271c3.9174-1.0044 9.5286-4.1299 15.838-8.8215 3.2639-2.4272 5.7878-5.1893 8.9182-9.7598 2.0482-2.9903 3.0022-5.1178 3.5387-7.8912 0.2368-1.224 0.8099-4.0709 1.2735-6.3264l0.8429-4.1011v-18.785l-0.7508-2.5135c-1.3931-4.6641-3.4806-8.4363-6.5309-11.801-0.9098-1.0038-2.2523-2.718-2.9833-3.8094-1.7665-2.6375-4.7024-5.4191-7.3897-7.0014-1.204-0.7089-2.8439-1.7399-3.6442-2.2912-0.8004-0.5514-2.884-1.6227-4.6302-2.3807-1.7463-0.758-3.3559-1.5309-3.577-1.7174-0.6554-0.5529-5.1431-1.4306-8.1645-1.5967-2.2448-0.1235-3.4498-0.038-5.9856 0.4231-4.5517 0.8282-7.8879 1.7088-11.443 3.0207-1.71 0.631-4.8354 1.7143-6.9455 2.4072-8.0564 2.6459-11.284 5.1608-16.055 12.508-3.0797 4.7434-4.1868 7.0119-5.1037 10.458-1.3203 4.9623-1.6221 7.1273-1.7831 12.79-0.3338 11.749 0.8583 16.791 6.2499 26.429 3.18 5.6847 4.9982 7.8527 9.2897 11.077 3.8482 2.8912 14.969 7.7649 19.44 8.5196 1.3097 0.2211 3.5718 0.6303 5.0271 0.9093 3.6664 0.7031 3.7321 0.709 8.3506 0.7535 3.3696 0.033 4.4989-0.058 6.2177-0.4989zm-38.56-18.445c-3.0898-3.6329-6.913-11.324-8.4844-17.068-0.5372-1.9635-0.5963-2.7733-0.5943-8.1338 0-5.6184 0.043-6.1167 0.7333-8.8635 1.0532-4.1931 1.9475-6.776 3.4089-9.8461 1.4299-3.004 2.8909-4.912 6.3878-8.3421 3.4134-3.3483 7.5865-5.3183 8.6222-4.0703 0.5218 0.6287 0.06 1.1172-1.7672 1.8674-2.4228 0.9949-3.7445 2.026-7.1864 5.6064-2.6824 2.7902-3.0822 3.3397-4.3784 6.0172-0.8661 1.7892-1.8742 4.5057-2.5661 6.9154l-1.1397 3.9688v14.023l1.0224 2.5135c1.8872 4.64 4.34 9.3741 6.0974 11.769 1.7736 2.4168 2.1773 3.6186 1.3252 3.9456-0.6869 0.2636-1.065 0.1864-1.4807-0.3024zm24.445-15.957c-2.4925-0.2543-4.3666-1.1751-6.0809-2.9877-2.0064-2.1215-2.3209-3.7839-1.3982-7.3915 0.779-3.046 1.759-4.8825 3.5673-6.6847 1.7632-1.7575 3.4688-2.8152 5.5229-3.4252 1.4931-0.4434 3.3912-0.5196 4.0908-0.1643 0.2527 0.1283 1.0547 0.3711 1.7824 0.5395 2.643 0.6117 5.4433 3.2002 6.7489 6.2386 0.4833 1.1247 0.555 1.7195 0.4784 3.9688-0.066 1.9312-0.2271 2.9235-0.5971 3.6739-0.7381 1.4971-3.0805 3.9152-4.5865 4.7349-2.4014 1.307-5.9423 1.8636-9.528 1.4977zm5.2561-2.1053c2.8974-0.5494 5.516-2.4296 6.7039-4.8134 0.9513-1.909 0.9635-4.5729 0.03-6.4416-1.0424-2.0857-2.1279-3.1967-4.0462-4.141-1.5568-0.7665-2.0276-0.8719-3.8932-0.8719-2.5698 0-3.9121 0.5695-6.1467 2.6079-1.6381 1.4943-2.9553 3.9386-3.4871 6.4709-0.567 2.7002 0.7217 5.1411 3.4625 6.5585 1.6199 0.8377 4.8359 1.1126 7.3772 0.6306zm-73.622-57.934c-1.1738-0.3543-2.6509-1.6525-3.1631-2.7799-0.8671-1.9089-0.5846-3.7678 0.9636-6.3388 0.5137-0.8531 0.9998-1.8134 1.0803-2.134 0.081-0.3206 0.6263-0.8527 1.213-1.1824 0.9328-0.5243 1.3206-0.5818 3.0897-0.458 2.5177 0.1762 3.7609 0.5438 4.8024 1.4201 1.2825 1.0792 1.6289 2.0077 1.6138 4.3247-0.013 1.9246 0.032 2.0941 0.6571 2.5037 0.9599 0.629 0.7878 1.5917-0.2878 1.6106-0.5873 0.01-1.1383 0.3558-2.1185 1.3279-0.8167 0.8101-1.7417 1.4389-2.4119 1.6397-1.2042 0.3608-4.3366 0.399-5.4386 0.066zm4.5909-2.1183c0.4841 0 2.0708-1.2333 2.0708-1.6044 0-0.1269-0.6106-0.4121-1.3569-0.6338-0.7464-0.2216-1.5203-0.5385-1.7198-0.7041-0.4852-0.4026-0.4594-1.1498 0.054-1.5762 0.4172-0.3463 0.6054-0.3197 3.3529 0.4741 0.3987 0.1152 0.4631-0.057 0.4631-1.2404 0-1.1555-0.1191-1.4932-0.7485-2.1226-0.7828-0.7828-2.2686-1.326-3.6172-1.3224-1.009 0-1.9843 0.261-1.9843 0.5256 0 0.1124-0.4721 1.0122-1.0491 1.9995-1.6779 2.8714-1.6702 4.783 0.023 5.6891 0.714 0.3822 2.8476 0.7573 3.5397 0.6223 0.291-0.057 0.7284-0.1047 0.9719-0.1067zm20.686-1.6129c-1.615-0.6211-3.5934-2.2838-4.0612-3.4131-0.8175-1.9737 0.7387-6.095 3.0028-7.9527 0.7485-0.6141 1.7776-1.2926 2.287-1.5076 0.5093-0.215 1.0212-0.5567 1.1376-0.7593 0.2744-0.4778 1.2189-0.4761 1.4025 0 0.078 0.204 0.5765 0.4523 1.1071 0.5519 1.9367 0.3633 3.9331 1.8653 4.8948 3.6824 0.4347 0.8215 0.5708 1.5312 0.563 2.9355-0.016 2.9531-1.375 5.3659-3.6385 6.4617-1.5328 0.742-4.7641 0.7414-6.6951 0zm5.4089-1.9375c0.8808-0.4582 1.718-1.3594 2.2356-2.4064 1.1463-2.3183 0.6414-4.4578-1.35-5.7207-1.7498-1.1097-1.9281-1.0385-1.725 0.6894 0.1924 1.6369-0.1126 2.2532-1.1151 2.2532-0.8131 0-1.1675-0.7175-1.1675-2.3638 0-0.7372-0.073-1.3403-0.1624-1.3403-0.089 0-0.6266 0.2608-1.1939 0.5797-1.0634 0.5976-2.2323 2.3317-2.8532 4.2327-0.2651 0.8116-0.2494 1.1101 0.093 1.7723 0.4418 0.8543 1.7397 1.9575 2.8015 2.3813 0.98 0.3911 3.6252 0.345 4.437-0.077zm22.597-2.1486c-1.898-0.4122-2.9625-1.0009-4.2875-2.3712-0.8707-0.9007-0.926-1.0636-0.926-2.7295 0-0.9744 0.1017-2.2134 0.2259-2.7532l0.2259-0.9816-1.4927-0.7321c-1.5719-0.7709-2.0878-1.5906-1.4698-2.3353 0.4572-0.5508 1.1785-0.4907 2.375 0.198l1.0275 0.5913 0.6161-0.5787c1.1194-1.0516 2.4017-1.3977 5.1785-1.3977 2.2731 0 2.7773 0.087 3.9847 0.6888 2.4151 1.2035 3.5678 3.2983 3.5597 6.4694-0.013 5.1812-3.1055 7.2154-9.0173 5.9318zm5.2328-2.5033c1.5737-1.1206 2.1127-4.4445 0.9906-6.1096-1.2537-1.8604-3.4185-2.6134-6.4314-2.2369-1.2978 0.1621-1.4336 0.2407-1.4336 0.8296 0 0.4122 0.3393 0.9484 0.926 1.4636 1.7121 1.5032 0.8924 2.9325-1.0309 1.7977l-0.9576-0.565-0.3948 0.9449c-0.6717 1.6077-0.5291 2.1928 0.7297 2.9929 1.6917 1.0753 2.7794 1.3841 4.9201 1.3969 1.528 0.01 2.1013-0.1007 2.6819-0.5141zm24.153 0.776c-3.4758-0.686-6.1568-3.075-6.1568-5.4863 0-1.4437 0.8437-3.2716 2.147-4.6515 0.705-0.7465 1.448-1.5882 1.6512-1.8706 0.3143-0.4369 0.6993-0.5142 2.5851-0.5189 2.5377-0.01 4.2511 0.601 5.7286 2.0308 0.8692 0.8411 1.6464 2.7984 1.6464 4.1461 0 0.4545 0.1992 0.7704 0.5954 0.9442 0.3889 0.1706 0.5953 0.4904 0.5953 0.9226 0 0.5258-0.1501 0.6787-0.7314 0.7456-0.5453 0.063-0.8664 0.3487-1.262 1.1241-0.6286 1.2323-2.0467 2.2334-3.6952 2.6088-1.3563 0.3088-1.5632 0.3092-3.1036 0.01zm3.6867-2.7021c0.8411-0.4654 1.4498-1.1685 1.2091-1.3966-0.04-0.038-0.8942-0.2313-1.8987-0.43-1.9893-0.3937-2.6304-0.9228-2.1094-1.7408 0.3272-0.5137 1.5542-0.5922 3.5122-0.2248l1.1639 0.2185-0.1613-0.9939c-0.089-0.5467-0.427-1.2768-0.7518-1.6225-0.9782-1.0413-5.5158-2.1936-5.5158-1.4008 0 0.1518-0.5944 0.8235-1.3209 1.4927-1.896 1.7466-2.1923 3.2039-0.9993 4.916 0.617 0.8854 1.8211 1.5536 3.2462 1.8012 1.3594 0.2363 2.4018 0.058 3.6258-0.619zm18.35-2.1763c-2.4525-0.8736-3.5761-2.499-3.5828-5.1827-0.01-2.0714 0.5477-3.328 2.5162-5.7188 1.5254-1.8526 2.9193-2.462 5.6319-2.462 1.5346 0 1.6459-0.043 2.032-0.7899 0.4442-0.8589 1.5753-1.3146 2.06-0.8299 0.2228 0.2229 0.1985 0.5763-0.095 1.3818l-0.3947 1.0824 0.98 0.9799c1.1922 1.1923 1.4845 2.438 1.0391 4.4285-0.466 2.0823-2.0017 4.9779-3.1389 5.9185-1.7667 1.4613-4.8352 1.9804-7.0476 1.1922zm5.0454-2.6555c1.117-0.8521 2.3736-3.0084 2.735-4.6933 0.2137-0.9965 0.1899-1.4708-0.1099-2.1883-0.2105-0.5038-0.5093-0.916-0.6641-0.916-0.1547 0-0.6907 0.6398-1.1909 1.4218-0.9412 1.4714-1.4448 1.8459-2.1289 1.5834-0.813-0.312-0.774-1.3993 0.095-2.6316l0.8228-1.1673h-0.8544c-1.1964 0.01-2.0451 0.2675-2.0451 0.6325 0 0.1704-0.5983 0.8991-1.3296 1.6194-2.4865 2.4492-2.3396 5.0719 0.3801 6.7858 1.1093 0.699 3.0509 0.4954 4.2904-0.45zm15.56-1.8213c-0.4459-0.1942-1.2355-0.8494-1.7547-1.456-1.7704-2.0683-1.9514-4.6671-0.4859-6.9779 1.6794-2.648 6.5244-5.4114 7.0565-4.0247 0.097 0.2528 0.504 0.3969 1.1209 0.3969 1.2175 0 2.6598 0.9508 3.3299 2.1951 0.4528 0.8408 0.5869 0.9175 1.3783 0.7891 0.9119-0.148 1.675 0.246 1.675 0.8648 0 0.1896-0.4947 0.6215-1.0992 0.9598-0.9168 0.5131-1.1492 0.8149-1.4008 1.8189-0.591 2.358-2.8814 4.9848-4.8145 5.5216-1.3937 0.3869-4.0214 0.341-5.0055-0.088zm4.5695-1.8949c0.7092-0.1421 1.9374-1.4167 2.7382-2.8414l0.5913-1.0521-0.6338 0.158c-1.9218 0.479-2.7979 0.4949-3.2342 0.059-0.2432-0.2432-0.4423-0.6039-0.4423-0.8014 0-0.5458 0.7613-1.1904 1.408-1.1921 0.317-8e-4 1.0207-0.1249 1.5639-0.2757 0.8747-0.2429 0.9524-0.3304 0.6801-0.7663-0.169-0.2706-1.0079-0.8269-1.8642-1.2362l-1.557-0.7442-1.2399 0.6521c-1.6414 0.8632-3.3441 2.5869-3.7399 3.786-0.429 1.3 0.013 2.6108 1.1814 3.5018 1.4055 1.072 2.2549 1.2127 4.5484 0.7529zm-127.72 154.03c0-0.061-0.401-0.3585-0.8911-0.6614-1.0761-0.6651-2.4682-0.7098-3.3287-0.1071-0.6006 0.4207-0.6071 0.4539-0.125 0.6428 0.5311 0.2082 4.3448 0.3185 4.3448 0.1257zm-0.2271-12.595c0.53-0.1472 1.1214-0.4578 1.3144-0.6903 0.2996-0.361 0.2555-0.5001-0.3021-0.9534-0.5599-0.4552-0.9167-0.5109-2.505-0.3915-1.8164 0.1365-3.3073 0.5946-3.3073 1.0161 0 0.4437 1.9747 1.1967 3.3073 1.2612 0.291 0.014 0.9628-0.095 1.4927-0.2421zm-2.9886-15.452c1.6977-0.8602 2.0528-1.3109 1.6793-2.1308-0.6145-1.3487-3.2789-1.1404-5.1443 0.4022-1.1409 0.9434-1.2307 1.3787-0.4042 1.9576 0.8539 0.5981 2.42 0.5054 3.8692-0.229zm-0.1908-18.427c0.2729-0.146 0.693-0.566 0.9338-0.9335 0.405-0.618 0.4054-0.7003 0.01-1.1002-0.695-0.6951-3.7191-0.6007-5.1672 0.1613l-1.1523 0.6063 0.6085 0.6477c0.3347 0.3563 0.9723 0.7587 1.4168 0.8942 0.896 0.2732 2.5894 0.134 3.355-0.2758zm-5.2187-15.58c1.3405-0.3109 2.2277-1.152 1.7819-1.6891-0.4421-0.5327-2.5213-0.7987-3.5609-0.4556-0.7096 0.2342-1.7666 1.404-1.7666 1.9551 0 0.4119 2.1026 0.5243 3.5456 0.1896zm1.1214-16.55c0.2138-0.5572-0.073-1.542-0.6608-2.2678-0.7175-0.886-2.2048-0.8439-3.1375 0.089-0.7008 0.7007-0.7017 0.7072-0.1912 1.2797 1.0385 1.1645 3.6609 1.7556 3.9895 0.8993zm-7.7247-22.68c0.6755-0.9645 0.5344-1.9664-0.3158-2.2408-0.9659-0.3118-1.7649-0.1603-2.3055 0.4371-0.3746 0.4139-0.3897 0.5737-0.098 1.0403 0.3054 0.489 1.6321 1.3293 2.1242 1.3455 0.1009 0 0.3688-0.2586 0.5954-0.5821zm-1.1757-15.022c0.2911-0.2911 0.5292-0.7032 0.5292-0.9158 0-0.9062-2.0896-1.9946-3.8293-1.9946-0.5526 0-0.687 0.1-0.5646 0.4185 0.088 0.2302 0.1606 0.5275 0.1606 0.6607s0.4305 0.7187 0.9568 1.3012c1.0784 1.1937 1.9211 1.3562 2.7473 0.53zm-6.8791-14.102c0-1.7211 0.2788-2.3019 1.1051-2.3019 0.8238 0 1.285 1.0678 1.1203 2.5937-0.1697 1.5731 0.03 1.692 1.4181 0.8455 0.9581-0.5842 2.4419-2.7267 2.4419-3.5259 0-0.8537-1.0118-2.2153-2.4074-3.2398-1.0999-0.8074-1.6006-0.9922-2.9912-1.1038-1.6306-0.1309-1.6957-0.1109-2.7505 0.842-2.8752 2.5976-2.8492 5.7347 0.058 7.0553 1.8427 0.8369 2.0052 0.7426 2.0052-1.1651zm-15.582-12.372c2.8294-1.6191 5.8622-2.7573 9.1491-3.4336 1.3487-0.2775 4.0326-0.9791 5.9642-1.5591 8.4645-2.5416 17.047-4.402 24.414-5.2923 2.4738-0.299 7.8912-0.955 12.038-1.4579 4.1473-0.5028 9.4456-1.1055 11.774-1.3393 2.3283-0.2337 7.9242-0.9503 12.435-1.5924 15.025-2.1384 27.873-3.2768 40.084-3.5517l9.1282-0.2055 3.7712-0.9744c2.0741-0.5359 5.5269-1.6113 7.6729-2.3898 5.1392-1.8643 9.6216-3.262 16.072-5.0119 2.9105-0.7895 7.9706-2.2038 11.245-3.1429 3.2742-0.9392 8.3022-2.2864 11.173-2.9939l5.2201-1.2864-1.864-0.7397c-1.0252-0.4068-3.1957-1.0334-4.8233-1.3924-1.6275-0.359-3.614-0.8584-4.4144-1.1098-1.1415-0.3585-2.3963-0.4544-5.8208-0.4447-3.7169 0.01-4.7982 0.1128-7.2761 0.6883-1.6007 0.3717-3.5652 0.7597-4.3656 0.8622s-2.884 0.459-4.6302 0.7922c-1.7463 0.3332-4.4847 0.7467-6.0854 0.919-3.5408 0.3809-6.791 0.8693-11.509 1.7296-1.9645 0.3581-5.7745 0.9661-8.4667 1.351-2.6921 0.385-5.4901 0.7936-6.2177 0.9081s-3.466 0.5195-6.0854 0.9-5.8341 0.921-7.1437 1.2011c-2.1872 0.4678-5.8805 1.0108-13.494 1.9842-1.6007 0.2047-5.2398 0.4973-8.0868 0.6503-5.7238 0.3075-8.4477 0.7083-12.49 1.8377-1.4887 0.416-3.421 0.8402-4.2941 0.9429-0.8732 0.1026-6.8858 1.0657-13.362 2.1403-11.307 1.8763-17.828 2.7979-22.357 3.1599-2.8715 0.2295-6.258 0.994-9.4841 2.141-7.0416 2.5037-9.8349 3.359-13.773 4.2175-6.4513 1.4065-7.31 1.6537-12.594 3.6269-5.1823 1.9351-8.4913 3.4165-12.17 5.4482l-2.25 1.2427 7.0114 0.1524 7.0115 0.1525 3.0427 1.0777c1.6735 0.5928 3.1477 1.0898 3.2759 1.1044 0.1283 0.015 1.2861-0.576 2.5729-1.3124zm378.88 160.23c-0.1635-0.9391-0.3589-5.4117-0.4341-9.9391-0.075-4.5273-0.2441-8.7973-0.3752-9.4887-0.2278-1.201-0.6927-7.1033-1.3259-16.832-0.7081-10.88-1.5182-19.083-2.639-26.723-0.4269-2.9104-0.9666-6.7799-1.1991-8.5989-1.013-7.9234-2.8452-16.593-5.0324-23.813-0.3747-1.237-0.9184-3.9159-1.2081-5.9532-0.7255-5.1013-1.988-11.799-2.6434-14.023-1.0878-3.6917-4.2774-13.599-5.835-18.124-0.8766-2.5467-2.7031-7.9045-4.0589-11.906-2.6509-7.8247-5.7869-15.408-8.4847-20.517-1.7458-3.3063-3.5441-7.5672-5.9691-14.143-3.5599-9.6539-9.0756-18.784-16.783-27.781-2.1313-2.4878-7.1264-8.7766-11.033-13.891-1.8289-2.394-8.7345-9.4961-12.774-13.138-2.3704-2.1369-3.5066-2.8423-9.029-5.6059-5.5971-2.8009-6.7252-3.1791-17.56-5.8868-8.2506-2.062-9.636-2.3439-14.023-2.8538-8.4494-0.982-10.216-1.0631-21.696-0.9959-6.3301 0.037-35.5 0.1262-64.823 0.198-46.884 0.1148-53.952 0.08-58.605-0.2857-7.4122-0.5831-11.141-1.0627-16.933-2.1785-4.2395-0.8166-5.6074-0.971-8.7313-0.9859-4.3403-0.021-16.472 0.5352-19.711 0.9032-9.6555 1.0969-29.914 1.7126-36.38 1.1057-7.5966-0.713-21.067-0.3735-28.84 0.727-4.648 0.658-11.918 1.121-21.299 1.3564-5.6026 0.1406-10.96 0.3172-11.906 0.3925-11.683 0.9296-21.683 1.5715-24.576 1.5773-2.3324 0-2.792-0.064-3.0414-0.4574-0.2141-0.3375-0.2147-0.5885 0-0.926 0.2604-0.4137 1.0078-0.4807 7.0102-0.6287 6.5784-0.1622 12.27-0.4767 18.625-1.0292 1.7462-0.1518 7.7589-0.387 13.361-0.5227 9.7592-0.2363 15.465-0.6088 22.357-1.4596 8.905-1.0992 11.143-1.1489 35.995-0.7999 16.272 0.2285 17.95 0.1783 26.976-0.8073 3.8882-0.4245 14.818-0.9388 21.167-0.9958 3.913-0.035 4.6038 0.036 9.1282 0.9441 4.8878 0.9807 11.306 1.7658 19.05 2.3305 4.1135 0.2999 95.951 0.1784 118-0.1562 9.4081-0.1427 11.51-0.071 23.416 0.7943 5.8979 0.4289 7.0899 0.6433 14.288 2.57 2.7649 0.7402 5.9201 1.5527 7.0115 1.8057 5.2219 1.2106 6.5641 1.7156 12.352 4.647 6.3476 3.2152 7.4992 3.9975 12.191 8.2804 5.2906 4.8297 6.7089 6.3674 10.777 11.684 4.4994 5.8805 8.5484 10.986 10.702 13.494 4.9858 5.8057 9.7079 12.663 12.527 18.191 1.8011 3.5317 2.7214 5.7315 6.7239 16.072 0.6759 1.7463 2.3276 5.3777 3.6705 8.0698 4.6614 9.3447 7.2302 16.199 14.973 39.952 3.3241 10.197 3.914 12.252 4.5567 15.875 2.1415 12.071 2.7039 14.755 4.2513 20.291 1.9438 6.9536 2.7207 10.636 3.841 18.206 0.4307 2.9104 0.9697 6.4823 1.1978 7.9375 1.2397 7.91 2.6246 22.014 3.3125 33.734 0.141 2.401 0.3744 5.3776 0.5188 6.6145 0.1444 1.237 0.3783 3.6182 0.5197 5.2917 0.3098 3.6671 0.4502 19.353 0.1771 19.795-0.1065 0.1723-0.472 0.3132-0.8122 0.3132-0.5539 0-0.6499-0.1788-0.9161-1.7075zm71.879-6.1151c-0.2826-0.2892-0.246-1.6417 0.049-1.8243 0.1363-0.084 1.4758-0.5172 2.9766-0.9623 2.8374-0.8413 7.5938-2.9916 11.544-5.219 6.7623-3.8125 18.285-9.5187 23.073-11.426 1.4695-0.5854 5.0893-2.189 8.044-3.5635 2.9547-1.3744 5.9793-2.7383 6.7213-3.0307 0.7419-0.2925 1.9783-0.8809 2.7474-1.3076 0.7692-0.4268 2.8434-1.3907 4.6095-2.142 2.4063-1.0238 3.4673-1.3451 4.2334-1.2823 0.88 0.072 1.0334 0.1804 1.1026 0.777 0.056 0.483-0.064 0.7371-0.3969 0.8387-0.2624 0.08-2.3822 0.9401-4.7105 1.9112-2.3284 0.9711-5.39 2.2276-6.8036 2.7922-1.4137 0.5646-3.7641 1.6257-5.2232 2.3579s-5.6008 2.5908-9.2037 4.1301c-6.7549 2.8859-15.404 7.1689-24.414 12.09-8.5663 4.6785-13.526 6.7042-14.349 5.8612zm-509.78-12.279c-0.6209-1.1601-0.8208-5.4193-0.6795-14.478 0.079-5.065 0.2111-36.058 0.2936-68.873 0.1096-43.572 0.068-60.734-0.1527-63.632-0.465-6.0967-0.6205-25.431-0.2735-33.999 0.7994-19.733 0.6967-25.371-0.5689-31.221-0.4982-2.3029-0.5598-3.8-0.7356-17.859-0.1541-12.33-0.2768-15.84-0.6242-17.859-0.2378-1.3824-0.5692-4.5649-0.7364-7.0723-0.32-4.7976-0.2348-5.3631 0.8074-5.3631 0.9642 0 1.0789 0.522 1.0789 4.9121 0 2.8514 0.1805 5.5898 0.5417 8.2153 0.4606 3.3483 0.575 6.1377 0.7643 18.623 0.2123 14.007 0.2509 14.806 0.8377 17.33 0.5776 2.4844 0.6158 3.1868 0.6248 11.509 0.01 4.8749-0.1631 14.907-0.3741 22.294-0.3351 11.732-0.3351 14.559 0 22.357 0.3083 7.1721 0.393 22.63 0.4312 78.644 0.026 38.345 0.1479 71.074 0.2706 72.731 0.2334 3.1517 0.069 4.0485-0.7699 4.2101-0.2412 0.047-0.5721-0.1651-0.7354-0.4702zm457.26-1.37c-0.4239-0.4239-0.4224-1.1406 0-1.4938 0.1832-0.1521 1.1059-0.4561 2.0505-0.6757 3.11-0.7231 6.4687-1.9839 12.867-4.8301 3.4723-1.5447 8.7545-3.8517 11.738-5.1268 10.811-4.6199 15.686-7.0594 34.263-17.144 7.3218-3.9747 22.626-11.223 27.704-13.121 1.4124-0.528 2.6325-0.96 2.7112-0.96 0.4237 0 7.7404-2.8581 11.495-4.4903 4.1662-1.8111 5.2873-2.098 5.5134-1.4109 0.2529 0.7681-4.8616 3.1527-14.083 6.5659-11.789 4.3639-20.62 8.4718-36.321 16.896-17.039 9.1419-18.518 9.8723-30.622 15.125-3.7835 1.6419-8.6055 3.7807-10.716 4.753-4.9373 2.2749-13.886 5.8392-15.232 6.0665-0.6915 0.1168-1.1532 0.065-1.372-0.1537zm-6.6554-34.987c-0.1949-0.2349-0.2796-0.692-0.1924-1.0392 0.1297-0.5168 0.6082-0.7681 2.8738-1.5093 2.8495-0.9323 11.825-5.3321 20.313-9.957 12.903-7.0311 17.036-9.1334 26.91-13.689 5.8511-2.6995 11.949-5.5653 13.551-6.3686s5.8631-2.8451 9.4699-4.5374c3.6067-1.6923 8.7636-4.1811 11.46-5.5306s5.6728-2.7764 6.6146-3.1708c0.9418-0.3945 4.2723-1.9393 7.401-3.433 11.433-5.4581 13.394-6.2581 14.398-5.8731 0.28 0.1074 0.4235 0.3931 0.3715 0.7393-0.065 0.4362-0.5361 0.7299-2.0746 1.2946-3.6731 1.3481-13.376 5.8173-26.982 12.429-4.4384 2.1566-9.439 4.5418-11.112 5.3006-1.6735 0.7587-5.6621 2.6613-8.8636 4.228-3.2014 1.5666-8.083 3.8873-10.848 5.1571s-6.8725 3.1659-9.1281 4.2136c-2.2556 1.0478-10.114 5.1259-17.462 9.0624-16.893 9.049-24.222 12.788-25.412 12.964-0.664 0.098-1.04 0.016-1.2863-0.2805zm-463.71-22.226c-0.5821-0.1831-2.0626-0.7871-3.2901-1.3421-1.6168-0.7311-2.9655-1.1159-4.8948-1.3966-3.937-0.5727-4.1659-0.9889-1.8031-3.2784 1.6944-1.6419 2.8764-2.3452 6.847-4.0742 2.8066-1.222 4.0488-1.4446 4.5684-0.8186 0.4567 0.5504 0.1206 1.075-1.053 1.6434l-1.0604 0.5136-0.054 3.107-0.054 3.1071 0.7938 0.2312c0.4366 0.1272 1.2874 0.3657 1.8908 0.5301 1.2 0.3267 1.5635 0.8477 1.1416 1.636-0.3198 0.5976-1.4198 0.649-3.0324 0.1415zm-2.9957-5.5729-0.085-2.2385-2.7762 1.3779c-2.7639 1.3719-2.7723 1.379-1.8991 1.601 0.9457 0.2404 4.8459 1.4234 4.8459 1.4698 0 0.016-0.038-0.9791-0.085-2.2102zm459.71-0.3204c-0.2988-0.2988-0.195-1.368 0.1543-1.5907 0.1819-0.116 1.6405-0.64432 3.2412-1.1741 3.7857-1.253 7.1069-2.7533 14.552-6.5738 3.347-1.7175 9.8954-4.9367 14.552-7.1539 4.6566-2.2172 11.495-5.514 15.197-7.3262 6.0468-2.9602 15.918-7.3192 20.031-8.8457 0.852-0.3162 3.8032-1.6347 6.5582-2.93 5.1312-2.4125 6.368-2.7372 6.368-1.6718 0 0.7401-5.6951 3.4948-16.801 8.1266-4.875 2.0331-10.411 4.4733-12.303 5.4228-1.8918 0.9494-7.3092 3.5732-12.039 5.8306s-13.783 6.6868-20.119 9.8432c-14.166 7.0567-18.557 8.878-19.392 8.043zm-459.23-7.4091c-0.5093-0.051-2.4143-0.2658-4.2333-0.4777-1.819-0.212-3.8431-0.41-4.4979-0.4401-1.4795-0.068-2.1167-0.3682-2.1167-0.9974 0-0.4894 1.6735-2.1942 3.0199-3.0764l0.7253-0.4753-1.2613-0.4787c-0.6937-0.2634-1.4327-0.6503-1.6423-0.8598-0.5576-0.5576-0.1937-1.6134 0.8141-2.3626 1.6203-1.2045 3.2164-1.5694 7.4466-1.7027 4.5574-0.1437 5.8782 0.1033 6.1405 1.1481 0.092 0.3652 0.092 0.7381 0 0.8288-0.091 0.091-2.1159 0.1365-4.5006 0.1019-4.237-0.062-5.9142 0.141-6.8555 0.8277-0.379 0.2765 0.1766 0.3207 3.1311 0.2492 3.8321-0.093 4.4545 0.07 4.3041 1.1221-0.064 0.4473-0.6069 0.7285-2.857 1.479-1.528 0.5097-3.2879 1.2357-3.911 1.6134l-1.1329 0.6866 2.7204 0.201c1.4962 0.1105 4.0047 0.2775 5.5745 0.371 2.1099 0.1257 2.9195 0.2736 3.1048 0.5669 0.3599 0.5699 0.317 0.9623-0.157 1.4363-0.4049 0.4049-1.479 0.4721-3.8176 0.2387zm-12.613-13.801c-0.188-0.7495 0.084-3.2372 0.5084-4.6572 0.1712-0.5721 0.7585-1.5103 1.3051-2.0849 0.9384-0.9865 1.0644-1.038 2.2588-0.9232 2.5502 0.2451 4.8942 2.5333 4.944 4.8262l0.025 1.1572 2.9104 0.1871c1.6007 0.1028 3.1188 0.2967 3.3734 0.4308 0.4819 0.2537 0.6321 1.1478 0.2342 1.3937-0.1259 0.078-3.6435 0.1741-7.8169 0.214l-7.5881 0.073zm7.1737-2.2279c-0.6895-2.2351-2.5581-3.7846-3.7772-3.1322-0.4874 0.2609-1.1019 2.0361-1.1019 3.1832 0 0.5114 0.1529 0.5443 2.5314 0.5443 2.5031 0 2.5293-0.01 2.3477-0.5953zm462.51 2.7741c-0.1455-0.1069-1.1285-1.9804-2.1845-4.1632-1.5235-3.1493-2.1108-4.7326-2.8443-7.6686-0.5083-2.0349-0.9243-3.9459-0.9243-4.2466 0-0.9788 0.9556-1.4906 1.792-0.9598 0.1853 0.1176 0.5083 1.3559 0.7178 2.7519 0.2096 1.396 0.5343 2.9073 0.7216 3.3583l0.3405 0.82 3.0427-2.0217c1.6735-1.112 3.1281-2.0982 3.2325-2.1916 0.1045-0.093-0.048-0.9332-0.338-1.8661-0.6945-2.2314-0.9718-5.415-0.5191-5.9604 0.4692-0.5654 1.5212-0.504 1.8486 0.1079 0.1507 0.2814 0.2739 1.1545 0.2739 1.9402s0.1355 2.1032 0.3011 2.9278c0.2781 1.3846 0.3566 1.4994 1.026 1.4994 1.3502 0 1.6135 0.9793 0.4827 1.7955-0.4515 0.3259-0.4503 0.3935 0.028 1.5875 0.2749 0.686 1.112 2.5364 1.8601 4.1121 1.4298 3.0116 1.5775 3.9599 0.6375 4.094-0.7227 0.1032-1.8341-1.5992-3.4579-5.2965-0.6572-1.4964-1.2362-2.7639-1.2867-2.8167-0.081-0.084-5.705 3.6743-6.3044 4.2132-0.1271 0.1142 0.3229 1.2238 1 2.4659 1.6341 2.9979 2.0586 4.2323 1.7418 5.0656-0.2483 0.6529-0.6871 0.8198-1.188 0.4519zm16.546-10.896c-0.4714-0.7346-1.3632-2.497-1.9817-3.9163-0.6186-1.4193-1.8103-4.0688-2.6483-5.8878-1.6359-3.5509-1.8772-4.6406-1.134-5.1216 0.7788-0.5041 1.3309 0.1222 2.206 2.5026 0.9757 2.6537 4.136 9.7052 5.0531 11.275 0.7644 1.3082 0.7322 2.2885-0.079 2.4043-0.4221 0.06-0.7689-0.2474-1.4161-1.2559zm-471.23 0.4832c-0.9459-0.1249-4.2513-0.3027-7.3453-0.395l-5.6255-0.1677-0.1587-0.6324c-0.092-0.3663-0.01-0.8148 0.2009-1.0659 0.3213-0.3871 0.9674-0.4148 6.0489-0.2597 3.129 0.096 6.1879 0.2473 6.7975 0.3372l1.1084 0.1636-0.3808-1.2653c-0.7302-2.4263-0.3348-4.5392 0.8082-4.3189 0.3779 0.073 0.5937 0.557 0.9265 2.0793 0.2386 1.0914 0.7142 2.6231 1.0569 3.4038 0.9927 2.2616 0.3993 2.6278-3.437 2.121zm481.31-3.553c-2.1639-0.9393-6.2025-4.368-7.1219-6.0464-0.66-1.2049-0.642-6.288 0.027-7.5127 0.852-1.5605 1.8233-1.9509 4.59-1.8449 2.6084 0.1 3.2685 0.3861 3.2685 1.4167 0 0.8605-0.7321 1.1869-2.0016 0.8924-3.0267-0.7019-4.1236 0.01-4.3007 2.7918-0.06 0.9381-0.033 2.1114 0.061 2.6072 0.2258 1.2038 1.8496 2.9972 4.1156 4.5455 1.5374 1.0505 2.0574 1.2668 3.045 1.2668 2.6745 0 3.0956-2.4624 0.8738-5.1088l-0.8524-1.0153-0.9887 0.5044c-1.4276 0.7283-2.2819 0.6668-2.4943-0.1795-0.1092-0.4351-0.039-0.8073 0.1934-1.0234 0.7269-0.6763 6.2717-3.3675 6.7488-3.2757 0.8644 0.1665 0.7331 0.9992-0.2982 1.8924l-0.9718 0.8416 0.676 0.7852c0.3718 0.4319 0.7822 1.0867 0.912 1.4552 1.0936 3.1061 1.1454 4.0804 0.2902 5.4641-1.0725 1.7353-3.706 2.4397-5.7708 1.5434zm12.467-3.7438c-0.9044-1.2834-1.6259-2.8854-3.8914-8.6408-3.4899-8.8659-3.6234-9.5633-1.8308-9.5633 0.7405 0 0.7823 0.072 1.3126 2.249 0.9485 3.8945 1.465 5.2917 1.9564 5.2917 0.9787 0 6.3652-2.6162 8.7533-4.2514l0.606-0.4149-0.8684-2.0861c-0.9684-2.3261-1.3459-4.9033-0.8125-5.546 0.4676-0.5634 1.5199-0.5006 1.8467 0.1101 0.1507 0.2815 0.2754 0.9066 0.2773 1.3891 0.01 1.4177 2.1963 7.5346 3.9552 11.044 1.6803 3.3519 1.8792 4.3267 0.9112 4.465-0.717 0.1024-2.0706-1.8687-3.445-5.0167l-1.0005-2.2918-1.072 0.7307c-1.2143 0.8275-6.439 3.4704-7.7728 3.9318-1.0741 0.3715-1.0888 0.3041 1.0521 4.8097 0.8628 1.8156 1.5342 3.5408 1.492 3.8337-0.1168 0.8111-0.8832 0.7885-1.4694-0.043zm-509.54-2.0679c-0.3546-1.4126-0.1468-1.4518 7.7005-1.4518 6.4903 0 7.272 0.047 7.789 0.4653 0.6781 0.5491 0.5176 1.2605-0.3359 1.4894-0.3174 0.085-3.8192 0.1564-7.7819 0.1584h-7.2048zm3.3967-3.1054c-0.7558-0.9454-1.2019-8.4807-0.5412-9.1414 0.4861-0.4861 1.4837-0.3778 1.7899 0.1943 0.1506 0.2815 0.2739 1.0373 0.2739 1.6796v1.1678l2.712 0.1781c6.5867 0.4327 8.2171 0.6596 8.7797 1.2223 0.4264 0.4263 0.4784 0.6357 0.248 0.9988-0.3315 0.5223-0.7719 0.5333-7.705 0.1923l-4.2997-0.2115 0.1648 1.5771c0.1338 1.2801 0.081 1.6615-0.2833 2.0252-0.5342 0.5343-0.7851 0.5601-1.1391 0.1174zm533.29-10.181c-0.5331-0.8395-1.4146-2.3599-1.959-3.3785-0.5444-1.0187-1.2691-2.1248-1.6104-2.4581-0.3414-0.3334-0.6207-0.7856-0.6207-1.0051s-0.7515-1.4457-1.67-2.7249c-2.5765-3.5881-2.863-4.8021-1.1811-5.0049 0.5542-0.067 0.7907 0.135 1.3947 1.1906 0.4 0.6991 1.1563 1.9465 1.6805 2.7721l0.9533 1.501 1.0142-1.501c0.5578-0.8256 1.541-2.5363 2.1849-3.8016 1.4139-2.7788 2.6183-4.2407 3.4017-4.1288 1.1686 0.1669 0.7028 1.3835-2.9129 7.607l-1.3524 2.3279 2.0131 0.1825c3.4594 0.3134 5.7418 0.8729 8.2872 2.0314 2.9091 1.324 3.5109 1.8007 3.2623 2.5839-0.098 0.3081-0.2993 0.5603-0.4478 0.5603s-1.628-0.5371-3.2877-1.1936c-4.047-1.6006-5.6329-1.9814-8.2514-1.9814h-2.2087l1.7588 3.4171c1.7875 3.4729 1.9892 4.3318 1.0472 4.4593-0.388 0.053-0.7815-0.3303-1.4958-1.4552zm-533.29-0.8948c-0.1819-0.1873-0.3307-0.5311-0.3307-0.7639 0-0.932 0.5543-1.058 4.7493-1.0796 5.7459-0.03 8.4296-0.8474 7.5267-2.2939-0.502-0.8041-2.2328-1.1788-6.2479-1.3527-4.0515-0.1755-4.9363-0.4492-4.5666-1.4126 0.2055-0.5356 1.4973-0.7348 4.7562-0.7336 5.9181 0 9.754 2.0467 8.9698 4.7809-0.583 2.0327-3.3876 2.9041-9.8958 3.0747-3.558 0.093-4.7068 0.043-4.961-0.2193zm455.55-2.7449c-0.705-0.8494-0.1158-1.5806 1.9072-2.3667 1.0596-0.4117 6.4508-2.8321 11.981-5.3787 14.002-6.448 19.484-8.8896 28.178-12.55 4.1474-1.7459 10.458-4.4037 14.023-5.9062 3.5653-1.5024 9.2208-3.9434 12.568-5.4243 3.347-1.4809 7.9309-3.501 10.186-4.4891 2.2556-0.988 6.1251-2.7716 8.599-3.9635 2.4738-1.1919 6.9387-3.2188 9.9218-4.5042 2.9832-1.2854 6.5959-2.8964 8.0283-3.5799 2.9528-1.4091 4.5652-1.7712 4.8288-1.0843 0.2275 0.5928-0.1987 1.0368-1.3971 1.4555-0.5549 0.1939-2.4972 1.0413-4.3162 1.8832s-5.3314 2.3922-7.8052 3.4451c-2.4739 1.0529-6.3434 2.8063-8.599 3.8965-2.2556 1.0901-5.8274 2.7295-7.9375 3.6431-2.11 0.9136-4.7889 2.1024-5.9531 2.6418-2.87 1.3299-13.787 6.078-16.404 7.1347-15.493 6.2553-39.326 16.904-50.104 22.388-3.4087 1.734-6.4631 3.1528-6.7876 3.1528s-0.737-0.1771-0.9166-0.3935zm94.983-3.6397c-0.3638-0.4559-1.0248-1.4316-1.4689-2.1682-1.11-1.841-4.7202-9.2818-5.3122-10.949-0.4492-1.2648-0.4527-1.3942-0.049-1.7981 0.2893-0.2892 0.6572-0.3794 1.0972-0.269 0.5493 0.1379 0.7797 0.5197 1.3543 2.245 1.105 3.3181 0.841 3.2697 4.5493 0.8334l3.2135-2.1113-0.7565-1.8592c-1.0685-2.6256-1.5059-4.8621-1.0568-5.4033 0.4622-0.5569 1.5273-0.5299 1.823 0.046 0.1307 0.2547 0.319 0.9948 0.4185 1.6448 0.4168 2.7239 3.1338 8.9737 5.3564 12.321 1.0079 1.518 1.0789 2.3721 0.1973 2.3721-0.7941 0-2.5914-2.2047-3.853-4.7266-0.5922-1.1839-1.1151-2.1948-1.1619-2.2463-0.074-0.081-5.6745 3.6649-6.3003 4.214-0.1988 0.1744 1.3117 3.2794 3.282 6.7464 1.0523 1.8516-0.025 2.7466-1.333 1.1075zm-552.3-4.3211c-1.5774-1.5774 0.3385-5.2821 3.9238-7.5868 1.1425-0.7344 1.5678-0.846 3.5928-0.9429 1.8032-0.086 2.4837-0.013 3.1661 0.3397 1.1576 0.5986 3.0701 2.384 3.9972 3.7314 1.3603 1.9772 1.337 3.251-0.073 3.98-0.8799 0.455-2.2147 0.558-9.5355 0.736-3.7969 0.092-4.7714 0.043-5.0716-0.2574zm10.398-2.1977 3.008-0.1637-1.1982-1.5875c-0.659-0.8731-1.5731-1.8067-2.0313-2.0746-1.9641-1.1485-4.6782-0.3152-7.1404 2.1921l-1.4436 1.47 0.9144 0.1636c1.1645 0.2084 4.061 0.2084 7.8911 1e-4zm557.86-0.1852c-0.088-0.2302 0.079-1.2884 0.372-2.3517l0.5326-1.9332-1.0118 0.1358c-0.9157 0.1228-1.0281 0.071-1.1824-0.5438-0.2318-0.9236-0.057-1.1296 1.7173-2.0254 0.8442-0.4261 1.622-0.989 1.7284-1.2508 0.5832-1.4355 1.4082-4.0476 1.249-3.9544-0.1019 0.059-0.7805 0.3728-1.5081 0.696-0.7276 0.3233-2.7164 1.4161-4.4196 2.4285-2.6322 1.5647-3.1778 1.7973-3.638 1.551-0.5471-0.2928-0.6957-0.9483-0.3389-1.4949 0.3197-0.4898 10.228-5.6554 10.848-5.6554 0.6101 0 1.191 0.7898 1.0076 1.3699-0.061 0.1925-0.1878 1.1156-0.2821 2.0514-0.1512 1.4985-0.124 1.6619 0.2278 1.3699 0.6116-0.5075 1.8715-0.2666 1.9635 0.3755 0.057 0.3961-0.3766 0.8693-1.657 1.8094-1.9216 1.411-2.0209 1.5462-2.6189 3.5684-0.2955 0.9992-0.3233 1.341-0.094 1.1604 2.423-1.911 6.4733-4.8257 6.7058-4.8257 0.1655 0 0.452 0.1821 0.6367 0.4046 0.4305 0.5188-0.2458 1.2815-2.6523 2.9911-0.9459 0.672-2.7054 1.9688-3.9101 2.8818-2.216 1.6795-3.3592 2.0657-3.6754 1.2416zm-566.62-7.5001c-2.2916-0.3197-3.3088-1.6925-3.3568-4.5301-0.023-1.3324 0.3119-1.8389 1.2139-1.8389 0.7887 0 1.147 0.7285 1.147 2.3315 0 1.6313 0.3138 1.9085 2.3714 2.0951l1.5974 0.1448v-2.8883c0-2.9476 0.3224-4.0643 1.1732-4.0643 0.7023 0 0.9189 0.7442 1.1004 3.7803l0.1853 3.0988h2.0117c1.1064 0 2.2903-0.078 2.6308-0.1694 0.6802-0.1821 0.6823-0.1083-0.084-2.974-0.5129-1.9174-0.2847-2.9384 0.6568-2.9384 0.6158 0 0.8314 0.4586 1.6524 3.5143 0.5262 1.9586 0.5315 2.1045 0.1087 2.9912-0.71 1.489-1.5715 1.7022-6.7144 1.6612-2.4422-0.019-5.0042-0.114-5.6934-0.2102zm441.06-11.682c-0.6449-0.3756-0.5779-1.2177 0.1323-1.6612 0.3275-0.2044 2.0044-0.8091 3.7266-1.3438 2.8825-0.8948 15.339-6.38 31.265-13.767 9.3539-4.3388 20.599-9.9338 26.855-13.362 3.2742-1.7942 7.9176-4.3267 10.319-5.6277 11.612-6.2916 18.899-10.662 28.707-17.217 3.9291-2.6257 9.5846-6.2571 12.568-8.0698 2.9832-1.8127 6.9718-4.2368 8.8636-5.3868 3.5978-2.1872 4.6825-2.4979 4.8413-1.3865 0.092 0.6428-0.9149 1.3817-3.9367 2.8896-1.0796 0.5387-2.7369 1.4904-3.6828 2.1149-0.9458 0.6245-3.3866 2.1181-5.4239 3.3191s-5.252 3.2226-7.1438 4.4926c-4.0626 2.7272-14.354 9.4154-16.792 10.913-6.6008 4.0546-30.666 17.234-39.962 21.886-11.162 5.5853-48.556 22.522-49.643 22.484-0.1271 0-0.4395-0.1294-0.6942-0.2778zm-10.2-30.723c-0.1747-0.1747-0.3175-0.5213-0.3175-0.7703 0-0.8583 1.5522-1.8847 9.525-6.2982 2.8376-1.5709 7.6596-4.2557 10.716-5.9663 3.0559-1.7106 9.0686-4.9601 13.361-7.221 9.2997-4.8979 10.145-5.3631 21.034-11.57 16.21-9.2392 21.977-12.499 24.604-13.906 1.4539-0.779 4.7876-2.846 7.4084-4.5935 2.6207-1.7475 6.0351-3.9563 7.5875-4.9085s4.3609-2.7652 6.2411-4.029c3.8911-2.6154 5.6419-3.5408 6.2541-3.3059 1.2393 0.4756-0.2652 2.009-3.9406 4.0164-1.0187 0.5564-2.5123 1.4564-3.3192 2-0.8069 0.5437-2.7008 1.7294-4.2086 2.6351-1.5079 0.9057-4.7173 2.9801-7.1319 4.6099-2.4147 1.6297-5.9977 3.8354-7.9622 4.9015s-5.8936 3.2742-8.7312 4.907c-2.8377 1.6327-7.243 4.1367-9.7896 5.5643-2.5466 1.4275-6.6543 3.7785-9.1282 5.2244-2.4738 1.4458-9.7962 5.4568-16.272 8.9133-20.413 10.896-30.157 16.488-33.497 19.225-1.134 0.9292-1.8969 1.1085-2.4333 0.572zm-12.7-19.315c-0.1747-0.1747-0.3175-0.5938-0.3175-0.9314 0-0.4993 0.7283-1.0889 3.9026-3.1593 3.824-2.4943 7.0349-4.6411 20.531-13.727 7.8736-5.3008 18.4-11.907 23.506-14.752 5.0639-2.8217 8.7101-5.0848 15.351-9.5277 10.756-7.1965 15.473-9.6208 15.762-8.1022 0.055 0.2903-0.9776 0.9987-3.4369 2.3573-1.9337 1.0682-7.0878 4.2893-11.453 7.158-7.8709 5.172-10.313 6.6753-17.462 10.748-5.1071 2.9093-16.185 9.9311-22.657 14.361-2.9637 2.0286-8.5437 5.8267-12.4 8.4403s-7.703 5.3598-8.5482 6.1025c-1.5566 1.3679-2.2011 1.6078-2.7759 1.033zm-402.17-49.742c-1.1563-1.1563 0.9597-8.6523 3.0726-10.885 1.7052-1.8017 3.1985-1.9376 5.5547-0.5055 2.6202 1.5925 4.6261 3.5427 6.1125 5.9425 1.4313 2.3108 1.6013 3.1967 0.6397 3.3336-0.4327 0.062-0.8324-0.2655-1.6162-1.3229-0.5727-0.7726-1.2628-1.7923-1.5335-2.266-0.5523-0.9665-5.3966-4.5627-6.1462-4.5627-1.5504 0-4.0199 5.1646-4.0199 8.4073 0 0.6339-0.1232 1.3828-0.2738 1.6642-0.3062 0.5721-1.3038 0.6804-1.7899 0.1943z" fill="#fff" /></g></svg>
