<svg width="527.12mm" height="409.98mm" version="1.1" viewBox="0 0 527.12 409.98" xml:space="preserve" xmlns="http://www.w3.org/2000/svg"><g transform="translate(-1125.5 1413)"><path fill="#fff" d="m1307.4-1004.2c-1.684-1.924-3.8273-3.0372-7.716-4.0078-1.8509-0.4619-5.5679-1.5379-8.26-2.391-5.6074-1.7768-5.3603-1.721-9.9219-2.2418-1.8918-0.2159-5.3446-0.8757-7.6729-1.4662-2.6657-0.676-5.85-1.2604-8.599-1.5781-2.4011-0.2775-6.0922-0.8039-8.2025-1.1697-2.1103-0.3659-4.6701-0.7386-5.6885-0.8283-3.3519-0.2951-7.0661-1.2145-11.236-2.7811-4.0927-1.5376-5.207-2.0471-13.502-6.1743-2.4011-1.1947-5.3777-2.5107-6.6146-2.9246-1.237-0.4138-3.8012-1.4477-5.6984-2.2975-3.1603-1.4156-3.759-1.5891-7.1437-2.0703-6.7261-0.9564-9.0746-1.5608-17.056-4.3893-1.528-0.5415-4.5641-1.7892-6.7469-2.7725-4.7123-2.123-4.2724-1.9775-8.0195-2.652-3.964-0.7135-7.3883-1.8281-11.505-3.7447-3.9686-1.8476-4.6974-2.1193-8.389-3.1281-1.5279-0.4176-3.7306-1.1298-4.8947-1.5827-1.1642-0.4529-3.0692-1.0037-4.2334-1.224-2.2001-0.4165-7.3346-1.8596-10.014-2.8145-1.8711-0.667-3.3479-1.9644-3.3479-2.9411 0-0.3801 0.1977-1.1995 0.4393-1.8209 0.5884-1.5131 4.481-7.0134 5.1031-7.2109 0.2718-0.086 0.5609-0.3308 0.6425-0.5436 0.399-1.0396 4.8897 0.2447 13.627 3.897 7.5557 3.1584 8.2254 3.3801 16.625 5.5032 5.53 1.3977 8.089 2.1897 11.028 3.4128 2.4242 1.0091 4.6816 1.7512 6.1604 2.0251 1.2836 0.2377 7.0141 1.9736 12.734 3.8574 8.1164 2.6731 12.794 4.0284 21.299 6.1719 5.9943 1.5107 12.208 3.0018 13.809 3.3137 3.0643 0.597 7.2161 1.9179 15.743 5.0087 2.8376 1.0287 6.0134 2.1072 7.0572 2.3967s3.3742 1.1154 5.1787 1.8353c2.2288 0.8892 4.2885 1.492 6.4233 1.88 2.164 0.3933 4.9743 1.2208 9.0252 2.6573 6.3391 2.2481 8.852 2.9958 13.591 4.0439 3.7327 0.8256 11.253 2.3417 15.346 3.0935 3.718 0.683 7.2469 2.0453 8.298 3.2032 0.6513 0.7175 0.7372 0.9868 0.6128 1.9214-0.1694 1.2721-3.0456 7.123-4.859 9.8843-1.5171 2.31-1.9039 2.3835-3.4216 0.6496zm4.0231-6.0083c0.6473-1.197 1.2398-2.7011 1.3335-3.3851 0.1567-1.1435 0.1083-1.2874-0.6816-2.0253-1.0468-0.9779-3.1691-1.6483-8.0833-2.5534-5.8801-1.0831-19.713-4.6784-24.342-6.3268-5.728-2.0398-6.9143-2.3851-10.451-3.0419-2.0408-0.379-4.1318-1.005-6.35-1.9011-3.0914-1.2488-7.9726-2.9809-13.229-4.6944-1.2369-0.4032-3.2014-1.0989-4.3656-1.546-2.741-1.0526-7.5766-2.4749-11.906-3.502-5.3102-1.2598-21.211-5.2534-23.283-5.848-1.0186-0.2922-5.6025-1.7654-10.186-3.2739-8.1103-2.669-10.017-3.212-13.918-3.9642-1.0338-0.1993-2.7007-0.7381-3.7042-1.1973-4.2536-1.9466-7.2157-2.9381-13.334-4.4629-8.4164-2.0976-8.5359-2.1366-16.14-5.2544-7.1817-2.9447-8.5119-3.3817-11.312-3.7158l-1.9199-0.229-0.7988 1.3414c-0.4394 0.7378-1.4507 2.2691-2.2474 3.4029-1.4348 2.042-1.7569 3.0644-1.1177 3.5478 0.5155 0.39 8.5976 2.6838 10.517 2.985 0.9459 0.1484 3.982 0.9965 6.7469 1.8845 2.7649 0.8881 5.9796 1.9147 7.1438 2.2813 1.1641 0.3666 3.4859 1.3493 5.1593 2.1837 4.4076 2.1975 7.1491 3.0239 12.292 3.705 1.7608 0.2332 2.9515 0.6643 7.2761 2.6344 2.8439 1.2956 5.6469 2.5002 6.229 2.677s1.6164 0.601 2.2984 0.9427c3.6859 1.8469 8.8473 3.0818 14.752 3.5297 3.4698 0.2632 3.6241 0.3016 6.35 1.5817 1.5366 0.7216 3.7463 1.667 4.9104 2.101 3.7272 1.3895 9.1199 3.6962 11.205 4.7929 2.2935 1.2063 8.2457 3.9208 11.02 5.0255 3.9205 1.5613 16.388 4.1325 23.151 4.7743 1.6735 0.1588 4.1142 0.3927 5.4239 0.5198 1.3097 0.127 3.406 0.5308 4.6584 0.8973 2.3823 0.697 5.463 1.2371 9.8565 1.728 1.9711 0.2202 3.8464 0.7061 7.6729 1.988 2.7854 0.9331 6.5526 2.0663 8.3716 2.5181 3.9662 0.9852 6.3073 2.0636 7.4597 3.4361l0.8485 1.0107 0.7652-1.2065c0.4208-0.6636 1.2893-2.1759 1.9299-3.3608zm271.13 4.604c-1.0051-0.2908-1.9893-1.4455-1.8805-2.2063 0.085-0.5947 0.3405-0.6195 2.794-0.271 1.1723 0.1665 1.4808 0.1185 1.9464-0.3025 0.7246-0.6554 1.4641-2.1266 1.6995-3.3814l0.1884-1.0042-0.8716 0.4507c-0.6159 0.3185-1.2615 0.4132-2.2004 0.323-1.0962-0.1053-1.4771-0.2894-2.1755-1.0515-0.9211-1.0051-1.4352-2.7692-1.4352-4.9252 0-1.3873 0.3293-1.892 1.2343-1.892 0.8203 0 1.147 0.7384 1.147 2.5928 0 1.1869 0.1336 1.739 0.5484 2.2663 1.1192 1.423 2.5447 0.6838 3.5027-1.8164 0.6653-1.7362 1.3256-2.1262 2.17-1.2817 0.4113 0.4113 0.4477 0.8259 0.3089 3.5198-0.2796 5.4245-1.3219 7.7656-3.9454 8.8618-1.087 0.4541-1.7759 0.4809-3.031 0.1178zm-24.842-1.4861c-0.4133-0.4133-0.4382-0.9608-0.2723-5.9914 0.1004-3.0452 0.3008-5.7575 0.4453-6.0275 0.1445-0.2699 0.5496-0.4908 0.9003-0.4908 0.7771 0 2.4644 1.9833 4.3048 5.06l1.2567 2.1009 0.1328-2.5094c0.1365-2.5794 0.3803-3.1823 1.2212-3.0204 0.7016 0.1351 0.9574 1.9259 0.7626 5.3384-0.1983 3.4745-0.4102 4.143-1.313 4.143-0.4955 0-0.8434-0.2863-1.3667-1.1245-0.3861-0.6185-1.4272-2.2494-2.3135-3.6243l-1.6114-2.4998-0.2159 1.1769c-0.1187 0.6473-0.1391 2.4004-0.045 3.8957 0.1421 2.2622 0.099 2.8288-0.2582 3.3735-0.5037 0.7687-0.9978 0.8294-1.6275 0.1997zm-58.387-0.3601c-0.3909-0.2277-0.463-0.6718-0.463-2.8538 0-5.2163 1.2294-8.3958 3.7572-9.7163 2.2041-1.1515 4.974 0.3517 4.974 2.6992 0 1.1288-1.1523 2.8058-2.5196 3.6668l-1.2485 0.7862 0.8919 0.6691c2.0294 1.5223 3.16 2.7802 3.2167 3.5791 0.09 1.2621-0.823 1.1859-2.539-0.2118-1.5744-1.2824-3.7626-2.8306-4.0007-2.8306-0.083 0-0.1508 0.8249-0.1508 1.8332 0 2.3513-0.6281 3.1303-1.9182 2.3789zm3.638-7.9431c1.3118-0.3576 2.249-1.1925 2.249-2.0037 0-0.4982-0.1417-0.6153-0.7443-0.6153-0.7636 0-1.6589 0.7636-2.5592 2.1828-0.5167 0.8145-0.4439 0.8446 1.0545 0.4362zm46.448 7.9956c-0.6747-0.121-1.0537-0.4048-1.4552-1.0896-0.4694-0.8005-0.5551-1.47-0.6324-4.938-0.1368-6.1348 0.1712-6.5086 5.2596-6.3821l3.0319 0.075v1.852l-2.7686 0.076c-1.8062 0.05-2.8395 0.1876-2.9725 0.3969-0.1121 0.1765-0.2057 0.8269-0.208 1.4453v1.1245h1.8016c2.0388 0 2.8596 0.3917 2.5915 1.2366-0.1989 0.6266-1.6922 1.1447-3.2993 1.1447-1.0159 0-1.094 0.052-1.0974 0.7276 0 0.4002-0.075 0.9955-0.1631 1.3229-0.1552 0.5792-0.1051 0.5953 1.8557 0.5953 1.6624 0 2.1078 0.093 2.5444 0.5292 0.9382 0.9382 0.6015 1.4203-1.2698 1.8184-1.4898 0.3169-1.7772 0.3227-3.2144 0.065zm-37.32-0.6326c-1.1376-0.5656-1.6153-1.99-1.7785-5.3022-0.2555-5.189 0.3018-5.8485 4.9535-5.8623l2.7781-0.01v1.8521l-5.2917 0.074-0.081 1.2195-0.081 1.2194h1.5727c1.1066 0 1.743 0.138 2.1474 0.4654 1.1631 0.9419 0.02 1.6404-2.6989 1.6484-0.8528 0-0.9916 0.087-0.9883 0.5982 0.01 1.5734 1.3153 2.5317 3.4925 2.5648 1.1141 0.017 1.6602 0.6431 1.2305 1.4108-0.2096 0.3746-0.6434 0.4555-2.4249 0.4523-1.1933 0-2.4673-0.1519-2.8311-0.3328zm-24.621-0.8923c-0.1464-0.385-0.5647-2.55-0.9296-4.8112-0.8692-5.3854-1.2007-5.0449 4.706-4.8336 3.5178 0.1258 4.5081 0.2434 4.8383 0.5743 0.2284 0.2288 0.3441 0.6013 0.2572 0.8278-0.2084 0.5429-1.4962 0.734-4.9699 0.7376h-2.8595l0.081 1.1245 0.081 1.1244 2.9104 0.2035c3.0442 0.2129 4.1038 0.4839 4.097 1.0476-0.011 0.9081-0.4709 1.0653-3.5081 1.1994l-3.0425 0.1342 0.135 1.0068c0.2096 1.5624-0.084 2.3617-0.8679 2.3617-0.4735 0-0.7391-0.2001-0.9291-0.7zm36.395 0.099c-1.955-1.0937-2.7694-3.9868-1.9536-6.9399 0.4273-1.5468 1.9029-2.8315 3.8853-3.3827 2.4305-0.6757 3.3066-0.6006 4.4226 0.3793 1.5068 1.3229 1.8319 2.1649 1.8279 4.7336v2.2593l1.014 0.7219c1.1561 0.8231 1.4603 1.3912 1.0737 2.0053-0.4048 0.6427-1.0484 0.6594-1.9052 0.049-0.9768-0.6956-1.1196-0.6885-2.301 0.1132-1.3524 0.9177-4.4723 0.949-6.0602 0.061zm4.7367-1.8612c0.4306-0.3149 0.3494-0.4257-0.9214-1.2568-1.6771-1.0969-2.0783-1.6495-1.6702-2.3006 0.47-0.7497 1.3322-0.6858 2.6105 0.1937l1.1975 0.8239v-1.0841c0-1.3041-0.5906-2.5453-1.3215-2.7773-0.7578-0.2405-3.2523 0.5432-3.8574 1.2118-0.3894 0.4303-0.5096 0.9557-0.5096 2.2274 0 1.7525 0.4318 2.5841 1.5875 3.0571 0.8235 0.3371 2.363 0.2863 2.8846-0.095zm11.381 1.941c-1.6897-0.6836-2.7172-3.2454-2.9457-7.3441-0.1628-2.9217 0.021-3.5121 1.0947-3.5121 1.0308 0 1.2108 0.4874 1.217 3.2941 0.01 3.6752 0.8429 5.4372 2.5765 5.4372 1.2163 0 1.7312-1.1976 2.8897-6.721 0.2347-1.1192 0.8182-1.6622 1.5034-1.3992 0.6567 0.252 0.5852 3.6014-0.1261 5.9095-0.7739 2.5114-1.374 3.5881-2.3009 4.1289-0.8382 0.489-2.9364 0.6-3.9086 0.2067zm32.301-0.1605c-1.148-0.5986-1.7074-1.167-2.3098-2.3474-1.0667-2.0902-0.1532-5.4008 1.9587-7.0981 1.585-1.2739 4.4589-1.2636 4.4475 0.016-0.01 0.8032-0.4438 1.1824-1.4534 1.2625-1.9542 0.1551-3.4186 2.5355-2.7696 4.5021 0.3484 1.0557 0.9244 1.436 2.1747 1.436 1.8799 0 2.3171 1.269 0.7551 2.1917-0.9525 0.5626-1.7747 0.5735-2.8032 0.037zm72.01-14.312c-0.6092-0.6093 0.4079-1.9498 3.7262-4.9112 1.5615-1.3934 1.7728-1.9356 0.6615-1.6972-0.4002 0.086-8.5262 0.2793-18.058 0.4297-11.444 0.1806-18.598 0.4051-21.064 0.661-3.1127 0.323-8.3038 0.3667-31.221 0.2629-15.118-0.069-30.404-0.2395-33.97-0.3801-10.333-0.4074-35.532-0.5798-41.54-0.2842-2.9831 0.1467-7.448 0.4542-9.9218 0.6833-2.8557 0.2644-8.7967 0.4694-16.272 0.5615-10.255 0.1263-12.354 0.083-16.272-0.3378-3.6327-0.3899-6.8136-0.4868-16.536-0.5038-12.891-0.023-12.929-0.026-14.358-1.3896-0.9511-0.9073-1.1679-1.8538-1.3777-6.015-0.095-1.8918-0.3399-5.047-0.5433-7.0115-0.5649-5.4553-0.6679-9.2462-0.7726-28.443-0.068-12.501-0.2016-18.663-0.4523-20.902-0.2464-2.2-0.3512-6.7091-0.3411-14.684 0.013-10.035 0.089-12.17 0.5943-16.669 0.7031-6.2553 1.1755-15.72 1.3076-26.194 0.1153-9.1365-0.1904-13.23-1.6772-22.459l-0.1442-0.8954-1.1776 1.7553c-1.0085 1.5034-1.2899 1.7553-1.9606 1.7553-0.6157 0-0.8189-0.1421-0.95-0.6647-0.13-0.5178 0.1064-1.0583 1.0702-2.4474 2.5377-3.657 3.7637-5.2241 4.1446-5.2974 0.2155-0.042 2.0916 1.585 4.169 3.6144 3.3142 3.2377 3.7666 3.7817 3.6912 4.4387-0.1486 1.2943-0.8735 1.0672-3.034-0.9505-1.1055-1.0324-2.3707-2.1339-2.8115-2.4478l-0.8014-0.5707 0.1579 2.3612c0.087 1.2986 0.4211 4.3256 0.7427 6.7267 0.7883 5.8848 1.0339 21.427 0.3972 25.133-0.2229 1.2973-0.5395 4.4776-0.7036 7.0674-0.1642 2.5897-0.5049 6.8517-0.7572 9.4711-0.403 4.1848-0.433 6.367-0.2469 17.992 0.1164 7.2761 0.3406 18.051 0.4982 23.945s0.3851 16.014 0.5056 22.49 0.3519 12.846 0.5142 14.155 0.4601 4.547 0.6619 7.1941c0.4081 5.355 0.6862 6.1439 2.348 6.659 0.4705 0.1458 5.2607 0.3406 10.645 0.4329 5.3843 0.092 12.327 0.3391 15.428 0.5488 8.9771 0.6068 26.889 0.5276 35.108-0.1552 5.3534-0.4447 10.121-0.5908 25.003-0.7659 10.114-0.1189 19.639-0.1203 21.167 0 1.528 0.1173 4.4999 0.3465 6.6042 0.5094 5.8617 0.4536 57.268 0.1338 62.721-0.3902 2.5838-0.2483 8.6402-0.447 16.4-0.5381 6.7667-0.079 14.612-0.2144 17.433-0.2999l5.13-0.1555-1.1886-0.7398c-1.1961-0.7445-3.338-1.5809-4.0485-1.5809-0.5204 0-0.7987-1.2305-0.3898-1.7232 0.5767-0.6949 1.9897-0.4462 4.3421 0.7642 2.7053 1.3921 4.6931 2.9987 5.3046 4.2874 0.6327 1.3334 0.2166 2.176-1.8932 3.8341-0.9367 0.7361-2.352 1.926-3.145 2.6442-1.3301 1.2045-2.3628 1.6141-2.8475 1.1294zm-337.39-5.734c-0.5821-0.3146-1.203-0.691-1.3799-0.8365-0.1768-0.1456-0.482-0.3973-0.6781-0.5596-1.0734-0.8878-1.4214-0.9047-2.9326-0.1424-2.2275 1.1236-4.7785 1.0814-7.5771-0.1252-1.3505-0.5823-1.8832-0.8069-2.8443-1.1996-0.4729-0.1933-0.8599-0.4543-0.8599-0.58 0-0.1258-0.3087-0.1512-0.6861-0.056-2.2959 0.5762-4.2504 0.3814-6.4013-0.638-0.5403-0.2561-1.4586-0.6725-2.0407-0.9255-2.0097-0.8733-4.5001-2.0986-5.1594-2.5385-1.3053-0.871-3.9067-1.2711-8.2877-1.2746-4.9732 0-5.9542-0.1167-8.9102-1.0235-2.2169-0.6802-6.3986-2.6051-6.5705-3.0245-0.048-0.1184-0.1938-0.2153-0.323-0.2153-0.2098 0-2.565-1.5114-2.8961-1.8585-0.073-0.076-1.2038-0.6705-2.5135-1.3204-1.3097-0.65-2.421-1.2722-2.4695-1.3827-0.048-0.1105-0.1986-0.2009-0.3337-0.2009-0.2048 0-2.9122-1.7382-3.8114-2.4471-0.1455-0.1147-0.5214-0.4147-0.8352-0.6666-0.3139-0.252-0.832-0.6368-1.1515-0.855-0.3195-0.2183-0.9557-0.7205-1.4138-1.1161-0.458-0.3955-1.2198-0.9286-1.6927-1.1846-0.473-0.256-0.8599-0.5575-0.8599-0.6699s-0.2381-0.2044-0.5292-0.2044c-0.291 0-0.5292-0.1191-0.5292-0.2646s-0.1753-0.2646-0.3896-0.2646c-0.5422 0-3.1713-1.2481-4.841-2.2982-0.7668-0.4822-1.511-0.8768-1.6537-0.8768s-0.2594-0.1052-0.2594-0.2337c0-0.1286-0.2084-0.3001-0.463-0.3813-0.2547-0.081-1.5346-0.7239-2.8443-1.4283-4.1733-2.2447-4.7798-2.4592-14.288-5.0531-3.2421-0.8845-6.5657-1.4808-9.9219-1.7801-1.0914-0.097-2.3415-0.2117-2.7781-0.2541-0.4366-0.042-1.9248-0.1619-3.3073-0.2655-1.3824-0.1036-2.6059-0.2434-2.7187-0.3107-0.1129-0.067-3.03-0.1704-6.4823-0.2292-8.4901-0.1444-14.877-0.3521-15.102-0.491-0.1019-0.063-1.2537-0.1888-2.5595-0.2796-1.3059-0.091-2.7314-0.1996-3.168-0.2418-1.374-0.1329-5.9531-1.3168-5.9531-1.5391 0-0.1169-0.1549-0.2125-0.3441-0.2125-0.4868 0-1.7681-0.6223-1.7705-0.8599-1e-3 -0.1091-0.1397-0.1984-0.3078-0.1984-0.1682 0-0.696-0.2977-1.173-0.6615s-0.9645-0.6634-1.0833-0.6657c-0.1189 0-0.6192-0.3595-1.1119-0.7937-0.4926-0.4343-0.9783-0.7896-1.0793-0.7896-0.4228 0-3.7535-3.4919-4.6143-4.8375-1.5342-2.3984-2.0206-3.9757-2.1905-7.103-0.114-2.0996-0.031-3.5078 0.3271-5.5562 0.3236-1.8501 0.4685-3.9074 0.4451-6.3158-0.029-2.9943 0.07-3.9863 0.6135-6.1351 0.595-2.3528 1.8459-5.7179 2.2436-6.0357 0.091-0.073 0.8238-1.442 1.6284-3.0427 0.8045-1.6007 2.1226-3.9326 2.929-5.182 0.8065-1.2494 1.7882-2.907 2.1817-3.6836 0.6518-1.2861 2.4413-4.175 2.785-4.4959 0.078-0.073 0.5524-0.7871 1.0543-1.5875 0.502-0.8003 1.0041-1.4948 1.1158-1.5434 0.1118-0.049 0.2033-0.2469 0.2033-0.4409 0-0.1941 0.097-0.3925 0.2144-0.441 0.118-0.048 0.8235-0.8873 1.5677-1.8641 0.7442-0.9767 1.4834-1.9292 1.6425-2.1166 1.1236-1.3235 1.4917-1.8145 2.2396-2.9867 0.4642-0.7276 1.0058-1.7396 1.2035-2.2489 0.1978-0.5093 0.5854-1.4618 0.8614-2.1167 0.276-0.6548 0.6023-1.4287 0.725-1.7198 0.2664-0.6316 1.0084-2.4088 1.3533-3.2411 0.1357-0.3274 0.359-0.8632 0.4963-1.1906 0.1372-0.3275 1.2518-2.679 2.4767-5.2256 2.2934-4.7678 2.7295-5.7258 3.4329-7.5406 2.9296-7.5583 5.6431-18.878 5.5495-23.151 0-0.2183 0.3889-2.0043 0.8748-3.9688 0.6746-2.7275 0.924-4.4143 1.055-7.1355 0.2072-4.3067 0.4998-5.3995 1.4757-5.5127 1.1825-0.1371 1.5963 0.5587 1.4425 2.4254-0.074 0.8931-0.2054 2.5168-0.293 3.6082-0.088 1.0914-0.5553 3.5918-1.0393 5.5563-0.9334 3.7883-1.1188 4.9026-1.5849 9.525-0.095 0.9459-0.7085 3.982-1.3626 6.7469-1.6616 7.0246-1.9774 8.1109-3.1755 10.923-0.2035 0.4779-0.3701 1.0184-0.3701 1.2011 0 0.3579-1.5028 3.3301-2.479 4.9029-0.7354 1.1849-3.5915 7.0493-4.4 9.0344-0.3259 0.8004-0.7444 1.8124-0.93 2.249-0.1855 0.4365-0.4206 1.1887-0.5224 1.6714-0.1019 0.4828-0.3518 1.1972-0.5555 1.5875-0.2036 0.3904-0.371 0.8364-0.3719 0.991 0 0.854-2.4377 4.8485-3.4543 5.6719-0.7083 0.5738-6.0723 8.1715-6.0723 8.6011 0 0.071-0.4032 0.6948-0.8959 1.3864-0.4927 0.6915-1.3193 2.1198-1.8369 3.1739-0.7694 1.567-3.3368 5.6293-3.8889 6.1532-0.077 0.073-0.7896 1.442-1.5842 3.0427-0.7947 1.6008-1.5356 2.9501-1.6466 2.9987-0.1109 0.049-0.2017 0.2584-0.2017 0.4666 0 0.2081-0.1133 0.5851-0.2518 0.8378-1.366 2.4927-1.9422 5.1841-2.0245 9.4553-0.039 2.0373-0.1395 4.2399-0.2226 4.8948-0.083 0.6548-0.209 1.7067-0.2797 2.3376-0.071 0.6308-0.1953 1.2552-0.2771 1.3875-0.5898 0.9544 0.283 7.5269 1.0884 8.1953 0.2089 0.1733 0.3798 0.4324 0.3798 0.5756 0 0.8085 3.4211 4.2604 5.6723 5.7234 0.591 0.384 1.1143 0.7876 1.1628 0.8967 0.048 0.1092 0.1886 0.1984 0.3113 0.1984s0.9228 0.4828 1.7779 1.0729c1.783 1.2303 5.3508 2.2873 8.4059 2.4903 1.0186 0.068 2.8641 0.2009 4.101 0.2962 2.7064 0.2084 3.7271 0.2475 12.568 0.4818 7.7194 0.2045 10.429 0.3661 13.626 0.8126 0.5093 0.071 1.9381 0.2067 3.175 0.3014 4.7416 0.3629 6.4087 0.6631 12.171 2.1911 6.4309 1.7054 8.8086 2.4095 9.1149 2.6993 0.1383 0.1308 0.4148 0.2378 0.6145 0.2378 0.3559 0 6.4147 2.8675 6.6748 3.159 0.1181 0.1324 0.9378 0.6058 2.5135 1.4517 0.2911 0.1562 0.5887 0.352 0.6615 0.435 0.073 0.083 1.2038 0.654 2.5135 1.2689s2.8575 1.368 3.4396 1.6734c1.1772 0.6178 4.9682 3.3015 5.8759 4.1596 0.3214 0.3038 0.7121 0.5524 0.8682 0.5524 0.1562 0 0.3525 0.1786 0.4363 0.3969 0.084 0.2182 0.2583 0.3968 0.3879 0.3968 0.1297 0 0.8015 0.4032 1.4931 0.896 0.6915 0.4927 2.2099 1.3865 3.374 1.9861 2.4365 1.255 3.021 1.5953 5.5563 3.2356 2.4629 1.5934 4.0215 2.294 6.8791 3.092 2.1137 0.5903 3.0651 0.6825 8.4667 0.8209l6.0854 0.1559 4.4979 2.2058c2.4739 1.2132 4.6766 2.2961 4.8948 2.4065 0.8205 0.415 3.1568 0.8482 4.0095 0.7436 0.4869-0.06 1.2425-0.2564 1.6791-0.4369 0.7689-0.3181 0.7772-0.3397 0.2646-0.6933-1.0401-0.7173-1.5342-1.3356-2.1836-2.7322-0.7319-1.5741-0.7026-3.0095 0.096-4.692 0.4454-0.9386 0.2866-1.4574-0.6242-2.0402-0.1819-0.1164-0.3308-0.3386-0.3308-0.4938 0-0.1553-0.8929-1.1666-1.9843-2.2475-1.9778-1.9586-2.3224-2.6549-1.6076-3.2482 0.2953-0.245 0.6331-0.1959 1.5611 0.2268 1.2302 0.5604 2.3554 1.5731 4.4571 4.0116 0.6796 0.7884 1.9104 2.1479 2.7351 3.021 1.8954 2.0067 2.5588 3.4302 2.5778 5.5323 0.014 1.5168-0.5329 3.0552-1.4141 3.9795-0.1318 0.1383-0.2396 0.3254-0.2396 0.4159 0 0.181 1.9988 1.0902 3.4129 1.5524 2.1356 0.6979 4.8517 0.066 5.6432-1.3134 0.4072-0.7093 0.3999-0.7339-0.2652-0.9008-1.0159-0.255-2.5952-1.4781-3.0782-2.384-0.776-1.455-0.782-4.2858-0.015-7.1464 0.1051-0.3925-0.045-0.6147-0.5816-0.8599-0.3979-0.1819-0.8782-0.3308-1.0675-0.3308s-0.3441-0.119-0.3441-0.2646c0-0.1455-0.1703-0.2645-0.3784-0.2645-0.6705 0-3.6828-1.5233-5.0675-2.5626-1.9462-1.4607-3.4872-3.0458-3.5534-3.6551-0.2002-1.8426 1.0531-1.7914 3.1784 0.1298 1.5011 1.357 4.2136 3.0212 6.4823 3.9773 3.3165 1.3976 4.4003 2.1779 6.2383 4.4918 1.3244 1.6674 1.969 2.8697 2.3633 4.4085 0.2952 1.1517 0.2772 1.585-0.1362 3.2877-0.2619 1.0786-0.6069 2.0527-0.7666 2.1646-0.1946 0.1363-0.1157 0.3363 0.2387 0.6059 0.2911 0.2214 0.7674 0.6061 1.0585 0.8549 2.0316 1.7364 3.4098 1.8456 4.8719 0.3862 1.1606-1.1583 1.5263-1.9182 0.9232-1.9182-0.2232 0-1.0231-0.6251-1.7776-1.3891-1.718-1.7396-2.167-3.1054-1.9661-5.98 0.1422-2.0346 0.065-2.6851-0.3188-2.6851-0.1141 0-1.0038-0.534-1.9771-1.1866-1.7767-1.1914-4.9408-2.7821-5.534-2.7821-0.1747 0-0.97-0.3363-1.7675-0.7474-1.2221-0.6299-1.4626-0.874-1.5304-1.5537-0.1155-1.1587 0.45-1.2509 2.8141-0.4586 2.5276 0.847 6.8384 2.9074 7.4528 3.5621 0.073 0.078 0.7871 0.5438 1.5875 1.0362 1.7794 1.0947 3.8696 3.2263 5.2933 5.3979 1.3948 2.1276 1.731 3.3584 1.384 5.0666-0.1478 0.7276-0.2196 1.4053-0.1596 1.5061 0.2261 0.3791 2.4598 0.5254 3.3811 0.2213 1.022-0.3373 2.5366-1.9577 2.5366-2.7137 0-0.2579 0.1191-0.4689 0.2646-0.4689s0.2646-0.2824 0.2646-0.6276c0-0.5329-0.1682-0.6546-1.1133-0.8057-2.395-0.383-4.5319-1.8935-5.5406-3.9166-0.6226-1.2489-1.3301-2.8709-1.4029-3.2165-0.369-1.7524-0.1406-1.5815-6.4173-4.8039-1.776-0.9119-3.5625-1.8782-3.9698-2.1475-1.2335-0.8152-1.7149-1.0832-3.7811-2.1048-1.0914-0.5396-2.5202-1.3404-3.175-1.7797-1.3644-0.9152-4.8703-4.3837-6.5972-6.5269-0.645-0.8003-1.3043-1.5742-1.4653-1.7198-0.4677-0.4227-3.3146-4.0118-3.3146-4.1787 0-0.083-0.9823-1.6024-2.1828-3.3758-1.2006-1.7733-2.3019-3.4228-2.4474-3.6654s-0.4168-0.6154-0.6027-0.8283c-1.0169-1.1644-3.3438-4.52-3.9331-5.6719-0.3742-0.7314-0.8174-1.568-0.9847-1.859-1.5198-2.6424-2.8139-4.9724-2.8139-5.0664 0-0.063-0.2198-0.437-0.4885-0.8313-1.6133-2.3675-3.5736-5.4387-3.9197-6.1409-0.3424-0.6946-3.0428-4.5989-3.7625-5.4398-0.381-0.4452-1.1691-1.3793-1.7512-2.0757-1.3709-1.6402-1.7797-2.0912-5.1154-5.6448-1.641-1.7482-3.752-4.4007-5.1219-6.436-1.2817-1.9042-2.3304-3.5125-2.3304-3.574 0-0.062-0.4132-0.6869-0.9182-1.3899-2.1467-2.988-5.6846-10.937-6.3799-14.334-0.3505-1.7122-0.3726-2.2293-0.3569-8.3344 0.016-6.4018 0.072-7.5067 0.5384-10.716 0.1586-1.0914 0.2902-2.163 0.2923-2.3813 0-0.5416 2.0176-8.7331 2.3074-9.3927 0.1279-0.291 0.8882-1.8984 1.6895-3.5718 0.8012-1.6735 1.8988-4.4715 2.4389-6.2178 0.5401-1.7462 1.076-3.294 1.1908-3.4395 0.1148-0.1456 0.2923-0.7121 0.3945-1.2591 0.2021-1.0811 1.0275-2.3128 1.55-2.3128 0.1799 0 0.536 0.1527 0.7913 0.3394 0.4406 0.3222 0.4344 0.4606-0.1209 2.712-0.3218 1.3049-0.7301 2.6702-0.9073 3.034s-0.4692 1.2869-0.6489 2.0513c-0.1796 0.7645-0.4337 1.4561-0.5646 1.537-0.1309 0.081-0.238 0.355-0.238 0.609s-0.7291 1.8841-1.6202 3.6224c-3.6256 7.0724-5.0089 13.527-5.007 23.362 6e-4 2.859-0.036 5.853-0.082 6.6533-0.081 1.4132 0.5334 4.6725 1.1754 6.2392 2.4651 6.0161 4.4005 9.7688 6.7435 13.075 1.0827 1.528 2.278 3.2544 2.6563 3.8365 1.9094 2.9381 1.7998 2.8076 6.4439 7.6729 2.9075 3.046 6.2965 7.0068 6.7302 7.8658 0.2403 0.476 0.5825 1.101 0.7604 1.3889 2.6171 4.2362 6.7598 10.815 7.2997 11.592 0.3831 0.5515 1.0046 1.5635 1.381 2.249 2.06 3.7513 2.1851 3.9489 4.2226 6.6703 0.8171 1.0914 1.9523 2.6905 2.5227 3.5535 0.5703 0.863 1.244 1.8751 1.4971 2.249 0.253 0.3739 0.5393 0.8584 0.6362 1.0767 0.097 0.2182 0.5744 0.8931 1.0613 1.4997 0.4868 0.6066 0.8851 1.1682 0.8851 1.248 0 0.08 0.3882 0.536 0.8626 1.0138 0.4745 0.4778 1.4363 1.583 2.1373 2.4562 1.8281 2.2769 5.9968 6.4823 6.4257 6.4823 0.2002 0 0.364 0.119 0.364 0.2645 0 0.1456 0.098 0.2646 0.2187 0.2646 0.3058 0 5.5607 2.8542 5.8667 3.1864 0.073 0.079 1.5015 0.8275 3.175 1.6632 1.6735 0.8358 3.5189 1.8093 4.101 2.1634 0.9687 0.5893 2.6403 1.4172 3.9688 1.9656 2.3082 0.953 2.8923 1.2265 3.1476 1.4739 0.1606 0.1556 0.7682 0.5732 1.3503 0.9279 1.6881 1.0287 3.2951 2.6449 3.8577 3.8799 0.9574 2.1015 1.0839 2.5907 1.0665 4.1243-0.021 1.8428-1.266 5.0593-2.3513 6.0745-1.6414 1.5354-4.0575 2.0682-6.5246 1.4388l-1.2924-0.3297-1.2821 1.2822c-0.7052 0.7051-1.6943 1.4543-2.1981 1.6648-1.2784 0.5342-2.9917 0.4388-4.2403-0.2359zm5.7883-9.6249c-0.2546-0.5507-0.7383-1.3378-1.0751-1.7491l-0.6122-0.7479 0.026 0.8802c0.041 1.3514 0.3019 2.0296 1.1654 3.0242l0.7926 0.913 0.083-0.6596c0.046-0.3628-0.1254-1.1101-0.38-1.6608zm-9.2347 0.2663c-0.2254-1.0858-0.2573-1.1823-0.7231-2.1936-0.2346-0.5093-0.6605-1.2168-0.9463-1.5723l-0.5197-0.6464-0.2896 1.0432c-0.3808 1.3714-0.3675 1.8071 0.088 2.898 0.4705 1.1261 2.005 2.1721 2.3313 1.5891 0.1168-0.2088 0.1434-0.7119 0.059-1.118zm-11.503-0.4343c0-1.0269-0.4792-2.553-0.8018-2.553-0.1214 0-0.2964-0.2381-0.3888-0.5292-0.2372-0.7473-0.5754-0.6565-0.7388 0.1984-0.1664 0.8702 0.3048 2.3536 1.0087 3.1757 0.6996 0.817 0.9207 0.7469 0.9207-0.2919zm29.492-2.8624c-0.138-0.7169-1.1405-1.7875-3.0822-3.2917-1.502-1.1636-1.5031-1.164-1.2848-0.4028 0.4665 1.6267 2.4077 3.8624 3.5479 4.086 0.3098 0.061 0.6457 0.1266 0.7464 0.1464 0.1008 0.02 0.1335-0.2222 0.073-0.5379zm123.97 3.5862c-4.894-0.7987-6.6146-1.3094-6.6146-1.9634 0-0.7938 0.9326-1.1424 2.2109-0.8265 3.0072 0.7433 6.793 0.8629 24.38 0.7707l17.992-0.094 6.8791-0.8863c5.8612-0.7551 7.823-0.8958 13.257-0.951 3.5078-0.036 7.4369-0.1974 8.7313-0.3595 1.2944-0.162 5.8303-0.4639 10.08-0.6709 8.5392-0.4158 9.0103-0.5151 11.286-2.3803 1.4402-1.1802 2.2121-2.6064 3.8932-7.1932 1.7661-4.8187 1.7951-4.914 2.2366-7.3492 0.92-5.0746 0.994-9.514 0.8364-50.164-0.1712-44.156-0.2477-41.91 1.5556-45.683 1.3846-2.8976 4.9301-5.8299 8.4553-6.9928 3.4642-1.1429 9.6326-1.283 22.228-0.5049 4.8493 0.2996 6.5419 0.3019 10.054 0.014 2.364-0.1938 6.4362-0.3019 9.2502-0.2456 4.8322 0.097 5.0835 0.1284 6.4823 0.8181 2.3309 1.1493 6.4941 5.0625 7.5422 7.0893 0.7487 1.448 1.9803 6.8769 2.4975 11.009 0.5453 4.3576 0.7679 5.4902 1.9438 9.8901 0.4214 1.5764 0.7829 3.9439 0.9697 6.35 0.1639 2.1101 0.4745 5.2278 0.6904 6.9283 0.3146 2.4796 0.3845 6.4352 0.3526 19.976-0.035 14.702 0.015 17.124 0.3877 18.736 0.2352 1.0187 0.549 3.2809 0.6974 5.0271 0.5532 6.5085 1.1017 11.988 1.4699 14.684 0.2087 1.5279 0.4886 4.4738 0.6221 6.5463l0.2427 3.7682 1.9384 4.1362c3.024 6.4526 3.9561 7.0324 11.425 7.1078 3.5297 0.036 4.5033 0.1231 4.6923 0.4219 0.3479 0.5496 0.3004 0.9468-0.1691 1.4163-0.4882 0.4882-4.2966 0.5648-8.1129 0.1632-4.9254-0.5183-6.762-2.035-9.6729-7.9882-2.0074-4.1054-2.4214-5.3859-2.4257-7.5019-1e-3 -0.7276-0.238-3.7637-0.5257-6.7469-0.2876-2.9832-0.7105-8.2815-0.9396-11.774-0.2386-3.6375-0.634-7.3671-0.9255-8.7312-0.4406-2.0615-0.5136-3.5894-0.5435-11.377-0.059-15.288-0.3966-26.737-0.8595-29.104-0.2276-1.1641-0.5412-3.731-0.6968-5.704-0.1895-2.4027-0.5937-4.8493-1.2239-7.4084-0.5176-2.1015-1.1778-5.6554-1.4673-7.8976-0.5825-4.5124-1.0422-6.9067-1.8591-9.6816-0.5146-1.7481-0.6916-1.9962-3.1511-4.4175-1.4333-1.411-2.9994-2.7802-3.4803-3.0427-0.8096-0.442-1.8744-0.4781-14.368-0.4879-7.4216-0.01-16.63-0.1122-20.464-0.2364-7.673-0.2485-9.4092-0.094-12.477 1.1086-2.0555 0.806-4.3639 2.3188-5.4827 3.5929-0.8433 0.9605-1.725 3.0126-2.2144 5.1539-0.1907 0.8343-0.351 15.812-0.4904 45.822-0.2018 43.432-0.221 44.644-0.7438 46.964-0.2951 1.3097-0.8011 3.0361-1.1242 3.8365-0.3232 0.8003-0.9945 2.7005-1.4919 4.2224-1.0775 3.2974-2.4132 5.7884-3.6504 6.808-0.4962 0.4089-1.7698 1.212-2.8301 1.7846l-1.9278 1.0411-8.6091 0.4597c-4.735 0.2529-9.3235 0.5553-10.197 0.672-0.8732 0.1168-4.6236 0.2153-8.3344 0.2191-6.7648 0.01-7.8098 0.093-16.801 1.3919-2.4068 0.3476-6.1844 0.431-21.828 0.4823-10.405 0.034-19.215 0.013-19.579-0.046zm116.22-19.705c-0.7009-0.7342-0.2204-2.0927 0.7401-2.0927 0.3672 0 0.4624-0.4479 0.6048-2.8443 0.199-3.3482 0.434-4.2967 1.4684-5.9278 1.0414-1.6422 3.4254-2.8708 5.5633-2.867 2.4371 0 5.7171 1.9142 6.5049 3.7878l0.3185 0.7576 0.6957-1.1871c0.8235-1.4052 3.7721-4.1813 5.1209-4.8213 2.1348-1.0131 4.7557 0.066 7.9277 3.2649 2.0525 2.0698 2.853 3.8771 2.9508 6.6622 0.067 1.9028-0.01 2.3837-0.4688 3.1247-1.1901 1.9028-2.7446 2.0984-18.396 2.3143-10.299 0.142-12.762 0.1096-13.031-0.1713zm28.289-2.6905c0.534-0.2287 1.0995-0.6562 1.2568-0.9499 0.4051-0.757 0.3543-3.0679-0.091-4.1334-0.8701-2.0823-4.9478-5.4314-6.6131-5.4314-1.7151 0-4.7201 2.5949-5.7802 4.9913-0.3637 0.8222-0.5808 2.0098-0.6663 3.6443-0.1133 2.166-0.077 2.4345 0.3408 2.5169 0.2572 0.051 2.7433 0.022 5.5248-0.065 3.7234-0.1157 5.3132-0.2668 6.028-0.5729zm-14.332-0.5696c0-1.796-0.7358-5.2386-1.2774-5.9764-0.2671-0.3638-1.1254-1.0484-1.9075-1.5213-1.7232-1.0421-3.0723-1.117-4.7627-0.2646-1.6202 0.817-2.2546 2.1327-2.4832 5.1504-0.097 1.2782-0.2398 2.6515-0.3176 3.0517l-0.1416 0.7276h10.89zm7.9375-19.887c-5.4804-1.0404-12.621-2.7464-15.995-3.8216-1.3165-0.4194-3.4915-1.0005-4.8333-1.2912-1.3419-0.2908-2.6813-0.6579-2.9766-0.8159-0.8589-0.4597-0.6704-1.4425 0.4554-2.3746 2.3458-1.9422 12.574-6.5487 18.455-8.311 7.5208-2.254 8.6936-2.4414 9.0116-1.4396 0.2676 0.8431-0.5383 1.3736-3.1149 2.0505-1.2059 0.3167-3.5164 0.9355-5.1344 1.375l-2.9418 0.7991-0.183 2.493c-0.2594 3.5333 0.056 7.4683 0.6123 7.6361 2.8394 0.8568 6.2055 1.5076 8.9505 1.7305 1.8475 0.15 3.4631 0.3767 3.5902 0.5038s0.192 0.573 0.1442 0.9909c-0.087 0.7567-0.095 0.7601-2.0712 0.8058-1.0914 0.025-2.8773-0.1236-3.9687-0.3308zm-9.0962-5.0729c-0.078-0.4002-0.2221-2.3052-0.3196-4.2334-0.097-1.9281-0.2154-3.5057-0.2623-3.5057-0.8011 0-11.819 5.5238-11.055 5.5424 0.3112 0.01 1.6208 0.3323 2.9104 0.7215 3.1501 0.9507 7.7871 2.1578 8.385 2.1826 0.389 0.016 0.4561-0.1228 0.3417-0.7074zm5.7889-17.71c-2.5129-0.2746-4.7941-0.3256-8.4667-0.189-8.9366 0.3323-11.169 0.2948-11.66-0.1956-0.6625-0.6626-0.3011-1.3023 1.951-3.454 3.7641-3.5961 7.1312-5.6321 16.323-9.8699 0.5821-0.2684 1.7727-0.8159 2.6458-1.2167l1.5875-0.7287-11.346 0.046c-10.501 0.043-11.368 0.012-11.637-0.4119-0.2263-0.3564-0.187-0.5619 0.1769-0.926 0.4188-0.4191 1.1928-0.477 7.4038-0.5541 18.655-0.2317 20.778-0.2062 21.24 0.255 0.5758 0.5744 0.299 1.3823-0.617 1.8005-0.3974 0.1814-2.3894 0.9574-4.4267 1.7244-3.9198 1.4758-10.928 4.8476-14.023 6.7471-2.0157 1.237-4.6521 3.26-5.6686 4.3496l-0.6414 0.6876h1.5957c0.8777 0 3.1331-0.1286 5.0121-0.2859 2.7591-0.231 4.3405-0.2055 8.2208 0.1323 2.6425 0.23 5.9892 0.4182 7.4371 0.4182 2.902 0 3.4223 0.2422 3.1188 1.4518-0.1632 0.6502-0.218 0.6641-2.477 0.63-1.2705-0.019-3.8579-0.2041-5.7496-0.4109zm-383.46-11.845c-4.8513-1.1744-7.6641-4.5811-8.1509-9.8717-0.09-0.9804-0.2556-2.2956-0.3677-2.9228-0.438-2.4528-0.2501-4.8609 0.6543-8.3847 0.4855-1.8918 1.1408-4.0944 1.4563-4.8948 0.3154-0.8004 0.6818-1.8124 0.8142-2.2489 0.2472-0.8147 0.6271-1.7134 1.1186-2.6459 0.1534-0.291 0.6931-1.3031 1.1992-2.2489 1.2113-2.2637 3.0698-5.9818 3.5708-7.1438 0.2196-0.5093 0.7783-1.7595 1.2416-2.7781 2.0393-4.4841 2.2067-4.8614 3.0226-6.813 0.2281-0.5457 0.5812-1.3792 0.7847-1.8521 0.2034-0.473 0.5174-1.5329 0.6977-2.3553 0.2428-1.1076 0.482-1.5657 0.9222-1.7663 1.2486-0.5689 2.2245 1.1148 1.471 2.5377-0.1339 0.2527-0.5065 1.2061-0.8281 2.1187-0.3217 0.9126-0.6884 1.7233-0.8151 1.8015-0.1266 0.078-0.2302 0.3734-0.2302 0.6559 0 0.2824-0.119 0.5135-0.2646 0.5135-0.1455 0-0.2645 0.1603-0.2645 0.3562 0 0.3319-0.5009 1.5506-1.0754 2.6168-0.1362 0.2527-0.2476 0.6396-0.2476 0.8599 0 0.2202-0.119 0.4004-0.2645 0.4004-0.1456 0-0.2646 0.1904-0.2646 0.4231s-0.1624 0.7982-0.361 1.2568c-0.1985 0.4585-0.5687 1.3695-0.8226 2.0243-0.4179 1.0777-1.01 2.2975-2.6327 5.424-0.3022 0.5821-0.6089 1.1178-0.6816 1.1906-0.5789 0.5789-3.7042 7.0955-3.7042 7.7237 0 0.1464-0.1734 0.6413-0.3853 1.0999-0.2119 0.4585-0.7583 2.322-1.2142 4.141-0.7172 2.8616-0.8069 3.5925-0.6656 5.4239 0.09 1.1642 0.2079 2.3548 0.2624 2.6459 0.054 0.291 0.1784 1.184 0.2754 1.9843 0.7747 6.3912 3.9614 9.0839 10.224 8.6394 2.1748-0.1544 2.3522-0.1283 2.723 0.4011 0.5884 0.84 0.1351 1.3961-1.4333 1.7581-1.7127 0.3953-3.9536 0.3679-5.7644-0.07zm383.82-11.908c-0.091-0.091-4.7588-0.1715-10.374-0.1799-8.1627-0.012-10.268-0.086-10.501-0.3674-0.4307-0.519 0.1357-4.1496 0.9118-5.8449 0.9228-2.0156 2.5416-4.2907 4.0666-5.7152 1.6372-1.5293 5.7803-4.2807 7.1038-4.7175 1.4941-0.4931 6.669-0.179 8.9578 0.5437 3.1344 0.9897 6.6424 2.8371 7.7109 4.0607 1.367 1.5653 2.8675 4.9215 3.507 7.8436 0.3025 1.3824 0.6192 2.7599 0.7037 3.0611 0.3225 1.1488-0.3576 1.2982-6.3395 1.3925-3.0703 0.048-5.6565 0.014-5.7471-0.077zm9.9957-2.3454c0.1115-0.1116-1.6541-5.0462-2.1342-5.9644-1.2064-2.3077-3.9343-4.2941-7.4319-5.4117-2.1868-0.6987-5.9824-1.3017-7.0846-1.1255-1.3513 0.2161-3.2917 1.2103-5.8012 2.9723-2.1917 1.539-3.5585 2.9718-4.5823 4.8034-0.7359 1.3167-1.8463 4.238-1.6757 4.4086 0.382 0.3819 28.336 0.6909 28.71 0.3173zm-155.09-70.181c-2.1505-1.9336-6.698-5.4047-7.0807-5.4047-0.4997 0-0.9891-0.5496-0.9891-1.1107 0-0.4861 3.0688-5.6696 4.7195-7.9718 0.5037-0.7025 1.8208-2.0408 2.9268-2.9739 1.5493-1.3071 2.2048-1.6973 2.8553-1.6993 0.4643-1e-3 0.9186 0.1177 1.0095 0.2648 0.091 0.1471 0.2295 1.6056 0.308 3.2411 0.079 1.6356 0.16 2.9816 0.1811 2.9912 0.021 0.01 2.5387-0.1907 5.5946-0.445 6.4082-0.5333 15.601-1.0277 19.11-1.0277 1.8438 0 2.5147 0.099 2.832 0.4158 0.4979 0.4979 0.5469 1.5848 0.085 1.8837-0.1819 0.1178-2.831 0.2271-5.887 0.2431-3.0559 0.016-7.104 0.1704-8.9958 0.3433s-5.5912 0.3823-8.2209 0.4653c-6.5572 0.207-6.9926-0.028-6.9926-3.7801v-2.0513l-0.8162 0.7771c-1.1407 1.0862-2.3412 2.7639-4.4628 6.2368l-1.8273 2.9912 0.7748 0.3257c0.9478 0.3985 2.761 1.6337 4.6147 3.1436l1.3899 1.1321 0.178-1.342c0.2343-1.7657 0.7663-2.742 1.7798-3.2661 0.9191-0.4753 1.2952-0.4643 9.3493 0.2717 3.2254 0.2947 6.7995 0.4129 11.074 0.3662 5.9493-0.065 6.3327-0.04 6.6808 0.4359 0.4723 0.646 0.4643 0.7893-0.068 1.2314-0.6253 0.5188-18.172 0.519-21.839 2e-4 -1.4109-0.1996-2.9805-0.2849-3.488-0.1897-1.056 0.1981-1.3342 0.7864-1.6373 3.463-0.099 0.8731-0.2988 1.7363-0.4442 1.9182-0.4868 0.6092-1.3796 0.3199-2.7131-0.8791zm205.54-0.5801c-0.183-0.1173-0.3405-1.2265-0.3968-2.7957-0.1331-3.7065-0.3554-3.8101-6.0466-2.8178-4.4539 0.7767-10.51 0.9564-14.277 0.4238-2.0926-0.2958-4.9362-0.4287-9.1771-0.4287-3.4583 0-6.4493-0.1157-6.8412-0.2647-0.5555-0.2112-0.6793-0.4117-0.6125-0.9922 0.076-0.6572 0.2113-0.7443 1.4066-0.9027 2.5493-0.3377 9.4827-0.2227 12.568 0.2084 1.6735 0.2339 5.2532 0.4818 7.9549 0.5508 4.2771 0.1093 5.3375 0.049 8.2021-0.463 1.8094-0.3237 4.1299-0.644 5.1565-0.7118 1.7264-0.114 1.9296-0.07 2.7043 0.5816 0.8724 0.734 1.3782 2.0301 1.3807 3.5375l1e-3 0.8825 1.3891-1.0013c2.2338-1.6103 4.9568-4.0891 5.3704-4.889 0.5119-0.9899 0.2756-1.5392-1.8432-4.2841-1.6663-2.1587-3.3733-3.8936-3.8309-3.8936-0.1205 0-0.2808 0.7684-0.3562 1.7076-0.1479 1.8427-0.7276 3.1024-1.7875 3.8846-1.2259 0.9047-3.2513 1.1046-10.716 1.0576-7.207-0.045-7.2665-0.051-15.346-1.3703-3.1607-0.5162-6.4162-0.7773-9.7183-0.7794h-3.3684l-0.1669-0.6649c-0.1002-0.3992-0.024-0.837 0.1905-1.0956 0.3068-0.3697 0.7883-0.4088 3.403-0.2762 3.1265 0.1586 9.4345 0.8838 14.82 1.7039 3.8437 0.5853 16.627 0.6637 18.475 0.1133 1.4088-0.4196 1.7654-1.146 2.0357-4.1462 0.284-3.1528 0.6744-3.3781 3.217-1.8561 2.0066 1.2012 2.8119 1.9277 5.0885 4.5904 2.2581 2.6413 2.6695 3.3817 2.6695 4.8046 0 0.9264-0.1815 1.2772-1.2567 2.4292-2.2164 2.3745-8.7051 7.3663-9.5645 7.3581-0.233 0-0.5601-0.091-0.727-0.1984zm-166.68-2.2956c-0.3083-0.8033 0.063-1.2786 1.3831-1.7703 0.7438-0.2771 1.5507-0.7229 1.7932-0.9908 0.422-0.4664 0.3766-0.4946-1.067-0.6643-3.996-0.4696-5.7973-2.8373-4.3367-5.7003 1.0622-2.0821 4.1836-4.0784 6.1545-3.936 1.1002 0.079 1.1306 0.1066 1.1306 1.0077 0 0.8801-0.067 0.9474-1.3416 1.3558-2.7243 0.8727-4.6679 2.5771-4.1156 3.6091 0.4336 0.8101 0.9347 1.1086 2.5815 1.5375 2.0758 0.5407 3.008 1.4375 3.008 2.8937 0 1.2524-0.5919 1.9671-2.1779 2.6298-1.2488 0.5218-2.8171 0.5364-3.0121 0.028zm49.838-1.2273c-0.8671-0.505-0.4902-2.5066 1.3129-6.9728 1.5072-3.7333 1.5775-3.8539 2.2463-3.8539 1.1646 0 4.2486 4.1353 5.246 7.0342 0.5925 1.7222 0.6836 3.4504 0.1906 3.6163-0.721 0.2426-1.187-0.1638-1.6435-1.4332-0.4381-1.2184-0.5347-1.3152-1.1699-1.1729-0.3808 0.085-1.496 0.2326-2.4783 0.3271-1.709 0.1645-1.7859 0.2019-1.7859 0.8684 0 0.7891-0.6646 1.8766-1.1395 1.8645-0.1737 0-0.5241-0.1294-0.7787-0.2777zm5.8869-4.9075c0-0.2302-1.6012-3.0088-1.7338-3.0088-0.1436 0-1.0613 1.8313-1.2928 2.5797-0.1769 0.5722-0.1216 0.5953 1.4213 0.5953 0.8829 0 1.6053-0.075 1.6053-0.1662zm-39.746 4.2011c-0.871-0.9234-1.2614-2.3607-1.2633-4.6506-1e-3 -1.6309 0.071-1.8789 0.747-2.5547 0.7922-0.7923 2.2643-1.3236 3.674-1.326 1.0358 0 1.5778 0.7564 1.1338 1.586-0.3045 0.5688-0.5774 0.6326-2.3151 0.5409l-1.1245-0.059v0.9498c0 0.9292 0.023 0.9499 1.0411 0.9499 1.5789 0 2.452 0.4138 2.3507 1.1141-0.093 0.643-0.8081 0.9339-2.3996 0.9762-0.786 0.021-0.9922 0.1299-0.9922 0.5247 0 0.5925 0.7569 0.8402 1.9673 0.6438 1.071-0.1738 2.0014 0.2866 2.0014 0.9904 0 0.6787-0.9582 1.0425-2.7458 1.0425-1.172 0-1.4955-0.1135-2.0748-0.7276zm47.242-0.2359c-1.7469-0.3835-2.4693-2.3348-2.4693-6.6695 0-2.7392 0.1827-3.2149 1.2342-3.2149 0.9218 0 1.1471 0.7739 1.1471 3.941 0 2.6819 0.048 2.9631 0.5953 3.4821 0.534 0.5065 0.7899 0.5475 2.4861 0.3987 1.5196-0.1334 1.9718-0.085 2.3038 0.2471 0.5856 0.5856 0.2988 1.0695-0.835 1.4087-1.1817 0.3535-3.6712 0.5805-4.4622 0.4068zm-37.698-0.4961c-0.7538-0.2407-1.547-0.7543-2.0505-1.3277-0.7253-0.8261-0.8212-1.1225-0.8212-2.5389 0-2.0195 0.5337-2.9673 2.0965-3.7239 1.4245-0.6896 3.815-0.9486 4.3854-0.4752 0.4824 0.4003 0.5206 1.4248 0.067 1.7865-0.1819 0.145-0.978 0.3228-1.7691 0.3952-2.363 0.2163-3.1798 1.8763-1.584 3.219 0.9381 0.7895 1.5373 0.8509 2.6562 0.2723 1.9413-1.0039 3.032 0.1709 1.6228 1.748-0.6241 0.6986-0.991 0.8661-2.0661 0.9433-0.719 0.052-1.8604-0.083-2.5366-0.2986zm57.956-0.1962c-1.4959-0.9941-2.0897-2.5342-2.0897-5.4202 0-1.5104 0.143-2.8081 0.3689-3.349 0.7945-1.9015 2.7501-2.3039 4.6185-0.9504 1.1659 0.8446 1.3769 1.5337 0.6823 2.2284-0.5257 0.5256-0.5361 0.5247-1.5987-0.132-1.0613-0.6559-1.3269-0.5351-1.6763 0.7623-0.5282 1.9617 0.3815 4.8125 1.5357 4.8125 0.3179 0 0.3382-0.071 0.091-0.3175-0.4861-0.486-0.3778-1.4837 0.1943-1.7898 0.8345-0.4467 4.1415-0.3453 4.6287 0.1419 0.4919 0.4918 0.4961 0.5272 0.1419 1.1891-0.1763 0.3293-0.5536 0.5118-1.0584 0.5118-0.688 0-0.7844 0.094-0.7844 0.7623 0 0.5575-0.2441 0.9485-0.9084 1.4552-1.186 0.9046-2.8698 0.9433-4.1457 0.095zm-37.412-0.2499c-0.4365-0.3113-1.1049-0.85-1.4853-1.1972l-0.6915-0.6312-0.1623 0.8117c-0.2283 1.1415-1.2826 1.61-2.0569 0.9139-0.5018-0.4512-0.5468-0.7046-0.4219-2.3762 0.157-2.1015 1.2818-4.9355 2.4043-6.058 1.7465-1.7465 4.6626 0.1542 4.6626 3.039 0 0.9737-0.6139 2.2491-1.2568 2.611-0.4187 0.2357-0.3807 0.3458 0.3969 1.1502 0.5386 0.5571 0.8599 1.1568 0.8599 1.6046 0 0.6056-0.1113 0.7137-0.7276 0.7066-0.4002 0-1.0848-0.2631-1.5214-0.5744zm-0.4446-5.4365c0.1066-0.7505-0.6122-0.8105-1.0013-0.083-0.3955 0.7391-0.3454 0.8581 0.3215 0.7634 0.3825-0.054 0.6255-0.2973 0.6798-0.6798zm47.08 5.424c-0.8478-0.6529-1.2806-3.0707-1.2013-6.7104l0.074-3.4099 0.7808-0.089c1.1831-0.1347 1.4682 0.4807 1.4682 3.1691 0 1.2747 0.1307 2.9271 0.2905 3.6719 0.2372 1.1062 0.3705 1.3199 0.7276 1.1663 1.3506-0.5811 3.0405-0.421 3.3229 0.3148 0.2684 0.6993-0.2909 1.0883-1.8439 1.2823-0.8007 0.1-1.7794 0.3507-2.1749 0.557-0.8783 0.4583-0.9098 0.4593-1.4443 0.048zm15.211-0.4011c-0.2547-0.257-0.8711-2.0001-1.3699-3.8735-0.6967-2.617-1.0192-3.4357-1.3919-3.5331-0.631-0.165-0.906-1.2693-0.4524-1.816 0.2878-0.3467 0.7799-0.4023 2.7416-0.3101 3.3283 0.1565 4.9143 1.0327 6.096 3.3679 0.6395 1.2637 0.4011 3.4501-0.5058 4.6392-1.2813 1.6799-4.1247 2.5275-5.1176 1.5256zm2.3759-2.1696c1.6302-1.2824 1.504-3.1702-0.2937-4.3917-0.9153-0.622-1.8838-0.8526-1.8838-0.4487 0 0.5915 1.1926 5.3606 1.3405 5.3606 0.097 0 0.4733-0.2341 0.837-0.5202zm-75.718 1.9917c-0.1986-0.2393-0.3921-1.5297-0.476-3.1742l-0.1415-2.7711-1.4566-0.078c-1.6361-0.088-2.2762-0.6258-1.7461-1.4673 0.2539-0.403 0.8236-0.4724 4.396-0.5357 4.5547-0.081 5.5827 0.12 5.4483 1.0636-0.094 0.6636-0.8455 0.9103-2.9288 0.9622l-1.2568 0.031v2.4474c0 2.526-0.3356 3.701-1.0854 3.8454-0.228 0.044-0.5651-0.1016-0.7492-0.3234zm-27.077-0.2148c-0.3342-0.2504-0.4846-0.9592-0.6194-2.9193-0.098-1.4237-0.2793-2.6511-0.403-2.7276-0.1237-0.077-0.225-0.4269-0.225-0.7787 0-0.8939 1.0028-1.4669 2.8624-1.6355 3.6075-0.3271 5.7675 1.8052 4.4363 4.3795-0.5067 0.9798-1.4291 1.4229-3.0117 1.4468-1.2951 0.019-1.3267 0.039-1.4695 0.9195-0.1427 0.879-0.5841 1.6461-0.9472 1.6461-0.1 0-0.3802-0.1489-0.6229-0.3308zm3.1917-4.579c0.8077-0.5658 0.738-0.8553-0.2719-1.1293-1.0905-0.2958-1.2567-0.1949-1.2567 0.763 0 0.8981 0.5732 1.0354 1.5286 0.3663zm90.641 3.9135c-0.3335-0.2147-1.5526-4.9566-1.835-7.1379-0.2043-1.5778 0.1059-2.1846 1.1168-2.1846 0.4151 0 0.7125 0.2059 0.8597 0.5953 0.41 1.0845 1.3518 7.5616 1.1707 8.0516-0.1682 0.4552-0.5868 0.87-0.8779 0.87-0.073 0-0.2682-0.088-0.4343-0.1944zm15.452-0.3198c-0.3893-0.3062-0.7872-1.0114-0.9617-1.7047-0.4006-1.5908-0.3756-5.9352 0.039-6.7688 0.4651-0.9355 1.9798-1.5907 4.0849-1.7672 2.0562-0.1724 2.6495 0.1728 2.3497 1.3669-0.1569 0.6254-0.2696 0.6649-1.899 0.6649-2.1319 0-2.7557 0.2961-2.7557 1.3081v0.7604l2.7882 0.09c2.1179 0.069 2.8484 0.1856 3.0387 0.4871 0.3429 0.5433 0.323 0.6914-0.1572 1.1717-0.3226 0.3226-1.0093 0.4158-3.0638 0.4158h-2.6479l0.1745 0.8599c0.2101 1.0349 1.0014 1.7858 1.6916 1.6053 0.7769-0.2032 1.6611 0.3885 1.5654 1.0475-0.1497 1.0317-3.1129 1.3547-4.2467 0.4629zm-414.24-29.345c-1.0131-1.0131-2.5749-6.0888-2.3092-7.5048 0.223-1.1891 0.7118-1.6058 2.808-2.394 4.5138-1.6973 7.4083-2.9792 7.4083-3.281 0-0.4705 0.8589-0.9768 3.4396-2.0275 1.2369-0.5036 4.8683-2.187 8.0698-3.7408 5.8942-2.8607 7.7635-3.6811 26.723-11.727 19.873-8.434 22.758-9.6357 28.84-12.01 8.9939-3.5116 10.438-4.0351 15.081-5.4668 5.5593-1.7143 9.2887-3.0995 13.638-5.0654 1.9582-0.8853 5.8226-2.5705 8.5875-3.745 18.583-7.8938 22.149-9.5001 30.03-13.528 3.8563-1.9705 9.6904-4.8513 12.965-6.4017 6.5124-3.0837 12.002-5.7705 14.323-7.0106 0.8197-0.4379 2.0466-0.8724 2.7264-0.9656 1.1399-0.1563 1.3041-0.1034 2.112 0.6796 1.2767 1.2375 3.1436 5.3166 3.277 7.1601 0.094 1.3 0.022 1.5868-0.5827 2.3049-0.9066 1.0773-2.7379 2.2332-5.1866 3.2736-3.0631 1.3013-12.236 5.8553-15.478 7.6843-1.6007 0.9029-4.4346 2.2693-6.2975 3.0363-1.8629 0.7671-3.9465 1.7426-4.6302 2.1678-2.8457 1.7701-9.841 5.3361-11.562 5.894-1.7888 0.58-10.577 4.9309-15.743 7.7941-3.8902 2.1562-16.405 8.6142-23.132 11.937-6.0334 2.98-6.821 3.2907-13.645 5.3839-9.4435 2.8968-14.342 4.75-21.167 8.0068-3.0168 1.4397-6.4113 2.8906-11.509 4.9193-1.4552 0.5791-3.8364 1.5467-5.2916 2.1503-3.1823 1.3197-5.4033 1.9973-12.7 3.8742-7.3147 1.8815-8.1683 2.1181-11.906 3.3007-1.7462 0.5524-4.2466 1.3204-5.5562 1.7067-1.3097 0.3863-3.3338 1.1251-4.498 1.6419-5.5972 2.4846-7.8118 2.9741-8.8331 1.9528zm6.2499-3.06c2.1581-0.9387 5.8134-2.254 8.1228-2.9229 2.3094-0.6688 4.3989-1.3231 4.6435-1.454 0.9637-0.5158 6.9882-2.2068 11.38-3.1945 2.5466-0.5726 5.4636-1.2723 6.4823-1.5547 4.7911-1.3287 16.856-6.0478 23.084-9.0294 7.4016-3.5434 14.45-6.2793 22.689-8.8074 5.2575-1.6132 11.722-4.3193 17.595-7.3655 2.11-1.0944 5.7414-2.975 8.0698-4.179 5.3886-2.7864 13.129-6.8617 18.388-9.6815 2.2556-1.2093 5.4799-2.7873 7.1651-3.5067 3.0438-1.2993 6.308-2.9636 10.502-5.3542 1.2039-0.6863 3.6447-1.8725 5.424-2.636s5.8603-2.7109 9.0689-4.3275c3.2086-1.6167 7.7477-3.8803 10.087-5.0303 5.2223-2.5673 6.7024-3.5821 6.6979-4.5924 0-0.849-1.4957-4.3807-2.3681-5.6059-0.73-1.0251-1.027-0.9839-3.6015 0.4995-1.0078 0.5808-4.035 2.0048-6.7272 3.1646-2.6921 1.1598-10.134 4.7444-16.536 7.9657-6.403 3.2214-13.13 6.4904-14.949 7.2646s-4.736 2.0574-6.4823 2.8517c-1.7462 0.7943-4.3061 1.8937-5.6885 2.4431-2.9505 1.1727-10.801 4.5512-14.952 6.4347-2.6058 1.1823-12.217 4.8141-12.75 4.8178-1.3648 0.01-19.503 6.8952-28.389 10.777-1.6735 0.7311-4.0547 1.7484-5.2917 2.2606-1.2369 0.5122-5.8803 2.4786-10.319 4.3699-4.4384 1.8912-9.6771 4.0974-11.642 4.9027-4.6215 1.8943-10.768 4.657-15.676 7.0459-2.9506 1.4361-3.9026 2.0197-3.9026 2.3923 0 0.2711-0.3275 0.7229-0.7276 1.0039-1.2876 0.9044-13.349 5.9788-14.9 6.2685-1.631 0.3047-1.6418 0.3541-0.6391 2.9083 0.9834 2.505 1.5748 3.5774 1.9728 3.5774 0.1353 0 2.0118-0.768 4.17-1.7067zm395.18-3.6121c-1.0052-0.2908-1.9893-1.4455-1.8805-2.2063 0.085-0.5947 0.3404-0.6195 2.7939-0.271 1.1724 0.1665 1.4809 0.1185 1.9464-0.3025 0.7247-0.6554 1.4641-2.1266 1.6995-3.3813l0.1884-1.0043-0.8716 0.4507c-0.6158 0.3185-1.2614 0.4133-2.2004 0.323-1.0961-0.1053-1.4771-0.2894-2.1754-1.0515-0.9211-1.0051-1.4352-2.7692-1.4352-4.9252 0-1.3873 0.3292-1.892 1.2342-1.892 0.8204 0 1.1471 0.7384 1.1471 2.5928 0 1.1869 0.1336 1.739 0.5483 2.2663 1.1193 1.423 2.5448 0.6838 3.5028-1.8164 0.6653-1.7362 1.3255-2.1261 2.17-1.2817 0.4113 0.4113 0.4477 0.8259 0.3088 3.5198-0.2795 5.4245-1.3218 7.7656-3.9454 8.8618-1.0869 0.4541-1.7759 0.4809-3.0309 0.1178zm-25.106-1.2215c-0.4133-0.4133-0.4382-0.9608-0.2723-5.9914 0.1004-3.0452 0.3008-5.7575 0.4453-6.0275 0.1445-0.2699 0.5496-0.4908 0.9003-0.4908 0.7771 0 2.4644 1.9833 4.3048 5.06l1.2567 2.1009 0.1327-2.5094c0.1365-2.5794 0.3803-3.1824 1.2213-3.0204 0.7016 0.1351 0.9574 1.9259 0.7626 5.3384-0.1984 3.4745-0.4102 4.143-1.313 4.143-0.4955 0-0.8434-0.2863-1.3667-1.1245-0.3861-0.6185-1.4272-2.2494-2.3135-3.6243l-1.6114-2.4998-0.2159 1.1769c-0.1187 0.6473-0.1391 2.4004-0.045 3.8957 0.142 2.2622 0.099 2.8288-0.2582 3.3735-0.5037 0.7687-0.9979 0.8294-1.6275 0.1997zm-58.387-0.3601c-0.391-0.2277-0.463-0.6718-0.463-2.8538 0-5.2164 1.2294-8.3958 3.7572-9.7163 2.2041-1.1515 4.974 0.3516 4.974 2.6992 0 1.1288-1.1523 2.8058-2.5197 3.6668l-1.2484 0.7862 0.8919 0.669c2.0294 1.5223 3.1599 2.7803 3.2167 3.5792 0.09 1.262-0.823 1.1859-2.539-0.2118-1.5744-1.2824-3.7626-2.8306-4.0007-2.8306-0.083 0-0.1508 0.8249-0.1508 1.8332 0 2.3513-0.6281 3.1303-1.9182 2.3789zm3.638-7.9431c1.3118-0.3576 2.249-1.1925 2.249-2.0037 0-0.4982-0.1417-0.6153-0.7443-0.6153-0.7636 0-1.6589 0.7636-2.5592 2.1828-0.5167 0.8145-0.4439 0.8446 1.0545 0.4362zm46.713 7.4665c-0.6747-0.121-1.0537-0.4048-1.4553-1.0897-0.4693-0.8005-0.555-1.47-0.6324-4.938-0.1367-6.1347 0.1713-6.5085 5.2597-6.3821l3.0319 0.075v1.8521l-2.7686 0.076c-1.8063 0.05-2.8395 0.1875-2.9725 0.3969-0.1122 0.1764-0.2058 0.9459-0.208 1.7099v1.389h1.9338c2.1739 0 2.9976 0.374 2.7238 1.2366-0.2046 0.6447-1.7035 1.1447-3.4315 1.1447-0.9899 0-1.2268 0.089-1.2297 0.463 0 0.2547-0.075 0.7309-0.1632 1.0583-0.1552 0.5792-0.105 0.5953 1.8557 0.5953 1.6625 0 2.1079 0.093 2.5444 0.5292 0.9382 0.9382 0.6015 1.4203-1.2697 1.8184-1.4899 0.3169-1.7773 0.3227-3.2144 0.065zm-37.32-0.3681c-1.1375-0.5656-1.6153-1.99-1.7784-5.3022-0.2555-5.189 0.3018-5.8485 4.9534-5.8622l2.7782-0.01v1.852l-5.2917 0.074-0.08 1.3517-0.08 1.3516h1.572c1.1059 0 1.7424 0.138 2.1467 0.4654 1.1692 0.9468 0.019 1.6406-2.7319 1.6484-1.0089 0-1.0226 0.016-0.8584 0.8376 0.092 0.4591 0.2982 0.9928 0.4586 1.1861 0.3589 0.4325 1.9268 0.8862 3.0693 0.8881 0.9822 0 1.5062 0.6685 1.0983 1.3974-0.2097 0.3746-0.6435 0.4555-2.425 0.4523-1.1933 0-2.4673-0.1519-2.8311-0.3328zm11.774-0.5286c-1.955-1.0937-2.7695-3.9868-1.9536-6.9399 0.4273-1.5468 1.9029-2.8315 3.8853-3.3826 2.4305-0.6758 3.3066-0.6007 4.4226 0.3792 1.4246 1.2508 1.8086 2.1848 1.8533 4.507l0.039 2.0328 1.1683 0.8911c1.263 0.9633 1.5356 1.8978 0.7063 2.4209-0.3474 0.2192-0.6102 0.1996-1.0584-0.079-0.3279-0.2035-0.805-0.4994-1.0601-0.6576-0.3419-0.2118-0.5856-0.1999-0.9261 0.045-1.7987 1.2947-2.0524 1.3814-4.034 1.378-1.5586 0-2.2114-0.1304-3.0427-0.5954zm4.7367-1.8612c0.4306-0.3148 0.3494-0.4256-0.9215-1.2568-1.677-1.0968-2.0783-1.6495-1.6702-2.3005 0.47-0.7498 1.3323-0.6858 2.6105 0.1936l1.1976 0.824v-1.0842c0-1.304-0.5906-2.5453-1.3216-2.7773-0.7577-0.2405-3.2522 0.5432-3.8573 1.2119-0.3894 0.4302-0.5096 0.9557-0.5096 2.2273 0 1.7525 0.4318 2.5842 1.5875 3.0572 0.8234 0.337 2.363 0.2862 2.8846-0.095zm-41.386 1.5243c-0.1408-0.3702-0.5557-2.4729-0.9221-4.6727-0.6064-3.6408-0.6298-4.0552-0.2606-4.6186 0.4154-0.634 1.5422-0.85 1.8486-0.3544 0.096 0.155 1.6245 0.2646 3.6904 0.2646 2.9715 0 3.6175 0.073 4.1016 0.4653 0.79 0.6397 0.4722 1.2853-0.7305 1.4842-0.5369 0.089-2.256 0.1627-3.8204 0.1643h-2.8443v0.8599c0 0.4729 0.091 0.9919 0.1985 1.1534 0.1084 0.1637 1.4772 0.3779 3.0963 0.4845 2.9383 0.1935 3.8482 0.4345 3.8409 1.0172-0.011 0.8904-0.4834 1.0509-3.4809 1.1832l-3.0154 0.133 0.104 0.891c0.1709 1.4633-0.1317 2.2153-0.8913 2.2153-0.4668 0-0.7387-0.1992-0.9189-0.6731zm52.767 0.4167c-1.6897-0.6835-2.7173-3.2454-2.9457-7.344-0.1628-2.9217 0.021-3.5121 1.0947-3.5121 1.0307 0 1.2108 0.4874 1.2169 3.294 0.01 3.6753 0.843 5.4372 2.5765 5.4372 1.2163 0 1.7313-1.1976 2.8897-6.7209 0.2348-1.1192 0.8182-1.6622 1.5035-1.3993 0.6567 0.252 0.5852 3.6015-0.1261 5.9095-0.774 2.5114-1.374 3.5881-2.301 4.129-0.8381 0.489-2.9363 0.5999-3.9085 0.2066zm32.301-0.1604c-1.1479-0.5986-1.7073-1.1671-2.3097-2.3474-1.0668-2.0902-0.1532-5.4009 1.9586-7.0982 1.585-1.2738 4.459-1.2635 4.4475 0.016-0.01 0.8032-0.4437 1.1824-1.4533 1.2625-1.9543 0.1551-3.4186 2.5355-2.7696 4.5022 0.3484 1.0556 0.9243 1.4359 2.1746 1.4359 1.8799 0 2.3171 1.269 0.7551 2.1917-0.9524 0.5627-1.7747 0.5736-2.8032 0.037zm75.185-10.608c-0.5998-0.5998 0.2956-1.885 2.8594-4.1044 2.2938-1.9857 2.6341-2.4747 1.5623-2.2459-0.4189 0.089-8.5602 0.2858-18.092 0.4362-11.444 0.1806-18.598 0.4051-21.064 0.661-3.1127 0.323-8.3038 0.3667-31.221 0.2629-15.118-0.068-30.404-0.2395-33.97-0.3801-10.333-0.4074-35.532-0.5798-41.54-0.2842-2.9832 0.1467-7.448 0.4542-9.9219 0.6833-2.8557 0.2644-8.7966 0.4694-16.272 0.5615-10.255 0.1263-12.354 0.083-16.272-0.3378-3.6327-0.3899-6.8136-0.4868-16.536-0.5038-12.891-0.023-12.929-0.026-14.358-1.3896-0.9511-0.9073-1.1679-1.8538-1.3778-6.015-0.095-1.8918-0.3399-5.047-0.5433-7.0115-0.5648-5.4553-0.6678-9.2462-0.7725-28.443-0.068-12.501-0.2016-18.663-0.4524-20.902-0.2464-2.2-0.3511-6.7091-0.3411-14.684 0.013-10.035 0.089-12.17 0.5944-16.669 1.1951-10.633 1.7127-30.835 0.983-38.365-0.2327-2.4011-0.5881-5.3777-0.7896-6.6146-0.2016-1.2369-0.4494-2.9404-0.5506-3.7854l-0.1841-1.5364-1.1638 1.7349c-0.9955 1.4838-1.2771 1.7348-1.947 1.7348-0.6157 0-0.8188-0.1421-0.9499-0.6646-0.13-0.5179 0.1064-1.0584 1.0702-2.4474 2.5376-3.6571 3.7637-5.2242 4.1445-5.2975 0.2156-0.042 2.0916 1.585 4.1691 3.6144 3.3142 3.2377 3.7666 3.7817 3.6912 4.4387-0.1486 1.2943-0.8736 1.0672-3.034-0.9505-1.1055-1.0324-2.3695-2.133-2.8088-2.4459l-0.7988-0.5687 0.1505 2.756c0.083 1.5159 0.4158 4.7207 0.7401 7.1218 0.793 5.8728 1.0415 21.41 0.4019 25.133-0.2229 1.2973-0.5395 4.4776-0.7037 7.0673-0.1641 2.5898-0.5048 6.8518-0.7571 9.4712-0.403 4.1848-0.433 6.367-0.247 17.992 0.1165 7.2761 0.3407 18.051 0.4983 23.945s0.3851 16.014 0.5056 22.49 0.3519 12.846 0.5142 14.155 0.4601 4.547 0.6618 7.1941c0.4081 5.355 0.6863 6.1439 2.348 6.659 0.4705 0.1458 5.2608 0.3406 10.645 0.4329 5.3842 0.092 12.327 0.3391 15.428 0.5488 8.977 0.6068 26.889 0.5276 35.108-0.1552 5.3534-0.4447 10.121-0.5908 25.003-0.7659 10.114-0.1189 19.639-0.1203 21.167 0 1.5279 0.1173 4.4997 0.3465 6.604 0.5094 5.9084 0.4572 57.211 0.1337 62.836-0.3963 2.8426-0.2678 9.9591-0.4796 21.532-0.6409 9.5071-0.1325 17.341-0.2967 17.41-0.3649 0.3624-0.3624-4.2157-2.5669-5.3307-2.5669-0.5204 0-0.7988-1.2305-0.3898-1.7232 0.5766-0.6949 1.9897-0.4462 4.342 0.7643 2.7053 1.392 4.6932 2.9986 5.3047 4.2874 0.6327 1.3333 0.2166 2.1759-1.8932 3.834-0.9368 0.7361-2.352 1.926-3.1451 2.6442-1.3301 1.2045-2.3627 1.6141-2.8474 1.1294zm-473.65-5.5304c-3.6839-0.583-6.1711-1.7949-8.294-4.0411-1.8636-1.9719-2.5818-3.0393-4.3899-6.524-1.4294-2.755-2.6491-4.6549-3.114-4.8507-0.1152-0.049-0.2094-0.247-0.2094-0.441s-0.094-0.3924-0.2094-0.441c-1.0993-0.4629-3.833-6.6041-4.1616-9.3486-0.1688-1.4096-0.4652-3.4153-0.6647-4.4979-0.4581-2.4862-0.5076-2.9017-0.6609-5.5504-0.1617-2.7945-0.3027-4.2531-0.5377-5.5621-0.3497-1.9489-0.4774-10.081-0.2563-16.325 0.071-1.9922-0.06-3.0478-0.7788-6.2971-0.4885-2.2086-1.2425-5.3153-1.4448-5.9531-0.2754-0.8685-1.2513-5.9838-1.4638-7.6729-0.3033-2.41-1.1245-5.9924-2.1836-9.525-0.2181-0.7276-0.5491-1.8587-0.7355-2.5135-0.7014-2.4635-4.7167-12.092-5.7763-13.852-0.6065-1.0069-1.3853-2.311-1.7307-2.898s-1.2176-2.5018-1.9383-4.255c-0.7206-1.7532-1.6584-3.7035-2.084-4.334-0.4255-0.6305-0.7736-1.2495-0.7736-1.3756s-0.089-0.269-0.1985-0.3175c-0.3399-0.1511-1.7648-2.4177-2.2162-3.5253-0.5005-1.2284-0.3975-1.6721 0.4641-1.9997 0.9158-0.3482 1.3228-0.086 2.2197 1.4287 1.2229 2.0653 1.4379 2.4091 1.5969 2.5529 0.4474 0.4047 1.3955 2.3141 2.3649 4.7625 1.2919 3.2632 3.1286 7.129 3.6231 7.6257 0.1914 0.1923 0.348 0.5098 0.348 0.7056 0 0.1957 0.09 0.3956 0.2008 0.4441 0.3426 0.1505 1.6348 2.8423 3.1541 6.5705 0.8005 1.9645 1.6317 3.9291 1.847 4.3656 0.416 0.8438 1.4262 3.7984 1.8996 5.5563 0.1568 0.5821 0.4356 1.5346 0.6195 2.1166 0.1839 0.5821 0.3547 1.237 0.3794 1.4552 0.065 0.5785 0.8844 6.5865 1.0458 7.673 0.2637 1.7744 1.2066 6.4881 1.461 7.3034 0.1409 0.4516 0.3017 1.0469 0.3573 1.3229 0.056 0.276 0.2421 0.859 0.4145 1.2955 0.1724 0.4366 0.4901 1.4486 0.706 2.249 0.2158 0.8004 0.461 1.6933 0.5449 1.9844 0.084 0.291 0.1858 4.2796 0.2268 8.8635 0.073 8.1595 0.1316 9.5978 0.4659 11.41 0.2933 1.5899 0.4148 2.9482 0.5599 6.2606 0.078 1.7876 0.2539 3.7521 0.3902 4.3656 0.1364 0.6134 0.3173 1.7107 0.4021 2.4383 0.085 0.7276 0.2077 1.5015 0.2732 1.7198 0.066 0.2182 0.1783 0.8136 0.2507 1.3229 0.3813 2.6834 2.0957 7.116 3.07 7.9375 0.3794 0.3199 2.7766 3.8219 3.0788 4.4979 0.098 0.2183 0.2599 0.4564 0.3606 0.5292 0.1008 0.073 0.6551 1.0979 1.2319 2.2782 1.1838 2.4227 1.8409 3.4094 3.3762 5.0701 1.8126 1.9606 3.5944 2.839 7.4182 3.657 0.8221 0.1758 7.7963 0.1369 9.1281-0.051 1.1823-0.1668 6.3588-2.0948 6.6138-2.4633 0.073-0.1059 0.907-0.6596 1.8529-1.2305 0.9459-0.571 1.7793-1.1011 1.8521-1.1781 0.073-0.077 0.4299-0.2857 0.7937-0.4635 0.7176-0.3509 1.6407-0.9096 1.8521-1.1211 0.261-0.261 2.6642-1.852 2.7974-1.852 0.075 0 0.4571-0.2977 0.8495-0.6615 0.3923-0.3638 0.8535-0.6615 1.0247-0.6615 0.1713 0 0.3511-0.096 0.3996-0.2124 0.049-0.1168 0.8621-0.677 1.808-1.245s1.8771-1.1868 2.0694-1.3751c0.1923-0.1884 0.4377-0.3425 0.5454-0.3425s0.4266-0.2105 0.7087-0.4679c1.4931-1.3621 5.5558-4.0475 7.789-5.1484 0.3638-0.1793 0.721-0.3994 0.7937-0.489 0.1242-0.153 0.8361-0.5575 2.3813-1.3531 0.3638-0.1873 0.8188-0.4908 1.0111-0.6744s0.4498-0.3338 0.5722-0.3338 0.8553-0.4167 1.6287-0.9261c0.7734-0.5093 1.5492-0.926 1.724-0.926s0.4917-0.1739 0.7043-0.3864c0.6543-0.6544 12.998-5.4355 15.791-6.1162 0.2183-0.053 0.8732-0.2191 1.4553-0.3686 0.582-0.1495 1.475-0.3365 1.9843-0.4156 0.5093-0.079 1.5214-0.2524 2.249-0.3853s2.0968-0.3141 3.0427-0.4026c4.2141-0.3942 6.1408-0.656 6.8792-0.9347 1.3087-0.494 3.9286-0.6651 9.2604-0.6049 3.7124 0.042 6.1336-0.057 7.6729-0.3137 1.2369-0.2062 3.3205-0.4406 4.6302-0.5208 3.9434-0.2417 5.7716-0.4192 6.0424-0.5866 0.1414-0.087 0.5209-0.1878 0.8433-0.2232 1.2682-0.1392 6.9768-2.6316 7.5341-3.2894 0.073-0.086 1.0253-0.7967 2.1167-1.5796s2.024-1.5226 2.0725-1.6438c0.049-0.1211 0.2059-0.2203 0.3497-0.2203 0.1437 0 0.4273-0.1488 0.6302-0.3307 0.2028-0.1819 0.5217-0.4554 0.7087-0.6077 0.6212-0.5063 2.4339-1.1026 4.3086-1.4175 1.0187-0.1711 2.532-0.4304 3.3629-0.5763s1.8429-0.3127 2.2489-0.3708c1.2384-0.1771 3.764-0.9079 4.56-1.3196 0.8524-0.4408 2.396-1.9077 2.396-2.2769 0-0.5037-0.1561-0.6027-1.0584-0.6713-2.336-0.1777-4.2307-1.6451-4.9146-3.8063-0.2533-0.8003-0.4892-1.5823-0.5242-1.7376-0.073-0.3231-4.0337-1.319-6.2028-1.5596-1.6462-0.1826-2.2542-0.6153-1.9981-1.4222 0.2091-0.6588 0.7074-0.8374 2.4168-0.8663 1.534-0.026 10.427 1.73 11.614 2.2932 1.1418 0.5418 2.7844 1.9362 2.7844 2.3637 0 0.1956 0.1254 0.3974 0.2786 0.4484 0.3321 0.1107 0.7646 1.841 0.7734 3.0942l0.01 0.894 1.3416-0.178c1.7058-0.2262 3.9092-1.1963 4.8464-2.1335 0.791-0.7909 1.1909-1.648 1.3312-2.8529 0.084-0.7201 0.042-0.7611-0.6057-0.5869-3.5213 0.9473-5.4792-0.1825-7.4574-4.3033-0.6399-1.3331-1.0581-1.9015-1.4043-1.9091-0.2711-0.01-1.5213 0.2484-2.7781 0.5651-1.7261 0.4349-3.0618 0.5744-5.4601 0.5703-3.7489-0.01-5.1594-0.4203-5.1594-1.5139 0-0.3626 0.1458-0.7494 0.324-0.8596 0.1782-0.1101 2.1725-0.222 4.4318-0.2487 4.2328-0.05 4.4329-0.071 6.8859-0.7378 1.3922-0.3782 4.5824-0.4135 6.058-0.067 2.1133 0.4961 4.5254 1.7278 5.7167 2.9191 0.6692 0.6693 1.9836 3.6077 1.9836 4.4346 0 0.4259 0.2396 0.4835 2.0097 0.4835 2.9117 0 3.9804-0.7347 4.0782-2.8035 0.094-1.9819 0.1714-1.9002-1.7884-1.8796-1.217 0.013-2.0649-0.128-2.6616-0.4421-1.1716-0.6167-2.9608-2.2548-2.9608-2.7108 0-0.2013-0.1061-0.3661-0.2359-0.3661-0.1297 0-0.4264-0.4762-0.6593-1.0583-0.3677-0.9189-0.6156-1.145-1.2215-1.1143-4.7683 0.2423-5.5004 0.3326-8.0053 0.987-2.49 0.6505-2.6611 0.691-3.3266 0.7887-0.3549 0.052-0.8318-0.1252-1.1245-0.4178-0.8567-0.8567-0.6087-1.2879 1.0793-1.8765 3.6464-1.2715 6.2469-1.7018 11.566-1.914 1.9942-0.08 5.7545 0.7093 7.3521 1.5423 0.4365 0.2276 0.9211 0.4146 1.0768 0.4155 0.5727 0 1.9684 1.5276 2.5009 2.7314 0.3014 0.6814 0.5875 1.239 0.6357 1.239 0.441 0 2.0359-0.8975 2.6034-1.4651 0.8433-0.8433 1.1175-2.0432 0.8597-3.7622-0.3235-2.1579-0.4125-2.2134-2.1746-1.3567-1.3214 0.6423-1.781 0.7318-3.3273 0.6475-0.9868-0.054-1.969-0.2429-2.1828-0.4203s-0.3887-0.2509-0.3887-0.1632c0 0.249-2.386-1.1199-3.6852-2.1141-0.6443-0.4932-1.3587-0.8427-1.5875-0.7767-0.3939 0.1137-1.1093 0.2018-4.5169 0.5566-0.8004 0.083-1.9687 0.2663-2.5963 0.4066-1.1694 0.2615-2.4208 0.4148-5.2089 0.6382-0.8731 0.07-2.2302 0.2605-3.0158 0.4233-1.7305 0.3588-4.7107 0.4359-6.5092 0.1684-2.7527-0.4093-3.1962-0.4903-3.9688-0.7246-0.4365-0.1324-1.0914-0.2962-1.4552-0.364-0.8342-0.1553-4.8164-1.1252-6.2177-1.5143-0.5821-0.1616-1.5346-0.5075-2.1166-0.7687-1.7544-0.7871-6.526-2.5326-7.9375-2.9035-0.7276-0.1912-1.4718-0.4628-1.6537-0.6036s-0.3307-0.1852-0.3307-0.099c0 0.2472-4.5548-1.4226-5.2917-1.9399-0.3638-0.2554-0.9591-0.5562-1.3229-0.6683-0.3638-0.1122-1.733-0.7085-3.0427-1.3252-3.4826-1.6398-4.6384-2.1386-5.8208-2.5121-0.5821-0.1838-1.5346-0.5464-2.1167-0.8057s-2.1299-0.8827-3.4396-1.3853c-1.3097-0.5027-2.6194-1.0065-2.9104-1.1197-0.2911-0.1132-0.6482-0.2344-0.7938-0.2695-0.1455-0.035-1.9909-0.4827-4.101-0.9948-3.3427-0.8113-4.541-1.0554-7.9375-1.617-1.2518-0.207-3.3093-0.7128-4.3656-1.0733-2.0118-0.6865-5.5582-2.0031-6.0854-2.2592-0.2911-0.1413-1.3626-0.5655-2.3813-0.9426-2.1184-0.7842-7.4667-3.4089-8.0906-3.9705-0.2298-0.2068-0.506-0.376-0.6138-0.376-0.1929 0-2.5466-1.5408-2.805-1.8361-0.073-0.083-0.5701-0.4775-1.1053-0.8762-1.0787-0.8037-3.4649-3.243-3.6315-3.7123-0.059-0.1652-0.386-0.6017-0.7276-0.97-0.3415-0.3684-0.621-0.7655-0.621-0.8825s-0.2976-0.5337-0.6614-0.926c-0.3638-0.3924-0.6615-0.8091-0.6615-0.9261 0-0.1169-0.2977-0.5337-0.6615-0.926s-0.6614-0.8535-0.6614-1.0247c0-0.1713-0.089-0.3511-0.1985-0.3996-0.2879-0.128-1.9182-2.5706-1.9182-2.8741 0-0.1412-0.089-0.2576-0.1984-0.2585-0.6569-0.01-6.2129-11.732-6.8063-14.365-0.3833-1.701-0.6735-3.2512-0.8168-4.3637-0.2196-1.7046-0.4909-2.7999-1.1933-4.8177-2.593-7.4489-2.7473-8.2206-1.767-8.8352 0.7691-0.4821 1.2802 0.1027 2.184 2.4988 1.0152 2.6917 1.9524 5.4891 2.1057 6.2853 0.062 0.3202 0.1732 0.6811 0.2479 0.8019 0.1316 0.2129 0.3654 1.3303 0.5626 2.6887 0.053 0.3638 0.2242 1.5456 0.3809 2.6263 0.1567 1.0806 0.4801 2.5689 0.7186 3.3072 0.8894 2.7539 3.103 8.2436 3.5696 8.8527 0.2659 0.3471 0.4834 0.7665 0.4834 0.9321s0.4167 0.9339 0.926 1.7072c0.5093 0.7734 0.926 1.4604 0.926 1.5266 0 0.1286 1.1474 1.6756 3.5706 4.8141 0.823 1.0659 1.9241 2.6678 2.4468 3.5597 1.5291 2.6091 3.9548 4.7294 8.0055 6.9977 0.8004 0.4482 1.9315 1.0841 2.5136 1.413 1.9398 1.0963 5.0144 2.5586 6.0854 2.8944 0.5821 0.1824 1.2255 0.4651 1.4297 0.628 0.2043 0.1629 0.4424 0.2816 0.5292 0.2638 0.2866-0.059 3.7256 1.0193 5.1849 1.6257 1.6646 0.6917 4.8156 1.4549 7.8052 1.8905 1.5936 0.2321 8.013 1.6344 9.2604 2.0228 1.0093 0.3143 4.246 1.6291 7.276 2.9555 1.2573 0.5504 8.1329 3.2248 8.8636 3.4477 0.3638 0.1109 1.6139 0.649 2.7781 1.1957 3.507 1.6469 4.5851 2.1081 4.9283 2.1081 0.18 0 1.2283 0.3103 2.3297 0.6896 3.5616 1.2266 6.4815 2.2743 7.2941 2.6174 0.4365 0.1843 1.1509 0.457 1.5875 0.6059 0.4365 0.1489 1.0318 0.361 1.3229 0.4712 0.703 0.2662 0.6267 0.2473 1.9844 0.4914 1.6431 0.2953 1.7013 0.3084 4.2333 0.9539 3.3341 0.85 6.2401 1.2897 7.6225 1.1533 2.8299-0.2791 3.8653-0.4053 3.9984-0.4874 0.084-0.052 1.1651-0.1668 2.402-0.2552 2.3647-0.169 3.2596-0.2828 5.424-0.6894 2.1373-0.4015 2.8183-0.4984 4.5514-0.6473 0.9026-0.078 2.3314-0.33 3.175-0.561 2.1825-0.5974 2.7681-0.6666 6.0405-0.7142 2.714-0.04 3.0299 0.011 4.4979 0.7151 2.7911 1.3392 4.1368 3.0178 4.8875 6.0966 0.5315 2.1795 0.4462 3.5059-0.3123 4.8563-0.7594 1.352-1.5112 1.9882-3.5164 2.9753-1.6619 0.8182-1.7288 0.8888-1.7288 1.826 0 2.1862-1.4848 4.6971-3.1691 5.3591-0.367 0.1443-1.6794 0.3004-2.9164 0.347-1.2369 0.047-2.3977 0.094-2.5796 0.1051-0.1819 0.011-0.3308 0.205-0.3308 0.4305 0 1.898-3.6338 4.9468-6.35 5.3276-0.2183 0.031-0.8731 0.181-1.4552 0.3343s-1.5941 0.3474-2.2489 0.4312c-0.6549 0.084-1.2914 0.3317-1.4146 0.5509-1.0566 1.8799-4.1176 3.1386-9.5656 3.9334-0.4366 0.064-1.0415 0.1746-1.3442 0.2465-0.3027 0.072-1.1362 0.1965-1.8521 0.2769-2.1253 0.2387-4.023 1.1612-7.4553 3.6243-1.7837 1.28-3.3514 2.3273-3.4837 2.3273-0.1322 0-0.2801 0.099-0.3286 0.2197-0.1189 0.2961-3.2368 1.8573-3.9873 1.9964-0.3294 0.061-1.0751 0.2938-1.6572 0.5171-1.624 0.623-3.5919 0.9556-6.5568 1.108-3.6226 0.1862-5.2975 0.3647-7.2512 0.7726-1.0912 0.2278-3.8266 0.339-8.2021 0.3334-4.0657 0-6.9174 0.1026-7.4909 0.283-1.4212 0.4471-3.6197 0.8125-5.9531 0.9894-1.9621 0.1487-4.008 0.3979-6.6146 0.8058-0.9872 0.1545-2.0408 0.3681-3.9688 0.8048-0.4365 0.099-2.2542 0.7588-4.0392 1.4665s-3.4358 1.2867-3.6685 1.2867c-0.2326 0-1.6296 0.5793-3.1045 1.2874-1.4748 0.7081-3.128 1.4463-3.6737 1.6406s-0.9922 0.4355-0.9922 0.536-0.4465 0.3748-0.9922 0.6096c-1.0149 0.4367-1.9468 0.9656-2.1828 1.239-0.073 0.084-0.7871 0.501-1.5875 0.926-0.8004 0.4251-1.5147 0.8425-1.5875 0.9277-0.073 0.085-1.0253 0.6657-2.1167 1.2899-2.5143 1.438-4.5917 2.7214-4.7625 2.9424-0.1129 0.1461-4.3742 3.1708-5.5562 3.9438-0.2183 0.1427-1.3494 0.9365-2.5136 1.764-2.9003 2.0614-5.4413 3.71-6.7468 4.3774-0.3638 0.186-0.8188 0.4883-1.0111 0.6719s-0.5098 0.3339-0.7056 0.3339c-0.1957 0-0.3956 0.099-0.4441 0.2202-0.1579 0.3943-3.7801 2.3738-5.795 3.167-1.0814 0.4256-2.74 0.9126-3.6859 1.0822-2.5282 0.4532-7.7609 0.5264-10.186 0.1425zm139.6-54.023c-0.4097-0.7599-1.4328-1.602-2.4762-2.0379-1.2009-0.5018-1.2616-0.5034-1.2616-0.033 0 0.7675 1.3335 1.9752 2.4599 2.2278 1.5711 0.3523 1.5536 0.3545 1.2779-0.157zm9.6006-5.5179c0.3788-0.1454 0.3791-0.2241 0-0.8599-0.7941-1.3419-4.6101-3.3038-4.6101-2.3701 0 0.6238 1.3691 2.6042 2.0594 2.9788 0.7579 0.4114 1.8498 0.519 2.5477 0.2512zm8.622-5.5165c0-0.2918-1.4469-1.5283-2.0805-1.778-1.461-0.5758-2.1528-0.7138-2.1528-0.4296 0 0.5048 1.8347 2.0255 2.5799 2.1384 1.1714 0.1775 1.6534 0.1977 1.6534 0.069zm3.5059-8.4899c1.4538-0.5579-0.429-1.2001-4.5065-1.5372-1.3346-0.1103-1.614 0.1441-0.7675 0.6987 1.6151 1.0583 3.7972 1.4052 5.274 0.8385zm254.86 64.786c-2.3436-0.2027-10.435-1.1809-12.171-1.4714-1.0615-0.1777-4.8449-0.3191-8.8636-0.3313-3.8563-0.012-7.7258-0.1153-8.5989-0.2302s-5.457-0.4156-10.186-0.6682l-8.5989-0.4594-1.8941-0.9954c-3.8891-2.044-4.6813-3.1927-7.2347-10.491-2.6735-7.6417-2.4123-2.4158-2.6534-53.084-0.2108-44.312-0.2184-44.78-0.7683-46.784-0.3055-1.1134-0.7865-2.4775-1.069-3.0312-1.1574-2.2688-4.9397-4.6467-8.9034-5.5975-2.2382-0.5369-2.6942-0.553-9.7563-0.344-4.0746 0.1206-13.421 0.2239-20.77 0.2297-12.564 0.01-13.416 0.04-14.274 0.5077-0.5021 0.2735-2.0674 1.6427-3.4783 3.0427-2.3551 2.3368-2.6098 2.6901-3.107 4.3109-0.7744 2.5246-1.2633 5.0552-1.8936 9.8034-0.3038 2.2884-0.9667 5.8482-1.4732 7.9109-0.5667 2.308-1.027 5.0323-1.1969 7.0842-0.1519 1.8337-0.505 4.8223-0.7847 6.6413-0.4457 2.8989-0.5285 5.398-0.6708 20.241-0.1464 15.282-0.212 17.178-0.6728 19.447-0.5235 2.5774-0.7999 5.5564-1.289 13.891-0.1537 2.6194-0.3954 5.6555-0.5371 6.7469s-0.3715 3.6934-0.5107 5.7824l-0.253 3.798-1.9287 4.1001c-3.4515 7.3375-5.0622 8.3991-13.229 8.7186-4.6109 0.1804-5.2416 0.068-5.2321-0.9341 0.01-1.0941 0.3024-1.1665 4.9299-1.222 5.1249-0.061 6.4905-0.3712 8.2405-1.8691 0.7515-0.6433 1.4219-1.6118 2.0643-2.9825 0.5233-1.1165 1.4206-2.991 1.9939-4.1656 1.0095-2.068 1.0506-2.2606 1.2994-6.0854 0.1413-2.1724 0.4262-5.2 0.6332-6.7279 0.207-1.528 0.5668-4.8618 0.7995-7.4084 0.8728-9.5508 0.9714-10.446 1.3467-12.23 0.3131-1.4886 0.3843-4.9763 0.3843-18.82 0-13.212 0.085-17.668 0.3811-20.025 0.2096-1.6675 0.5147-4.7582 0.678-6.8683 0.2185-2.8229 0.534-4.7101 1.1945-7.1437 0.9995-3.6832 1.2352-4.9389 1.8622-9.9219 0.4846-3.8517 1.4265-7.7949 2.3419-9.8038 1.0197-2.2379 5.8026-6.6873 8.0944-7.5301 1.3983-0.5142 10.199-0.657 15.203-0.2467 3.5122 0.2879 5.2048 0.2855 10.054-0.014 8.2372-0.5089 16.279-0.6238 18.734-0.2678 3.8907 0.5641 6.5331 1.7995 9.4186 4.4036 1.6734 1.5101 2.593 3.0265 3.5088 5.7859l0.6147 1.8521-0.088 41.54c-0.063 29.597 0 42.49 0.2131 44.847 0.3777 4.1476 0.9559 7.3572 1.6394 9.1007 0.2911 0.7427 0.9494 2.5409 1.4629 3.9962 1.7235 4.8845 2.9659 6.5916 5.8577 8.0484 1.0223 0.5151 1.9129 0.6096 8.9958 0.9544 4.3236 0.2105 8.8732 0.5197 10.11 0.6871s4.4802 0.2832 7.2072 0.2574c4.9506-0.047 9.2955 0.3037 19.516 1.5749 3.6701 0.4565 5.9241 0.5104 21.448 0.5132 13.876 0 17.926-0.075 20.241-0.3896 1.5915-0.216 3.1493-0.4648 3.4619-0.553 0.7499-0.2114 1.6807 0.307 1.6807 0.9362 0 0.6063-1.5537 1.1102-5.2919 1.7164-2.1022 0.341-5.3485 0.4005-19.844 0.3642-9.5317-0.024-17.806-0.085-18.389-0.1349zm-110.4-12.014c-0.7008-0.7342-0.2204-2.0927 0.7401-2.0927 0.3672 0 0.4625-0.4479 0.6049-2.8443 0.199-3.3482 0.4339-4.2967 1.4683-5.9278 1.0414-1.6422 3.4254-2.8708 5.5634-2.867 2.437 0 5.717 1.9142 6.5048 3.7878l0.3186 0.7576 0.6957-1.1871c0.8235-1.4052 3.772-4.1813 5.1208-4.8213 2.1348-1.0131 4.7557 0.066 7.9277 3.2649 2.0526 2.0698 2.8531 3.8771 2.9508 6.6622 0.067 1.9028 0 2.3837-0.4688 3.1247-1.1901 1.9028-2.7446 2.0984-18.396 2.3143-10.299 0.142-12.763 0.1096-13.031-0.1713zm28.289-2.6905c0.534-0.2287 1.0996-0.6562 1.2568-0.9499 0.4052-0.757 0.3544-3.0679-0.091-4.1334-0.87-2.0823-4.9478-5.4314-6.6131-5.4314-1.7151 0-4.7201 2.5949-5.7801 4.9913-0.3637 0.8222-0.5809 2.0098-0.6664 3.6443-0.1133 2.166-0.077 2.4345 0.3408 2.5169 0.2572 0.051 2.7434 0.022 5.5248-0.065 3.7234-0.1157 5.3132-0.2668 6.0281-0.5729zm-14.332-0.5696c0-1.796-0.7358-5.2386-1.2774-5.9764-0.267-0.3638-1.1254-1.0484-1.9075-1.5213-1.7231-1.0421-3.0723-1.117-4.7627-0.2646-1.6202 0.817-2.2545 2.1327-2.4831 5.1504-0.097 1.2782-0.2398 2.6515-0.3177 3.0517l-0.1416 0.7276h10.89zm8.2021-19.887c-5.4804-1.0404-12.62-2.7464-15.995-3.8216-1.3165-0.4194-3.4914-1.0005-4.8333-1.2912-1.3419-0.2908-2.6813-0.6579-2.9766-0.8159-0.8589-0.4597-0.6704-1.4425 0.4554-2.3746 2.3458-1.9422 12.574-6.5487 18.455-8.311 7.5208-2.254 8.6937-2.4414 9.0116-1.4396 0.2676 0.8431-0.5383 1.3736-3.1149 2.0505-1.2059 0.3167-3.5164 0.9355-5.1344 1.375l-2.9418 0.7991-0.183 2.493c-0.2593 3.5333 0.056 7.4683 0.6123 7.6361 2.8395 0.8568 6.2056 1.5076 8.9505 1.7305 1.8475 0.15 3.4631 0.3767 3.5902 0.5038s0.192 0.573 0.1442 0.9909c-0.086 0.7567-0.095 0.7601-2.0712 0.8058-1.0914 0.025-2.8773-0.1236-3.9687-0.3308zm-9.0962-5.0729c-0.078-0.4002-0.2221-2.3052-0.3195-4.2334-0.097-1.9281-0.2155-3.5057-0.2623-3.5057-0.8012 0-11.819 5.5238-11.055 5.5424 0.3112 0.01 1.6209 0.3323 2.9105 0.7215 3.15 0.9507 7.787 2.1578 8.3849 2.1826 0.389 0.016 0.4561-0.1228 0.3417-0.7074zm-308.12-10.947c-0.6418-0.1205-1.8157-0.6089-2.6085-1.0854-1.9535-1.1742-6.3913-5.7046-8.0001-8.167-0.8105-1.2407-2.735-5.7142-3.1765-7.3839-0.1347-0.5093-0.5528-2.0571-0.9291-3.4395-0.6865-2.5219-0.8003-3.0863-1.0664-5.2917-0.079-0.6548-0.1879-1.4883-0.242-1.8521-0.2321-1.562-0.4749-3.0802-0.5714-3.5719-0.057-0.291-0.1725-0.8863-0.2565-1.3229-0.084-0.4365-0.1985-1.0319-0.2546-1.3229-0.2565-1.3312-1.7593-8.3784-2.1159-9.9219-0.2185-0.9459-0.4399-1.9579-0.492-2.249-0.052-0.291-0.4059-1.294-0.7862-2.2289-0.6361-1.5637-0.6592-1.749-0.2883-2.3151 0.4513-0.6888 1.0848-0.7747 1.7866-0.2422 0.4049 0.3072 0.9998 1.9072 1.3863 3.7279 0.062 0.291 0.36 1.7198 0.6626 3.175 0.3027 1.4552 0.6142 2.884 0.6922 3.175 0.2211 0.8248 0.6447 2.6036 0.7246 3.0427 0.04 0.2183 0.1578 0.6553 0.2624 0.9711s0.2348 0.792 0.2894 1.0583c0.055 0.2663 0.2286 1.0495 0.3867 1.7404 0.38 1.6601 0.7808 4.3928 0.9799 6.6813 0.1829 2.1028 0.6424 4.5572 1.2877 6.8792 0.2427 0.8731 0.4795 1.766 0.5263 1.9843 0.1829 0.8527 2.3291 6.0036 2.8664 6.8792 0.8113 1.3223 1.0853 1.6396 3.8857 4.4996 3.4829 3.5571 4.4916 4.1541 7.2951 4.3177 2.1148 0.1234 5.5895-1.4855 7.2286-3.3471 0.7023-0.7976 1.2954-1.0208 1.8805-0.7077 0.717 0.3837 0.6653 0.96-0.1877 2.0917-2.3411 3.1058-7.2444 4.9615-11.166 4.2258zm313.9-6.7633c-2.5128-0.2746-4.7941-0.3256-8.4667-0.189-8.9365 0.3323-11.169 0.2948-11.66-0.1956-0.6625-0.6626-0.3011-1.3023 1.951-3.454 3.7641-3.5961 7.1312-5.6321 16.323-9.8699 0.5821-0.2684 1.7727-0.8159 2.6458-1.2167l1.5875-0.7287-11.346 0.046c-10.5 0.043-11.368 0.012-11.637-0.4119-0.2263-0.3564-0.187-0.5619 0.1769-0.926 0.4188-0.4191 1.1928-0.477 7.4038-0.5541 18.655-0.2317 20.778-0.2062 21.24 0.255 0.5758 0.5744 0.299 1.3823-0.617 1.8005-0.3974 0.1814-2.3894 0.9574-4.4267 1.7244-3.9198 1.4758-10.928 4.8476-14.023 6.7471-2.0157 1.237-4.6521 3.26-5.6685 4.3496l-0.6415 0.6876h1.5958c0.8776 0 3.133-0.1286 5.012-0.2859 2.7591-0.231 4.3405-0.2055 8.2208 0.1323 2.6425 0.23 5.9892 0.4182 7.4371 0.4182 2.902 0 3.4224 0.2422 3.1188 1.4518-0.1632 0.6502-0.218 0.6641-2.477 0.63-1.2705-0.019-3.8578-0.2041-5.7496-0.4109zm0.3641-24.017c-0.091-0.091-4.7587-0.1716-10.374-0.1799-8.1626-0.012-10.268-0.086-10.501-0.3675-0.4307-0.5189 0.1357-4.1496 0.9118-5.8449 0.9228-2.0155 2.5416-4.2907 4.0666-5.7152 1.6372-1.5293 5.7803-4.2807 7.1038-4.7175 1.4942-0.4931 6.6691-0.179 8.9579 0.5437 3.1343 0.9897 6.6424 2.8371 7.7108 4.0607 1.367 1.5654 2.8676 4.9215 3.507 7.8436 0.3025 1.3825 0.6192 2.76 0.7038 3.0612 0.3224 1.1488-0.3577 1.2981-6.3396 1.3925-3.0703 0.048-5.6565 0.014-5.7471-0.077zm9.9957-2.3455c0.1115-0.1115-1.6541-5.0462-2.1341-5.9644-1.2065-2.3077-3.9344-4.2941-7.432-5.4116-2.1868-0.6988-5.9824-1.3018-7.0846-1.1256-1.3513 0.2161-3.2917 1.2103-5.8011 2.9724-2.1918 1.5389-3.5586 2.9717-4.5823 4.8034-0.7359 1.3166-1.8463 4.2379-1.6758 4.4085 0.382 0.382 28.336 0.691 28.71 0.3173z"/></g></svg>
