<svg width="659.11mm" height="217.42mm" version="1.1" viewBox="0 0 659.11 217.42" xml:space="preserve" xmlns="http://www.w3.org/2000/svg"><g transform="translate(-1319.3 857.9)"><path fill="#fff" d="m1429.5-640.82c-1.8189-0.79194-3.0305-3.5202-3.1789-7.1582l-0.097-2.375-1.5259-0.78064c-1.9286-0.98666-5.3967-1.2761-7.0439-0.58786l-1.0116 0.42268 0.9595 1.121c1.6601 1.9394 2.1693 5.1633 1.1502 7.2823-0.4727 0.98282-1.9585 1.9226-3.0395 1.9226-1.1529 0-2.0581-0.88378-2.4755-2.417-0.3937-1.4463-0.1691-5.1015 0.3967-6.4556 0.383-0.91682 0.3793-1.0147-0.051-1.3449-1.8207-1.396-4.1796-1.8863-7.5539-1.5701l-1.9902 0.1865 0.2403 0.83785c0.4058 1.4148 0.2869 4.1866-0.2231 5.2017-0.9198 1.8308-3.2181 2.6695-5.7986 2.1161-4.5282-0.97114-3.7563-6.8679 1.1852-9.0538 1.1454-0.50665 1.1801-0.55291 0.6939-0.92447-1.3643-1.0425-2.3121-1.2524-5.4067-1.1973-3.6535 0.0651-4.6866 0.29919-4.4979 1.0193 0.3384 1.2909 0.091 4.2443-0.4579 5.4586-1.3582 3.0072-5.1211 3.1186-6.6197 0.19601-1.2917-2.5191-0.3338-5.1499 2.4622-6.7623 0.4422-0.25501 0.345-0.34168-0.8147-0.72672-1.3274-0.44071-4.5547-0.94484-6.1454-0.95995l-0.8599-8e-3v2.0606c0 2.7282-0.7265 4.307-2.1429 4.657-1.5558 0.38449-2.866-0.0153-4.1024-1.2516-2.8355-2.8355-1.792-6.4416 2.01-6.9459 2.1412-0.28405 2.1749-0.46849 0.3952-2.1638-2.425-2.31-4.3131-3.1041-8.2914-3.4872-1.7974-0.17307-3.4552-0.3865-3.684-0.4743-0.3295-0.12646-0.3688-0.0539-0.1891 0.34932 0.7441 1.6692 0.2484 5.1547-0.9965 7.0079-0.8522 1.2686-2.4489 1.8196-3.828 1.3209-2.154-0.77886-3.4122-2.3959-3.6901-4.7428-0.21-1.7728 0.066-3.0362 0.873-3.9952l0.6745-0.80153h-0.7374c-0.4056 0-1.7159-0.14148-2.9118-0.31439-2.1348-0.30866-2.1929-0.30215-3.1887 0.35715-1.0728 0.71024-3.4562 2.8875-8.677 7.9264-3.5969 3.4716-5.0947 4.5222-7.5126 5.2695-3.1248 0.96572-5.2153 0.63643-8.5605-1.3484-2.8289-1.6785-4.9391-5.1632-3.4684-5.7276 0.3182-0.12212 0.7135 0.16259 1.3891 1.0005 1.4612 1.8125 2.5799 2.7724 4.2976 3.688 1.3136 0.70014 1.8979 0.84832 3.4783 0.88215 2.9914 0.064 4.5903-0.8319 9.2239-5.1684 2.07-1.9372 4.9002-4.6681 6.2894-6.0686 1.3892-1.4005 2.7859-2.6805 3.1038-2.8443 0.7676-0.39561 1.799-0.37554 4.4016 0.0856 3.0301 0.53693 6.6109 0.94263 10.631 1.2044 5.7687 0.37572 7.9228 0.83344 9.9034 2.1044 1.6479 1.0574 4.7027 4.2381 4.9264 5.1294 0.1725 0.68738 0.2239 0.70327 2.2756 0.70327 2.7281 0 5.8497 0.64782 7.4583 1.5478l1.2803 0.71636 2.5561-0.5128c2.2259-0.44655 2.9178-0.47751 5.3557-0.23966 3.0522 0.2978 4.122 0.68584 5.7629 2.0904l1.0775 0.92231 1.6623-0.3049c1.6937-0.31066 4.819-0.17558 6.5574 0.28342 0.5095 0.13452 1.5768 0.65468 2.3717 1.1559 1.4192 0.89484 1.4574 0.90287 2.1163 0.44487 1.1205-0.77882 2.3702-1.0765 4.5191-1.0765 2.031 0 5.3378 0.77416 5.6814 1.3301 0.2416 0.39093 0.657 0.30751 0.657-0.13192 0-0.86413 1.3291-3.2946 2.8255-5.1669 2.007-2.5112 3.0981-3.576 4.5319-4.4224 0.8338-0.49223 1.093-0.78796 0.9657-1.1018-0.096-0.23592-0.3054-1.1731-0.4659-2.0826-0.1758-0.99657-0.4239-1.6536-0.6243-1.6536-0.1829 0-1.5271 0.18921-2.9872 0.42046-1.4601 0.23126-3.3996 0.37912-4.3101 0.32859-1.2289-0.0682-1.7334 9e-3 -1.9582 0.29816-0.4184 0.53888-2.0734 0.0933-6.8335-1.8397-2.0414-0.82899-4.545-1.7258-5.5637-1.9928-1.0186-0.26706-2.3878-0.71672-3.0427-0.99924-3.0764-1.3272-4.492-1.798-6.9764-2.3202-3.1244-0.65669-4.4236-1.0698-6.7819-2.1567-5.0309-2.3185-9.884-4.419-14.011-6.0644-2.5403-1.0126-5.6359-2.3693-6.8792-3.0149-1.2432-0.64556-2.8185-1.4033-3.5005-1.6838-2.0835-0.85707-2.2222-1.3658-2.4961-9.1536-0.4398-12.508 0.098-86.299 0.6725-92.34 0.7334-7.7051 1.7406-13.442 3.7159-21.167 1.6915-6.6148 2.2113-7.9593 3.557-9.2 1.6243-1.4976 12.027-6.4702 20.529-9.8134 4.304-1.6923 6.3937-2.3344 8.7312-2.6828 2.9497-0.4396 7.36-1.6117 11.394-3.0282 6.7983-2.3868 11.202-3.4287 16.363-3.8714 5.732-0.4917 9.481-1.0284 22.248-3.185 2.11-0.3564 5.7263-0.9494 8.0361-1.3176 3.8787-0.6185 5.632-1.0174 11.014-2.5057 1.5357-0.4248 3.2763-0.6015 7.6989-0.7817 5.9527-0.2425 10.457-0.6149 12.939-1.0695 0.8003-0.1466 2.8755-0.4451 4.6114-0.6634 1.736-0.2182 4.534-0.6951 6.2178-1.0597 3.4403-0.7451 11.427-2.0838 14.042-2.3536 2.9686-0.3063 9.5673-1.1893 11.774-1.5754 9.6639-1.6908 11.872-2.0668 13.494-2.2973 1.9186-0.2726 7.2037-1.2699 13.959-2.6338 4.6692-0.9427 9.6719-1.2722 12.143-0.7996 3.4188 0.6539 8.6605 1.9798 12.131 3.0686 3.5242 1.1057 6.3775 1.8387 8.219 2.1114 0.5969 0.088 1.2542 0.4607 1.7908 1.0144 0.7185 0.7413 0.9042 1.2154 1.2169 3.1061 0.2029 1.2272 0.5613 2.6821 0.7964 3.2331 0.5693 1.3342 2.691 15.509 3.3308 22.253 0.1954 2.0594 0.5689 3.7955 1.3091 6.0854 0.5696 1.7621 1.3951 4.6388 1.8343 6.3926 1.1657 4.6545 4.2592 20.295 4.4716 22.608l0.1822 1.9843 8.7312-0.021c19.362-0.048 28.99-0.7777 29.782-2.2579 0.6511-1.2166 0.7443-4.9424 0.5024-20.1-0.138-8.6465-0.3689-16.435-0.513-17.308-0.4027-2.4392-0.4642-8.2459-0.091-8.6191 0.5079-0.5081 1.4658-0.09 4.0902 1.7863 4.8054 3.4353 6.2974 4.9921 14.358 14.98 2.7399 3.3953 5.8561 6.8902 8.1389 9.1281 4.5995 4.5089 9.5916 10.257 11.901 13.704 2.6919 4.0173 8.9892 13.76 10.331 15.984 1.5492 2.5671 2.3484 4.182 3.2432 6.5533 0.3991 1.0577 1.1411 2.4204 1.649 3.0283 1.3857 1.6586 2.4662 3.9731 2.4662 5.2828 0 1.2982-0.3772 1.691-5.5176 5.746-4.3845 3.4587-14.575 12.992-18.662 17.458-1.947 2.1275-5.2389 5.8328-7.3154 8.2339s-5.471 6.2111-7.5432 8.4666c-5.7018 6.2064-7.7019 8.6441-9.1172 11.112-1.7004 2.9657-3.2089 4.9548-4.341 5.7241-1.0995 0.7471-1.5215 0.7801-2.0804 0.1624-1.4747-1.6295-1.7592-4.7778-2.086-23.084-0.1924-10.778-0.3835-16.216-0.5848-16.645-0.878-1.8722-3.1279-2.2668-10.75-1.8855-5.4778 0.274-18.311 0.8033-19.477 0.8033-0.8278 0-0.8231 0.5918 0.034 4.3657 1.0955 4.8209 2.1997 10.907 2.64 14.552 0.2285 1.8918 0.8408 5.9378 1.3605 8.9912 1.5464 9.0852 1.2888 9.68-4.9312 11.385-1.3825 0.3789-4.4781 1.3268-6.8792 2.1064s-4.7823 1.4946-5.2917 1.5888c-0.5093 0.094-2.6524 0.7528-4.7625 1.4635-2.11 0.7108-5.6819 1.782-7.9375 2.3805-2.2555 0.5986-5.7679 1.5565-7.8052 2.1287-5.7046 1.6024-21.31 4.7639-28.588 5.7915-1.0256 0.14482-4.657 0.57073-8.0698 0.94647-10.517 1.1579-18.772 2.8885-33.561 7.0361-9.3084 2.6105-11.917 3.1713-27.567 5.9261-2.8496 0.50163-7.0168 1.3787-9.2604 1.9491-5.6634 1.4397-15.695 4.0793-20.748 5.4594-6.2337 1.7025-10.197 2.6608-13.721 3.3175l-3.1372 0.5847 0.1722 1.0904c0.095 0.59974 0.2959 1.5072 0.4472 2.0165l0.2751 0.92604h2.0743c2.4571 0 3.3523 0.48997 3.942 2.1576 0.4448 1.2578 0.2637 2.1484-0.6598 3.246-1.3669 1.6245-3.8747 0.89542-5.5638-1.6175l-0.8247-1.227-1.2281 0.70484c-2.2978 1.3188-5.8324 5.9242-6.355 8.2801-0.1406 0.63372 0.035 0.82072 1.9628 2.0861 2.7243 1.7886 3.5787 2.6824 3.9416 4.1238 0.5162 2.0502-0.3442 3.956-2.1893 4.8492-1.316 0.63704-1.366 0.64056-2.4425 0.17185zm2.581-3.189c0.5711-1.2533-0.12-2.3718-2.4277-3.9296l-1.4538-0.98134-0.084 0.95769c-0.117 1.3383 0.8847 4.4903 1.5823 4.9789 0.5011 0.35104 0.6509 0.35099 1.3305-4.5e-4 0.4211-0.21779 0.8948-0.67914 1.0524-1.0252zm-15.274 0.33121c0.5222-0.74548 0.5478-3.4089 0.042-4.3867-0.2034-0.3933-0.617-0.93888-0.9193-1.2124-0.5417-0.49023-0.5533-0.48743-0.8132 0.19611-0.145 0.38138-0.3401 1.4401-0.4336 2.3528-0.2926 2.8557 0.9801 4.6834 2.124 3.0502zm-15.049-3.3966c0.835-0.78452 1.1654-2.0225 0.9109-3.4141-0.2925-1.5996-0.4983-1.7027-2.1434-1.0739-2.2698 0.86757-3.15 1.8444-3.15 3.4959 0 0.8054 0.1362 1.0677 0.7276 1.4007 1.0103 0.56888 2.831 0.36532 3.6549-0.40863zm-13.801-2.8454c0.6513-1.2594 0.7643-2.5267 0.3202-3.5896l-0.4095-0.98014-0.8687 0.43841c-2.8023 1.4143-3.4275 4.0616-1.1822 5.0056 0.9977 0.41952 1.598 0.17431 2.1402-0.87431zm-12.711-3.0328c0.5174-0.37831 0.9463-1.9258 0.9558-3.4487l0.01-1.0084-1.2568 0.18456c-1.7721 0.26025-2.3571 0.52241-2.8523 1.2783-0.523 0.79816-0.3558 1.4407 0.6569 2.5248 0.8048 0.86151 1.7184 1.0337 2.4901 0.46941zm-16.196-5.7689c1.5639-0.83697 1.7067-5.271 0.1958-6.0796-0.6371-0.341-2.2849 0.0751-3.2246 0.81427-0.7852 0.61765-1.362 2.136-1.143 3.0087 0.476 1.8962 2.6489 3.0716 4.1718 2.2566zm81.928-1.09c0.4767-0.47675 0.3825-1.2166-0.1943-1.5253-0.6866-0.36745-2.9278-0.35457-2.9278 0.0168 0 0.1599 0.3698 0.63615 0.8217 1.0583 0.8637 0.80675 1.767 0.98351 2.3004 0.45012zm-17.551-9.4158c-0.1807-0.69666-0.4616-2.9886-0.6242-5.0932-0.1625-2.1046-0.4134-5.0172-0.5573-6.4724-0.9554-9.6561-1.3162-13.533-1.4647-15.743-0.093-1.3824-0.4587-4.4781-0.8127-6.8792-0.3541-2.4011-0.886-6.092-1.182-8.202-0.6733-4.7992-1.4549-9.2544-2.1354-12.171-0.2885-1.2369-1.1716-5.4941-1.9623-9.4604-1.9622-9.8421-3.0698-18.679-4.22-33.667-1.0292-13.411-1.0918-13.911-2.5186-20.108-0.7479-3.2486-1.1705-5.9884-1.9795-12.832-0.331-2.8004-1.0357-6.7862-2.3931-13.535-0.08-0.3971-0.2604-0.5328-0.593-0.4458-0.2631 0.069-1.4602-0.3066-2.6604-0.8343-4.2526-1.8698-5.3834-2.0258-14.019-1.9344-8.6159 0.091-8.1505-0.018-9.468 2.2299-1.9077 3.2552-4.2834 13.468-5.5629 23.913-0.3629 2.9619-0.4724 7.8645-0.6417 28.707-0.1156 14.244-0.3204 25.995-0.4727 27.12-0.4281 3.162-0.3674 28.922 0.08 34.131 0.2064 2.4011 0.4584 5.6753 0.5599 7.276 0.1016 1.6007 0.2751 3.1512 0.3857 3.4456 0.6431 1.7112 5.612 4.652 11.769 6.9656 2.3283 0.87485 5.3049 2.0605 6.6146 2.6349 7.1372 3.1299 9.0777 3.8382 12.804 4.6742 2.1255 0.47684 5.0552 1.3396 6.5104 1.9172 1.4552 0.57759 3.2412 1.2076 3.9688 1.4001s2.2754 0.76733 3.4396 1.2774c2.0704 0.90718 6.9868 2.878 7.3034 2.9277 0.088 0.0138 0.012-0.54492-0.1689-1.2416zm9.1143 0.4575c0.7877-0.13594 1.4619-0.27738 1.4984-0.31432 0.036-0.0369 0.1-1.2359 0.1413-2.6644 0.072-2.4719 0.041-2.64-0.6314-3.4828-1.3556-1.6989-1.6467-2.8692-1.6467-6.62v-3.4396l1.9564-3.6342-0.9023-3.1649c-1.2336-4.3266-1.5398-6.7496-1.1659-9.2258 0.373-2.4705 0.4074-1.9973-0.3925-5.4064-1.2415-5.2913-1.5438-11.983-0.6726-14.89 0.3064-1.0226 0.2681-1.2228-0.6357-3.3267-1.3689-3.1864-1.791-5.2763-1.7414-8.6204 0.034-2.2766-0.052-3.0172-0.433-3.743-0.6879-1.3102-0.7938-4.8678-0.2734-9.1895 0.2398-1.9919 0.5393-4.5741 0.6655-5.7383l0.2295-2.1166-1.0399-1.5124c-0.5719-0.8318-1.3176-2.1414-1.657-2.9104-0.7047-1.5961-2.6305-8.5074-3.069-11.014-0.2927-1.6731-0.1564-5.1859 0.2652-6.838 0.1856-0.7272-0.031-1.364-1.5754-4.6303-0.9848-2.0828-1.9256-4.3458-2.0907-5.0287-0.7246-2.9979-0.1066-6.5579 1.414-8.1451 0.6679-0.6972 0.6731-0.7361 0.5001-3.7658l-0.1749-3.0614-1.2181-0.164c-1.7146-0.2309-3.7228-1.2324-4.6977-2.3428-2.1548-2.4541-1.7615-5.8061 1.0373-8.8425 1.5091-1.6371 2.2085-1.9388 4.4797-1.9319 2.3711 0.01 3.6525 0.5376 5.5216 2.2858 1.786 1.6706 2.0983 2.3435 2.0983 4.5205 0 1.5912-0.1056 1.9788-0.8688 3.1893-0.9582 1.5197-1.6277 2.0872-3.2243 2.7329l-1.0663 0.4312v4.9562l1.5145 0.1891c2.6872 0.3357 4.1462 1.5028 4.3709 3.4964 0.2338 2.0743-0.7852 3.5466-2.7491 3.9717-1.4444 0.3127-2.6526-0.4047-3.4056-2.0222-0.3583-0.7697-0.6527-1.5483-0.6541-1.7302-0.01-0.7346-0.5935-0.2585-1.103 0.8935-0.4248 0.9601-0.5208 1.6343-0.4455 3.1262 0.086 1.7028 0.2729 2.2648 1.784 5.3641l1.6879 3.4619 0.8229-0.5018c0.507-0.3091 1.3133-0.5022 2.1001-0.5028 2.4857 0 3.5036 2.1047 2.5241 5.2237-0.5383 1.7138-2.5086 2.1987-4.0759 1.0032l-0.8539-0.6512-0.1633 0.8166c-0.4534 2.267-0.077 4.8478 1.4607 10.011 0.9948 3.3402 2.1323 6.0803 3.0091 7.2485 0.3611 0.4812 0.4202 0.4622 1.4443-0.463 0.8847-0.7992 1.2658-0.9647 2.222-0.9647 2.0636 0 3.589 1.942 3.601 4.5844 0.011 2.3427-1.9557 3.4662-4.3022 2.4582-0.4682-0.2012-1.1192-0.6226-1.4467-0.9364l-0.5953-0.5706v1.1348c-9e-4 0.6242-0.1187 1.8492-0.2619 2.7223-0.5186 3.162-0.8292 7.1739-0.6613 8.5427l0.1715 1.399 0.5323-0.6766c0.7962-1.0123 1.8779-1.4599 3.5282-1.4599 2.4936 0 3.8365 1.0675 3.8365 3.0497 0 0.8745-0.1635 1.235-0.8599 1.8959-1.4339 1.3607-2.4485 1.739-4.3409 1.6185l-1.6784-0.1069v2.3938c8e-4 1.3166 0.1303 2.8701 0.2878 3.4522 0.2186 0.808 1.4146 3.8281 1.7042 4.3033 0.024 0.038 0.6006-0.2418 1.2825-0.6229 1.1045-0.6173 1.4678-0.6826 3.3296-0.5981 1.607 0.073 2.2622 0.2232 2.8354 0.65 1.565 1.1652 1.4884 3.3093-0.1748 4.8915-0.9706 0.9233-2.972 1.6965-3.757 1.4514-0.1924-0.06-0.6681-0.1786-1.057-0.2635-0.389-0.085-1.0646-0.455-1.5014-0.8226-0.7181-0.6042-0.8072-0.6232-0.9303-0.1985-0.64 2.2093-0.3451 7.5207 0.6538 11.775l0.5557 2.3668 0.7001-0.6705c1.4359-1.3754 3.489-1.8267 5.1509-1.1323 1.1582 0.4839 1.6974 1.0657 1.9986 2.1564 0.5887 2.1321-1.2582 4.4419-4.215 5.2716-1.5521 0.4355-1.6457 0.4332-2.6493-0.063l-1.0403-0.5147v1.658c0 1.4711 1.0823 6.4374 1.8335 8.4132l0.2509 0.65994 1.1347-0.5614c1.3559-0.67084 4.0131-0.8976 5.3495-0.45652 2.1049 0.69465 2.6458 2.7688 1.1483 4.4028-1.7217 1.8787-5.255 2.0449-7.1983 0.3386l-0.8794-0.77205-0.5901 1.2191c-0.9393 1.9403-1.2319 4.9722-0.6913 7.1627 0.2449 0.99244 0.6147 1.9739 0.8219 2.1811 0.3258 0.32579 0.505 0.26393 1.3275-0.45822 0.7959-0.69889 1.1665-0.83485 2.275-0.83485 2.3752 0 4.2136 1.355 4.2136 3.1055 0 0.6949-0.1739 0.98093-0.8599 1.4144-0.7419 0.46876-1.1726 0.52751-3.1395 0.42823l-2.2797-0.11507-0.1569 1.8717c-0.086 1.0295-0.1285 1.9002-0.094 1.935 0.1225 0.12251 6.4366-1.1854 9.7047-2.0103 3.0196-0.76211 9.1131-2.3633 23.747-6.24 6.02-1.5947 10.033-2.4281 21.015-4.3647 7.8685-1.3875 9.9828-1.8739 19.531-4.4934 16.44-4.5101 25.588-6.3966 34.66-7.1476 8.8196-0.73008 26.215-4.0501 37.703-7.1958 3.2015-0.8767 7.1101-1.9385 8.6858-2.3596s3.8975-1.1632 5.1594-1.6489c1.2619-0.4858 3.8422-1.3327 5.734-1.8821 1.8918-0.5493 4.5707-1.3894 5.9531-1.8667 1.3825-0.4774 3.5851-1.1914 4.8948-1.5866 2.862-0.8638 3.6955-1.408 4.1182-2.6887 0.3776-1.1441 0.1987-4.4701-0.41-7.6261-0.224-1.1613-0.7108-4.4904-1.0817-7.3979-0.5753-4.5097-2.2824-13.868-2.6332-14.436-0.061-0.099-0.2902-1.2852-0.5086-2.6355-0.2184-1.3504-0.442-2.5002-0.4969-2.5551-0.055-0.055-1.6356 0.081-3.5126 0.3028-2.0641 0.2436-8.3529 0.5199-15.914 0.6991-12.889 0.3057-13.296 0.2844-13.296-0.6952 0-1.0137 0.4579-1.0533 14.129-1.2201 8.2009-0.1001 14.214-0.2889 15.769-0.4953 1.3825-0.1834 2.5516-0.3669 2.5981-0.4078 0.047-0.041-0.059-0.8027-0.2339-1.6929-0.3176-1.6145-0.3205-1.6182-1.1429-1.4809-1.8314 0.3058-6.4325 0.6666-8.4592 0.6633-1.1851 0-4.389 0.1409-7.1197 0.3174-4.4873 0.2899-5.006 0.2796-5.3921-0.1065-0.2728-0.2728-0.37-0.6549-0.269-1.0573l0.1581-0.6301 8.0121-0.3407c8.8979-0.3783 12.802-0.6264 12.988-0.8251 0.068-0.073-0.1904-1.3677-0.5741-2.8776l-0.6976-2.7452-11.172 0.1195c-7.4404 0.079-11.262 0.029-11.443-0.152-0.4444-0.4444-0.3087-1.4499 0.235-1.7409 0.3436-0.1839 2.363-0.188 6.2838-0.013 3.1776 0.142 7.9923 0.2598 10.699 0.2617h4.9218l-0.7486-3.1088c-0.4118-1.7099-0.7514-3.4363-0.7547-3.8365-0.01-0.835 0.1313-0.8161-3.4456-0.4725-1.3825 0.1328-5.1925 0.3674-8.4667 0.5213-3.2742 0.154-6.728 0.3443-7.6752 0.4229-2.0634 0.1714-2.8192-0.1988-2.555-1.2515l0.1666-0.6637 7.4792-0.1526c4.1136-0.084 9.0119-0.3037 10.885-0.4883l3.406-0.3357-0.187-2.7918c-0.1028-1.5354-0.2215-2.8262-0.2636-2.8684-0.042-0.042-4.7292-0.1017-10.416-0.1323-7.5101-0.04-10.424-0.1408-10.65-0.367-0.1805-0.1806-0.2395-0.5973-0.1404-0.9922l0.1708-0.6808h20.895l-0.156-2.3151c-0.086-1.2733-0.2089-2.4825-0.2736-2.6871-0.1-0.3153-1.9684-0.3488-12.283-0.2198-11.644 0.1457-12.177 0.1312-12.427-0.3364-0.2951-0.5515-0.096-1.302 0.3603-1.3577 0.1663-0.02 5.7078-0.01 12.314 0.032l12.012 0.068-0.1803-1.7596c-0.2062-2.0131-1.289-7.9078-1.8647-10.152-0.2135-0.8322-0.6972-3.2022-1.0749-5.2665-0.8735-4.7741-2.5338-11.271-3.546-13.876-1.1424-2.94-1.2852-3.6521-1.612-8.0357-0.3346-4.4883-0.774-7.7168-1.7285-12.7-1.0823-5.6507-1.224-6.2634-1.712-7.4019-0.2572-0.5999-0.5526-1.9377-0.6566-2.9729-0.257-2.559-0.7205-2.9944-3.2064-3.0125-1.0056-0.01-2.6618 0.1179-3.6804 0.2782-2.2216 0.3496-12.664 3.0652-21.431 5.5733-3.4925 0.9991-7.5406 2.1159-8.9958 2.4817-3.1051 0.7806-10.572 3.1517-14.156 4.4954-1.383 0.5184-4.5382 1.4965-7.0114 2.1734l-4.4968 1.2308-8.9958 0.2115c-4.9477 0.1163-10.603 0.3417-12.568 0.5008-7.4177 0.601-19.878 1.9112-24.209 2.5457-10.614 1.5547-13.057 1.8529-27.12 3.3102-1.3824 0.1432-3.1684 0.371-3.9688 0.5061-0.8003 0.1351-4.1341 0.5583-7.4083 0.9404-5.3633 0.6259-14.992 2.3927-18.785 3.4469-0.8004 0.2225-3.4793 1.048-5.9531 1.8345-2.4739 0.7866-5.3314 1.6203-6.35 1.8527-2.4331 0.5552-5.4148 1.5738-7.5086 2.5651l-1.6877 0.7991 0.184 2.5499c0.1013 1.4025 0.5259 4.574 0.9437 7.0478 0.4178 2.4739 1.0105 6.7006 1.3171 9.3927 0.3066 2.6922 1.0177 6.9784 1.5802 9.525 1.4706 6.6583 1.6347 8.0411 2.7935 23.548 0.223 2.9831 0.5757 6.8527 0.7838 8.5989 0.2082 1.7463 0.4531 4.068 0.5444 5.1594 0.3244 3.8823 1.4897 10.978 3.0541 18.597 2.6878 13.091 2.8551 13.985 3.7014 19.805 1.5165 10.428 1.8133 12.776 2.1025 16.631 0.3082 4.1087 1.2473 12.602 1.4581 13.187 0.07 0.19485 0.3057 2.6952 0.5232 5.5562 0.4028 5.2962 0.6792 6.9179 1.2612 7.3984 0.9828 0.81162 3.2471 0.91229 6.7854 0.30168zm81.25-42.846c-3.1801-0.2127-8.0406-0.9145-12.129-1.7513-3.5598-0.7287-13.895-5.3248-17.545-7.8024-2.0079-1.363-5.2913-4.6527-7.3766-7.3909-1.7704-2.3247-4.8693-8.2814-6.7357-12.947-0.5515-1.3787-1.3081-3.9385-1.6815-5.6886-0.643-3.0143-0.6791-3.6067-0.6858-11.252-0.01-8.6012 0.2525-11.092 1.7533-16.801 0.7321-2.7848 1.2307-3.7369 4.6536-8.8875 3.43-5.1612 5.068-7.1665 7.6617-9.3795 2.4469-2.0879 4.6082-3.2081 8.9337-4.6306 1.8918-0.6222 5.0461-1.7185 7.0097-2.4363 6.3952-2.3378 13.687-3.9018 18.2-3.9033 1.1233-3e-4 3.5247 0.1977 5.3362 0.4401 2.7876 0.3729 3.3819 0.5357 3.8668 1.059 0.3152 0.34 0.738 0.6201 0.9396 0.6224 0.6415 0.01 4.881 2.0016 7.1613 3.369 1.2106 0.726 3.2041 1.8948 4.43 2.5974 2.8112 1.6113 5.1501 3.7868 7.5195 6.9941 1.0213 1.3824 2.5673 3.3407 3.4356 4.3518 3.1015 3.6114 5.5755 8.2699 6.8481 12.895 0.5779 2.1002 0.6051 2.6204 0.6002 11.46-0.01 9.8009-0.01 9.8224-1.5743 18.918-0.5865 3.4042-0.8107 4.1345-1.9903 6.4823-1.3241 2.6355-4.9267 7.9004-7.2376 10.577-2.2532 2.6098-11.353 8.9259-15.916 11.047-4.273 1.9863-8.3773 2.5318-15.478 2.057zm9.9382-2.1281c4.1536-1.0676 9.0419-3.8244 16.345-9.218 1.3506-0.9975 3.0022-2.4546 3.6701-3.2379 2.4541-2.878 5.6596-7.3771 6.6073-9.2737 1.1439-2.2892 1.4577-3.4343 2.7789-10.142l0.9902-5.0271 0.096-8.4208c0.104-9.1482-0.034-10.553-1.4451-14.73-1.1258-3.3323-3.5155-7.3088-6.047-10.062-0.7565-0.8228-2.0055-2.4299-2.7757-3.5713-1.7011-2.5209-4.4951-5.2853-6.6969-6.6258-0.8978-0.5466-2.7039-1.679-4.0136-2.5164s-3.6909-2.087-5.2917-2.7769c-1.6007-0.6899-3.0976-1.4134-3.3265-1.6077-0.2289-0.1944-1.5386-0.5926-2.9105-0.8849-7.515-1.6014-12.582-0.7826-27.712 4.4781-6.7793 2.3572-8.3802 3.0783-10.81 4.8687-3.9207 2.8893-10.132 11.943-11.739 17.111-1.9233 6.1846-2.5174 11.093-2.2896 18.918 0.2732 9.3877 1.2829 13.006 5.9848 21.447 2.7635 4.9608 4.0919 6.8247 6.3209 8.8683 2.8563 2.6188 4.7455 3.9193 8.1155 5.5866 6.5767 3.2538 11.848 5.2757 14.992 5.7508 1.0688 0.1615 3.1338 0.5248 4.589 0.8074 3.6514 0.7091 3.7202 0.7153 8.3507 0.7599 3.3739 0.033 4.4966-0.058 6.2177-0.5001zm-40.143-20.823c-2.3068-3.4382-4.5965-8.1429-6.1054-12.545l-1.1196-3.2663-0.182-12.589 0.9734-3.8896c1.1169-4.4634 1.687-6.0682 3.4136-9.6087 1.3425-2.7531 3.8414-5.8634 7.1823-8.9397 2.9072-2.6769 6.8172-4.2425 7.7596-3.1069 0.5051 0.6085 0.077 1.107-1.5049 1.7518-0.8305 0.3385-2.1286 1.0204-2.8847 1.5154-1.7054 1.1163-6.9657 6.5498-7.9239 8.1849-1.258 2.1464-2.679 5.7486-3.7003 9.3796l-0.9967 3.5435-0.1005 6.2625c-0.12 7.4749-0.092 7.6215 2.6274 13.732 1.8091 4.0647 3.3642 6.7841 5.418 9.4738 0.9586 1.2555 1.1726 2.5143 0.4729 2.7828-1.0898 0.4182-1.4361 0.1392-3.3283-2.6811zm37.415-9.2424c-0.7214-0.2853-0.2912-1.3593 1.1907-2.9721 2.4165-2.6302 5.2924-6.6518 5.6371-7.8828 0.4352-1.5545 0.1856-6.9759-0.3953-8.5843-0.5418-1.5001-2.8351-4.0914-4.654-5.2585-1.1968-0.768-1.3348-0.9521-1.2633-1.6855 0.07-0.7187 0.1913-0.834 0.9548-0.9073 1.6689-0.1603 5.8037 3.8196 7.2483 6.9768 0.5167 1.1291 0.6122 1.8451 0.694 5.2034 0.116 4.764-0.087 5.4888-2.4645 8.8059-3.4788 4.8532-5.6456 6.8194-6.9478 6.3044zm-11.069-4.3095c-3.0954-0.2815-6.1739-2.1652-7.3938-4.5242-1.034-1.9996-0.5579-6.0567 1.1161-9.5093 0.9256-1.9091 3.7198-4.6652 5.8803-5.8001 2.7937-1.4676 6.4088-1.3577 9.6447 0.2931 1.6207 0.8269 3.7849 3.1582 4.6716 5.0326 0.7112 1.5033 0.7878 1.9235 0.7879 4.3251 3e-4 3.1909-0.5171 4.4826-2.6802 6.6916-2.7375 2.7956-6.778 3.9685-12.027 3.4912zm7.6153-2.9801c1.7841-0.8196 3.752-2.6962 4.4579-4.2512 0.7821-1.7227 0.7063-4.5155-0.167-6.1581-1.1801-2.2193-2.1531-3.2208-4.0232-4.1406-1.5517-0.7631-2.0257-0.8691-3.8877-0.8691-2.6737 0-4.0605 0.6304-6.3556 2.8888-1.3647 1.3429-1.7734 1.9689-2.4704 3.7834-1.449 3.7724-1.0011 6.2846 1.4546 8.1577 1.4891 1.1358 2.9704 1.4484 6.4415 1.3595 2.6216-0.067 3.2513-0.1738 4.5499-0.7704zm-76.071-57.095c-1.2078-0.3626-2.584-1.5746-3.1146-2.743-0.8722-1.9205-0.6024-3.7857 0.9108-6.2987 0.4914-0.8161 0.9659-1.7637 1.0544-2.1058 0.089-0.3421 0.5823-0.9063 1.0972-1.2538 0.8618-0.5816 1.1251-0.6211 3.3091-0.4966 4.5981 0.2622 6.4005 1.846 6.3808 5.6072-0.01 1.8042 0.041 1.989 0.6579 2.3929 0.9953 0.6521 0.7826 1.5958-0.3588 1.5923-0.5855 0-0.9087 0.1437-1.007 0.4536-0.2382 0.7504-2.39 2.4761-3.5036 2.8098-1.1786 0.3531-4.3091 0.3774-5.4262 0.042zm5.165-2.2784c0.2483-0.07 0.7709-0.5064 1.1614-0.9705l0.71-0.8438-1.5334-0.4668c-1.7563-0.5347-2.2446-0.8657-2.2446-1.5215 0-0.9293 0.6958-1.1831 2.199-0.8019 0.7551 0.1915 1.5217 0.4034 1.7036 0.471 0.235 0.087 0.3307-0.2357 0.3307-1.1163 0-1.0076-0.1399-1.3793-0.7484-1.9878-1.0888-1.0887-3.3331-1.6091-5.0063-1.1607-0.3274 0.088-0.5953 0.2737-0.5953 0.4131 0 0.1395-0.471 1.0484-1.0466 2.0197-2.159 3.6432-1.5978 5.5475 1.8064 6.1296 1.1387 0.1947 2.1698 0.1428 3.2635-0.1641zm19.565-1.8846c-0.7779-0.3895-1.8759-1.1696-2.4398-1.7335-1.6529-1.6529-1.7139-3.3115-0.2394-6.5104 0.8674-1.8819 2.1468-3.1917 4.321-4.4235 1.7019-0.9643 1.7571-0.9801 2.3703-0.6782 0.3176 0.1564 0.9942 0.3651 1.5035 0.4639 1.9148 0.3713 3.8856 1.8634 4.8378 3.6626 1.1746 2.2196 0.6098 5.8312-1.2574 8.0403-1.2531 1.4827-2.4245 1.908-5.2235 1.8968-2.1247-0.01-2.6498-0.1059-3.8725-0.718zm5.9917-1.7605c1.9417-1.0103 3.2236-3.7338 2.6937-5.723-0.3732-1.4008-2.4428-3.1657-3.7122-3.1657-0.1393 0-0.1726 0.676-0.078 1.5818 0.1831 1.7519-0.1039 2.3869-1.079 2.3869-0.9379 0-1.2111-0.5231-1.2111-2.3188v-1.6838l-1.036 0.5823c-1.0267 0.577-2.132 2.1882-2.8607 4.1701-0.8038 2.1861 1.8053 4.5419 5.0304 4.5419 0.8461 0 1.8599-0.1673 2.2528-0.3717zm22.584-1.8868c-1.8819-0.4084-4.0002-1.6404-4.834-2.8113-0.4844-0.6802-0.5355-1.0322-0.4087-2.8148 0.08-1.1205 0.1813-2.3349 0.2259-2.6987 0.069-0.5672-0.1373-0.7747-1.4491-1.4552-1.6046-0.8325-2.1211-1.6482-1.5098-2.3847 0.4754-0.5729 1.2503-0.4846 2.5784 0.2937l1.1726 0.6872 0.7027-0.6549c1.1937-1.1122 1.7323-1.2486 4.9293-1.2486 2.5022 0 3.2523 0.093 4.0523 0.5049 2.3375 1.2024 3.6133 3.5674 3.5812 6.6388-0.024 2.2927-0.5173 3.6988-1.7414 4.9635-1.3687 1.4143-3.7967 1.7403-7.2994 0.9801zm5.0071-2.4262c1.5287-0.9031 2.2186-3.7557 1.3714-5.6704-0.9458-2.1374-3.4901-3.1811-6.6842-2.7418-1.1354 0.1562-1.3229 0.2652-1.3229 0.7691 0 0.3229 0.3572 0.9293 0.7938 1.3476 1.4329 1.3728 0.6555 2.864-0.9461 1.8146-0.6756-0.4427-0.7209-0.4413-1.067 0.032-0.5443 0.7444-0.746 2.196-0.3684 2.651 0.4538 0.5468 2.0076 1.4778 3.1441 1.884 1.4153 0.5057 4.156 0.4593 5.0793-0.086zm23.659 0.6221c-1.9111-0.4944-3.3403-1.3055-4.4348-2.517-2.0943-2.3182-1.5487-5.3211 1.566-8.6185l1.485-1.572 1.8825-0.015c2.5007-0.021 4.1505 0.4954 5.5648 1.7403 1.2179 1.0721 2.0048 2.7613 2.008 4.3107 0 0.6291 0.1848 0.9169 0.8124 1.2741 1.1353 0.6462 1.0042 1.6204-0.2339 1.7393-0.5247 0.05-0.9393 0.2623-1.0353 0.5292-0.9203 2.5576-4.3603 3.9713-7.6147 3.1294zm4.155-2.881c1.3258-0.742 1.456-1.1998 0.397-1.3964-0.4663-0.087-1.0859-0.2009-1.377-0.2541-0.291-0.053-0.7352-0.1058-0.9871-0.1169-0.6027-0.027-0.9003-1.2193-0.4421-1.7714 0.281-0.3385 0.6542-0.3869 1.8995-0.246 0.8524 0.096 1.7392 0.248 1.9707 0.3369 0.6379 0.2448 0.2514-1.6872-0.497-2.4838-0.9544-1.016-5.5159-2.1978-5.5159-1.4292 0 0.1362-0.6548 0.892-1.4552 1.6797-1.3106 1.2899-1.4552 1.5438-1.4552 2.5559 0 3.1431 4.25 4.9231 7.4623 3.1253zm18.467-1.8205c-1.1981-0.3579-2.5581-1.3981-3.1965-2.4452-0.3754-0.6156-0.5059-1.3261-0.5067-2.758 0-2.2765 0.4541-3.3439 2.4498-5.7442 1.6175-1.9452 2.7724-2.4783 5.4138-2.4987 1.848-0.014 1.925-0.041 2.3199-0.8047 0.4474-0.8653 1.5754-1.3144 2.0668-0.823 0.2321 0.2321 0.2053 0.5876-0.1106 1.466-0.4131 1.1487-0.4109 1.1629 0.2274 1.5046 0.3545 0.1897 0.8862 0.8187 1.1817 1.3979 1.4101 2.764-0.9364 8.5406-4.1384 10.188-1.4651 0.7536-4.113 0.9938-5.7072 0.5177zm4.8528-2.812c2.2302-1.5968 3.6541-5.9638 2.3648-7.2531-0.5215-0.5215-0.5266-0.5185-1.3899 0.8268-0.9382 1.4621-1.5833 1.952-2.2389 1.7004-0.7797-0.2992-0.7913-1.3607-0.028-2.5148 0.3915-0.5915 0.6488-1.1385 0.5719-1.2154-0.2438-0.2438-2.5456 0.2084-2.5456 0.5 0 0.1536-0.6434 0.9742-1.4299 1.8236-1.5704 1.6962-2.0029 2.9732-1.4762 4.3585 1.0209 2.6852 3.7878 3.4805 6.1714 1.774zm15.652-1.7645c-1.0593-0.4743-2.3917-1.9098-2.897-3.1212-0.9776-2.3438-0.087-5.1095 2.3255-7.2258 2.3173-2.0324 4.9964-3.0846 5.3706-2.1093 0.097 0.252 0.5042 0.3973 1.1162 0.3979 1.2205 0 2.446 0.7425 3.1734 1.9196 0.4567 0.7389 0.6942 0.8924 1.2242 0.7911 2.0322-0.3885 2.6696 0.8503 0.9474 1.8414-0.8419 0.4845-1.0994 0.8251-1.3368 1.7677-0.1617 0.6421-0.4764 1.5203-0.6994 1.9515-0.6609 1.278-2.532 3.1493-3.6678 3.6681-1.2738 0.5818-4.3741 0.6482-5.5563 0.119zm3.8489-1.7407c0.4778 0 1.1162-0.3102 1.7083-0.83 0.9466-0.8312 2.4231-3.0518 2.1865-3.2884-0.069-0.069-0.7523 0.01-1.518 0.1727-1.7311 0.3712-2.6538 0.046-2.6538-0.9341 0-0.779 0.4871-1.0743 2.1766-1.3193 0.6879-0.1 1.3141-0.2841 1.3916-0.4095 0.1828-0.2959-0.8348-1.0897-2.167-1.6904-1.0363-0.4673-1.0721-0.4653-2.3512 0.1356-2.8495 1.3386-4.5128 3.9627-3.7178 5.8655 0.5542 1.3262 2.7881 2.7305 3.8295 2.4073 0.1938-0.06 0.6957-0.1094 1.1153-0.1094zm-129.98 153.92c-0.056-0.1819-0.5391-0.54725-1.0727-0.81187-0.8386-0.41596-1.0687-0.43388-1.6979-0.13229-1.1392 0.54599-0.8781 0.86488 0.8448 1.032 0.8731 0.0847 1.6867 0.17397 1.808 0.19844 0.1212 0.0245 0.1743-0.10435 0.1178-0.28625zm0.4284-12.67c0.8339-0.37993 1.0129-0.83959 0.5653-1.4517-0.2685-0.36723-0.6888-0.47574-1.7814-0.45995-1.4673 0.0212-3.5865 0.79815-3.2041 1.1747 0.9652 0.95025 3.1519 1.3148 4.4202 0.73697zm-3.1967-15.079c1.5535-0.8001 2.2058-2.0697 1.451-2.8244-0.1746-0.1746-0.8018-0.3175-1.3938-0.3175-1.1621 0-2.82 0.9256-3.3152 1.8511-0.6275 1.1724 1.6986 2.094 3.258 1.2908zm211.56-6.763c0.1781-0.3909 0.6505-1.135 1.0499-1.6537 0.3993-0.5186 1.3108-1.8939 2.0255-3.0562 1.3847-2.2519 4.1132-5.5243 9.2596-11.106 1.7497-1.8975 5.6787-6.3075 8.7313-9.8 3.0525-3.4925 6.5621-7.4064 7.799-8.6977 3.5809-3.7381 15.274-14.466 18.596-17.061 1.6427-1.2832 2.5707-2.5299 2.5707-3.4534 0-0.6663-0.7051-2.1205-1.8532-3.8215-0.4434-0.6571-1.2097-2.2798-1.7027-3.6061-1.1307-3.041-2.7591-5.9068-7.1445-12.573-1.9147-2.9104-3.9348-6.0431-4.4892-6.9615-2.5706-4.2587-8.2328-11.006-13.698-16.322-2.2717-2.2099-5.2528-5.5678-8.3389-9.3927-2.6418-3.2742-5.7591-7.0214-6.9273-8.3271-1.9372-2.1651-5.5282-5.5397-7.1758-6.7433l-0.6615-0.4832 0.1991 3.6096c0.1934 3.5079 0.5665 26.552 0.5853 36.153 0.013 6.44-0.4187 7.2748-3.9594 7.6626-0.8731 0.096-2.659 0.3309-3.9687 0.5227-1.7264 0.253-6.5609 0.3596-17.579 0.3877-8.3589 0.021-15.241 0.082-15.294 0.1351-0.053 0.053-5e-4 1.2705 0.1167 2.7056l0.213 2.6092h7.8052c4.2929 0 9.83-0.1084 12.305-0.2372 3.9848-0.2075 4.5396-0.1859 4.8505 0.1888 0.6142 0.7401 0.2658 1.3446-0.8856 1.5365-2.6731 0.4455-13.291 0.8086-18.421 0.63l-5.4585-0.1901 0.121 2.4771c0.066 1.3625 0.1676 2.626 0.2247 2.8079 0.079 0.2519 1.5478 0.3307 6.1651 0.3307 6.4045 0 6.8315 0.08 6.6081 1.24-0.139 0.7218-1.6163 0.8579-7.4273 0.6843-4.3398-0.1297-5.2255-0.094-5.2255 0.2086 0 0.2006 0.3715 1.9011 0.8257 3.7789l0.8257 3.414 6.6488-0.1747c3.6568-0.096 8.018-0.3132 9.6914-0.4824 1.6735-0.1692 3.5785-0.3136 4.2334-0.321 1.0914-0.012 1.1906 0.041 1.1906 0.6363 0 0.5812-0.1908 0.6987-1.8084 1.1144-2.4247 0.623-7.9046 1.0117-14.283 1.013-4.8657 1e-3 -5.2341 0.034-5.1154 0.4641 0.6831 2.4726 1.3348 4.714 1.3932 4.7914 0.039 0.052 2.5716-0.058 5.6271-0.2441 4.5439-0.2774 5.6306-0.2768 5.9683 0 0.4583 0.3803 0.5511 1.2195 0.1616 1.4603-0.1382 0.085-2.5747 0.2911-5.4144 0.4571-2.8396 0.1659-5.2773 0.3724-5.4171 0.4588-0.2416 0.1493 0.2781 3.0602 0.6046 3.3867 0.077 0.077 6.1278-0.1277 13.445-0.4558 13.947-0.6253 16.482-0.6046 18.067 0.1478 1.946 0.9234 1.8348-0.1162 2.0057 18.756 0.1335 14.75 0.2116 17.168 0.6023 18.665 0.962 3.686 1.1564 3.9923 1.7321 2.7289zm-211.68-11.837c0.8269-0.4276 1.5217-1.685 1.1413-2.0654-0.1349-0.1349-0.7375-0.3559-1.339-0.491-1.1659-0.262-2.5678 0.1343-3.5184 0.9945-0.5538 0.5012-0.4346 0.754 0.6744 1.4302 0.9886 0.6028 2.0425 0.6484 3.0417 0.1317zm-3.284-16.125c0.9155-0.5999 0.8895-1.4327-0.051-1.6388-0.4002-0.088-0.8731-0.204-1.0509-0.2584-0.1778-0.054-0.6727 0.023-1.0998 0.1716-0.9083 0.3167-1.7868 1.8079-1.2727 2.1605 0.4905 0.3364 2.7239 0.057 3.4745-0.4349zm0.1025-16.393c0.2489-1.3132-0.6176-2.5587-1.78-2.5587-0.9514 0-2.0312 1.0986-1.686 1.7154 0.7262 1.2975 3.2628 1.9148 3.466 0.8433zm-6.6234-22.206c0.491-0.5917 0.6609-1.7685 0.3154-2.1848-0.8378-1.0094-2.9988 0.035-2.3975 1.1585 0.2799 0.523 1.2843 1.3585 1.6331 1.3585 0.095 0 0.2973-0.1495 0.449-0.3322zm-0.9594-15.187c1.1553-1.0455-0.025-2.6429-2.1655-2.9299l-1.0371-0.1392 0.2348 0.8188c0.2871 1.0013 0.4679 1.3286 1.1559 2.0928 0.637 0.7076 1.1543 0.7526 1.8119 0.1575zm-5.6015-14.093c0-1.9797 0.1672-2.4029 0.9493-2.4029 0.7154 0 0.8605 0.3971 0.9665 2.6458l0.069 1.4553 1.4808-1.4738c0.8144-0.8106 1.5619-1.7975 1.6612-2.193 0.2728-1.0869-0.5141-2.4475-2.1142-3.6556-1.1673-0.8813-1.6703-1.0845-2.9787-1.2031-1.8838-0.1708-2.6921 0.2805-3.9776 2.2213-0.635 0.9587-0.8183 1.5257-0.8183 2.5304 0 0.7123 0.1285 1.5352 0.2856 1.8287 0.3472 0.6487 2.7454 1.8066 3.7493 1.8102 0.712 0 0.7276-0.031 0.7276-1.5633zm-16.444-12.573c3.0575-1.7228 5.2283-2.5628 8.2435-3.1898 1.236-0.257 4.4499-1.0997 7.142-1.8725 5.7553-1.6523 8.0075-2.2292 12.303-3.1515 5.4696-1.1744 6.9867-1.4254 12.832-2.1236 3.1287-0.3737 8.5461-1.0293 12.039-1.457 3.4925-0.4276 8.255-0.9656 10.583-1.1954 2.3284-0.2298 7.0909-0.8336 10.583-1.3418 15.397-2.2407 29.364-3.5047 41.936-3.7953l9.1281-0.2109 3.5719-0.923c1.9645-0.5076 5.9531-1.7605 8.8636-2.7842 6.2526-2.1993 9.0328-3.0621 15.081-4.6801 2.4739-0.6618 6.7601-1.8656 9.525-2.6751 2.7649-0.8094 7.8251-2.1814 11.245-3.0488s6.3297-1.612 6.4666-1.6547c0.4664-0.1456-3.417-1.4369-5.6729-1.8863-1.2369-0.2464-3.0063-0.6771-3.9321-0.9571-3.8921-1.1771-8.5792-1.1375-14.563 0.1232-1.6875 0.3554-4.0206 0.7845-5.1848 0.9535-1.1641 0.1689-2.884 0.4805-3.822 0.6923-0.9379 0.2119-2.9024 0.5055-4.3656 0.6525-3.5896 0.3606-9.5341 1.2377-12.48 1.8412-1.326 0.2717-3.8859 0.6837-5.6885 0.9156-1.8027 0.2319-4.6468 0.645-6.3203 0.9181-1.6735 0.273-5.1858 0.8109-7.8052 1.1952s-6.2508 0.9843-8.0698 1.3332c-6.1283 1.1757-15.91 2.3765-21.431 2.6311-4.8415 0.2232-8.9292 0.7957-12.211 1.7103-1.506 0.4197-4.4645 1.0207-6.5746 1.3355-2.11 0.3149-8.0631 1.285-13.229 2.1558-9.2205 1.5544-18.72 2.8725-20.728 2.8763-2.5273 0-6.8107 1.1499-14.279 3.8174-3.6954 1.3199-6.7101 2.1277-11.857 3.1774-3.3986 0.6932-4.7194 1.0939-9.8884 3-4.8504 1.7887-8.3903 3.3948-12.303 5.5822l-1.7198 0.9614 13.494 0.3106 3.0427 1.0623c1.6735 0.5843 3.1439 1.08 3.2676 1.1015 0.1236 0.021 1.3738-0.6082 2.7781-1.3995zm388.8 110.03c-2.5147-0.7324-4.3378-1.7417-6.5817-3.6437-2.1914-1.8575-3.3747-3.3614-4.6089-5.8572-1.5261-3.086-1.9338-4.9625-1.8066-8.3163 0.1385-3.6558 0.8089-5.139 4.5367-10.037 1.2078-1.5869 4.939-4.2597 7.3188-5.2426 1.4807-0.6116 3.2905-0.8043 3.5537-0.3784 0.08 0.1294 1.605 0.3204 3.389 0.4245 1.7841 0.1041 4.9346 0.5291 7.0012 0.9445 5.2749 1.0602 6.9897 2.0073 9.1122 5.0331l1.0976 1.5648 20.136 0.01c31.605 0.013 51.919 0.8587 54.723 2.2788 0.9465 0.4794 1.7905 1.3817 2.1025 2.2478 0.2465 0.6842 0.3078 0.7005 3.0802 0.8155 3.3492 0.139 3.3551 0.1368 7.6066-2.8783 1.6093-1.1412 4.4402-2.8406 6.2909-3.7764 3.191-1.6135 3.48-1.7075 5.5911-1.8183 2.0435-0.1073 2.363-0.053 3.8956 0.6656 1.637 0.7673 7.5356 4.6725 11.724 7.7616 2.537 1.8714 3.811 2.3629 6.6231 2.5552 4.5599 0.3118 7.7988-0.586 11.633-3.2248 2.4743-1.7028 8.6978-4.7269 10.83-5.2625 1.1476-0.2883 2.8565-0.4306 5.1699-0.4306 2.9955 0 3.8339 0.103 6.2956 0.7734 1.562 0.4254 3.3757 0.856 4.0306 0.9568 1.6279 0.2507 2.1167 0.5559 2.1167 1.3218 0 0.3587-0.089 0.6669-0.1985 0.6849-1.6499 0.2725-3.2184 0.1112-6.014-0.6183-4.0026-1.0446-8.811-1.2045-11.25-0.3743-2.4095 0.8201-7.3839 3.3381-9.6472 4.8833-2.6577 1.8143-4.3587 2.6032-6.6684 3.0925-2.3785 0.504-7.2219 0.504-9.1566 1e-4 -1.5748-0.4102-5.1821-2.5023-7.9579-4.6152-2.4612-1.8735-8.0652-5.5843-9.0626-6.0011-2.5316-1.0577-5.7436 0.2057-13.202 5.193-1.4552 0.9731-3.1816 2.0385-3.8365 2.3676-0.6548 0.329-1.4287 0.8798-1.7198 1.2238-0.291 0.3441-1.6602 1.0921-3.0427 1.6623-2.4159 0.9964-2.5195 1.0731-2.6681 1.976-0.298 1.8116-0.5718 1.9678-5.8364 3.3287-2.2347 0.5776-5.3134 1.4142-6.8413 1.859-1.528 0.4447-4.7427 1.1736-7.1438 1.6196s-5.8539 1.1084-7.6729 1.4718c-2.7496 0.5495-4.5566 0.7023-10.716 0.9064-4.0746 0.1351-8.6585 0.3632-10.186 0.507-6.5386 0.6154-10.025 0.7872-19.522 0.962l-10.052 0.185-0.675-0.675c-0.6449-0.645-0.6941-0.6539-1.1037-0.2013-0.7597 0.8395-4.4211 3.2332-6.1319 4.0089-1.6594 0.7524-1.6682 0.7533-7.0251 0.7259-4.8208-0.025-5.5828-0.091-7.5292-0.6581zm11.523-1.6595c0.4834-0.1356 0.7389-0.5368 1.1206-1.7596 0.2718-0.8711 0.496-1.6453 0.4982-1.7204 0-0.075-1.2843-0.092-2.8587-0.038s-4.3303-0.036-6.1241-0.1996c-1.7938-0.1637-3.3099-0.2493-3.3689-0.1902-0.1031 0.103 1.7263 3.1217 2.3065 3.806 0.3019 0.3561 7.222 0.4401 8.4264 0.1023zm-12.089-1.5576c-0.2969-0.4169-0.7325-1.2396-0.9679-1.8281-0.3994-0.9981-0.5296-1.0925-1.9365-1.4039-0.8295-0.1837-2.0831-0.5506-2.7856-0.8154l-1.2774-0.4814 0.3806 0.5777c1.0125 1.5368 6.4854 5.2664 7.0316 4.7918 0.052-0.045-0.1479-0.4237-0.4448-0.8407zm19.995-3.0598c1.5284-1.4896 1.7841-2.0243 0.6615-1.3832-0.4002 0.2286-1.442 0.7006-2.3151 1.049-1.5123 0.6034-1.6145 0.7031-2.1579 2.1051l-0.5704 1.4718 1.4964-0.9445c0.8231-0.5194 2.1215-1.5536 2.8855-2.2982zm30.229 0.2869c2.9832-0.2349 6.9717-0.4997 8.8635-0.5884 11.156-0.5233 12.118-0.6361 22.49-2.6371 2.9202-0.5634 14.587-3.7073 14.93-4.0233 0.062-0.057-0.1593-0.3579-0.4922-0.668-0.3328-0.3101-0.7598-0.9339-0.9487-1.3862-0.4545-1.0885-1.1857-4.6672-1.1857-5.8038 0-0.8374-0.072-0.9144-0.9922-1.0666-0.5457-0.09-2.0042-0.1667-3.2411-0.17-1.2369 0-3.8563-0.182-5.8208-0.3971-8.2305-0.9012-57.125-1.5831-58.792-0.8199-0.3519 0.1611-0.4103 0.3913-0.2646 1.0427 0.1029 0.4598 0.1787 3.0982 0.1685 5.8631-0.021 5.5712-0.3324 7.3709-1.7015 9.8187l-0.7562 1.352 11.16-0.045c7.4593-0.03 12.959-0.1861 16.584-0.4715zm-37.167-1.5471 1.6373-0.2851 1.0963-3.2463c0.603-1.7855 1.0963-3.4236 1.0963-3.6402 0-0.3287-0.4487-0.3797-2.712-0.3084-1.4916 0.047-5.6018 0.1293-9.1339 0.1828-3.532 0.053-6.4784 0.1538-6.5475 0.223-0.121 0.121 0.086 0.9344 1.2118 4.7685 0.4965 1.6904 0.5661 1.7831 1.4648 1.9517 3.1778 0.5962 9.4275 0.7823 11.887 0.354zm-16.066-3.8747c-0.4241-1.5603-0.8172-2.8829-0.8734-2.9392-0.098-0.098-5.736 0.7505-5.9031 0.8889-0.045 0.037 0.093 0.4858 0.3067 0.997 0.2583 0.6181 0.7997 1.1704 1.6166 1.6492 1.2453 0.7298 4.7933 2.2153 5.3309 2.232 0.1839 0.01 0.01-1.0495-0.4777-2.8279zm22.057 2.075c0.6305-0.2735 1.5995-0.8611 2.1534-1.3058s1.1459-0.8547 1.3155-0.9113c0.1854-0.062 0.3482-0.8931 0.4085-2.0864l0.1001-1.9836-1.7524 0.2619c-1.581 0.2363-1.7662 0.3287-1.8919 0.9448-0.1431 0.7014-1.2465 4.2873-1.5738 5.1148-0.2286 0.5777-0.1664 0.576 1.2406-0.034zm-25.375-6.8149 1.9149-0.1613-0.085-2.3643c-0.047-1.3003-0.1956-2.3275-0.3303-2.2825s-1.4277 0.6771-2.8732 1.4048l-2.6284 1.3229-0.018 1.2906-0.018 1.2905 1.0616-0.1697c0.5839-0.093 1.9234-0.2423 2.9766-0.331zm14.88-0.8637c4.2201-0.1363 7.8914-0.2574 8.1585-0.2692 0.4444-0.02 0.4697-0.1956 0.2986-2.072-0.1029-1.1278-0.2056-2.0737-0.2283-2.1019-0.023-0.028-1.1096-0.1811-2.4153-0.3396-1.3056-0.1586-3.5591-0.5389-5.0077-0.8452-2.1501-0.4547-3.1703-0.5287-5.5562-0.4029-1.6074 0.085-3.595 0.2938-4.417 0.4647-1.3543 0.2815-1.5095 0.3852-1.6537 1.1063-0.2251 1.1257-0.1979 4.5713 0.038 4.8072 0.1084 0.1084 0.8526 0.1304 1.6537 0.049 0.801-0.082 4.9093-0.2599 9.1294-0.3962zm14.42-1.2084c0-1.1829-0.073-1.4189-0.4003-1.2933-0.2201 0.084-0.5475 0.04-0.7276-0.099-0.18-0.1387-0.8486-0.4548-1.4856-0.7024l-1.1584-0.4502 0.1626 0.6067c0.089 0.3337 0.1641 1.1128 0.1661 1.7312v1.1245h1.2568c0.6912 0 1.4353 0.1194 1.6536 0.2605s0.4267 0.2583 0.463 0.2605c0.036 0 0.066-0.647 0.066-1.4428zm-30.448-3.8503c1.1725-0.5851 2.417-1.1722 2.7653-1.3047 0.4854-0.1845 0.7104-0.5697 0.9627-1.6481 0.1811-0.774 0.6115-2.112 0.9564-2.9732s0.5908-1.6022 0.5464-1.6466c-0.1324-0.1324-2.1008 1.2386-3.0499 2.1243-1.3502 1.26-4.9262 6.5121-4.434 6.5121 0.067 0 1.0805-0.4787 2.2531-1.0638zm29.632-1.0992c-0.9701-1.9077-2.5765-4.1237-3.4997-4.8279-0.8743-0.6668-2.8063-1.5862-2.9762-1.4163-0.05 0.05 0.4404 0.8534 1.0893 1.7858s1.379 2.3274 1.6226 3.1c0.2435 0.7726 0.5699 1.4051 0.7252 1.4056s0.9968 0.3396 1.8699 0.7536 1.6242 0.6607 1.6691 0.5481c0.045-0.1126-0.1802-0.7196-0.5002-1.3489zm-6.0662-0.6812c-0.01-0.461-1.6364-2.9305-2.6283-3.9803-0.5904-0.6248-1.0733-1.3619-1.0733-1.638s-0.1383-0.5875-0.3072-0.6919c-0.169-0.1044-2.2358-0.2747-4.5929-0.3785-2.3571-0.1037-4.4873-0.3014-4.7338-0.4393-0.2464-0.1379-0.7692-0.2015-1.1618-0.1413-0.7255 0.1113-1.2257 1.0199-2.9948 5.4399l-0.5121 1.2794 0.7351-0.1576c3.4472-0.7392 7.9441-0.8503 10.392-0.2568 3.5734 0.8663 6.8812 1.3301 6.8766 0.9644zm-86.384-58.119c-2.5339-0.7067-3.7142-1.2927-5.8745-2.9166-2.5959-1.9514-4.1963-3.8995-5.6396-6.8648-1.6198-3.3278-1.9455-4.8216-1.7918-8.2166 0.1601-3.5365 0.875-5.0986 4.5319-9.9034 1.2078-1.5869 4.939-4.2597 7.3188-5.2426 1.4807-0.6116 3.2905-0.8043 3.5537-0.3784 0.08 0.1294 1.605 0.3204 3.389 0.4245 1.7841 0.1041 4.936 0.5294 7.0043 0.9451 5.1048 1.026 6.8239 1.9284 8.8191 4.6292l1.0631 1.4389h19.108c30.999 0 54.195 1.0327 56.439 2.5032 0.3398 0.2227 0.975 0.4048 1.4116 0.4048 0.523 0 0.8904 0.1806 1.0769 0.5292 0.1676 0.313 0.554 0.5292 0.9462 0.5292 1.0917 0 9.168 1.8535 10.166 2.3332 0.6063 0.2912 0.9568 0.6621 1.0151 1.074l0.089 0.629 3.4829-0.1353c4.1904-0.1629 5.8315-0.6212 10.308-2.8784 6.0536-3.0527 9.3073-3.8427 14.854-3.6065 3.6032 0.1533 4.7226 0.5141 11.262 3.6294 2.6921 1.2826 5.5686 2.5784 6.3923 2.8796 2.5217 0.9222 6.9001 1.4232 11.566 1.3235l4.1704-0.089 1.834-0.9416c1.0087-0.5178 2.8799-1.5119 4.1581-2.2092 2.923-1.5944 7.0642-2.5307 11.212-2.535 3.4045 0 4.931 0.4568 9.0298 2.7229 4.4251 2.4465 5.6325 2.7918 11.508 3.2912l4.9704 0.4225 4.4223-0.7137c2.4322-0.3925 6.2082-0.8911 8.391-1.1079 5.1588-0.5124 8.4594-1.0267 12.743-1.9859 3.9507-0.8846 6.1879-1.0047 6.7223-0.3608 0.66 0.7952-0.034 1.2768-2.2949 1.5923-1.149 0.1603-4.5054 0.6692-7.4587 1.1309s-7.1205 1.0748-9.2604 1.3624c-2.14 0.2877-4.8433 0.6933-6.0075 0.9014-5.1049 0.9126-6.7691 1.0155-11.373 0.7032-6.366-0.4318-7.3981-0.7121-13.06-3.5468-4.7825-2.3943-4.8859-2.4314-7.0114-2.5156-1.2971-0.051-3.5684 0.1329-5.6959 0.4622-3.5148 0.5439-3.5608 0.5601-6.8429 2.4162-4.9162 2.7801-5.4554 2.959-9.33 3.0952-2.6998 0.095-4.0606-0.01-7.4084-0.5618-5.3171-0.8791-7.6029-1.6488-14.288-4.8116-4.9498-2.3419-6.0695-2.5901-10.974-2.4323-4.8791 0.157-6.0098 0.4834-11.677 3.371-4.7313 2.4106-6.4233 2.8794-11.212 3.1064-3.0409 0.1442-3.3413 0.2052-3.7845 0.7686-0.588 0.7475-1.7336 1.0523-4.7359 1.26-2.4708 0.1709-3.0294 0.3422-4.4213 1.3558-1.0197 0.7426-2.5422 0.8698-3.3491 0.2797-0.2893-0.2115-0.6294-0.2782-0.7801-0.1531-0.147 0.122-1.5166 0.5363-3.0435 0.9206-1.5269 0.3844-4.6217 1.2179-6.8772 1.8522-2.2556 0.6344-6.0656 1.524-8.4667 1.9768-2.4011 0.4529-5.8539 1.1255-7.6729 1.4946-2.7809 0.5643-4.4865 0.71-10.716 0.9151-4.0746 0.1341-8.7181 0.3642-10.319 0.5112-6.9579 0.6389-9.8183 0.7812-19.232 0.9567-9.1283 0.1701-10.029 0.1478-10.657-0.2637-0.6715-0.44-0.7099-0.4302-1.8027 0.4572-1.7465 1.4184-4.7484 3.2762-6.2503 3.8682-1.2182 0.4801-1.9256 0.5366-6.4516 0.5153-4.4031-0.021-5.3668-0.1029-7.2001-0.6143zm11.326-1.761c0.5538-0.1537 1.0432-0.421 1.0875-0.5938 0.044-0.1728 0.3194-1.1018 0.6112-2.0643l0.5305-1.75-0.9565 0.2223c-1.3209 0.3071-5.6774 0.2887-9.1279-0.038-1.5838-0.1502-2.9295-0.2232-2.9904-0.1623-0.061 0.061 0.3782 0.8671 0.9758 1.7917 0.5976 0.9245 1.0333 1.8844 0.9683 2.133-0.07 0.2673 0.059 0.4993 0.3164 0.5676 0.915 0.2432 7.6262 0.1606 8.5851-0.1057zm-11.832-1.5034c-0.4961-0.6912-1.0971-1.7451-1.3355-2.342-0.4063-1.0171-0.5284-1.106-1.9419-1.4145-0.8296-0.1811-2.191-0.6008-3.0254-0.9328l-1.5172-0.6036 0.4588 0.7876c0.4434 0.761 2.3503 2.5235 4.3253 3.9978 0.7376 0.5506 2.4773 1.3346 3.8722 1.745 0.036 0.011-0.3402-0.5462-0.8363-1.2375zm17.179-1.0272c1.4489-0.9579 3.5249-2.9806 4.0141-3.9109l0.4053-0.771-0.8891 0.5194c-0.489 0.2857-1.5448 0.7835-2.3461 1.1063-1.4001 0.564-1.4785 0.6486-2.0114 2.1698-0.305 0.8706-0.4807 1.5829-0.3905 1.5829 0.09 0 0.6383-0.3134 1.2177-0.6965zm31.898-2.1967c3.845-0.2816 8.7769-0.5843 10.96-0.6727 6.6405-0.2689 10.946-0.6616 14.552-1.3277 1.8918-0.3494 4.7657-0.8806 6.3865-1.1804 1.6208-0.2999 5.9071-1.3787 9.525-2.3973 3.6179-1.0187 6.9353-1.9449 7.3718-2.0583l0.7938-0.2061-0.09-2.6358c-0.1017-2.9891-0.347-3.6986-1.5617-4.5162-1.0985-0.7395-4.8202-1.4272-7.7413-1.4305-1.237 0-3.8563-0.1786-5.8209-0.3937-8.2528-0.9037-56.704-1.5683-58.913-0.8082-0.5208 0.1792-0.5448 0.2731-0.2646 1.0321 0.1964 0.532 0.3061 2.7067 0.3022 5.9943-0.01 5.58-0.2889 7.3488-1.5735 9.8557l-0.6441 1.2568h9.8636c7.1683 0 11.774-0.1399 16.854-0.512zm-36.225-1.6481c1.8498-0.3055 1.8688-0.3171 2.3486-1.4365 0.4847-1.1308 1.8413-5.2641 1.8417-5.6114 3e-4 -0.209-10.239-0.1411-15.522 0.103l-3.4838 0.161 0.3871 1.3631c1.4545 5.1224 1.3497 4.8976 2.3731 5.0896 3.2564 0.6109 9.3486 0.7783 12.056 0.3312zm-16.185-3.6699c-0.3967-1.4603-0.777-2.7107-0.8451-2.7788-0.1371-0.1371-5.6993 0.78-5.8905 0.9712-0.404 0.404 0.3587 1.3833 1.655 2.1249 1.4642 0.8378 4.95 2.3112 5.5087 2.3286 0.1851 0.01 0.027-0.9704-0.4281-2.6459zm23.385 1.1079c0.5638-0.3861 1.3675-0.9212 1.786-1.1893 0.7101-0.4548 0.7609-0.6021 0.7609-2.2076v-1.7203l-1.3891 0.1874c-1.6995 0.2292-1.785 0.2771-1.7895 1.0024 0 0.3188-0.3468 1.5661-0.7665 2.7717-0.75 2.1548-0.7533 2.1891-0.1949 2.0248 0.3125-0.092 1.0294-0.4831 1.5931-0.8691zm-27.483-5.635 2.6458-0.3059-0.093-2.2753c-0.051-1.2514-0.1305-2.3147-0.1758-2.3629-0.045-0.048-1.334 0.5472-2.8639 1.323l-2.7816 1.4105-0.019 1.2567c-0.013 0.8386 0.091 1.2573 0.3115 1.2583 0.1819 8e-4 1.5214-0.1362 2.9766-0.3044zm113.88-0.057c-0.316-0.2725-1.5654-0.4118-1.5654-0.1745 0 0.1483 0.377 0.2696 0.8378 0.2696 0.4609 0 0.7883-0.043 0.7276-0.095zm-97.741-0.9442c4.2201-0.1324 7.8983-0.2504 8.1739-0.2622 0.4606-0.02 0.4867-0.1754 0.3233-1.9339-0.098-1.0518-0.2637-1.9941-0.3688-2.0939-0.105-0.1-1.322-0.3142-2.7045-0.4765-1.3824-0.1624-3.6987-0.5463-5.1473-0.8532-2.152-0.456-3.1682-0.5299-5.5562-0.404-4.0398 0.2129-5.8778 0.6187-6.0714 1.3403-0.192 0.7152-0.1974 4.0957-0.01 4.8014 0.1331 0.4953 0.2717 0.5191 1.9146 0.3284 0.9741-0.1131 5.2239-0.314 9.4441-0.4464zm13.891-1.3576c0-0.865-0.098-1.2779-0.277-1.1673-0.1524 0.094-0.8059-0.077-1.4524-0.3812-0.6464-0.3039-1.2063-0.5527-1.2443-0.553s-0.029 0.7083 0.02 1.5745l0.089 1.5749 1.3663 0.096c0.7514 0.053 1.396 0.1184 1.4323 0.1453 0.036 0.027 0.066-0.5534 0.066-1.2896zm-27.699-4.9923c0.4804-0.1826 0.6925-0.5758 0.9607-1.7804 0.1893-0.8503 0.5662-2.1116 0.8375-2.8028s0.4083-1.2568 0.3042-1.2568c-0.104 0-0.765 0.387-1.469 0.8599-1.4202 0.9542-5.4779 6.1833-5.4779 7.0593 0 0.1457 0.9513-0.2097 2.114-0.7899 1.1626-0.5802 2.3914-1.1604 2.7305-1.2893zm27.068 0.6739c-0.9431-2.2574-3.1425-4.9323-4.7268-5.7488l-0.9924-0.5115 0.8898 1.3946c0.4894 0.767 1.1526 2.1089 1.4739 2.9821 0.5521 1.5007 0.6662 1.6251 2.087 2.2762 0.8266 0.3788 1.5396 0.6596 1.5845 0.6239 0.045-0.036-0.097-0.4931-0.316-1.0165zm-6.1944-2.3978c-0.8771-1.6193-3.1528-4.5163-3.7577-4.7835-0.2182-0.096-2.2423-0.2869-4.4979-0.4234-2.2555-0.1365-4.5361-0.365-5.0679-0.5078-1.6255-0.4363-2.0793-0.066-3.3046 2.6976-0.6031 1.3601-1.1805 2.7529-1.2831 3.095-0.1718 0.5726-0.1265 0.6093 0.5673 0.4604 3.4642-0.7433 7.957-0.8558 10.411-0.2609 2.3723 0.5751 5.4883 1.1032 6.7006 1.1357l1.0121 0.027z"/></g></svg>
