<svg width="446.44mm" height="419.92mm" version="1.1" viewBox="0 0 446.44 419.92" xml:space="preserve" xmlns="http://www.w3.org/2000/svg"><g transform="translate(-1224.2 1467.3)"><path fill="#fff" d="m1452.2-1047.7c-0.5282-0.5283-0.5848-1.2346-0.1348-1.6846 0.1793-0.1793 1.0385-0.3175 1.9744-0.3175h1.6569l-0.1264-1.6536c-0.5603-7.3258-0.9969-11.968-1.2614-13.411l-0.312-1.7036-1.1492 1.3729c-1.1643 1.391-1.9743 1.7155-2.6344 1.0553-0.6195-0.6195-0.2948-1.2922 1.5725-3.258 1.9059-2.0065 2.8491-2.5491 3.4967-2.0116 0.6656 0.5524 1.9125 9.7843 2.2108 16.369l0.1469 3.2411h0.9697c1.0653 0 1.6047 0.3757 1.6047 1.1178 0 0.7132-0.9576 0.9634-4.4397 1.1602-2.7419 0.1549-3.1774 0.1213-3.5747-0.2759zm-13.086-7.3176c-0.4965-0.5202-0.3981-1.5089 0.1811-1.8189 0.2873-0.1537 2.2461-0.2739 4.4655-0.2739 4.1561 0 4.7101 0.1518 4.5018 1.2336-0.119 0.6179-1.1824 0.8221-5.378 1.0329-2.6704 0.1342-3.5136 0.095-3.7704-0.1737zm-80.301-19.644c-2.2945-0.6979-4.1923-1.6343-7.0225-3.4652-1.7299-1.119-2.0099-1.4254-2.8718-3.1423-0.5252-1.0464-1.6945-2.8549-2.5984-4.0191-3.4949-4.5012-4.0946-5.4179-6.1436-9.3927-1.2651-2.454-2.5183-5.3567-3.1203-7.2274-0.5534-1.7194-1.5278-4.1007-2.1653-5.2916-1.8566-3.4682-4.8173-9.6085-5.0174-10.406-0.1012-0.403-0.6261-1.6903-1.1665-2.8607-1.0888-2.3579-4.7534-13.075-4.7534-13.902 0-0.2884-0.4247-1.6268-0.9439-2.9742-2.6075-6.7674-3.9051-10.27-4.3381-11.71-0.2625-0.8731-0.9082-2.4209-1.435-3.4396-0.5267-1.0186-1.2544-2.8046-1.6171-3.9687-0.3628-1.1642-1.3642-3.3973-2.2254-4.9625-2.1528-3.9126-4.3994-8.7683-4.8653-10.516-0.2134-0.8004-0.9378-3.1544-1.6097-5.2312s-1.2217-3.9837-1.2217-4.2377-1.2584-3.0792-2.7965-6.2782c-3.3686-7.0066-4.2071-8.8913-5.1453-11.566-0.7892-2.2498-3.7042-7.258-5.4315-9.3315-0.6061-0.7276-2.265-3.1089-3.6864-5.2917-3.4398-5.2822-3.457-5.3063-5.1495-7.2171-2.1835-2.4652-4.3097-3.7584-6.7593-4.1113-2.4644-0.355-5.9108 0.022-7.5713 0.8282-0.6399 0.3107-2.0563 1.3529-3.1477 2.3161s-2.9964 2.4103-4.2333 3.2157c-1.237 0.8055-2.8851 2.0743-3.6626 2.8196-2.0076 1.9244-5.0977 6.0834-7.3908 9.9472-1.0818 1.8227-2.124 3.4927-2.3161 3.711-0.3464 0.3936-2.2389 3.9751-5.7321 10.848-1.1925 2.3462-2.0027 4.3436-2.3612 5.8208-0.3332 1.3732-1.348 3.9491-2.6058 6.6146-2.0165 4.2734-3.17 7.119-4.7201 11.644-0.4241 1.2382-1.08 2.8607-1.4574 3.6056-0.3774 0.7448-0.8317 1.932-1.0096 2.6383-0.4019 1.5964-4.0051 8.7511-4.821 9.5732-0.3809 0.3837-0.7652 0.5432-1.0478 0.4347-0.6156-0.2362-0.5588-0.7931 0.1823-1.7859 1.1436-1.5322 4.0597-7.1706 4.3659-8.4416 0.1655-0.6871 0.767-2.3083 1.3367-3.6028 0.5696-1.2945 1.215-2.935 1.4342-3.6456 0.9803-3.1777 3.4409-9.2457 4.7708-11.765 0.8002-1.5158 1.7044-3.6925 2.0094-4.837 0.305-1.1446 0.8589-2.8114 1.231-3.7042 1.039-2.4931 6.1396-12.625 6.8085-13.525 0.3265-0.4391 1.5158-2.3112 2.6429-4.1602 2.5306-4.1515 6.3815-9.345 7.8987-10.652 0.6252-0.5388 1.933-1.4549 2.9061-2.0359 0.9732-0.5809 2.679-1.8507 3.7908-2.8218 4.4178-3.8588 5.3906-4.2961 9.97-4.4822 1.702-0.069 3.5045-0.049 4.0055 0.045s1.9389 0.8368 3.1954 1.6507c1.9366 1.2545 2.5762 1.8681 4.1994 4.0285 1.0532 1.4016 2.7885 3.9976 3.8562 5.7688 1.0678 1.7712 2.519 3.9144 3.225 4.7625 0.706 0.8482 1.6171 2.0497 2.0246 2.6699 3.3178 5.05 4.0118 6.268 4.4357 7.7838 0.9249 3.3072 3.8208 9.683 6.8882 15.166 0.6513 1.1641 1.1857 2.4446 1.1876 2.8454 0.01 1.0987 3.2962 11.038 4.7057 14.211 0.6809 1.5328 1.9911 4.2589 2.9116 6.0578s2.006 4.1815 2.4123 5.2947c0.4062 1.1132 0.9101 2.3513 1.1198 2.7514l0.3811 0.7275 1.8957-3.5358c1.0426-1.9448 2.0397-4.119 2.2157-4.8316 0.176-0.7127 0.7074-2.1887 1.1809-3.2801s1.1563-2.8774 1.5172-3.9688c1.5107-4.5679 3.4673-9.5538 4.6724-11.906 0.7082-1.3825 1.592-3.5965 1.9641-4.9201 0.372-1.3235 1.0986-3.3928 1.6146-4.5983 1.4095-3.2931 4.8451-10.229 6.0319-12.177 0.5761-0.9459 1.8267-3.0295 2.779-4.6303 3.9958-6.7163 7.6043-11.036 10.678-12.784 0.822-0.4674 2.5484-1.808 3.8365-2.9791 2.7857-2.5327 3.9305-3.2538 6.0355-3.802 1.8784-0.4891 6.5476-0.5478 7.8425-0.099 1.0541 0.3657 4.1267 2.4263 4.8181 3.2312 1.4195 1.6525 3.4701 4.6091 5.0662 7.3047 2.1823 3.6856 3.1101 5.0665 4.4156 6.5723 0.5476 0.6316 1.3755 1.8222 1.8397 2.6458 0.4642 0.8237 1.3468 2.2326 1.9613 3.1311 0.6848 1.0012 1.3033 2.3327 1.5976 3.4396 0.9056 3.4049 3.6238 9.5878 6.6683 15.168 0.6195 1.1353 1.1629 2.5504 1.2701 3.3073 0.2655 1.8751 3.5313 11.645 4.9944 14.941 0.6763 1.5236 1.9988 4.3216 2.939 6.2177 0.9401 1.8962 1.7093 3.6489 1.7093 3.895-1e-4 0.2461 0.1023 0.5107 0.2274 0.588 0.2121 0.1311 1.3869-3.5289 2.7102-8.4437 0.3134-1.1642 0.9628-2.9562 1.443-3.9822 1.2891-2.7544 1.9133-4.4901 2.5042-6.9645 0.3058-1.2805 1.2939-3.8487 2.3415-6.0854 1.7931-3.8286 4.0028-9.2451 4.0028-9.8117 0-0.7278 1.7805-4.7985 2.9468-6.737 0.7074-1.1759 1.4653-2.6738 1.6841-3.3286s0.8817-1.8287 1.4731-2.6085c1.3698-1.8063 3.5692-5.095 6.2181-9.2977 1.7317-2.7475 2.6909-3.912 5.6671-6.8792 1.9704-1.9645 4.1165-3.857 4.7691-4.2055 3.4445-1.8394 4.1656-2.1069 6.5241-2.4206 3.4548-0.4594 7.6412-0.205 10.213 0.6205 2.8194 0.9051 4.2415 2.1007 9.1975 7.7327 1.5331 1.7422 3.1287 3.6299 3.5458 4.1948 1.462 1.98 3.8664 7.0868 4.5187 9.5974 0.3513 1.3523 1.372 4.1585 2.2681 6.2359s2.1582 5.0772 2.8046 6.6663c0.6465 1.589 1.9874 4.6251 2.98 6.7468 0.9925 2.1218 1.9874 4.5966 2.211 5.4996 0.2235 0.903 1.0632 2.8675 1.866 4.3656s1.8091 3.8034 2.2361 5.1229c1.312 4.0539 4.7681 11.492 5.3399 11.492 0.082 0 0.6052-1.6966 1.1613-3.7703 0.5562-2.0737 1.2869-4.4252 1.6239-5.2255 0.3369-0.8004 0.9832-2.3396 1.4361-3.4205s1.0508-3.0071 1.3287-4.2803c0.3044-1.3947 1.093-3.585 1.9834-5.5091 1.707-3.6887 3.9713-9.3626 4.2489-10.647 0.333-1.5409 1.7113-4.79 2.8057-6.6142 0.582-0.9702 1.2814-2.3515 1.5543-3.0695 0.2728-0.7181 1.7237-3.1488 3.2241-5.4017s3.3172-5.0388 4.0374-6.1909c2.6464-4.2336 3.0909-4.7994 6.1528-7.8305 3.515-3.4797 6.544-5.5215 9.0276-6.0852 0.8626-0.1958 3.191-0.3414 5.4706-0.3422 3.6493 0 4.1458 0.058 6.1685 0.7399 1.9438 0.655 2.4299 0.9598 4.1767 2.6192 2.2482 2.1355 5.7556 6.1069 7.7042 8.7234 1.8681 2.5083 4.1539 7.2832 4.8517 10.135 0.3205 1.3097 1.0359 3.4528 1.5897 4.7625s2.0806 5.0139 3.3927 8.2315c1.3122 3.2177 2.6328 6.2688 2.9346 6.7804 0.7527 1.2756 1.7171 3.7916 2.1141 5.5152 0.1816 0.7883 0.9579 2.624 1.7251 4.0792 0.7673 1.4552 1.783 3.8364 2.2573 5.2916 1.1763 3.609 2.683 7.2072 4.2102 10.054 0.7025 1.3097 1.4118 3.0173 1.5761 3.7947s0.8797 2.6824 1.5897 4.2334c3.7206 8.1272 4.0116 8.892 5.1934 13.646 1.2208 4.9117 2.7593 9.7189 4.7486 14.838 0.6221 1.6007 1.3975 3.7438 1.7231 4.7625 0.3256 1.0186 1.5312 3.7571 2.679 6.0854 1.6388 3.3242 2.1395 4.6162 2.3313 6.0159 0.1343 0.9804 0.4742 2.1115 0.7553 2.5135 0.8748 1.2512 3.7373 6.1184 4.5256 7.695 0.4133 0.8265 0.9644 2.1575 1.2247 2.9579 0.6044 1.8577 1.8716 3.7223 4.9465 7.2786 1.3524 1.5642 2.8608 3.369 3.3518 4.0106 1.0016 1.3088 1.6947 1.7267 4.3765 2.6388 2.3546 0.8009 4.6561 1.1696 7.4449 1.1927 1.8286 0.015 2.445-0.097 3.7056-0.674 0.8316-0.3808 1.9422-1.0801 2.468-1.554 0.5258-0.474 1.5337-1.2759 2.2398-1.7822 1.8211-1.3055 3.6106-3.8369 4.9221-6.9626 1.3286-3.1667 1.6895-3.7985 3.9062-6.8383 2.0025-2.7461 2.5393-3.8987 3.2591-6.9968 0.8275-3.5615 1.2359-4.6548 2.67-7.1469 1.6166-2.8096 2.6527-5.042 3.8244-8.2405 0.4942-1.349 1.61-3.8493 2.4796-5.5563 0.8696-1.7069 1.7529-3.5797 1.9629-4.1618s1.1541-2.6657 2.098-4.6302c1.9585-4.0762 2.7675-6.3805 2.9732-8.4674 0.1723-1.7487 3.4308-8.5982 4.0904-8.5982 0.7081 0 0.3501 1.3753-1.1932 4.5849-1.1883 2.4712-1.5124 3.4313-1.6227 4.8077-0.076 0.9459-0.2621 2.077-0.4139 2.5136-0.3036 0.873-4.3171 9.4081-6.9673 14.817-0.927 1.8917-1.7647 3.7967-1.8615 4.2333-0.2384 1.0739-2.7164 6.9803-3.2748 7.8052-1.7386 2.5688-2.3945 4.2133-3.3279 8.3441-0.7014 3.1041-1.2705 4.2453-4.215 8.4512-1.0511 1.5014-2.188 3.4266-2.5264 4.2782-1.3258 3.3362-2.6059 5.5345-4.1374 7.1046-2.3242 2.3829-4.8147 4.3678-6.4432 5.1352-1.3571 0.6395-1.7138 0.6857-5.2917 0.6855-3.762-2e-4 -3.8954-0.02-6.8791-1.0316-1.6735-0.5672-3.3733-1.262-3.7773-1.5441-0.9015-0.6293-7.1656-8.2362-8.486-10.305-0.528-0.8272-1.2073-2.1368-1.5097-2.9104-0.7695-1.9684-3.3428-6.8136-4.9995-9.4135-1.367-2.1451-1.8461-3.4135-1.8587-4.9199 0-0.4159-0.9544-2.6932-2.1132-5.0608-1.1587-2.3675-2.6357-5.8372-3.2821-7.7105-0.6464-1.8732-1.4111-4.0608-1.6994-4.8611-1.3514-3.7516-3.3253-10.271-4.1255-13.626-0.5142-2.1559-1.4178-4.9592-2.1618-6.7068l-1.2783-3.0027-1.4984 3.0027c-1.2579 2.5207-1.5225 3.2999-1.649 4.8548-0.1752 2.1555-0.237 2.3013-5.5527 13.097-2.1138 4.2929-3.9865 8.338-4.1615 8.9892-0.1749 0.6512-0.648 1.8418-1.0511 2.6458-0.4032 0.8041-0.8205 1.7596-0.9274 2.1234s-0.8372 1.7491-1.6229 3.0785c-1.8534 3.1362-2.1165 3.798-2.9137 7.3297-0.7521 3.3317-1.3593 4.5531-4.2488 8.5466-1.0677 1.4756-2.1863 3.2615-2.4858 3.9687-1.7806 4.2046-3.0017 6.1983-4.8822 7.9716-2.8371 2.6753-4.5972 4.0349-6.2109 4.7974-1.3741 0.6494-1.6835 0.6874-5.5562 0.6819-3.9482-0.01-4.1997-0.039-6.7469-0.8965-4.4221-1.4887-4.1957-1.3001-10.348-8.6227-2.0285-2.4142-2.7463-3.5925-5.077-8.3344-1.1802-2.4011-2.814-5.3708-3.6307-6.5994-2.0202-3.0388-2.0554-3.1142-2.2657-4.8477-0.1382-1.1395-0.7286-2.6273-2.335-5.8837-1.1825-2.3973-2.6982-5.8781-3.3681-7.7353-2.9982-8.3116-4.9247-14.208-5.6414-17.267-0.4262-1.819-1.0053-3.9622-1.2868-4.7625-0.6962-1.9794-3.237-7.6384-4.491-10.003l-1.0251-1.9329-0.4525 2.7266c-0.2733 1.6468-0.8093 3.5648-1.3534 4.8432-0.4955 1.1642-1.0999 2.9501-1.3431 3.9688-0.2433 1.0186-0.9717 2.9832-1.6189 4.3656-1.3713 2.9296-4.1564 10.502-4.428 12.039-0.4287 2.4269-1.6242 5.7592-3.1879 8.8859-1.1201 2.2397-1.8609 4.1452-2.2629 5.8208-1.4036 5.8502-2.8823 8.547-7.2516 13.225-2.4956 2.6718-3.3906 3.8164-3.6064 4.6121-0.1579 0.5821-1.3196 3.1413-2.5816 5.6872-2.1904 4.4188-2.4071 4.7457-4.7773 7.2052-1.6951 1.759-3.2062 3.0239-4.7625 3.9866-3.0037 1.8581-4.2592 2.3295-6.648 2.4962-3.3836 0.236-6.9284-1.0044-11.251-3.9371-1.8291-1.241-2.1021-1.5459-3.0215-3.3741-0.5558-1.1054-1.6532-2.8433-2.4385-3.8619-4.1265-5.3523-7.1782-10.968-8.9395-16.449-0.9555-2.9735-2.2601-5.9218-3.8255-8.6455-0.822-1.4304-3.3299-7.1317-3.3299-7.5702 0-0.1863-0.49-1.426-1.0888-2.7549-1.1319-2.5117-4.2759-11.946-4.5966-13.793-0.1011-0.5821-0.8822-2.9038-1.7358-5.1594s-1.9861-5.3512-2.5167-6.8791c-0.5307-1.528-1.1437-3.2914-1.3623-3.9187-0.2187-0.6273-0.4436-1.0945-0.5-1.0382-0.056 0.056-0.2219 0.733-0.3681 1.5036-0.1461 0.7707-0.7279 2.488-1.2928 3.8163s-1.1655 3.0699-1.3345 3.8703c-0.1691 0.8003-0.9665 2.8749-1.7721 4.6101-2.0882 4.4981-3.5545 8.5718-4.998 13.885-0.7447 2.7413-1.7461 5.1742-3.1579 7.6719-0.9171 1.6226-2.2639 5.414-2.2639 6.3733 0 0.8289-1.4262 4.2649-2.6154 6.3011-0.6978 1.1947-2.3922 3.2604-4.5042 5.4908-2.5869 2.7321-3.4628 3.8386-3.7132 4.6908-0.1802 0.6134-1.3587 3.1394-2.6188 5.6132-2.2272 4.3724-2.3654 4.5718-4.9519 7.1438-2.6438 2.6289-5.5327 4.6403-8.311 5.7863-1.9539 0.806-5.5044 0.8405-8.0118 0.078zm9.2636-2.2897c2.4125-1.1992 3.1813-1.7565 5.4183-3.9271 1.9841-1.9253 2.9115-3.0703 3.882-4.7927 1.936-3.4359 3.6263-6.8912 4.0194-8.2167 0.2902-0.9781 0.9736-1.8057 3.8388-4.6482 3.2985-3.2724 3.5573-3.6066 4.8138-6.2177 1.4065-2.9227 1.5536-3.338 2.4163-6.8181 0.3009-1.2136 0.8231-2.7614 1.1606-3.4396 0.3374-0.6782 1.1872-2.3642 1.8884-3.7466 0.7209-1.4212 1.723-4.0514 2.306-6.0521 0.5671-1.9461 1.1976-3.8606 1.4012-4.2543s0.8399-2.0756 1.414-3.7376c0.5741-1.6619 1.5975-4.2514 2.2742-5.7545s1.4044-3.4835 1.6171-4.4008 0.7467-2.5136 1.1866-3.5474c0.44-1.0338 1.0784-3.0583 1.4189-4.499 0.5145-2.177 0.5659-2.7473 0.3044-3.3769-0.173-0.4167-0.4612-1.3529-0.6404-2.0805s-1.075-2.7517-1.9907-4.4979c-3.4988-6.6723-5.9372-13.115-7.6099-20.108-0.2784-1.1641-0.9322-2.8905-1.4528-3.8364s-1.3963-2.7319-1.946-3.9688-1.5333-3.4396-2.1858-4.8948-1.5635-3.7174-2.0244-5.0271c-0.9029-2.5655-3.9444-7.9722-5.5969-9.9492-0.5599-0.6698-1.871-2.5748-2.9136-4.2333-4.7456-7.5492-6.4771-9.6485-9.3617-11.35l-1.5702-0.9261-3.3176 0.01c-2.999 0.01-3.4579 0.072-4.7794 0.6857-0.804 0.3737-2.3518 1.4772-3.4395 2.4521-1.0878 0.9749-3.1556 2.5678-4.5952 3.5397-3.5859 2.421-7.059 6.614-10.353 12.499-0.8553 1.528-1.8165 3.1353-2.1362 3.5719-0.3196 0.4365-2.0789 3.7703-3.9095 7.4083-2.6003 5.1676-3.4794 7.1934-4.0184 9.2604-0.3795 1.4552-1.2894 3.896-2.0219 5.424-1.8435 3.8455-4.0366 9.3504-4.8915 12.278-0.2164 0.7413-0.8445 2.3599-1.3958 3.5968-0.5512 1.2369-1.0865 2.6657-1.1895 3.175-0.1882 0.9304-3.7497 8.4334-4.4421 9.3581-0.315 0.4207-0.3164 0.6774-0.01 1.7198 0.9868 3.352 2.4345 7.4091 3.8331 10.742 0.853 2.0329 1.7252 4.5332 1.9381 5.5563 0.6515 3.1303 3.042 10.214 4.1548 12.311 0.579 1.0914 1.4659 3.1659 1.9708 4.61 0.9921 2.8374 1.9302 4.8165 4.3422 9.1605 0.8521 1.5346 2.0092 4.154 2.5712 5.8208 1.8297 5.4265 5.2982 11.51 9.387 16.465 0.5735 0.6949 1.5351 2.179 2.1369 3.2979 0.8994 1.6722 1.3769 2.2328 2.6817 3.1483 3.825 2.6837 7.1747 3.844 10.668 3.6949 1.7219-0.073 2.2477-0.2374 4.7478-1.4802zm89.701 0c2.3899-1.188 3.1575-1.7438 5.2717-3.8172 2.3101-2.2655 2.6232-2.7071 4.7122-6.6465 1.2307-2.3208 2.4937-4.9936 2.8066-5.9395 0.5159-1.5596 0.8681-2.0279 3.7812-5.0271 2.8038-2.8867 3.3842-3.6438 4.5641-5.9531 1.3608-2.6634 1.8305-4.003 2.5979-7.4083 0.2497-1.1081 1.1598-3.3402 2.2654-5.5563 1.2744-2.5542 2.1723-4.8237 2.8926-7.3106 0.5746-1.9835 1.2991-4.2457 1.6101-5.027 0.3109-0.7814 1.0396-2.7899 1.6193-4.4634 0.5796-1.6735 1.4675-3.9357 1.9731-5.0271s1.0993-2.7583 1.3192-3.7042 0.7399-2.571 1.1555-3.6113c0.4156-1.0404 1.1802-3.6138 1.6991-5.7187 1.0184-4.1309 1.0039-4.6597-0.1736-6.3503-0.9877-1.4182-3.5805-7.2425-4.5623-10.249-0.5465-1.6735-1.6288-4.2398-2.405-5.7029-0.7762-1.463-1.6702-3.6062-1.9865-4.7625-0.3164-1.1563-1.1392-3.2335-1.8286-4.6159-1.0997-2.2054-1.7994-3.8892-4.2877-10.319-0.3098-0.8004-1.2474-3.0626-2.0837-5.0271-0.8362-1.9646-1.7858-4.4649-2.1101-5.5563-0.9597-3.2299-3.413-7.7384-5.9027-10.848-2.8966-3.6176-7.4787-8.0649-8.9573-8.6939-2.5985-1.1055-4.8535-1.445-8.5177-1.2824-1.9069 0.085-4.0346 0.3288-4.7284 0.5426-3.6782 1.1339-9.2548 6.0969-13.049 11.614-5.6693 8.2424-7.1114 10.465-7.8348 12.074-1.0182 2.2655-1.7953 3.7692-2.2046 4.2664-0.5549 0.674-1.4751 2.6501-2.5236 5.4188-0.5521 1.4581-1.7369 4.3774-2.633 6.4875-0.896 2.11-2.0442 4.8254-2.5516 6.034-0.5073 1.2087-1.1085 3.1098-1.3358 4.2247-0.2274 1.1148-1.0966 3.5787-1.9317 5.4753-1.1935 2.7106-3.758 10.126-5.1441 14.875-0.1077 0.3692 0.068 1.0473 0.4857 1.871 0.36 0.7105 0.8507 2.0572 1.0903 2.9927 0.5061 1.9762 2.8491 8.6284 4.1869 11.887 0.5078 1.2369 1.1818 3.3643 1.4978 4.7274 0.9037 3.8981 2.6019 8.9558 3.8359 11.424 0.6217 1.2437 1.4471 3.2999 1.8344 4.5694 0.3943 1.2927 1.8604 4.5644 3.3325 7.4365 1.4877 2.9027 2.9902 6.259 3.462 7.7337 1.5896 4.9687 4.8748 10.9 8.8308 15.943 0.7316 0.9327 1.8065 2.5982 2.3886 3.7009 1.1904 2.2552 2.2433 3.186 5.6677 5.0106 2.5009 1.3326 4.8236 1.9039 7.2596 1.7857 1.5634-0.076 2.2021-0.2806 4.6119-1.4785zm-3.9926-12.552c-0.2746-0.2746-0.3929-1.1108-0.4213-2.9766-0.022-1.4271-0.1535-3.4877-0.2929-4.5791-0.6134-4.8028-1.0584-12.213-1.0584-17.622 0-5.6538-0.4041-11.096-1.1449-15.417l-0.3343-1.9505-1.4033 1.6198c-1.4143 1.6325-2.2004 1.9873-2.8854 1.3022-0.6169-0.6168-0.2966-1.2797 1.665-3.4461 2.3423-2.5868 3.4041-3.3835 4.4923-3.3707 1.4535 0.017 2.7561 1.2074 4.5178 4.1284 1.1251 1.8656 1.1822 3.1382 0.1409 3.1382-0.5051 0-0.9692-0.475-2.1973-2.2489-0.8564-1.237-1.6875-2.2947-1.847-2.3505-0.3239-0.1134-0.2183 1.2191 0.4587 5.7901 0.278 1.8767 0.49 6.3834 0.6535 13.891 0.2272 10.428 0.356 12.559 1.04 17.198 0.7279 4.9366 0.048 8.3254-1.3834 6.8942zm-3.6532-53.409c-1.8556-0.7801-2.7475-1.412-4.1679-2.953-1.9233-2.0865-2.2696-3.1761-2.2735-7.1531 0-4.1383 0.5628-6.3305 2.2439-8.6782 1.6083-2.246 2.6284-2.6989 6.0781-2.6989 2.6616 0 2.8625 0.041 4.7913 0.9757 2.1955 1.0642 3.2349 2.08 3.6931 3.6095 0.1842 0.6148 0.26 2.5387 0.2 5.0813-0.095 4.0485-0.1073 4.1184-1.1245 6.6054-1.9431 4.7506-2.8666 5.6487-5.9241 5.7606-1.6527 0.061-2.3101-0.042-3.5164-0.5493zm5.2915-2.6493c1.5894-1.4511 3.2037-6.5937 3.2037-10.206v-2.2681l-2.7941 2.7734c-3.5753 3.5488-7.448 8.4384-6.9501 8.7749 0.899 0.6075 3.0757 1.6425 3.791 1.8026 0.9464 0.2118 1.8854-0.087 2.7495-0.8764zm-5.7597-6.2928c1.0011-1.2515 3.1898-3.5542 4.8636-5.1169 1.6738-1.5628 2.9843-2.9369 2.9122-3.0536-0.072-0.1168-0.9224-0.5939-1.8896-1.0603-1.6182-0.7805-1.9311-0.8408-3.9256-0.7563-1.8767 0.079-2.2947 0.1891-3.1184 0.8176-2.4122 1.8405-3.6199 8.3179-2.1324 11.437 0.4273 0.8961 0.4614 0.9128 0.9565 0.4685 0.2824-0.2533 1.3325-1.4846 2.3337-2.7362zm1.1582-21.633c-3.5575-2.8433-4.2514-3.8873-3.0212-4.5457 0.4542-0.2431 0.7442-0.1692 1.6537 0.4214 0.6066 0.3939 1.3703 0.9594 1.6971 1.2567 0.3269 0.2972 0.6592 0.4755 0.7386 0.3961 0.079-0.079 0.024-2.1535-0.1233-4.6092-0.3305-5.514-0.4719-22.071-0.1924-22.523 0.1126-0.1819 0.4808-0.3308 0.8182-0.3308s0.7345 0.1489 0.8824 0.3308c0.1686 0.2073 0.3271 4.9708 0.4247 12.766 0.086 6.8395 0.2304 12.948 0.3218 13.575l0.166 1.1392 0.963-1.6445c0.5297-0.9045 1.2666-1.869 1.6376-2.1435 0.7638-0.565 1.5744-0.4028 1.5744 0.315 0 0.3918-1.4334 3.2043-2.7118 5.3209-0.3763 0.623-2.0578 1.5666-2.7678 1.5532-0.2604 0-1.1879-0.5799-2.061-1.2777zm97.596 94.597c1.5873-0.6838 5.9329-4.1169 7.2573-5.7335 0.6557-0.8003 1.6038-2.3481 2.1069-3.4395 2.1268-4.6139 2.5348-5.3501 4.1566-7.5003 2.2954-3.0434 2.9741-4.4737 4.0001-8.4295 0.9422-3.6334 0.951-3.6549 2.6523-6.4773 1.3109-2.1748 2.8695-5.5482 4.0717-8.8126 0.4553-1.2363 1.4009-3.2604 2.1013-4.4979 0.7003-1.2376 1.5777-3.024 1.9496-3.9699s1.5047-3.3867 2.5174-5.424c2.0757-4.1756 2.6204-5.684 2.84-7.8644 0.1152-1.1442 0.5928-2.4057 1.9533-5.1594l1.8008-3.6449-1.1341-2.249c-0.6237-1.2369-1.3128-2.8605-1.5312-3.608s-1.3454-3.3074-2.5043-5.6886c-1.159-2.3812-2.5486-5.7372-3.0882-7.4577-0.5396-1.7206-1.6071-4.3493-2.3723-5.8417-0.7652-1.4925-1.6066-3.5376-1.8697-4.5447-0.2632-1.0071-1.1638-3.3195-2.0013-5.1385-1.4183-3.0805-2.8595-6.6576-3.3046-8.202-0.1048-0.3639-1.1159-2.9237-2.2469-5.6886s-2.3053-5.8722-2.6096-6.9051c-0.8159-2.7693-2.9914-6.967-5.038-9.7212-2.2841-3.0738-7.1517-8.1964-8.5799-9.0293-2.7386-1.5971-7.7586-2.1634-12.225-1.379-2.1277 0.3737-4.5863 1.7039-7.0195 3.7978-2.0587 1.7716-5.3602 5.5257-6.6761 7.5913-0.6056 0.9505-1.5312 2.3593-2.057 3.1306-4.3321 6.3553-5.9292 9.0233-6.4621 10.795-0.1095 0.3638-0.71 1.5039-1.3346 2.5334-0.6245 1.0296-1.4362 2.637-1.8037 3.5719-0.3675 0.935-1.5812 4.0216-2.697 6.8593-1.1159 2.8377-2.268 5.6333-2.5602 6.2126-0.7572 1.5009-1.7207 4.4299-2.0444 6.2148-0.1523 0.8402-0.914 3.0216-1.6926 4.8476s-1.857 4.7285-2.3965 6.4501c-0.5394 1.7216-1.2584 3.9856-1.5976 5.0311-0.7362 2.2691-0.6763 2.6401 0.9964 6.1688 3.5594 7.5088 4.3964 9.6696 5.586 14.42 1.1463 4.5773 2.9209 9.9643 4.663 14.155 0.4537 1.0914 1.234 3.1575 1.734 4.5914 0.5001 1.4339 1.4695 3.6961 2.1544 5.0271s1.5833 3.0815 1.9964 3.8899c0.4207 0.8231 0.8629 2.2584 1.0051 3.2624 0.1738 1.2276 0.4895 2.1403 1.0014 2.8958 2.5362 3.7429 4.8296 7.9051 5.7424 10.422 0.7405 2.0414 2.184 4.0776 5.6339 7.9472 1.4603 1.638 2.9109 3.3373 3.2235 3.7763 0.3126 0.4389 1.0048 1.0207 1.5382 1.2927 1.8606 0.9489 5.4485 1.8644 8.1137 2.0704 2.9989 0.2318 4.5715 0.089 6.0504-0.5477zm-102.49-153.48c0-1.1006 0.031-1.1181 2.3856-1.3441l1.7242-0.1655 0.024-1.5069c0.013-0.8288 0.2198-2.912 0.4586-4.6294 0.2388-1.7173 0.4341-4.7947 0.4341-6.8386v-3.7162l-1.1244 1.2196c-0.8995 0.9755-1.2442 1.1861-1.7227 1.0523-0.329-0.092-0.6681-0.4458-0.7536-0.7862-0.2195-0.8747 2.8113-4.6095 3.7407-4.6095 0.8201 0 1.0107 0.4102 1.5813 3.4023 0.5401 2.8321 0.4373 7.5473-0.2603 11.944-0.2194 1.3825-0.3997 2.9601-0.4008 3.5058v0.9922h1.2723c1.441 0 2.2698 0.4627 2.1299 1.189-0.1326 0.6884-0.9594 0.8487-5.5083 1.0681l-3.9793 0.1919zm-63.179-15.745c-1.9352-0.1562-2.4241-0.4293-2.4333-1.3595-0.01-0.746 0.6124-1.0451 2.1656-1.0451h1.5346v-0.9128c0-1.6513-0.806-10.152-1.1343-11.963l-0.3216-1.7744-1.1488 1.3721c-1.164 1.3903-1.9741 1.7147-2.6341 1.0547-0.6195-0.6196-0.2948-1.2923 1.5725-3.2581 1.9059-2.0064 2.8491-2.5491 3.4967-2.0116 0.5854 0.4858 1.6422 7.8357 2.2015 15.311l0.1633 2.1828h0.9661c1.0621 0 1.6012 0.3764 1.6012 1.1178 0 0.547-0.9653 0.9989-2.1339 0.9989-0.4271 0-0.7766 0.119-0.7766 0.2646 0 0.1455-0.2678 0.2453-0.5953 0.2218-0.3274-0.024-1.463-0.1129-2.5236-0.1985zm-18.775-9.0431c-0.4965-0.5202-0.3981-1.5089 0.181-1.8189 0.2873-0.1537 2.2461-0.2738 4.4655-0.2738 4.1561 0 4.7102 0.1518 4.5018 1.2335-0.119 0.6179-1.1824 0.8222-5.378 1.0329-2.6703 0.1342-3.5136 0.095-3.7703-0.1737zm16.206-15.295c-2.2915-0.5737-5.1827-2.0218-7.8628-3.9384-1.8407-1.3163-2.1511-1.6713-3.1495-3.6028-0.6091-1.1784-1.8362-3.0951-2.7269-4.2593-3.1703-4.1438-4.5855-6.4067-6.7011-10.716-1.8339-3.7351-3.7691-8.6453-3.7691-9.5633 0-0.4832-1.8462-4.4895-2.9016-6.2966-1.0392-1.7794-4.2421-8.8008-4.2421-9.2996 0-0.1498-0.6412-1.7832-1.4248-3.6298-0.7836-1.8467-1.5071-3.6552-1.6077-4.019-0.1007-0.3638-0.7711-2.4781-1.4898-4.6984s-1.4782-4.8524-1.6879-5.8491c-0.2097-0.9968-1.0242-3.4664-1.8101-5.4881-0.7858-2.0217-2.1107-5.6999-2.944-8.1738-0.8334-2.4739-1.9679-5.4504-2.5212-6.6146-0.5534-1.1642-1.2677-3.0096-1.5875-4.101s-1.3246-3.4132-2.2328-5.1594c-2.7917-5.3676-4.8672-10.172-5.8293-13.494-0.5058-1.7462-1.2192-4.0498-1.5853-5.1191-0.3662-1.0693-0.7972-2.6689-0.9578-3.5546s-0.7141-2.4516-1.2301-3.4797c-2.5689-5.1192-6.2991-13.647-7.3508-16.805-0.366-1.099-1.2425-2.9787-1.9478-4.1771l-1.2824-2.1789-0.3287 0.7239c-0.1807 0.3981-0.7676 1.3787-1.3042 2.1791-0.5365 0.8004-2.5486 4.6187-4.4714 8.4851-2.8214 5.6737-3.6429 7.5878-4.258 9.9219-0.8051 3.0554-1.6392 5.2279-3.091 8.0513-1.0529 2.0477-2.9973 6.991-4.267 10.848-0.503 1.528-1.3657 3.7902-1.9171 5.0271-0.5514 1.237-1.1458 2.8443-1.3209 3.5719-0.321 1.3341-3.2143 7.509-4.4938 9.5907-0.4865 0.7914-0.8695 1.1241-1.2945 1.1244-0.8542 7e-4 -0.9951-0.6423-0.3419-1.5597 1.206-1.6937 4.453-8.1752 4.7802-9.5421 0.1903-0.7947 0.8457-2.6402 1.4565-4.101s1.2616-3.1323 1.4462-3.7144c1.2785-4.0323 3.9285-10.825 5.2644-13.494 0.9158-1.8298 1.8303-4.1279 2.1583-5.424 0.3131-1.2369 1.0477-3.38 1.6326-4.7625 1.7196-4.0644 5.9157-12.551 7.026-14.21 0.5643-0.843 1.3507-2.0976 1.7476-2.7879 0.8248-1.4343 0.7804-1.6167-0.8857-3.6397-0.5394-0.6548-1.5142-2.0241-2.1663-3.0427-0.6522-1.0186-1.7611-2.7437-2.4644-3.8335-0.7033-1.0897-1.6296-2.578-2.0585-3.3072-1.2898-2.1932-4.3111-5.5452-6.0515-6.7138-2.1839-1.4664-3.1836-1.693-6.9623-1.5779-4.056 0.1235-5.2201 0.6229-8.7244 3.743-1.3822 1.2305-3.4989 2.8877-4.7039 3.6826-1.2051 0.7949-2.8458 2.0974-3.6462 2.8945-1.9635 1.9555-5.3322 6.7217-7.821 11.065-1.1255 1.9646-2.2464 3.8295-2.4907 4.1444s-2.0721 3.8406-4.0618 7.8349c-2.9359 5.8937-3.7607 7.8052-4.3768 10.143-0.8024 3.0448-1.6374 5.219-3.0881 8.0401-1.0529 2.0477-2.9973 6.991-4.267 10.848-0.503 1.528-1.3657 3.7902-1.9171 5.0271-0.5514 1.237-1.1458 2.8443-1.3209 3.5719-0.321 1.3341-3.2143 7.509-4.4938 9.5907-0.4865 0.7914-0.8695 1.1241-1.2945 1.1244-0.8542 7e-4 -0.9951-0.6423-0.3419-1.5597 1.206-1.6937 4.453-8.1752 4.7802-9.5421 0.1903-0.7947 0.8457-2.6402 1.4565-4.101s1.2616-3.1323 1.4462-3.7144c1.2785-4.0323 3.9285-10.825 5.2644-13.494 0.9158-1.8298 1.8303-4.1279 2.1583-5.424 0.3131-1.2369 1.0477-3.38 1.6326-4.7625 1.5924-3.7637 5.9049-12.547 6.7972-13.844 0.4305-0.6257 1.6405-2.6185 2.689-4.4285 1.6389-2.8292 3.7148-5.9557 6.2898-9.4732 1.1914-1.6275 3.4564-3.6595 5.3639-4.812 1.0363-0.6261 3.016-2.1591 4.3993-3.4065 4.295-3.873 5.575-4.4508 10.412-4.6999 3.9119-0.2014 5.1019 0.087 7.655 1.8585 2.5883 1.7953 4.6673 4.4048 8.1778 10.264 2.3908 3.9906 5.7065 8.7073 6.1097 8.6912 0.073 0 0.6881-0.8659 1.3673-1.9177 4.0526-6.2757 6.3463-8.8821 9.4851-10.779 1.0467-0.6324 3.0348-2.1705 4.4181-3.4179 4.295-3.873 5.575-4.4508 10.412-4.6999 3.9119-0.2014 5.1019 0.087 7.655 1.8585 2.5895 1.7961 4.6694 4.4074 8.1759 10.264 1.5136 2.5281 3.5512 5.6085 4.5282 6.8455 0.9769 1.2369 1.9874 2.6617 2.2455 3.1663 0.2581 0.5045 1.1147 1.8872 1.9035 3.0725 1.0967 1.648 1.6198 2.7951 2.2223 4.8738 1.1228 3.8741 4.5584 11.603 7.2619 16.338 0.5768 1.01 1.0449 2.2789 1.2031 3.2614 0.7061 4.3848 5.7849 18.034 8.6696 23.299 0.5873 1.0719 1.445 3.0205 1.9062 4.3302 0.4611 1.3097 1.2449 3.1888 1.7418 4.1759 0.4968 0.987 1.0891 2.5348 1.3163 3.4396 0.5935 2.3635 3.0441 9.3982 4.352 12.493 0.615 1.4552 1.3392 3.6579 1.6092 4.8948 0.8151 3.7339 3.344 11.452 4.5749 13.962 0.6362 1.2975 1.5893 3.6519 2.1181 5.2321 0.5537 1.6548 2.0715 5.0101 3.5794 7.9128 1.7721 3.4114 2.9715 6.1216 3.7121 8.388 1.5388 4.7087 1.4546 4.6394 3.3069 2.7226 3.0042-3.1088 5.2926-7.5248 6.3429-12.24 0.7262-3.2604 0.9282-3.785 3.1767-8.2506 1.0936-2.1719 1.9519-4.3519 2.4999-6.35 0.459-1.6735 1.1939-3.9952 1.6331-5.1594 0.4392-1.1641 1.2025-3.3187 1.6963-4.7879 1.0765-3.2031 1.7239-4.8757 2.9085-7.5152 0.4898-1.0914 1.0911-2.869 1.3362-3.9501 0.2451-1.0812 0.7868-2.7675 1.2037-3.7473 0.417-0.9798 1.1695-3.4884 1.6723-5.5748s1.1642-4.5078 1.4697-5.3809c0.6391-1.8261 2.2359-7.4103 2.6593-9.2996 0.1579-0.7047 0.8009-2.4724 1.4288-3.9283 1.637-3.7956 2.2113-5.4447 2.6709-7.6694 0.4498-2.1779 0.6258-2.6455 2.6407-7.0163 1.5193-3.2955 3.2626-7.8476 4.6104-12.038 0.468-1.4552 1.5336-3.896 2.3679-5.424 0.8344-1.5279 1.7885-3.4548 2.1205-4.2819 0.3319-0.8272 1.3965-2.6158 2.3657-3.9748 0.9693-1.359 2.2853-3.3612 2.9245-4.4493s1.6677-2.7522 2.2856-3.6981 1.6554-2.5533 2.3056-3.5719c0.6955-1.0896 2.5968-3.254 4.618-5.2572 6.0229-5.969 9.0194-7.3075 16.363-7.3097 3.2294-9e-4 6.657 0.78 8.7491 1.9934 1.8321 1.0625 8.4571 8.3634 11.515 12.69 0.5143 0.7276 1.2153 2.0285 1.5579 2.8908 0.5372 1.3526 0.6614 1.5011 0.9038 1.0813 0.1546-0.2677 0.761-1.2114 1.3475-2.0971 0.5865-0.8858 1.6184-2.5034 2.2933-3.5948 0.8118-1.313 2.4274-3.1804 4.7748-5.5192 6.1273-6.1047 9.0892-7.4424 16.483-7.4446 3.2294-9e-4 6.657 0.78 8.7491 1.9934 1.2802 0.7424 5.3737 4.9809 8.4233 8.7214 2.8937 3.5495 3.9414 5.0624 4.4889 6.4823 0.2525 0.6549 0.8703 1.9302 1.3728 2.834 0.5071 0.912 1.1993 2.7961 1.5554 4.2334 0.7425 2.9969 0.9135 3.4835 2.9079 8.2784 0.8172 1.9646 2.1484 5.2388 2.9583 7.2761s2.1703 5.158 3.0231 6.9348c0.8527 1.7769 1.8003 4.2177 2.1056 5.424 0.3301 1.3039 1.1315 3.2768 1.9764 4.8654 0.7817 1.4697 1.9214 4.2082 2.5328 6.0855 1.2653 3.8849 3.5772 9.3154 4.904 11.519 0.4938 0.8201 1.1234 2.3939 1.3992 3.4973 0.2757 1.1034 1.0369 3.1708 1.6914 4.5943 4.0041 8.7072 4.4681 9.9332 5.7854 15.288 1.3448 5.4662 3.1028 10.989 5.1796 16.272 0.6578 1.6735 1.5353 4.1143 1.9498 5.4239 0.4145 1.3097 1.6571 4.1672 2.7613 6.35 1.9873 3.9285 2.767 6.0915 2.767 7.6764 0 0.5348 0.5124 1.6386 1.4789 3.1856 0.8135 1.302 1.5748 2.4678 1.6919 2.5907 0.1171 0.1228 0.4691-0.8892 0.7822-2.249 0.8943-3.8838 1.5729-5.7288 3.0594-8.3171 1.5862-2.762 2.9586-5.7714 4.2725-9.3688 0.5049-1.3825 1.7277-4.1209 2.7173-6.0855 0.9896-1.9645 1.9515-4.0481 2.1376-4.6302s0.9751-2.3335 1.7534-3.892c2.391-4.7877 3.3215-7.2833 3.5803-9.6017 0.2019-1.8094 0.5009-2.6736 2.0596-5.9523 1.8192-3.8269 2.3848-4.6159 2.923-4.0776 0.3561 0.3561-0.039 1.4776-1.8543 5.2674-1.1709 2.4438-1.4266 3.2497-1.5954 5.0271-0.2368 2.4937-0.6622 3.634-3.4383 9.2152-1.146 2.3041-2.1622 4.4475-2.2582 4.7631s-0.9977 2.2171-2.0038 4.2257-2.1732 4.6875-2.5935 5.9531c-1.0314 3.1055-2.8199 7.0925-4.4649 9.9532-1.4514 2.5239-1.8112 3.5469-2.706 7.6938-0.314 1.4552-0.731 2.9561-0.9267 3.3352-0.3264 0.6325-0.2701 0.8509 0.6824 2.6459 0.571 1.076 1.3425 2.86 1.7144 3.9644 0.76 2.2567 1.9086 3.9592 5.6652 8.3965 1.3951 1.6479 2.9532 3.5286 3.4626 4.1794 1.2109 1.5472 1.9978 2.0287 4.8814 2.987 2.9682 0.9863 5.1432 1.3423 8.2154 1.3446 2.0798 0 2.5823-0.094 3.9688-0.7583 1.9251-0.9217 6.1934-4.3447 7.7467-6.2125 1.1551-1.389 2.1776-3.3256 3.4185-6.4746 0.7542-1.9141 2.3963-4.6203 4.2022-6.9253 1.5209-1.9413 2.3398-3.8099 3.1323-7.1473 0.9137-3.8483 1.4724-5.3327 2.9951-7.9575 1.5169-2.6148 2.8982-5.6454 4.2099-9.2368 0.5049-1.3825 1.7277-4.1209 2.7173-6.0855 0.9896-1.9645 1.9515-4.0481 2.1376-4.6302s0.9751-2.3335 1.7534-3.892c2.391-4.7877 3.3215-7.2833 3.5803-9.6017 0.2019-1.8094 0.5009-2.6736 2.0596-5.9523 1.8192-3.8269 2.3848-4.6159 2.923-4.0776 0.3561 0.3561-0.039 1.4776-1.8543 5.2674-1.1709 2.4438-1.4266 3.2497-1.5954 5.0271-0.2368 2.4937-0.6623 3.634-3.4383 9.2152-1.146 2.3041-2.1622 4.4475-2.2582 4.7631s-0.9977 2.2171-2.0038 4.2257-2.1732 4.6875-2.5935 5.9531c-1.0314 3.1055-2.8199 7.0925-4.4649 9.9532-1.4539 2.5283-1.8166 3.5612-2.7018 7.6938-0.6412 2.9935-1.608 4.9409-4.3335 8.729-1.8336 2.5486-2.1353 3.1022-3.8549 7.0743-0.613 1.4158-1.4524 3.0827-1.8655 3.7042-1.5341 2.3084-6.263 6.4879-8.6873 7.6781l-1.7521 0.8603-8.9974-0.054-2.9698-1.0871c-4.0493-1.4823-4.3193-1.6463-5.8341-3.5455-0.7297-0.9148-2.4406-3.0329-3.802-4.707-3.1297-3.8484-4.4727-5.9371-5.5147-8.5763-0.4549-1.1523-1.1286-2.6096-1.4971-3.2384l-0.6699-1.1432-1.2151 1.6506c-2.1097 2.8657-3.3617 5.009-4.5194 7.7365-1.52 3.5812-1.846 4.1552-3.3515 5.9014-2.4284 2.8164-6.2764 5.8217-8.5667 6.6905-1.3492 0.5117-1.8517 0.5503-5.5837 0.4283-3.9746-0.1299-4.1926-0.1671-7.0708-1.209-4.0378-1.4616-4.3159-1.63-5.8341-3.5334-0.7297-0.9148-2.4406-3.0329-3.802-4.707-3.1013-3.8134-4.4727-5.9367-5.4752-8.477-0.8735-2.2133-3.4749-7.1106-5.2104-9.8088-1.6637-2.5866-1.7503-2.7935-1.9986-4.7702-0.1854-1.4773-0.6325-2.6394-2.4026-6.2461-1.997-4.0689-4.6886-11.047-6.1487-15.941-0.3256-1.0914-1.037-3.231-1.5808-4.7547s-1.3442-4.3812-1.7787-6.35c-0.4344-1.9688-1.0408-4.3536-1.3476-5.2995-0.7962-2.4552-3.1911-8.0829-4.8327-11.356-0.7722-1.5398-1.6612-3.6631-1.9755-4.7184-0.3143-1.0554-0.9218-2.484-1.3499-3.1747-1.2568-2.0276-3.3878-7.0598-4.6712-11.031-0.6558-2.0291-1.8795-5.0229-2.7194-6.653-0.8626-1.6743-1.7306-3.8104-1.9949-4.9097-0.2573-1.0702-1.0574-3.1961-1.7779-4.724-1.269-2.6911-3.9086-9.1752-3.9097-9.604-3e-4 -0.1162-0.6103-1.7236-1.3555-3.5719s-1.8803-4.6685-2.5224-6.2671c-0.6421-1.5985-1.3527-3.6215-1.5792-4.4954-0.2265-0.874-0.4735-1.6889-0.5489-1.8109-0.2546-0.4119-3.0826 4.1645-4.3323 7.0107-0.6822 1.5537-1.4775 3.1611-1.7674 3.5719-0.8787 1.2455-1.8248 3.2831-2.8102 6.0525-0.515 1.4475-1.839 4.8345-2.9421 7.5267-3.4364 8.3859-3.8079 9.3982-4.0883 11.139-0.15 0.9312-0.8225 3.0028-1.4946 4.6035-2.5166 5.9945-6.2158 17.686-6.8573 21.672-0.4162 2.5865-0.6976 3.5299-1.7827 5.9767-0.3549 0.8004-0.9034 2.4983-1.2189 3.7732s-1.2096 3.6561-1.9869 5.2917c-0.7773 1.6355-1.502 3.2713-1.6103 3.6351-0.1084 0.3638-0.7662 2.2688-1.4619 4.2334-0.6957 1.9645-1.4511 4.4648-1.6787 5.5562-0.6671 3.1989-1.6603 5.9009-3.4875 9.487-1.1573 2.2715-1.8972 4.1308-2.282 5.7346-0.9234 3.8485-1.2692 4.887-2.4923 7.4836-1.3605 2.8883-1.8727 3.5674-6.0156 7.9761-2.4417 2.5984-3.1952 3.5786-3.4756 4.5211-0.354 1.1898-1.6177 4.1385-2.4325 5.6757-0.2314 0.4366-1.0337 1.9738-1.7829 3.4161-1.1265 2.1684-1.8201 3.0905-4.0081 5.3282-1.4552 1.4883-3.3602 3.1552-4.2333 3.7041-4.5058 2.833-5.7001 3.2944-8.5277 3.2944-3.9592 0-7.8156-1.423-12.035-4.4408-1.8406-1.3165-2.1511-1.6717-3.1495-3.6031-0.6091-1.1784-1.8362-3.0951-2.7269-4.2593-3.0817-4.0279-4.5928-6.3612-5.8115-8.9735l-1.2239-2.6235-0.6639 0.6236c-0.3651 0.343-0.8267 1.1721-1.0258 1.8425-0.357 1.2023-1.6166 4.1446-2.4364 5.6913-0.2314 0.4366-1.0337 1.9738-1.7829 3.4161-1.1265 2.1684-1.8201 3.0905-4.0081 5.3282-3.0303 3.0993-6.6158 5.5716-9.506 6.5549-1.6903 0.575-4.9996 0.5487-7.4273-0.059zm9.3927-2.5596c2.8336-1.4029 3.2428-1.7085 5.9542-4.4476 2.6855-2.7129 3.0578-3.2184 4.7967-6.5131 1.8743-3.5512 2.7916-5.5577 3.6808-8.0512 0.2558-0.7174 0.8449-1.7188 1.3091-2.2254l0.844-0.921-0.8804-2.2426c-0.4842-1.2335-1.1244-3.1121-1.4226-4.1748-0.6318-2.2516-1.759-4.8287-3.1777-7.265-1.029-1.7672-4.2249-8.7833-4.2249-9.2753 0-0.1498-0.6412-1.7832-1.4248-3.6298-0.7836-1.8467-1.5071-3.6552-1.6077-4.019-0.1007-0.3638-0.7711-2.4781-1.4898-4.6984s-1.4782-4.8524-1.6879-5.8491c-0.2097-0.9968-1.0242-3.4664-1.8101-5.4881-0.7858-2.0217-2.1107-5.6999-2.944-8.1738-0.8334-2.4739-1.9679-5.4504-2.5212-6.6146-0.5534-1.1642-1.2677-3.0096-1.5875-4.101s-1.3246-3.4132-2.2328-5.1594c-2.7917-5.3676-4.8672-10.172-5.8293-13.494-0.5058-1.7462-1.2192-4.0498-1.5853-5.1191-0.3662-1.0693-0.7972-2.6689-0.9578-3.5546s-0.7141-2.4516-1.2301-3.4797c-2.5585-5.0986-5.9981-12.946-7.3141-16.686-0.8751-2.4872-4.0569-8.1394-5.7343-10.186-0.5366-0.6548-1.5488-2.0836-2.2493-3.175s-1.8095-2.8165-2.4644-3.8334c-0.6549-1.017-1.5416-2.4458-1.9705-3.175-1.2898-2.1932-4.3111-5.5452-6.0515-6.7138-2.1839-1.4664-3.1836-1.693-6.9623-1.5779-4.056 0.1235-5.2201 0.6229-8.7244 3.743-1.3822 1.2305-3.4989 2.8877-4.7039 3.6826-1.2051 0.7949-2.8458 2.0953-3.6462 2.8899-1.486 1.4752-5.4991 6.9488-6.8721 9.3733l-0.7623 1.3459 1.5856 2.3942c1.2493 1.8864 1.7523 2.9695 2.3717 5.1066 1.1212 3.8681 4.5586 11.6 7.2602 16.331 0.5768 1.01 1.0449 2.2789 1.2031 3.2614 0.7061 4.3848 5.7849 18.034 8.6696 23.299 0.5873 1.0719 1.445 3.0205 1.9062 4.3302 0.4611 1.3097 1.2449 3.1888 1.7418 4.1759 0.4968 0.987 1.0891 2.5348 1.3163 3.4396 0.5935 2.3635 3.0441 9.3982 4.352 12.493 0.615 1.4552 1.3392 3.6579 1.6092 4.8948 0.8151 3.7339 3.344 11.452 4.5749 13.962 0.6362 1.2975 1.5893 3.6519 2.1181 5.2321 0.553 1.6528 2.0729 5.0136 3.5784 7.9128 1.7532 3.3762 2.9743 6.1315 3.699 8.3471 1.9837 6.0637 6.3664 13.867 10.373 18.469 0.4187 0.4809 1.2957 1.9385 1.9489 3.239 1.1863 2.3621 1.1905 2.3666 3.8263 4.099 4.338 2.8513 6.6855 3.6327 10.323 3.436 1.7729-0.096 2.3087-0.2679 5.0271-1.6137zm47.625 0c2.8336-1.4029 3.2428-1.7085 5.9542-4.4476 2.6855-2.7129 3.0578-3.2184 4.7967-6.5131 1.8983-3.5966 2.8263-5.6327 3.678-8.0698 0.372-1.0644 1.0583-1.9174 3.5124-4.3656 4.4853-4.4744 6.6244-8.2106 7.8493-13.71 0.7262-3.2604 0.9282-3.785 3.1767-8.2506 1.0936-2.1719 1.9518-4.3519 2.4999-6.35 0.459-1.6735 1.1939-3.9952 1.6331-5.1594 0.4392-1.1641 1.2025-3.3187 1.6963-4.7879 1.0765-3.2031 1.7239-4.8757 2.9085-7.5152 0.4898-1.0914 1.0911-2.869 1.3362-3.9501 0.2451-1.0812 0.7868-2.7675 1.2037-3.7473 0.417-0.9798 1.1695-3.4884 1.6723-5.5748s1.1642-4.5078 1.4697-5.3809c0.6391-1.8261 2.2359-7.4103 2.6593-9.2996 0.1579-0.7047 0.8009-2.4724 1.4288-3.9283 1.637-3.7956 2.2113-5.4447 2.6709-7.6694 0.4498-2.1779 0.6258-2.6455 2.6407-7.0163 1.5193-3.2955 3.2626-7.8476 4.6104-12.038 0.468-1.4552 1.5336-3.896 2.3679-5.424 0.8344-1.5279 1.7885-3.4548 2.1205-4.2819 0.3319-0.8272 1.4401-2.6726 2.4626-4.1011 1.0226-1.4284 1.9706-2.8367 2.1068-3.1294 0.399-0.8578-1.3716-4.3557-3.9494-7.8021-3.0507-4.0786-8.4347-9.5694-10.075-10.275-3.6943-1.5892-7.2542-1.9558-11.886-1.2239-2.9353 0.4638-4.4617 1.1263-6.9848 3.0313-3.726 2.8133-6.5689 6.2183-11.819 14.156-3.4697 5.2458-5.2634 8.233-6.1448 10.233-0.6846 1.5537-1.4819 3.1611-1.7718 3.5719-0.8787 1.2455-1.8248 3.2831-2.8102 6.0525-0.515 1.4475-1.839 4.8345-2.9421 7.5267-3.4364 8.3859-3.8079 9.3982-4.0883 11.139-0.15 0.9312-0.8225 3.0028-1.4945 4.6035-2.5167 5.9945-6.2159 17.686-6.8574 21.672-0.4162 2.5865-0.6976 3.5299-1.7827 5.9767-0.3549 0.8004-0.9034 2.4983-1.2189 3.7732s-1.2096 3.6561-1.9869 5.2917c-0.7773 1.6355-1.502 3.2713-1.6103 3.6351-0.1084 0.3638-0.7662 2.2688-1.4619 4.2334-0.6957 1.9645-1.4511 4.4648-1.6787 5.5562-0.6671 3.1989-1.6603 5.9009-3.4875 9.487-1.1573 2.2715-1.8972 4.1308-2.282 5.7346-1.697 7.0729-3.5649 10.558-7.9846 14.898l-1.4384 1.4124 1.5559 3.0462c1.4219 2.7839 4.2091 6.9302 6.5092 9.6833 0.5017 0.6005 1.4374 2.1377 2.0795 3.4161 1.1623 2.3143 1.1787 2.3318 3.806 4.0586 4.338 2.8513 6.6855 3.6327 10.323 3.436 1.7729-0.096 2.3087-0.2679 5.0271-1.6137zm144.86-2.1962c1.9251-0.9217 6.1934-4.3447 7.7467-6.2125 1.1601-1.395 2.1948-3.3582 3.4127-6.4746 0.6112-1.5641 2.1078-3.9837 4.9868-8.062l0.8959-1.2691-1.1376-1.9059c-0.6257-1.0483-1.5228-2.5177-1.9937-3.2653-0.6341-1.0069-0.9173-1.8472-1.0924-3.2417-0.1957-1.559-0.61-2.6438-2.4111-6.3136-1.997-4.0689-4.6886-11.047-6.1487-15.941-0.3256-1.0914-1.037-3.231-1.5808-4.7547s-1.3442-4.3812-1.7787-6.35c-0.4344-1.9688-1.0408-4.3536-1.3476-5.2995-0.7962-2.4552-3.1911-8.0829-4.8327-11.356-0.7722-1.5398-1.6612-3.6631-1.9755-4.7184-0.3143-1.0554-0.9218-2.484-1.3499-3.1747-1.2568-2.0276-3.3878-7.0598-4.6712-11.031-0.6558-2.0291-1.8795-5.0229-2.7194-6.653-0.8626-1.6743-1.7306-3.8104-1.9949-4.9097-0.2573-1.0702-1.0574-3.1961-1.7779-4.724-1.269-2.6911-3.9086-9.1752-3.9097-9.604-3e-4 -0.1162-0.6103-1.7236-1.3555-3.5719s-1.8803-4.6685-2.5224-6.2671c-0.6421-1.5985-1.3393-3.5696-1.5493-4.3802-0.7185-2.7725-3.2418-7.6282-5.6318-10.837-3.0235-4.0596-8.4178-9.5664-10.065-10.275-2.1484-0.9242-5.3431-1.6311-7.3715-1.6311-2.7952 0-6.8743 0.7084-8.414 1.4612-3.9083 1.911-8.7025 6.7727-12.871 13.052-1.5797 2.3797-2.8721 4.419-2.8721 4.5317 0 0.1128 0.1674 0.6065 0.372 1.0972s0.6139 1.9042 0.9097 3.1411c0.6198 2.592 0.8023 3.1072 2.8115 7.9375 0.8172 1.9646 2.1484 5.2388 2.9583 7.2761 0.81 2.0373 2.1703 5.158 3.0231 6.9348 0.8527 1.7769 1.8003 4.2177 2.1056 5.424 0.3301 1.3039 1.1315 3.2768 1.9764 4.8654 0.7817 1.4697 1.9214 4.2082 2.5328 6.0855 1.2653 3.8849 3.5772 9.3154 4.904 11.519 0.4938 0.8201 1.1234 2.3939 1.3992 3.4973 0.2757 1.1034 1.0369 3.1708 1.6914 4.5943 4.0041 8.7072 4.4681 9.9332 5.7854 15.288 1.3469 5.4749 3.1088 11.008 5.1815 16.272 0.6589 1.6735 1.4898 3.9952 1.8463 5.1594 0.3566 1.1641 1.6594 4.162 2.8951 6.662 1.7648 3.5703 2.3034 4.9324 2.511 6.35 0.3035 2.0718 0.5149 2.535 3.0868 6.7622 2.3271 3.8248 3.5041 6.1582 4.2508 8.4271 0.6505 1.9765 1.9199 3.8309 5.5632 8.1273 1.3951 1.6452 2.931 3.5153 3.4131 4.1559 1.0707 1.4228 2.0167 2.027 4.567 2.917 2.7799 0.9701 5.2591 1.3939 8.3147 1.4213 2.3957 0.021 2.796-0.048 4.2334-0.7365zm-249.11-168.41c0-1.1015 0.029-1.1179 2.4003-1.3458l1.7388-0.167 0.01-1.6377c0-0.9007 0.2034-3.0427 0.4439-4.76s0.4373-4.7947 0.4373-6.8386v-3.7162l-1.1245 1.2195c-0.8995 0.9756-1.2442 1.1861-1.7227 1.0523-1.2246-0.3423-1.0308-1.2558 0.7216-3.4003 1.772-2.1687 2.6909-2.5735 3.1776-1.4 0.9593 2.313 1.3226 7.8587 0.7757 11.84-0.1499 1.0914-0.4187 3.2345-0.5972 4.7625l-0.3246 2.7781 1.5184 0.1323c1.6352 0.1425 2.1759 0.4643 2.0322 1.2096-0.1284 0.6667-0.9839 0.8295-5.5042 1.0475l-3.9794 0.1919z"/></g></svg>
