<svg width="654.56mm" height="225.72mm" version="1.1" viewBox="0 0 654.56 225.72" xml:space="preserve" xmlns="http://www.w3.org/2000/svg"><g transform="translate(1005.9 1582.5)"><path fill="#fff" d="m-878.36-1357.4c-1.4302-0.7079-2.5862-2.0311-3.5448-4.0574-0.85155-1.8-0.94488-2.5785-0.36667-3.0584 0.5865-0.4868 1.1296-0.1461 1.415 0.8877 0.36481 1.3212 1.7356 3.2008 2.8259 3.8746 1.0949 0.6767 2.5269 0.7493 3.4068 0.1727 1.1273-0.7386 3.0412-3.2266 3.9147-5.089 0.74454-1.5875 0.87395-2.1805 0.96547-4.4243 0.13248-3.2484-0.35969-7.3822-1.0528-8.8421-0.68926-1.452-1.8953-2.1932-3.5655-2.1915-1.715 0-2.8761 0.7329-4.7253 2.9752-0.81064 0.983-1.6843 1.786-1.9432 1.786-0.95202 0-1.1054-0.5366-1.1054-3.8661 0-3.5556-0.46927-6.5689-1.3239-8.5009-1.3297-3.006-0.8099-4.7459 1.6423-5.4969 1.9016-0.5823 12.163-0.9029 12.771-0.399 0.61435 0.5099 0.51072 1.572-0.17823 1.8269-0.3207 0.1186-2.2662 0.1585-4.3234 0.089-4.2641-0.1448-7.532 0.09-8.2171 0.5913-0.44549 0.3258-0.43861 0.4264 0.13877 2.0301 0.82444 2.2899 1.3049 4.6777 1.4942 7.4257l0.15832 2.2988 0.81245-0.9253c1.509-1.7186 4.3941-2.7266 6.3199-2.2081 1.258 0.3388 2.926 1.7778 3.8109 3.2879 0.80626 1.3757 1.176 3.9151 1.2285 8.4366 0.0564 4.8567-0.60984 6.8579-3.6104 10.844-2.2734 3.0204-4.3971 3.7945-6.9471 2.5323zm-33.541-0.4618c-2.5863-0.3474-4.8442-2.2624-5.5902-4.7414-0.50338-1.6726-0.4911-10.924 0.0177-13.325 0.63678-3.0041 2.6476-6.3418 6.4665-10.733 1.5186-1.7464 1.8844-2.3367 1.8852-3.0427 2e-3 -1.9553 2.3535-4.1833 4.4149-4.1833 2.1363 0 4.0197 1.4004 4.5716 3.3992 0.89278 3.2334 0.96634 11.089 0.16884 18.032-0.7965 6.9343-1.273 8.3803-3.7927 11.509-2.1422 2.6602-4.5396 3.5686-8.1417 3.0849zm3.4331-2.1893c1.3632-0.3785 4.0424-3.0794 5.0039-5.0446 0.57647-1.1783 0.84547-2.4996 1.475-7.245 0.74428-5.6106 0.76144-5.9839 0.51491-11.203-0.27891-5.905-0.51908-6.8884-1.8505-7.5769-0.40971-0.2119-1.0455-0.3852-1.4129-0.3852-0.60167 0-0.65216 0.079-0.5086 0.7969 0.13511 0.6755 0.0133 0.9346-0.80037 1.702-0.52786 0.4978-0.95974 1.0679-0.95974 1.2669 0 0.4952-0.54219 0.9967-1.0776 0.9967-0.574 0-3.7865 3.3911-5.1163 5.4007-0.569 0.8599-1.4024 2.2885-1.8521 3.1746l-0.81753 1.6111-0.0849 5.9441c-0.0467 3.2692-0.0111 6.3376 0.0792 6.8187 0.32028 1.7072 2.3583 3.4226 4.5036 3.7905 1.5869 0.2722 1.7639 0.2693 2.9039-0.047zm263.6 1.4813c-2.8334-0.7073-4.3-1.7542-5.0833-3.6288-0.74552-1.7843-0.42211-3.0425 0.70907-2.7586 0.47463 0.1191 0.73438 0.4565 0.97831 1.2706 0.51087 1.7052 1.4564 2.4707 3.6751 2.9753 1.5555 0.3538 2.2368 0.3825 3.664 0.1545 2.0748-0.3314 2.4567-0.5121 3.3655-1.5922 1.4187-1.686 1.6183-3.0881 1.6183-11.365 0-6.5296-0.0603-7.6737-0.44952-8.5329-0.40896-0.9026-0.54362-0.9921-1.4922-0.9921-1.2734 0-3.5719 1.6152-5.202 3.6558-1.2867 1.6107-1.9977 2.0099-2.6856 1.5079-0.43575-0.3181-0.50818-0.918-0.66068-5.4725-0.0942-2.8133-0.25833-6.1333-0.36474-7.3777-0.21368-2.4989 0.12-3.6255 1.2664-4.2755 0.64102-0.3635 10.255-0.6624 11.473-0.3567 0.55869 0.1402 0.64852 0.298 0.57904 1.0168l-0.0822 0.8508-5.0271 0.1404c-2.7649 0.077-5.2365 0.2392-5.4924 0.3599-0.74122 0.3497-0.82243 1.329-0.36059 4.3482 0.23763 1.5534 0.43137 3.7268 0.43054 4.8296l-2e-3 2.0052 1.14-1.0924c1.3873-1.3293 3.347-2.298 4.9454-2.4445 1.549-0.142 2.8374 0.5575 3.5585 1.932 0.51606 0.9837 0.54252 1.4729 0.54252 10.03 0 8.7453-0.0164 9.0315-0.58974 10.274-0.87302 1.8916-2.0966 3.2973-3.4764 3.9938-1.6233 0.8194-4.864 1.0724-6.9776 0.5449zm-246.74-2.033c-0.38269-0.3827-0.40637-1.2546-0.0489-1.7991 0.17526-0.267 0.32548-0.304 0.45897-0.113 0.10914 0.1561 0.40679 0.3607 0.66145 0.4547 0.79542 0.2934 0.40895 1.7749-0.46302 1.7749-0.16007 0-0.43391-0.1429-0.60854-0.3175zm194.46-0.8821c-2.0658-0.4484-3.5773-1.3117-5.0012-2.8564-1.3724-1.489-1.9954-2.728-2.5503-5.0721-1.2148-5.1322-1.5543-11.095-0.82719-14.528 0.21296-1.0052 1.1694-3.6397 2.1253-5.8543 1.2207-2.8279 1.6907-4.2155 1.5788-4.6611-0.10725-0.4274 0.0397-0.927 0.44978-1.5297 0.93994-1.3814 1.8789-1.9443 3.4424-2.0636 1.2209-0.093 1.6877 0.033 3.649 0.988 2.2966 1.118 3.7439 2.2599 4.3589 3.4391 0.51421 0.986 1.1316 4.3485 1.7246 9.3927 0.58375 4.9658 0.76114 18.212 0.26767 19.988-0.32424 1.1672-1.7277 2.5592-2.9269 2.9031-1.2549 0.3599-4.2847 0.2897-6.2908-0.1457zm6.1424-1.9634c1.1789-0.4483 1.2809-1.4568 1.1524-11.396-0.16108-12.456-0.80487-16.555-2.9316-18.666-1.8914-1.8779-5.7082-2.8853-5.9574-1.5725-0.0547 0.2882-0.91605 2.0146-1.9141 3.8365-3.1531 5.7558-3.25 6.0742-3.3629 11.058-0.10725 4.7335 0.31511 8.3958 1.3188 11.435 0.73991 2.2404 2.9078 4.52 4.8721 5.123 1.4695 0.4511 5.811 0.5674 6.8228 0.1827zm238.08 2.0518c-0.79738-0.7974-6e-3 -1.9776 1.1343-1.6914 1.0992 0.2759 0.75984 2.0089-0.39344 2.0089-0.23283 0-0.5662-0.1429-0.74083-0.3175zm-19.101-0.2894c-0.75793-0.3823-0.9832-1.0978-0.52096-1.6548 0.24235-0.292 0.99774-0.3842 3.1494-0.3842h2.8306l-0.19783-1.389c-0.10881-0.764-0.20652-6.6992-0.21715-13.189-0.0106-6.4901-0.096-12.707-0.18971-13.816l-0.17039-2.0158-0.77595 0.653c-0.42677 0.3591-0.98112 0.6529-1.2319 0.6529-0.5278 0-1.091-0.492-1.091-0.953 0-0.6205 3.223-5.1325 3.6634-5.1284 0.59171 0.01 0.9644 0.2886 1.2137 0.922 0.11456 0.291 0.30519 5.4107 0.42363 11.377 0.11843 5.9663 0.30201 13.557 0.40795 16.867l0.19262 6.0192h0.98879c1.1974 0 2.2171 0.7249 1.9605 1.3937-0.23487 0.6121-0.58429 0.6646-5.5432 0.8335-3.1192 0.1063-4.4068 0.057-4.8924-0.1882zm33.071 0.047c-2.2665-0.8974-5.0841-5.7877-4.2416-7.3619 0.35597-0.6651 1.2939-0.7164 1.4933-0.082 0.96826 3.0811 2.1606 4.7823 3.7843 5.3996 1.3164 0.5005 3.5815 0.3422 4.8198-0.3369 1.9372-1.0623 2.1187-1.7039 2.0132-7.1132-0.0845-4.3284-0.14666-4.8171-0.95425-7.4976-1.7452-5.7925-3.1159-8.6758-4.4184-9.2939-1.7596-0.8349-2.9091-0.3934-5.7427 2.2058-3.0703 2.8163-3.6286 2.5502-3.6393-1.7349-8e-3 -3.128-0.26267-4.3327-1.494-7.0615-1.2596-2.7915-1.3864-3.8313-0.57853-4.7421 0.81759-0.9218 2.6073-1.1749 8.7141-1.2325 5.0912-0.048 5.5076 0.068 5.1634 1.4397l-0.16688 0.6649h-6.0804c-5.7912 0-6.0804 0.024-6.0804 0.5013 0 0.2757 0.48643 1.7137 1.081 3.1956 0.82802 2.0638 1.1483 3.3137 1.3686 5.3412l0.28768 2.647 1.3433-1.3842c1.6775-1.7284 2.9949-2.35 4.9968-2.3576 1.4497-0.01 1.6036 0.058 2.717 1.1187 0.96159 0.9161 1.3764 1.6392 2.2388 3.9026 3.0335 7.9619 3.9344 12.45 3.4462 17.169-0.39435 3.8117-1.526 5.55-4.2355 6.5059-1.2796 0.4515-4.802 0.5159-5.8356 0.1066zm-228.76-3.0007c-0.45591-0.3334-0.49784-0.7429-0.47975-4.6861 0.0139-3.0322 0.152-4.8981 0.46302-6.2564 0.24376-1.0645 0.4432-1.9832 0.4432-2.0415 0-0.058-1.2672-0.1399-2.8161-0.1812-2.3423-0.062-2.8651-0.153-3.1075-0.5381-0.21217-0.3371-0.21214-0.5889 1.1e-4 -0.926 0.24634-0.3913 0.77978-0.4745 3.4418-0.5368l3.1502-0.074 0.61735-1.7783c1.9353-5.5748 2.002-5.6912 5.2202-9.1138 1.6604-1.7659 3.0189-3.2921 3.0189-3.3917 0-0.5234-7.7706-0.67-14.552-0.2746-3.5877 0.2091-4.5736 0.014-4.7091-0.9301-0.0434-0.3024 0.0757-0.677 0.26458-0.8323 0.23805-0.1958 3.2008-0.2293 9.6511-0.1092 8.8991 0.1658 9.3404 0.1978 10.054 0.729 0.56796 0.4227 0.76569 0.8122 0.82665 1.6285 0.0898 1.2025-0.1359 1.5276-3.5347 5.0919-2.113 2.2159-2.3539 2.6169-3.7971 6.3202l-1.0166 2.6084 1.4404 0.1487c1.6432 0.1696 2.2577 0.5566 2.1443 1.3506-0.0711 0.4977-0.28131 0.56-2.1272 0.6296-1.8692 0.07-2.059 0.1283-2.1706 0.6614-0.0673 0.3213-0.263 1.2391-0.43492 2.0395-0.17192 0.8003-0.34722 3.1816-0.38955 5.2916-0.0423 2.1101-0.0857 4.1002-0.0965 4.4225-0.027 0.8095-0.85629 1.2218-1.5043 0.748zm-10.898-0.4609c-0.79738-0.7974-6e-3 -1.9775 1.1343-1.6914 1.0992 0.2759 0.75984 2.0089-0.39344 2.0089-0.23283 0-0.56621-0.1429-0.74083-0.3175zm236.75-47.561c-2.6111-0.6756-10.138-0.8745-24.342-0.643-7.9309 0.1292-17.277 0.2056-20.77 0.1697-3.4925-0.036-12.541-0.1037-20.108-0.1508-7.5671-0.047-14.235-0.1766-14.817-0.2879-0.58209-0.1113-1.268-0.3904-1.5242-0.6203-0.8213-0.7371-1.481-3.5614-1.786-7.6459-0.15997-2.1424-0.36347-4.0128-0.45224-4.1564-0.0888-0.1436-0.19905-6.2236-0.24508-13.511-0.17783-28.152-0.93992-66.183-1.3974-69.738-0.21165-1.6447-0.18815-2.0523 0.13728-2.3812 0.34254-0.3463 3.1065-0.3969 21.659-0.3969 11.697 0 21.338-0.072 21.426-0.1588 0.18962-0.189-0.71258-4.1852-1.4734-6.5262-0.30843-0.949-1.1574-2.52-1.9856-3.6743-1.87-2.6064-2.8773-4.6269-3.9377-7.8982-1.3434-4.1445-3.0591-7.3913-5.5916-10.581-1.2405-1.5625-3.5655-4.6427-5.1665-6.8449s-3.114-4.2149-3.3621-4.4725c-0.27406-0.2847-1.6924-0.7454-3.6133-1.1739-2.8777-0.642-3.683-0.7069-8.9525-0.7222-5.2154-0.015-5.8195-0.063-6.0841-0.4797-0.21552-0.3398-0.2148-0.5863 3e-3 -0.926 0.26698-0.417 0.76659-0.4563 5.0257-0.3956 4.4519 0.063 9.4706 0.4237 10.942 0.7854 0.60651 0.1491 0.573 0.062-0.43676-1.1394-2.483-2.9536-4.6353-4.8937-7.8574-7.0828-4.1141-2.7952-5.8941-3.7068-12.925-6.619-2.9844-1.2363-7.0799-3.0156-9.101-3.9542-6.1489-2.8553-11.503-4.8094-17.036-6.2182-2.6301-0.6696-3.0953-0.7057-8.7312-0.6777-3.2742 0.016-8.9297 0.2236-12.568 0.4607-3.638 0.237-9.2115 0.5545-12.386 0.7054-8.8712 0.4219-10.694 0.8424-16.542 3.8158-7.4346 3.7804-17.123 11.608-21.412 17.3-2.3448 3.1118-3.558 5.2639-3.2769 5.8133 0.12587 0.246 0.13633 1.1617 0.0232 2.0348-0.36279 2.8009-0.26412 6.0746 0.27615 9.1623 0.63827 3.6477 0.65878 4.5583 0.11285 5.0113-0.67661 0.5616-1.231-0.028-1.6146-1.7167-0.58946-2.5954-1.1132-7.6068-0.9838-9.4142l0.12309-1.7198-1.1857 2.3813c-0.65215 1.3097-2.6739 5.4173-4.4927 9.1281-1.8188 3.7108-4.6972 9.2472-6.3963 12.303-3.231 5.8111-5.5669 10.498-6.6255 13.295l-0.62592 1.6537h1.2545c0.68997 0 2.0879 0.1874 3.1066 0.4109 4.8088 1.055 7.172 1.0534 13.066-0.01 19.332-3.4852 23.824-4.0592 25.405-3.2467 0.34977 0.1798 0.87414 0.6477 1.1653 1.0399 0.49786 0.6706 0.53204 1.1659 0.57524 8.3344 0.0253 4.1917 0.18021 11.61 0.34436 16.485 0.16414 4.875 0.42042 12.852 0.56951 17.727 0.25143 8.2213 0.42656 10.618 1.4306 19.579 0.50065 4.4682 0.62265 30.412 0.15043 31.988-0.1756 0.5861-0.60896 1.3378-0.96303 1.6704l-0.64375 0.6047-10.496 0.032c-9.4952 0.029-17.738 0.4124-18.433 0.8568-0.14552 0.093-17.41 0.248-38.365 0.3442-24.66 0.1134-38.707 0.2738-39.82 0.4548-0.94589 0.1538-8.9231 0.3934-17.727 0.5325-17.909 0.2829-16.816 0.3849-17.589-1.6407-0.64195-1.6809-0.47112-10.096 0.69657-34.314 0.42653-8.8463 0.59346-38.832 0.24362-43.761-0.15602-2.198-0.40992-6.1395-0.56422-8.7588-0.15431-2.6194-0.36276-5.7746-0.46322-7.0115-0.24208-2.9804-0.15969-3.3776 0.83007-4.0012 0.82057-0.5171 1.1648-0.5256 15.391-0.3804 8.0036 0.082 15.177 0.2196 15.941 0.3063l1.3891 0.1576-2e-3 -1.8114c-4e-3 -3.0151-1.0361-13.048-1.5749-15.305-0.85782-3.5939-3.4586-9.5541-6.1149-14.013-1.4181-2.3806-1.6867-2.6917-2.2339-2.5871-0.34209 0.065-1.3741-0.1299-2.2933-0.434-4.3454-1.4376-8.0086-2.1884-11.415-2.3395-3.4145-0.1515-4.1472-0.3748-4.1472-1.2636 0-2.0037 5.1822-1.5207 15.544 1.4487 0.9095 0.2607 1.6536 0.4241 1.6536 0.3632 0-0.4583-1.2964-1.7793-4.056-4.133-1.771-1.5105-4.37-3.8311-5.7756-5.1569-2.8563-2.6942-3.693-3.1816-8.4247-4.9085-1.819-0.6639-4.4979-1.702-5.9531-2.3069-5.4034-2.246-10.346-3.0886-19.976-3.4052-5.8681-0.193-6.3121-0.2436-7.8963-0.9002-2.7599-1.144-4.3802-1.3429-9.2657-1.1372-2.4209 0.1019-9.6999 0.2933-16.176 0.4254-14.587 0.2976-15.066 0.3661-20.77 2.9705-4.5078 2.0584-8.3069 4.3525-8.1571 4.9256 0.0992 0.3792-2.7825 6.5035-6.7313 14.306-0.62667 1.2382-1.2474 1.5945-1.8055 1.0365-0.39953-0.3996-0.3979-0.5382 0.0217-1.8476 0.49159-1.5342 4.4608-9.1512 5.7297-10.996l0.78145-1.1358h-0.82364c-0.98005 0-4.9834 2.0821-8.2037 4.2666-2.263 1.5351-6.3301 5.4147-8.0089 7.6396-0.49412 0.6549-1.923 2.8135-3.1753 4.797-1.2523 1.9834-2.8033 4.3647-3.4466 5.2916-1.3587 1.9577-4.582 7.4655-5.8961 10.075-1.1128 2.2097-3.3964 7.732-3.9578 9.5711-0.40219 1.3173-1.4575 6.3179-1.355 6.4205 0.0282 0.028 1.0032-0.1784 2.1667-0.459 2.0209-0.4873 2.6735-0.4983 14.591-0.2462 15.803 0.3343 21.699 0.7967 23.089 1.8106 0.8774 0.6402 1.2728 1.9463 1.469 4.8521 0.0917 1.3584 0.27775 3.4819 0.41339 4.7188 0.59814 5.4548 0.87064 14.645 0.95318 32.147 0.22901 48.56 0.28621 55.338 0.4717 55.906 0.47278 1.4475 1.9675 1.3781-29.18 1.356-15.808-0.011-31.837-0.1417-35.62-0.2901-3.7835-0.1485-23.068-0.3204-42.855-0.3821-20.896-0.065-36.076-0.2124-36.215-0.3512-0.14013-0.1401-0.18303-7.2251-0.1037-17.126 0.10769-13.442 0.22579-17.661 0.57886-20.678 0.34566-2.9541 0.41417-5.2025 0.31038-10.186-0.24653-11.839-0.64949-20.395-1.0863-23.064-0.32078-1.9607-0.48881-5.6234-0.64892-14.144l-0.21605-11.499 0.69461-0.8889c1.0796-1.3816 1.9804-1.7315 4.7957-1.8629 2.3896-0.1116 4.0936 0.013 12.039 0.8795 1.8918 0.2063 4.9874 0.4452 6.8792 0.5309 10.176 0.4609 12.664 0.635 15.031 1.0521 1.4274 0.2516 2.661 0.3916 2.7414 0.3113 0.50579-0.5058-1.1293-10.879-2.4275-15.4-0.33598-1.17-0.87206-3.4383-1.1913-5.0406l-0.58044-2.9132-1.2304-0.437c-0.6767-0.2403-2.5919-1.2823-4.256-2.3154-3.2334-2.0074-5.4445-2.9092-7.1332-2.9092-1.599 0-2.4903-1.2802-1.4768-2.1213 0.57732-0.4792 3.1912-0.152 5.1523 0.6449 1.585 0.6441 6.4331 3.6551 7.641 4.7457l0.62818 0.5672-0.19894-0.6615c-1.007-3.3481-4.5835-11.211-6.5592-14.42-1.8576-3.0171-5.53-7.0095-7.9856-8.6815-1.9975-1.3601-8.3855-4.7255-10.391-5.4747-0.83666-0.3124-2.4737-0.9913-3.6379-1.5085-1.1642-0.5173-3.4859-1.5067-5.1594-2.1986-1.6735-0.692-4.4119-1.8484-6.0854-2.5699-4.7859-2.0632-7.8466-3.1392-10.848-3.8135-2.6176-0.588-3.2902-0.6241-11.642-0.6241-4.8749 0-9.0123-0.096-9.1942-0.214-0.4264-0.276-0.4257-1.0977 1e-3 -1.452 0.2277-0.189 3.45-0.2065 10.253-0.056 9.4334 0.2093 10.063 0.2546 12.827 0.9238 3.4146 0.8268 7.4356 2.4442 16.143 6.4933 3.4925 1.624 7.0813 3.2292 7.9752 3.5671 3.2452 1.2266 10.155 4.925 12.076 6.4636 5.455 4.3693 8.3302 8.6346 12.115 17.973l1.4334 3.5362 0.19431-1.1382c0.10687-0.6261 0.54899-2.2174 0.98248-3.5363s0.97574-3.2265 1.205-4.2392c0.54284-2.3978 1.4338-3.4 2.1855-2.4583 0.42534 0.533-0.0744 3.5263-1.1378 6.8158-0.79462 2.458-1.9117 6.9116-2.0234 8.067-0.038 0.3929 0.81416 4.1794 1.5183 6.7469 1.6764 6.1122 2.5445 10.909 2.5899 14.311l0.0444 3.3304 9.1281 0.2415c5.0205 0.1328 15.855 0.2313 24.077 0.2189 16.025-0.024 16.213-0.038 20.567-1.4622 1.5748-0.5153 1.6616-0.5891 1.9325-1.644 1.0041-3.9091 2.6819-8.7246 4.6111-13.234 1.4781-3.4555 5.0654-9.8358 8.307-14.775 1.4028-2.1373 3.3743-5.1602 4.3812-6.7175 2.9849-4.6166 8.9551-10.396 12.686-12.281l1.5522-0.7841-5.2278-0.072c-4.6438-0.064-5.2604-0.1235-5.5196-0.5348-0.21266-0.3375-0.21268-0.5886-8e-5 -0.9261 0.26359-0.4183 1.0295-0.4758 7.9362-0.5953l7.6444-0.1323 1.5875-0.9548c4.6994-2.8264 9.1244-5.0655 12.039-6.0916 2.4748-0.8713 5.9286-1.2858 10.716-1.286 2.4739 0 9.2604-0.191 15.081-0.4243 12.652-0.5071 14.496-0.4412 17.727 0.6327 2.1931 0.729 2.862 0.8156 8.4667 1.0964 6.0363 0.3024 11.943 1.0012 14.878 1.7601 0.83955 0.2171 2.8361 0.9377 4.4369 1.6014s4.7258 1.8523 6.9446 2.6414c2.2188 0.789 4.6471 1.7959 5.3961 2.2375 0.74903 0.4417 2.6841 2.032 4.3001 3.534s4.0171 3.6287 5.3356 4.7259c1.3186 1.0972 2.712 2.3913 3.0964 2.8757l0.69905 0.8808 0.0124-2.6659c0.0101-2.1668-0.10843-3.0117-0.63328-4.514-1.1423-3.2696-1.2208-5.917-0.1754-5.917 0.73054 0 1.042 0.5223 1.5162 2.5421 0.23544 1.003 0.65161 2.5802 0.92482 3.5051 0.62703 2.1225 0.71839 8.332 0.13497 9.1736-0.32412 0.4676-0.20875 0.7972 1.1089 3.1678 1.4682 2.6415 4.1647 8.3709 5.6206 11.942 1.4102 3.4594 1.8136 6.3211 2.2606 16.037l0.17955 3.9026 9.0237 0.019c4.963 0.011 9.619 0.1152 10.347 0.2324 6.1843 0.9963 11.762 1.3704 22.225 1.4907 5.2993 0.061 9.2789 0.2367 11.245 0.4967 1.6735 0.2213 3.7753 0.4034 4.6706 0.4046h1.6279l2.2354-4.4318c1.2294-2.4375 3.7213-7.1107 5.5375-10.385 5.933-10.696 12.755-24.557 11.846-24.071-0.27712 0.1483-1.7274 1.5063-3.2228 3.0179-3.2197 3.2544-6.2097 5.7037-6.9655 5.7057-0.66514 0-1.1774-0.4765-1.1774-1.0993 0-0.2739 0.83826-1.0858 2.0344-1.9704 1.1189-0.8275 3.377-2.7816 5.0181-4.3425 1.9494-1.8542 3.5672-3.1405 4.667-3.7107 1.5092-0.7825 1.773-1.0457 2.5499-2.5442 1.1771-2.2703 3.8108-5.903 5.9652-8.228 4.6553-5.0238 13.385-11.64 19.394-14.699 5.7072-2.9053 8.2366-3.4857 16.918-3.8815 3.3151-0.1512 7.7539-0.3946 9.8639-0.5409 5.7064-0.3957 14.064-0.7783 17.066-0.7812 4.3392 0 10.567 1.5111 18.785 4.5713 0.58208 0.2167 3.1419 1.3414 5.6885 2.4994s5.9994 2.6736 7.6729 3.3681c9.0583 3.759 9.2768 3.8668 15.313 7.5517 3.0425 1.8573 4.3621 3.0653 7.0404 6.4449 0.99562 1.2564 1.842 2.2525 1.881 2.2136 0.0389-0.039-0.15575-0.8875-0.43255-1.8857-0.45876-1.6545-0.79647-3.3328-1.9998-9.9385-0.46862-2.5725-0.2551-3.5493 0.7442-3.4044 0.71873 0.1042 0.98453 0.9882 1.9347 6.4342 0.38084 2.1828 0.97381 5.0998 1.3177 6.4823 0.34391 1.3824 0.70346 3.2511 0.79901 4.1526 0.16966 1.6006 0.25842 1.7527 3.7875 6.4886 1.9876 2.6672 4.3119 5.7101 5.1652 6.7618 2.1151 2.6071 4.1986 6.4742 5.2195 9.6879 1.0501 3.3057 2.0405 5.3352 3.7062 7.5949 0.70755 0.9598 1.6459 2.5132 2.0852 3.4519 0.78878 1.6856 1.8406 5.7597 1.8518 7.1722 5e-3 0.6919 0.0674 0.7272 1.2625 0.72 0.69122 0 8.46 0.06 17.264 0.1423 22.056 0.2065 38.1-0.3813 38.1-1.396 0-0.1984 0.83691-2.3179 1.8598-4.7099 1.0229-2.392 2.2234-5.3906 2.6677-6.6635 0.98252-2.8145 3.9454-8.5606 6.1729-11.972 2.3895-3.6589 6.682-8.9394 10.165-12.505l3.0406-3.1124-3.0236 1.4859c-1.663 0.8173-4.8892 2.5563-7.1694 3.8646-4.2928 2.463-5.0204 2.666-5.3895 1.5032-0.26346-0.8301 0.39344-1.3318 3.7769-2.8845 1.7119-0.7856 4.0651-1.9802 5.2293-2.6548 3.5907-2.0805 6.9217-3.668 8.0875-3.8544 1.1704-0.1872 1.7072-0.6599 3.8861-3.4219 1.4164-1.7955 13.116-10.157 17.854-12.761 5.2592-2.8897 8.1243-4.2557 9.5956-4.5751 1.9545-0.4243 16.049-0.6453 16.764-0.2629 0.61529 0.3293 0.75773 1.1931 0.24862 1.5078-0.17466 0.1079-4.0144 0.2782-8.5328 0.3785-9.6274 0.2135-8.7768 0.016-15.817 3.6743-4.5836 2.3816-5.4078 2.9313-15.296 10.202-3.1734 2.3333-6.1961 5.5981-5.7846 6.248 0.35599 0.5621 0.2843 1.8959-0.17077 3.1776-0.22608 0.6368-0.7032 3.4795-1.0602 6.3171-0.8265 6.5685-0.86394 6.7556-1.4603 7.2953-0.75775 0.6857-1.302 0.083-1.3002-1.4407 2e-3 -1.5331 1.4836-11.636 1.8466-12.591 0.61374-1.6142 0.0937-1.2629-3.3695 2.2765-10.243 10.469-14.706 17.976-19.765 33.25-0.40071 1.2098-0.6865 2.2366-0.6351 2.2819 0.0514 0.045 0.74831-0.013 1.5487-0.1298 2.0629-0.3005 8.3343-0.2981 13.758 0.01 2.5466 0.1425 7.4282 0.3882 10.848 0.5462 7.431 0.3431 10.101 0.6308 10.937 1.1782 1.1699 0.7666 1.3316 1.5445 1.5131 7.2801 0.0944 2.9832 0.43481 7.7457 0.75647 10.583 0.4616 4.0723 0.57156 6.3859 0.52185 10.98-0.0346 3.2015 0.0268 16.179 0.13659 28.84 0.19687 22.706 0.20884 23.087 0.88214 28.046 0.84226 6.2031 0.9346 10.211 0.26358 11.439-0.92274 1.6884-0.41883 1.6383-17.834 1.7726-8.7061 0.067-21.544 0.1847-28.529 0.2615-7.2412 0.08-13.098 0.037-13.626-0.1002zm31.618-1.9137c3.347-0.1555 10.296-0.3172 15.442-0.3594 5.1459-0.042 9.6326-0.1462 9.9704-0.231 0.33789-0.085 0.88093-0.5286 1.2068-0.9861 0.78778-1.1064 0.75261-3.2748-0.15815-9.7501-1.2007-8.5366-1.2326-9.344-1.1574-29.236 0.0718-18.971-0.26922-36.018-0.78593-39.291-0.6186-3.9179-0.84422-6.7261-0.88958-11.072-0.0478-4.5799-0.0493-4.5902-0.68194-4.8308-1.0732-0.408-8.5768-1.0293-15.802-1.3084-7.3158-0.2826-14.956-0.1478-18.653 0.3292-3.1191 0.4024-3.3563 0.4123-17.462 0.7305-27.158 0.6126-31.763 0.6681-43.259 0.5211-6.5484-0.084-18.766-0.095-27.15-0.024l-15.244 0.1286-0.16665 2.1404c-0.26599 3.4162-0.1769 17.955 0.1331 21.72 0.15579 1.8918 0.32518 9.2142 0.37641 16.272 0.14652 20.184 0.57885 38.341 1.0206 42.862 0.22036 2.2556 0.48204 5.6809 0.58151 7.6119 0.16916 3.2839 0.21671 3.5177 0.73565 3.6161 3.2239 0.6118 11.186 0.7634 42.491 0.8092 25.164 0.037 34.541 0.1349 36.909 0.386 1.7462 0.1852 3.2345 0.3967 3.3073 0.47 0.19803 0.1997 22.251-0.1836 29.236-0.5082zm-48.816-23.943c-1.9815-0.3781-8.0191-2.3594-9.3597-3.0715-1.9505-1.0361-7.1217-6.054-8.5096-8.2573-2.4382-3.8707-3.5633-7.1705-3.5598-10.44 5e-3 -4.306 1.3104-11.866 2.5002-14.475 1.658-3.6355 5.045-7.2321 8.3546-8.8715 2.7673-1.3708 7.4425-3.3212 9.709-4.0503 2.5776-0.8293 9.5141-1.333 12.609-0.9158 4.1366 0.5576 5.0327 0.795 8.0756 2.1391 3.991 1.7629 5.7671 3.0551 8.7397 6.3589 2.563 2.8485 3.0076 3.5453 4.138 6.4854 1.2113 3.1505 1.4278 4.3091 1.4256 7.63-2e-3 3.5782-0.29653 6.018-1.0336 8.5731-1.0401 3.6054-1.2662 3.141 2.676 5.4963 1.9057 1.1386 4.0841 2.4274 4.8408 2.8639 0.75673 0.4366 1.7896 1.1101 2.2953 1.4967 1.2151 0.9289 2.6675 3.6487 2.5575 4.7892-0.0786 0.8152-0.13543 0.8567-1.1411 0.8349-0.66619-0.014-2.0522-0.4839-3.7407-1.267-2.9816-1.3828-4.9581-2.0282-9.139-2.9843l-2.8255-0.6462-2.2016 1.633c-2.5147 1.8652-7.9015 4.5776-11.594 5.8381-2.5073 0.8558-2.528 0.858-8.3344 0.9124-3.2015 0.03-6.1185 0-6.4823-0.072zm13.133-2.6118c4.4986-1.2965 12.628-5.2704 12.97-6.3406 0.0457-0.1429-1.3143-0.8291-3.0222-1.525-1.708-0.6959-3.674-1.6208-4.3689-2.0552-1.2774-0.7987-2.3056-2.1174-2.3074-2.9595-5.4e-4 -0.2526 0.56757-1.5622 1.2625-2.9105 0.6949-1.3482 1.5181-3.0763 1.8293-3.8403 0.46012-1.1295 0.68384-1.3891 1.1972-1.3891 0.73742 0 1.2663 0.4504 1.2663 1.0784 0 0.2438-0.30437 1.1315-0.67638 1.9727-0.53538 1.2106-0.60433 1.5752-0.33073 1.7487 0.19011 0.1206 0.44543 0.221 0.56738 0.2233 0.12194 0 1.1695 0.4207 2.3279 0.9301 1.1584 0.5093 2.1484 0.926 2.1999 0.926 0.0515 0-0.62187-0.7441-1.4965-1.6536-1.9522-2.0301-2.43-2.7235-2.2321-3.2391 0.36961-0.9632 1.4345-0.3879 4.6666 2.5213 1.7845 1.6061 3.2766 2.886 3.3159 2.8443 0.0393-0.042 0.39678-1.3857 0.79448-2.9864 0.57868-2.3291 0.74862-3.7336 0.85084-7.0315l0.12772-4.121-0.98233-2.8904c-0.54028-1.5898-1.2127-3.268-1.4942-3.7294-0.81141-1.3297-4.7439-5.5402-6.0451-6.4726-1.3846-0.9921-5.3815-2.9179-7.2819-3.5085-2.2765-0.7076-6.8546-1.101-11.112-0.9549l-3.9688 0.1362-5.1594 2.0801c-6.9652 2.8083-7.2894 2.9916-9.5647 5.4103-3.3636 3.5755-4.969 7.4962-5.5448 13.541-0.79076 8.3011 0.88116 12.796 6.9423 18.663 3.2023 3.0997 3.7957 3.4925 6.9766 4.6182 3.8539 1.3638 5.1022 1.546 10.752 1.5688 4.8182 0.019 5.3664-0.028 7.5406-0.6546zm29.088-4.3286c-0.25204-0.2785-2.2053-1.551-4.3405-2.8277s-4.1799-2.5011-4.5437-2.7208c-0.3638-0.2198-0.56437-0.2868-0.44571-0.1489 0.11866 0.1378 1.6069 1.0914 3.3073 2.119 2.1584 1.3044 3.116 2.0347 3.1724 2.4195 0.0573 0.3904 0.48204 0.7052 1.4552 1.0787 1.7766 0.6818 1.9483 0.6917 1.3949 0.08zm-8.0904-2.5364c0-0.073-0.0595-0.1322-0.13229-0.1322-0.0728 0-0.1323 0.06-0.1323 0.1322 0 0.073 0.0595 0.1323 0.1323 0.1323s0.13229-0.06 0.13229-0.1323zm-1.8327-1.0944c-1.3541-0.912-1.4473-0.9369-1.7834-0.4773-0.44886 0.6139-0.24328 0.8008 1.2349 1.1232 1.9748 0.4306 2.0375 0.3568 0.54852-0.6459zm-3.6045-1.2966c0.61353-1.1392 0.47761-1.321-1.8388-2.4584-1.5885-0.78-6.4238-2.4266-7.1259-2.4266-0.20497 0-0.4542 0.3711-0.55382 0.8247-0.13781 0.6274-0.0594 0.9465 0.32756 1.3334 0.4588 0.4589 7.7632 3.629 8.4165 3.6529 0.14881 0.01 0.49735-0.4113 0.77453-0.926zm-397.04 35.205c0.0488-0.049-0.0525-0.5462-0.22503-1.1056-0.43439-1.4084-0.82187-19.865-0.88233-42.027-0.0658-24.118-0.36719-39.509-0.84192-42.995-0.20811-1.528-0.48602-3.8454-0.61758-5.1498-0.21868-2.1682-0.30843-2.4335-1.0466-3.0931-0.96704-0.864-4.2323-1.9438-7.1021-2.3484-1.1367-0.1603-7.1268-0.3542-13.311-0.4309-12.947-0.1604-14.655-0.01-19.752 1.7536-5.1668 1.7864-6.4208 1.9119-18.612 1.862-31.805-0.1299-41.212-0.2461-42.466-0.5242-0.7276-0.1615-3.5851-0.4022-6.35-0.5349-9.4853-0.4553-14.027-0.786-16.801-1.2235-2.9225-0.4609-10.944-0.6555-12.226-0.2966-0.46524 0.1303-0.87967 0.545-1.1826 1.1834-0.42047 0.8861-0.46675 1.9992-0.47018 11.309-4e-3 9.5847 0.0408 10.601 0.61802 14.162 0.41216 2.5428 0.69323 5.7545 0.83358 9.525 0.11646 3.1287 0.35295 6.8791 0.52554 8.3343 0.36211 3.0532 0.21289 7.49-0.46719 13.891-0.40184 3.7819-0.45282 6.5885-0.38135 20.993l0.0825 16.627 0.64898-0.1628c1.1919-0.2992 61.038-0.2117 68.639 0.1004 4.0018 0.1642 8.5857 0.3237 10.186 0.3544 4.4652 0.086 61.1-0.1022 61.201-0.2029zm-110.42-22.915c-0.12918-0.407 0.36922-1.459 1.9004-4.0112 1.8011-3.0022 2.6278-4.0398 6.2533-7.8489 3.2705-3.4361 4.1453-4.5042 4.0283-4.9184-1.079-3.8206-1.1659-5.4841-0.54601-10.453 1.0221-8.1929 2.5308-11.724 6.6694-15.611 1.9295-1.8122 3.5991-2.7542 8.6892-4.9023 4.9739-2.099 6.29-2.4281 11.011-2.7538 4.2234-0.2913 5.6947-0.2131 9.9992 0.5314 1.918 0.3317 7.1768 2.6818 9.1809 4.1027 1.7944 1.2723 6.2306 6.0479 6.976 7.5098 0.70222 1.3771 2.0485 4.9786 2.4113 6.4507 0.42925 1.7416 0.16205 9.0658-0.4022 11.025-0.23053 0.8004-0.66225 2.5863-0.95937 3.9688-0.9514 4.4267-2.7587 7.3182-6.1434 9.8287-2.5752 1.9101-7.9968 4.614-11.701 5.8353l-2.6458 0.8724h-12.435l-3.684-1.141c-4.5373-1.4052-5.6902-1.9796-8.0368-4.0043l-1.847-1.5936-3.138 1.4795c-1.7259 0.8137-4.8644 2.2925-6.9744 3.2861-6.1203 2.8821-8.253 3.4651-8.6061 2.3524zm45.817-3.0344c2.9881-0.8611 9.2379-3.6068 11.215-4.927 0.83653-0.5586 2.0018-1.4823 2.5896-2.0527 1.5485-1.5028 3.1336-4.5237 3.4936-6.6581 0.16422-0.9736 0.53741-2.6459 0.8293-3.7164 0.38168-1.3996 0.57129-3.1386 0.67517-6.1923l0.14446-4.2461-0.9848-2.8976c-0.54163-1.5937-1.2152-3.2752-1.4967-3.7366-0.8114-1.3297-4.7439-5.5402-6.0451-6.4726-1.3846-0.9921-5.3815-2.9179-7.2819-3.5085-2.2765-0.7076-6.8546-1.101-11.112-0.9549l-3.9688 0.1362-5.1594 2.0801c-6.9652 2.8083-7.2894 2.9916-9.5647 5.4103-3.4612 3.6793-5.0151 7.5832-5.562 13.974-0.27918 3.262-0.0523 7.498 0.44456 8.302 0.0827 0.1339 1.22-0.7871 2.5273-2.0467 4.7129-4.5409 6.4159-5.4136 7.0053-3.5901 0.15095 0.467 0.51865 1.1218 0.8171 1.4552s0.81066 1.0541 1.1382 1.6016c0.32759 0.5476 0.8231 1.1173 1.1011 1.2661 0.27803 0.1488 0.50551 0.3939 0.50551 0.5445 0 0.1507 0.47625 0.8388 1.0583 1.5291 2.0168 2.3918 1.4522 3.3556-4.2994 7.341l-3.1045 2.1511 1.153 1.0628c1.7359 1.6001 2.9679 2.3134 5.5894 3.2361 3.8654 1.3604 5.1092 1.5414 10.752 1.5642 4.8182 0.019 5.3664-0.028 7.5406-0.6546zm-33.635-2.7558c1.6029-0.6917 3.467-1.5421 4.1425-1.8897l1.2281-0.632-1.81-2.081-0.85621 0.8168c-0.47092 0.4493-1.8087 1.3857-2.9729 2.081-2.1169 1.2644-5.8192 3.9118-6.0954 4.3588-0.0806 0.1305 0.66258-0.1303 1.6515-0.5795 0.98894-0.4492 3.1096-1.3827 4.7125-2.0744zm-5.74-0.5073c0.68095-0.5655 2.3532-1.7124 3.7161-2.5485 2.5027-1.5353 4.2689-2.9067 4.2689-3.3146 0-0.1221-0.25477-0.6539-0.56617-1.1816l-0.56618-0.9596-3.3569 3.5241c-5.2855 5.5489-6.2118 6.7361-3.4958 4.4802zm16.751-5.6524c1.8026-1.346 3.5466-2.626 3.8754-2.8442l0.59784-0.3969-2.026-2.3366-1.3799 0.751c-0.75894 0.4131-2.3582 1.5774-3.5539 2.5873-1.1957 1.01-2.4084 2.0005-2.6948 2.2011-0.50276 0.3521-0.48494 0.4015 0.51475 1.4252 0.56955 0.5833 1.1151 1.0605 1.2123 1.0605 0.0972 0 1.6517-1.1013 3.4543-2.4474zm-3.6062-4.1714c0.87312-0.8087 2.2645-1.8573 3.0919-2.3303l1.5044-0.8599-0.83551-1.344c-0.45952-0.7392-0.99543-1.4054-1.1909-1.4804-0.52231-0.2005-3.6398 2.0324-5.5812 3.9973-1.8451 1.8676-1.8935 2.0917-0.82574 3.822l0.53958 0.8744 0.85497-0.6044c0.47023-0.3325 1.5693-1.2661 2.4425-2.0747zm201.74 38.458c4.0356-0.3493 11.466-0.4585 42.333-0.6221 24.387-0.1292 38.315-0.3005 39.952-0.4912 3.8385-0.447 11.013-0.8479 18.918-1.0571 7.8173-0.2068 8.1276-0.2695 8.7536-1.7678 0.82624-1.9775 0.32727-25.935-0.67202-32.266-0.82507-5.2272-1.0479-9.4374-1.1831-22.357-0.0771-7.3649-0.24922-12.993-0.42881-14.023-0.1653-0.9476-0.37833-6.5061-0.47444-12.379-0.14819-9.0564-0.2341-10.697-0.57129-10.91-1.0309-0.651-6.4404-0.038-20.108 2.2782-9.5692 1.6218-12.701 1.8179-17.066 1.0689-1.6703-0.2866-4.0094-0.4005-7.8345-0.3813-2.9993 0.015-5.5915-0.058-5.7605-0.1626-0.30385-0.1878-4.7012-0.4602-14.98-0.9279-8.7979-0.4003-15.242-0.9477-18.785-1.5959-0.7276-0.1331-5.2679-0.2491-10.089-0.2578-8.5508-0.015-8.77 0-8.9049 0.5134-0.18268 0.6986-1.3968 0.7291-1.5771 0.04-0.1047-0.4004-0.48366-0.519-2.0814-0.6518-3.0822-0.256-28.503 0.042-29.061 0.341-0.4135 0.2213-0.51872 0.7401-0.68445 3.3752-0.20156 3.2047-0.0142 9.1387 0.42836 13.565 0.13822 1.3824 0.32131 7.6342 0.40686 13.893 0.14618 10.695 0.0816 13.584-0.68334 30.557-0.14099 3.1287-0.28996 12.118-0.33104 19.976l-0.0747 14.288 3.5719 0.1441c8.2809 0.3339 22.07 0.2382 26.988-0.1874zm33.867-22.495c-1.9815-0.378-8.0191-2.3593-9.3597-3.0714-1.9505-1.0361-7.1217-6.054-8.5096-8.2574-1.395-2.2145-2.6783-5.0069-3.1567-6.8686-1.059-4.1212 0.31076-14.416 2.4974-18.77l1.0499-2.0904-1.5428-1.7461c-2.3745-2.6873-5.3202-7.5261-5.3202-8.7394 0-0.7663 0.93875-1.1522 2.4853-1.0217 1.4939 0.1261 2.2383 0.5484 5.5977 3.1748 1.1714 0.9159 2.5555 1.9954 3.0757 2.3989l0.94585 0.7338 1.8191-0.9205c2.4976-1.2638 7.2456-3.2462 9.5527-3.9884 1.3916-0.4476 3.0777-0.6957 6.1878-0.9102 4.2233-0.2913 5.6947-0.2131 9.9992 0.5314 1.918 0.3317 7.1768 2.6817 9.1809 4.1027 1.7944 1.2723 6.2305 6.0479 6.976 7.5098 0.70221 1.3771 2.0485 4.9786 2.4113 6.4506 0.42925 1.7416 0.16205 9.0659-0.40219 11.025-0.23054 0.8004-0.66226 2.5863-0.95938 3.9688-0.9514 4.4267-2.7587 7.3182-6.1434 9.8287-2.4916 1.8481-7.8888 4.5629-11.568 5.8188-2.5073 0.8558-2.528 0.858-8.3344 0.9124-3.2015 0.03-6.1185 0-6.4823-0.072zm13.133-2.6117c2.9881-0.8612 9.2379-3.6068 11.215-4.927 0.83654-0.5586 2.0018-1.4824 2.5896-2.0527 1.5485-1.5028 3.1336-4.5237 3.4936-6.6581 0.16422-0.9736 0.5374-2.646 0.8293-3.7164 0.38167-1.3996 0.57128-3.1386 0.67517-6.1923l0.14445-4.2461-0.98479-2.8976c-0.54164-1.5937-1.2152-3.2752-1.4967-3.7366-0.8114-1.3297-4.7439-5.5403-6.0451-6.4726-1.3846-0.9921-5.3815-2.9179-7.2819-3.5086-2.3687-0.7362-6.8457-1.1068-11.245-0.9308l-4.101 0.1641-3.9688 1.6311c-6.9666 2.8633-7.276 3-7.276 3.2155 0 0.277 6.21 5.882 8.1502 7.3561 3.8735 2.943 5.0135 5.0218 3.9136 7.1363-0.68955 1.3256-4.6368 4.0711-6.6129 4.5996l-1.2942 0.3462-0.68925-0.8856c-0.37909-0.4871-1.6538-2.0538-2.8326-3.4816-2.7225-3.2975-3.7257-4.6876-5.1054-7.074-0.60995-1.055-1.2009-1.9182-1.3133-1.9182-0.33787 0-1.5839 2.909-2.1533 5.027-0.69952 2.6022-1.1555 7.5309-0.94232 10.186 0.43648 5.4382 2.1858 8.7829 7.0623 13.503 3.2023 3.0998 3.7957 3.4926 6.9766 4.6183 3.8539 1.3638 5.1022 1.5459 10.752 1.5688 4.8182 0.019 5.3664-0.028 7.5406-0.6546zm-15.912-25.218c0-0.8876-10.891-11.412-11.81-11.412-0.44667 0-0.21808 0.8463 0.52312 1.9367 0.41348 0.6083 1.2386 1.9395 1.8337 2.9581 0.6534 1.1185 2.0192 2.78 3.4485 4.1949l2.3666 2.3429 0.69582-0.4559c0.97312-0.6377 1.5986-0.1259 1.3932 1.1398l-0.14544 0.8963 0.84717-0.6533c0.46595-0.3594 0.84717-0.7856 0.84717-0.9473zm2.1535-3.0305c-0.21174-0.5068-1.2243-1.6272-2.3228-2.5702-2.1613-1.8555-4.6378-4.037-7.4325-6.547-1.4658-1.3166-1.9256-1.5988-2.2144-1.3591-0.4784 0.397-0.38527 0.5167 1.5119 1.9428 0.8861 0.6661 3.5839 3.2433 5.9951 5.7271 3.4394 3.5428 4.4329 4.4285 4.611 4.1103 0.13937-0.249 0.0821-0.7523-0.14839-1.3039zm-15.774-10.36c-0.18408-0.2218-0.45762-0.4032-0.60788-0.4032-0.15025 0-0.057 0.2388 0.20717 0.5307 0.54717 0.6047 0.91198 0.4886 0.40071-0.1275zm2.0818-1.8941c-0.87192-1.0506-7.0863-5.769-7.3072-5.5481-0.20625 0.2063 0.73364 1.7473 1.0657 1.7473 0.18146 0 1.6369 0.9906 3.2344 2.2014s2.9995 2.1527 3.1157 2.0931c0.11621-0.059 0.0674-0.2817-0.10855-0.4937z"/></g></svg>
