<svg width="586.81mm" height="372.94mm" version="1.1" viewBox="0 0 586.81 372.94" xml:space="preserve" xmlns="http://www.w3.org/2000/svg"><g transform="translate(-1299.5 941.77)"><path fill="#fff" d="m1308.1-569.58c-1.4373-2.7795-1.9674-8.5454-2.1212-23.073-0.1089-10.292-0.5684-20.823-1.0794-24.739-0.8021-6.1464-1.8626-12.85-2.5111-15.875l-0.7942-3.7042 0.091 10.716c0.07 8.222 0.1939 11.435 0.5339 13.806 0.3005 2.0953 0.4197 4.3958 0.3701 7.1438l-0.073 4.0532h-1.852l-0.1666-5.5562c-0.092-3.0559-0.3559-7.6398-0.5874-10.186-0.2836-3.1204-0.4234-7.586-0.4287-13.695-0.01-8.0568 0.05-9.3239 0.5112-11.396 0.7023-3.1531 0.7359-3.2199 1.6156-3.2199 0.6512 0 0.7927 0.13914 1.0271 1.0096 0.1495 0.55526 0.4005 2.5496 0.5579 4.4318 0.1573 1.8822 0.6253 5.1486 1.0401 7.2587 1.0513 5.3481 2.3255 14.726 2.6425 19.447 0.2954 4.3989 0.6876 9.0536 1.0744 12.751 0.14 1.3376 0.2611 6.3977 0.2691 11.245 0.01 5.745 0.137 9.7339 0.3663 11.459l0.3517 2.6458 0.033-5.8208c0.018-3.2014 0.094-7.1305 0.1693-8.7312 0.075-1.6007 0.2524-5.328 0.3944-8.2827 0.1419-2.9548 0.2598-8.7888 0.262-12.965 0-8.5243 0.2702-13.277 1.0459-18.705 0.2945-2.0607 0.5312-5.1381 0.5335-6.936 0-2.8787 0.058-3.2606 0.4968-3.4955 0.9243-0.49467 1.346 0.18642 1.6263 2.6263 0.1421 1.2369 0.2592 3.2457 0.2603 4.464 0 1.2182 0.1844 3.4804 0.4073 5.0271 0.4271 2.9645 3.28 14.851 3.5643 14.851 0.091 0 0.4441-0.50602 0.7835-1.1245 1.6545-3.0143 2.2044-2.8074 3.3241 1.251 0.8119 2.9432 3.0786 8.9076 4.4773 11.781l1.1683 2.4004 0.1501-1.201c0.082-0.66058 0.2164-1.7666 0.2976-2.4578 0.2404-2.0483 1.3886-6.1009 2.2211-7.8395 1.1685-2.4404 3.1098-4.9266 3.8467-4.9266 0.334 0 0.688 0.20836 0.7867 0.46302 0.099 0.25466 0.2425 2.4276 0.3195 4.8286 0.1511 4.7078 0.4848 6.7236 1.4876 8.9865l0.6407 1.4458 0.1778-1.5781c0.3393-3.0116 1.0119-5.2975 2.4107-8.1927 0.7734-1.6007 1.5905-3.3586 1.8157-3.9063 0.5942-1.445 1.1519-1.5425 2.1589-0.3775 1.1126 1.2871 4.5964 7.9292 5.6815 10.832 0.476 1.2733 0.9686 2.3151 1.0948 2.3151s0.2322-0.80367 0.2354-1.7859c0.01-3.1246 0.7506-11.248 1.1875-13.031 0.2318-0.94588 0.8986-4.2186 1.4819-7.2727 1.0214-5.3481 1.4122-6.4856 2.2281-6.4856 0.8633 0 0.9821 0.80033 1.1883 8.0035 0.1666 5.8234 0.3441 8.0752 0.9228 11.708 0.3941 2.4738 0.9716 6.2645 1.2832 8.4236l0.5667 3.9257 1.6929-4.3226c2.9242-7.4665 4.778-11.069 5.6956-11.069 0.8198 0 1.3798 1.5442 2.149 5.9255 0.4351 2.4784 1.776 5.8679 2.2143 5.5971 0.142-0.0878 0.5573-1.1386 0.9229-2.3353 0.3657-1.1967 1.0175-2.7309 1.4486-3.4094 0.8226-1.2947 2.6843-2.6029 3.7043-2.6029 0.8984 0 1.7858 1.0887 2.288 2.807 0.7768 2.6579 0.9399 2.9698 1.6891 3.2309 0.738 0.25729 1.0209 0.16882 3.1976-0.99997 0.5093-0.27349 1.9976-0.7012 3.3073-0.95048 2.0391-0.38813 3.0804-0.4197 7.2485-0.21982 4.1901 0.20095 4.9077 0.29783 5.158 0.69644 0.2118 0.33732 0.2105 0.58873 0 0.92604-0.2634 0.41269-0.8097 0.46302-5.0257 0.46302-6.084 0-8.2093 0.35617-11.27 1.8887-1.4964 0.74929-2.9814 0.79841-3.9921 0.13204-1.043-0.6877-1.3677-1.2322-1.9988-3.3514-0.3043-1.0217-0.7152-2.0792-0.9131-2.3498-0.3412-0.46658-0.3904-0.44934-0.9467 0.3319-0.3227 0.45323-0.9315 1.5707-1.3528 2.4832-1.1983 2.5951-3.2888 5.8818-3.8044 5.9811-0.7151 0.13772-1.3372-0.58657-2.5381-2.9549-0.8383-1.6532-1.1603-2.6644-1.3628-4.2794-0.1458-1.1631-0.3263-2.2933-0.4011-2.5116-0.1707-0.49814-0.5439 0.18948-2.2228 4.0958-0.6893 1.6036-1.6215 3.7176-2.0716 4.6978-1.4216 3.0957-1.4565 3.4578-1.2615 13.056l0.1789 8.8034-0.5801 0.18411c-1.0342 0.32826-1.2819-0.44262-1.2819-3.9907 0-1.8711-0.3285-6.0426-0.786-9.979-0.7583-6.5249-1.0559-8.6308-2.5152-17.793-0.3708-2.3283-0.7547-5.9002-0.8532-7.9375-0.148-3.0642-0.2199-3.5213-0.4159-2.6458-0.1303 0.58208-0.5347 2.3085-0.8986 3.8365-0.8897 3.7357-1.4073 8.9771-1.5882 16.081-0.1401 5.5041-0.1845 5.9131-0.6695 6.1726-0.8055 0.43107-1.3793-0.29594-2.0654-2.6168-1.1003-3.7218-3.0803-8.6134-4.8235-11.917l-1.7204-3.2598-1.215 2.2472c-1.6242 3.0039-2.2713 5.0226-2.7263 8.5058-0.5974 4.5726-0.9471 5.4252-2.0511 5.0016-0.3888-0.1492-2.0298-3.544-2.8177-5.829-0.6763-1.9617-1.0465-4.7032-1.0561-7.8222-0.01-2.5381-0.038-2.6907-0.4286-2.1983-0.756 0.95207-2.2272 4.3528-2.7247 6.2981-0.268 1.0479-0.6203 3.5978-0.7828 5.6665-0.3116 3.9656-0.5537 5.0162-1.2143 5.2696-0.6192 0.23763-1.0432-0.26886-1.8569-2.2184-0.4102-0.98273-1.2748-2.9774-1.9214-4.4326-0.6466-1.4552-1.475-3.4793-1.8409-4.4979-0.3658-1.0186-1.0126-2.5434-1.4373-3.3885-0.4246-0.84501-0.8663-2.2142-0.9814-3.0427l-0.2094-1.5063-0.7027 1.4552c-0.8428 1.7453-0.8485 1.8926-0.1918 4.9072 0.2839 1.3029 0.6341 3.6786 0.7784 5.2793 0.675 7.4883 0.8709 10.43 0.784 11.774-0.087 1.3394-0.1485 1.4615-0.7782 1.5347-0.3763 0.0437-0.8199-0.0841-0.9859-0.28416-0.166-0.20003-0.7414-2.6766-1.2786-5.5035-0.9247-4.8662-0.9797-5.4568-1.0317-11.093l-0.055-5.9531-1.5985-6.2177c-0.8792-3.4197-1.7511-7.1429-1.9376-8.2738-0.1874-1.1369-0.4242-1.9038-0.5296-1.7154-0.484 0.86486-0.8234 6.4068-0.9197 15.016-0.058 5.166-0.2235 11.655-0.3683 14.42-0.1448 2.7649-0.2646 8.8371-0.2661 13.494 0 8.3788-0.3002 13.758-0.8139 14.718-0.41 0.76619-1.4862 0.63102-1.9384-0.24347zm457.97-18.102c-1.7462-0.1284-5.0969-0.46599-7.4458-0.75019-3.2023-0.38744-5.9593-0.51673-11.019-0.51673-5.5474 0-7.2353-0.091-9.4874-0.51122-1.5068-0.28117-3.1927-0.58547-3.7465-0.67621-0.5538-0.0908-1.2475-0.40558-1.5416-0.69963-0.5024-0.50242-0.5244-0.75258-0.3653-4.1524 0.1885-4.0261 0.6895-10.86 1.468-20.022 0.622-7.3212 0.6412-8.8348 0.1246-9.8255-0.2174-0.41682-0.396-1.3125-0.3969-1.9904 0-1.0658 0.1566-1.4268 1.1681-2.6685 0.6433-0.78978 1.7733-2.4579 2.511-3.7068 2.3147-3.9188 6.9395-10.605 9.3762-13.555 3.3072-4.0042 2.8031-3.8503 11.682-3.5666 12.26 0.39171 31.789 0.30136 35.454-0.16402 6.957-0.88346 8.0698-0.84264 8.0698 0.29603 0 0.363-0.1434 0.88965-0.3187 1.1703-0.2495 0.39949-0.2384 1.6196 0.051 5.6188 0.4843 6.6898 0.6934 34.311 0.2707 35.745-0.1929 0.6544-1.0503 1.8054-2.4645 3.3085-1.1929 1.2678-3.0011 3.257-4.0182 4.4204-1.0172 1.1635-2.7627 3.0944-3.879 4.2908-1.1162 1.1965-2.3919 2.8038-2.8348 3.5719-1.2803 2.2203-2.1311 2.7535-6.4241 4.0259-2.156 0.63903-2.596 0.67541-7.6729 0.63436-2.9621-0.024-6.8144-0.14862-8.5607-0.27703zm15.387-2.5434c3.0825-1.0187 3.8604-1.4277 4.3086-2.2652 0.517-0.96602 0.5742-21.051 0.066-23.181-0.1909-0.80036-0.5205-2.7649-0.7325-4.3656-0.7603-5.741-0.7568-5.6504-0.2398-6.2217 0.2614-0.28886 0.5462-0.52338 0.6328-0.52115 0.4454 0.0115 0.8516 0.51901 0.9667 1.208 0.071 0.42478 0.2401 1.3676 0.3759 2.0952 0.1359 0.7276 0.3725 2.4147 0.5259 3.7492s0.3967 3.0473 0.5407 3.8064c0.1439 0.7591 0.2617 4.7988 0.2617 8.9771 0 4.1783 0.077 8.5129 0.1721 9.6326l0.1721 2.0357 0.7883-0.73899c0.4336-0.40644 1.8957-2.0487 3.2491-3.6494s3.4921-4.101 4.7527-5.5562c1.2605-1.4552 2.428-2.9435 2.5944-3.3073 0.2127-0.46525 0.3111-4.5856 0.3316-13.891 0.029-13-0.1213-17.533-0.7159-21.652l-0.2993-2.0728-1.2525 1.9405c-0.6889 1.0673-1.5653 2.4952-1.9476 3.173-0.3822 0.67785-2.2849 3.3568-4.2282 5.9531-3.6236 4.8417-7.4898 8.9194-8.7584 9.2378-0.3711 0.0931-2.1343 0.0214-3.9181-0.15953-3.412-0.34598-10.527-0.18964-12.504 0.27474-2.5259 0.59343-6.1302 1.0581-10.305 1.3284-2.4662 0.15973-4.5935 0.35804-4.7272 0.44069-0.1338 0.0827-3.4554 0.24529-7.3814 0.36142-3.926 0.11612-7.1805 0.25345-7.2322 0.30517-0.052 0.0517-0.2766 2.2926-0.4998 4.9796-0.2232 2.6871-0.5831 6.6716-0.7999 8.8544-0.2167 2.1828-0.4672 6.1119-0.5565 8.7312-0.09 2.6365-0.3321 5.4624-0.5424 6.3303-0.209 0.86231-0.2877 1.6569-0.1751 1.7657 0.1127 0.1088 1.9415 0.5046 4.064 0.87955 3.4568 0.61066 4.5465 0.6819 10.451 0.68328 3.6255 8.4e-4 7.3063 0.12021 8.1794 0.26526s4.0283 0.45537 7.0115 0.68959c2.9831 0.23422 6.4359 0.52185 7.6729 0.63917 3.9708 0.37663 6.9826 0.14206 9.6981-0.75533zm-11.474-1.8005c-1.2558-0.61916-1.9582-2.2485-1.8679-4.3328 0.096-2.2099 0.4076-2.4006 2.5907-1.5842 2.0136 0.75304 3.699 2.2464 3.699 3.2775 0 1.124-0.7435 2.2828-1.7289 2.6945-1.1403 0.47646-1.6354 0.46633-2.6929-0.0551zm2.1408-2.335c-0.169-0.44059-0.894-0.7654-0.894-0.40056 0 0.14096 0.1191 0.25628 0.2646 0.25628s0.2646 0.18562 0.2646 0.41249 0.1138 0.34212 0.253 0.25611c0.1392-0.086 0.1895-0.32195 0.1118-0.52432zm-23.49 1.0958c-0.8229-0.82289-1.1063-2.7389-0.5884-3.9784 1.1829-2.8309 6.0112-2.0521 5.9811 0.96476-0.01 0.89771-0.9249 2.7124-1.612 3.1936-0.9597 0.67221-3.0269 0.57377-3.7807-0.18003zm-1.2625-10.812c-1.2039-0.698-1.9496-1.9894-1.707-2.956 0.1273-0.5074 0.3463-0.70134 0.7918-0.70134 0.3386 0 1.002-0.1927 1.4741-0.42823 0.5881-0.29339 1.2749-0.38821 2.1809-0.30115 1.7304 0.16627 2.6512 1.025 2.6512 2.4727 0 2.2276-3.0081 3.2957-5.391 1.9141zm21.815-0.94334c-0.9539-0.89107-1.2613-1.8058-1.0268-3.0556 0.3243-1.7287 0.7293-2.0018 2.8511-1.922 1.6063 0.0604 1.9746 0.16406 2.3858 0.67178 0.6968 0.86057 0.8576 1.7626 0.5119 2.8726-0.3736 1.1994-1.3442 1.9282-2.7842 2.0905-0.9457 0.1066-1.2195 0.0137-1.9378-0.65721zm2.4092-2.0663c0.09-0.23546 0.046-0.34166-0.1039-0.24897-0.1439 0.0889-0.2616 0.27369-0.2616 0.41062 0 0.38058 0.1896 0.29672 0.3655-0.16165zm-25.671-6.2017c-0.3119-0.12585-0.7584-0.50198-0.9922-0.83585-1.5649-2.2342 1.5531-5.4155 4.8008-4.8984 2.7677 0.44066 3.2018 4.7311 0.5717 5.6509-1.0499 0.36722-3.5586 0.41493-4.3803 0.0833zm1.0551-2.2626c-0.086-0.22455-0.2134-0.35154-0.2827-0.28218-0.069 0.0693-0.048 0.25308 0.048 0.40828 0.2609 0.42214 0.4133 0.34013 0.2344-0.1261zm22.084-0.29364c-0.9792-1.082-1.3752-3.692-0.6513-4.2927 0.1968-0.16332 1.0744-0.37185 1.9503-0.4634 1.3995-0.14628 1.6606-0.0982 2.1557 0.39685 0.8597 0.8597 0.7793 2.6944-0.1643 3.7505-0.9321 1.0431-2.6155 1.3546-3.2904 0.60882zm23.822-0.58956c-1.2576-0.79758-1.5474-1.231-1.5474-2.3152 0-2.3881 2.612-3.3589 4.1929-1.5584 1.0177 1.1591 1.287 2.4461 0.7351 3.5133-0.7045 1.3624-1.6427 1.4623-3.3806 0.36021zm-40.706-9.6734c1.9645-0.21455 5.0006-0.52416 6.7469-0.68803 1.7462-0.16387 4.2894-0.52604 5.6515-0.80482 2.0985-0.42951 3.625-0.50687 10.001-0.50687 6.0064 0 7.6687-0.0762 8.2391-0.37748 2.0389-1.0773 8.5306-8.9554 11.462-13.91 0.904-1.528 2.1654-3.5363 2.8032-4.4629 0.6377-0.92665 1.1082-1.7361 1.0455-1.7988-0.063-0.0627-1.5865 0.0822-3.3863 0.32189-2.8532 0.37998-5.855 0.424-23.427 0.34355-20.045-0.0918-20.159-0.0893-20.902 0.45604-1.0013 0.73442-3.9549 4.4069-6.1264 7.6173-3.2119 4.7486-3.7303 5.5729-4.9665 7.8962-0.6741 1.2669-1.6413 2.789-2.1492 3.3825-0.8782 1.0259-0.9067 1.1209-0.5795 1.9299 0.1892 0.46797 0.4286 0.91039 0.532 0.98315 0.3927 0.27645 11.641-9e-3 15.056-0.38153zm25.069-6.6177c-1.1295-1.0374-1.2864-1.967-0.4698-2.7836 1.5482-1.5482 5.0338-0.6198 5.0338 1.3407 0 1.0859-0.2491 1.5415-1.0772 1.9697-1.2739 0.65875-2.3776 0.49202-3.4868-0.52673zm-12.307-3.2281c-0.9548-0.47067-1.3157-1.3493-0.8849-2.1544 0.4487-0.83848 2.6663-2.1704 3.6136-2.1704 1.0421 0 1.4472 0.45531 1.6322 1.8343 0.1275 0.95092 0.045 1.1584-0.7911 1.9948-1.0626 1.0626-2.1214 1.2096-3.5698 0.49569zm-9.7766-4.4508c-1.0202-0.44355-1.3367-1.391-0.854-2.5563 0.5934-1.4326 3.194-2.4594 3.5934-1.4188 0.084 0.21828 0.4729 0.39688 0.8648 0.39688 0.8041 0 1.3475 0.42815 1.3475 1.0618 0 0.76487-2.7544 2.9181-3.7042 2.8956-0.2182-5e-3 -0.7796-0.17581-1.2475-0.37924zm-339.13 35.489c-0.7577-0.55405-0.3395-1.503 1.1695-2.6538 3.8459-2.9329 9.9792-8.4939 19.861-18.008 4.5697-4.3995 9.9643-9.2422 16.528-14.837 3.056-2.6048 7.1636-6.1136 9.1281-7.7974 3.3527-2.8735 7.254-6.036 11.941-9.6795 3.273-2.5445 12.185-9.8119 17.054-13.907 2.4863-2.0911 5.8796-4.9454 7.5407-6.3429 1.661-1.3975 5.1036-4.0724 7.6503-5.9442 7.1075-5.2242 11.5-8.9685 18.256-15.563 2.1101-2.0594 5.0456-4.7805 6.5234-6.047 1.4779-1.2665 3.7284-3.2881 5.0012-4.4925l2.3142-2.1898-4.7083-0.13229c-4.1078-0.11542-4.7454-0.19134-4.9998-0.59531-0.2123-0.33727-0.2123-0.58877 3e-4 -0.92604 0.2579-0.40926 0.8722-0.47261 5.2903-0.5456 5.899-0.0974 7.4463 0.14282 8.4273 1.3086l0.6692 0.79538-0.167 7.1914c-0.092 3.9553-0.2778 7.407-0.4133 7.6704-0.3918 0.76229-1.3658 0.46442-1.5665-0.47908-0.2855-1.3422-0.2482-9.9985 0.05-11.612 0.2104-1.1382 0.2027-1.6174-0.03-1.8985-0.3639-0.43849-0.8042-0.11903-3.8228 2.7736-1.0186 0.97616-3.2808 3.0062-5.0271 4.5112-1.7462 1.505-4.9609 4.494-7.1437 6.6421-5.7132 5.6225-10.183 9.3882-18.918 15.937-2.8377 2.1276-8.136 6.3842-11.774 9.459-7.4082 6.2613-15.046 12.485-21.564 17.572-2.4011 1.874-7.1636 5.7993-10.583 8.7229-3.4197 2.9236-7.7059 6.562-9.525 8.0854-3.7414 3.1334-10.022 8.8671-18.156 16.577-3.0471 2.8878-7.2033 6.7928-9.2361 8.6779-2.0327 1.885-4.7812 4.4746-6.1077 5.7547-1.3264 1.28-2.5836 2.3274-2.7937 2.3274-0.21 0-0.6008-0.16006-0.8684-0.3557zm255.46-0.284c-0.5013-0.60403 0-15.151 0.6298-18.11 0.081-0.38338 0.3822-2.4742 0.6693-4.6462 0.317-2.3975 0.6546-4.0332 0.8593-4.1631 0.8235-0.52267 1.2966-0.21234 1.9588 1.285 1.9386 4.3836 2.5406 7.8123 3.0104 17.146 0.3387 6.7276 0.3396 7.0404 0.023 7.3568-0.4158 0.41586-1.2842-0.0738-1.4487-0.8169-0.5745-2.5948-0.6899-3.5699-0.7142-6.031l-0.027-2.7579h-3.1779l0.092 5.2998c0.078 4.4916 0.031 5.3383-0.3051 5.5522-0.5724 0.36398-1.2109 0.31733-1.5695-0.11466zm4.678-15.037c-0.1827-2.8275-1.2459-7.43-1.5432-6.6807-0.1841 0.46384-1.3007 7.8294-1.3007 8.5794 0 0.16887 0.6054 0.28412 1.4925 0.28412h1.4925zm7.8739 14.256c-0.4682-0.34232-0.4935-0.82639-0.4529-8.6651 0.024-4.5664 0.1591-9.4214 0.301-10.789 0.3205-3.0898 1.1854-5.0338 2.6792-6.0224 0.9213-0.60967 1.2276-0.6671 3.1034-0.58182 1.7789 0.0809 2.2194 0.2 3.0323 0.82003 0.5273 0.40218 1.2707 1.3788 1.6685 2.1919 0.6193 1.2658 0.6991 1.6952 0.5833 3.138-0.1461 1.8208-0.9796 3.7642-2.364 5.5121l-0.8223 1.0383 0.9724 0.80154c1.7123 1.4115 2.5741 3.7202 2.9541 7.9145 0.2187 2.4138-0.081 3.2272-1.1442 3.102-0.6756-0.0796-0.7134-0.18175-1.2767-3.4498-0.9222-5.35-1.9006-6.524-5.6396-6.7664l-1.9595-0.12707 0.1506 5.73c0.1276 4.855 0.091 5.79-0.2422 6.1229-0.4885 0.48857-0.9055 0.49674-1.5434 0.0302zm5.1572-14.768c1.7997-0.67625 3.2384-2.9951 3.28-5.2867 0.029-1.6132-0.403-2.472-1.7512-3.4786-1.4937-1.1152-3.8184 0.22153-4.3883 2.5234-0.1541 0.62271-0.3649 2.4257-0.4683 4.0066l-0.1881 2.8743 1.4272-0.19524c0.785-0.10738 1.7249-0.30708 2.0887-0.44378zm8.0887 14.715c-0.2287-0.22868-0.4158-0.76126-0.4158-1.1835 0-1.1352 1.471-9.5406 2.5387-14.506 0.5123-2.3823 1.1596-5.5737 1.4386-7.092 0.2789-1.5182 0.5767-2.873 0.6618-3.0107 0.085-0.13762 0.4518-0.25022 0.815-0.25022 0.5444 0 0.7711 0.25026 1.2902 1.4239 0.9832 2.2233 1.2024 3.4826 2.9221 16.79 0.5279 4.0844 0.5092 5.2508-0.09 5.5713-0.7218 0.38628-1.02 0.0386-1.338-1.5597-0.2307-1.1597-0.8306-6.3016-0.8306-7.1196 0-0.10139-0.6846-0.0988-1.5213 6e-3 -0.8368 0.10452-1.7117 0.2001-1.9444 0.21237-0.3343 0.0177-0.5433 0.75725-0.997 3.5281-0.3157 1.9282-0.5719 4.1638-0.5692 4.9682 0.01 2.1813-0.9345 3.2489-1.9606 2.2228zm6.8972-13.276c-0.072-0.25466-0.2094-1.1179-0.3052-1.9182-0.255-2.1304-0.9316-5.3909-1.1698-5.6376-0.1135-0.1175-0.5566 1.5739-0.9847 3.7587l-0.7784 3.9723 1.4683 0.0939c0.8075 0.0516 1.5656 0.1164 1.6845 0.14392 0.119 0.0275 0.1573-0.15834 0.085-0.413zm-44.3 10.054c-0.4129-2.0228-0.701-5.056-0.9975-10.502-0.2293-4.212-0.5278-7.8654-0.6633-8.1185-0.3988-0.74513-0.287-1.25 0.3724-1.6821 0.5238-0.34318 1.012-0.36465 3.18-0.13984 2.9459 0.30547 4.1769 0.74518 5.4187 1.9356 1.3128 1.2584 1.895 2.5752 1.895 4.2861 0 3.3467-2.7291 5.7894-7.1191 6.3717l-1.343 0.17816 0.1397 0.9584c0.6652 4.5642 1.1069 8.584 0.9917 9.0245-0.086 0.32868-0.3605 0.53282-0.7167 0.53282-0.5215 0-0.6334-0.27466-1.1579-2.8443zm3.7637-10.666c0.8559-0.32022 1.9839-0.97423 2.5067-1.4534 0.8214-0.75272 0.9506-1.0331 0.9506-2.0627 0-1.2676-0.5445-2.2448-1.7538-3.1477-0.7287-0.54406-4.0603-1.2204-4.3896-0.89113-0.1136 0.11366-0.2495 2.0597-0.302 4.3246l-0.095 4.1179 0.7636-0.15272c0.42-0.084 1.4639-0.41472 2.3198-0.73495zm46.779 11.856c-0.3202-0.39618-0.046-24.227 0.2847-24.739 0.1175-0.1819 0.4929-0.33073 0.8341-0.33073 0.7788 0 4.981 4.5845 6.449 7.0358l0.9991 1.6681 0.3288-1.2296c0.4141-1.5481 3.5712-8.4341 4.1705-9.0964 0.5856-0.64709 1.3333-0.62919 1.6917 0.0405 0.1575 0.29428 0.396 2.4076 0.5301 4.6964 0.3072 5.2415 0.3279 21.505 0.028 21.978-0.1233 0.19464-0.5085 0.3137-0.8558 0.26459l-0.6315-0.0893-0.1323-11.033c-0.089-7.4431-0.2262-11.127-0.4208-11.322-0.2746-0.27455-1.4539 2.1922-3.2872 6.876-0.3131 0.8-0.693 1.6037-0.8443 1.7859-0.5549 0.6686-1.2386 0.34496-1.955-0.92538-1.8003-3.1925-2.4084-4.1058-3.6826-5.5305l-1.3662-1.5275-0.191 0.76133c-0.2472 0.98487-0.2683 15.924-0.026 18.189 0.2151 2.0091-0.093 2.8577-1.0365 2.8577-0.3409 0-0.7401-0.14882-0.8872-0.33072zm-62.702-29.567c-0.6664-0.2775-0.7733-0.87155-0.2456-1.3645 0.29-0.27081 0.2897-0.66859 0-2.3255-0.2822-1.6072-0.8647-8.8804-0.8752-10.929 0-0.35184-0.2235-0.46302-0.9233-0.46302-0.7631 0-0.9497-0.11406-1.0879-0.6649-0.3111-1.2393 0.1942-1.4518 3.4523-1.4518 3.6815 0 5.5903 0.37029 7.359 1.4276 2.0122 1.2028 2.7069 2.5732 2.7069 5.3392 0 1.9783-0.082 2.3018-1.1094 4.3656-1.3848 2.7824-2.6111 4.0558-4.976 5.167-2.0916 0.98274-3.4274 1.262-4.2995 0.89888zm3.6582-2.921c1.8067-0.91203 2.9319-2.2798 3.8688-4.7031 1.6446-4.2538 0-6.6423-5.0548-7.3266l-1.2982-0.17586 0.1727 4.8511c0.1729 4.8556 0.4223 8.1584 0.6159 8.1584 0.057 0 0.8197-0.36177 1.6956-0.80393zm12.241 0.67875c-1.2484-0.87442-2.2134-5.4614-2.2925-10.897-0.055-3.7654 0.2273-4.4075 2.2721-5.17 1.4801-0.55195 6.4384-1.1561 7.4351-0.90592 0.632 0.15862 0.7182 0.29636 0.6469 1.0338l-0.082 0.85082-2.1167 0.20164c-3.4882 0.33231-5.477 0.67148-5.7899 0.98741-0.2705 0.27314-0.3635 5.1811-0.1032 5.4415 0.056 0.0559 1.3186-0.096 2.8061-0.33742 2.5408-0.41243 2.7318-0.41168 3.1559 0.0123 0.3391 0.33914 0.3826 0.56032 0.1748 0.88974-0.3461 0.54867-2.692 1.3604-4.5693 1.581l-1.4234 0.1673 0.1807 1.8782c0.2452 2.5495 0.3495 2.6268 2.8857 2.1416 2.4428-0.46739 3.3441-0.32794 3.3441 0.5174 0 0.51284-0.3064 0.68457-2.3151 1.2976-2.6357 0.80433-3.4208 0.86216-4.2091 0.31005zm19.048-0.87283c-0.5818-0.37015-1.1758-4.6528-1.3336-9.615l-0.1565-4.9244-1.8789 0.48813c-2.9419 0.7643-4.1278 0.5972-4.1278-0.58166 0-0.76426 0.7018-1.08 3.2399-1.4577 1.3526-0.20127 4.2317-0.72492 6.3978-1.1636 4.3248-0.87592 6.0135-0.98922 6.474-0.43436 0.6405 0.77172 0.046 1.1048-2.8228 1.5809-1.5609 0.25909-3.2734 0.5841-3.8057 0.72223l-0.9677 0.25115-0.1923 2.565c-0.1058 1.4107-0.1168 3.6415-0.024 4.9573 0.092 1.3158 0.2441 3.4317 0.3372 4.702 0.1233 1.6833 0.079 2.4187-0.1647 2.712-0.3738 0.4504-0.5284 0.48183-0.9744 0.1981zm23.458-0.45913c-0.3899-0.46986-0.2284-2.6894 0.5197-7.1418 0.2689-1.6007 0.5733-3.6843 0.6764-4.6302 0.2018-1.8523 0.4635-2.3812 1.1779-2.3812 0.6203 0 2.406 1.8379 4.113 4.2333 0.7778 1.0914 1.7858 2.4011 2.2401 2.9104l0.826 0.92605-0.079-5.0271-0.079-5.0271 0.6008-0.0853c0.4696-0.0666 0.6776 0.10673 0.952 0.79375 0.3861 0.96655 1.0663 12.126 0.7989 13.107-0.1722 0.6317-0.8602 0.97541-1.4545 0.72661-0.382-0.1599-4.3463-5.3523-6.0826-7.967l-0.9933-1.4958-0.1417 0.89981c-0.078 0.49489-0.3248 2.0456-0.5486 3.4461-0.2239 1.4005-0.407 3.3088-0.407 4.2406 0 1.8355-0.4707 2.8704-1.3056 2.8704-0.2649 0-0.6307-0.17946-0.8127-0.39881zm-11.242-1.2672c-0.4797-0.47978-1.0156-1.343-1.1908-1.9182-0.4705-1.5447-0.6921-11.909-0.2657-12.422 0.4531-0.54593 1.5146-0.49972 1.8246 0.0794 0.1526 0.28514 0.1953 2.2797 0.1062 4.9609-0.2748 8.2729 0.4888 9.3275 4.0765 5.6301 1.9878-2.0487 2.5467-4.4354 1.812-7.7379-0.5853-2.6308-0.4933-3.4623 0.3833-3.4623 0.5827 0 0.7362 0.22038 1.2894 1.8521 0.8782 2.5898 0.9134 5.8343 0.083 7.6593-0.8035 1.7664-2.5517 3.9869-4.1084 5.2183-1.6858 1.3336-2.779 1.372-4.0103 0.14069zm30.568-0.10757c-1.4307-0.74158-1.8428-1.7362-2.131-5.1435-0.1398-1.6526-0.457-4.5231-0.7049-6.3787-0.4455-3.3355-0.4446-3.3822 0.087-4.101 0.9428-1.2739 1.7754-1.5145 5.253-1.5178l3.175-3e-3 0.087 0.75983c0.048 0.41791-0.036 0.88274-0.1863 1.033-0.1643 0.16427-1.5537 0.25104-3.4861 0.21771l-3.2129-0.0554 0.1786 2.5943c0.2517 3.6555 0.097 3.4226 2.1992 3.3038 1.9127-0.10808 2.5765 0.21908 2.3916 1.1788-0.091 0.47019-2.0664 1.1391-3.3949 1.1492-0.661 5e-3 -0.6614 7e-3 -0.5808 2.3202 0.044 1.2733 0.1327 2.471 0.1962 2.6615 0.087 0.26204 0.7566 0.32645 2.7493 0.26459 2.7986-0.0869 3.3763 0.10999 3.0782 1.0491-0.1262 0.39764-0.4965 0.56529-1.5476 0.70078-0.76 0.098-1.7985 0.23746-2.3078 0.31001-0.5983 0.0852-1.2507-0.0363-1.8431-0.34342zm42.772-15.49c-0.4153-0.30704-0.4288-1.193-0.1894-12.369 0.1866-8.7095 0.3689-12.624 0.6592-14.155 0.3603-1.9004 0.8217-5.7669 1.4684-12.303 0.1223-1.2369 0.2309-4.981 0.2412-8.3201l0.019-6.0712-0.9527 0.9118c-2.4172 2.3135-4.4593 6.2545-5.0129 9.6745-0.3805 2.3505-0.6062 2.7354-1.6088 2.7426-1.0587 8e-3 -1.2652-0.60323-0.917-2.712 0.4842-2.9316 1.3744-5.1608 3.1642-7.9238 2.9241-4.5138 5.6725-6.4491 6.4087-4.5127 0.1511 0.39735 0.9592 1.4392 1.7959 2.3151 1.4999 1.5703 5.2804 6.9721 6.3587 9.0857 0.3044 0.59665 0.5534 1.5063 0.5534 2.0214 0 0.85067-0.068 0.93659-0.745 0.93659-0.6669 0-0.8621-0.22923-1.859-2.1828-0.6126-1.2005-1.9739-3.3414-3.0252-4.7574l-1.9114-2.5746-0.1393 6.5433c-0.077 3.5988-0.2226 6.6762-0.3244 6.8386s-0.4257 2.4246-0.7197 5.0271c-0.2941 2.6025-0.7358 5.6844-0.9816 6.8485-0.377 1.7856-0.4507 3.8878-0.4708 13.442-0.02 9.6714-0.081 11.361-0.4138 11.571-0.5285 0.33421-0.8677 0.31575-1.3976-0.076zm76.193-39.269c-0.5489-0.54885-0.076-1.1543 1.4772-1.8904 9.4752-4.4912 11.468-5.7128 14.382-8.8148 1.5487-1.6488 8.5929-10.241 10.709-13.063 4.2365-5.6488 8.9094-15.44 10.446-21.887 0.3565-1.4955 1.0121-4.2301 1.457-6.077 1.359-5.6413 1.64-9.0545 1.4773-17.941-0.1401-7.6505-0.697-13.403-1.7507-18.085-0.6255-2.7796-1.8397-5.3194-3.7383-7.8202-1.038-1.3673-2.6777-3.8073-3.6436-5.4221-2.3544-3.9361-4.3587-6.5476-6.8387-8.9102-2.6838-2.5568-5.1659-4.3938-7.8394-5.8021-1.1876-0.62556-3.3499-1.8774-4.8051-2.7818-1.4552-0.90446-3.5196-2.0836-4.5875-2.6203-3.5825-1.8006-12.302-4.5162-18.696-5.823l-3.9687-0.81112-0.083-0.86171c-0.1562-1.6211 0.66-1.5309 9.0425 0.9993 11.299 3.4106 15.277 4.9809 20.392 8.0492 1.0281 0.61675 2.8009 1.6299 3.9395 2.2514 5.2632 2.8729 10.679 8.3183 15.121 15.204 0.8264 1.281 2.2664 3.3302 3.2001 4.5539 2.9889 3.9174 4.028 6.4988 5.1918 12.898 0.7948 4.3704 0.8281 4.8532 0.9397 13.615 0.1466 11.512-0.1319 15.614-1.404 20.676-1.7282 6.8764-5.2908 16.455-7.9342 21.332-1.4045 2.5914-2.6291 4.2782-6.9915 9.6308-1.8383 2.2556-4.1863 5.2321-5.2177 6.6146-2.1318 2.8574-4.4568 5.1689-6.9595 6.9192-4.8738 3.4084-12.442 6.744-13.317 5.869zm-5.0518-22.728c-0.6831-0.68317-0.1021-1.2436 2.1392-2.0634 4.7794-1.7482 6.9643-3.1788 9.6102-6.2923 0.9089-1.0695 1.7941-2.0637 1.967-2.2092 0.6878-0.57889 4.1498-5.7087 5.5431-8.2134 2.0367-3.6614 4.9353-10.011 6.159-13.491 1.0147-2.8864 1.0198-2.9212 0.9823-6.7379-0.024-2.4799-0.2338-5.0251-0.5923-7.198-0.6324-3.834-2.6759-12.73-3.5127-15.292-1.2362-3.7846-4.2743-8.9357-6.8802-11.666-1.9641-2.0575-7.298-5.965-10.145-7.4318-2.8175-1.4517-9.8724-4.0055-13.075-4.733-4.3576-0.98986-4.2958-0.96166-4.2034-1.9156 0.07-0.72584 0.195-0.85568 0.8873-0.92345 1.1521-0.11278 13.329 4.115 17.18 5.965 3.5812 1.7203 8.4801 5.1942 10.59 7.5095 2.5916 2.844 6.562 9.489 7.8278 13.101 0.5724 1.6334 1.5022 5.6626 3.0743 13.323 0.8488 4.1358 0.9522 5.0823 0.9682 8.8635 0.017 4.112-0.01 4.3085-0.8589 6.8542-1.6733 5.0022-6.1868 14.788-8.432 18.281-2.6319 4.0951-8.5254 10.369-11.288 12.016-1.815 1.0821-5.8279 2.6478-6.8178 2.6601-0.3898 5e-3 -0.8956-0.17808-1.124-0.40647zm-64.71-0.12477c-0.9459-0.11429-4.9345-0.34492-8.8636-0.51252-3.929-0.16759-8.3939-0.48781-9.9218-0.7116-5.8227-0.85278-27.749-0.69488-30.083 0.21664-0.7362 0.28745-0.9154 0.26835-1.3737-0.14635-0.5123-0.46363-0.53-0.90619-0.6362-15.862-0.087-12.274-0.4668-23.612-0.7998-23.883-0.026-0.0214-1.1194 0.18057-2.4291 0.44888-1.5494 0.31742-3.6291 0.49823-5.9531 0.51754-1.9646 0.0163-4.2267 0.13706-5.0271 0.26828s-3.6579 0.42158-6.35 0.64524c-2.6921 0.22365-6.3236 0.65788-8.0698 0.96494-5.1779 0.91049-6.7784 1.041-14.626 1.1923l-7.482 0.14429-0.9201 1.4384c-1.2577 1.9662-2.6833 3.4745-5.9006 6.2435-3.0843 2.6545-3.8863 3.0916-4.5165 2.4615-0.5809-0.58093-0.3459-0.87552 3.2764-4.107 2.6958-2.4049 5.4256-5.3449 5.429-5.847 0-0.24083-63.814-0.12112-64.452 0.1209-0.3843 0.14586-0.6905 0.0763-0.9922-0.22536-0.4811-0.48109-0.5905-1.8595-0.1683-2.1204 0.1474-0.0911 15.298-0.15655 33.668-0.14543l33.4 0.0202-2.9935-1.2993c-3.9317-1.7065-7.1655-3.6632-7.3645-4.4561-0.1814-0.7229 0.3032-1.3933 1.0072-1.3933 0.2785 0 1.2831 0.59534 2.2325 1.323 0.9493 0.72764 2.7607 1.804 4.0253 2.3918 3.3158 1.5415 3.566 1.698 4.1513 2.5963l0.5292 0.81221 6.4923 0.0102c7.0286 0.011 10.251-0.27916 16.154-1.4547 1.9508-0.38848 4.4399-0.8131 5.5313-0.94361 1.0914-0.1305 2.9369-0.35054 4.101-0.48897 1.1642-0.13843 2.9501-0.37266 3.9688-0.52052 1.0186-0.14785 2.9832-0.27369 4.3656-0.27962 2.1619-9e-3 8.4077-0.65311 8.6458-0.89121 0.045-0.0446-0.033-3.9416-0.1726-8.6602-0.2506-8.4738-0.3824-9.9138-1.9884-21.714-0.2306-1.6942-0.385-4.254-0.3432-5.6886 0.071-2.4386 0.1131-2.6134 0.6445-2.6892 0.3125-0.0445 0.6264-0.30311 0.6974-0.57457 0.093-0.3571 0.4807-0.5463 1.4011-0.68432 1.6383-0.24567 6.4567 0.0324 9.5039 0.54838 1.3097 0.22179 4.2863 0.51271 6.6146 0.64649 2.3284 0.13378 5.543 0.42475 7.1438 0.6466 1.6007 0.22184 5.5893 0.59138 8.8635 0.82119 3.2742 0.2298 6.1049 0.47006 6.2903 0.53389 0.1855 0.0638 5.0075 0.12302 10.716 0.13151 10.99 0.0164 12.605-0.10429 21.211-1.5851 3.9531-0.6802 8.1685-1.043 13.112-1.1286 4.2259-0.0732 5.0813 0.15141 6.0168 1.5797 0.4927 0.75237 0.5205 3.115 0.5429 46.242 0 6.4029 0.1503 15.176 0.3266 19.497l0.3206 7.8549-0.5862 1.2108c-0.3981 0.82249-0.9386 1.4169-1.6852 1.8532-1.3203 0.77169-5.2841 1.9029-11.55 3.2963-2.5466 0.5663-4.9654 1.1602-5.375 1.3198-0.8636 0.33648-16.998 0.34856-19.76 0.0148zm18.256-2.1502c0.8004-0.14867 2.2887-0.49875 3.3073-0.77795 1.0187-0.2792 2.626-0.62742 3.5719-0.77383 0.9459-0.1464 3.5626-0.69853 5.8149-1.2269 4.7049-1.1038 5.3939-1.534 5.686-3.55 0.093-0.64212 0.024-9.7995-0.1538-20.35-0.1777-10.55-0.3924-26.307-0.4773-35.015l-0.1542-15.832-0.5782-0.46802c-0.4732-0.38301-1.3382-0.50093-4.7625-0.64917-4.5648-0.19762-7.0236-7e-3 -13.14 1.0176-3.6447 0.61069-8.3349 1.2394-11.814 1.5836-2.8932 0.28625-19.96 0.22474-22.357-0.0806-1.3096-0.1668-4.1671-0.47641-6.35-0.68802-2.1828-0.2116-5.457-0.56657-7.276-0.7888-1.819-0.22224-4.459-0.4051-5.8666-0.40637-1.4076-1e-3 -4.5627-0.29886-7.0114-0.66132s-5.423-0.66011-6.6096-0.66145l-2.1573-2e-3 -0.1866 2.7373c-0.1888 2.7703-0.065 4.3789 0.917 11.947 0.8461 6.5191 1.1746 10.976 1.8621 25.268 0.1505 3.1287 0.4507 7.2604 0.6672 9.1816 0.2945 2.6139 0.3935 6.6972 0.3935 16.224v12.73l0.5953-0.20506c1.0647-0.36673 24.61-0.10193 27.98 0.31468 4.9125 0.60731 9.5645 0.91168 14.26 0.933 2.4164 0.011 5.4054 0.17638 6.6423 0.36758 2.5955 0.4012 14.775 0.28269 17.198-0.16734zm-42.986-13.023c-2.1992-4.0345-5.6046-11.341-7.3173-15.699-0.9278-2.3611-1.7607-4.2958-1.8509-4.2995-0.5205-0.021-1.2559 6.981-1.5137 14.413l-0.1744 5.0271h-1.8521l-0.086-2.1167c-0.1657-4.0832 1.0447-16.187 2.0108-20.108 0.4344-1.7632 0.4957-1.8559 1.2776-1.9321 0.7555-0.0736 0.8642 0.0218 1.3563 1.1906 0.2941 0.69887 0.9252 2.4613 1.4022 3.9165 1.5279 4.6604 4.4791 11.296 6.802 15.295l1.0462 1.8008 0.1582-2.7268c0.087-1.4998 0.4755-4.2151 0.8631-6.0341 0.5154-2.4183 0.7414-4.394 0.8409-7.3502 0.1242-3.6922 0.1818-4.0674 0.6637-4.3253 0.9713-0.51985 1.3256 0.24112 1.4551 3.1254 0.099 2.1963-0.015 3.2296-0.7347 6.698-0.7381 3.5561-0.868 4.7866-0.9776 9.2604-0.07 2.8377-0.2371 5.3677-0.3724 5.6224-0.1481 0.27867-0.5529 0.46302-1.0166 0.46302-0.6937 0-0.8914-0.22155-1.9806-2.2198zm13.75 1.01c-1.2245-0.63685-1.9422-1.4132-3.0926-3.3452-2.6563-4.461-3.9411-10.457-3.1428-14.666 0.8599-4.5345 3.2162-7.2787 6.593-7.6787 0.9557-0.11319 1.3303-0.0479 1.6018 0.27919 0.1967 0.23705 0.7477 0.42694 1.2388 0.42694 1.2539 0 2.5929 1.256 3.271 3.0686 0.4385 1.1718 0.5419 2.0676 0.5402 4.6804 0 4.0694-0.2628 5.6753-1.7442 10.76-1.3186 4.5258-1.9962 5.9666-3.0664 6.52-0.9096 0.47037-1.2199 0.464-2.1988-0.0451zm1.9693-3.6607c1.6028-2.5933 2.721-7.7148 2.7494-12.592 0.018-3.0613-0.056-3.742-0.52-4.7625-0.6325-1.3925-0.9113-1.638-2.3879-2.1031-2.4148-0.7607-4.5646 0.6284-5.5274 3.5716-0.7584 2.3184-0.7125 6.9308 0.097 9.757 0.7316 2.5538 1.9933 5.1483 3.1749 6.5287 1.0184 1.1898 1.4787 1.1136 2.4139-0.39968zm7.1693 1.8405c-0.3758-0.4528-0.1238-1.4679 0.3644-1.4679 0.2413 0 0.388-0.74532 0.5079-2.5797 0.4049-6.195 0.5001-10.533 0.3167-14.418-0.1958-4.1466-0.1994-4.1646-0.7924-4.0158-1.2838 0.32222-2.0435-1.6775-0.8748-2.3029 1.0596-0.56713 4.2707-1.2809 5.7833-1.2855 2.0654-6e-3 4.4497 1.1984 5.6803 2.8701 1.0443 1.4187 1.9687 3.6763 1.9687 4.8082 0 0.4311 0.097 0.78382 0.2162 0.78382 0.4864 0 1.1134 3.9016 1.1101 6.9082 0 2.9367-0.041 3.1441-0.8535 4.72-1.0785 2.0912-3.2999 4.1684-5.7898 5.414-1.8075 0.90423-2.0269 0.94945-4.608 0.94945-2.0465 0-2.7883-0.0941-3.0291-0.38418zm6.4367-2.6298c2.1049-1.0299 3.9665-2.8147 4.9146-4.712 1.0848-2.1708 1.0876-4.1097 0.012-8.3296-1.345-5.2778-2.7115-7.218-5.4498-7.7374-1.9015-0.3606-2.39-0.17238-2.5831 0.99537-0.088 0.53318-0.1707 4.1841-0.1834 8.1132-0.013 3.9291-0.167 8.3768-0.3427 9.8839l-0.3197 2.7402 1.2461-0.11973c0.6853-0.0659 1.9029-0.44111 2.7058-0.8339zm12.864 1.9492c-0.12-0.22426-0.2734-4.2734-0.3409-8.9981-0.1164-8.1612-0.1586-8.749-0.8433-11.765-0.949-4.1803-0.9563-4.4304-0.1353-4.6721 1.5982-0.4706 8.1082-1.281 10.29-1.281 2.1205 0 2.4233 0.0599 2.6745 0.52916 0.2012 0.37597 0.2012 0.68237 0 1.0583-0.2472 0.46173-0.554 0.52916-2.4083 0.52916-1.7804 0-8.9016 0.90286-9.1601 1.1614-0.044 0.0442 0.087 0.48554 0.2915 0.98082 0.5378 1.3024 0.9802 3.6572 1.1803 6.2826l0.1747 2.2909 2.9104 0.16478c1.6007 0.0906 2.9481 0.17992 2.9941 0.19843 0.046 0.0185 0.046 0.35968 0 0.75814-0.071 0.61671-0.2411 0.75218-1.142 0.91079-0.5821 0.10248-1.862 0.19318-2.8443 0.20157l-1.7859 0.0152v5.3073c0 3.7308 0.085 5.2549 0.2855 5.1308 0.1571-0.0971 1.318-0.27663 2.5797-0.39903 1.2618-0.1224 3.0085-0.29851 3.8816-0.39136 1.2161-0.12933 1.7113-0.0742 2.1167 0.23562 0.4245 0.32443 0.4712 0.49914 0.2363 0.88297-0.7013 1.1459-10.396 1.9149-10.955 0.86902zm-55.559-31.776c-1.536-0.61068-2.6906-2.4925-1.8486-3.0129 0.1474-0.0911 0.9283 0.15737 1.7353 0.55218 1.4035 0.68668 1.5323 0.7033 2.9654 0.38257 3.4958-0.78232 4.3655-3.8681 1.4415-5.1144-0.5425-0.23122-1.9984-0.72191-3.2353-1.0904-1.2369-0.36852-2.637-0.90953-3.1113-1.2022-2.9967-1.8495-2.2997-5.9263 1.3308-7.783 2.8112-1.4377 7.3434-1.1784 7.3327 0.41948-0.01 1.0999-0.3663 1.3712-1.4908 1.1263-3.5632-0.77579-6.9718 0.62575-6.9718 2.8666 0 1.0352 1.745 2.3015 3.7042 2.6879 1.922 0.37913 4.2793 1.2769 5.0454 1.9215 3.575 3.0082 0.5609 8.5796-4.6126 8.5262-0.8929-9e-3 -1.9211-0.13512-2.2849-0.27976zm25.595-0.25555c-0.7245-0.42191-1.7004-2.5891-2.1412-4.7552-0.5609-2.7567-0.8879-12.271-0.4402-12.811 0.4239-0.51076 1.5624-0.52399 1.7557-0.0204 0.081 0.21027 0.1708 2.7999 0.2003 5.7547 0.057 5.6972 0.4945 8.5115 1.4872 9.5627 0.4437 0.46988 0.4915 0.45782 1.4222-0.35933 0.5566-0.48876 1.4164-1.7606 2.0376-3.0141 1.0615-2.1422 1.0767-2.2148 1.2554-5.9627 0.1488-3.1231 0.2588-3.8431 0.6217-4.0713 0.3192-0.20077 0.5563-0.1813 0.8598 0.0706 0.6879 0.57086 0.5961 7.1777-0.13 9.3533-0.7112 2.1313-1.6429 3.7146-3.1066 5.2794-1.0423 1.1142-1.3056 1.2597-2.2675 1.2526-0.5985-4e-3 -1.298-0.13018-1.5544-0.27945zm19.318-1.5858c-0.2645-0.15409-0.463-0.5837-0.463-1.0023 0-1.3055-0.7964-3.459-1.6304-4.4089-1.044-1.1891-4.1227-2.9433-4.5012-2.5648-0.1496 0.14964-0.3371 1.7773-0.4165 3.617-0.1252 2.8974-0.2101 3.38-0.6347 3.6073-0.3296 0.17641-0.6635 0.16957-1.0193-0.0209-0.6292-0.33675-0.6746-1.3135-0.2276-4.8948 0.1635-1.3097 0.3114-2.869 0.3286-3.4651 0.017-0.59612 0.1666-1.251 0.332-1.4552s0.672-1.2643 1.1257-2.3557c1.7424-4.1912 3.1046-5.8175 4.8748-5.8198 1.6129-2e-3 2.5417 0.93952 2.5539 2.5892 0.016 2.0997-1.7003 4.3092-4.4363 5.7125l-1.1374 0.5834 1.6422 0.78245c2.2201 1.0578 3.7312 2.5752 4.4334 4.452 0.6059 1.6193 0.7355 3.5871 0.291 4.4176-0.3094 0.5781-0.4587 0.60836-1.1152 0.226zm-3.3792-13.267c0.9407-0.7305 1.5895-1.812 1.5915-2.6531 0-0.97653-0.5701-0.93537-1.4446 0.10387-0.633 0.75231-1.9932 3.1644-1.9932 3.5347 0 0.19922 1.0257-0.34823 1.8463-0.98542zm-27.91 12.412c-1.2418-1.2417-1.5388-2.6158-1.3837-6.4002 0.1401-3.4179 0.8794-6.1263 1.743-6.3852 0.2404-0.0721 0.9267-0.37982 1.525-0.68382 2.7223-1.3833 5.4001 0.61748 5.3888 4.0263-0.013 4.0163-1.0528 7.458-2.7769 9.1943-1.0001 1.0072-1.2472 1.1245-2.3685 1.1245-1.0643 0-1.3831-0.13125-2.1277-0.87588zm3.314-1.7755c1.043-1.4648 1.6278-3.6462 1.6733-6.2419 0.036-2.0471-0.035-2.5085-0.4615-2.982-0.5022-0.55803-1.3146-0.70867-2.1315-0.3952-0.7346 0.28191-1.4751 2.1425-1.7739 4.4575-0.3563 2.7599-0.1239 4.4944 0.7144 5.3327 0.8321 0.83212 1.2932 0.79226 1.9792-0.17108zm31.879 1.456c-1.207-0.6525-1.7485-1.2166-2.2811-2.3765-0.6026-1.3122-0.6223-2.5265-0.071-4.3838 0.641-2.1604 1.5312-3.7454 2.6934-4.7954 1.3004-1.1748 2.6071-1.6218 4.8177-1.6482l1.7198-0.0205 0.082 0.99219c0.078 0.94503 0.044 0.99218-0.7146 0.99218-3.319 0-5.3976 1.5801-6.191 4.7063-0.7447 2.9344 0.2112 4.7441 2.3256 4.403 2.2447-0.36219 2.904-0.29066 2.9916 0.3246 0.2163 1.5173-3.5588 2.7865-5.3723 1.8062zm11.968-0.3211c-0.2566-0.0612-0.6733-0.48913-0.926-0.95102-0.3756-0.68658-0.4628-1.5639-0.4779-4.8086-0.01-2.1828 0.072-4.0919 0.1836-4.2425 0.1111-0.15056 0.3183-1.6276 0.4605-3.2823 0.3729-4.3398 1.0438-5.0458 4.9959-5.2571 2.3862-0.12758 2.9774 0.10214 2.9774 1.157 0 0.81644-0.2386 0.9282-2.2961 1.0755-3.0866 0.22101-3.7893 1.007-3.7893 4.2388v1.6803h2.3488c2.4719 0 3.084 0.26255 2.8953 1.242-0.1117 0.58011-1.0499 0.80177-3.5694 0.84334l-1.8972 0.0313-0.1617 1.7859c-0.089 0.98227-0.2594 2.3492-0.3789 3.0377-0.1194 0.68846-0.1791 1.2898-0.1326 1.3363 0.046 0.0465 0.9955-2e-3 2.1089-0.10883 2.3985-0.2291 3.3605 0.032 3.2369 0.87858-0.064 0.43997-0.37 0.6513-1.2751 0.88113-1.4721 0.37381-3.6794 0.61098-4.3031 0.46235zm-476.86 50.437c-0.3393-0.5489-0.6235-4.8622-0.9049-13.731-0.1989-6.27-0.4757-10.489-0.946-14.42-0.9293-7.7667-1.124-10.625-1.4326-21.034-0.1489-5.0205-0.3006-10.081-0.3371-11.245l-0.066-2.1167-0.5929 1.7198c-0.3261 0.94589-1.2107 4.875-1.9657 8.7312l-1.3728 7.0115-0.1084 13.891c-0.07 9.0078-0.2046 14.007-0.3818 14.221-0.5203 0.62955-1.4912 0.38243-1.9449-0.49508-0.712-1.3768-1.6817-5.6647-1.9683-8.7036-0.2894-3.0692-0.8907-5.4185-2.6649-10.411-0.8417-2.3685-1.1749-3.0337-1.357-2.7084-0.4987 0.89113-1.2693 5.8232-1.2693 8.1237 0 1.3141-0.1233 2.6196-0.2739 2.901-0.3062 0.57207-1.3038 0.68035-1.7899 0.19428-0.779-0.77904-0.1836-6.291 1.3089-12.117 1.616-6.3078 2.2885-5.8465 5.6722 3.8899 1.6155 4.6487 2.1637 6.9722 2.6717 11.322 0.1508 1.2922 0.2613-1.5473 0.3654-9.3927l0.1491-11.245 0.964-4.7625c0.5301-2.6194 1.1524-5.8706 1.3829-7.225 0.7304-4.2925 1.524-6.8445 2.5262-8.1243 1.1087-1.4158 2.245-1.6418 2.5308-0.50341 0.094 0.37606 0.193 6.1208 0.2193 12.766 0.051 13.004 0.3473 17.904 1.5927 26.37 0.3639 2.4738 0.6807 5.3314 0.704 6.35 0.042 1.8154 0.047 1.8002 0.2578-0.76266 0.2818-3.4206 0.711-5.4226 2.4533-11.445 0.9502-3.2841 1.6401-6.3476 2.0176-8.9593 0.5613-3.8832 2.0767-10.528 2.7908-12.237 0.3737-0.8945 1.2141-1.1678 1.6274-0.52917 0.1177 0.1819 0.2284 4.1407 0.2459 8.7974 0.034 8.9959 0.1316 10.114 1.6665 19.05l0.7726 4.4979 0.021-3.7423c0.05-8.7943 1.5993-15.489 4.1137-17.777 0.9436-0.85863 1.93-1.0954 2.1118-0.50697 0.056 0.1819 0.1736 3.155 0.261 6.6069 0.211 8.3375 0.6839 10.932 2.8499 15.631l0.8385 1.8192 1.4151-5.7776c1.1159-4.5556 1.6661-6.2812 2.6014-8.1588 0.6524-1.3097 1.4221-3.3716 1.7104-4.582 1.013-4.2526 1.2569-4.2636 3.9915-0.18053 0.5848 0.87312 1.3513 1.989 1.7035 2.4796 0.6782 0.94507 2.3529 5.969 2.6572 7.9714 0.1 0.65484 0.5993 1.8768 1.1107 2.7154l0.9298 1.5248 0.9196-1.8243c1.0246-2.0326 2.4133-3.9741 4.6688-6.5272 2.105-2.3828 2.7509-2.2922 3.3164 0.4653 0.4579 2.2327 1.7072 4.5754 2.6477 4.965 0.9916 0.41073 1.8897 0.12413 4.972-1.5867 3.218-1.786 4.1067-1.963 8.6171-1.7161 4.5083 0.24681 7.1251 0.24608 11.689-3e-3 3.2273-0.17632 3.4811-0.15442 4.101 0.35388 0.5402 0.44302 0.6074 0.62931 0.3683 1.0214-0.2473 0.40563-0.8594 0.51587-3.9687 0.71476-4.5384 0.29031-8.2606 0.30004-12.441 0.0325-4.4677-0.28591-5.1456-0.13866-8.2112 1.7837-2.2056 1.383-2.8161 1.6435-4.0552 1.7305-1.2951 0.0909-1.5839 0.0111-2.5756-0.71147-1.2022-0.87598-2.6126-3.063-2.8802-4.4663-0.1391-0.7292-0.2276-0.8151-0.5577-0.54118-0.7162 0.59439-2.607 3.233-3.7413 5.2209-1.5303 2.6819-2.4036 3.6853-3.2277 3.7086-0.578 0.0163-0.8875-0.33587-2.1343-2.4292-1.2973-2.178-1.5669-2.9011-2.4411-6.5484-0.9313-3.8854-1.0504-4.1869-2.2758-5.7571l-1.2932-1.657-0.3136 0.99551c-0.1724 0.54753-0.7676 1.7736-1.3225 2.7246-1.2444 2.1324-1.8183 3.839-2.8885 8.5897-1.0953 4.8615-1.8423 7.587-2.1965 8.0138-0.9102 1.0967-2.3118-0.78414-4.0682-5.4597-1.5007-3.9946-1.9541-6.7476-2.1813-13.244l-0.1997-5.7138-0.5773 1.2221c-1.6535 3.5008-2.4351 8.8855-2.4342 16.77 6e-4 5.2658-0.4541 11.723-0.8617 12.237-0.4209 0.53048-1.2493 0.38351-1.4913-0.26458-0.1222-0.32742-0.3677-2.5598-0.5456-4.9609-0.1778-2.4011-0.6657-6.3897-1.0843-8.8635-1.2266-7.2492-1.5884-10.531-1.765-16.007-0.1854-5.7504-0.1964-5.743-1.3771 0.92604-0.4379 2.4738-1.2804 6.1053-1.8721 8.0698-2.5 8.3007-2.5942 9.0131-2.8927 21.873-0.1544 6.6533-0.346 10.561-0.5352 10.914-0.3159 0.59029-1.4405 0.7564-1.7483 0.25825zm239.2-3.997c-1.7462-0.1284-5.0969-0.46599-7.4458-0.75019-3.2022-0.38744-5.9593-0.51673-11.019-0.51673-5.5474 0-7.2354-0.0909-9.4875-0.51122-1.5068-0.28117-3.1927-0.58547-3.7465-0.67621-0.5538-0.0907-1.2475-0.40558-1.5416-0.69963-0.5024-0.50242-0.5244-0.75258-0.3653-4.1524 0.1885-4.0261 0.6895-10.86 1.468-20.022 0.622-7.3212 0.6412-8.8348 0.1246-9.8255-0.2174-0.41682-0.396-1.3125-0.3969-1.9904 0-1.0658 0.1566-1.4268 1.1681-2.6685 0.6433-0.78978 1.7733-2.4579 2.511-3.7068 2.3147-3.9188 6.9395-10.605 9.3762-13.555 3.3072-4.0042 2.8031-3.8503 11.682-3.5666 12.26 0.39171 31.789 0.30136 35.454-0.16402 6.957-0.88346 8.0698-0.84264 8.0698 0.29603 0 0.363-0.1434 0.88965-0.3187 1.1703-0.2495 0.39949-0.2384 1.6196 0.051 5.6188 0.4843 6.6898 0.6934 34.311 0.2707 35.745-0.1929 0.6544-1.0502 1.8054-2.4645 3.3085-1.1929 1.2678-3.0011 3.257-4.0182 4.4204-1.0172 1.1635-2.7627 3.0944-3.879 4.2908-1.1162 1.1965-2.3919 2.8038-2.8348 3.5719-1.2803 2.2203-2.1311 2.7535-6.4241 4.0259-2.156 0.63903-2.596 0.67541-7.6729 0.63436-2.9621-0.024-6.8144-0.14862-8.5607-0.27703zm15.387-2.5434c3.0825-1.0187 3.8604-1.4277 4.3086-2.2652 0.517-0.96602 0.5742-21.051 0.066-23.181-0.1909-0.80036-0.5205-2.7649-0.7325-4.3656-0.7603-5.741-0.7568-5.6504-0.2398-6.2217 0.2614-0.28886 0.5462-0.52338 0.6328-0.52115 0.4454 0.0115 0.8516 0.51901 0.9667 1.208 0.071 0.42478 0.2401 1.3676 0.3759 2.0952 0.1359 0.7276 0.3725 2.4147 0.5259 3.7492s0.3967 3.0473 0.5407 3.8064c0.144 0.7591 0.2617 4.7988 0.2617 8.9771 0 4.1783 0.077 8.5129 0.1721 9.6326l0.1721 2.0357 0.7883-0.73899c0.4336-0.40644 1.8957-2.0487 3.2491-3.6494s3.4921-4.101 4.7527-5.5562c1.2605-1.4552 2.428-2.9435 2.5944-3.3073 0.2127-0.46525 0.3111-4.5856 0.3316-13.891 0.029-13-0.1213-17.533-0.7159-21.652l-0.2993-2.0728-1.2525 1.9405c-0.6888 1.0673-1.5653 2.4952-1.9476 3.173-0.3822 0.67785-2.2849 3.3568-4.2281 5.9531-3.6237 4.8417-7.4899 8.9194-8.7585 9.2378-0.3711 0.0931-2.1343 0.0214-3.9181-0.15953-3.412-0.34598-10.527-0.18964-12.504 0.27474-2.5259 0.59343-6.1302 1.0581-10.305 1.3284-2.4662 0.15973-4.5935 0.35804-4.7272 0.44069-0.1338 0.0826-3.4554 0.24529-7.3814 0.36142-3.926 0.11612-7.1805 0.25345-7.2322 0.30517-0.052 0.0517-0.2766 2.2926-0.4998 4.9796-0.2232 2.6871-0.5831 6.6716-0.7998 8.8544-0.2168 2.1828-0.4673 6.1119-0.5566 8.7312-0.09 2.6365-0.3321 5.4624-0.5424 6.3303-0.209 0.86231-0.2877 1.6569-0.1751 1.7657 0.1127 0.1088 1.9415 0.5046 4.064 0.87955 3.4568 0.61066 4.5465 0.6819 10.451 0.68328 3.6255 8.4e-4 7.3063 0.12021 8.1794 0.26526s4.0283 0.45537 7.0115 0.68959c2.9831 0.23422 6.4359 0.52185 7.6729 0.63917 3.9708 0.37663 6.9826 0.14206 9.6981-0.75533zm-11.474-2.0651c-1.2558-0.61917-1.9582-2.2485-1.8679-4.3328 0.096-2.2099 0.4076-2.4006 2.5907-1.5842 2.0136 0.75303 3.699 2.2464 3.699 3.2775 0 1.124-0.7435 2.2828-1.7289 2.6945-1.1403 0.47647-1.6354 0.46634-2.6929-0.0551zm2.1408-2.335c-0.169-0.44058-0.894-0.76539-0.894-0.40055 0 0.14095 0.1191 0.25628 0.2646 0.25628s0.2646 0.18562 0.2646 0.41249 0.1138 0.34212 0.253 0.25611c0.1392-0.086 0.1895-0.32196 0.1118-0.52433zm-23.49 1.0958c-0.8229-0.82288-1.1062-2.7388-0.5883-3.9784 1.1828-2.8309 6.0111-2.0521 5.981 0.96477-0.01 0.8977-0.9249 2.7124-1.6119 3.1936-0.9598 0.67221-3.027 0.57377-3.7808-0.18004zm-1.2625-10.283c-1.2039-0.698-1.9496-1.9894-1.707-2.956 0.1273-0.5074 0.3463-0.70133 0.7918-0.70133 0.3386 0 1.002-0.19271 1.4741-0.42823 0.5881-0.29339 1.2749-0.38822 2.1809-0.30116 1.7304 0.16627 2.6512 1.025 2.6512 2.4727 0 2.2276-3.0081 3.2957-5.391 1.9141zm21.815-1.2079c-0.9539-0.89107-1.2613-1.8058-1.0268-3.0556 0.3243-1.7287 0.7294-2.0018 2.8511-1.922 1.6063 0.0604 1.9746 0.16406 2.3858 0.67178 0.6968 0.86057 0.8576 1.7626 0.5119 2.8726-0.3735 1.1994-1.3442 1.9282-2.7842 2.0905-0.9457 0.1066-1.2195 0.0137-1.9378-0.65721zm2.4092-2.0663c0.09-0.23546 0.046-0.34166-0.1039-0.24897-0.1439 0.0889-0.2616 0.27369-0.2616 0.41062 0 0.38058 0.1897 0.29672 0.3655-0.16165zm-25.671-6.2017c-0.3119-0.12585-0.7584-0.50198-0.9922-0.83585-1.5649-2.2342 1.5531-5.4155 4.8008-4.8984 2.7677 0.44066 3.2018 4.7311 0.5718 5.6509-1.05 0.36722-3.5587 0.41493-4.3804 0.0833zm1.0551-2.2626c-0.086-0.22455-0.2134-0.35154-0.2827-0.28218-0.069 0.0693-0.048 0.25308 0.048 0.40828 0.2609 0.42214 0.4133 0.34013 0.2344-0.1261zm22.084-0.29364c-0.9792-1.082-1.3752-3.692-0.6513-4.2927 0.1968-0.16332 1.0744-0.37185 1.9503-0.4634 1.3995-0.14628 1.6606-0.0982 2.1557 0.39685 0.8597 0.8597 0.7793 2.6944-0.1643 3.7505-0.9321 1.0431-2.6155 1.3546-3.2904 0.60882zm23.822-0.85414c-1.2576-0.79759-1.5474-1.231-1.5474-2.3152 0-2.3881 2.612-3.3589 4.1929-1.5584 1.0177 1.1591 1.287 2.4461 0.7351 3.5133-0.7045 1.3624-1.6427 1.4623-3.3806 0.36022zm-40.706-9.4088c1.9645-0.21455 5.0006-0.52416 6.7469-0.68803 1.7462-0.16387 4.2894-0.52604 5.6515-0.80482 2.0985-0.42951 3.625-0.50687 10.001-0.50687 6.0064 0 7.6688-0.0762 8.2391-0.37748 2.0389-1.0773 8.5306-8.9554 11.462-13.91 0.904-1.528 2.1654-3.5363 2.8032-4.4629 0.6377-0.92665 1.1082-1.7361 1.0455-1.7988-0.063-0.0627-1.5865 0.0822-3.3863 0.32189-2.8532 0.37998-5.855 0.424-23.427 0.34355-20.045-0.0918-20.159-0.0893-20.902 0.45604-1.0013 0.73442-3.9549 4.4069-6.1264 7.6173-3.2118 4.7486-3.7303 5.5729-4.9665 7.8962-0.6741 1.2669-1.6412 2.789-2.1492 3.3825-0.8782 1.0259-0.9067 1.1209-0.5795 1.9299 0.1892 0.46797 0.4286 0.91039 0.532 0.98315 0.3927 0.27645 11.641-9e-3 15.056-0.38153zm25.069-6.3531c-1.1295-1.0374-1.2864-1.967-0.4698-2.7836 1.5482-1.5482 5.0338-0.61981 5.0338 1.3407 0 1.0859-0.2491 1.5415-1.0772 1.9697-1.2739 0.65875-2.3776 0.49202-3.4868-0.52672zm-12.307-3.7573c-0.9548-0.47067-1.3157-1.3493-0.8849-2.1544 0.4487-0.83847 2.6663-2.1704 3.6136-2.1704 1.0421 0 1.4472 0.45531 1.6322 1.8343 0.1275 0.95092 0.045 1.1584-0.7911 1.9948-1.0626 1.0626-2.1214 1.2096-3.5698 0.49569zm-9.7766-4.1862c-1.0202-0.44355-1.3367-1.391-0.854-2.5563 0.5934-1.4326 3.194-2.4594 3.5934-1.4188 0.084 0.21828 0.4729 0.39688 0.8648 0.39688 0.8041 0 1.3475 0.42815 1.3475 1.0618 0 0.76487-2.7544 2.9181-3.7042 2.8956-0.2182-5e-3 -0.7796-0.17581-1.2475-0.37924zm283.46 42.856c-0.2611-0.68025 0.056-1.0223 2.0557-2.2142 1.0664-0.6357 2.483-1.621 3.1482-2.1895 1.5336-1.3109 4.3842-5.1152 7.2888-9.7275 4.0043-6.3584 4.9597-9.3198 4.7354-14.677-0.3236-7.7272-2.4919-12.079-7.9521-15.961-5.6926-4.0472-9.0326-5.9273-13.254-7.4604-1.4401-0.52303-2.7492-1.1593-2.9091-1.414-0.4138-0.65908 0.1009-1.3713 1.0562-1.4615 2.0563-0.19428 15.693 7.7792 19.791 11.572 2.2823 2.1123 4.0531 5.4398 5.0373 9.4657 0.3792 1.5514 0.4466 2.7076 0.3544 6.0854-0.1086 3.9793-0.1593 4.3033-1.1068 7.0805-1.5896 4.6588-4.2362 9.2123-8.3813 14.42-2.3556 2.9593-4.2553 4.7843-6.1808 5.9376-1.7058 1.0217-3.4037 1.2728-3.6831 0.54467zm-328.6-0.30868c-0.4644-0.46431-0.021-1.2701 1.747-3.1751 1.058-1.1399 2.3204-2.5487 2.8054-3.1308 0.4851-0.58208 1.6636-1.862 2.6191-2.8443l1.7371-1.7859-8.0482 3e-3c-9.9275 3e-3 -21.164-0.41651-25.908-0.96827-1.9645-0.22851-3.6695-0.47411-3.7888-0.5458-0.1193-0.0717-3.3935-0.23415-7.276-0.36102-3.8825-0.12688-8.0116-0.37326-9.1758-0.5475-1.4675-0.21965-8.1601-0.33492-21.823-0.37586-17.763-0.0532-19.733-0.10094-19.975-0.48378-0.1834-0.2907-0.1762-0.5701 0.023-0.88541 0.2722-0.43165 1.4063-0.45582 17.99-0.38339 16.462 0.0719 19.731 0.17301 27.489 0.85011 1.6007 0.13971 4.7559 0.25728 7.0114 0.26126 2.7971 5e-3 5.2368 0.18206 7.673 0.55703 2.893 0.4453 5.1307 0.56712 11.774 0.64093 4.5112 0.0501 9.8469 0.16328 11.857 0.25147 2.0102 0.0882 5.4272 0.0778 7.5933-0.0231l3.9383-0.18339-0.7142-0.53275c-0.3928-0.29301-1.4881-1.2762-2.434-2.1848-0.9458-0.90862-2.4028-2.0829-3.2375-2.6095-1.5963-1.007-2.1279-1.9391-1.5221-2.669 0.1796-0.2164 0.6023-0.39344 0.9393-0.39344 1.6333 0 9.6652 7.4985 10.012 9.3471 0.2853 1.5206-0.043 2.1486-2.0815 3.9802-1.0615 0.95385-3.2167 3.227-4.7893 5.0514-2.3193 2.6906-2.9915 3.3172-3.5595 3.3172-0.3851 0-0.7796-0.0794-0.8766-0.17639zm324.38-15.61c-0.4217-0.42177-0.053-1.1379 1.546-2.9986 0.9376-1.0914 2.035-2.5797 2.4386-3.3073 0.7006-1.263 0.7338-1.4849 0.7338-4.898 0-3.5029-0.017-3.6106-0.8654-5.3353-0.9643-1.9615-2.8717-4.2361-4.1299-4.9251-0.454-0.24861-1.5865-0.63062-2.5167-0.8489-1.8508-0.43435-2.4808-1.0037-1.9761-1.7859 0.4267-0.6612 2.6337-0.55808 4.191 0.19582 2.6588 1.2871 5.9952 5.3384 6.9166 8.3985 0.5437 1.806 0.7415 5.483 0.3952 7.3468-0.4317 2.3229-1.6939 4.67-3.5611 6.6217-1.1825 1.236-1.8273 1.7127-2.317 1.7127-0.3732 0-0.758-0.0794-0.855-0.17638zm-300.43-45.385c-0.4395-0.43944-0.3969-1.1528 0.098-1.648 0.334-0.33399 1.0717-0.41578 3.7503-0.41578h3.3345l-0.6414-0.68959c-0.8689-0.93415-9.5352-6.7221-12.812-8.5569-2.9215-1.6358-11.454-8.3555-20.373-16.045-6.079-5.2408-9.0105-7.9611-18.388-17.064-3.7108-3.6018-7.0651-6.7983-7.454-7.1032s-2.0965-1.0334-3.7948-1.619c-5.6987-1.965-9.8875-4.2124-17.19-9.2228-2.035-1.3963-5.1901-3.473-7.0114-4.6149-1.8213-1.1419-4.5616-2.9952-6.0896-4.1184-1.528-1.1232-3.8497-2.8167-5.1594-3.7634-7.3147-5.287-10.4-7.5891-12.489-9.3201-3.7252-3.0862-7.3175-5.2493-10.207-6.1459-1.6801-0.52136-2.2381-1.3495-1.4443-2.1433 1.2242-1.2242 6.2309 1.561 13.204 7.3452 1.5036 1.2472 4.4603 3.5015 6.5703 5.0095 2.1101 1.508 5.631 4.0781 7.8243 5.7112 3.691 2.7484 4.993 3.6316 10.829 7.3467 1.1642 0.74109 3.605 2.3766 5.424 3.6345 6.1327 4.2408 11.465 7.1156 16.326 8.8018 1.4847 0.51505 3.0342 1.1096 3.4435 1.3212 0.774 0.40029 4.6236 3.981 11.849 11.021 8.2155 8.0052 16.156 15.055 23.812 21.142 1.7462 1.3882 4.0084 3.2237 5.0271 4.079 2.5593 2.1489 3.7987 2.9775 7.0114 4.6878 1.528 0.81338 4.326 2.491 6.2177 3.7281 1.8918 1.2371 3.8717 2.5096 4.3997 2.8279 0.9855 0.59395 2.9455 2.567 3.219 3.2404 0.1229 0.30257 0.2403 0.27247 0.5918-0.15171 0.3607-0.43526 0.4108-0.90477 0.282-2.6458-0.086-1.1642-0.3122-3.0096-0.5023-4.101-0.4272-2.4524-0.2713-3.279 0.6389-3.3865 0.6286-0.0743 0.6998 0.0415 1.1347 1.843 0.5177 2.145 1.2034 6.9575 1.2113 8.5019 0.01 1.2838-0.597 2.4536-1.3733 2.6616-1.1858 0.31765-10.931 0.18968-11.269-0.14797zm-222.5-60.074c-0.5332-0.67366-1.371-3.8593-1.7881-6.7994-0.2364-1.666-0.4823-3.114-0.5465-3.2178-0.2132-0.34493-1.1383-10.627-1.3066-14.523-0.1994-4.6136-0.5409-8.4392-1.0845-12.149-0.4923-3.3596-0.3851-3.9903 0.6788-3.9903 0.4252 0 0.8554 0.13327 0.9561 0.29615 0.1007 0.16289 0.2801 2.0381 0.3987 4.1672 1.0503 18.847 1.1558 19.932 2.6782 27.551l0.8723 4.3656 0.1634-15.346c0.1301-12.221 0.2553-16.046 0.6152-18.785 0.6054-4.6077 0.9123-31.97 0.4392-39.158-0.1783-2.7082-0.2218-5.3331-0.1009-6.0854 0.1994-1.2412 0.2609-1.3229 0.9947-1.3229 0.7044 0 0.801 0.10513 0.972 1.0583 0.1045 0.58208 0.3095 3.9158 0.4557 7.4083 0.2335 5.5788 0.3794 6.9098 1.2014 10.96 1.6635 8.1948 1.778 9.8154 2.0009 28.331 0.2131 17.696 0.1804 17.273 1.5107 19.552 0.5376 0.92099 0.7265 1.0785 0.9069 0.75611 0.458-0.81825 1.3067-4.9584 2.1022-10.254 0.4481-2.9832 1.1503-7.2099 1.5604-9.3927 0.6969-3.71 0.7365-4.2854 0.6062-8.8272-0.1521-5.303 0.2846-10.936 0.8865-11.436 0.5692-0.4724 1.2442-0.15972 1.4762 0.68386 0.4188 1.5228 0.3229 10.402-0.1422 13.158-0.4767 2.826-0.38 4.1652 0.6274 8.6876 0.6584 2.9558 2.2331 7.886 2.7404 8.5798 0.3528 0.48248 0.3922 0.45163 0.6847-0.53715 0.1707-0.57697 0.4221-3.7279 0.5586-7.0022 0.4101-9.8382 0.9831-13.693 2.812-18.918 0.658-1.8797 0.8146-2.1167 1.3988-2.1167 1.003 0 1.3287 1.0214 1.757 5.5093 0.4703 4.9285 0.8483 6.5372 2.9331 12.482 1.1847 3.3786 1.9407 5.1594 2.1904 5.1594 0.1084 0 0.2812-2.8277 0.3838-6.2839 0.2045-6.884 0.4049-8.8581 1.2421-12.237 0.7253-2.927 2.5593-7.6702 3.0367-7.8534 1.2406-0.47606 1.6938 1.8434 1.9484 9.97l0.203 6.4823 1.2285 4.1981c1.4193 4.8502 1.7288 5.5612 1.7427 4.004 0.012-1.3545 0.9335-7.6844 1.6175-11.112 0.2903-1.4552 1.1887-4.6104 1.9963-7.0115 0.8076-2.4011 1.7254-5.6632 2.0395-7.2492 0.6153-3.107 1.0875-3.8571 1.9102-3.0344 0.3567 0.35674 0.4603 1.6416 0.6609 8.1976 0.3023 9.8839 0.6281 11.614 3.1067 16.506l1.2067 2.3812 0.4942-1.7198c1.7712-6.1639 2.8172-8.5379 3.8251-8.6813 0.8904-0.12674 1.3431 0.84961 1.8206 3.9271 0.4562 2.9406 0.8852 3.9605 1.6661 3.9605 0.2647 0 1.2527-0.75642 2.1956-1.6809 2.2729-2.2287 3.4406-2.8655 7.303-3.983 4.3632-1.2624 6.4681-1.4016 10.707-0.70807 2.2684 0.37111 4.5745 0.55118 7.0588 0.55118 3.0496 0 3.764 0.0744 4.1186 0.42899 0.6898 0.68984 0.382 1.2619-0.7909 1.47-2.0371 0.36132-6.579 0.21238-10.282-0.33715-4.4018-0.65329-6.0526-0.56091-9.9661 0.5577-3.525 1.0076-4.7896 1.6471-6.1451 3.1079-3.0649 3.3029-2.9848 3.2393-4.0831 3.2393-1.7275 0-2.8349-1.5341-3.5204-4.8767-0.3811-1.8582-0.4937-1.7343-1.4456 1.5911-0.3715 1.2977-1.0503 3.2288-1.5086 4.2913-0.7392 1.7142-0.9061 1.9228-1.4812 1.8521-0.5605-0.0689-0.8971-0.6342-2.4896-4.1808-2.7571-6.14-3.3674-8.9822-3.4094-15.875l-0.02-3.3073-1.423 4.2333c-2.3221 6.908-3.8037 16.011-3.8325 23.548-0.011 2.8742-0.6137 4.0167-1.7 3.2224-0.3883-0.28388-0.5349-0.91322-0.7184-3.084-0.1758-2.0792-0.6165-4.0544-1.8544-8.312l-1.6238-5.5847-0.2016-6.6146c-0.1108-3.638-0.2216-6.6741-0.2461-6.7469-0.1058-0.31376-1.1529 3.0023-1.7545 5.5562-0.5373 2.2808-0.6996 3.9149-0.9067 9.1281-0.2313 5.8236-0.5921 9.9067-0.9599 10.865-0.4091 1.0659-1.755-0.0324-2.9396-2.3987-0.791-1.5799-2.9099-7.5464-3.6546-10.29-0.7179-2.645-1.4136-6.7653-1.4569-8.6274l-0.028-1.1906-0.651 1.9844c-0.9316 2.84-1.3821 6.2224-1.6739 12.568-0.3508 7.6308-0.4935 9.2132-0.9462 10.496-0.5264 1.4921-1.6109 2.8651-2.263 2.8651-0.8659 0-2.3236-3.6121-3.8875-9.6324l-0.7496-2.8856-0.4436 2.621c-0.2439 1.4415-0.7461 4.645-1.116 7.1189-1.1196 7.4883-2.4068 11.533-3.7302 11.722-0.7248 0.10337-1.9414-1.3358-3.085-3.6494l-0.8487-1.7168 0.091-13.629c0.097-14.5-0.153-21.104-1.0223-27.027-0.2807-1.9129-0.573-3.5406-0.6494-3.617-0.076-0.0764-0.1379 2.411-0.1366 5.5275 0 6.6476-0.3913 14.695-0.984 20.086-0.3276 2.9797-0.4384 7.3689-0.4962 19.654-0.076 16.143-0.1362 17.132-1.1102 18.247-0.4728 0.54137-1.2053 0.60278-1.5777 0.1323z"/></g></svg>
