<svg width="573.11mm" height="221.38mm" version="1.1" viewBox="0 0 573.11 221.38" xml:space="preserve" xmlns="http://www.w3.org/2000/svg"><g transform="translate(1265.9 11.576)"><path d="m-799.53 209.48c-0.3604-0.93919 0.0204-1.3354 1.62-1.6852 10.336-2.2607 13.055-3.252 22.488-8.1988 7.8138-4.0977 12.27-7.122 15.427-10.47 1.4138-1.4994 2.2457-1.8345 2.9087-1.1716 0.58543 0.58543 0.32718 1.1519-1.3362 2.9307-3.4409 3.6799-8.6871 7.1346-16.996 11.192-7.2421 3.5366-9.7504 4.4515-17.702 6.4569-5.7346 1.4463-6.1908 1.5136-6.4086 0.94608zm-89.283-10.103c-5.4794-3.4792-12.149-8.9714-15.064-12.405-1.0914-1.2854-3.9934-4.5491-6.4489-7.2526-4.9019-5.397-6.7007-7.6996-10.661-13.647-4.9578-7.4448-5.5957-8.8948-3.9943-9.0792 0.61872-0.0712 0.82987 0.0984 1.4552 1.1694 1.3376 2.2908 5.9425 9.1992 7.7416 11.614 1.8084 2.4272 4.4041 5.4478 9.1295 10.624 1.4552 1.594 3.4622 3.8443 4.46 5.0007 2.4692 2.8617 4.6278 4.7254 11.018 9.5126 0.80037 0.59959 2.5451 1.7707 3.8772 2.6024 1.3321 0.83174 2.4957 1.7042 2.5857 1.9388 0.19296 0.50284-0.5041 1.6749-0.99613 1.6749-0.18802 0-1.5843-0.78889-3.1028-1.7531zm-347.91-2.1047c-3.1909-1.8129-4.6505-4.4058-5.2752-9.3714-0.4406-3.5018 0.1743-6.1996 4.6134-20.241 0.6441-2.0373 1.4652-4.7162 1.8245-5.9531 1.4907-5.1306 5.6093-14.138 10.042-21.96 1.8991-3.3516 7.695-12.169 9.3047-14.155 5.1366-6.3382 14.091-14.579 16.079-14.797 0.3498-0.0384 0.7627-0.14813 0.9176-0.24384 0.5451-0.33688 1.0859 0.14802 2.0916 1.8755 0.5587 0.95959 1.8735 2.6582 2.9216 3.7748 2.2901 2.4394 4.2834 3.5343 7.2302 3.9714 1.0871 0.16125 2.36 0.35005 2.8287 0.41955 2.9469 0.437 4.2241 4.9107 2.6192 9.1745-0.3679 0.97731-1.1362 2.581-1.7074 3.5638-1.635 2.813-2.8861 5.4198-4.2678 8.8923-3.3525 8.4254-4.632 11.504-6.5961 15.872-2.3971 5.33-3.3635 7.1629-5.6718 10.757-4.5875 7.1436-5.2144 7.8916-12.035 14.358-3.566 3.381-7.6388 7.1592-9.0507 8.3962-6.0849 5.3307-12.456 7.606-15.869 5.6672zm5.6504-2.379c4.5427-1.1624 8.3511-4.1136 19.661-15.236 4.6815-4.6038 5.2318-5.3061 9.8143-12.526 2.8587-4.5043 6.38-11.941 8.5068-17.967 0.4552-1.2899 1.295-3.4304 1.8662-4.7568 0.5712-1.3264 1.5318-3.6617 2.1346-5.1897 0.6029-1.528 1.8615-4.1866 2.797-5.908 2.0266-3.729 2.7508-5.748 2.7508-7.6686 0-1.8654-0.4052-2.2082-3.1886-2.6976-2.6195-0.46055-3.6454-0.77428-5.3871-1.6474-1.6201-0.81214-4.6786-3.883-6.2059-6.231-0.6356-0.97704-1.2235-1.7764-1.3065-1.7764-0.25 0-3.1931 2.3567-6.0047 4.8084-2.7257 2.3768-8.273 8.2673-9.8672 10.478-3.7632 5.2178-7.7692 12.006-12.604 21.359-2.0446 3.9552-4.2822 9.4581-5.3256 13.097-0.3964 1.3824-0.9893 3.2279-1.3176 4.101-1.031 2.7426-4.3294 14.726-4.6193 16.783-0.5645 4.0054 0.8587 8.7907 3.1295 10.523 1.3367 1.0195 2.5478 1.1266 5.1659 0.45668zm411.23 2.2961c-3.6084-0.1376-4.2465-0.22606-4.4966-0.62338-0.21218-0.33709-0.21219-0.58895-4e-5 -0.92604 0.25978-0.41279 0.99156-0.48038 6.7455-0.62301 4.2245-0.10471 7.1396-0.3023 8.4385-0.57195 3.6243-0.75243 10.01-2.7266 16.272-5.0301 1.4138-0.52012 6.6052-3.1019 7.9665-3.9619 1.554-0.98172 2.2981-1.0407 2.7389-0.21716 0.42757 0.79891 0.098 1.23-1.7974 2.3509-5.6836 3.3612-14.663 6.7674-23.172 8.7899-3.8449 0.91386-6.1584 1.062-12.695 0.8127zm-239.74-4.8083c-2.1834-0.34829-3.9445-1.5977-4.9747-3.5291-0.8087-1.5164-0.8077-5.1864 0-7.3638 1.5365-4.1314 5.2613-8.4161 7.6879-8.8434 2.119-0.37311 3.793 0.1132 4.801 1.3947 0.7703 0.97927 1.663 4.1101 1.8152 6.3662 0.1532 2.269-0.3279 5.8903-0.9798 7.3763-1.3294 3.0305-5.1154 5.1153-8.3517 4.599zm3.5718-3.2517c2.1693-1.0902 2.9755-2.9826 3.017-7.0823l0.026-2.5466-1.2819-1.6534c-1.0107-1.3034-1.2584-1.8145-1.1703-2.4143 0.1012-0.68992 0.04-0.76093-0.6608-0.76093-1.4901 0-5.1329 4.3779-6.1858 7.4338-0.9702 2.8159-0.7781 4.8001 0.6138 6.3408 1.5206 1.6831 3.2384 1.891 5.6423 0.68294zm195 2.3063c-0.80036-0.36747-2.884-1.2019-4.6302-1.8542-7.6379-2.8532-14.158-6.8139-22.556-13.702-3.375-2.7683-3.8585-3.5044-2.7065-4.1209 0.66537-0.3561 0.47304-0.47424 4.757 2.9222 3.9479 3.13 10.414 7.5017 13.809 9.337 2.211 1.1949 5.9075 2.7665 9.3416 3.9714 1.0186 0.35743 2.5367 0.9688 3.3734 1.3586 1.3068 0.6088 1.5214 0.81046 1.5214 1.4302 0 0.81051-0.4313 1.364-1.0451 1.3412-0.22555-8e-3 -1.0649-0.3159-1.8653-0.68337zm-278.88-0.27824c-1.2949-0.88616-1.4353-1.4585-1.9997-8.1513-0.2454-2.9104-0.501-5.924-0.5679-6.6968-0.2858-3.2986 1.3211-4.169 7.0882-3.839 2.4634 0.14095 2.9614 0.24348 3.1817 0.65511 0.175 0.32706 0.1677 0.66255-0.022 1.0172-0.259 0.48391-0.554 0.52917-3.4489 0.52917-4.52 0-4.5856 0.0926-3.7816 5.3427l0.1496 0.97709 2.1514-0.14433c2.5494-0.17103 3.6066 0.13415 3.6066 1.0411 0 1.0698-0.4659 1.2501-3.231 1.2501h-2.5961l0.126 0.99218c0.069 0.54571 0.1989 1.7649 0.2881 2.7094 0.193 2.0462 0.4678 2.5002 1.2575 2.0777 0.3032-0.1623 1.5767-0.35356 2.83-0.42501 1.9067-0.10872 2.352-0.0566 2.7281 0.31955 0.5429 0.54292 0.566 0.94494 0.091 1.5939-0.2696 0.36869-1.0048 0.57486-2.9766 0.8348-3.4703 0.45748-4.1001 0.4467-4.8748-0.0834zm40.506-0.49494c-5.6335-1.5453-6.9188-6.0933-3.1925-11.297 1.1251-1.5711 5.2536-4.9042 6.9521-5.6127 0.9797-0.40865 1.0113-0.40336 1.6401 0.27516 0.3544 0.38243 0.7756 0.60872 0.9418 0.50599 0.1751-0.1082 0.8936 0.42626 1.7198 1.2793 1.1669 1.2047 1.5216 1.8027 1.996 3.3645 1.2913 4.2513-0.5464 8.7135-4.4336 10.765-1.9197 1.0133-3.7149 1.243-5.6237 0.71939zm3.4596-2.5394c1.3329-0.39936 3.0063-1.8464 3.7316-3.2271 0.4293-0.81712 0.5785-1.5724 0.5862-2.9677 0.01-1.8321-0.02-1.9174-1.4308-4.0349-0.7927-1.1898-1.5087-2.1633-1.5911-2.1633-0.3598 0-2.9972 1.9506-4.4266 3.2741-1.7423 1.613-2.9876 3.7814-3.1868 5.549-0.113 1.0024-0.025 1.2639 0.7056 2.096 1.3338 1.5191 3.533 2.0967 5.6119 1.4739zm-53.253 2.3576c-0.2199-0.1819-1.0464-1.381-1.8365-2.6648-1.7611-2.8613-3.5928-4.6774-4.7176-4.6774-0.7314 0-1.6138-0.76418-1.6138-1.3976 0-0.12185 0.6091-0.86562 1.3536-1.6528 1.1207-1.1849 1.3248-1.5465 1.1856-2.1008-0.2029-0.80867-1.1779-0.91373-1.8266-0.19685-1.0239 1.1313-1.2418 2.2948-1.2418 6.6302 0 4.5293-0.1174 4.9358-1.3745 4.7576-0.6085-0.0863-0.61-0.0972-0.6821-4.9606-0.057-3.8446 0.014-5.135 0.3378-6.1088 0.7404-2.2293 2.967-3.6911 4.85-3.184 2.3176 0.62407 3.3435 3.1421 2.1473 5.2705l-0.6054 1.0771 0.7723 0.5889c1.4081 1.0737 2.6095 2.5208 3.9143 4.7152 1.374 2.3107 1.5838 3.3175 0.8093 3.8838-0.5993 0.4382-0.9609 0.44327-1.4719 0.0206zm35.385-0.52916c-0.5147-0.80584-0.7577-4.9529-0.4957-8.4583 0.1166-1.5597 0.129-2.7504 0.028-2.6458-0.1014 0.10453-0.4391 0.8449-0.7505 1.6453-0.7606 1.955-1.1816 2.5587-2.1243 3.0462-1.4039 0.72596-2.6192 0.17202-4.4156-2.0127l-1.5307-1.8616-0.1323 4.8174c-0.1157 4.212-0.1905 4.8541-0.5954 5.109-0.3373 0.2124-0.5887 0.21231-0.926-3.5e-4 -0.419-0.26415-0.4697-0.95966-0.5334-7.3124-0.042-4.1832 0.036-7.2993 0.1919-7.7104 0.201-0.52865 0.445-0.68991 1.044-0.68991 0.7067 0 0.8899 0.20279 1.9067 2.1112 1.4139 2.6536 3.3031 5.0928 3.8593 4.9827 0.2517-0.0498 0.6404-0.77549 0.9841-1.8371 0.5986-1.8489 1.7838-3.7961 2.565-4.2142 0.2556-0.13682 0.7781-0.24877 1.1611-0.24877 2.022 0 2.4011 1.2582 1.983 6.5812-0.1672 2.1284-0.2224 4.9137-0.1228 6.1896 0.1987 2.5453 0 3.1041-1.0928 3.1041-0.357 0-0.7853-0.25417-1.0032-0.59531zm34.896-0.32973c-0.5821-0.21445-1.0851-0.3917-1.1177-0.39389-0.033-2e-3 -0.2401-0.35345-0.461-0.78058-0.3443-0.66592-0.3769-1.8745-0.2284-8.4803 0.1537-6.8396 0.2231-7.7305 0.6185-7.9421 0.3022-0.16177 0.64-0.10195 1.0514 0.18623l0.6062 0.42455-0.1284 7.1156c-0.1243 6.884-0.1114 7.1247 0.3943 7.3953 0.5259 0.28147 3.0343 0.13437 5.0056-0.29355 1.1818-0.25655 2.0647 0.24071 2.0647 1.1629 0 0.8995-0.4167 1.1073-2.9104 1.4515-1.237 0.17073-2.6062 0.36304-3.0427 0.42737-0.4366 0.0643-1.27-0.0585-1.8521-0.27297zm-95.022-1.6079c-0.3795-0.57916-0.4648-1.6857-0.5713-7.4083l-0.1252-6.7275h-4.9381c-5.222 0-5.5731-0.078-5.5731-1.2385 0-0.41219 0.1887-0.64338 0.5953-0.72929 0.3274-0.0692 4.8932-0.18709 10.146-0.26201 10.469-0.14931 10.547-0.13937 10.382 1.3168l-0.089 0.7807-8.3343 0.1458v3.3578c0 1.8468 0.1352 5.0185 0.3004 7.0482 0.2821 3.4647 0.2709 3.712-0.1828 4.0438-0.7084 0.518-1.1094 0.43646-1.6099-0.32742zm312.48-17.611c-3.621-1.9275-11.352-6.7142-13.145-8.139-1.0655-0.84671-4.0142-3.5321-6.5526-5.9676-4.7167-4.5253-5.3253-5.3736-4.2631-5.942 0.65038-0.34807 1.2943 0.14603 6.13 4.7038 5.919 5.5788 6.1391 5.7353 16.967 12.062 1.2556 0.73367 2.6546 1.5368 3.1088 1.7847 0.9703 0.52948 1.1362 1.6136 0.31418 2.0535-0.72637 0.38875-0.82617 0.36708-2.5598-0.55574zm107.78-7.3936c-0.93033-0.54187-0.54118-1.5951 1.4097-3.8153 2.9154-3.3178 5.825-7.9306 7.7945-12.357 0.53714-1.2073 2.0951-4.5271 3.4621-7.3775 2.9562-6.1638 3.9081-8.8536 4.4719-12.635 0.57937-3.8864 0.66478-4.1274 1.4971-4.2243 0.5008-0.0583 0.7456 0.0621 0.86019 0.42313 0.33727 1.0626-1.0902 8.856-1.9729 10.771-0.13416 0.29104-0.4812 1.1482-0.77122 1.9048-0.29001 0.75658-1.1254 2.5676-1.8565 4.0244-0.73108 1.4568-2.1718 4.5287-3.2015 6.8265-2.8397 6.3363-5.3353 10.46-8.6542 14.302-2.29 2.6503-2.2468 2.6196-3.0391 2.1581zm-76.134-1.2214c-3.6534-0.39297-9.8852-1.8613-10.782-2.5404-0.47966-0.36332-0.40578-1.4964 0.11048-1.6946 0.46765-0.17946 1.8771 0.0906 5.115 0.98025 3.2088 0.8816 9.6464 1.1817 14.322 0.66758 4.1486-0.45612 6.3115-0.91262 12.136-2.5614 6.9166-1.958 10.741-3.7199 14.871-6.8509 1.9209-1.4564 2.4878-1.763 2.948-1.5942 0.6786 0.24893 0.90353 1.4396 0.39036 2.0664-0.78838 0.96303-4.7344 3.6464-7.0914 4.8223-4.0085 1.9998-7.6859 3.2328-15.748 5.2802-4.7728 1.212-12.202 1.8625-16.272 1.4248zm-270.73-0.36606c-0.4233-0.24652-0.463-0.89616-0.463-7.564v-7.2944l-2.4961 0.18714c-1.3728 0.10292-2.742 0.10906-3.0427 0.0136-0.6313-0.20037-0.7452-1.2312-0.1873-1.6942 0.3002-0.24912 5.4798-0.85587 6.7844-0.79473 1.6384 0.0768 6.082-0.0949 7.0273-0.27152 1.7531-0.32751 2.851 0.64401 1.8543 1.6408-0.4198 0.41979-4.2111 0.98187-6.6228 0.98187h-1.5418l0.1366 7.1336c0.1242 6.4839 0.096 7.1706-0.3132 7.5406-0.5237 0.47395-0.5292 0.47454-1.1357 0.12128zm-18.691-0.38496c-1.4986-0.36501-1.8693-0.68361-1.876-1.612-0.01-0.83383 0.6422-1.2459 1.6471-1.047 1.3747 0.272 1.8492 0.21251 2.5685-0.32195 0.8078-0.60024 1.0222-1.9342 0.4511-2.8059-0.216-0.32961-1.2107-1.0853-2.2105-1.6792-1.9246-1.1434-4.1457-3.2966-4.5807-4.4408-0.6982-1.8363 0.1242-3.8252 1.9519-4.7208 0.8049-0.39441 1.5548-0.49003 3.6208-0.46169 3.1303 0.0429 3.9561 0.29373 3.9561 1.2015 0 0.35882-0.1489 0.74872-0.3308 0.86645s-1.5474 0.21405-3.0345 0.21405c-2.4171 0-2.7644 0.0606-3.2758 0.57124-1.1536 1.1519-0.1066 2.6088 3.5806 4.9823 2.4014 1.5458 3.325 2.867 3.325 4.7562 0 1.7678-0.6696 2.9794-2.2349 4.044-1.3885 0.94424-1.4907 0.95727-3.5579 0.45374zm-17.226-0.32744c-1.2231-0.66246-2.5251-2.6231-3.1853-4.7969-0.4502-1.4821-0.5225-2.3602-0.4604-5.5885l0.074-3.83 0.6467-0.0913c1.1134-0.15716 1.3377 0.52819 1.3377 4.087 0 4.6866 0.9869 7.5106 2.902 8.3039 2.4293 1.0063 3.9295-3.3154 3.2038-9.2292-0.2938-2.3931-0.284-2.5083 0.2627-3.0902 0.4739-0.50447 0.67-0.55782 1.1861-0.32266 0.8034 0.36602 0.8414 0.48917 1.1954 3.8701 0.5044 4.8173-0.4392 8.652-2.5194 10.239-1.2848 0.97993-3.3025 1.175-4.6431 0.44892zm-17.333-0.15731c-0.849-0.37637-2.2464-2.5895-2.2464-3.5578 0-0.61584 0.6563-1.3722 1.1907-1.3722 0.1975 0 0.801 0.41672 1.341 0.92604 1.1179 1.0543 1.3046 1.1093 1.5721 0.46302 0.3122-0.75453 0.4352-6.5784 0.2081-9.8557l-0.2108-3.0427-4.5319 0.0927c-4.9436 0.10113-5.6546-0.0456-5.6546-1.1669 0-0.99481 0.853-1.1738 5.6396-1.1832 3.3035-6e-3 4.3971-0.0953 4.7846-0.38862 0.4379-0.33147 0.5905-0.32897 1.1906 0.0195 0.6045 0.35105 1.0056 0.35556 3.2947 0.0371 2.3607-0.32847 2.6568-0.32173 3.1424 0.0715 0.3836 0.31062 0.4839 0.59864 0.3526 1.0124-0.2078 0.65472-0.4676 0.7352-3.5636 1.104-1.2236 0.14573-2.2675 0.30768-2.3197 0.35987-0.052 0.0522 0.037 2.4046 0.1974 5.2277 0.3198 5.6148 0.1979 7.7304-0.5419 9.41-0.7627 1.7314-2.3648 2.4995-3.8449 1.8434zm-95.515-3.7812c-2.8439-1.8953-4.5532-3.3851-10.779-9.3942-5.9746-5.7667-6.4667-6.4362-5.2207-7.103 0.4677-0.25032 0.7456-0.0629 2.2419 1.512 0.9394 0.98878 1.7112 1.8818 1.7151 1.9844 0.01 0.26415 7.4248 6.9347 9.8568 8.8674 1.1159 0.88676 2.7495 2.057 3.6302 2.6006 1.7194 1.0613 2.1067 1.9469 1.0894 2.4913-0.6648 0.35579-0.4261 0.44608-2.5337-0.95859zm475.12-1.2017c-0.62167-0.62167-0.29542-1.242 1.3362-2.5405 5.1524-4.1006 10.849-12.65 13.169-19.764 1.3302-4.0787 1.7773-4.7043 2.9237-4.0908 0.72449 0.38774 0.64577 1.0656-0.53033 4.5664-2.6212 7.8024-8.6946 16.834-14.001 20.819-1.8187 1.3661-2.3545 1.5528-2.8977 1.0096zm51.594-14.552c-0.55758-0.55757-0.34297-1.5881 1.0358-4.9742 2.5942-6.3709 4.1609-11.378 4.5943-14.685 0.22129-1.6881 0.40235-3.5948 0.40235-4.237 0-1.2203 0.50002-1.7902 1.3229-1.5078 0.6403 0.21976 0.78541 0.62881 0.7897 2.2261 9e-3 3.4073-0.75559 7.4664-2.216 11.762-1.6327 4.8024-3.9802 10.837-4.4233 11.371-0.37101 0.44704-1.0825 0.4682-1.5059 0.0448zm-521.7-3.1996c-5.43-4.901-11.144-11.533-13.928-16.165-1.3598-2.2624-1.5498-3.1637-0.7566-3.5882 0.6908-0.36969 1.2625 0.18456 2.6341 2.5537 0.6067 1.048 2.1192 3.1911 3.361 4.7625 2.4375 3.0842 8.9905 9.8708 11.19 11.588 1.4399 1.1247 1.8917 2.0061 1.358 2.6493-0.6288 0.75766-1.4464 0.37604-3.8581-1.8008zm398.09-1.3429c-4.0511-1.5618-5.8522-2.7245-9.1943-5.9352-1.7395-1.6711-2.1252-2.702-1.1906-3.1826 0.69404-0.35696 1.0729-0.13524 3.2704 1.9138 2.4218 2.2582 4.199 3.3557 7.7476 4.7845 1.4708 0.5922 2.8231 1.1697 3.005 1.2834 0.42061 0.26279 0.42859 1.2946 0.0132 1.71-0.48408 0.48408-1.1985 0.37181-3.6512-0.57379zm68.858-4.4231c-0.96049-0.36268-0.73068-1.374 0.97649-4.2973 2.2321-3.8221 4.6183-8.8862 5.5693-11.82 1.0278-3.1702 1.4299-6.0728 1.2582-9.0834-0.11815-2.0722-0.0736-2.4173 0.36944-2.8603 0.61295-0.61295 1.4766-0.28024 1.6624 0.64044 0.30725 1.5222 0.38802 5.3454 0.15271 7.2289-0.51291 4.1058-3.6453 11.731-7.4486 18.133-1.2042 2.0269-1.6549 2.3921-2.54 2.0579zm-22.238-3.9989c-0.59065-0.59066-0.32223-1.4494 0.99827-3.1938 2.0378-2.6919 3.6106-5.4352 4.6314-8.0783 1.0764-2.7871 2.1442-6.8854 2.3919-9.1802 0.0942-0.87313 0.3451-2.9567 0.55746-4.6302 0.31535-2.4852 0.32955-3.5617 0.0775-5.8749-0.16973-1.5577-0.23798-3.0162-0.15166-3.2412 0.19223-0.50095 1.3239-0.53877 1.7233-0.0576 0.72968 0.8792 1.0447 6.522 0.57999 10.388-0.13834 1.1509-0.37755 3.1807-0.53159 4.5106-0.57387 4.9549-2.6942 10.841-5.4193 15.044-2.8176 4.3461-3.8803 5.2896-4.8572 4.3127zm-436.95-4.908c-2.9218-2.8419-7.1095-7.8124-9.1627-10.875-3.4274-5.1129-7.9535-14.564-7.965-16.632 0-0.3223 0.2238-0.70753 0.5014-0.85606 0.8259-0.44203 1.4714 0.40191 2.5196 3.2942 0.5274 1.4552 1.9189 4.4318 3.0924 6.6146 3.6529 6.7952 6.6606 10.846 11.925 16.059 3.0321 3.0028 3.4865 3.7139 2.8073 4.393-0.6571 0.65717-1.3982 0.25904-3.7182-1.9976zm334.03 1.1906c-0.14906-0.1819-0.61012-1.7595-1.0246-3.5057l-0.75356-3.175 4e-3 -15.081 4e-3 -15.081 0.73236-3.4077c0.48516-2.2574 1.2675-4.7292 2.3176-7.3229 2.3116-5.7091 4.1204-9.5663 4.6161-9.8437 0.4855-0.2717 1.4546 0.41751 1.4546 1.0345 0 0.19482-0.54991 1.5754-1.222 3.0678-3.603 8.0008-4.8679 12.123-5.3811 17.535-0.35891 3.7848-0.3678 17.767-0.0114 17.987 0.14552 0.0899 0.26458 0.44713 0.26458 0.79375 0 0.34663-0.11906 0.70382-0.26458 0.79375-0.15547 0.0961-0.26116 1.6029-0.25627 3.6536 8e-3 3.2919 0.38276 6.2318 1.3449 10.546 0.27355 1.2266 0.27126 1.5762-0.0126 1.9182-0.41515 0.50022-1.433 0.5494-1.8115 0.0875zm-283.92-7.2132c-0.7788-0.21809-2.4777-0.94486-3.7753-1.615-2.8687-1.4816-4.5532-3.2357-6.0687-6.3191-1.3893-2.8266-1.8978-4.9922-1.8928-8.0612 0-3.0399 0.6283-5.2601 2.1294-7.5825 2.1318-3.2983 4.4283-5.0022 8.8964-6.6008 1.1585-0.41447 2.3297-0.97691 2.6026-1.2499 0.3769-0.37688 0.6659-0.44485 1.201-0.28246 0.3876 0.11762 1.5381 0.21724 2.5568 0.22137 1.6265 7e-3 1.8819 0.0755 2.0973 0.56582 0.1697 0.3862 0.8222 0.74169 2.1167 1.1532 1.0293 0.32718 2.4464 0.90369 3.1492 1.2811 2.4472 1.3143 5.3826 5.1616 6.5736 8.6157 1.1167 3.239 0.5302 8.6703-1.3465 12.469-2.4984 5.0568-6.891 7.5155-13.781 7.7139-2.1339 0.0615-3.4657-0.0308-4.4588-0.30892zm6.8054-2.5151c2.5285-0.32826 5.3939-1.6921 7.064-3.3622 2.4472-2.4472 3.8488-6.9689 3.461-11.165-0.3548-3.8393-3.5769-8.2348-7.0508-9.6186-1.9171-0.76364-6.3752-2.0428-7.1197-2.0428-1.2558 0-5.9468 1.8664-7.2841 2.8981-3.0879 2.3823-4.8944 5.9474-4.8999 9.6696-0.01 5.6274 2.6315 10.325 6.9184 12.313 3.1904 1.4792 5.2563 1.7825 8.9111 1.308zm1.9032-5.9283c-0.2029-0.24445-0.3305-1.7093-0.3631-4.1672-0.05-3.7773-0.054-3.7972-1.0249-5.8312-0.7559-1.5829-0.992-2.4283-1.0521-3.7671-0.1306-2.9079 0.6686-3.1361 3.8519-1.0998 3.8837 2.4844 4.8492 6.6938 2.6054 11.36-1.6575 3.4469-3.0542 4.6656-4.0172 3.5054zm345.83 8.4434c-0.77883-0.21809-2.4777-0.94486-3.7753-1.615-2.8686-1.4816-4.5532-3.2357-6.0687-6.3191-1.3892-2.8266-1.8977-4.9922-1.8928-8.0612 5e-3 -3.0399 0.62838-5.2601 2.1294-7.5825 2.1318-3.2983 4.4283-5.0022 8.8964-6.6008 1.1585-0.41447 2.3296-0.97691 2.6026-1.2499 0.37687-0.37688 0.66588-0.44485 1.201-0.28246 0.38757 0.11762 1.5381 0.21724 2.5568 0.22137 1.6266 7e-3 1.882 0.0755 2.0973 0.56582 0.16964 0.3862 0.82215 0.74169 2.1167 1.1532 1.0293 0.32718 2.4464 0.90369 3.1492 1.2811 2.4472 1.3143 5.3826 5.1616 6.5736 8.6157 1.1168 3.239 0.53024 8.6703-1.3465 12.469-2.4984 5.0568-6.891 7.5155-13.781 7.7139-2.1339 0.0615-3.4657-0.0308-4.4588-0.30892zm6.8054-2.5151c2.5285-0.32826 5.3939-1.6921 7.064-3.3622 2.4472-2.4472 3.8488-6.9689 3.461-11.165-0.3548-3.8393-3.5769-8.2348-7.0508-9.6186-1.9171-0.76364-6.3752-2.0428-7.1197-2.0428-1.2558 0-5.9468 1.8664-7.2841 2.8981-3.0879 2.3823-4.8944 5.9474-4.8999 9.6696-8e-3 5.6274 2.6315 10.325 6.9184 12.313 3.1904 1.4792 5.2563 1.7825 8.911 1.308zm1.9032-5.9283c-0.20288-0.24445-0.33053-1.7093-0.36313-4.1672-0.0501-3.7773-0.0536-3.7972-1.0249-5.8312-0.75588-1.5829-0.992-2.4283-1.0521-3.7671-0.13059-2.9079 0.66863-3.1361 3.8519-1.0998 3.8837 2.4844 4.8491 6.6938 2.6054 11.36-1.6575 3.4469-3.0542 4.6656-4.0172 3.5054zm-63.199-6.5551c-0.39548-0.39548-0.42548-4.9983-0.0532-8.1561 0.42139-3.5739 1.367-8.8267 1.654-9.1873 0.61728-0.77583 2.4166 0.1856 1.9029 1.0168-0.38784 0.62753-1.2042 6.8166-1.48 11.22-0.16405 2.6194-0.41534 4.9113-0.55841 5.0932-0.32966 0.41912-1.0529 0.42565-1.4653 0.0132zm-55.827-2.6458c-0.42281-0.42282-0.39767-1.929 0.083-4.9742 0.21822-1.3824 0.70119-4.5376 1.0733-7.0115 0.37207-2.4738 1.0285-5.9794 1.4588-7.79 0.43027-1.8106 1.0259-4.4872 1.3236-5.948 0.3126-1.534 1.5834-5.5082 3.0083-9.4079 3.0988-8.4811 2.9478-8.11 3.3648-8.2687 0.66559-0.25336 1.5416 0.27905 1.5416 0.93692 0 0.34537-1.1409 3.7635-2.5353 7.5958-1.6139 4.4356-2.857 8.3692-3.4207 10.824-0.487 2.1208-1.0804 4.6822-1.3186 5.692s-0.71515 3.6887-1.0598 5.9531c-0.3447 2.2644-0.87265 5.5279-1.1732 7.2522s-0.54651 3.472-0.54651 3.8837c0 1.2278-1.0777 1.9841-1.7992 1.2626zm-169.58-2.3596c-1.1503-1.8749-4.4739-6.3975-6.6789-9.0882-3.5366-4.3156-7.7391-7.5706-13.519-10.471-2.4661-1.2376-2.6501-1.3841-2.5733-2.0498 0.1325-1.1492 1.1295-1.0596 3.945 0.35445 5.9082 2.9673 10.937 7.1542 15.545 12.942 2.6634 3.3457 5.4169 7.3093 5.827 8.3879 0.3248 0.85427-0.079 1.5432-0.9048 1.5432-0.5081 0-0.8612-0.3484-1.6405-1.6187zm244.94-1.9549c-0.4136-0.49835-0.20994-2.216 0.6817-5.7493 1.4408-5.7097 3.1863-9.2291 6.7253-13.56 2.2955-2.8093 5.6192-5.6959 6.3408-5.5072 0.57375 0.15004 1.1693 0.97526 1.0214 1.4153-0.0458 0.13632-1.4598 1.6478-3.1423 3.3588-5.158 5.2456-7.1911 8.8649-8.9557 15.943-0.52603 2.11-1.0513 3.9853-1.1672 4.1672-0.2886 0.45274-1.1024 0.416-1.504-0.0679zm-297.72-0.9462c-0.2554-0.14873-1.0528-1.1425-1.7721-2.2084-0.7192-1.0659-1.8-2.3593-2.4015-2.8743-1.3435-1.1499-4.598-2.7641-7.8883-3.9123-2.9733-1.0376-3.7229-1.7116-4.4848-4.0326l-0.5655-1.7227 0.7679-3.1311c0.8662-3.5317 1.5549-5.446 3.2764-9.107 0.656-1.395 2.5799-5.9789 4.2754-10.186 6.6592-16.526 10.129-23.159 16.699-31.922 3.2022-4.271 11.194-13.126 13.434-14.887 3.8968-3.061 8.4384-4.917 12.196-4.9842 1.841-0.0329 2.2976 0.0572 3.5067 0.69222 1.7184 0.90242 2.9548 2.5208 4.0303 5.2756 0.9416 2.4114 1.0096 4.0271 0.393 9.3351-0.436 3.753-0.8733 5.6588-2.4749 10.785-0.5803 1.8574-1.2534 4.2981-1.4959 5.424-0.7291 3.3846-1.1716 4.769-2.8955 9.0584-0.9065 2.2556-2.111 5.2917-2.6766 6.7469-1.2485 3.2118-2.4962 5.307-8.2201 13.803-2.4345 3.6136-5.2466 7.9989-6.2491 9.7451-3.1345 5.4601-4.7245 7.4251-12.599 15.571-2.6054 2.6952-3.6442 3.2367-4.856 2.531zm5.9311-7.1971c4.6632-4.9371 6.9127-7.8214 9.0843-11.648 0.8418-1.4832 3.3402-5.3756 5.552-8.6498 6.6718-9.8761 7.5537-11.463 10.073-18.124 0.7705-2.0373 1.8223-4.7194 2.3374-5.9602s1.3027-3.8007 1.7502-5.6885c0.4474-1.8879 1.3991-5.397 2.1148-7.7981 1.3606-4.5647 1.6074-5.8282 2.1233-10.869 0.2697-2.6363 0.2553-3.2914-0.1036-4.6923-0.763-2.9783-2.1026-5.0237-3.5856-5.475-3.0123-0.91658-8.7061 1.0931-12.984 4.583-2.5824 2.1065-9.5824 9.9346-12.59 14.079-5.8426 8.0514-10.437 16.662-15.596 29.23-1.5531 3.7835-3.4216 8.2484-4.1522 9.9219-2.7939 6.4-3.4524 8.1-4.0495 10.454l-0.6161 2.4288 0.6338 1.3243c0.3486 0.72838 0.7865 1.4493 0.9732 1.602 0.1866 0.15275 1.53 0.72121 2.9852 1.2632 5.4802 2.0413 7.6154 3.4205 9.8105 6.337 0.8241 1.0949 1.6495 1.9908 1.8342 1.9908s2.1671-1.9388 4.4054-4.3086zm236.09 6.5869c-0.63177-0.46196-0.45537-1.9226 0.91743-7.5963 0.57747-2.3866 1.3468-5.7471 1.7095-7.4678 1.4172-6.7219 5.0154-17.729 7.262-22.216 3.7334-7.4552 11.438-17.754 12.882-17.219 1.4433 0.53474 1.2025 1.3885-1.0802 3.8294-1.8456 1.9735-6.4209 8.5563-8.5321 12.276-1.4598 2.5718-3.4624 7.1288-4.2806 9.7407-2.6768 8.545-3.6324 11.925-5.1378 18.173-0.92917 3.8563-1.7716 7.5472-1.872 8.2021-0.27099 1.7669-0.39694 2.0918-0.91907 2.3713-0.32704 0.17502-0.62231 0.14612-0.94921-0.0929zm168.71-4.8863c-0.33806-0.33806-0.54917-1.0791-0.677-2.3764-0.3958-4.0167-2.9481-12.347-5.4382-17.75-0.70929-1.5389-1.8911-4.1522-2.6263-5.8074-2.4779-5.5787-4.9233-8.9148-9.6336-13.143-1.7257-1.549-2.9617-2.8605-2.9617-3.1427 0-0.26638 0.25728-0.65514 0.57173-0.86393 0.53914-0.35798 0.7303-0.24273 3.353 2.0215 6.0521 5.225 7.8501 7.7724 12.428 17.608 2.8675 6.1613 4.8222 11.763 5.9553 17.066 0.8479 3.9684 0.9844 5.906 0.45349 6.4369-0.56482 0.56482-0.81895 0.55599-1.4244-0.0495zm-19.051-6.0866c-0.26399-0.26399-0.68657-1.303-0.93905-2.3089-0.59965-2.389-1.8506-5.2008-3.6942-8.3036-1.5469-2.6035-1.7918-3.516-1.0545-3.9286 0.79135-0.44286 1.2891-0.0378 2.6834 2.1837 2.6804 4.2705 5.0316 10.065 4.7787 11.777-0.12853 0.87013-1.1505 1.2044-1.7744 0.58049zm54.505-3.0337c-0.16026-0.1931-0.71705-2.6636-1.2373-5.4901-1.4803-8.0424-3.4127-15.61-4.5549-17.839-0.22374-0.43656-1.4614-2.4118-2.7503-4.3895-1.2889-1.9776-2.3435-3.8487-2.3435-4.1579 0-0.69928 0.7733-1.1582 1.3798-0.8188 0.76413 0.42764 5.5619 7.9589 6.3461 9.9616 1.2115 3.0943 2.4906 7.9037 3.6257 13.633 1.7011 8.5863 1.6782 8.4117 1.1747 8.9681-0.51443 0.56845-1.2303 0.62615-1.6403 0.1322zm-86.424-7.7495c-4.4256-4.0067-10.439-7.2058-15.188-8.0799-1.742-0.32062-2.1422-0.5925-2.1422-1.4552 0-1.4058 2.4241-1.1908 7.6473 0.67826 3.3387 1.1948 4.3967 1.7533 7.6986 4.0643 4.0817 2.8569 5.651 4.755 4.7096 5.6965-0.57708 0.57708-1.3856 0.30891-2.7252-0.90393zm-302.29-0.15493c-3.1507-3.9368-9.5385-9.3696-14.337-12.194-1.529-0.89988-1.9441-1.2788-2.0091-1.834-0.058-0.49189 0.082-0.78723 0.4684-0.99431 0.467-0.24992 0.8968-0.0907 2.835 1.05 3.9828 2.3442 9.1269 6.446 12.544 10.003 2.8276 2.9428 3.1706 3.3997 3.0995 4.129-0.068 0.69885-0.1989 0.83168-0.8853 0.89887-0.6749 0.0661-0.9529-0.10545-1.7156-1.0583zm5.1668-18.567c-4.2406-4.3474-8.8642-7.3217-14.658-9.4291-1.6278-0.59212-2.0286-0.84781-2.1025-1.3412-0.2506-1.6739 1.6331-1.3979 6.309 0.92437 5.7276 2.8446 10.209 6.033 13.349 9.4968 2.1037 2.3207 2.3224 3.6699 0.5858 3.614-0.17-5e-3 -1.7378-1.4747-3.4841-3.2649zm238.7 1.511c-0.56017-0.56016-0.0215-1.4688 2.1387-3.6079 4.8152-4.768 6.1214-5.4354 17.396-8.8886 7.1976-2.2045 14.883-2.5156 23.992-0.97143 4.3473 0.73701 6.7216 1.5204 10.271 3.3891 6.2884 3.3103 7.5002 4.2934 6.6117 5.3639-0.54623 0.65815-1.445 0.45031-3.6133-0.83557-7.8402-4.6495-12.841-6.049-22.71-6.3556-6.626-0.20586-9.2828 0.19863-16.998 2.5879-8.2049 2.5409-9.0721 2.9852-12.829 6.5733-2.7904 2.6646-3.7326 3.2719-4.2596 2.745zm-5.456-17.933c-0.68766-0.82858-0.20938-1.5571 1.7077-2.6013 1.0186-0.55484 2.6498-1.5428 3.6249-2.1955 2.2517-1.5074 7.6719-4.3325 10.311-5.3747 4.7968-1.8939 11.762-2.9225 22.576-3.3342 4.3337-0.16501 5.1594 0.0402 5.1594 1.2825 0 1.1023-0.43176 1.2284-4.2201 1.2318-3.4149 3e-3 -9.7379 0.46749-14.05 1.0318-3.5154 0.4601-5.9361 1.062-8.5515 2.1261-2.7928 1.1364-8.6613 4.148-10.381 5.3274-1.4416 0.98865-5.0643 2.8885-5.508 2.8885-0.19355 0-0.49469-0.17204-0.6692-0.38231zm77.639-0.88925c-1.5692-0.66217-1.7159-0.80284-1.7159-1.6452 0-1.1558 0.76917-1.4552 2.3714-0.92301 1.137 0.37764 1.3913 0.3828 2.2006 0.0446 1.5397-0.64333 2.2164-2.1241 1.4473-3.1666-0.21957-0.29761-1.4403-0.67727-3.6319-1.1295-5.484-1.1317-7.1499-2.2875-7.1499-4.9608 0-1.9409 0.86348-3.8419 2.4437-5.3798 1.5418-1.5005 2.6105-2.1206 4.5258-2.6262 1.5193-0.40099 1.9744-0.27569 2.1952 0.60439 0.21679 0.86379-0.22681 1.2509-2.021 1.7634-2.4655 0.7044-4.1768 2.554-4.6381 5.0132-0.1187 0.63271-0.0709 1.1196 0.1343 1.3668 0.48546 0.58494 2.944 1.4183 5.4984 1.8637 4.0344 0.70354 5.617 1.9155 5.619 4.3034 2e-3 2.1174-1.0871 3.7518-3.2296 4.8474-1.1975 0.61231-2.6352 0.62089-4.0493 0.0242zm12.086-1.0436c-0.43942-0.84736-1.1344-9.6402-1.0508-13.295 0.08-3.5003 0.0939-3.5736 0.69153-3.6583 1.2096-0.17147 1.3745 0.29185 1.3745 3.862v3.3139l2.3052-0.17719c3.684-0.28317 4.3643-0.4346 4.1743-0.92919-0.0902-0.23479-0.23345-2.0503-0.31838-4.0345-0.14626-3.4169-0.12652-3.6226 0.37319-3.89 0.39489-0.21134 0.66135-0.18871 1.0592 0.0899 0.47024 0.32937 0.54865 0.76286 0.67968 3.7577 0.0815 1.862 0.27671 3.9807 0.43388 4.7083s0.4652 2.8707 0.68451 4.7625c0.39758 3.4296 0.39709 3.441-0.1688 3.9096-0.49564 0.41052-0.63813 0.4235-1.1248 0.10245-0.44286-0.29212-0.60059-0.76903-0.76803-2.3222-0.11589-1.075-0.27181-2.4592-0.34648-3.0759l-0.13576-1.1214-3.2254 0.16602c-1.774 0.0913-3.2649 0.19885-3.3131 0.23896-0.0482 0.0401 0.11546 1.6901 0.36376 3.6666 0.36209 2.8823 0.38613 3.6724 0.12144 3.9913-0.44878 0.54075-1.5153 0.50221-1.8096-0.0654zm76.157-0.40161c-2.0341-0.52399-3.3712-2.1051-4.6456-5.4937-0.63479-1.6878-0.74576-2.3812-0.76076-4.7541-0.0167-2.6476 0.0188-2.8317 0.75542-3.918 1.6211-2.3906 4.2359-3.081 7.2968-1.9266 2.2637 0.85374 3.175 1.5023 3.175 2.2595 0 1.1964-0.84898 1.3281-2.7098 0.42032-3.8812-1.8935-6.6692-0.18354-6.1785 3.7894 0.55738 4.5128 2.8527 7.8816 4.7737 7.0063 0.78592-0.35809 0.97912-0.76214 1.1806-2.469 0.19024-1.6119 0.5989-1.862 3.7303-2.2834 2.7383-0.36852 3.437-0.12771 3.437 1.1845 0 1.1434-0.32254 1.3904-2.1167 1.6211-1.7975 0.23111-2.6458 0.73696-2.6458 1.5778 0 0.69897-1.0589 2.1023-1.9468 2.58-0.90878 0.48895-2.3458 0.66337-3.3449 0.40599zm-53.683-0.2929c-0.16605-0.20008-0.76753-1.5991-1.3366-3.1089l-1.0347-2.7451-3.1922-0.157-0.0762 2.4317c-0.0619 1.9746-0.16329 2.4865-0.53926 2.723-0.33727 0.21214-0.58878 0.21165-0.92604-2e-3 -0.41356-0.26175-0.46302-0.81275-0.46302-5.158 0-3.9453 0.0904-5.1577 0.47837-6.4137 0.59365-1.9219 1.4308-2.8169 2.6351-2.8169 1.5589 0 2.1615 0.96242 3.744 5.9797 0.77569 2.4592 1.723 5.236 2.1051 6.1706 0.76376 1.8681 0.85892 2.6609 0.37723 3.1426-0.42746 0.42745-1.3996 0.40205-1.7717-0.0463zm-3.2025-8.3159c0-0.11717-0.28403-1.0399-0.63118-2.0505l-0.63119-1.8375-0.31436 0.79375c-0.17289 0.43656-0.38169 1.3593-0.464 2.0505l-0.14964 1.2568h1.0952c0.60236 0 1.0952-0.0959 1.0952-0.21305zm42.743 7.7398c-1.1734-0.6119-2.9703-2.1322-5.0582-4.2796-1.029-1.0583-1.9477-1.9242-2.0416-1.9242-0.0939 0-0.2045 1.2672-0.2458 2.8161-0.0625 2.3423-0.15301 2.8651-0.53812 3.1075-0.33716 0.21219-0.58889 0.2121-0.92604-3.4e-4 -0.40696-0.25642-0.47181-0.84542-0.53558-4.864-0.0598-3.7683-5.7e-4 -4.6821 0.33683-5.197 0.45037-0.68735 1.0258-0.8053 1.4345-0.29407 2.7883 3.4876 7.9384 8.3984 8.8091 8.3998 0.24955 4.1e-4 0.58926-0.25254 0.75493-0.5621 0.49641-0.92754 0.61276-4.5876 0.24946-7.8471-0.34111-3.0604-0.34103-3.0615 0.26283-3.5504 1.5694-1.2708 2.3472 1.1434 2.3678 7.3492 0.0138 4.168-0.35674 5.8263-1.5036 6.7284-0.80754 0.63522-2.2759 0.68666-3.3665 0.11794zm-16.338-0.44916c-0.35606-0.28095-0.44645-1.4326-0.60063-7.6524l-0.18149-7.3217 0.5823-0.31164c0.4878-0.26107 0.66813-0.22581 1.1112 0.21723 0.49478 0.49478 0.53788 0.98523 0.66869 7.608 0.13154 6.6598 0.11098 7.1002-0.34709 7.4352-0.59939 0.43829-0.70677 0.44049-1.233 0.0253zm-14.226-0.58619c-0.17699-0.21326-0.48838-1.5796-0.69198-3.0362-0.2036-1.4567-0.72821-4.2579-1.1658-6.2249-0.87418-3.9295-0.96171-4.8733-0.4649-5.0125 0.1819-0.051 1.7027-0.40156 3.3795-0.77913 2.6029-0.58609 3.1957-0.64138 4.0535-0.3781 1.912 0.5868 2.9512 2.5773 2.5281 4.8422-0.45221 2.4206-2.1673 4.2223-4.6568 4.8921-0.69819 0.18784-1.3462 0.41327-1.4399 0.50096-0.0938 0.0877-0.0245 1.1437 0.15406 2.3467 0.27086 1.8253 0.26376 2.2741-0.0429 2.712-0.43342 0.61879-1.2002 0.68232-1.6528 0.13693zm3.0942-8.6184c1.2233-0.52863 2.1873-1.8129 2.1889-2.9164 1e-3 -0.71687-0.85477-1.8358-1.4041-1.8358-0.39486 0-3.867 0.95056-4.0158 1.0994-0.10625 0.10626 0.1905 1.6148 0.68421 3.4781 0.29565 1.1158 0.35891 1.1202 2.5469 0.17469zm-112.46-12.337c-0.097-0.097-0.17639-0.43738-0.17639-0.75636 0-0.47738 0.36319-0.72349 2.0531-1.3913 1.1292-0.44623 3.8379-1.3462 6.0193-1.9999 4.6125-1.3823 6.4553-1.5844 18.915-2.0744 7.8364-0.30816 9.6247-0.23384 9.8718 0.41029 0.36367 0.94771-0.19186 1.0634-5.4217 1.1296-2.9555 0.0374-8.0133 0.34664-11.991 0.73314-6.0295 0.58591-7.3367 0.79822-10.583 1.7189-2.0373 0.57773-4.5106 1.3555-5.4961 1.7284-1.777 0.67232-2.8514 0.84122-3.191 0.50161zm-37.549-0.63855c-1.147-0.66805-0.25081-1.7359 3.2412-3.862 0.94589-0.57592 3.089-1.8821 4.7625-2.9026 4.1969-2.5593 6.0334-3.5373 9.2604-4.9318 9.1798-3.9667 14.764-5.7049 27.781-8.6476 5.1623-1.167 10.528-1.6786 21.074-2.0096 5.1765-0.16247 5.3477-0.15119 5.887 0.38807 0.67679 0.67679 0.70217 1.1374 0.0924 1.6764-0.38377 0.33922-1.6858 0.43478-7.6068 0.55826-9.2621 0.19316-12.904 0.49799-17.595 1.4729-6.0174 1.2505-14.622 3.384-18.389 4.5595-3.3638 1.0498-12.384 4.6146-14.891 5.8852-2.0587 1.0432-10.083 5.9438-11.566 7.0632-1.5344 1.1585-1.4213 1.1171-2.0515 0.75006zm132.51-3.4845c-0.69575-0.66452-1.2128-1.7015-2.2756-4.5641-0.75643-2.0373-2.0164-5.2127-2.8-7.0564s-1.4246-3.5957-1.4246-3.8933c0-0.82838 0.88739-1.1853 1.5465-0.62201 0.49621 0.42409 2.7555 5.5354 5.2065 11.779 1.1863 3.0218 1.5139 3.0314 1.9718 0.0575 0.32373-2.1022 2.0483-9.0216 2.4234-9.7234 0.35164-0.65787 1.7187-0.61065 2.0841 0.072 0.22411 0.41876 0.0836 1.3058-0.64681 4.082-0.51322 1.9509-1.062 4.4188-1.2196 5.4843-0.37992 2.569-0.69551 3.513-1.4902 4.4575-0.93415 1.1102-2.1645 1.0836-3.3754-0.0729zm16.311 0.48125c-0.68197-0.31161-1.0707-0.82249-1.8092-2.3776l-0.94062-1.9807 0.0894-5.5029c0.0784-4.8248 0.15092-5.6045 0.58832-6.327 0.71325-1.1781 1.6247-1.619 3.7872-1.8321 2.5894-0.25514 3.7334-0.0175 3.9434 0.81911 0.27188 1.0832-0.23342 1.3638-2.6881 1.4926-1.4715 0.0772-2.3808 0.24936-2.6199 0.49594-0.24125 0.24876-0.43092 1.4058-0.55577 3.3904l-0.18953 3.0127 3.2215-0.19227c2.7395-0.16351 3.3189-0.12842 3.8728 0.23452 0.35825 0.23473 0.65136 0.64759 0.65136 0.91746 0 0.97089-0.60033 1.1182-4.2128 1.0335l-3.461-0.0811 2e-3 0.79375c3e-3 1.2288 0.50651 2.7565 1.1062 3.3561 0.4978 0.49779 0.74031 0.52825 2.876 0.36117 2.7304-0.21359 3.4251 0.0206 3.4251 1.1544 0 0.41362-0.16837 0.89178-0.37416 1.0626-0.61809 0.51297-5.6806 0.64071-6.7122 0.16937zm-46.273-0.44122c-0.8423-0.24381-2.8163-2.2246-3.3357-3.3473-0.31665-0.68436-0.71968-0.78813-0.71968-0.1853 0 0.7679-0.8007 1.9612-1.5897 2.3692-0.93029 0.48107-1.9808 0.30323-2.845-0.48162-0.79308-0.72026-5.3549-9.5565-5.3549-10.372 0-0.72029 0.8645-1.3224 1.4335-0.99842 0.37126 0.21136 2.6953 4.3765 4.1292 7.4001 0.42623 0.89881 0.89173 1.7064 1.0344 1.7946 0.32825 0.20286 0.97363-1.0278 1.2157-2.3181 0.22471-1.1978 1.1978-2.0367 2.3624-2.0367 0.78355 0 0.92831 0.15506 2.0379 2.1828 2.0318 3.713 2.5916 3.0919 2.9208-3.2411 0.20255-3.8965 0.28438-4.414 0.76151-4.8154 0.57629-0.48485 1.2374-0.38274 1.7655 0.27271 0.39618 0.4917 0.42811 4.4557 0.0681 8.4488-0.28662 3.1788-0.94805 4.9596-1.9891 5.3554-0.78819 0.29967-0.76456 0.30001-1.8949-0.0272zm11.172 0.049c-0.3397-0.54965-0.14348-9.9702 0.24533-11.778 0.58157-2.7046 1.9385-3.9526 3.4467-3.1701 1.0703 0.55529 1.6264 1.3943 2.264 3.4162 0.32125 1.0186 1.3503 3.6614 2.2868 5.8727 1.8639 4.4011 2.0245 5.4471 0.85728 5.583-0.83437 0.0972-1.2982-0.42043-2.0859-2.3276-0.33053-0.80037-0.68434-1.545-0.78624-1.6547-0.1019-0.1097-1.1016-0.122-2.2216-0.0273l-2.0363 0.17213v1.5661c0 0.86134-0.12325 1.7964-0.27389 2.0778-0.28124 0.5255-1.4258 0.70774-1.6963 0.27009zm5.0209-6.4249c0.2666-0.2666-1.8798-4.8428-2.2715-4.8428-0.42873 0-0.72773 1.4972-0.75954 3.8031l-0.0196 1.4218 1.4549-0.12066c0.8002-0.0663 1.5183-0.18402 1.5957-0.26148z" fill="#fff"/></g></svg>
