<svg width="615.8mm" height="131.71mm" version="1.1" viewBox="0 0 615.8 131.71" xml:space="preserve" xmlns="http://www.w3.org/2000/svg"><g transform="translate(-1506.8 764.25)"><path fill="#fff" d="m1731.6-633.17c-5.8125-0.86007-12.705-1.2-17.066-0.84175-3.3933 0.27878-14.58 0.34647-30.295 0.18329-4.2762-0.0444-8.259 0.0513-9.9219 0.23841-6.5952 0.74208-15.066 0.39583-22.976-0.93915-4.1805-0.70556-5.0244-0.71522-9.1864-0.1052-1.4727 0.21587-4.4584 0.26293-9.6573 0.15222-4.139-0.0881-12.829-0.24555-19.312-0.3498-10.615-0.17073-11.857-0.2359-12.497-0.65593-0.3912-0.2565-0.7917-0.78696-0.89-1.1788-0.098-0.39183-0.103-6.1422-0.01-12.779 0.1399-10.02 0.1015-12.49-0.2266-14.564-0.9416-5.9539-0.8706-6.9526 0.5363-7.5405 2.1871-0.91383 36.685-0.72784 50.142 0.27033 3.7509 0.27822 6.4097 0.30478 11.377 0.11364 3.5652-0.13718 20.889-0.25559 38.497-0.26313 17.608-8e-3 33.681-0.12586 35.719-0.26296 2.0373-0.13709 9.5601-0.3242 16.717-0.41581 14.552-0.18625 14.433-0.19798 14.895 1.4639 0.3333 1.1998 0.3392 16.909 0.01 18.557-0.132 0.65485-0.3219 4.8816-0.4219 9.3927-0.1957 8.817-0.2956 9.4396-1.5939 9.9332-0.3993 0.15183-6.5121 0.23825-15.267 0.21584-13.601-0.0348-14.873-0.0776-18.57-0.62462zm32.042-1.0885 1.5602-0.16304v-2.6812c0-1.4747 0.1786-6.7889 0.3968-11.809 0.2183-5.0205 0.3969-11.574 0.3969-14.564 0-6.0864-0.1388-6.6433-1.7349-6.9625-1.3467-0.26934-15.137-0.17924-22.078 0.14424-3.7097 0.17289-19.826 0.32092-38.762 0.35601-17.826 0.033-36.162 0.18906-40.746 0.34673-6.8465 0.2355-9.2318 0.2182-13.361-0.0969-8.5221-0.65024-23.805-0.99212-36.248-0.81089-10.589 0.15423-11.674 0.21082-11.996 0.62602-0.3952 0.50961-0.3518 1.3867 0.3625 7.3356 0.3615 3.01 0.3979 4.3983 0.1944 7.4083-0.1378 2.0373-0.1982 7.0974-0.1343 11.245l0.1162 7.5406 12.211 0.0322c6.7159 0.0177 15.128 0.11868 18.693 0.2244 4.5833 0.1359 7.0636 0.10013 8.4667-0.12211 3.9165-0.62038 6.8113-0.63113 9.7973-0.0364 6.9273 1.3798 17.984 1.8902 25.7 1.1864 3.8727-0.35325 6.7148-0.45519 10.143-0.36378 9.3571 0.24949 27.713 0.13062 29.786-0.1929 2.2893-0.35732 10.018 0.10435 16.384 0.97872 3.0447 0.41819 5.4697 0.49441 16.432 0.51649 7.0728 0.0143 13.562-0.0475 14.42-0.13713zm-100.24-9.2798c-0.2546-0.0666-0.463-0.23133-0.463-0.36618s-0.2296-0.24519-0.5103-0.24519c-1.2355 0-1.3318-0.46061-1.3242-6.3327 0.01-5.152 0.045-5.5859 0.5901-6.6516 0.7611-1.4883 1.7003-2.1422 3.2975-2.2957 3.3888-0.32561 4.8816 2.9047 2.5401 5.4964-0.489 0.54125-0.889 1.046-0.889 1.1218 0 0.0757 0.3096 0.2154 0.688 0.31037 1.0532 0.26436 2.1689 1.2027 2.4755 2.0821 0.708 2.031 0.01 4.6123-1.5526 5.7234-1.4903 1.0612-3.4401 1.5262-4.8521 1.1572zm2.3151-2.4319c1.7392-0.79863 2.4982-2.1056 1.9374-3.3363-0.3412-0.74896-1.2626-1.1852-2.9172-1.3812l-1.2691-0.15031v2.6827c0 2.6074 0.017 2.6825 0.5953 2.6769 0.3274-3e-3 1.0715-0.22451 1.6536-0.4918zm-0.7027-8.7479c0.7503-0.7194 1.3642-1.497 1.3642-1.7281 0-0.95351-1.8484-0.80769-2.4848 0.19603-0.4657 0.73456-0.8292 2.8401-0.4902 2.8401 0.1356 0 0.8604-0.5886 1.6108-1.308zm6.5078 9.9386c-0.236-0.94046 3.3629-13.671 4.0186-14.215 0.1958-0.16244 0.6404-0.22396 0.988-0.1367 0.5312 0.13332 0.8536 0.74014 2.0187 3.7999 1.9161 5.0319 2.6056 9.0696 1.7028 9.9723-0.87 0.86998-1.3038 0.38808-1.7098-1.8993l-0.3404-1.9182h-3.5227l-0.478 2.0505c-0.6262 2.6868-0.7956 2.9766-1.7397 2.9766-0.6002 0-0.8157-0.14476-0.9375-0.62985zm5.7061-7.964c-0.8399-2.4411-0.9254-2.4858-1.4152-0.74007-0.6111 2.1779-0.607 2.1902 0.7377 2.1902h1.1764zm5.4505 7.9107c-0.2924-0.76179-0.1483-5.7646 0.2264-7.8671 0.2028-1.1374 0.5623-2.3634 0.7989-2.7246 1.0428-1.5915 3.3408-2.1372 5.1641-1.2263 2.0381 1.0182 2.0006 3.9848-0.067 5.3305l-0.9752 0.63457 1.4457 1.5615c1.5066 1.6273 1.8135 2.2812 1.6681 3.5536-0.1592 1.3932-0.9942 1.1108-2.4619-0.83276-1.2886-1.7064-2.7331-3.0379-3.2957-3.0379-0.1751 0-0.2823 0.76017-0.2823 2.0018 0 1.101-0.1232 2.2321-0.2739 2.5135-0.3394 0.63427-1.7139 0.70011-1.9467 0.0932zm3.8105-7.9477c1.774-0.70984 1.9279-1.9526 0.2417-1.9526-0.8441 0-1.2405 0.41823-1.4662 1.5466-0.1936 0.96818-0.1865 0.97055 1.2245 0.40599zm222.12 19.61c-5.8124-0.86007-12.705-1.2-17.066-0.84175-3.3934 0.27878-14.58 0.34647-30.295 0.18329-4.2761-0.0444-8.2589 0.0513-9.9219 0.23841-6.5952 0.74208-15.066 0.39583-22.976-0.93915-4.1804-0.70556-5.0243-0.71522-9.1863-0.1052-1.4727 0.21587-4.4584 0.26293-9.6573 0.15222-4.139-0.0881-12.829-0.24555-19.312-0.3498-10.615-0.17073-11.857-0.2359-12.497-0.65593-0.3911-0.2565-0.7916-0.78696-0.89-1.1788-0.098-0.39183-0.103-6.1422-0.01-12.779 0.1398-10.02 0.1014-12.49-0.2266-14.564-0.9416-5.9539-0.8706-6.9526 0.5363-7.5405 2.1871-0.91383 36.685-0.72784 50.142 0.27033 3.7508 0.27822 6.4097 0.30478 11.377 0.11364 3.5653-0.13718 20.889-0.25559 38.497-0.26313 17.608-8e-3 33.682-0.12586 35.719-0.26296 2.0373-0.13709 9.5601-0.3242 16.717-0.41581 14.552-0.18625 14.433-0.19798 14.895 1.4639 0.3332 1.1998 0.3392 16.909 0.01 18.557-0.132 0.65485-0.3219 4.8816-0.422 9.3927-0.1956 8.817-0.2955 9.4396-1.5938 9.9332-0.3993 0.15183-6.5121 0.23825-15.267 0.21584-13.601-0.0348-14.873-0.0776-18.57-0.62462zm32.042-1.0885 1.5602-0.16304v-2.6812c0-1.4747 0.1786-6.7889 0.3969-11.809s0.3969-11.574 0.3969-14.564c0-6.0864-0.1388-6.6433-1.735-6.9625-1.3467-0.26934-15.137-0.17924-22.078 0.14424-3.7098 0.17289-19.826 0.32092-38.762 0.35601-17.826 0.033-36.162 0.18906-40.746 0.34673-6.8466 0.2355-9.2318 0.2182-13.362-0.0969-8.5221-0.65024-23.805-0.99212-36.248-0.81089-10.589 0.15423-11.674 0.21082-11.996 0.62602-0.3951 0.50961-0.3518 1.3867 0.3626 7.3356 0.3614 3.01 0.3978 4.3983 0.1943 7.4083-0.1377 2.0373-0.1981 7.0974-0.1342 11.245l0.1161 7.5406 12.211 0.0322c6.7159 0.0177 15.128 0.11868 18.693 0.2244 4.5833 0.1359 7.0636 0.10013 8.4666-0.12211 3.9165-0.62038 6.8114-0.63113 9.7973-0.0364 6.9274 1.3798 17.984 1.8902 25.7 1.1864 3.8727-0.35325 6.7149-0.45519 10.143-0.36378 9.357 0.24949 27.713 0.13062 29.786-0.1929 2.2893-0.35732 10.018 0.10435 16.384 0.97872 3.0447 0.41819 5.4696 0.49441 16.432 0.51649 7.0728 0.0143 13.562-0.0475 14.42-0.13713zm-94.515-10.661c-1.3165-0.80276-1.4977-1.6835-1.6254-7.9025-0.091-4.4085-0.04-5.7208 0.2335-6.0503 0.2795-0.33677 0.7304-0.39627 2.2596-0.29813 2.8715 0.18428 4.1028 1.2358 4.1028 3.5039 0 1.3382-1.0037 3.3663-1.9045 3.8484-0.6999 0.37454-0.6563 0.69795 0.1202 0.89284 1.0521 0.26407 2.1956 1.4052 2.377 2.372 0.2478 1.3206-0.3496 2.8248-1.4036 3.5341-1.1382 0.76593-2.9941 0.81043-4.1596 0.0997zm3.0214-2.1935c0.6542-0.65426 0.3463-1.2764-0.8951-1.8086-0.6669-0.28587-1.2778-0.51976-1.3575-0.51976-0.246 0 0.1447 1.877 0.473 2.2726 0.3788 0.45647 1.3485 0.48686 1.7796 0.0558zm-0.9007-7.1663c0.7023-1.1144 0.748-1.7176 0.1734-2.2923-0.2985-0.29848-0.7809-0.5427-1.0719-0.5427-0.4824 0-0.5292 0.17639-0.5292 1.9937 0 1.9117 0.022 1.982 0.5292 1.7105 0.291-0.15576 0.6953-0.54691 0.8985-0.86921zm16.445 8.2114c-0.1949-0.63151-0.5234-6.1668-0.5276-8.8901v-2.7386l0.8586-0.76715c1.2505-1.1174 2.7114-1.0756 3.8985 0.11157 1.6088 1.6088 1.445 4.1678-0.3439 5.3733-0.6011 0.40508-0.7395 0.61379-0.4745 0.71549 0.2058 0.079 0.8799 0.81337 1.498 1.632 0.8867 1.1745 1.1283 1.7221 1.1453 2.596 0.019 0.9914-0.048 1.1156-0.6398 1.1843-0.5426 0.063-0.8962-0.23425-1.9674-1.6536-0.7183-0.95173-1.3389-1.7304-1.3792-1.7304-0.04 0 0 0.75318 0.083 1.6737 0.1941 2.0791-0.1362 2.8242-1.2522 2.8242-0.436 0-0.8387-0.14883-0.8948-0.33073zm2.2527-8.939c0.5634-0.3015 0.6863-1.1745 0.2071-1.4707-0.3633-0.2245-1.0182 0.58983-1.0182 1.266 0 0.55283 0.1092 0.58038 0.8111 0.20471zm-12.4 8.6876c-0.4233-0.42321-0.3869-2.5111 0.089-5.1065 0.2134-1.1642 0.5701-3.1882 0.7926-4.4979 0.5238-3.0831 0.7382-3.5719 1.5672-3.5719 0.8879 0 1.2835 0.66526 2.7944 4.6997 1.756 4.6889 2.3274 7.0252 1.857 7.5921-0.6189 0.74577-1.3782 0.38598-1.8344-0.8692-0.385-1.0595-0.4732-1.1337-1.1807-0.99219-0.4205 0.0841-1.0474 0.15292-1.393 0.15292-0.544 0-0.6284 0.12674-0.6284 0.94344 0 0.51889-0.1232 1.1737-0.2739 1.4552-0.3061 0.57206-1.3038 0.68034-1.7898 0.19427zm4.0484-5.4372c-0.1037-0.25466-0.3734-0.99147-0.5993-1.6374-0.4561-1.304-0.6221-1.1384-0.978 0.9759l-0.1893 1.1245h0.9776c0.8265 0 0.9484-0.0716 0.789-0.46302zm226.22 18.586c-5.8124-0.86007-12.705-1.2-17.066-0.84175-3.3934 0.27878-14.58 0.34647-30.295 0.18329-4.2761-0.0444-8.2589 0.0513-9.9219 0.23841-6.5951 0.74208-15.066 0.39583-22.976-0.93915-4.1804-0.70556-5.0243-0.71522-9.1863-0.1052-1.4727 0.21587-4.4584 0.26293-9.6573 0.15222-4.139-0.0881-12.829-0.24555-19.312-0.3498-10.615-0.17073-11.857-0.2359-12.497-0.65593-0.3911-0.2565-0.7916-0.78696-0.89-1.1788-0.098-0.39183-0.103-6.1422-0.01-12.779 0.1399-10.02 0.1014-12.49-0.2266-14.564-0.9416-5.9539-0.8706-6.9526 0.5363-7.5405 2.1871-0.91383 36.685-0.72784 50.142 0.27033 3.7508 0.27822 6.4097 0.30478 11.377 0.11364 3.5653-0.13718 20.889-0.25559 38.497-0.26313 17.608-8e-3 33.682-0.12586 35.719-0.26296 2.0373-0.13709 9.5601-0.3242 16.717-0.41581 14.552-0.18625 14.433-0.19798 14.895 1.4639 0.3332 1.1998 0.3392 16.909 0.01 18.557-0.132 0.65485-0.3219 4.8816-0.422 9.3927-0.1956 8.817-0.2955 9.4396-1.5938 9.9332-0.3993 0.15183-6.5121 0.23825-15.267 0.21584-13.601-0.0348-14.873-0.0776-18.57-0.62462zm32.042-1.0885 1.5601-0.16304v-2.6812c0-1.4747 0.1786-6.7889 0.3969-11.809s0.3969-11.574 0.3969-14.564c0-6.0864-0.1388-6.6433-1.735-6.9625-1.3467-0.26934-15.137-0.17924-22.078 0.14424-3.7098 0.17289-19.826 0.32092-38.762 0.35601-17.826 0.033-36.162 0.18906-40.746 0.34673-6.8466 0.2355-9.2318 0.2182-13.362-0.0969-8.5221-0.65024-23.805-0.99212-36.248-0.81089-10.589 0.15423-11.674 0.21082-11.996 0.62602-0.3951 0.50961-0.3518 1.3867 0.3626 7.3356 0.3614 3.01 0.3979 4.3983 0.1943 7.4083-0.1377 2.0373-0.1981 7.0974-0.1342 11.245l0.1161 7.5406 12.211 0.0322c6.7159 0.0177 15.128 0.11868 18.693 0.2244 4.5833 0.1359 7.0636 0.10013 8.4666-0.12211 3.9165-0.62038 6.8114-0.63113 9.7973-0.0364 6.9274 1.3798 17.984 1.8902 25.7 1.1864 3.8727-0.35325 6.7149-0.45519 10.143-0.36378 9.357 0.24949 27.713 0.13062 29.786-0.1929 2.2893-0.35732 10.018 0.10435 16.384 0.97872 3.0447 0.41819 5.4696 0.49441 16.432 0.51649 7.0728 0.0143 13.562-0.0475 14.42-0.13713zm-89.041-10.086c-0.4989-0.25637-1.1225-0.76378-1.3857-1.1276-1.2857-1.7775-2.6973-12.29-1.7961-13.376 0.614-0.73984 4.1449-0.0803 5.8329 1.0895 2.106 1.4594 2.2695 4.0811 0.35 5.6126-0.9893 0.78942-1.1302 1.1176-0.4799 1.1176 0.2329 0 0.8282 0.40481 1.3229 0.89958 0.7651 0.76509 0.8996 1.0835 0.8996 2.1298 0 1.4564-0.5102 2.555-1.5173 3.2668-1.1266 0.79631-2.1837 0.9233-3.2264 0.38759zm2.1749-2.7649c0.7133-0.95537 0.2876-1.6297-1.2511-1.9818-0.6639-0.15194-1.2072-0.20269-1.2072-0.11277 0 0.54917 0.5825 2.0293 0.9649 2.4518 0.5444 0.60152 0.8283 0.53359 1.4934-0.35726zm-1.7921-5.9494c1.2499-0.83932 1.4411-1.0861 1.4465-1.8668 0-0.42285-0.2928-0.74133-1.0438-1.1245-1.7661-0.90102-1.8626-0.81906-1.8626 1.5821 0 1.1642 0.091 2.1167 0.2032 2.1167 0.1117 0 0.6772-0.31839 1.2567-0.70754zm5.7368 8.5921c-1.0407-1.0407 0.497-9.8224 2.3652-13.507 0.4018-0.79251 0.6529-0.99218 1.248-0.99218 0.6743 0 0.8726 0.24507 2.0874 2.5797 0.8747 1.6811 1.6732 3.7728 2.2923 6.0049 1.229 4.431 1.2342 5.4384 0.028 5.4384-0.8229 0-1.0723-0.37603-1.6241-2.449l-0.4759-1.7876-1.7301 0.17012c-0.9516 0.0936-1.7794 0.21293-1.8395 0.26525-0.06 0.0523-0.1814 0.95877-0.2696 2.0143-0.088 1.0556-0.2544 2.068-0.3694 2.25-0.2658 0.4206-1.297 0.42857-1.7123 0.0132zm5.2387-6.9434c0-0.0644-0.3228-0.98717-0.7174-2.0505l-0.7175-1.9334-0.457 1.4552c-0.7566 2.4092-0.6939 2.6458 0.7013 2.6458 0.6548 0 1.1906-0.0527 1.1906-0.11715zm5.4429 6.0514c-0.3303-0.33028-0.4291-1.16-0.4806-4.0349-0.1469-8.2006-0.1342-8.2718 1.6488-9.2739 1.2865-0.72305 2.5049-0.71312 3.9784 0.0324 1.5388 0.77859 2.0885 2.0495 1.5967 3.691-0.3235 1.0799-1.2499 2.226-2.2478 2.7811-0.4795 0.26673-0.4323 0.37439 0.7306 1.6678 1.2494 1.3896 1.6277 2.1899 1.4561 3.0808-0.1931 1.0024-0.9855 0.64438-2.8393-1.2828l-1.8606-1.9344-0.01 2.4285c-0.01 2.4728-0.2982 3.26-1.1991 3.26-0.1975 0-0.5462-0.1871-0.7748-0.41577zm3.9763-9.5596c0.3493-0.32048 0.635-0.75238 0.635-0.95979 0-0.99901-1.9288-1.4186-2.5591-0.55671-0.1932 0.26429-0.3513 1.0598-0.3513 1.7678v1.2873l0.8202-0.47798c0.4512-0.26288 1.106-0.74018 1.4552-1.0606zm-467.77 14.297c-0.4485-0.44844-0.024-1.8485 1.7107-5.6444 3.4086-7.4581 4.5785-12.016 4.423-17.231-0.085-2.8436-0.1449-3.155-0.7296-3.7772-0.3504-0.373-0.855-0.74732-1.1213-0.83184-1.1706-0.37152-3.3567 1.9641-3.9621 4.233-0.5444 2.0407-0.6953 2.2616-1.5447 2.2616-0.6284 0-0.8294-0.13934-0.9618-0.66688-0.3499-1.3942 0.971-4.7834 2.5773-6.6129 1.6022-1.8248 3.4061-2.1905 5.5276-1.1207 0.9058 0.45679 1.3325 0.90217 1.8337 1.914 0.6071 1.2255 0.6509 1.5807 0.6203 5.0271-0.048 5.3867-1.2756 10.45-3.8868 16.027l-1.1694 2.4979 1.0976 0.17118c0.6037 0.0942 1.9311 0.48857 2.9497 0.8765 1.1849 0.45122 2.1235 0.65219 2.6055 0.55786 1.2338-0.24144 2.0247 0.0786 2.0247 0.81927 0 0.51541-0.2489 0.75776-1.2191 1.1869-1.3357 0.59086-1.6602 0.55233-4.7006-0.5582-1.7814-0.65065-2.7527-0.54903-4.0245 0.42104-0.8 0.6102-1.6939 0.80644-2.0502 0.4501zm-60.236-1.0138c-0.2532-0.30502-0.2987-2.3024-0.1973-8.6651 0.1163-7.3076 0.1963-8.5095 0.6879-10.34 1.746-6.5013 4.0571-8.0882 7.268-4.9905 1.2 1.1577 1.766 2.3755 1.766 3.8 0 1.9945-1.5726 4.2326-3.6385 5.1784l-1.4461 0.66205 2.5165 2.5471c2.8522 2.8869 3.4116 3.8458 4.4214 7.5787 0.8008 2.9607 0.7188 3.832-0.3609 3.832-0.7145 0-1.017-0.58535-1.9839-3.8382-0.6655-2.2394-1.7131-3.9504-3.7614-6.1438-0.8462-0.9062-1.8542-2.1862-2.2399-2.8443-0.3858-0.65818-0.8084-1.1305-0.9393-1.0496-0.138 0.0853-0.1658 2.948-0.066 6.8202 0.1852 7.1963 0.095 7.8495-1.0776 7.8495-0.3409 0-0.7678-0.17838-0.9487-0.3964zm3.5904-16.709c2.3783-0.79614 3.5529-2.0422 3.5529-3.769 0-1.7099-2.1394-2.914-3.0467-1.7146-0.5291 0.6994-2.2049 5.92-1.9003 5.92 0.05 0 0.677-0.19642 1.3941-0.43649zm-10.403 16.51c-0.3592-0.45253-0.5391-1.5728-0.9917-6.1733-0.2135-2.1708-0.5667-5.2567-0.7849-6.8574-0.2181-1.6007-0.399-4.5582-0.4018-6.5722l-0.01-3.6618-1.7859 0.0531c-2.6052 0.0774-2.6858 0.0586-2.8688-0.67049-0.3444-1.3724-0.01-1.4521 6.0762-1.4477 3.0745 2e-3 5.7492 0.10499 5.9439 0.22836 0.1946 0.12337 0.3137 0.5069 0.2645 0.85229-0.1019 0.71716-1.1037 0.99043-3.7273 1.0167l-1.5213 0.0152v4.9609c8e-4 2.7285 0.1221 5.6753 0.2694 6.5484 0.6879 4.0779 1.2612 10.531 1.0016 11.275-0.28 0.8032-1.0064 1.0168-1.4702 0.43234zm21.198-0.63538c-0.097-0.38584-0.1087-2.7885-0.026-5.3392 0.1248-3.8605 0.08-4.8128-0.2682-5.6826-0.3265-0.8161-0.3508-1.1524-0.1111-1.5363 0.1718-0.27503 0.3076-1.5127 0.3085-2.8102 0-2.2404 0.4425-5.8575 1.0649-8.7353 0.2472-1.143 0.4179-1.419 0.9622-1.5556 0.5447-0.13671 0.8943 0.0621 1.9775 1.125 2.902 2.8473 4.3845 7.6736 5.3891 17.544 0.5941 5.8361 0.6189 6.523 0.2554 7.0776-0.4456 0.6802-0.9753 0.78801-1.393 0.28352-0.3938-0.47572-0.7817-2.9613-1.1247-7.2056-0.1644-2.0349-0.3553-3.7911-0.4243-3.9026-0.1527-0.24721-1.7029-0.26227-3.377-0.0328l-1.2401 0.16998 0.1845 5.2452c0.2023 5.749 0.139 6.0565-1.2451 6.0565-0.5976 0-0.7932-0.14722-0.9323-0.70152zm6.2514-13.234c0-0.81421-1.5764-5.9122-2.3179-7.496l-0.929-1.9844-0.241 0.92604c-0.1326 0.50932-0.3248 2.6824-0.4271 4.829l-0.1861 3.9029 2.0505-3e-4c1.1278-1.7e-4 2.0506-0.0799 2.0506-0.17725zm8.0663 13.64c-1.5588-0.75844-2.414-3.3107-3.4776-10.379-0.9083-6.036-1.0192-11.521-0.2721-13.457 1.0569-2.739 3.6871-3.7355 5.5251-2.0933 0.7777 0.69491 0.826 0.82529 0.539 1.4552-0.3613 0.793-1.0927 0.89558-2.0259 0.28414-0.5673-0.37173-0.6633-0.36681-1.0858 0.0557-1.7159 1.7159-1.7745 5.516-0.2381 15.433 0.4502 2.9062 1.3372 5.7996 1.8366 5.9913 0.1898 0.0728 0.7071-0.0548 1.1496-0.2836 1.1072-0.57256 1.8189-0.52479 2.0287 0.13616 0.2774 0.87386-0.1073 2.3056-0.7382 2.7475-0.6417 0.44946-2.4191 0.50954-3.2413 0.10956zm7.6058-0.30039c-0.3599-0.44465-0.5744-3.2608-0.8616-11.311-0.1801-5.0493-0.3733-7.346-0.7679-9.1281-0.7362-3.325-0.9808-6.3588-0.554-6.873 0.4686-0.56461 1.5207-0.50272 1.8479 0.10872 0.1506 0.28147 0.2739 1.2415 0.2739 2.1335 0 1.8124 0.7529 7.1584 1.0552 7.4916 0.1072 0.11822 0.5876-0.77475 1.0675-1.9844 0.48-1.2096 1.2757-3.0625 1.7683-4.1176 0.7387-1.5821 1.0044-1.9182 1.5167-1.9182 0.3416 0 0.6956 0.19415 0.7866 0.43144 0.1606 0.41831-0.4623 2.4553-1.4761 4.8276-0.3863 0.90396-0.4381 1.3394-0.2361 1.9844 0.1423 0.45448 0.5768 2.5527 0.9655 4.6628 0.3888 2.1101 1.053 5.2611 1.4761 7.0024s0.8399 3.842 0.9263 4.6684c0.1421 1.36 0.1019 1.532-0.4238 1.8134-0.847 0.45328-1.2143 0.0149-1.6017-1.9116-0.1825-0.90791-0.8676-3.9725-1.5225-6.8101-0.6548-2.8376-1.2497-5.4273-1.322-5.7547-0.1967-0.89161-0.4041-0.73049-1.085 0.84292-0.6091 1.4073-0.6156 1.5199-0.4277 7.3496 0.1734 5.3816 0.1497 5.9615-0.2603 6.3715-0.5373 0.53726-0.7867 0.56347-1.1453 0.12034zm18.555-5.6926c-0.3596-0.23206-0.8858-2.0235-0.8879-3.023 0-0.95037-0.1763-1.0083-1.6886-0.56051l-1.2903 0.38202 0.1557 1.1361c0.1878 1.3702-0.2334 2.0947-1.1407 1.9623-0.497-0.0725-0.6847-0.33598-0.9132-1.2819-0.2354-0.97439-0.3834-1.1736-0.8148-1.0966-1.3695 0.2442-2.3287 0.14913-2.5877-0.25648-0.4333-0.67854-0.023-1.2787 1.2636-1.8478 1.0937-0.48381 1.1937-0.60719 1.1937-1.4726 0-0.87458-0.049-0.93243-0.6614-0.78137-0.3638 0.0897-0.9598 0.23668-1.3245 0.32657-1.4402 0.35502-2.0548-1.4302-0.7261-2.1091 0.4002-0.2045 1.1146-0.45514 1.5875-0.55699 0.8051-0.17337 0.8599-0.25639 0.8599-1.3019 0-1.2532 0.3513-1.7517 1.2343-1.7517 0.6519 0 1.147 0.6899 1.147 1.5984 0 0.41637 0.1158 0.53043 0.42 0.4137 0.231-0.0886 0.8858-0.23566 1.4552-0.32671 1.012-0.16182 1.0352-0.19026 1.0352-1.2694 0-1.241 0.3534-1.7389 1.2342-1.7389 0.6708 0 1.1471 0.6949 1.1471 1.6737 0 0.47285 0.1804 0.69544 0.6614 0.81618 0.9339 0.2344 0.9233 1.3924-0.016 1.7495-0.5853 0.22254-0.6663 0.39255-0.5953 1.2502 0.069 0.83627 0.1864 1.0043 0.7436 1.0667 1.6693 0.18692 1.8885 0.3148 1.8026 1.0512-0.068 0.58235-0.2671 0.75322-1.1084 0.951l-1.0256 0.2411 0.1765 1.9474c0.2263 2.4969-0.2546 3.5072-1.337 2.8088zm-2.7544-5.9048 1.3359-0.28651v-1.1865c0-1.0048-0.071-1.166-0.463-1.0522-0.2547 0.0739-0.9691 0.26511-1.5875 0.4249-0.6185 0.15979-1.1245 0.39012-1.1245 0.51184 0 0.39753 0.3285 1.875 0.4169 1.875 0.047 0 0.6874-0.12893 1.4222-0.2865zm139.85-27.254c-4.5112-0.10518-9.0355-0.31749-10.054-0.4718-1.0186-0.15431-3.5785-0.28835-5.6885-0.29787-2.1101-0.01-4.6699-0.12915-5.6886-0.26584-6.2175-0.8343-6.4119-0.84282-9.8617-0.43187-7.3709 0.87806-10.663 0.95982-37.895 0.94108-23.34-0.0161-27.852-0.0805-30.559-0.43612-1.7467-0.22949-4.8427-0.43879-6.88-0.4651-4.0085-0.0518-4.743-0.17911-5.039-0.87358-0.6837-1.6043-1.0248-36.194-0.3648-36.99 0.2549-0.30707 1.9046-0.37252 9.3887-0.37252 8.4836 0 9.3318 0.0434 12.923 0.66146 3.2381 0.55732 4.7297 0.66453 9.4751 0.68097 3.0975 0.0107 7.4773 0.12253 9.7329 0.24844 13.431 0.74976 18.301 0.83466 23.812 0.41514 11.433-0.87023 56.931-0.5632 59.468 0.40131 1.1511 0.43768 1.4169 1.689 1.1304 5.3232-0.4793 6.0804-0.8119 15.403-0.807 22.618 0 4.8842-0.093 7.4128-0.3004 7.8674-0.4013 0.88067-2.2278 1.7492-3.5486 1.6874-0.5725-0.0268-4.7319-0.13476-9.243-0.23995zm10.937-2.2006c0.3477-0.34771 0.4236-1.5102 0.4892-7.4939 0.043-3.8953 0.2031-9.8208 0.3563-13.168s0.3033-7.5103 0.3334-9.2517c0.054-3.1398 0.049-3.169-0.6066-3.4844-0.3994-0.1921-3.5433-0.45753-7.9375-0.67014-9.3385-0.45184-43.165-0.37286-47.493 0.11089-3.4746 0.38839-16.242 0.36497-21.06-0.0386-1.833-0.15354-7.1908-0.35152-11.906-0.43996-7.2318-0.13563-9.2063-0.26085-12.617-0.80018-3.679-0.58173-4.8326-0.63938-12.795-0.63938h-8.7513l0.2271 0.7276c0.1249 0.40018 0.238 6.0854 0.2514 12.634 0.013 6.5484 0.1324 14.088 0.2646 16.754l0.2403 4.8481 3.5719 0.0748c1.9645 0.0411 4.9411 0.26941 6.6146 0.50728 2.663 0.37853 6.5584 0.43245 31.221 0.43216 27.862-3.4e-4 30.921-0.0766 38.1-0.95044 3.47-0.42235 3.6838-0.41869 7.4974 0.12812 2.3096 0.33117 5.3047 0.56581 7.276 0.57003 1.8428 4e-3 4.4816 0.13309 5.8641 0.28699 3.104 0.34557 18.321 0.6981 19.55 0.45291 0.4935-0.0984 1.0824-0.36417 1.3087-0.59053zm-74.469-9.393c-1.3165-0.80277-1.4977-1.6835-1.6254-7.9025-0.091-4.4085-0.04-5.7208 0.2335-6.0503 0.2795-0.33678 0.7305-0.39627 2.2596-0.29814 2.8715 0.18428 4.1028 1.2358 4.1028 3.5039 0 1.3382-1.0037 3.3663-1.9045 3.8484-0.6999 0.37454-0.6563 0.69795 0.1202 0.89283 1.0521 0.26408 2.1957 1.4052 2.377 2.372 0.2478 1.3206-0.3496 2.8248-1.4036 3.5341-1.1382 0.76593-2.9941 0.81043-4.1596 0.0997zm3.0214-2.1935c0.6542-0.65426 0.3463-1.2764-0.8951-1.8086-0.6669-0.28587-1.2778-0.51977-1.3575-0.51977-0.246 0 0.1447 1.877 0.473 2.2726 0.3788 0.45647 1.3485 0.48685 1.7796 0.0558zm-0.9007-7.1663c0.7023-1.1144 0.748-1.7176 0.1734-2.2923-0.2985-0.29849-0.7809-0.5427-1.0719-0.5427-0.4824 0-0.5292 0.17639-0.5292 1.9937 0 1.9117 0.022 1.982 0.5292 1.7105 0.291-0.15576 0.6954-0.5469 0.8985-0.8692zm16.181 8.2114c-0.1949-0.63152-0.5234-6.1668-0.5276-8.8901v-2.7386l0.8586-0.76715c1.2505-1.1174 2.7114-1.0756 3.8985 0.11157 1.6088 1.6088 1.445 4.1678-0.3438 5.3733-0.6011 0.40509-0.7396 0.6138-0.4746 0.71549 0.2058 0.079 0.8799 0.81338 1.498 1.632 0.8867 1.1745 1.1283 1.7221 1.1454 2.596 0.019 0.99139-0.048 1.1156-0.6399 1.1843-0.5426 0.063-0.8962-0.23425-1.9674-1.6536-0.7183-0.95174-1.3389-1.7304-1.3791-1.7304-0.04 0 0 0.75318 0.083 1.6737 0.1942 2.0791-0.1362 2.8242-1.2522 2.8242-0.436 0-0.8386-0.14883-0.8948-0.33073zm2.2528-8.939c0.5633-0.30149 0.6862-1.1745 0.207-1.4707-0.3632-0.22451-1.0182 0.58983-1.0182 1.266 0 0.55283 0.1092 0.58038 0.8112 0.2047zm-12.4 8.6876c-0.4232-0.42321-0.3868-2.5111 0.089-5.1065 0.2135-1.1642 0.5701-3.1882 0.7926-4.4979 0.5238-3.0831 0.7382-3.5719 1.5672-3.5719 0.8879 0 1.2835 0.66525 2.7944 4.6997 1.756 4.6889 2.3275 7.0252 1.857 7.592-0.5924 0.71379-1.3529 0.38377-1.803-0.78242-0.2247-0.58208-0.4349-1.094-0.4672-1.1377-0.032-0.0436-0.6679 1e-3 -1.4125 0.10023-1.3312 0.1766-1.3538 0.19474-1.3538 1.0889 0 0.50014-0.1232 1.1396-0.2739 1.4211-0.3061 0.57206-1.3037 0.68035-1.7898 0.19428zm4.0484-5.4372c-0.1037-0.25466-0.3734-0.99147-0.5993-1.6374-0.4561-1.304-0.6221-1.1384-0.978 0.9759l-0.1893 1.1245h0.9776c0.8265 0 0.9485-0.0716 0.789-0.46302zm184.68 18.431c-4.5112-0.10518-9.0355-0.31749-10.054-0.4718-1.0186-0.15431-3.5785-0.28835-5.6885-0.29787-2.1101-0.01-4.6699-0.12915-5.6886-0.26584-6.2175-0.8343-6.4119-0.84282-9.8616-0.43187-7.371 0.87806-10.663 0.95982-37.895 0.94108-23.34-0.0161-27.852-0.0805-30.559-0.43612-1.7467-0.22949-4.8427-0.43879-6.88-0.4651-4.0085-0.0518-4.743-0.17911-5.039-0.87358-0.6837-1.6043-1.0248-36.194-0.3648-36.99 0.2549-0.30707 1.9046-0.37252 9.3887-0.37252 8.4836 0 9.3318 0.0434 12.923 0.66146 3.2381 0.55732 4.7298 0.66453 9.4751 0.68097 3.0975 0.0107 7.4773 0.12253 9.7329 0.24844 13.431 0.74976 18.301 0.83466 23.812 0.41514 11.433-0.87023 56.931-0.5632 59.468 0.40131 1.1511 0.43768 1.4169 1.689 1.1304 5.3232-0.4793 6.0804-0.8119 15.403-0.807 22.618 0 4.8842-0.093 7.4128-0.3004 7.8674-0.4013 0.88067-2.2278 1.7492-3.5486 1.6874-0.5725-0.0268-4.7319-0.13476-9.243-0.23995zm10.937-2.2006c0.3477-0.34771 0.4236-1.5102 0.4892-7.4939 0.043-3.8953 0.2031-9.8208 0.3563-13.168s0.3033-7.5103 0.3335-9.2517c0.054-3.1398 0.049-3.169-0.6066-3.4844-0.3995-0.1921-3.5434-0.45753-7.9375-0.67014-9.3386-0.45184-43.165-0.37286-47.493 0.11089-3.4746 0.38839-16.242 0.36497-21.06-0.0386-1.833-0.15354-7.1908-0.35152-11.906-0.43996-7.2318-0.13563-9.2063-0.26085-12.617-0.80018-3.679-0.58173-4.8326-0.63938-12.795-0.63938h-8.7513l0.2271 0.7276c0.1249 0.40018 0.238 6.0854 0.2514 12.634 0.013 6.5484 0.1324 14.088 0.2646 16.754l0.2403 4.8481 3.5719 0.0748c1.9645 0.0411 4.9411 0.26941 6.6146 0.50728 2.663 0.37853 6.5584 0.43245 31.221 0.43216 27.862-3.4e-4 30.921-0.0766 38.1-0.95044 3.47-0.42235 3.6838-0.41869 7.4974 0.12812 2.3096 0.33117 5.3047 0.56581 7.276 0.57003 1.8428 4e-3 4.4817 0.13309 5.8641 0.28699 3.104 0.34557 18.321 0.6981 19.55 0.45291 0.4934-0.0984 1.0823-0.36417 1.3086-0.59053zm-74.021-9.6123c-0.499-0.25636-1.1226-0.76377-1.3857-1.1276-1.2857-1.7775-2.6974-12.29-1.7962-13.376 0.6141-0.73985 4.1449-0.0804 5.833 1.0895 2.1059 1.4594 2.2694 4.0811 0.35 5.6126-0.9894 0.78942-1.1303 1.1176-0.4799 1.1176 0.2328 0 0.8281 0.40482 1.3229 0.89959 0.7651 0.76509 0.8996 1.0835 0.8996 2.1298 0 1.4565-0.5103 2.555-1.5174 3.2669-1.1266 0.79631-2.1837 0.9233-3.2263 0.38758zm2.1749-2.7649c0.7132-0.95537 0.2875-1.6297-1.2511-1.9818-0.664-0.15193-1.2072-0.20268-1.2072-0.11277 0 0.54918 0.5824 2.0293 0.9648 2.4518 0.5444 0.60152 0.8283 0.53359 1.4935-0.35726zm-1.7921-5.9494c1.2498-0.83933 1.441-1.0861 1.4464-1.8668 0-0.42285-0.2927-0.74134-1.0438-1.1245-1.7661-0.90102-1.8626-0.81906-1.8626 1.5821 0 1.1642 0.091 2.1167 0.2032 2.1167 0.1117 0 0.6773-0.31839 1.2568-0.70754zm5.7367 8.8567c-1.0407-1.0407 0.4971-9.8224 2.3652-13.507 0.4018-0.79251 0.653-0.99218 1.248-0.99218 0.6743 0 0.8726 0.24507 2.0874 2.5797 0.8747 1.6811 1.6732 3.7728 2.2923 6.0049 1.229 4.431 1.2342 5.4384 0.028 5.4384-0.8229 0-1.0722-0.37603-1.6241-2.449l-0.4759-1.7876-1.7301 0.17012c-0.9516 0.0936-1.7794 0.21293-1.8394 0.26525-0.06 0.0523-0.1815 0.95877-0.2696 2.0143-0.088 1.0556-0.2545 2.068-0.3694 2.25-0.2659 0.4206-1.2971 0.42857-1.7124 0.0132zm5.2387-6.9434c0-0.0644-0.3228-0.98717-0.7174-2.0505l-0.7174-1.9334-0.4571 1.4552c-0.7566 2.4092-0.6939 2.6458 0.7013 2.6458 0.6549 0 1.1906-0.0527 1.1906-0.11715zm5.7075 5.7868c-0.3303-0.33028-0.4291-1.16-0.4806-4.0349-0.1469-8.2006-0.1342-8.2718 1.6488-9.2739 1.2865-0.72305 2.5049-0.71313 3.9784 0.0324 1.5388 0.77859 2.0886 2.0495 1.5967 3.691-0.3235 1.0799-1.2498 2.226-2.2477 2.7811-0.4796 0.26673-0.4324 0.37439 0.7305 1.6678 1.2494 1.3896 1.6277 2.1899 1.4561 3.0808-0.1931 1.0024-0.9855 0.64437-2.8393-1.2828l-1.8606-1.9344-0.01 2.4285c-0.01 2.4728-0.2982 3.26-1.1991 3.26-0.1975 0-0.5461-0.1871-0.7748-0.41577zm3.9763-9.5596c0.3493-0.32047 0.635-0.75238 0.635-0.95979 0-0.99901-1.9288-1.4186-2.5591-0.5567-0.1932 0.26429-0.3513 1.0598-0.3513 1.7678v1.2873l0.8202-0.47798c0.4512-0.26289 1.106-0.74018 1.4552-1.0607zm173.8 22.387c-4.5112-0.10518-9.0355-0.31749-10.054-0.4718-1.0186-0.15431-3.5785-0.28835-5.6885-0.29787-2.1101-0.01-4.6699-0.12915-5.6886-0.26584-6.2175-0.8343-6.4119-0.84282-9.8616-0.43187-7.371 0.87806-10.663 0.95982-37.895 0.94108-23.34-0.0161-27.852-0.0805-30.559-0.43612-1.7467-0.22949-4.8427-0.43879-6.88-0.4651-4.0085-0.0518-4.743-0.17911-5.039-0.87358-0.6837-1.6043-1.0248-36.194-0.3648-36.99 0.2549-0.30707 1.9046-0.37252 9.3887-0.37252 8.4836 0 9.3318 0.0434 12.923 0.66146 3.2381 0.55732 4.7298 0.66453 9.4751 0.68097 3.0975 0.0107 7.4773 0.12253 9.7329 0.24844 13.431 0.74976 18.301 0.83466 23.812 0.41514 11.433-0.87023 56.931-0.5632 59.468 0.40131 1.1511 0.43768 1.4169 1.689 1.1304 5.3232-0.4793 6.0804-0.8119 15.403-0.807 22.618 0 4.8842-0.093 7.4128-0.3004 7.8674-0.4013 0.88067-2.2278 1.7492-3.5486 1.6874-0.5725-0.0268-4.7319-0.13476-9.243-0.23995zm10.937-2.2006c0.3478-0.34771 0.4236-1.5102 0.4893-7.4939 0.043-3.8953 0.203-9.8208 0.3562-13.168s0.3033-7.5103 0.3335-9.2517c0.054-3.1398 0.049-3.169-0.6066-3.4844-0.3995-0.1921-3.5433-0.45753-7.9375-0.67014-9.3386-0.45184-43.165-0.37286-47.493 0.11089-3.4746 0.38839-16.242 0.36497-21.06-0.0386-1.833-0.15354-7.1908-0.35152-11.906-0.43996-7.2318-0.13563-9.2063-0.26085-12.617-0.80018-3.679-0.58173-4.8326-0.63938-12.795-0.63938h-8.7513l0.2271 0.7276c0.1249 0.40018 0.2381 6.0854 0.2514 12.634 0.013 6.5484 0.1324 14.088 0.2646 16.754l0.2403 4.8481 3.5719 0.0748c1.9645 0.0411 4.9411 0.26941 6.6146 0.50728 2.663 0.37853 6.5584 0.43245 31.221 0.43216 27.862-3.4e-4 30.921-0.0766 38.1-0.95044 3.47-0.42235 3.6839-0.41869 7.4974 0.12812 2.3096 0.33117 5.3047 0.56581 7.276 0.57003 1.8428 4e-3 4.4817 0.13309 5.8641 0.28699 3.104 0.34557 18.321 0.6981 19.55 0.45291 0.4934-0.0984 1.0823-0.36417 1.3086-0.59053zm-67.756-9.5993c-0.2547-0.0666-0.463-0.23134-0.463-0.36619s-0.2296-0.24518-0.5103-0.24518c-1.2355 0-1.3318-0.46061-1.3242-6.3327 0.01-5.152 0.045-5.5859 0.5901-6.6516 0.7611-1.4883 1.7003-2.1422 3.2975-2.2957 3.3888-0.32561 4.8816 2.9047 2.5401 5.4964-0.489 0.54125-0.889 1.046-0.889 1.1218 0 0.0757 0.3096 0.21539 0.688 0.31036 1.0532 0.26436 2.1689 1.2027 2.4755 2.0821 0.708 2.031 0.01 4.6123-1.5526 5.7234-1.4903 1.0612-3.4401 1.5262-4.8521 1.1572zm2.3151-2.4319c1.7392-0.79863 2.4981-2.1056 1.9374-3.3363-0.3412-0.74897-1.2626-1.1852-2.9172-1.3812l-1.2691-0.15031v2.6827c0 2.6074 0.017 2.6825 0.5953 2.6769 0.3274-3e-3 1.0715-0.2245 1.6536-0.4918zm-0.7027-8.7479c0.7503-0.7194 1.3642-1.497 1.3642-1.7281 0-0.95351-1.8484-0.8077-2.4848 0.19602-0.4657 0.73456-0.8292 2.8401-0.4902 2.8401 0.1356 0 0.8604-0.5886 1.6108-1.308zm6.5078 10.203c-0.236-0.94046 3.3629-13.671 4.0186-14.215 0.1958-0.16244 0.6404-0.22395 0.988-0.1367 0.5312 0.13332 0.8536 0.74014 2.0187 3.7999 1.9161 5.0319 2.6056 9.0696 1.7028 9.9723-0.87 0.86998-1.3038 0.38808-1.7098-1.8993l-0.3404-1.9182h-3.5227l-0.478 2.0505c-0.6262 2.6868-0.7956 2.9766-1.7397 2.9766-0.6003 0-0.8157-0.14476-0.9375-0.62985zm5.7061-7.964c-0.8399-2.4411-0.9254-2.4858-1.4152-0.74007-0.6111 2.1779-0.607 2.1902 0.7377 2.1902h1.1764zm5.4505 7.9108c-0.2924-0.76179-0.1484-5.7646 0.2264-7.8671 0.2028-1.1374 0.5623-2.3634 0.7989-2.7246 1.0428-1.5915 3.3408-2.1372 5.1641-1.2263 2.0381 1.0182 2.0006 3.9848-0.067 5.3305l-0.9752 0.63457 1.4457 1.5615c1.5066 1.6273 1.8135 2.2812 1.6681 3.5536-0.1592 1.3932-0.9942 1.1108-2.4619-0.83276-1.2886-1.7064-2.7331-3.0379-3.2958-3.0379-0.175 0-0.2822 0.76017-0.2822 2.0018 0 1.101-0.1232 2.2321-0.2739 2.5135-0.3394 0.63427-1.7139 0.70011-1.9467 0.0933zm3.8105-7.9477c1.774-0.70984 1.9279-1.9526 0.2417-1.9526-0.8441 0-1.2406 0.41823-1.4662 1.5466-0.1937 0.96818-0.1865 0.97055 1.2245 0.40599zm164.7 20.778c-4.5111-0.10518-9.0355-0.31749-10.054-0.4718-1.0187-0.15431-3.5785-0.28835-5.6886-0.29787-2.11-0.01-4.6699-0.12915-5.6885-0.26584-6.2176-0.8343-6.412-0.84282-9.8617-0.43187-7.3709 0.87806-10.663 0.95982-37.895 0.94108-23.34-0.0161-27.852-0.0805-30.559-0.43612-1.7467-0.22949-4.8428-0.43879-6.88-0.4651-4.0085-0.0518-4.743-0.17911-5.039-0.87358-0.6837-1.6043-1.0248-36.194-0.3648-36.99 0.2548-0.30707 1.9045-0.37252 9.3887-0.37252 8.4836 0 9.3317 0.0434 12.923 0.66146 3.2382 0.55732 4.7298 0.66453 9.4751 0.68097 3.0976 0.0107 7.4774 0.12253 9.733 0.24844 13.431 0.74976 18.301 0.83466 23.812 0.41514 11.433-0.87023 56.931-0.5632 59.468 0.40131 1.1512 0.43768 1.4169 1.689 1.1305 5.3232-0.4793 6.0804-0.812 15.403-0.8071 22.618 0 4.8842-0.093 7.4128-0.3004 7.8674-0.4012 0.88067-2.2278 1.7492-3.5485 1.6874-0.5726-0.0268-4.7319-0.13476-9.2431-0.23995zm10.937-2.2006c0.3477-0.34771 0.4236-1.5102 0.4892-7.4939 0.043-3.8953 0.203-9.8208 0.3563-13.168 0.1532-3.347 0.3032-7.5103 0.3334-9.2517 0.054-3.1398 0.049-3.169-0.6066-3.4844-0.3995-0.1921-3.5433-0.45753-7.9375-0.67014-9.3385-0.45184-43.165-0.37286-47.493 0.11089-3.4746 0.38839-16.242 0.36497-21.06-0.0386-1.833-0.15354-7.1908-0.35152-11.906-0.43996-7.2319-0.13563-9.2064-0.26085-12.617-0.80018-3.679-0.58173-4.8326-0.63938-12.795-0.63938h-8.7512l0.2271 0.7276c0.1249 0.40018 0.238 6.0854 0.2513 12.634 0.013 6.5484 0.1324 14.088 0.2646 16.754l0.2404 4.8481 3.5718 0.0748c1.9646 0.0411 4.9411 0.26941 6.6146 0.50728 2.6631 0.37853 6.5585 0.43245 31.221 0.43216 27.862-3.4e-4 30.921-0.0766 38.1-0.95044 3.47-0.42235 3.6838-0.41869 7.4973 0.12812 2.3097 0.33117 5.3047 0.56581 7.2761 0.57003 1.8428 4e-3 4.4816 0.13309 5.8641 0.28699 3.104 0.34557 18.321 0.6981 19.55 0.45291 0.4934-0.0984 1.0823-0.36417 1.3087-0.59053zm-69.971-9.393c-1.3165-0.80277-1.4977-1.6835-1.6254-7.9025-0.091-4.4085-0.04-5.7208 0.2335-6.0503 0.2795-0.33678 0.7304-0.39627 2.2596-0.29814 2.8715 0.18428 4.1027 1.2358 4.1027 3.5039 0 1.3382-1.0036 3.3663-1.9044 3.8484-0.6999 0.37454-0.6563 0.69795 0.1202 0.89283 1.0521 0.26408 2.1956 1.4052 2.377 2.372 0.2478 1.3206-0.3496 2.8248-1.4036 3.5341-1.1382 0.76593-2.9941 0.81043-4.1596 0.0997zm3.0213-2.1935c0.6543-0.65426 0.3464-1.2764-0.895-1.8086-0.6669-0.28587-1.2778-0.51977-1.3576-0.51977-0.2459 0 0.1448 1.877 0.4731 2.2726 0.3788 0.45647 1.3485 0.48685 1.7795 0.0558zm-0.9006-7.1663c0.7023-1.1144 0.748-1.7176 0.1733-2.2923-0.2984-0.29849-0.7808-0.5427-1.0718-0.5427-0.4824 0-0.5292 0.17639-0.5292 1.9937 0 1.9117 0.022 1.982 0.5292 1.7105 0.291-0.15576 0.6953-0.5469 0.8985-0.8692zm16.181 8.2114c-0.1949-0.63152-0.5234-6.1668-0.5276-8.8901v-2.7386l0.8586-0.76715c1.2505-1.1174 2.7114-1.0756 3.8985 0.11157 1.6088 1.6088 1.445 4.1678-0.3439 5.3733-0.6011 0.40509-0.7395 0.6138-0.4745 0.71549 0.2058 0.079 0.8799 0.81338 1.498 1.632 0.8867 1.1745 1.1283 1.7221 1.1453 2.596 0.019 0.99139-0.048 1.1156-0.6398 1.1843-0.5426 0.063-0.8962-0.23425-1.9674-1.6536-0.7183-0.95174-1.3389-1.7304-1.3791-1.7304-0.04 0 0 0.75318 0.083 1.6737 0.1941 2.0791-0.1362 2.8242-1.2522 2.8242-0.436 0-0.8387-0.14883-0.8948-0.33073zm2.2528-8.939c0.5633-0.30149 0.6862-1.1745 0.207-1.4707-0.3632-0.22451-1.0182 0.58983-1.0182 1.266 0 0.55283 0.1092 0.58038 0.8112 0.2047zm-12.4 8.6876c-0.4232-0.42321-0.3868-2.5111 0.089-5.1065 0.2134-1.1642 0.5701-3.1882 0.7926-4.4979 0.5238-3.0831 0.7382-3.5719 1.5672-3.5719 0.8879 0 1.2835 0.66525 2.7944 4.6997 1.756 4.6889 2.3274 7.0252 1.857 7.592-0.6189 0.74578-1.3782 0.38599-1.8344-0.8692-0.385-1.0595-0.4732-1.1337-1.1807-0.99218-0.4205 0.0841-1.0474 0.15292-1.393 0.15292-0.544 0-0.6284 0.12673-0.6284 0.94344 0 0.51889-0.1232 1.1737-0.2739 1.4552-0.3061 0.57206-1.3038 0.68035-1.7898 0.19428zm4.0484-5.4372c-0.1037-0.25466-0.3734-0.99147-0.5993-1.6374-0.4561-1.304-0.6221-1.1384-0.978 0.9759l-0.1893 1.1245h0.9776c0.8265 0 0.9484-0.0716 0.789-0.46302zm-550.67 15.1c-0.3485-0.85095-0.1708-9.0854 0.286-13.25 0.4398-4.0102 0.5774-8.9277 0.2806-10.034-0.1451-0.54119-0.2674-0.56829-1.9338-0.42858-2.0595 0.17267-2.9311-0.15063-2.9311-1.0873 0-0.34086 0.152-0.74589 0.3378-0.90007 0.2182-0.18107 2.8351-0.28541 7.3917-0.29472 6.0527-0.0124 7.1125 0.0442 7.4669 0.39858 0.2961 0.29614 0.3415 0.54651 0.1604 0.88489-0.2944 0.55011-2.1989 0.81427-5.8706 0.81427h-2.3424v3.6623c0 2.0143-0.2421 6.0945-0.5379 9.0672-0.2959 2.9727-0.6233 6.7717-0.7276 8.4424-0.1801 2.8839-0.2199 3.0418-0.7862 3.1222-0.3832 0.0544-0.6671-0.0875-0.7938-0.39687zm17.925-1.6061c-0.438-0.69122-1.6199-2.8641-2.6263-4.8286-1.1637-2.2716-2.2126-3.9431-2.8813-4.5916l-1.0516-1.0198-0.1954 2.6053c-0.1074 1.4329-0.1216 3.8101-0.032 5.2825 0.1453 2.3744 0.1096 2.7262-0.3153 3.1108-0.5669 0.51304-1.1362 0.55499-1.5751 0.11607-0.3941-0.39413-0.4299-6.74-0.056-9.9899 0.2374-2.0649 0.2168-2.2806-0.2665-2.7952-0.7143-0.76033-0.6594-1.6131 0.1376-2.1353 0.3854-0.2525 0.6614-0.68515 0.6614-1.0366 0-0.33174 0.2383-1.3746 0.5295-2.3174 0.8548-2.7676 3.3032-4.6915 5.9705-4.6915 1.0226 0 1.3489 0.13243 1.9734 0.80091 1.123 1.2022 1.2166 2.0993 0.3916 3.7533-0.8815 1.7672-2.5141 3.4722-4.3032 4.4939l-1.3913 0.79458 1.259 1.3989c1.5485 1.7204 5.6445 9.6088 5.6819 10.943 0.022 0.7935-0.3517 1.3482-0.9166 1.3598-0.1089 2e-3 -0.5564-0.5615-0.9945-1.2527zm-4.8183-15.557c1.2275-0.51136 2.8529-2.0584 3.5196-3.35 0.2787-0.5399 0.5068-1.0459 0.5068-1.1245 0-0.57159-2.4885 0.46185-3.6231 1.5046-0.7678 0.70558-1.9907 3.3796-1.5456 3.3796 0.087 0 0.6012-0.1844 1.1423-0.40979zm8.6309 16.144c-0.1018-0.40534 0.2018-2.1548 0.769-4.4318 1.0659-4.279 1.362-6.2071 1.8983-12.361 0.5546-6.3636 1.3956-8.8726 2.6985-8.0508 0.2449 0.15451 0.5405 0.45155 0.6567 0.66011 0.4714 0.84587 2.4039 6.0561 2.8883 7.7875 0.6936 2.4789 2.3597 12.254 2.3597 13.845 0 1.5014-0.4722 2.3-1.2198 2.0628-0.4484-0.14232-0.6026-0.7358-1.1485-4.4217l-0.6306-4.2573-2.1386 0.18255c-1.1762 0.10041-2.2043 0.25986-2.2847 0.35435-0.08 0.0945-0.4812 1.9577-0.8908 4.1406-0.9439 5.0308-0.9936 5.1594-1.9951 5.1594-0.6293 0-0.8293-0.13918-0.9624-0.66971zm7.829-11.435c-0.014-1.4683-2.312-8.7166-2.6487-8.3535-0.111 0.11965-0.3371 1.6463-0.5024 3.3925s-0.3675 3.6215-0.4491 4.1672l-0.1486 0.99219h1.8754c1.0314 0 1.8745-0.0893 1.8734-0.19844zm18.598 11.099c-0.6096-0.38742-1.0621-4.1554-1.5629-13.017-0.062-1.0914-0.4071-3.6614-0.7675-5.7112-0.9403-5.3469-0.861-6.195 0.5788-6.195 0.7445 0 1.1479 0.71665 1.1444 2.0331 0 0.55527 0.2529 2.6521 0.5653 4.6597l0.5681 3.6501 0.6539-0.60743c0.3596-0.33408 1.1976-1.3813 1.8621-2.3272 1.6486-2.3467 2.1828-2.9104 2.7577-2.9104 1.1939 0 0.827 1.4408-1.0752 4.2229l-1.1687 1.7094 0.4191 1.0687c3.2504 8.288 3.9847 10.426 4.0014 11.652 0.016 1.1699-0.05 1.3325-0.5667 1.4061-0.659 0.0937-0.7691-0.11385-2.4853-4.6866-1.0433-2.7797-2.8699-7.1916-3.0781-7.4347-0.062-0.0725-0.2941 0.10606-0.5154 0.39687-0.3356 0.44082-0.3751 1.1447-0.2374 4.2329 0.091 2.0373 0.2371 4.4844 0.325 5.438 0.1311 1.4226 0.079 1.8145-0.2891 2.1828-0.4998 0.49981-0.6618 0.53374-1.1295 0.23656zm20.482-0.16975c-0.5256-0.52561-0.5811-1.2325-0.1319-1.6816 0.1746-0.17463 0.9783-0.31746 1.7859-0.31742l1.4684 8e-5v-7.0777c0-3.8927 0.1079-8.7394 0.2398-10.77l0.2397-3.6926-1.0586 1.1129c-1.0701 1.1249-1.8303 1.3757-2.4107 0.79541-0.6166-0.61664-0.2985-1.3285 1.4628-3.2731 2.5237-2.7865 3.0915-2.6994 3.765 0.5776 0.2623 1.2763 0.2705 3.2005 0.039 9.1281-0.1616 4.131-0.2934 8.727-0.293 10.213l7e-4 2.7024 2.5482 0.0757c2.2622 0.0672 2.5902 0.1391 2.9223 0.64029 0.6591 0.99471-0.033 1.3162-3.2662 1.5177-1.5762 0.0983-3.7648 0.25062-4.8637 0.3386-1.6695 0.13366-2.0719 0.0861-2.4474-0.28947zm-28.892-0.45509c-1.7387-0.95931-2.9795-2.97-4.427-7.1737-0.7675-2.2291-0.8405-2.7261-0.844-5.7474 0-2.8316 0.083-3.5257 0.6011-4.8258 1.3091-3.2867 3.0289-4.9625 5.0938-4.9634 1.9219-8.2e-4 3.5543 1.9152 2.6056 3.0583-0.4122 0.49661-1.4207 0.48784-1.8388-0.016-0.1812-0.21828-0.5296-0.39687-0.7743-0.39687-0.7575 0-2.0965 1.6558-2.6793 3.3132-1.2517 3.5596 0.069 10.662 2.4723 13.289 0.6165 0.67418 1.5104 0.7941 1.5104 0.20261 0-0.21598 0.3504-0.78153 0.7787-1.2568 0.6493-0.72051 0.8581-0.81477 1.2568-0.56732 0.3841 0.2384 0.4781 0.64582 0.4781 2.0722 0 1.6709-0.051 1.821-0.8641 2.5475-0.9297 0.83064-2.3501 1.0263-3.3693 0.46399zm20.308-6.1081c-0.1444-0.1819-0.343-0.77722-0.4413-1.3229-0.1684-0.9349-0.2354-0.9924-1.159-0.9958-1.5248-6e-3 -2.1622-0.26692-2.3355-0.95748-0.2363-0.9415 0.3206-1.4202 1.6523-1.4202 0.9819 0 1.1582-0.0806 1.1582-0.52916 0-0.47385-0.1763-0.52917-1.6874-0.52917-1.9014 0-2.4465-0.36409-2.1735-1.4518 0.1567-0.62458 0.2708-0.6649 1.8816-0.6649h1.7148v-1.4023c0-1.5267 0.3093-2.0373 1.2342-2.0373 0.7545 0 1.147 0.71829 1.147 2.0993v1.0757h2.1167v-1.5346c0-1.6539 0.2933-2.1696 1.2342-2.1696 0.7929 0 1.147 0.72979 1.147 2.3639 0 1.3002 0.023 1.3403 0.7614 1.3403 1.6432 0 1.8275 1.557 0.229 1.935-0.804 0.19016-0.9904 0.35373-0.9904 0.8694 0 0.56163 0.1192 0.63517 1.029 0.63517 0.6003 0 1.2764 0.20032 1.6228 0.48075 0.5054 0.40931 0.5477 0.56658 0.2846 1.0583-0.2469 0.46132-0.5469 0.57758-1.4905 0.57758-1.1183 0-1.1813 0.0396-1.1813 0.74318 0 1.8252-1.6399 2.1905-1.9686 0.43842-0.1618-0.86271-0.234-0.91702-1.2184-0.91702-1.0351 0-1.0463 0.0107-1.0463 1.0054 0 1.4038-0.8589 2.1435-1.5206 1.3097zm3.1081-5.2255c0-0.44098-0.1764-0.52917-1.0584-0.52917-0.8819 0-1.0583 0.0882-1.0583 0.52917s0.1764 0.52916 1.0583 0.52916c0.882 0 1.0584-0.0882 1.0584-0.52916zm530.46-31.851c-0.5265-0.18814-2.5208-1.6952-4.4318-3.3489-3.7076-3.2085-4.1541-3.925-2.8239-4.5311 0.8065-0.36745 1.1144-0.18061 3.9496 2.3961 1.1476 1.043 2.1298 1.8533 2.1825 1.8005 0.053-0.0527-0.074-1.0981-0.2816-2.3231-0.6825-4.026-1.2155-8.2876-1.2218-9.7678-0.01-1.8319-0.6152-4.7171-1.0856-5.157-0.2238-0.20928-2.2843-0.4962-5.5166-0.7682-4.4617-0.37545-10.033-0.43353-41.198-0.42951-22.179 3e-3 -37.035 0.10677-38.629 0.27019-1.4621 0.14989-14.17 0.31265-29.181 0.37373-16.229 0.066-27.879 0.22176-29.898 0.39962-1.819 0.16029-4.9742 0.40855-7.0115 0.5517-2.0372 0.14315-5.0733 0.37473-6.7468 0.51461-6.32 0.52829-9.3544 0.59488-10.054 0.22066-0.7412-0.39637-1.0185-1.5516-0.4764-1.9846 0.1965-0.15694 2.7846-0.3526 6.0327-0.45605 3.1287-0.0996 6.5219-0.30165 7.5406-0.4489 4.3948-0.63526 12.748-0.83665 38.706-0.9332 18.869-0.0702 28.824-0.20653 31.485-0.43121 2.7923-0.23577 14.018-0.34895 39.742-0.40072 31.371-0.0631 36.463-0.0182 40.746 0.3593 7.4353 0.65538 7.3329 0.57764 7.6957 5.8414 0.271 3.9313 0.8051 8.4298 1.4978 12.616l0.4299 2.5976 0.6241-1.6715c0.3432-0.91933 1.0652-2.3264 1.6044-3.1267 1.0176-1.5105 1.8287-1.9219 2.4093-1.2223 0.2632 0.31712 0.1426 0.7808-0.6402 2.4602-0.5304 1.1382-1.261 2.9028-1.6235 3.9215-0.6682 1.878-1.6061 3.0522-2.4211 3.0311-0.2466-6e-3 -0.879-0.16555-1.4055-0.35369zm-490.5-0.70538c-0.7992-0.28733-2.2875-1.0161-3.3073-1.6194-2.0678-1.2233-3.8682-2.1579-4.9632-2.5766-0.5624-0.21505-0.7276-0.4523-0.7276-1.0452 0-0.42186 0.1849-0.92044 0.4108-1.1079 0.6398-0.53097 2.7767 0.27004 5.6704 2.1255 1.364 0.87462 2.5801 1.5902 2.7024 1.5902s0.1615-0.26789 0.087-0.59531c-0.5354-2.3554-0.6808-3.5401-0.9571-7.7966-0.2982-4.5941-0.2892-4.8437 0.2108-5.811 0.2873-0.55588 0.8093-1.1578 1.16-1.3375 0.4757-0.24384 3.4929-0.32898 11.882-0.33531 6.6544-5e-3 12.271-0.13073 13.758-0.30793 1.7701-0.21087 16.326-0.31022 49.212-0.33586 35.319-0.0276 47.505-0.1174 50.006-0.36876 1.819-0.18278 4.3991-0.4463 5.7336-0.58559s7.906-0.25326 14.603-0.25326h12.177l0.4084 0.58304c0.348 0.49682 0.3553 0.66312 0.05 1.1245-0.4328 0.65303 0.3722 0.61651-17.229 0.78175-7.1305 0.067-16.417 0.25012-20.638 0.40705-4.2201 0.15692-26.128 0.33854-48.683 0.40358-30.845 0.0889-41.601 0.20039-43.392 0.44957-1.6174 0.22502-6.3278 0.33455-14.684 0.34143-6.7667 6e-3 -12.434 0.0954-12.594 0.19961-0.2098 0.13664-0.1941 0.68993 0.056 1.9844 0.191 0.9872 0.3577 2.8069 0.3704 4.0439 0.013 1.2369 0.2274 3.3609 0.4771 4.72l0.454 2.471 0.8567-1.1929c1.176-1.6376 2.7322-2.8231 3.7059-2.8231 1.3264 0 1.2435 0.79815-0.2512 2.4204-0.7177 0.77884-1.7244 2.1013-2.2372 2.9388-1.3644 2.2286-1.8521 2.3984-4.3296 1.5076zm210.77-5.2325c-0.3029-0.49019-0.6397-3.4888-0.5048-4.4948 0.08-0.59367 0.057-4.9521-0.051-9.6853l-0.1955-8.6059-3.447-0.0736c-2.9452-0.0629-3.4895-0.14103-3.7386-0.53664-0.2124-0.33721-0.2124-0.58883-1e-4 -0.92604 0.263-0.41765 1.0795-0.48068 8.3331-0.64326 4.4228-0.0991 8.2567-0.11868 8.5199-0.0434 0.3378 0.0966 0.4544 0.34388 0.3968 0.84169-0.078 0.67827-0.1714 0.71662-2.4627 1.0154-1.3097 0.17076-2.9911 0.31959-3.7365 0.33072l-1.3552 0.0202-0.1954 4.2995c-0.1074 2.3647-0.1656 7.3951-0.1292 11.179 0.036 3.7835 0.049 7.028 0.029 7.2099-0.041 0.36544-1.2495 0.45875-1.4632 0.11296zm-11.638-1.0268c-0.412-0.40953-0.9959-2.0944-1.6319-4.7085-0.7666-3.1516-1.5641-5.5818-1.8015-5.4901-0.094 0.0364-1.7096 0.0661-3.5897 0.0661h-3.4184l-0.4181 1.8382c-0.2324 1.0218-0.4181 3.0272-0.4181 4.5153 0 2.8448-0.2419 3.7007-1.046 3.7007-1.27 0-1.3352-0.15813-1.3352-3.2367 0-2.7444 0.5141-6.0222 1.3527-8.6237 0.156-0.48407 0.5089-1.8231 0.7842-2.9756 0.586-2.4537 2.5641-7.8531 3.4339-9.3734 0.9228-1.6128 1.3231-1.9844 2.1381-1.9844 0.8462 0 0.7428-0.2775 1.559 4.1826 0.3012 1.6456 1.1222 4.6221 1.8246 6.6146 2.7748 7.8712 4.3346 13.316 4.2036 14.674-0.067 0.69153-0.2108 0.86983-0.7539 0.93316-0.3693 0.0431-0.7667-0.0165-0.8833-0.13229zm-4.1682-12.667c0.054-0.0478-0.3819-1.4394-0.9686-3.0924-0.5866-1.653-1.1504-3.565-1.253-4.2488-0.1025-0.68383-0.2798-1.301-0.3939-1.3716-0.3338-0.2063-2.902 7.7069-2.9058 8.9534-6e-4 0.19789 5.2866-0.0325 5.5213-0.24059zm38.664 12.33c-0.3394-0.21432-0.4093-1.7543-0.4825-10.618l-0.086-10.367-4.2196 0.14643c-4.4762 0.15534-5.0018 0.0383-5.0018-1.1136 0-1.0535 0.5685-1.1562 5.364-0.96877 3.733 0.14588 5.3957 0.0809 9.1877-0.35935 2.5464-0.29561 5.0085-0.53747 5.4712-0.53747 1.0519 0 1.7706 0.64607 1.4289 1.2845-0.2384 0.44542-0.7364 0.53012-8.9215 1.5175l-1.0958 0.13219-0.042 10.23c-0.028 6.8271-0.1364 10.343-0.3257 10.571-0.3342 0.40279-0.7299 0.42847-1.277 0.0829zm37.457-1.2153c-0.3478-0.3478-0.4158-1.2104-0.4158-5.276 0-2.9548-0.1037-4.9244-0.2646-5.0238-0.3318-0.20506-0.3471-1.5285-0.022-1.8653 0.1336-0.13825 0.2824-2.5225 0.3307-5.2983 0.088-5.0292 0.09-5.0509 0.8347-6.175 0.5377-0.81215 1.1584-1.3165 2.2164-1.8008 1.3229-0.60565 1.6972-0.6586 3.7511-0.53066 3.912 0.24369 7.6238 1.8238 8.7947 3.7438 1.1052 1.8124 0.2154 4.9457-2.1762 7.6626-1.1488 1.3052-4.0239 2.8806-5.8732 3.2182l-1.007 0.18386 3.158 1.7052c3.4023 1.8372 6.8332 4.5163 7.089 5.5356 0.2178 0.86774-0.046 1.426-0.6727 1.426-0.2894 0-1.5135-0.82888-2.7203-1.8419-3.1624-2.6547-8.6479-5.5659-10.489-5.5663l-0.6215-1.4e-4 0.092 4.7217c0.073 3.7187 0.015 4.8147-0.2708 5.1594-0.4576 0.5516-1.1956 0.56092-1.7346 0.0219zm6.2739-13.484c2.6131-0.69698 3.7516-1.3096 4.9319-2.6539 3.3934-3.865 2.0071-6.7439-3.6184-7.5141-2.8221-0.3864-4.4103 0.0388-5.1237 1.3717-0.1507 0.28159-0.3381 2.5944-0.4165 5.1396l-0.1426 4.6276 1.0226-0.17551c0.5625-0.0965 2.0684-0.45445 3.3467-0.79537zm-105.83 13.053c-0.5461-0.68459-1.2559-3.8414-2.0702-9.207-0.099-0.65485-0.3658-1.4001-0.5921-1.6562-0.3527-0.39912-0.3606-0.56058-0.055-1.1309 0.293-0.54743 0.3005-1.2618 0.042-4.0323-0.1728-1.8519-0.3135-3.873-0.3128-4.4915 0-1.0555-0.044-1.1245-0.7395-1.1245-0.4074 0-0.8837-0.14287-1.0583-0.3175-0.4899-0.48989-0.376-1.4846 0.2056-1.7959 0.6475-0.34656 4.9561-0.66471 9.0019-0.66471 2.5797 0 3.1836 0.0819 3.9687 0.53816 1.3421 0.77994 1.8515 1.9794 1.8502 4.3566 0 2.5727-0.3044 3.5928-1.6616 5.5934-1.5689 2.3125-2.9673 3.0517-6.2377 3.297l-2.4773 0.18586 0.1457 1.0843c0.08 0.59634 0.4011 2.2749 0.7133 3.7301s0.5875 3.3602 0.6118 4.2333c0.04 1.4249-0.012 1.5956-0.5081 1.6664-0.3038 0.0434-0.6756-0.0757-0.8263-0.26458zm4.8793-13.454c1.8143-0.78002 3.2413-3.429 3.2447-6.023 0-2.5127-1.0394-3.0908-5.2046-2.8857-1.6359 0.0806-3.0984 0.22308-3.2498 0.31669-0.3058 0.18896-0.377 5.7367-0.1031 8.0179l0.1678 1.3967 2.0128-0.17068c1.107-0.0939 2.5165-0.38726 3.1322-0.65197zm74.854 13.113c-0.094-0.24368-0.17-2.1906-0.17-4.3265 0-3.5969-0.039-3.9078-0.5292-4.2139-0.6905-0.43122-0.673-1.2298 0.042-1.8955 0.5554-0.51747 0.5661-0.65171 0.396-4.9774-0.1461-3.7164-0.11-4.5381 0.2203-5.0096 0.7081-1.011 3.3529-1.7223 6.9493-1.869 3.5153-0.14338 4.0344 6e-3 4.0344 1.1613 0 0.83579-1.0612 1.2472-2.6753 1.0373-0.6711-0.0873-2.0998-0.0372-3.175 0.11121-1.5668 0.21632-2.0731 0.40395-2.5503 0.94504-0.5587 0.63365-0.5953 0.91003-0.5953 4.4968v3.8217l3.3735 4e-3c1.8553 2e-3 3.5326 0.10499 3.7273 0.22835 0.1946 0.12337 0.3137 0.50516 0.2646 0.84842-0.1242 0.86743-1.5722 1.2548-4.7857 1.2801l-2.5797 0.0203v6.574l0.8599-0.42991c0.6006-0.30024 1.7777-0.45761 3.9026-0.52177 3.4419-0.10392 4.3656 0.16366 4.3656 1.2646 0 0.65119-0.012 0.65429-3.3072 0.82403-1.8191 0.0937-3.9027 0.31105-4.6303 0.48298-2.5396 0.60008-2.9547 0.61904-3.1372 0.14329zm53.517-0.59821c-1.0272-1.1683-4.766-6.8659-6.12-9.3266-0.5205-0.94588-1.4996-2.6723-2.1758-3.8364l-1.2294-2.1167 0.1829 7.4197c0.196 7.9513 0.1188 8.5876-1.0414 8.5876-1.2384 0-1.2342 0.0419-1.2342-12.305 0-12.549 0.017-12.712 1.3277-12.524 0.5794 0.0831 0.7269 0.42417 1.642 3.7954 0.5529 2.0373 1.3362 4.359 1.7407 5.1594 1.8279 3.6172 3.7239 6.972 5.4533 9.649l1.8748 2.9022 0.1323-9.7813c0.073-5.3797 0.2287-9.9302 0.3464-10.112 0.3064-0.4735 1.4192-0.40856 1.6121 0.0941 0.3166 0.82512 0.2346 22.221-0.087 22.823-0.4693 0.87687-1.4251 0.70818-2.4239-0.42779z"/></g></svg>
