<svg width="564.51mm" height="331.38mm" version="1.1" viewBox="0 0 564.51 331.38" xml:space="preserve" xmlns="http://www.w3.org/2000/svg"><g transform="translate(-1597.3 923.92)"><path fill="#fff" d="m1611.8-592.91c-0.219-0.26389-0.274-1.3154-0.1835-3.5057 0.071-1.7208 0.25-7.4746 0.3975-12.786 0.1476-5.3115 0.3922-11.027 0.5438-12.7 0.3299-3.644 0.378-17.902 0.061-18.098-0.217-0.13407-1.9979 5.2369-2.802 8.4502-0.7761 3.1017-1.0038 6.7455-0.9068 14.512 0.088 7.051 0.06 7.6648-0.3676 7.9361-0.338 0.21465-0.5881 0.21521-0.9261 2e-3 -0.3665-0.23115-0.5258-0.94732-0.7646-3.4382-0.1659-1.7304-0.4891-4.0988-0.7182-5.2629-1.0772-5.473-1.9024-9.137-3.1284-13.891-0.7319-2.8376-1.4574-5.6654-1.6124-6.2838-0.1549-0.61847-0.3683-1.1245-0.4742-1.1245-0.2622 0-0.9334 3.9466-1.3274 7.8052-0.2373 2.3239-0.2785 6.9472-0.1537 17.248 0.1521 12.554 0.1259 14.117-0.2429 14.486-0.5259 0.52596-1.0203 0.52462-1.5491-4e-3 -0.3743-0.37425-0.4029-2.0426-0.2757-16.073 0.1437-15.856 0.2871-18.623 1.1746-22.667 0.8147-3.7127 1.3764-5.1467 2.0538-5.243 1.3047-0.18546 1.999 1.8256 4.4225 12.81 0.96 4.3509 1.8401 8.3275 1.9559 8.8368 0.1531 0.67369 0.2584-0.1555 0.3863-3.0427 0.1934-4.3641 0.6028-6.5029 2.3045-12.039 0.604-1.9645 1.3775-4.5879 1.719-5.8296 0.8629-3.1378 1.1498-3.6954 1.9014-3.6954 1.1862 0 1.2528 0.67183 1.1799 11.906-0.037 5.7481-0.1792 11.761-0.3153 13.361-0.1362 1.6007-0.2432 5.2321-0.2377 8.0698l0.01 5.1594 0.9353-2.3812c1.8493-4.7087 3.6031-9.8649 4.7696-14.023 1.0899-3.885 1.2172-4.6619 1.547-9.4414 0.1978-2.8644 0.4912-5.454 0.652-5.7547 0.3665-0.68478 1.2271-0.70842 1.5829-0.0435 0.1788 0.33404 0.2141 5.0245 0.105 13.957-0.09 7.3995-0.1033 13.394-0.029 13.321 0.075-0.0728 0.5833-1.2634 1.1305-2.6458 0.5471-1.3824 1.5817-3.6874 2.2991-5.1221 0.7642-1.5282 1.6159-3.7959 2.0565-5.4754 0.8601-3.2782 0.9276-3.4254 1.5699-3.4254 1.207 0 1.7416 1.3632 2.5515 6.5062 0.3582 2.274 0.9438 4.8365 1.3606 5.9531l0.7318 1.9605 0.2276-1.1906c1.12-5.8594 4.1965-12.459 6.3484-13.617 0.7286-0.39242 0.986-0.41896 1.4831-0.15294 0.8401 0.44961 1.4976 2.1368 1.8607 4.7745 0.4448 3.2315 1.4201 6.9393 2.7658 10.514 1.6431 4.3654 1.8394 4.8316 2.0344 4.8316 0.095 0 0.2543-0.98226 0.3545-2.1828 0.3896-4.6681 2.0716-10.57 3.9663-13.918 1.3802-2.4386 1.7759-2.9495 2.2847-2.9495 0.6786 0 0.7479 0.17914 1.3035 3.3719 0.2724 1.5652 0.6872 3.3816 0.9219 4.0365 0.6314 1.7622 2.4864 4.7625 2.9445 4.7625 0.2193 0 1.3748-0.86758 2.5679-1.928 5.1034-4.5357 7.5152-5.2682 10.048-3.0516 1.0756 0.94139 3.4538 2.3346 4.7439 2.7791 0.8797 0.30308 2.3706 0.37172 6.873 0.31642 5.2041-0.0639 5.799-0.0259 6.2707 0.40096 0.4834 0.43748 1.1012 0.46122 8.5441 0.32839 17.099-0.30516 23.086-0.59338 27.387-1.3186 5.6456-0.95188 9.942-1.1857 25.351-1.3794 7.4216-0.0933 14.506-0.24693 15.743-0.34132l2.249-0.17164-1.5583-0.97907c-0.857-0.53848-2.2004-1.3124-2.9853-1.7198-1.5022-0.77975-2.0042-1.6117-1.4067-2.3317 0.1796-0.21639 0.5643-0.39344 0.855-0.39344 0.8822 0 5.5241 2.9352 7.1831 4.542 1.4567 1.4109 1.5487 1.5717 1.4051 2.4567-0.198 1.2198-0.9169 2.1039-3.3607 4.1325-1.0914 0.90601-2.7401 2.3508-3.6638 3.2106-1.3094 1.2188-1.8336 1.5454-2.379 1.4821-0.413-0.048-0.7353-0.27025-0.787-0.54272-0.1394-0.73502 0.8561-1.8952 3.9515-4.6055 4.0091-3.5102 4.0071-3.5008 0.6754-3.09-1.8176 0.22411-6.9602 0.33515-15.834 0.34185-14.2 0.0107-19.84 0.27134-23.767 1.0981-1.3825 0.29104-3.1684 0.65344-3.9688 0.80534-1.5082 0.28624-8.5601 0.54952-26.458 0.9878-8.4957 0.20803-10.525 0.19137-10.848-0.0891-0.272-0.23637-1.8059-0.40334-4.8725-0.53039-5.7495-0.23819-6.2781-0.42734-11.205-4.009-1.387-1.0083-3.4895-0.0741-6.6767 2.9666-2.7842 2.6562-3.1329 2.8522-4.4455 2.4988-1.2939-0.34842-2.1609-1.2894-3.3041-3.586-1.2071-2.4251-1.5713-3.6038-1.7574-5.6885l-0.1536-1.7198-0.7117 1.1906c-1.0945 1.8312-2.5116 6.4297-2.9761 9.6573-0.6098 4.2382-1.1749 7.188-1.5237 7.9535-0.2302 0.50522-0.4732 0.65174-0.9822 0.59225-0.5888-0.0688-0.8203-0.42985-1.7894-2.7907-1.8594-4.53-3.4679-9.514-4.4473-13.78-0.5119-2.2294-1.0647-4.304-1.2286-4.6102-0.2927-0.54696-0.3047-0.54777-0.6814-0.0461-1.5048 2.0042-3.1175 6.231-3.9297 10.299-0.3487 1.7467-0.8446 3.8307-1.1021 4.631-0.43 1.3365-0.533 1.4552-1.262 1.4552-0.7008 0-0.8758-0.17039-1.4944-1.4552-1.1026-2.2901-2.3017-6.0167-2.7083-8.4172-0.205-1.2097-0.4227-2.2495-0.4838-2.3106-0.2349-0.23488-3.9226 7.8268-4.8468 10.596-1.5133 4.5335-2.9699 6.6526-3.9199 5.7026-0.2152-0.21515-0.2817-2.9766-0.2349-9.7482l0.065-9.4481-0.9355 3.175c-0.9031 3.0651-1.574 5.0465-4.716 13.927-1.7557 4.9622-2.2188 7.2414-2.4502 12.06-0.096 2.0055-0.2927 3.7952-0.4364 3.9771-0.3497 0.4427-1.1167 0.41911-1.5029-0.0462zm143.41-6.2928c-0.927-0.49838-1.2804-1.1627-0.9209-1.7308 0.2282-0.3604 0.5801-0.44402 1.5878-0.37731 1.0994 0.0728 1.3881-0.0137 1.9134-0.57281 1.062-1.1305 0.2288-2.178-2.1257-2.6724-1.0442-0.21926-1.1487-0.98737-0.3668-2.6954 0.374-0.81684 0.6799-1.6494 0.6799-1.8501 0-0.52619-0.9082-0.44862-1.9118 0.16328-1.0434 0.63613-1.6128 0.66845-2.07 0.11747-0.8604-1.0367 1.3722-3.0269 3.3956-3.0269 2.4731 0 3.9396 2.3622 2.8157 4.5356-0.229 0.44286-0.3779 0.83299-0.3307 0.86696 0.047 0.034 0.5194 0.32244 1.0496 0.64104 2.3578 1.4168 2.3142 4.4109-0.09 6.2061-0.8561 0.63916-2.7818 0.84898-3.6259 0.39508zm-43.261-2.1435c-0.425-0.31072-0.4644-0.73291-0.3813-4.0822 0.1058-4.265 0.2869-4.7159 2.365-5.8855 1.6051-0.90342 4.4353-0.95331 5.2963-0.0934 1.1923 1.1909 0.5043 3.8837-1.1988 4.6919l-0.9294 0.44106 0.9312 1.22c0.9889 1.2955 1.0798 2.0935 0.2931 2.5724-0.4101 0.24972-0.7617-2e-3 -2.4474-1.7536l-1.9684-2.0452v2.2248c0 2.7907-0.64 3.6752-1.9603 2.7098zm4.7819-7.3482c0.5463-0.20261 1.0802-1.1916 0.7964-1.4754-0.2296-0.22963-2.3994 0.85974-2.9529 1.4826l-0.5255 0.59128 1.0547-0.19303c0.58-0.10616 1.3123-0.28861 1.6273-0.40542zm16.959 6.9082c-2.8411-2.2348-0.1506-9.0254 3.0841-7.7841 0.2468 0.0947 0.4185 0.47146 0.4185 0.91847 0 0.63306-0.1416 0.79449-0.8599 0.98017-0.7492 0.19367-0.905 0.39047-1.2102 1.5289-0.4999 1.8641-0.1792 2.5458 1.3954 2.967 1.1287 0.3019 1.231 0.39528 1.155 1.0552-0.079 0.6901-0.1585 0.72764-1.687 0.80148-1.295 0.0626-1.7368-0.0273-2.2959-0.46715zm7.7993 0.19124c-0.4456-0.55403-1.1296-4.0721-1.302-6.6966-0.1781-2.7111 0.02-3.2914 1.1231-3.2914 0.8183 0 1.0147 0.37172 1.1728 2.2197l0.1334 1.5582 1.3009-0.99487c1.5795-1.208 2.8844-1.4019 3.0195-0.44887 0.061 0.42867-0.2041 0.89714-0.8758 1.5495-0.5296 0.51432-0.926 0.96267-0.8809 0.99635 0.045 0.0337 0.6424 0.43978 1.3271 0.90246 1.999 1.3507 2.6153 2.6341 1.5409 3.2091-0.4259 0.22793-0.753 0.1143-1.7859-0.62049-0.6955-0.49473-1.7811-1.1597-2.4124-1.4776l-1.1478-0.57811 0.1799 0.56655c0.3299 1.0396 0.2362 2.9435-0.1571 3.1925-0.52 0.32917-0.9241 0.30088-1.2357-0.0865zm85.794 0.0102c-1.7462-0.12841-5.0968-0.466-7.4458-0.7502-3.2022-0.38743-5.9593-0.51673-11.019-0.51673-5.5474 0-7.2354-0.091-9.4875-0.51122-1.5068-0.28117-3.1927-0.58546-3.7465-0.67621-0.5538-0.0907-1.2475-0.40558-1.5415-0.69963-0.5025-0.50242-0.5245-0.75258-0.3654-4.1524 0.1885-4.0261 0.6895-10.86 1.468-20.022 0.622-7.3212 0.6412-8.8348 0.1246-9.8255-0.2174-0.41681-0.396-1.3125-0.3969-1.9904 0-1.0658 0.1566-1.4268 1.1681-2.6685 0.6434-0.78978 1.7733-2.4578 2.511-3.7068 2.3147-3.9188 6.9396-10.605 9.3762-13.555 3.3072-4.0042 2.8032-3.8503 11.682-3.5666 12.26 0.39171 31.789 0.30136 35.454-0.16402 7.0247-0.89206 8.0698-0.84832 8.0698 0.33775 0 0.38595-0.2022 0.92513-0.4493 1.1982-0.4171 0.46094-0.4229 0.85971-0.081 5.5771 0.4827 6.662 0.6907 34.286 0.269 35.717-0.1928 0.65439-1.0502 1.8054-2.4645 3.3085-1.1929 1.2678-3.001 3.257-4.0182 4.4204s-2.7558 3.0871-3.8637 4.2747c-1.1078 1.1876-2.3452 2.7354-2.7497 3.4396-1.4962 2.6047-1.8285 2.8303-6.0148 4.0828-2.5018 0.74859-2.7163 0.7682-7.9375 0.72582-2.9514-0.024-6.7949-0.14862-8.5412-0.27702zm15.387-2.5434c3.0825-1.0187 3.8604-1.4277 4.3086-2.2652 0.517-0.96602 0.5742-21.051 0.066-23.181-0.1909-0.80037-0.5205-2.7649-0.7325-4.3656-0.7603-5.741-0.7568-5.6504-0.2398-6.2217 0.2615-0.28887 0.5462-0.52339 0.6328-0.52116 0.4454 0.0115 0.8516 0.51901 0.9667 1.208 0.071 0.42477 0.2401 1.3676 0.376 2.0952 0.1358 0.7276 0.3724 2.4147 0.5258 3.7492 0.1534 1.3344 0.3967 3.0473 0.5407 3.8064s0.2626 4.8465 0.2636 9.0831c0 4.2366 0.078 8.5108 0.1715 9.4982l0.1695 1.7953 0.6586-0.60467c0.3622-0.33256 1.7651-1.9144 3.1174-3.5151 1.3524-1.6007 3.4903-4.101 4.7508-5.5562 1.2606-1.4552 2.4287-2.9435 2.5959-3.3073 0.4449-0.96827 0.3764-29.281-0.08-33.205-0.4882-4.1946-0.501-4.2105-1.7717-2.2114-0.5881 0.92525-1.383 2.2369-1.7664 2.9147-0.3834 0.67786-2.287 3.3568-4.2302 5.9531-3.6237 4.8417-7.4898 8.9194-8.7585 9.2378-0.3711 0.0931-2.1343 0.0214-3.9181-0.15952-3.412-0.34598-10.527-0.18964-12.504 0.27473-2.5259 0.59344-6.1301 1.0581-10.305 1.3284-2.4663 0.15973-4.5936 0.35805-4.7273 0.4407-0.1338 0.0826-3.4554 0.24528-7.3814 0.36141s-7.1805 0.25345-7.2322 0.30517c-0.052 0.0517-0.2766 2.2926-0.4998 4.9797-0.2232 2.6871-0.5831 6.6716-0.7998 8.8544-0.2168 2.1828-0.4672 6.1119-0.5566 8.7312-0.09 2.6365-0.3321 5.4624-0.5424 6.3303-0.209 0.86231-0.2877 1.6569-0.175 1.7657 0.1126 0.1088 1.9414 0.5046 4.064 0.87956 3.4567 0.61066 4.5464 0.6819 10.451 0.68327 3.6255 8.4e-4 7.3063 0.12021 8.1794 0.26526 0.8731 0.14506 4.0283 0.45537 7.0115 0.68959 2.9831 0.23422 6.436 0.52185 7.6729 0.63917 3.9708 0.37663 6.9826 0.14206 9.6981-0.75533zm-11.474-1.5359c-1.2558-0.61917-1.9582-2.2485-1.8679-4.3328 0.096-2.2099 0.4076-2.4006 2.5907-1.5842 2.0136 0.75303 3.699 2.2464 3.699 3.2775 0 1.124-0.7435 2.2828-1.7289 2.6945-1.1403 0.47647-1.6354 0.46634-2.6929-0.0551zm2.1408-2.335c-0.169-0.44058-0.894-0.76539-0.894-0.40055 0 0.14095 0.1191 0.25628 0.2646 0.25628s0.2646 0.18562 0.2646 0.41249 0.1138 0.34212 0.253 0.25611c0.1392-0.086 0.1895-0.32196 0.1118-0.52433zm-23.755 0.83126c-0.8229-0.82289-1.1062-2.7389-0.5883-3.9784 1.1828-2.8309 6.0111-2.0521 5.981 0.96477-0.01 0.8977-0.9249 2.7124-1.6119 3.1936-0.9597 0.67221-3.027 0.57377-3.7808-0.18004zm-0.9979-10.547c-1.2039-0.698-1.9496-1.9894-1.707-2.956 0.1273-0.50741 0.3463-0.70134 0.7918-0.70134 0.3386 0 1.002-0.1927 1.4741-0.42823 0.5882-0.29339 1.2749-0.38822 2.1809-0.30116 1.7304 0.16627 2.6512 1.025 2.6512 2.4727 0 2.2276-3.0081 3.2957-5.391 1.9141zm21.815-1.2079c-0.9539-0.89108-1.2613-1.8059-1.0268-3.0556 0.3243-1.7287 0.7294-2.0018 2.8511-1.922 1.6064 0.0604 1.9746 0.16406 2.3858 0.67179 0.6968 0.86056 0.8576 1.7626 0.5119 2.8726-0.3735 1.1994-1.3442 1.9282-2.7841 2.0905-0.9458 0.1066-1.2196 0.0137-1.9379-0.6572zm2.4093-2.0663c0.09-0.23545 0.046-0.34166-0.104-0.24896-0.1439 0.0889-0.2616 0.27368-0.2616 0.41061 0 0.38059 0.1897 0.29672 0.3656-0.16165zm-26.2-6.2017c-0.3118-0.12585-0.7583-0.50198-0.9922-0.83585-1.5649-2.2342 1.5531-5.4155 4.8009-4.8984 2.7676 0.44067 3.2017 4.7311 0.5717 5.6509-1.05 0.36721-3.5586 0.41492-4.3804 0.0833zm1.0552-2.2626c-0.086-0.22456-0.2134-0.35154-0.2828-0.28219-0.069 0.0694-0.048 0.25309 0.048 0.40829 0.2609 0.42213 0.4134 0.34012 0.2345-0.1261zm22.614-0.0291c-0.9792-1.082-1.3753-3.692-0.6514-4.2927 0.1968-0.16333 1.0744-0.37185 1.9503-0.4634 1.3996-0.14628 1.6606-0.0982 2.1557 0.39685 0.8597 0.8597 0.7793 2.6944-0.1643 3.7504-0.9321 1.0431-2.6154 1.3546-3.2903 0.60883zm23.292-0.85414c-1.2577-0.79759-1.5474-1.2311-1.5474-2.3152 0-2.3881 2.6119-3.3589 4.1929-1.5584 1.0176 1.1591 1.2869 2.4461 0.7351 3.5133-0.7045 1.3624-1.6428 1.4623-3.3806 0.36022zm-40.177-9.6734c1.9645-0.21455 5.0006-0.52417 6.7469-0.68804 1.7462-0.16387 4.2894-0.52603 5.6515-0.80481 2.0985-0.42951 3.625-0.50688 10.001-0.50688 6.0064 0 7.6688-0.0762 8.2391-0.37748 2.0389-1.0772 8.5306-8.9554 11.462-13.91 0.904-1.528 2.1654-3.5363 2.8032-4.4629 0.6377-0.92665 1.1082-1.7361 1.0455-1.7988-0.063-0.0627-1.5865 0.0822-3.3863 0.32189-2.8531 0.37998-5.855 0.424-23.427 0.34354-20.045-0.0918-20.159-0.0893-20.902 0.45604-1.0013 0.73442-3.9549 4.4069-6.1264 7.6173-3.2118 4.7486-3.7303 5.5729-4.9665 7.8962-0.6741 1.2669-1.6412 2.789-2.1492 3.3825-0.8782 1.0259-0.9067 1.1209-0.5795 1.9298 0.1892 0.46798 0.4286 0.91039 0.532 0.98315 0.3927 0.27645 11.641-9e-3 15.056-0.38152zm25.069-6.3531c-1.1295-1.0374-1.2864-1.967-0.4698-2.7836 1.5482-1.5482 5.0338-0.61981 5.0338 1.3407 0 1.0859-0.2491 1.5415-1.0772 1.9697-1.2739 0.65875-2.3776 0.49201-3.4868-0.52673zm-12.307-3.4927c-0.9549-0.47068-1.3158-1.3493-0.885-2.1544 0.4488-0.83847 2.6663-2.1704 3.6136-2.1704 1.0421 0 1.4472 0.4553 1.6322 1.8343 0.1275 0.95092 0.045 1.1584-0.7911 1.9948-1.0626 1.0626-2.1214 1.2096-3.5697 0.49569zm-9.7767-4.1862c-1.0201-0.44355-1.3367-1.391-0.854-2.5563 0.5934-1.4326 3.194-2.4594 3.5934-1.4188 0.084 0.21828 0.4729 0.39688 0.8648 0.39688 0.8041 0 1.3475 0.42815 1.3475 1.0617 0 0.76488-2.7544 2.9181-3.7042 2.8957-0.2182-5e-3 -0.7796-0.17581-1.2475-0.37924zm-94.528 51.856c-0.4414-0.53193-0.038-2.5108 0.9442-4.6344 1.3878-2.9996 2.8001-3.643 4.4265-2.0166 1.0373 1.0373 2.4034 4.2095 2.186 5.0759-0.2312 0.92133-0.9882 1.0512-1.6066 0.27559-0.5193-0.65128-0.5696-0.65972-2.1445-0.36041-1.4638 0.27818-1.6347 0.38101-1.851 1.1134-0.2766 0.93676-1.3756 1.2441-1.9546 0.54651zm4.1638-4.4359c-0.2174-0.32742-0.4998-0.59531-0.6276-0.59531s-0.2704 0.26789-0.3169 0.59531c-0.07 0.49085 0.04 0.59531 0.6276 0.59531 0.6792 0 0.6939-0.0275 0.3169-0.59531zm-21.521 4.3616c-0.4139-0.27951-0.9028-2.4542-0.9028-4.0157v-1.338h-2.0842c-2.3192 0-2.774-0.26018-2.6312-1.5054l0.085-0.7436h10.054v0.79375c0 0.75205-0.076 0.80834-1.4552 1.0716l-1.4552 0.27783-0.1323 2.5003c-0.1594 3.0121-0.4724 3.6387-1.4785 2.9593zm412.77-42.69c-4.6567-0.1009-17.774-0.27026-29.149-0.37636-20.445-0.19069-20.694-0.19938-21.696-0.75775-1.6995-0.94692-1.9157-2.0213-1.9219-9.5514 0-3.7646 0.1118-6.7809 0.2823-7.4083 0.1582-0.58209 0.3791-4.0349 0.4909-7.6729s0.3464-10.484 0.5212-15.214c0.2386-6.4508 0.2443-9.7557 0.023-13.229-0.1623-2.5466-0.2918-7.9044-0.2878-11.906 0-4.0018-0.1307-9.4429-0.2991-12.091-0.3294-5.1792-0.2524-5.6419 0.9332-5.6098 1.1572 0.0313 13.662-0.56432 17.368-0.82729 2.1101-0.14972 6.6642-0.34503 10.12-0.43401 3.4561-0.089 6.2839-0.24684 6.2839-0.35082 0-0.10397-0.1231-1.7244-0.2734-3.6009-0.2787-3.478-0.8005-5.9346-1.4468-6.8112-0.3424-0.46449-0.4227-0.44135-1.6071 0.46302-1.9706 1.5046-3.9047 1.1876-3.9047-0.63998 0-1.0775 0.9375-1.9626 2.5393-2.3975 0.6164-0.16738 1.2613-0.34332 1.433-0.39098 0.1717-0.0477 0.3911-0.61257 0.4875-1.2553 0.3125-2.0841-1.2739-4.416-3.8953-5.726-1.2043-0.60183-1.9842-0.8091-3.0441-0.8091h-1.4249l0.1705 0.90879c0.2091 1.1148-0.282 2.7077-0.9441 3.062-0.7572 0.40524-2.1838 0.30045-2.8095-0.20636-1.4611-1.1836-1.449-2.955 0.029-4.2528l0.9036-0.79335-1.2732-1.6819c-1.8238-2.4092-2.9207-3.2868-4.5686-3.6555-1.7109-0.38273-2.7714-0.27135-2.6216 0.27535 0.059 0.21482 0.1609 1.1185 0.2269 2.0081 0.1113 1.5 0.063 1.6812-0.6629 2.4938-0.6856 0.76727-0.9787 0.89042-2.3563 0.99007-1.402 0.10141-1.6635 0.0379-2.4012-0.58273-1.5445-1.2997-1.4491-3.2372 0.2504-5.0809l1.0585-1.1483-0.7571-0.29112c-2.4322-0.93532-6.2145-0.86481-8.7851 0.16377l-1.0466 0.41873 0.1384 1.5256c0.1536 1.6942-0.1168 2.4369-1.1287 3.1-0.5532 0.36248-0.7775 0.37709-1.4584 0.095-1.625-0.67311-2.0926-3.0409-0.884-4.4771 0.8135-0.96684 0.6766-1.2445-1.2043-2.4414-1.233-0.78464-2.2147-0.90829-4.6076-0.58031l-1.2276 0.16826v1.1667c0 2.0413-1.907 3.2044-3.175 1.9364-0.5117-0.51175-0.6407-1.0653-0.5395-2.3151l0.048-0.59532h-9.2983v6.6807c-8e-4 3.6744 0.1331 9.976 0.2976 14.004 0.2989 7.3205 0.2988 7.3233-0.2885 8.5366-0.3995 0.82533-0.9392 1.4192-1.6866 1.8561-1.3203 0.7717-5.2841 1.9029-11.55 3.2963-2.5466 0.56629-4.9654 1.1602-5.3751 1.3198-0.9377 0.36539-16.259 0.39583-19.478 0.0387-1.2468-0.13834-5.4221-0.38464-9.2784-0.54733s-8.2616-0.47844-9.7896-0.70168c-5.8297-0.85173-27.751-0.69315-30.083 0.21763-0.7399 0.28892-0.915 0.26872-1.389-0.1603-0.5337-0.48299-0.5424-0.71388-0.5424-14.365 0-7.6308-0.1146-15.262-0.2547-16.958-0.6377-7.7217-0.837-11.348-1.0784-19.621-0.2571-8.8062-0.3483-9.812-1.9715-21.733-0.2307-1.6942-0.3852-4.254-0.3434-5.6886 0.071-2.4386 0.113-2.6134 0.6444-2.6892 0.3126-0.0446 0.6265-0.30312 0.6974-0.57458 0.093-0.3571 0.4808-0.5463 1.4012-0.68432 1.6382-0.24567 6.4567 0.0324 9.5039 0.54838 1.3097 0.22179 4.2863 0.51271 6.6146 0.64649s5.543 0.42475 7.1438 0.6466c1.6007 0.22184 5.5893 0.59138 8.8635 0.82119s6.1048 0.47006 6.2903 0.53389c0.1854 0.0638 5.0075 0.12302 10.716 0.13152 10.99 0.0164 12.605-0.1043 21.211-1.5852 3.9531-0.68019 8.1685-1.043 13.112-1.1286 3.2527-0.0563 3.9669 5e-3 4.6938 0.40125 1.8843 1.0278 1.7999 0.17779 1.6878 16.987-0.055 8.3028-0.023 15.451 0.073 15.885 0.1466 0.66761 0.3048 0.79391 1.0267 0.81973 0.4694 0.0168 1.925 0.0705 3.2347 0.11933 1.4955 0.0558 2.7588-0.0399 3.3963-0.25704l1.0151-0.34584-0.8046-0.56724c-1.5783-1.1126-1.7761-2.8343-0.3863-3.3627 1.3633-0.51834 3.7909 1.0241 3.7909 2.4087 0 0.36212 0.3054 0.58088 1.1151 0.79891 0.9437 0.25411 1.2953 0.22518 2.2879-0.18824 0.645-0.26867 1.4028-0.79735 1.6839-1.1749l0.5112-0.68637-0.8147-0.81463c-0.8763-0.87631-1.0369-1.8238-0.5335-3.1478 0.3563-0.93711 0.6846-1.14 1.8356-1.1346 1.6401 8e-3 2.5225 1.2599 2.2201 3.1506l-0.1615 1.0106 1.5503 0.58709c1.8037 0.68301 4.0671 0.76315 4.9636 0.17574 0.7492-0.49088 2.8356-3.7952 3.5653-5.6464l0.5398-1.3695-0.8487-0.18272c-1.4967-0.32223-2.2457-0.86052-2.5716-1.8482-0.3662-1.1094-0.2175-1.8877 0.5457-2.858 0.4536-0.57661 0.7704-0.70445 1.7459-0.70445 1.526 0 2.6393 1.006 2.8971 2.6179 0.095 0.59746 0.2563 1.0863 0.3573 1.0863s0.74-0.18955 1.4199-0.42122c1.1165-0.38043 3.8851-2.517 3.8851-2.9982 0-0.10744-0.2976-0.35463-0.6614-0.5493-1.3402-0.71726-1.3348-3.3196 0.01-4.6641 1.2111-1.2111 3.3505-0.54405 3.8175 1.1904 0.1512 0.56141 0.2027 1.3819 0.1144 1.8232-0.1466 0.73276-0.089 0.81827 0.6666 0.98415 1.0242 0.22494 2.8681-0.0537 3.6545-0.55227 0.3244-0.20567 0.7741-0.73038 0.9994-1.166 0.4072-0.78752 0.4043-0.7946-0.4979-1.2249-1.9687-0.9388-2.0133-3.4099-0.073-4.0502 1.6139-0.53263 3.0829 0.65249 3.0829 2.4872 0 0.60672 0.1029 0.6746 1.0227 0.6746 1.4021 0 2.28-0.763 2.8198-2.4508 0.2437-0.76214 0.7383-2.1435 1.099-3.0698 0.9889-2.539 1.4566-5.1341 1.2518-6.9448l-0.1762-1.5576-26.787-8e-3 -1.0583-0.59558c-1.7506-0.98511-1.9602-2.0067-1.9665-9.5822 0-3.7646 0.1118-6.7809 0.2823-7.4083 0.1582-0.58208 0.3791-4.0349 0.4909-7.6729s0.3464-10.484 0.5212-15.214c0.2386-6.4508 0.2443-9.7557 0.023-13.229-0.1623-2.5466-0.2918-7.9044-0.2878-11.906 0-4.0018-0.1307-9.443-0.2991-12.091-0.3294-5.1792-0.2524-5.6419 0.9332-5.6098 1.2116 0.0328 13.724-0.57123 17.236-0.83209 2.0373-0.1513 7.923-0.34389 13.079-0.42798 8.2914-0.13521 10.111-0.0866 15.743 0.42069 3.5022 0.31546 7.8104 0.80614 9.5738 1.0904 2.2567 0.36377 4.5289 0.51798 7.6729 0.52072 3.0643 3e-3 4.6744 0.10879 5.1282 0.33794 0.4281 0.21621 0.89 0.89147 1.3094 1.9143l0.648 1.5803 0.1076 23.361c0.079 17.128 0.02 24.4-0.2203 27.252-0.1802 2.1399-0.4054 9.0103-0.5004 15.268-0.1177 7.7507-0.2715 11.605-0.4826 12.092-0.1704 0.39322-0.6807 0.90675-1.1341 1.1412-0.7486 0.38712-2.1893 0.40036-15.688 0.14422-8.175-0.15512-16.531-0.35812-18.568-0.45112l-3.7042-0.16909-0.023 2.8818c-0.017 2.2144-0.1525 3.2494-0.5828 4.4693-2.748 7.7904-2.6192 7.5491-4.4722 8.3784-0.7787 0.34847-1.4136 0.44765-2.1311 0.33292-0.9951-0.15914-1.035-0.13463-1.5166 0.93349-0.6328 1.4032-1.9773 2.5823-3.2076 2.8132-0.5304 0.0995-1.9024 0.11662-3.0488 0.038-2.0504-0.14054-2.0941-0.13055-2.6793 0.61329-0.3272 0.41589-1.4266 1.4178-2.4432 2.2265-1.4323 1.1395-2.1816 1.5392-3.3303 1.7764-1.4281 0.29498-1.493 0.34549-1.7795 1.3866-0.3921 1.4245-2.552 5.195-3.5759 6.2422-0.446 0.45623-1.1754 1.0201-1.6208 1.2531-1.1529 0.60302-3.6387 0.52724-5.6707-0.17286l-1.6859-0.58085-1.0973 1.1451c-1.8431 1.9236-3.3676 2.39-5.8054 1.7762-1.0477-0.26382-1.2127-0.22291-2.6913 0.66745l-1.5751 0.94848-7.4196-0.34703-0.093 4.6424-0.093 4.6424 5.7814 0.0955c3.1797 0.0525 6.1385-2.6e-4 6.5751-0.11728 0.4365-0.11703 1.9314-0.28525 3.322-0.37382 2.9922-0.19061 3.8328 0.0997 5.6628 1.956l1.1662 1.1829 1.5391-0.58623c2.2098-0.84173 7.0973-1.0484 9.1055-0.38512 0.7861 0.25968 1.722 0.66223 2.0797 0.89455 0.4734 0.30749 1.3012 0.42267 3.0427 0.42339 4.0821 2e-3 5.6271 0.89298 8.712 5.0261l1.1849 1.5875h2.0686c1.7719 1e-5 2.2928 0.11347 3.6319 0.79112 2.143 1.0844 3.8674 2.7069 4.7674 4.4856 0.6904 1.3647 0.7425 1.6626 0.6062 3.466-0.082 1.0851-0.058 1.973 0.053 1.973 0.1111 0 0.5095 0.56554 0.8853 1.2568 0.884 1.6261 1.5542 5.2554 1.6075 8.706l0.042 2.7356 2.3812-5e-3c3.0698-6e-3 13.3 0.91817 17.727 1.6021 2.4098 0.37226 4.7466 0.53098 7.8052 0.53015 2.9921-8.1e-4 4.5737 0.10391 5.0271 0.33285 0.428 0.21616 0.8902 0.89172 1.3098 1.9143l0.6483 1.5803 0.1032 23.548c0.073 16.78 0.013 24.536-0.2099 26.987-0.1723 1.8918-0.3657 8.4402-0.4299 14.552-0.073 7.0002-0.2271 11.54-0.415 12.267-0.2144 0.82986-0.528 1.2944-1.1154 1.6526-0.9128 0.55662-0.9835 0.55747-17.221 0.20562zm15.414-1.8392c0.4827-0.16827 0.9186-0.5679 1.0821-0.99219 0.1624-0.42136 0.3225-4.6937 0.3934-10.5 0.073-6.0169 0.29-11.676 0.5616-14.684 0.3829-4.2393 0.4234-7.552 0.3027-24.739-0.077-10.914-0.2377-21.542-0.3578-23.617-0.3002-5.1866 0.053-4.9033-6.2053-4.9765-3.4784-0.0407-5.287-0.17711-6.4278-0.48494-0.8732-0.23561-3.3735-0.54449-5.5563-0.68641s-5.3379-0.3768-7.0114-0.52195c-3.8881-0.33725-16.567-0.34926-20.592-0.0195-7.2778 0.59626-13.688 0.93761-17.608 0.93761h-4.2007l0.195 9.6573c0.1073 5.3115 0.237 11.86 0.2882 14.552 0.051 2.6921 0.1463 5.1044 0.2113 5.3607s0.017 2.8756-0.1068 5.8208c-0.1237 2.9452-0.3018 10.055-0.3956 15.799-0.1161 7.1034-0.2902 11.124-0.5444 12.568-0.438 2.489-0.5104 11.238-0.1107 13.398 0.1742 0.94194 0.4783 1.6142 0.8968 1.9827 0.6278 0.55279 0.8056 0.55921 20.969 0.75685 11.185 0.10964 24.027 0.28035 28.538 0.37937 13.688 0.30043 14.84 0.30108 15.678 9e-3zm-45.576-6.8416c-2.6004-0.66516-5.5035-2.2006-7.6729-4.0583-2.1028-1.8005-3.1758-3.2295-3.6051-4.8006-0.4023-1.4729-0.1239-11.149 0.3793-13.182 0.8988-3.6297 4.2977-7.3045 8.7615-9.4728 1.4665-0.71235 3.2021-1.4144 3.857-1.5601 2.9796-0.66289 12.263 0.75009 15.163 2.3077 1.7337 0.93146 3.6804 2.9082 4.5167 4.5865 0.6896 1.3838 0.6936 1.428 0.6917 7.6237 0 7.2663-0.3407 9.2732-2.1516 12.754-1.3009 2.5007-2.7163 3.8372-5.5105 5.2033l-1.9933 0.97461-5.2917 0.0487c-4.3352 0.0399-5.6264-0.037-7.1437-0.4251zm13.172-2.1053c2.0089-0.79513 4.4484-3.0478 5.3387-4.9296 1.3166-2.7831 1.7259-5.3332 1.7279-10.766 0-2.7214-0.1276-5.5515-0.2858-6.2893-0.3513-1.6381-1.905-3.7006-3.5951-4.7724-2.8897-1.8326-12-3.0213-15.196-1.9829-2.6341 0.85577-5.4117 2.4778-6.9789 4.0756-1.9719 2.0102-2.4156 2.7119-3.1116 4.9212-0.517 1.6412-0.5842 2.4396-0.59 7.0115-0.01 4.8795 0.027 5.2275 0.6116 6.4146 1.2763 2.5916 5.8951 5.8261 9.3036 6.5151 0.8004 0.1618 1.6934 0.34593 1.9844 0.40919 0.2911 0.0633 2.4937 0.0888 4.8948 0.0568 3.8442-0.0513 4.5484-0.13056 5.8961-0.66401zm-10.928-7.2699c-3.3407-0.71983-4.3361-2.0017-4.1385-5.3296 0.1995-3.3593 1.3086-5.255 3.7358-6.3852 1.6354-0.76152 2.3-0.7836 2.9213-0.0971 0.3544 0.39159 0.8149 0.52917 1.7713 0.52917 2.1571 0 4.0459 1.2722 4.6743 3.1483 0.1657 0.49466 0.3012 1.928 0.3012 3.1851 0 2.8918-0.6732 4.4704-2.1166 4.9626-1.182 0.40306-5.2515 0.39548-7.1488-0.0133zm6.5535-2.1887c0.5366-0.33797 0.5953-0.58396 0.5953-2.494 0-3.4597-0.7263-4.4673-3.5223-4.8866-0.6966-0.10445-1.4201-0.34355-1.6079-0.53133-0.5099-0.50997-2.2907 0.37492-3.2283 1.6042-0.6203 0.81326-0.7746 1.3123-0.8571 2.7722-0.1105 1.9557 0.1398 2.6703 1.1725 3.3469 1.3292 0.87089 6.1699 0.99347 7.4478 0.1886zm17.092-29.073c-2.5107-1.2512-4.486-3.7984-4.7637-6.143-0.2521-2.1286 0.4323-3.9041 2.6578-6.8944 2.6493-3.5599 4.4002-4.5483 5.7196-3.2288 0.4096 0.40962 1.1181 0.59221 3.0924 0.79693 1.4086 0.14606 2.9893 0.3809 3.5128 0.52186 1.1356 0.30577 2.4694 1.6104 3.0365 2.97 0.9045 2.1686 0.251 6.336-1.432 9.1314-2.1256 3.5305-2.0879 3.5109-6.7636 3.5109-3.4487 0-3.8248-0.0494-5.0598-0.66483zm8.1086-1.5614c1.2299-0.44387 2.7343-3.0027 3.3327-5.6683 0.5807-2.5872 0.3914-3.8515-0.7472-4.9901-0.9401-0.94005-0.7709-0.89475-6.1565-1.6481-1.0187-0.14248-2.1083-0.335-2.4214-0.42782-0.4708-0.13959-0.8476 0.16703-2.1794 1.7735-0.8856 1.0682-1.8498 2.447-2.1427 3.0639-0.6529 1.3749-0.6852 3.2394-0.078 4.5182 0.5723 1.2062 2.2425 2.8911 3.3381 3.3677 1.0659 0.4637 5.7801 0.47104 7.0547 0.011zm-5.7143-4.2369c-1.9578-0.85232-1.3635-3.5909 0.7793-3.5909 1.1062 0 1.6832 0.61174 1.909 2.0239 0.1644 1.0281 0.1288 1.1062-0.6895 1.5144-1.0188 0.50824-0.956 0.50659-1.9988 0.0526zm-95.62-27.712c0.8004-0.14868 2.2887-0.49875 3.3073-0.77795 1.0187-0.2792 2.626-0.62742 3.5719-0.77383s3.5626-0.69853 5.8149-1.2269c4.7049-1.1038 5.3939-1.534 5.686-3.55 0.093-0.64212 0.024-9.7995-0.1538-20.35-0.1777-10.55-0.3925-26.307-0.4773-35.015l-0.1542-15.832-0.5782-0.46802c-0.4732-0.38301-1.3383-0.50093-4.7625-0.64917-4.5648-0.19762-7.0236-7e-3 -13.14 1.0176-3.6447 0.61069-8.3349 1.2394-11.814 1.5836-2.8933 0.28625-19.96 0.22475-22.357-0.0806-1.3097-0.16681-4.1672-0.47642-6.35-0.68803-2.1828-0.2116-5.457-0.56657-7.276-0.7888-1.819-0.22224-4.459-0.4051-5.8666-0.40637-1.4076-1e-3 -4.5627-0.29885-7.0114-0.66131s-5.423-0.66012-6.6096-0.66146l-2.1573-2e-3 -0.1866 2.7373c-0.1888 2.7703-0.065 4.3789 0.9169 11.947 0.8462 6.5191 1.1746 10.976 1.8621 25.268 0.1506 3.1287 0.4508 7.2604 0.6673 9.1816 0.2945 2.6139 0.3935 6.6972 0.3935 16.224v12.73l0.5953-0.20506c1.0647-0.36674 24.61-0.10193 27.98 0.31467 4.9124 0.60731 9.5645 0.91169 14.26 0.93301 2.4163 0.011 5.4054 0.17638 6.6423 0.36758 2.5954 0.4012 14.775 0.28269 17.198-0.16734zm-47.166-25.1c-2.7736-0.69341-4.8222-2.6691-6.7095-6.4709-1.0773-2.1701-1.2273-2.6927-1.3535-4.7161-0.1706-2.7345 0.2442-5.1197 1.1964-6.8788 0.962-1.7772 3.7072-4.4372 5.4706-5.3006 1.2887-0.63101 1.7399-0.71382 3.5227-0.64653 1.7826 0.0673 2.0759 0.14833 2.2885 0.63238 0.1342 0.30536 0.6537 0.83597 1.1545 1.1791 1.1098 0.76044 3.1772 3.2461 3.6669 4.4087 0.239 0.56726 0.3587 1.9848 0.3587 4.2475 0 3.1525-0.064 3.5849-0.8866 6.0278-1.3894 4.1243-2.7095 6.3896-4.161 7.1402-0.958 0.49541-3.2985 0.6896-4.5477 0.37732zm2.9251-2.6111c0.5399-0.27688 1.2361-0.78289 1.5471-1.1245 1.5898-1.7462 2.8154-5.8339 2.8436-9.4846 0.017-2.2249-0.061-2.6667-0.679-3.8471-1.0027-1.9147-4.1424-4.6196-5.3621-4.6196-1.6988 0-4.7647 2.4125-5.8122 4.5735-0.9231 1.9043-1.3398 4.8178-0.9805 6.857 0.2774 1.5751 1.5668 4.267 2.8711 5.9943 0.7046 0.93302 2.9532 2.1474 3.9845 2.1518 0.3332 1e-3 1.0476-0.22396 1.5875-0.50084zm38.261 2.047c-0.2262-0.36603-0.5928-11.244-0.6171-18.313l-0.017-4.9951-2.3453 0.18347c-1.9828 0.15511-2.4122 0.11656-2.7781-0.24936-0.5281-0.52807-0.559-1.2839-0.069-1.6904 0.2554-0.21199 2.2357-0.28071 6.6521-0.23084 5.6284 0.0636 6.3186 0.11909 6.5771 0.52907 0.5355 0.84944-0.2748 1.2266-3.0547 1.4218-2.3008 0.16157-2.5737 0.23587-2.7084 0.73742-0.2501 0.9318-0.1733 10.829 0.125 16.114 0.3177 5.6279 0.1541 6.8015-0.9483 6.8015-0.3439 0-0.7111-0.13886-0.816-0.30856zm-22.893-1.2256c-2.5396-1.3267-3.288-3.1706-3.6727-9.0491-0.3669-5.6054-0.3366-12.784 0.055-13.176 0.4153-0.41527 1.4452-0.40733 1.7174 0.0132 0.1177 0.1819 0.214 3.724 0.214 7.8714 0 8.2087 0.1866 9.7138 1.3798 11.132 0.3692 0.4387 1.1277 1.0305 1.6857 1.3152 2.4122 1.2306 4.7768 0.19449 5.947-2.6058 1.0831-2.5918 1.5552-9.948 0.8558-13.334-0.278-1.3459-0.2638-1.5947 0.1118-1.9703 1.6297-1.6297 2.7077 2.6271 2.3008 9.0857-0.2555 4.056-0.9826 7.0647-2.0996 8.6882-1.8717 2.7204-5.5099 3.5898-8.4955 2.0302zm96.078 4.5549c0-0.82887-0.6214-0.73815-0.746 0.10891-0.056 0.38159 0.055 0.57459 0.3307 0.57459 0.2702 0 0.4153-0.23887 0.4153-0.6835zm-11.235-4.7186c0.4405-0.67238 0.3169-2.3839-0.1952-2.7004-0.3859-0.2385-2.0638 1.5081-2.0638 2.1483 0 1.2609 1.5469 1.6389 2.259 0.55206zm-14.255-2.6016c-0.073-0.1819-0.1334-0.0331-0.1334 0.33073 0 0.3638 0.06 0.51263 0.1334 0.33072 0.073-0.1819 0.073-0.47955 0-0.66145zm-4.3878-23.832c-0.204-0.20396-0.2853-0.0565-0.2853 0.51731 0 1.0444 0.3712 1.4183 0.4837 0.48704 0.048-0.39549-0.042-0.84745-0.1984-1.0044zm12.494-6.2562c-0.2104-0.80459-0.8247-1.222-1.2146-0.82534-0.2505 0.2548-0.1845 0.4354 0.3051 0.83545 0.7961 0.65053 1.0814 0.64735 0.9095-0.0101zm8.9797-5.0919c0.1829-0.54846-0.1134-1.5586-0.4265-1.4543-0.5807 0.19333-0.5194 1.7751 0.069 1.7751 0.1379 0 0.2989-0.14433 0.3577-0.32074zm54.112-17.953c0.4827-0.16827 0.9186-0.5679 1.0821-0.99219 0.1624-0.42136 0.3225-4.6937 0.3934-10.5 0.073-6.0169 0.29-11.676 0.5616-14.684 0.3829-4.2394 0.4234-7.552 0.3027-24.739-0.077-10.914-0.2377-21.542-0.3578-23.617-0.3002-5.1866 0.053-4.9033-6.2053-4.9765-3.4784-0.0407-5.287-0.1771-6.4278-0.48494-0.8732-0.23561-3.3735-0.54449-5.5563-0.68641s-5.3379-0.3768-7.0114-0.52195c-3.8881-0.33725-16.567-0.34926-20.592-0.0195-7.2778 0.59625-13.688 0.93761-17.608 0.93761h-4.2007l0.195 9.6573c0.1073 5.3115 0.237 11.86 0.2882 14.552 0.051 2.6921 0.1463 5.1044 0.2113 5.3607s0.017 2.8756-0.1068 5.8208c-0.1237 2.9452-0.3018 10.055-0.3956 15.799-0.1161 7.1034-0.2902 11.124-0.5444 12.568-0.438 2.489-0.5104 11.238-0.1107 13.398 0.1742 0.94194 0.4783 1.6142 0.8968 1.9827 0.6278 0.55279 0.8056 0.55921 20.969 0.75685 11.185 0.10964 24.027 0.28035 28.538 0.37937 13.688 0.30043 14.84 0.30109 15.678 9e-3zm-44.782-10.027c-4.1691-0.86531-5.8113-1.9091-8.0919-5.1434-1.9828-2.812-2.4739-4.6964-2.2742-8.7275 0.3348-6.7607 2.1402-11.667 5.4379-14.778 1.8843-1.7776 4.9675-3.5534 7.4236-4.2758 1.3912-0.40916 4.0099-0.57613 4.3111-0.27487 0.081 0.0813 0.9746 0.1744 1.9851 0.20692 2.2761 0.0733 4.4344 1.0701 6.9202 3.1963 1.9506 1.6684 3.1219 3.22 4.44 5.8814 0.8405 1.6971 0.9514 2.1751 1.0774 4.6456 0.077 1.5146 0 4.1757-0.1811 5.9135-0.807 7.9255-2.045 10.375-6.4264 12.716l-1.9217 1.0268-5.1594 0.0535c-4.1663 0.0432-5.6176-0.0416-7.5406-0.4407zm11.237-1.6144c3.009-0.48819 5.4715-2.3026 6.6473-4.898 0.9254-2.0425 1.347-5.6346 1.2529-10.675l-0.087-4.6641-0.9081-1.8432c-1.1501-2.3343-4.2664-5.5362-6.3679-6.5426-1.6887-0.80874-5.9039-1.4241-7.8035-1.1393-1.8328 0.27485-5.7319 2.3492-7.5099 3.9952-3.122 2.8905-4.8849 8.0133-4.9122 14.275-0.014 3.2138 0.033 3.5413 0.7108 4.989 0.4731 1.0099 1.3944 2.2176 2.6458 3.4682l1.92 1.9187 2.7781 0.68089c2.2576 0.5533 3.4475 0.68391 6.35 0.69704 1.9646 9e-3 4.3422-0.10882 5.2837-0.26158zm-8.8555-9.8497c-0.5847-0.33018-1.2908-1.0287-1.5776-1.5608-0.485-0.89942-0.497-1.1172-0.1822-3.2947 0.6083-4.2068 2.1392-5.9152 5.3007-5.9152 2.9225 0 3.8894 0.71524 5.0558 3.7396 0.9621 2.4949 0.9871 3.3794 0.1464 5.1852-0.9587 2.0592-1.7659 2.4511-5.039 2.447-2.2543-3e-3 -2.8024-0.0918-3.7041-0.60105zm6.5561-1.9957c0.8418-0.84174 0.9258-3.039 0.1823-4.7673-0.6843-1.5907-1.1262-1.9013-2.7516-1.9339-1.8149-0.0364-2.8818 0.76236-3.4559 2.5876-0.5458 1.7353-0.6455 3.3996-0.2286 3.8165 1.1341 1.1341 5.2226 1.3283 6.2538 0.29704zm13.312-26.769c-1.5875-0.61992-2.481-1.4509-3.8972-3.6245-1.2982-1.9926-1.5441-3.402-0.9201-5.2731 0.5454-1.6355 2.091-3.6819 3.5618-4.7157 1.083-0.76118 1.2798-0.80395 3.7008-0.80395 2.3833 0 2.6738 0.0603 4.2768 0.88787 3.4338 1.7728 4.0303 2.7469 4.0013 6.5343-0.03 3.8474-0.974 6.1031-2.996 7.1551-1.1241 0.5849-6.0828 0.48226-7.7274-0.15994zm7.3584-2.1275c0.7173-0.62984 0.9877-1.1372 1.2312-2.3096 0.3853-1.8563 0.1912-4.5983-0.3882-5.4826-1.147-1.7504-4.5878-2.9773-7.0437-2.5116-1.7226 0.32668-2.8713 1.326-3.8695 3.3662-0.8519 1.7412-0.7211 2.6404 0.691 4.7512 1.5699 2.3466 2.8138 2.9344 6.2863 2.9708 2.0608 0.0216 2.2213-0.0192 3.0929-0.78438zm-5.4838-4.4723c-0.9166-0.98037-0.8839-1.9532 0.07-2.0878 0.3556-0.0502 0.7723 0.0705 0.926 0.26822 0.1537 0.19773 0.6141 0.57374 1.0232 0.8356 1.0825 0.69288 0.8967 1.6077-0.3469 1.7079-0.7424 0.0598-1.0741-0.0837-1.6725-0.72386zm-242.96 216.29c-0.1342-0.53471 0.092-0.95599 1.1958-2.2305 2.3748-2.7413 3.9476-3.8427 4.7654-3.3373 0.4286 0.26488 0.3327 1.1446-0.1834 1.6828-0.2547 0.26561-1.2751 1.3967-2.2676 2.5135-1.4687 1.6526-1.9479 2.0306-2.5747 2.0306-0.6 0-0.8066-0.14555-0.9355-0.65922zm181.56-2.6977c-0.8931-1.3618-3.4085-7.8693-4.7363-12.253l-1.0818-3.5719-0.1012-8.8134c-0.1073-9.3348-0.066-9.689 1.1044-9.5218 0.5442 0.0778 0.5546 0.21127 0.7053 9.0748 0.1472 8.6587 0.1787 9.0851 0.8395 11.377 0.8737 3.0309 2.8427 8.3255 4.2065 11.311 1.141 2.4982 1.2046 3.1947 0.3031 3.3236-0.4244 0.0607-0.7537-0.18541-1.2395-0.92604zm-174.16-4.741c-0.1501-0.598 0.072-0.93482 1.6736-2.5362 1.5082-1.5083 2.0117-1.8546 2.7477-1.8901 0.7412-0.0358 0.9157 0.059 0.9833 0.5341 0.059 0.41527-0.4522 1.1402-1.8195 2.5797-1.5019 1.5811-2.0606 2.0021-2.6569 2.0021-0.593 0-0.7922-0.14805-0.9282-0.68958zm160.22-6.5069c-0.455-1.0242-0.651-2.0288-0.7264-3.7246-0.112-2.5162 0.1345-3.1889 1.1173-3.0485 0.5033 0.0719 0.5673 0.30842 0.721 2.6642 0.093 1.4219 0.3109 2.9287 0.4847 3.3483 0.4451 1.0745 0.2627 1.9864-0.4166 2.0834-0.4466 0.0638-0.6805-0.19837-1.18-1.3229zm-151.32-0.0761c-0.4807-0.57929-0.1332-1.5321 0.7489-2.0532 0.4254-0.2513 1.7062-1.2324 2.8462-2.1802 1.1399-0.94778 2.2612-1.7232 2.4917-1.7232 0.5107 0 1.0541 0.50866 1.0541 0.9867 0 0.48091-3.1069 3.5056-4.6524 4.5293-1.3931 0.92275-1.9992 1.03-2.4885 0.44055zm8.8723-7.6352c-0.3419-0.25002-0.4385-0.54689-0.325-0.99917 0.2313-0.92154 5.2536-5.7889 5.9732-5.7889 1.0216 0 0.9635 0.75948-0.1483 1.9378-0.5733 0.60767-1.6196 1.8192-2.325 2.6924-1.341 1.6597-2.1915 2.5135-2.5038 2.5135-0.1015 0-0.4036-0.16007-0.6711-0.35571zm8.0611-7.1815c-0.489-0.58916-0.1282-1.5351 0.793-2.0793 0.4497-0.26564 1.5375-1.194 2.4173-2.063 1.646-1.6256 2.3977-1.8775 2.9539-0.98968 0.5716 0.91229-3.8619 5.5253-5.3102 5.5253-0.2901 0-0.6744-0.17705-0.854-0.39344zm7.6806-8.1928c-0.6283-0.75702-0.1452-1.3232 2.2223-2.6049 1.2976-0.7025 3.0629-1.8652 3.9229-2.5837 1.676-1.4004 2.0574-1.5338 2.5811-0.90275 0.2741 0.33029 0.244 0.57735-0.166 1.3596-0.5536 1.0561-1.8572 2.0962-4.9026 3.9116-2.0959 1.2494-3.1123 1.4773-3.6577 0.82014zm10.704-9.6742c-0.2565-0.80833 0.3072-2.1928 1.6404-4.0285 2.3861-3.2856 3.5494-4.1648 4.3055-3.2537 0.2621 0.31579 0.023 0.83227-1.3084 2.8222-0.896 1.3396-1.9208 3.0111-2.2772 3.7145-0.5514 1.0882-0.7631 1.2789-1.4195 1.2789-0.5411 0-0.822-0.15926-0.9408-0.53332zm8.6532-8.78c-0.7081-0.70817-0.3178-1.5401 1.7331-3.693 1.1277-1.184 2.5077-2.359 3.0665-2.6112l1.0161-0.45856-0.6119-0.42859c-0.4357-0.30513-1.1998-0.4286-2.6525-0.4286-2.7865 0-3.4557-0.27755-3.3486-1.3889l0.083-0.86006 3.4074-0.0743c4.9092-0.10705 5.4031 0.34897 5.6242 5.1925 0.1369 2.9982-0.1236 4.05-1.0474 4.2279-0.8143 0.15684-1.193-0.4615-1.3859-2.2632l-0.1872-1.7479-1.4858 1.5705c-0.8172 0.86378-1.8141 1.9554-2.2154 2.4258-0.7605 0.8914-1.4548 1.0785-1.9956 0.53773zm221.96-6.0107c-0.2561-0.16213-0.4412-1.1419-0.5987-3.168-0.2865-3.6853-1.123-6.3618-2.8619-9.1568-0.7243-1.1642-1.8846-3.0692-2.5784-4.2333-1.2375-2.0765-3.7306-4.8322-5.695-6.2951-1.1697-0.87112-1.303-1.6866-0.3161-1.9343 0.741-0.18596 0.8885-0.082 3.7802 2.666 2.5199 2.3946 6.9657 9.3145 8.3338 12.972 1.181 3.1569 1.6362 8.1578 0.8171 8.9769-0.4846 0.48457-0.4115 0.47022-0.881 0.17296zm3.5967-12.126c-0.062-0.10914-0.3713-0.98727-0.6876-1.9514-0.596-1.8165-2.0021-4.3734-3.0371-5.5231-1.8141-2.015-1.9465-3.4396-0.3199-3.4396 0.4375 0 3.6625 4.7559 4.5423 6.6986 0.8467 1.8695 1.1022 3.4624 0.644 4.0145-0.3523 0.42451-0.9548 0.53057-1.1417 0.20097zm-327.61-0.91589c-1.7462-0.12841-5.0968-0.466-7.4458-0.7502-3.2022-0.38743-5.9593-0.51673-11.019-0.51673-5.5474 0-7.2354-0.0909-9.4875-0.51121-1.5068-0.28118-3.1927-0.58547-3.7465-0.67622-0.5538-0.0907-1.2475-0.40558-1.5415-0.69963-0.5025-0.50242-0.5245-0.75258-0.3654-4.1524 0.1885-4.0261 0.6895-10.86 1.468-20.022 0.622-7.3212 0.6412-8.8348 0.1246-9.8255-0.2174-0.41681-0.396-1.3125-0.3969-1.9904 0-1.0658 0.1566-1.4268 1.1681-2.6685 0.6434-0.78978 1.7733-2.4578 2.511-3.7068 2.3147-3.9188 6.9396-10.605 9.3762-13.555 3.3072-4.0042 2.8032-3.8503 11.682-3.5666 12.26 0.39171 31.789 0.30136 35.454-0.16402 7.0247-0.89205 8.0698-0.84832 8.0698 0.33775 0 0.38595-0.2022 0.92513-0.4493 1.1982-0.4171 0.46094-0.4229 0.85971-0.081 5.5771 0.4827 6.662 0.6907 34.286 0.269 35.717-0.1928 0.65439-1.0502 1.8054-2.4645 3.3085-1.1929 1.2678-3.001 3.257-4.0182 4.4204s-2.7558 3.0871-3.8637 4.2747c-1.1078 1.1876-2.3452 2.7354-2.7497 3.4396-1.4962 2.6047-1.8285 2.8303-6.0148 4.0828-2.5018 0.74859-2.7163 0.7682-7.9375 0.72582-2.9514-0.024-6.7949-0.14862-8.5412-0.27702zm15.387-2.5434c3.0825-1.0187 3.8604-1.4277 4.3086-2.2652 0.517-0.96602 0.5742-21.051 0.066-23.181-0.1909-0.80037-0.5205-2.7649-0.7325-4.3656-0.7603-5.741-0.7568-5.6504-0.2398-6.2217 0.2615-0.28887 0.5462-0.52339 0.6328-0.52116 0.4454 0.0115 0.8516 0.51901 0.9667 1.208 0.071 0.42477 0.2401 1.3676 0.376 2.0952 0.1358 0.72761 0.3724 2.4147 0.5258 3.7492 0.1534 1.3344 0.3967 3.0473 0.5407 3.8064s0.2626 4.8465 0.2636 9.0831c0 4.2366 0.078 8.5108 0.1715 9.4982l0.1695 1.7953 0.6586-0.60466c0.3622-0.33257 1.7651-1.9144 3.1174-3.5151 1.3524-1.6007 3.4903-4.101 4.7508-5.5562 1.2606-1.4552 2.4287-2.9435 2.5959-3.3073 0.4449-0.96827 0.3764-29.281-0.08-33.205-0.4882-4.1946-0.501-4.2105-1.7717-2.2114-0.5881 0.92525-1.383 2.2369-1.7664 2.9147-0.3834 0.67786-2.287 3.3568-4.2302 5.9531-3.6237 4.8417-7.4898 8.9194-8.7585 9.2378-0.3711 0.0932-2.1343 0.0214-3.9181-0.15952-3.412-0.34598-10.527-0.18964-12.504 0.27473-2.5259 0.59344-6.1301 1.0581-10.305 1.3284-2.4663 0.15973-4.5936 0.35805-4.7273 0.4407-0.1338 0.0827-3.4554 0.24528-7.3814 0.36141s-7.1805 0.25346-7.2322 0.30517c-0.052 0.0517-0.2766 2.2926-0.4998 4.9797-0.2232 2.6871-0.5831 6.6716-0.7998 8.8544-0.2168 2.1828-0.4672 6.1119-0.5566 8.7312-0.09 2.6365-0.3321 5.4624-0.5424 6.3303-0.209 0.86231-0.2877 1.6569-0.175 1.7657 0.1126 0.1088 1.9414 0.5046 4.064 0.87956 3.4567 0.61066 4.5464 0.6819 10.451 0.68327 3.6255 8.4e-4 7.3063 0.12021 8.1794 0.26526 0.8731 0.14506 4.0283 0.45537 7.0115 0.68959 2.9831 0.23423 6.436 0.52185 7.6729 0.63917 3.9708 0.37663 6.9826 0.14206 9.6981-0.75533zm-11.474-1.8005c-1.2558-0.61917-1.9582-2.2485-1.8679-4.3328 0.096-2.2099 0.4076-2.4006 2.5907-1.5842 2.0136 0.75303 3.699 2.2464 3.699 3.2775 0 1.124-0.7435 2.2828-1.7289 2.6945-1.1403 0.47647-1.6354 0.46634-2.6929-0.0551zm2.1408-2.335c-0.169-0.44059-0.894-0.76539-0.894-0.40055 0 0.14095 0.1191 0.25627 0.2646 0.25627s0.2646 0.18563 0.2646 0.41249c0 0.22687 0.1138 0.34212 0.253 0.25611 0.1392-0.086 0.1895-0.32195 0.1118-0.52432zm-23.755 1.0958c-0.8229-0.82289-1.1062-2.7388-0.5883-3.9784 1.1828-2.8309 6.0111-2.0521 5.981 0.96477-0.01 0.8977-0.9249 2.7124-1.6119 3.1936-0.9597 0.67221-3.027 0.57377-3.7808-0.18004zm-0.9979-10.812c-1.2039-0.698-1.9496-1.9894-1.707-2.956 0.1273-0.5074 0.3463-0.70133 0.7918-0.70133 0.3386 0 1.002-0.19271 1.4741-0.42823 0.5882-0.29339 1.2749-0.38822 2.1809-0.30116 1.7304 0.16627 2.6512 1.025 2.6512 2.4727 0 2.2276-3.0081 3.2957-5.391 1.9141zm21.815-0.94334c-0.9539-0.89108-1.2613-1.8059-1.0268-3.0556 0.3243-1.7287 0.7294-2.0018 2.8511-1.922 1.6064 0.0604 1.9746 0.16406 2.3858 0.67179 0.6968 0.86056 0.8576 1.7626 0.5119 2.8726-0.3735 1.1994-1.3442 1.9282-2.7841 2.0905-0.9458 0.1066-1.2196 0.0137-1.9379-0.6572zm2.4093-2.0663c0.09-0.23546 0.046-0.34167-0.104-0.24897-0.1439 0.0889-0.2616 0.27368-0.2616 0.41061 0 0.38059 0.1897 0.29672 0.3656-0.16164zm-26.2-6.2017c-0.3118-0.12585-0.7583-0.50198-0.9922-0.83585-1.5649-2.2342 1.5531-5.4155 4.8009-4.8984 2.7676 0.44067 3.2017 4.7311 0.5717 5.6509-1.05 0.36721-3.5586 0.41492-4.3804 0.0833zm1.0552-2.2626c-0.086-0.22456-0.2134-0.35154-0.2828-0.28219-0.069 0.0694-0.048 0.25309 0.048 0.40829 0.2609 0.42213 0.4134 0.34012 0.2345-0.1261zm22.614-0.0291c-0.9792-1.082-1.3753-3.692-0.6514-4.2927 0.1968-0.16332 1.0744-0.37185 1.9503-0.4634 1.3996-0.14628 1.6606-0.0982 2.1557 0.39685 0.8597 0.8597 0.7793 2.6944-0.1643 3.7504-0.9321 1.0431-2.6154 1.3546-3.2903 0.60883zm23.292-0.85414c-1.2577-0.79759-1.5474-1.2311-1.5474-2.3152 0-2.3881 2.6119-3.3589 4.1929-1.5584 1.0176 1.1591 1.2869 2.4461 0.7351 3.5133-0.7045 1.3624-1.6428 1.4623-3.3806 0.36022zm-40.177-9.6734c1.9645-0.21455 5.0006-0.52417 6.7469-0.68804 1.7462-0.16386 4.2894-0.52603 5.6515-0.80481 2.0985-0.42951 3.625-0.50688 10.001-0.50688 6.0064 0 7.6688-0.0762 8.2391-0.37748 2.0389-1.0772 8.5306-8.9554 11.462-13.91 0.904-1.528 2.1654-3.5363 2.8032-4.4629 0.6377-0.92665 1.1082-1.7361 1.0455-1.7988-0.063-0.0627-1.5865 0.0822-3.3863 0.32189-2.8531 0.37998-5.855 0.424-23.427 0.34354-20.045-0.0918-20.159-0.0893-20.902 0.45604-1.0013 0.73442-3.9549 4.4069-6.1264 7.6173-3.2118 4.7486-3.7303 5.5729-4.9665 7.8962-0.6741 1.2669-1.6412 2.789-2.1492 3.3825-0.8782 1.0259-0.9067 1.1209-0.5795 1.9299 0.1892 0.46797 0.4286 0.91038 0.532 0.98314 0.3927 0.27645 11.641-9e-3 15.056-0.38152zm25.069-6.3531c-1.1295-1.0374-1.2864-1.967-0.4698-2.7836 1.5482-1.5482 5.0338-0.61981 5.0338 1.3407 0 1.0859-0.2491 1.5415-1.0772 1.9697-1.2739 0.65875-2.3776 0.49201-3.4868-0.52673zm-12.307-3.4927c-0.9549-0.47067-1.3158-1.3493-0.885-2.1544 0.4488-0.83847 2.6663-2.1704 3.6136-2.1704 1.0421 0 1.4472 0.45531 1.6322 1.8343 0.1275 0.95092 0.045 1.1584-0.7911 1.9948-1.0626 1.0626-2.1214 1.2096-3.5697 0.49569zm-9.7767-4.1862c-1.0201-0.44355-1.3367-1.391-0.854-2.5563 0.5934-1.4326 3.194-2.4594 3.5934-1.4188 0.084 0.21828 0.4729 0.39688 0.8648 0.39688 0.8041 0 1.3475 0.42815 1.3475 1.0618 0 0.76487-2.7544 2.9181-3.7042 2.8956-0.2182-5e-3 -0.7796-0.17581-1.2475-0.37924zm-159.32 48.214c-0.3556-0.95926-0.81-7.83-1.2146-18.367-0.2074-5.4023-0.6459-13.076-0.9744-17.053l-0.5972-7.2304-0.9643 3.0357c-0.5304 1.6696-1.7397 4.7621-2.6873 6.8721-3.1331 6.9764-4.2494 11.245-4.9815 19.05-0.5841 6.2265-0.8336 7.5344-1.485 7.7844-1.0779 0.41363-2.377-2.3138-3.2453-6.8136-0.7449-3.8598-1.6066-9.4813-1.6164-10.544-0.023-2.5577-1.1088 2.8093-1.4491 7.1658-0.2104 2.6934-0.4718 3.466-1.1728 3.466-0.7029 0-0.7984-0.21887-2.3677-5.424-1.4718-4.882-2.0067-7.2166-2.2911-10-0.1011-0.98886-0.2291-1.7526-0.2845-1.6972-0.055 0.0554-0.8207 2.1718-1.7008 4.7032-1.7532 5.0428-2.8964 10.136-3.5592 15.858-0.4925 4.2511-0.7812 5.4444-1.3718 5.6711-0.6853 0.26297-1.1253-0.39698-1.4084-2.1126-0.2799-1.696-0.9269-10.809-1.3141-18.507-0.3227-6.4184-1.0798-17.306-1.2603-18.124-0.2893-1.3113-3.7541 10.653-4.6739 16.14-0.5012 2.9902-1.1308 9.9196-1.3488 14.847-0.2071 4.6787-0.6263 7.835-1.1042 8.3129-0.566 0.566-1.3558 0.0432-1.5178-1.0047-0.073-0.47118-0.3198-3.6546-0.5487-7.0744-0.7176-10.722-0.9448-13.207-1.7296-18.918-0.685-4.9842-2.4315-16.281-3.2083-20.752l-0.2957-1.702-0.4899 0.95484c-2.2754 4.4352-3.4137 12.092-3.8062 25.6-0.078 2.6921-0.2062 5.9664-0.2843 7.276-0.078 1.3097-0.013 5.8055 0.1459 9.9907 0.2039 5.3855 0.2057 7.7633 0.01 8.1359-0.3548 0.66282-1.4793 0.69127-1.8245 0.0462-0.2987-0.55813 0.088-28.84 0.4896-35.824 0.2983-5.1858 0.9995-9.2659 2.2866-13.305 1.1913-3.7383 2.9328-7.1127 3.7293-7.2261 1.0187-0.14499 1.338 0.84254 1.93 5.969 0.3066 2.6556 0.8566 6.7037 1.2221 8.9958 1.8185 11.403 2.6655 18.345 3.1883 26.128l0.1954 2.9104 0.196-2.5135c0.8684-11.136 1.6974-15.562 4.6272-24.703 0.6591-2.0566 1.5171-5.2871 1.9065-7.1789l0.708-3.4396h1.5875l0.1932 3.9688c0.2553 5.2463 1.1728 20.718 1.671 28.178 0.2187 3.2742 0.4037 6.4889 0.4111 7.1438 0.01 0.77825 0.2388-0.0923 0.664-2.5136 0.9454-5.3829 1.683-8.0828 3.8607-14.132 2.7866-7.74 3.241-7.7895 4.3116-0.46985 0.3791 2.5923 0.9945 5.7474 1.3674 7.0115 0.373 1.264 0.744 2.5293 0.8244 2.8117 0.08 0.28239 0.4042-1.0277 0.7195-2.9114 0.3585-2.1416 0.8512-4.044 1.315-5.0775 0.6492-1.4466 0.8324-1.6527 1.4692-1.6527 1.1178 0 1.5663 1.2534 1.8728 5.2332 0.2623 3.406 1.4342 11.333 1.8246 12.342 0.2982 0.77058 0.3492 0.53586 1.146-5.2721 0.8184-5.9662 2.1803-11.075 4.1709-15.647 0.7514-1.7259 1.7001-3.9118 2.1083-4.8577 1.0425-2.4162 2.0757-6.4728 2.5233-9.9076 0.4721-3.6218 0.6746-4.3957 1.2445-4.7552 0.5837-0.36817 1.2991 0.0632 1.5415 0.92949 0.098 0.35003 0.19 2.3237 0.2045 4.3859 0.014 2.0622 0.2014 5.9318 0.4154 8.599 0.7887 9.8283 0.9102 11.865 1.0947 18.343 0.1861 6.5325 0.1927 6.59 0.5297 4.6284 0.4547-2.6459 1.5988-6.0802 3.2608-9.7878 1.6058-3.5821 2.6041-5.1283 3.3842-5.2416 0.7569-0.1099 0.9671 0.35057 1.6681 3.6541 0.7398 3.4865 1.405 5.2999 2.2276 6.0727l0.6424 0.60358 0.8762-1.264c1.9698-2.8417 3.2385-4.3705 6.0869-7.3351 4.0714-4.2376 4.0177-4.2419 5.9148 0.46766 1.0999 2.7304 1.5715 3.0144 3.6715 2.2107 1.281-0.49021 1.6324-0.52751 2.5053-0.26598 0.5584 0.16731 2.5493 0.30938 4.4242 0.31572 1.8749 6e-3 3.9447 0.13092 4.5995 0.27685 1.7275 0.38498 19.725 0.76916 22.886 0.48854 1.4552-0.12918 12.468-0.30646 24.474-0.39397 12.006-0.0875 22.424-0.24057 23.151-0.34015l1.3229-0.18107-3.4396-1.7555c-1.8917-0.96551-3.9753-1.9074-4.6302-2.0932-1.5575-0.44176-2.1615-0.97462-2.063-1.8201 0.071-0.60998 0.2065-0.68346 1.4016-0.75999 1.2153-0.0778 1.6971 0.10502 5.9249 2.249 5.2186 2.6463 5.6858 3.0831 5.5085 5.149-0.1023 1.1913-0.2321 1.3542-4.3687 5.4821-4.0556 4.0471-5.0714 4.798-6.0058 4.4394-1.04-0.39909-0.3926-1.4176 3.2464-5.107l3.6438-3.6943-1.3287 0.19175c-1.313 0.18948-43.143 0.60175-59.537 0.58678-10.284-9e-3 -19.076-0.291-19.99-0.64027-0.519-0.19841-0.9479-0.13458-1.8521 0.27561-1.5094 0.68472-2.3865 0.68237-3.2651-9e-3 -0.9582-0.75371-1.6411-2.1784-2.0914-4.363l-0.377-1.8297-2.048 2.0946c-2.3867 2.441-4.5645 5.2785-5.5241 7.1975-0.9497 1.899-2.1264 2.8424-3.3064 2.6509-0.5019-0.0814-1.1817-0.40095-1.5107-0.71004-1.1749-1.1038-3.0301-5.7771-3.0301-7.6331 0-1.4525-1.0991 0.24273-2.747 4.2369-1.8019 4.3674-2.2567 6.7802-2.5321 13.434-0.2695 6.5111-0.5169 7.9662-1.3545 7.9662-0.3009 0-0.617-0.25301-0.7439-0.59531zm92.095-2.6346c-0.5285-0.52842-0.3628-1.1158 0.7548-2.6766 1.7736-2.4768 2.2561-4.3418 1.5821-6.1148-0.3669-0.96495-1.4065-0.91093-2.1631 0.1124-0.699 0.94545-1.3364 1.1927-2.0668 0.80176-0.7007-0.37496-0.6844-1.2159 0.044-2.279 0.8412-1.2276 1.7917-1.6951 3.4464-1.6951 1.1505 0 1.5417 0.11783 1.9766 0.59531 0.9567 1.0503 1.1376 1.703 1.1376 4.105 0 1.9498-0.1074 2.5658-0.6255 3.5893l-0.6255 1.2355h0.7221c0.7964 0 2.1164 0.89939 2.1164 1.442 0 0.65818-0.6744 0.86795-3.3226 1.0335-1.9033 0.11897-2.7509 0.0765-2.9765-0.14916zm-33.336-1.3209c-0.1746-0.17462-0.3175-0.5085-0.3175-0.74195 0-0.5437 1.3002-2.5937 2.8409-4.4789 0.6621-0.81019 1.5389-2.2172 1.9485-3.1267 0.6165-1.369 0.8551-1.6536 1.3861-1.6536 0.8889 0 2.5819 2.655 3.4871 5.4687 0.8624 2.6803 0.812 3.6262-0.1991 3.7427-0.6263 0.0721-0.7797-0.0588-1.1483-0.97999l-0.4254-1.0633-4.1595 0.1078-0.9709 1.5214c-0.9914 1.5533-1.7289 1.9169-2.4419 1.2038zm6.8169-5.1726c-0.01-0.10914-0.1582-0.46625-0.34-0.79357l-0.3305-0.59512-0.9376 1.5871h0.8087c0.4448 0 0.8045-0.0893 0.7994-0.19844zm5.8611 4.7941c-2.1175-1.4832-1.6336-6.3003 0.7587-7.5526 1.7542-0.91826 3.3264-0.47071 3.1333 0.8919-0.066 0.46426-0.3392 0.67305-1.1448 0.87446-1.5317 0.38292-1.7198 0.57445-1.7198 1.7509 0 0.91722 0.1586 1.2025 1.1906 2.1417 1.2282 1.1178 1.5017 1.8845 0.7721 2.1645-0.791 0.30354-2.3749 0.16006-2.9901-0.27086zm-30.497-0.69302c-0.1774-0.32742-0.3752-1.9348-0.4395-3.5719l-0.117-2.9766h-2.8721c-2.8468 0-2.8735-6e-3 -3.0389-0.66489-0.3417-1.3615 0.017-1.4518 5.7628-1.4518 5.3917 0 6.3002 0.14633 6.3002 1.0147 0 0.80545-0.5837 1.1019-2.1696 1.1019h-1.5345v3.0601c0 1.6831-0.1233 3.2904-0.2739 3.5719-0.3698 0.69091-1.2218 0.64691-1.6175-0.0835zm7.2359 0.0132c-0.7569-0.75698-0.085-5.0281 1.0398-6.6092 0.7136-1.0032 2.1233-1.8048 3.1719-1.8036 1.0756 1e-3 2.5018 0.81424 2.7389 1.5614 0.2386 0.75171-0.5654 2.3244-1.4577 2.8515l-0.7402 0.43726 1.0311 0.74697c1.1239 0.81414 1.5588 1.8495 1.0396 2.4751-0.4892 0.58945-0.721 0.50945-2.6931-0.92948-0.9972-0.72761-1.8702-1.3229-1.9398-1.3229-0.07 0-0.1267 0.42455-0.1267 0.94344s-0.1233 1.1737-0.2739 1.4552c-0.3062 0.57206-1.3038 0.68034-1.7899 0.19427zm30.72-0.15608c-0.5178-0.3292-0.8613-2.3977-0.8682-5.2282-0.01-2.8235 0.1685-3.2941 1.2278-3.2941 0.7319 0 1.147 0.71176 1.147 1.967 0 0.51889 0.063 0.94343 0.1411 0.94343 0.078 0 0.7422-0.30462 1.4769-0.67693 1.6222-0.82203 2.7095-0.7825 2.835 0.10308 0.052 0.36399-0.1036 0.75637-0.3784 0.95736-0.4379 0.32019-0.4318 0.3588 0.1026 0.64477 0.9265 0.49584 2.4374 2.6702 2.4374 3.5077 0 0.6506-0.1027 0.7557-0.738 0.7557-0.5388 0-1.2473-0.4648-2.6242-1.7215-1.7098-1.5605-1.9501-1.6972-2.5693-1.4618-0.6075 0.23098-0.6831 0.40472-0.6831 1.5703 0 1.635-0.6546 2.4748-1.5066 1.9331zm194.38-20.305c-0.4667-0.5623-0.051-1.2724 2.1777-3.717 0.9892-1.0851 1.7985-2.0477 1.7985-2.1391 0-0.0914-0.9823-0.0915-2.1828-2.6e-4 -2.6408 0.20068-3.3293 0.048-3.5382-0.78432-0.2372-0.9453 0.3215-1.4162 1.7185-1.4483 1.1695-0.0269 1.1914-0.0412 0.4882-0.31866-1.3767-0.54331-1.1698-2.299 0.2709-2.299 1.2333 0 6.4184 3.5625 6.4184 4.4098 0 0.46324-0.5707 1.1308-3.8535 4.5078-2.1666 2.2288-2.6949 2.5154-3.2977 1.789zm-14.743-4.9129c-0.4798-0.49805-0.4053-1.5028 0.1323-1.7833 0.2547-0.13284 2.5324-0.28586 5.0616-0.34004 4.137-0.0886 4.6279-0.0525 4.8903 0.35954 0.7061 1.1086-1.0507 1.6338-6.4462 1.9272-2.5535 0.13885-3.3826 0.1016-3.638-0.16344zm-35.983-0.26356c-0.4967-0.51703-0.398-1.5068 0.181-1.8166 0.7764-0.41551 6.6873-0.35295 7.2753 0.077 0.6148 0.44951 0.3556 1.3764-0.4536 1.6222-0.3226 0.098-1.9558 0.24198-3.6293 0.31995-2.3034 0.10732-3.123 0.0581-3.3734-0.20254zm26.326 0.11056c-0.5958-0.15855-0.8853-1.2956-0.4603-1.8077 0.2508-0.30224 0.967-0.39344 3.0896-0.39344 1.5197 0 2.9934 0.12325 3.2749 0.27389 0.7351 0.39342 0.6787 1.5341-0.083 1.6892-0.9558 0.19449-5.3145 0.37268-5.8207 0.23797zm-14.114-0.74933c-0.3096-1.2334 0.1991-1.4518 3.3816-1.4518 3.0234 0 3.9189 0.23188 3.9189 1.0147 0 0.94913-0.5387 1.1019-3.8843 1.1019h-3.2494zm-23.548-0.79375c-0.314-1.251 0.1839-1.4518 3.5994-1.4518 2.5767 0 3.2124 0.0802 3.688 0.46533 0.678 0.54907 0.5176 1.2604-0.3359 1.4894-0.3174 0.0851-1.9738 0.15637-3.6809 0.15836-3.0956 4e-3 -3.1042 2e-3 -3.2706-0.66128zm56.579-44.49c-0.1819-0.0734-0.3307-0.34708-0.3307-0.60817 0-0.2611 0.1488-0.5917 0.3307-0.73467 0.3797-0.29841 3.5767-1.3924 4.0691-1.3924 0.1805 0 0.65-0.12232 1.0432-0.27182 0.6959-0.26459 0.6469-0.31216-1.8413-1.7859-2.6207-1.5523-3.2206-2.2856-2.5405-3.105 0.5058-0.6094 1.2198-0.47383 2.788 0.52932 1.5248 0.97539 1.552 0.95467 1.1925-0.90808-0.2923-1.5143 0.029-2.3959 0.8725-2.3959 0.8066 0 1.1146 0.39445 1.3429 1.7198 0.1002 0.58209 0.4134 1.6879 0.6959 2.4573 0.6268 1.7072 0.6664 3.6892 0.09 4.512-0.5191 0.74112-1.0829 0.96278-4.1544 1.6331-2.4542 0.53562-2.9726 0.58669-3.558 0.35047zm-5.3578-11.761c-3.4207-2.2856-4.7526-3.9207-3.9659-4.8686 0.5892-0.70992 1.3833-0.4159 3.0461 1.1279 0.9012 0.83674 2.1347 1.8498 2.7411 2.2512 1.1754 0.77811 1.7886 1.7519 1.5291 2.4283-0.2754 0.71761-1.3018 0.42999-3.3504-0.93879zm-7.9658-8.1172c-1.9399-1.5487-4.4929-4.157-4.6391-4.7397-0.1886-0.75142 0.3047-1.4015 1.0618-1.3992 0.726 2e-3 5.4577 5.0218 5.4577 5.7896 0 0.297-0.2211 0.65833-0.4913 0.80296-0.3837 0.20531-0.6882 0.10582-1.3891-0.45371zm236.98-2.4084c-0.091-0.14674 0.4374-2.101 1.1734-4.3429 1.6596-5.0548 1.7728-5.8201 1.7095-11.56-0.039-3.5234-0.1861-5.2942-0.6157-7.4078-0.9403-4.625-0.7119-6.8327 0.6794-6.5684 0.3698 0.0703 0.4918 0.38423 0.5482 1.4109 0.04 0.72629 0.3146 3.0203 0.6107 5.0978 0.392 2.7514 0.5401 5.1945 0.5453 8.9958l0.01 5.2186-1.0915 3.4396c-1.3713 4.3212-2.0782 5.7948-2.831 5.9021-0.3137 0.0447-0.6446-0.0388-0.7353-0.18553zm10.548-2.2278c-0.073-0.19124 0.062-1.0544 0.3018-1.9182 0.3097-1.1172 0.4843-3.2508 0.6048-7.3914l0.1695-5.8208h1.5875l0.08 4.4979c0.1194 6.731-0.6769 10.98-2.0576 10.98-0.3038 0-0.6124-0.15647-0.6858-0.34771zm-258.67-6.0954c-2.8742-1.9194-3.5084-2.6934-2.8537-3.4822 0.7176-0.86469 2.0314-0.28489 4.9746 2.1954 1.6623 1.4008 2.2396 2.2038 2.0117 2.7978-0.2944 0.76707-1.238 0.42203-4.1326-1.511zm-295.68-1.8251c-0.5332-0.67365-1.371-3.8593-1.7882-6.7994-0.2364-1.666-0.4823-3.114-0.5464-3.2178-0.2132-0.34494-1.1383-10.627-1.3066-14.523-0.1994-4.6136-0.5409-8.4392-1.0845-12.149-0.4923-3.3596-0.3851-3.9903 0.6787-3.9903 0.4252 0 0.8555 0.13327 0.9562 0.29615 0.1006 0.16289 0.2801 2.0381 0.3987 4.1672 1.0503 18.847 1.1558 19.932 2.6782 27.551l0.8723 4.3656 0.1634-15.346c0.13-12.221 0.2553-16.046 0.6152-18.785 0.6054-4.6077 0.9123-31.97 0.4392-39.158-0.1783-2.7082-0.2218-5.3331-0.1009-6.0854 0.1994-1.2412 0.2609-1.3229 0.9947-1.3229 0.7044 0 0.801 0.10513 0.972 1.0583 0.1045 0.58209 0.3095 3.9158 0.4557 7.4083 0.2335 5.5788 0.3794 6.9098 1.2014 10.96 1.6635 8.1948 1.7779 9.8154 2.0009 28.331 0.2131 17.696 0.1804 17.273 1.5107 19.552 0.5376 0.92099 0.7265 1.0785 0.9069 0.75611 0.4579-0.81825 1.3067-4.9584 2.1022-10.254 0.4481-2.9832 1.1503-7.2099 1.5604-9.3927 0.6969-3.71 0.7364-4.2854 0.6062-8.8272-0.1521-5.303 0.2846-10.936 0.8865-11.436 0.5692-0.4724 1.2442-0.15972 1.4762 0.68386 0.4187 1.5228 0.3228 10.402-0.1422 13.158-0.4767 2.826-0.38 4.1652 0.6274 8.6876 0.6584 2.9558 2.2331 7.886 2.7404 8.5798 0.3528 0.48247 0.3921 0.45162 0.6847-0.53716 0.1707-0.57696 0.4221-3.7279 0.5586-7.0022 0.4101-9.8382 0.9831-13.693 2.812-18.918 0.6579-1.8797 0.8146-2.1167 1.3988-2.1167 1.0029 0 1.3287 1.0214 1.757 5.5093 0.4703 4.9285 0.8483 6.5372 2.933 12.482 1.1848 3.3786 1.9408 5.1594 2.1905 5.1594 0.1084 0 0.2811-2.8277 0.3838-6.2839 0.2045-6.884 0.4048-8.8581 1.2421-12.237 0.7252-2.927 2.5593-7.6702 3.0367-7.8534 1.2406-0.47606 1.6938 1.8434 1.9484 9.97l0.203 6.4823 1.2285 4.1981c1.4193 4.8502 1.7288 5.5612 1.7427 4.004 0.012-1.3545 0.9335-7.6843 1.6175-11.112 0.2903-1.4552 1.1887-4.6104 1.9963-7.0114 0.8076-2.4011 1.7254-5.6632 2.0395-7.2492 0.6153-3.107 1.0875-3.8571 1.9102-3.0344 0.3567 0.35674 0.4603 1.6416 0.6609 8.1976 0.3023 9.8839 0.6281 11.614 3.1067 16.506l1.2067 2.3812 0.4942-1.7198c1.7712-6.1639 2.8172-8.5379 3.8251-8.6813 0.8904-0.12675 1.3431 0.84961 1.8205 3.9271 0.4563 2.9406 0.8853 3.9605 1.6662 3.9605 0.2647 0 1.2527-0.75642 2.1956-1.6809 2.2704-2.2262 3.4411-2.8656 7.2789-3.976 4.4518-1.288 6.2745-1.4108 10.67-0.71878 3.2262 0.50799 5.3258 0.5883 21.696 0.82988 9.9682 0.1471 19.493 0.37355 21.167 0.50321s6.0454 0.24574 9.7154 0.25794c5.681 0.0189 7.4309-0.0765 11.774-0.64181 2.8056-0.3652 5.9942-0.85152 7.0856-1.0807 1.0914-0.22919 3.9489-0.49594 6.35-0.59277l4.3656-0.17605-2.3061-1.5875c-1.2683-0.87313-2.8459-1.9104-3.5057-2.3049-1.2418-0.74263-1.569-1.5855-0.8822-2.2724 0.8147-0.81463 2.7356 0.1067 6.519 3.1266 4.0708 3.2492 4.5406 3.7945 4.5406 5.2688 0 1.4408-0.2486 1.8518-2.7547 4.554-1.0315 1.1122-2.4578 2.6961-3.1696 3.5197-1.1203 1.2964-1.4043 1.4867-2.1145 1.4174-0.5227-0.0511-0.8515-0.24443-0.9061-0.5329-0.088-0.46612 3.2873-5.1124 4.5727-6.2941 0.6518-0.59918 1.8843-2.6194 1.6787-2.7514-0.2508-0.16107-10.057 0.39808-11.065 0.6309-0.6549 0.15129-3.1552 0.5782-5.5563 0.94868-5.4125 0.83513-15.208 1.1353-21.167 0.64853-2.1101-0.17236-12.468-0.4124-23.019-0.53342-17.737-0.20345-19.451-0.26303-22.754-0.79075-4.2812-0.68407-6.1676-0.58631-10.039 0.52029-3.5504 1.0148-4.8124 1.6519-6.17 3.115-3.0649 3.3029-2.9848 3.2393-4.0831 3.2393-1.7275 0-2.835-1.5341-3.5205-4.8767-0.381-1.8582-0.4936-1.7343-1.4455 1.5911-0.3715 1.2977-1.0503 3.2288-1.5086 4.2913-0.7393 1.7142-0.9061 1.9228-1.4812 1.8521-0.5605-0.0689-0.8971-0.6342-2.4896-4.1808-2.7571-6.14-3.3675-8.9822-3.4094-15.875l-0.02-3.3073-1.423 4.2333c-2.3221 6.908-3.8037 16.011-3.8325 23.548-0.011 2.8742-0.6137 4.0167-1.7001 3.2224-0.3882-0.28388-0.5348-0.91322-0.7183-3.084-0.1759-2.0792-0.6165-4.0544-1.8544-8.312l-1.6238-5.5847-0.2016-6.6146c-0.1108-3.638-0.2216-6.6741-0.2461-6.7469-0.1058-0.31376-1.1529 3.0023-1.7546 5.5562-0.5372 2.2808-0.6995 3.9149-0.9066 9.1281-0.2314 5.8236-0.5921 9.9067-0.96 10.865-0.409 1.0659-1.755-0.0324-2.9396-2.3987-0.7909-1.58-2.9099-7.5464-3.6545-10.29-0.7179-2.645-1.4136-6.7653-1.4569-8.6274l-0.028-1.1906-0.651 1.9844c-0.9316 2.84-1.3821 6.2224-1.6739 12.568-0.3508 7.6308-0.4935 9.2132-0.9462 10.496-0.5265 1.4921-1.6109 2.8651-2.263 2.8651-0.8659 0-2.3236-3.6121-3.8876-9.6324l-0.7495-2.8856-0.4436 2.621c-0.2439 1.4415-0.7461 4.645-1.116 7.1189-1.1196 7.4883-2.4068 11.533-3.7302 11.722-0.7248 0.10337-1.9414-1.3358-3.0851-3.6494l-0.8486-1.7168 0.091-13.629c0.097-14.5-0.1531-21.104-1.0223-27.027-0.2808-1.9129-0.573-3.5406-0.6494-3.617-0.076-0.0764-0.1379 2.411-0.1366 5.5275 0 6.6476-0.3914 14.695-0.984 20.086-0.3276 2.9797-0.4384 7.3689-0.4963 19.654-0.076 16.143-0.1361 17.132-1.1101 18.247-0.4729 0.54136-1.2053 0.60278-1.5777 0.13229zm287.38-5.8096c-1.9388-2.0318-2.6428-3.6533-1.906-4.39 0.6579-0.65789 1.4621-0.35535 2.1451 0.80697 0.3634 0.61847 1.0352 1.5944 1.4929 2.1688 1.0203 1.2806 1.0261 2.3542 0.013 2.4726-0.4903 0.0573-0.942-0.21661-1.7452-1.0583zm-64.798-2.9115c-1.7462-0.1284-5.0968-0.46599-7.4458-0.75019-3.2022-0.38744-5.9593-0.51673-11.019-0.51673-5.5474 0-7.2354-0.091-9.4875-0.51122-1.5068-0.28117-3.1927-0.58547-3.7465-0.67621-0.5538-0.0908-1.2475-0.40558-1.5415-0.69963-0.5025-0.50242-0.5245-0.75258-0.3654-4.1524 0.1885-4.0261 0.6895-10.86 1.468-20.022 0.622-7.3212 0.6412-8.8348 0.1246-9.8255-0.2174-0.41682-0.396-1.3125-0.3969-1.9904 0-1.0658 0.1566-1.4268 1.1681-2.6685 0.6434-0.78978 1.7733-2.4578 2.511-3.7068 2.3147-3.9188 6.9396-10.605 9.3762-13.555 3.3072-4.0042 2.8032-3.8503 11.682-3.5666 12.26 0.39171 31.789 0.30137 35.454-0.16402 7.0247-0.89205 8.0698-0.84831 8.0698 0.33776 0 0.38595-0.2022 0.92512-0.4493 1.1982-0.4171 0.46094-0.4229 0.85971-0.081 5.5771 0.4827 6.6619 0.6907 34.286 0.269 35.717-0.1928 0.6544-1.0502 1.8054-2.4645 3.3085-1.1929 1.2678-3.001 3.257-4.0182 4.4204s-2.7558 3.0871-3.8637 4.2747c-1.1078 1.1876-2.3452 2.7354-2.7497 3.4396-1.4962 2.6047-1.8285 2.8303-6.0148 4.0828-2.5018 0.74858-2.7163 0.7682-7.9375 0.72582-2.9514-0.024-6.7949-0.14862-8.5412-0.27703zm15.387-2.5434c3.0825-1.0187 3.8604-1.4277 4.3086-2.2652 0.517-0.96602 0.5742-21.051 0.066-23.181-0.1909-0.80037-0.5205-2.7649-0.7325-4.3656-0.7603-5.741-0.7568-5.6504-0.2398-6.2217 0.2615-0.28886 0.5462-0.52338 0.6328-0.52115 0.4454 0.0115 0.8516 0.51901 0.9667 1.208 0.071 0.42478 0.2401 1.3676 0.376 2.0952 0.1358 0.7276 0.3724 2.4147 0.5258 3.7492s0.3967 3.0473 0.5407 3.8064 0.2626 4.8465 0.2636 9.0831c0 4.2366 0.078 8.5108 0.1715 9.4982l0.1695 1.7953 0.6586-0.60467c0.3622-0.33256 1.7651-1.9144 3.1174-3.5151 1.3524-1.6007 3.4903-4.101 4.7508-5.5562 1.2606-1.4552 2.4287-2.9435 2.5959-3.3073 0.4449-0.96827 0.3764-29.281-0.08-33.205-0.4882-4.1946-0.501-4.2105-1.7717-2.2114-0.5881 0.92525-1.383 2.2369-1.7664 2.9147-0.3834 0.67786-2.287 3.3568-4.2302 5.9531-3.6237 4.8417-7.4898 8.9194-8.7585 9.2378-0.3711 0.0932-2.1343 0.0214-3.9181-0.15953-3.412-0.34597-10.527-0.18964-12.504 0.27474-2.5259 0.59343-6.1301 1.0581-10.305 1.3284-2.4663 0.15973-4.5936 0.35804-4.7273 0.44069-0.1338 0.0827-3.4554 0.24529-7.3814 0.36142s-7.1805 0.25345-7.2322 0.30517c-0.052 0.0517-0.2766 2.2926-0.4998 4.9797-0.2232 2.6871-0.5831 6.6716-0.7998 8.8544-0.2168 2.1828-0.4672 6.1119-0.5566 8.7312-0.09 2.6365-0.3321 5.4624-0.5424 6.3303-0.209 0.86231-0.2877 1.6569-0.175 1.7657 0.1126 0.1088 1.9414 0.5046 4.064 0.87956 3.4567 0.61065 4.5464 0.6819 10.451 0.68327 3.6255 8.4e-4 7.3063 0.12021 8.1794 0.26526s4.0283 0.45537 7.0115 0.68959c2.9831 0.23422 6.436 0.52185 7.6729 0.63917 3.9708 0.37663 6.9826 0.14206 9.6981-0.75533zm-11.474-1.8005c-1.2558-0.61916-1.9582-2.2485-1.8679-4.3328 0.096-2.2099 0.4076-2.4006 2.5907-1.5842 2.0136 0.75304 3.699 2.2464 3.699 3.2775 0 1.124-0.7435 2.2828-1.7289 2.6945-1.1403 0.47646-1.6354 0.46633-2.6929-0.0551zm2.1408-2.335c-0.169-0.44059-0.894-0.76539-0.894-0.40056 0 0.14096 0.1191 0.25628 0.2646 0.25628s0.2646 0.18562 0.2646 0.41249 0.1138 0.34212 0.253 0.25611c0.1392-0.086 0.1895-0.32195 0.1118-0.52432zm-23.755 0.83125c-0.8229-0.82288-1.1062-2.7388-0.5883-3.9784 1.1828-2.8309 6.0111-2.0521 5.981 0.96476-0.01 0.8977-0.9249 2.7124-1.6119 3.1936-0.9597 0.67221-3.027 0.57377-3.7808-0.18004zm-0.9979-10.547c-1.2039-0.69799-1.9496-1.9894-1.707-2.956 0.1273-0.5074 0.3463-0.70133 0.7918-0.70133 0.3386 0 1.002-0.19271 1.4741-0.42823 0.5882-0.29339 1.2749-0.38822 2.1809-0.30116 1.7304 0.16627 2.6512 1.025 2.6512 2.4727 0 2.2276-3.0081 3.2957-5.391 1.9141zm21.815-1.2079c-0.9539-0.89107-1.2613-1.8058-1.0268-3.0556 0.3243-1.7287 0.7294-2.0018 2.8511-1.922 1.6064 0.0604 1.9746 0.16407 2.3858 0.67179 0.6968 0.86056 0.8576 1.7626 0.5119 2.8726-0.3735 1.1994-1.3442 1.9282-2.7841 2.0905-0.9458 0.1066-1.2196 0.0137-1.9379-0.65721zm2.4093-2.0663c0.09-0.23546 0.046-0.34166-0.104-0.24897-0.1439 0.0889-0.2616 0.27369-0.2616 0.41062 0 0.38058 0.1897 0.29672 0.3656-0.16165zm-26.2-6.2017c-0.3118-0.12585-0.7583-0.50198-0.9922-0.83585-1.5649-2.2342 1.5531-5.4155 4.8009-4.8984 2.7676 0.44066 3.2017 4.7311 0.5717 5.6509-1.05 0.36722-3.5586 0.41493-4.3804 0.0833zm1.0552-2.2626c-0.086-0.22455-0.2134-0.35154-0.2828-0.28218-0.069 0.0693-0.048 0.25308 0.048 0.40828 0.2609 0.42214 0.4134 0.34013 0.2345-0.1261zm22.614-0.029c-0.9792-1.082-1.3753-3.692-0.6514-4.2927 0.1968-0.16332 1.0744-0.37185 1.9503-0.46339 1.3996-0.14629 1.6606-0.0982 2.1557 0.39685 0.8597 0.85969 0.7793 2.6944-0.1643 3.7504-0.9321 1.0431-2.6154 1.3546-3.2903 0.60883zm23.292-0.85415c-1.2577-0.79758-1.5474-1.231-1.5474-2.3152 0-2.3881 2.6119-3.3589 4.1929-1.5584 1.0176 1.1591 1.2869 2.4461 0.7351 3.5133-0.7045 1.3624-1.6428 1.4623-3.3806 0.36021zm-40.177-9.4088c1.9645-0.21455 5.0006-0.52417 6.7469-0.68804 1.7462-0.16387 4.2894-0.52604 5.6515-0.80482 2.0985-0.4295 3.625-0.50687 10.001-0.50687 6.0064 0 7.6688-0.0762 8.2391-0.37748 2.0389-1.0772 8.5306-8.9554 11.462-13.91 0.904-1.528 2.1654-3.5363 2.8032-4.4629 0.6377-0.92665 1.1082-1.7361 1.0455-1.7988-0.063-0.0627-1.5865 0.0822-3.3863 0.32189-2.8531 0.37998-5.855 0.424-23.427 0.34354-20.045-0.0918-20.159-0.0893-20.902 0.45604-1.0013 0.73442-3.9549 4.4069-6.1264 7.6173-3.2118 4.7486-3.7303 5.5729-4.9665 7.8962-0.6741 1.2669-1.6412 2.789-2.1492 3.3825-0.8782 1.0259-0.9067 1.1209-0.5795 1.9298 0.1892 0.46797 0.4286 0.91039 0.532 0.98315 0.3927 0.27645 11.641-9e-3 15.056-0.38152zm25.069-6.6177c-1.1295-1.0374-1.2864-1.967-0.4698-2.7836 1.5482-1.5482 5.0338-0.61981 5.0338 1.3407 0 1.0859-0.2491 1.5415-1.0772 1.9697-1.2739 0.65875-2.3776 0.49202-3.4868-0.52672zm-12.307-3.4927c-0.9549-0.47067-1.3158-1.3493-0.885-2.1544 0.4488-0.83848 2.6663-2.1704 3.6136-2.1704 1.0421 0 1.4472 0.45531 1.6322 1.8343 0.1275 0.95092 0.045 1.1584-0.7911 1.9948-1.0626 1.0626-2.1214 1.2096-3.5697 0.49569zm-9.7767-3.9216c-1.0201-0.44355-1.3367-1.391-0.854-2.5563 0.5934-1.4326 3.194-2.4594 3.5934-1.4188 0.084 0.21828 0.4729 0.39687 0.8648 0.39687 0.8041 0 1.3475 0.42815 1.3475 1.0618 0 0.76487-2.7544 2.9181-3.7042 2.8957-0.2182-5e-3 -0.7796-0.17581-1.2475-0.37924zm225.58 51.786c-0.1791-0.45762-0.2385-2.1511-0.1602-4.5641 0.1177-3.6277 0.1855-4.0236 1.2467-7.276 1.7563-5.383 3.1585-7.8594 6.8168-12.039 2.4317-2.7783 3.2708-3.5712 3.7794-3.5712 0.4821 0 0.6765 0.1609 0.7406 0.61296 0.066 0.46722-0.439 1.1592-2.1247 2.9104-3.9753 4.1296-5.7883 7.232-7.718 13.207-0.9172 2.8399-0.9598 3.1369-0.9598 6.6981 0 2.0628-0.1223 3.9549-0.2739 4.2382-0.3915 0.7316-1.0152 0.63167-1.3469-0.21584zm-158.98-6.3179c-2.1663-1.9102-2.6796-2.7272-2.1298-3.3897 0.6552-0.78939 1.4946-0.46655 3.2853 1.2635 1.8786 1.8151 2.4977 2.9071 1.9928 3.5154-0.5401 0.65082-1.1298 0.39061-3.1483-1.3892zm-185.68-5.1782c-0.4053-0.40535-0.4184-3.9405-0.022-5.821 0.6252-2.9626 4.3906-5.0541 6.829-3.7931 1.7366 0.89805 1.286 3.2845-0.872 4.6183l-0.9454 0.5843 0.9135 0.91353c1.7888 1.7887 2.2331 3.6075 0.9189 3.761-0.567 0.0662-0.8501-0.20755-1.9152-1.8521-0.6875-1.0614-1.4894-2.1721-1.7821-2.4683-0.763-0.77208-0.6723-1.1485 0.5923-2.4577 1.0428-1.0795 1.0668-1.1351 0.3301-0.7647-1.5908 0.79982-1.8333 1.32-1.9807 4.2483-0.074 1.4781-0.2316 2.8363-0.3493 3.0182-0.2722 0.42057-1.3022 0.4285-1.7175 0.0132zm10.79-0.3505c-0.4758-0.57335-0.1781-3.584 0.5457-5.5185 0.3201-0.8556 0.9982-2.0163 1.5069-2.5794 1.375-1.522 2.2053-1.3926 3.6443 0.56776 1.0292 1.4021 2.5106 4.7586 2.5106 5.6886 0 0.71715-0.6374 1.3032-1.1876 1.0921-0.2204-0.0846-0.6015-0.57501-0.8471-1.0899-0.2932-0.6148-0.5882-0.89665-0.8595-0.82104-0.2272 0.0633-1.0381 0.19445-1.8021 0.29139-1.3246 0.16807-1.3891 0.21277-1.3891 0.96257 0 0.43248-0.1232 1.0166-0.2739 1.2981-0.3273 0.61161-1.3793 0.67328-1.8482 0.10836zm4.5202-5.0867c-0.1465-0.25466-0.4907-0.74687-0.7648-1.0938l-0.4985-0.63078-0.3028 0.8687c-0.4402 1.2629-0.4078 1.3189 0.7648 1.3189 0.9419 0 1.0363-0.0545 0.8013-0.46302zm-21.75 4.6302c-0.1766-0.32742-0.3747-1.8752-0.4402-3.4396l-0.1191-2.8443h-1.8975c-1.123 0-2.027-0.12959-2.215-0.3175-0.486-0.48608-0.3777-1.4837 0.1943-1.7899 0.2911-0.15581 2.3226-0.27389 4.7119-0.27389 4.4367 0 5.2497 0.19238 5.0563 1.1965-0.1069 0.55544-0.9115 0.85398-2.4086 0.89378l-0.9922 0.0264v3.0601c0 1.683-0.1232 3.2904-0.2739 3.5719-0.3698 0.69096-1.2221 0.6469-1.616-0.0835zm42.054-1.9182c-1.2002-1.0914-2.2531-1.9844-2.3397-1.9844-0.087 0-0.2685 0.62507-0.4042 1.3891-0.2331 1.3122-0.2907 1.3891-1.0405 1.3891-0.7378 0-0.8063-0.0838-0.9726-1.1906-0.098-0.65485-0.1876-2.5063-0.1984-4.1143-0.021-3.1037 0.1345-3.5586 1.2146-3.5586 0.7065 0 1.147 0.70461 1.147 1.8347 0 0.44613 0.052 0.81114 0.1148 0.81114 0.063 0 0.7053-0.36712 1.4271-0.81583 2.429-1.51 3.678-0.40159 1.6312 1.4476l-1.0859 0.9811 1.8631 1.8448c1.0248 1.0146 1.9377 2.1416 2.0287 2.5043 0.1779 0.70878-0.2532 1.4464-0.8453 1.4464-0.1967 0-1.3397-0.89297-2.5399-1.9844zm10.305 1.5358c-0.5954-0.15355-0.8858-1.2913-0.4604-1.8039 0.2167-0.26106 0.8169-0.39344 1.784-0.39344h1.4574l-0.164-0.99218c-0.09-0.54571-0.1653-1.7339-0.1669-2.6404v-1.6482l-1.1845 0.83489c-1.1555 0.81451-1.1975 0.82306-1.7198 0.35041-0.9513-0.86098-0.6836-1.5632 1.1019-2.89 1.6054-1.193 2.6476-1.5108 3.0134-0.91898 0.3384 0.54756 1.1566 4.5833 1.1634 5.739 0 0.62803-0.1164 1.3722-0.2671 1.6536-0.2363 0.44161-0.1845 0.51177 0.378 0.51177 0.6157 0 1.4834 0.60056 1.4834 1.0267 0 0.10731-0.1488 0.38232-0.3307 0.61114-0.2465 0.31011-1.0043 0.44949-2.9766 0.54745-1.4552 0.0723-2.8541 0.0777-3.1086 0.012zm-21.248-0.43266c-2.0926-0.60309-3.0273-1.7668-3.0273-3.7688 0-2.3206 1.5983-4.0583 3.9397-4.2833 1.2511-0.12021 1.3538-0.0833 1.6639 0.59719 0.2967 0.65119 0.2676 0.77621-0.2847 1.2234-0.3383 0.27394-0.9445 0.49808-1.3471 0.49808-0.9098 0-1.3668 0.52543-1.4185 1.6307-0.034 0.73726 0.1467 0.99184 1.3493 1.8966 1.3861 1.0428 1.6719 1.6403 1.0715 2.2406-0.375 0.37507-0.5354 0.37222-1.9468-0.0345zm152.22-1.1866c-2.3562-1.5358-2.953-2.3319-2.3197-3.095 0.5705-0.68745 1.4388-0.43163 3.3793 0.99562 2.1062 1.5491 2.7066 2.3599 2.2658 3.0599-0.4656 0.7394-0.9174 0.60891-3.3254-0.96057zm162.7 0.84426c-0.5662-0.56618 0.6494-4.652 2.2158-7.4476 0.467-0.83338 1.0853-1.9681 1.3742-2.5217 0.4317-0.82722 0.6485-0.9921 1.2181-0.92604 1.0767 0.12489 0.9061 1.5223-0.4394 3.5984-0.9699 1.4967-1.6464 3.0353-2.7574 6.2715-0.3473 1.0117-1.1281 1.5086-1.6113 1.0254z"/></g></svg>
