<svg width="170.91mm" height="66.891mm" version="1.1" viewBox="0 0 170.91 66.891" xmlns="http://www.w3.org/2000/svg">
 <g transform="translate(953.29 -644.26)">
  <path d="m-865.77 644.27c-0.2839 0.0396-0.5475 0.21355-0.7064 0.51056-0.4131 0.7718-0.097 13.794 0.3415 14.073 0.4678 0.29686 0.8077 0.12307 1.1777-0.60204 0.4567-0.89543 0.4718-13.229 0.017-13.684-0.2413-0.24125-0.5455-0.33618-0.8294-0.29662zm-10.412 5.5976c-0.3374-0.0565-0.6697 0.0818-0.8604 0.43821-0.2228 0.41632-0.1413 0.91409 0.3736 2.282 0.8089 2.1491 2.3729 5.1605 3.0675 5.9061 0.635 0.68158 1.3059 0.47611 1.3059-0.39997 0-0.548-1.8757-5.2399-2.9962-7.4946-0.2105-0.42361-0.553-0.67521-0.8904-0.73174zm22.061 1.6464c-0.8947-0.22455-1.1634-0.0279-1.3777 1.0067-0.098 0.47127-0.6014 1.9284-1.1194 3.238-1.2837 3.2449-1.6718 4.7712-1.3068 5.1361 0.4503 0.45028 0.9296 0.34056 1.341-0.30747 0.8762-1.3805 2.8463-6.3841 2.9894-7.5928 0.1471-1.2415 0.1198-1.3183-0.5265-1.4805zm-29.66 3.4024c-0.1633 0.0682-0.2987 0.21868-0.4201 0.44546-0.391 0.73068-0.103 1.1766 2.1058 3.2603 1.8293 1.7257 2.4478 2.0544 2.7983 1.4872 0.3656-0.59159-0.2168-1.6423-1.8986-3.4251-1.3555-1.437-2.0954-1.9726-2.5854-1.7679zm36.581 6.8673c-3.5793-0.16565-4.2935-0.0396-4.8829 0.85989-0.3627 0.5536-0.3792 0.78466-0.1049 1.4469 0.4119 0.99445 1.4956 1.3224 4.3666 1.3219 1.4085-2.5e-4 3.0462 0.23323 4.8948 0.69712 5.3326 1.3382 8.4699 3.3286 8.8568 5.6188 0.2217 1.3122 0.055 1.6248-0.8686 1.6268-3.1765 7e-3 -5.3599 2.3759-4.9201 5.3397 0.2409 1.6236 0.7529 2.3316 1.6856 2.3316 1.0367 0 1.5963-0.85027 1.5963-2.4252 0-1.4129 0.6084-2.0727 1.911-2.0727 0.7059 0 0.7349 0.0518 0.7349 1.3332 0 2.355-1.4419 4.2534-4.4897 5.9123-1.0662 0.58028-2.0035 0.79838-4.8328 1.124-4.6515 0.53529-4.5638 0.51242-4.9211 1.2966-0.9784 2.1474 2.7487 3.1587 7.7613 2.1063 5.3558-1.1245 9.8194-5.3496 10.34-9.788 0.2412-2.0554 0.1447-1.9824 2.0107-1.5229 0.9194 0.2264 1.7111 0.44238 1.7581 0.48008 0.047 0.0376-0.3898 0.94247-0.9715 2.0107-2.0368 3.7404-2.8031 8.2352-1.925 11.293 0.5796 2.0181 3.6788 4.7831 7.0151 6.2585 2.4377 1.0781 8.0317 2.4853 12.697 3.1936 2.4908 0.37815 5.4219 0.84346 6.5133 1.034v-5.2e-4c2.8648 0.50066 8.6181 0.49651 10.833-7e-3 2.6587-0.6047 3.9188-1.5244 5.6493-4.1253 2.9159-4.3823 3.8849-6.9195 4.0788-10.676 0.3019-5.848-1.6684-10.097-5.1749-11.157-0.8224-0.24883-1.6741-0.59524-1.8923-0.76998-1.47-1.1768-9.2753-4.4883-12.832-5.4441-2.3971-0.64408-7.2881-1.2816-9.831-1.2816-4.6057 0-8.4569 1.9129-11.353 5.64l-0.7849 1.0103-2.1126-0.53485c-1.162-0.29427-2.4626-0.5704-2.8902-0.6134-0.7468-0.0751-0.7899-0.15384-1.0976-1.9885-0.3874-2.3101-1.0308-3.4137-2.819-4.8374-3.3367-2.6568-8.6683-4.4429-13.999-4.6896zm-42.121 1.3007c-1.7336 0.0819-2.6172 0.29264-4.5041 1.0744-3.3817 1.401-7.053 3.5038-8.7348 5.0028-1.6323 1.4548-3.0858 4.03-3.6189 6.412l-0.321 1.4351-1.2195 0.18293c-0.6709 0.10061-1.8084 0.4063-2.5275 0.67955-0.7191 0.27324-1.3198 0.47008-1.3338 0.43718-0.015-0.0329-0.5414-0.75737-1.1705-1.6097-0.8731-1.183-1.4964-1.7152-2.6349-2.249-1.3815-0.64773-1.7544-0.69918-5.0633-0.69918-3.385 0-3.7346 0.0511-6.6838 0.98133-4.137 1.3049-6.9739 2.4592-13.18 5.363-5.6757 2.6556-8.4197 4.389-10.649 6.7262-2.1294 2.2325-2.3497 2.9089-2.3347 7.1701 0.019 5.4734 0.7223 8.0972 3.1347 11.693 1.8498 2.757 3.7957 4.344 6.2973 5.1351v-5.2e-4c1.4387 0.45501 2.4977 0.44571 3.8576-0.0341 0.6303-0.22234 1.2903-0.3485 1.4671-0.2806 0.4368 0.16761 5.4065-0.50066 8.7359-1.1746 3.9555-0.80069 7.1069-1.8958 10.634-3.6954 3.8404-1.9597 5.9266-3.6006 7.3763-5.8017 1.843-2.7981 2.2356-4.2953 2.3306-8.8837 0.077-3.736-0.086-6.43-0.522-8.6274-0.1844-0.92878-0.1602-0.96622 0.8966-1.3891 1.9958-0.79851 1.9979-0.79624 2.0309 2.4097 0.038 3.6344 0.4001 4.952 1.7033 6.1929 1.9767 1.8823 5.2879 2.6874 10.967 2.666 5.2319-0.0197 8.8924-1.0327 12.689-3.5109 1.7508-1.143 1.9957-1.3998 1.9957-2.0955 0-0.54268-0.1984-0.92293-0.6283-1.2046-0.8357-0.5476-2.2125-0.23555-5.2592 1.1922-2.9538 1.3842-5.4398 1.8536-9.8123 1.8516-4.7398-2e-3 -6.7702-0.53684-7.3623-1.9394-0.3689-0.87391-0.508-6.0614-0.1716-6.3986 0.2952-0.29582 1.6743 0.29351 1.6263 0.69505-0.024 0.20262-0.1911 0.73404-0.3711 1.1813-0.4421 1.0991-0.1407 2.1797 0.6646 2.3818 1.0937 0.27451 1.6803-0.12026 2.4174-1.6268 0.568-1.161 0.6803-1.6927 0.5679-2.6892-0.1844-1.6366-1.4386-2.8568-3.2091-3.1223-0.669-0.10032-1.2165-0.31728-1.2164-0.48266s0.352-1.0444 0.7818-1.9528c1.1311-2.391 2.5939-3.6625 6.5345-5.6798 3.3661-1.7231 5.2404-2.3254 7.2337-2.3254 1.6968 0 2.4751-1.7603 1.2986-2.9368-0.4931-0.49308-0.7965-0.5437-2.712-0.4532zm75.399 8.5116c1.565-0.18534 7.0849 0.30046 9.8748 0.86919 2.1779 0.44399 9.2419 3.1474 11.162 4.2716 2.4689 1.4458 4.9239 3.193 5.4792 3.899 0.8765 1.1142 1.1652 2.6467 1.0558 5.6012-0.097 2.6203-0.1374 2.7727-1.3663 5.1609-1.7477 3.3964-3.0548 5.2551-4.1367 5.8818h-5e-4c-0.7667 0.44409-1.4642 0.54168-4.2334 0.59118-5.6887 0.10175-14.14-1.1665-20.546-3.083-5.5306-1.6546-7.4966-2.7182-8.4972-4.5987-0.5241-0.9857-0.5659-4.1711-0.078-5.966 0.3938-1.4483 2.611-5.3134 3.0479-5.3134 0.661 0 2.5724 1.6535 2.9466 2.5492 0.5089 1.2178 0.3088 1.742-1.1069 2.9022-1.8961 1.5537-1.4973 2.795 0.91 2.8314 1.5888 0.024 2.4835-0.5138 3.2039-1.926 1.4693-2.88-0.088-6.6918-3.6861-9.0253l-0.6464-0.41909 1.2753-1.3638c1.4762-1.5782 3.4563-2.639 5.3424-2.8624zm-105.98 5.7263c0.7251 0 1.7035 0.16049 2.174 0.35709 0.7956 0.33242 2.5761 2.0692 2.5601 2.4965 0 0.10407-0.4219 0.48679-0.9282 0.8506-1.164 0.83627-2.8844 3.0177-3.4535 4.3791-0.5816 1.3905-0.5928 3.3175-0.025 4.1842 0.2472 0.37727 0.8288 0.88215 1.2924 1.1219 0.7136 0.36902 1.0452 0.38924 2.1606 0.13177 1.6401-0.37858 2.0185-0.68531 2.0185-1.6361 0-0.61014-0.2238-0.8817-1.1989-1.4531-0.9871-0.57826-1.1693-0.80237-1.032-1.2676 0.2123-0.71972 1.4124-2.2484 2.1487-2.7373 0.5539-0.36777 0.5693-0.3395 0.7493 1.3415 0.101 0.94449 0.1323 3.5418 0.069 5.7717-0.1584 5.5929-0.8763 7.238-4.1176 9.4382-1.6518 1.1212-5.6259 3.1778-7.8088 4.0411-1.5193 0.60087-7.3545 1.9282-9.8444 2.2391-1.9487 0.24326-6.3504 0.29602-7.5685 0.091-1.5548-0.26174-2.5769-0.99768-3.9341-2.8324-1.8171-2.4565-2.3364-3.9726-2.6681-7.7923-0.4523-5.2086-0.1005-6.1471 3.191-8.5106 6.3105-4.5313 20.896-10.214 26.215-10.214zm45.232 11.165c-0.3223-9.5e-4 -0.6371 0.16358-0.8139 0.49403-0.5065 0.94644-2.0589 5.9175-1.9203 6.149 0.07 0.11749 0.377 0.17699 0.6816 0.13229 0.7514-0.11025 3.3147-5.634 2.9125-6.2761-0.2078-0.33163-0.5377-0.49824-0.8599-0.4992zm5.0162 0.48008c-0.1471-1e-3 -0.2941 0.0515-0.463 0.15761-0.3774 0.23712-0.4964 0.84863-0.6429 3.3057-0.099 1.6582-0.2913 3.9083-0.4274 4.9997-0.1605 1.2884-0.1556 2.1004 0.014 2.3151 0.4614 0.58383 1.0939 0.26766 1.4655-0.73277 0.4167-1.122 0.8919-4.7925 0.9369-7.2414 0.036-1.9703-0.03-2.3886-0.4201-2.6391-0.1689-0.10874-0.316-0.16374-0.463-0.16484zm13.529 0.0403c-0.1709 0.0398-0.328 0.16671-0.4801 0.37466-0.1915 0.26192-0.3483 0.54985-0.3483 0.63975s0.8037 1.2924 1.7859 2.6727c0.9823 1.3803 2.5574 3.6057 3.5006 4.9454 0.9431 1.3397 1.8512 2.436 2.018 2.436s0.4513-0.17812 0.632-0.39584c0.4451-0.53635-0.5768-2.606-2.387-4.8338-0.7409-0.91179-1.9105-2.578-2.5993-3.7026-0.9755-1.5931-1.6093-2.2557-2.1218-2.1363zm-7.4662 0.74983c-0.835 0-1.1166 0.96071-0.923 3.1523 0.098 1.1039 0.2971 2.4611 0.4439 3.0158 0.2183 0.82572 0.3721 0.99364 0.8475 0.92604 0.5555-0.0791 0.5838-0.21845 0.6558-3.2205 0.078-3.2675-0.083-3.8737-1.0242-3.8737z" fill="#fff"/>
 </g>
</svg>
