<svg width="481.54mm" height="244.12mm" version="1.1" viewBox="0 0 481.54 244.12" xml:space="preserve" xmlns="http://www.w3.org/2000/svg"><g transform="translate(916.31 1896.4)"><path fill="#fff" d="m-652.27-1652.6c-0.639-0.201-7.8971-0.3048-23.416-0.3347-14.413-0.028-23.805-0.1537-26.154-0.3507-2.408-0.2019-10.639-0.2992-24.011-0.2838-11.191 0.013-20.484-0.062-20.652-0.1653-0.22706-0.1403-0.24524-1.5522-0.0709-5.5059 0.30789-6.9832 0.20747-43.75-0.13258-48.54-0.14582-2.0539-0.50661-5.1349-0.80175-6.8465-0.47867-2.776-0.56195-4.9118-0.77125-19.781-0.22981-16.326-0.224-16.682 0.28271-17.33 0.28454-0.3639 0.77586-0.7391 1.0918-0.8337 0.31596-0.095 6.5574-0.1839 13.87-0.1984 7.3124-0.014 13.306-0.056 13.319-0.093 0.0133-0.036 0.12604-5.8407 0.25058-12.898 0.12454-7.0577 0.30574-14.499 0.40265-16.536l0.17622-3.7042-0.93159 1.7198c-2.3547 4.347-2.7198 4.8947-3.32 4.9812-0.68952 0.099-1.3645-0.3666-1.3645-0.942 0-0.462 2.3892-4.5188 3.5133-5.9654 0.83899-1.0798 1.952-1.778 2.8341-1.778 0.51009 0 2.0015 1.254 5.7641 4.8465 1.3811 1.3187 1.7808 2.0679 1.6012 3.0009-0.1923 0.9985-0.977 0.5657-3.5381-1.9514l-2.6338-2.5887-0.16513 2.9104c-0.29099 5.1288-0.58017 25.603-0.38699 27.4l0.18656 1.7355 22.54 0.033c24.801 0.036 27.179 0.1479 34.446 1.6174 5.3484 1.0815 9.7936 1.4266 14.078 1.0928 4.0305-0.3139 6.6455-0.6824 7.6658-1.0802 0.41032-0.1599 3.2464-0.3897 6.3023-0.5105 3.0559-0.1209 8.0385-0.4179 11.072-0.66s7.201-0.3994 9.2604-0.3497c4.2302 0.1021 5.1325 0.4096 6.1162 2.0841 0.51439 0.8756 0.54713 1.5038 0.73042 14.014 0.10554 7.2032 0.31487 14.228 0.46519 15.61 0.15031 1.3824 0.38853 9.3596 0.52937 17.727 0.14084 8.3674 0.32964 17.892 0.41956 21.167 0.11663 4.2467 0.0648 6.6737-0.18075 8.4667-0.21148 1.5442-0.3646 5.815-0.39703 11.075-0.029 4.7085-0.1532 8.6589-0.27593 8.7785-0.12272 0.1196-3.9736 0.3493-8.5575 0.5104s-9.431 0.4078-10.771 0.5481c-3.4275 0.3587-27.2 0.283-28.387-0.091zm30.295-1.9587c2.9104-0.3084 7.7297-0.6377 10.71-0.7318 2.9799-0.094 5.4545-0.2076 5.4993-0.2523 0.0448-0.045-0.0203-0.5436-0.1445-1.1085-0.21394-0.9729-2e-3 -13.536 0.3584-21.268 0.10243-2.196 0.0432-4.693-0.15372-6.4823-0.18616-1.6914-0.40694-9.7814-0.52711-19.315-0.15712-12.465-0.30838-17.198-0.62987-19.712-0.32769-2.5614-0.42362-5.7955-0.4254-14.341-2e-3 -7.5184-0.0959-11.239-0.29606-11.679-0.65908-1.4465-3.629-1.8566-9.8283-1.3571-5.1889 0.4181-9.3994 0.8726-11.147 1.2032-0.71109 0.1345-2.6812 0.2446-4.378 0.2446-2.0558 0-3.8755 0.1706-5.454 0.5113-1.3029 0.2813-4.2143 0.6582-6.4699 0.8376-3.6167 0.2877-4.5385 0.2716-7.8052-0.1357-2.0373-0.2541-4.9092-0.6919-6.3821-0.9729-5.131-0.9789-6.6687-1.0765-20.473-1.3005-38.123-0.6184-38.1-0.6183-38.1-0.3148 0 0.1639-0.24803 0.4308-0.55118 0.593-0.43364 0.2321-0.64966 0.2059-1.013-0.123-0.40794-0.3692-2.0085-0.4179-13.715-0.4179h-13.253l-0.17326 1.6536c-0.60241 5.7497-9e-3 30.467 0.81162 33.8 0.55352 2.249 1.0222 23.498 0.99691 45.199l-0.018 15.433 0.55935-0.211c0.90946-0.3432 36.36-0.4184 43.422-0.092 3.4925 0.1614 15.577 0.3565 26.855 0.4337 11.278 0.077 21.101 0.2368 21.828 0.3546s6.5617 0.1907 12.965 0.162c9.7594-0.044 12.497-0.1429 16.933-0.613zm-63.103-22.747c-1.9815-0.3781-8.0191-2.3594-9.3597-3.0715-1.9505-1.0361-7.1217-6.054-8.5096-8.2573-2.4382-3.8707-3.5633-7.1705-3.5598-10.44 5e-3 -4.306 1.3104-11.866 2.5002-14.475 1.658-3.6355 5.045-7.2321 8.3546-8.8715 4.8023-2.3789 11.006-4.7071 12.559-4.7129 0.43656 0 1.2254-0.074 1.753-0.1616 0.93051-0.1539 0.96399-0.1994 1.1196-1.523 0.36675-3.1205 1.691-5.1917 3.3194-5.1917 1.4134 0 2.377 1.7572 2.7855 5.0796l0.1854 1.5078 1.2394 0.1489c3.219 0.3867 4.5278 0.7425 7.4026 2.0124 1.7035 0.7525 3.8245 1.8838 4.7134 2.514 1.7944 1.2723 6.2306 6.0479 6.976 7.5098 0.70221 1.3771 2.0485 4.9786 2.4113 6.4506 0.42925 1.7416 0.16206 9.0659-0.40219 11.025-0.23054 0.8004-0.66226 2.5863-0.95938 3.9688-0.9514 4.4267-2.7587 7.3182-6.1434 9.8287-2.4916 1.8481-7.8888 4.5629-11.568 5.8188-2.5073 0.8558-2.528 0.858-8.3344 0.9124-3.2015 0.03-6.1185 0-6.4823-0.072zm13.133-2.6118c2.9881-0.8612 9.2379-3.6068 11.215-4.927 0.83654-0.5586 2.0018-1.4824 2.5896-2.0527 1.5485-1.5028 3.1336-4.5237 3.4936-6.6581 0.16422-0.9736 0.5374-2.646 0.8293-3.7164 0.38167-1.3996 0.57128-3.1386 0.67517-6.1923l0.14446-4.2461-0.9848-2.8976c-1.2068-3.5508-1.4585-3.9701-4.1828-6.9679-2.5791-2.8379-3.747-3.716-6.9309-5.2114-3.1917-1.499-4.5538-1.9272-6.7918-2.1352l-1.8807-0.1748 0.23228 5.002c0.12775 2.7512 0.23227 6.2131 0.23227 7.6932 0 2.4872-0.0488 2.7429-0.64423 3.3764-0.89363 0.9507-2.3843 1.2875-4.9025 1.1076-1.1694-0.084-2.4964-0.152-2.9489-0.152-1.5642-1e-4 -1.6146-0.3743-0.68876-5.1241 0.45884-2.3541 1.0169-5.6494 1.24-7.3229s0.47293-3.4441 0.55502-3.9346l0.14926-0.8919-1.6716 0.1116c-1.3067 0.087-2.7978 0.5631-6.831 2.1798-6.9495 2.7856-7.2852 2.9751-9.5647 5.3982-3.3635 3.5755-4.969 7.4962-5.5448 13.541-0.79075 8.301 0.88116 12.796 6.9423 18.663 3.2023 3.0998 3.7957 3.4926 6.9766 4.6183 3.8539 1.3638 5.1022 1.546 10.752 1.5688 4.8182 0.02 5.3664-0.028 7.5406-0.6546zm-7.2104-33.125c-0.179-2.8429-0.56998-4.7952-0.62259-3.1088-0.0136 0.4366-0.23915 1.8902-0.50117 3.2304-0.51331 2.6254-0.5199 2.604 0.83147 2.692 0.43509 0.028 0.45758-0.1882 0.29229-2.8136zm3.6032 1.5183c0.27513-0.6642 0.27377-2.0523-7e-3 -7.4185-0.19013-3.6307-0.41541-6.5995-0.50061-6.5973-1.2907 0.034-1.6607 4.1857-1.0294 11.552 0.28769 3.3568 0.36749 3.726 0.7601 3.5158 0.24127-0.1291 0.59097-0.6024 0.77711-1.0518zm-0.61265-17.393c-0.0666-0.2546-0.121-0.046-0.121 0.4631 0 0.5093 0.0545 0.7176 0.121 0.463 0.0666-0.2547 0.0666-0.6714 0-0.9261zm-0.71155-2.2994c0-0.2793-0.50777-0.3966-0.6588-0.1523-0.0914 0.1479 0.0194 0.2689 0.24631 0.2689 0.22686 0 0.41249-0.053 0.41249-0.1166zm126.36 49.815c-3.0128-1.5884-5.9361-6.2538-4.8426-7.7286 0.54358-0.7332 1.3576-0.3428 1.9294 0.9254 1.2069 2.6764 3.5264 4.9802 5.0122 4.9782 1.0239 0 1.5109-0.3896 2.2116-1.763 1.0344-2.0276 1.3603-3.9228 1.3603-7.9108 0-7.1551-1.4809-11.45-4.3167-12.519-1.8143-0.684-2.8597-0.2115-4.7938 2.1666-1.3166 1.6188-2.2694 1.9758-2.7712 1.0382-0.14224-0.2658-0.33278-1.7243-0.42342-3.2412-0.0906-1.5168-0.41366-4.09-0.71784-5.7182-0.51937-2.78-0.52622-3.0012-0.11257-3.6325 0.78846-1.2033 1.8723-1.5288 6.5178-1.9572 4.7498-0.4381 5.6914-0.3545 5.9722 0.5305 0.37528 1.1825-0.47261 1.4399-5.4198 1.6457-2.4844 0.1033-4.6526 0.1042-4.8181 0-0.32805-0.2028-0.2376 1.2525 0.2727 4.3875 0.15396 0.9459 0.35078 2.2942 0.43736 2.9961 0.15462 1.2537 0.16768 1.269 0.73359 0.8606 1.4843-1.0711 2.5843-1.4754 4.0137-1.4754 2.6119 0 4.4177 1.1825 5.7075 3.7376 1.4002 2.7737 1.6221 4.0882 1.7654 10.454 0.11498 5.1079 0.0724 6.0391-0.3329 7.2761-0.81697 2.4936-1.8967 4.3675-2.8594 4.9625-1.1814 0.7301-3.1244 0.7237-4.5254-0.015zm-32.58-2.3048c-3.074-1.4542-4.2014-2.8682-5.7934-7.2665-1.6256-4.4909-2.101-9.0384-1.4476-13.848 0.76398-5.624 2.5561-8.3987 6.7292-10.419 2.5207-1.2201 3.3873-1.3087 3.9783-0.4067 0.2296 0.3504 1.6523 1.3665 3.1616 2.258 2.9585 1.7474 4.1474 2.8829 4.9732 4.7499 0.49029 1.1084 0.51588 1.5877 0.375 7.0249-0.0832 3.2094-0.27793 6.6447-0.43283 7.634-0.39946 2.5513-2.8054 8.5696-3.8447 9.6173-1.6155 1.6285-5.0285 1.9194-7.6988 0.6561zm5.8689-2.0235c0.6289-0.6289 2.0619-3.466 2.9372-5.8153 0.89379-2.3988 1.5009-13.222 0.86921-15.495-0.42975-1.547-1.9498-3.0237-5.0114-4.8683-1.5783-0.9509-2.9862-1.729-3.1286-1.729-0.59113 0-2.7923 1.149-3.659 1.91-1.7541 1.5401-2.5304 3.886-3.0291 9.1539-0.34299 3.6231-0.11676 6.1319 0.8514 9.4413 1.6345 5.5871 4.0451 8.0691 7.8376 8.0696 1.4278 2e-4 1.7609-0.095 2.3327-0.6668zm11.738-0.2762c-0.40254-1.0588-0.32001-1.2129 0.60186-1.1241 0.67545 0.065 0.87905 0.2184 0.94919 0.7145 0.16277 1.1511-1.1385 1.4947-1.551 0.4096zm-77.673-75.894c-2.0888-2.1095-3.1728-2.9573-5.1055-3.993-0.81465-0.4365-1.5215-1.0078-1.5707-1.2695-0.12145-0.6452 0.42209-1.244 1.1292-1.244 0.78097 0 3.561 1.7084 5.3577 3.2925l1.4596 1.2868-0.1144-17.237c-0.0629-9.4806-0.1754-17.298-0.24996-17.373-0.0746-0.074-1.745-0.267-3.7121-0.4277-4.5892-0.3748-8.8375-0.033-14.951 1.2045-3.675 0.7436-5.6135 0.976-10.054 1.2054-6.0215 0.3109-72.583 0.6561-74.987 0.3888-1.2086-0.1343-1.5879-0.3006-2.0206-0.8859-0.52694-0.7127-0.53003-0.9018-0.28592-17.506 0.21884-14.886 0.30615-17.116 0.77122-19.696 0.48456-2.6891 1.2474-11.662 1.0103-11.884-0.0571-0.053-0.69906 0-1.4267 0.1231-1.7802 0.2963-47.237 0.2759-49.08-0.022-0.80037-0.1294-4.2085-0.3175-7.5737-0.4181l-6.1185-0.1828v0.7158c0 1.2959-1.459 2.3893-5.5383 4.1507-0.89961 0.3884-2.4474 1.242-3.4396 1.8968-0.99216 0.6548-2.9966 1.8353-4.4542 2.6232-1.4577 0.7879-3.2918 1.9397-4.0759 2.5595-1.5947 1.2605-2.7988 1.436-2.7988 0.4079 0-0.5622 2.457-2.8286 3.8365-3.5389 0.3638-0.1873 2.5665-1.4977 4.8948-2.9121 2.3283-1.4143 4.895-2.839 5.7036-3.1659 0.80866-0.3269 2.0588-1.0278 2.7781-1.5576l1.3078-0.9632-2.3812-0.2162c-3.6376-0.3304-69.799-0.3388-86.122-0.011-8.6781 0.1743-14.604 0.1939-14.883 0.049-0.53217-0.2763-0.61702-1.1537-0.14007-1.4485 0.44886-0.2774 22.95-0.441 64.395-0.4681l35.217-0.023-2.8872-1.5201c-1.5879-0.8361-3.3862-1.8621-3.9963-2.2799-1.6567-1.1347-3.0594-1.7802-4.681-2.154-2.0578-0.4744-2.3812-0.6908-2.3812-1.5928 0-1.0976 0.79782-1.2217 3.378-0.5255 1.6078 0.4339 2.7418 0.9849 4.7265 2.297 1.4361 0.9495 3.9181 2.3835 5.5154 3.1868 1.5974 0.8034 3.314 1.7735 3.8147 2.1559 0.89432 0.683 1.0089 0.6987 6.4884 0.8852 11.249 0.3829 30.033 0.4971 44.665 0.2715 8.2557-0.1273 15.085-0.3059 15.176-0.3969 0.2612-0.2612 0.25907-35.445-3e-3 -41.507-0.23453-5.4344-0.23304-5.4601 0.33462-5.7639 0.3751-0.2008 0.73017-0.2196 1.0377-0.055 0.6989 0.374 39.423 0.3722 43.056 0 1.7038-0.1755 12.673-0.3985 26.458-0.5379 12.951-0.1309 28.965-0.2999 35.586-0.3754 8.9904-0.1027 13.78-0.036 18.918 0.2632 3.7835 0.2203 8.9628 0.471 11.509 0.557 2.5466 0.086 4.8088 0.2081 5.0271 0.2713 0.34285 0.099 0.38443 1.0643 0.30548 7.0908l-0.0914 6.9759 1.9435 0.1656c1.0689 0.091 12.481 0.3063 25.359 0.4782 18.214 0.2432 25.443 0.2417 32.544-0.01 5.7442-0.2011 26.965-0.3573 57.242-0.4213 26.463-0.056 48.172-0.1594 48.242-0.2298 0.18563-0.1856-5.4119-4.1248-6.6634-4.6893-0.58272-0.2628-1.6543-0.628-2.3812-0.8115-2.0624-0.5205-2.8482-1.5173-1.8495-2.3461 1.4356-1.1914 9.6833 3.3991 13.691 7.62 2.2636 2.3841 2.1386 2.907-1.2277 5.1334-1.5643 1.0347-3.258 2.4919-4.8253 4.1515-2.4806 2.6267-3.9369 3.6774-4.6943 3.3868-1.0022-0.3846-0.42254-1.3371 2.8097-4.6172 1.7826-1.8089 3.9555-3.7712 4.8286-4.3606 2.0863-1.4082 2.5323-1.8079 2.3488-2.1049-0.0844-0.1366-0.35439-0.064-0.60568 0.1638-0.46326 0.4193-26.311 0.563-137.12 0.7626-15.958 0.029-29.095 0.1313-29.192 0.2279-0.097 0.097-0.0327 1.5696 0.14297 3.2733 0.30947 3.0017 0.28945 5.244-0.1771 19.834l-0.16075 5.0271 4.8592-0.077c2.6726-0.042 7.8953-0.3176 11.606-0.612 16.014-1.2707 21.047-1.5412 28.443-1.5287 7.407 0.013 14.36-0.2937 21.405-0.9426 2.7897-0.257 6.4602-0.4041 8.9301-0.3579 2.3064 0.043 4.1934 0.054 4.1932 0.024-9e-4 -0.1337-4.0537-2.4033-6.1671-3.4536-2.3862-1.1859-2.8575-1.6658-2.3717-2.4149 0.4953-0.7637 1.8134-0.3962 5.1498 1.4356 5.6238 3.0878 7.289 4.7208 6.5739 6.4472-0.16514 0.3986-2.2502 2.6509-4.6334 5.0049-4.2719 4.2195-5.22 4.8732-5.6067 3.8653-0.28303-0.7375 0.49927-1.7734 3.8078-5.0423 1.7859-1.7645 3.2471-3.3718 3.2471-3.5719 5e-5 -0.2927-0.65827-0.3519-3.3734-0.3033-3.7649 0.067-15.2 0.486-23.906 0.8749-3.1435 0.1404-8.5608 0.2549-12.039 0.2545-6.1099-7e-4 -7.7864 0.084-18.362 0.9303-9.4804 0.7584-14.71 1.1584-17.198 1.3153-1.3824 0.087-2.9474 0.2262-3.4776 0.3091l-0.96406 0.1506-0.15802 8.9003c-0.0869 4.8952-0.26996 10.032-0.40675 11.414-0.13679 1.3825-0.33421 3.8443-0.43871 5.4708l-0.18999 2.9571 0.97633 0.1832c1.0416 0.1954 26.26-0.056 30.754-0.3071 2.5003-0.1394 2.7148-0.1115 3.2075 0.4173 0.48608 0.5218 0.54215 0.53 0.70597 0.103 0.10667-0.2779-0.0207-0.7339-0.31789-1.1383-0.76468-1.0402-3.8962-3.1258-6.6119-4.4034-2.481-1.1672-3.0098-1.6828-2.5212-2.4586 0.4285-0.6805 1.0642-0.653 2.5389 0.1099 4.4766 2.3159 8.3246 5.0711 9.055 6.4834 0.60558 1.1711 0.26345 1.9564-1.854 4.256-1.0473 1.1373-2.2802 2.7735-2.7399 3.6359-0.90123 1.6909-1.5024 2.1282-2.1018 1.5288-0.31477-0.3148-0.3243-0.553-0.056-1.3988 0.44872-1.4142 1.4718-3.1385 2.6103-4.3993l0.96172-1.0651-1.3229 0.2069c-0.72761 0.1138-7.9904 0.2349-16.14 0.2692-8.1492 0.034-15.316 0.1517-15.925 0.2609l-1.1086 0.1987-0.082 8.8984c-0.0772 8.3759-0.11348 8.9528-0.6185 9.8245-1.0337 1.784-1.8955 1.989-8.1947 1.9492-3.0559-0.019-7.7569-0.2277-10.447-0.463-2.6897-0.2354-6.3806-0.4321-8.2021-0.4372-1.8561-0.01-4.0676-0.1756-5.0315-0.3876-0.94589-0.208-1.8686-0.3824-2.0505-0.3876-0.26116-0.01-0.33073 3.4742-0.33073 16.551v16.56l1.061-1.3423c1.0161-1.2855 2.0308-1.8618 2.6281-1.4927 0.51002 0.3153 0.29527 0.8147-1.5474 3.5988-1.0049 1.5183-1.8691 2.9987-1.9205 3.2897-0.0624 0.3532-0.33931 0.5575-0.83282 0.6143-0.61094 0.07-1.0376-0.2161-2.4559-1.6484zm-37.281-36.405c14.733-0.2159 16.497-0.3313 21.696-1.4192 1.0186-0.2132 3.519-0.5964 5.5562-0.8516 3.2626-0.4088 4.2403-0.4265 8.2021-0.1488 2.4738 0.1734 5.2123 0.4966 6.0854 0.7181 0.87313 0.2216 3.552 0.5046 5.9531 0.629 2.4011 0.1243 6.3897 0.4849 8.8635 0.8012 2.9938 0.3828 6.179 0.5907 9.525 0.6219 5.4738 0.051 6.4412-0.1301 6.9771-1.3064 0.20674-0.4538 0.29972-4.0582 0.30155-11.69 2e-3 -8.463 0.10081-11.835 0.42398-14.474 0.31564-2.5767 0.47345-7.5217 0.62907-19.712 0.12048-9.4379 0.34245-17.494 0.52852-19.182 0.19744-1.7913 0.25672-4.2838 0.15418-6.4823-0.36062-7.7313-0.57234-20.295-0.3584-21.268 0.12422-0.5649 0.18636-1.0666 0.13808-1.1149-0.0483-0.048-2.2253-0.1599-4.8378-0.2481-2.6125-0.088-7.429-0.4199-10.703-0.7372-5.2228-0.5061-7.3975-0.5713-17.727-0.5314-21.244 0.082-56.662 0.573-61.251 0.8492-2.4738 0.1488-12.903 0.2763-23.175 0.2833-15.049 0.01-18.91-0.057-19.878-0.3486l-1.2003-0.3612 0.0231 15.376c0.0324 21.598-0.43977 43.153-0.99459 45.407-0.8205 3.3321-1.4144 28.049-0.81209 33.798l0.173 1.6512 13.275 0.092c13.992 0.097 28.41-1e-4 52.433-0.352zm15.125-22.93c-0.45598-0.456-0.13143-1.1897 0.64615-1.4608 0.76407-0.2663 0.8113-0.3547 0.66437-1.243-0.087-0.5259-0.15948-4.4426-0.16108-8.7036-2e-3 -5.9651-0.079-7.7708-0.33364-7.8493-0.1819-0.056-0.65634-0.1732-1.0543-0.2603-0.48218-0.1056-0.77891-0.3789-0.88944-0.8193-0.21637-0.8621 0.28868-1.4477 1.2485-1.4477 0.62526 0 0.76135-0.1125 0.76135-0.6291 0-1.4878 1.9307-1.6138 2.2528-0.147 0.0981 0.4465 0.37545 0.871 0.61639 0.9433 2.4716 0.7414 5.6931 3.2375 6.6832 5.1782 0.70121 1.3745 0.70538 5.6214 8e-3 7.6498-1.276 3.7089-3.8244 6.8464-6.7416 8.3001-1.2609 0.6283-3.2924 0.8966-3.7003 0.4887zm5.9211-5.0371c0.47166-0.5372 1.2742-1.8541 1.7835-2.9264 0.79279-1.6694 0.94378-2.2991 1.0502-4.3794 0.12374-2.419 0.12032-2.4354-0.7831-3.7526-0.9202-1.3416-2.9318-2.9187-4.0951-3.2107-0.35089-0.088-0.67874-0.1161-0.72858-0.062-0.14066 0.152-0.23388 5.9045-0.18953 11.696l0.0402 5.2477 1.0324-0.8177c0.56784-0.4497 1.4183-1.2572 1.89-1.7944zm-39.117 1.721c-0.73995-0.7399-0.26188-6.5084 1.1564-13.954 0.75212-3.9482 0.96386-4.5144 1.6882-4.5144 0.82786 0 2.1507 1.9861 7.5413 11.323 0.69694 1.2071 1.3128 2.1491 1.3686 2.0933 0.0558-0.056-0.025-0.7457-0.17944-1.5333-0.39515-2.0145-0.75048-9.5128-0.48475-10.229 0.30683-0.8272 1.236-0.7777 1.5634 0.083 0.14192 0.3733 0.25773 1.8318 0.25736 3.2411-3.8e-4 1.4094 0.19547 4.0286 0.43522 5.8204 0.48613 3.6334 0.24493 5.8942-0.68177 6.3901-0.73725 0.3946-1.1189-0.076-3.2152-3.9594-1.0603-1.9646-2.5307-4.4623-3.2676-5.5506-0.7369-1.0883-1.6542-2.503-2.0385-3.1437-0.81121-1.3524-0.72814-1.4906-1.5684 2.6088-0.40527 1.9772-0.59168 3.9748-0.64653 6.9286-0.0424 2.2827-0.15531 4.277-0.25095 4.4318-0.23459 0.3795-1.2841 0.3569-1.6772-0.036zm49.66-0.4239-0.89768-0.8014-0.088-3.1831c-0.0647-2.3392-0.18741-3.2656-0.46302-3.4943-0.52178-0.433-0.46815-1.2087 0.11203-1.6205 0.39977-0.2838 0.51772-0.8531 0.65809-3.1763 0.23251-3.848 0.65868-4.8532 2.4018-5.6648 1.0411-0.4848 1.8024-0.6282 3.3454-0.6302 2.1329 0 2.6326 0.231 2.6326 1.2317 0 0.8918-0.76268 1.147-3.4287 1.147-2.8987 0-2.8269-0.097-2.9619 4.0175l-0.0917 2.7943 2.9734 0.1309c3.1476 0.1386 3.8585 0.4001 3.7202 1.3685-0.0747 0.5225-0.26111 0.5563-3.4524 0.6264l-3.3734 0.074v2.7419c0 1.964 0.0948 2.7783 0.33405 2.8701 0.18373 0.07 0.92787 0.031 1.6536-0.088 1.9028-0.312 6.4252-0.2953 7.0255 0.026 0.57973 0.3102 0.67632 1.1174 0.18104 1.5129-0.1819 0.1452-1.7595 0.3365-3.5057 0.4251-1.7462 0.089-3.7831 0.2359-4.5263 0.3275-1.244 0.1532-1.4226 0.1028-2.249-0.635zm-26.844-0.058c-0.44582-0.1369-1.2442-0.6826-1.7742-1.2126-1.4331-1.4332-1.6284-2.6791-1.3018-8.3072 0.30925-5.3301 0.88888-7.5414 2.0535-7.8336 0.3534-0.089 0.64256-0.2583 0.64256-0.3769s0.30824-0.5819 0.68497-1.0297c1.1596-1.378 3.3777-0.9344 4.6584 0.9318 1.3969 2.0354 1.8006 3.5614 1.7982 6.7968-3e-3 4.0302-0.42966 7.4886-1.0935 8.8626-0.86109 1.7822-3.5622 2.8158-5.668 2.1688zm3.137-2.6448c0.83909-0.66 1.1372-1.5831 1.494-4.6261 0.5735-4.8915 0.19003-7.5334-1.3759-9.4797l-0.6022-0.7484-1.3772 1.1203c-1.6209 1.3185-1.7967 1.7761-2.1704 5.648-0.53487 5.5414-0.2942 7.5925 0.97779 8.3334 0.77767 0.453 2.3227 0.3277 3.054-0.2475zm-44.726-23.19c-0.1819-0.073-0.33073-0.3646-0.33073-0.6471 0-0.5833 0.82345-0.9714 2.5685-1.2106 0.63255-0.087 1.2155-0.2634 1.2954-0.3927 0.0799-0.1293-0.0356-0.9758-0.25661-1.8813-0.49658-2.0341-0.86747-5.355-1.2328-11.039-0.15435-2.4011-0.34186-4.5702-0.4167-4.8203-0.11672-0.3901-0.57188-0.4654-3.2015-0.5292-2.5806-0.063-3.1115-0.1476-3.3569-0.5374-0.21224-0.3372-0.21225-0.5889-4e-5 -0.9261 0.24455-0.3885 0.77362-0.4751 3.2874-0.5383 2.629-0.066 3.0406-0.1389 3.3602-0.5953 0.45917-0.6555 1.5193-0.6725 1.9729-0.032 0.26991 0.3813 0.81557 0.5203 2.4879 0.6336 3.3048 0.224 4.3416 0.9431 5.8198 4.0372 1.3553 2.8369 1.7378 4.6153 1.8779 8.7313l0.1261 3.7042-0.77851 1.2071c-1.2852 1.9927-3.7837 3.3594-8.2376 4.5059-1.838 0.4731-4.2359 0.6316-4.9848 0.3294zm8.5713-3.6684c1.8829-0.9213 3.183-2.4147 3.408-3.915 0.19063-1.2713-0.25075-6.2471-0.70763-7.9774-0.35951-1.3615-1.6448-3.9035-2.2116-4.3739-0.27566-0.2288-1.3293-0.4092-2.7997-0.4795l-2.3577-0.1128 2e-3 3.1413c2e-3 3.4719 0.2306 5.8587 1.0765 11.25l0.56656 3.6113 0.82711-0.2372c0.45491-0.1305 1.4434-0.5387 2.1965-0.9072zm13.515 0.073c-0.42615-0.3214-1.0822-2.9655-2.314-9.3266-0.2818-1.4552-0.70997-3.3857-0.95151-4.2899-0.40801-1.5276-0.40823-1.6913-3e-3 -2.3096 0.82869-1.2648 1.8507-1.5631 5.426-1.5837 2.843-0.016 3.3141 0.042 3.5705 0.4441 0.21637 0.3392 0.21697 0.5869 2e-3 0.9261-0.2558 0.404-0.75306 0.463-3.9016 0.463h-3.6047c0.13715 0 1.0931 3.7701 1.3311 5.2498l0.33375 2.0749 3.2191-0.1857c2.82-0.1626 3.2742-0.1306 3.6634 0.2586 1.0802 1.0802-1.0812 1.9951-4.713 1.9951h-1.6306l0.41826 1.9627c0.23005 1.0795 0.50667 2.0511 0.61473 2.1591 0.10805 0.1081 0.42405-0.01 0.70222-0.2612 0.7686-0.6956 2.8084-1.2163 5.4546-1.3923 2.0562-0.1368 2.4373-0.096 2.7628 0.2962 0.75323 0.9076 0.0501 1.297-3.1903 1.7669-3.063 0.4442-4.8184 0.9466-5.8625 1.6779-0.69984 0.4902-0.77103 0.4942-1.3275 0.075zm55.239-0.5692c-0.88221-0.3842-2.6113-2.1637-3.6982-3.8061-0.81434-1.2305-0.81242-2.2658 4e-3 -2.3827 0.39995-0.057 0.98119 0.4734 2.2461 2.0505 1.4048 1.7516 1.838 2.1278 2.4505 2.1278 1.4744 0 1.8761-2.5475 1.1106-7.043-0.70777-4.1561-0.51628-3.7958-1.9328-3.6362-3.106 0.3501-6.0996-3.3589-6.8118-8.4394-0.20105-1.4342 0.12615-2.0481 1.0917-2.0481 0.78155 0 0.88249 0.1803 1.1982 2.1407 0.32555 2.0214 1.693 4.8711 2.6719 5.5681 1.7576 1.2516 3.1202-0.09 3.1278-3.0786 5e-3 -2.045 0.1979-2.7223 0.83181-2.9235 1.1475-0.3642 1.288 0.1882 1.2403 4.8756-0.031 3.046 0.0832 5.0893 0.37163 6.6469 0.65995 3.5642 0.75197 4.8288 0.46244 6.3554-0.54007 2.8478-2.4551 4.4241-4.3646 3.5926zm-38.232-0.5008c-0.99311-0.5023-1.3097-1.441-1.5965-4.7342-0.14339-1.6463-0.51598-4.864-0.82798-7.1505-0.59927-4.3917-0.53258-4.9709 0.57238-4.9709 0.73738 0 1.0064 0.545 1.1768 2.3839 0.0875 0.9445 0.34181 3.2055 0.56511 5.0245 1.0686 8.705 0.70193 8.0864 4.5587 7.6906 3.3453-0.3432 4.5583 0.046 3.81 1.223-0.11192 0.1761-1.405 0.4384-2.9344 0.5954-3.5149 0.3607-4.5117 0.3491-5.3241-0.062zm12.963-0.056c-0.2435-0.2934-0.28153-1.0307-0.14391-2.7899 0.18418-2.3544 0.17659-2.3993-0.49519-2.9277-1.0619-0.8352-0.76521-2.0851 0.49516-2.0862 0.48869-5e-4 0.6417-0.4655 1.5454-4.6964 0.55164-2.5827 1.1286-5.4096 1.2822-6.282 0.34171-1.9414 0.62987-2.5149 1.2636-2.5149 0.66333 0 0.88812 0.3426 1.7363 2.6459 0.4019 1.0914 1.7756 4.187 3.0526 6.8791 2.5923 5.4649 3.95 9.3351 3.5164 10.024-0.148 0.235-0.456 0.4642-0.68444 0.5092-0.45417 0.09-0.91658-0.8203-2.1663-4.2619-0.41344-1.1386-0.87949-2.0171-1.0398-1.9601-0.15982 0.057-1.6896 0.5033-3.3994 0.9921l-3.1088 0.8887v2.571c0 1.4141-0.0723 2.7595-0.1606 2.9896-0.20383 0.5312-1.2584 0.5435-1.6931 0.02zm5.5212-8.7775c1.0713-0.2527 2.0011-0.5984 2.0663-0.7683 0.0652-0.1699-0.65631-1.7782-1.6033-3.5739-0.98818-1.8738-1.778-3.0997-1.8537-2.8769-0.34983 1.0297-1.7477 6.9983-1.7477 7.4623 0 0.4175 0.1247 0.4954 0.59531 0.3722 0.32743-0.086 1.4718-0.3627 2.5431-0.6154zm114.34 50.922c-1.7171-1.1545-1.33-2.6728 0.5253-2.0605 0.88241 0.2913 1.1819 0.2924 1.7158 0.01 1.6151-0.8644 1.822-3.7244 0.24065-3.3276-0.37475 0.094-1.0123 0.4157-1.4168 0.7148-1.1491 0.8496-1.776 0.3574-1.985-1.5584-0.0913-0.8373-0.29103-2.0904-0.44377-2.7847-0.41154-1.8707-0.16707-2.0449 2.8703-2.0449 2.7732 0 3.5221 0.2483 3.5221 1.1676 0 1.0772-0.56798 1.2887-2.9051 1.0818-1.1671-0.1033-2.122-0.11-2.122-0.015s0.17853 0.5182 0.39673 0.9401c0.39374 0.7614 0.40387 0.7642 1.3503 0.3688 1.2025-0.5025 2.2085-0.2905 3.1158 0.6565 0.96434 1.0065 1.2864 2.2501 0.92995 3.5906-0.53831 2.0245-1.9324 3.3347-3.9512 3.7134-0.71584 0.1343-1.1221 0.035-1.8429-0.4494zm44.782 0.061c-1.2372-0.7543-1.0901-1.3001 0.53325-1.9784 1.3003-0.5433 1.9518-1.5359 1.6226-2.472-0.38794-1.1032-1.3884-1.3033-2.8875-0.5776-1.7196 0.8325-2.057 0.5776-2.315-1.7489-0.11131-1.0037-0.3357-2.4101-0.49866-3.1253-0.4169-1.8299-0.10635-2.0069 3.5204-2.0069 2.5798 0 2.8774 0.05 3.1337 0.5291 0.20121 0.376 0.20121 0.6824 0 1.0584-0.25111 0.4692-0.55399 0.5291-2.673 0.5291-2.3568 0-2.3872 0.01-2.2043 0.5953 0.55088 1.7684 0.56714 1.7852 1.434 1.4831 1.5938-0.5557 3.5422 0.2909 4.3747 1.9006 0.95464 1.8461 0.0302 5.0352-1.7222 5.9414-1.0013 0.5178-1.2846 0.5022-2.318-0.1279zm-16.158-0.4253c-2.2743-1.1334-3.1771-3.3203-2.4366-5.9024 0.4044-1.4101 1.3281-2.5565 2.8868-3.583 1.3203-0.8695 1.5485-0.9335 2.785-0.7809 1.7312 0.2136 2.394 0.645 3.1155 2.0275 0.45199 0.8661 0.5847 1.5713 0.5843 3.105-1e-3 4.6942-3.1458 7.022-6.935 5.1338zm3.4061-1.9667c1.1278-0.6036 1.6689-2.9779 1.0497-4.6065-0.14221-0.3741-0.66672-0.8748-1.1656-1.1126-0.86859-0.4142-0.94744-0.4076-1.8614 0.1573-1.0522 0.6503-1.4535 1.2515-1.7706 2.653-0.32935 1.4556-0.0341 2.1196 1.1896 2.6753 1.2457 0.5657 1.8368 0.6197 2.5584 0.2335zm-44.862 1.4365c-3.8788-2.111-4.6626-6.1843-1.8021-9.3658 0.62737-0.6978 1.1407-1.394 1.1407-1.5471s0.3982-0.5821 0.88487-0.9533c1.0826-0.8258 2.7137-0.8915 4.2953-0.1732 2.2674 1.0298 3.0062 2.8718 2.5623 6.3885-0.5449 4.317-1.7478 5.8573-4.6885 6.0034-1.1046 0.055-1.8441-0.054-2.3925-0.3525zm3.6594-2.499c0.8559-0.6732 1.232-1.9789 1.234-4.2833 1e-3 -1.5791-0.0828-1.8761-0.74012-2.6117-0.68121-0.7624-0.83203-0.8147-1.8521-0.6424-0.70831 0.1197-1.1105 0.3268-1.1105 0.5718 0 0.2114-0.46719 0.8287-1.0382 1.3719-1.7828 1.6959-1.7871 3.581-0.0119 5.1848 1.2353 1.116 2.4417 1.2562 3.5188 0.4089zm46.797 2.3404c-0.79738-0.7974-6e-3 -1.9776 1.1343-1.6914 1.0992 0.2759 0.75984 2.0089-0.39344 2.0089-0.23283 0-0.56621-0.1429-0.74083-0.3175zm53.149-0.3675c-0.82351-0.6929-1.0872-1.7608-0.52127-2.1106 0.16103-0.1 0.74576-0.031 1.2994 0.1513 0.55363 0.1827 1.3185 0.2539 1.6998 0.1582 0.8475-0.2127 1.7328-1.5903 1.7341-2.6984 2e-3 -1.7212-1.7107-2.177-3.9387-1.048-1.1624 0.5891-1.3269 0.6113-1.8433 0.2496-0.49716-0.3482-0.56702-0.6512-0.56702-2.4593 0-2.6949 0.3035-3.5044 1.5837-4.2239 1.4296-0.8035 4.2308-1.0609 4.8463-0.4453 1.128 1.128 0.03 1.9989-2.5201 1.9989h-1.7932v2.8845l1.1245-0.5104c1.3561-0.6156 2.3505-0.6542 3.3632-0.1305 1.5972 0.826 2.3183 2.437 2.0102 4.4913-0.5073 3.3829-4.2858 5.5369-6.4776 3.6926zm-94.688-0.1617c-0.79738-0.7974-6e-3 -1.9775 1.1343-1.6914 1.0992 0.2759 0.75985 2.0089-0.39344 2.0089-0.23283 0-0.5662-0.1429-0.74083-0.3175zm79.058-0.092c-0.65484-0.2052-1.5478-0.6618-1.9844-1.0148-0.74213-0.6001-0.79375-0.7596-0.79375-2.4528 0-1.4253 0.12853-2.0177 0.6034-2.7814 0.73972-1.1896 4.2468-3.9244 5.0326-3.9244 0.31482 0 1.0986 0.506 1.7416 1.1244 1.0925 1.0507 1.1818 1.2431 1.3606 2.9315 0.55882 5.2755-1.5943 7.4854-5.9602 6.1175zm3.21-2.5355c0.49508-0.4951 0.54539-0.7652 0.41086-2.2058-0.0843-0.9029-0.29559-1.954-0.46951-2.3357l-0.31621-0.694-1.164 0.8359c-1.3271 0.9531-2.2003 2.2103-2.2003 3.168 0 1.545 2.577 2.3937 3.7392 1.2316zm6.3679 2.0987c-0.79738-0.7973-6e-3 -1.9775 1.1343-1.6913 1.0992 0.2758 0.75984 2.0088-0.39344 2.0088-0.23283 0-0.56621-0.1428-0.74083-0.3175zm-71.094-0.742c-0.1079-0.34 0.0314-0.7844 0.38798-1.2377l0.55632-0.7072-1.0673-1.0875c-1.108-1.129-1.2902-1.6648-0.74976-2.2051 0.51794-0.518 1.1949-0.3673 2.1609 0.4809l0.90933 0.7984 0.85325-1.0774c0.65574-0.8279 1.0073-1.0587 1.5187-0.9968 1.1331 0.137 1.2033 1.0226 0.1935 2.4429-0.85919 1.2084-0.87136 1.262-0.45246 1.9919 0.3611 0.6292 0.37372 0.8185 0.0783 1.1744-0.38715 0.4665-1.3457 0.5803-1.3457 0.1598 0-0.4257-0.50692-0.3059-1.1193 0.2646-0.73959 0.689-1.7049 0.6884-1.9238 0zm44.724-0.4985c-0.0924-0.2911 0.0886-0.9186 0.4335-1.5032 0.39358-0.6671 0.48958-1.0377 0.28633-1.1054-0.66817-0.2227-1.6552-1.1891-1.6552-1.6205 0-1.1287 1.3425-1.4367 2.4534-0.5629 0.37 0.2911 0.77798 0.5292 0.90663 0.5292s0.75974-0.5358 1.4024-1.1906c1.1958-1.2184 1.7684-1.4331 2.3283-0.8731 0.6003 0.6003 0.335 1.4572-0.75645 2.4432l-1.074 0.9703 0.80937 0.9218c0.90096 1.0261 0.94909 1.187 0.49188 1.6442-0.47628 0.4763-0.94713 0.3889-1.9255-0.3573l-0.88473-0.6748-0.71652 0.9394c-0.80283 1.0526-1.8364 1.269-2.0996 0.4397zm-9.3359-31.512c-1.2372-0.7543-1.0901-1.3001 0.53324-1.9784 1.3003-0.5433 1.9518-1.5359 1.6226-2.472-0.38795-1.1032-1.3884-1.3033-2.8875-0.5776-1.7196 0.8325-2.057 0.5776-2.315-1.7489-0.1113-1.0037-0.3357-2.4101-0.49865-3.1253-0.41691-1.8299-0.10636-2.0069 3.5204-2.0069 2.5798 0 2.8774 0.05 3.1337 0.5291 0.20122 0.376 0.20122 0.6824 0 1.0584-0.25111 0.4692-0.55399 0.5291-2.673 0.5291-2.3568 0-2.3872 0.01-2.2043 0.5953 0.55088 1.7684 0.56715 1.7852 1.434 1.4831 1.5938-0.5556 3.5422 0.2909 4.3747 1.9006 0.95465 1.8461 0.0302 5.0352-1.7222 5.9414-1.0013 0.5178-1.2846 0.5022-2.318-0.1279zm-16.422-0.4253c-2.2743-1.1334-3.1771-3.3203-2.4366-5.9024 0.4044-1.4101 1.3281-2.5565 2.8868-3.583 1.3203-0.8695 1.5485-0.9335 2.785-0.7809 1.7312 0.2136 2.394 0.645 3.1155 2.0275 0.45199 0.8661 0.5847 1.5713 0.5843 3.105-1e-3 4.6942-3.1458 7.022-6.935 5.1338zm3.4061-1.9667c1.1278-0.6036 1.6689-2.9779 1.0497-4.6065-0.14221-0.3741-0.66672-0.8748-1.1656-1.1126-0.86859-0.4142-0.94744-0.4076-1.8614 0.1573-1.0522 0.6503-1.4535 1.2515-1.7706 2.653-0.32935 1.4556-0.0341 2.1196 1.1896 2.6753 1.2457 0.5657 1.8368 0.6197 2.5584 0.2335zm5.8591 1.2779c-0.79738-0.7974-6e-3 -1.9776 1.1343-1.6914 1.0992 0.2759 0.75984 2.0089-0.39344 2.0089-0.23283 0-0.56621-0.1429-0.74083-0.3175zm53.149-0.3675c-0.8235-0.6929-1.0872-1.7608-0.52127-2.1106 0.16104-0.1 0.74576-0.031 1.2994 0.1513 0.55364 0.1827 1.3186 0.2539 1.6998 0.1582 0.8475-0.2127 1.7328-1.5903 1.7341-2.6984 2e-3 -1.7212-1.7108-2.177-3.9387-1.048-1.1624 0.5891-1.3269 0.6113-1.8433 0.2496-0.49716-0.3482-0.56701-0.6512-0.56701-2.4593 0-2.6949 0.30349-3.5044 1.5837-4.2239 1.4296-0.8035 4.2308-1.0609 4.8463-0.4453 1.128 1.128 0.03 1.9989-2.5201 1.9989h-1.7932v2.8845l1.1245-0.5104c1.3562-0.6156 2.3505-0.6542 3.3632-0.1305 1.5972 0.826 2.3183 2.437 2.0102 4.4913-0.5073 3.3829-4.2858 5.5369-6.4776 3.6926zm-15.366-0.2541c-0.65484-0.2052-1.5478-0.6618-1.9844-1.0148-0.74212-0.6001-0.79375-0.7596-0.79375-2.4528 0-1.4253 0.12854-2.0177 0.60341-2.7814 0.73972-1.1896 4.2468-3.9244 5.0326-3.9244 0.31482 0 1.0986 0.506 1.7416 1.1244 1.0925 1.0507 1.1818 1.2431 1.3606 2.9315 0.55882 5.2755-1.5943 7.4854-5.9602 6.1175zm3.21-2.5355c0.49508-0.4951 0.54539-0.7652 0.41086-2.2058-0.0843-0.9029-0.29559-1.954-0.46951-2.3357l-0.31621-0.694-1.164 0.8359c-1.3271 0.9531-2.2003 2.2103-2.2003 3.168 0 1.545 2.577 2.3937 3.7392 1.2316zm6.3679 2.0987c-0.79738-0.7973-6e-3 -1.9775 1.1343-1.6913 1.0992 0.2759 0.75984 2.0088-0.39344 2.0088-0.23283 0-0.56621-0.1428-0.74083-0.3175zm-26.899-1.5051c-0.0902-0.2841 0.0724-0.8912 0.3768-1.4071l0.53539-0.9074-0.7915-0.5852c-1.777-1.3138-0.32296-2.8477 1.6145-1.7032l0.76789 0.4536 1.2664-1.2474c1.2985-1.2789 1.8298-1.486 2.3859-0.9298 0.6006 0.6006 0.33496 1.4572-0.75813 2.4447l-1.0756 0.9718 0.94333 1.0442c1.0352 1.1458 1.0945 1.3148 0.62584 1.7834-0.47445 0.4745-0.94654 0.3894-1.9079-0.3439-1.1091-0.846-1.3213-0.832-2.0079 0.1323-0.65539 0.9204-1.7256 1.0797-1.975 0.294z"/></g></svg>
