<svg width="500.32mm" height="192.56mm" version="1.1" viewBox="0 0 500.32 192.56" xml:space="preserve" xmlns="http://www.w3.org/2000/svg"><g transform="translate(898.23 2125.2)"><path fill="#fff" d="m-582.42-1932.8c-0.29882-0.4835-0.69516-6.1149-0.69538-9.8805l-2.2e-4 -3.8721-1.6688 0.134c-1.7211 0.1381-2.5646-0.2305-2.5646-1.121 0-1.0144 0.64204-1.1482 5.5827-1.1637 5.0907-0.016 5.8839 0.1376 5.7443 1.1119-0.091 0.6355-1.164 0.9348-3.4512 0.9626l-1.2524 0.015-0.141 13.891-0.70262 0.081c-0.38644 0.045-0.76927-0.026-0.85074-0.1584zm-14.651-2.1795c-0.82721-0.3326-1.5899-1.6947-1.7576-3.1389-0.57421-4.946-0.74964-8.5098-0.45403-9.2234 0.51592-1.2456 1.5991-1.6875 4.5322-1.8491l2.6156-0.1441 0.31505 0.6914c0.25067 0.5502 0.24248 0.7789-0.0401 1.1194-0.29312 0.3532-0.80811 0.4123-2.9496 0.3385l-2.5944-0.089 2.5e-4 2.3151 2.6e-4 2.3151h1.9672c2.4654 0 3.3923 0.3152 3.2767 1.1141-0.10422 0.7204-0.82667 0.9413-3.1934 0.9762l-1.7859 0.026v1.7105c0 2.0446 0.24389 2.2582 2.5779 2.2582 1.6865 0 2.5755 0.4213 2.316 1.0976-0.25503 0.6646-3.5529 0.9942-4.8261 0.4823zm-121.89-0.4997c-0.4391-0.7105 2.2178-11.886 3.1975-13.449 0.43393-0.6925 1.2059-0.7743 1.6991-0.1801 0.28933 0.3486 0.14516 1.0175-0.89818 4.1672-0.68355 2.0636-1.4726 4.9228-1.7536 6.3539s-0.65063 2.7705-0.82162 2.9766c-0.35026 0.422-1.1955 0.5003-1.4232 0.1318zm105.59-0.8817c-0.39447-0.6259-1.7701-5.9653-2.3143-8.9827-0.34538-1.9151-0.12968-2.5928 0.82524-2.5928 0.75051 0 1.0908 0.6576 1.3313 2.5727 0.19931 1.5873 0.44866 2.9432 0.92845 5.0487 0.11467 0.5033 0.33434 0.2253 1.2548-1.5875 0.90744-1.7872 1.2392-2.211 1.7772-2.2699 0.54628-0.06 0.83533 0.1935 1.66 1.4552 0.54919 0.8402 1.4716 2.0634 2.0498 2.7183l1.0513 1.1906 7.1e-4 -4.1846c7.5e-4 -4.3393 0.17741-5.2081 1.059-5.2081 1.1154 0 1.4322 1.9141 1.073 6.4823-0.31679 4.0285-0.62678 5.3081-1.3842 5.7134-0.49435 0.2646-0.76036 0.077-2.5242-1.7828-1.0844-1.1432-2.1866-2.4159-2.4493-2.8281-0.55526-0.8713-0.51046-0.9223-1.5957 1.8157-1.2003 3.0281-1.9511 3.6959-2.743 2.4396zm-91.899-3.32c-0.30706-0.1952-1.1357-6.7538-1.1357-8.9889 0-1.0872 0.36705-1.6479 1.0788-1.6479 0.83556 0 1.1649 0.7948 1.1944 2.8824 0.0157 1.1068 0.067 3.166 0.11404 4.5759 0.0607 1.8184-0.0141 2.6836-0.25724 2.9766-0.38466 0.4634-0.53482 0.4939-0.99436 0.2019zm11.236-0.7811c-0.22549-0.2546-0.96964-1.4155-1.6537-2.5797-0.68402-1.1641-1.8277-2.9051-2.5414-3.8688-1.3504-1.8232-1.5704-2.587-0.90432-3.1398 0.77873-0.6463 1.561-0.051 3.2116 2.443 2.9378 4.4393 3.9328 7.0344 2.8556 7.4478-0.55027 0.2111-0.49878 0.2272-0.96779-0.3025zm-33.717-0.751c-0.1137-0.2962 0.52356-1.8064 1.8218-4.3172 1.7091-3.3054 2.0939-3.8733 2.6721-3.9435 0.47161-0.057 0.76634 0.088 0.9765 0.4805 0.33682 0.6293 0.15076 1.0505-2.4538 5.5547-1.1883 2.055-1.5801 2.5288-2.1476 2.5974-0.46648 0.056-0.75146-0.066-0.86898-0.3719zm107.33-11.029c-0.74527-0.2615-1.081-0.6348-1.7198-1.9125l-0.79375-1.5875 0.028-7.4083c0.0178-4.7092 0.17287-8.6615 0.42569-10.848 0.21874-1.8918 0.35656-3.4876 0.30627-3.5463-0.0503-0.059-1.1348 0.057-2.4101 0.257-1.8057 0.2832-6.7966 0.3696-22.559 0.3906-18.451 0.025-24.986 0.2104-27.681 0.7872-0.55159 0.1181-0.56388 0.2496-0.7104 7.5981-0.2043 10.247-0.5042 12.145-2.164 13.696l-0.70786 0.6614-26.037 0.07c-24.411 0.066-26.099 0.041-27.032-0.3969-1.8247-0.8553-1.9193-1.325-1.9338-9.5949l-0.0128-7.2761-3.7637-3.5058c-4.0642-3.7856-6.1778-5.429-9.6974-7.5398-3.4729-2.0827-6.5906-4.2177-8.4788-5.806-0.94361-0.7937-3.6207-2.7682-5.949-4.3876-2.4001-1.6693-5.5276-4.1494-7.222-5.7271-1.6438-1.5305-3.8777-3.5181-4.9642-4.4168-2.3605-1.9525-4.4643-4.316-8.3066-9.332-1.5735-2.0542-3.3462-4.2707-3.9394-4.9255l-1.0784-1.1906-0.0109 8.8059c-9e-3 7.1141-0.0853 8.984-0.3982 9.7329-0.67249 1.6095-1.168 1.6914-10.512 1.7373-9.2346 0.045-13.29-0.1441-16.617-0.7763-1.8594-0.3532-4.6023-0.4368-15.834-0.4822-7.4716-0.03-13.88-0.1291-14.241-0.2196-0.44643-0.1121-0.81796-0.5311-1.1634-1.3121-0.4796-1.0842-0.49286-1.4812-0.24058-7.2 0.14686-3.3289 0.38295-7.0646 0.52465-8.3015 0.14171-1.237 0.25867-4.0945 0.25991-6.35l2e-3 -4.1011-21.63 0.15c-13.762 0.095-23.206 0.2735-25.964 0.4895-3.1347 0.2456-4.5079 0.2606-4.9609 0.054-0.67544-0.3078-0.83113-1.1265-0.29571-1.5551 0.18665-0.1493 3.1547-0.3365 6.813-0.4295 3.5653-0.091 7.7324-0.2772 9.2604-0.4143 1.528-0.1372 10.428-0.2561 19.778-0.2643 9.3497-0.01 17.007-0.045 17.017-0.081 0.0864-0.3257 0.52753-18.236 0.50689-20.582-0.0349-3.9612-0.15937-3.8436 4.435-4.188 1.9239-0.1442 3.6246-0.3404 3.7793-0.436 0.15467-0.096 2.2701-0.2807 4.7009-0.4112 2.4308-0.1306 5.3451-0.3725 6.4762-0.5374 2.6782-0.3907 17.94-0.1354 22.285 0.3728 2.1866 0.2557 4.8402 0.3308 8.5243 0.2414 6.2893-0.1527 6.437-0.1083 7.0657 2.1265 0.41689 1.4819 0.86339 5.4774 0.87947 7.8698 5e-3 0.8004 0.0227 4.3495 0.0384 7.8868l0.0286 6.4316 1.5214-1.1833c1.5342-1.1933 4.5177-4.169 6.1399-6.1236 0.48308-0.5821 3.0467-3.3205 5.697-6.0854s5.955-6.3368 7.3439-7.9375c3.5447-4.0855 4.944-5.3645 8.2697-7.5591 3.4096-2.2499 4.427-3.0849 9.88-8.1095 2.2457-2.0693 4.9896-4.3849 6.0974-5.1457 1.1078-0.7609 3.0013-2.223 4.2077-3.2492 1.2064-1.0261 2.6741-2.2526 3.2617-2.7256l1.0683-0.8599 2.5591 0.145c5.6838 0.322 26.34 0.727 33.912 0.6649 8.102-0.066 10.797-0.2889 17.595-1.4526 1.3097-0.2242 3.1094-0.5285 3.9993-0.6762 0.93411-0.1551 6.8982-0.2686 14.11-0.2686h12.492l6.792 0.9451c5.0257 0.6992 8.3553 1.0035 12.803 1.1698 3.306 0.1237 6.1493 0.3104 6.3184 0.4149 0.22863 0.1413 0.26284-0.3111 0.13349-1.7652-0.33227-3.7352-0.68415-12.033-0.68653-16.19-2e-3 -3.2333 0.089-4.3572 0.40127-4.961l0.40367-0.7806h5.0864c5.3634 0 12.548-0.2987 22.417-0.9439 6.2559-0.409 13.103-0.4552 23.019-0.1556 6.5346 0.1975 7.4328 0.4037 8.5766 1.9681 0.52503 0.7182 0.54131 1.0835 0.55396 12.435l0.013 11.696 1.7121 1.8227c0.94164 1.0026 2.605 2.5437 3.6964 3.4247 1.0914 0.881 4.068 3.5811 6.6146 6.0001 2.5466 2.4191 5.2255 4.8012 5.9531 5.2936 2.0425 1.3823 4.5781 3.3856 6.6146 5.2261 1.6838 1.5217 3.1249 2.5486 8.7312 6.2218 1.0186 0.6674 2.8641 2.1251 4.101 3.2393 1.2369 1.1143 3.2015 2.7526 4.3656 3.6407 1.1642 0.8881 3.6942 3.1598 5.6224 5.0482l3.5057 3.4336-4e-3 -5.139c-3e-3 -4.1014-0.11014-5.6412-0.52916-7.6265-0.28876-1.3681-0.52502-2.8862-0.52502-3.3734 0-0.5926-0.12552-0.8859-0.37905-0.8859-1.1196 0-0.50754-2.0129 0.79208-2.6051 0.86553-0.3943 47.695-0.4253 52.371-0.035 7.3101 0.6107 7.6568 0.9762 8.4951 8.9564 0.34545 3.2884 0.39759 5.4743 0.25481 10.683l-0.17952 6.5484 1.6679-0.01c0.91736 0 3.9301-0.2437 6.695-0.5349 6.3966-0.6737 16.805-0.8762 30.745-0.598 5.8502 0.1167 10.553 0.1406 10.451 0.053-1.3776-1.18-5.0384-3.7098-6.2711-4.3335-1.2715-0.6433-1.5875-0.9288-1.5875-1.4338 0-1.4131 1.9385-1.3891 3.9184 0.048 6.7815 4.9241 7.591 5.7202 7.591 7.4655 0 1.324-0.72929 2.1357-3.6205 4.0299-1.574 1.0311-3.8012 2.6596-4.9494 3.6188-2.0831 1.7402-2.9516 2.1003-3.2418 1.3441-0.34163-0.8902 2.7192-3.7891 7.3799-6.9894 1.328-0.9119 2.0505-1.5829 2.0505-1.9042 0-0.5568-0.4253-0.6749-0.59561-0.1654-0.087 0.2604-4.1308 0.3325-19.006 0.3389-17.887 0.01-19.142 0.039-23.526 0.5925-2.5466 0.3213-5.3017 0.5855-6.1224 0.5871h-1.4922l-0.12467 5.7547c-0.11726 5.4126-0.17211 5.9198-0.92275 8.5328-1.0307 3.5879-1.1058 3.9185-1.5255 6.7212-0.21666 1.4465-0.54944 2.6208-0.86228 3.0427-0.7472 1.0078-2.4262 1.264-5.4395 0.8302-1.8855-0.2715-7.4754-0.3384-25.006-0.2993-15.89 0.035-22.84-0.036-23.463-0.242-1.0634-0.3509-2.3454-2.1992-2.752-3.9674-0.1531-0.6659-0.2766-4.4855-0.28021-8.6669l-6e-3 -7.4763-1.9182 1.6141c-1.055 0.8878-2.2754 1.7993-2.712 2.0256-2.5511 1.3226-9.1048 6.1311-14.209 10.425-3.6758 3.0924-5.5876 4.4939-8.81 6.4582-1.5305 0.933-3.3623 2.5159-6.6146 5.7159-4.3841 4.3136-8.019 7.3887-12.22 10.338-1.1372 0.7983-3.2314 2.5544-4.6537 3.9024l-2.5861 2.4508 0.0211 11.418c0.0116 6.2796-0.0595 11.627-0.15799 11.884-0.36284 0.9456-1.5904 1.2684-5.2259 1.3746-1.9184 0.056-6.2265 0.2365-9.5735 0.4011-9.2539 0.455-39.19 0.5938-40.349 0.187zm35.19-1.906c2.2556-0.2154 6.9257-0.4836 10.378-0.596 6.0431-0.1966 6.2995-0.2267 6.8792-0.8066l0.60215-0.6023 0.0779-10.005c0.0682-8.7616 0.0271-10.047-0.33073-10.344-0.53102-0.4407-0.52106-1.1746 0.0221-1.6253 0.39146-0.3249 0.40954-1.2498 0.19843-10.153-0.12774-5.3874-0.20808-10.826-0.17853-12.087 0.0454-1.9354-0.0163-2.323-0.39688-2.4943-0.24783-0.1116-3.4867-0.2538-7.1975-0.316-20.149-0.1274-10.024 0.479-46.064 0.5307l0.13127 0.5953c0.0722 0.3274 0.56348 3.3711 0.81178 4.2442 0.68774 2.4183 0.89778 15.739 0.31706 20.108-0.74397 5.5976-1.0254 10.447-0.92892 16.007 0.10539 6.0748 0.25614 6.6966 1.8119 7.4741 0.84727 0.4234 2.148 0.4627 15.346 0.4637 10.718 8e-4 15.473-0.1 18.521-0.3907zm-12.832-9.1628c-3.4478-0.4957-7.4881-3.2849-9.0772-6.2663-1.5524-2.9126-2.0596-7.0937-1.2685-10.456l0.36163-1.5369-0.9871-1.2412c-0.54291-0.6826-1.5974-1.8365-2.3434-2.5641-1.3827-1.3487-1.6168-1.8961-1.0523-2.4606 0.54136-0.5414 1.3765-0.3602 4.0418 0.8769l2.5733 1.1943 1.5121-1.3928c2.2416-2.0647 4.615-3.1444 7.2732-3.3087 2.528-0.1562 5.985 0.3111 6.4039 0.8656 0.16156 0.2139 0.6663 0.3889 1.1216 0.3889 1.2822 0 3.2247 0.8505 5.4402 2.3821 3.7063 2.5622 5.1761 4.9473 5.38 8.7304 0.0982 1.8229 0.0201 2.5136-0.41244 3.6461-1.3755 3.6014-5.3378 8.427-8.1388 9.912-2.709 1.4363-6.4438 1.8607-10.828 1.2303zm7.802-2.3833c1.5429-0.4623 4.5166-2.6357 5.8241-4.2567 0.65484-0.8119 1.7163-2.463 2.3589-3.6691 1.0743-2.0166 1.1699-2.354 1.1886-4.1961 0.0148-1.4595-0.11465-2.2759-0.47705-3.0084-1.0983-2.2199-4.8777-5.1687-7.536-5.8796-0.81816-0.2189-1.8448-0.5291-2.2813-0.6895-1.5277-0.5611-5.0257-1.0428-6.4114-0.8828-0.76139 0.088-1.9307 0.4503-2.5985 0.8054-1.2015 0.6388-3.5578 2.4639-3.5578 2.7557 0 0.083 1.2624 1.0965 2.8054 2.252 3.4271 2.5664 3.8092 3.0223 3.8092 4.5446 0 1.5433-0.81519 2.3297-2.6703 2.5757-1.5988 0.2121-2.7348-0.3442-5.0804-2.488-0.79836-0.7297-1.5242-1.3267-1.6129-1.3267-0.33357 0-0.14481 4.3531 0.2558 5.8991 0.5783 2.2317 1.1965 3.3387 2.573 4.6076 2.4374 2.2467 5.2535 3.2147 9.4146 3.2361 1.6566 0.01 3.4549-0.1171 3.9962-0.2793zm-10.316-12.008c0-0.073-0.0595-0.1323-0.13229-0.1323-0.0728 0-0.13229 0.06-0.13229 0.1323 0 0.073 0.0595 0.1323 0.13229 0.1323 0.0728 0 0.13229-0.059 0.13229-0.1323zm-0.52916-0.2646c0-0.073-0.0595-0.1322-0.1323-0.1322s-0.13229 0.06-0.13229 0.1322c0 0.073 0.0595 0.1323 0.13229 0.1323 0.0728 0 0.1323-0.059 0.1323-0.1323zm-0.52917-0.2645c0-0.073-0.0595-0.1323-0.13229-0.1323-0.0728 0-0.13229 0.06-0.13229 0.1323 0 0.073 0.0595 0.1323 0.13229 0.1323 0.0728 0 0.13229-0.06 0.13229-0.1323zm-0.79375-0.5292c0-0.073-0.0595-0.1323-0.13229-0.1323-0.0728 0-0.13229 0.06-0.13229 0.1323 0 0.073 0.0595 0.1323 0.13229 0.1323 0.0728 0 0.13229-0.06 0.13229-0.1323zm-76.725 21.894c0.63919-0.5772 0.86931-1.0833 1.1127-2.4474 0.42588-2.3867 0.42385-21.832-3e-3 -27.914-0.18383-2.6193-0.40309-6.7865-0.48726-9.2604-0.16835-4.948-0.32537-5.4864-1.7713-6.0736-2.4459-0.9933-13.575-0.6119-22.8 0.7813-10.423 1.5741-14.828 1.959-22.584 1.9735l-6.1801 0.012 0.18098 3.1089c0.0995 1.7098 0.26122 11.205 0.35929 21.1 0.0981 9.8954 0.27784 18.194 0.3995 18.44 0.12165 0.2467 0.53837 0.5647 0.92604 0.7067 0.43783 0.1604 10.05 0.2661 25.373 0.2791l24.668 0.021zm-47.158-2.8452c-1.1774-0.8001-3.3199-3.7262-3.5422-4.8379-0.20122-1.0061 0.2548-2.467 1.2769-4.0909 0.81239-1.2906 1.5953-1.6145 2.2705-0.9393 0.52844 0.5285 0.36716 1.0859-0.74084 2.5605-1.2062 1.6053-1.2814 2.0588-0.50499 3.0458l0.55335 0.7035 0.76432-1.0552c1.2789-1.7655 2.6326-2.3214 3.0437-1.2499 0.0771 0.2009-0.36217 1.1666-0.97618 2.1459-1.2024 1.9176-1.1518 2.2506 0.34277 2.2591 0.53975 0 1.0397-0.3756 2.0902-1.5834 1.4038-1.614 2.3938-2.0408 2.7259-1.1753 0.37063 0.9658-2.0154 3.9935-3.6245 4.5991-1.2626 0.4752-2.6257 0.3337-3.6789-0.382zm9.4987-8.3852c-2.0812-2.6537-3.5028-4.0563-4.4864-4.4265-1.6027-0.6031-1.1885-1.7504 1.3804-3.8238 2.6672-2.1526 3.4657-2.4564 3.9717-1.511 0.23007 0.4299 0.0122 0.7553-1.4522 2.1692-1.7135 1.6545-1.72 1.6663-1.2021 2.1842s0.52662 0.5154 1.6122-0.4654c2.0657-1.8663 3.2435-0.6103 1.4641 1.5613l-0.95394 1.1641 0.86754 1.1445c1.4379 1.8969 1.9628 3.0505 1.6291 3.5804-0.58098 0.9226-1.0944 0.6365-2.8303-1.577zm6.5667-4.7729c-3.9011-4.9496-4.8948-6.3671-4.8948-6.9825 0-0.6005 0.77564-1.2978 4.1574-3.7372 1.3282-0.958 1.7132-1.0406 2.1874-0.4692 0.26465 0.3188 0.17501 0.5789-0.48819 1.4163-0.4468 0.5641-1.352 1.4679-2.0116 2.0083-0.65956 0.5405-1.1966 1.064-1.1933 1.1634 3e-3 0.099 0.22936 0.4715 0.5025 0.8269l0.49661 0.6461 0.93533-0.8212c1.2224-1.0734 1.9707-1.3037 2.5037-0.7707 0.50841 0.5085 0.18547 1.2465-1.1279 2.5777l-0.84676 0.8583 1.3114 1.7391c1.6558 2.1959 2.1844 3.3631 1.7563 3.8789-0.60933 0.7342-1.2003 0.3146-3.2881-2.3342zm9.3534-1.9672c-0.24531-0.065-0.77729-0.9491-1.2156-2.0198-0.42868-1.0472-1.57-3.1436-2.5364-4.6586-2.0296-3.1821-2.3265-4.1935-1.6174-5.5101 0.54083-1.0042 3.0919-3.1675 4.0231-3.4115 1.2727-0.3335 1.8654 1.1191 0.79784 1.9553-1.5544 1.2176-2.8518 2.6867-2.8518 3.2291 0 0.4732 0.48543 1.4024 1.2377 2.3691 0.0474 0.061 0.62739-0.278 1.2889-0.7531 0.8877-0.6375 1.3728-0.8211 1.8516-0.7009 0.97255 0.2441 0.80123 0.9693-0.55362 2.3436l-1.2024 1.2196 1.3732 2.71 0.84655-0.5642c1.5387-1.0254 2.5703-1.3844 2.9863-1.0392 0.20557 0.1706 0.37449 0.4445 0.37539 0.6086 1e-3 0.2314-4.2407 4.4984-4.343 4.3686-0.0133-0.017-0.2205-0.083-0.46041-0.1465zm6.5489-6.7135c-1.06-0.9307-3.2812-4.296-4.4091-6.6801-1.1995-2.5355-1.011-3.5291 0.80759-4.2567 1.9825-0.7933 3.442-0.4702 3.442 0.7619 0 0.8234-0.51146 1.1906-1.6582 1.1906-0.93742 0-1.0083 0.05-0.84552 0.5953 0.25043 0.8389 1.7784 3.5603 2.7482 4.8948 0.96955 1.3342 1.5075 1.4019 2.5438 0.3202 0.93469-0.9756 1.7284-0.944 2.0004 0.08 0.47301 1.7798-1.0575 3.8997-2.8154 3.8997-0.62172 0-1.1777-0.2468-1.8137-0.8053zm8.7825-5.9952c-0.36974-0.5526-1.1841-1.9572-1.8097-3.1214-1.0922-2.0325-3.3418-5.4239-3.5978-5.4239-0.0677 0-0.56115 0.2976-1.0965 0.6614-1.136 0.772-1.457 0.811-2.0223 0.2457-0.88063-0.8806-0.8244-0.9527 2.8915-3.7075 2.8369-2.1032 3.321-2.347 4.2138-2.1229 1.0664 0.2676 0.82049 0.9848-0.76103 2.22l-1.442 1.1262 1.5757 2.5265c2.2424 3.5955 4.0072 7.1376 3.9072 7.842-0.14579 1.0273-1.0905 0.9023-1.8589-0.2461zm-48.225-8.4939c-0.49881-5.3182-0.50646-6.5167-0.0441-6.9004 0.27013-0.2242 1.647-0.1601 5.4901 0.2558 7.2256 0.782 12.601 0.5501 28.016-1.2088 5.6445-0.6441 12.116-0.9901 16.669-0.8914 4.7453 0.103 5.4571 0.2831 6.4585 1.6343 0.51984 0.7014 0.57109 1.2879 0.85554 9.7896 0.16641 4.9739 0.46213 10.401 0.65713 12.061l0.35457 3.0173 9.6616-0.1883c5.3139-0.1035 16.567-0.3128 25.007-0.4649 8.4402-0.1522 16.16-0.2942 17.154-0.3156l1.8085-0.039-0.22422-16.14-1.1978-5.7425c-0.46165-2.2132-0.9316-2.897-0.37089-3.3623 0.27795-0.2307 2.6088-0.2372 9.4589-0.026 9.735 0.2997 24.012 0.1752 29.198-0.2547 4.5047-0.3734 16.168-0.3235 17.317 0.074 0.57311 0.1983 1.1148 0.6605 1.4552 1.2419 0.51399 0.8778 0.55223 1.5033 0.73408 12.01 0.10551 6.0961 0.23933 11.131 0.29736 11.189 0.058 0.058 1.0433-0.7693 2.1894-1.8385s3.0364-2.6479 4.2006-3.5082c3.1025-2.2927 8.2997-6.7425 9.9387-8.5096 3.406-3.6721 5.3219-5.2869 9.893-8.3386 2.626-1.7531 5.2607-3.619 5.8548-4.1464 1.4326-1.2719 4.7419-3.9621 6.0636-4.9292 0.58209-0.426 1.5223-1.1809 2.0893-1.6777 0.56706-0.4967 2.7697-2.0399 4.8948-3.4293 2.1251-1.3893 4.9008-3.4277 6.1682-4.5296l2.3044-2.0036 0.0107-3.6396 0.0107-3.6395-4.4177-4.3868c-2.4298-2.4127-5.2145-5.0016-6.1884-5.7531s-3.0826-2.5131-4.6861-3.9146c-1.6035-1.4014-4.2063-3.3325-5.784-4.2912s-4.595-3.188-6.7051-4.954c-2.11-1.7661-4.7294-3.8141-5.8208-4.5512-1.0914-0.7372-2.8773-2.188-3.9688-3.224-1.0914-1.036-2.6988-2.4674-3.5719-3.1809-0.87313-0.7135-2.3019-1.9771-3.175-2.8081-0.87313-0.831-2.7384-2.5318-4.1452-3.7796l-2.5577-2.2687-0.15495 2.0446c-0.0852 1.1245-0.39301 4.1877-0.68397 6.8071s-0.65497 6.1317-0.80891 7.8052c-0.32495 3.5326-0.96649 5.1995-2.2327 5.8012-0.52017 0.2471-2.3441 0.4496-5.2917 0.5875-2.4739 0.1157-5.6302 0.3998-7.014 0.6313-2.1078 0.3526-4.1686 0.3993-12.7 0.2875-6.5203-0.085-11.516-0.2807-13.888-0.5426-2.0373-0.2251-5.7878-0.4172-8.3344-0.427-5.6653-0.022-6.2487-0.1783-7.1066-1.908-0.61932-1.2486-0.62482-1.3395-0.68894-11.377-0.0356-5.5651-0.15534-10.61-0.26619-11.211l-0.20156-1.0928-6.5178-0.1323c-6.3242-0.1283-7.5842-0.2489-15.994-1.5308-2.999-0.4571-4.8229-0.5168-15.79-0.5168-12.337 0-13.525 0.063-19.713 1.0503-9.1743 1.4633-8.5935 1.4405-27.12 1.0645-21.557-0.4375-25.95-0.4245-26.231 0.078-0.27529 0.492-4.5403 3.9081-7.3554 5.8914-1.2283 0.8653-3.7881 3.0694-5.6885 4.8979-4.3001 4.1373-6.1277 5.6462-9.4532 7.8042-3.1539 2.0466-4.4598 3.2377-8.105 7.3921-1.5322 1.7462-4.9985 5.3891-7.7029 8.0952s-6.1364 6.2375-7.6268 7.8475-3.7069 3.7883-4.9257 4.8408l-2.216 1.9137-0.18442 3.1527-0.18441 3.1528 0.88573 0.9804c0.48715 0.5393 1.6673 2.1694 2.6225 3.6226 3.4845 5.3012 7.2104 9.4675 12.268 13.718 1.8918 1.59 4.2135 3.6265 5.1594 4.5257 0.94588 0.8992 2.4589 2.1232 3.3623 2.7201 3.3551 2.2168 7.1508 4.969 9.2054 6.6748 2.8281 2.3481 4.1757 3.2799 7.9375 5.4889 3.9191 2.3014 5.6123 3.5746 8.9958 6.7641l2.6458 2.4941 0.0739-8.7594c0.0533-6.3183-0.0389-9.9618-0.33073-13.074zm12.105-9.1134c-0.14031-0.1819-0.46306-0.8654-0.71724-1.519s-1.1126-2.4285-1.9075-3.9442c-1.5442-2.9445-1.7385-4.0633-0.73033-4.2073 0.42964-0.061 0.79739 0.2986 1.6219 1.5875 2.6983 4.2181 3.954 7.0568 3.4983 7.9083-0.30516 0.5702-1.3782 0.6764-1.7651 0.1747zm9.9344-2.0601c-0.24329-0.142-0.52193-0.6444-0.61919-1.1165-0.0973-0.472-0.89041-3.2812-1.7625-6.2425-1.6337-5.5473-1.7582-6.6543-0.74815-6.6543 0.74089 0 1.2758 1.2074 3.1426 7.093 1.7548 5.5325 1.9085 6.4924 1.1085 6.9206-0.60728 0.325-0.56367 0.325-1.1212-3e-4zm8.6308-0.1741c-0.38587-0.3858-0.42366-0.8001-0.27156-2.9765 0.2293-3.2812 1.4247-11.07 1.8297-11.921 0.17979-0.378 0.53987-0.6614 0.84022-0.6614 0.771 0 0.80726 1.7929 0.13062 6.4588-0.30786 2.123-0.60319 4.9672-0.65628 6.3206-0.12013 3.062-0.71194 3.9404-1.8727 2.7796zm10.109-0.036c-0.24083-0.2661-0.43788-0.6423-0.43788-0.8359 0-0.5982 5.6586-8.9771 6.1811-9.1526 0.28215-0.095 0.65958 0 0.88362 0.2257 0.34507 0.3451 0.29426 0.5863-0.4318 2.0497-0.4526 0.9122-1.2196 2.207-1.7045 2.8772-0.48489 0.6703-1.3726 2.0681-1.9727 3.1062-0.90319 1.5625-1.4944 2.2136-2.0103 2.2136-0.0383 0-0.26669-0.2178-0.50753-0.4839zm-95.846 4.1219c0.0882-1.9282 0.16824-7.3753 0.17798-12.105 0.01-4.7294 0.0386-14.195 0.0642-21.034s-0.0499-13.003-0.16784-13.697c-0.35636-2.0979-0.41823-2.1145-9.0157-2.4224-16.181-0.5795-33.468-0.2087-37.996 0.8151-0.94589 0.2138-2.754 0.458-4.0181 0.5426l-2.2984 0.1537-0.11423 2.5416c-0.0628 1.3979-0.25198 8.2566-0.42035 15.242-0.16836 6.985-0.48206 14.724-0.69712 17.198-0.21505 2.4739-0.4038 6.5055-0.41943 8.9593-0.0269 4.2235 2e-3 4.4914 0.53695 5.027 0.55717 0.5576 0.75058 0.5682 13.325 0.7294 10.553 0.1353 13.125 0.2415 14.876 0.6138 1.6824 0.3577 4.3425 0.4911 12.965 0.6501 5.9664 0.1101 11.342 0.2208 11.945 0.2462l1.0974 0.046zm-18.576-11.524c-0.26282-0.2628-0.99398-1.6618-1.6248-3.1089-1.4548-3.3371-2.8385-6.1195-3.53-7.0981-0.29654-0.4197-1.3355-2.1801-2.3088-3.9121l-1.7697-3.1491-0.23763 3.3829c-0.13069 1.8606-0.19855 5.0755-0.15079 7.1442 0.0951 4.1181 6e-3 4.6987-0.78822 5.1236-0.41783 0.2237-0.64303 0.1861-1.0404-0.1735-0.76455-0.692-0.69687-4.3738 0.3008-16.364 0.27524-3.308 0.50821-3.9328 1.4178-3.8029 0.42022 0.06 1.091 1.1231 2.8046 4.4446 1.2388 2.4011 2.6505 4.9414 3.1373 5.6452 0.48672 0.7037 1.5676 2.7046 2.4018 4.4464l1.5169 3.1668 0.18108-4.4464c0.0996-2.4455 0.39277-6.2641 0.65148-8.4858 0.48981-4.2062 0.82312-5.09 1.781-4.7225 0.40529 0.1555 0.43691 0.5038 0.29752 3.2773-0.0858 1.7069-0.33875 4.7107-0.56215 6.6752-0.22341 1.9646-0.41043 5.0006-0.41561 6.7469-0.0101 3.39-0.27249 5.1003-0.83756 5.4586-0.50815 0.3222-0.69162 0.2851-1.2246-0.2479zm-24.506-2.5838c-0.50959-0.5096-0.56982-5.7554-0.13851-12.065 0.46611-6.8185 0.89731-8.4494 2.0428-7.7267 0.57248 0.3611 0.5878 1.7562 0.0851 7.7526-0.23082 2.7535-0.30069 5.6147-0.19064 7.8074 0.14616 2.9126 0.10786 3.5551-0.24169 4.0542-0.48829 0.6971-0.98115 0.7532-1.5571 0.1772zm375.53 15.299c0.40889-0.3363 0.66377-1.042 0.93176-2.5797 0.20289-1.1641 0.82599-3.9026 1.3847-6.0854l1.0158-3.9687-0.0767-14.288c-0.0422-7.8582-0.18452-15.336-0.31625-16.618-0.28434-2.7666-0.86263-4.0772-2.1206-4.806-0.91126-0.528-1.3552-0.5378-27.829-0.6133l-26.903-0.077 0.14325 1.5319c0.0788 0.8426 0.27227 2.0082 0.42996 2.5903 0.18826 0.6949 0.33731 8.2362 0.43404 21.96 0.16396 23.262 0.0889 22.359 1.8887 22.719 0.46107 0.092 10.974 0.1765 23.361 0.1873 12.387 0.011 23.058 0.1149 23.713 0.2314 2.0768 0.3696 3.3419 0.3103 3.9438-0.1849zm-41.614-16.33c-2.0154-0.7184-3.3504-2.4905-4.5637-6.0577-1.8209-5.3537-0.56009-9.2201 3.5023-10.74 1.637-0.6125 2.2492-0.6693 2.6708-0.2477 0.16117 0.1612 0.83738 0.3147 1.5027 0.3412 1.5066 0.06 2.4791 0.7381 3.2862 2.2917 0.56688 1.0912 0.60468 1.4397 0.52916 4.8793-0.0776 3.5322-0.12043 3.7867-0.9236 5.4822-1.1094 2.3417-2.1049 3.5502-3.3276 4.0395-1.1993 0.4798-1.3603 0.4805-2.6762 0.012zm2.6354-2.6525c0.36298-0.363 1.0123-1.4048 1.443-2.3151 0.72393-1.5303 0.78303-1.8811 0.78322-4.6491 1.2e-4 -1.6467-0.12283-3.2239-0.27322-3.5049s-0.7239-0.7407-1.2745-1.0216-1.1491-0.6891-1.3301-0.9072c-0.2908-0.3504-0.50248-0.3367-1.8218 0.1172-1.8174 0.6252-2.559 1.2864-3.1351 2.795-0.57868 1.5152-0.35337 3.4256 0.73877 6.2639 1.38 3.5864 3.2608 4.8307 4.8697 3.2218zm11.888 1.3771c-1.3398-0.7588-2.4041-2.8203-2.7699-5.365-0.47983-3.3384-0.66506-10.363-0.28532-10.82 0.4442-0.5352 1.1838-0.5163 1.7448 0.045 0.38374 0.3838 0.42842 0.8061 0.29812 2.8174-0.16663 2.5719 0.20217 7.9963 0.63559 9.3485 0.4634 1.4459 1.2298 2.1994 2.237 2.1994 0.7161 0 0.97541-0.1487 1.2688-0.7276 0.50452-0.9956 0.9712-5.1162 1.0029-8.8549 0.0288-3.396 0.3171-4.2931 1.2062-3.7527 0.84817 0.5155 1.0973 2.3412 0.8458 6.1981-0.28449 4.3626-0.64942 6.4562-1.3404 7.6901-1.0308 1.8406-2.9133 2.3157-4.8434 1.2225zm16.357-0.5187c-0.37495-0.6002-0.41305-1.0752-0.54292-6.7685l-0.12874-5.644-1.0978 0.057c-1.9898 0.1036-2.2683 0.026-2.4453-0.6788-0.30638-1.2207 0.0973-1.3517 5.2851-1.7142 5.0889-0.3556 6.0821-0.2891 6.3564 0.426 0.29245 0.7621-0.33698 1.0941-2.4299 1.2816-1.1238 0.1007-2.3112 0.2464-2.6387 0.3237l-0.59531 0.1406v5.9418c0 3.5899-0.10841 6.1444-0.27389 6.4536-0.3087 0.5768-1.1759 0.6823-1.489 0.1811zm-112.14-31.703c1.0186-0.117 3.9357-0.4064 6.4823-0.6431 2.5466-0.2367 4.8792-0.5306 5.1836-0.6529 0.97281-0.3912 1.4239-1.8855 1.8225-6.0374 0.20788-2.1653 0.58933-5.5341 0.84765-7.4863 0.40057-3.0271 0.47049-5.6966 0.47514-18.14 6e-3 -16.592 0.17304-15.426-2.2828-15.953-0.79413-0.1703-5.2823-0.2809-11.402-0.2809-9.567 0-13.889 0.2037-22.69 1.0692-1.528 0.1503-6.5486 0.347-11.157 0.4373l-8.3789 0.164-0.18814 2.5095c-0.10349 1.3803-0.11694 3.9512-0.0299 5.7132 0.43609 8.8281 0.70282 12.831 1.1126 16.697 0.30109 2.841 0.40863 5.4952 0.32695 8.0698-0.17227 5.4303 0.12584 11.627 0.59471 12.362 0.60475 0.9476 1.4193 1.1064 7.1365 1.3914 2.9832 0.1487 6.3764 0.389 7.5406 0.534s2.712 0.3028 3.4396 0.3505c2.7574 0.181 19.396 0.099 21.167-0.1048zm-1.359-9.1945c-0.8533-0.7171-1.8863-1.6602-2.2955-2.0958l-0.74404-0.7921-1.6857 1.1304c-3.3771 2.2646-7.4722 2.2602-12.199-0.013-2.6402-1.27-5.7244-4.5297-7.307-7.723l-1.1331-2.2863v-3.1953c0-4.1003 0.41821-5.3948 2.4527-7.5923 1.91-2.063 3.1016-2.859 6.014-4.0174 2.5739-1.0237 4.948-1.4762 5.4884-1.046 0.18287 0.1456 1.404 0.3282 2.7137 0.4058 1.3296 0.079 3.1943 0.398 4.2222 0.7228 1.5916 0.5029 2.0846 0.8255 3.6401 2.3809 2.0313 2.0313 3.3333 4.4397 3.6165 6.6899 0.37269 2.9607-0.56417 6.918-2.2198 9.3765-0.50853 0.7551-0.92459 1.4931-0.92459 1.6401 0 0.1469 0.58792 1.1339 1.3065 2.1932 1.9662 2.8987 2.3883 5.1738 1.0103 5.4455-0.22252 0.044-1.1027-0.5069-1.956-1.2239zm-6.9766-2.7466c0.36316-0.1356 1.0631-0.5538 1.5553-0.9293 0.87744-0.6693 0.88472-0.691 0.36995-1.1063-4.4378-3.5804-5.6283-4.65-5.6283-5.0568 0-0.5937 3.061-2.9075 3.8464-2.9075 0.76832 0 2.3567 1.1844 3.9196 2.9228 1.2387 1.3777 1.2975 1.4094 1.6833 0.906 0.78637-1.0259 1.3844-2.705 1.7931-5.0343 0.52978-3.0198 0.26503-4.2497-1.4692-6.8251-2.0843-3.0953-4.7264-4.4048-8.8872-4.4048-1.0522 0-1.976-0.1017-2.0528-0.2259-0.077-0.1245-0.79573-0.1229-1.6029 0-4.4605 0.6994-8.3769 3.4745-9.5523 6.7683-0.54577 1.5294-0.46958 5.0082 0.15388 7.0268 0.84915 2.7492 4.0173 6.5453 6.508 7.798 2.9321 1.4746 7.0207 1.9395 9.363 1.0644zm3.0568-4.9553c-0.54119-0.7372-1.0036-1.3417-1.0276-1.3433-0.024 0-0.63892-0.1763-1.3665-0.3884l-1.3229-0.3855 2.0983 1.981c2.3915 2.2577 3.2277 2.3281 1.6187 0.1362zm2.5951-38.366c-1.096-0.4695-1.8225-2.1159-1.1242-2.5475 0.16123-0.1 0.92817 0.035 1.7043 0.2985 1.1285 0.3836 1.544 0.4191 2.0741 0.1776 1.2259-0.5586 1.5684-1.4496 1.5215-3.9592-0.0234-1.255-0.0905-2.3297-0.14905-2.3882-0.0585-0.059-0.40867 0.092-0.77806 0.3336-0.84511 0.5537-2.9014 0.5729-3.7228 0.035-0.92058-0.6032-1.6715-1.98-2.1217-3.8901-0.736-3.1225-0.48593-4.4799 0.82529-4.4799 0.79555 0 1.1427 0.7228 1.1672 2.43 0.026 1.8138 0.49902 3.0952 1.3876 3.7586l0.70892 0.5293 0.7276-0.5394c0.85788-0.6361 1.3369-2.1806 1.3678-4.4099 0.0243-1.7596 0.35536-2.5623 1.0565-2.5623 0.84657 0 1.0178 0.5762 1.179 3.9687 0.0865 1.819 0.23404 4.7091 0.32793 6.4225 0.19486 3.5558-0.11528 4.834-1.4932 6.1541-0.6737 0.6455-1.0429 0.7718-2.4427 0.8361-0.90698 0.042-1.9042-0.034-2.2161-0.1672zm-30.211-1.1774c-0.27857-0.3073-0.50976-0.7373-0.51374-0.9556-4e-3 -0.2183-0.31087-2.1233-0.68197-4.2333-0.37109-2.1101-0.75421-4.5212-0.85137-5.358-0.15038-1.2953-0.27983-1.571-0.87051-1.8541-1.2216-0.5855-0.95392-2.0483 0.37479-2.0483 0.33739 0 0.68703-0.1191 0.77696-0.2646 0.20302-0.3285 1.0462-0.3427 1.6572-0.028 0.25269 0.1302 1.2788 0.3603 2.2803 0.5114 2.5587 0.3861 4.5459 1.6422 5.5213 3.4901 0.61371 1.1627 0.7276 1.7015 0.7276 3.4418 0 1.812-0.10506 2.2663-0.8624 3.7293-1.0963 2.1178-2.3645 3.0382-5.0446 3.6612-1.9966 0.4642-2.0098 0.4637-2.5136-0.092zm2.9459-2.4344c1.5105-0.5147 2.4215-1.5493 2.9605-3.3624 1.0239-3.4438-0.6256-5.8983-4.2988-6.397l-1.3891-0.1885 6e-5 1.8107c4e-5 0.996 0.23569 3.2396 0.52368 4.9858 0.28799 1.7463 0.52609 3.2643 0.52911 3.3735 8e-3 0.2869 0.29088 0.2493 1.6745-0.2221zm15.272-0.2019c-0.76255-1.3765-1.7907-2.8945-2.2847-3.3733l-0.89825-0.8706v2.5149c0 2.8968-0.26453 3.5033-1.4683 3.3663l-0.7807-0.089-0.0778-2.2392c-0.0858-2.4722 1.0142-9.3126 1.7248-10.725 1.2296-2.4446 3.3871-3.3645 5.5187-2.353 2.3761 1.1275 2.6494 4.6258 0.54237 6.9422-0.69353 0.7625-1.8117 1.364-2.5356 1.364-0.77799 0-0.67835 0.2889 0.49461 1.4343 1.241 1.2117 2.4881 3.8459 2.5153 5.3125 0.0176 0.9505-0.0509 1.0666-0.67224 1.1387-0.62443 0.072-0.82699-0.1637-2.0783-2.4225zm0.12434-8.0757c1.5051-0.8647 1.5449-3.7373 0.0518-3.7373-1.0486 0-2.1404 1.5516-2.6755 3.8022-0.17967 0.7558-0.17568 0.7586 0.82468 0.5753 0.55288-0.1013 1.3624-0.3894 1.799-0.6402z"/></g></svg>
