<svg width="535.51mm" height="366.4mm" version="1.1" viewBox="0 0 535.51 366.4" xml:space="preserve" xmlns="http://www.w3.org/2000/svg"><g transform="translate(-1322.5 878.52)"><path fill="#fff" d="m1606-512.28c-1.2416-0.30248-1.9412-1.6833-1.03-2.0329 0.2339-0.0897 0.9077-0.0333 1.4974 0.12553 2.1347 0.57483 3.8983-0.42649 3.8983-2.2134 0-0.61223-0.285-1.0618-1.2136-1.9143-0.906-0.83184-1.1909-1.2734-1.1244-1.7427 0.077-0.54478 0.3052-0.66711 1.7116-0.91795 2.9031-0.51781 4.3305-1.9145 4.3305-4.2372 0-2.0774-1.9949-3.4557-4.5173-3.1211-1.4797 0.1963-2.0973-0.13022-2.0973-1.109 0-0.95583 0.8544-1.2446 3.3022-1.1161 2.7764 0.14572 3.9011 0.7792 4.7961 2.7013 1.3284 2.8527 0.489 6.3008-1.903 7.8178-0.682 0.43249-1.3726 0.83105-1.5348 0.88569-0.2039 0.0687-0.1854 0.23194 0.06 0.52937 0.1952 0.23651 0.4094 1.1191 0.476 1.9612 0.2277 2.8775-1.4921 4.6019-4.531 4.5433-0.8754-0.0169-1.8297-0.0887-2.1208-0.15961zm113.37-2.1503c-0.513-0.42066-0.5956-0.63317-0.3821-0.98283 0.2044-0.33494 0.7116-0.46138 2.0352-0.50732 2.2301-0.0774 3.1961-0.47871 3.7852-1.5725 0.7314-1.3581 0.3963-2.0514-1.473-3.0477-2.1993-1.1722-2.1124-1.6788 0.5038-2.938 2.2678-1.0916 2.8315-1.8553 2.5711-3.4835-0.3865-2.4176-1.4274-3.0121-4.2142-2.4074-2.3311 0.50587-2.819 0.3857-2.819-0.69429 0-1.016 0.4965-1.2785 3.1497-1.6652 2.6318-0.38359 3.8983-0.0654 4.8842 1.2272 1.9381 2.541 1.428 6.2944-1.0856 7.9883l-0.8443 0.56899 0.5564 0.49564c1.3576 1.2093 1.6978 3.9003 0.6818 5.3931-1.104 1.6221-1.846 1.9722-4.3916 2.072-2.0033 0.0785-2.3885 0.0204-2.9576-0.44645zm96.897-1.4165c-0.5445-0.54449-0.3616-1.0965 1.0716-3.2338 4.2853-6.391 7.7529-12.272 8.9038-15.102 1.4767-3.6304 2.9841-6.4618 3.533-6.636 0.8095-0.25691 1.1322 0.25871 0.796 1.2717-0.6396 1.9275-3.7617 8.665-4.8765 10.524-0.6546 1.0914-1.8793 3.2871-2.7217 4.8794-0.8423 1.5922-2.1543 3.8544-2.9155 5.0271s-1.5829 2.4595-1.8261 2.8597c-0.4708 0.7747-1.405 0.96971-1.9646 0.41011zm-222.66-0.38806c-0.3122-0.31221-0.1884-1.4138 0.2567-2.2842 0.2381-0.46571 1.3892-2.2755 2.5579-4.0218 2.756-4.118 3.5661-5.5594 5.6466-10.046 1.8912-4.0788 2.3137-4.699 3.1218-4.5834 0.4666 0.0668 0.5358 0.24677 0.4877 1.2684-0.073 1.5496-3.7016 8.9078-6.6023 13.388-1.1401 1.761-2.4222 3.9339-2.8491 4.8286-0.7082 1.484-0.8494 1.6268-1.6096 1.6268-0.4583 0-0.9127-0.0794-1.0097-0.17639zm235.09-0.22652c-0.3786-0.27413-0.5795-0.65569-0.5291-1.0049 0.074-0.51344 0.2564-0.56604 2.0748-0.59837 3.0792-0.0547 5.547-1.2993 5.547-2.7974 0-1.0649-0.8044-1.7446-2.2961-1.9403-1.7481-0.22929-2.4664-0.56337-2.4664-1.147 0-0.61593 0.6005-1.1294 2.0598-1.7612 1.6199-0.70137 2.9673-2.2719 2.9673-3.4588 0-2.5278-1.5102-3.3456-4.1156-2.2288-1.3571 0.58169-2.1216 0.50163-2.3592-0.24709-0.2522-0.79454 0.1048-1.2784 1.4024-1.9008 1.7138-0.822 3.8803-0.94775 5.0658-0.29402 2.6437 1.4579 2.8223 5.9344 0.3344 8.3825l-0.8003 0.78742 0.7678 0.46693c1.2657 0.76969 1.8662 1.9828 1.7516 3.5387-0.1314 1.7855-0.8998 2.8109-2.7811 3.711-1.9483 0.93228-5.6366 1.2063-6.6231 0.49201zm-122.75-1.0952c-0.4985-0.20114-0.3972-1.8323 0.1846-2.9727 0.2834-0.55558 2.0353-3.319 3.8929-6.141 1.8577-2.822 4.2025-6.7382 5.2106-8.7028 2.1418-4.1737 2.3859-4.4979 3.3868-4.4979 0.6615 0 0.7527 0.0971 0.7527 0.8011 0 1.1468-3.0175 6.8355-6.0309 11.37-1.4023 2.11-3.1966 5.0866-3.9873 6.6146-1.9139 3.6986-2.2155 4.0107-3.4094 3.5289zm-111.06-9.4159c-0.2493-0.72338-0.6615-6.59-0.6645-9.4589v-3.0427l-1.3868 2.1922c-1.4211 2.2465-2.2011 2.8151-2.9777 2.1706-0.6447-0.53508-0.4689-1.0727 1.1414-3.4911 3.1054-4.6636 4.3705-5.3286 4.93-2.5914 0.311 1.5212 0.6422 13.291 0.3925 13.948-0.247 0.64958-1.2368 0.83854-1.4317 0.2733zm220.58-1.3097c-0.4668-0.46683-0.3865-1.2634 0.1455-1.4425 2.6763-0.90095 3.8329-2.1256 3.7101-3.9286-0.063-0.92974-0.1584-1.0683-0.7821-1.1404-0.3905-0.0451-1.0685 0.10331-1.5065 0.32983-0.5889 0.30454-0.9727 0.34485-1.4728 0.15472-0.9046-0.34392-0.8776-1.1721 0.088-2.6941 0.4201-0.6625 0.8429-1.4536 0.9396-1.7581 0.2849-0.8978-0.6316-1.5695-2.4094-1.7657-0.8487-0.0937-1.7217-0.19439-1.9399-0.22381-0.2775-0.0374-0.3969-0.37084-0.3969-1.1082v-1.0547l2.2501 4e-3c1.9049 4e-3 2.4067 0.10122 3.2715 0.63566 1.1759 0.72678 1.7541 1.8859 1.7551 3.5186 7e-4 1.0383 0.084 1.1772 0.9922 1.6621 1.4224 0.75917 1.9795 1.9815 1.8334 4.0228-0.141 1.9695-0.7287 3.0705-2.2641 4.2416-0.9446 0.72046-1.3617 0.86377-2.5142 0.86377-0.7599 0-1.5246-0.14288-1.6992-0.3175zm-113.3-2.5478c-0.4298-0.13836-0.7732-0.56675-0.7794-0.9723 0-0.14616 0.82-1.1146 1.8271-2.1522 2.371-2.4425 2.9484-4.2886 1.9798-6.3298-0.7792-1.6419-2.2704-1.5056-3.4196 0.31244-0.6017 0.95199-0.878 1.1698-1.4035 1.1061-0.3599-0.0436-0.7854-0.28897-0.9456-0.54532-0.4383-0.70151 0.7604-2.7702 2.179-3.7603 0.9668-0.6748 1.3969-0.80071 2.7349-0.80071 1.406 0 1.6596 0.0837 2.2171 0.73182 1.4042 1.6326 1.5559 5.4875 0.3218 8.183l-0.6764 1.4776 0.9641 0.15836c1.3189 0.21665 2.6839 1.0979 2.6839 1.7329 0 0.7577-0.3632 0.86986-1.9155 0.59145-0.9566-0.17159-2.0155-0.14944-3.3864 0.0708-1.0971 0.17627-2.1687 0.26449-2.3813 0.19605zm-212.55-17.926c-0.088-0.23019-0.1606-0.99435-0.1606-1.6982 0-1.6747 0.1928-2.1167 0.9235-2.1167 0.6855 0 0.9193 0.57978 0.9249 2.2935 0 1.4941-0.207 1.9399-0.9224 1.9399-0.3326 0-0.6771-0.18833-0.7654-0.41851zm109.27 0c-0.088-0.23019-0.1606-0.99435-0.1606-1.6982 0-1.6747 0.1928-2.1167 0.9235-2.1167 0.6855 0 0.9194 0.57978 0.925 2.2935 0 1.4941-0.2071 1.9399-0.9225 1.9399-0.3326 0-0.6771-0.18833-0.7654-0.41851zm111.65 0c-0.088-0.23019-0.1606-0.99435-0.1606-1.6982 0-1.6747 0.1928-2.1167 0.9235-2.1167 0.6855 0 0.9193 0.57978 0.9249 2.2935 0 1.4941-0.207 1.9399-0.9224 1.9399-0.3327 0-0.6771-0.18833-0.7654-0.41851zm110.86 0c-0.088-0.23019-0.1606-0.99435-0.1606-1.6982 0-1.6747 0.1928-2.1167 0.9235-2.1167 0.6855 0 0.9194 0.57978 0.925 2.2935 0 1.4941-0.2071 1.9399-0.9225 1.9399-0.3326 0-0.6771-0.18833-0.7654-0.41851zm-331.79-5.5562c-0.088-0.23019-0.1606-0.99435-0.1606-1.6982 0-1.6747 0.1928-2.1167 0.9235-2.1167 0.6666 0 0.9213 0.58531 0.9213 2.1167 0 1.5314-0.2547 2.1167-0.9213 2.1167-0.3313 0-0.6746-0.18833-0.7629-0.41851zm109.27 0c-0.088-0.23019-0.1606-0.99435-0.1606-1.6982 0-1.6747 0.1928-2.1167 0.9235-2.1167 0.6666 0 0.9214 0.58531 0.9214 2.1167 0 1.5314-0.2548 2.1167-0.9214 2.1167-0.3313 0-0.6746-0.18833-0.7629-0.41851zm111.65 0c-0.088-0.23019-0.1606-0.99435-0.1606-1.6982 0-1.6747 0.1928-2.1167 0.9235-2.1167 0.6665 0 0.9213 0.58531 0.9213 2.1167 0 1.5314-0.2548 2.1167-0.9213 2.1167-0.3313 0-0.6746-0.18833-0.7629-0.41851zm110.86 0c-0.088-0.23019-0.1606-0.99435-0.1606-1.6982 0-1.6747 0.1928-2.1167 0.9235-2.1167 0.6666 0 0.9214 0.58531 0.9214 2.1167 0 1.5314-0.2548 2.1167-0.9214 2.1167-0.3313 0-0.6746-0.18833-0.7629-0.41851zm-331.79-5.5562c-0.088-0.23019-0.1606-0.99435-0.1606-1.6982 0-1.6747 0.1928-2.1167 0.9235-2.1167 0.6666 0 0.9213 0.58531 0.9213 2.1167 0 1.5314-0.2547 2.1167-0.9213 2.1167-0.3313 0-0.6746-0.18833-0.7629-0.41851zm109.27 0c-0.088-0.23019-0.1606-0.99435-0.1606-1.6982 0-1.6747 0.1928-2.1167 0.9235-2.1167 0.6666 0 0.9214 0.58531 0.9214 2.1167 0 1.5314-0.2548 2.1167-0.9214 2.1167-0.3313 0-0.6746-0.18833-0.7629-0.41851zm111.65 0c-0.088-0.23019-0.1606-0.99435-0.1606-1.6982 0-1.6747 0.1928-2.1167 0.9235-2.1167 0.6665 0 0.9213 0.58531 0.9213 2.1167 0 1.5314-0.2548 2.1167-0.9213 2.1167-0.3313 0-0.6746-0.18833-0.7629-0.41851zm110.86 0c-0.088-0.23019-0.1606-0.99435-0.1606-1.6982 0-1.6747 0.1928-2.1167 0.9235-2.1167 0.6666 0 0.9214 0.58531 0.9214 2.1167 0 1.5314-0.2548 2.1167-0.9214 2.1167-0.3313 0-0.6746-0.18833-0.7629-0.41851zm-331.63-5.4552c-0.3293-0.32931-0.4385-2.7634-0.1569-3.4973 0.088-0.23018 0.4328-0.41851 0.7654-0.41851 0.3327 0 0.6771 0.18833 0.7655 0.41851 0.2051 0.53451 0.2014 2.4448-0.01 3.2195-0.1731 0.64583-0.8602 0.7854-1.3678 0.27781zm109.27 0c-0.3293-0.32931-0.4385-2.7634-0.1569-3.4973 0.088-0.23018 0.4328-0.41851 0.7654-0.41851 0.3327 0 0.6772 0.18833 0.7655 0.41851 0.2051 0.53451 0.2014 2.4448-0.01 3.2195-0.1731 0.64583-0.8602 0.7854-1.3678 0.27781zm111.65 0c-0.3293-0.32931-0.4385-2.7634-0.1569-3.4973 0.088-0.23018 0.4327-0.41851 0.7654-0.41851s0.6771 0.18833 0.7655 0.41851c0.2051 0.53451 0.2014 2.4448-0.01 3.2195-0.1731 0.64583-0.8602 0.7854-1.3678 0.27781zm110.86 0c-0.3293-0.32931-0.4385-2.7634-0.1569-3.4973 0.088-0.23018 0.4328-0.41851 0.7654-0.41851 0.3327 0 0.6771 0.18833 0.7655 0.41851 0.2051 0.53451 0.2014 2.4448-0.01 3.2195-0.1731 0.64583-0.8602 0.7854-1.3678 0.27781zm-331.79-5.5562c-0.3892-0.38918-0.4198-2.9657-0.044-3.6686 0.6513-1.217 1.5805-0.24101 1.5745 1.6536 0 0.62803-0.075 1.4098-0.1631 1.7372-0.1731 0.64583-0.8602 0.7854-1.3678 0.27781zm109.27 0c-0.3892-0.38918-0.4198-2.9657-0.044-3.6686 0.6513-1.217 1.5806-0.24101 1.5746 1.6536 0 0.62803-0.075 1.4098-0.1632 1.7372-0.1731 0.64583-0.8602 0.7854-1.3678 0.27781zm111.65 0c-0.3892-0.38918-0.4198-2.9657-0.044-3.6686 0.2456-0.45899 0.1818-0.51178-0.6192-0.51178-2.7345 0-9.682-2.7261-13.199-5.1791-3.3722-2.352-4.5694-3.4215-6.4505-5.7624-2.2308-2.7759-3.9376-6.2384-4.5049-9.1387-0.6098-3.1178-0.4062-9.2982 0.3781-11.478 2.2618-6.2859 6.8131-10.453 15.917-14.572 1.2384-0.56042 2.7875-1.2668 3.4424-1.5696 0.6733-0.31142 1.9461-0.59898 2.9295-0.66189 1.6862-0.10788 1.7463-0.13643 1.9843-0.94394 0.3359-1.1391 1.2123-1.1433 1.5473-7e-3l0.2434 0.82533 2.4024 0.17913c4.602 0.34312 6.1221 0.95324 11.661 4.6801 5.2282 3.5179 7.2132 5.8663 8.5859 10.158 1.8818 5.883 2.0985 10.167 0.824 16.287-0.8376 4.0223-1.4606 5.5005-3.3582 7.9686-2.3574 3.0662-9.6003 8.3935-12.289 9.0392-0.3757 0.0902-2.4248 0.18355-4.5534 0.20742-3.6327 0.0407-3.8547 0.0725-3.6164 0.5179 0.2831 0.52894 0.3327 2.4374 0.087 3.3536-0.1731 0.64583-0.8602 0.7854-1.3678 0.27781zm0.03-9.4059c0.3156-0.49 0.9191-0.40122 1.2308 0.18105 0.1506 0.28147 0.2739 1.1302 0.2739 1.886v1.3742l3.638-0.11629c3.1851-0.10182 3.8202-0.19976 5.1019-0.78671 2.1668-0.99236 6.9516-4.8965 9.3251-7.6089 2.0844-2.3819 2.7252-3.7597 3.3945-7.2987 1.4653-7.7479 0.2108-15.418-3.2567-19.913-2.0142-2.6107-8.8431-7.3178-11.721-8.0789-2.5391-0.67158-6.0471-0.89604-6.8969-0.44127-0.5027 0.26906-0.7267 0.27788-0.9665 0.0381-0.4155-0.4155-1.1511-0.39456-1.8693 0.0532-0.3223 0.20095-1.2081 0.43312-1.9685 0.51592-2.7324 0.29755-9.5458 3.5369-12.48 5.9335-3.7215 3.0397-5.9877 6.3799-6.6585 9.8141-0.4535 2.3219-0.165 7.7771 0.5455 10.316 1.1859 4.2374 3.9881 8.4208 7.2982 10.895 3.6147 2.7025 8.1794 4.9388 12.148 5.9515l2.3813 0.60767 0.1333-1.4961c0.073-0.82285 0.2292-1.6449 0.3464-1.8268zm-0.073-1.9008c-0.1507-0.28148-0.2739-1.0632-0.2739-1.7372 0-1.3744 0.3601-2.249 0.926-2.249 0.566 0 0.9261 0.87452 0.9261 2.249s-0.3601 2.249-0.9261 2.249c-0.208 0-0.5015-0.2303-0.6521-0.51177zm0.13-5.4721c-0.6175-0.61748-0.465-3.5004 0.2069-3.9105 0.3824-0.23347 0.5551-0.189 0.8599 0.22149 0.687 0.92524 0.3748 4.1166-0.4028 4.1166-0.13 0-0.4288-0.19242-0.664-0.4276zm-0.2433-5.8118c-0.088-0.23018-0.1606-0.99435-0.1606-1.6982 0-1.6747 0.1928-2.1167 0.9235-2.1167 0.6855 0 0.9193 0.57978 0.9249 2.2935 0 1.4941-0.207 1.9399-0.9224 1.9399-0.3327 0-0.6771-0.18833-0.7654-0.41852zm0-5.5562c-0.088-0.23018-0.1606-0.99435-0.1606-1.6982 0-1.6747 0.1928-2.1167 0.9235-2.1167 0.6665 0 0.9213 0.58532 0.9213 2.1167s-0.2548 2.1167-0.9213 2.1167c-0.3313 0-0.6746-0.18833-0.7629-0.41852zm0-5.5562c-0.088-0.23018-0.1606-0.99435-0.1606-1.6982 0-1.6747 0.1928-2.1167 0.9235-2.1167 0.6665 0 0.9213 0.58532 0.9213 2.1167s-0.2548 2.1167-0.9213 2.1167c-0.3313 0-0.6746-0.18833-0.7629-0.41852zm0.1569-5.4552c-0.3293-0.32931-0.4385-2.7634-0.1569-3.4973 0.088-0.23018 0.4327-0.41852 0.7654-0.41852s0.6771 0.18834 0.7655 0.41852c0.2051 0.5345 0.2014 2.4448-0.01 3.2195-0.1731 0.64583-0.8602 0.78539-1.3678 0.27781zm0-5.5562c-0.3892-0.38919-0.4198-2.9657-0.044-3.6686 0.6513-1.217 1.5805-0.24101 1.5745 1.6536 0 0.62803-0.075 1.4098-0.1631 1.7372-0.1731 0.64584-0.8602 0.7854-1.3678 0.27782zm110.82 44.645c-0.199-0.23977-0.2868-0.99413-0.2309-1.9849 0.088-1.5664 0.077-1.5981-0.5951-1.5976-2.53 2e-3 -9.6107-2.8207-12.991-5.1786-3.3723-2.352-4.5695-3.4215-6.4506-5.7624-2.2307-2.7759-3.9376-6.2384-4.5049-9.1387-0.6098-3.1178-0.4062-9.2982 0.3782-11.478 2.2617-6.2859 6.813-10.453 15.917-14.572 1.2385-0.56042 2.7875-1.2667 3.4424-1.5696 0.6856-0.31707 1.9482-0.59897 2.9766-0.66456 1.6885-0.10768 1.7859-0.1493 1.7859-0.76289 0-0.85441 0.453-1.6725 0.926-1.6725 0.4714 0 0.9261 0.81723 0.9261 1.6644 0 0.61878 0.084 0.64718 2.4474 0.82341 4.6511 0.34687 6.1552 0.94862 11.706 4.6835 5.2283 3.5179 7.2133 5.8663 8.586 10.158 1.8817 5.883 2.0985 10.167 0.824 16.287-0.8377 4.0223-1.4607 5.5005-3.3583 7.9686-2.3522 3.0594-9.6006 8.394-12.278 9.0365-0.3698 0.0887-2.3358 0.18316-4.3689 0.20987l-3.6964 0.0485 0.098 1.0244c0.154 1.6146-0.1656 2.8648-0.7324 2.8648-0.2666 0-0.6292-0.17405-0.8057-0.38677zm-0.2191-6.9845c-0.1179-1.63 0.2243-2.6829 0.8721-2.6829 0.6528 0 0.9901 1.0528 0.8699 2.7148l-0.1145 1.5824 3.7234-0.11315c3.2846-0.0998 3.8958-0.19229 5.1872-0.78471 2.1686-0.99485 6.9532-4.8994 9.3251-7.61 2.0844-2.3819 2.7252-3.7597 3.3945-7.2987 1.4653-7.7479 0.2109-15.418-3.2567-19.913-1.9979-2.5897-8.8258-7.3048-11.72-8.0939-2.5444-0.69353-8.787-0.92813-9.6884-0.36408-0.3467 0.21694-1.2525 0.46219-2.0129 0.54499-2.7324 0.29754-9.5457 3.5369-12.48 5.9335-3.7215 3.0397-5.9877 6.3799-6.6585 9.8142-0.4535 2.3219-0.165 7.7771 0.5455 10.316 0.8463 3.0239 2.8455 6.5726 4.9963 8.8687 2.9292 3.127 9.2997 6.6498 14.45 7.9906 1.3096 0.34096 2.4483 0.62577 2.5304 0.63293 0.082 7e-3 0.099-0.68471 0.037-1.5375zm0.22-4.253c-0.1507-0.28148-0.2739-1.0632-0.2739-1.7372 0-1.3744 0.3601-2.249 0.926-2.249 0.566 0 0.9261 0.87452 0.9261 2.249s-0.3601 2.249-0.9261 2.249c-0.208 0-0.5015-0.2303-0.6521-0.51177zm0.13-5.4721c-0.6174-0.61748-0.4649-3.5004 0.2069-3.9105 0.3825-0.23347 0.5551-0.189 0.8599 0.22149 0.6871 0.92524 0.3748 4.1166-0.4028 4.1166-0.13 0-0.4288-0.19242-0.664-0.4276zm-0.2433-5.8118c-0.088-0.23018-0.1606-0.99435-0.1606-1.6982 0-1.6747 0.1928-2.1167 0.9235-2.1167 0.6855 0 0.9194 0.57978 0.925 2.2935 0 1.4941-0.2071 1.9399-0.9225 1.9399-0.3326 0-0.6771-0.18833-0.7654-0.41852zm0-5.5562c-0.088-0.23018-0.1606-0.99435-0.1606-1.6982 0-1.6747 0.1928-2.1167 0.9235-2.1167 0.6666 0 0.9214 0.58532 0.9214 2.1167s-0.2548 2.1167-0.9214 2.1167c-0.3313 0-0.6746-0.18833-0.7629-0.41852zm0-5.5562c-0.088-0.23018-0.1606-0.99435-0.1606-1.6982 0-1.6747 0.1928-2.1167 0.9235-2.1167 0.6666 0 0.9214 0.58532 0.9214 2.1167s-0.2548 2.1167-0.9214 2.1167c-0.3313 0-0.6746-0.18833-0.7629-0.41852zm0.1569-5.4552c-0.3293-0.32931-0.4385-2.7634-0.1569-3.4973 0.088-0.23018 0.4328-0.41852 0.7654-0.41852 0.3327 0 0.6771 0.18834 0.7655 0.41852 0.2051 0.5345 0.2014 2.4448-0.01 3.2195-0.1731 0.64583-0.8602 0.78539-1.3678 0.27781zm0-5.5562c-0.3892-0.38919-0.4198-2.9657-0.044-3.6686 0.6513-1.217 1.5806-0.24101 1.5746 1.6536 0 0.62803-0.075 1.4098-0.1632 1.7372-0.1731 0.64584-0.8602 0.7854-1.3678 0.27782zm-332.9 39.707c-5.4696-0.34992-11.698-3.1329-17.267-7.7159-3.3739-2.7762-6.6973-8.2424-7.497-12.331-0.6099-3.1178-0.4063-9.2982 0.3781-11.478 2.2618-6.2859 6.813-10.453 15.917-14.572 1.2385-0.56042 2.7876-1.2695 3.4424-1.5756 0.8368-0.39126 1.8801-0.58775 3.5106-0.6612 1.9441-0.0876 2.3636-0.18597 2.589-0.60717 0.3445-0.64362 0.9499-0.64403 1.2941-8.8e-4 0.2094 0.3913 0.692 0.54178 2.1921 0.68348 4.2563 0.40205 5.8158 1.0524 11.182 4.6632 5.2283 3.5179 7.2133 5.8663 8.586 10.158 1.8817 5.883 2.0985 10.167 0.824 16.287-1.3294 6.3835-2.9139 8.5926-9.8049 13.67-3.5256 2.5978-5.0191 3.3064-7.2099 3.4206-4.1874 0.21842-5.5062 0.22812-8.136 0.0599zm0.7938-2.7622c0-1.1184 0.3995-1.967 0.926-1.967 0.5322 0 0.9261 0.85211 0.9261 2.0033v0.97976l3.1307-0.12894c3.8188-0.15728 4.9707-0.61062 8.255-3.2489 4.2404-3.4064 6.2843-5.5233 7.6547-7.9282 1.925-3.3783 2.5525-12.283 1.2281-17.428-1.2891-5.0084-2.8166-7.3631-6.6188-10.203-5.62-4.1981-7.6196-5.1296-11.806-5.4995-1.673-0.14783-1.7382-0.13053-2.0448 0.54229-0.3996 0.87709-1.0433 0.89214-1.4345 0.0335-0.2348-0.51535-0.4986-0.66146-1.1942-0.66146-0.4911 0-1.1566 0.16442-1.4789 0.36538-0.3223 0.20095-1.2082 0.43312-1.9686 0.51592-2.7323 0.29755-9.5457 3.5369-12.48 5.9335-3.7215 3.0397-5.9876 6.3799-6.6584 9.8141-0.4535 2.3219-0.1651 7.7771 0.5454 10.316 0.8463 3.0239 2.8455 6.5726 4.9964 8.8687 2.9292 3.127 9.2997 6.6498 14.45 7.9906 3.3683 0.87689 3.5719 0.85993 3.5719-0.29749zm0.2739-3.5371c-0.1507-0.28148-0.2739-1.0632-0.2739-1.7372 0-1.3744 0.3601-2.249 0.926-2.249 0.566 0 0.9261 0.87452 0.9261 2.249s-0.3601 2.249-0.9261 2.249c-0.208 0-0.5015-0.2303-0.6521-0.51177zm0.13-5.4721c-0.6175-0.61748-0.4649-3.5004 0.2069-3.9105 0.3825-0.23347 0.5551-0.189 0.8599 0.22149 0.687 0.92524 0.3748 4.1166-0.4028 4.1166-0.13 0-0.4288-0.19242-0.664-0.4276zm-0.2433-5.8118c-0.088-0.23018-0.1606-0.99435-0.1606-1.6982 0-1.6747 0.1928-2.1167 0.9235-2.1167 0.6855 0 0.9193 0.57978 0.9249 2.2935 0 1.4941-0.207 1.9399-0.9224 1.9399-0.3326 0-0.6771-0.18833-0.7654-0.41852zm0-5.5562c-0.088-0.23018-0.1606-0.99435-0.1606-1.6982 0-1.6747 0.1928-2.1167 0.9235-2.1167 0.6666 0 0.9213 0.58532 0.9213 2.1167s-0.2547 2.1167-0.9213 2.1167c-0.3313 0-0.6746-0.18833-0.7629-0.41852zm0-5.5562c-0.088-0.23018-0.1606-0.99435-0.1606-1.6982 0-1.6747 0.1928-2.1167 0.9235-2.1167 0.6666 0 0.9213 0.58532 0.9213 2.1167s-0.2547 2.1167-0.9213 2.1167c-0.3313 0-0.6746-0.18833-0.7629-0.41852zm0.1569-5.4552c-0.3293-0.32931-0.4385-2.7634-0.1569-3.4973 0.088-0.23018 0.4328-0.41852 0.7654-0.41852 0.3327 0 0.6771 0.18834 0.7655 0.41852 0.2051 0.5345 0.2014 2.4448-0.01 3.2195-0.1731 0.64583-0.8602 0.78539-1.3678 0.27781zm0-5.5562c-0.3892-0.38919-0.4198-2.9657-0.044-3.6686 0.6513-1.217 1.5805-0.24101 1.5745 1.6536 0 0.62803-0.075 1.4098-0.1631 1.7372-0.1731 0.64584-0.8602 0.7854-1.3678 0.27782zm109.23 38.964c-0.1506-0.28148-0.2739-1.0632-0.2739-1.7372 0-1.3744 0.3601-2.249 0.926-2.249 0.566 0 0.9261 0.87452 0.9261 2.249s-0.3601 2.249-0.9261 2.249c-0.208 0-0.5015-0.2303-0.6521-0.51177zm-235.04-2.5629c-0.1037-0.10369-0.1885-1.3303-0.1885-2.7257 0-1.3955-0.1842-4.0843-0.4092-5.9752-0.2251-1.8909-0.5173-4.3905-0.6495-5.5546-0.8011-7.0598-1.5231-24.31-1.0416-24.891 0.5042-0.60757 1.5407-0.47351 1.6865 0.21814 0.069 0.32742 0.1808 4.7625 0.2483 9.8557 0.1217 9.1742 0.4093 13.246 1.407 19.921l0.4589 3.0699 0.7441-1.6526c1.2325-2.7376 1.547-4.3856 1.7123-8.9717 0.1631-4.5258 0.3623-5.287 1.3057-4.9876 0.6101 0.19361 1.1846 1.294 2.2261 4.2631 0.4083 1.1642 1.3447 3.4859 2.0809 5.1594l1.3386 3.0427v-1.5875c0-0.87313 0.1844-3.2544 0.4036-5.2917 0.2193-2.0373 0.5696-5.371 0.7786-7.4083 0.209-2.0373 0.5556-4.8948 0.7703-6.35 0.2146-1.4552 0.473-3.4793 0.5742-4.4979 0.2241-2.2561 0.4927-2.8374 1.2609-2.728 1.0236 0.14573 0.9041 2.1-1.049 17.148-0.236 1.819-0.5025 6.0512-0.592 9.4048-0.1406 5.2661-0.2282 6.1972-0.6426 6.8292-0.2722 0.41523-0.6688 0.6953-0.9169 0.64752-0.5366-0.10333-0.693-0.41038-2.7369-5.3721-0.8992-2.1828-1.8986-4.5994-2.221-5.3703l-0.5861-1.4015-0.1796 1.8232c-0.1691 1.7157-0.6755 3.3415-3.2724 10.505-0.9143 2.5221-1.1399 2.9209-1.6911 2.9887-0.3498 0.0431-0.7209-7e-3 -0.8246-0.11025zm-16.727-2.7104c-1.962-0.89131-3.4516-3.039-3.7258-5.372-0.1394-1.1864-0.079-1.519 0.3754-2.0733 0.7729-0.94255 1.3878-0.47418 1.7619 1.3421 0.5432 2.637 1.7528 4.0818 3.6793 4.3944 1.8327 0.29742 5.685-2.5712 6.8137-5.0738 0.8742-1.9383 0.8212-4.7144-0.1337-7.0115-1.4649-3.5237-3.4783-5.4595-7.1811-6.9042-3.1873-1.2436-4.0674-1.7575-5.736-3.3491-2.1934-2.0922-2.8629-3.5757-2.8629-6.3436 0-2.362 0.3949-3.7114 1.4017-4.7897 1.0682-1.1441 1.8462-1.3675 4.7612-1.3675 2.3554 0 2.9139 0.0868 3.8949 0.60561 1.6135 0.85326 2.2971 1.8225 1.9 2.694-0.4114 0.90313-0.9503 0.84348-2.5915-0.28688-1.3419-0.92419-1.454-0.95266-3.3694-0.85594-1.5074 0.0761-2.1201 0.22556-2.561 0.62464-0.9983 0.90337-1.4107 2.0106-1.3979 3.753 0.024 3.2632 2.1572 5.4898 7.0095 7.3162 2.5366 0.95478 3.6801 1.5966 5.1035 2.8646 4.1146 3.6654 5.5614 9.8497 3.3282 14.226-1.6413 3.2166-5.493 6.1062-8.1236 6.0943-0.7072-3e-3 -1.7631-0.22263-2.3464-0.48763zm50.442-0.23416c-0.2344-0.43918-0.585-15.468-0.6621-28.377-0.038-6.4592 0.085-7.1438 1.2906-7.1438 0.3824 0 0.7992 0.24293 1.0213 0.59531 0.7127 1.1308 2.2743 5.4058 3.2203 8.8156 0.9024 3.253 2.7373 8.7736 5.1384 15.46l1.0926 3.0427-0.1365-5.2917c-0.1499-5.8046-0.5279-14.673-0.8306-19.483-0.1911-3.0381-0.1859-3.0812 0.401-3.2674 0.327-0.10381 0.6925-0.0876 0.812 0.036 0.602 0.62222 1.1301 4.846 1.368 10.94 0.3639 9.3212 0.5099 21.566 0.2791 23.416-0.1905 1.5277-0.2285 1.5905-1.0094 1.6668-1.0141 0.0991-1.1557-0.18462-2.2452-4.5002-0.4461-1.7671-1.5272-5.1862-2.4023-7.5981-0.8752-2.4118-2.2874-6.7664-3.1382-9.6768-0.8508-2.9104-1.8502-6.0656-2.2209-7.0115l-0.6741-1.7198 0.131 9.1281c0.072 5.0205 0.2605 11.715 0.4187 14.877s0.2182 5.9303 0.1333 6.1516c-0.2176 0.56699-1.6758 0.52249-1.987-0.0606zm201.32-0.0487c-0.1506-0.28148-0.2739-1.0632-0.2739-1.7372 0-1.3744 0.3601-2.249 0.926-2.249 0.566 0 0.9261 0.87452 0.9261 2.249s-0.3601 2.249-0.9261 2.249c-0.208 0-0.5015-0.2303-0.6521-0.51177zm-209.82-1.071c-0.347-0.22008-0.3902-2.4006-0.3437-17.35 0.055-17.731 0.062-17.845 1.1374-17.845 1.1076 0 1.1798 0.53551 0.7795 5.7751-0.2483 3.2492-0.3784 9.0618-0.38 16.979 0 6.6212-0.099 12.187-0.2166 12.369-0.2547 0.39342-0.4462 0.40732-0.9766 0.0709zm34.984-0.30072c-2.6197-1.2967-3.7686-5.1471-4.8312-16.192-0.2915-3.0293-0.7654-6.7202-1.0531-8.2021-0.7094-3.6538-0.6989-6.7976 0.028-8.2986 0.7101-1.4669 2.3244-2.8424 3.8307-3.2641 1.4343-0.40159 3.9445-0.21743 5.0867 0.3732 2.0216 1.0454 3.6297 3.6824 2.9829 4.8911-0.6907 1.2904-1.8323 0.75283-2.4525-1.1548-0.4054-1.247-1.2925-1.7708-3.2533-1.9211-1.0069-0.0772-1.6059 0.0449-2.5075 0.51121-2.3065 1.1928-2.6717 3.008-1.6401 8.1532 0.6703 3.3435 1.0021 5.8798 1.3672 10.451 0.5679 7.1098 1.493 10.936 2.9385 12.152 1.1174 0.9402 2.2237 0.90875 2.7338-0.0777 0.3572-0.69076 0.9396-7.2066 0.9433-10.553v-1.1245h-1.1856c-1.0456 0-1.2052-0.0785-1.3524-0.6649-0.3096-1.2334 0.1991-1.4518 3.3816-1.4518 3.1669 0 3.9189 0.22483 3.9189 1.1716 0 0.70022-0.4381 0.94504-1.6911 0.94504h-0.8541l-0.2949 5.936c-0.3967 7.9839-0.7864 8.8811-3.8578 8.8805-0.609-1.2e-4 -1.6165-0.25227-2.2389-0.56034zm174.97-4.1004c-0.6174-0.61748-0.4649-3.5004 0.2069-3.9105 0.3825-0.23347 0.5551-0.189 0.8599 0.22149 0.6871 0.92524 0.3748 4.1166-0.4028 4.1166-0.13 0-0.4288-0.19242-0.664-0.4276zm-0.2433-5.8118c-0.088-0.23018-0.1606-0.99435-0.1606-1.6982 0-1.6747 0.1928-2.1167 0.9235-2.1167 0.6855 0 0.9194 0.57978 0.925 2.2935 0 1.4941-0.2071 1.9399-0.9225 1.9399-0.3326 0-0.6771-0.18833-0.7654-0.41852zm0-5.5562c-0.088-0.23018-0.1606-0.99435-0.1606-1.6982 0-1.6747 0.1928-2.1167 0.9235-2.1167 0.6666 0 0.9214 0.58532 0.9214 2.1167s-0.2548 2.1167-0.9214 2.1167c-0.3313 0-0.6746-0.18833-0.7629-0.41852zm0-5.5562c-0.088-0.23018-0.1606-0.99435-0.1606-1.6982 0-1.6747 0.1928-2.1167 0.9235-2.1167 0.6666 0 0.9214 0.58532 0.9214 2.1167s-0.2548 2.1167-0.9214 2.1167c-0.3313 0-0.6746-0.18833-0.7629-0.41852zm0.1569-5.4552c-0.3293-0.32931-0.4385-2.7634-0.1569-3.4973 0.088-0.23018 0.4328-0.41852 0.7654-0.41852 0.3327 0 0.6772 0.18834 0.7655 0.41852 0.2051 0.5345 0.2014 2.4448-0.01 3.2195-0.1731 0.64583-0.8602 0.78539-1.3678 0.27781zm0-5.5562c-0.3892-0.38919-0.4198-2.9657-0.044-3.6686 0.6513-1.217 1.5806-0.24101 1.5746 1.6536 0 0.62803-0.075 1.4098-0.1632 1.7372-0.1731 0.64584-0.8602 0.7854-1.3678 0.27782zm-0.044-5.7505c-0.1506-0.28147-0.2739-1.0632-0.2739-1.7372 0-1.3744 0.3601-2.249 0.926-2.249 0.566 0 0.9261 0.87452 0.9261 2.249s-0.3601 2.249-0.9261 2.249c-0.208 0-0.5015-0.2303-0.6521-0.51178zm-109.27-5.5562c-0.1507-0.28147-0.2739-1.0632-0.2739-1.7372 0-1.3744 0.3601-2.249 0.926-2.249 0.566 0 0.9261 0.87452 0.9261 2.249s-0.3601 2.249-0.9261 2.249c-0.208 0-0.5015-0.2303-0.6521-0.51178zm109.27 0c-0.1506-0.28147-0.2739-1.0632-0.2739-1.7372 0-1.3744 0.3601-2.249 0.926-2.249 0.566 0 0.9261 0.87452 0.9261 2.249s-0.3601 2.249-0.9261 2.249c-0.208 0-0.5015-0.2303-0.6521-0.51178zm111.65 0c-0.1507-0.28147-0.2739-1.0632-0.2739-1.7372 0-1.3744 0.3601-2.249 0.926-2.249 0.566 0 0.9261 0.87452 0.9261 2.249s-0.3601 2.249-0.9261 2.249c-0.208 0-0.5015-0.2303-0.6521-0.51178zm110.86 0c-0.1507-0.28147-0.2739-1.0632-0.2739-1.7372 0-1.3744 0.3601-2.249 0.926-2.249 0.566 0 0.9261 0.87452 0.9261 2.249s-0.3601 2.249-0.9261 2.249c-0.208 0-0.5015-0.2303-0.6521-0.51178zm-331.94-5.9219c-0.5271-2.1004 0.4515-4.449 1.3499-3.2392 0.3831 0.51599 0.5205 2.6524 0.2208 3.4335-0.256 0.66701-1.3897 0.52674-1.5707-0.19433zm109.27 0c-0.5271-2.1004 0.4516-4.449 1.3499-3.2392 0.3832 0.51599 0.5205 2.6524 0.2208 3.4335-0.256 0.66701-1.3897 0.52674-1.5707-0.19433zm111.65 0c-0.5272-2.1004 0.4515-4.449 1.3499-3.2392 0.3831 0.51599 0.5205 2.6524 0.2208 3.4335-0.256 0.66701-1.3897 0.52674-1.5707-0.19433zm110.86 0c-0.5271-2.1004 0.4516-4.449 1.3499-3.2392 0.3832 0.51599 0.5205 2.6524 0.2208 3.4335-0.256 0.66701-1.3897 0.52674-1.5707-0.19433zm-331.75-5.3619c-0.088-0.23018-0.1606-0.99435-0.1606-1.6982 0-1.6747 0.1928-2.1167 0.9235-2.1167 0.6666 0 0.9213 0.58531 0.9213 2.1167 0 1.5314-0.2547 2.1167-0.9213 2.1167-0.3313 0-0.6746-0.18833-0.7629-0.41851zm109.27 0c-0.088-0.23018-0.1606-0.99435-0.1606-1.6982 0-1.6747 0.1928-2.1167 0.9235-2.1167 0.6666 0 0.9214 0.58531 0.9214 2.1167 0 1.5314-0.2548 2.1167-0.9214 2.1167-0.3313 0-0.6746-0.18833-0.7629-0.41851zm111.65 0c-0.088-0.23018-0.1606-0.99435-0.1606-1.6982 0-1.6747 0.1928-2.1167 0.9235-2.1167 0.6665 0 0.9213 0.58531 0.9213 2.1167 0 1.5314-0.2548 2.1167-0.9213 2.1167-0.3313 0-0.6746-0.18833-0.7629-0.41851zm110.86 0c-0.088-0.23018-0.1606-0.99435-0.1606-1.6982 0-1.6747 0.1928-2.1167 0.9235-2.1167 0.6666 0 0.9214 0.58531 0.9214 2.1167 0 1.5314-0.2548 2.1167-0.9214 2.1167-0.3313 0-0.6746-0.18833-0.7629-0.41851zm-331.79-5.5562c-0.088-0.23018-0.1606-0.99435-0.1606-1.6982 0-1.6747 0.1928-2.1167 0.9235-2.1167 0.6666 0 0.9213 0.58531 0.9213 2.1167 0 1.5314-0.2547 2.1167-0.9213 2.1167-0.3313 0-0.6746-0.18833-0.7629-0.41851zm109.27 0c-0.088-0.23018-0.1606-0.99435-0.1606-1.6982 0-1.6747 0.1928-2.1167 0.9235-2.1167 0.6666 0 0.9214 0.58531 0.9214 2.1167 0 1.5314-0.2548 2.1167-0.9214 2.1167-0.3313 0-0.6746-0.18833-0.7629-0.41851zm111.65 0c-0.088-0.23018-0.1606-0.99435-0.1606-1.6982 0-1.6747 0.1928-2.1167 0.9235-2.1167 0.6665 0 0.9213 0.58531 0.9213 2.1167 0 1.5314-0.2548 2.1167-0.9213 2.1167-0.3313 0-0.6746-0.18833-0.7629-0.41851zm110.86 0c-0.088-0.23018-0.1606-0.99435-0.1606-1.6982 0-1.6747 0.1928-2.1167 0.9235-2.1167 0.6666 0 0.9214 0.58531 0.9214 2.1167 0 1.5314-0.2548 2.1167-0.9214 2.1167-0.3313 0-0.6746-0.18833-0.7629-0.41851zm-331.63-5.4552c-0.3293-0.3293-0.4385-2.7634-0.1569-3.4973 0.088-0.23018 0.4316-0.41851 0.7629-0.41851 0.6666 0 0.9213 0.58531 0.9213 2.1167 0 1.9101-0.6503 2.6762-1.5273 1.7992zm109.27 0c-0.3293-0.3293-0.4385-2.7634-0.1569-3.4973 0.088-0.23018 0.4316-0.41851 0.7629-0.41851 0.6666 0 0.9214 0.58531 0.9214 2.1167 0 1.9101-0.6504 2.6762-1.5274 1.7992zm111.65 0c-0.3293-0.3293-0.4385-2.7634-0.1569-3.4973 0.088-0.23018 0.4316-0.41851 0.7629-0.41851 0.6665 0 0.9213 0.58531 0.9213 2.1167 0 1.9101-0.6503 2.6762-1.5273 1.7992zm110.86 0c-0.3293-0.3293-0.4385-2.7634-0.1569-3.4973 0.088-0.23018 0.4316-0.41851 0.7629-0.41851 0.6666 0 0.9214 0.58531 0.9214 2.1167 0 1.9101-0.6504 2.6762-1.5274 1.7992zm-331.79-5.5562c-0.3293-0.3293-0.4385-2.7634-0.1569-3.4973 0.088-0.23018 0.4328-0.41851 0.7654-0.41851 0.3327 0 0.6771 0.18833 0.7655 0.41851 0.2051 0.53451 0.2014 2.4448-0.01 3.2195-0.1731 0.64583-0.8602 0.7854-1.3678 0.27781zm109.27 0c-0.3293-0.3293-0.4385-2.7634-0.1569-3.4973 0.088-0.23018 0.4328-0.41851 0.7654-0.41851 0.3327 0 0.6772 0.18833 0.7655 0.41851 0.2051 0.53451 0.2014 2.4448-0.01 3.2195-0.1731 0.64583-0.8602 0.7854-1.3678 0.27781zm111.65 0c-0.3293-0.3293-0.4385-2.7634-0.1569-3.4973 0.088-0.23018 0.4327-0.41851 0.7654-0.41851s0.6771 0.18833 0.7655 0.41851c0.2051 0.53451 0.2014 2.4448-0.01 3.2195-0.1731 0.64583-0.8602 0.7854-1.3678 0.27781zm110.86 0c-0.3293-0.3293-0.4385-2.7634-0.1569-3.4973 0.088-0.23018 0.4328-0.41851 0.7654-0.41851 0.3327 0 0.6771 0.18833 0.7655 0.41851 0.2051 0.53451 0.2014 2.4448-0.01 3.2195-0.1731 0.64583-0.8602 0.7854-1.3678 0.27781zm-331.83-5.7505c-0.1507-0.28147-0.2739-1.0632-0.2739-1.7372 0-1.3744 0.3601-2.249 0.926-2.249 0.566 0 0.9261 0.87452 0.9261 2.249 0 1.3744-0.3601 2.249-0.9261 2.249-0.208 0-0.5015-0.23029-0.6521-0.51177zm109.27 0c-0.1506-0.28147-0.2739-1.0632-0.2739-1.7372 0-1.3744 0.3601-2.249 0.926-2.249 0.566 0 0.9261 0.87452 0.9261 2.249 0 1.3744-0.3601 2.249-0.9261 2.249-0.208 0-0.5015-0.23029-0.6521-0.51177zm111.65 0c-0.1507-0.28147-0.2739-1.0632-0.2739-1.7372 0-1.3744 0.3601-2.249 0.926-2.249 0.566 0 0.9261 0.87452 0.9261 2.249 0 1.3744-0.3601 2.249-0.9261 2.249-0.208 0-0.5015-0.23029-0.6521-0.51177zm110.86 0c-0.1507-0.28147-0.2739-1.0632-0.2739-1.7372 0-1.3744 0.3601-2.249 0.926-2.249 0.566 0 0.9261 0.87452 0.9261 2.249 0 1.3744-0.3601 2.249-0.9261 2.249-0.208 0-0.5015-0.23029-0.6521-0.51177zm-331.79-5.5562c-0.1507-0.28147-0.2739-1.0632-0.2739-1.7372 0-1.3744 0.3601-2.249 0.926-2.249 0.566 0 0.9261 0.87452 0.9261 2.249 0 1.3744-0.3601 2.249-0.9261 2.249-0.208 0-0.5015-0.23029-0.6521-0.51177zm109.27 0c-0.1506-0.28147-0.2739-1.0632-0.2739-1.7372 0-1.3744 0.3601-2.249 0.926-2.249 0.566 0 0.9261 0.87452 0.9261 2.249 0 1.3744-0.3601 2.249-0.9261 2.249-0.208 0-0.5015-0.23029-0.6521-0.51177zm111.65 0c-0.1507-0.28147-0.2739-1.0632-0.2739-1.7372 0-1.3744 0.3601-2.249 0.926-2.249 0.566 0 0.9261 0.87452 0.9261 2.249 0 1.3744-0.3601 2.249-0.9261 2.249-0.208 0-0.5015-0.23029-0.6521-0.51177zm110.86 0c-0.1507-0.28147-0.2739-1.0632-0.2739-1.7372 0-1.3744 0.3601-2.249 0.926-2.249 0.566 0 0.9261 0.87452 0.9261 2.249 0 1.3744-0.3601 2.249-0.9261 2.249-0.208 0-0.5015-0.23029-0.6521-0.51177zm-331.8-5.5805c-0.1578-0.29483-0.2513-1.2052-0.2078-2.0231 0.1463-2.7477 1.799-2.5218 1.799 0.24591 0 2.053-0.9036 3.0621-1.5912 1.7772zm109.27 0c-0.1578-0.29483-0.2513-1.2052-0.2078-2.0231 0.1463-2.7477 1.799-2.5218 1.799 0.24591 0 2.053-0.9035 3.0621-1.5912 1.7772zm111.65 0c-0.1578-0.29483-0.2513-1.2052-0.2078-2.0231 0.1463-2.7477 1.799-2.5218 1.799 0.24591 0 2.053-0.9036 3.0621-1.5912 1.7772zm110.86 0c-0.1578-0.29483-0.2513-1.2052-0.2078-2.0231 0.1463-2.7477 1.799-2.5218 1.799 0.24591 0 2.053-0.9035 3.0621-1.5912 1.7772zm-331.89-5.7033c-0.2816-0.73387-0.1724-3.168 0.1569-3.4973 0.5076-0.50759 1.1947-0.36802 1.3678 0.27781 0.2076 0.77471 0.2113 2.685 0.01 3.2195-0.088 0.23018-0.4328 0.41851-0.7655 0.41851-0.3326 0-0.6771-0.18833-0.7654-0.41851zm109.27 0c-0.2816-0.73387-0.1724-3.168 0.1569-3.4973 0.5076-0.50759 1.1947-0.36802 1.3678 0.27781 0.2076 0.77471 0.2113 2.685 0.01 3.2195-0.088 0.23018-0.4328 0.41851-0.7655 0.41851-0.3326 0-0.6771-0.18833-0.7654-0.41851zm111.65 0c-0.2816-0.73387-0.1724-3.168 0.1569-3.4973 0.5076-0.50759 1.1947-0.36802 1.3678 0.27781 0.2076 0.77471 0.2113 2.685 0.01 3.2195-0.088 0.23018-0.4328 0.41851-0.7655 0.41851s-0.6771-0.18833-0.7654-0.41851zm110.86 0c-0.2816-0.73387-0.1724-3.168 0.1569-3.4973 0.5076-0.50759 1.1947-0.36802 1.3678 0.27781 0.2076 0.77471 0.2113 2.685 0.01 3.2195-0.088 0.23018-0.4328 0.41851-0.7655 0.41851-0.3326 0-0.6771-0.18833-0.7654-0.41851zm-331.79-5.5562c-0.088-0.23019-0.1606-0.99436-0.1606-1.6982 0-1.6747 0.1928-2.1167 0.9235-2.1167 0.6666 0 0.9213 0.58531 0.9213 2.1167 0 1.5314-0.2547 2.1167-0.9213 2.1167-0.3313 0-0.6746-0.18833-0.7629-0.41851zm109.27 0c-0.088-0.23019-0.1606-0.99436-0.1606-1.6982 0-1.6747 0.1928-2.1167 0.9235-2.1167 0.6666 0 0.9214 0.58531 0.9214 2.1167 0 1.5314-0.2548 2.1167-0.9214 2.1167-0.3313 0-0.6746-0.18833-0.7629-0.41851zm111.65 0c-0.088-0.23019-0.1606-0.99436-0.1606-1.6982 0-1.6747 0.1928-2.1167 0.9235-2.1167 0.6665 0 0.9213 0.58531 0.9213 2.1167 0 1.5314-0.2548 2.1167-0.9213 2.1167-0.3313 0-0.6746-0.18833-0.7629-0.41851zm77.274 0.24212c-0.5258-0.52584-0.01-1.3939 1.72-2.8663 1.0228-0.87312 2.6097-2.2501 3.5263-3.06s3.0529-2.4586 4.7474-3.6639c2.9963-2.1313 4.0596-3.1785 3.7447-3.688-0.095-0.15309-0.5356-0.13915-1.1472 0.0362-0.6857 0.19662-11.801 0.29059-35.864 0.30319l-34.87 0.0183-0.1543-0.61468c-0.085-0.33808-0.035-0.73431 0.1115-0.88052 0.1743-0.17427 11.372-0.29301 32.511-0.34473 17.735-0.0434 33.516-0.17068 35.068-0.28286l2.8228-0.20395-1.0804-0.90267c-1.5547-1.2989-5.0495-3.3028-7.2831-4.1763-1.4777-0.57779-1.9605-0.89652-2.0801-1.3732-0.2117-0.84352 0.3248-1.4076 1.3387-1.4076 1.9203 0 9.0372 4.3562 11.595 7.0973 1.1927 1.278 1.2568 1.4231 1.2568 2.8444 0 1.3886-0.073 1.5677-1.0042 2.4587-0.5523 0.52859-2.0703 1.7286-3.3734 2.6667s-3.2479 2.4859-4.3217 3.4396c-2.5955 2.305-4.7951 4.0908-5.5047 4.4688-0.6393 0.34063-1.4867 0.40397-1.7592 0.1315zm33.586-0.24212c-0.088-0.23019-0.1606-0.99436-0.1606-1.6982 0-1.6747 0.1928-2.1167 0.9235-2.1167 0.6666 0 0.9214 0.58531 0.9214 2.1167 0 1.5314-0.2548 2.1167-0.9214 2.1167-0.3313 0-0.6746-0.18833-0.7629-0.41851zm-256.89-1.61c-0.4727-0.4727-0.074-1.3969 1.0803-2.5049 1.6415-1.5754 7.3046-5.7729 9.5876-7.1062 2.4113-1.4083 2.6393-2.06 1.3782-3.9378-0.4082-0.60771-1.7548-1.846-2.9925-2.7518s-2.779-2.0795-3.4251-2.6082-1.9189-1.3341-2.8284-1.7897c-1.3045-0.65349-1.6536-0.95606-1.6536-1.4331 0-2.1661 2.691-1.4022 6.309 1.791 0.9233 0.8149 2.3664 1.9486 3.2068 2.5193 2.558 1.7371 4.7717 4.7206 4.7717 6.4311 0 0.94489-1.0816 2.1314-2.8581 3.1354-2.9455 1.6646-7.3998 4.8904-10.438 7.5592-0.9402 0.82587-1.7457 1.0881-2.1379 0.69585zm113.49-1.0287c-0.087-0.22622 0.091-0.74812 0.3955-1.1598 0.9932-1.3434 6.283-6.0723 7.4401-6.6513 1.2116-0.60622 3.1135-2.2867 3.1135-2.751 0-0.32544-5.6618-0.28061-20.638 0.16343-5.3115 0.1575-18.349 0.30269-28.972 0.32266l-19.314 0.0363v-1.8521l7.6729 0.0925c4.3563 0.0525 8.7594-0.029 10.186-0.1887 2.4812-0.2776 18.992-0.71825 39.503-1.0542l10.531-0.17252-3.3033-2.9104c-1.8168-1.6007-4.163-3.3867-5.2137-3.9688-1.0508-0.58209-2.0404-1.2667-2.1993-1.5214-0.3756-0.60215 0.072-1.3565 0.8762-1.4757 1.0694-0.15858 5.0022 2.7148 9.6802 7.0726 2.4697 2.3007 3.5031 3.5708 3.8102 4.683 0.5064 1.834-0.4298 2.9854-4.0748 5.0117-1.0777 0.59911-3.1541 2.2223-4.9663 3.8823-3.1124 2.851-4.1548 3.4131-4.5276 2.4414zm-188.39-2.9176c-0.088-0.23019-0.1606-0.99436-0.1606-1.6982 0-1.6747 0.1928-2.1167 0.9235-2.1167 0.6666 0 0.9213 0.58531 0.9213 2.1167 0 1.5314-0.2547 2.1167-0.9213 2.1167-0.3313 0-0.6746-0.18833-0.7629-0.41851zm109.27 0c-0.088-0.23019-0.1606-0.99436-0.1606-1.6982 0-1.6747 0.1928-2.1167 0.9235-2.1167 0.6666 0 0.9214 0.58531 0.9214 2.1167 0 1.5314-0.2548 2.1167-0.9214 2.1167-0.3313 0-0.6746-0.18833-0.7629-0.41851zm111.65 0c-0.088-0.23019-0.1606-0.99436-0.1606-1.6982 0-1.6747 0.1928-2.1167 0.9235-2.1167 0.6665 0 0.9213 0.58531 0.9213 2.1167 0 1.5314-0.2548 2.1167-0.9213 2.1167-0.3313 0-0.6746-0.18833-0.7629-0.41851zm110.86 0c-0.088-0.23019-0.1606-0.99436-0.1606-1.6982 0-1.6747 0.1928-2.1167 0.9235-2.1167 0.6666 0 0.9214 0.58531 0.9214 2.1167 0 1.5314-0.2548 2.1167-0.9214 2.1167-0.3313 0-0.6746-0.18833-0.7629-0.41851zm-331.63-5.4552c-0.3293-0.32931-0.4385-2.7634-0.1569-3.4973 0.088-0.23018 0.4328-0.41851 0.7654-0.41851 0.3327 0 0.6771 0.18833 0.7655 0.41851 0.2051 0.53451 0.2014 2.4448-0.01 3.2195-0.1731 0.64583-0.8602 0.78539-1.3678 0.27781zm109.27 0c-0.3293-0.32931-0.4385-2.7634-0.1569-3.4973 0.088-0.23018 0.4328-0.41851 0.7654-0.41851 0.3327 0 0.6772 0.18833 0.7655 0.41851 0.2051 0.53451 0.2014 2.4448-0.01 3.2195-0.1731 0.64583-0.8602 0.78539-1.3678 0.27781zm111.65 0c-0.3293-0.32931-0.4385-2.7634-0.1569-3.4973 0.088-0.23018 0.4327-0.41851 0.7654-0.41851s0.6771 0.18833 0.7655 0.41851c0.2051 0.53451 0.2014 2.4448-0.01 3.2195-0.1731 0.64583-0.8602 0.78539-1.3678 0.27781zm110.86 0c-0.3293-0.32931-0.4385-2.7634-0.1569-3.4973 0.088-0.23018 0.4328-0.41851 0.7654-0.41851 0.3327 0 0.6771 0.18833 0.7655 0.41851 0.2051 0.53451 0.2014 2.4448-0.01 3.2195-0.1731 0.64583-0.8602 0.78539-1.3678 0.27781zm-279.85-1.5678c-1.3097-0.1209-9.1771-0.26225-17.483-0.31411-8.306-0.0519-15.241-0.18054-15.412-0.28598-0.1706-0.10543-0.3102-0.47813-0.3102-0.82823 0-1.0346 0.8166-1.274 3.5462-1.0394 1.3238 0.11378 8.4196 0.18135 15.768 0.15015 8.9757-0.0381 14.013 0.0426 15.346 0.24597 1.2379 0.18882 5.82 0.29984 12.18 0.2951 10.031-7e-3 10.245-0.0188 13.19-0.69711 3.5709-0.82236 6.785-0.85457 7.2763-0.0729 0.6056 0.96347-0.087 1.3659-2.9084 1.689-1.4403 0.16498-3.4298 0.4924-4.4211 0.7276-1.5282 0.3626-3.5202 0.42171-13.097 0.38867-6.212-0.0214-12.366-0.1379-13.676-0.25881zm-51.938-3.9885c-0.4788-0.47875-0.4062-3.2602 0.098-3.7646 0.5478-0.54783 0.8303-0.52449 1.1624 0.096 0.2998 0.56025 0.3595 2.4491 0.1071 3.3908-0.1731 0.64583-0.8602 0.78539-1.3678 0.27781zm109.27 0c-0.4787-0.47875-0.4061-3.2602 0.098-3.7646 0.5478-0.54783 0.8303-0.52449 1.1624 0.096 0.2998 0.56025 0.3595 2.4491 0.1071 3.3908-0.1731 0.64583-0.8602 0.78539-1.3678 0.27781zm111.65 0c-0.4788-0.47875-0.4062-3.2602 0.098-3.7646 0.5479-0.54783 0.8304-0.52449 1.1625 0.096 0.2998 0.56025 0.3595 2.4491 0.1071 3.3908-0.1731 0.64583-0.8602 0.78539-1.3678 0.27781zm110.86 0c-0.4788-0.47875-0.4061-3.2602 0.098-3.7646 0.5478-0.54783 0.8303-0.52449 1.1624 0.096 0.2998 0.56025 0.3595 2.4491 0.1071 3.3908-0.1731 0.64583-0.8602 0.78539-1.3678 0.27781zm-331.83-5.7505c-0.1507-0.28148-0.2739-1.0632-0.2739-1.7372 0-1.3744 0.3601-2.249 0.926-2.249 0.566 0 0.9261 0.87452 0.9261 2.249s-0.3601 2.249-0.9261 2.249c-0.208 0-0.5015-0.2303-0.6521-0.51177zm109.27 0c-0.1506-0.28148-0.2739-1.0632-0.2739-1.7372 0-1.3744 0.3601-2.249 0.926-2.249 0.566 0 0.9261 0.87452 0.9261 2.249s-0.3601 2.249-0.9261 2.249c-0.208 0-0.5015-0.2303-0.6521-0.51177zm111.65 0c-0.1507-0.28148-0.2739-1.0632-0.2739-1.7372 0-1.3744 0.3601-2.249 0.926-2.249 0.566 0 0.9261 0.87452 0.9261 2.249s-0.3601 2.249-0.9261 2.249c-0.208 0-0.5015-0.2303-0.6521-0.51177zm110.86 0c-0.1507-0.28148-0.2739-1.0632-0.2739-1.7372 0-1.3744 0.3601-2.249 0.926-2.249 0.566 0 0.9261 0.87452 0.9261 2.249s-0.3601 2.249-0.9261 2.249c-0.208 0-0.5015-0.2303-0.6521-0.51177zm-331.79-5.5562c-0.1507-0.28148-0.2739-1.0632-0.2739-1.7372 0-1.3744 0.3601-2.249 0.926-2.249 0.566 0 0.9261 0.87452 0.9261 2.249s-0.3601 2.249-0.9261 2.249c-0.208 0-0.5015-0.2303-0.6521-0.51177zm109.27 0c-0.1506-0.28148-0.2739-1.0632-0.2739-1.7372 0-1.3744 0.3601-2.249 0.926-2.249 0.566 0 0.9261 0.87452 0.9261 2.249s-0.3601 2.249-0.9261 2.249c-0.208 0-0.5015-0.2303-0.6521-0.51177zm111.65 0c-0.1507-0.28148-0.2739-1.0632-0.2739-1.7372 0-1.3744 0.3601-2.249 0.926-2.249 0.566 0 0.9261 0.87452 0.9261 2.249s-0.3601 2.249-0.9261 2.249c-0.208 0-0.5015-0.2303-0.6521-0.51177zm110.86 0c-0.1507-0.28148-0.2739-1.0632-0.2739-1.7372 0-1.3744 0.3601-2.249 0.926-2.249 0.566 0 0.9261 0.87452 0.9261 2.249s-0.3601 2.249-0.9261 2.249c-0.208 0-0.5015-0.2303-0.6521-0.51177zm-331.8-5.5805c-0.1578-0.29483-0.2513-1.2052-0.2078-2.0231 0.1463-2.7477 1.799-2.5218 1.799 0.2459 0 2.053-0.9036 3.0621-1.5912 1.7772zm109.27 0c-0.1578-0.29483-0.2513-1.2052-0.2078-2.0231 0.1463-2.7477 1.799-2.5218 1.799 0.2459 0 2.053-0.9035 3.0621-1.5912 1.7772zm111.65 0c-0.1578-0.29483-0.2513-1.2052-0.2078-2.0231 0.1463-2.7477 1.799-2.5218 1.799 0.2459 0 2.053-0.9036 3.0621-1.5912 1.7772zm110.86 0c-0.1578-0.29483-0.2513-1.2052-0.2078-2.0231 0.1463-2.7477 1.799-2.5218 1.799 0.2459 0 2.053-0.9035 3.0621-1.5912 1.7772zm-331.89-5.7033c-0.088-0.23018-0.1606-0.99435-0.1606-1.6982 0-1.6747 0.1928-2.1167 0.9235-2.1167 0.6855 0 0.9193 0.57978 0.9249 2.2935 0 1.4941-0.207 1.9399-0.9224 1.9399-0.3326 0-0.6771-0.18834-0.7654-0.41852zm109.27 0c-0.088-0.23018-0.1606-0.99435-0.1606-1.6982 0-1.6747 0.1928-2.1167 0.9235-2.1167 0.6855 0 0.9194 0.57978 0.925 2.2935 0 1.4941-0.2071 1.9399-0.9225 1.9399-0.3326 0-0.6771-0.18834-0.7654-0.41852zm111.65 0c-0.088-0.23018-0.1606-0.99435-0.1606-1.6982 0-1.6747 0.1928-2.1167 0.9235-2.1167 0.6855 0 0.9193 0.57978 0.9249 2.2935 0 1.4941-0.207 1.9399-0.9224 1.9399-0.3327 0-0.6771-0.18834-0.7654-0.41852zm110.86 0c-0.088-0.23018-0.1606-0.99435-0.1606-1.6982 0-1.6747 0.1928-2.1167 0.9235-2.1167 0.6855 0 0.9194 0.57978 0.925 2.2935 0 1.4941-0.2071 1.9399-0.9225 1.9399-0.3326 0-0.6771-0.18834-0.7654-0.41852zm-331.79-5.5562c-0.088-0.23018-0.1606-0.99435-0.1606-1.6982 0-1.6747 0.1928-2.1167 0.9235-2.1167 0.6666 0 0.9213 0.58532 0.9213 2.1167s-0.2547 2.1167-0.9213 2.1167c-0.3313 0-0.6746-0.18834-0.7629-0.41852zm109.27 0c-0.088-0.23018-0.1606-0.99435-0.1606-1.6982 0-1.6747 0.1928-2.1167 0.9235-2.1167 0.6666 0 0.9214 0.58532 0.9214 2.1167s-0.2548 2.1167-0.9214 2.1167c-0.3313 0-0.6746-0.18834-0.7629-0.41852zm111.65 0c-0.088-0.23018-0.1606-0.99435-0.1606-1.6982 0-1.6747 0.1928-2.1167 0.9235-2.1167 0.6665 0 0.9213 0.58532 0.9213 2.1167s-0.2548 2.1167-0.9213 2.1167c-0.3313 0-0.6746-0.18834-0.7629-0.41852zm110.86 0c-0.088-0.23018-0.1606-0.99435-0.1606-1.6982 0-1.6747 0.1928-2.1167 0.9235-2.1167 0.6666 0 0.9214 0.58532 0.9214 2.1167s-0.2548 2.1167-0.9214 2.1167c-0.3313 0-0.6746-0.18834-0.7629-0.41852zm-331.79-5.5562c-0.088-0.23018-0.1606-0.99435-0.1606-1.6982 0-1.6747 0.1928-2.1167 0.9235-2.1167 0.6666 0 0.9213 0.58532 0.9213 2.1167s-0.2547 2.1167-0.9213 2.1167c-0.3313 0-0.6746-0.18834-0.7629-0.41852zm109.27 0c-0.088-0.23018-0.1606-0.99435-0.1606-1.6982 0-1.6747 0.1928-2.1167 0.9235-2.1167 0.6666 0 0.9214 0.58532 0.9214 2.1167s-0.2548 2.1167-0.9214 2.1167c-0.3313 0-0.6746-0.18834-0.7629-0.41852zm111.65 0c-0.088-0.23018-0.1606-0.99435-0.1606-1.6982 0-1.6747 0.1928-2.1167 0.9235-2.1167 0.6665 0 0.9213 0.58532 0.9213 2.1167s-0.2548 2.1167-0.9213 2.1167c-0.3313 0-0.6746-0.18834-0.7629-0.41852zm110.86 0c-0.088-0.23018-0.1606-0.99435-0.1606-1.6982 0-1.6747 0.1928-2.1167 0.9235-2.1167 0.6666 0 0.9214 0.58532 0.9214 2.1167s-0.2548 2.1167-0.9214 2.1167c-0.3313 0-0.6746-0.18834-0.7629-0.41852zm-165.78-4.7296c-0.9068-1.0927 0.2293-4.1902 4.5985-12.536 1.6904-3.2291 3.4337-6.7777 3.8738-7.8857 1.2461-3.1369 1.499-3.5343 2.2491-3.5343 0.3647 0 0.7323 0.18045 0.8169 0.40101 0.2887 0.75232-1.2134 4.7526-2.9789 7.9334-3.1957 5.7573-5.6196 10.985-6.2564 13.494-0.5513 2.1713-0.6643 2.3883-1.2826 2.4608-0.3767 0.0442-0.8302-0.1038-1.0204-0.33287zm-165.85-0.72561c-0.3293-0.32931-0.4385-2.7635-0.1569-3.4973 0.088-0.23019 0.4328-0.41852 0.7654-0.41852 0.3327 0 0.6771 0.18833 0.7655 0.41852 0.2051 0.5345 0.2014 2.4448-0.01 3.2195-0.1731 0.64583-0.8602 0.7854-1.3678 0.27782zm109.27 0c-0.3293-0.32931-0.4385-2.7635-0.1569-3.4973 0.088-0.23019 0.4328-0.41852 0.7654-0.41852 0.3327 0 0.6772 0.18833 0.7655 0.41852 0.2051 0.5345 0.2014 2.4448-0.01 3.2195-0.1731 0.64583-0.8602 0.7854-1.3678 0.27782zm111.65 0c-0.3293-0.32931-0.4385-2.7635-0.1569-3.4973 0.088-0.23019 0.4327-0.41852 0.7654-0.41852s0.6771 0.18833 0.7655 0.41852c0.2051 0.5345 0.2014 2.4448-0.01 3.2195-0.1731 0.64583-0.8602 0.7854-1.3678 0.27782zm110.86 0c-0.3293-0.32931-0.4385-2.7635-0.1569-3.4973 0.088-0.23019 0.4328-0.41852 0.7654-0.41852 0.3327 0 0.6771 0.18833 0.7655 0.41852 0.2051 0.5345 0.2014 2.4448-0.01 3.2195-0.1731 0.64583-0.8602 0.7854-1.3678 0.27782zm-154.9-3.7998c-0.1092-0.11233-0.1985-0.51823-0.1985-0.90201 0-0.55404 0.3851-0.9905 1.869-2.1187 1.028-0.78149 2.6675-2.2758 3.6433-3.3208 1.5667-1.6775 1.8126-2.0851 2.1012-3.4823 0.4039-1.9557 0.079-3.1755-0.9125-3.4243-0.809-0.20304-1.4066 0.0646-3.2543 1.4572-1.5155 1.1423-2.3724 1.3515-2.9054 0.70919-0.6763-0.81485-0.1934-1.5544 1.9479-2.9837 2.006-1.3388 2.1656-1.3965 3.867-1.3965 1.965 0 2.8454 0.4591 3.571 1.8623 1.1529 2.2295-0.2906 6.4633-3.2666 9.5809-0.879 0.92086-0.9046 0.99219-0.3558 0.99219 1.6511 0 3.5243 1.6538 2.7501 2.4281-0.1717 0.17165-1.3916 0.31781-2.89 0.34623-1.4262 0.027-3.3074 0.14081-4.1805 0.25279s-1.6768 0.11169-1.7859-6.4e-4zm-176.89-1.7564c-0.3892-0.38919-0.4198-2.9657-0.044-3.6686 0.6513-1.217 1.5805-0.24101 1.5745 1.6536 0 0.62803-0.075 1.4098-0.1631 1.7372-0.1731 0.64583-0.8602 0.7854-1.3678 0.27782zm109.27 0c-0.3892-0.38919-0.4198-2.9657-0.044-3.6686 0.6513-1.217 1.5806-0.24101 1.5746 1.6536 0 0.62803-0.075 1.4098-0.1632 1.7372-0.1731 0.64583-0.8602 0.7854-1.3678 0.27782zm111.65 0c-0.3892-0.38919-0.4198-2.9657-0.044-3.6686 0.6513-1.217 1.5805-0.24101 1.5745 1.6536 0 0.62803-0.075 1.4098-0.1631 1.7372-0.1731 0.64583-0.8602 0.7854-1.3678 0.27782zm110.86 0c-0.3892-0.38919-0.4198-2.9657-0.044-3.6686 0.6513-1.217 1.5806-0.24101 1.5746 1.6536 0 0.62803-0.075 1.4098-0.1632 1.7372-0.1731 0.64583-0.8602 0.7854-1.3678 0.27782zm-176.74-0.79375c-0.1746-0.17463-0.3175-0.508-0.3175-0.74084 0-0.86419 0.5922-1.0583 3.2279-1.0583h2.593v-6.647c0-7.4213 0.076-7.2222-1.7457-4.5774-1.1193 1.6252-2.077 2.0898-2.6611 1.2909-0.1957-0.26755-0.3557-0.71014-0.3557-0.98353 0-0.6313 1.1874-2.361 2.929-4.2666 1.0617-1.1616 1.5275-1.4852 2.1381-1.4852 0.6462 0 0.8577 0.17087 1.2279 0.99219 0.3766 0.83558 0.461 2.1302 0.5346 8.2021l0.087 7.2099h0.6209c1.0144 0 1.4579 0.28386 1.4579 0.93314 0 0.54069-0.214 0.66062-1.8382 1.03-2.2253 0.50613-7.4267 0.57237-7.8985 0.10059zm-155.09-4.9568c-0.1507-0.28147-0.2739-1.0632-0.2739-1.7372 0-1.3744 0.3601-2.249 0.926-2.249 0.566 0 0.9261 0.87452 0.9261 2.249s-0.3601 2.249-0.9261 2.249c-0.208 0-0.5015-0.2303-0.6521-0.51178zm109.27 0c-0.1506-0.28147-0.2739-1.0632-0.2739-1.7372 0-1.3744 0.3601-2.249 0.926-2.249 0.566 0 0.9261 0.87452 0.9261 2.249s-0.3601 2.249-0.9261 2.249c-0.208 0-0.5015-0.2303-0.6521-0.51178zm111.65 0c-0.1507-0.28147-0.2739-1.0632-0.2739-1.7372 0-1.3744 0.3601-2.249 0.926-2.249 0.566 0 0.9261 0.87452 0.9261 2.249s-0.3601 2.249-0.9261 2.249c-0.208 0-0.5015-0.2303-0.6521-0.51178zm110.86 0c-0.1507-0.28147-0.2739-1.0632-0.2739-1.7372 0-1.3744 0.3601-2.249 0.926-2.249 0.566 0 0.9261 0.87452 0.9261 2.249s-0.3601 2.249-0.9261 2.249c-0.208 0-0.5015-0.2303-0.6521-0.51178zm-331.79-5.5562c-0.1507-0.28147-0.2739-1.0632-0.2739-1.7372 0-1.3744 0.3601-2.249 0.926-2.249 0.566 0 0.9261 0.87452 0.9261 2.249s-0.3601 2.249-0.9261 2.249c-0.208 0-0.5015-0.2303-0.6521-0.51178zm109.27 0c-0.1506-0.28147-0.2739-1.0632-0.2739-1.7372 0-1.3744 0.3601-2.249 0.926-2.249 0.566 0 0.9261 0.87452 0.9261 2.249s-0.3601 2.249-0.9261 2.249c-0.208 0-0.5015-0.2303-0.6521-0.51178zm111.65 0c-0.1507-0.28147-0.2739-1.0632-0.2739-1.7372 0-1.3744 0.3601-2.249 0.926-2.249 0.566 0 0.9261 0.87452 0.9261 2.249s-0.3601 2.249-0.9261 2.249c-0.208 0-0.5015-0.2303-0.6521-0.51178zm110.86 0c-0.1507-0.28147-0.2739-1.0632-0.2739-1.7372 0-1.3744 0.3601-2.249 0.926-2.249 0.566 0 0.9261 0.87452 0.9261 2.249s-0.3601 2.249-0.9261 2.249c-0.208 0-0.5015-0.2303-0.6521-0.51178zm-331.8-5.5805c-0.1578-0.29484-0.2513-1.2052-0.2078-2.0231 0.1463-2.7477 1.799-2.5218 1.799 0.24591 0 2.053-0.9036 3.0621-1.5912 1.7772zm109.27 0c-0.1578-0.29484-0.2513-1.2052-0.2078-2.0231 0.1463-2.7477 1.799-2.5218 1.799 0.24591 0 2.053-0.9035 3.0621-1.5912 1.7772zm111.65 0c-0.1578-0.29484-0.2513-1.2052-0.2078-2.0231 0.1463-2.7477 1.799-2.5218 1.799 0.24591 0 2.053-0.9036 3.0621-1.5912 1.7772zm110.86 0c-0.1578-0.29484-0.2513-1.2052-0.2078-2.0231 0.1463-2.7477 1.799-2.5218 1.799 0.24591 0 2.053-0.9035 3.0621-1.5912 1.7772zm-331.89-5.7033c-0.088-0.23019-0.1606-0.76597-0.1606-1.1906 0-0.76495-0.014-0.77211-1.5452-0.77211-4.533 0-11.901-3.2983-17.31-7.7492-3.3739-2.7762-6.6972-8.2424-7.497-12.331-0.6098-3.1178-0.4062-9.2982 0.3782-11.478 2.2617-6.2859 6.813-10.453 15.917-14.572 1.2385-0.56043 2.7875-1.271 3.4424-1.5791 0.904-0.42528 1.8435-0.58387 3.9026-0.65879l2.712-0.0987v-1.4095c0-1.8162 0.1805-2.2465 0.9423-2.2465 0.5002 0 0.655 0.17999 0.7946 0.9244 0.095 0.50842 0.1253 1.3364 0.067 1.8399l-0.1069 0.91546 1.4668 0.15673c2.2633 0.24185 4.7007 0.87997 6.1325 1.6055 0.7153 0.36244 2.9011 1.736 4.8574 3.0523 5.2283 3.5179 7.2133 5.8663 8.586 10.158 1.8817 5.883 2.0984 10.167 0.824 16.287-1.3294 6.3835-2.9139 8.5926-9.805 13.67-4.1579 3.0638-4.8563 3.343-8.6651 3.4647l-3.2411 0.10355v0.7449c0 0.4097-0.072 0.93323-0.1606 1.1634-0.2082 0.54253-1.3227 0.54253-1.5309 0zm8.5793-4.6422c2.1789-1.0094 6.9622-4.9163 9.3251-7.6166 2.0844-2.3819 2.7252-3.7597 3.3945-7.2987 0.8476-4.4817 0.7981-9.3029-0.1326-12.919-1.5631-6.0725-3.1062-7.9958-10.22-12.738-3.0435-2.0288-4.6111-2.6048-8.0951-2.9741l-1.3535-0.14348 0.129 1.3419c0.1848 1.9236-0.062 2.6935-0.8617 2.6935-0.7869 0-1.0206-0.69503-0.8861-2.6361l0.092-1.333-1.3984 1.6e-4c-0.7691 9e-5 -1.6621 0.16459-1.9844 0.36554-0.3223 0.20096-1.2081 0.43313-1.9685 0.51593-2.7324 0.29755-9.5457 3.5369-12.48 5.9335-3.7215 3.0397-5.9877 6.3799-6.6585 9.8141-0.4535 2.3219-0.165 7.7771 0.5455 10.316 0.8463 3.0239 2.8455 6.5726 4.9963 8.8687 2.9168 3.1137 9.2411 6.6173 14.45 8.0051 2.1555 0.57427 2.8201 0.62719 7.0114 0.5583 4.3268-0.0711 4.7261-0.12055 6.0941-0.75428zm-8.5793-0.91401c-0.088-0.23019-0.1606-0.99435-0.1606-1.6982 0-1.6747 0.1928-2.1167 0.9235-2.1167 0.6666 0 0.9213 0.58531 0.9213 2.1167 0 1.5314-0.2547 2.1167-0.9213 2.1167-0.3313 0-0.6746-0.18833-0.7629-0.41851zm0-5.5562c-0.088-0.23019-0.1606-0.99435-0.1606-1.6982 0-1.6747 0.1928-2.1167 0.9235-2.1167 0.6666 0 0.9213 0.58531 0.9213 2.1167 0 1.5314-0.2547 2.1167-0.9213 2.1167-0.3313 0-0.6746-0.18833-0.7629-0.41851zm0.1569-5.4552c-0.3293-0.32931-0.4385-2.7634-0.1569-3.4973 0.088-0.23018 0.4328-0.41851 0.7654-0.41851 0.3327 0 0.6771 0.18833 0.7655 0.41851 0.2051 0.53451 0.2014 2.4448-0.01 3.2195-0.1731 0.64583-0.8602 0.7854-1.3678 0.27781zm0-5.5562c-0.3892-0.38918-0.4198-2.9657-0.044-3.6686 0.6513-1.217 1.5805-0.24101 1.5745 1.6536 0 0.62803-0.075 1.4098-0.1631 1.7372-0.1731 0.64583-0.8602 0.7854-1.3678 0.27781zm-0.044-5.7505c-0.1507-0.28148-0.2739-1.0632-0.2739-1.7372 0-1.3744 0.3601-2.249 0.926-2.249 0.566 0 0.9261 0.87451 0.9261 2.249s-0.3601 2.249-0.9261 2.249c-0.208 0-0.5015-0.2303-0.6521-0.51177zm0-5.5562c-0.1507-0.28148-0.2739-1.0632-0.2739-1.7372 0-1.3744 0.3601-2.249 0.926-2.249 0.566 0 0.9261 0.87451 0.9261 2.249s-0.3601 2.249-0.9261 2.249c-0.208 0-0.5015-0.2303-0.6521-0.51177zm-0.013-5.5805c-0.1578-0.29483-0.2513-1.2052-0.2078-2.0231 0.1463-2.7477 1.799-2.5218 1.799 0.24591 0 2.053-0.9036 3.0621-1.5912 1.7772zm109.17 39.011c-0.088-0.23019-0.1606-0.99435-0.1606-1.6982 0-1.6747 0.1928-2.1167 0.9235-2.1167 0.6855 0 0.9194 0.57978 0.925 2.2935 0 1.4941-0.2071 1.9399-0.9225 1.9399-0.3326 0-0.6771-0.18833-0.7654-0.41851zm111.65 0c-0.088-0.23019-0.1606-0.99435-0.1606-1.6982 0-1.6747 0.1928-2.1167 0.9235-2.1167 0.6855 0 0.9193 0.57978 0.9249 2.2935 0 1.4941-0.207 1.9399-0.9224 1.9399-0.3327 0-0.6771-0.18833-0.7654-0.41851zm110.86 0c-0.088-0.23019-0.1606-0.76597-0.1606-1.1906 0-0.63312-0.1115-0.77211-0.6191-0.77211-1.2355 0-4.7403-1.0657-7.7003-2.3414-4.7014-2.0262-8.8462-5.0792-11.676-8.6001-2.2307-2.7759-3.9376-6.2384-4.5049-9.1387-0.6098-3.1178-0.4062-9.2982 0.3782-11.478 2.2617-6.2859 6.813-10.453 15.917-14.572 1.2385-0.56043 2.7875-1.2668 3.4424-1.5696 0.6856-0.31707 1.9482-0.59897 2.9766-0.66455l1.7859-0.1139v-1.4037c0-1.8103 0.181-2.2407 0.9424-2.2407 0.5002 0 0.6549 0.17999 0.7945 0.9244 0.095 0.50842 0.1266 1.3261 0.069 1.817l-0.1042 0.89265 2.5225 0.17727c4.6959 0.33 6.2008 0.9282 11.781 4.6829 5.2283 3.5179 7.2133 5.8663 8.586 10.158 1.8817 5.883 2.0985 10.167 0.824 16.287-0.8377 4.0223-1.4607 5.5005-3.3583 7.9686-2.3471 3.0527-9.602 8.3951-12.268 9.0336-0.3638 0.0871-2.2986 0.18347-4.2995 0.21408l-3.638 0.0556v0.72817c0 0.4005-0.072 0.9165-0.1606 1.1467-0.2082 0.54253-1.3227 0.54253-1.5309 0zm10.431-4.6422c2.1789-1.0094 6.9622-4.9163 9.3251-7.6166 2.0844-2.3819 2.7252-3.7597 3.3945-7.2987 0.8476-4.4817 0.7981-9.3029-0.1326-12.919-1.2892-5.0084-2.8167-7.3631-6.6189-10.203-5.8818-4.3937-7.7775-5.23-12.49-5.5102l-2.4118-0.14337 0.129 1.3428c0.1849 1.9244-0.061 2.6944-0.8616 2.6944-0.7869 0-1.0205-0.69503-0.8861-2.6361 0.079-1.1376 0.023-1.3329-0.3799-1.3328-0.2598 9e-5 -0.7361 0.16459-1.0584 0.36554-0.3223 0.20096-1.2081 0.43313-1.9685 0.51593-2.7324 0.29755-9.5457 3.5369-12.48 5.9335-3.7215 3.0397-5.9877 6.3799-6.6585 9.8141-0.4535 2.3219-0.165 7.7771 0.5455 10.316 0.8463 3.0239 2.8455 6.5726 4.9963 8.8687 2.9168 3.1137 9.2411 6.6173 14.45 8.0051 2.1555 0.57427 2.8201 0.62719 7.0114 0.5583 4.3268-0.0711 4.7261-0.12055 6.0941-0.75428zm-10.431-0.91401c-0.088-0.23019-0.1606-0.99435-0.1606-1.6982 0-1.6747 0.1928-2.1167 0.9235-2.1167 0.6666 0 0.9214 0.58531 0.9214 2.1167 0 1.5314-0.2548 2.1167-0.9214 2.1167-0.3313 0-0.6746-0.18833-0.7629-0.41851zm0-5.5562c-0.088-0.23019-0.1606-0.99435-0.1606-1.6982 0-1.6747 0.1928-2.1167 0.9235-2.1167 0.6666 0 0.9214 0.58531 0.9214 2.1167 0 1.5314-0.2548 2.1167-0.9214 2.1167-0.3313 0-0.6746-0.18833-0.7629-0.41851zm0.1569-5.4552c-0.3293-0.32931-0.4385-2.7634-0.1569-3.4973 0.088-0.23018 0.4328-0.41851 0.7654-0.41851 0.3327 0 0.6771 0.18833 0.7655 0.41851 0.2051 0.53451 0.2014 2.4448-0.01 3.2195-0.1731 0.64583-0.8602 0.7854-1.3678 0.27781zm0-5.5562c-0.3892-0.38918-0.4198-2.9657-0.044-3.6686 0.6513-1.217 1.5806-0.24101 1.5746 1.6536 0 0.62803-0.075 1.4098-0.1632 1.7372-0.1731 0.64583-0.8602 0.7854-1.3678 0.27781zm-0.044-5.7505c-0.1507-0.28148-0.2739-1.0632-0.2739-1.7372 0-1.3744 0.3601-2.249 0.926-2.249 0.566 0 0.9261 0.87451 0.9261 2.249s-0.3601 2.249-0.9261 2.249c-0.208 0-0.5015-0.2303-0.6521-0.51177zm0-5.5562c-0.1507-0.28148-0.2739-1.0632-0.2739-1.7372 0-1.3744 0.3601-2.249 0.926-2.249 0.566 0 0.9261 0.87451 0.9261 2.249s-0.3601 2.249-0.9261 2.249c-0.208 0-0.5015-0.2303-0.6521-0.51177zm-0.013-5.5805c-0.1578-0.29483-0.2513-1.2052-0.2078-2.0231 0.1463-2.7477 1.799-2.5218 1.799 0.24591 0 2.053-0.9035 3.0621-1.5912 1.7772zm-166.42 37.015c-5.4697-0.34993-11.698-3.1329-17.267-7.7159-3.3739-2.7762-6.6973-8.2424-7.497-12.331-0.6098-3.1178-0.4062-9.2982 0.3781-11.478 2.2618-6.2859 6.8131-10.453 15.917-14.572 1.2384-0.56043 2.7875-1.2748 3.4424-1.5875 1.0946-0.5227 1.596-0.56689 6.2177-0.54795 7.2025 0.0295 8.152 0.33213 14.55 4.6372 5.2282 3.5179 7.2132 5.8663 8.5859 10.158 1.8818 5.883 2.0985 10.167 0.824 16.287-1.3294 6.3835-2.9139 8.5926-9.8049 13.67-3.5256 2.5978-5.0191 3.3064-7.2099 3.4206-4.1874 0.21843-5.5062 0.22813-8.1359 0.0599zm10.327-2.6462c2.1789-1.0094 6.9621-4.9163 9.3251-7.6166 2.0844-2.3819 2.7252-3.7597 3.3945-7.2987 1.4653-7.7479 0.2108-15.418-3.2567-19.913-1.998-2.5897-8.8259-7.3048-11.721-8.0939-2.5443-0.69353-8.7869-0.92812-9.6883-0.36408-0.3467 0.21694-1.2525 0.46219-2.0129 0.54499-2.7324 0.29755-9.5458 3.5369-12.48 5.9335-3.7215 3.0397-5.9877 6.3799-6.6585 9.8141-0.4535 2.3219-0.1651 7.7771 0.5455 10.316 0.8463 3.0239 2.8455 6.5726 4.9963 8.8687 2.9167 3.1137 9.2411 6.6173 14.45 8.0051 2.1555 0.57427 2.8202 0.62719 7.0115 0.5583 4.3268-0.0711 4.7261-0.12055 6.0941-0.75428zm-66.523-0.91401c-0.088-0.23019-0.1606-0.99435-0.1606-1.6982 0-1.6747 0.1928-2.1167 0.9235-2.1167 0.6666 0 0.9214 0.58531 0.9214 2.1167 0 1.5314-0.2548 2.1167-0.9214 2.1167-0.3313 0-0.6746-0.18833-0.7629-0.41851zm111.65 0c-0.088-0.23019-0.1606-0.99435-0.1606-1.6982 0-1.6747 0.1928-2.1167 0.9235-2.1167 0.6665 0 0.9213 0.58531 0.9213 2.1167 0 1.5314-0.2548 2.1167-0.9213 2.1167-0.3313 0-0.6746-0.18833-0.7629-0.41851zm-111.65-5.5562c-0.088-0.23019-0.1606-0.99435-0.1606-1.6982 0-1.6747 0.1928-2.1167 0.9235-2.1167 0.6666 0 0.9214 0.58531 0.9214 2.1167 0 1.5314-0.2548 2.1167-0.9214 2.1167-0.3313 0-0.6746-0.18833-0.7629-0.41851zm111.65 0c-0.088-0.23019-0.1606-0.99435-0.1606-1.6982 0-1.6747 0.1928-2.1167 0.9235-2.1167 0.6665 0 0.9213 0.58531 0.9213 2.1167 0 1.5314-0.2548 2.1167-0.9213 2.1167-0.3313 0-0.6746-0.18833-0.7629-0.41851zm-383.54-0.14123c-2.0004-0.60239-3.6667-2.6301-2.9102-3.5415 0.4718-0.56854 0.6674-0.50923 1.8533 0.56215 1.3706 1.2383 2.8264 1.4533 4.582 0.67665 1.4322-0.63352 2.1828-1.7048 2.4242-3.4597 0.4311-3.1345-1.0837-5.793-4.891-8.5839-4.3933-3.2205-5.2366-4.3071-5.4872-7.07-0.3056-3.3705 1.0035-5.7514 3.5732-6.4985 3.5636-1.036 9.2433 0.44582 8.6671 2.2612-0.2603 0.82015-1.1774 0.90917-2.6511 0.25731-1.7488-0.7736-4.5193-0.97515-5.6151-0.4085-1.2431 0.64285-1.9264 1.9519-1.9264 3.6905 0 2.6513 0.5431 3.4411 3.8917 5.6592 2.6712 1.7694 4.54 3.7738 5.6827 6.095 0.7529 1.5293 0.8689 2.0345 0.8644 3.7634 0 1.7594-0.1118 2.1956-0.9014 3.6658-0.6661 1.2406-1.1901 1.8411-2.0417 2.3402-1.308 0.76656-3.6371 1.0355-5.1145 0.59061zm33.892-0.21248c-0.3002-0.19008-0.3254-0.60621-0.1322-2.1788 0.1313-1.0691 0.2346-3.313 0.2295-4.9865-0.015-4.8155-0.9659-6.7793-4.0906-8.4447-0.8943-0.47665-1.6776-0.81503-1.7407-0.75196-0.3283 0.32832-0.7023 4.9318-0.7974 9.816-0.059 3.0328-0.1743 5.6224-0.2561 5.7547-0.2386 0.38619-1.3452 0.27707-1.7155-0.16918-0.2752-0.3315-0.2808-1.5309-0.03-6.2838 0.8349-15.806 0.9916-17.216 2.1702-19.526 1.435-2.8128 5.9788-2.2487 7.4182 0.92098 0.6148 1.3539 0.6504 3.6156 0.076 4.8263-0.5028 1.0596-2.5592 2.953-3.4502 3.1766-0.8315 0.2087-0.7702 0.36063 0.5233 1.2956 3.1288 2.2615 4.4181 6.8884 3.6218 12.998-0.4842 3.7142-0.7512 4.2338-1.8263 3.5531zm-3.2806-19.633c1.2969-0.61952 2.7257-2.5749 2.7257-3.7302 0-1.624-1.6432-3.26-2.9352-2.9221-1.0912 0.28536-1.8822 2.4467-2.1891 5.9817l-0.1342 1.5459 0.711-0.17234c0.3911-0.0948 1.2109-0.41111 1.8218-0.70295zm8.2158 19.326c-0.679-0.39548-0.5975-1.0479 0.866-6.9344 1.1077-4.4556 1.3733-6.0064 1.5955-9.3153 0.2825-4.2056 1.1146-9.8593 1.5788-10.727 0.7626-1.425 2.6863 0.3057 3.5434 3.1878 0.4689 1.5766 1.804 11.349 2.2771 16.666 0.4848 5.4495 0.493 5.3543-0.4506 5.2431-0.8803-0.10377-1.0018-0.50746-1.5393-5.1108-0.2209-1.8918-0.4733-3.8265-0.5608-4.2995l-0.1591-0.85989h-1.6903c-0.9297 0-1.6904 0.074-1.6904 0.16435 0 0.0904-0.3518 1.668-0.7818 3.5057s-0.9109 4.4129-1.0687 5.7226c-0.3338 2.7721-0.7839 3.4185-1.9198 2.7569zm6.8173-15.258c-0.6477-4.7866-0.9765-6.9436-1.1606-7.6135l-0.2163-0.787-0.1705 0.79375c-0.2597 1.2096-0.9704 6.9356-0.9704 7.8188 0 0.7601 0.034 0.7802 1.326 0.7802h1.3261zm54.766 14.488c-0.2135-0.34546-0.6207-8.9225-0.917-19.316-0.1307-4.5839-0.246-8.4408-0.2561-8.5709-0.01-0.13251-0.92-0.16304-2.0691-0.0694-2.495 0.20327-3.198 0.0407-3.4058-0.78748-0.3383-1.3475 0-1.4205 6.4809-1.4161 3.2928 2e-3 6.1462 0.10499 6.3408 0.22836s0.3137 0.5085 0.2646 0.85584c-0.074 0.52566-0.2889 0.66152-1.2799 0.81037-0.6549 0.0983-1.8621 0.18765-2.6827 0.19843l-1.4921 0.0196-0.1956 5.739c-0.1409 4.1317-0.1 6.5585 0.1461 8.6651 0.3781 3.2374 0.6535 12.281 0.4042 13.274-0.162 0.64541-1.0212 0.88267-1.3383 0.36955zm-82.659-0.89861c-0.5332-0.64244-0.8407-4.5426-1.0619-13.466-0.1182-4.7708-0.2857-8.7449-0.3722-8.8313-0.086-0.0864-1.1143-8e-3 -2.2841 0.17367-2.3621 0.36746-2.9205 0.18749-2.9205-0.94124 0-0.83222 0.1919-0.91374 3.1309-1.3303 3.6723-0.52044 8.0787-0.49652 8.5292 0.0463 0.6446 0.77677-0.031 1.2788-2.0744 1.5419-1.567 0.20171-1.8977 0.33155-2.0218 0.79375-0.3173 1.1818-0.1357 11.887 0.2778 16.374 0.3272 3.5511 0.3611 4.8685 0.1382 5.3578-0.3295 0.72316-0.8788 0.83826-1.3412 0.28106zm35.504-0.90382c-0.1776-0.11285-0.5148-0.73611-0.7492-1.385-0.351-0.97156-0.4664-3.1634-0.6535-12.417-0.1589-7.8604-0.1427-11.339 0.054-11.576 0.3464-0.41733 1.4423-0.4452 1.6909-0.043 0.1006 0.16269 0.2059 5.074 0.2341 10.914 0.036 7.4225 0.1534 11.117 0.3909 12.276 0.2694 1.3145 0.2723 1.7391 0.014 2.0505-0.3683 0.44375-0.5211 0.47171-0.981 0.17948zm24.403-0.0462c-0.5568-0.90093-0.9924-6.8519-1.1915-16.277-0.2374-11.238-0.2382-11.23 1.18-10.874l0.6978 0.17516-0.1867 6.606-0.1868 6.606h9.4014l-0.1541-1.1245c-0.085-0.61846-0.2344-3.7707-0.3325-7.0049-0.1915-6.3149-0.13-6.6873 1.1047-6.6873 0.3374 0 0.7019 0.14302 0.8099 0.31782 0.1081 0.1748 0.2049 3.0621 0.2153 6.4162 0.019 6.1798 0.3928 12.285 1.0983 17.942 0.4286 3.436 0.275 4.2629-0.7639 4.1136-0.8003-0.11498-1.1722-1.9196-1.5434-7.4905-0.1649-2.4738-0.3138-4.4979-0.3309-4.4979-0.017 0-2.1556 0.0352-4.7521 0.0781l-4.721 0.0781 0.1786 1.6416c0.098 0.90291 0.3469 2.7132 0.5527 4.0229 0.459 2.9217 0.4844 5.4745 0.059 5.9002-0.3843 0.38437-0.916 0.41157-1.1345 0.058zm-12.703-0.50176c-2.4446-1.5234-3.3594-3.5677-4.2247-9.4407-0.3632-2.4653-0.9007-5.4722-1.1944-6.682-0.7018-2.8906-0.7251-6.4482-0.051-7.706 0.7069-1.3181 1.967-1.922 3.7671-1.805 2.5748 0.16723 3.9358 1.7246 4.165 4.766 0.1207 1.6011-0.1813 2.3178-0.9735 2.3104-0.8389-8e-3 -1.1762-0.49227-1.3779-1.9787-0.1123-0.82727-0.4039-1.7249-0.6481-1.9947-0.6588-0.72797-1.8729-0.91385-2.6487-0.40551-0.5885 0.38557-0.6507 0.60321-0.6507 2.2751 0 1.0168 0.2464 2.9488 0.5476 4.2934s0.7782 4.1596 1.0599 6.2557c0.6556 4.8769 0.9201 5.7135 2.2425 7.0936 0.8272 0.8634 1.2842 1.1338 1.9161 1.1338 1.1586 0 1.4831-0.71116 1.2544-2.749-0.1-0.88914-0.2022-2.0568-0.2275-2.5948l-0.046-0.97821-1.6564-0.17739c-1.4573-0.15607-1.6755-0.25356-1.8155-0.81116-0.087-0.34858-0.026-0.79353 0.1356-0.98878 0.3446-0.41527 5.5351-1.0966 6.3599-0.83482 0.9267 0.29411 0.6453 1.8661-0.4055 2.2656-0.587 0.22317-0.6005 0.28342-0.2759 1.2365 0.1876 0.55104 0.3701 1.9143 0.4056 3.0295 0.071 2.229-0.4735 3.7717-1.6125 4.5695-0.8313 0.58225-3.0518 0.53709-4.0457-0.0823zm207.09-1.673c-0.3293-0.32931-0.4385-2.7634-0.1569-3.4973 0.088-0.23018 0.4328-0.41851 0.7654-0.41851 0.3327 0 0.6772 0.18833 0.7655 0.41851 0.2051 0.53451 0.2014 2.4448-0.01 3.2195-0.1731 0.64583-0.8602 0.7854-1.3678 0.27781zm111.65 0c-0.3293-0.32931-0.4385-2.7634-0.1569-3.4973 0.088-0.23018 0.4327-0.41851 0.7654-0.41851s0.6771 0.18833 0.7655 0.41851c0.2051 0.53451 0.2014 2.4448-0.01 3.2195-0.1731 0.64583-0.8602 0.7854-1.3678 0.27781zm-111.65-5.5562c-0.3892-0.38918-0.4198-2.9657-0.044-3.6686 0.6513-1.217 1.5806-0.24101 1.5746 1.6536 0 0.62803-0.075 1.4098-0.1632 1.7372-0.1731 0.64583-0.8602 0.7854-1.3678 0.27781zm111.65 0c-0.3892-0.38918-0.4198-2.9657-0.044-3.6686 0.6513-1.217 1.5805-0.24101 1.5745 1.6536 0 0.62803-0.075 1.4098-0.1631 1.7372-0.1731 0.64583-0.8602 0.7854-1.3678 0.27781zm-111.7-5.7505c-0.1506-0.28148-0.2739-1.0632-0.2739-1.7372 0-1.3744 0.3601-2.249 0.926-2.249 0.566 0 0.9261 0.87451 0.9261 2.249s-0.3601 2.249-0.9261 2.249c-0.208 0-0.5015-0.2303-0.6521-0.51177zm111.65 0c-0.1507-0.28148-0.2739-1.0632-0.2739-1.7372 0-1.3744 0.3601-2.249 0.926-2.249 0.566 0 0.9261 0.87451 0.9261 2.249s-0.3601 2.249-0.9261 2.249c-0.208 0-0.5015-0.2303-0.6521-0.51177zm-111.65-5.5562c-0.1506-0.28148-0.2739-1.0632-0.2739-1.7372 0-1.3744 0.3601-2.249 0.926-2.249 0.566 0 0.9261 0.87451 0.9261 2.249s-0.3601 2.249-0.9261 2.249c-0.208 0-0.5015-0.2303-0.6521-0.51177zm111.65 0c-0.1507-0.28148-0.2739-1.0632-0.2739-1.7372 0-1.3744 0.3601-2.249 0.926-2.249 0.566 0 0.9261 0.87451 0.9261 2.249s-0.3601 2.249-0.9261 2.249c-0.208 0-0.5015-0.2303-0.6521-0.51177zm-111.67-5.5805c-0.1578-0.29483-0.2513-1.2052-0.2078-2.0231 0.1463-2.7477 1.799-2.5218 1.799 0.24591 0 2.053-0.9035 3.0621-1.5912 1.7772zm111.65 0c-0.1578-0.29483-0.2513-1.2052-0.2078-2.0231 0.1463-2.7477 1.799-2.5218 1.799 0.24591 0 2.053-0.9036 3.0621-1.5912 1.7772zm-111.75-5.7033c-0.088-0.23018-0.1606-0.99435-0.1606-1.6982 0-1.6747 0.1928-2.1167 0.9235-2.1167 0.6855 0 0.9194 0.57977 0.925 2.2935 0 1.4941-0.2071 1.9399-0.9225 1.9399-0.3326 0-0.6771-0.18833-0.7654-0.41852zm111.65 0c-0.088-0.23018-0.1606-0.99435-0.1606-1.6982 0-1.6747 0.1928-2.1167 0.9235-2.1167 0.6855 0 0.9193 0.57977 0.9249 2.2935 0 1.4941-0.207 1.9399-0.9224 1.9399-0.3327 0-0.6771-0.18833-0.7654-0.41852zm-111.65-5.5562c-0.088-0.23018-0.1606-0.99435-0.1606-1.6982 0-1.6747 0.1928-2.1167 0.9235-2.1167 0.6666 0 0.9214 0.58531 0.9214 2.1167s-0.2548 2.1167-0.9214 2.1167c-0.3313 0-0.6746-0.18833-0.7629-0.41852zm111.65 0c-0.088-0.23018-0.1606-0.99435-0.1606-1.6982 0-1.6747 0.1928-2.1167 0.9235-2.1167 0.6665 0 0.9213 0.58531 0.9213 2.1167s-0.2548 2.1167-0.9213 2.1167c-0.3313 0-0.6746-0.18833-0.7629-0.41852zm-220.93-5.5562c-0.088-0.23018-0.1606-0.99435-0.1606-1.6982 0-1.6747 0.1928-2.1167 0.9235-2.1167 0.6666 0 0.9213 0.58531 0.9213 2.1167s-0.2547 2.1167-0.9213 2.1167c-0.3313 0-0.6746-0.18833-0.7629-0.41852zm109.27 0c-0.088-0.23018-0.1606-0.99435-0.1606-1.6982 0-1.6747 0.1928-2.1167 0.9235-2.1167 0.6666 0 0.9214 0.58531 0.9214 2.1167s-0.2548 2.1167-0.9214 2.1167c-0.3313 0-0.6746-0.18833-0.7629-0.41852zm111.65 0c-0.088-0.23018-0.1606-0.99435-0.1606-1.6982 0-1.6747 0.1928-2.1167 0.9235-2.1167 0.6665 0 0.9213 0.58531 0.9213 2.1167s-0.2548 2.1167-0.9213 2.1167c-0.3313 0-0.6746-0.18833-0.7629-0.41852zm110.86 0c-0.088-0.23018-0.1606-0.99435-0.1606-1.6982 0-1.6747 0.1928-2.1167 0.9235-2.1167 0.6666 0 0.9214 0.58531 0.9214 2.1167s-0.2548 2.1167-0.9214 2.1167c-0.3313 0-0.6746-0.18833-0.7629-0.41852zm-331.63-5.4552c-0.3293-0.32931-0.4385-2.7634-0.1569-3.4973 0.088-0.23018 0.4328-0.41851 0.7654-0.41851 0.3327 0 0.6771 0.18833 0.7655 0.41851 0.2051 0.53451 0.2014 2.4448-0.01 3.2195-0.1731 0.64583-0.8602 0.78539-1.3678 0.27781zm109.27 0c-0.3293-0.32931-0.4385-2.7634-0.1569-3.4973 0.088-0.23018 0.4328-0.41851 0.7654-0.41851 0.3327 0 0.6772 0.18833 0.7655 0.41851 0.2051 0.53451 0.2014 2.4448-0.01 3.2195-0.1731 0.64583-0.8602 0.78539-1.3678 0.27781zm111.65 0c-0.3293-0.32931-0.4385-2.7634-0.1569-3.4973 0.088-0.23018 0.4327-0.41851 0.7654-0.41851s0.6771 0.18833 0.7655 0.41851c0.2051 0.53451 0.2014 2.4448-0.01 3.2195-0.1731 0.64583-0.8602 0.78539-1.3678 0.27781zm110.86 0c-0.3293-0.32931-0.4385-2.7634-0.1569-3.4973 0.088-0.23018 0.4328-0.41851 0.7654-0.41851 0.3327 0 0.6771 0.18833 0.7655 0.41851 0.2051 0.53451 0.2014 2.4448-0.01 3.2195-0.1731 0.64583-0.8602 0.78539-1.3678 0.27781zm-331.79-5.5562c-0.3892-0.38919-0.4198-2.9657-0.044-3.6686 0.6513-1.217 1.5805-0.24101 1.5745 1.6536 0 0.62803-0.075 1.4098-0.1631 1.7372-0.1731 0.64583-0.8602 0.78539-1.3678 0.27781zm109.27 0c-0.3892-0.38919-0.4198-2.9657-0.044-3.6686 0.6513-1.217 1.5806-0.24101 1.5746 1.6536 0 0.62803-0.075 1.4098-0.1632 1.7372-0.1731 0.64583-0.8602 0.78539-1.3678 0.27781zm111.65 0c-0.3892-0.38919-0.4198-2.9657-0.044-3.6686 0.6513-1.217 1.5805-0.24101 1.5745 1.6536 0 0.62803-0.075 1.4098-0.1631 1.7372-0.1731 0.64583-0.8602 0.78539-1.3678 0.27781zm110.86 0c-0.3892-0.38919-0.4198-2.9657-0.044-3.6686 0.6513-1.217 1.5806-0.24101 1.5746 1.6536 0 0.62803-0.075 1.4098-0.1632 1.7372-0.1731 0.64583-0.8602 0.78539-1.3678 0.27781zm-331.83-5.7505c-0.3762-0.70295-0.3456-3.2795 0.044-3.6686 0.7768-0.77682 1.5346 0.12951 1.5346 1.8355 0 1.4622-0.3487 2.345-0.9261 2.345-0.208 0-0.5015-0.2303-0.6521-0.51177zm109.27 0c-0.3762-0.70295-0.3456-3.2795 0.044-3.6686 0.7768-0.77682 1.5346 0.12951 1.5346 1.8355 0 1.4622-0.3486 2.345-0.9261 2.345-0.208 0-0.5015-0.2303-0.6521-0.51177zm111.65 0c-0.3762-0.70295-0.3456-3.2795 0.044-3.6686 0.7768-0.77682 1.5346 0.12951 1.5346 1.8355 0 1.4622-0.3487 2.345-0.9261 2.345-0.208 0-0.5015-0.2303-0.6521-0.51177zm110.86 0c-0.3762-0.70295-0.3456-3.2795 0.044-3.6686 0.7768-0.77682 1.5346 0.12951 1.5346 1.8355 0 1.4622-0.3486 2.345-0.9261 2.345-0.208 0-0.5015-0.2303-0.6521-0.51177zm-339.89-20.766c-2.0427-0.88942-2.6711-2.8333-3.063-9.4761-0.3164-5.3619-0.2481-5.7582 0.9919-5.7582 0.3409 0 0.7267 0.20836 0.8575 0.46302s0.3091 2.6224 0.3964 5.2617c0.1173 3.552 0.2725 5.0834 0.5971 5.8947 0.7206 1.8009 2.1538 2.1779 2.9986 0.78863 0.5653-0.92944 0.7107-1.7422 1.2147-6.7866 0.3836-3.8392 0.7366-4.7188 1.6566-4.1275 0.893 0.57388 0.344 9.4513-0.7375 11.927-0.839 1.9202-2.9108 2.6852-4.9123 1.8138zm-24.893-0.39457c-1.1831-0.54406-1.7712-1.3166-1.5134-1.9883 0.1871-0.48761 0.2737-0.49334 2.34-0.15499 1.9983 0.32722 2.7901-0.0764 2.7901-1.4221 0-1.1453-0.736-2.057-2.1636-2.6798-1.9313-0.84266-3.3711-1.9588-3.9235-3.0416-1.4481-2.8385 0.2522-5.0237 3.909-5.0237 1.6694 0 2.1781 0.29196 2.1781 1.2501 0 0.74091-0.8548 1.1312-2.4778 1.1312-1.1259 0-1.7555 0.34779-1.7555 0.96976 0 0.55997 1.5313 2.1182 2.4462 2.4892 1.7693 0.71746 3.325 1.8553 3.7441 2.7384 0.5559 1.1715 0.5388 2.969-0.039 4.1032-0.8646 1.6969-3.6218 2.5083-5.5345 1.6288zm66.124-0.0475c-0.8579-0.89745-0.1513-1.8276 1.3884-1.8276h1.084l-0.097-5.186c-0.053-2.8523-0.1872-5.4298-0.2974-5.7277-0.1837-0.49659-0.2502-0.46123-0.7973 0.42392-0.6511 1.0536-1.6548 1.4778-2.2763 0.96194-0.6509-0.5402-0.4586-1.1551 0.9383-3.0004 1.7464-2.3068 2.2613-2.342 3.4775-0.23789l0.8793 1.5214 0.089 5.4901c0.086 5.2636 0.1108 5.4901 0.6127 5.4901 1.3069 0 2.0265 1.1248 1.1728 1.8332-0.5716 0.47439-5.7603 0.69204-6.1743 0.25899zm-52.85-0.26904c-2.7503-1.6006-3.6038-4.5438-3.0826-10.63 0.1767-2.0634 0.4324-3.8626 0.5681-3.9983 0.1357-0.13572 0.4646-0.26282 0.7309-0.28244 0.2663-0.0196 0.7733-0.23815 1.1266-0.48564 0.9191-0.64375 1.8383-0.55807 3.1849 0.29686 2.135 1.3555 3.2439 4.3358 3.266 8.7782 0.023 4.62-0.9815 6.3749-3.7431 6.5388-0.8497 0.0504-1.7553-0.0457-2.0508-0.21767zm2.6724-2.2902c0.6913-0.46159 0.899-1.4773 0.8885-4.3442-0.017-4.7305-1.03-6.7607-3.1932-6.4023l-0.9551 0.15825-0.1678 2.1542c-0.3642 4.6786-0.082 6.8894 1.0356 8.1248 0.4641 0.51275 1.8239 0.68851 2.392 0.30917zm311.61 2.0777c-1.1831-0.54407-1.7712-1.3166-1.5134-1.9883 0.1871-0.4876 0.2737-0.49334 2.34-0.15498 1.9982 0.32722 2.7901-0.0764 2.7901-1.4221 0-1.1454-0.736-2.057-2.1636-2.6798-1.9313-0.84265-3.3711-1.9588-3.9235-3.0416-1.4481-2.8385 0.2522-5.0237 3.909-5.0237 1.6694 0 2.1781 0.29196 2.1781 1.2501 0 0.74092-0.8548 1.1312-2.4779 1.1312-1.1259 0-1.7554 0.34779-1.7554 0.96975 0 0.55997 1.5313 2.1183 2.4461 2.4892 1.7694 0.71747 3.3251 1.8553 3.7442 2.7384 0.5559 1.1715 0.5388 2.969-0.039 4.1032-0.8646 1.6969-3.6218 2.5083-5.5345 1.6288zm24.893 0.12998c-2.0428-0.88942-2.6711-2.8333-3.063-9.4761-0.3164-5.3619-0.2481-5.7582 0.9919-5.7582 0.3408 0 0.7267 0.20836 0.8575 0.46302s0.3091 2.6224 0.3963 5.2617c0.1174 3.552 0.2725 5.0834 0.5971 5.8947 0.7206 1.8009 2.1539 2.1779 2.9987 0.78863 0.5653-0.92944 0.7107-1.7422 1.2147-6.7866 0.3836-3.8392 0.7366-4.7188 1.6566-4.1275 0.8929 0.57388 0.344 9.4513-0.7375 11.927-0.839 1.9202-2.9108 2.6852-4.9123 1.8138zm42.008-0.16049c-0.7008-0.42724-0.8602-0.67943-0.7937-1.2558 0.08-0.69567 0.1433-0.72299 1.7855-0.77214 1.8843-0.0564 2.8893-0.58224 3.2965-1.7249 0.4717-1.3235 0.015-2.0397-1.8343-2.8783-1.0988-0.4982-1.7094-0.931-1.7094-1.2116 0-0.24005 0.6548-1.123 1.4552-1.9621 1.1827-1.2399 1.4552-1.695 1.4552-2.4303 0-1.8378-1.5533-2.2764-3.7296-1.0531-1.5118 0.84984-2.2235 0.65013-2.2235-0.62392 0-0.65222 0.2054-0.87502 1.3944-1.5122 1.7765-0.95203 3.8748-1.2029 5.0365-0.60218 0.9653 0.49914 1.9034 2.1413 1.9034 3.3318 0 0.9607-0.5668 2.4082-1.3158 3.3605-0.6289 0.7995-0.6787 1.1395-0.1668 1.1395 0.5029 0 1.9648 1.7051 2.173 2.5344 0.9381 3.7379-3.6068 7.5624-6.7266 5.6603zm-360.36-0.0455c-0.1746-0.17462-0.3175-0.85985-0.3175-1.5227 0-2.218 1.0641-11.474 1.36-11.831 0.1608-0.19369 0.5208-0.35217 0.8001-0.35217 0.5298 0 1.2394 1.3547 2.9102 5.5562 0.434 1.0914 1.1003 2.6823 1.4807 3.5353 0.6429 1.4418 0.7089 1.5069 0.9382 0.92604 0.1356-0.34366 0.3066-2.4703 0.3799-4.7259 0.073-2.2556 0.2459-4.3166 0.3834-4.5801 0.1516-0.29063 0.4771-0.44674 0.8274-0.39687 0.4966 0.0707 0.6018 0.30445 0.7516 1.6697 0.3795 3.4582-0.6962 9.6693-1.9328 11.159-0.9461 1.14-1.9906-0.23952-3.9905-5.2706-0.6216-1.5634-1.2194-2.8434-1.3285-2.8443-0.1091-9.3e-4 -0.1984 1.7921-0.1984 3.9845 0 2.2418-0.1199 4.2101-0.2739 4.4979-0.3062 0.57206-1.3038 0.68034-1.7899 0.19427zm14.442 8e-3c-1.0904-0.84361-1.2654-2.0209-1.2654-8.5128 0-4.9884 0.072-6.2537 0.3706-6.5014 0.6491-0.53867 4.2345 0.0618 5.4664 0.91551 2.2255 1.5423 3.3195 4.2583 3.099 7.6942-0.2528 3.9379-2.3907 6.4269-5.7154 6.6537-0.9847 0.0672-1.6571-0.0185-1.9552-0.24919zm3.1177-2.4645c1.3665-0.80081 2.1285-2.2518 2.3784-4.5286 0.2891-2.635-0.7663-4.3776-3.4823-5.7498l-0.8219-0.41522-0.1865 5.0803c-0.1025 2.7942-0.2516 5.3482-0.3313 5.6757-0.1238 0.50897-0.039 0.59531 0.5882 0.59531 0.4032 0 1.2381-0.29597 1.8554-0.65771zm110.27 2.2683c-1.1831-0.54406-1.7711-1.3166-1.5134-1.9883 0.1871-0.48761 0.2737-0.49334 2.34-0.15499 1.9983 0.32722 2.7901-0.0764 2.7901-1.4221 0-1.1453-0.736-2.057-2.1636-2.6798-1.9313-0.84266-3.3711-1.9588-3.9235-3.0416-1.4481-2.8385 0.2522-5.0237 3.909-5.0237 1.6694 0 2.1781 0.29196 2.1781 1.2501 0 0.74091-0.8548 1.1312-2.4778 1.1312-1.1259 0-1.7555 0.34779-1.7555 0.96976 0 0.55997 1.5313 2.1182 2.4462 2.4892 1.7693 0.71746 3.325 1.8553 3.7441 2.7384 0.5559 1.1715 0.5388 2.969-0.039 4.1032-0.8646 1.6969-3.6218 2.5083-5.5345 1.6288zm24.893 0.12999c-2.0427-0.88942-2.6711-2.8333-3.063-9.4761-0.3164-5.362-0.2481-5.7582 0.9919-5.7582 0.3409 0 0.7267 0.20836 0.8575 0.46303 0.1308 0.25466 0.3092 2.6224 0.3964 5.2617 0.1173 3.552 0.2725 5.0834 0.5971 5.8947 0.7206 1.8009 2.1538 2.1779 2.9986 0.78863 0.5653-0.92944 0.7107-1.7422 1.2147-6.7866 0.3836-3.8392 0.7366-4.7188 1.6566-4.1275 0.893 0.57388 0.344 9.4513-0.7375 11.927-0.839 1.9202-2.9108 2.6852-4.9123 1.8138zm-11.619-0.44657c-2.7503-1.6006-3.6038-4.5438-3.0826-10.63 0.1767-2.0634 0.4324-3.8626 0.5681-3.9983 0.1357-0.13572 0.4646-0.26282 0.7309-0.28244 0.2663-0.0196 0.7733-0.23815 1.1266-0.48564 0.9191-0.64375 1.8383-0.55807 3.1849 0.29686 2.135 1.3555 3.2439 4.3358 3.2661 8.7782 0.023 4.62-0.9816 6.3749-3.7432 6.5388-0.8497 0.0504-1.7553-0.0457-2.0508-0.21767zm2.6724-2.2902c0.6913-0.46159 0.899-1.4773 0.8885-4.3442-0.017-4.7305-1.03-6.7607-3.1932-6.4023l-0.9551 0.15825-0.1677 2.1542c-0.3643 4.6786-0.082 6.8894 1.0355 8.1248 0.4641 0.51275 1.8239 0.68851 2.392 0.30917zm162.69 2.2902c-2.7503-1.6006-3.6038-4.5438-3.0826-10.63 0.1767-2.0634 0.4324-3.8626 0.5681-3.9983 0.1357-0.13572 0.4646-0.26282 0.7309-0.28244 0.2663-0.0196 0.7733-0.23815 1.1266-0.48564 0.9191-0.64375 1.8383-0.55807 3.1849 0.29686 2.135 1.3555 3.2439 4.3358 3.266 8.7782 0.023 4.62-0.9815 6.3749-3.7431 6.5388-0.8497 0.0504-1.7553-0.0457-2.0508-0.21767zm2.6724-2.2902c0.6913-0.46159 0.899-1.4773 0.8885-4.3442-0.017-4.7305-1.03-6.7607-3.1932-6.4023l-0.9551 0.15825-0.1678 2.1542c-0.3642 4.6786-0.082 6.8894 1.0356 8.1248 0.4641 0.51275 1.8239 0.68851 2.392 0.30917zm18.415 2.2662c-0.1746-0.17462-0.3175-0.85985-0.3175-1.5227 0-2.218 1.064-11.474 1.36-11.831 0.1608-0.19369 0.5208-0.35216 0.8001-0.35216 0.5298 0 1.2393 1.3547 2.9102 5.5562 0.434 1.0914 1.1003 2.6823 1.4806 3.5352 0.643 1.4418 0.709 1.5069 0.9382 0.92605 0.1357-0.34367 0.3067-2.4703 0.38-4.7259 0.073-2.2556 0.2458-4.3166 0.3833-4.5801 0.1517-0.29063 0.4772-0.44675 0.8275-0.39688 0.4965 0.0707 0.6018 0.30445 0.7516 1.6697 0.3795 3.4582-0.6963 9.6693-1.9328 11.159-0.9461 1.14-1.9906-0.23951-3.9906-5.2706-0.6215-1.5634-1.2193-2.8433-1.3284-2.8443-0.1092-9.2e-4 -0.1985 1.7921-0.1985 3.9845 0 2.2418-0.1198 4.2101-0.2738 4.4979-0.3062 0.57206-1.3038 0.68035-1.7899 0.19427zm-165.63-0.26458c-0.1746-0.17462-0.3175-0.85985-0.3175-1.5227 0-2.218 1.0641-11.474 1.36-11.831 0.1608-0.19369 0.5208-0.35217 0.8001-0.35217 0.5298 0 1.2394 1.3547 2.9102 5.5562 0.434 1.0914 1.1003 2.6823 1.4807 3.5353 0.6429 1.4418 0.7089 1.5069 0.9382 0.92604 0.1356-0.34366 0.3066-2.4703 0.3799-4.7259 0.073-2.2556 0.2459-4.3166 0.3834-4.5801 0.1516-0.29063 0.4771-0.44674 0.8274-0.39687 0.4966 0.0707 0.6018 0.30445 0.7516 1.6697 0.3796 3.4582-0.6962 9.6693-1.9328 11.159-0.9461 1.14-1.9905-0.23952-3.9905-5.2706-0.6215-1.5634-1.2194-2.8434-1.3285-2.8443-0.1091-9.3e-4 -0.1984 1.7921-0.1984 3.9845 0 2.2418-0.1199 4.2101-0.2739 4.4979-0.3062 0.57206-1.3038 0.68034-1.7899 0.19427zm180.07 8e-3c-1.0903-0.84361-1.2654-2.0209-1.2654-8.5128 0-4.9884 0.072-6.2537 0.3707-6.5014 0.6491-0.53867 4.2345 0.0618 5.4663 0.91551 2.2256 1.5423 3.3195 4.2583 3.099 7.6942-0.2527 3.9379-2.3907 6.4269-5.7153 6.6537-0.9847 0.0672-1.6571-0.0185-1.9553-0.24919zm3.1178-2.4645c1.3664-0.80081 2.1285-2.2518 2.3783-4.5286 0.2892-2.635-0.7662-4.3776-3.4823-5.7498l-0.8218-0.41522-0.1865 5.0803c-0.1025 2.7942-0.2516 5.3482-0.3313 5.6757-0.1238 0.50897-0.039 0.59531 0.5882 0.59531 0.4032 0 1.2381-0.29597 1.8554-0.65771zm-168.75 2.1999c-1.0904-0.84361-1.2654-2.0209-1.2654-8.5128 0-4.9884 0.072-6.2537 0.3707-6.5014 0.649-0.53867 4.2344 0.0618 5.4663 0.91551 2.2255 1.5423 3.3195 4.2583 3.099 7.6942-0.2528 3.9379-2.3907 6.4269-5.7154 6.6537-0.9847 0.0672-1.6571-0.0185-1.9552-0.24918zm3.1177-2.4645c1.3665-0.80081 2.1285-2.2518 2.3784-4.5286 0.2891-2.635-0.7663-4.3776-3.4823-5.7498l-0.8219-0.41523-0.1864 5.0804c-0.1026 2.7942-0.2517 5.3482-0.3314 5.6757-0.1238 0.50897-0.038 0.59531 0.5882 0.59531 0.4032 0 1.2381-0.29597 1.8554-0.65772zm14.191 2.4569c-0.5613-0.56133-0.3503-1.12 1.3516-3.578 3.3325-4.813 4.2728-7.6919 3.1137-9.5321-0.8931-1.4177-2.0299-1.0465-3.0678 1.0017-0.5052 0.99699-0.8111 1.3134-1.2696 1.3134-1.7143 0-1.5568-2.045 0.3124-4.0585 2.8482-3.068 6.773-1.0872 6.7803 3.4219 0 1.4117-0.1621 1.9386-1.3204 4.2333-0.7276 1.4415-1.3626 2.7103-1.4111 2.8194-0.048 0.10914 0.2253 0.19844 0.6085 0.19844 1.5948 0 3.2318 1.6314 2.6059 2.5969-0.159 0.24519-0.5107 0.4189-0.7816 0.38603-0.2709-0.0329-1.0878-0.13469-1.8154-0.22626-1.2145-0.15284-1.439-0.0883-2.7386 0.78738-1.5297 1.0307-1.8795 1.1247-2.3679 0.63636z"/></g></svg>
