<svg width="586.81mm" height="388.26mm" version="1.1" viewBox="0 0 586.81 388.26" xml:space="preserve" xmlns="http://www.w3.org/2000/svg"><g transform="translate(-1314.3 948.52)"><path fill="#fff" d="m1433.6-560.69c-0.5271-0.27385-1.0317-0.79241-1.1761-1.2086-0.3924-1.1315 0.01-1.3254 2.0483-0.99897 2.1279 0.33994 3.8108 0.0282 4.5103-0.83561 0.3759-0.46428 0.4642-0.91536 0.3778-1.9315-0.2943-3.4635-3.0505-5.956-6.586-5.956-0.9891 0-1.823-0.53218-1.823-1.1634 0-0.433 0.8166-1.1566 2.8066-2.4872 2.7343-1.8281 4.2272-4.9237 3.16-6.5524-1.3523-2.0639-4.8661-1.787-6.9937 0.55109-0.9042 0.99357-1.1172 1.0661-1.9007 0.64675-1.1915-0.63769 0.026-2.7911 2.352-4.1581 1.0888-0.64007 1.5071-0.72707 3.4862-0.72506 2.6553 3e-3 3.6243 0.4146 4.6612 1.9814 0.4965 0.75033 0.728 1.5148 0.8252 2.7251 0.1745 2.1742-0.4396 3.6186-2.4224 5.6973l-1.457 1.5275 1.5799 0.75029c3.0342 1.441 4.5733 3.9244 4.6014 7.4244 0.014 1.7899-0.075 2.2459-0.5802 2.9538-1.299 1.8211-5.463 2.8017-7.4698 1.7591zm-51.784-0.94266c-0.2303-0.30155-0.5478-1.0819-0.9858-2.4233-0.1554-0.47597-0.2063-0.46642-0.8847 0.16611-1.5714 1.4652-2.9877 1.66-4.2636 0.5865-1.0204-0.85865-1.3476-2.0445-1.3495-4.891 0-2.4079 0.2067-2.8972 1.2328-2.8972 0.8708 0 1.147 0.75519 1.147 3.136 0 2.4296 0.1386 2.9494 0.7864 2.9494 0.9316 0 1.8005-1.0438 2.527-3.0358 0.8032-2.2024 1.1674-2.6456 1.9656-2.3922 0.4908 0.15579 0.5422 0.38832 0.546 2.4693 0 1.2635 0.17 3.0026 0.3728 3.8646 0.2377 1.0106 0.2856 1.786 0.1347 2.1828-0.2556 0.67234-0.8308 0.80562-1.2287 0.28472zm-19.78-0.39688c-0.099-0.25466-0.2842-3.0229-0.4104-6.1516s-0.4372-7.1375-0.6911-8.9085c-0.3823-2.6666-0.402-3.2918-0.1146-3.638 0.4142-0.49909 1.491-0.55217 1.7781-0.0877 0.3256 0.52675 0.8531 5.9017 0.8699 8.8638 0.014 2.4793 0.2498 3.3328 0.6397 2.3166 0.2962-0.77189 1.8336-1.4547 3.2776-1.4557 1.2204-8.7e-4 1.5145 0.11305 2.4319 0.94188 1.3688 1.2366 1.9663 2.8158 1.8217 4.8147-0.1827 2.5254-1.4928 3.7698-3.9629 3.7642-1.0086-2e-3 -1.737-0.18765-2.5389-0.64612-0.6185-0.35361-1.1245-0.53928-1.1245-0.41259 0 0.40364-0.8142 1.0619-1.3135 1.0619-0.2651 0-0.5634-0.20835-0.663-0.46302zm6.6801-2.3301c1.2584-0.88139 0.3936-4.6152-1.0689-4.6152-1.1811 0-2.2876 1.2458-2.8508 3.2095-0.1909 0.66551-0.1155 0.77285 0.8929 1.272 1.3155 0.65117 2.2304 0.69158 3.0268 0.13371zm34.492 0.9141c-2.0415-1.0372-3.4693-3.6701-3.0922-5.7022 0.3889-2.0957 3.6348-4.325 6.2971-4.325 1.3369 0 2.5784 1.1431 2.5784 2.374 0 2.1172-1.5689 3.2588-4.2999 3.1287-1.587-0.0756-1.6566-0.1081-1.7374-0.81085-0.1256-1.0924-0.5773-0.59013-0.5773 0.64187 0 0.86494 0.1733 1.2425 0.9073 1.9765l0.9074 0.90733 2.0938-0.17462c1.7949-0.14969 2.1174-0.11303 2.2593 0.25684 0.6671 1.7384-2.9869 2.9212-5.3365 1.7274zm2.8474-7.1086c0.3833-0.21524 0.3816-0.25285-0.018-0.40698-0.2423-0.0934-0.9567 0.0777-1.5875 0.38032l-1.1468 0.55016 1.1652-0.14318c0.6409-0.0787 1.3553-0.24989 1.5875-0.38032zm7.0325 7.393c-0.201-0.3253-0.8773-5.1597-1.1057-7.9038-0.1424-1.7118-0.1015-2.0027 0.3258-2.3151 0.2687-0.19651 0.6359-0.35729 0.816-0.35729 0.5858 0 1.159 0.81291 1.159 1.6436v0.8121l1.066-1.2111c1.2174-1.383 3.8686-2.8322 5.1815-2.8322 1.1295 0 2.1684 0.48182 2.3634 1.0961 0.2457 0.7742-0.037 0.95639-1.7975 1.1571-2.004 0.22855-2.3934 0.41185-3.8455 1.81-1.2904 1.2424-1.7761 2.5441-2.0593 5.5191-0.1009 1.0599-0.2913 2.1355-0.4231 2.3901-0.2596 0.5017-1.408 0.63239-1.6806 0.19127zm-25.468-0.85273c-0.2085-0.25601-0.8537-3.4935-0.8537-4.284 0-0.0813-0.5212-0.14775-1.1582-0.14775-1.3318 0-1.8887-0.47866-1.6524-1.4202 0.1593-0.63478 0.8087-0.95065 1.9685-0.95748 0.4577-3e-3 0.5793-0.12102 0.4796-0.46663-2.5458-8.8272-2.3776-11.351 0.7749-11.625 0.7191-0.0625 1.8432 0.0467 2.498 0.24255 0.9981 0.29857 1.2044 0.47472 1.2759 1.0896 0.1464 1.2592-0.3106 1.5149-2.3657 1.3239l-1.8206-0.16921v0.77563c0 0.71231 1.736 8.5896 1.9088 8.6616 1.2575 0.5236 1.7043 1.6862 0.7445 1.9372-0.4555 0.1191-0.5334 0.2846-0.4065 0.86257 0.2415 1.0998 0.2684 3.8124 0.041 4.1797-0.2618 0.42365-1.0883 0.42206-1.4344-3e-3zm7.68 0c-0.1443-0.1819-0.4101-0.96113-0.5908-1.7316l-0.3285-1.4009-1.1104 0.16651c-1.2671 0.19002-1.8402-0.23341-1.6957-1.2528 0.064-0.44872 0.3836-0.7126 1.211-0.99859 0.666-0.23025 1.1237-0.55384 1.1226-0.79375-1e-3 -0.22277-0.2576-1.4171-0.5701-2.654-0.358-1.4169-0.5776-3.1458-0.5935-4.673-0.024-2.2922 0.019-2.4865 0.7795-3.5719 0.9334-1.3314 1.947-1.7725 4.1239-1.7943 1.6765-0.0168 2.2397 0.38257 1.9828 1.406-0.1357 0.54056-0.3721 0.66068-1.6034 0.81452-1.7641 0.22041-2.6934 0.90443-3.0555 2.2492-0.2757 1.0239-0.1795 2.1082 0.5574 6.2844l0.3362 1.9055 1.0728 0.0788c0.9463 0.0695 1.0825 0.16339 1.1555 0.79596 0.07 0.60663-0.066 0.77908-0.8794 1.1191-0.7144 0.2985-0.9267 0.5226-0.8245 0.87037 0.3815 1.2973 0.4519 2.4476 0.1809 2.954-0.3349 0.62567-0.8774 0.72228-1.2708 0.2263zm-72.402-12.315c-1.4373-2.7795-1.9674-8.5454-2.1211-23.073-0.109-10.292-0.5685-20.823-1.0795-24.739-0.8021-6.1464-1.8625-12.85-2.511-15.875l-0.7943-3.7042 0.091 10.716c0.07 8.222 0.1938 11.435 0.5338 13.806 0.3005 2.0953 0.4197 4.3957 0.3701 7.1438l-0.073 4.0532h-1.8521l-0.1666-5.5562c-0.092-3.0559-0.3559-7.6398-0.5873-10.186-0.2836-3.1204-0.4235-7.586-0.4288-13.695-0.01-8.0568 0.05-9.3239 0.5112-11.396 0.7024-3.1531 0.7359-3.2199 1.6156-3.2199 0.6512 0 0.7927 0.13914 1.0271 1.0096 0.1495 0.55525 0.4006 2.5496 0.5579 4.4318s0.6254 5.1486 1.0401 7.2587c1.0513 5.3481 2.3256 14.725 2.6426 19.447 0.2953 4.3989 0.6875 9.0536 1.0743 12.751 0.14 1.3376 0.2611 6.3977 0.2691 11.245 0.01 5.745 0.1371 9.7339 0.3663 11.459l0.3517 2.6458 0.033-5.8208c0.018-3.2015 0.094-7.1305 0.1693-8.7312 0.075-1.6007 0.2525-5.328 0.3944-8.2827 0.142-2.9548 0.2599-8.7888 0.262-12.965 0-8.5243 0.2702-13.277 1.0459-18.705 0.2945-2.0607 0.5313-5.1381 0.5336-6.936 0-2.8787 0.058-3.2606 0.4967-3.4955 0.9243-0.49466 1.3461 0.18642 1.6263 2.6263 0.1421 1.2369 0.2592 3.2457 0.2603 4.464 0 1.2182 0.1844 3.4804 0.4073 5.0271 0.4272 2.9645 3.28 14.851 3.5644 14.851 0.091 0 0.444-0.50601 0.7834-1.1245 1.6545-3.0143 2.2045-2.8074 3.3241 1.251 0.812 2.9432 3.0786 8.9076 4.4773 11.781l1.1683 2.4004 0.1501-1.201c0.082-0.66058 0.2164-1.7666 0.2976-2.4578 0.2404-2.0483 1.3886-6.1009 2.2211-7.8395 1.1686-2.4404 3.1098-4.9266 3.8467-4.9266 0.334 0 0.688 0.20836 0.7867 0.46302 0.099 0.25466 0.2425 2.4276 0.3196 4.8286 0.151 4.7078 0.4847 6.7236 1.4875 8.9865l0.6407 1.4458 0.1778-1.5781c0.3393-3.0116 1.012-5.2975 2.4108-8.1927 0.7733-1.6007 1.5904-3.3586 1.8156-3.9063 0.5942-1.445 1.1519-1.5425 2.1589-0.37751 1.1126 1.2871 4.5964 7.9292 5.6815 10.832 0.476 1.2733 0.9687 2.3151 1.0949 2.3151s0.2321-0.80367 0.2353-1.7859c0.01-3.1246 0.7506-11.248 1.1876-13.031 0.2317-0.94589 0.8986-4.2186 1.4818-7.2727 1.0214-5.3481 1.4122-6.4856 2.2281-6.4856 0.8633 0 0.9822 0.80033 1.1883 8.0035 0.1666 5.8234 0.3441 8.0751 0.9228 11.708 0.3941 2.4738 0.9716 6.2645 1.2833 8.4236l0.5666 3.9257 1.6929-4.3225c2.9242-7.4665 4.778-11.069 5.6957-11.069 0.8197 0 1.3797 1.5442 2.1489 5.9255 0.4351 2.4784 1.7761 5.8679 2.2143 5.5971 0.142-0.0877 0.5573-1.1386 0.923-2.3353 0.3656-1.1967 1.0174-2.7309 1.4485-3.4094 0.8226-1.2947 2.6843-2.6029 3.7044-2.6029 0.8983 0 1.7857 1.0887 2.2879 2.807 0.7769 2.6579 0.9399 2.9698 1.6891 3.2309 0.738 0.25728 1.0209 0.16881 3.1976-0.99997 0.5093-0.27349 1.9976-0.70121 3.3073-0.95049 2.0392-0.38812 3.0804-0.4197 7.2485-0.21981 4.1901 0.20094 4.9077 0.29783 5.158 0.69643 0.2118 0.33732 0.2106 0.58873 0 0.92605-0.2633 0.41269-0.8096 0.46302-5.0257 0.46302-6.084 0-8.2093 0.35617-11.27 1.8887-1.4965 0.74929-2.9815 0.7984-3.9921 0.13203-1.043-0.6877-1.3678-1.2322-1.9989-3.3514-0.3043-1.0217-0.7152-2.0792-0.9131-2.3499-0.3412-0.46658-0.3904-0.44933-0.9467 0.33191-0.3227 0.45323-0.9315 1.5707-1.3528 2.4832-1.1983 2.5951-3.2888 5.8818-3.8044 5.9811-0.7151 0.13772-1.3372-0.58658-2.5381-2.9549-0.8382-1.6532-1.1602-2.6644-1.3628-4.2794-0.1458-1.1631-0.3263-2.2933-0.4011-2.5116-0.1707-0.49815-0.5439 0.18947-2.2228 4.0958-0.6892 1.6036-1.6214 3.7176-2.0716 4.6978-1.4215 3.0957-1.4565 3.4578-1.2615 13.056l0.1789 8.8034-0.5801 0.18412c-1.0342 0.32825-1.2818-0.44263-1.2818-3.9907 0-1.8711-0.3286-6.0426-0.7861-9.979-0.7582-6.5249-1.0559-8.6308-2.5152-17.793-0.3708-2.3283-0.7547-5.9002-0.8531-7.9375-0.1481-3.0642-0.22-3.5213-0.416-2.6458-0.1303 0.58209-0.5346 2.3085-0.8985 3.8365-0.8897 3.7357-1.4074 8.9771-1.5882 16.081-0.1402 5.5041-0.1845 5.9131-0.6696 6.1726-0.8054 0.43106-1.3792-0.29595-2.0654-2.6168-1.1002-3.7218-3.0802-8.6134-4.8235-11.917l-1.7204-3.2598-1.215 2.2472c-1.6242 3.0039-2.2712 5.0226-2.7263 8.5058-0.5974 4.5726-0.9471 5.4252-2.0511 5.0016-0.3888-0.14921-2.0298-3.544-2.8176-5.829-0.6764-1.9617-1.0466-4.7032-1.0562-7.8222-0.01-2.5381-0.038-2.6907-0.4286-2.1983-0.7559 0.95207-2.2272 4.3528-2.7247 6.2981-0.268 1.0479-0.6203 3.5978-0.7828 5.6665-0.3116 3.9656-0.5537 5.0162-1.2143 5.2696-0.6192 0.23763-1.0432-0.26885-1.8569-2.2184-0.4102-0.98273-1.2748-2.9774-1.9214-4.4326s-1.475-3.4793-1.8408-4.4979c-0.3659-1.0186-1.0127-2.5434-1.4374-3.3884-0.4246-0.84501-0.8663-2.2142-0.9814-3.0427l-0.2094-1.5063-0.7027 1.4552c-0.8428 1.7453-0.8485 1.8926-0.1918 4.9072 0.2839 1.3029 0.6342 3.6786 0.7785 5.2793 0.675 7.4883 0.8709 10.43 0.784 11.774-0.087 1.3394-0.1486 1.4615-0.7783 1.5347-0.3762 0.0437-0.8199-0.0841-0.9859-0.28416-0.166-0.20002-0.7414-2.6766-1.2786-5.5035-0.9247-4.8662-0.9796-5.4567-1.0316-11.093l-0.055-5.9531-1.5985-6.2177c-0.8792-3.4197-1.7511-7.1429-1.9375-8.2738-0.1875-1.1369-0.4243-1.9038-0.5297-1.7154-0.484 0.86487-0.8234 6.4068-0.9196 15.016-0.058 5.166-0.2235 11.655-0.3684 14.42-0.1448 2.7649-0.2645 8.8371-0.2661 13.494 0 8.3788-0.3001 13.758-0.8138 14.718-0.4101 0.76619-1.4862 0.63102-1.9385-0.24347zm107.93-35.335c-0.7577-0.55405-0.3396-1.503 1.1694-2.6537 3.8459-2.933 9.9792-8.4939 19.861-18.008 4.5697-4.3995 9.9643-9.2422 16.528-14.837 3.056-2.6048 7.1636-6.1136 9.1282-7.7974 3.3526-2.8735 7.2539-6.036 11.94-9.6795 3.2731-2.5445 12.185-9.8119 17.054-13.907 2.4863-2.0911 5.8795-4.9454 7.5406-6.3429 1.661-1.3975 5.1037-4.0724 7.6503-5.9442 7.1075-5.2242 11.5-8.9685 18.256-15.563 2.1101-2.0594 5.0456-4.7805 6.5235-6.047 1.4778-1.2665 3.7283-3.2881 5.0012-4.4925l2.3141-2.1898-4.7082-0.13229c-4.1079-0.11542-4.7455-0.19134-4.9999-0.59531-0.2123-0.33727-0.2123-0.58877 3e-4 -0.92604 0.2579-0.40926 0.8722-0.47261 5.2903-0.5456 5.899-0.0975 7.4464 0.14282 8.4273 1.3086l0.6693 0.79538-0.167 7.1914c-0.092 3.9552-0.2779 7.407-0.4133 7.6704-0.3919 0.76229-1.3658 0.46442-1.5665-0.47908-0.2855-1.3422-0.2483-9.9985 0.05-11.612 0.2104-1.1382 0.2027-1.6174-0.031-1.8985-0.3639-0.43849-0.8042-0.11902-3.8228 2.7736-1.0186 0.97616-3.2808 3.0062-5.027 4.5112-1.7463 1.505-4.961 4.494-7.1438 6.6421-5.7131 5.6225-10.183 9.3882-18.918 15.937-2.8377 2.1276-8.1359 6.3842-11.774 9.459-7.4082 6.2613-15.046 12.485-21.564 17.572-2.4011 1.874-7.1636 5.7993-10.583 8.7229-3.4198 2.9236-7.706 6.562-9.525 8.0854-3.7415 3.1334-10.022 8.8671-18.157 16.577-3.0471 2.8878-7.2033 6.7928-9.236 8.6779-2.0328 1.885-4.7813 4.4746-6.1077 5.7547-1.3265 1.28-2.5837 2.3274-2.7937 2.3274-0.2101 0-0.6009-0.16007-0.8684-0.35571zm428.39-92.425c-0.5488-0.54885-0.076-1.1543 1.4773-1.8904 9.4752-4.4912 11.468-5.7128 14.382-8.8148 1.5487-1.6488 8.5929-10.241 10.709-13.063 4.2365-5.6488 8.9094-15.44 10.446-21.887 0.3564-1.4955 1.0121-4.2301 1.457-6.077 1.3589-5.6413 1.6399-9.0545 1.4772-17.941-0.1401-7.6505-0.6969-13.403-1.7507-18.085-0.6255-2.7796-1.8396-5.3194-3.7382-7.8202-1.0381-1.3673-2.6777-3.8072-3.6437-5.4221-2.3543-3.9361-4.3587-6.5476-6.8387-8.9102-2.6838-2.5568-5.1658-4.3938-7.8394-5.8021-1.1876-0.62556-3.3499-1.8774-4.8051-2.7818-1.4552-0.90445-3.5196-2.0836-4.5875-2.6203-3.5825-1.8006-12.302-4.5162-18.696-5.823l-3.9688-0.81113-0.083-0.86171c-0.1562-1.6211 0.6599-1.5309 9.0424 0.9993 11.299 3.4106 15.277 4.9809 20.392 8.0492 1.0282 0.61676 2.8009 1.6299 3.9395 2.2514 5.2632 2.8729 10.679 8.3183 15.121 15.204 0.8263 1.281 2.2663 3.3302 3.2 4.5539 2.989 3.9174 4.0281 6.4988 5.1918 12.898 0.7948 4.3704 0.8282 4.8532 0.9398 13.615 0.1466 11.512-0.132 15.614-1.4041 20.676-1.7281 6.8764-5.2908 16.455-7.9341 21.332-1.4046 2.5914-2.6291 4.2782-6.9915 9.6308-1.8384 2.2556-4.1863 5.2321-5.2177 6.6146-2.1319 2.8574-4.4568 5.1689-6.9596 6.9192-4.8737 3.4084-12.442 6.744-13.317 5.869zm-479.52-12.061c-0.2304-0.30155-0.5478-1.0819-0.9858-2.4233-0.1554-0.47597-0.2063-0.46641-0.8847 0.16611-1.5714 1.4652-2.9878 1.66-4.2636 0.5865-1.0205-0.85864-1.3477-2.0445-1.3495-4.891 0-2.4079 0.2066-2.8972 1.2327-2.8972 0.8708 0 1.1471 0.75518 1.1471 3.136 0 2.4296 0.1386 2.9494 0.7863 2.9494 0.9317 0 1.8005-1.0438 2.527-3.0358 0.8033-2.2024 1.1674-2.6456 1.9656-2.3922 0.4909 0.15578 0.5423 0.38832 0.546 2.4692 0 1.2635 0.1701 3.0026 0.3729 3.8646 0.2377 1.0106 0.2855 1.786 0.1347 2.1828-0.2557 0.67235-0.8308 0.80563-1.2287 0.28473zm-19.516-0.39688c-0.1-0.25466-0.2842-3.0229-0.4104-6.1516s-0.4372-7.1375-0.6911-8.9085c-0.3823-2.6666-0.402-3.2918-0.1146-3.638 0.4142-0.49909 1.491-0.55217 1.7781-0.0877 0.3256 0.52675 0.8531 5.9017 0.8699 8.8638 0.014 2.4793 0.2498 3.3328 0.6397 2.3166 0.2962-0.77188 1.8336-1.4547 3.2776-1.4557 1.2204-8.7e-4 1.5145 0.11304 2.4319 0.94187 1.3688 1.2366 1.9663 2.8158 1.8217 4.8147-0.1827 2.5254-1.4928 3.7698-3.9629 3.7642-1.0086-2e-3 -1.737-0.18765-2.5389-0.64611-0.6184-0.35362-1.1245-0.53928-1.1245-0.41259 0 0.40364-0.8142 1.0619-1.3135 1.0619-0.2651 0-0.5634-0.20836-0.663-0.46302zm6.6802-2.3301c1.2583-0.88138 0.3935-4.6152-1.069-4.6152-1.1811 0-2.2876 1.2458-2.8508 3.2095-0.1909 0.66551-0.1155 0.77285 0.8929 1.272 1.3155 0.65117 2.2304 0.69159 3.0269 0.13371zm62.699 2.2428c-0.8531-0.49692-0.4772-1.3422 1.7934-4.0324 3.55-4.2061 4.4972-6.6208 4.3116-10.992-0.1058-2.4924-0.4848-3.5322-1.584-4.3454-1.4081-1.0418-3.3325 0.35504-4.2975 3.1195-0.4664 1.3359-0.6626 1.6001-1.2383 1.667-0.9408 0.10936-1.4004-0.52127-1.1915-1.6349 0.2893-1.542 1.729-4.0797 2.8674-5.0541 0.9812-0.83993 1.2428-0.93119 2.6689-0.93119 2.0022 0 3.0085 0.70284 4.0479 2.8273 1.4498 2.9633 1.0985 8.3761-0.7829 12.063l-0.8403 1.6465 1.2039 6.1e-4c0.9685 4.9e-4 1.5411 0.22033 2.9289 1.1245 0.9487 0.61813 1.8714 1.1239 2.0504 1.1239s0.6839 0.1854 1.1221 0.412c0.6298 0.32569 0.7795 0.5595 0.7145 1.116-0.067 0.57165-0.2697 0.74806-1.0794 0.93837-1.3364 0.31411-1.9823 0.11395-3.3158-1.0274-2.0288-1.7366-3.0949-1.5836-6.8179 0.97815-2.0801 1.4313-1.9263 1.3712-2.5614 1.0013zm-18.327-0.77972c-0.201-0.3253-0.8773-5.1597-1.1056-7.9038-0.1425-1.7118-0.1015-2.0027 0.3257-2.3151 0.2687-0.19651 0.6359-0.35729 0.816-0.35729 0.5858 0 1.159 0.81291 1.159 1.6436v0.8121l1.066-1.2111c1.2174-1.383 3.8686-2.8322 5.1815-2.8322 1.1296 0 2.1684 0.48182 2.3634 1.0961 0.2457 0.7742-0.037 0.95639-1.7974 1.1571-2.0041 0.22855-2.3935 0.41185-3.8456 1.81-1.2903 1.2424-1.776 2.5441-2.0593 5.5191-0.1009 1.0599-0.2913 2.1355-0.4231 2.3901-0.2596 0.5017-1.408 0.63239-1.6806 0.19127zm-9.8799-0.54895c-2.0415-1.0372-3.4692-3.6701-3.0921-5.7022 0.3888-2.0957 3.6347-4.325 6.2971-4.325 1.3369 0 2.5783 1.1431 2.5783 2.374 0 2.1172-1.5689 3.2588-4.2999 3.1287-1.5869-0.0756-1.6566-0.10811-1.7374-0.81085-0.1255-1.0924-0.5773-0.59013-0.5773 0.64187 0 0.86494 0.1733 1.2425 0.9074 1.9765l0.9073 0.90734 2.0938-0.17462c1.7949-0.14969 2.1174-0.11303 2.2593 0.25683 0.6671 1.7384-2.9869 2.9212-5.3365 1.7274zm2.8475-7.1086c0.3832-0.21523 0.3815-0.25284-0.018-0.40698-0.2424-0.0934-0.9568 0.0777-1.5875 0.38033l-1.1468 0.55015 1.1652-0.14317c0.6408-0.0787 1.3552-0.24989 1.5875-0.38033zm-18.7 7.0694c-0.2085-0.25601-0.8537-3.4935-0.8537-4.284 0-0.0813-0.5212-0.14776-1.1582-0.14776-1.3317 0-1.8886-0.47866-1.6523-1.4202 0.1593-0.63478 0.8087-0.95064 1.9685-0.95748 0.4576-3e-3 0.5792-0.12102 0.4796-0.46663-2.5459-8.8272-2.3776-11.351 0.7749-11.625 0.719-0.0625 1.8431 0.0467 2.4979 0.24255 0.9982 0.29856 1.2044 0.47471 1.2759 1.0896 0.1464 1.2592-0.3105 1.5149-2.3657 1.3239l-1.8206-0.16921v0.77563c0 0.71231 1.736 8.5896 1.9088 8.6616 1.2575 0.5236 1.7043 1.6862 0.7445 1.9372-0.4554 0.1191-0.5334 0.2846-0.4065 0.86257 0.2416 1.0998 0.2684 3.8124 0.041 4.1797-0.2619 0.42365-1.0884 0.42206-1.4345-3e-3zm7.6748-0.26458c-0.1471-0.1819-0.4197-1.0196-0.6058-1.8617l-0.3383-1.5309-1.0954 0.16426c-1.2479 0.18714-1.8254-0.24072-1.6806-1.2452 0.061-0.42488 0.3953-0.71313 1.1447-0.98748 0.5821-0.21309 1.1038-0.42168 1.1593-0.46353 0.056-0.0419-0.1793-1.2412-0.5218-2.6651-0.4003-1.6646-0.6253-3.4075-0.63-4.8813-0.01-2.1319 0.049-2.3726 0.7972-3.4396 0.9334-1.3309 1.9475-1.772 4.1239-1.7938 1.6765-0.0168 2.2397 0.38257 1.9829 1.406-0.1357 0.54056-0.3722 0.66068-1.6034 0.81452-3.3329 0.41642-3.7646 1.9237-2.4668 8.6124l0.3337 1.7198h1.0584c0.954 0 1.0665 0.0707 1.141 0.71713 0.07 0.60771-0.065 0.77908-0.8889 1.1231-0.8036 0.33575-0.9469 0.50917-0.8284 1.0026 0.4139 1.7239 0.4674 2.5722 0.1943 3.0824-0.335 0.62594-0.8752 0.72175-1.276 0.2263zm460.99-8.5512c-0.6832-0.68317-0.1022-1.2436 2.1391-2.0634 4.7794-1.7482 6.9644-3.1788 9.6103-6.2923 0.9089-1.0695 1.794-2.0637 1.9669-2.2092 0.6878-0.57889 4.1498-5.7087 5.5431-8.2134 2.0367-3.6614 4.9354-10.011 6.159-13.491 1.0148-2.8864 1.0199-2.9212 0.9823-6.7379-0.024-2.4799-0.2338-5.0251-0.5922-7.198-0.6325-3.834-2.6759-12.73-3.5127-15.292-1.2363-3.7846-4.2743-8.9357-6.8803-11.666-1.9641-2.0575-7.298-5.965-10.145-7.4318-2.8176-1.4517-9.8724-4.0055-13.075-4.733-4.3576-0.98985-4.2957-0.96165-4.2034-1.9156 0.07-0.72583 0.1951-0.85568 0.8874-0.92345 1.1521-0.11278 13.329 4.115 17.18 5.965 3.5812 1.7203 8.4802 5.1942 10.59 7.5095 2.5917 2.844 6.562 9.489 7.8279 13.101 0.5723 1.6334 1.5021 5.6626 3.0743 13.323 0.8488 4.1358 0.9522 5.0823 0.9681 8.8635 0.017 4.112-0.01 4.3085-0.8589 6.8542-1.6733 5.0022-6.1867 14.788-8.432 18.281-2.6319 4.0951-8.5253 10.369-11.288 12.016-1.8149 1.0821-5.8279 2.6478-6.8178 2.6601-0.3898 5e-3 -0.8955-0.17808-1.1239-0.40647zm-64.71-0.12477c-0.9459-0.11429-4.9345-0.34492-8.8635-0.51252-3.9291-0.16759-8.3939-0.48781-9.9219-0.7116-5.8227-0.85278-27.749-0.69488-30.083 0.21664-0.7361 0.28745-0.9154 0.26835-1.3736-0.14635-0.5123-0.46363-0.5301-0.90619-0.6362-15.862-0.087-12.274-0.4669-23.612-0.7999-23.883-0.026-0.0214-1.1194 0.18057-2.4291 0.44889-1.5493 0.31742-3.6291 0.49822-5.9531 0.51754-1.9645 0.0163-4.2267 0.13705-5.0271 0.26827-0.8003 0.13122-3.6578 0.42158-6.35 0.64524-2.6921 0.22365-6.3235 0.65788-8.0698 0.96495-5.1778 0.91048-6.7783 1.041-14.626 1.1923l-7.4821 0.1443-0.9201 1.4384c-1.2577 1.9662-2.6832 3.4745-5.9006 6.2435-3.0843 2.6545-3.8863 3.0916-4.5165 2.4615-0.5809-0.58093-0.3459-0.87552 3.2765-4.107 2.6957-2.4049 5.4255-5.3449 5.4289-5.847 0-0.24083-63.814-0.12112-64.452 0.1209-0.3843 0.14587-0.6905 0.0763-0.9921-0.22536-0.4811-0.48108-0.5905-1.8595-0.1684-2.1204 0.1475-0.0911 15.298-0.15655 33.668-0.14543l33.4 0.0202-2.9935-1.2993c-3.9317-1.7065-7.1654-3.6632-7.3644-4.4561-0.1815-0.7229 0.3032-1.3933 1.0072-1.3933 0.2785 0 1.2831 0.59534 2.2324 1.323 0.9494 0.72764 2.7608 1.804 4.0253 2.3919 3.3158 1.5415 3.566 1.698 4.1513 2.5963l0.5292 0.81221 6.4923 0.0102c7.0287 0.011 10.251-0.27916 16.154-1.4547 1.9508-0.38848 4.4399-0.8131 5.5313-0.94361 1.0914-0.1305 2.9369-0.35054 4.1011-0.48897 1.1641-0.13842 2.9501-0.37266 3.9687-0.52052 1.0187-0.14785 2.9832-0.27368 4.3656-0.27962 2.1619-9e-3 8.4077-0.6531 8.6458-0.89121 0.045-0.0446-0.033-3.9416-0.1726-8.6602-0.2505-8.4738-0.3824-9.9138-1.9884-21.714-0.2305-1.6942-0.385-4.254-0.3431-5.6885 0.071-2.4386 0.113-2.6134 0.6444-2.6892 0.3126-0.0446 0.6264-0.30312 0.6974-0.57458 0.093-0.3571 0.4808-0.5463 1.4011-0.68431 1.6383-0.24568 6.4568 0.0324 9.504 0.54838 1.3097 0.22178 4.2862 0.5127 6.6146 0.64648 2.3283 0.13378 5.543 0.42475 7.1437 0.6466s5.5893 0.59138 8.8636 0.82119c3.2742 0.22981 6.1048 0.47006 6.2902 0.5339 0.1855 0.0638 5.0075 0.12301 10.716 0.13151 10.99 0.0164 12.605-0.10429 21.211-1.5851 3.9531-0.6802 8.1686-1.043 13.112-1.1286 4.2259-0.0732 5.0814 0.15142 6.0168 1.5797 0.4928 0.75237 0.5205 3.115 0.543 46.242 0 6.4029 0.1503 15.176 0.3266 19.497l0.3205 7.8549-0.5861 1.2108c-0.3982 0.82249-0.9387 1.4169-1.6853 1.8532-1.3202 0.77169-5.2841 1.9029-11.55 3.2963-2.5466 0.5663-4.9653 1.1602-5.375 1.3198-0.8635 0.33648-16.998 0.34856-19.76 0.0148zm18.256-2.1502c0.8003-0.14867 2.2886-0.49875 3.3073-0.77795 1.0186-0.2792 2.626-0.62742 3.5718-0.77383 0.9459-0.1464 3.5626-0.69853 5.8149-1.2269 4.7049-1.1038 5.3939-1.534 5.6861-3.55 0.093-0.64212 0.024-9.7995-0.1539-20.35-0.1777-10.55-0.3924-26.307-0.4772-35.015l-0.1542-15.832-0.5782-0.46802c-0.4732-0.38301-1.3383-0.50093-4.7625-0.64917-4.5649-0.19761-7.0237-7e-3 -13.14 1.0176-3.6448 0.6107-8.335 1.2394-11.814 1.5836-2.8933 0.28625-19.96 0.22475-22.357-0.0806-1.3097-0.16681-4.1672-0.47642-6.35-0.68803-2.1828-0.2116-5.4571-0.56656-7.2761-0.7888s-4.4589-0.4051-5.8665-0.40636c-1.4076-1e-3 -4.5628-0.29886-7.0115-0.66132s-5.423-0.66012-6.6095-0.66146l-2.1574-2e-3 -0.1865 2.7373c-0.1889 2.7703-0.065 4.3789 0.9169 11.947 0.8461 6.5191 1.1746 10.976 1.8621 25.268 0.1505 3.1287 0.4508 7.2604 0.6672 9.1816 0.2945 2.6139 0.3936 6.6972 0.3936 16.224v12.73l0.5953-0.20506c1.0646-0.36673 24.61-0.10193 27.98 0.31468 4.9124 0.60731 9.5644 0.91168 14.26 0.933 2.4164 0.011 5.4054 0.17638 6.6424 0.36758 2.5954 0.4012 14.775 0.28269 17.198-0.16734zm-42.986-13.023c-2.1992-4.0345-5.6046-11.341-7.3172-15.699-0.9278-2.3611-1.7608-4.2958-1.851-4.2995-0.5205-0.0211-1.2558 6.981-1.5136 14.413l-0.1744 5.0271h-1.8521l-0.086-2.1167c-0.1656-4.0832 1.0447-16.187 2.0108-20.108 0.4344-1.7632 0.4958-1.8559 1.2777-1.9321 0.7555-0.0736 0.8642 0.0218 1.3562 1.1906 0.2942 0.69887 0.9252 2.4613 1.4023 3.9165 1.5279 4.6604 4.479 11.296 6.8019 15.295l1.0462 1.8008 0.1583-2.7268c0.087-1.4998 0.4754-4.2151 0.8631-6.0341 0.5153-2.4183 0.7413-4.394 0.8408-7.3502 0.1243-3.6922 0.1818-4.0674 0.6637-4.3253 0.9714-0.51984 1.3256 0.24112 1.4551 3.1254 0.099 2.1963-0.015 3.2297-0.7346 6.698-0.7382 3.5561-0.8681 4.7866-0.9777 9.2604-0.07 2.8377-0.2371 5.3677-0.3724 5.6224-0.1481 0.27867-0.5528 0.46302-1.0166 0.46302-0.6937 0-0.8913-0.22155-1.9806-2.2198zm13.75 1.01c-1.2245-0.63685-1.9422-1.4132-3.0926-3.3452-2.6562-4.461-3.9411-10.457-3.1428-14.666 0.8599-4.5345 3.2162-7.2787 6.593-7.6787 0.9558-0.11319 1.3304-0.0479 1.6018 0.27919 0.1968 0.23705 0.7477 0.42694 1.2388 0.42694 1.254 0 2.5929 1.256 3.2711 3.0686 0.4384 1.1718 0.5418 2.0676 0.5402 4.6804 0 4.0694-0.2629 5.6753-1.7443 10.76-1.3186 4.5258-1.9962 5.9666-3.0664 6.52-0.9096 0.47036-1.2198 0.46399-2.1988-0.0452zm1.9694-3.6607c1.6027-2.5933 2.721-7.7148 2.7493-12.592 0.018-3.0613-0.057-3.742-0.52-4.7625-0.6325-1.3925-0.9112-1.638-2.3878-2.1031-2.4149-0.76069-4.5646 0.6284-5.5275 3.5716-0.7584 2.3184-0.7125 6.9308 0.097 9.757 0.7316 2.5538 1.9933 5.1483 3.1749 6.5287 1.0184 1.1898 1.4787 1.1136 2.414-0.39968zm7.1693 1.8405c-0.3758-0.4528-0.1238-1.4679 0.3644-1.4679 0.2412 0 0.388-0.74532 0.5078-2.5797 0.4049-6.195 0.5002-10.533 0.3167-14.418-0.1958-4.1466-0.1993-4.1646-0.7923-4.0158-1.2838 0.32221-2.0435-1.6775-0.8749-2.3029 1.0597-0.56712 4.2707-1.2809 5.7833-1.2855 2.0654-6e-3 4.4498 1.1984 5.6803 2.8701 1.0443 1.4187 1.9687 3.6763 1.9687 4.8082 0 0.4311 0.097 0.78382 0.2162 0.78382 0.4865 0 1.1134 3.9016 1.1101 6.9082 0 2.9367-0.041 3.1441-0.8535 4.72-1.0785 2.0912-3.2998 4.1684-5.7898 5.414-1.8074 0.90423-2.0269 0.94945-4.608 0.94945-2.0465 0-2.7883-0.0941-3.029-0.38418zm6.4366-2.6298c2.105-1.0299 3.9666-2.8147 4.9147-4.712 1.0847-2.1708 1.0876-4.1097 0.012-8.3296-1.345-5.2778-2.7116-7.218-5.4499-7.7373-1.9015-0.36061-2.3899-0.17239-2.583 0.99536-0.088 0.53318-0.1707 4.1841-0.1835 8.1132-0.013 3.9291-0.1669 8.3768-0.3427 9.8839l-0.3196 2.7402 1.246-0.11973c0.6854-0.0659 1.903-0.44111 2.7058-0.8339zm12.864 1.9492c-0.12-0.22426-0.2734-4.2734-0.3408-8.9981-0.1165-8.1612-0.1586-8.749-0.8434-11.765-0.949-4.1803-0.9562-4.4304-0.1353-4.6721 1.5983-0.4706 8.1082-1.281 10.29-1.281 2.1205 0 2.4234 0.0599 2.6745 0.52917 0.2012 0.37597 0.2012 0.68236 0 1.0583-0.2471 0.46173-0.554 0.52917-2.4082 0.52917-1.7805 0-8.9016 0.90285-9.1601 1.1614-0.044 0.0442 0.087 0.48554 0.2915 0.98082 0.5377 1.3024 0.9801 3.6572 1.1803 6.2826l0.1746 2.2909 2.9104 0.16478c1.6008 0.0906 2.9481 0.17992 2.9942 0.19843 0.046 0.0185 0.046 0.35968 0 0.75814-0.071 0.61671-0.2412 0.75218-1.1421 0.91079-0.5821 0.10248-1.862 0.19318-2.8443 0.20157l-1.7859 0.0153v5.3073c0 3.7308 0.085 5.2549 0.2856 5.1308 0.157-0.0971 1.3179-0.27663 2.5797-0.39903 1.2617-0.1224 3.0085-0.29851 3.8816-0.39136 1.2161-0.12933 1.7113-0.0742 2.1166 0.23562 0.4245 0.32443 0.4713 0.49914 0.2364 0.88297-0.7014 1.1459-10.396 1.9149-10.955 0.86902zm-55.559-31.776c-1.536-0.61068-2.6906-2.4925-1.8486-3.0129 0.1474-0.0911 0.9283 0.15737 1.7353 0.55219 1.4035 0.68668 1.5323 0.70329 2.9655 0.38256 3.4957-0.78231 4.3655-3.8681 1.4415-5.1143-0.5425-0.23122-1.9984-0.72192-3.2353-1.0904-1.237-0.36853-2.637-0.90954-3.1113-1.2022-2.9968-1.8495-2.2997-5.9263 1.3308-7.783 2.8111-1.4377 7.3433-1.1784 7.3327 0.41949-0.01 1.0999-0.3664 1.3711-1.4909 1.1263-3.5632-0.77579-6.9718 0.62575-6.9718 2.8666 0 1.0352 1.7451 2.3015 3.7042 2.6879 1.9221 0.37912 4.2793 1.2769 5.0454 1.9215 3.5751 3.0082 0.561 8.5796-4.6126 8.5262-0.8929-9e-3 -1.9211-0.13512-2.2849-0.27976zm25.595-0.25555c-0.7246-0.42191-1.7004-2.5891-2.1412-4.7552-0.561-2.7567-0.888-12.271-0.4403-12.811 0.4239-0.51076 1.5624-0.52399 1.7557-0.0204 0.081 0.21028 0.1708 2.7999 0.2003 5.7547 0.057 5.6972 0.4945 8.5115 1.4872 9.5627 0.4438 0.46988 0.4915 0.45782 1.4222-0.35933 0.5567-0.48876 1.4164-1.7606 2.0376-3.0141 1.0615-2.1422 1.0768-2.2148 1.2554-5.9627 0.1489-3.1231 0.2588-3.8432 0.6217-4.0713 0.3193-0.20076 0.5564-0.1813 0.8599 0.0706 0.6878 0.57086 0.596 7.1778-0.13 9.3533-0.7113 2.1313-1.643 3.7146-3.1067 5.2794-1.0422 1.1142-1.3056 1.2597-2.2674 1.2526-0.5986-4e-3 -1.2981-0.13018-1.5544-0.27945zm19.318-1.5858c-0.2645-0.15409-0.463-0.5837-0.463-1.0023 0-1.3055-0.7963-3.459-1.6303-4.4089-1.0441-1.1891-4.1227-2.9433-4.5013-2.5648-0.1496 0.14964-0.337 1.7773-0.4165 3.617-0.1251 2.8974-0.21 3.38-0.6346 3.6073-0.3296 0.17641-0.6635 0.16957-1.0194-0.0209-0.6292-0.33675-0.6746-1.3135-0.2275-4.8948 0.1635-1.3097 0.3113-2.869 0.3285-3.4651 0.017-0.59612 0.1667-1.251 0.3321-1.4552s0.6719-1.2643 1.1257-2.3557c1.7423-4.1912 3.1045-5.8175 4.8748-5.8198 1.6128-2e-3 2.5416 0.93953 2.5539 2.5892 0.015 2.0997-1.7004 4.3092-4.4364 5.7125l-1.1374 0.58341 1.6422 0.78245c2.2202 1.0578 3.7313 2.5752 4.4335 4.452 0.6058 1.6193 0.7354 3.5871 0.2909 4.4176-0.3094 0.5781-0.4587 0.60836-1.1152 0.226zm-3.3792-13.267c0.9408-0.7305 1.5895-1.812 1.5916-2.6531 0-0.97654-0.5702-0.93538-1.4446 0.10386-0.6331 0.75232-1.9933 3.1644-1.9933 3.5347 0 0.19922 1.0257-0.34823 1.8463-0.98542zm-27.91 12.412c-1.2417-1.2417-1.5388-2.6158-1.3836-6.4002 0.1401-3.4179 0.8794-6.1263 1.7429-6.3852 0.2405-0.0721 0.9267-0.37982 1.525-0.68382 2.7223-1.3833 5.4002 0.61748 5.3889 4.0263-0.013 4.0163-1.0529 7.458-2.777 9.1943-1 1.0072-1.2471 1.1245-2.3684 1.1245-1.0643 0-1.3832-0.13125-2.1278-0.87588zm3.314-1.7755c1.0431-1.4648 1.6279-3.6462 1.6734-6.2419 0.036-2.0471-0.036-2.5085-0.4616-2.982-0.5021-0.55803-1.3145-0.70867-2.1314-0.3952-0.7347 0.28191-1.4752 2.1425-1.774 4.4575-0.3563 2.7599-0.1239 4.4944 0.7144 5.3327 0.8322 0.83212 1.2933 0.79226 1.9792-0.17108zm31.879 1.456c-1.207-0.6525-1.7484-1.2166-2.2811-2.3765-0.6025-1.3122-0.6222-2.5265-0.071-4.3838 0.641-2.1604 1.5312-3.7454 2.6935-4.7954 1.3003-1.1748 2.6071-1.6218 4.8176-1.6482l1.7198-0.0205 0.082 0.99219c0.078 0.94504 0.044 0.99219-0.7145 0.99219-3.3191 0-5.3977 1.5801-6.191 4.7063-0.7447 2.9344 0.2111 4.7442 2.3255 4.403 2.2447-0.36219 2.904-0.29066 2.9917 0.3246 0.2162 1.5173-3.5589 2.7865-5.3724 1.8062zm11.968-0.3211c-0.2566-0.0612-0.6733-0.48912-0.926-0.95102-0.3756-0.68658-0.4628-1.5639-0.4778-4.8086-0.01-2.1828 0.072-4.0919 0.1835-4.2425 0.1111-0.15057 0.3183-1.6276 0.4605-3.2823 0.3729-4.3398 1.0438-5.0458 4.9959-5.2571 2.3863-0.12758 2.9774 0.10214 2.9774 1.157 0 0.81643-0.2385 0.92819-2.296 1.0755-3.0867 0.22101-3.7894 1.007-3.7894 4.2388v1.6803h2.3489c2.4719 0 3.0839 0.26256 2.8953 1.242-0.1118 0.58011-1.0499 0.80177-3.5695 0.84334l-1.8971 0.0313-0.1618 1.7859c-0.089 0.98226-0.2594 2.3492-0.3788 3.0377-0.1195 0.68846-0.1791 1.2898-0.1326 1.3363 0.046 0.0465 0.9954-2e-3 2.1088-0.10883 2.3985-0.2291 3.3605 0.032 3.2369 0.87858-0.064 0.43997-0.37 0.6513-1.2751 0.88113-1.4721 0.37381-3.6794 0.61098-4.3031 0.46235zm-476.86 50.437c-0.3392-0.5489-0.6235-4.8622-0.9049-13.731-0.1989-6.27-0.4757-10.489-0.946-14.42-0.9293-7.7667-1.1239-10.625-1.4326-21.034-0.1489-5.0205-0.3006-10.081-0.3371-11.245l-0.066-2.1167-0.593 1.7198c-0.3261 0.94589-1.2107 4.875-1.9657 8.7312l-1.3728 7.0115-0.1084 13.891c-0.07 9.0078-0.2045 14.007-0.3818 14.221-0.5203 0.62955-1.4911 0.38243-1.9449-0.49508-0.712-1.3768-1.6817-5.6647-1.9682-8.7036-0.2895-3.0692-0.8908-5.4185-2.665-10.411-0.8416-2.3685-1.1749-3.0337-1.3569-2.7084-0.4987 0.89113-1.2694 5.8232-1.2694 8.1237 0 1.3141-0.1232 2.6196-0.2739 2.901-0.3061 0.57206-1.3038 0.68034-1.7898 0.19427-0.7791-0.77904-0.1837-6.291 1.3088-12.117 1.616-6.3078 2.2886-5.8465 5.6722 3.8899 1.6155 4.6487 2.1638 6.9722 2.6717 11.322 0.1509 1.2922 0.2613-1.5473 0.3654-9.3927l0.1492-11.245 0.9639-4.7625c0.5301-2.6194 1.1525-5.8706 1.3829-7.225 0.7305-4.2925 1.524-6.8445 2.5262-8.1243 1.1088-1.4158 2.2451-1.6418 2.5308-0.50341 0.094 0.37606 0.1931 6.1208 0.2193 12.766 0.051 13.004 0.3473 17.904 1.5927 26.37 0.364 2.4738 0.6808 5.3314 0.704 6.35 0.042 1.8154 0.047 1.8002 0.2578-0.76265 0.2818-3.4206 0.711-5.4226 2.4533-11.445 0.9502-3.2841 1.6401-6.3476 2.0176-8.9593 0.5613-3.8832 2.0767-10.528 2.7908-12.237 0.3737-0.8945 1.2141-1.1678 1.6274-0.52917 0.1178 0.18191 0.2284 4.1407 0.2459 8.7974 0.034 8.9959 0.1316 10.114 1.6665 19.05l0.7726 4.4979 0.021-3.7423c0.05-8.7943 1.5994-15.489 4.1138-17.777 0.9435-0.85863 1.93-1.0954 2.1117-0.50697 0.056 0.18191 0.1736 3.155 0.261 6.6069 0.211 8.3375 0.684 10.932 2.8499 15.631l0.8385 1.8192 1.4152-5.7776c1.1158-4.5556 1.666-6.2812 2.6014-8.1588 0.6524-1.3097 1.4221-3.3716 1.7104-4.582 1.0129-4.2526 1.2568-4.2636 3.9914-0.18053 0.5848 0.87312 1.3513 1.989 1.7035 2.4796 0.6783 0.94508 2.3529 5.969 2.6572 7.9714 0.1 0.65484 0.5993 1.8768 1.1107 2.7154l0.9298 1.5248 0.9196-1.8243c1.0246-2.0326 2.4133-3.9741 4.6688-6.5272 2.105-2.3828 2.7509-2.2922 3.3164 0.4653 0.4579 2.2327 1.7072 4.5754 2.6477 4.965 0.9916 0.41073 1.8897 0.12413 4.9721-1.5867 3.2179-1.786 4.1067-1.963 8.617-1.7161 4.5083 0.24681 7.1251 0.24608 11.689-3e-3 3.2274-0.17632 3.4812-0.15442 4.101 0.35389 0.5403 0.44301 0.6074 0.6293 0.3683 1.0214-0.2473 0.40563-0.8594 0.51587-3.9687 0.71476-4.5384 0.29031-8.2606 0.30004-12.441 0.0325-4.4677-0.28592-5.1455-0.13867-8.2112 1.7837-2.2056 1.383-2.8161 1.6435-4.0552 1.7305-1.295 0.0909-1.5839 0.0111-2.5756-0.71147-1.2022-0.87598-2.6125-3.063-2.8802-4.4663-0.1391-0.7292-0.2276-0.8151-0.5577-0.54118-0.7162 0.5944-2.607 3.233-3.7413 5.2209-1.5303 2.6819-2.4036 3.6853-3.2277 3.7086-0.578 0.0163-0.8874-0.33587-2.1343-2.4292-1.2973-2.178-1.5668-2.9011-2.4411-6.5484-0.9312-3.8854-1.0504-4.1869-2.2758-5.7571l-1.2931-1.657-0.3136 0.99551c-0.1725 0.54753-0.7677 1.7736-1.3226 2.7246-1.2443 2.1324-1.8182 3.839-2.8885 8.5897-1.0953 4.8615-1.8423 7.587-2.1965 8.0138-0.9102 1.0967-2.3117-0.78414-4.0682-5.4597-1.5007-3.9946-1.9541-6.7476-2.1812-13.244l-0.1998-5.7138-0.5773 1.2221c-1.6535 3.5008-2.4351 8.8855-2.4342 16.77 6e-4 5.2658-0.4541 11.723-0.8616 12.237-0.421 0.53048-1.2494 0.38351-1.4914-0.26458-0.1222-0.32742-0.3677-2.5598-0.5455-4.9609-0.1778-2.4011-0.6658-6.3897-1.0844-8.8635-1.2266-7.2492-1.5884-10.531-1.765-16.007-0.1853-5.7504-0.1963-5.743-1.377 0.92604-0.438 2.4738-1.2805 6.1053-1.8721 8.0698-2.5001 8.3007-2.5943 9.0131-2.8928 21.873-0.1544 6.6533-0.346 10.561-0.5351 10.914-0.3159 0.59029-1.4405 0.7564-1.7484 0.25825zm239.2-3.997c-1.7463-0.1284-5.0969-0.46599-7.4459-0.75019-3.2022-0.38744-5.9593-0.51673-11.019-0.51673-5.5474 0-7.2354-0.091-9.4875-0.51122-1.5067-0.28117-3.1926-0.58547-3.7464-0.67621-0.5539-0.0907-1.2476-0.40558-1.5416-0.69963-0.5024-0.50242-0.5245-0.75258-0.3653-4.1524 0.1884-4.0261 0.6894-10.86 1.4679-20.022 0.6221-7.3212 0.6413-8.8348 0.1246-9.8255-0.2174-0.41682-0.396-1.3125-0.3969-1.9904 0-1.0658 0.1567-1.4268 1.1681-2.6685 0.6434-0.78978 1.7733-2.4579 2.5111-3.7068 2.3146-3.9188 6.9395-10.605 9.3761-13.555 3.3072-4.0042 2.8032-3.8503 11.682-3.5666 12.26 0.39171 31.789 0.30136 35.454-0.16402 6.9571-0.88345 8.0698-0.84263 8.0698 0.29603 0 0.36301-0.1434 0.88965-0.3187 1.1703-0.2495 0.39949-0.2384 1.6196 0.051 5.6188 0.4843 6.6898 0.6935 34.311 0.2707 35.745-0.1928 0.6544-1.0502 1.8054-2.4645 3.3085-1.1928 1.2678-3.001 3.257-4.0182 4.4204s-2.7627 3.0944-3.8789 4.2908c-1.1163 1.1965-2.392 2.8038-2.8349 3.5719-1.2803 2.2203-2.1311 2.7535-6.424 4.0259-2.1561 0.63903-2.5961 0.67541-7.6729 0.63436-2.9622-0.024-6.8145-0.14862-8.5607-0.27703zm15.387-2.5434c3.0825-1.0187 3.8604-1.4277 4.3087-2.2652 0.517-0.96602 0.5741-21.051 0.066-23.181-0.1909-0.80037-0.5205-2.7649-0.7325-4.3656-0.7602-5.741-0.7567-5.6504-0.2397-6.2217 0.2614-0.28886 0.5461-0.52338 0.6327-0.52115 0.4455 0.0115 0.8516 0.51901 0.9667 1.208 0.071 0.42478 0.2402 1.3676 0.376 2.0952 0.1358 0.7276 0.3724 2.4147 0.5259 3.7492 0.1534 1.3344 0.3967 3.0473 0.5406 3.8064 0.144 0.7591 0.2618 4.7988 0.2618 8.9771 0 4.1783 0.077 8.5129 0.172 9.6326l0.1721 2.0357 0.7883-0.73899c0.4336-0.40644 1.8957-2.0487 3.2491-3.6494 1.3535-1.6007 3.4922-4.101 4.7527-5.5562 1.2606-1.4552 2.428-2.9435 2.5944-3.3073 0.2127-0.46526 0.3111-4.5856 0.3316-13.891 0.029-13-0.1212-17.533-0.7159-21.652l-0.2992-2.0728-1.2525 1.9405c-0.6889 1.0673-1.5653 2.4952-1.9476 3.173s-2.285 3.3568-4.2282 5.9531c-3.6237 4.8416-7.4898 8.9194-8.7585 9.2378-0.3711 0.0931-2.1342 0.0214-3.9181-0.15953-3.4119-0.34597-10.527-0.18964-12.504 0.27474-2.5259 0.59343-6.1301 1.0581-10.305 1.3284-2.4663 0.15973-4.5936 0.35804-4.7273 0.44069-0.1337 0.0827-3.4553 0.24529-7.3814 0.36142-3.926 0.11613-7.1805 0.25345-7.2322 0.30517-0.052 0.0517-0.2766 2.2926-0.4998 4.9797-0.2231 2.6871-0.5831 6.6716-0.7998 8.8544-0.2168 2.1828-0.4672 6.1119-0.5566 8.7312-0.09 2.6365-0.332 5.4624-0.5424 6.3303-0.2089 0.86231-0.2877 1.6569-0.175 1.7657s1.9415 0.5046 4.064 0.87955c3.4567 0.61066 4.5464 0.6819 10.451 0.68328 3.6256 8.4e-4 7.3063 0.12021 8.1794 0.26526 0.8732 0.14505 4.0283 0.45537 7.0115 0.68959s6.436 0.52185 7.6729 0.63917c3.9709 0.37663 6.9827 0.14206 9.6981-0.75533zm-11.474-2.0651c-1.2557-0.61917-1.9582-2.2485-1.8679-4.3328 0.096-2.2099 0.4076-2.4006 2.5907-1.5842 2.0136 0.75303 3.699 2.2464 3.699 3.2775 0 1.124-0.7435 2.2828-1.7288 2.6945-1.1404 0.47647-1.6355 0.46634-2.693-0.0551zm2.1409-2.335c-0.1691-0.44058-0.8941-0.76539-0.8941-0.40055 0 0.14095 0.1191 0.25628 0.2646 0.25628s0.2646 0.18562 0.2646 0.41249 0.1139 0.34212 0.253 0.25611c0.1392-0.086 0.1895-0.32196 0.1119-0.52433zm-23.49 1.0958c-0.8229-0.82288-1.1062-2.7388-0.5883-3.9784 1.1828-2.8309 6.0111-2.0521 5.981 0.96476-0.01 0.8977-0.9249 2.7124-1.6119 3.1936-0.9597 0.67221-3.027 0.57377-3.7808-0.18004zm-1.2625-10.283c-1.2039-0.698-1.9496-1.9894-1.707-2.956 0.1273-0.5074 0.3463-0.70133 0.7918-0.70133 0.3387 0 1.002-0.19271 1.4742-0.42823 0.5881-0.29339 1.2748-0.38822 2.1808-0.30116 1.7304 0.16627 2.6512 1.025 2.6512 2.4727 0 2.2276-3.0081 3.2957-5.391 1.9141zm21.815-1.2079c-0.9539-0.89107-1.2614-1.8058-1.0269-3.0556 0.3243-1.7287 0.7294-2.0018 2.8511-1.922 1.6064 0.0604 1.9747 0.16406 2.3858 0.67178 0.6968 0.86057 0.8576 1.7626 0.5119 2.8726-0.3735 1.1994-1.3441 1.9282-2.7841 2.0905-0.9458 0.1066-1.2196 0.0137-1.9378-0.65721zm2.4092-2.0663c0.09-0.23546 0.046-0.34166-0.104-0.24897-0.1439 0.0889-0.2616 0.27369-0.2616 0.41062 0 0.38059 0.1897 0.29672 0.3656-0.16165zm-25.671-6.2017c-0.3119-0.12584-0.7583-0.50198-0.9922-0.83585-1.5649-2.2342 1.5531-5.4155 4.8009-4.8984 2.7676 0.44066 3.2017 4.7311 0.5717 5.6509-1.05 0.36721-3.5587 0.41492-4.3804 0.0833zm1.0552-2.2626c-0.086-0.22456-0.2134-0.35155-0.2828-0.28219-0.069 0.0693-0.048 0.25308 0.048 0.40829 0.2609 0.42213 0.4134 0.34012 0.2345-0.1261zm22.084-0.29364c-0.9792-1.082-1.3752-3.692-0.6514-4.2927 0.1968-0.16332 1.0745-0.37185 1.9503-0.46339 1.3996-0.14629 1.6607-0.0982 2.1557 0.39684 0.8597 0.8597 0.7793 2.6944-0.1643 3.7505-0.9321 1.0431-2.6154 1.3546-3.2903 0.60883zm23.822-0.85415c-1.2576-0.79759-1.5473-1.231-1.5473-2.3152 0-2.3881 2.6119-3.3589 4.1928-1.5584 1.0177 1.1591 1.287 2.4461 0.7352 3.5133-0.7045 1.3624-1.6428 1.4623-3.3807 0.36022zm-40.706-9.4088c1.9646-0.21454 5.0007-0.52416 6.7469-0.68803 1.7463-0.16387 4.2894-0.52604 5.6515-0.80482 2.0986-0.42951 3.6251-0.50687 10.001-0.50687 6.0065 0 7.6688-0.0762 8.2391-0.37748 2.039-1.0772 8.5307-8.9554 11.462-13.91 0.904-1.528 2.1655-3.5363 2.8032-4.4629s1.1082-1.7361 1.0456-1.7988c-0.063-0.0627-1.5866 0.0822-3.3864 0.32188-2.8531 0.37999-5.855 0.42401-23.427 0.34355-20.045-0.0918-20.159-0.0893-20.902 0.45604-1.0013 0.73442-3.955 4.4069-6.1264 7.6173-3.2119 4.7486-3.7304 5.5729-4.9666 7.8962-0.6741 1.2669-1.6412 2.789-2.1492 3.3825-0.8781 1.0259-0.9066 1.1209-0.5795 1.9299 0.1892 0.46797 0.4286 0.91039 0.532 0.98315 0.3927 0.27645 11.641-9e-3 15.056-0.38153zm25.069-6.3531c-1.1295-1.0374-1.2863-1.967-0.4697-2.7836 1.5481-1.5482 5.0338-0.61981 5.0338 1.3407 0 1.0859-0.2492 1.5415-1.0773 1.9697-1.2739 0.65875-2.3776 0.49201-3.4868-0.52673zm-12.307-3.7573c-0.9549-0.47067-1.3158-1.3493-0.885-2.1544 0.4488-0.83848 2.6663-2.1704 3.6136-2.1704 1.0421 0 1.4472 0.45531 1.6322 1.8343 0.1275 0.95092 0.045 1.1584-0.7911 1.9948-1.0626 1.0626-2.1214 1.2096-3.5697 0.49569zm-9.7767-4.1862c-1.0201-0.44356-1.3367-1.391-0.854-2.5563 0.5934-1.4326 3.1941-2.4594 3.5934-1.4188 0.084 0.21829 0.4729 0.39688 0.8648 0.39688 0.8041 0 1.3475 0.42815 1.3475 1.0618 0 0.76487-2.7544 2.9181-3.7041 2.8956-0.2183-5e-3 -0.7797-0.1758-1.2476-0.37923zm283.46 42.856c-0.261-0.68025 0.057-1.0223 2.0558-2.2142 1.0663-0.6357 2.483-1.621 3.1481-2.1895 1.5337-1.3109 4.3842-5.1152 7.2889-9.7275 4.0042-6.3584 4.9596-9.3198 4.7353-14.677-0.3236-7.7272-2.4918-12.079-7.952-15.961-5.6927-4.0472-9.0326-5.9273-13.254-7.4604-1.44-0.52303-2.7491-1.1593-2.909-1.414-0.4139-0.65908 0.1008-1.3713 1.0561-1.4615 2.0563-0.19427 15.693 7.7792 19.791 11.572 2.2823 2.1123 4.0531 5.4398 5.0372 9.4657 0.3793 1.5514 0.4466 2.7076 0.3544 6.0854-0.1086 3.9793-0.1592 4.3033-1.1068 7.0805-1.5895 4.6588-4.2361 9.2123-8.3813 14.42-2.3556 2.9593-4.2553 4.7843-6.1808 5.9376-1.7058 1.0217-3.4037 1.2728-3.6831 0.54467zm-328.6-0.30868c-0.4643-0.46431-0.021-1.2701 1.7471-3.1751 1.0579-1.1399 2.3203-2.5487 2.8053-3.1308 0.4851-0.58208 1.6637-1.862 2.6191-2.8443l1.7372-1.7859-8.0483 3e-3c-9.9275 3e-3 -21.164-0.4165-25.908-0.96827-1.9646-0.22851-3.6695-0.47411-3.7889-0.5458-0.1193-0.0717-3.3935-0.23414-7.276-0.36102s-8.0116-0.37326-9.1758-0.5475c-1.4675-0.21965-8.1601-0.33492-21.823-0.37586-17.763-0.0532-19.733-0.10094-19.975-0.48378-0.1834-0.2907-0.1762-0.5701 0.023-0.88541 0.2723-0.43165 1.4063-0.45582 17.99-0.38339 16.462 0.0719 19.731 0.17301 27.489 0.85011 1.6007 0.13971 4.7559 0.25728 7.0115 0.26126 2.797 5e-3 5.2368 0.18206 7.6729 0.55703 2.893 0.4453 5.1308 0.56712 11.774 0.64093 4.5112 0.0501 9.8469 0.16329 11.857 0.25147 2.0103 0.0882 5.4273 0.0778 7.5933-0.0231l3.9384-0.18339-0.7142-0.53275c-0.3928-0.29301-1.4881-1.2762-2.434-2.1848-0.9459-0.90862-2.4028-2.0829-3.2376-2.6095-1.5963-1.007-2.1279-1.9391-1.5221-2.669 0.1796-0.21639 0.6023-0.39344 0.9393-0.39344 1.6333 0 9.6653 7.4985 10.012 9.3471 0.2852 1.5206-0.043 2.1486-2.0815 3.9802-1.0616 0.95385-3.2168 3.227-4.7894 5.0514-2.3192 2.6906-2.9915 3.3172-3.5595 3.3172-0.3851 0-0.7796-0.0794-0.8766-0.17639zm324.38-15.61c-0.4218-0.42177-0.053-1.1379 1.5459-2.9986 0.9376-1.0914 2.035-2.5797 2.4386-3.3073 0.7006-1.263 0.7339-1.4849 0.7339-4.898 0-3.5029-0.017-3.6106-0.8654-5.3353-0.9644-1.9614-2.8718-4.2361-4.13-4.9251-0.454-0.24861-1.5865-0.63062-2.5166-0.8489-1.8509-0.43435-2.4809-1.0037-1.9761-1.7859 0.4266-0.6612 2.6336-0.55808 4.191 0.19582 2.6587 1.2871 5.9951 5.3384 6.9165 8.3985 0.5438 1.806 0.7416 5.483 0.3952 7.3468-0.4316 2.3229-1.6939 4.67-3.561 6.6217-1.1825 1.236-1.8274 1.7127-2.3171 1.7127-0.3732 0-0.7579-0.0794-0.8549-0.17639zm-300.43-45.385c-0.4394-0.43944-0.3969-1.1528 0.098-1.648 0.334-0.33399 1.0717-0.41577 3.7503-0.41577h3.3345l-0.6415-0.6896c-0.8689-0.93414-9.5352-6.7221-12.812-8.5569-2.9216-1.6358-11.454-8.3555-20.373-16.044-6.079-5.2408-9.0106-7.9611-18.389-17.064-3.7108-3.6019-7.065-6.7983-7.4539-7.1032s-2.0966-1.0335-3.7948-1.619c-5.6988-1.965-9.8875-4.2124-17.19-9.2228-2.035-1.3963-5.1902-3.473-7.0115-4.6149s-4.5616-2.9952-6.0896-4.1184c-1.5279-1.1232-3.8497-2.8167-5.1593-3.7634-7.3148-5.287-10.4-7.5891-12.489-9.3201-3.7253-3.0863-7.3176-5.2493-10.207-6.1459-1.68-0.52136-2.2381-1.3495-1.4442-2.1433 1.2241-1.2242 6.2309 1.561 13.204 7.3452 1.5036 1.2472 4.4602 3.5015 6.5702 5.0095 2.1101 1.508 5.631 4.0781 7.8244 5.7112 3.6909 2.7484 4.9929 3.6316 10.829 7.3467 1.1641 0.7411 3.6049 2.3766 5.4239 3.6345 6.1327 4.2408 11.465 7.1156 16.326 8.8018 1.4847 0.51505 3.0343 1.1096 3.4435 1.3212 0.7741 0.4003 4.6236 3.981 11.849 11.021 8.2155 8.0052 16.156 15.055 23.812 21.142 1.7463 1.3882 4.0085 3.2237 5.0271 4.079 2.5593 2.1489 3.7987 2.9775 7.0115 4.6878 1.5279 0.81338 4.3259 2.491 6.2177 3.7281 1.8917 1.2371 3.8716 2.5096 4.3997 2.8279 0.9854 0.59395 2.9455 2.567 3.2189 3.2404 0.1229 0.30257 0.2403 0.27247 0.5919-0.1517 0.3607-0.43527 0.4107-0.90478 0.2819-2.6458-0.086-1.1642-0.3121-3.0096-0.5023-4.101-0.4272-2.4524-0.2713-3.279 0.639-3.3865 0.6285-0.0743 0.6998 0.0414 1.1346 1.843 0.5177 2.145 1.2034 6.9575 1.2113 8.5019 0.01 1.2838-0.597 2.4537-1.3733 2.6616-1.1858 0.31765-10.931 0.18969-11.269-0.14796zm-134.88-50.354c-0.273-1.0877 0.2721-1.4518 2.1735-1.4518h1.6874v-1.0292c0-0.56606 0.2285-2.1436 0.5077-3.5057 0.5998-2.9263 1.3471-9.1423 1.338-11.129l-0.01-1.4017-1.208 1.3891c-1.2215 1.4046-2.0375 1.729-2.6949 1.0716-0.6094-0.60938-0.3043-1.2578 1.5872-3.3732 2.3332-2.6094 2.8744-2.7373 3.6934-0.87337 0.9346 2.1269 0.9087 4.283-0.1313 10.914-1.3264 8.4574-1.3129 7.8664-0.1866 8.1315 0.7017 0.16516 0.96 0.37726 1.0268 0.84332 0.049 0.34246-0.07 0.7236-0.2646 0.84697s-1.9292 0.22613-3.8546 0.22836l-3.5006 4e-3zm-47.921 0.0696c-0.2303-0.30154-0.5478-1.0819-0.9858-2.4233-0.1554-0.47597-0.2063-0.46641-0.8847 0.16611-1.5714 1.4652-2.9877 1.66-4.2636 0.5865-1.0204-0.85864-1.3476-2.0445-1.3495-4.891 0-2.4079 0.2067-2.8972 1.2328-2.8972 0.8708 0 1.147 0.75518 1.147 3.136 0 2.4296 0.1386 2.9494 0.7864 2.9494 0.9316 0 1.8005-1.0438 2.527-3.0358 0.8032-2.2024 1.1674-2.6456 1.9656-2.3922 0.4908 0.15578 0.5422 0.38832 0.546 2.4692 0 1.2635 0.17 3.0026 0.3728 3.8646 0.2377 1.0106 0.2856 1.786 0.1347 2.1828-0.2556 0.67234-0.8308 0.80562-1.2287 0.28472zm-19.516-0.39687c-0.1-0.25466-0.2843-3.0229-0.4105-6.1516s-0.4371-7.1375-0.691-8.9085c-0.3823-2.6666-0.402-3.2918-0.1146-3.638 0.4142-0.49909 1.491-0.55217 1.7781-0.0876 0.3256 0.52674 0.8531 5.9017 0.8699 8.8638 0.014 2.4793 0.2498 3.3328 0.6397 2.3166 0.2962-0.77188 1.8336-1.4547 3.2776-1.4557 1.2204-8.7e-4 1.5145 0.11304 2.4319 0.94187 1.3688 1.2366 1.9663 2.8158 1.8217 4.8147-0.1827 2.5254-1.4928 3.7698-3.963 3.7642-1.0085-2e-3 -1.737-0.18765-2.5388-0.64611-0.6185-0.35362-1.1245-0.53928-1.1245-0.41259 0 0.40364-0.8142 1.0619-1.3135 1.0619-0.2651 0-0.5634-0.20836-0.663-0.46302zm6.6801-2.3301c1.2584-0.88138 0.3935-4.6152-1.069-4.6152-1.181 0-2.2876 1.2458-2.8507 3.2095-0.1909 0.66552-0.1156 0.77286 0.8929 1.272 1.3155 0.65117 2.2304 0.69159 3.0268 0.13371zm34.228 0.9141c-2.0415-1.0372-3.4693-3.6701-3.0922-5.7022 0.3889-2.0957 3.6348-4.325 6.2971-4.325 1.3369 0 2.5784 1.1431 2.5784 2.374 0 2.1172-1.5689 3.2588-4.2999 3.1287-1.587-0.0756-1.6566-0.10811-1.7374-0.81085-0.1256-1.0924-0.5773-0.59013-0.5773 0.64187 0 0.86494 0.1733 1.2425 0.9073 1.9765l0.9074 0.90734 2.0938-0.17462c1.7949-0.14969 2.1174-0.11303 2.2593 0.25683 0.6671 1.7384-2.9869 2.9212-5.3365 1.7274zm2.8474-7.1086c0.3833-0.21523 0.3816-0.25284-0.018-0.40698-0.2423-0.0934-0.9567 0.0777-1.5875 0.38033l-1.1468 0.55015 1.1652-0.14317c0.6409-0.0788 1.3553-0.24989 1.5875-0.38033zm6.7679 7.1284c-0.201-0.3253-0.8773-5.1597-1.1056-7.9038-0.1425-1.7118-0.1015-2.0027 0.3257-2.3151 0.2687-0.19651 0.6359-0.3573 0.816-0.3573 0.5858 0 1.159 0.81291 1.159 1.6436v0.81211l1.066-1.2111c1.2174-1.383 3.8686-2.8322 5.1815-2.8322 1.1296 0 2.1684 0.48182 2.3634 1.0961 0.2457 0.7742-0.037 0.95639-1.7974 1.1571-2.0041 0.22855-2.3935 0.41185-3.8456 1.81-1.2903 1.2424-1.776 2.5441-2.0593 5.5191-0.1009 1.0599-0.2913 2.1355-0.4231 2.3901-0.2596 0.5017-1.408 0.6324-1.6806 0.19127zm-17.547-0.33705c-0.1572-0.18931-0.4384-1.1491-0.625-2.1328l-0.3393-1.7886-1.2119 0.16668c-1.3725 0.18877-1.9379-0.20418-1.7905-1.2444 0.065-0.45933 0.3804-0.70626 1.2771-1.0003 0.6549-0.21474 1.2171-0.39996 1.2495-0.41159 0.032-0.0116-0.1945-1.0266-0.504-2.2554-0.3522-1.3982-0.5722-3.1413-0.588-4.6583-0.024-2.2922 0.019-2.4865 0.7795-3.5719 0.9334-1.3314 1.947-1.7725 4.1239-1.7943 1.6765-0.0168 2.2397 0.38257 1.9828 1.406-0.1357 0.54056-0.3721 0.66068-1.6034 0.81452-3.2667 0.40814-3.8187 2.2228-2.5194 8.2814 0.2817 1.3137 0.3245 1.3624 1.265 1.4407 0.8439 0.0702 0.9847 0.17882 1.0579 0.81599 0.071 0.6154-0.048 0.78105-0.7276 1.0181-0.9096 0.31709-0.9601 0.57312-0.5189 2.6302 0.4265 1.989-0.3814 3.4001-1.3077 2.284zm-7.9213-0.2511c-0.2085-0.256-0.8537-3.4935-0.8537-4.284 0-0.0813-0.4617-0.14776-1.0259-0.14776-1.2121 0-1.7477-0.51319-1.5128-1.4494 0.1322-0.52657 0.3839-0.69727 1.227-0.83208 0.8091-0.12938 1.0316-0.27115 0.9382-0.59773-2.5342-8.8595-2.3677-11.316 0.7859-11.59 0.7191-0.0625 1.8432 0.0467 2.498 0.24255 0.9982 0.29856 1.2044 0.47472 1.2759 1.0896 0.1464 1.2592-0.3105 1.5149-2.3657 1.3238l-1.8206-0.1692v0.80328c0 0.4418 0.3588 2.3341 0.7974 4.2052 0.4385 1.871 0.8575 3.6698 0.9311 3.9972 0.08 0.35586 0.3315 0.59531 0.6254 0.59531 1.1502 0 1.4591 1.647 0.3389 1.8065-0.5155 0.0734-0.5845 0.19884-0.449 0.81572 0.244 1.1112 0.2727 3.824 0.044 4.1936-0.2618 0.42365-1.0883 0.42206-1.4344-3e-3zm-45.236-7.4083c-0.5332-0.67365-1.3709-3.8593-1.7881-6.7994-0.2364-1.666-0.4823-3.114-0.5465-3.2178-0.2131-0.34494-1.1382-10.627-1.3066-14.523-0.1993-4.6136-0.5408-8.4392-1.0845-12.149-0.4923-3.3596-0.385-3.9903 0.6788-3.9903 0.4252 0 0.8554 0.13327 0.9561 0.29616s0.2801 2.0381 0.3988 4.1672c1.0502 18.847 1.1557 19.932 2.6781 27.551l0.8723 4.3656 0.1634-15.346c0.1301-12.221 0.2554-16.046 0.6153-18.785 0.6054-4.6077 0.9122-31.97 0.4391-39.158-0.1782-2.7082-0.2217-5.3331-0.1009-6.0854 0.1995-1.2412 0.2609-1.3229 0.9947-1.3229 0.7044 0 0.801 0.10513 0.972 1.0583 0.1045 0.58208 0.3096 3.9158 0.4557 7.4083 0.2335 5.5788 0.3794 6.9098 1.2015 10.96 1.6634 8.1948 1.7779 9.8154 2.0008 28.331 0.2131 17.696 0.1804 17.273 1.5107 19.552 0.5376 0.92099 0.7266 1.0785 0.907 0.75611 0.4579-0.81826 1.3067-4.9584 2.1021-10.254 0.4482-2.9832 1.1503-7.2099 1.5604-9.3927 0.697-3.71 0.7365-4.2854 0.6062-8.8272-0.1521-5.303 0.2846-10.936 0.8865-11.436 0.5692-0.4724 1.2442-0.15972 1.4762 0.68386 0.4188 1.5228 0.3229 10.402-0.1421 13.158-0.4768 2.826-0.3801 4.1652 0.6273 8.6876 0.6584 2.9558 2.2331 7.886 2.7405 8.5798 0.3528 0.48247 0.3921 0.45162 0.6846-0.53716 0.1708-0.57696 0.4221-3.7279 0.5586-7.0022 0.4102-9.8382 0.9832-13.693 2.812-18.918 0.658-1.8797 0.8146-2.1167 1.3988-2.1167 1.003 0 1.3287 1.0214 1.757 5.5093 0.4704 4.9285 0.8484 6.5372 2.9331 12.482 1.1847 3.3786 1.9408 5.1594 2.1904 5.1594 0.1085 0 0.2812-2.8277 0.3838-6.2838 0.2045-6.884 0.4049-8.8581 1.2421-12.237 0.7253-2.927 2.5593-7.6702 3.0367-7.8534 1.2406-0.47606 1.6939 1.8434 1.9484 9.97l0.203 6.4823 1.2285 4.1981c1.4193 4.8502 1.7288 5.5612 1.7427 4.004 0.012-1.3545 0.9335-7.6843 1.6175-11.112 0.2903-1.4552 1.1887-4.6104 1.9963-7.0115 0.8077-2.4011 1.7254-5.6632 2.0395-7.2492 0.6153-3.107 1.0875-3.8571 1.9102-3.0344 0.3568 0.35674 0.4603 1.6416 0.6609 8.1976 0.3024 9.8839 0.6281 11.614 3.1068 16.506l1.2066 2.3812 0.4942-1.7198c1.7713-6.1639 2.8173-8.5378 3.8251-8.6813 0.8905-0.12675 1.3431 0.84961 1.8206 3.9271 0.4562 2.9406 0.8853 3.9605 1.6661 3.9605 0.2647 0 1.2527-0.75641 2.1956-1.6809 2.273-2.2287 3.4406-2.8655 7.303-3.983 4.3632-1.2624 6.4681-1.4016 10.707-0.70807 2.2683 0.37111 4.5745 0.55118 7.0587 0.55118 3.0496 0 3.764 0.0744 4.1186 0.42899 0.6898 0.68984 0.382 1.2619-0.7909 1.47-2.0371 0.36132-6.5789 0.21238-10.282-0.33715-4.4017-0.65329-6.0525-0.56092-9.9661 0.5577-3.525 1.0075-4.7896 1.6471-6.1451 3.1079-3.0649 3.3029-2.9847 3.2393-4.0831 3.2393-1.7274 0-2.8349-1.5341-3.5204-4.8767-0.3811-1.8582-0.4936-1.7343-1.4456 1.5911-0.3715 1.2978-1.0503 3.2288-1.5085 4.2913-0.7393 1.7142-0.9062 1.9228-1.4813 1.8521-0.5604-0.0689-0.8971-0.6342-2.4896-4.1808-2.757-6.14-3.3674-8.9822-3.4093-15.875l-0.02-3.3073-1.423 4.2333c-2.322 6.908-3.8036 16.012-3.8324 23.548-0.011 2.8742-0.6138 4.0167-1.7001 3.2224-0.3882-0.28388-0.5348-0.91322-0.7184-3.084-0.1758-2.0792-0.6165-4.0544-1.8544-8.312l-1.6238-5.5847-0.2015-6.6146c-0.1109-3.638-0.2217-6.6741-0.2462-6.7469-0.1058-0.31376-1.1529 3.0023-1.7545 5.5562-0.5373 2.2808-0.6996 3.9149-0.9067 9.1281-0.2313 5.8236-0.5921 9.9067-0.9599 10.865-0.409 1.0659-1.755-0.0324-2.9396-2.3987-0.7909-1.58-2.9099-7.5464-3.6546-10.29-0.7178-2.645-1.4136-6.7653-1.4568-8.6274l-0.028-1.1906-0.6509 1.9844c-0.9317 2.84-1.3822 6.2224-1.674 12.568-0.3508 7.6308-0.4935 9.2132-0.9462 10.496-0.5264 1.4921-1.6109 2.8651-2.263 2.8651-0.8658 0-2.3236-3.6121-3.8875-9.6324l-0.7496-2.8856-0.4435 2.621c-0.244 1.4415-0.7462 4.645-1.1161 7.1189-1.1195 7.4883-2.4068 11.533-3.7302 11.722-0.7248 0.10338-1.9414-1.3358-3.085-3.6494l-0.8487-1.7168 0.091-13.629c0.097-14.5-0.1531-21.104-1.0224-27.027-0.2807-1.9129-0.573-3.5406-0.6494-3.617-0.076-0.0764-0.1379 2.411-0.1365 5.5275 0 6.6476-0.3914 14.695-0.9841 20.086-0.3276 2.9797-0.4384 7.3689-0.4962 19.654-0.076 16.143-0.1362 17.132-1.1102 18.247-0.4728 0.54136-1.2053 0.60278-1.5777 0.13229z"/></g></svg>
