<svg width="559.2mm" height="243.85mm" version="1.1" viewBox="0 0 559.2 243.85" xml:space="preserve" xmlns="http://www.w3.org/2000/svg"><g transform="translate(-1539.4 755.56)"><path fill="#fff" d="m1830.5-512.07c-1.5644-0.68156-4.0416-3.7722-5.6031-6.9908-1.9011-3.9184-2.1171-5.2032-1.7287-10.279 0.3636-4.7507 0.7902-6.2345 3.3725-11.728 1.0601-2.2556 2.0077-4.3687 2.1056-4.6957 0.2119-0.70734 1.3085-1.0559 1.8661-0.59308 0.6577 0.54579 0.4498 1.337-1.0765 4.0982-3.603 6.5181-4.1437 8.2612-4.4812 14.445-0.1481 2.7135-0.1017 3.2637 0.4015 4.7625 1.3311 3.9646 3.9985 7.9093 6.0589 8.9604 1.27 0.64788 1.6928 1.1765 1.4792 1.8495-0.2023 0.63726-1.1666 0.7063-2.3943 0.17144zm20.12-3.3248c-0.1808-0.56944 0.8411-2.0784 3.3607-4.9627 0.7911-0.90553 1.7865-2.3343 2.2121-3.175 0.7117-1.406 0.7806-1.7937 0.8587-4.8359 0.11-4.2805-0.3347-6.4797-1.8267-9.0343-1.7153-2.9371-3.8999-4.9139-7.3012-6.6066-2.8239-1.4054-2.8627-1.4372-2.8627-2.3507 0-0.83533 0.078-0.93363 0.7937-1.0035 1.7215-0.16799 7.9208 4.2192 10.051 7.1133 2.6336 3.5774 3.3958 6.3875 3.2646 12.035l-0.087 3.7252-1.1198 2.2279c-0.662 1.3171-1.8366 3.0392-2.8731 4.2123-0.9643 1.0914-1.9326 2.2523-2.1518 2.5797-0.5295 0.79104-2.076 0.84113-2.3191 0.0751zm-101.81-2.3241c-0.2354-0.83675-0.5023-1.9921-0.5932-2.5674-0.2295-1.4528-1.0023-2.8377-1.8875-3.3824-0.4109-0.25283-1.5507-0.9864-2.533-1.6302l-1.7859-1.1705-0.018 1.3656c-0.01 0.75106-0.165 2.8262-0.3448 4.6114-0.3712 3.683-0.7009 4.3539-1.8765 3.8182-0.7652-0.34862-0.825-0.85472-0.397-3.3599 0.1491-0.87312 0.3682-3.6123 0.4867-6.0871 0.2524-5.2677 0.5898-6.3467 2.465-7.8833 2.0082-1.6456 4.1718-2.214 5.5888-1.4681 0.8046 0.42348 0.9661 0.73756 0.9708 1.8874 0.01 2.1186-1.9391 4.6185-4.3989 5.6462l-1.01 0.42199 2.0959 1.0287c3.5702 1.7524 4.3594 2.8815 4.9145 7.0317 0.3677 2.7497 0.2706 3.259-0.6212 3.259-0.5384 0-0.6889-0.21688-1.0558-1.5214zm-4.1571-12.764c1.2579-0.89571 2.6735-3.7065 1.8667-3.7065-1.3417 0-4.5039 3.2041-4.5079 4.5676 0 0.43201 0.068 0.43743 0.94 0.0732 0.5178-0.21633 1.2833-0.63678 1.7012-0.93432zm36.573 13.954c-0.1497-0.1819-0.4189-1.0801-0.5983-1.996l-0.3262-1.6653-0.5586 0.52317c-0.8216 0.7695-1.8611 1.0876-3.5524 1.0872-2.7411-7.5e-4 -4.3958-1.4692-5.2007-4.6154-0.5629-2.2002-0.8843-11.872-0.4135-12.439 0.4073-0.49074 1.4815-0.53724 1.7794-0.077 0.1177 0.1819 0.2238 2.7715 0.2356 5.7547 0.024 5.9661 0.1694 6.7654 1.4785 8.116 1.3987 1.4431 3.3655 1.5031 4.64 0.1415 1.5248-1.629 1.5328-1.6645 1.5328-6.7917 0-5.3353 0.1716-6.0562 1.4069-5.9135l0.7098 0.082 0.01 7.0115c0 3.8563 0.1008 7.6894 0.2157 8.5181 0.136 0.98215 0.1074 1.696-0.082 2.0505-0.3288 0.61437-0.8691 0.7048-1.2735 0.21317zm32.304-0.26458c-0.1177-0.1819-0.2548-2.6227-0.3045-5.424-0.05-2.8013-0.1404-5.0932-0.2013-5.0932-0.061 0-1.2109 0.17025-2.5554 0.37833-1.3445 0.20809-3.6617 0.45883-5.1494 0.5572l-2.7049 0.17887-0.146 7.4846-0.7291 0.0839c-0.4303 0.0495-0.7776-0.0589-0.8475-0.26459-0.065-0.19164-0.1675-4.4846-0.2275-9.5398-0.1169-9.8481-0.1147-9.866 1.1943-9.6805 0.6073 0.0861 0.6101 0.10572 0.682 4.7669 0.07 4.5094 0.093 4.687 0.6347 4.859 0.3094 0.0982 2.7007 0.0234 5.3142-0.16617l4.7517-0.3447-0.1532-1.4716c-0.4383-4.21-0.4976-6.6312-0.1721-7.0235 0.402-0.48436 1.5598-0.5315 1.7292-0.0704 0.067 0.1819 0.1731 3.0096 0.2362 6.2838 0.063 3.2742 0.2003 7.685 0.3052 9.8017 0.1376 2.7764 0.1038 4.011-0.1214 4.4318-0.341 0.63708-1.1949 0.77758-1.5347 0.25251zm-22.23-0.48568c-2.2273-1.1025-3.6023-3.1716-4.7374-7.1288-1.3089-4.5629-0.6018-6.9487 2.6533-8.9515 1.4128-0.86936 1.7459-0.96259 3.4395-0.96259 1.5596 0 2.0421 0.11135 2.8663 0.66146 1.0568 0.70533 1.3697 1.2528 1.1072 1.937-0.3112 0.811-1.1354 0.78322-2.4362-0.0821-1.4647-0.97426-2.2578-0.93368-3.8705 0.19801-2.7811 1.9517-2.981 4.3978-0.7663 9.3792 0.6873 1.5461 2.5953 3.3846 3.5124 3.3846 1.0513 0 1.4395-0.66852 1.52-2.6172l0.078-1.8807h-1.8485c-1.7537 0-1.8571-0.0341-2.0154-0.66489-0.2928-1.1664 0.2419-1.4518 2.7201-1.4518 1.2287 0 2.4643 0.12325 2.7457 0.27389 0.5263 0.28164 0.7146 1.4635 0.2585 1.6223-0.1584 0.0551-0.1404 0.74528 0.048 1.8418 0.2481 1.4431 0.2328 1.9343-0.087 2.7739-0.7779 2.0438-2.9906 2.755-5.1877 1.6675zm-31.165-0.59043c-3.0797-1.5109-3.8407-2.7024-3.8319-5.9998 0.01-2.4237 0.6207-5.0431 1.7435-7.4358 1.2053-2.5684 1.8368-3.1493 3.4239-3.1493 1.9494 0 3.7444 1.1642 4.6912 3.0427 0.9375 1.8598 1.0467 2.972 0.7133 7.2619-0.1759 2.2634-0.4547 4.5206-0.6195 5.016-0.3945 1.186-1.3241 1.8219-2.9455 2.0152-1.1507 0.13716-1.564 0.0394-3.175-0.75093zm4.428-2.9588c0.107-1.0186 0.2256-3.2808 0.2636-5.0271 0.061-2.7919-5e-4 -3.3258-0.5073-4.4247-0.5648-1.2244-1.8732-2.332-2.7291-2.31-0.4089 0.0105-1.8075 2.6252-2.5407 4.7503-0.5935 1.7198-0.8194 6.2047-0.3416 6.7816 0.6137 0.74101 3.9925 2.238 4.8667 2.1562 0.778-0.0728 0.7976-0.11105 0.9884-1.9264zm73.28 3.2544c-0.486-0.48607-0.3777-1.4837 0.1943-1.7899 0.2815-0.15064 1.0554-0.27389 1.7198-0.27389 1.34 0 1.3587-0.0329 0.8485-1.4881-0.1978-0.564-0.4455-2.1566-0.5506-3.539-0.105-1.3824-0.4193-4.2995-0.6984-6.4823-0.2792-2.1828-0.5077-4.3807-0.5078-4.8841l-3e-4 -0.91539-0.8599 1.252c-0.9109 1.3261-1.8019 1.776-2.4509 1.2374-0.6816-0.56571-0.4406-1.2333 1.2602-3.4908 1.2596-1.6719 1.8242-2.2146 2.3691-2.2774 0.6588-0.076 0.7463 0.0289 1.1044 1.3229 0.3574 1.2917 1.2975 8.5424 2.0384 15.723l0.3035 2.9406 1.1215-0.12642c1.3939-0.15711 2.32 0.28906 2.2073 1.0634-0.07 0.47893-0.5043 0.67518-2.8603 1.2916-3.0188 0.78983-4.7417 0.93328-5.2388 0.43619zm-109.47-1.2952c-0.2842-0.45995-0.6092-5.8119-0.6289-10.36l-0.017-3.9026h-2.9898c-1.9727 0-3.0978-0.10802-3.3073-0.3175-0.4152-0.41516-0.4075-1.4477 0.013-1.7074 0.4105-0.2537 15.423-0.33058 15.827-0.0811 0.1615 0.0998 0.2535 0.46564 0.2043 0.81298-0.078 0.55256-0.2712 0.65308-1.5445 0.80381-0.8003 0.0947-2.4374 0.18405-3.638 0.19844l-2.1828 0.0262-0.035 1.2568c-0.019 0.69122-0.1084 3.9952-0.1985 7.3422-0.1606 5.9715-0.1743 6.0869-0.734 6.1667-0.3137 0.0447-0.6594-0.0628-0.7682-0.23879zm99.83-7.3039c-0.5952-0.15173-0.8859-1.2898-0.4604-1.8025 0.1878-0.22622 0.769-0.39344 1.3677-0.39344 0.5726 0 1.8568-0.13471 2.8537-0.29935 2.2949-0.379 3.1841-0.1853 3.1841 0.69365 0 0.57358-0.2071 0.70869-1.7859 1.1654-1.8459 0.53393-4.3495 0.84266-5.1592 0.63623zm-79.97-13.843c-3.6666-0.66448-6.2943-1.5854-10.4-3.645-4.1687-2.091-5.0988-2.8054-6.2054-4.766-0.4953-0.87764-2.7593-3.486-5.6063-6.459-3.0411-3.1757-5.161-5.6321-5.837-6.7636-0.5838-0.9772-1.7909-2.8537-2.6824-4.17-1.6911-2.4971-4.0094-6.901-4.5899-8.7192-0.4888-1.5314-1.6421-3.7251-2.9562-5.6233-4.3187-6.2383-6.7022-10.153-7.6573-12.576-0.2812-0.71335-1.1848-2.4415-2.008-3.8403-1.3642-2.3179-3.254-6.3562-3.254-6.9533 0-0.134 0.3357-0.24363 0.7459-0.24363 0.675 0 0.8297 0.19051 1.626 2.0025 0.484 1.1014 1.6898 3.2533 2.6796 4.7821 0.9897 1.5288 1.9415 3.2173 2.1151 3.7522 0.5479 1.6888 2.7839 5.9446 4.271 8.1292 0.7877 1.1571 2.3651 3.4618 3.5054 5.1216 1.3082 1.9043 2.4869 4.0191 3.1944 5.7314 1.3546 3.2782 2.4907 5.4447 3.9929 7.6141 0.6201 0.89558 1.6944 2.5556 2.3874 3.689 0.8877 1.4519 2.6125 3.4451 5.8384 6.7469 2.5182 2.5774 5.1278 5.5196 5.7992 6.5383 1.7765 2.6955 1.983 2.8717 5.396 4.6038 5.8725 2.9804 11.316 4.3006 16.073 3.8985 3.781-0.31961 10.872-3.2528 14.052-5.8124 0.96-0.77273 2.4672-1.9619 3.3492-2.6426 1.6896-1.3038 1.8082-1.4422 4.3447-5.0677 2.7238-3.8932 4.7449-7.2034 5.2936-8.6697 0.636-1.6999 1.9769-3.0422 5.8236-5.8295 3.7355-2.7068 5.5847-4.5661 7.5419-7.5833 2.2248-3.4298 2.6496-4.3215 3.2946-6.916 0.6959-2.7993 1.7399-5.0446 3.5439-7.6217 3.086-4.4084 3.8945-6.0048 5.5957-11.049 0.3506-1.0393 1.4867-3.584 2.5247-5.655s2.0439-4.209 2.2352-4.7513c0.3045-0.86311 1.2829-2.717 4.1231-7.8125 0.4055-0.7276 0.877-1.9182 1.0476-2.6458 0.1707-0.7276 1.0103-2.7517 1.8659-4.4979s1.977-4.581 2.4919-6.2995c0.515-1.7185 1.4303-4.2783 2.034-5.6886 1.1065-2.5846 2.9692-7.5674 3.9258-10.502 0.2846-0.87313 0.9335-2.3019 1.4419-3.175 1.8365-3.1537 3.84-7.2766 4.1001-8.4374 0.5008-2.2345 1.3668-4.1257 3.4944-7.6318 2.2555-3.7167 5.9979-10.996 6.5659-12.77 0.6594-2.0606 2.6338-5.6376 4.3618-7.9023 0.9629-1.262 2.1795-3.1384 2.7035-4.1698 0.6114-1.2035 1.7228-2.6945 3.1024-4.162 2.459-2.6156 4.4071-4.8742 6.0334-6.9945 4.3911-5.7251 6.3333-7.8154 9.9167-10.673 5.5264-4.4068 6.5212-5.0815 9.7057-6.5831 3.837-1.8093 4.9777-2.1578 8.627-2.6362 3.2582-0.42708 10.824-0.52297 12.568-0.15927 7.7549 1.6178 8.5749 2.0365 15.464 7.8958 5.0676 4.3099 9.6156 8.9634 10.534 10.778 0.4418 0.87313 1.1744 2.0527 1.628 2.6212 1.4288 1.7906 1.856 2.6612 2.9334 5.9778 0.5771 1.7766 1.2765 3.6047 1.5542 4.0625s1.2999 2.3132 2.2714 4.1231c0.9716 1.81 2.0674 3.8042 2.4352 4.4318l0.6686 1.141h-1.0835c-0.5959 0-1.0834-0.10531-1.0834-0.23401s-0.8508-1.8253-1.8906-3.7703c-4.1891-7.8357-4.7677-8.9959-5.3732-10.776-0.3467-1.0194-1.0954-2.5458-1.6637-3.3922-0.5683-0.84633-1.4309-2.2532-1.9168-3.1263-2.1415-3.8483-14.755-15.131-18.506-16.553-0.6651-0.25216-2.5928-0.76836-4.2838-1.1471-2.5636-0.57421-3.7288-0.68827-7.0114-0.68636-7.6005 4e-3 -11.713 0.83503-15.976 3.2263-4.3813 2.4581-10.331 7.2922-13.229 10.749-1.0914 1.3016-3.4132 4.0044-5.1594 6.0062-5.7308 6.5692-6.99 8.1688-8.1067 10.298-0.6066 1.1567-1.9293 3.1808-2.9393 4.4979-1.1083 1.4452-2.5392 3.811-3.609 5.9666-2.2928 4.6202-5.6476 11.043-6.9103 13.229-1.9243 3.3322-3.1108 5.9736-3.5437 7.8887-0.3046 1.3473-1.0144 2.9957-2.3358 5.424-3.2768 6.0219-3.1468 5.7387-6.157 13.41-0.7709 1.9645-1.7021 4.2389-2.0694 5.0542s-0.9309 2.7203-1.2524 4.2333c-0.7015 3.3013-1.1911 4.6088-2.7382 7.3133-0.6457 1.1288-1.4804 3.0643-1.8549 4.3012-0.3744 1.2369-0.9495 2.6932-1.2779 3.2361s-1.2619 2.0908-2.0745 3.4396c-1.93 3.2035-5.6432 11.245-6.2006 13.427-0.9773 3.8269-2.7754 7.4787-5.9079 11.998-1.4965 2.159-2.74 4.9821-3.2484 7.375-0.5702 2.684-3.8592 8.0344-6.4904 10.558-0.8504 0.81569-3.0344 2.6742-4.8534 4.1302-4.2178 3.3758-4.7049 3.8737-5.4715 5.593-0.3474 0.77916-1.2504 2.446-2.0066 3.7042-1.2633 2.1016-2.2596 3.5723-5.2778 7.7912-0.6452 0.90183-1.8696 2.093-2.9685 2.888-1.0287 0.74415-2.4281 1.8505-3.1097 2.4585-1.3369 1.1926-7.7061 4.4763-10.476 5.4007-3.4712 1.1587-7.2097 1.3348-11.568 0.54482zm281.12-3.0894c-0.8004-0.0476-2.2887-0.20938-3.3073-0.35958-2.236-0.32967-9.4707-2.2564-10.53-2.8044-1.1015-0.5696-11.628-10.447-13.321-12.5-0.7911-0.95908-2.0131-2.8196-2.7157-4.1345-1.5434-2.8886-4.4594-7.0997-7.1064-10.262-2.8023-3.3485-3.1472-3.9293-3.362-5.6618-0.2432-1.9616-0.6098-2.8189-2.2114-5.171-2.7655-4.0614-4.3695-6.8941-6.4916-11.465-1.2103-2.6066-2.4736-5.2728-2.8075-5.9249-0.3338-0.65205-0.8763-1.9617-1.2054-2.9104-0.3291-0.94867-1.1964-2.9898-1.9272-4.536s-1.8628-4.5822-2.5155-6.7469c-0.6527-2.1647-1.4983-4.7614-1.8792-5.7704-0.8409-2.2277-5.2122-10.03-7.3327-13.088-0.8476-1.2224-1.9093-3.1869-2.3594-4.3656-0.45-1.1787-1.1437-2.5598-1.5415-3.0691-2.339-2.9951-5.7217-8.862-7.1409-12.385-1.3256-3.2908-2.524-5.7042-3.4079-6.8633l-0.6558-0.8599h1.204c1.0143 0 1.2838 0.11464 1.7104 0.7276 0.8391 1.2056 2.0976 3.7525 3.2011 6.4783 1.3608 3.3612 3.7298 7.4368 7.2575 12.486 0.3992 0.57129 0.9716 1.848 1.272 2.8372 0.3005 0.98917 1.3496 3.1411 2.3314 4.7821 3.2795 5.4812 6.0713 10.38 6.601 11.583 0.2885 0.65485 0.95 2.5598 1.4701 4.2333 1.9451 6.2592 2.5068 7.7668 4.3973 11.802 0.5748 1.227 1.0451 2.3338 1.0451 2.4595s0.8943 1.9582 1.9873 4.0723c1.0931 2.1141 2.4656 4.9929 3.0501 6.3973 1.0344 2.4855 3.5912 6.858 5.5738 9.5324 1.4556 1.9634 2.0768 3.3146 2.375 5.1664 0.1471 0.91364 0.3999 1.9109 0.5618 2.2162s1.6271 2.2219 3.256 4.2592c3.8608 4.8287 5.2105 6.8342 6.5988 9.8052 1.2491 2.673 2.8402 4.4605 8.5979 9.6593 1.5203 1.3728 3.5773 3.2475 4.5711 4.166 2.1375 1.9757 2.4445 2.1171 7.2324 3.3312 4.1553 1.0536 7.5157 1.481 11.644 1.481 5.0136 0 7.4317-0.96864 14.932-5.9812 2.6871-1.796 4.9573-4.7043 7.2415-9.2771 0.8083-1.6181 2.6168-3.8738 5.5854-6.9667 2.7694-2.8852 3.8641-4.7384 4.9251-8.3373 1.2099-4.1036 1.8291-5.3644 4.1221-8.3921 2.3205-3.0641 3.6736-5.3368 5.9499-9.9934 0.8892-1.819 2.6228-4.7781 3.8524-6.5758 1.2295-1.7977 2.7167-4.2385 3.3047-5.424s1.6081-2.9293 2.2669-3.8752c1.2703-1.8238 3.5031-5.5955 4.6299-7.8209 0.3866-0.76348 0.7998-2.216 0.9618-3.3808 0.3142-2.2586 0.7457-3.2403 2.7592-6.2771 0.7505-1.132 1.6905-2.6603 2.0889-3.3963 0.7522-1.3898 1.7867-1.9875 2.3922-1.382 0.364 0.36402-0.4281 2.006-2.5683 5.3237-2.232 3.4602-2.3235 3.6717-2.5706 5.9427-0.3038 2.7915-0.9805 4.1262-5.9076 11.652-1.048 1.6007-2.3586 3.7439-2.9125 4.7625-0.554 1.0186-1.5086 2.5665-2.1214 3.4396-1.8382 2.6191-3.4628 5.4597-4.0857 7.1438-0.323 0.87312-0.9811 2.2423-1.4624 3.0427-0.4813 0.80036-1.1788 2.0617-1.55 2.8029-0.3711 0.74123-1.6185 2.5895-2.772 4.1073-2.6544 3.4926-2.9868 4.1609-4.1662 8.3741-1.1714 4.1851-2.1456 5.7335-6.7871 10.788-2.1036 2.2907-3.4099 3.9738-4.0764 5.252-2.4247 4.6503-5.3369 8.1998-8.2432 10.047-0.5439 0.34571-2.001 1.2824-3.2379 2.0816-5.3303 3.4437-8.7017 4.1968-16.669 3.7232zm-393.66-62.441c-0.4296-0.17119-2.378-3.1393-4.0097-6.1082-0.6548-1.1915-1.267-2.1682-1.3603-2.1706-0.093-2e-3 -0.3669 0.48852-0.6079 1.0908-0.8676 2.1683-4.084 6.3133-4.899 6.3133-0.262 0-0.6144-0.16629-0.783-0.36953-0.4598-0.55403-1.8423-7.8647-2.0425-10.801-0.1909-2.7988 0-3.3817 1.0937-3.3817 0.9072 0 1.116 0.46289 1.313 2.9104 0.1638 2.0362 1.1351 8.4893 1.3029 8.6572 0.038 0.038 0.7094-1.3288 1.4919-3.0373 1.7481-3.8165 2.0442-4.297 2.6484-4.297 0.7171 0 2.9466 2.6608 4.3955 5.246l1.2838 2.2904 0.2231-1.4531c0.3912-2.5466 1.7119-7.4703 2.1109-7.8693 0.2375-0.23747 0.5992-0.31712 0.9437-0.20778 0.7472 0.23714 0.7313 1.2127-0.081 4.9799-0.352 1.6318-0.7651 4.0221-0.9182 5.3116-0.3443 2.9016-0.7365 3.4411-2.1051 2.8957zm5.6271-1.5234c-0.089-0.35681 0.027-1.2205 0.2592-1.9192 0.2321-0.69879 0.3924-1.745 0.3562-2.325-0.054-0.86166 0.039-1.101 0.5065-1.3086 0.4662-0.20694 0.7542-0.9435 1.553-3.9715 0.5393-2.0446 1.1477-3.9854 1.352-4.3128 0.407-0.65227 1.2086-0.78443 1.6049-0.26458 0.6433 0.84398 3.014 8.1024 3.5581 10.894 0.5852 3.003 0.5897 3.1276 0.1249 3.4675-0.2652 0.19392-0.6323 0.295-0.8157 0.22462-0.303-0.11628-1.0806-2.3709-1.2665-3.6722-0.042-0.29104-0.193-0.52484-0.3366-0.51957-0.1435 5e-3 -1.1075 0.10499-2.1422 0.22158l-1.8813 0.21199-0.3319 1.4982c-0.4613 2.0828-0.6864 2.4242-1.5983 2.4242-0.6067 0-0.8155-0.14381-0.9423-0.64873zm6.5028-5.9507c0-0.43906-1.3869-4.0081-1.5098-3.8853-0.091 0.091-1.11 3.7552-1.1315 4.0686 0 0.0364 0.5908 0.0661 1.3184 0.0661s1.3229-0.11225 1.3229-0.24944zm11.45 6.0465c-0.4311-0.16027-1.405-1.8502-3.638-6.313-3.2345-6.4643-3.5922-7.6415-2.4995-8.2263 0.8665-0.46373 1.2634-0.12688 2.1114 1.7921 1.823 4.125 4.0995 8.8022 4.2841 8.8023 0.1091 2e-5 0.1984-0.2574 0.1984-0.57205s0.438-1.8327 0.9734-3.3734c0.5353-1.5407 1.2795-3.6943 1.6536-4.7857 0.6436-1.8773 0.7232-1.9844 1.4741-1.9844h0.7937l-0.086 1.5698c-0.055 1.0135-0.449 2.5256-1.1111 4.2669-0.5641 1.4834-1.2104 3.4937-1.4362 4.4674-0.4817 2.077-1.3881 4.2934-1.8234 4.4589-0.1684 0.0641-0.5712 0.018-0.895-0.1024zm20.416-0.36116c-0.3926-0.59924-0.4567-1.5206-0.4827-6.9347-0.027-5.6771 0.012-6.2703 0.4331-6.5382 0.3378-0.21492 0.5883-0.21576 0.9261-3e-3 0.4095 0.25787 0.4798 0.94513 0.6086 5.9518 0.08 3.1131 0.1694 5.6614 0.1984 5.6628 0.029 1e-3 0.797 1e-3 1.7065 0 1.5839-2e-3 1.6537 0.025 1.6537 0.65247 0 0.59264-0.1765 0.69706-1.8521 1.096-1.0187 0.2425-2.0516 0.52261-2.2954 0.62246-0.3083 0.12622-0.5813-0.0291-0.8962-0.5095zm25.5-1.1919c-0.6451-0.73748-1.9399-2.5955-2.8773-4.129s-1.8494-2.9903-2.0267-3.2375c-0.2599-0.36243-0.3239 0.22321-0.3307 3.027-0.01 3.002-0.076 3.5604-0.5065 4.0915-0.4461 0.55092-0.5733 0.58085-1.2185 0.28684l-0.7205-0.32827 0.094-5.1117c0.1008-5.4778 0.224-5.9867 1.4496-5.9867 0.7212 0 2.3968 1.9892 4.3045 5.1102 1.7486 2.8606 3.1115 4.507 3.3077 3.9956 0.088-0.22982 0.1604-2.0665 0.1604-4.0815 0-2.9778 0.078-3.7415 0.4157-4.0794 0.4791-0.47901 0.6291-0.49987 1.1638-0.16174 0.6277 0.39702 0.6816 6.6702 0.082 9.5356-0.4623 2.2088-0.4855 2.2504-1.2976 2.3294-0.7072 0.0688-0.9965-0.11354-1.9998-1.2604zm-36.51 0.5947c-1.1511-0.71413-1.2769-1.3556-1.2759-6.5048 9e-4 -4.3639 0.051-4.8984 0.535-5.692 0.6883-1.129 1.8967-1.6174 4.4975-1.818 2.3059-0.17782 2.904 0.0535 2.904 1.1231 0 0.85267-0.3639 1.0118-2.7223 1.19-2.6792 0.20254-2.9259 0.44715-3.0563 3.031l-0.1 1.9798h2.4919c2.7984 0 3.7594 0.36972 3.2264 1.2413-0.3257 0.53271-1.7526 0.82527-4.174 0.85578l-1.5562 0.0196 0.1496 1.1152c0.082 0.61336 0.3348 1.2506 0.5612 1.4161 0.2263 0.16553 1.332 0.37876 2.457 0.47386 2.3109 0.19534 2.9503 0.57308 2.4747 1.4618-0.2756 0.515-0.5171 0.55947-3.0024 0.553-2.0474-5e-3 -2.8742-0.11347-3.4102-0.44596zm19.197-0.0522c-0.454-0.27679-0.9605-0.8911-1.1258-1.3651-0.4154-1.1915-0.9365-8.1189-0.7196-9.5654 0.3222-2.1485 2.0252-3.112 5.5057-3.1149 1.5067-1e-3 1.8196 0.0789 2.0598 0.52769 0.5648 1.0554-0.04 1.4996-2.3109 1.6977-1.1358 0.0991-2.1938 0.26366-2.351 0.36572-0.4843 0.31427-0.8943 1.3013-0.8943 2.1526v0.81115l1.7859 0.0264c2.4837 0.0367 3.1088 0.24607 3.1088 1.0413 0 0.76131-0.6609 0.96885-3.2411 1.0177l-1.6536 0.0313 0.01 1.1245c0.01 1.3804 0.3836 3.0754 0.7669 3.4588 0.1569 0.15687 1.2079 0.35067 2.3357 0.43067 1.9708 0.1398 2.0535 0.17231 2.1307 0.83716 0.068 0.59006-0.043 0.71642-0.7607 0.85989-1.6809 0.33617-3.7898 0.18307-4.6428-0.33706zm40.218-0.22641c-0.7568-0.49857-1.7169-6.2169-1.8678-11.124-0.1337-4.345-0.024-4.8128 1.1277-4.8128 0.9505 0 1.1675 0.75896 1.1675 4.0836v3.0601h3.3247c1.8286 0 3.5252 0.10756 3.7703 0.23902 0.4099 0.21986 0.4392-0.0684 0.3656-3.5942-0.055-2.6539 0.016-3.9485 0.2309-4.2078 0.3844-0.46319 1.4647-0.49028 1.7463-0.0438 0.1148 0.1819 0.2193 3.0096 0.2324 6.2838 0.013 3.2742 0.1145 6.4935 0.2255 7.1539 0.1684 1.002 0.1134 1.3085-0.332 1.8521-0.4748 0.57944-0.5779 0.60753-0.9336 0.25447-0.4419-0.43858-0.9521-3.149-0.9552-5.0748v-1.2383l-0.8581 0.24611c-0.472 0.13536-2.1389 0.24612-3.7042 0.24612-3.1827 0-3.0115-0.14284-2.5732 2.1467 0.6438 3.3624 0.2278 5.3156-0.9648 4.53zm-12.157-0.43583c-1.2589-0.54826-2.6156-2.3342-3.1817-4.1883-0.681-2.2302-0.7002-6.3155-0.036-7.5382 1.0726-1.9731 3.776-2.1989 6.4662-0.54006 1.7035 1.0504 2.3038 1.8827 1.9009 2.6355-0.3895 0.7279-1.4216 0.57759-2.8172-0.41029-1.8037-1.2768-2.5622-1.401-3.4054-0.5578-0.6456 0.6456-0.6769 0.80352-0.5898 2.983 0.1033 2.585 0.855 4.5135 2.116 5.4283 0.6961 0.50502 0.7086 0.50436 1.7706-0.0925l1.0696-0.60113-0.6218-0.48905c-0.3419-0.26898-0.8685-0.48905-1.1702-0.48905-0.6725 0-1.0401-1.1397-0.5558-1.7232 0.3832-0.4618 4.0282-0.55783 5.1393-0.13541 1.3252 0.50384 0.595 1.8586-1.0017 1.8586-0.7714 0-1.0477 0.53758-0.4883 0.94983 0.5858 0.43163 0.1932 2.0757-0.655 2.7429-0.807 0.63481-2.6831 0.71428-3.9401 0.16689zm92.542-17.406c-0.1746-0.17463-0.3175-0.49152-0.3175-0.70422 0-0.49468 1.5626-1.9283 3.4898-3.2017l1.5055-0.99473-5.4781 0.13152c-4.8345 0.11607-5.5199 0.0811-5.8345-0.29792-0.5576-0.67189-0.1695-1.6956 0.6946-1.832 0.4004-0.0632 3.6745-0.10245 7.2758-0.0872 3.6014 0.0152 6.5482 7e-3 6.5484-0.0193 0-0.29581-3.7069-2.1578-5.3746-2.6972-2.1635-0.69983-2.1655-0.70131-2.1655-1.624 0-0.89526 0.034-0.92594 1.1094-1.0041 1.8297-0.13297 4.8721 1.2383 8.2172 3.7038 2.0006 1.4745 1.9124 1.8845-0.7937 3.6924-8.5473 5.7101-8.2607 5.5508-8.8768 4.9347zm-122.44-2.4251c-0.6456-1.3629-1.1738-2.6056-1.1738-2.7615 0-0.17339-0.3418-0.22803-0.88-0.14068-0.625 0.10142-1.0125 0.0104-1.337-0.3142-0.7563-0.75625-0.4743-1.4695 0.8534-2.1584 0.05-0.0262-0.2607-0.56193-0.6914-1.1906-1.0315-1.5058-1.8664-3.1713-2.4721-4.9318-0.5735-1.667-1.4669-3.1833-3.9252-6.6623-2.877-4.0717-6.2689-10.006-7.1565-12.521-0.4496-1.2739-1.5229-3.9861-2.3851-6.0271-0.8622-2.041-1.6473-4.1498-1.7446-4.6862-0.2337-1.2886-0.879-2.5398-2.9863-5.7899-4.172-6.4346-8.1725-13.458-9.5438-16.756-1.0297-2.4763-4.967-7.6349-8.9809-11.767-1.555-1.6007-3.5505-3.8652-4.4344-5.032-0.884-1.1669-1.8195-2.2978-2.079-2.5132-0.2596-0.21538-0.9466-1.0466-1.5267-1.8471-2.5039-3.4551-6.6238-6.9614-10.228-8.7042l-2.5186-1.218h-5.693c-7.6263 0-7.9375 0.0883-13.709 3.8882-2.4123 1.5882-5.7012 3.5494-7.3086 4.3581s-3.4604 1.8325-4.1177 2.275c-2.0806 1.4007-8.6349 8.3296-11.446 12.101-1.4647 1.9645-3.2856 4.2862-4.0465 5.1594-0.7608 0.87313-1.9443 2.54-2.6299 3.7042-0.6857 1.1642-1.8107 2.8906-2.5 3.8365-0.6894 0.94588-1.5352 2.196-1.8795 2.7781-0.3444 0.58209-1.0628 1.6536-1.5964 2.3812-1.5761 2.1489-2.8525 4.6697-3.8216 7.5472-0.9854 2.9261-2.4244 5.7532-4.3061 8.4601-1.3019 1.8727-5.5993 10.311-6.8723 13.494-0.4365 1.0914-1.3964 2.9748-2.1331 4.1852s-1.5995 2.9964-1.9173 3.9688-1.0186 2.3632-1.5574 3.0908-1.609 2.3945-2.3781 3.7042c-1.6722 2.8473-3.5758 5.1594-4.2479 5.1594-1.511 0-1.7258-0.83962-0.5118-2.001 0.4468-0.42741 1.6271-1.9677 2.6229-3.4229s2.2378-3.241 2.7599-3.9684c0.5222-0.72741 1.1357-1.9776 1.3634-2.7781 0.2277-0.80056 1.1711-2.8248 2.0964-4.4983s1.9163-3.638 2.2022-4.3656c0.2859-0.72761 1.2331-2.8112 2.1048-4.6302 0.8718-1.819 1.9986-4.2003 2.5041-5.2917s1.4477-2.6988 2.0938-3.5719c1.9526-2.6386 3.1398-4.7875 3.8371-6.9455 0.6798-2.1038 2.7298-6.2206 4.6808-9.4 2.4911-4.0596 7.1049-10.904 8.0405-11.927 0.551-0.60284 2.0506-2.4896 3.3324-4.1928 3.0099-3.9996 9.1506-10.787 11.428-12.632 1.0072-0.81589 3.4009-2.2589 5.5182-3.3266 2.0567-1.0371 5.2274-2.931 7.046-4.2087 4.0253-2.8279 4.5581-3.1067 7.6235-3.9886 2.3521-0.67666 2.6-0.69462 8.4459-0.61188l6.0227 0.0852 3.0427 1.5849c2.602 1.3554 3.4343 1.9635 5.7465 4.199 1.5618 1.5101 4.1797 4.5277 6.1987 7.1452 1.9222 2.4921 4.7105 5.7217 6.1962 7.177s3.4106 3.5983 4.2775 4.7625c0.867 1.1642 1.843 2.3527 2.1689 2.6411 1.1223 0.99309 2.3375 2.9194 3.0073 4.7672 1.0397 2.8684 1.413 3.6657 3.2009 6.8365 1.7589 3.1194 4.8274 7.951 7.3818 11.623 1.1933 1.7156 1.6454 2.6538 2.0404 4.2346 0.2791 1.1169 1.3256 3.9685 2.3254 6.337 0.9999 2.3684 1.9778 4.723 2.1731 5.2323 0.5737 1.4958 5.7382 10.478 7.7467 13.473 1.0171 1.5167 2.3512 3.8384 2.9648 5.1594 0.6136 1.321 1.6745 3.265 2.3576 4.32l1.2419 1.9182 3.8898 4e-3c2.1394 2e-3 4.049 0.10499 4.2437 0.22836 0.1946 0.12337 0.3137 0.5085 0.2646 0.85584-0.078 0.55256-0.2713 0.65308-1.5445 0.80381-0.8004 0.0947-2.4906 0.18405-3.7561 0.19844l-2.3009 0.0262 0.48 1.395c0.264 0.76726 0.7953 2.0174 1.1808 2.7781l0.7009 1.3831h-0.9473c-0.9356 0-0.9617-0.0304-2.1211-2.478zm-137.1 1.1879c-0.7626-0.26347-2.3763-1.1444-3.586-1.9577-1.2096-0.81327-2.5233-1.6263-2.9192-1.8066s-0.7914-0.61297-0.8788-0.9613c-0.2133-0.85011 0.6245-1.7063 4.2381-4.331 3.063-2.2248 4.1197-2.5781 4.6648-1.5596 0.4232 0.79079-0.01 1.3577-2.0289 2.6736l-1.7869 1.1629 3.9584 0.13229c2.1772 0.0728 4.1073 0.22862 4.2892 0.34635s0.3307 0.4898 0.3307 0.82682c0 0.82171-0.7092 0.94308-5.5232 0.94524l-3.8695 2e-3 0.7938 0.5416c0.4365 0.29788 1.7074 1.0082 2.8241 1.5786 2.081 1.0628 2.6705 1.7837 2.0601 2.5192-0.4104 0.49456-0.8685 0.47454-2.5667-0.11214zm121.17-3.1822c-1.6674-0.15862-2.1605-0.47286-2.169-1.3823-0.01-0.98005 0.6415-1.1171 3.7886-0.79806 1.6418 0.16645 3.7521 0.30447 4.6895 0.3067 1.9861 5e-3 2.4453 0.21838 2.3227 1.0806-0.071 0.50182-0.3019 0.66549-1.1476 0.81472-1.2315 0.21732-5.0894 0.20614-7.4842-0.0217zm-36.133-0.50804c-0.5697-0.11192-0.8517-1.2653-0.4328-1.77 0.27-0.32527 1.2865-0.39344 5.8678-0.39344 3.3138 0 5.747 0.11011 6.053 0.2739 0.7197 0.38513 0.6488 1.2746-0.1249 1.5688-0.5993 0.22786-10.424 0.50522-11.363 0.32078zm18.813 7e-3c-0.5923-0.11839-0.8884-1.2612-0.4603-1.777 0.3976-0.47919 3.1328-0.52441 7.179-0.11869 3.5871 0.3597 3.7153 0.40469 3.6153 1.2693l-0.082 0.70489-4.8948 7e-3c-2.6921 4e-3 -5.103-0.0346-5.3576-0.0855zm107.54-0.1067c-0.1746-0.17462-0.3175-0.508-0.3175-0.74083 0-0.94575 0.5373-1.0583 5.0507-1.0583 3.8196 0 4.4933 0.0628 4.9904 0.46534 0.7899 0.63965 0.4721 1.2852-0.7305 1.4841-1.8368 0.30369-8.653 0.18979-8.9931-0.15028zm13.904 0.1093c-0.6304-0.12953-0.9035-1.3171-0.4152-1.8054 0.4159-0.41588 4.4827-0.8727 7.905-0.88794 2.1625-0.01 3.0182 0.34616 2.8561 1.1876-0.1219 0.63313-0.9364 0.85816-3.2685 0.90309-1.0187 0.0196-2.9237 0.18465-4.2334 0.36671-1.3096 0.18206-2.5895 0.28822-2.844 0.2359zm15.588-0.01c-0.5741-0.11135-0.8593-1.2628-0.4384-1.77 0.4413-0.53176 6.2699-0.56948 6.9868-0.0452 0.7474 0.54652 0.4242 1.3202-0.641 1.5345-1.0499 0.21118-5.2395 0.4103-5.9074 0.28076zm-168.4-0.28804c-2.4901-0.16622-2.9505-0.37766-2.9602-1.3595-0.011-1.1562 0.9181-1.2529 6.2136-0.64637 4.7086 0.53926 4.6806 0.53072 4.5808 1.3964l-0.083 0.71838-2.6459 0.0276c-1.4552 0.0152-3.7527-0.0463-5.1055-0.13658zm77.006-0.0538c-0.4801-0.49353-0.4052-1.5001 0.1323-1.777 0.2547-0.13119 2.7259-0.31862 5.4916-0.4165 4.2247-0.14953 5.1129-0.11536 5.5562 0.21372 0.4229 0.3139 0.4698 0.48676 0.236 0.87022-0.2283 0.37461-0.8891 0.54525-3.0427 0.78583-5.2475 0.58619-8.0139 0.69313-8.3734 0.32369zm28.881-0.36985c-0.3482-1.3874-0.055-1.4518 6.6209-1.4518 6.4669 0 7.1972 0.12501 6.9909 1.1965-0.053 0.27504-0.3934 0.58272-0.7564 0.68374-0.3631 0.10101-3.3665 0.19553-6.6743 0.21004l-6.0142 0.0264zm17.992 0c-0.3304-1.3167 0.1042-1.4518 4.6699-1.4518 4.6284 0 5.6252 0.20216 5.4933 1.1141-0.1199 0.82861-0.8065 0.94617-5.7018 0.97624l-4.2945 0.0264zm-152.44 0.20962c-2.6296-0.0896-2.7141-0.11163-2.8738-0.74802-0.098-0.39006-0.019-0.83063 0.1939-1.0876 0.3135-0.37778 0.8477-0.41185 4.2605-0.27175 2.146 0.0881 4.1411 0.28819 4.4335 0.44467 0.5179 0.27716 0.7308 1.1772 0.3332 1.4083-0.3721 0.21626-3.6323 0.34691-6.3473 0.25437zm121.04 0.0122c-0.596-0.16078-0.8852-1.2975-0.4604-1.8094 0.2653-0.31965 1.1608-0.39344 4.7748-0.39344 2.4466 0 4.762 0.11925 5.1453 0.26501 0.9064 0.34461 0.823 1.3414-0.1334 1.5936-0.8377 0.22095-8.7067 0.51134-9.3263 0.34418zm-109.89-0.75103c-0.3376-1.3452 0.053-1.4518 5.3193-1.4518 4.2179 0 4.9062 0.0592 5.4077 0.46534 0.79 0.63965 0.4722 1.2852-0.7305 1.4841-0.5369 0.0888-2.9682 0.16271-5.4029 0.16431l-4.4267 3e-3zm-43.711 0.0828c-0.1746-0.17462-0.3175-0.508-0.3175-0.74083 0-0.96565 0.51-1.0583 5.8232-1.0583 5.4715 0 6.2452 0.15316 6.0443 1.1965-0.1444 0.74963-0.9604 0.86495-6.3245 0.89378-3.4956 0.0188-4.9994-0.065-5.2255-0.29113zm16.669 0c-0.1747-0.17462-0.3175-0.508-0.3175-0.74083 0-1.0898 1.4138-1.2514 7.276-0.83188 2.3182 0.1659 2.3813 0.18794 2.3813 0.83188 0 0.6132-0.1159 0.67384-1.5875 0.83118-2.8606 0.30582-7.4092 0.25281-7.7523-0.0904zm312.99-2.247c-0.4865-0.2397-1.2008-0.84305-1.5875-1.3408s-1.3001-1.6438-2.0298-2.5468c-1.8427-2.2802-3.0388-4.2041-3.0388-4.8877 0-0.36694 0.2535-0.69333 0.6946-0.89431 0.8002-0.36463 0.803-0.36197 3.0353 2.9737 0.7304 1.0914 1.708 2.5202 2.1725 3.175l0.8444 1.1906 0.1323-4.6836c0.1356-4.7989 0.2712-5.3777 1.2171-5.1956 0.6538 0.12591 0.8377 0.95571 0.8996 4.0583 0.029 1.4552 0.1393 2.9435 0.2451 3.3073 0.1723 0.5923 0.3186 0.41249 1.3993-1.7198 1.3026-2.5701 2.0115-3.4063 2.7646-3.2613 0.8194 0.15779 0.6937 0.87709-0.6515 3.729-2.0602 4.3676-3.7628 6.58-5.0315 6.5378-0.1-3e-3 -0.5792-0.20214-1.0657-0.44183zm0.3836-17.698c-0.4133-1.077 0.168-10.001 0.6926-10.633 0.1607-0.19359 0.6-0.3162 0.9763-0.27246l0.6841 0.0795 0.072 5.0999c0.045 3.2166-0.031 5.2928-0.2078 5.6224-0.3526 0.65888-1.9749 0.73497-2.2171 0.10398zm10.686-12.151c-0.4123-0.49679-0.2219-2.4401 0.6868-7.0096 0.632-3.1781 2.7752-10.096 3.3404-10.782 0.1498-0.1819 0.5621-0.33073 0.9161-0.33073 0.5227 0 0.76 0.26313 1.2631 1.4007 0.3407 0.77041 0.8786 2.2884 1.1954 3.3734 0.3167 1.085 1.0494 3.4445 1.6282 5.2434 1.2663 3.936 1.3388 5.7251 0.232 5.7251-0.592 0-0.7549-0.25302-1.5514-2.4099l-0.8898-2.4099-1.8883 0.12606c-1.0385 0.0693-1.98 0.20965-2.092 0.31183-0.1121 0.10218-0.3358 1.6062-0.4971 3.3422-0.1614 1.736-0.4117 3.3052-0.5562 3.4872-0.3614 0.45463-1.3858 0.41563-1.7872-0.068zm5.5978-11.534-0.6801-2.4075-0.7383 2.1971c-0.4061 1.2084-0.7383 2.2918-0.7383 2.4075s0.6383 0.21041 1.4185 0.21041h1.4184zm23.091 11.048c-0.075-0.19517-0.101-3.6386-0.058-7.652l0.078-7.2972 0.6615-0.71642c1.261-1.3658 3.7347-1.8484 5.8475-1.1408 2.3693 0.79357 3.6009 3.6298 2.5004 5.758-0.9514 1.8398-3.9981 3.3962-6.1553 3.1443l-0.9324-0.10885 0.1869 3.6286c0.2133 4.139 0.061 4.7392-1.2001 4.7392-0.436 0-0.8541-0.15968-0.9289-0.35485zm4.215-10.34c1.6639-0.48145 2.8169-1.3972 2.8169-2.2372 0-0.73001-1.1845-2.0569-2.0243-2.2676-0.8792-0.22067-1.9788 0.21837-2.4544 0.97998-0.1997 0.31969-0.4221 1.4072-0.4943 2.4166-0.1072 1.498-0.064 1.8097 0.238 1.6959 0.2032-0.0767 1.0663-0.34118 1.9181-0.58765zm-20.149 10.113c-0.2259-0.22583-0.3111-1.7347-0.2952-5.2255 0.024-5.3541 0.2335-7.7833 0.7114-8.2611 0.5563-0.55634 2.4448 0.27613 3.8436 1.6943l1.2701 1.2877 0.507-0.60822c0.2789-0.33452 0.5111-0.71216 0.5159-0.8392 0-0.12704 0.5506-0.99024 1.2128-1.9182 1.4513-2.0337 1.9494-2.1301 2.9357-0.56773 1.2959 2.0529 1.6179 3.2133 2.2063 7.9507 0.6241 5.0246 0.5585 5.602-0.6165 5.4285-0.6893-0.10178-0.8175-0.60124-1.6499-6.4289-0.3741-2.6194-0.7383-4.9408-0.8092-5.1588-0.083-0.25444-0.543 0.26053-1.2853 1.4386-0.6359 1.0092-1.432 1.9737-1.769 2.1434-0.8913 0.44869-2.0458 0.044-3.4828-1.2209l-1.2312-1.0838v5.3315c0 3.1692-0.1111 5.5391-0.2739 5.8433-0.3061 0.57206-1.3038 0.68035-1.7898 0.19428zm31.036 0.13967c-2.6977-0.5936-2.8712-1.0474-2.9956-7.8325-0.075-4.0728-0.017-5.5979 0.223-5.887 0.3911-0.4712 1.474-0.51442 1.7487-0.0698 0.1089 0.17621 0.1669 2.3809 0.1289 4.8993-0.073 4.819 0.1421 6.2129 1.0311 6.6886 0.2698 0.1444 1.9044 0.26255 3.6324 0.26255 3.342 0 4.1797 0.25241 3.9965 1.2041-0.069 0.35709-0.4108 0.56317-1.1533 0.69487-1.1401 0.20222-5.7476 0.23002-6.6117 0.0399zm57.508-0.79384c-0.5695-0.15026-0.6073-0.32193-1.4598-6.6312-0.6646-4.9189-0.694-5.475-0.3418-6.472 0.673-1.9048 1.3382-2.1838 5.4448-2.2839 3.8395-0.0935 4.3333 0.0414 4.3333 1.1842 0 0.91916-1.0393 1.236-3.4688 1.0574-2.5749-0.18928-3.8762 0.14649-4.1053 1.0593-0.1444 0.57563 0.056 4.3052 0.2415 4.4906 0.034 0.0344 1.8226 0.14821 3.9737 0.25279 3.3309 0.16193 3.9477 0.25875 4.1585 0.65266 0.4914 0.91812-0.37 1.1734-4.2891 1.2713-3.2645 0.0815-3.66 0.14046-3.5508 0.52917 0.068 0.24059 0.2008 1.0529 0.2961 1.8051 0.1694 1.3367 0.1893 1.3627 0.8791 1.1462 0.3881-0.12182 1.9839-0.28402 3.5461-0.36043 2.3172-0.11333 2.9143-0.0651 3.2412 0.2618 0.4845 0.48457 0.517 1.0535 0.076 1.3263-0.1787 0.11047-1.9945 0.27356-4.0349 0.36243-2.0405 0.0889-3.8885 0.22948-4.1068 0.31248s-0.593 0.0991-0.8327 0.0359zm-23.662-0.71767c-2.0805-0.92859-3.3159-3.6948-3.8502-8.6213-0.3317-3.0584-0.1906-3.7175 0.7943-3.7082 0.9746 9e-3 1.1263 0.41727 1.3523 3.6379 0.2349 3.347 0.7376 5.0288 1.8298 6.1209 1.1466 1.1466 2.8937 0.49615 3.7536-1.3974 0.3868-0.85176 0.496-1.7317 0.5006-4.0336 0.01-3.0364 0.238-3.737 1.1251-3.3966 0.9851 0.37802 1.3444 4.9439 0.5891 7.4871-0.8856 2.9823-3.8761 4.9014-6.0946 3.9112zm11.398-1.1782c-0.7593-0.46127-0.8192-0.63625-1.3813-4.0328-0.3231-1.9528-0.6208-4.8603-0.6614-6.461l-0.074-2.9104 3.0427 0.0224c3.4587 0.0254 4.5686 0.40715 6.0329 2.075 2.2348 2.5453 2.183 8.114-0.092 9.9036-2.0541 1.6157-5.3938 2.2982-6.8669 1.4033zm3.3073-2.2319c2.2319-1.1078 2.9104-2.0858 2.9104-4.1947 0-3.2778-1.2999-4.7287-4.2367-4.7287h-1.6608l0.1783 1.9182c0.098 1.055 0.252 3.2577 0.3422 4.8948 0.1046 1.8976 0.2696 2.9743 0.4554 2.9703 0.1603-3e-3 1.0653-0.39039 2.0112-0.8599zm-102.37 1.82c-0.394-0.47475-0.2359-9.8426 0.173-10.251 0.5303-0.5303 1.2316-0.12294 1.4334 0.8326 0.2451 1.1607 0.3263 9.1417 0.097 9.5131-0.246 0.39814-1.3449 0.33736-1.7031-0.0942zm64.125 0.0826c-0.097-0.15757-0.3364-1.9137-0.5311-3.9026-0.1948-1.9889-0.4973-4.5943-0.6723-5.7898-0.2549-1.7419-0.2512-2.2544 0.019-2.5797 0.4015-0.48376 1.4829-0.53686 1.7612-0.0865 0.3583 0.57968 1.0855 11.134 0.8212 11.918-0.2498 0.74061-1.0555 0.99489-1.3978 0.44111zm8.9643 0.0814c-0.3444-0.21911-0.8786-5.1857-0.8801-8.1822l-9e-4 -1.905-1.4939-0.0793c-1.6744-0.0889-2.3185-0.61936-1.7834-1.4684 0.2601-0.41263 0.887-0.47081 5.7607-0.53456 5.8328-0.0763 6.6092 0.0532 6.4624 1.0781-0.1014 0.70787-1.1935 0.94073-4.5142 0.9626l-2.3152 0.0153 0.09 4.5641c0.1067 5.4191-0.1092 6.3231-1.3252 5.5496zm-73.853-15.987c-0.4285-0.42857-0.4373-7.8611-0.01-8.7982 0.3281-0.72018 1.0427-0.88515 1.4864-0.34318 0.4196 0.51248 0.7183 8.1914 0.3457 8.8876-0.3353 0.62669-1.3126 0.76283-1.8217 0.25378zm-0.026-17.211c-0.31-0.82161-0.8205-4.7678-0.8205-6.3433 0-0.71403 0.1232-1.5285 0.2739-1.81 0.2803-0.52373 1.1678-0.69716 1.4264-0.27873 0.079 0.12818 0.4074 2.1009 0.7294 4.3838 0.5065 3.5915 0.5337 4.1834 0.2023 4.3931-0.7062 0.44674-1.5751 0.2813-1.8115-0.34488zm4.3689-15.139c-1.4124-1.9601-2.6704-3.6271-2.7954-3.7044-0.1251-0.0773-0.162 1.0471-0.082 2.4986 0.1619 2.9382-0.024 3.4466-1.2578 3.4466-0.9391 0-1.0508-0.32662-1.0698-3.1305-0.013-1.8852-0.072-2.2034-0.3307-1.7875-0.1734 0.27827-0.5118 0.713-0.7521 0.96606-0.2403 0.25307-0.5108 0.69306-0.6012 0.97775-0.2403 0.75714-2.1185 2.7096-2.6065 2.7096-0.5555 0-1.2502-0.71705-1.2502-1.2904 0-0.25238 0.3046-0.86895 0.6769-1.3702 0.3722-0.50122 1.3285-1.8879 2.1251-3.0816 1.8408-2.7585 2.4614-3.2537 4.0772-3.2537 1.9156 0 1.872-0.0464 7.056 7.5011 0.5744 0.83624 0.8815 1.5967 0.8815 2.1828 0 0.81176-0.073 0.89945-0.7515 0.89945-0.6613 0-1.0597-0.4277-3.3195-3.5638zm-234.86-10.032c-1.4368-1.0546-1.6557-1.3743-3.8423-5.6103-2.0492-3.9696-2.329-5.3687-2.1925-10.964l0.095-3.8815 1.0146-1.999c0.6874-1.3543 1.5831-2.5615 2.7773-3.7433 2.8734-2.8434 4.3019-3.5978 5.0671-2.6759 0.5641 0.67966 0.093 1.5503-1.245 2.3016-1.7017 0.95556-3.8446 3.199-4.7546 4.9778-0.741 1.4485-0.7444 1.4791-0.7444 6.6146v5.1594l0.7771 1.3229c0.4274 0.72761 1.2799 2.3472 1.8945 3.5992 0.6722 1.3695 1.4812 2.5816 2.0309 3.0427 1.2159 1.0201 1.6565 1.8649 1.2366 2.3709-0.4552 0.54849-0.7687 0.47206-2.114-0.51544zm17.121 0.18985c-0.2874-0.28735-0.2026-0.84384 0.2043-1.342 1.879-2.2997 4.1381-5.2784 5.1246-6.757 1.1065-1.6584 1.2094-1.958 1.3708-3.9895 0.096-1.208 0.094-3.4372 0-4.9538-0.1446-2.2431-0.3103-3.0183-0.8887-4.156-1.3975-2.7492-4.1731-5.0647-6.9321-5.7831-1.9117-0.49777-2.2269-0.73975-2.2269-1.7092 0-1.0812 0.8769-1.2206 3.0966-0.49216 2.8924 0.94913 6.8987 4.1886 8.1337 6.577 0.8077 1.562 1.196 4.2376 1.1942 8.2301 0 3.3913-0.072 4.0074-0.6078 5.3097-0.7796 1.8952-2.859 4.893-5.08 7.3241-1.3632 1.4921-1.9143 1.9182-2.4807 1.9182-0.4006 0-0.8076-0.0794-0.9046-0.17638zm-83.96-4.1231c-0.3245-0.51949-0.3637-0.86467-0.6093-5.3578-0.401-7.3346-0.4336-11.72-0.09-12.064 0.4593-0.45927 6.8038-0.16299 8.0394 0.37544 1.1879 0.51763 1.4408 0.82814 1.8154 2.2292 0.6303 2.3573-0.8102 4.7063-3.6743 5.9916-0.8688 0.38987-2.1501 0.73378-2.8474 0.76424l-1.2678 0.0554 0.091 3.7801c0.065 2.6984-1e-3 3.8912-0.2308 4.1681-0.3944 0.47513-0.9491 0.50102-1.2264 0.0572zm2.9779-10.261c1.8611-0.6403 3.3718-1.5941 3.9694-2.5062 0.3629-0.55379 0.3818-0.79139 0.1145-1.4367-0.4104-0.99089-0.7167-1.1018-3.5129-1.2725l-2.3151-0.14129v2.9471c0 1.6209 0.041 2.9471 0.091 2.9471s0.794-0.2419 1.6533-0.53756zm24.238 10.274c-0.7627-0.76275-0.1611-3.5383 1.7763-8.1951 0.5646-1.3572 1.4681-3.8369 2.0078-5.5104 1.113-3.4513 1.5235-4.2333 2.2222-4.2333 0.7666 0 1.0779 0.58338 1.5045 2.8198 0.4667 2.4464 1.407 5.9758 2.6671 10.01 0.7138 2.2854 0.85 3.0362 0.6361 3.5057-0.6636 1.4565-1.7127 0.23692-2.661-3.0934l-0.5887-2.0674-1.3612 0.36244c-0.7486 0.19935-1.7351 0.36386-2.1921 0.36558-0.8125 3e-3 -0.8433 0.049-1.3891 2.0717-0.3069 1.1377-0.5581 2.3362-0.5581 2.6632 0 1.3709-1.2229 2.1416-2.0638 1.3007zm7.0868-8.6122c0-0.10914-0.2816-1.2078-0.6207-2.4415-0.5844-2.126-0.626-2.195-0.7959-1.3229-0.098 0.50608-0.4608 1.6048-0.8049 2.4415l-0.6258 1.5214h1.4257c0.7841 0 1.4238-0.0893 1.4216-0.19843zm17.642 7.9966c-1.0146-1.2825-7.7377-6.2107-8.4726-6.2107-0.093 0-0.1692 1.3465-0.1692 2.9921 0 3.3132-0.3243 4.287-1.2413 3.7271-0.7058-0.431-0.8262-1.9427-0.8522-10.701-0.017-5.755 0.061-7.9022 0.2943-8.1359 0.4543-0.45424 1.4667-0.39186 1.7462 0.10758 0.1309 0.23379 0.1798 2.4364 0.1089 4.8948-0.073 2.5278-0.027 4.4667 0.106 4.4628 0.2224-7e-3 2.0507-0.97222 5.4569-2.882 1.7533-0.98307 2.9313-1.0257 3.0617-0.11083 0.088 0.61682-0.8863 1.3964-4.0683 3.2559l-1.6522 0.96549 2.3373 1.8366c1.2855 1.0102 2.7508 2.1343 3.2561 2.4981 1.2317 0.88669 2.0728 2.1666 2.1219 3.229 0.035 0.74687-0.055 0.88264-0.6211 0.94617-0.4915 0.0551-0.8544-0.1697-1.4124-0.87493zm-37.746 0.33174c-1.3645-0.67854-1.554-1.6198-1.752-8.7053-0.2112-7.5547-0.1487-7.8925 1.581-8.5503 0.8598-0.32703 1.9492-0.40102 5.0374-0.34216 3.4145 0.0651 3.9793 0.13689 4.232 0.53813 0.2127 0.33762 0.2122 0.58841 0 0.92604-0.2573 0.4061-0.7886 0.46583-4.3219 0.48589-2.5305 0.0144-4.0936 0.1273-4.2033 0.30367-0.096 0.15445-0.1381 1.7105-0.093 3.4578l0.081 3.177 3.68 0.0912c2.9055 0.072 3.7673 0.17872 4.0956 0.50723 0.2286 0.22882 0.3445 0.60137 0.2576 0.82787-0.21 0.54722-1.4985 0.73403-5.0869 0.73754l-2.9766 3e-3v1.5214c0 0.83674 0.094 1.6627 0.2038 1.8355 0.392 0.61644 1.7822 0.90171 4.0443 0.82985 2.4997-0.0794 3.2459 0.21256 3.1028 1.2141-0.07 0.49269-0.4074 0.60015-3.1217 0.99534-3.758 0.54718-3.9448 0.55291-4.7625 0.1463zm57.997 0.0192c-0.1746-0.17462-0.3175-0.508-0.3175-0.74083 0-0.76955 0.61-1.0583 2.2357-1.0584l1.6008-1e-4 0.017-6.3474 0.016-6.3474-0.8459 0.92353c-0.4652 0.50794-1.0739 0.92353-1.3526 0.92353-1.1727 0-1.5356-1.4143-0.5836-2.2741 0.307-0.27722 1.1507-1.2482 1.8749-2.1577 1.4039-1.7631 2.3192-2.1324 2.846-1.1482 0.1781 0.33286 0.2119 3.1787 0.099 8.3344l-0.1715 7.8289h1.3331c2.2856 0 2.7236 1.4767 0.6019 2.0292-1.6255 0.42329-6.9394 0.44824-7.3531 0.0345z"/></g></svg>
