<svg width="567.76mm" height="174.48mm" version="1.1" viewBox="0 0 567.76 174.48" xml:space="preserve" xmlns="http://www.w3.org/2000/svg"><g transform="translate(-1558.5 719.6)"><path fill="#fff" d="m1880.8-545.4c-0.9435-0.21419-2.1663-0.56985-2.7174-0.79034-0.551-0.22049-1.2674-0.40366-1.5919-0.40705-0.6648-7e-3 -3.1906-2.6676-3.6304-3.8244-0.8806-2.3162 0.5374-7.7724 2.5381-9.766 3.0268-3.0162 7.7573-5.9826 9.5401-5.9826 0.8439 0 1.15 0.11642 1.2659 0.48144 0.084 0.26479 0.5596 0.67546 1.0569 0.9126 1.51 0.72007 4.4734 3.7189 5.2576 5.3205 0.6412 1.3096 0.7121 1.7426 0.7121 4.3535 0 3.8027-0.5912 5.8177-2.2472 7.6596-0.6509 0.72391-1.5793 1.5041-2.0633 1.7337-1.3051 0.61932-5.9717 0.79695-8.1205 0.30911zm7.4465-2.4229c1.3577-0.79017 2.5967-3.4262 2.7821-5.919 0.1744-2.345-0.1366-3.6723-1.2564-5.363l-0.8197-1.2376-3.4297 3.5515c-3.0584 3.167-6.8439 7.7797-6.8439 8.3395 0 0.11471 0.3274 0.34366 0.7276 0.50878 2.3007 0.9493 7.2983 1.017 8.84 0.1198zm-10.462-3.2662c0.5884-0.65485 1.438-1.7346 1.8879-2.3995 0.7976-1.1788 6.7253-7.2599 7.5905-7.787 0.3679-0.22409 0.2121-0.43733-1.0179-1.3934l-1.4522-1.1288-1.3796 0.52421c-3.183 1.2095-6.8019 4.3037-7.6338 6.5272-0.8737 2.3351-1.1137 3.7346-0.822 4.7913 0.2509 0.90875 1.277 2.2737 1.5996 2.1279 0.087-0.0392 0.6391-0.60701 1.2275-1.2618zm-277.07-25.586c-1.3078-1.9045-2.0882-2.7025-4.296-4.3935-2.2999-1.7614-2.6979-2.1769-2.6979-2.816 0-0.73869 0.389-1.0708 1.2543-1.0708 0.4704 0 2.8884 1.7288 4.327 3.0936l0.9511 0.90236 0.1786-3.3408c0.098-1.8375 0.3739-4.9095 0.6125-6.8266 0.5384-4.3259 0.6335-16.528 0.1591-20.419-0.4221-3.4621-0.3045-49.728 0.1324-52.098 0.1585-0.85966 0.3729-4.2262 0.4766-7.4812 0.1787-5.611 0.164-5.9088-0.283-5.7372-0.2594 0.0995-0.8186 0.96573-1.2428 1.9249-2.6353 5.9591-3.0005 6.651-3.5927 6.8058-0.7255 0.18973-1.3856-0.3022-1.3856-1.0325 0-0.29485 0.5174-1.5007 1.1497-2.6796 0.6324-1.1789 1.4317-2.8567 1.7763-3.7283 0.8058-2.0384 2.5388-3.8392 3.6947-3.8392 1.1599 0 2.1495 0.58897 3.4307 2.0416 1.3973 1.5845 2.1186 2.999 3.4464 6.7595 1.3637 3.862 1.381 5.2699 0.06 4.8422-0.4437-0.14361-1.7806-3.0227-2.4654-5.309-0.5451-1.82-2.2829-4.9816-2.3718-4.3151-0.01 0.045-0.1254 2.7607-0.2654 6.0349s-0.368 6.4889-0.5068 7.1438c-0.1387 0.65484-0.2555 5.715-0.2595 11.245 0 5.5298-0.1449 15.531-0.3131 22.225-0.2716 10.806-0.2569 12.72 0.1306 17.066 0.4843 5.4313 0.583 18.191 0.1648 21.299-0.3728 2.7703-0.6521 11.245-0.3705 11.244 0.1321-2.1e-4 0.5189-0.68482 0.8596-1.5214 0.7572-1.8593 2.7353-4.8836 3.6804-5.627 0.8001-0.62938 1.7405-0.6001 1.8659 0.0581 0.047 0.24747-0.5001 1.319-1.2161 2.3812-1.8153 2.693-2.326 3.7773-3.1784 6.7483-0.7117 2.4808-0.7768 2.5947-1.5253 2.6696-0.7143 0.0715-0.9202-0.12316-2.3801-2.249zm293.97 2.0098c-7.2761-0.0986-14.063-0.30494-15.081-0.4586-1.06-0.1599-6.6045-0.28654-12.964-0.29611-9.1082-0.0137-11.375-0.0895-12.568-0.42024-1.2182-0.3378-3.2701-0.39219-12.601-0.33406-9.0137 0.0562-11.228 2e-3 -11.574-0.28563-0.9368-0.77746-1.028-2.2231-0.9449-14.978 0.044-6.8395 0.059-18.061 0.033-24.937l-0.048-12.502h-1.7198c-1.6375 0-1.7198-0.0303-1.7198-0.63315 0-0.77581 0.4242-0.95435 2.267-0.95435h1.4298l-2e-4 -22.476c-2e-4 -12.362-0.073-22.838-0.161-23.28s-0.4273-1.091-0.7533-1.4428l-0.5926-0.63948-14.258-0.0293c-14.823-0.0305-33.821-0.40943-34.55-0.68909-0.2311-0.0887-3.4395-0.26371-7.1298-0.38898s-7.305-0.34856-8.0326-0.49619c-1.7338-0.3518-23.615-0.37513-30.137-0.0321-5.402 0.28407-6.8484 0.54097-7.7505 1.3766-0.8826 0.81755-0.9455 1.6966-0.3557 4.972 0.4731 2.6274 0.5402 4.0911 0.5385 11.752 0 6.8301-0.096 9.3029-0.4287 11.265-0.5742 3.3815-0.8586 20.956-0.3308 20.439 0.1967-0.19241 1.0217-0.33073 1.9726-0.33073 1.7267 0 2.4352 0.4023 2.1263 1.2074-0.1324 0.34503-0.5291 0.40493-2.2124 0.3341l-2.0511-0.0863 0.1712 3.5719c0.094 1.9645 0.262 5.0452 0.3728 6.8459 0.246 3.9968-0.3013 17.131-0.8614 20.671-0.2434 1.5384-0.4684 5.5928-0.5801 10.451-0.1543 6.7099-0.2518 8.0671-0.6301 8.7754-0.737 1.3796-2.5988 1.7304-9.0317 1.7018-2.3416-0.0104-6.0433 0.16373-8.2261 0.38697-2.1829 0.22324-7.8383 0.52306-12.568 0.66628-9.6463 0.29212-31.274 0.0953-35.322-0.32139-1.4552-0.14981-11.278-0.31812-21.828-0.37404-10.55-0.0559-19.28-0.10565-19.399-0.11052-0.1192-5e-3 -0.1788-0.27675-0.1323-0.60417l0.085-0.59531 17.595 0.0123c11.71 8e-3 19.435 0.13147 23.097 0.36847 3.1185 0.20185 10.454 0.3631 16.933 0.37223 19.08 0.0269 24.275-0.0848 29.637-0.63724 2.7367-0.28198 6.6063-0.51366 8.5989-0.51486 3.8618-2e-3 8.006-0.37605 8.7834-0.79211 0.8599-0.46022 1.0676-1.8572 1.2182-8.1934 0.081-3.4242 0.3171-7.5355 0.5239-9.1362s0.5137-6.669 0.6821-11.263c0.2688-7.3361 0.252-8.9781-0.1382-13.494-0.2443-2.8277-0.4419-5.7366-0.439-6.4642l0.01-1.3229-2.1178 0.0863c-1.7443 0.0711-2.1464 0.0121-2.2792-0.3341-0.309-0.80512 0.3995-1.2074 2.1263-1.2074 0.9015 0 1.7742 0.13977 1.9461 0.31166 0.2392 0.23916 0.3062-1.1303 0.2882-5.887-0.024-6.3738 0.039-7.5146 0.7278-13.256 0.3103-2.5846 0.3804-5.4663 0.3055-12.568-0.087-8.227-0.1629-9.5739-0.7098-12.571-0.6035-3.3067-0.6053-3.3716-0.1197-4.3627 0.667-1.3618 2.1573-1.8848 6.2854-2.2059 4.4474-0.34597 33.831-0.32398 35.35 0.0265 2.8314 0.65329 33.746 1.3972 50.64 1.2186l12.407-0.13118 0.605 0.60494c1.2232 1.2232 1.2229 1.2155 1.1281 31.605-0.049 15.798-0.034 32.296 0.034 36.662 0.068 4.3656 0.1273 13.682 0.1323 20.704l0.01 12.766h10.895c9.8234 0 11.159 0.052 13.579 0.52917 2.4199 0.47698 3.7854 0.53031 13.844 0.54079 6.5044 7e-3 11.987 0.13056 13.144 0.29677 2.6987 0.3878 31.101 0.54717 35.851 0.20117 2.0373-0.14839 5.3115-0.45315 7.2761-0.67723 1.9645-0.22409 4.7939-0.36733 6.2876-0.31832 2.5221 0.0828 2.7284 0.0514 2.8931-0.44005 0.097-0.29105 0.2227-17.615 0.2783-38.497 0.1739-65.3 0.1571-63.366 0.5576-63.85 0.7906-0.95575 1.955-1.0173 21.601-1.1418 20.169-0.12785 20.966-0.16449 33.602-1.5444 6.9393-0.75781 9.1812-0.80695 12.171-0.2668 2.7337 0.49393 8.386 0.48798 13.758-0.0145 8.5053-0.79546 10.717-0.80162 14.552-0.0405 3.8132 0.7568 5.9219 1.1208 8.0053 1.382 1.7356 0.21755 2.4427 0.77514 2.6864 2.1182 0.2646 1.4582-0.1588 14.807-0.5158 16.262-0.7477 3.0483-0.5028 79.835 0.2654 83.185 0.1301 0.56767 0.4864 1.282 0.7917 1.5875 0.5233 0.52348 0.832 0.55537 5.3767 0.55537 2.6519 0 6.8456-0.16264 9.3195-0.36143 5.1547-0.41421 7.4801-0.46193 37.042-0.76013 11.933-0.12037 24.137-0.15539 27.12-0.0778 5.3317 0.13864 5.4254 0.15091 5.5066 0.72128 0.069 0.48234-0.083 0.61125-0.897 0.76401-0.5388 0.10107-6.0528 0.03-12.253-0.15789-7.1393-0.21635-14.573-0.27419-20.27-0.15772-4.9477 0.10115-14.413 0.28898-21.034 0.41739-6.6212 0.12842-14.003 0.39137-16.404 0.58435-5.7277 0.46035-13.684 0.46892-14.477 0.0156-1.579-0.90278-1.6418-2.6598-1.786-49.936l-0.1033-33.867 0.5764-2.6458c0.5052-2.3192 0.5764-3.4532 0.5764-9.185 0-5.6707-0.057-6.5959-0.4279-6.9669-0.2772-0.2771-1.6074-0.60816-3.7761-0.93978-1.8415-0.28158-4.0897-0.69393-4.996-0.91632-2.7561-0.67626-7.5218-0.7712-12.958-0.25815-4.8488 0.45763-9.9648 0.45161-18.985-0.0223-3.4324-0.18035-9.6673 0.20113-16.14 0.98749-3.8624 0.46927-5.9514 0.52951-18.124 0.52255-12.907-7e-3 -26.686 0.31329-28.178 0.65574l-0.6614 0.15176-0.095 14.732c-0.052 8.1028-0.1712 31.188-0.2645 51.302-0.1604 34.561-0.1955 36.595-0.64 37.039-0.4113 0.41122-1.241 0.49442-6.6145 0.66329-3.3794 0.1062-8.1105 0.37508-10.514 0.5975-2.403 0.22243-5.6177 0.37878-7.1437 0.34744-1.526-0.0313-8.7277-0.13763-16.004-0.2362zm-325.97-19.394c-5.0179-1.2434-7.8585-5.2242-6.2518-8.7612 1.1656-2.5659 3.7425-4.0885 6.9265-4.0926 2.141-3e-3 2.6326 0.23019 2.6326 1.2475 0 0.77096-0.8595 1.1291-2.7292 1.137-1.5728 7e-3 -3.1974 0.66669-4.128 1.677-0.46 0.49944-0.6725 1.0914-0.7568 2.1091-0.1077 1.2982-0.047 1.4953 0.7419 2.3934 2.0302 2.3123 4.3768 2.9502 9.8911 2.689 6.7538-0.3199 8.1167-0.86648 8.4978-3.4079 0.2571-1.7144-0.2595-2.4623-1.8676-2.7034-0.6648-0.0997-1.3814-0.35396-1.5925-0.56503-0.3353-0.3353-0.3838-0.25011-0.3838 0.67456 0 1.1265-0.5206 1.8899-1.2889 1.8899-0.9612 0-1.0923-0.52827-1.0923-4.4013 0-4.1954 0.2187-5.2067 1.0979-5.0759 0.8233 0.12251 0.9762 0.58043 1.167 3.4952 0.094 1.4393 0.2633 2.4682 0.3757 2.2863 0.2923-0.47301 2.4253-0.65319 3.5068-0.29625 0.5052 0.16672 1.2039 0.60686 1.5527 0.97807 0.5436 0.57845 0.646 0.98398 0.7162 2.8366 0.189 4.9895-2.1129 6.2718-11.194 6.2356-2.6249-0.0104-5.0489-0.15442-5.8209-0.34571zm243.46-6.1536c-0.4356-0.43555-0.038-1.0892 1.9238-3.1615 1.3122-1.3863 2.4122-2.8525 2.9319-3.9082 0.744-1.5112 0.83-1.9298 0.815-3.9656-0.027-3.6945-1.3366-5.8362-4.5616-7.4602-1.9088-0.96127-2.3507-1.474-1.8959-2.1999 0.4468-0.71312 1.3163-0.63721 3.0039 0.26226 1.9129 1.0196 3.7765 2.9915 4.7245 4.9992 0.6159 1.3042 0.6872 1.7715 0.6872 4.5035 0 2.935-0.034 3.1165-0.9041 4.8848-1.128 2.2912-4.8488 6.2221-5.8896 6.2221-0.3623 0-0.7381-0.0794-0.8351-0.17639zm-42.804-0.8158c-0.5266-1.3617-1.0193-4.1626-1.0239-5.8208v-1.6536h-1.3178c-1.1869 0-1.3345-0.0661-1.4848-0.66489-0.2445-0.97424 0.2947-1.4518 1.6394-1.4518 1.0419 0 1.169-0.0702 1.317-0.72761 0.4701-2.0871 0.6914-2.6894 1.3972-3.8024 1.2549-1.9788 4.1206-3.0038 4.9033-1.7539 0.4358 0.69598-0.051 1.2434-1.5514 1.7452-1.1192 0.37432-1.3935 0.60983-1.8964 1.6282-0.3233 0.65484-0.6604 1.5555-0.7491 2.0014-0.1515 0.76237-0.1013 0.82551 0.8413 1.0583 0.8268 0.20423 1.0024 0.36347 1.0024 0.90906 0 0.57326-0.1411 0.6791-1.0583 0.79375l-1.0584 0.13229 0.05 1.4552c0.028 0.80037 0.1935 2.4942 0.3682 3.7642 0.2538 1.8442 0.2504 2.3901-0.017 2.712-0.5082 0.61235-1.0452 0.48398-1.3579-0.3246zm-30.088-2.6458c-2.085-1.9576-2.5513-3.2492-2.5549-7.0776 0-3.6967 0.3031-4.5204 2.5781-6.9259 1.3651-1.4434 2.3502-1.7953 3.0545-1.091 0.5873 0.58734 0.3247 1.2226-0.9813 2.374-2.182 1.9237-2.4839 2.6732-2.3556 5.8475 0.119 2.9425 0.3842 3.7056 1.9675 5.6608 0.964 1.1904 1.1413 2.0526 0.4746 2.3084-0.6871 0.26366-0.789 0.21247-2.1829-1.0962zm53.089-1.1458c-0.2268-0.12692-0.5592-0.58532-0.7387-1.0187l-0.3264-0.78791-0.7474 0.55257c-0.6085 0.44988-1.0061 0.52772-2.1393 0.41883-1.1703-0.11245-1.5286-0.28294-2.2507-1.0708-1.5276-1.6669-1.8445-4.1692-0.5789-4.571 0.6473-0.20543 1.5372 0.64258 1.5372 1.4648 0 0.59367 0.9872 1.8584 1.4507 1.8584 0.1946 0 0.8464-0.77977 1.4483-1.7328 2.1258-3.366 2.8176-2.6558 3.4915 3.5849 0.1314 1.2173-0.3402 1.7528-1.1463 1.3016zm-16.25-0.48277c-1.5017-0.68197-1.8546-1.8747-1.0279-3.4734 0.7641-1.4777 3.7096-2.2363 4.0234-1.0362 0.1303 0.49803 0.1823 0.47628 0.6328-0.26458 0.5345-0.87888 1.2861-1.0404 1.915-0.41144 0.6755 0.67551 1.8053 3.2359 1.7136 3.8833-0.1221 0.86196-1.4187 1.0253-1.6771 0.21122l-0.1801-0.56755-0.4068 0.5808c-0.4806 0.6861-2.3089 1.5702-3.2472 1.5702-0.3638 0-1.1493-0.2216-1.7457-0.49243zm2.6237-2.7733c0.099-0.25811-0.012-0.32711-0.3727-0.23265-0.7143 0.18679-0.9102 0.59957-0.2846 0.59957 0.2841 0 0.5798-0.16511 0.6573-0.36692zm25.859 2.7018c-0.4961-0.53243-0.6835-1.1506-0.8683-2.8641-0.057-0.53017-0.2498-0.68772-0.97-0.79375-1.7391-0.25602-1.7921-1.8956-0.067-2.0673l0.8332-0.0829v-1.6501c0-1.7797 0.2765-2.2851 1.2501-2.2851 0.7856 0 1.1899 0.99458 0.9682 2.3814l-0.1635 1.0226 1.0231 0.084c0.899 0.0738 1.0335 0.17365 1.108 0.82323 0.074 0.64422-0.053 0.7973-0.9895 1.1906-1.0129 0.42555-1.0745 0.51486-1.077 1.5621v1.1107l0.7971-0.27786c1.0493-0.36581 1.5841-0.13022 1.5841 0.69784 0 0.47609-0.2521 0.82742-0.8599 1.1979-1.1152 0.68-1.9007 0.66492-2.566-0.0492zm-6.5284-6e-3c-0.1078-0.17443-0.2495-3.2092-0.3149-6.7441-0.091-4.9076-0.041-6.5214 0.2127-6.8266 0.3863-0.4654 1.4766-0.53249 1.7395-0.10704 0.2809 0.45443 0.1205 12.961-0.1733 13.51-0.293 0.54762-1.1674 0.64788-1.464 0.16789zm-45.208-1.1704c-0.2203-0.5271-0.4044-1.0926-0.4093-1.2568 0-0.16413-0.2132-0.0566-0.463 0.23888-1.2227 1.4464-2.5851 1.7954-4.0506 1.0375-0.8657-0.44767-1.2984-1.2972-1.2984-2.5492 0-1.1403 1.6518-2.7582 3.0558-2.993 0.5749-0.0962 1.1762-0.21452 1.3363-0.26301 0.3286-0.0995 0.6293-2.1829 0.6327-4.3841 0-1.7279 0.4215-2.4543 1.34-2.3246l0.6467 0.0913 0.1721 4.7625c0.095 2.6194 0.3031 5.1784 0.4631 5.6868 0.4238 1.347 0.3675 2.5616-0.1277 2.7516-0.7299 0.28009-0.888 0.18292-1.2977-0.79775zm-2.679-2.6056c0.4007-0.61144 0.3984-0.64285-0.036-0.48809-1.0091 0.35979-1.5288 1.1416-0.7589 1.1416 0.2016 0 0.5591-0.29407 0.7946-0.65349zm8.7608 3.1572c-2.5803-1.3254-2.5649-4.9156 0.028-6.4019 1.1443-0.65602 3.0906-0.79505 4.1802-0.29861 0.8962 0.40834 1.311 1.6526 0.9329 2.7983-0.3261 0.98806-1.8265 1.9274-3.0796 1.9282-0.7363 4.1e-4 -0.7358 2e-3 0.1879 0.46302 0.688 0.34371 0.926 0.63262 0.926 1.1241 0 0.59769-0.1147 0.66788-1.1906 0.72809-0.6803 0.0381-1.5308-0.10814-1.9844-0.34109zm1.8521-4.3558c0.09-0.14552 0.044-0.26458-0.101-0.26458-0.1456 0-0.3382 0.11906-0.4281 0.26458-0.09 0.14552-0.044 0.26458 0.101 0.26458 0.1455 0 0.3382-0.11906 0.4281-0.26458zm-182.98-1.1673c-0.061-0.0599-1.4199-0.18054-3.0207-0.26798-4.2403-0.2316-6.3076-0.53306-9.0996-1.3269-5.1647-1.4685-7.1203-3.0302-6.1245-4.891 0.3754-0.70142 2.4588-1.503 5.5367-2.1302 4.1173-0.83906 9.278-2.2294 13.259-3.5721 4.0496-1.3657 6.813-1.7817 7.3709-1.1095 0.79 0.95199 0.2967 1.2794-3.2698 2.17-3.7519 0.93685-8.0986 2.1815-8.2912 2.374-0.067 0.0667-0.014 1.5226 0.1162 3.2352l0.2375 3.1139 4.6607 0.0721c4.2586 0.0659 4.7017 0.11734 5.1352 0.59639 0.3913 0.43241 0.4218 0.64 0.1736 1.1847-0.2962 0.65007-0.3499 0.66039-3.4375 0.66039-1.7251 0-3.1862-0.0491-3.2468-0.10901zm-5.6643-4.1905c-0.2859-3.0243-0.4296-3.9026-0.6384-3.9026-0.1139 0-0.8874 0.23412-1.7191 0.52026s-2.7256 0.77072-4.2086 1.0768c-2.8998 0.59857-4.1517 0.99458-4.1517 1.3133 0 0.61627 6.9888 2.3721 10.398 2.6123 0.4266 0.0301 0.4599-0.13867 0.3198-1.6201zm214.57-5.4631c-0.5821-0.26978-1.2222-0.76587-1.4225-1.1024-0.326-0.54784-0.3054-0.65942 0.1965-1.0659 0.506-0.40971 0.681-0.41774 1.7953-0.0824 2.1535 0.64811 3.0917 0.50897 4.0683-0.60331 1.1808-1.3448 2.1036-3.4368 2.1067-4.7756 0-0.86652-0.1725-1.316-0.77-1.9844-0.7114-0.79561-0.8949-0.86232-2.3151-0.84207-0.9329 0.0133-2.3649 0.30412-3.6232 0.73586-3.2008 1.0982-3.0802 1.2714-3.0703-4.4137 0.01-3.5665 0.099-4.9298 0.3578-5.271 0.7224-0.95132 2.112-1.2596 5.6783-1.2596 3.7109 0 4.22 0.18409 3.9113 1.4141-0.1507 0.6004-0.2798 0.63302-3.021 0.76294-3.2478 0.15394-3.8334 0.39964-4.4145 1.852-0.4916 1.2285-0.7937 3.637-0.5687 4.5335l0.1674 0.66707 1.2556-0.55864c0.7821-0.34795 2.004-0.60013 3.24-0.66867 1.7176-0.0952 2.1444-0.0243 3.175 0.5276 0.6548 0.3507 1.4683 1.0455 1.8078 1.544 0.5442 0.7992 0.6068 1.1573 0.5292 3.0293-0.073 1.7531-0.2383 2.428-0.9505 3.8741-0.4744 0.96315-1.3292 2.1728-1.8995 2.6881-1.6878 1.5248-4.223 1.9312-6.2339 0.99915zm-9.6275-0.79099c-0.6688-0.66876-0.6969-1.6793-0.082-2.9402 0.5577-1.1433 1.2411-1.2735 2.4438-0.46563 1.706 1.1459 1.1872 3.4795-0.847 3.8096-0.7538 0.12231-1.0743 0.0369-1.515-0.40381zm-14.346-0.89216c-0.4933-0.32878-1.2109-0.73687-1.5948-0.90687-0.536-0.23736-0.7265-0.54378-0.8207-1.3204-0.068-0.55625-0.4506-2.1962-0.8514-3.6444-0.6313-2.2809-0.7138-2.9886-0.617-5.2917 0.087-2.0846 0.245-2.9348 0.7292-3.9379 1.2164-2.52 3.6368-3.3039 7.5281-2.4381 2.115 0.47053 2.7995 0.90345 2.7995 1.7704 0 0.29081 0.3757 1.0748 0.8349 1.7422 1.4733 2.1414 1.8833 3.59 1.8925 6.6871 0.01 3.1342-0.3948 4.4246-1.9347 6.1785-1.3094 1.4913-2.0263 1.759-4.7113 1.759-2.0067 0-2.491-0.089-3.2543-0.59779zm5.864-2.56c1.3395-1.4081 1.9414-3.2878 1.7748-5.5427-0.071-0.9628-0.3304-2.2266-0.5761-2.8084l-0.4468-1.0579-0.8539 1.5982c-0.4697 0.87902-1.7322 2.8434-2.8055 4.3652-1.0734 1.5218-2.0039 2.9656-2.0678 3.2084-0.1681 0.63862 1.1387 1.2552 2.6872 1.2678 1.1724 0.01 1.3934-0.09 2.2881-1.0305zm-3.8188-6.4995c2.1936-3.2646 2.6785-3.8365 3.2536-3.8365 0.6589 0 0.649-0.0268-0.4008-1.0766-1.6035-1.6034-3.8914-1.9556-5.2369-0.80612-1.2708 1.0857-1.8487 4.0715-1.2349 6.3806 0.1354 0.50932 0.3775 1.432 0.5379 2.0505 0.1605 0.61846 0.3393 1.1245 0.3975 1.1245 0.058 0 1.2658-1.7264 2.6836-3.8365zm-92.313 2.712c-0.065-0.1819-0.011-0.53909 0.1195-0.79375 0.1889-0.36727 0.5852-0.46302 1.9163-0.46302 1.7571 0 2.4816 0.395 2.1776 1.1872-0.2006 0.52293-4.0282 0.58608-4.2134 0.0695zm5.8066-0.0479c-0.283-0.73753 0.5617-1.2091 2.1581-1.2048 1.7196 5e-3 2.2562 0.24592 2.121 0.95369-0.082 0.4266-0.3821 0.50839-2.1104 0.57416-1.6034 0.061-2.0466-5e-3 -2.1687-0.32307zm5.9096-0.25448c0-0.7616 0.4275-0.95435 2.1166-0.95435 1.6892 0 2.1167 0.19275 2.1167 0.95435 0 0.61505-0.061 0.63315-2.1167 0.63315-2.0561 0-2.1166-0.0181-2.1166-0.63315zm5.8208 0c0-0.7616 0.4275-0.95435 2.1167-0.95435 1.6891 0 2.1166 0.19275 2.1166 0.95435 0 0.61505-0.061 0.63315-2.1166 0.63315-2.0562 0-2.1167-0.0181-2.1167-0.63315zm5.8208 0c0-0.7616 0.4275-0.95435 2.1167-0.95435 1.6891 0 2.1167 0.19275 2.1167 0.95435 0 0.61505-0.061 0.63315-2.1167 0.63315-2.0562 0-2.1167-0.0181-2.1167-0.63315zm5.9972 0.45676c-0.327-0.32706-0.1796-1.0887 0.2422-1.2505 0.2301-0.0883 0.9943-0.1606 1.6981-0.1606 1.6892 0 2.1167 0.19275 2.1167 0.95435 0 0.61025-0.07 0.63315-1.9403 0.63315-1.0671 0-2.0196-0.0794-2.1167-0.17639zm5.7389-0.22386c-0.3026-0.78859 0.4208-1.1872 2.1545-1.1872 1.7444 0 2.3983 0.3615 2.093 1.1571-0.2328 0.60646-4.0161 0.63333-4.2475 0.0302zm5.8208 0c-0.3026-0.78859 0.4209-1.1872 2.1546-1.1872s2.4572 0.39866 2.1545 1.1872c-0.1183 0.30845-0.6125 0.40025-2.1545 0.40025-1.5421 0-2.0362-0.0918-2.1546-0.40025zm17.54 0.011c-0.2809-0.73178 0.574-1.1983 2.1959-1.1983 1.6132 0 2.3308 0.41846 2.0357 1.1872-0.2188 0.57033-4.0132 0.58022-4.2316 0.011zm5.9135-0.2328c0-0.78236 0.4227-0.96671 2.2045-0.96143 1.5887 5e-3 2.1186 0.25919 1.9859 0.95369-0.082 0.4275-0.3831 0.50833-2.1427 0.57474-2.0144 0.076-2.0477 0.0668-2.0477-0.567zm5.8209-0.0111c0-0.7616 0.4275-0.95435 2.1166-0.95435 1.6892 0 2.1167 0.19275 2.1167 0.95435 0 0.61505-0.061 0.63315-2.1167 0.63315-2.0561 0-2.1166-0.0181-2.1166-0.63315zm5.8208 0c0-0.7616 0.4275-0.95435 2.1167-0.95435 1.6891 0 2.1166 0.19275 2.1166 0.95435 0 0.61505-0.061 0.63315-2.1166 0.63315-2.0562 0-2.1167-0.0181-2.1167-0.63315zm53.636 0.30242c-0.065-0.1819-0.011-0.53909 0.1196-0.79375 0.1889-0.36727 0.5851-0.46302 1.9162-0.46302 1.7572 0 2.4817 0.395 2.1777 1.1872-0.2007 0.52293-4.0283 0.58608-4.2135 0.0695zm5.8067-0.0479c-0.2831-0.73753 0.5616-1.2091 2.1581-1.2048 1.7195 5e-3 2.2561 0.24592 2.1209 0.95369-0.082 0.4266-0.3821 0.50839-2.1103 0.57416-1.6035 0.061-2.0467-5e-3 -2.1687-0.32307zm5.9095-0.25448c0-0.7616 0.4275-0.95435 2.1166-0.95435 1.6892 0 2.1167 0.19275 2.1167 0.95435 0 0.61505-0.061 0.63315-2.1167 0.63315-2.0561 0-2.1166-0.0181-2.1166-0.63315zm5.8208 0c0-0.7616 0.4275-0.95435 2.1167-0.95435 1.6891 0 2.1166 0.19275 2.1166 0.95435 0 0.61505-0.061 0.63315-2.1166 0.63315-2.0562 0-2.1167-0.0181-2.1167-0.63315zm11.818 0.45676c-0.3271-0.32706-0.1796-1.0887 0.2421-1.2505 0.2302-0.0883 0.9943-0.1606 1.6981-0.1606 1.6892 0 2.1167 0.19275 2.1167 0.95435 0 0.61025-0.07 0.63315-1.9403 0.63315-1.0671 0-2.0196-0.0794-2.1166-0.17639zm5.7388-0.22386c-0.3026-0.78859 0.4209-1.1872 2.1546-1.1872 1.7443 0 2.3982 0.3615 2.0929 1.1571-0.2327 0.60646-4.016 0.63333-4.2475 0.0302zm5.8208 0c-0.3026-0.78859 0.4209-1.1872 2.1546-1.1872s2.4572 0.39866 2.1546 1.1872c-0.1184 0.30845-0.6125 0.40025-2.1546 0.40025s-2.0362-0.0918-2.1546-0.40025zm5.8209 0c-0.3026-0.78859 0.4208-1.1872 2.1545-1.1872s2.4572 0.39866 2.1546 1.1872c-0.1184 0.30845-0.6125 0.40025-2.1546 0.40025-1.542 0-2.0362-0.0918-2.1545-0.40025zm5.8208 0c-0.3026-0.78859 0.4209-1.1872 2.1546-1.1872s2.4571 0.39866 2.1545 1.1872c-0.1183 0.30845-0.6125 0.40025-2.1545 0.40025-1.5421 0-2.0362-0.0918-2.1546-0.40025zm5.8983 0.011c-0.2808-0.73178 0.5741-1.1983 2.1959-1.1983 1.6132 0 2.3308 0.41846 2.0358 1.1872-0.2189 0.57033-4.0133 0.58022-4.2317 0.011zm5.9136-0.2328c0-0.78236 0.4226-0.96671 2.2044-0.96143 1.5887 5e-3 2.1186 0.25919 1.9859 0.95369-0.082 0.4275-0.383 0.50833-2.1427 0.57474-2.0144 0.076-2.0476 0.0668-2.0476-0.567zm5.8208-0.0111c0-0.7616 0.4275-0.95435 2.1167-0.95435 1.6891 0 2.1166 0.19275 2.1166 0.95435 0 0.61505-0.061 0.63315-2.1166 0.63315-2.0562 0-2.1167-0.0181-2.1167-0.63315zm5.8208 0c0-0.7616 0.4275-0.95435 2.1167-0.95435s2.1167 0.19275 2.1167 0.95435c0 0.61505-0.061 0.63315-2.1167 0.63315-2.0562 0-2.1167-0.0181-2.1167-0.63315zm-319.51-1.6346c-0.3322-1.3236-0.5217-1.3054 13.448-1.2856 7.1872 0.0102 13.21 0.10652 13.384 0.21405 0.415 0.25648 0.406 1.1351-0.014 1.399-0.1819 0.11419-6.2535 0.23338-13.492 0.26487l-13.162 0.0573zm5.1929-8.3396c-0.652-0.12859-1.8426-0.56275-2.6458-0.96479-1.1583-0.57977-1.4773-0.87732-1.5422-1.4383-0.1308-1.1318 1.6388-2.0294 8.2839-4.2017 4.5581-1.4901 11.136-4.2865 12.586-5.3504l1.1625-0.85306-1.9796-0.16139c-1.0888-0.0888-2.5243-0.29295-3.1901-0.45375-0.6657-0.1608-3.166-0.42114-5.5562-0.57853-8.802-0.5796-9.1078-0.64412-8.9323-1.8847 0.087-0.61609 0.1338-0.62553 2.999-0.607 4.4501 0.0288 11.661 0.55431 14.023 1.022 2.4708 0.48927 4.887 1.1876 5.3578 1.5486 0.6498 0.49821 0.3455 1.4307-0.8166 2.5018-1.5036 1.386-2.1592 1.8008-4.0373 2.5545-0.8592 0.34481-2.9315 1.1858-4.605 1.8689-3.5894 1.4652-9.6783 3.7425-10.676 3.9928-0.3858 0.0968-0.7014 0.27376-0.7014 0.39319 0 0.54805 3.3357 0.74767 11.606 0.69454 5.9656-0.0383 8.954 0.0355 9.217 0.22776 0.2339 0.17107 0.3536 0.59574 0.3002 1.0652l-0.089 0.78071-9.7896 0.0388c-5.3842 0.0213-10.323-0.0665-10.975-0.19505zm367.97-45.216c-1.125-1.1618-2.121-2.4135-2.2134-2.7816-0.2166-0.86306 0.2804-1.456 1.2205-1.456 0.5912 0 0.9664 0.3108 1.9136 1.5855l1.1782 1.5855 0.1833-3.5336c0.1008-1.9435 0.1807-5.7915 0.1775-8.5512-0.01-7.7411 0.6572-10.952 2.6133-12.598 1.2976-1.0919 4.1866-1.6009 8.1822-1.4415 4.0158 0.16016 4.866 0.42095 4.7469 1.4561l-0.084 0.72748h-4.7625c-4.5639 0-4.8095 0.0269-5.8893 0.64536-0.6198 0.35495-1.3022 0.91296-1.5165 1.24-0.5846 0.89222-0.9371 2.7971-0.9389 5.0743-9e-4 1.1199-0.1312 4.6301-0.2895 7.8005s-0.2066 6.4148-0.1073 7.2096l0.1806 1.4452 1.0579-1.3384c0.8658-1.0953 1.1868-1.3235 1.7669-1.2565 0.4904 0.0566 0.734 0.25686 0.7899 0.64909 0.095 0.66454-1.4596 3.2373-2.8143 4.6584-0.8219 0.86214-1.1034 0.99219-2.1479 0.99219-1.1552 0-1.2818-0.0824-3.2475-2.1124zm-162.29-6.49c-0.2923-1.1643 0.2429-1.4518 2.7027-1.4518h2.2166l-0.03-6.0193c-0.017-3.3106-0.1059-7.5671-0.1984-9.4588l-0.1683-3.4396-1.196 1.7198c-0.6578 0.94588-1.5507 2.2891-1.9844 2.9849-0.8292 1.3308-1.7168 1.7954-2.3793 1.2456-0.7518-0.62394-0.3799-1.5041 2.0179-4.7763 2.7935-3.812 3.8667-5.0104 4.4873-5.0104 1.0151 0 0.9692-0.52556 1.4737 16.867l0.1707 5.887h2.6894c2.8676 0 3.7205 0.28782 3.5455 1.1965-0.053 0.27504-0.3934 0.58272-0.7564 0.68374-0.363 0.10101-3.307 0.19553-6.542 0.21004l-5.882 0.0264zm208.6 0.33416c-1.0225-0.8108-2.5871-6.7782-2.593-9.8895 0-1.0043 0.5665-1.5355 1.415-1.3225 0.7113 0.17852 0.9568 1.1035 0.9618 3.6233 0 0.81034 0.1874 2.0946 0.4129 2.854l0.41 1.3806 0.9791-1.9279c1.337-2.6328 1.8587-2.6876 3.4832-0.36616l1.1812 1.688 0.6201-2.1541c0.7625-2.6491 1.2203-3.405 1.9951-3.2948 0.4888 0.0696 0.5734 0.24205 0.5452 1.111-0.018 0.56577-0.4266 2.4482-0.9071 4.1832-0.8822 3.1849-1.3008 3.8411-2.2245 3.4866-0.4947-0.18983-1.8561-2.096-2.3861-3.3409l-0.366-0.85967-0.944 2.0332c-0.5193 1.1182-0.9441 2.1559-0.9441 2.3058 0 0.23036-0.8074 0.8204-1.1226 0.8204-0.055 0-0.2868-0.14883-0.5162-0.33073zm-12.364-1.191c-2.0985-1.0712-1.6878-2.211 0.7186-1.9942 1.2863 0.11585 1.5824 0.0563 1.9947-0.40093 0.6485-0.71933 0.3403-1.253-1.5464-2.6774-2.4346-1.8382-3.0658-3.4706-2.0107-5.2008 0.9859-1.6167 3.6232-2.1552 6.221-1.27 1.4436 0.49188 2.0661 1.3814 1.4696 2.1-0.2409 0.29025-0.6146 0.38496-1.1633 0.29477-0.4447-0.0731-1.3123-0.21784-1.928-0.32169-1.3729-0.23157-2.717 0.24824-2.717 0.96995 0 0.56209 0.3617 0.94081 2.4565 2.5725 2.2931 1.7861 2.8795 3.5525 1.6602 5.0014-1.1143 1.3243-3.5265 1.7578-5.1552 0.92636zm44.298-0.78484c-1.6526-0.40149-3.3123-2.7754-3.3015-4.7222 0.013-2.2817 1.8302-4.544 4.1121-5.1186 1.6831-0.42382 3.9524-0.36874 4.3459 0.10548 0.4656 0.56092 0.1192 1.6304-0.5895 1.8203-0.329 0.0882-1.1121 0.16192-1.7401 0.16391-1.287 4e-3 -1.9708 0.29249-3.0253 1.2761-0.8801 0.82086-0.9523 1.9276-0.2057 3.1522 0.5906 0.9686 1.2005 1.1813 3.5262 1.2297 1.542 0.0321 1.6404 0.0719 1.6404 0.6642 0 1.1945-2.5626 1.9634-4.7625 1.429zm17.383-0.12756c-0.1746-0.17462-0.3175-0.99832-0.3175-1.8304s-0.07-1.6945-0.1548-1.9163c-0.159-0.41448-0.2297-0.41459-4.2769-6e-3l-1.3891 0.14007v1.2377c-0.01 1.9768-0.2181 2.4698-1.0232 2.3764-0.6554-0.076-0.702-0.18085-0.8586-1.9325-0.305-3.4117-0.2555-8.4689 0.086-8.8106 0.3968-0.39679 1.4435-0.41439 1.6821-0.0283 0.098 0.15907 0.1619 1.2824 0.1412 2.4964l-0.038 2.2072 5.5709 0.1666-6e-4 -2.5268c-6e-4 -2.6838 0.1859-3.1618 1.2337-3.1618 1.0867 0 1.2086 0.73268 1.0056 6.0459-0.1037 2.7139-0.2971 5.1427-0.4297 5.3973-0.2806 0.53842-0.7764 0.59718-1.2281 0.14552zm-36.679-0.71031c-0.6132-0.99224-0.9137-8.4226-0.3628-8.9734 0.486-0.48607 1.4837-0.37778 1.7898 0.19428 0.1518 0.28352 0.2739 2.1793 0.2739 4.2507s-0.1221 3.9672-0.2739 4.2507c-0.2806 0.52433-1.1679 0.697-1.427 0.27771zm8.7189-1.0784c-0.086-0.13976-0.2307-1.628-0.3207-3.3073l-0.1636-3.0532h-1.8066c-1.7088 0-1.8156-0.036-1.9735-0.6649-0.1001-0.39916-0.024-0.83697 0.1905-1.0955 0.3163-0.38106 0.8877-0.4093 4.9707-0.24566 2.5373 0.1017 4.8378 0.30505 5.1122 0.4519 0.3072 0.16442 0.4673 0.48884 0.4167 0.84441-0.076 0.53197-0.2516 0.58342-2.234 0.65376l-2.1518 0.0763-0.1633 0.81663c-0.09 0.44914-0.1633 1.79-0.1633 2.9796 0 1.3295-0.1224 2.2853-0.3175 2.4805-0.381 0.38098-1.1772 0.41714-1.3958 0.0634zm13.129-12.532c-0.3658-0.44079-0.3322-11.01 0.037-11.49 0.422-0.54911 1.0945-0.37705 2.0683 0.52917 1.286 1.1968 3.6601 4.2379 4.8922 6.2668l1.034 1.7027 0.1323-3.4798c0.102-2.6816 0.2278-3.5751 0.5484-3.8952 1.1902-1.1883 1.7054 0.71693 1.5186 5.6157-0.087 2.2896-0.2245 3.0736-0.6963 3.9764-0.8334 1.5946-1.63 1.5541-2.6014-0.13229-1.0202-1.7712-3.628-5.6043-4.4551-6.5484l-0.6953-0.79375 0.1656 3.7545c0.1118 2.5336 0.071 3.9317-0.126 4.2995-0.3306 0.61777-1.3779 0.72969-1.8219 0.19471zm-55.359-0.33838c-0.4991-0.60145-0.7142-9.9871-0.2419-10.556 0.4725-0.56926 1.5176-0.49261 1.854 0.13596 0.3529 0.6594 0.055 10.021-0.3342 10.514-0.3573 0.45154-0.8559 0.41511-1.2779-0.0934zm6.1009-0.24603c-0.2588-0.31183-0.294-1.3608-0.1522-4.5386 0.1014-2.2732 0.302-4.3529 0.4457-4.6215 0.5714-1.0677 1.3947-0.58716 3.571 2.0842 1.1527 1.415 2.5393 3.0521 3.0814 3.638l0.9855 1.0654 0.01-3.0583c0.01-3.2547 0.2672-4.0947 1.2116-3.9128 0.8425 0.16226 1.0233 2.4327 0.4869 6.1139-0.4659 3.1969-0.752 3.8013-1.6622 3.5124-0.6294-0.19978-2.9893-2.7078-4.8296-5.1328l-1.3324-1.7558 0.09 3.0681c0.068 2.3174 8e-4 3.1751-0.2735 3.5057-0.4549 0.54829-1.1881 0.56275-1.6284 0.0321zm36.189-0.30596c-1.0475-0.27378-0.8357-1.2834 1.0846-5.169 1.0265-2.0772 2.1036-4.3423 2.3934-5.0336 0.7023-1.6749 1.2644-1.65 2.989 0.1323 1.8249 1.8858 3.6531 6.1207 3.6531 8.4618 0 0.95866-0.049 1.0262-0.6935 0.94849-0.5627-0.0679-0.7998-0.34906-1.2568-1.4898-0.5287-1.32-0.6098-1.3969-1.3239-1.2568-0.4184 0.0821-1.5264 0.14932-2.4623 0.14932h-1.7016l-0.5468 1.2568c-0.5467 1.2561-1.2181 2.21-1.5149 2.1521-0.087-0.0169-0.3657-0.0851-0.6203-0.15166zm6.5844-6.1015c-0.2058-0.40019-0.5753-1.2039-0.8209-1.7859l-0.4466-1.0583-0.7734 1.6896c-0.4253 0.92927-0.7734 1.7329-0.7734 1.7859 0 0.053 0.7175 0.0964 1.5943 0.0964h1.5943zm-26.891 5.6768c-0.4368-0.22096-0.6615-0.55669-0.6615-0.98828 0-0.62851 0.058-0.65055 1.5169-0.57297 2.6453 0.1407 4.3271-1.1733 2.7826-2.174-0.3274-0.21216-1.1511-0.52423-1.8303-0.69349-0.6793-0.16927-1.4981-0.58773-1.8196-0.92992-0.7409-0.78874-0.8169-2.4012-0.1603-3.4034 0.6044-0.92238 2.3604-1.7301 3.7778-1.7376 1.2702-7e-3 1.8189 0.48699 1.5835 1.4249-0.1625 0.64744-0.2843 0.69799-2.5829 1.072-1.0137 0.16495-1.7055 0.73235-1.4322 1.1746 0.089 0.14349 0.724 0.33488 1.4118 0.42531 2.7215 0.35782 4.0287 1.4344 4.0287 3.3179 0 1.9826-1.9097 3.4306-4.5153 3.4235-0.7908-2e-3 -1.7354-0.15449-2.0992-0.33855zm52.564-0.0358c-0.08-0.20803-0.2287-1.9887-0.3308-3.9571l-0.1856-3.5789-1.5882-0.0778c-1.77-0.0867-2.4244-0.59731-1.8798-1.4668 0.5883-0.93938 9.9882-1.5687 11.1-0.7431 0.4099 0.30443 0.4548 0.47792 0.2224 0.8599-0.2153 0.35389-0.801 0.53458-2.2489 0.69378-2.8608 0.31455-3.0694 0.3813-3.2455 1.0386-0.088 0.32902-0.162 1.9455-0.164 3.5922 0 1.6467-0.1268 3.2243-0.2775 3.5057-0.3199 0.59782-1.1921 0.68089-1.4021 0.13354zm-38.923-1.1856c-0.082-0.13248-0.2263-1.6803-0.3209-3.4396l-0.172-3.1987h-2.2033c-2.1325 0-2.2086-0.0213-2.3701-0.66489-0.3401-1.3551 0.032-1.4518 5.5808-1.4518 5.3754 0 5.8596 0.10661 5.641 1.242-0.1017 0.52818-1.0187 0.7953-2.895 0.84334l-1.2228 0.0313-0.1817 2.9766c-0.1 1.6371-0.2424 3.1849-0.3164 3.4396-0.1417 0.48694-1.2749 0.65046-1.5396 0.22215z"/></g></svg>
