<svg width="596.9mm" height="214.84mm" version="1.1" viewBox="0 0 596.9 214.84" xml:space="preserve" xmlns="http://www.w3.org/2000/svg"><g transform="translate(-1484.6 792.58)"><path fill="#fff" d="m1699-577.93c-0.4207-0.27147-0.8893-3.5661-0.8893-6.2528v-2.2528l-1.8905-0.0777c-1.4562-0.0599-1.9574-0.18412-2.1815-0.54076-0.2116-0.3368-0.2114-0.58924 8e-4 -0.92604 0.2573-0.40822 0.853-0.47153 5.0335-0.53491 3.8314-0.0581 4.8418 2e-3 5.2631 0.31523 0.417 0.30956 0.4631 0.483 0.2303 0.86564-0.2096 0.34459-0.8124 0.54337-2.1536 0.71022l-1.8624 0.2317-0.1586 0.95892c-0.087 0.52741-0.1599 2.3341-0.1615 4.0149 0 3.3296-0.2763 4.104-1.2303 3.4884zm-22.507-0.32882c-0.6117-0.12685-1.3558-0.36105-1.6536-0.52044-0.639-0.34194-0.7137-1.2069-0.1323-1.5322 0.3403-0.19046 0.3636-0.42632 0.1387-1.4022-0.5637-2.446-0.2142-7.3856 0.6143-8.6807 0.3419-0.53434 3.4302-0.25019 5.0452 0.46419 1.8597 0.82263 2.9342 1.7192 3.7703 3.1459 1.6778 2.8629 0.3036 6.786-2.834 8.0908-1.235 0.51359-3.5762 0.7192-4.9486 0.43458zm3.6408-2.1143c0.5176-0.14379 1.2839-0.61925 1.7029-1.0566 0.62-0.64719 0.7827-1.0844 0.8742-2.3496 0.1073-1.4836 0.069-1.603-0.8492-2.6189-0.9989-1.1056-2.3759-1.9126-3.2637-1.9126-0.4708 0-0.5294 0.26486-0.6876 3.1089-0.095 1.7099-0.248 3.5553-0.3398 4.101-0.1656 0.98399-0.1596 0.99217 0.7276 0.99071 0.492-8.1e-4 1.318-0.11912 1.8356-0.26291zm13.214 2.1948c-0.2183-0.0504-0.738-0.9207-1.1548-1.934-0.4169-1.0133-0.8431-1.7896-0.9473-1.7253-0.1041 0.0643-1.0347 0.14606-2.0681 0.18157l-1.8788 0.0646-0.2773 1.1013c-0.3685 1.4636-0.8774 1.8826-1.7844 1.4693-0.6045-0.27543-0.6684-0.42615-0.5332-1.2591 0.2203-1.3576 1.3251-4.0895 2.7662-6.8402 1.0158-1.939 1.3709-2.3957 1.9119-2.4589 0.5996-0.0701 0.8149 0.21021 2.2096 2.8768 2.8932 5.5316 3.5973 8.9492 1.7562 8.5239zm-3.2022-6.759c-0.3118-0.61846-0.6036-1.1658-0.6483-1.2163-0.084-0.0951-1.1766 1.9454-1.1766 2.1979 0 0.0785 0.5382 0.14283 1.196 0.14283h1.196zm24.773 4.8788-0.7864-1.8133-1.3303 0.12044c-3.2573 0.29489-3.3212 0.32471-3.8021 1.7752-0.3916 1.1811-0.5205 1.3227-1.2035 1.3227-1.2987 0-1.4506-0.65662-0.6583-2.8463 0.9454-2.6129 3.4041-7.9571 3.7708-8.196 0.6967-0.454 1.2144-0.10067 2.3461 1.6012 1.5549 2.3384 2.1484 3.5214 3.1358 6.2501 0.9429 2.6059 0.9373 3.4229-0.024 3.5273-0.5856 0.0636-0.7515-0.13599-1.4478-1.7414zm-2.1666-5.178c-0.401-0.8177-0.7936-1.4865-0.8724-1.4862-0.079 2.8e-4 -0.3981 0.64936-0.7094 1.4424l-0.5659 1.4419 1.3597 0.0789c0.7479 0.0434 1.3952 0.0634 1.4385 0.0443 0.043-0.019-0.2494-0.70366-0.6505-1.5214zm-134.7 0.97922c-0.2716-0.66321-0.2485-11.166 0.033-14.968l0.2302-3.1088h-2.6725c-2.6337 0-2.675-0.01-2.8394-0.6649-0.3479-1.3861-0.036-1.456 6.3413-1.4222 6.1044 0.0323 7.6731 0.21645 7.948 0.93286 0.3566 0.92916-0.3136 1.1542-3.4373 1.1542h-2.9983l-0.1358 0.85989c-0.4943 3.1311-0.6864 6.0259-0.7127 10.744-0.017 2.9623-0.1137 5.7007-0.2159 6.0854-0.227 0.85443-1.2444 1.1102-1.5405 0.38723zm480.22-2.5075c-0.8148-0.81475-0.026-1.9911 1.139-1.6987 0.5799 0.14557 0.6688 0.29711 0.5987 1.0217-0.066 0.68422-0.2121 0.86599-0.7455 0.92833-0.3649 0.0426-0.8113-0.0705-0.9922-0.25135zm-8.2363-1.5079c-0.8789-1.1098-2.6727-4.6706-2.6811-5.3222 0-0.22239-0.5322 0.8293-1.1763 2.3371-1.2598 2.9492-1.8011 3.7409-2.5576 3.7409-1.1408 0-2.2371-3.5805-2.6238-8.5692-0.3101-4.0013-0.237-4.3953 0.8151-4.3953 1.0156 0 1.2059 0.44361 1.419 3.3073 0.097 1.3097 0.3258 3.1552 0.5076 4.101l0.3305 1.7198 0.7614-2.1167c1.4015-3.8957 1.3674-3.8365 2.2083-3.8365 0.8375 0 1.2921 0.73186 2.8758 4.6302l0.7525 1.8521 0.1323-4.3214c0.1189-3.8851 0.1841-4.3592 0.6458-4.6964 0.6026-0.43997 0.6823-0.44756 1.2062-0.11501 0.3344 0.21224 0.3899 1.1174 0.3522 5.7506-0.025 3.1084-0.1661 5.815-0.3241 6.2264-0.4372 1.1379-1.6139 1.0077-2.6438-0.29268zm-489.19-0.36928c-0.3058-0.36846-0.2467-16.606 0.062-17.106 0.3028-0.48994 1.1733-0.32175 1.5812 0.3055 0.2129 0.32742 0.818 1.6073 1.3446 2.8443s1.8137 3.9754 2.8601 6.0854l1.9027 3.8365 0.133-5.3044c0.1123-4.4801 0.2058-5.4155 0.6014-6.0193 0.5314-0.81106 0.7844-0.87895 1.2381-0.33227 0.5971 0.71943-0.104 13.697-0.8114 15.018-0.37 0.69138-1.1716 0.5802-1.8274-0.25349-0.3148-0.40018-1.0491-1.7396-1.6318-2.9766s-1.6518-3.4396-2.3759-4.8948l-1.3165-2.6458 0.1229 5.4409c0.072 3.1701 0.019 5.6271-0.1268 5.887-0.2923 0.52228-1.3603 0.59212-1.7564 0.11484zm-27.042-0.14107c-1.024-0.35145-1.0242-1.2627 0-8.7093 1.0137-7.3849 0.8998-6.958 1.856-6.958 0.8767 0 1.4256 0.70877 2.9622 3.825l0.8485 1.7206 0.8476-1.8299c1.2673-2.7359 2.3834-4.2448 3.14-4.2448 0.3734 0 0.6857 0.18902 0.7652 0.46302 0.074 0.25466 0.2163 3.5673 0.3167 7.3615 0.1926 7.2748 0.1012 8.0505-0.9487 8.0505-0.7164 0-0.7842-0.43957-0.9986-6.4823l-0.1878-5.2917-1.0254 2.4401c-0.9811 2.3349-1.5821 3.0194-2.2748 2.5913-0.1443-0.0892-0.83-1.1828-1.5238-2.4304l-1.2614-2.2684-0.3296 1.6858c-0.1813 0.92717-0.397 3.2336-0.4793 5.1254-0.082 1.8918-0.2032 3.704-0.2688 4.0273-0.1355 0.66833-0.8471 1.1264-1.4359 0.9244zm497.42-0.65993c-0.3594-0.18188-0.9249-0.73351-1.2567-1.2258-0.5189-0.76996-0.6033-1.2341-0.6033-3.3182 0-2.633 0.4816-4.4825 1.7946-6.8914 0.65-1.1926 0.811-1.3229 1.6341-1.3229 0.7409 0 0.9408 0.11749 1.0601 0.62297 0.1064 0.45046 0.476 0.73353 1.3349 1.0222 1.69 0.56797 3.1587 1.623 4.0756 2.9275 1.4504 2.0636 1.1859 5.4493-0.5446 6.972-1.2278 1.0804-2.6846 1.5522-4.7801 1.5483-1.1336-2e-3 -2.3551-0.15271-2.7146-0.33458zm5.7585-2.6618c0.6017-0.60175 0.7159-0.94418 0.7159-2.1477 0-1.2284-0.1128-1.5509-0.7938-2.2695-0.8162-0.86143-3.1968-2.3651-3.7513-2.3696-0.5082-4e-3 -1.408 2.7989-1.408 4.3862 0 1.4661 0.4937 2.8435 1.1189 3.1213 0.1849 0.0822 1.0262 0.11473 1.8693 0.0723 1.2549-0.0631 1.663-0.20702 2.249-0.793zm-15.987 1.2144c-0.5371-0.83674-1.8073-3.0692-2.8227-4.9609-1.0153-1.8918-1.904-3.4991-1.9747-3.5719-0.071-0.0728-0.071 1.7132 0 3.9688 0.1473 4.7336-2e-4 5.3593-1.2351 5.2387l-0.8114-0.0793-0.071-5.8567c-0.08-6.5674 0.036-7.2402 1.2432-7.2402 1.1201 0 2.8293 2.2203 5.3103 6.898l1.9843 3.7414 0.723-5.8824c0.3977-3.2353 0.8588-6.0459 1.0246-6.2458 0.3162-0.38093 1.5353-0.50712 1.5935-0.16494 0.1861 1.0934 0.1278 2.1342-0.3369 6.0193-0.5115 4.277-1.2877 8.1456-1.8421 9.1815-0.1563 0.29202-0.5545 0.47578-1.0309 0.47578-0.6555 0-0.9284-0.23683-1.7529-1.5214zm-500.95 0.59899c-0.2672-0.32188-0.3929-1.7378-0.481-5.4185-0.1446-6.0358-0.01-7.1473 1.0247-8.3232 0.9985-1.1372 2.3484-1.4755 5.888-1.4755 2.9805 0 3.4747 0.20527 3.309 1.3745-0.083 0.58816-0.1996 0.61528-3.2615 0.76143-4.4402 0.21193-4.8124 0.48283-5.082 3.6984l-0.1541 1.8386h2.3047c2.597 0 3.3283 0.25974 3.3283 1.1821 0 0.76251-0.2527 0.85085-3.1089 1.087l-2.1828 0.18047v1.8179c0 0.99985 0.1039 1.8179 0.231 1.8179 0.127 0 0.7585-0.2334 1.4034-0.51866 0.6449-0.28527 2.1247-0.59807 3.2884-0.69512 1.7929-0.14952 2.1844-0.10787 2.5653 0.27298 0.9645 0.96456 0.3157 1.4174-2.4985 1.7436-2.1449 0.24862-4.1427 0.58253-5.5348 0.92514-0.4637 0.1141-0.7918 0.0292-1.0392-0.26902zm-23.186-0.17882c-1.2319-0.59688-1.6918-2.0488-1.9953-6.2997-0.3395-4.7538-0.1882-5.3785 1.4783-6.1041 1.4684-0.63931 5.1907-1.3615 7.2504-1.4068 1.3505-0.0297 1.7548 0.0567 1.9927 0.42581 0.5299 0.82193-0.1071 1.3674-1.8439 1.579-2.7855 0.33939-4.6615 0.76304-5.336 1.205-0.7696 0.5042-1.3824 1.8175-1.3824 2.9622v0.80225h2.134c2.3153 0 3.1576 0.27617 3.1576 1.0352 0 0.79219-0.5328 1.0081-2.9765 1.206l-2.3151 0.1875v2.6562l2.8655-0.1872c2.4595-0.16067 2.9265-0.12619 3.296 0.24332 0.491 0.49092 0.3479 1.1245-0.299 1.3243-0.4013 0.12392-5.0265 0.69487-5.3334 0.65836-0.073-9e-3 -0.3845-0.13797-0.6929-0.28736zm560.68-0.39868c-0.3913-0.39124-0.4206-0.91121-0.2575-4.5641 0.1995-4.4684 0.4755-5.4148 1.5351-5.2632 0.4783 0.0684 0.6136 0.32896 0.7988 1.5376 0.1226 0.80036 0.1644 2.8626 0.093 4.5828-0.1029 2.4772-0.226 3.2337-0.5919 3.638-0.5671 0.62665-1.0008 0.6456-1.5774 0.0689zm-548.11-0.25258c-1.0713-1.2399-1.1539-1.7161-1.2469-7.1878-0.097-5.7337-0.02-6.141 1.1699-6.141 1.1131 0 1.2416 0.73172 1.1345 6.4607l-0.099 5.3132 2.6723-0.087c2.2098-0.0719 2.7478-0.0114 3.1088 0.34963 1.0573 1.0573 0.2181 1.4728-3.3201 1.644-2.7009 0.1307-3.0316 0.0967-3.4192-0.35181zm40.071-0.0833c-1.9676-0.89335-2.0711-1.252-2.0711-7.174 0-4.1123 0.079-5.2914 0.3776-5.6515 0.7412-0.89315 1.9355-1.2673 4.495-1.4084 2.7841-0.15341 3.3262 0.071 3.1513 1.3044-0.084 0.59284-0.1677 0.61056-2.9968 0.63426l-2.9104 0.0244-0.076 2.423-0.076 2.423h2.144c2.3568 0 3.1675 0.27495 3.1675 1.0742 0 0.67563-0.9543 1.0414-2.7292 1.0461-0.7545 2e-3 -1.6522 0.0787-1.9948 0.1704-0.5653 0.15133-0.607 0.26718-0.4498 1.2502 0.2669 1.6693 0.916 2.1787 3.0019 2.3557 0.9763 0.0828 1.9834 0.2315 2.2381 0.33035 0.5772 0.22409 0.6091 1.3334 0.045 1.55-0.9445 0.36245-4.2195 0.14545-5.3156-0.35221zm317.76 0.30589c-0.1782-0.11334-0.4963-1.7896-0.7397-3.8986-0.2348-2.0348-0.6001-5.1873-0.8118-7.0054s-0.3864-3.5445-0.3883-3.8365c0-0.30577-0.453 0.2797-1.0638 1.381-0.9751 1.7582-1.6401 2.4538-2.3457 2.4538-0.5362 0-2.2346-1.7337-2.6859-2.7417l-0.4595-1.0264-0.1954 3.1271c-0.1075 1.7199-0.119 4.1212-0.026 5.3363 0.1999 2.6004-0.03 3.2421-1.1624 3.2421-1.0932 0-1.1612-0.47644-0.9581-6.7199 0.2619-8.0517 0.8044-10.383 2.2191-9.5369 0.6218 0.37191 2.1532 3.4103 2.355 4.6723 0.089 0.55709 0.2488 1.0666 0.355 1.1322 0.1063 0.0656 0.5513-0.56382 0.989-1.3988 0.4376-0.83499 1.3563-2.3201 2.0415-3.3002 0.9611-1.3749 1.3937-1.7821 1.8933-1.7821 0.4291 0 0.7227 0.2008 0.8704 0.59531 0.1225 0.32742 0.2926 2.917 0.3779 5.7547 0.085 2.8376 0.3371 6.35 0.5593 7.8052 0.7144 4.6781 0.4454 6.5536-0.8243 5.7462zm17.696-0.63974c-0.3436-0.34366-0.3957-10.294-0.084-16.087l0.1636-3.0427 0.8073-0.079c0.5214-0.051 0.9572 0.0895 1.2306 0.39687 0.8828 0.99229 2.3161 4.0535 3.6617 7.8206 0.7672 2.1479 1.4171 3.8743 1.4442 3.8365 0.027-0.0378-0.027-2.45-0.1213-5.3604-0.094-2.9104-0.078-5.5596 0.035-5.887 0.2423-0.70167 1.0562-0.78325 1.5753-0.15791 0.2889 0.34797 0.3631 1.9652 0.3631 7.9096 0 6.9766-0.033 7.5091-0.504 8.0293-0.654 0.72288-1.3712 0.70807-1.8504-0.0382-0.2102-0.32742-0.8132-1.8413-1.3399-3.3642-0.5267-1.5229-1.4588-4.0232-2.0713-5.5562l-1.1135-2.7873-0.071 6.9898c-0.047 4.6158-0.1699 7.1094-0.3631 7.3422-0.364 0.43864-1.3392 0.45798-1.7623 0.035zm-68.525-0.62603c-0.3254-0.2279-0.8377-0.89668-1.1384-1.4862-0.5739-1.125-2.0782-8.1507-2.0856-9.7411 0-1.0582 0.7428-2.4344 1.6347-3.0082 0.867-0.55781 5.0912-1.739 6.9173-1.9342 1.6653-0.17803 2.013 0.0209 2.0209 1.1565 0.01 0.7796-0.1768 0.85896-2.61 1.1365-2.8484 0.32486-4.9663 0.97271-5.4534 1.6681-0.4741 0.67689-0.4967 1.2946-0.1127 3.085l0.2865 1.3359h3.0019c2.3746 0 3.0887 0.0868 3.4171 0.41524 0.2987 0.29868 0.3442 0.54814 0.162 0.88861-0.2882 0.53834-1.788 0.81281-4.4415 0.81281-1.6418 0-1.7056 0.0242-1.5653 0.59531 0.08 0.32743 0.2292 1.2319 0.3307 2.01 0.1802 1.3814 0.2021 1.4111 0.9331 1.2649 0.4117-0.0823 1.4962-0.22631 2.41-0.31993 1.3937-0.14279 1.76-0.0904 2.2729 0.32488 1.0356 0.83864 0.5371 1.2712-2.0328 1.7639-2.866 0.5494-3.2049 0.55215-3.9474 0.032zm13.254-0.6471c-0.9724-0.39158-1.4427-1.7206-1.6754-4.7343-0.7192-9.313-0.811-10.906-0.6566-11.393 0.1841-0.58004 1.2661-0.73595 1.9789-0.28514 0.3846 0.24328 0.7223 4.8042 0.8795 11.882l0.055 2.478 1.4552-0.15283c0.8003-0.0841 2.8688-0.32671 4.5966-0.53922 3.6172-0.44489 4.4808-0.27281 4.346 0.86595-0.078 0.65624-0.1616 0.67981-4.9739 1.3981-5.4964 0.82043-5.2166 0.79805-6.0054 0.48038zm70.382-0.3276c-0.1171-0.18191-0.2554-3.6942-0.3073-7.8052l-0.094-7.4745h-1.4231c-1.2992 0-1.4376-0.0579-1.5899-0.6649-0.3402-1.3552 0.031-1.4518 5.5838-1.4518 4.5599 0 5.1612 0.0515 5.7003 0.48796 1.3221 1.0706 0.056 1.6203-3.7436 1.6258l-2.009 3e-3 -0.1738 4.4079c-0.096 2.4243-0.1739 5.7484-0.1739 7.3867 0 1.6384-0.072 3.1672-0.1605 3.3973-0.191 0.49765-1.3056 0.55848-1.6087 0.0878zm-26.458-0.97409c-0.4637-0.28543-0.9697-0.75562-1.1245-1.0449-0.1764-0.32961-0.2815-2.8882-0.2815-6.8542 0-6.1492 0.017-6.3536 0.6033-7.2234 0.9365-1.3898 1.5147-1.5561 5.4243-1.5604 3.8052-4e-3 3.9993 0.0729 3.6532 1.4519-0.16 0.63764-0.2424 0.66092-2.3436 0.66234-2.6684 2e-3 -4.0375 0.35597-4.5807 1.185-0.2311 0.35284-0.4792 1.5004-0.5626 2.6031l-0.1491 1.972 2.1448 0.0974c2.2579 0.10254 3.1289 0.52154 2.8103 1.3519-0.1254 0.32659-0.7189 0.46911-2.5504 0.61238l-2.387 0.18674 0.097 1.9247c0.135 2.6725 0.4897 3.0299 3.0083 3.0299 2.0811 0 2.6119 0.2967 2.4591 1.3745-0.083 0.58482-0.1951 0.61275-2.7323 0.67996-2.2446 0.0595-2.7737-9e-3 -3.4888-0.44886zm-29.394-0.69562c-1.3669-0.95745-1.5125-1.6819-1.5125-7.5246 0-7.4891 0.039-7.5338 6.6146-7.5382l3.7041-2e-3v1.8521l-3.5292 0.1323c-3.4677 0.12998-3.5403 0.14521-4.1671 0.87465-0.5315 0.61841-0.638 1.027-0.638 2.4474v1.705h2.9897c1.9727 0 3.0979 0.10802 3.3073 0.3175 0.5166 0.51659 0.371 1.2478-0.2778 1.3948-1.3035 0.29539-4.0898 0.66504-5.0271 0.66693-0.9501 2e-3 -0.9921 0.0398-0.9921 0.89497 0 1.5388 0.3141 2.5545 0.8844 2.8597 0.3025 0.16189 1.4133 0.27793 2.4684 0.25787 2.401-0.0456 3.3299 0.26693 3.2139 1.0814-0.1056 0.74166-0.8591 0.9202-4.0605 0.96216-1.7759 0.0233-2.5397-0.0746-2.9781-0.38163zm-137.35-0.18628c-1.441-0.74058-1.6766-1.452-1.8765-5.6674-0.1023-2.1559-0.1363-4.0563-0.076-4.2232 0.061-0.16685 0.6083-0.36959 1.2169-0.45054 0.6087-0.081 2.2104-0.29498 3.5594-0.47561 2.1675-0.29022 2.5013-0.27987 2.8701 0.089 0.787 0.78693 0.079 1.4035-2.2004 1.9169-1.1352 0.25568-2.2724 0.52105-2.5271 0.58971-0.3525 0.0951-0.463 0.40463-0.463 1.2976 0 1.1558 0.013 1.1728 0.8937 1.1728 0.4915 0 1.0371 0.17287 1.2124 0.38416 0.5806 0.69955 0.1984 1.2647-1.1139 1.647-1.1974 0.34882-1.2568 0.41094-1.2568 1.3142 0 0.92512 0.021 0.9443 0.8599 0.7926 0.473-0.0855 2.1265-0.23522 3.6745-0.33269 2.6428-0.16639 2.8319-0.14482 3.0986 0.35348 0.5508 1.0292-0.1001 1.3589-3.2674 1.6546-3.6379 0.33962-3.8272 0.33705-4.6047-0.0625zm-32.964-0.19156c-0.2169-0.35095-0.6537-5.7446-0.659-8.1389v-1.9182h-3.17c-3.165 0-3.1702-1e-3 -3.3368-0.6649-0.098-0.39202-0.026-0.83516 0.1774-1.0798 0.3027-0.36466 1.0992-0.39373 6.578-0.24005 6.9486 0.1949 7.9534 0.36468 7.9534 1.3438 0 0.73306 0.1482 0.7032-3.2013 0.64506l-2.5399-0.0441-0.1721 1.6463c-0.095 0.90546-0.1721 3.0933-0.1721 4.8619 0 3.1873-0.1659 3.8506-0.9633 3.8506-0.1806 0-0.4011-0.11772-0.49-0.26161zm14.276-0.29817c-0.2558-0.80585 0.092-3.5956 0.8282-6.6339 0.7223-2.9828 1.0137-3.6542 1.5862-3.6542 0.6523 0 2.2059 1.3567 3.1811 2.7781l0.9077 1.3229 2.227-2.3356c1.709-1.7923 2.3652-2.3155 2.8209-2.249 0.8894 0.12984 1.0601 1.1177 1.1121 6.4367l0.047 4.7625-0.6979 0.0808c-0.6643 0.077-0.712-3e-4 -0.9922-1.6092-0.1618-0.92952-0.2943-2.7384-0.2943-4.0197v-2.3296l-1.3 1.216c-0.7151 0.66883-1.6103 1.2939-1.9895 1.3891-0.957 0.24019-2.0962-0.29553-3.1803-1.4955-0.5057-0.55969-0.9725-0.93175-1.0373-0.8268-0.2739 0.44307-0.9595 4.3622-0.9595 5.4844 0 1.6288-0.3598 2.2427-1.3144 2.2427-0.5482 0-0.8172-0.15948-0.9443-0.55978zm-4.755-0.33516c-0.3834-0.28037-0.4718-1.0053-0.5934-4.8692-0.1537-4.8843-0.055-5.3483 1.144-5.3483 0.3388 0 0.7213 0.18817 0.85 0.41817 0.2249 0.402 0.153 8.1127-0.087 9.2761-0.1476 0.71677-0.7314 0.94929-1.314 0.52331zm377.04-9.2254c-0.06-0.1819-0.2464-1.0321-0.4151-1.8893-0.3059-1.5549-1.2013-2.8071-2.0071-2.8071-0.4973 0-0.7576-1.2446-0.3604-1.7232 0.4382-0.528 1.1413-0.49544 2.3228 0.10758 1.2125 0.61884 1.7693 1.2199 2.2944 2.4767 0.546 1.3066 0.5111 2.2722-0.1193 3.3061-0.5315 0.87178-1.5047 1.172-1.7153 0.52917zm-12.205-3.7359c-1.7258-0.7835-1.2116-2.3458 0.6882-2.091 2.6672 0.35774 3.1748-0.45065 3.1748-5.0561v-3.3025l-1.3351 0.89844c-2.1854 1.4707-4.078 1.5335-5.3423 0.1774-1.1009-1.181-1.2601-1.7525-1.2601-4.5245 0-2.3831 0.054-2.6828 0.5291-2.9371 0.6114-0.32718 1.4295 1.9e-4 1.6887 0.67575 0.09 0.23423 0.1634 1.1127 0.1634 1.9522 0 1.7497 0.3879 3.082 0.9613 3.302 0.4325 0.16598 1.6802-0.39236 2.1549-0.96433 0.1647-0.19847 0.6195-1.3672 1.0107-2.5971 0.8492-2.6697 1.0054-2.8977 1.9859-2.8977 0.8398 0 0.7426-0.23658 1.4671 3.5719 0.3025 1.5902 0.4585 3.7876 0.4698 6.6146 0.019 4.7596-0.2917 5.9062-1.8409 6.7966-1.1272 0.64784-3.4893 0.8474-4.5155 0.38151zm-339.68-1.1957c-0.08-0.12938-0.2242-1.792-0.3205-3.6947-0.1898-3.7504-0.053-4.2722 1.1192-4.2722 0.7574 0 1.1675 0.70247 1.1675 2 0 0.95258 0.02 0.97246 0.8268 0.81115 0.4548-0.091 1.2287-0.16537 1.7198-0.16537h0.893v-1.4023c0-1.5267 0.3093-2.0373 1.2342-2.0373 1.0132 0 1.1884 0.77462 0.9886 4.3712-0.189 3.4006-0.3908 3.9664-1.3502 3.7842-0.3482-0.0661-0.5112-0.40891-0.608-1.2786l-0.1323-1.1883-1.7198 0.0945c-0.9459 0.052-1.8091 0.14831-1.9182 0.21405-0.1092 0.0657-0.1985 0.57902-0.1985 1.1406 0 0.5616-0.072 1.2094-0.1606 1.4396-0.1707 0.44479-1.2966 0.57871-1.541 0.18328zm301.4-0.039c-4.2596-1.0648-6.2935-5.0871-5.114-10.113 0.8368-3.5654 2.32-5.6071 4.2877-5.9022 3.8758-0.58121 8.5443 1.1642 10.068 3.7642 0.6219 1.0612 0.6774 1.376 0.5699 3.2327-0.1418 2.4506-1.2568 5.1268-2.8062 6.7357-1.8863 1.9587-4.6712 2.8661-7.0054 2.2826zm3.4074-2.232c0.7801-0.23169 1.6502-0.74112 2.1463-1.2568 1.9831-2.0611 3.0729-5.9756 2.0838-7.4851-1.6773-2.5598-7.2122-3.942-9.0126-2.2506-1.8821 1.7682-2.8451 6.2816-1.7824 8.3544 0.691 1.3478 1.6071 2.1893 2.8764 2.6418 1.3238 0.47199 2.0892 0.47123 3.6885-4e-3zm-526.94 1.9445c-0.9175-0.36583-1.8523-1.293-1.8523-1.8372 0-0.68117 0.6601-0.80326 1.6401-0.30337 1.4001 0.71419 4.0132 0.58873 5.6691-0.27217 1.4809-0.76994 1.6867-1.08 1.6867-2.5419 0-1.4356-0.9757-2.6598-3.8699-4.8555-1.4-1.0621-2.9177-2.4493-3.3727-3.0826-0.7182-0.99975-0.8253-1.3658-0.813-2.7781 0.024-2.7188 1.5527-4.9015 4.3514-6.2119 1.1369-0.53229 1.985-0.70521 3.877-0.79049 2.2276-0.1004 2.445-0.0658 2.711 0.43129 0.6751 1.2614-0.3626 1.9017-3.0821 1.9017-1.2356 0-2.0876 0.16281-2.8935 0.55292-2.0214 0.97853-3.3533 3.1888-2.8594 4.745 0.2788 0.87829 1.9304 2.5896 3.427 3.5509 2.405 1.5447 4.3645 3.9634 4.7634 5.8796 0.6373 3.0615-2.7801 5.938-7.0017 5.8937-0.9459-0.01-2.0174-0.13675-2.3811-0.28179zm42.943-0.46749c-1.8357-1.157-1.8095-0.98939-1.7186-11.001 0.045-4.9524 0.1423-9.2127 0.2163-9.4673 0.088-0.30425 0.3988-0.46302 0.9054-0.46302 0.6126 0 0.8068 0.14347 0.9463 0.69904 0.096 0.38447 0.026 3.9558-0.1575 7.9362-0.3722 8.0896-0.2858 9.4268 0.6487 10.039 0.849 0.55631 2.3588 0.24701 3.4147-0.69956l0.8235-0.73819-0.072-7.3276c-0.051-5.206 0.016-7.4331 0.2308-7.6922 0.402-0.48429 1.2012-0.46459 1.3927 0.0343 0.2784 0.72549 0.7605 9.9173 0.6512 12.416-0.1294 2.9578-0.8493 4.6257-2.4964 5.7833-1.4475 1.0174-3.592 1.2328-4.7853 0.48067zm30.01-1.5504c-0.522-1.1278-1.2652-2.8244-1.6516-3.7703-0.3863-0.94588-1.6099-3.6055-2.719-5.9103l-2.0166-4.1905-0.4954 3.1322c-0.2724 1.7227-0.5582 4.9777-0.635 7.2332-0.077 2.2556-0.2502 4.3094-0.3854 4.5641-0.2818 0.531-1.2927 0.6145-1.7616 0.14552-0.4941-0.4941-0.3866-4.9471 0.2073-8.5872 0.2886-1.7689 0.7155-4.8616 0.9487-6.8728 0.4722-4.0733 0.6707-4.6664 1.5209-4.5454 0.6894 0.0981 0.8086 0.32921 5.0754 9.8356l3.175 7.0739 0.1416-8.4136c0.078-4.6275 0.1672-8.4434 0.1984-8.4798 0.1505-0.17526 1.1021-0.0368 1.236 0.17987 0.6698 1.0838 0.5789 17.392-0.1096 19.664-0.254 0.83818-0.4155 0.99219-1.0403 0.99219-0.6644 0-0.836-0.2083-1.6888-2.0505zm474.99 1.6475c-0.5901-0.71097-0.081-4.7529 1.2722-10.103 1.2954-5.1211 1.6514-5.8273 2.6271-5.2118 0.4251 0.26816 1.3323 3.7292 2.8837 11.002 0.5403 2.5326 0.3686 3.4604-0.6188 3.3438-0.6286-0.0742-0.7398-0.25536-1.0682-1.7403-0.2017-0.91159-0.4474-1.6083-0.546-1.5482-0.099 0.0601-0.6853 0.24499-1.3038 0.41087l-1.1244 0.30159v1.4624c0 0.80432-0.1233 1.6927-0.2739 1.9742-0.3273 0.61142-1.3793 0.67334-1.8479 0.10875zm4.2384-6.091c0-0.0792-0.1999-0.93994-0.4442-1.9127l-0.4443-1.7686-0.3383 1.4497c-0.5133 2.1999-0.4813 2.3757 0.4331 2.3757 0.4365 0 0.7937-0.0648 0.7937-0.14407zm-350.38 5.105c-0.4963-0.61846-1.2855-1.6925-1.7539-2.3867s-0.966-1.1916-1.1057-1.1052c-0.1397 0.0864-0.5955 0.83295-1.0129 1.6591-0.9138 1.8087-1.6235 2.5002-2.4456 2.3832-0.5081-0.0723-0.6909-0.37253-1.0589-1.739-0.6583-2.4447-0.8854-5.0124-0.4859-5.4938 0.463-0.55788 1.5161-0.49121 1.8414 0.11658 0.1506 0.28148 0.2739 1.1149 0.2739 1.8521 0 0.73718 0.063 1.3403 0.1403 1.3403 0.077 0 0.5063-0.41672 0.9535-0.92605 0.6904-0.78627 0.9833-0.92604 1.9406-0.92604 1.3022 0 2.184 0.58152 3.0799 2.0311 0.527 0.85272 0.6188 0.90573 0.794 0.45869 0.109-0.278 0.2104-0.86264 0.2252-1.2992 0.037-1.0777 0.6166-1.7827 1.3778-1.6749 0.5771 0.0817 0.6121 0.18884 0.5432 1.6653-0.087 1.8671-0.7733 4.6896-1.2074 4.9658-0.6521 0.41493-1.231 0.16086-2.0995-0.92134zm335.78 0.79375c-0.3549-0.28183-0.442-1.4986-0.589-8.23-0.1836-8.4042-0.155-8.6372 1.0597-8.6372 1.0413 0 1.2364 0.79104 1.026 4.1585l-0.1902 3.044 2.3487-1.5786c1.2918-0.86821 2.6223-1.6652 2.9567-1.771 0.5888-0.1864 1.3763 0.19165 1.3763 0.66074 0 0.34324-1.8399 2.028-3.635 3.3285l-1.6507 1.1959 1.2638 0.99902c1.2512 0.98898 3.1965 3.0466 3.9436 4.1713 0.4736 0.71294 0.2233 1.6666-0.4374 1.6666-0.2641 0-1.4944-0.942-2.7341-2.0933-1.2397-1.1513-2.5039-2.2271-2.8093-2.3906-0.5463-0.29232-0.5554-0.25523-0.5554 2.243 0 3.1793-0.3637 4.0351-1.3737 3.2331zm-523.63-0.39089c-0.2373-0.26225-0.5545-1.0108-0.7049-1.6635-0.355-1.5406-0.3632-13.375-0.011-15.606 0.4577-2.8983 1.4572-3.6471 4.9175-3.684 2.0548-0.0219 2.588 0.27331 2.434 1.3478-0.1109 0.77357-1.1032 1.2691-2.5513 1.274-2.3638 8e-3 -2.9591 1.0185-2.9591 5.0225v2.6543h1.5703c1.9325 0 2.9276 0.34649 2.9276 1.0194 0 0.7907-0.5108 1.0201-2.7197 1.2211l-2.0583 0.18735 0.074 3.3501 0.074 3.3501 3.7042 0.26459v1.5875l-2.1329 0.076c-1.7812 0.0635-2.204-3e-3 -2.5644-0.40079zm14.835-0.0589c-1.4914-0.28908-2.6739-1.3689-3.7579-3.4317-2.1478-4.0874-2.3052-8.715-0.4372-12.861 0.9027-2.0038 2.0586-3.3331 3.4404-3.9562 0.9699-0.43733 1.2221-0.45006 2.5928-0.13081 1.8955 0.44153 3.2371 1.721 3.9288 3.7471 0.3929 1.1507 0.4755 2.1998 0.4545 5.7719l-0.026 4.3656 1.4571 1.713c1.6401 1.928 2.3379 3.1975 2.0993 3.8192-0.3161 0.82387-1.1952 0.4265-2.5808-1.1666-0.7595-0.87313-1.4639-1.5875-1.5655-1.5875s-0.4022 0.48211-0.6679 1.0714c-0.5538 1.2282-2.0262 2.6328-2.7598 2.6328-0.2741 0-0.6569 0.0455-0.8507 0.10113-0.1938 0.0556-0.7911 0.0161-1.3275-0.0879zm2.8116-3.2765c0.37-0.4851 0.7384-1.2292 0.8188-1.6536 0.1309-0.69121 0.01-0.86818-1.1839-1.6977-1.4065-0.97928-1.8769-1.8655-1.3362-2.517 0.4813-0.57991 1.2881-0.48061 2.2873 0.28149l0.8848 0.67492v-3.2564c0-1.791-0.1162-3.6616-0.2582-4.1569-0.2974-1.0368-1.1385-2.0209-2.1985-2.5724-0.6729-0.35003-0.8279-0.33232-1.7813 0.20354-1.9492 1.0955-3.16 3.5707-3.3638 6.8761-0.2112 3.4272 0.5305 6.001 2.2644 7.8571 0.6617 0.7083 0.9792 0.84271 1.9906 0.84271 1.0528 0 1.2874-0.11029 1.876-0.88199zm78.234 0.96841c-0.6195-1.4216-1.68-3.4589-2.3569-4.5273-1.5102-2.384-1.6019-2.2503-1.6275 2.3715-0.015 2.679-0.1024 3.4383-0.4344 3.7703-0.5097 0.5097-0.9211 0.52506-1.5596 0.0582-0.4433-0.32416-0.4717-0.61441-0.3047-3.1089 0.1013-1.5132 0.4178-4.061 0.7034-5.6617s0.7106-4.101 0.9444-5.5562c0.2338-1.4552 0.5702-3.1221 0.7475-3.7042 0.9324-3.0604 5.1786-2.8842 6.3812 0.26482 0.5894 1.5433 0.3959 3.2581-0.5245 4.649-0.7421 1.1214-2.8296 2.6268-3.6425 2.6268-0.8397 0-0.6252 0.58581 1.2666 3.4592 1.3641 2.0719 2.8207 5.5669 2.8589 6.8596 0.024 0.80495-0.061 0.93635-0.6492 1.0048-0.6221 0.0725-0.7669-0.12881-1.8027-2.5059zm-1.6948-11.094c1.2071-0.92074 2.4543-2.681 2.4543-3.464 0-0.63577-1.0572-1.9326-1.5755-1.9326-0.7259 0-1.2889 1.107-1.6987 3.3398-0.5941 3.2372-0.6252 3.1592 0.8199 2.0569zm99.675 13.367c-0.097-0.15733-0.2405-1.7615-0.3184-3.5649-0.1534-3.551 0-4.0866 1.1485-4.0866 1.0396 0 1.2501 0.81593 1.0512 4.0761-0.099 1.6144-0.2397 3.1437-0.3138 3.3984-0.1493 0.5131-1.2808 0.64085-1.5675 0.17698zm6.3728 0.0369c-0.085-0.13703-0.2288-1.3872-0.3201-2.7781l-0.1662-2.529h-0.7488c-0.5791 0-0.7866-0.15069-0.9156-0.6649-0.3214-1.2804 0.2298-1.5189 3.2522-1.407 1.9982 0.074 2.8283 0.20929 3.1291 0.51014 0.5297 0.52966 0.2361 1.2961-0.4982 1.3008-1.6217 0.0103-1.7576 0.18322-1.7576 2.2367 0 2.4733-0.3713 3.5805-1.2009 3.5805-0.341 0-0.6892-0.11212-0.7739-0.24915zm-160.2-0.53053c-1.1765-1.1765-1.4117-2.1143-1.6291-6.4964-0.1156-2.3283-0.2162-5.9391-0.2236-8.024l-0.014-3.7907 0.74-0.73993c0.8532-0.85325 2.696-1.336 5.0996-1.336 1.4063 0 1.6116 0.0691 1.8663 0.62799 0.2034 0.44642 0.2044 0.78068 0 1.1561-0.2369 0.4426-0.6291 0.54816-2.4223 0.65197-2.9865 0.17289-3.0381 0.24283-3.0381 4.1211v3.1001l1.7198 0.13229c1.9556 0.15043 2.3812 0.34358 2.3812 1.0805 0 0.66234-0.9607 1.0362-2.663 1.0362h-1.3057l0.026 2.712c0.037 3.8035 0.1197 4.0194 1.5716 4.102 2.8004 0.15931 3.4866 0.55636 2.8897 1.6718-0.2345 0.43808-0.5702 0.51-2.3803 0.51-1.7354 0-2.1983-0.0909-2.6225-0.51509zm41.085 0.0132c-0.6059-0.10396-1.2896-0.34508-1.5195-0.53582-0.7388-0.61316-1.0252-2.3677-0.8541-5.2326 0.1-1.6705 0.062-2.7599-0.1001-2.8599-0.3917-0.24209-0.3145-1.2202 0.1355-1.7175 0.2849-0.31487 0.4438-1.3638 0.5641-3.725 0.092-1.8077 0.326-3.6779 0.5198-4.1561 0.4781-1.1793 1.7781-1.6851 4.7435-1.8455 2.6141-0.14134 3.1623 0.0991 2.9905 1.3112-0.084 0.5928-0.168 0.61058-2.9969 0.6348l-2.9104 0.0249-0.1608 1.1657c-0.088 0.64114-0.2397 2.3266-0.3361 3.7454l-0.1752 2.5797h1.9391c2.1883 0 3.0034 0.37237 2.7263 1.2454-0.1844 0.58123-0.6268 0.71952-3.2481 1.0155l-1.636 0.18471-0.1823 1.7017c-0.395 3.6892 0.2109 4.5839 3.1042 4.5839 1.9551 0 2.8637 0.29884 2.8637 0.9419 0 0.21676-0.2679 0.4955-0.5953 0.61941-0.9235 0.34949-3.6509 0.52751-4.8719 0.31801zm-11.99-0.88713c-1.5814-0.80798-2.5812-2.1391-2.9104-3.8751-0.347-1.8295-0.3378-8.0067 0.014-9.5525 0.8511-3.7378 4.5545-5.8143 7.5993-4.261 1.3221 0.67451 1.7812 1.3893 1.3771 2.1443-0.3579 0.66884-1.2616 0.66884-2.1167 0-0.9768-0.76408-1.9483-0.66083-3.0729 0.32659-1.4795 1.2991-1.7555 2.2239-1.8973 6.359-0.1033 3.0112-0.047 3.8481 0.3268 4.8258 0.8004 2.0959 2.5929 2.8577 4.0421 1.7177 0.8037-0.6322 1.4732-0.67575 1.9299-0.12552 0.2738 0.32991 0.2477 0.56579-0.1431 1.2914-0.9589 1.7805-3.0151 2.2394-5.149 1.1492zm228.98-0.72732c-1.7261-0.68231-2.7971-1.7903-2.8519-2.9505-0.061-1.2819 0.7867-1.3246 2.1105-0.10619 0.5625 0.51764 1.5287 1.1356 2.1471 1.3733 1.0477 0.40259 1.2061 0.40097 2.3181-0.0237 1.2804-0.48896 1.7168-1.0283 1.7168-2.1215 0-1.0654-0.6225-1.7865-2.9814-3.4538-4.5436-3.2113-6.4029-5.5816-6.7141-8.5591-0.4479-4.2859 1.8469-6.9691 5.8898-6.8866 2.1863 0.0446 2.6151 0.25918 2.6151 1.3085v0.91412l-2.1745-0.0799c-2.5806-0.0948-3.1203 0.13591-3.7953 1.6226-1.3223 2.9124-0.1369 5.7711 3.5522 8.5661 2.7847 2.1098 4.9318 4.0739 5.3612 4.9043 0.5533 1.07 0.5543 2.9128 0 3.7557-1.3268 2.0251-4.5178 2.7952-7.1956 1.7367zm15.627-1.0464c-0.9888-0.40899-1.6656-1.4626-2.3871-3.7163-0.6762-2.112-0.7339-2.6828-0.9476-9.3715-0.2358-7.3836-0.1893-7.8264 0.8211-7.8264 0.9411 0 1.0243 0.55288 0.9968 6.6209-0.024 5.285 0.038 6.2131 0.5556 8.3393 0.958 3.9344 1.9345 4.9225 3.3525 3.3925 0.8007-0.86391 1.0641-1.794 1.6007-5.6526 0.3633-2.6115 0.3781-3.5915 0.1051-6.9155-0.2637-3.2103-0.2566-3.999 0.041-4.6107 0.4312-0.88508 0.7632-1.0284 1.3484-0.58206 0.6715 0.51213 1.1457 7.9729 0.7287 11.465-0.3969 3.324-1.1547 6.2811-1.8654 7.2792-0.9982 1.4018-3.0108 2.1319-4.3501 1.5779zm10.011-0.75015c-0.2794-1.1134 0.1027-15.145 0.45-16.524 0.3755-1.4906 1.9739-3.4269 3.451-4.1804 2.8683-1.4633 5.7015 0.4062 5.1412 3.3926-0.3512 1.872-1.8334 4.0104-3.654 5.2716l-1.0675 0.73956 1.8298 0.33192c3.2356 0.58691 5.0038 2.3917 4.9869 5.0899-0.011 1.727-0.5379 2.866-2.0528 4.4364-1.5577 1.6148-3.233 2.1767-6.395 2.1448-2.4736-0.025-2.5228-0.0378-2.6896-0.70252zm6.251-2.2353c1.7671-0.89195 2.9209-2.1637 2.919-3.2174 0-0.73326-0.8772-2.1457-1.6409-2.6461-0.3348-0.21938-1.7097-0.69352-3.0553-1.0536l-2.4466-0.65474v8.765l1.2568-0.16494c0.6912-0.0907 2.0264-0.55338 2.967-1.0282zm-1.4894-12.083c1.6965-1.5896 2.4976-3.6827 1.7106-4.4696-0.5051-0.50512-1.1096-0.37614-2.309 0.49266-1.3481 0.97658-1.7769 1.9289-1.9187 4.262l-0.1074 1.7648 0.805-0.54956c0.4427-0.30226 1.2615-0.97737 1.8195-1.5002zm12.108 13.928c-1.6111-0.82855-1.2713-2.1674 0.479-1.8875 2.1813 0.34881 5.1478-1.2436 5.4649-2.9335 0.2783-1.4839-0.302-2.4021-2.9497-4.6668-2.9631-2.5345-3.6746-3.7458-3.4921-5.9457 0.1438-1.7344 1.2024-3.431 2.5953-4.1596 0.7454-0.38987 1.3521-0.459 3.2072-0.36549 3.3819 0.17047 5.1853 1.2398 4.1648 2.4695-0.383 0.46152-1.0813 0.40727-3.6173-0.28104-1.3627-0.36984-1.8326-0.39511-2.6053-0.1401-1.2307 0.40617-1.8095 1.6778-1.5503 3.4061 0.1887 1.2588 0.2699 1.357 4.0156 4.8583 0.7439 0.69538 1.5431 1.6659 1.7759 2.1567 0.5192 1.0941 0.5454 2.7866 0.061 3.9458-0.4934 1.1809-2.3402 2.704-4.0582 3.3468-1.6268 0.60867-2.5848 0.66263-3.4908 0.19665zm71.73 0.10887c-0.2356-0.14948-0.4205-1.4388-0.5902-4.1158-0.2756-4.3486-0.5083-5.4857-1.3911-6.7971-0.6721-0.99843-1.4062-1.4263-2.9286-1.7071l-1.0197-0.18803 0.059 5.657c0.032 3.1114 0.045 5.8016 0.027 5.9784-0.047 0.4819-0.926 0.86248-1.5905 0.68869l-0.5864-0.15334 0.081-10.064c0.062-7.7579 0.1563-10.089 0.4113-10.174 0.1819-0.0605 0.3307-0.31752 0.3307-0.57107 0-0.49481 0.8299-1.3596 1.7686-1.8431 0.8279-0.42641 3.1505-0.36709 4.0609 0.10371 1.0303 0.53279 1.5788 1.6645 1.5788 3.2574 0 2.0419-0.8274 3.5768-2.6458 4.9078-0.3638 0.2663-0.5375 0.53301-0.386 0.59267 3.186 1.2546 4.2799 3.6719 4.5407 10.034 0.1344 3.2801 0.099 3.7676-0.3003 4.1672-0.4963 0.49628-0.8943 0.55987-1.4194 0.22679zm-2.5391-17.904c0.239-0.36478 0.4944-1.1945 0.5676-1.8438 0.123-1.0911 0.079-1.201-0.5769-1.4505-1.6714-0.63543-3.0616 1.1016-3.0616 3.8253v1.4682l1.3182-0.66796c0.725-0.36738 1.5137-0.96641 1.7527-1.3312zm-45.56 16.941c-0.091-0.36302-0.1141-3.3693-0.051-6.6807 0.1049-5.5084 0.1667-6.1543 0.7269-7.5904 0.9742-2.4978 2.6807-5.1611 3.6295-5.6644 2.5085-1.3307 4.7312 1.7262 3.3585 4.6189-0.236 0.49742-0.9991 1.4169-1.6958 2.0432l-1.2667 1.1388 0.9154 0.493c2.2158 1.1932 3.5346 3.7091 3.5346 6.7427 0 1.7027-0.4413 2.5313-1.2171 2.2851-0.4097-0.13003-0.5816-0.58003-0.8386-2.1956-0.5661-3.5578-1.7846-5.1764-4.1909-5.5669l-0.9767-0.15849 0.14 5.1584c0.081 2.972 0.036 5.3444-0.1057 5.5973-0.1416 0.25316-0.5739 0.43894-1.0212 0.43894-0.6061 0-0.8117-0.14417-0.9412-0.66003zm4.556-15.048c1.1323-1.1323 1.3749-1.793 0.9211-2.509-0.2647-0.41775-1.196 0.69739-2.1217 2.5404-0.7357 1.4649-0.2838 1.4531 1.2006-0.0313zm15.592 14.209c-0.3528-0.41467-0.4277-1.8676-0.5163-10.01-0.067-6.1879-0.01-9.6409 0.1642-9.8557 0.3562-0.43991 1.4456-0.42229 1.7112 0.0277 0.1348 0.22823 0.9491 0.41246 2.2421 0.50724 2.4668 0.18083 3.7616 0.75436 4.6152 2.0444 0.707 1.0683 1.0623 3.1262 0.7903 4.5764-0.1987 1.059-1.9512 3.1797-3.1324 3.7905l-0.7953 0.41124 0.828 0.50351c2.4612 1.4968 2.4978 5.0154 0.07 6.6981-0.5578 0.38653-1.7734 0.83607-2.8248 1.0447-1.0152 0.20141-2.0468 0.45191-2.2925 0.55667-0.2877 0.12267-0.5936 0.0178-0.8594-0.2946zm4.4197-3.1404c0.7557-0.51349 0.9875-0.84956 0.9875-1.4317 0-1.089-1.3034-2.1306-2.6662-2.1306h-1.038v4.2333h0.8646c0.4896 0 1.293-0.29106 1.8521-0.671zm-0.7171-6.8784c1.6965-0.97235 3.2922-2.857 3.2917-3.8879 0-2.2306-1.368-3.3343-4.1668-3.3644l-1.3891-0.0149v8.2377l0.5953-0.17759c0.3275-0.0977 1.0785-0.45448 1.6689-0.79289zm9.9105 9.6523c-1.243-0.28228-2.3064-1.5268-2.5171-2.946-0.093-0.6277-0.1314-4.2591-0.085-8.0697l0.084-6.9284 0.7787-0.81231c0.9148-0.95424 2.0957-1.3346 4.1499-1.3367 1.6392-2e-3 2.1802 0.36304 2.037 1.373-0.078 0.55327-0.2695 0.62813-2.0596 0.8066-1.1967 0.11932-2.1338 0.35725-2.3813 0.60463-0.3119 0.31186-0.4298 1.1758-0.5004 3.6697l-0.092 3.2618 1.3773 0.13234c2.4962 0.23986 2.5103 1.6762 0.019 1.9712l-1.394 0.16509 0.091 2.3225c0.1236 3.1537 0.6116 3.8207 3.1707 4.3328 0.7281 0.1457 1.097 0.66315 0.7984 1.1198-0.2466 0.37712-2.3832 0.5821-3.4774 0.33361zm-41.22-0.52425c-3.2045-0.65308-4.4758-3.534-4.243-9.6155 0.142-3.7107 0.7408-5.1549 2.6188-6.316 1.3728-0.84877 3.7744-1.4247 4.833-1.159 0.6331 0.1589 0.7225 0.29816 0.6516 1.0146-0.087 0.87767-0.3906 1.056-2.3543 1.3826-0.5295 0.0881-1.4282 0.56794-2.0328 1.0854-1.3581 1.1625-1.7677 2.726-1.5995 6.1064 0.1898 3.8152 1.2716 5.2395 4.2324 5.5726 0.7741 0.0871 1.5562 0.27563 1.7381 0.41897 0.3623 0.28552 0.448 1.1534 0.1323 1.3406-0.4667 0.27667-2.9342 0.3817-3.9766 0.16926zm21.787-1.1156c-0.054-0.1819-0.1747-0.56209-0.2676-0.84486-0.093-0.28277-0.2329-3.8906-0.311-8.0173-0.1066-5.632-0.063-7.5988 0.176-7.8864 0.4422-0.53282 1.5061-0.47929 1.8113 0.0911 0.3451 0.64472 0.072 16.216-0.292 16.657-0.1499 0.1819-0.4403 0.33073-0.6453 0.33073-0.2051 0-0.4172-0.14883-0.4714-0.33073zm-155.23-2.4876c-0.2845-0.34248-0.382-2.0895-0.4505-8.0698l-0.087-7.6327h-1.8258c-1.7294 0-1.8346-0.0351-1.9927-0.66489-0.3374-1.3444 0.054-1.4518 5.298-1.4518 5.0871 0 5.8665 0.1659 5.6661 1.2061-0.1136 0.58996-0.9888 0.8334-3.1613 0.87929l-1.4821 0.0313-0.1699 2.1828c-0.093 1.2005-0.1707 4.6891-0.1715 7.7523 0 5.5648-0.099 6.2045-0.9482 6.2045-0.1713 0-0.475-0.1967-0.6747-0.43712zm-30.22-1.9602c-1.0388-0.64443-1.2319-1.8136-1.2319-7.4572 0-6.0033 0.07-6.2742 1.8036-6.9986 0.5174-0.21619 2.0464-0.45904 3.3977-0.53966 2.6729-0.15946 3.2653 0.0439 3.2653 1.1209 0 1.0677-0.5736 1.2567-3.502 1.1538l-2.7157-0.0955-0.076 2.3151-0.077 2.3151h3.3004c3.7766 0 4.7364 0.23421 4.6099 1.1249-0.1042 0.73377-1.2214 0.94354-5.1777 0.97215l-2.712 0.0196v1.1245c0 0.61846-0.079 1.5841-0.1716 2.1459l-0.1688 1.0214 3.5838-0.19194c3.4236-0.18337 3.5911-0.16861 3.7495 0.33038 0.2314 0.7291-0.045 1.3074-0.7244 1.5142-1.1298 0.34401-6.6419 0.44038-7.1503 0.12502zm13.58-0.3872c-0.2586-0.31154-0.3041-1.9407-0.2003-7.1648 0.1129-5.6853 0.2008-6.8281 0.5521-7.1794 0.6787-0.67871 1.3174-0.0105 3.4745 3.635 4.0176 6.79 4.432 7.4455 4.6001 7.2774 0.095-0.0946 0.1734-2.6203 0.1749-5.6126 0-4.8689 0.051-5.4711 0.4609-5.731 0.3557-0.22552 0.5613-0.18722 0.9199 0.17136 0.4112 0.41126 0.4625 1.1058 0.468 6.3455 0.01 5.5904-0.023 5.9389-0.5854 6.9902-0.6824 1.2766-0.9549 1.4977-1.5957 1.2943-0.4396-0.13953-2.8402-3.835-4.9112-7.5602-0.5258-0.94589-1.0731-1.8965-1.2161-2.1125-0.1723-0.26035-0.2063 1.1703-0.1007 4.2436 0.1734 5.0451 0.031 5.8065-1.0866 5.8065-0.3409 0-0.7704-0.18145-0.9544-0.40322zm-26.522-2.7056c-0.51-1.4188-1.4123-3.9108-2.0051-5.5377-1.2311-3.3784-1.6057-5.4297-1.1025-6.0361 0.8162-0.98345 2.3827-0.0321 2.3827 1.447 0 1.2844 2.8073 9.7856 3.2338 9.7928 0.1051 2e-3 0.385-0.66414 0.6222-1.4798 0.2371-0.81566 0.7127-2.1198 1.0569-2.8981s0.8729-2.3827 1.1749-3.5654c0.6882-2.6956 0.9928-3.2076 1.8497-3.1094 0.6254 0.0716 0.6588 0.15732 0.6121 1.5704-0.088 2.6529-2.1452 7.8588-4.2257 10.692-0.9998 1.3617-1.3936 1.7037-1.9614 1.7037-0.6589 0-0.7777-0.18717-1.6376-2.5797zm-13.689 1.6059c-0.5246-0.27272-1.1235-0.88492-1.3815-1.412-0.9433-1.9278-1.3367-7.837-0.6146-9.2334 0.6871-1.3286 1.9743-1.7197 5.7002-1.7317l3.3073-0.0107v1.8521l-3.1397 0.14155c-2.8788 0.12978-3.1811 0.19268-3.638 0.75691-0.3189 0.39377-0.4983 1.0336-0.4983 1.7767v1.1613h3.5892c1.9741 0 3.8196 0.12325 4.1011 0.27389 0.6468 0.34618 0.6802 1.4937 0.049 1.6767-0.2546 0.0738-2.0406 0.21615-3.9687 0.31636-3.4808 0.18092-3.5057 0.18678-3.5057 0.82175 0 0.35174 0.2922 0.93178 0.6494 1.289 0.7349 0.73496 1.7448 0.82471 4.1911 0.3725 1.7589-0.32517 2.6497-0.0201 2.5177 0.86237-0.1047 0.70033-1.7241 1.2174-4.4478 1.4203-1.6063 0.11964-2.1609 0.0561-2.9104-0.33365zm351.1-8.2074c-5.5278-0.26797-8.9994-0.6028-9.8245-0.94757-0.5129-0.21432-1.5359-0.92544-2.2732-1.5803s-1.9186-1.404-2.6251-1.6648c-1.4763-0.54499-2.2105-1.0926-2.2105-1.6486 0-0.21356-0.6846-1.121-1.5214-2.0166-0.8367-0.89556-1.9273-2.399-2.4235-3.341-0.4962-0.942-1.2282-2.0899-1.6266-2.5509-0.3983-0.46101-0.9837-1.5326-1.3008-2.3812s-1.6826-3.7457-3.0344-6.4378c-2.7066-5.3902-3.1153-6.4899-4.5726-12.303l-0.995-3.9688v-6.4823c0-7.5936 0.4226-13.598 1.1654-16.469 1.232-4.7625 4.0516-10.561 6.6446-13.664 0.8041-0.96227 1.7798-2.2854 2.1684-2.9402 1.7771-2.9952 3.8637-4.223 9.8634-5.804 2.1828-0.5752 4.6738-1.2988 5.5355-1.608 3.6406-1.3062 9.6022-2.1029 15.764-2.1065 3.6449-2e-3 7.6001 0.80088 10.765 2.1856 1.1371 0.49752 2.6772 1.1053 3.4225 1.3506 0.7452 0.24527 2.0133 0.84238 2.8179 1.3269 1.528 0.92008 5.4031 4.0668 6.5427 5.3129 0.3638 0.39779 1.9206 1.7137 3.4596 2.9243 3.2591 2.5636 4.8043 4.4725 5.8719 7.2538 0.4215 1.0982 1.4009 3.3064 2.1765 4.9071 1.9452 4.0147 2.3526 5.7424 2.1941 9.3057-0.092 2.0597-0.016 3.2588 0.2721 4.314 0.2422 0.88746 0.3993 2.6046 0.4 4.3719 0 3.6205-0.6889 6.6212-2.3643 10.277-0.6564 1.4321-1.3107 2.9121-1.4539 3.2889-0.3957 1.0406-3.8899 7.1701-4.893 8.583-0.4867 0.68559-1.4394 2.3505-2.1171 3.6999-1.5593 3.1047-2.0554 3.745-4.2635 5.5024-0.9877 0.78615-2.5699 2.0498-3.5157 2.8081-2.1265 1.7048-8.5706 5.8371-11.016 7.0639-3.0787 1.5447-7.5316 3.0485-9.9095 3.3466-2.1117 0.26478-3.2524 0.27952-7.1205 0.092zm-0.7276-5.0355c-0.6184-0.0557-1.6305-0.0557-2.2489 0-0.6185 0.0557-0.1125 0.10128 1.1244 0.10128 1.237 0 1.743-0.0456 1.1245-0.10128zm-4.0569-0.16632c-0.061-0.0525-0.646-0.16632-1.3009-0.2529-0.795-0.10512-1.0148-0.0796-0.6614 0.0769 0.5053 0.22375 2.1921 0.37506 1.9623 0.17603zm13.384-4.6777c2.7506-0.31296 7.8992-1.5947 10.272-2.5571 2.5795-1.0463 5.6001-3.1793 9.1325-6.4488 3.9144-3.6232 6.6048-7.1606 9.6431-12.679 2.1976-3.9916 3.2446-11.477 3.0579-21.861l-0.091-5.0603-1.1813-2.3281c-1.4526-2.8629-3.1981-4.7876-6.4158-7.0742-1.3514-0.96038-3.8866-2.9732-5.6337-4.473-4.7105-4.0436-6.041-4.8162-9.2588-5.3761-1.4552-0.25321-4.6699-1.0882-7.1438-1.8555-6.4678-2.0061-8.5876-2.3869-11.158-2.0045-2.5087 0.37312-4.1334 1.0959-7.4545 3.3162-3.2796 2.1926-2.9739 1.9098-5.8213 5.3848-3.6016 4.3953-5.9103 7.7901-7.4203 10.911-0.7377 1.5247-1.8586 3.7392-2.4908 4.9209s-1.4938 3.3249-1.9147 4.7625c-0.66 2.2544-0.7786 3.1617-0.8624 6.5983-0.1166 4.785 0.2643 7.3346 1.7765 11.891 1.2336 3.7164 2.887 8.2176 3.6581 9.9587 0.5942 1.3416 2.8104 4.7403 4.2384 6.4996 1.1244 1.3854 4.0674 3.7983 5.536 4.539 2.6658 1.3444 8.6759 2.6212 13.844 2.9411 1.6735 0.10358 3.1023 0.20594 3.175 0.22746 0.073 0.0215 1.2039-0.0828 2.5136-0.23181zm-6.3052-26.46c-1.2819-1.0083-1.5563-3.8528-0.854-8.8515 0.6259-4.4547 1.4293-13.529 1.5926-17.987l0.1548-4.2282-1.1406 1.1194c-1.2448 1.2217-1.6287 1.3296-2.5169 0.70752-0.968-0.67806-0.7306-1.5255 0.9863-3.5203 2.0972-2.4368 3.113-3.054 4.7271-2.8724 1.0535 0.11854 1.403 0.32021 2.3316 1.3455 1.7723 1.9567 2.9997 5.6268 2.162 6.4645-0.7238 0.72384-1.4948 0.35375-2.5077-1.2038l-0.9893-1.5214-0.1877 1.1906c-0.1033 0.65484-0.2609 2.4408-0.3503 3.9688-0.1889 3.2289-0.7946 9.5568-1.3676 14.288-0.6649 5.4896-0.7058 6.0114-0.5272 6.7234 0.095 0.37674 0.3386 0.68498 0.5422 0.68498 0.8089 0 4.1936-3.0834 6.0688-5.5287 2.0427-2.6637 3.8805-4.5627 6.1519-6.3572 0.746-0.58931 1.5385-1.3495 1.7611-1.6892s1.2154-1.1451 2.2063-1.7895l1.8015-1.1718-1.3948-0.14105c-1.4422-0.14585-1.8826-0.48884-1.8898-1.4716-0.01-1.2203 0.6823-1.4301 4.7131-1.4301 3.3967 0 3.7993 0.0498 4.2787 0.52917 0.6 0.60005 0.6443 0.8779 0.2557 1.604-0.1503 0.28097-0.3996 1.1935-0.5538 2.0278-0.3837 2.0756-0.8888 2.9828-1.6607 2.9828-0.9629 0-1.3511-0.64363-1.0263-1.7018l0.2722-0.88692-1.8847 1.3421c-5.8697 4.1799-7.6804 5.8134-11.616 10.479-5.6899 6.7458-6.4396 7.4358-8.0793 7.4358-0.4241 0-1.0808-0.24354-1.4592-0.5412zm-23.032 19.416c-0.2238-0.41305-0.4117-0.60055-0.4175-0.41668-0.012 0.38123 0.5807 1.4115 0.7277 1.2645 0.053-0.0533-0.086-0.43482-0.3102-0.84786zm-8.7124-34.948c-0.067-0.25467-0.121-0.0463-0.121 0.46302s0.054 0.71768 0.121 0.46302c0.066-0.25466 0.066-0.67138 0-0.92604zm0.6807-6.0193c0.082-1.6589 0.053-2.2511-0.078-1.5875-0.1154 0.58208-0.2741 2.4276-0.3528 4.101-0.1003 2.1355-0.077 2.6088 0.078 1.5875 0.1217-0.80037 0.2804-2.6458 0.3528-4.101zm1.1172-5.9131c-0.1677-0.16773-0.6002 1.0789-0.7794 2.2468-0.1203 0.78375-0.035 0.65468 0.3681-0.55647 0.2886-0.86729 0.4737-1.6279 0.4113-1.6903zm-460.11 54.432c-3.056-0.11402-12.194-0.18958-20.306-0.16792-14.474 0.0386-14.764 0.0293-15.478-0.50147-1.3685-1.0164-1.4186-1.7124-1.3005-18.084 0.099-13.8 0.1545-15.284 0.7155-19.315 0.5609-4.0299 0.6101-5.3574 0.6397-17.261 0.024-9.7008 0.1113-12.975 0.3521-13.216 0.1761-0.1761 0.3202-0.48103 0.3202-0.67763s0.4465-0.54717 0.9922-0.77904c0.879-0.37349 4.0856-0.43668 28.112-0.55401 26.876-0.13125 31.763-0.0453 45.773 0.80551 2.9831 0.18115 9.1149 0.32937 13.626 0.32937 9.1301 0 9.4343 0.0525 10.377 1.7904 0.6216 1.1462 0.7611 7.012 0.3568 15.011-0.3208 6.3484-0.7382 9.4902-1.7489 13.164-0.3466 1.2598-0.5653 2.3554-0.486 2.4347 0.079 0.0793 11.237 0.1329 24.795 0.11905 20.826-0.0213 25.164-0.0903 27.958-0.44462 1.8191-0.23069 5.102-0.49509 7.2954-0.58755 3.3844-0.14267 4.0385-0.10733 4.3213 0.23349 0.702 0.8458 0.114 1.4226-1.7718 1.7383-4.3399 0.72657-10.404 0.89117-36.321 0.98597l-26.873 0.0983-0.3443 3.5883c-0.2583 2.692-0.3019 6.7383-0.1743 16.199 0.094 6.9356 0.075 13.027-0.041 13.536-0.1571 0.68863-0.447 1.0446-1.1306 1.3886-0.8587 0.43216-2.6695 0.4597-27.51 0.41847-14.625-0.0243-29.091-0.13743-32.147-0.25145zm58.51-1.8936c0.1807-0.11174 0.3378-5.1264 0.4594-14.666 0.1016-7.9732 0.3-15.628 0.4408-17.01 0.1409-1.3824 0.6266-3.7637 1.0794-5.2917 1.4137-4.771 1.5718-6.258 1.735-16.319 0.083-5.1191 0.071-9.7325-0.026-10.252-0.3074-1.6389-0.4836-1.669-11.681-2.0002-13.816-0.40859-20.741-0.70257-25.25-1.0718-2.7969-0.2291-10.898-0.27297-29.898-0.16192-23.591 0.13789-28.504 0.27657-29.047 0.81996-0.077 0.0774-0.1777 5.8269-0.223 12.777-0.063 9.7009-0.1876 13.589-0.5354 16.737-0.3605 3.264-0.4719 7.215-0.5454 19.356l-0.092 15.255 0.6274 0.72934c0.5988 0.69623 0.7824 0.74048 4.043 0.97495 1.8787 0.13509 10.44 0.19954 19.026 0.14322 8.5857-0.0563 17.634-0.0234 20.108 0.0731 5.6286 0.21957 49.405 0.13753 49.779-0.0933zm218.38-2.1095c-2.1888-1.1184-2.2732-1.3925-2.125-6.9003 0.071-2.6441 0.1207-8.3794 0.1102-12.745-0.016-6.5069-0.1023-8.319-0.4801-10.054-0.3929-1.804-0.4928-4.4349-0.6761-17.809-0.1979-14.436-0.2519-15.719-0.6738-16.027-0.3122-0.22821-0.4016-0.51549-0.2799-0.89883l0.1788-0.56341 21.616 0.0496c11.888 0.0273 25.068-0.0263 29.288-0.11915 19.284-0.42404 22.874-0.55319 28.675-1.0314 6.9594-0.57374 11.625-0.63274 12.992-0.16429 0.6617 0.22674 1.1094 0.65154 1.5875 1.5064l0.666 1.1906-0.015 7.5406c-0.01 4.1473-0.044 10.859-0.079 14.914-0.035 4.0554 0.011 7.4486 0.1034 7.5406 0.092 0.092 9.3548 0.18211 20.584 0.20029 15.729 0.0255 21.176-0.0505 23.723-0.33073 1.8181-0.20008 5.7801-0.36378 8.8043-0.36378 3.3277 0 8.0633-0.21824 11.994-0.55276 3.5727-0.30401 6.7711-0.48363 7.1077-0.39915 0.7459 0.18723 1.0776 0.92803 0.6139 1.3712-0.5531 0.52853-8.3851 1.1634-17.803 1.4431-4.8022 0.14262-12.601 0.38309-17.33 0.53436-4.737 0.15153-13.262 0.19946-18.98 0.10673-5.7099-0.0926-12.244-0.0818-14.519 0.024l-4.1378 0.19236 0.171 1.6166c0.094 0.88914 0.3397 4.1169 0.546 7.1729 0.3253 4.8187 0.4889 5.9426 1.2322 8.4667 0.7229 2.4549 0.8743 3.4511 0.9673 6.3654 0.085 2.6578 0.019 3.6724-0.2834 4.3969-0.5613 1.3435-1.9788 2.3258-3.8094 2.6398-0.8443 0.14485-7.071 0.326-13.837 0.40256-10.072 0.11396-12.998 0.0642-16.14-0.2747-8.1915-0.88352-10.712-1.0494-18.257-1.2017-8.1716-0.16491-11.914 0.0154-21.253 1.0242-2.7395 0.29592-6.1328 0.54181-7.5406 0.54642-1.4079 5e-3 -3.7504 0.1809-5.2057 0.39173-3.9666 0.57471-6.129 0.51683-7.5352-0.20168zm10.842-1.7862c3.2743-0.15776 7.6796-0.45986 9.7896-0.67133 10.528-1.0552 16.897-1.4765 19.976-1.3217 2.8253 0.14208 9.2215 0.64054 18.785 1.464 4.4535 0.38344 23.78 0.40166 26.591 0.0251 5.6361-0.75512 5.9559-1.041 5.9479-5.3166 0-2.4426-0.1283-3.1936-1.0242-6.2177-0.9693-3.2722-1.0291-3.6907-1.2282-8.599-0.115-2.8376-0.3359-5.6356-0.4908-6.2177-0.1549-0.58209-0.2845-1.481-0.288-1.9976 0-0.5166-0.1-1.0524-0.2134-1.1906-0.1139-0.13825-0.098-7.0522 0.036-15.364 0.1337-8.3121 0.1622-15.544 0.063-16.07-0.109-0.58109-0.409-1.0885-0.7635-1.2912-0.7336-0.41957-7.1106-0.38037-11.829 0.0727-7.3067 0.70167-21.87 1.0553-59.399 1.4424-9.7499 0.10057-17.787 0.24159-17.859 0.31338-0.073 0.0718-0.1733 6.4012-0.2234 14.065-0.09 13.824-0.086 13.967 0.5724 18.036 0.7839 4.8457 0.9653 11.128 0.604 20.919-0.2446 6.6279-0.1887 7.0734 0.9647 7.6907 0.5701 0.30508 3.2468 0.71996 3.7708 0.58445 0.1455-0.0376 2.9435-0.19749 6.2177-0.35526zm-140.55-0.14761c-1.823-0.98931-2.669-5.3459-1.3232-6.8139 0.4775-0.52092 3.4994-6.7571 3.4994-7.2217 0-0.10508 1.1217-2.523 2.4927-5.3731s2.9915-6.3726 3.6011-7.8278 1.557-3.5983 2.1054-4.7625c1.9768-4.1967 3.1323-6.9125 3.715-8.7312 1.3095-4.0873 1.5727-4.6302 2.2444-4.6302 0.81 0 0.8943 0.16 1.4683 2.7867 0.2935 1.3429 1.1216 3.5819 2.1187 5.7282 3.4042 7.3278 5.0934 11.308 6.267 14.768 2.0324 5.9916 2.8553 7.8503 4.4255 9.9956 2.5046 3.4221 5.7314 9.0405 5.6407 9.8214-0.072 0.6177-0.2696 0.73346-1.932 1.1299-1.0186 0.24292-3.1617 0.59419-4.7625 0.78061-3.9098 0.45534-15.962 0.61766-17.904 0.24113-1.1801-0.22884-2.0774-0.20433-4.2138 0.11511-3.4435 0.51489-6.4873 0.5122-7.4432-7e-3zm1.9116-3.8816c0-0.15486-0.1681-0.12915-0.3969 0.0607-0.2183 0.18116-0.3969 0.3706-0.3969 0.42097 0 0.0504 0.1786 0.0231 0.3969-0.0607s0.3969-0.2732 0.3969-0.42097zm-0.2646-2.4684c0-0.22687-0.1191-0.33891-0.2646-0.24897-0.1455 0.0899-0.2646 0.27556-0.2646 0.41249s0.1191 0.24897 0.2646 0.24897 0.2646-0.18562 0.2646-0.41249zm14.552 0.1479c0-0.14552-0.1121-0.26458-0.249-0.26458s-0.3225 0.11906-0.4125 0.26458 0.022 0.26459 0.249 0.26459c0.2269 0 0.4125-0.11907 0.4125-0.26459zm84.049-11.024c-0.4425-0.44243-0.063-1.155 1.3449-2.5251 2.3461-2.2831 6.0009-5.4367 9.062-7.8191 1.528-1.1892 3.1202-2.4401 3.5382-2.7798l0.76-0.61761-0.6277-0.67349c-0.3453-0.37042-1.997-1.4904-3.6705-2.4889-1.6735-0.99846-3.8024-2.3219-4.731-2.941-0.9285-0.61912-2.5077-1.4471-3.5091-1.84-2.2029-0.86426-2.5337-1.1901-2.1232-2.0912 0.5839-1.2814 2.6227-0.6288 6.832 2.187 1.2874 0.86118 3.5909 2.3214 5.1188 3.2449 1.528 0.9235 3.0038 1.8668 3.2796 2.0962 0.7462 0.62076 1.5455 2.5766 1.3358 3.2686-0.2306 0.76067-1.1208 1.7316-2.0136 2.1962-0.9999 0.52028-7.3464 5.632-9.9604 8.0224-3.0003 2.7437-4.0361 3.3606-4.6358 2.7609zm181.48-1.3161c-0.092-0.23879 8e-4 -0.68527 0.2054-0.99219 0.7134-1.0705 11.193-11.413 12.423-12.26 0.753-0.51889 1.24-1.0549 1.24-1.3648 0-1.1681-5.534-5.7979-9.0307-7.555-1.3979-0.70247-2.8348-1.2157-3.7042-1.3231-2.4295-0.30007-2.8465-0.43283-3.0137-0.95956-0.089-0.28093-0.082-0.76347 0.016-1.0723 0.1662-0.52364 0.318-0.55345 2.2485-0.44169 1.7879 0.1035 2.4165 0.28724 4.6085 1.347 2.9607 1.4314 4.254 2.2802 7.1807 4.7128 3.27 2.7181 4.3415 4.0438 4.3365 5.3655-0.01 1.3613-0.098 1.5013-1.8613 2.8156-0.793 0.59098-3.4064 3.0158-5.8075 5.3886-5.9459 5.8757-6.9956 6.7737-7.918 6.7737-0.4574 0-0.8226-0.17172-0.9233-0.43415zm-312.57-0.94168c-0.1747-0.17462-0.3175-0.43025-0.3175-0.56806 0-0.73021 5.9695-7.2278 7.9997-8.7074 0.8472-0.61748 2.1931-1.3668 2.9908-1.6651l1.4504-0.54245-1.1273-0.80314c-0.6199-0.44173-2.2437-1.7454-3.6083-2.8971-3.6075-3.0446-4.4421-3.5937-6.647-4.3727-1.938-0.68471-1.9844-0.72191-1.9844-1.5924 0-0.86973 0.029-0.89325 1.2017-0.96974 0.9726-0.0634 1.6143 0.12812 3.366 1.0049 1.1904 0.59581 2.7928 1.6489 3.5609 2.3401 1.8593 1.6734 5.0671 4.2392 6.6219 5.2967 1.6893 1.1489 1.6655 1.7234-0.1323 3.1982-0.7639 0.62672-1.7894 1.3098-2.2789 1.518-1.773 0.75427-3.0018 1.7998-5.7771 4.9154-3.3938 3.81-4.5312 4.6322-5.3186 3.8448zm80.976-10.545c-0.6608-0.25838-0.8228-1.3353-0.2646-1.759 0.3256-0.24716 61.835 0.0851 63.103 0.34082 0.8656 0.1746 0.8274 1.3646-0.051 1.585-0.3554 0.0892-8.2433 0.0727-17.529-0.0367-19.44-0.22899-43.14-0.25101-44.045-0.0409-0.3402 0.0789-0.8865 0.0388-1.2139-0.0892zm-52.729-10.136c-3.1859-2.181-5.0174-9.126-4.6731-17.721 0.2458-6.1378 0.8616-7.5617 5.0251-11.618 2.8917-2.8172 3.6431-3.2519 4.3682-2.5268 0.6517 0.65164 0.273 1.2916-1.7588 2.9726-2.6859 2.2221-4.4235 4.3475-4.9582 6.0646-0.6644 2.134-0.7962 8.3714-0.254 12.02 0.7484 5.0368 1.4242 6.7723 3.4505 8.8621 0.8506 0.8772 1.2012 1.4452 1.1434 1.8521-0.1191 0.83713-1.1944 0.88019-2.3431 0.0938zm37.89-0.0806c-0.1838-0.32847 0.1852-1.3264 1.4432-3.9026 2.0818-4.2634 2.7462-7.1129 2.7462-11.778v-3.0989l-1.1877-2.4403c-1.4535-2.9863-3.0885-4.6553-5.9359-6.0592-2.08-1.0255-2.5801-1.7216-1.8601-2.5891 0.9284-1.1187 3.8535 0.21892 6.6212 3.0278 1.6179 1.642 2.2984 2.596 3.323 4.6583l1.2885 2.5935 0.086 3.5187c0.1233 5.025-0.614 8.5516-2.6332 12.595-1.6451 3.294-3.2106 4.6919-3.8916 3.475zm-5.4238-3.7038c-0.367-0.36696-0.1343-0.95561 1.2837-3.248 0.803-1.2982 1.6934-2.8745 1.9785-3.5029 1.0063-2.2173 0.5286-5.5662-1.203-8.4324-0.9289-1.5377-3.3786-3.975-4.91-4.8851-1.3715-0.81504-1.3012-2.5094 0.104-2.5094 0.836 0 2.9395 1.4761 4.49 3.1509 3.5746 3.8609 5.0149 9.1621 3.6169 13.312-0.5451 1.6181-2.5062 4.9409-3.4397 5.8282-0.4841 0.46008-1.5829 0.62409-1.9204 0.28663zm-28.616-0.66201c-1.8204-1.432-2.9529-5.6822-2.7016-10.14 0.2425-4.3027 1.015-6.4024 3.6331-9.8743 1.0863-1.4405 2.1388-1.7744 2.6402-0.83757 0.3237 0.60493 0.1713 0.89057-1.9728 3.6984-0.9867 1.2921-1.5949 2.9407-2.001 5.424-0.5961 3.6453-0.1066 6.8939 1.4087 9.3489 1.161 1.881 1.2877 2.9543 0.3487 2.9543-0.3442 0-0.954-0.25822-1.3553-0.57382zm5.6194-4.6791c-2.2288-2.4671-1.9956-7.587 0.5111-11.217 0.7071-1.0241 1.5374-1.285 2.1477-0.67469 0.4852 0.48525 0.3814 1.2187-0.3041 2.1476-1.4764 2.0006-2.0051 5.7185-1.0605 7.4568 1.0609 1.9522 1.18 2.276 1.0212 2.7762-0.2749 0.86612-1.2839 0.65323-2.3154-0.48854zm17.043 0.57823c-0.1757-0.31385-0.027-0.95942 0.516-2.2345 1.2476-2.9319 0.8658-5.2656-1.2457-7.6141-1.5581-1.7329-1.543-2.9392 0.037-2.9392 0.5689 0 2.1299 1.4912 2.8504 2.723 0.7793 1.3324 1.5028 3.6613 1.5028 4.8378 0 1.1944-0.9511 4.1378-1.6061 4.9704-0.6247 0.7942-1.6796 0.92597-2.0542 0.25658zm363.6-0.73001c-0.4227-1.1016 0.019-1.5832 3.2043-3.4929 1.7462-1.047 3.7485-2.0469 4.4494-2.2222 0.97-0.2425 1.4124-0.52951 1.8521-1.2017 0.7736-1.1827 2.043-1.8404 4.3229-2.2395 2.1853-0.38261 2.737-0.25641 2.737 0.62612 0 0.50269-0.2344 0.72336-1.1333 1.0666-0.6233 0.23805-1.3795 0.43282-1.6803 0.43282-1.0266 0-2.1401 0.55455-2.4414 1.2158-0.2093 0.45947-0.986 0.97537-2.5534 1.6961-1.239 0.56968-3.3694 1.8144-4.7344 2.7661-2.4726 1.7239-3.7195 2.1432-4.0229 1.3527zm-373.92-0.60073c-1.6207-0.57289-3.3811-2.3287-3.6206-3.6112-0.4033-2.1601 0.9392-4.2573 3.5827-5.5969 3.2411-1.6424 6.2226-0.20973 6.8826 3.3073 0.5326 2.8381-0.2631 4.9549-2.1918 5.8304-1.3314 0.60439-3.0678 0.63066-4.6529 0.0704zm364.76-11.478c-0.6432-0.3746-0.5784-1.3668 0.1323-2.0274 0.6031-0.56057 7.3567-4.3432 9.9291-5.5611 1.5601-0.7387 1.7648-1.0072 2.0419-2.6787 0.2647-1.5971 1.41-2.7089 3.7056-3.5971 1.0186-0.39412 2.5092-1.122 3.3125-1.6176 1.5575-0.96096 3.0044-1.1843 3.2654-0.50414 0.2087 0.54384-0.01 1.02-0.609 1.3285-0.2768 0.14245-1.0498 0.72096-1.7179 1.2856-0.9659 0.81643-1.6574 1.1297-3.378 1.5304-1.1899 0.27706-2.3036 0.62007-2.4749 0.76222-0.1712 0.14216-0.3849 0.795-0.4748 1.4508-0.3013 2.1978-0.6511 2.5533-4.4357 4.506-1.9194 0.99036-4.5731 2.6105-5.8971 3.6003-2.5341 1.8945-2.6622 1.9518-3.3994 1.5224zm-13.796-12.039c-0.088-0.23019-0.1606-0.64212-0.1606-0.91541 0-0.94487 3.4194-11.177 4.0573-12.141 0.5649-0.85366 1.547-1.4706 3.1191-1.9595 0.3919-0.12185 0.3868-0.25731-0.058-1.5438-0.2678-0.77562-0.4897-1.7079-0.4931-2.0717-0.012-1.2762 1.1922-3.313 2.6745-4.5248 0.7829-0.64006 2.3602-2.146 3.5051-3.3466 2.0406-2.1399 2.9191-2.6185 3.2454-1.7681 0.088 0.2281 0 0.705-0.1861 1.0598-0.6792 1.269-3.5481 4.3637-4.9236 5.3111-1.7303 1.1917-2.0794 2.072-1.829 4.6128 0.22 2.2329 0.084 2.521-2.2405 4.7412-2.0128 1.9227-2.0705 2.0568-3.8533 8.9648-0.5025 1.9474-0.9776 3.6441-1.0556 3.7703-0.2474 0.40037-1.6316 0.25518-1.8021-0.18903zm-199.79-0.91173c-3.4358-0.20352-4.2143-0.40777-5.0271-1.3189-0.291-0.32625-1.3923-0.98798-2.4474-1.4705-1.2114-0.55408-1.9182-1.0327-1.9182-1.2989 0-0.23183-0.5953-1.1982-1.3229-2.1475s-1.3229-1.825-1.3229-1.946c0-0.12098-0.4677-0.78589-1.0393-1.4776-0.5715-0.69169-1.1119-1.5679-1.2008-1.947-0.089-0.37918-1.1582-2.773-2.3763-5.3196-1.9215-4.0169-2.3455-5.1734-3.2007-8.7312l-0.9859-4.101 0.1541-5.8208c0.1692-6.3914 0.4815-9.2312 1.2805-11.642 0.8959-2.7029 2.9835-6.8082 4.2549-8.3674 0.6675-0.81855 1.4015-1.8306 1.6312-2.249 0.7242-1.3192 2.097-2.6499 3.4666-3.3604 1.3729-0.71215 4.0382-1.5014 5.0705-1.5014 0.3266 0 1.689-0.35501 3.0276-0.7889 4.6349-1.5023 11.792-2.0518 15.763-1.2102 2.2955 0.48652 7.0572 2.0312 8.4468 2.7401 1.1878 0.60601 3.4515 2.3647 5.6625 4.3994 0.802 0.73803 2.1885 1.8976 3.0812 2.5769 1.8957 1.4425 3.0412 3 3.9161 5.3244 0.3458 0.91856 0.8686 2.0806 1.1619 2.5824 1.3064 2.2349 1.7039 3.7505 1.9397 7.3946 0.5445 8.4135 0.5441 8.3778 0.1021 10.321-0.64 2.8141-3.2398 8.3479-5.6477 12.022-0.6729 1.0267-1.4951 2.4398-1.8271 3.1402-1.0079 2.1262-2.1616 3.5054-4.4483 5.3176-3.2825 2.6013-9.1002 6.1664-11.986 7.3453-4.4172 1.8042-6.2719 2.0045-14.208 1.5344zm13.382-7.9353c4.9307-1.2589 6.8732-2.3189 10.868-5.9303 4.0346-3.6478 7.6288-9.1472 8.6576-13.247 0.7328-2.9199 1.1513-8.786 0.9345-13.097-0.1616-3.2128-0.2566-3.7256-0.9448-5.1011-1.0107-2.0201-2.2218-3.32-4.7324-5.0793-1.1394-0.79834-2.8226-2.1229-3.7407-2.9434-3.4032-3.0417-4.7409-3.8195-7.4815-4.3503-1.3681-0.26497-3.6021-0.8388-4.9644-1.2752-6.3704-2.0406-8.2854-2.1374-11.448-0.57895-3.1036 1.5293-4.9291 2.9982-7.2415 5.8269-2.8691 3.5095-3.8974 5.1064-6.2238 9.6648-2.4697 4.8391-3.0731 6.9948-3.0666 10.956 0.01 3.4755 0.37 5.212 2.1142 10.078 2.4784 6.9141 4.0806 9.632 7.0911 12.028 1.9121 1.522 3.0398 2.0401 6.0263 2.7687 4.7912 1.1688 10.246 1.2764 14.153 0.27901zm-8.7542-19.111c-0.5925-0.97187-0.6955-3.2024-0.2716-5.887 0.4056-2.5688 1.0226-9.5011 1.201-13.494l0.1656-3.7042-0.8894 0.8599c-0.9579 0.92622-1.795 1.0948-2.3165 0.46646-0.5434-0.65476-0.096-1.5538 1.5583-3.1318 1.7181-1.6388 2.5287-1.8632 3.9933-1.1059 1.0179 0.52637 2.7914 4.0223 2.5429 5.0125-0.2624 1.0453-1.295 0.91089-2.0205-0.263-0.3195-0.51698-0.6187-0.90224-0.6648-0.85614-0.046 0.0461-0.2065 1.9276-0.3566 4.1811-0.15 2.2535-0.4741 5.8832-0.7202 8.066-0.5356 4.7496-0.6087 7.3213-0.2119 7.4572 0.5301 0.18163 3.0333-2.0814 4.647-4.2013 0.88-1.156 2.6004-2.9493 3.8232-3.985 1.2227-1.0358 2.2231-1.9769 2.2231-2.0914s0.6235-0.62804 1.3855-1.1412l1.3856-0.93307h-1.1159c-0.9712 0-1.1376-0.0862-1.2828-0.6649-0.3113-1.2402 0.1934-1.4518 3.4641-1.4518 3.445 0 3.8749 0.21258 3.3792 1.6711-0.1575 0.46336-0.3678 1.3187-0.4674 1.9008-0.2222 1.2988-0.5474 1.7198-1.3284 1.7198-0.6484 0-0.9979-0.55259-0.7531-1.1906 0.2616-0.68162-0.1861-0.44913-2.3944 1.2433-3.8779 2.9721-4.9055 3.9583-8.1094 7.7826-1.7438 2.0816-3.4326 3.9682-3.7528 4.1924-0.3201 0.22426-1.0336 0.40774-1.5854 0.40774-0.8481 0-1.0845-0.1331-1.5277-0.8599zm-22.835-13.742c-0.085-0.21106-0.1471-0.14837-0.1598 0.15986-0.011 0.27891 0.051 0.43518 0.1389 0.34726 0.088-0.0879 0.097-0.31612 0.021-0.50712zm197.98 39.331c-0.2545-0.30674-0.2941-1.2036-0.1621-3.6728 0.4502-8.4212 1.0881-9.9559 5.0965-12.261 0.9283-0.53392 1.7543-1.1804 1.8356-1.4366 0.083-0.25998-0.4077-1.7257-1.1094-3.317-1.0142-2.3-1.2775-3.2093-1.3616-4.7033-0.097-1.7218-0.048-1.9291 0.6929-2.9471 0.4384-0.60229 1.6917-1.7135 2.7851-2.4694 1.0934-0.75587 2.191-1.6841 2.4391-2.0628 0.2568-0.3919 0.5407-1.5766 0.659-2.7501 0.2635-2.6139 1.3391-4.7196 2.4109-4.7196 0.7942 0 0.8285 0.62758 0.1396 2.5582-0.3548 0.99408-0.7274 2.4498-0.8281 3.2349-0.2787 2.1738-0.9869 3.2834-3.1347 4.9114-3.7255 2.8239-4.0236 4.2449-1.7836 8.5011 1.1616 2.2072 1.3556 2.7751 1.2406 3.6322-0.1621 1.209-0.6958 1.8526-2.2974 2.7707-2.0537 1.1772-3.2346 2.2396-3.7272 3.3531-0.6134 1.3869-1.118 6.352-0.8916 8.7732 0.1152 1.2311 0.072 2.0789-0.1255 2.4474-0.3546 0.66253-1.3872 0.74938-1.8781 0.15794zm-13.839-0.56429c-0.097-0.097-0.1769-0.66256-0.1774-1.2568 0-1.2868-0.6711-2.4786-1.9352-3.4428-0.5075-0.38714-0.9933-0.98491-1.0795-1.3284-0.087-0.34499 0.1387-1.6441 0.5034-2.9026 0.9018-3.112 0.8833-4.6137-0.067-5.4797-0.4002-0.36452-1.0534-0.86471-1.4515-1.1115-1.2802-0.79355-1.6221-1.632-1.7881-4.3846-0.1523-2.5246-0.1653-2.564-1.5328-4.647-0.7586-1.1555-1.3792-2.2909-1.3792-2.5232 0-0.60123 0.535-1.0574 1.2402-1.0574 0.6565 0 1.3237 0.9005 2.9408 3.9688 0.8725 1.6555 0.9009 1.8002 0.7591 3.8707-0.1653 2.4137-0.1435 2.4538 2.1548 3.9472 0.628 0.40807 1.3126 1.0722 1.5214 1.476 0.8362 1.617 0.1079 5.7872-1.2207 6.9896-0.5257 0.47572-0.5175 0.49211 0.8356 1.6758 2.0504 1.7936 2.8332 3.9787 2.0451 5.7085-0.2899 0.63615-0.9794 0.8868-1.3686 0.49752zm-469.94-2.2122c-3.4715-0.20563-4.1919-0.40116-5.108-1.3864-0.3355-0.36085-1.3475-0.9704-2.2489-1.3546-2.6732-1.1392-3.9461-2.9704-9.0333-12.994-2.5561-5.0368-2.7346-5.4988-3.7059-9.5918l-1.0205-4.3002 0.1602-5.754c0.1766-6.3444 0.4915-9.1814 1.2849-11.575 0.8416-2.5392 2.9603-6.7644 4.1253-8.2271 0.5905-0.74136 1.3132-1.8129 1.606-2.3812 1.1361-2.2053 3.4673-3.7001 7.1933-4.6124 1.2369-0.30285 3.3205-0.90241 4.6302-1.3324 4.5755-1.502 11.656-2.0266 15.792-1.17 2.8228 0.58476 7.9018 2.6542 10.206 4.1588 1.8005 1.1754 3.0892 2.2836 8.0178 6.8952 0.8176 0.76504 1.7495 1.9655 2.0962 2.7003 0.3433 0.72761 1.1327 2.2159 1.7542 3.3073 1.7538 3.0799 2.2558 4.8933 2.2267 8.0445-0.014 1.4691 0.054 3.984 0.1504 5.5885 0.1358 2.2647 0.077 3.3492-0.264 4.8475-0.6456 2.8385-3.2121 8.3199-5.6486 12.064-0.6681 1.0267-1.617 2.6653-2.1088 3.6414-0.4918 0.97609-1.3944 2.2865-2.0059 2.912-1.3189 1.3492-4.9806 4.1382-6.7409 5.1343-0.6876 0.38908-1.9784 1.1699-2.8684 1.7351-2.0602 1.3082-6.3174 3.0516-8.6502 3.5423-1.8833 0.39617-4.4886 0.42468-9.8398 0.1077zm13.117-7.6707c4.9307-1.2589 6.8731-2.3189 10.868-5.9303 4.0346-3.6478 7.6288-9.1472 8.6576-13.247 0.7328-2.9199 1.1513-8.786 0.9345-13.097-0.1616-3.2128-0.2566-3.7256-0.9448-5.1011-1.0107-2.0201-2.2218-3.32-4.7325-5.0793-1.1393-0.79834-2.8226-2.1229-3.7406-2.9434-3.4032-3.0417-4.7409-3.8195-7.4815-4.3503-1.3682-0.26497-3.6022-0.8388-4.9644-1.2752-6.3704-2.0406-8.2854-2.1374-11.448-0.57895-3.1036 1.5293-4.9291 2.9982-7.2416 5.8269-2.8734 3.5149-3.9001 5.1113-6.2159 9.6648-2.4712 4.859-3.0808 7.0315-3.0744 10.956 0.01 3.4755 0.37 5.212 2.1142 10.078 2.4783 6.9141 4.0806 9.632 7.0911 12.028 1.9121 1.522 3.0398 2.0401 6.0263 2.7687 4.7912 1.1688 10.246 1.2764 14.153 0.27901zm-8.7542-19.376c-0.5926-0.97188-0.6955-3.2024-0.2716-5.887 0.3847-2.4366 1.016-9.4137 1.1833-13.077l0.15-3.2875-0.6126 0.57554c-0.711 0.66793-1.5642 0.74443-2.0309 0.18209-0.5434-0.65476-0.096-1.5538 1.5584-3.1318 1.7181-1.6388 2.5287-1.8632 3.9933-1.1059 1.0179 0.52636 2.7913 4.0223 2.5428 5.0125-0.2709 1.0795-1.2647 0.90016-2.1128-0.38137-0.8197-1.2388-1.2171-1.3452-1.2344-0.33073-0.031 1.8166-0.5143 7.7194-0.9477 11.576-0.5506 4.8996-0.6182 7.3198-0.2083 7.4585 0.5312 0.17961 3.0347-2.0845 4.6471-4.2026 0.88-1.156 2.6004-2.9493 3.8231-3.985 1.2228-1.0358 2.2232-1.9769 2.2232-2.0914s0.6235-0.62804 1.3855-1.1412l1.3856-0.93307h-1.116c-0.9711 0-1.1375-0.0862-1.2827-0.6649-0.3113-1.2403 0.1934-1.4518 3.4641-1.4518 3.445 0 3.8749 0.21258 3.3792 1.6711-0.1575 0.46337-0.3678 1.3187-0.4674 1.9008-0.2222 1.2988-0.5474 1.7198-1.3284 1.7198-0.6484 0-0.9979-0.55259-0.7531-1.1906 0.2616-0.68162-0.1862-0.44913-2.3944 1.2433-3.878 2.9721-4.9056 3.9583-8.1094 7.7825-1.7439 2.0816-3.4326 3.9682-3.7528 4.1925s-1.0336 0.40773-1.5855 0.40773c-0.848 0-1.0845-0.13309-1.5276-0.85989zm-22.826-13.093c-0.061-0.40218-0.1122-0.13593-0.1142 0.59167 0 0.72761 0.048 1.0567 0.1106 0.73125 0.063-0.32542 0.064-0.92074 0-1.3229zm414.67 39.743c-0.3763-0.45342-0.2013-4.3878 0.3035-6.8233 0.5917-2.8546 2.2575-4.6757 4.2787-4.6777 2.3099-2e-3 3.0632 2.4648 1.4817 4.8526-0.9759 1.4733-0.9126 2.0128 0.4245 3.6131 1.3728 1.6432 1.5524 2.9104 0.4124 2.9104-0.906 0-3.7574-3.3071-4.1143-4.7717-0.1247-0.51187 0.091-1.0444 0.9087-2.249 0.5897-0.86805 1.0724-1.7271 1.0728-1.909 1e-3 -0.52414-0.6512-0.38534-1.2431 0.26458-1.0419 1.1439-1.236 1.8755-1.3509 5.0932-0.062 1.7462-0.2227 3.3834-0.3562 3.638-0.2992 0.57062-1.3645 0.60504-1.8178 0.0587zm13.368 0.28654c-0.1456-0.0553-0.6007-0.17495-1.0115-0.26587-1.0238-0.22661-1.6384-1.7243-2.0414-4.9747-0.4636-3.7393-0.2782-5.3234 0.7426-6.3442 0.7899-0.78996 0.9144-0.82244 3.6121-0.94242 2.0081-0.0893 2.9063-0.031 3.1935 0.20729 0.4531 0.3761 0.5362 1.4739 0.1304 1.7247-0.1479 0.0914-1.3205 0.18796-2.6057 0.21449-2.6814 0.0553-3.2107 0.33018-3.2107 1.6672v0.89364h1.3403c1.6495 0 2.3639 0.35409 2.3639 1.1716 0 0.7544-0.4314 0.94504-2.1383 0.94504-1.1318 0-1.3013 0.0701-1.3013 0.53766 0 1.854 1.2738 2.898 3.5452 2.9055 1.7249 6e-3 2.2756 0.23803 2.2756 0.95984 0 0.42133-0.206 0.71549-0.6083 0.86843-0.6909 0.26269-3.8848 0.5843-4.2864 0.43164zm-58.454-1.0068c-0.6507-2.2223-0.9418-10.28-0.3951-10.939 0.4534-0.54632 1.5032-0.45626 1.8315 0.15712 0.2411 0.45068 0.5539 0.52917 2.1087 0.52917 2.1479 0 3.1829 0.32482 3.1829 0.99887 0 0.90769-0.557 1.1178-2.9633 1.1178-2.5775 0-2.4886-0.079-2.1585 1.9182l0.164 0.99219h2.1971c2.6982 0 3.6244 0.29668 3.5067 1.1232-0.103 0.72292-0.8595 0.91845-3.7225 0.96215l-2.0506 0.0313v1.3013c0 0.7157-0.072 1.4896-0.1606 1.7198-0.1901 0.49544-1.4007 0.56444-1.5403 0.0878zm35.541-0.23381c-1.1574-0.67123-1.6707-1.5065-2.0594-3.3511-0.3948-1.8735-0.3818-5.1526 0.022-5.5564 0.4692-0.46911 1.4804-0.38543 1.7585 0.14552 0.1334 0.25466 0.2933 1.5649 0.3554 2.9116 0.1396 3.0247 0.6424 3.9196 2.1749 3.8706 1.8078-0.0577 2.8021-1.6284 2.8021-4.4263 0-1.7634 0.392-2.5006 1.1708-2.2018 0.8209 0.31501 1.2316 3.7675 0.6831 5.742-0.1429 0.51442-0.7078 1.3618-1.2553 1.8832-1.6884 1.6076-3.9088 1.9937-5.6521 0.98262zm-21.575-0.47354c-2.3461-0.58223-3.8796-2.6285-4.2256-5.6384-0.1961-1.7062 0.098-2.3194 1.1112-2.3194 0.8052 0 1.1676 0.71536 1.1676 2.305 0 1.6774 0.8064 2.8892 2.35 3.5316 1.3314 0.55402 2.0054-0.24731 2.2857-2.7171 0.2865-2.5255 0.334-2.6325 1.1282-2.5409 0.6299 0.0726 0.7489 0.24077 0.966 1.3655 0.7367 3.8162-1.6328 6.7954-4.7831 6.0136zm9.996-2.3133c-0.1657-0.82463-0.3012-2.5448-0.3012-3.8226v-2.3233l-1.3618-0.08c-1.5393-0.0904-2.1675-0.64934-1.6509-1.469 0.2586-0.41037 0.8684-0.4712 5.3631-0.53491 5.4123-0.0767 6.2123 0.0645 6.0662 1.0711-0.1066 0.73523-0.847 0.92603-3.7202 0.95876l-2.3151 0.0264v3.418c0 1.8799-0.072 3.6063-0.1606 3.8364-0.093 0.2415-0.4689 0.41852-0.8895 0.41852-0.6743 0-0.7515-0.1123-1.03-1.4993zm-295.14 0.83953c-0.6149-0.61484-0.643-8.2174-0.035-9.4983 0.6341-1.3361 1.7674-1.8396 4.4274-1.9668 2.5364-0.12127 3.109 0.0967 3.109 1.1836 0 0.82557-0.8534 1.1517-3.0139 1.1517-1.3893 0-1.7492 0.0987-2.2317 0.61236-0.3164 0.3368-0.5753 0.88794-0.5753 1.2248 0 0.60649 0.022 0.61074 2.3151 0.44154 2.5256-0.18639 3.0694-0.0199 2.9336 0.89849-0.068 0.45815-0.3764 0.68924-1.2799 0.95825-0.6549 0.19497-1.5478 0.35792-1.9844 0.36212-1.7514 0.0168-1.9844 0.21023-1.9844 1.6471 0 1.1565 0.057 1.2958 0.463 1.1223 0.7852-0.33578 1.8799-0.45474 2.5763-0.27996 0.4866 0.12212 0.6649 0.34287 0.6649 0.82328 0 0.36103-0.03 0.66115-0.066 0.66692-0.9088 0.1443-3.918 0.77637-4.3261 0.90869-0.3601 0.11675-0.7096 0.0265-0.9922-0.25608zm-24.508-0.26011c-0.2064-0.24869-0.3766-1.7879-0.4682-4.2333l-0.1438-3.8426h-1.5436c-1.428 0-1.5561-0.0498-1.7105-0.6649-0.3283-1.3082 0.1169-1.4518 4.5043-1.4518 4.2465 0 5.0659 0.20113 4.8742 1.1965-0.1092 0.56673-0.9171 0.85528-2.5027 0.89378l-1.0861 0.0264-0.1896 3.8983c-0.1042 2.1441-0.3146 4.0491-0.4675 4.2333-0.3698 0.44554-0.8688 0.42358-1.2665-0.0557zm11.992-0.86602c-0.2015-0.79621 0.4364-4.9408 1.0994-7.1438 0.3449-1.1459 0.5234-1.3891 1.0198-1.3891 0.331 0 0.9439 0.35719 1.3622 0.79375s0.9521 0.79375 1.1864 0.79375 0.896-0.48135 1.4705-1.0697c1.5529-1.5903 2.2001-1.4141 2.9561 0.80508 0.6293 1.8471 0.7986 4.6995 0.3308 5.5736-0.3087 0.57678-1.0485 0.67101-1.5253 0.19427-0.196-0.19599-0.3205-1.1832-0.3255-2.5797-0.01-1.6661-0.079-2.1402-0.2777-1.7992-0.3464 0.59471-1.6262 1.2568-2.4294 1.2568-0.3435 0-0.8931-0.2501-1.2212-0.55577-0.3281-0.30568-0.6341-0.51404-0.6801-0.46302-0.2155 0.23933-0.6752 3.0253-0.6752 4.0919 0 1.6126-0.3625 2.2185-1.3272 2.2185-0.6292 0-0.8149-0.14019-0.9636-0.7276zm-3.9194-1.3768c-0.086-0.13879-0.23-1.8013-0.3206-3.6945-0.1784-3.73-0.039-4.2552 1.1299-4.2552 1.0527 0 1.2416 0.79198 1.0333 4.333-0.1038 1.7642-0.3093 3.3565-0.4565 3.5384-0.3161 0.39039-1.1636 0.43832-1.3861 0.0784zm-2.5784-12.001c-0.496-0.50002-1.1809-1.6899-1.5963-2.773-0.6764-1.7637-0.7276-2.1748-0.7276-5.8428 0-4.1944 0.023-4.2668 1.3352-4.2668 0.838 0 1.0437 0.87713 1.0096 4.3047-0.037 3.75 0.4135 5.6479 1.5548 6.5456l0.6843 0.53826 0.6108-0.57381c0.9961-0.9358 1.2475-2.1557 1.0636-5.1611-0.1381-2.2575-0.097-2.7815 0.2463-3.1247 0.4979-0.49783 1.0097-0.52829 1.371-0.0816 0.5276 0.65224 0.9258 3.3357 0.8049 5.4243-0.2139 3.6943-1.8321 5.8866-4.3452 5.8866-0.9421 0-1.2952-0.15374-2.0114-0.87582zm300.51-2.1536c-1.4217-1.5352-2.6921-2.7914-2.8231-2.7914-0.1309 0-0.2381 0.70587-0.2381 1.5686 0 2.0738-0.6296 2.7898-1.8695 2.1262-0.6494-0.34757-0.6819-1.9164-0.093-4.5048 0.3738-1.6431 0.8422-2.365 1.5347-2.365 0.3188 0 3.5825 2.8203 4.8533 4.194l1.3827 1.4946 0.01-2.3968c0.01-2.5716 0.3236-3.4223 1.2105-3.2515 0.9519 0.18332 1.1989 4.203 0.4284 6.9712-0.3817 1.3713-0.5349 1.5983-1.1246 1.6669-0.5691 0.0662-1.1126-0.38491-3.2675-2.712zm20.66 2.5664c-0.362-0.58667-0.7026-3.7165-0.7026-6.4558v-3.1175l-2.8161-0.0751c-2.3422-0.0625-2.8651-0.153-3.1075-0.53812-0.2122-0.33717-0.212-0.58887 5e-4 -0.92604 0.2608-0.41376 0.8972-0.4706 5.9823-0.53423 5.1241-0.0641 5.7484-0.0244 6.2715 0.39919 1.0596 0.85802 0.4935 1.3372-1.8179 1.5388l-2.0576 0.17949-0.1754 2.714c-0.097 1.4927-0.098 3.3743 0 4.1814 0.2364 2.0108 0 2.8323-0.8109 2.8323-0.3524 0-0.6959-0.0893-0.7632-0.19844zm-332.87-0.39688c-0.3657-1.2034-0.7002-4.0167-0.8496-7.1438-0.1317-2.7578-0.2586-3.638-0.5245-3.638-0.193 0-0.4306-0.31774-0.5281-0.7061-0.1303-0.51919-0.044-0.82026 0.3257-1.1374 0.2766-0.23721 0.634-0.66361 0.7942-0.94754 0.1602-0.28394 0.6066-0.55392 0.9921-0.59996 0.539-0.0644 0.757 0.0642 0.9445 0.55732 0.2216 0.58296 0.4641 0.66563 2.6774 0.91274 2.7871 0.31117 3.462 0.79195 2.4842 1.7698-0.2825 0.28246-0.9082 0.41578-1.9513 0.41578-0.8446 0-1.9076 0.0744-2.3624 0.16536-0.7903 0.15807-0.8268 0.22225-0.8268 1.4552v1.2898h2.7275c2.9135 0 3.7594 0.28435 3.5823 1.2041-0.1197 0.62122-1.3374 0.87571-4.2939 0.89733l-2.0851 0.0153 0.1695 0.99219c0.44 2.5758 0.4956 4.0325 0.169 4.4261-0.4035 0.48615-1.3052 0.53097-1.4447 0.0718zm347.15-0.76067c-0.091-0.45476-0.1672-1.0798-0.1695-1.3891-0.01-1.1208-0.348-1.3145-1.7513-0.99756-0.708 0.15989-1.593 0.34982-1.9665 0.42206-0.5244 0.1014-0.7355 0.35915-0.9261 1.1306-0.2023 0.81902-0.3781 1.0144-0.9744 1.083-0.4002 0.0461-0.7374-0.0135-0.7494-0.13229-0.1131-1.1233-0.3476-1.8776-0.7071-2.2749-0.3604-0.39823-0.3787-0.61249-0.1145-1.3429 0.1728-0.478 0.3142-1.6405 0.3142-2.5833 0-1.8385 0.2684-2.3492 1.2343-2.3492 0.8225 0 1.147 0.73907 1.147 2.6124v1.5889l4.2281-0.1002v-2.5268c0-2.683 0.1901-3.1618 1.2368-3.1618 1.0269 0 1.1891 0.78304 1.1134 5.375-0.08 4.8678-0.2038 5.473-1.1173 5.473-0.4995 0-0.6703-0.17642-0.8003-0.82682zm7.8605 0.2808c-1.5558-0.7701-1.9778-1.8088-2.1419-5.2722-0.1072-2.2615-0.048-2.9965 0.2984-3.7273 0.655-1.3803 1.3085-1.659 4.1773-1.7818 2.36-0.10095 2.5764-0.0682 2.8433 0.4305 0.6382 1.1924-0.3631 1.8982-2.703 1.9051-0.7545 2e-3 -1.5029 0.0915-1.663 0.19843-0.4913 0.32808-0.8995 1.3088-0.8995 2.1614v0.81115h1.9671c2.1543 0 3.2512 0.29466 3.4988 0.93985 0.2767 0.72106-0.3049 0.95539-2.8167 1.135l-2.4351 0.17411 0.6009 0.76228c0.5866 0.74415 0.6465 0.75883 2.5182 0.61727 2.0983-0.15869 2.8802 0.13508 2.7129 1.0192-0.076 0.40305-0.4615 0.57583-1.8147 0.81385-2.4905 0.43809-2.9198 0.41874-4.143-0.18673zm-332.59-0.72338c-0.4217-0.268-1.1058-4.2624-1.3157-7.6816l-0.1678-2.7332-1.2152 0.0554c-1.9199 0.0875-2.1209 0.0282-2.2981-0.67778-0.327-1.3027 0.1248-1.4518 4.4008-1.4518 2.1531 0 4.1031 0.0723 4.3333 0.16059 0.458 0.17577 0.5738 1.2997 0.1602 1.5553-0.142 0.0878-0.8746 0.23262-1.6278 0.32183l-1.3696 0.16221 0.1716 4.9336c0.1276 3.6719 0.091 5.0145-0.1449 5.25-0.3675 0.36748-0.4921 0.38165-0.9268 0.10536zm12.88-0.72285c-0.4582-0.55207-0.1754-5.8449 0.4165-7.7973 0.5512-1.8177 2.1154-3.4396 3.3174-3.4396 1.2305 0 2.0935 1.0276 2.0935 2.4927 0 1.0019-0.1428 1.3366-0.888 2.0818l-0.8881 0.88802 0.848 0.92528c1.1848 1.2928 1.893 3.2125 1.5018 4.071-0.4996 1.0966-1.2215 0.81758-2.0327-0.78591-0.4006-0.79177-1.0697-1.7666-1.4868-2.1662l-0.7584-0.72658v2.015c0 1.479-0.1106 2.1256-0.4158 2.4308-0.5277 0.52777-1.2745 0.5326-1.7074 0.011zm-5.5352-0.182c-0.9877-0.51977-1.5374-1.7041-1.9866-4.2799-0.4316-2.475-0.515-4.0747-0.2486-4.769 0.1925-0.50154 1.5112-0.56273 1.8917-0.0878 0.1458 0.1819 0.3184 1.5809 0.3837 3.1089 0.1179 2.7616 0.4896 4.0938 1.0877 3.899 0.172-0.056 0.4074-0.80741 0.5231-1.6697 0.3767-2.8076 0.5586-3.4096 1.0592-3.5051 0.2616-0.0499 0.6486 0.0527 0.8599 0.22802 0.8346 0.69271 0.2261 6.0116-0.7837 6.8497-0.5796 0.48103-2.0717 0.602-2.7864 0.2259zm273.23-9e-3c-0.5909-0.44621-0.9662-5.0087-0.462-5.6162 0.4941-0.59539 1.5222-0.49987 1.8833 0.17499 0.3608 0.67409 0.1526 4.4145-0.2919 5.2451-0.3285 0.61381-0.53 0.64881-1.1294 0.1962zm-257.96-0.44942c-1.0547-0.83531-1.3383-2.1404-1.2158-5.5958 0.079-2.2221 0.2307-3.2488 0.5765-3.8975 0.633-1.187 2.2194-1.8842 4.3047-1.8916 1.7781-6e-3 2.3162 0.33317 2.1694 1.3687-0.079 0.55466-0.2627 0.62561-2.0329 0.78365-2.156 0.19247-2.3223 0.28575-2.6699 1.4977l-0.2415 0.84205h2.0793c1.5375 0 2.1876 0.10834 2.4951 0.41577 0.4623 0.46232 0.4981 0.64087 0.2133 1.0627-0.2594 0.38411-2.4145 0.90278-3.7512 0.90278-1.166 0-1.3065 0.25724-0.7763 1.421 0.1831 0.40185 0.7937 0.8585 1.5907 1.1897 2.2389 0.93045 1.9507 2.0687-0.5891 2.3266-1.2023 0.12207-1.5463 0.054-2.1523-0.42586zm256.81-10.185c-0.3296-0.85872 0.037-1.2804 1.4195-1.6339 3.6289-0.92762 5.7379-3.0934 5.0333-5.1689-0.3819-1.1248-0.9902-1.4697-3.3794-1.9162-1.237-0.23115-2.5467-0.63807-2.9105-0.90426-1.3612-0.99602-2.0166-3.4808-1.2911-4.8955 0.8972-1.7498 3.7698-3.5002 5.4321-3.31 0.6039 0.0691 0.7708 0.2341 0.8391 0.82985 0.1132 0.98767-0.2532 1.3725-1.6903 1.7748-3.6676 1.0269-3.2917 3.3953 0.6914 4.3563 2.7781 0.67027 3.849 1.2702 4.4819 2.511 0.7927 1.5537 0.7101 3.3279-0.2233 4.7998-0.742 1.1699-2.5156 2.6539-4.1917 3.5073-1.1011 0.56058-4.0019 0.59481-4.211 0.0497zm40.587-3.5212c-1.0458-1.1989-1.1233-1.6864-1.2209-7.6811-0.071-4.369-0.013-5.9958 0.2266-6.2839 0.4584-0.55234 1.5124-0.4817 1.836 0.12306 0.3152 0.58898 0.3412 8.6656 0.035 10.82l-0.2006 1.4101 0.8152-0.14625c3.3619-0.60318 4.2194-0.42444 4.0721 0.84882-0.075 0.64883-0.2281 0.73621-1.8018 1.0282-2.408 0.4468-3.2921 0.41878-3.7614-0.11922zm-24.909-0.66776c-0.401-0.29321-0.4818-1.0155-0.621-5.5562l-0.1601-5.2192h-1.6461c-1.1163 0-1.7488-0.12366-1.965-0.38417-0.3968-0.47805-0.2715-1.2113 0.254-1.4873 0.2183-0.11464 2.515-0.4161 5.1037-0.66992 4.4229-0.43366 4.7338-0.43447 5.1549-0.0134 0.7797 0.77973 0.112 1.316-2.2174 1.781l-2.0881 0.4168-0.1673 2.6259c-0.092 1.4442-0.1814 3.7946-0.1985 5.223-0.029 2.4147-0.2898 3.6206-0.7835 3.6206-0.1126 0-0.4121-0.15166-0.6656-0.33703zm16.828-0.0681c-1.3179-0.9291-1.4942-1.7357-1.6045-7.3396-0.076-3.8736-0.019-5.3327 0.2217-5.6224 0.3959-0.47702 1.4722-0.5139 1.7656-0.0605 0.1177 0.1819 0.2141 2.4192 0.2141 4.9717 0 5.99-0.06 5.8801 3.6547 6.7188 0.6219 0.14044 0.7306 0.28612 0.6614 0.88643-0.082 0.70751-0.1148 0.7195-2.1995 0.79233-1.5998 0.0559-2.2624-0.0288-2.7135-0.34679zm-7.7633-0.28741c-0.5012-0.60393-0.7138-10.509-0.2378-11.083 0.387-0.46631 1.4751-0.52539 1.7414-0.0946 0.2804 0.45376 0.1166 10.569-0.1802 11.123-0.3192 0.59641-0.8551 0.61827-1.3234 0.054zm-324.62-3.1941c-0.9792-0.50654-1.3278-1.3843-0.7403-1.8643 0.2324-0.18986 0.8404-0.2018 1.8801-0.0369 1.625 0.25768 3.3302-0.0232 3.8352-0.63174 0.1508-0.18167 0.35-0.63245 0.4427-1.0017 0.2754-1.0972-0.644-1.9526-3.104-2.8879-3.8142-1.4503-5.227-2.7784-5.2173-4.9043 0.014-3.1544 2.6862-5.3699 6.7841-5.6256 2.4043-0.15 2.9987 0.0768 2.9987 1.1444 0 0.8365-0.298 0.96742-2.6788 1.1767-2.2823 0.20067-3.5746 0.91248-4.3385 2.3898-0.8459 1.6357-0.069 2.5696 3.3958 4.0814 1.2824 0.55958 2.6695 1.333 3.0824 1.7187 1.2832 1.1987 1.496 2.9839 0.5633 4.7266-0.8783 1.6411-5.045 2.6761-6.9034 1.7148zm35.454-0.53291c-0.7666-0.27894-1.8521-1.5065-1.8521-2.0944 0-0.77701 0.8222-1.0288 1.7727-0.543 1.4221 0.72682 2.3759 0.79171 2.9659 0.20176 1.3105-1.3106 0.9123-2.9658-1.0534-4.378-1.5867-1.1399-2.127-1.9439-2.2924-3.4112-0.149-1.3224 0.3446-2.4814 1.4157-3.324 0.5392-0.42411 1.0802-0.55252 2.3277-0.55252 2.0477 0 2.8664 0.49195 2.75 1.6524-0.1177 1.174-0.7275 1.451-1.9341 0.87841-0.9867-0.46824-0.9917-0.46765-1.6538 0.19442-0.979 0.97897-0.6611 1.809 1.1324 2.9562 1.9245 1.2311 2.5048 2.2135 2.5048 4.2405 0 2.0103-0.6461 3.1469-2.1863 3.846-1.0592 0.48082-3.0289 0.64933-3.8971 0.33341zm-9.9127-1.732c-0.4588-1.4248-0.6706-3.7512-0.6706-7.3643v-4.2294l-1.7363 0.0641c-1.7904 0.0661-2.2192-0.15288-2.2284-1.138-0.01-0.99562 0.5978-1.0969 5.3813-0.89762 2.5257 0.10522 4.7402 0.28279 4.9211 0.39461 0.1809 0.11181 0.2866 0.42715 0.235 0.70076-0.077 0.40951-0.4544 0.53957-2.1325 0.73564l-2.0385 0.23817-0.1818 1.2127c-0.1 0.66699-0.1073 3.1878-0.016 5.6018 0.1731 4.5844 0.093 5.0123-0.942 5.0123-0.2665 0-0.5325-0.14883-0.5911-0.33073zm-13.194-0.52711c-0.3678-0.36786-0.7894-1.129-0.9368-1.6914-0.3237-1.2356-1.0917-7.11-1.0917-8.3509 0-1.9727 1.4568-2.8835 4.8998-3.0636 2.647-0.13846 3.245 0.13724 2.9393 1.3551-0.1458 0.58092-0.3192 0.63799-2.3446 0.7714-1.203 0.0792-2.3966 0.22834-2.6525 0.33134-0.6297 0.25343-0.8209 1.1751-0.6039 2.9118l0.1812 1.4504 1.37 4e-3c2.0904 6e-3 2.5607 0.1997 2.5607 1.0573 0 0.84743-0.3783 1.0541-1.9399 1.0598-1.5726 6e-3 -1.7954 0.21167-1.3571 1.2541 0.1986 0.47221 0.3965 0.86753 0.4399 0.8785 0.043 0.011 1.091 0.1598 2.3279 0.33073 2.1372 0.29534 2.253 0.34527 2.3294 1.0046 0.102 0.8788-0.1958 0.993-3.1331 1.2015-2.2329 0.15849-2.3448 0.13962-2.9886-0.50418z"/></g></svg>
