<?xml version="1.0" encoding="UTF-8"?>
<!-- Created with Inkscape (http://www.inkscape.org/) -->
<svg width="456.75mm" height="347.33mm" version="1.1" viewBox="0 0 456.75 347.33" xml:space="preserve" xmlns="http://www.w3.org/2000/svg"><g transform="translate(142.29 -50.331)"><path d="m180.06 397.39c-3.816-0.70926-8.4842-2.5431-10.336-4.0602-2.7667-2.2671-2.9268-5.6794-0.35641-7.5985 0.83107-0.62049 6.5547-3.0734 9.6458-4.1339 1.303-0.447 3.7383-1.0659 5.4118-1.3753 8.3774-1.5488 12.225-3.0308 15.087-5.8104 3.1517-3.0613 3.1308-5.3468-0.17395-19.05-0.27756-1.1509-0.67609-2.1296-0.94883-2.3301-0.50902-0.37423-0.63731-1.5042-0.20136-1.7736 0.14789-0.0914 0.21556-0.25249 0.15038-0.35795-0.0652-0.10547-0.55427-3.1036-1.0869-6.6624s-1.0666-6.59-1.1867-6.7358-0.2209-0.80067-0.22407-1.4552c-3e-3 -0.65455-0.19469-2.083-0.4256-3.1745-0.70181-3.317-4.4169-15.978-4.8264-16.448-0.21097-0.24219-0.35193-0.65891-0.31326-0.92605 0.0387-0.26714-0.18262-1.5573-0.49177-2.867-2.2346-9.4668-0.92768-16.464 4.4725-23.945 3.649-5.0549 5.6247-8.111 9.1515-14.155 5.6182-9.6286 7.3318-12.42 9.6628-15.743 6.213-8.8553 18.74-24.771 22.699-28.84 1.3452-1.3824 3.0962-3.3172 3.8912-4.2995 0.79499-0.98226 1.5213-1.7859 1.6141-1.7859 0.0927 2e-5 0.14385-2.2687 0.11356-5.0417l-0.0551-5.0417-0.85468-1.5068c-0.47007-0.82872-1.7623-2.995-2.8717-4.8141s-3.3978-5.9862-5.0854-9.2604-3.5413-6.8071-4.1194-7.8508c-1.5071-2.7213-2.3009-4.9619-3.3817-9.5456-0.52328-2.2192-1.0437-4.0349-1.1566-4.0349s-1.5277 0.46381-3.1442 1.0307c-3.4074 1.1949-5.7005 2.385-10.183 5.2846-3.328 2.1528-9.1695 5.2116-11.956 6.2604-4.3582 1.6404-10.707 2.5056-18.388 2.5056-6.556 0-9.5331-0.34915-12.833-1.505-6.0367-2.1146-9.6933-3.2946-12.222-3.9438-2.676-0.68718-3.2164-0.73473-8.4159-0.74046-3.0559-3e-3 -6.6874 0.046-8.0698 0.10975-2.9001 0.1337-4.1891-0.29939-5.073-1.7045-0.50646-0.80507-0.54914-2.5396-0.0982-3.9899 0.11052-0.35545-0.13971-0.99912-0.76226-1.9608-1.3116-2.026-1.6147-3.645-1.1171-5.9664 0.27078-1.2632 0.31311-1.9945 0.13473-2.3278-0.50694-0.94721-2.4256-1.3606-8.2288-1.773-2.3459-0.16672-4.324-0.44686-4.9644-0.70309-2.4861-0.99474-2.8412-3.7739-0.68901-5.3928 1.9636-1.4771 5.1941-1.639 15.427-0.77333 7.0903 0.59986 9.4848 0.49123 12.495-0.56686 3.8883-1.3666 5.5361-0.41493 10.065 5.813 1.0866 1.4943 2.3011 2.8851 2.6988 3.0908 1.0218 0.52841 2.4962 0.46838 6.8593-0.27925 2.0966-0.35926 5.1812-0.77928 6.8547-0.93338 1.6735-0.1541 3.2213-0.33015 3.4396-0.39121 0.51173-0.14316 9.5101-0.85777 13.626-1.0821 2.023-0.11026 3.463-0.32044 3.9688-0.57926 1.0898-0.5577 11.374-10.888 14.535-14.601 2.1054-2.4727 2.8447-3.5866 4.0389-6.0854 2.7859-5.8294 5.2879-8.9094 9.4386-11.619 3.4684-2.2642 8.0503-3.71 11.832-3.7336 1.4782-9e-3 1.4797-0.0101 1.7744-1.0014 0.16222-0.54571 0.37488-1.4982 0.47258-2.1167l0.17762-1.1245-1.1583-5e-3c-1.8293-7e-3 -4.716-0.71384-6.5047-1.5922-2.0385-1.001-4.8033-3.9192-5.882-6.2085-0.97077-2.0601-2.6642-8.3845-2.6631-9.946 7.9e-4 -1.1622 0.26456-2.2154 1.1679-4.6632 0.37307-1.011 0.3721-1.4789-0.0104-4.9958-0.63297-5.8205-0.0105-8.026 3.2422-11.487 2.1734-2.3128 4.9112-4.1688 7.7834-5.2764 3.102-1.1962 4.5566-1.5165 8.4694-1.8648 6.1941-0.55138 9.2557 0.11673 11.946 2.6068 3.2354 2.9948 5.4305 6.5958 6.5762 10.788 0.48141 1.7614 0.60329 3.1915 0.78653 9.2282 0.24171 7.9627 0.49193 9.6454 1.996 13.423 2.0052 5.036 4.0196 8.1958 7.7681 12.185 3.7668 4.0089 7.3122 6.1945 15.362 9.4702 7.252 2.9511 9.2021 5.084 12.439 13.605 0.88445 2.3283 2.1263 5.6026 2.7596 7.276 0.63332 1.6735 1.713 4.8286 2.3992 7.0115s1.4769 4.4188 1.7569 4.9688c0.49981 0.98179 2.896 6.74 5.645 13.566 0.76495 1.8993 2.2067 5.9474 3.2038 8.9958 1.6612 5.0784 1.8132 5.731 1.8156 7.7916 2e-3 1.9805-0.0981 2.4627-0.84098 4.0401-1.0692 2.2701-2.6446 4.317-5.1637 6.709-4.2708 4.0554-8.8459 6.3574-17.002 8.5544-1.7462 0.4704-3.5518 0.96888-4.0124 1.1077l-0.8374 0.25244 1.6821 2.774c1.6545 2.7284 4.0336 8.3179 4.7699 11.207 0.60306 2.3657 1.1559 7.8977 1.3336 13.345 0.14857 4.5549 0.10784 5.3376-0.40789 7.8383-0.63171 3.0631-0.86811 3.6403-5.6349 13.758-1.8168 3.8563-4.0954 9.0741-5.0636 11.595-1.9424 5.0575-2.1697 5.5416-4.1024 8.7398-3.8087 6.3026-3.5407 8.3773 2.8072 21.734 1.9711 4.1474 3.9783 8.3145 4.4604 9.2604 1.2058 2.3655 2.1243 5.718 2.7414 10.006 1.1663 8.1039 1.2908 14.771 0.38405 20.553-1.1062 7.0544-1.1986 8.2286-1.405 17.859-0.22948 10.706-0.28537 11.122-1.7834 13.287-0.76938 1.1118-2.7242 2.4487-3.9572 2.7063-1.5078 0.31503-3.1834-0.34506-5.4851-2.161-2.8812-2.273-6.0422-3.96-9.0934-4.8532-1.3803-0.40404-3.123-0.99728-3.8726-1.3183-3.0208-1.2936-7.148-4.4862-8.3832-6.4847-1.3558-2.1937-1.1978-5.9428 0.3235-7.6754 1.7376-1.979 4.9745-2.1528 11.713-0.62919 2.0843 0.4713 3.9812 0.7834 4.2154 0.69355 0.54232-0.20811 0.54695-1.2521 0.0218-4.9085-0.97491-6.7875-3.0551-13.304-6.3466-19.881-2.1365-4.2691-2.9882-6.7189-4.9199-14.152-2.0946-8.0601-2.1324-8.1739-4.0877-12.303-2.6581-5.6134-2.9436-7.4641-1.9828-12.852 0.59759-3.3512 1.3965-9.1887 2.0069-14.664 0.23522-2.1101 0.59791-4.7294 0.80599-5.8208 0.53316-2.7966 0.9734-9.1032 0.76275-10.927l-0.17721-1.5341-0.83244 0.67017c-0.45784 0.36859-2.2612 1.6441-4.0074 2.8344-5.4956 3.7461-8.2476 5.9213-15.346 12.13-1.6007 1.4001-5.5792 4.6721-8.8411 7.2712-3.2619 2.5991-7.268 6.0451-8.9026 7.6577-2.8671 2.8286-2.9939 3.002-3.5943 4.9164-0.55994 1.7852-0.62101 2.4623-0.60855 6.7469 0.0168 5.7716 0.30807 7.1585 3.2228 15.346 2.8773 8.0821 3.7748 12.028 3.7748 16.598 0 1.9619-0.68652 7.1756-1.7339 13.168-1.3696 7.8356-1.4733 20.745-0.22739 28.31 1.2381 7.5186 0.15373 10.485-4.3368 11.864-2.5721 0.78974-4.9815 0.9046-11.92 0.56828-7.0181-0.34016-8.0878-0.23756-13.002 1.2472-5.349 1.616-8.2766 1.9623-11.509 1.3614zm8.2827-2.9999c0.8288-0.23304 1.6468-0.47058 1.8179-0.52786 0.71075-0.23802-1.1524-4.8984-1.9584-4.8984-0.19762 0-1.2175 0.17013-2.2664 0.37807s-2.4429 0.4598-3.0977 0.55969c-0.65485 0.0999-1.2742 0.23087-1.3762 0.29107-0.10208 0.0602 0.29342 1.0694 0.87889 2.2427 0.58547 1.1733 1.0094 2.2768 0.94211 2.4522-0.15761 0.41072 2.8985 0.11024 5.0598-0.49748zm-8.4623-1.2248c-0.49665-0.90508-1.0761-1.7536-1.2877-1.8856-0.26893-0.16772-0.91997 0.0648-2.1628 0.77257-0.97794 0.55689-1.7816 1.0845-1.7859 1.1724-0.0135 0.27393 5.7796 1.8674 6.0424 1.6621 0.0534-0.0417-0.30924-0.81643-0.80589-1.7215zm15.67-0.78727c2.1101-0.46782 2.9872-0.52737 5.61-0.38093 1.7099 0.0955 3.1089 0.10303 3.1089 0.0168 0-0.0862-0.35652-1.0812-0.79227-2.2112-0.53844-1.3962-1.138-2.4036-1.8712-3.1442l-1.079-1.0898-1.7668 0.59396c-0.97173 0.32668-3.0765 0.93245-4.6772 1.3462-1.6007 0.4137-2.9482 0.7794-2.9944 0.81265-0.0462 0.0333 0.22172 0.66366 0.59531 1.4009 0.37359 0.73724 0.67925 1.4557 0.67925 1.5966 0 0.31498 0.4838 1.6135 0.60115 1.6135 0.0468 0 1.2106-0.24953 2.5862-0.55452zm-22.441-0.47195c-0.10114-0.6891 0.0423-0.85701 1.501-1.7574 0.88707-0.54753 1.6128-1.0366 1.6128-1.0869 0-0.0503-0.49006-0.40073-1.089-0.77884-0.59897-0.37812-1.1486-0.91539-1.2215-1.194-0.16021-0.61265-0.15254-0.61215-1.2083-0.0784-1.413 0.71441-2.5666 1.6896-2.5666 2.1698 0 0.69495 1.2642 2.4011 2.2036 2.9739 0.46152 0.28142 0.84828 0.51211 0.85946 0.51266 0.0112 5.4e-4 -0.03-0.34186-0.0915-0.7609zm41.214-0.0509c0.65485-0.14437 1.503-0.38593 1.8847-0.5368l0.69408-0.2743-0.73072-1.9587c-1.369-3.6696-2.9954-5.8599-5.2712-7.0985l-1.3348-0.72647-0.8812 0.67212c-0.48465 0.36967-1.8252 1.1055-2.9789 1.6351-1.1537 0.52963-2.1382 0.99883-2.1877 1.0427-0.0495 0.0438 0.4068 0.73772 1.014 1.542 0.97162 1.2869 2.3833 4.6019 2.3833 5.5967 0 0.19422 0.26789 0.39183 0.59531 0.43913 1.0778 0.15571 5.5988-0.0652 6.813-0.33286zm3.988-9.3459c-0.30153-2.3679-0.62481-6.0813-0.7184-8.2519l-0.17017-3.9466-3.5729 0.1736-0.56615 2.4268c-0.31138 1.3347-0.96854 3.3459-1.4604 4.4692l-0.89421 2.0425 0.81057 0.40436c2.3652 1.1799 4.7048 3.7356 6.082 6.644 0.76689 1.6194 0.87711 1.7453 0.95253 1.0874 0.0469-0.40915-0.16141-2.6813-0.46293-5.0492zm-36.104 4.9766c4.2094-0.62536 4.2063-0.6229 2.336-1.8665-1.2855-0.85476-1.5708-1.1764-1.5623-1.7612 0.0123-0.84302 0.20851-0.87474-4.0453 0.65404-1.6371 0.58836-2.9766 1.1758-2.9766 1.3055s0.10291 0.23573 0.22868 0.23573c0.12578 0 0.75086 0.4106 1.3891 0.91243 0.6382 0.50184 1.3056 0.91856 1.4831 0.92604 0.17749 7e-3 1.5938-0.17522 3.1473-0.40602zm9.9976-1.96c1.2953-0.29693 3.189-0.79313 4.2081-1.1027l1.8529-0.56281-0.90081-0.47993c-0.49544-0.26397-1.3175-0.61902-1.8268-0.78901-1.1631-0.38817-1.8521-0.97981-1.8521-1.5903 0-0.43669-0.14497-0.4229-1.9182 0.18248-1.055 0.36018-2.9898 0.84029-4.2995 1.0669-1.3097 0.22661-2.4336 0.46334-2.4976 0.52607-0.064 0.0627 0.15937 0.30716 0.49635 0.54319 0.33697 0.23602 1.2823 0.98799 2.1007 1.671s1.6666 1.2043 1.8849 1.1584c0.21828-0.0459 1.4567-0.32642 2.752-0.62334zm88.322-6.9132-0.11761-4.398-2.6817-0.7279c-1.475-0.40035-3.2175-0.87592-3.8724-1.0568l-1.1906-0.32892-0.17741 1.3523c-0.1018 0.77598-0.0404 2.0294 0.14402 2.9413l0.32143 1.589 1.818 0.9942c0.99991 0.5468 2.2316 1.3207 2.7371 1.7198 1.4169 1.1186 3.092 2.379 3.1156 2.3443 0.0117-0.0172-0.0317-2.0103-0.0964-4.4292zm-75.891 2.6969c1.2926-0.60227 2.2865-1.1587 2.2087-1.2366-0.0778-0.0778-1.7198-0.65885-3.6488-1.2912l-3.5073-1.1496-4.0359 2.1722 2.2582 1.1123c1.242 0.61177 2.4921 1.2907 2.778 1.5088 0.58995 0.44998 0.57998 0.4528 3.947-1.116zm79.96-0.64641c0.5372-1.1537 0.63206-1.7669 0.63426-4.0995 3e-3 -2.7158-3e-3 -2.7413-0.59273-2.5833-0.32742 0.0877-0.80367 0.16116-1.0583 0.16315-0.41466 3e-3 -0.46272 0.3283-0.46011 3.1125 3e-3 3.4845 0.20318 5.1606 0.58722 4.9233 0.1419-0.0877 0.54226-0.76995 0.88969-1.5161zm-73.481-8.3597 0.4994-1.976-2.0183-0.58369c-1.1101-0.32102-2.5937-0.83083-3.297-1.1329s-1.3715-0.5492-1.4849-0.5492c-0.11338 0-0.28889 0.91302-0.39001 2.0289-0.20916 2.3081-0.60386 3.4142-1.7223 4.8264l-0.78235 0.9878 1.7708 0.57146c0.97394 0.3143 2.4852 0.85459 3.3583 1.2006l1.5875 0.62917 0.98974-2.0133c0.54436-1.1073 1.2145-2.9025 1.4892-3.9893zm58.925 1.7384 0.0203-2.7499-2.2692-0.7145c-1.2481-0.39297-2.4014-0.76694-2.5628-0.83106-0.34492-0.13692-0.80457 1.5171-1.0134 3.6466l-0.14658 1.4948 1.9174 0.68077c1.6004 0.56821 3.3239 1.0983 3.9018 1.2 0.0728 0.0128 0.14141-1.2142 0.15255-2.7266zm-8.3732-2.7218c0.0102-0.46347 0.14099-1.1646 0.29059-1.558 0.14959-0.39346 0.22571-0.76165 0.16916-0.81821-0.15458-0.15457-4.2625-0.84657-4.3755-0.73707-0.0538 0.0522-0.0205 0.50766 0.0742 1.0122 0.12558 0.66937 0.6128 1.3253 1.8026 2.4268 1.7706 1.6393 1.9964 1.6032 2.039-0.32571zm18.631-4.3828c-0.0907-2.5102-0.18269-4.5884-0.20436-4.6182-0.0507-0.0696-3.536 0.40385-4.3188 0.58666-0.3407 0.0796-0.59531 0.33925-0.59531 0.6072 0 0.2575-0.24831 0.93984-0.55179 1.5163-0.7225 1.3724-1.6134 4.4144-1.3637 4.6564 0.22556 0.21858 6.0519 1.7736 6.74 1.7989 0.42452 0.0156 0.44655-0.32507 0.29396-4.5472zm4.882 4.1767c0.092-0.092 0.21447-1.6828 0.27218-3.5351l0.10493-3.3679-1.3516-0.63305c-0.74338-0.34818-1.3991-0.5831-1.4572-0.52204-0.0581 0.0611-0.0409 1.9996 0.0382 4.3078l0.14377 4.1968 1.0412-0.13966c0.57267-0.0768 1.1165-0.21491 1.2084-0.3069zm-14.384-2.7877c0.0826-0.29104 0.21539-0.76011 0.29517-1.0424 0.11741-0.41539-0.0465-0.5664-0.85989-0.79228-1.5336-0.42587-2.0789-0.34606-3.0145 0.44126l-0.85957 0.72327 1.8314 0.58631c2.2816 0.7304 2.4227 0.73493 2.6074 0.0838zm-52.776-10.931c0.18088-1.5735 0.28675-2.901 0.23527-2.9499-0.0515-0.0489-0.92705 0.0732-1.9457 0.2715-1.0186 0.19827-2.3581 0.36487-2.9766 0.37022-0.82768 7e-3 -1.1245 0.11635-1.1245 0.41369 0 0.22218 0.35257 2.2165 0.7835 4.4318s0.86359 4.9453 0.96148 6.0666l0.17797 2.0388 3.2364 0.1558 0.16161-3.9688c0.0889-2.1828 0.30959-5.2562 0.49048-6.8297zm-6.1582 7.9541c-0.1386-2.0942-1.2764-9.1824-1.6351-10.186-0.0727-0.20354-0.61696-0.33073-1.4151-0.33073-0.71332 0-2.6965-0.24303-4.4071-0.54007-1.7106-0.29704-3.1518-0.49847-3.2026-0.44762-0.0508 0.0508 0.48917 1.9355 1.2 4.1882 0.71087 2.2527 1.4218 4.7952 1.5798 5.6501 0.15804 0.85488 0.31756 1.5683 0.3545 1.5854 3.7188 1.722 5.8129 2.4814 6.9201 2.5092l0.7675 0.0193zm52.301 0.63309 0.72426-0.75596-1.2408-0.17008c-2.4236-0.33218-4.506-0.20403-5.1493 0.31689-0.59993 0.48579-0.5957 0.48793 1.7566 0.88762 3.2533 0.55279 3.1026 0.56353 3.9093-0.27847zm22.538-12.214c0.35716-2.2585 0.64938-4.2464 0.64938-4.4175 0-0.21586-0.44275-0.15889-1.4451 0.18598-0.79481 0.27345-1.9946 0.57958-2.6661 0.68029l-1.221 0.1831 0.14251 1.2237c0.0784 0.67303 0.21758 2.8388 0.30934 4.8128l0.16684 3.5891 2.9937 1.3134 0.21052-1.7322c0.11578-0.95272 0.50274-3.5801 0.85989-5.8385zm-8.8229 6.3201 2.3375-0.29977-0.13974-1.2216c-0.0769-0.67188-0.19103-2.5908-0.25372-4.2643-0.0627-1.6735-0.12087-3.1733-0.12929-3.333-9e-3 -0.17991-1.0969-0.35855-2.8596-0.46978-1.5644-0.0987-3.1628-0.24813-3.552-0.33206l-0.70777-0.15259 0.62447 1.9453c0.34345 1.0699 0.89429 3.4038 1.2241 5.1864 0.3298 1.7826 0.71641 3.2412 0.85914 3.2412s1.3114-0.1349 2.597-0.29977zm-68.733-10.085c-1.6606-7.4592-2.2794-10.122-2.3959-10.31-0.0703-0.11372-0.6863-0.20783-1.3689-0.20915-0.68263-1e-3 -2.5424-0.29755-4.1327-0.65829-1.5903-0.36073-2.9141-0.62755-2.9417-0.59291-0.0276 0.0346 0.22486 1.6703 0.56099 3.6348 0.33614 1.9645 0.79686 4.8123 1.0238 6.3283 0.22697 1.516 0.46048 2.8042 0.51893 2.8627 0.39669 0.3967 6.3008 1.49 8.7833 1.6264l0.5559 0.0306zm7.6455 2.2151c0.98564-0.27331 1.8568-0.56163 1.9358-0.64071 0.62942-0.62942 1.6609-13.791 1.123-14.329-0.0906-0.0906-0.98358 0.14497-1.9844 0.5236-2.3914 0.90474-5.7695 1.7095-7.1857 1.7118-0.73241 1e-3 -1.1837 0.13447-1.2768 0.37707-0.0792 0.20636 0.21739 2.2007 0.65906 4.4318 0.44168 2.2311 0.9331 4.8305 1.0921 5.7764 0.46824 2.7863 0.35125 2.6458 2.2033 2.6458 0.90285 0 2.448-0.22361 3.4336-0.49692zm62.832-6.2382c0.0725-2.2232-0.32397-9.6071-0.52669-9.8098-0.53575-0.53575-11.267-0.64994-12.11-0.12886-0.19212 0.11874 0.38881 1.5722 1.6919 4.2332 1.0915 2.2288 2.2489 4.7895 2.572 5.6904l0.58749 1.6381 2.6634 0.41207c1.4649 0.22664 3.1992 0.3946 3.8541 0.37324l1.1906-0.0388zm5.6113 1.1788c1.2369-0.43267 2.2787-0.78826 2.3151-0.79021 0.13554-7e-3 0.0556-5.7415-0.0978-7.0181l-0.15938-1.326-1.7566-0.45958c-0.9661-0.25277-2.2588-0.6024-2.8727-0.77696-0.61388-0.17456-1.1943-0.23922-1.2898-0.14368-0.0955 0.0955 0.0427 2.679 0.30712 5.741 0.40261 4.6618 0.54785 5.5667 0.89297 5.5637 0.22668-2e-3 1.4242-0.35754 2.6611-0.79021zm-78.987-10.903c-0.10344-0.61224-0.71732-2.7851-1.3642-4.8286-1.4588-4.6084-2.5478-9.0511-2.378-9.7006 0.12992-0.49683-0.10105-0.60182-2.5986-1.1812-0.43656-0.10127-2.0941-0.76213-3.6834-1.4686-1.5893-0.70644-2.9395-1.2346-3.0004-1.1737-0.0609 0.0609 0.3945 1.757 1.012 3.769 1.3611 4.4349 2.7074 9.6121 3.1575 12.142l0.33255 1.8692 3.3398 0.70265c3.1841 0.66989 4.2251 0.86638 5.0167 0.94697 0.27157 0.0276 0.3102-0.22316 0.16592-1.0771zm7.6875 0.30132c1.0937-0.28647 2.8078-0.84607 3.8091-1.2436l1.8206-0.72271-0.60523-2.3812c-0.33287-1.3097-1.3924-4.5782-2.3545-7.2633-0.9621-2.6851-1.7493-5.0296-1.7493-5.2099 0-0.6475-0.52326-0.62073-2.4293 0.12426-2.4285 0.94919-3.8485 1.3017-6.0676 1.5064l-1.75 0.16138 0.34318 1.6364c0.18874 0.90003 1.0494 4.1367 1.9127 7.1927s1.6511 5.8984 1.7508 6.3165c0.18095 0.75869 0.18462 0.75991 1.7562 0.58211 0.86616-0.098 2.4697-0.41256 3.5634-0.69903zm73.151-1.5033c-4e-3 -1.5938-1.6003-9.2866-2.0929-10.084-0.18503-0.29939-5.2623-1.5-5.4691-1.2932-0.0498 0.0498 0.0705 0.62531 0.2672 1.279 0.19672 0.65367 0.55448 2.9053 0.795 5.0036 0.24053 2.0983 0.47587 3.8537 0.52298 3.9008 0.0471 0.0471 1.2372 0.36403 2.6446 0.70427 1.4074 0.34025 2.6339 0.69365 2.7256 0.78534 0.3122 0.31219 0.60768 0.16786 0.60662-0.29632zm-8.2012-1.7859c3.3e-4 -0.98883-1.1577-7.1971-1.6108-8.6361l-0.55332-1.7569-3.0306-0.32645c-1.6668-0.17955-3.7694-0.24917-4.6725-0.15471-2.666 0.27885-5.7825 1.012-5.9294 1.3949-0.19224 0.50097 1.8852 8.7213 2.4247 9.5941 0.20701 0.33495 13.372 0.22184 13.372-0.11489zm2.5634-15.983-2.1664-4.4741-1.5118-0.18098c-1.4494-0.17351-3.6476 0.022-3.6476 0.32451 0 0.0796 0.92233 1.8442 2.0496 3.9215 1.8165 3.3472 2.14 3.7949 2.8443 3.9359 0.43706 0.0875 1.5686 0.3248 2.5144 0.52728s1.8017 0.37981 1.9018 0.39407c0.10009 0.0143-0.79287-1.9874-1.9844-4.4482zm-16.763 3.3708c1.7881-0.47513 2.8794-0.57315 6.3279-0.56837 2.292 3e-3 4.1672-0.0423 4.1672-0.10094 0-0.0587-0.78988-1.5997-1.7553-3.4244-1.6753-3.1665-1.7868-3.3098-2.4474-3.1432-0.38065 0.096-2.9739 0.23977-5.7627 0.31953l-5.0706 0.14502 0.36198 1.026c0.19909 0.56428 0.68211 2.2172 1.0734 3.6733s0.7639 2.6473 0.82807 2.6473c0.0642 0 1.089-0.25836 2.2774-0.57414zm-57.221-2.1827c1.1011-0.19645 2.8848-0.72807 3.9637-1.1814 1.079-0.45332 2.095-0.82423 2.2579-0.82423 0.21416 0 0.20119-0.53102-0.0469-1.9182-0.18865-1.055-0.42158-3.347-0.51761-5.0932-0.19729-3.5876 0.35009-7.0845 1.491-9.525 1.021-2.184 8.6336-9.155 15.804-14.472 1.9376-1.4368 4.8648-3.769 6.5048-5.1827 7.6211-6.5694 12.727-10.742 15.721-12.846 1.7928-1.2601 4.3526-3.1726 5.6885-4.25 3.5415-2.8563 11.156-10.067 13.126-12.431 1.5194-1.8224 1.7887-2.0327 2.5136-1.9619 0.68859 0.0673 0.82273 0.19982 0.88363 0.87307 0.0615 0.68041-0.29366 1.1838-2.4875 3.5252l-2.5593 2.7315 1.0323-0.16949c0.56778-0.0932 1.8888-0.36031 2.9356-0.59353 1.5624-0.3481 1.977-0.36282 2.3151-0.0822 0.49475 0.41061 0.54083 1.4323 0.0811 1.799-0.51694 0.4124-4.898 1.125-6.9128 1.1244l-1.8196-5.3e-4 -6.8784 6.6642-0.0653 5.2007c-0.044 3.5053-0.24278 6.4514-0.60971 9.0372-0.29942 2.11-0.73423 5.7415-0.96623 8.0698-0.51423 5.1606-1.0572 9.1184-1.7771 12.954-0.78196 4.1659-0.61665 6.5735 0.63188 9.2025l0.95039 2.0013 2.3262 0.19376c3.1295 0.26069 7.0848-0.0246 11.267-0.81273 1.9037-0.35873 3.9184-0.65223 4.477-0.65223h1.0157l-0.91231-1.8178c-1.2576-2.5058-2.4219-6.1219-2.7544-8.5543-0.51193-3.7451 0.395-6.3221 4.2001-11.934 0.47441-0.69974 1.4901-2.8429 2.257-4.7625 0.76697-1.9196 2.5993-6.0886 4.0718-9.2643 1.4726-3.1757 2.6774-5.8286 2.6774-5.8953 0-0.0667 0.8417-1.909 1.8704-4.094 2.5742-5.4675 3.1566-7.8595 3.1566-12.964 0-10.024-1.9754-17.565-6.7605-25.808l-1.7079-2.9424-2.4465-0.57752c-2.9408-0.69419-9.7923-1.191-13.691-0.99278-2.1383 0.10872-3.9793 0.4479-7.9938 1.4728-7.1265 1.8194-8.051 2.1001-9.7875 2.9714-2.9042 1.4573-5.0166 2.1239-6.4505 2.0355l-1.3453-0.083-1.3459 1.6172c-0.74026 0.88943-2.3106 2.4968-3.4895 3.5719-3.1756 2.8957-6.9742 7.3053-11.143 12.935-0.91592 1.2369-2.7546 3.5586-4.086 5.1594-3.5329 4.2478-5.2389 6.5748-9.0909 12.4-3.5559 5.3778-4.7106 7.3387-10.508 17.844-1.9564 3.5453-4.2305 7.2572-5.3491 8.7312-5.1597 6.7989-6.6977 11.447-6.1243 18.509 0.21979 2.7066 0.87464 6.8734 1.1157 7.0994 0.31539 0.29555 7.9822 3.3644 9.134 3.6562 2.9773 0.75415 3.5084 0.78075 6.1561 0.30838zm41.256-96.316c1.4513-0.66525 3.4442-1.3876 4.4288-1.6051s3.2783-0.75296 5.0974-1.1898c6.556-1.5744 7.2632-1.6504 14.023-1.5074 4.9732 0.10519 6.7208 0.24238 8.7312 0.68541 1.3824 0.30464 2.6028 0.55546 2.712 0.55737 0.63131 0.0111-0.74641-4.4548-1.6813-5.45-2.2099-2.3523-12.085-3.4932-19.365-2.2374-3.3314 0.57465-7.2991 1.1609-11.034 1.6302-3.094 0.38886-6.8977 1.4363-7.3422 2.0218-0.36676 0.48316-0.48581 8.0278-0.1323 8.3835 0.36385 0.36607 1.8984-0.0673 4.563-1.2887zm41.874-4.3964c1.7671-0.44613 3.3132-0.87313 3.4358-0.9489 0.1226-0.0758-0.41437-0.75256-1.1933-1.504s-1.9213-2.1127-2.5386-3.025l-1.1225-1.6588-1.52 1.1696c-2.2494 1.7309-2.2359 1.7036-1.6672 3.3651 0.26899 0.78584 0.57178 1.8753 0.67287 2.421s0.30444 0.99219 0.45188 0.99219c0.14743 0 1.7139-0.36501 3.481-0.81114zm10.25-3.7778c2.4063-1.355 3.1519-2.0256 2.2524-2.0256-0.95403 0-4.3544-1.6791-6.4368-3.1786-1.2099-0.87118-2.2524-1.584-2.3165-1.584-0.0642 0-0.82027 0.43979-1.6802 0.97732l-1.5635 0.97733 0.79645 1.2055c0.43804 0.66302 1.7673 2.158 2.954 3.3222 2.515 2.4673 2.1856 2.4505 5.9942 0.30581zm-55.26-2.2688c2.1661-0.65407 3.9892-1.0024 7.1055-1.3575 1.3824-0.15756 4.7162-0.66552 7.4083-1.1288 4.5222-0.77822 5.2976-0.83815 10.186-0.78722 4.0359 0.042 5.8882 0.17745 7.8052 0.57057 1.3824 0.28349 2.6992 0.59015 2.9262 0.68146 0.35752 0.14383 0.47506-0.56883 0.8796-5.3331 0.71198-8.3849 1.3008-11.828 2.7049-15.818 4.016-11.41 4.6598-15.877 3.6715-25.474-0.54974-5.3383-0.98651-7.3589-2.7987-12.947-0.85947-2.6504-1.5627-5.064-1.5627-5.3635 0-0.32653 0.26932-0.66727 0.67267-0.85105 1.0337-0.47101 1.4441 0.19643 2.9608 4.8158 1.935 5.8934 2.68 9.9327 3.5146 19.057 0.44311 4.844-0.41854 10.18-2.7704 17.158l-0.92519 2.7449 1.3139 2.0014c0.72263 1.1007 1.3811 2.4254 1.4632 2.9436 0.0822 0.51826 0.25019 1.1302 0.37339 1.3599 0.12321 0.22969 0.65539 1.7067 1.1826 3.2823 1.6598 4.9604 3.0696 6.9809 6.5494 9.3866 2.0498 1.4171 3.1518 1.9486 5.7143 2.7558 1.7145 0.54014 2.2888 0.62464 2.6458 0.38933 1.051-0.69262 3.8561-4.1858 4.6389-5.7768 1.3574-2.759 1.227-4.234-0.92449-10.455-1.9167-5.5421-6.4058-16.915-8.1461-20.638-0.61226-1.3097-1.9779-4.8816-3.0348-7.9375-2.4087-6.9648-5.6317-15.354-6.762-17.601-1.8498-3.6775-3.3279-4.8654-9.1972-7.3917-8.9637-3.8582-11.004-5.1142-15.343-9.4438-1.4916-1.4885-2.712-2.6029-2.712-2.4763 0 0.4752-3.9348 2.8356-6.5027 3.9008-2.9546 1.2256-7.5815 2.473-11.621 3.133-2.8305 0.46242-6.2122 0.40193-9.5618-0.17105-2.2249-0.38059-2.6805-0.60409-2.789-1.3683-0.0814-0.573-0.18119-0.59467-2.5982-0.56421-2.1188 0.0267-2.8864 0.16617-4.8871 0.888-3.1128 1.123-6.0107 3.0122-8.2717 5.3924-1.5508 1.6326-2.1835 2.62-4.1471 6.4724-2.6324 5.1645-3.6609 6.4774-10.577 13.502-4.8487 4.9244-8.6441 8.3681-9.9663 9.0426-0.76504 0.3903-1.8394 0.54184-4.8499 0.68409-3.294 0.15564-3.8672 0.24553-3.8672 0.60645 0 0.23306-0.42372 1.0187-0.94161 1.7458-1.2607 1.77-1.8743 3.217-2.3586 5.562-0.52673 2.55-0.5101 3.3301 0.12379 5.8086 0.3934 1.5382 2.264 5.6527 3.0405 6.6879 0.1457 0.19423 5.9535-0.57937 8.5447-1.1382 4.9193-1.0608 10.398-3.6128 17.2-8.0122 4.8488-3.1359 6.204-3.8809 8.7514-4.8106 3.5164-1.2833 5.4806-2.2637 7.7812-3.8839 2.642-1.8606 6.2087-5.3717 7.4876-7.371 2.2266-3.4808 3.2877-8.3645 3.2877-15.132 0-2.4835 0.11704-4.5554 0.27389-4.8485 0.39178-0.73206 1.7306-0.68665 2.1368 0.0725 0.50524 0.94406 0.13902 9.775-0.54376 13.112-1.5792 7.7179-3.9891 10.89-13.567 17.855-0.42473 0.30887-0.37679 0.65209 0.71143 5.0937 1.1046 4.5082 1.2984 5.0225 3.6304 9.633 5.8519 11.569 11.868 22.249 12.533 22.249 0.17928 0 1.0826-0.22849 2.0075-0.50775zm42.219-3.4505c-1.2774-2.2076-2.8348-6.55-2.8348-7.9044 0-0.29783-0.10165-0.60433-0.22589-0.68112-0.27275-0.16857-0.97223 11.045-0.71493 11.462 0.17962 0.29064 3.9473-2.5793 3.7756-2.876zm4.2202-2.7028c0.57154-0.2819 0.57079-0.2858-0.38713-2.0285-0.52788-0.96035-1.3845-2.8974-1.9037-4.3045l-0.94391-2.5584-0.89778 0.80217-0.89778 0.80216 0.54742 2.4118c0.30108 1.3265 0.9336 3.2754 1.4056 4.331l0.85817 1.9193 0.82323-0.54621c0.45278-0.30042 1.0809-0.67332 1.3959-0.82866zm-5.3127-10.914 1.2223-1.1712-0.73058-1.3423c-0.40182-0.73827-0.82081-1.3423-0.93108-1.3423-0.16191 0-1.3029 4.2573-1.3029 4.8614 0 0.42608 0.62394 0.066 1.7422-1.0055zm-105.38-7.2578c-0.82049-1.6457-1.3011-3.0639-1.614-4.7625-0.33084-1.7962-0.54837-2.416-0.84497-2.4077-0.21968 6e-3 -1.4115 0.16031-2.6484 0.34255-2.1819 0.32147-2.2516 0.35374-2.3361 1.0826-0.14464 1.2468 0.47309 4.1305 1.3213 6.1679l0.79962 1.9208h6.491zm-8.8576 0.2931c-0.29438-0.83674-0.66201-2.603-0.81696-3.9249l-0.28173-2.4036-6.0001-0.48454 5.6e-4 1.0822c7.1e-4 1.3376 0.95204 5.1439 1.3946 5.5796 0.39911 0.39298 4.555 1.6391 5.5313 1.6585l0.70758 0.0141zm-9.0683-1.7198c-0.0992-0.32742-0.24836-1.6966-0.33149-3.0427-0.0831-1.3461-0.19949-2.4474-0.25856-2.4474-0.63045 0-4.329-0.9305-5.2248-1.3145l-1.1592-0.4969-0.15421 0.57497c-0.19639 0.73219-0.20085 3.8475-7e-3 4.5437 0.11406 0.40863 0.9118 0.7795 3.5021 1.6282 1.8449 0.60444 3.4576 1.1105 3.5837 1.1245 0.12612 0.014 0.14815-0.2424 0.049-0.56982zm-9.6272-7.8692c0.10434-0.46535-2.5521-1.4289-4.7401-1.7194l-1.3891-0.18442v6.6318l1.1245 0.14255c0.61846 0.0784 1.8984 0.23454 2.8443 0.34695l1.7198 0.20438 0.17607-2.5135c0.0968-1.3824 0.2159-2.6912 0.26458-2.9083zm-13.084 4.914c0.031-0.0252-0.11738-0.69517-0.32979-1.4888-0.2124-0.7936-0.46409-2.2558-0.55931-3.2493-0.16004-1.6698-0.21511-1.7951-0.72855-1.6573-0.30548 0.082-1.2298 0.15073-2.054 0.15272l-1.4986 4e-3 0.56036 1.3264c0.49693 1.1762 0.5243 1.4612 0.24182 2.5173-0.45029 1.6836-0.4011 2.12 0.27677 2.4554 0.47149 0.23331 3.7905 0.18451 4.0913-0.0602zm4.3092-2.91c0-1.5161 0.0723-2.9448 0.1606-3.175 0.13532-0.35262-0.0863-0.41851-1.4079-0.41851h-1.5685l0.21111 1.6536c0.11611 0.90951 0.37981 2.2716 0.58601 3.0268 0.20619 0.75521 0.30819 1.4398 0.22666 1.5214-0.0815 0.0815 0.28833 0.14824 0.82191 0.14824h0.97013zm26.836-2.5783c0.14649-1.1043 1.281-5.07 1.9468-6.805 0.15672-0.40839-0.50516-0.35267-4.7292 0.39817l-2.2725 0.40394-0.45561 2.6923c-0.25058 1.4808-0.51989 3.0726-0.59846 3.5375l-0.14286 0.84514 1.4157 0.0981c0.77866 0.054 2.1445 0.12013 3.0353 0.14705l1.6196 0.0489zm5.1786 0.54823c0.50933-0.13064 1.2858-0.2382 1.7256-0.23901 0.77468-1e-3 0.8098-0.0555 1.1286-1.7363 0.32862-1.7323 1.3927-4.3045 2.4023-5.8072l0.53419-0.79507-2.5646 0.21878c-3.8871 0.33158-3.6062 0.17548-4.4895 2.495-0.72892 1.914-1.3625 3.9674-1.7566 5.6935-0.16632 0.7283-0.16184 0.73095 0.96345 0.56974 0.62181-0.0891 1.5473-0.26886 2.0566-0.3995zm-13.758-0.14277c0-0.0918 0.18842-1.352 0.4187-2.8004 0.23028-1.4484 0.37333-2.6789 0.3179-2.7343-0.0554-0.0554-0.91006 0.0252-1.8992 0.17921-0.98912 0.15399-2.328 0.23786-2.9754 0.18638l-1.1769-0.0936-0.54759 1.8028c-0.30118 0.99156-0.50431 1.8398-0.45141 1.8851 0.12569 0.10746 4.1731 1.4086 4.8587 1.562 0.84154 0.18824 1.4552 0.19367 1.4552 0.0129zm-7.6744-6.6433c2e-3 -0.45685-3.7625-5.6195-3.9936-5.4767-0.56578 0.34967-2.6622 4.4931-3.1283 6.183-0.29826 1.0813-0.51416 1.984-0.47977 2.0061 0.0344 0.0221 1.0443 0.18527 2.2444 0.36266 1.2 0.1774 2.6288 0.47995 3.175 0.67233l0.99315 0.34978 0.59382-1.8846c0.3266-1.0366 0.59449-2.0322 0.59531-2.2125zm-16.049 3.106c0.0725-0.0728 0.26444-2.0373 0.42658-4.3656 0.16213-2.3283 0.36013-4.5608 0.43999-4.9609 0.14374-0.72028 0.13113-0.72761-1.253-0.72761-0.76902 0-3.7253-0.1891-6.5695-0.42022-5.6701-0.46076-10.32-0.3991-11.455 0.15192-0.40018 0.19428-0.72761 0.42743-0.72761 0.5181 0 0.0907 2.3384 0.35888 5.1964 0.59602 4.7327 0.3927 5.3265 0.49814 6.6551 1.1817 2.0864 1.0736 2.5708 1.8329 2.5581 4.0106-6e-3 0.97191-0.1128 2.3448-0.23809 3.0508l-0.22779 1.2837 2.5316-0.093c1.3924-0.0512 2.5909-0.15257 2.6634-0.22533zm5.1517-0.16171c0.70345-0.14069 0.83228-0.30403 0.99122-1.2568 0.45432-2.7234 3.092-8.2005 4.2654-8.8572 0.33853-0.18945 0.25983-0.33659-0.45058-0.84245-0.78306-0.55759-0.95888-0.58464-1.9478-0.29969-0.59788 0.17227-1.861 0.50944-2.8068 0.74927-0.94588 0.23983-1.7385 0.44641-1.7614 0.45906-0.0678 0.0374-0.58968 5.9376-0.72172 8.1589l-0.12189 2.0505h0.87257c0.47991 0 1.2364-0.0728 1.6811-0.16171zm103.59-41.922c6.4043-1.2973 10.547-2.896 13.899-5.3631l1.53-1.1263-1.3435-1.9109c-0.73893-1.051-1.7572-2.9096-2.263-4.1302l-0.91945-2.2193-0.84245 1.251c-1.1797 1.7517-3.1903 3.4827-5.164 4.4458-3.548 1.7314-9.1217 2.9756-13.353 2.9808l-1.6192 2e-3 -0.32174 1.6354c-0.17696 0.89946-0.554 2.2246-0.83787 2.9448-0.28387 0.72018-0.45003 1.3755-0.36923 1.4563 0.71453 0.71453 8.1375 0.73605 11.605 0.0336zm-4.7837-8.7534c1.2949-0.16606 2.2125-0.3896 2.0391-0.49676-0.22734-0.1405-0.32799-1.934-0.36098-6.4318-0.0252-3.4303-0.119-6.3102-0.20855-6.3998-0.0895-0.0896-0.66151-0.0285-1.271 0.1356-2.44 0.65702-5.5706 1.0586-8.2555 1.0589l-2.8281 3.6e-4 -0.14297 1.1245c-0.0786 0.61847-0.27848 2.2556-0.44409 3.638-0.16562 1.3824-0.584 3.347-0.92973 4.3656-0.34574 1.0186-0.62944 1.9368-0.63046 2.0403-3e-3 0.26294 1.6694 0.65517 3.6779 0.86283l1.6954 0.17527-0.1688-3.3304c-0.15669-3.0917-0.13124-3.3679 0.35514-3.8543 0.66447-0.66446 1.1786-0.663 1.8468 5e-3 0.47489 0.4749 0.52917 0.88195 0.52917 3.9688v3.4396h1.3711c0.75413 0 2.4306-0.13587 3.7255-0.30193zm7.9774-2.3274c0.39062-0.1485 0.52027-0.48979 0.56737-1.4935 0.0336-0.71558 0.2522-2.7061 0.48585-4.4235 0.60712-4.4623 0.50693-8.337-0.20741-8.0205-0.16159 0.0716-1.3913 0.57861-2.7326 1.1267-2.3122 0.94482-2.4301 1.0314-2.2706 1.667 0.0926 0.36874 0.17799 3.3635 0.18987 6.655l0.0216 5.9846 1.7198-0.65168c0.94589-0.35843 1.9476-0.7383 2.2261-0.84416zm-21.943-3.5884c0.33466-1.5163 0.94095-5.9894 0.82961-6.1208-0.0692-0.0816-7.7112-0.54225-7.7984-0.47003-0.0525 0.0435 0.28289 1.3657 0.74542 2.9381 0.94153 3.2008 1.8443 4.7995 3.6505 6.4644l1.2285 1.1324 0.46782-1.046c0.2573-0.57529 0.65177-1.8794 0.8766-2.8981zm26.493-0.52703c0.69366-0.94472 1.4857-1.7889 1.76-1.876 0.29735-0.0944 0.43971-0.31241 0.35245-0.5398-0.52459-1.3671-0.98628-3.9342-1.237-6.8783-0.15965-1.8744-0.30926-3.4262-0.33246-3.4484-0.0232-0.0222-0.42666 0.28208-0.89658 0.67614l-0.8544 0.71648 0.25756 1.5728c0.36154 2.2078 0.32357 4.5278-0.13414 8.1975-0.21712 1.7407-0.39571 3.1947-0.39688 3.2311-9e-3 0.27888 0.39323-0.16942 1.4815-1.6515zm-25.561-9.6405c0-2.3507 0.57363-3.0844 1.8695-2.3908 0.43712 0.23394 0.51178 0.56749 0.51178 2.2865v2.0126l3.5057-0.15262c1.9282-0.0839 3.9224-0.26516 4.4318-0.40272 0.50932-0.13755 1.6021-0.39003 2.4284-0.56107l1.5023-0.31098-0.13525-0.97747c-0.54327-3.9263-2.0403-11.164-2.3092-11.164-0.0238 0-1.2199 0.29848-2.658 0.66328-2.543 0.64508-9.5888 1.3684-10.896 1.1185-0.47051-0.08994-0.67278 0.05801-0.93075 0.6808-0.50289 1.2141-2.8201 4.699-3.8163 5.7395-0.95343 0.99578-1.5357 2.2-1.8132 3.7502l-0.17405 0.97212 1.3973 0.15411c1.8746 0.20676 3.4448 0.31341 5.4322 0.36896l1.6536 0.0462zm19.24-1.4679c2.4004-1.1371 2.4943-1.2138 2.3477-1.9182-0.084-0.40358-0.33586-1.9778-0.55971-3.4984-0.22384-1.5205-0.47336-3.0683-0.55447-3.4396-0.2534-1.1597-1.2155-4.1046-1.4119-4.3214-0.10301-0.11374-1.2106 0.2637-2.4612 0.83877l-2.2739 1.0456 0.36881 1.4123c0.43424 1.6629 1.7086 9.4121 1.7086 10.39 0 0.3716 0.0755 0.67563 0.16783 0.67563 0.0923 0 1.293-0.533 2.6682-1.1844zm6.6982-4.3718c0.32883 0 0.31905-2.5223-0.019-4.8948-0.28746-2.0176-1.0972-4.7162-1.8872-6.2899l-0.5012-0.99827-1.1873 0.99246c-0.81104 0.67794-1.1315 1.1201-1.0113 1.3951 0.57148 1.3075 1.5132 5.073 1.999 7.9927l0.56142 3.3745 0.8951-0.78591c0.49231-0.43225 1.01-0.78591 1.1505-0.78591zm-31.341-3.7615c0.59268-1.1551 0.85735-2.5885 0.47794-2.5885-0.0893 0-0.6251 0.26005-1.1906 0.57789-0.90446 0.50833-1.0282 0.69542-1.0282 1.5544 0 0.5371 0.0779 1.3663 0.17323 1.8427 0.16344 0.81722 0.19453 0.83778 0.55027 0.3638 0.20737-0.27629 0.6652-1.0639 1.0174-1.7503zm10.088-2.9966c1.7302-0.22448 3.8347-0.61265 4.6767-0.86261l1.5309-0.45447-1.0995-1.6466c-0.60473-0.9056-1.597-2.0746-2.205-2.5979-1.3089-1.1264-4.7754-2.8348-6.7215-3.3126l-1.3827-0.33952-1.5018 1.0343c-2.0371 1.403-4.861 4.8432-4.861 5.9219 0 0.18176 0.22378 0.18609 0.67868 0.01314 1.3069-0.49688 2.2322-0.31044 3.1842 0.64155 0.49477 0.49477 0.89958 1.1496 0.89958 1.4552 0 0.51082 0.14738 0.55562 1.8278 0.55562 1.0053 0 3.2434-0.18366 4.9736-0.40814zm13.112-4.3241c0.34332-0.33245-1.3473-2.5851-3.2899-4.3837-3.3666-3.1169-5.9319-3.826-9.6907-2.6784l-1.6667 0.50885 1.4761 0.60055c3.2691 1.33 6.4178 4.0037 8.2982 7.0462l0.5896 0.95401 2.041-0.92624c1.1225-0.50943 2.1316-1.014 2.2424-1.1213zm4.1642-3.3559c0-0.17124-0.88672-1.1536-1.9705-2.1831-1.9753-1.8763-2.5465-2.167-5.041-2.5656l-1.0583-0.16911 1.1906 1.002c1.7491 1.472 3.1182 2.9598 4.1769 4.5389l0.93768 1.3986 0.88228-0.85514c0.48526-0.47033 0.88228-0.99524 0.88228-1.1665zm-389.6 268.96c-3.7226-0.73276-5.4145-2.7312-5.0774-5.9971 0.28066-2.7193 1.5739-4.8078 5.6307-9.0935 6.957-7.3496 7.9473-8.8293 11.818-17.66 3.5087-8.0038 3.6112-8.4348 4.1639-17.508 0.31266-5.1331 0.80322-7.956 2.0116-11.576 1.3572-4.0656 2.4433-6.279 4.6716-9.5207 2.3208-3.3764 4.7778-7.6401 7.1304-12.373l1.7096-3.4396 0.31413-5.0271c0.32902-5.2654 1.061-10.001 2.9108-18.833 0.82786-3.9524 1.4224-5.9998 2.6889-9.2604 2.8612-7.3661 4.9422-13.133 5.3769-14.902 0.23252-0.94589 0.78964-4.2796 1.238-7.4083 0.4484-3.1287 0.99068-6.4029 1.205-7.276 1.0802-4.3994 5.9549-15.281 6.9931-15.611 0.48326-0.15338 0.51538-0.32996 0.37614-2.068-0.29476-3.6795-0.92313-8.2663-1.3296-9.7056-0.22605-0.80037-1.1657-3.003-2.0882-4.8948-1.9774-4.0554-2.1796-4.7161-3.5618-11.642-1.577-7.9018-1.9832-12.986-1.3476-16.867 0.23316-1.4236 0.19481-1.6361-0.59685-3.3073-0.81448-1.7194-0.84554-1.9093-0.8333-5.0933 0.0101-2.6307 0.15685-3.9141 0.71729-6.2737 0.62187-2.6182 0.86243-3.1835 2.0494-4.8153 1.5487-2.1293 3.352-3.6563 5.6572-4.7903 1.3497-0.66399 2.0559-0.82245 4.2635-0.95667l2.6458-0.16086 2.802-1.6758c1.5411-0.92171 4.1312-2.3222 5.7558-3.1122 3.7014-1.8 5.0779-2.9104 6.0425-4.8748 0.69767-1.4208 0.74414-1.7226 0.72254-4.6934-0.0127-1.7462-0.23517-4.7823-0.49438-6.7469-0.68033-5.1561-0.23258-8.6055 1.5798-12.171 0.88499-1.7409 3.7367-4.9589 6.028-6.8021 4.4906-3.6125 8.3083-4.3388 12.927-2.4593 3.777 1.5371 5.5146 3.1324 9.2774 8.5178 2.9811 4.2666 3.936 7.27 3.938 12.385 2e-3 4.0998-1.3004 8.914-3.9634 14.655-1.1362 2.4495-1.2917 3.3415-0.75091 4.3071 0.33317 0.59486 3.7452 3.4788 9.4495 7.9869 6.046 4.7782 9.0538 8.7537 9.6547 12.761 0.2749 1.8332 0.31112 1.8577 2.2635 1.5358 2.0846-0.34371 5.9766-0.12288 9.9099 0.56228 1.6007 0.27883 4.6368 0.6933 6.7469 0.92103 3.6874 0.39798 11.847 1.6553 12.217 1.8826 0.0984 0.0604 2.4202 0.28694 5.1594 0.50347 6.3173 0.49934 8.2715 0.79491 10.088 1.5258 2.2416 0.90197 3.213 2.6251 2.5564 4.535-0.84402 2.4551-2.4182 3.2162-7.1347 3.4498-6.8797 0.34071-8.6218 0.89087-9.3879 2.9647-0.55827 1.5113-1.9553 3.3822-3.0143 4.0367-1.0977 0.67843-2.5575 0.70775-3.3485 0.0673-0.50085-0.40556-0.75811-0.43912-1.6142-0.21061-0.85644 0.2286-1.2 0.18365-2.1596-0.28258l-1.1412-0.55441-0.61143 0.63528c-1.2641 1.3134-3.9774 1.2308-5.9477-0.18099-3.881-2.7809-5.5198-3.4375-8.4758-3.3958-2.1892 0.0309-3.4561 0.29379-2.7406 0.56878 0.24889 0.0957 1.1152 1.502 1.9252 3.1252 2.5468 5.1041 3.624 6.3125 7.015 7.8698 3.2909 1.5113 6.6093 2.5263 10.077 3.0821 0.92451 0.14819 0.95782 0.12342 1.3129-0.97624 0.45214-1.4002 3.066-4.0991 4.75-4.9044 1.7567-0.84011 4.4204-1.4567 5.4548-1.2626 2.0413 0.38295 3.0161 2.3748 1.9758 4.0372-0.29272 0.46779-0.99297 1.1414-1.5561 1.4969-1.6014 1.0109-3.1289 2.9416-3.9174 4.9513-0.83038 2.1165-1.1187 2.4289-2.1334 2.3115-1.2799-0.14798-1.4629-1.014-0.69607-3.2947 0.78869-2.3458 2.4835-4.7517 4.1596-5.9049 0.66588-0.45814 1.2107-0.87414 1.2107-0.92444 0-0.1564-2.124 0.37695-3.0018 0.75378-2.6836 1.152-4.1514 3.1885-4.8211 6.6887-0.2085 1.0897-0.37909 2.0342-0.37909 2.0989 0 0.30034-1.2366 0.54301-1.6536 0.3245-0.38196-0.20015-0.46302-0.1273-0.46302 0.41615 0 0.76488 0.27307 0.83405 4.2061 1.0654 2.648 0.15577 3.2023 0.3872 3.2023 1.3371 0 1.1454-0.52539 1.2782-4.0604 1.0263l-3.2625-0.23254 0.27495 1.0583c0.15122 0.58209 0.28083 1.5346 0.28801 2.1167l0.0131 1.0583 2.3813 0.0363c1.7983 0.0274 3.2753 0.27031 6.0335 0.99219 3.8833 1.0164 5.847 1.1594 8.2326 0.59974 2.3504-0.5514 1.7246-1.344-1.8042-2.2852-1.1496-0.30664-2.3105-0.6754-2.5797-0.81947-0.59684-0.31942-0.67046-1.8804-0.11059-2.345 0.21515-0.17856 1.6728-0.37946 3.3734-0.46494 3.1135-0.15649 3.9206-0.36409 3.9206-1.0084 0-0.56569-1.1305-1.2051-3.0924-1.7491-2.1729-0.60253-2.993-1.1252-2.993-1.9074 0-1.2374 0.55361-1.5806 2.3412-1.4514l1.6356 0.11831-1.2018-0.66088c-1.2625-0.6943-1.6333-1.3937-1.346-2.5386 0.22455-0.89465 1.6731-1.2887 4.2576-1.1582 2.4221 0.12232 2.1266-0.0652-1.9825-1.2581-1.3824-0.40132-2.7219-0.9057-2.9766-1.1208-0.61671-0.52101-0.58638-1.4384 0.0671-2.0298 0.48078-0.43509 0.67171-0.44847 2.0505-0.1437 7.2132 1.5944 10.448 3.8191 9.4258 6.4827-0.22686 0.59117-1.4936 1.2025-2.4919 1.2025h-0.83041l0.68498 0.81405c0.97011 1.1529 0.99694 2.1076 0.0868 3.0885-0.45392 0.48921-0.54062 0.88206-0.48662 2.2051 0.0635 1.5549 0.0312 1.6429-0.94611 2.5797l-1.0118 0.96989 0.7276 0.76086c0.87172 0.91157 0.94911 2.0476 0.22084 3.242-0.99502 1.6318-6.2592 2.9973-9.6131 2.4936-0.90974-0.13662-2.9024-0.61195-4.4281-1.0563-3.7134-1.0815-5.3526-1.2053-8.8676-0.6699-1.8342 0.27939-5.3694 0.49461-9.56 0.58201-8.8536 0.18466-10.558-0.16457-14.528-2.9773-2.166-1.5344-4.0436-3.7398-7.5639-8.884-1.633-2.3864-3.3054-4.8032-3.7164-5.3707s-0.74726-1.3399-0.74726-1.7163c0-0.60627-0.1043-0.5295-0.91393 0.67274-0.83875 1.2455-4.9116 9.5862-6.3831 13.072-2.2296 5.2813-1.859 9.2554 1.7626 18.901 6.3668 16.958 7.8365 20.235 12.814 28.575 1.3898 2.3283 2.9948 5.1858 3.5669 6.35 2.3331 4.7484 6.1037 13.486 7.5355 17.462 0.8384 2.3283 1.7349 4.65 1.9922 5.1594 0.57317 1.1344 3.7745 10.406 4.659 13.494 0.92472 3.2278 1.8915 9.5148 2.2174 14.42 0.19961 3.0041 0.59453 5.7699 1.3601 9.525 0.99018 4.8571 1.0946 5.7697 1.2718 11.112 0.21709 6.5459 0.32071 7.017 2.3538 10.701 2.2239 4.03 5.2379 6.7212 9.5093 8.4909 4.3732 1.8119 9.0041 4.1799 10.086 5.1576 2.0138 1.8194 2.9993 4.5402 2.4215 6.6857-0.59543 2.2113-2.7788 3.5406-7.3442 4.4716-1.6947 0.3456-2.4347 0.3601-4.8109 0.0943-3.5086-0.39252-5.8422-1.1846-10.217-3.468-4.3012-2.2452-5.4746-2.5862-9.9358-2.8876-5.1797-0.34985-6.8598-1.0661-8.0591-3.4356-0.38876-0.76813-0.43986-1.3971-0.32248-3.9688 0.0767-1.6808 0.35204-4.298 0.61183-5.816 0.41305-2.4135 0.43489-3.1942 0.17396-6.2177-0.35648-4.1306-0.92042-6.2862-1.7386-6.6454-0.44778-0.19659-0.57603-0.4843-0.58455-1.3113-8e-3 -0.77693-0.4717-1.9413-1.7386-4.3656-0.95024-1.8184-2.0764-3.83-2.5026-4.4702-1.057-1.5879-1.0172-1.5133-1.9248-3.5984-1.2328-2.8319-2.1868-6.3856-2.3456-8.7376-0.1604-2.3744 0.26671-8.1492 0.8997-12.164 0.64309-4.0794 0.60475-6.884-0.11393-8.3344-1.2554-2.5335-4.7612-6.7717-8.9186-10.782-2.3007-2.2192-4.2684-4.0349-4.3728-4.0349s-2.3206-2.292-4.9251-5.0932c-6.757-7.2675-8.7618-9.2396-10.542-10.37-0.86396-0.54859-2.5613-1.7532-3.7718-2.6768-2.6727-2.0393-3.5803-2.3436-5.389-1.8064-1.7373 0.51592-2.8883 1.5727-4.3892 4.0297-1.1706 1.9162-5.2318 8.3899-8.5914 13.695-0.83875 1.3244-2.978 5.1939-4.7539 8.599s-3.8491 7.203-4.6072 8.44c-4.8304 7.8818-7.3749 14.465-8.3249 21.536-0.34195 2.5456-0.88437 5.209-1.3741 6.7469-1.8182 5.7101-7.4202 17.489-10.478 22.031-0.71889 1.0678-2.0935 3.3579-3.0546 5.089-4.1379 7.4527-5.0951 11.027-4.8261 18.019 0.20698 5.3798-0.43324 7.6245-2.8431 9.9685-2.8385 2.7609-6.1582 4.2288-10.639 4.7041-1.6007 0.16982-3.089 0.37942-3.3073 0.46578-0.62517 0.24732-5.5756 0.29351-6.7469 0.063zm5.1531-2.8184c0.0693-0.0612 0.91965-1.8604 1.8897-3.9982 1.4798-3.2613 1.6914-3.8994 1.3143-3.9647-0.24715-0.0428-1.9905 0.47159-3.8741 1.1431s-4.1606 1.4723-5.06 1.7795c-1.7204 0.5876-1.9258 0.8508-1.9329 2.4774-7e-3 1.5519 1.2073 2.4198 3.9651 2.8347 0.72661 0.1093 3.4969-0.0944 3.6979-0.27184zm6.6209-0.63309c2.8124-0.47512 7.0109-3.0069 7.9756-4.8096 0.32941-0.61551 0.0206-0.88213-2.5211-2.1763-1.5844-0.80675-2.0705-0.92747-3.7344-0.92747h-1.9129l-0.46939 1.2568c-0.25816 0.69123-1.0482 2.4947-1.7557 4.0078-0.70749 1.513-1.2864 2.8412-1.2864 2.9514 0 0.2112 1.2836 0.10636 3.7042-0.30256zm-5.0318-9.5076c1.094-0.26361 2.3222-0.55225 2.7295-0.64143 0.62001-0.13578 0.93182-0.55539 1.9173-2.5802 0.64728-1.3299 1.1354-2.4594 1.0848-2.5101-0.13811-0.13811-6.6012 1.8154-6.9864 2.1116-0.1834 0.14106-1.5196 1.5328-2.9693 3.0927l-2.6359 2.8362 2.4355-0.9148c1.3395-0.50314 3.3305-1.1305 4.4245-1.3941zm14.028-1.0269c0-2.2331-0.028-2.3492-0.53382-2.2169-0.31848 0.0833-0.93459-0.12562-1.5273-0.51784-0.97395-0.64452-3.099-1.788-3.323-1.788-0.0624 0-0.56814 0.92274-1.1239 2.0505-0.55572 1.1278-1.0492 2.1222-1.0967 2.2099-0.0475 0.0876 0.72141 0.23242 1.7086 0.32174 1.3697 0.12393 2.265 0.40822 3.7793 1.2001 1.0914 0.57071 2.0141 1.051 2.0505 1.0673 0.0364 0.0163 0.0662-1.0308 0.0662-2.3268zm133.59-1.8428c0.52781-0.14773 0.0383-0.44562-2.8914-1.7596-1.9397-0.86995-3.6239-1.6212-3.7426-1.6694-0.25255-0.10257-0.64167 0.83798-0.88642 2.1426l-0.17274 0.92081 1.5445 0.2641c1.7824 0.30478 5.2195 0.36148 6.1486 0.10144zm-9.794-3.0031c0.2114-1.0235 0.24325-1.6784 0.0842-1.7314-0.30768-0.10256-2.53-1.4494-4.6062-2.7916l-1.5098-0.97601-0.64556 1.1252c-1.012 1.7638-1.0845 2.2272-0.37786 2.4134 0.33187 0.0874 1.9127 0.9347 3.513 1.8828s2.9754 1.7238 3.0559 1.7238c0.0805 0 0.29933-0.74077 0.48633-1.6462zm14.171 1.0581c0.61927-0.88414 0.4985-2.0836-0.34184-3.3951-0.9874-1.541-1.4747-1.9488-3.7731-3.1583l-1.9227-1.0117-0.94244 0.68709c-1.2575 0.91676-2.9268 2.4931-2.9268 2.7638 0 0.11959 0.26789 0.31974 0.59531 0.44477 1.531 0.58465 7.2823 3.3319 7.8714 3.76 0.8521 0.61924 0.94723 0.61326 1.4402-0.0906zm-137.75-3.7114c0.18076-1.3461 0.39471-2.6996 0.47543-3.0078 0.1234-0.47116-0.13369-0.71723-1.6147-1.5455-0.96882-0.5418-1.7909-0.94447-1.8268-0.89482-0.0359 0.0497-0.48517 1.4163-0.99832 3.0369l-0.93299 2.9467 0.95215 0.29401c0.52369 0.1617 1.4284 0.58064 2.0105 0.93098s1.1816 0.64821 1.3322 0.66192c0.15064 0.0137 0.42179-1.0764 0.60256-2.4224zm-9.1346 0.32107 1.6754-0.29175 0.86784-2.6477c0.47732-1.4562 0.81995-2.6956 0.76142-2.7541-0.0585-0.0585-0.75434 0.0779-1.5462 0.30316-1.36 0.38688-1.4895 0.50023-2.3357 2.0449-0.49275 0.89942-1.2364 2.1473-1.6526 2.773-0.92047 1.3839-0.92433 1.4264-0.10108 1.1134 0.36061-0.1371 1.4096-0.38057 2.331-0.54103zm123.51-2.57c0.48012-0.98227 0.91115-1.8547 0.95783-1.9388 0.0467-0.0841-0.21565-0.28978-0.58296-0.45713-1.0263-0.4676-2.9506-2.3502-3.4257-3.3515-0.2343-0.49375-0.60582-2.1788-0.82561-3.7445-0.21978-1.5657-0.44487-2.892-0.5002-2.9473-0.18446-0.18445-2.3426 1.3098-3.6273 2.5115-0.69766 0.65257-1.8131 2.1156-2.4788 3.2511-1.2035 2.0528-1.21 2.0771-1.1332 4.2439 0.0704 1.9875 0.13698 2.2238 0.7563 2.6852 0.78885 0.58773 3.9816 1.0935 9.4163 1.4916 0.45657 0.0334 0.74456-0.31456 1.4433-1.7442zm11.503-0.0988c0.41582-0.60002 1.2566-1.4732 1.8685-1.9404l1.1124-0.84941-5.4816-2.5216-1.2847 0.69924c-0.70661 0.38458-1.6332 0.97706-2.059 1.3166l-0.77427 0.61738 2.4002 1.5538c2.0772 1.3448 3.3245 2.1441 3.4323 2.1997 0.0166 9e-3 0.37038-0.47537 0.78619-1.0754zm-123.17-5.722c0.61529-1.1278 1.8792-3.337 2.8087-4.9093 0.92949-1.5723 1.6305-2.9551 1.5577-3.0728-0.0728-0.11773-0.93896-0.28598-1.9249-0.37388-0.98592-0.0879-2.0911-0.23153-2.456-0.31917-0.59697-0.14341-0.74009-5e-3 -1.4298 1.3806-0.42151 0.84695-1.3381 2.843-2.0369 4.4357l-1.2706 2.8958 1.7743 0.98653c0.97584 0.5426 1.7933 0.99566 1.8165 1.0068 0.0232 0.0111 0.54565-0.90247 1.1609-2.0302zm115.92 0.31762c0.89933-0.66204 1.8164-1.3051 2.0378-1.4291 0.32567-0.18225 0.11163-0.53971-1.1193-1.8692-0.83707-0.90414-2.0705-2.588-2.741-3.742-1.1849-2.0394-1.242-2.0931-2.0365-1.9204-1.6662 0.36222-2.0081 0.5939-2.0072 1.3605 8.5e-4 0.73639 0.69907 5.1001 0.95204 5.9499 0.1046 0.35142 2.912 2.843 3.2136 2.852 0.036 1e-3 0.80122-0.53971 1.7006-1.2018zm-123.74-0.27715c0.70269-0.16927 5.4697-9.6424 4.9456-9.828-0.19032-0.0674-0.86324-0.51733-1.4954-0.99986l-1.1494-0.87731-0.31015 1.2317c-0.17058 0.67744-0.82415 2.4239-1.4524 3.881-0.62822 1.4571-1.5695 3.6365-2.0917 4.8431l-0.94953 2.1938 0.98686-0.15853c0.54277-0.0872 1.225-0.21589 1.516-0.286zm113.22-8.7444c0.88656-0.51775 1.6428-0.96998 1.6806-1.005 0.0755-0.07-1.1309-8.4781-1.4202-9.8979-0.17454-0.85672-0.21543-0.88201-1.1772-0.72822-1.5269 0.24417-3.2716 1.0823-4.4283 2.1272l-1.0464 0.9454 0.59874 1.6528c0.66771 1.8432 1.0644 4.1576 1.3365 7.7986l0.1825 2.4416 1.3309-1.1966c0.73202-0.65815 2.0563-1.6202 2.9429-2.138zm-96.133-7.7664c1.5577-3.1287 2.8081-5.7161 2.7787-5.7497-0.0294-0.0336-1.3555-0.24245-2.9468-0.46399-1.5913-0.22154-3.2039-0.47256-3.5835-0.55782-0.78949-0.17732-0.61931-0.48802-2.1148 3.8611-0.57546 1.6735-1.4797 4.1438-2.0094 5.4897-0.52971 1.3458-0.90201 2.5081-0.82733 2.5828 0.19137 0.19137 3.8705 0.60971 4.9626 0.56428l0.90837-0.0378zm102.24 4.5259c-0.0986-0.3792-0.2407-2.5647-0.31585-4.8566l-0.13665-4.1672h-1.5885c-1.5126 0-1.5817 0.0284-1.4478 0.59531 0.0773 0.32742 0.46986 2.6308 0.87228 5.1186l0.73167 4.5233 1.032-0.26196c0.94302-0.23937 1.0166-0.32143 0.85282-0.9514zm-112.21-1.8139c1.1608-3.0442 3.3838-10.501 3.1534-10.577-0.12026-0.0401-1.6058-0.7112-3.3012-1.4914l-3.0826-1.4185-0.29317 2.0142c-0.23004 1.5805-0.78105 8.5689-0.80997 10.273-6e-3 0.33743 3.032 2.9862 3.4247 2.9862 0.12525 0 0.53418-0.80367 0.90875-1.7859zm99.842-7.056c1.3591-0.97639 3.326-1.8289 4.865-2.1086l0.96328-0.17508-0.61122-2.8377c-0.33617-1.5607-0.76278-3.835-0.94804-5.054l-0.33681-2.2163-1.6027 0.15173c-0.88151 0.0835-2.4246 0.40658-3.429 0.71806-1.4914 0.46246-2.0858 0.82581-3.2411 1.9812-0.77818 0.77817-1.4149 1.6068-1.4149 1.8413 0 0.23456 0.52541 1.3436 1.1676 2.4647 0.64216 1.121 1.6208 2.9609 2.1747 4.0887s1.0402 2.0505 1.0808 2.0505c0.0405 0 0.64016-0.40699 1.3326-0.90443zm11.017-2.7968 0.7653-3e-3 -0.1706-1.6536c-0.0938-0.90951-0.427-3.0401-0.74037-4.7346l-0.56978-3.0809-0.95096-0.15731c-0.52303-0.0865-1.5245-0.15862-2.2256-0.16022-1.0928-2e-3 -1.2542 0.0631-1.1313 0.46011 0.0788 0.25466 0.32951 1.356 0.55709 2.4474 0.37771 1.8114 0.75475 3.3796 1.4866 6.1831 0.26097 0.99965 0.29021 1.02 1.2408 0.86281 0.53542-0.0885 1.3179-0.16227 1.7388-0.16387zm-95.957-3.309c1.2284-2.8843 2.3611-6.7952 2.5917-8.9482l0.19116-1.785-1.0239 0.15429c-0.56314 0.0849-2.148 0.17784-3.5219 0.20663l-2.498 0.0523-2.0596 5.6582c-1.1328 3.112-2.0026 5.7504-1.933 5.8631 0.13978 0.22617 3.0232 0.74474 4.8874 0.87897 2.4664 0.1776 2.3822 0.22963 3.366-2.0802zm-8.7898-5.0945c1.0134-3.0196 1.8447-5.5841 1.8472-5.699 3e-3 -0.11492-0.99483-0.61807-2.2164-1.1181-1.2216-0.50005-2.4511-1.1173-2.7322-1.3718-0.4898-0.44327-0.5322-0.43525-1.016 0.19208-1.5756 2.043-4.8545 10.061-4.3208 10.566 0.30396 0.28745 5.9707 2.8932 6.3262 2.909 0.14818 7e-3 1.0986-2.4586 2.112-5.4781zm90.663-2.3114c1.5278-0.69657 4.5356-1.446 5.8367-1.4543 0.66985-4e-3 0.70944-0.0656 0.55818-0.86449-0.33423-1.7653-1.148-4.7602-2.4797-9.1261l-1.3716-4.4966-1.0952 0.24393c-2.4721 0.5506-3.8947 1.0804-5.4944 2.0463l-1.6862 1.0181-0.3455 3.272c-0.41882 3.9663-0.14791 6.5728 1.0639 10.236l0.81571 2.4656 1.3496-1.3282c0.7423-0.73054 2.0241-1.6358 2.8486-2.0117zm12.823-1.9219c-0.0733-0.25466-0.21064-1.5346-0.30513-2.8443-0.0945-1.3097-0.39971-4.0449-0.67826-6.0782-0.27854-2.0333-0.50644-3.7177-0.50644-3.743 0-0.18366-5.1913-1.6882-5.825-1.6882-0.94378 0-1.0438-0.66958 0.96368 6.4498 0.7746 2.747 1.5448 5.6881 1.7116 6.5357l0.3032 1.5411 1.3571 0.0961c3.1522 0.22314 3.1218 0.22589 2.9793-0.26907zm-92.773-3.8861 1.1886-0.0386 0.20456-1.4214c0.55284-3.8415 4.3024-12.698 7.8462-18.532 0.83966-1.3824 2.8716-5.0734 4.5155-8.2021 3.0948-5.8901 4.8386-8.8198 8.7405-14.684 1.2586-1.8918 3.1589-4.9192 4.2228-6.7276 2.2782-3.8725 3.5338-5.3205 5.4094-6.2381 2.8422-1.3906 5.3084-1.1565 7.8539 0.74548 2.7725 2.0716 4.7192 3.487 6.0719 4.415 0.85542 0.5868 2.4812 2.3315 4.438 4.7625 3.3572 4.1709 8.2599 9.2364 12.946 13.376 4.3673 3.858 9.7192 10.211 10.987 13.041 0.65586 1.4647 0.89053 4.8362 0.52359 7.5227-0.13472 0.98629-0.17555 1.755-0.0907 1.7083 3.6575-2.0144 10.524-3.2863 13.383-2.4791 0.72761 0.2054 1.5313 0.45907 1.7859 0.56372 0.31641 0.13001 0.46302 0.068 0.46302-0.19599 0-0.65234-3.5505-11.504-4.9563-15.148-0.72975-1.8918-1.7678-4.7923-2.3067-6.4457-1.0469-3.2117-5.5923-13.685-7.3649-16.97-1.4898-2.7607-4.6833-8.5233-6.8225-12.311-0.98866-1.7505-2.3929-4.6675-3.1205-6.4823-0.72759-1.8148-2.0495-4.9665-2.9376-7.0038-0.8881-2.0373-2.3397-5.5496-3.2258-7.8052-0.8861-2.2556-1.6981-4.197-1.8044-4.3142-0.22725-0.25061-4.0366 0.78363-7.185 1.9507-8.8066 3.2646-20.567 2.5602-30.568-1.8309-1.043-0.45797-1.9596-0.83267-2.0367-0.83267-0.0772 0-1.2272-0.59056-2.5556-1.3124l-2.4153-1.3124-1.1989 2.5691c-1.5659 3.3556-3.4061 8.052-3.9218 10.009-0.22554 0.85592-0.64865 3.5207-0.94024 5.9218-1.1397 9.3847-1.1738 9.5148-5.6207 21.431-2.4037 6.4411-2.5844 7.0766-3.9894 14.023-2.0196 9.9857-2.2919 12.229-2.4571 20.241-0.10915 5.2961-0.2283 7.0162-0.51774 7.4745-0.74103 1.1734-2.2124 0.45941-2.22-1.0772-3e-3 -0.68152-0.40695-0.0713-2.1281 3.218-1.1681 2.2324-2.3952 4.4877-2.7268 5.0116l-0.60292 0.95266 1.8711 0.89679c2.895 1.3875 5.4237 1.9401 7.9565 1.7387 1.1642-0.0926 2.6515-0.18568 3.3052-0.20694zm-1.7343-4.7506c-0.12712-0.50649 0.16099-1.2335 1.2073-3.0465 1.9211-3.3288 2.6457-5.2667 3.2153-8.5992 0.51008-2.9844 0.76977-3.5962 1.5265-3.5962 1.2476 0 1.3295 0.94004 0.44353 5.0923-0.79296 3.7163-1.3794 5.26-3.1413 8.2692-1.2495 2.1341-1.4819 2.3898-2.2393 2.4635-0.71394 0.0695-0.871-0.021-1.0121-0.58301zm83.99-14.152c-0.83192-0.85547-1.761-2.0423-2.0646-2.6375-1.2463-2.4429-1.8054-7.4783-0.92777-8.3559 0.48196-0.48196 0.75954-0.51339 1.4187-0.16061 0.37444 0.2004 0.51546 0.72573 0.65696 2.4474 0.2736 3.3291 0.75003 4.4858 2.6982 6.551 1.7017 1.8039 2.0644 2.7011 1.372 3.3935-0.70171 0.70171-1.6165 0.34262-3.1535-1.2379zm-39.243-68.578c1.1217-0.156 2.946-0.5654 4.054-0.90975 2.2352-0.69465 9.9008-3.2972 9.9981-3.3945 0.034-0.034-0.10707-1.0099-0.31353-2.1687-0.49475-2.7769-0.49082-6.2465 9e-3 -8.2029 0.3307-1.2937 4.5985-10.581 6.8042-14.806 1.5304-2.9319 2.9869-4.1243 4.5565-3.7304 0.76389 0.19172 2.5784 2.5759 6.3094 8.2903 1.8387 2.8161 3.5343 5.0485 4.9235 6.4823l2.119 2.187-0.15024-2.1167c-0.3334-4.6971 1.7035-9.0165 5.8413-12.387l1.4221-1.1584-1.1856-1.6939c-1.431-2.0444-3.7912-6.7546-3.7912-7.5658 0-0.32121 0.20836-0.70538 0.46302-0.85371 0.72545-0.42254 0.25644-0.33678-1.9707 0.36032-3.5804 1.1207-8.0692 2.2254-10.36 2.5496-3.0984 0.43853-10.893 0.1705-15.517-0.53354-4.3118-0.65662-6.3769-1.2236-9.2776-2.5474-4.4079-2.0116-12.391-4.7733-17.578-6.0807-2.2093-0.55693-3.8075-0.74863-7.8052-0.93619-8.5312-0.40024-10.725-0.86267-13.258-2.7953l-0.96295-0.73447 0.13265 5.0176c0.11518 4.3569 0.26117 5.6795 1.1087 10.045 1.4064 7.2432 1.5875 7.8452 3.4868 11.593 0.9452 1.8651 1.936 4.2463 2.2019 5.2917 0.68522 2.6944 1.1533 7.1428 1.1815 11.229l0.0242 3.5071 3.175 1.5613c1.7462 0.85872 4.3061 1.9253 5.6886 2.3702 6.0084 1.9337 13.744 2.8171 18.67 2.1321zm48.375-16.187c-0.0896-1.2005-0.0475-2.8052 0.0935-3.5658 0.2199-1.1861 0.19578-1.3996-0.16939-1.4995-1.0269-0.28092-6.6279-0.75191-7.0438-0.59231-0.40044 0.15366-0.44221 0.45569-0.32568 2.3547 0.0735 1.1982 0.27514 2.7958 0.44805 3.5503l0.31436 1.3718 1.3708 0.25043c0.75396 0.13774 2.2943 0.26458 3.4229 0.28186l2.0521 0.0314zm8.8816 1.8809c1.4604-0.16607 2.6523-0.37443 2.6485-0.46303-0.0187-0.44392-1.0215-4.5848-1.1386-4.702-0.30317-0.30317-7.2867-1.5349-7.499-1.3227-0.27912 0.27911-0.628 3.3081-0.48812 4.2378 0.41348 2.748 0.2496 2.5519 2.1326 2.5519 0.92911 0 2.8842-0.13588 4.3446-0.30194zm1.7508-8.6278c0.0901-0.40018 0.27881-1.1861 0.41931-1.7465 0.14049-0.56039 0.1984-1.0759 0.12868-1.1456-0.0697-0.0697-1.1193-0.35112-2.3325-0.62533-1.2132-0.27422-2.4488-0.56975-2.7459-0.65673-0.45932-0.13447-0.68699 0.135-1.5214 1.8007-0.53966 1.0774-0.9812 2.0372-0.9812 2.1331 0 0.0959 0.38695 0.1816 0.8599 0.19054 0.47294 9e-3 1.6933 0.17419 2.712 0.36721 2.9406 0.55721 3.271 0.52692 3.4611-0.31732zm-8.4549-2.9517 1.0916-2.3459-2.1121-0.94984-2.112-0.94985-1.5166 1.167c-1.71 1.3158-2.9843 2.6835-3.5881 3.8511-0.22474 0.43459-0.37579 0.80036-0.33568 0.81282 0.42194 0.13097 5.3821 0.70653 6.2906 0.72995l1.1906 0.0307zm6.7589-15.544c0.63257-0.57246 0.6224-1.7296-0.0187-2.1299-0.70931-0.44296-1.2836-3.712-0.90278-5.1388 0.15221-0.57027 0.17596-1.0992 0.0528-1.1753-0.12319-0.0761-1.8636-0.0144-3.8675 0.13731-2.0039 0.15166-3.7236 0.27623-3.8214 0.27682-0.24249 1e-3 -0.66911 1.4534-0.8755 2.9796-0.14483 1.071-0.0987 1.2819 0.30931 1.4142 1.997 0.64733 3.6406 1.4123 5.1359 2.3903 2.6628 1.7416 3.2406 1.9221 3.9879 1.2458zm-35.285-1.2158c-0.29069-0.76399-0.59409-2.2523-0.67423-3.3073l-0.14571-1.9182h-1.1118c-0.61148 0-2.2016 0.0774-3.5337 0.17191-2.3837 0.1692-2.4219 0.1827-2.4219 0.85566 0 0.37606 0.493 1.7212 1.0956 2.9891 1.2453 2.6205 1.0042 2.4945 4.8983 2.5583l2.422 0.0396zm8.4612 0.87915c0.53992-0.14315 1.8485-0.45789 2.908-0.69943 1.5508-0.35352 1.9009-0.52349 1.7958-0.87168-0.38275-1.2675-0.66724-2.9456-0.67297-3.9696l-7e-3 -1.1558-5.1745 0.10641c-4.165 0.0857-5.2256 0.18211-5.4364 0.49439-0.40925 0.60631-0.0335 3.0463 0.76051 4.9378l0.7223 1.7208 2.061-0.15133c1.1336-0.0832 2.5028-0.26845 3.0427-0.4116zm37.803-2.2818 0.83812-1.5556-1.3673-0.42975c-0.75201-0.23637-2.5579-0.97674-4.0131-1.6453-3.4622-1.5905-3.977-1.7122-4.3439-1.0266-0.15748 0.29425-0.28632 1.061-0.28632 1.7038 0 0.90418 0.16472 1.3504 0.7276 1.971 0.40019 0.4412 1.1213 1.2923 1.6024 1.8913 0.48116 0.59903 0.99119 1.0891 1.1334 1.0891 0.14221 0 0.50443-0.41672 0.80494-0.92604 0.44779-0.75895 0.70291-0.92604 1.4139-0.92604 0.99943 0 1.5276 0.50699 1.5276 1.4663 0 0.62185 0.0412 0.64433 0.56223 0.30719 0.30924-0.20008 0.9394-1.0638 1.4004-1.9194zm-55.911 0.64542c-1.5982-3.1818-1.4574-6.6607 0.42318-10.456 0.58947-1.1896 1.0718-2.2208 1.0718-2.2916 0-0.0708-0.44649-0.20764-0.99219-0.30411-0.5457-0.0965-2.4209-0.57669-4.1672-1.0672s-4.3048-1.2053-5.6856-1.5886-4.0597-1.4458-5.9531-2.3613c-3.7458-1.8111-3.8675-1.916-8.7342-7.5251-3.8694-4.4596-6.7951-6.3096-10.866-6.8706-8.6725-1.1953-14.402 4.2418-14.402 13.667 0 3.2469 0.5246 4.7477 2.3478 6.717 2.5263 2.7287 4.3307 3.2454 12.685 3.6328 5.7224 0.26532 6.3403 0.37668 10.83 1.9517 1.4916 0.52328 2.712 0.89832 2.712 0.83342 0-0.22344-2.2025-1.2411-3.5474-1.6391-2.1176-0.62663-8.0137-3.5368-10.619-5.2411-4.1771-2.7328-6.2407-5.2809-7.9459-9.811-0.73006-1.9396-0.68601-2.8832 0.14693-3.1475 0.90983-0.28877 1.4032 0.27592 2.3007 2.6336 0.48025 1.2615 1.3146 2.9587 1.8542 3.7716 1.9854 2.9912 8.3515 6.84 15.262 9.2274 0.99986 0.34541 2.578 1.0531 3.507 1.5726 1.786 0.99877 5.4214 3.8013 5.9969 4.6229 0.18782 0.26815 1.5868 0.96112 3.1088 1.54 1.522 0.57882 3.4452 1.3523 4.2739 1.7188 0.82863 0.36651 2.3764 0.86641 3.4396 1.1109s2.0521 0.4827 2.1976 0.52937c0.14552 0.0467 0.52756 0.0942 0.84898 0.10574l0.58439 0.0209zm31.316-1.7377 1.643-0.15929 0.16516-1.2195c0.0908-0.67072 0.22828-1.4455 0.30545-1.7216 0.12386-0.4433 0.0371-0.48151-0.7404-0.32601-0.48439 0.0969-2.4625 0.25201-4.3959 0.34473l-3.5152 0.16858v1.0324c0 0.56784 0.12898 1.5447 0.28663 2.1707l0.28662 1.1383 2.1608-0.63451c1.1884-0.34898 2.9001-0.70619 3.8038-0.79381zm30.239-3.2246 1.4552-0.16747 0.1658-1.5875c0.0912-0.87313 0.24997-1.7886 0.35284-2.0344 0.21372-0.51061 0.12836-0.53019-4.467-1.0249-1.5895-0.17113-3.2204-0.4059-3.6242-0.52172-0.50417-0.14459-0.82486-0.10137-1.0235 0.13792-0.15907 0.19167-0.61176 0.42801-1.006 0.5252-0.99511 0.24532-3.7595 1.4983-3.7595 1.704 0 0.2478 4.8953 2.3357 7.1589 3.0534 1.5084 0.47826 2.1015 0.55757 2.6208 0.35054 0.36919-0.14717 1.3261-0.34295 2.1265-0.43505zm10.344-0.84695c1.6823-1.1979 0.3983-2.2907-3.4353-2.9238-1.6234-0.2681-1.9679-0.2594-2.1694 0.0548-0.43505 0.67836-0.7581 2.1832-0.6021 2.8048 0.14752 0.58779 0.2556 0.61143 2.7959 0.61143 2.2474 0 2.7574-0.0818 3.4109-0.54719zm-63.692-1.0132 1.2888-0.15939 0.75454-2.1167c0.415-1.1642 0.75776-2.206 0.76169-2.3151 4e-3 -0.10915-0.67746-0.19934-1.5142-0.20044-1.4324-2e-3 -4.4012-0.37791-5.4223-0.68679-0.33098-0.10013-0.41816-0.027-0.30848 0.25883 0.0841 0.21912-0.27016 1.2687-0.78722 2.3324-0.51705 1.0637-1.0183 2.2697-1.1139 2.68l-0.17379 0.74601 2.613-0.18974c1.4372-0.10436 3.193-0.26147 3.9018-0.34914zm14.33-1.2839c0.0908-0.54571 0.45037-1.8707 0.79896-2.9444l0.63381-1.9522-1.1177 0.16898c-4.0038 0.60529-6.8354 0.94758-7.8761 0.95205-1.1614 5e-3 -1.2116 0.0387-1.4824 0.99735-0.15418 0.54571-0.53422 1.6173-0.84455 2.3812l-0.56423 1.3891h10.287zm10.629 0.30535c0.83947-0.21865 1.6089-0.54509 1.7098-0.72541s0.83526-1.2163 1.6319-2.3021c0.96714-1.3182 1.345-2.0332 1.1372-2.1518-0.61297-0.34986-6.1828-0.71863-8.5438-0.56567l-2.4066 0.15592-0.8318 2.6749c-1.2376 3.98-1.4276 3.712 2.478 3.495 1.8145-0.10082 3.9859-0.3622 4.8254-0.58086zm14.047-1.6564c0.44551-0.31723 1.2977-0.85378 1.8937-1.1923l1.0837-0.61555-4.0417-0.46355c-2.2229-0.25495-4.5317-0.55276-5.1307-0.6618-0.97352-0.17723-1.0757-0.14705-0.96281 0.28447 0.0797 0.30464-0.27504 0.962-0.96148 1.7819-0.59824 0.71453-1.0877 1.3606-1.0877 1.4358 0 0.0751 1.8893 0.10764 4.1985 0.0722 3.8323-0.0587 4.2692-0.11465 5.0085-0.64112zm-37.48-5.1313c-0.29878-0.47295-1.3523-1.7874-2.3411-2.921-1.5458-1.7722-1.8906-2.0404-2.4593-1.9134-0.3638 0.0812-2.9236 0.21662-5.6885 0.30085-3.7174 0.11325-5.9206 0.0462-8.4568-0.25723-1.8864-0.2257-3.4808-0.35932-3.5432-0.29693-0.2296 0.2296 2.5595 1.254 5.5177 2.0266 1.6735 0.43705 4.3524 1.1891 5.9531 1.6712 1.6007 0.48209 3.6248 1.0214 4.4979 1.1984 3.1275 0.63411 5.3062 0.99487 6.1775 1.0229l0.88588 0.0285zm11.16 0.0695c1.5752-0.26603 2.925-0.54477 2.9997-0.61941 0.20969-0.20969-0.4351-3.0955-0.95604-4.2787-0.73088-1.6602-2.9263-4.4269-3.2828-4.137-0.61007 0.49622-5.2958 2.0132-9.9277 3.2141l-1.1591 0.30051 0.92896 0.97266c1.6887 1.7682 3.4168 4.351 3.2747 4.8945-0.12743 0.48729-0.0148 0.50151 2.5625 0.32341 1.4827-0.10246 3.9846-0.40396 5.5598-0.66999zm-18.042-6.8825h1.0117l-1.6482-2.051c-0.9065-1.1281-1.928-2.6579-2.27-3.3995l-0.62177-1.3485-4.6699-0.16907c-2.5684-0.093-5.1084-0.27529-5.6444-0.40511l-0.97454-0.23603-0.15085 1.6218c-0.083 0.89199-0.18021 2.4502-0.21609 3.4627l-0.0652 1.8409 1.2357 0.21223c2.3436 0.4025 7.503 0.69664 10.249 0.58427 1.5142-0.062 3.2084-0.11267 3.7649-0.11267zm8.4718-1.6885c4.7689-1.4566 6.4348-2.0764 6.4851-2.4125 0.0218-0.14552-1.7353-1.6618-3.9046-3.3696-2.1694-1.7078-3.9443-3.0042-3.9443-2.8811 0 0.44951-5.088 2.5284-7.4953 3.0624l-0.74841 0.16604 0.61612 1.0425c1.0139 1.7155 4.2875 5.527 4.758 5.5397 0.24077 7e-3 2.1458-0.50983 4.2333-1.1475zm-26.132-1.0235c0.0776-0.76399 0.20835-2.2915 0.29057-3.3944l0.14948-2.0054-2.8314-1.037c-3.2407-1.1869-5.7306-2.7358-8.5313-5.307l-1.9561-1.7959-2.4756 1.2877c-1.3616 0.70826-2.4756 1.3728-2.4756 1.4769 0 0.10401 0.56554 0.34237 1.2568 0.52968 3.4062 0.92301 7.1486 3.9489 11.042 8.9276 1.0971 1.4031 1.3291 1.5585 3.1087 2.0825 1.0577 0.31144 2.0038 0.57933 2.1025 0.59532 0.0987 0.016 0.24289-0.59601 0.32048-1.36zm13.285-7.5406c-0.0962-0.5457-0.40644-2.5271-0.68939-4.403-0.28296-1.876-0.54724-3.4374-0.58729-3.4699-0.0401-0.0325-1.8811-0.12545-4.0912-0.2066l-4.0184-0.14754-0.13498 0.70704c-0.0742 0.38887-0.20561 1.8381-0.29195 3.2206-0.0863 1.3824-0.22027 2.9493-0.29762 3.4818-0.12224 0.84162-0.0603 0.9939 0.47389 1.1643 0.84992 0.27116 4.3592 0.56202 7.3299 0.60753l2.482 0.038zm6.3572-0.38202c1.1827-0.423 2.3734-0.94075 2.6458-1.1506 0.46703-0.35963 0.40007-0.46691-1.1697-1.874-2.0069-1.7989-2.5475-2.7349-2.3377-4.0469l0.15312-0.95757-4.5408 0.49895 0.16689 1.3433c0.0918 0.73883 0.41395 2.6774 0.71591 4.308l0.54902 2.9647 0.83347-0.15837c0.4584-0.0871 1.8012-0.50446 2.9839-0.92745zm-18.53-3.9924c0.33937-4.0397 0.31543-4.1444-0.951-4.1567-0.3638-4e-3 -1.9668-0.30253-3.5622-0.66441l-2.9007-0.65797-1.0141 0.81492c-0.55773 0.4482-1.4907 1.0857-2.0733 1.4166l-1.0592 0.60166 1.5345 1.3121c2.3206 1.9844 3.2267 2.614 5.0962 3.5414 1.8764 0.93085 4.3075 1.8292 4.4948 1.6609 0.0655-0.0588 0.26126-1.7996 0.43506-3.8684zm10.955-8.0686v-2.0582l-2.4474-0.35439c-1.3461-0.19491-2.6773-0.37006-2.9583-0.38922-0.40035-0.0273-0.6997 0.42323-1.3833 2.0818-0.47981 1.1642-0.87498 2.2011-0.87816 2.3044-5e-3 0.17124 1.407 0.26985 6.0135 0.41987l1.6536 0.0538zm7.1868 1.3515c0.91583-0.13926 1.0223-0.26363 1.9353-2.261 0.53137-1.1625 0.90685-2.1729 0.83439-2.2453-0.0725-0.0725-0.93426 0.0695-1.9151 0.3155-0.98085 0.24599-2.6556 0.51323-3.7218 0.59386l-1.9384 0.1466v3.9607l1.9182-0.18153c1.055-0.0998 2.3543-0.24785 2.8874-0.3289zm-16.611-1.6746c0.33163-0.94588 0.79677-2.091 1.0336-2.5448l0.43069-0.82499-1.6643-0.70733c-0.91537-0.38904-2.607-1.292-3.7591-2.0067l-2.0948-1.2993-0.14308 2.964c-0.0944 1.9546-0.29827 3.3157-0.59879 3.9968-0.25064 0.56805-0.38939 1.0991-0.30835 1.1802 0.28755 0.28755 4.5055 1.0663 5.4954 1.0146 0.98759-0.0516 1.0164-0.0833 1.6086-1.7723zm16.039-4.8644c0.80036-0.19445 2.1418-0.57111 2.9811-0.83703 1.4891-0.47183 1.5355-0.51574 1.9262-1.8228 0.71179-2.3816 0.90943-4.6408 0.63663-7.2776-0.14167-1.3693-0.30822-2.5403-0.37013-2.6022-0.0619-0.0619-0.18949 0.3461-0.28354 0.90667-0.29331 1.7483-0.88912 3.6307-1.4225 4.4943-2.0048 3.2456-5.9299 3.0966-6.3059-0.23939-0.19013-1.6868 0.46448-3.3883 2.2628-5.8815 1.1884-1.6475 1.825-2.2684 2.8723-2.8011l1.3456-0.68445-1.8714-2.4906c-3.75-4.9906-6.2911-6.8975-10.165-7.628-3.3108-0.62429-6.563 1.0546-10.729 5.5385-3.3917 3.6508-4.437 7.1519-3.8057 12.746 0.17555 1.5558 0.37581 2.8732 0.44501 2.9276 0.0692 0.0544 1.1283 0.73347 2.3536 1.509 3.9462 2.4978 7.4808 3.9414 11.012 4.4975 1.9886 0.31319 7.2024 0.10997 9.1178-0.35538zm-10.848-5.4232c-2.6242-0.8565-3.9095-2.1253-6.378-6.2961-1.7535-2.9627-1.8787-3.7991-0.65219-4.3579 0.62371-0.28418 1.9006 0.24167 8.0332 3.3083 3.377 1.6887 4.7384 3.6095 3.9298 5.5447-0.21486 0.51423-0.70502 1.1409-1.0892 1.3927-0.78704 0.51569-2.8448 0.73427-3.8435 0.40829zm1.6058-3.172c-0.14571-0.27226-1.2317-0.99801-2.4134-1.6128-2.2839-1.1882-2.5106-0.97737-0.73545 0.68389 1.1478 1.0742 1.7752 1.406 2.6769 1.4159 0.63884 7e-3 0.70165-0.05784 0.47199-0.48697zm10.024 0.1865c0.54553-0.89706 1.2218-3.3324 0.98976-3.5644-0.30848-0.30848-2.0361 2.6941-2.0361 3.5386 0 1.0917 0.39228 1.1013 1.0464 0.02574zm77.418 184.13c-0.60061-1.9832-1.6545-17.327-1.264-18.403 0.0688-0.18959 0.37505-0.30865 0.68046-0.26458 0.73882 0.10662 0.90276 1.1292 1.2218 7.6208 0.3155 6.4193 0.48971 7.1813 1.0585 4.6302 0.37134-1.6656 0.48156-1.8601 1.0948-1.9318 0.59911-0.07 0.79854 0.13887 1.6417 1.7198l0.95977 1.7995 8e-3 -6.4335c5e-3 -3.9135 0.11496-6.634 0.28156-6.9453 0.33043-0.61741 1.1946-0.67426 1.4176-0.0933 0.20965 0.54635 0.20965 17.402 0 17.948-0.0883 0.23018-0.44853 0.41851-0.80043 0.41851-0.53614 0-0.78393-0.31089-1.5289-1.9182-0.48898-1.055-1.0588-2.1387-1.2663-2.4082-0.35037-0.45513-0.40171-0.40804-0.72124 0.66146-0.92331 3.0904-1.3573 3.9296-2.0322 3.9296-0.35791 0-0.69582-0.14882-0.75091-0.33073zm13.604-0.34795c-0.14192-0.37327-0.25804-1.0745-0.25804-1.5583 0-1.4402-0.79642-5.1981-1.3166-6.2122-0.2662-0.51898-0.80982-1.2412-1.208-1.605l-0.72404-0.66146 0.16203 1.4552c0.32613 2.9291 0.5113 7.356 0.33677 8.0514-0.13717 0.54652-0.31685 0.69466-0.76522 0.63091-0.53962-0.0767-0.59998-0.27164-0.7633-2.4646-0.0975-1.3097-0.30242-3.9291-0.4553-5.8208s-0.28144-4.6439-0.28568-6.1159c-7e-3 -2.314 0.0665-2.7707 0.54065-3.3734 0.47845-0.60824 0.74172-0.69714 2.0647-0.69714 1.7564 0 3.9169 0.92946 4.8203 2.0737 0.85456 1.0824 0.59421 2.9539-0.58297 4.1905-0.49351 0.51845-1.2731 1.104-1.7325 1.3012l-0.83516 0.35855 0.89189 1.7927c0.72196 1.4512 0.97171 2.4091 1.3108 5.0277 0.30804 2.3787 0.34308 3.3766 0.1324 3.7703-0.39502 0.7381-1.0234 0.67053-1.3328-0.14332zm-0.60314-12.539c0.46503-0.28355 1.0443-0.81889 1.2872-1.1896 0.41294-0.63023 0.41253-0.71857-6e-3 -1.3577-0.51353-0.78374-2.3124-1.6832-3.3832-1.6918l-0.72761-6e-3v4.7625l0.99219-9.9e-4c0.5457-5.4e-4 1.3727-0.23298 1.8377-0.51653zm4.7548 13.041c-0.097-0.097-0.17638-0.38193-0.17638-0.63315 0-0.47578 0.506-0.77796 1.3027-0.77796 0.42181 0 0.48203-0.46745 0.63907-4.9609 0.0954-2.7285 0.17371-6.2438 0.17412-7.8118l7.5e-4 -2.8509-0.77683-0.15537c-0.93631-0.18726-1.2025-0.7247-0.63835-1.2888 0.32563-0.32563 0.90423-0.39812 2.7007-0.33838 2.2421 0.0745 2.2863 0.0888 2.2863 0.73748 0 0.55287-0.14117 0.67507-0.8599 0.74437l-0.85989 0.0829v2.5865c0 1.4226-0.0784 4.9274-0.17422 7.7884l-0.17422 5.2019h0.72078c1.6072 0 2.3471 1.1068 1.0656 1.594-0.76161 0.28956-4.9569 0.35505-5.2304 0.0816zm10.416-0.33522c-0.16575-0.3097-0.26954-2.7935-0.26301-6.2938 6e-3 -3.1802-0.0709-6.7612-0.17065-7.9578l-0.18144-2.1756-1.7477 0.0689c-1.6156 0.0637-1.7538 0.0257-1.8292-0.50366-0.0958-0.67259 0.0794-0.744 3.1518-1.2847 2.9906-0.5263 5.6234-0.51828 6.0689 0.0185 0.54965 0.66228-0.20214 1.1501-2.0739 1.3458l-1.6512 0.17259 0.17824 7.9724c0.18296 8.1836 0.0954 9.1491-0.82977 9.1491-0.20804 0-0.50147-0.23022-0.65207-0.51161zm6.4966 0.0812c-0.23166-0.60369 0.31039-1.1571 1.1331-1.1569l0.6952 1.7e-4 1e-3 -2.7122c7.2e-4 -1.4917 0.10828-4.996 0.23902-7.7873l0.23771-5.0752-0.90007-0.23324c-0.95478-0.2474-1.3534-1.0248-0.72847-1.4208 0.19622-0.12435 1.3244-0.22792 2.5072-0.23015 1.5925-3e-3 2.2359 0.0989 2.4798 0.39283 0.46712 0.56284-0.108 1.1906-1.0907 1.1906h-0.76136l-9.7e-4 4.0349c-5.3e-4 2.2192-0.0786 5.7315-0.17345 7.8052l-0.17248 3.7703h0.91428c0.99703 0 1.5493 0.38511 1.5493 1.0804 0 0.59703-0.75493 0.76378-3.4774 0.76808-1.87 3e-3 -2.3169-0.0748-2.452-0.4268zm14.562-0.42842c-0.85934-1.1266-1.6249-2.8782-3.1789-7.2729-0.681-1.9258-1.4638-4.0094-1.7396-4.6302l-0.50141-1.1287-0.0537 2.5135c-0.0295 1.3824-0.12724 4.359-0.21712 6.6146-0.15422 3.8702-0.19321 4.101-0.69259 4.101-0.48622 0-0.54634-0.24694-0.74082-3.0427-0.23432-3.3686 0.1806-13.03 0.60786-14.153 0.19133-0.50324 0.4231-0.67618 0.82479-0.61543 0.45446 0.0687 0.76926 0.67679 1.6875 3.2595 2.3161 6.5145 4.0634 11.046 4.3723 11.339 0.24821 0.23565 0.2775-1.277 0.13262-6.8481-0.18014-6.9272-0.16925-7.171 0.34874-7.8052 1.042-1.2758 1.1594-0.57809 1.2771 7.5936 0.0806 5.5935 0.0189 8.0493-0.23133 9.2116-0.4119 1.9131-0.91876 2.1441-1.8954 0.8637zm5.8928 0.26003c-0.49446-0.32934-1.1028-1.014-1.3519-1.5214-0.59299-1.2079-0.99743-4.8622-1.0001-9.0366-3e-3 -4.0248 0.36104-5.1198 2.2535-6.7856 1.1969-1.0536 1.7745-1.2573 3.3006-1.1644 1.9022 0.11587 3.2587 2.089 3.2882 4.783 0.0164 1.501-0.0495 1.7548-0.47838 1.8407-0.602 0.12054-0.94825-0.36457-0.9537-1.3362-6e-3 -1.0278-0.77539-2.819-1.3414-3.1219-0.95064-0.50877-1.9661-0.29103-2.8123 0.60303-1.316 1.3903-1.4072 1.7604-1.3979 5.6712 0.0109 4.5838 0.32302 7.1012 0.99161 7.9967 0.42842 0.57382 0.72217 0.68583 1.7986 0.68583 1.1067 0 1.3333-0.0925 1.6212-0.66146 0.18405-0.3638 0.3364-1.349 0.33854-2.1894 4e-3 -1.4966-0.0128-1.5313-0.81259-1.6913-0.87793-0.17559-1.2763-0.74693-0.83117-1.1921 0.32386-0.32386 3.8312-0.75023 4.5739-0.55602 0.31692 0.0829 0.51337 0.3629 0.51337 0.73177 0 0.45226-0.19299 0.63613-0.79375 0.75628-0.78747 0.1575-0.7938 0.17293-0.79957 1.9513-7e-3 2.211-0.67117 3.8307-1.8123 4.4208-1.2028 0.622-3.2132 0.53568-4.2943-0.18438zm25.589 0.38251c-0.0838-0.1356-0.2326-2.1069-0.33064-4.3808l-0.17826-4.1342h-5.4923l0.13393 1.2568c0.569 5.3393 0.46051 6.4162-0.64641 6.4162-0.62922 0-0.75545-0.57772-1.0696-4.8948-0.14825-2.0373-0.38363-4.7162-0.52308-5.9531-0.40929-3.6304-0.33635-6.7492 0.16762-7.1675 0.7516-0.62377 1.0435 0.30288 1.3937 4.4246 0.18262 2.1492 0.40093 4.0192 0.48514 4.1555 0.1584 0.2563 5.2868 0.0804 5.5578-0.19064 0.0818-0.0818-1e-3 -1.6106-0.18422-3.3973-0.42621-4.158-0.35273-4.836 0.52415-4.836 0.62713 0 0.66986 0.0961 0.82346 1.8521 0.6516 7.4493 0.78794 9.9724 0.71486 13.229-0.0799 3.5617-0.10505 3.7073-0.65346 3.7854-0.31369 0.0447-0.63892-0.0297-0.72272-0.16528zm7.0634-0.11444c-0.11773-0.1819-0.21785-2.6524-0.2225-5.4901-5e-3 -2.8377-0.0344-6.5109-0.0661-8.1628l-0.0577-3.0034-1.8502 0.18581c-1.5697 0.15764-1.875 0.12109-2.014-0.2411-0.0901-0.2348-0.0304-0.58772 0.13276-0.78427 0.41567-0.50084 5.3686-1.2869 7.4355-1.18 1.6344 0.0845 1.7198 0.12177 1.7198 0.75036 0 0.62329-0.11238 0.67571-1.9476 0.90833l-1.9475 0.24686 0.22447 3.5896c0.22463 3.5922 0.17886 12.176-0.0696 13.048-0.15219 0.53414-1.0217 0.62014-1.3374 0.13229zm14.382 0.15434c-0.097-0.097-0.1769-3.401-0.17752-7.3422l-1e-3 -7.1658-0.77114 1.1623c-0.42412 0.63929-0.96924 1.6811-1.2114 2.3151-0.35568 0.93134-0.56597 1.1528-1.0948 1.1528-0.53432 0-0.76868-0.25515-1.2759-1.3891-0.3789-0.84701-0.67138-1.2342-0.74951-0.99218-0.17414 0.53939-0.98578 9.131-0.98729 10.451-2e-3 1.2895-0.29244 1.8026-0.95086 1.6768-0.42875-0.0819-0.50825-0.38437-0.57558-2.1895-0.043-1.152 0.10586-4.2079 0.33073-6.791 0.22486-2.5831 0.40884-5.4563 0.40884-6.3849 0-3.321 1.2251-3.4473 2.6233-0.27052 0.49695 1.1291 0.98107 2.1441 1.0758 2.2556 0.0948 0.11149 0.91812-1.0494 1.8297-2.5797 1.3424-2.2536 1.7737-2.7824 2.2693-2.7824 0.33653 0 0.68415 0.18833 0.77248 0.41852 0.28647 0.74653 0.18128 17.569-0.1133 18.12-0.26758 0.49999-1.05 0.68718-1.4018 0.33538zm3.4132-0.0595c-0.0802-0.12975-0.2671-1.9334-0.41536-4.0081-0.28517-3.9905 0.0703-14.188 0.50989-14.627 0.12563-0.12562 0.44942-0.18593 0.71953-0.13403 0.46268 0.0889 0.49933 0.58469 0.63276 8.5576 0.0779 4.6548 0.16719 8.493 0.19844 8.5294 0.0312 0.0364 1.4163 0.0661 3.0779 0.0661 3.4649 0 3.8581 0.0944 3.8581 0.92604 0 0.33267-0.18833 0.67711-0.41851 0.76544-0.6626 0.25427-8.0009 0.18657-8.1627-0.0753zm11.545-0.0816c-0.17462-0.17462-0.3175-0.56753-0.3175-0.87312 0-1.1692 1.3875-1.6134 2.208-0.70677 0.82515 0.91179 0.36542 1.8974-0.88504 1.8974-0.37835 0-0.83079-0.14287-1.0054-0.3175zm7.685 0.0121c-0.46972-0.46972-0.40759-1.1295 0.15426-1.638 1.0294-0.9316 2.2722-0.3043 2.115 1.0675-0.0733 0.6391-0.21557 0.7546-1.0124 0.82184-0.50995 0.043-1.0755-0.0701-1.2568-0.25135zm7.8753-0.088c-0.49378-0.59496-0.10943-1.6864 0.66205-1.88 0.36126-0.0907 0.83215-0.0976 1.0464-0.0154 0.45149 0.17326 0.79712 1.3112 0.57448 1.8914-0.20034 0.52206-1.8506 0.52497-2.283 4e-3zm-169.01-15.532c-1.0051-1.5005-2.6351-4.199-3.6223-5.9968-1.7648-3.2136-1.7896-3.2863-1.4793-4.322 0.26516-0.88502 0.51381-1.142 1.555-1.6072 1.0457-0.46724 1.7814-0.55623 4.7083-0.56952 3.7269-0.0169 4.3363 0.16586 4.3363 1.3007 0 1.0293-0.57053 1.2447-2.8288 1.068-1.1363-0.0889-2.8286-0.0679-3.7607 0.0466l-1.6946 0.20828 1.5624 1.0898c2.8782 2.0076 5.3982 2.9605 11.484 4.3424 7.5965 1.7249 9.4255 2.0058 16.486 2.5318 2.048 0.15257 2.0651 0.15995 1.9844 0.8575-0.0776 0.67093-0.16125 0.70757-1.8012 0.78905-2.1973 0.10917-5.7653-0.3237-10.451-1.2679-2.0373-0.41052-4.5971-0.88738-5.6885-1.0597-3.5385-0.55861-8.4503-1.8648-10.465-2.783l-1.9676-0.89667 0.43568 0.84425c0.23963 0.46434 1.3863 2.2638 2.5482 3.9989 2.1944 3.277 2.3471 3.876 1.0382 4.0714-0.44001 0.0657-0.92096-0.46921-2.3789-2.6458zm150.84-1.1766c-0.38126-0.99357 0.25265-1.2757 3.5652-1.5868 4.0754-0.38267 6.5507-0.93753 10.508-2.3555 8.4311-3.0209 14.423-6.3568 21.828-12.153 5.5275-4.3262 12.898-9.4014 13.653-9.4014 0.4885 0 0.92327 0.68758 0.73878 1.1684-0.0932 0.24292-0.66082 0.68996-1.2613 0.99342-2.2616 1.1428-8.8574 5.8186-14.85 10.527-3.3454 2.6286-8.5995 6.1025-11.185 7.3953-2.9567 1.4784-8.788 3.8164-11.194 4.4881-4.5216 1.2623-11.464 1.8058-11.803 0.9239zm-74.734-6.3194c-1.3922-0.75627-2.6403-4.886-1.71-5.6581 0.66465-0.55161 1.122-0.17205 1.4568 1.2092 0.47803 1.9717 0.83257 2.7021 1.3989 2.8819 1.0943 0.34731 2.6718-2.0767 2.7088-4.1624 0.0299-1.6827-0.6223-2.4931-3.0502-3.7902-3.3724-1.8018-3.6782-2.1696-3.6689-4.4144 0.015-3.6366 2.8537-5.7913 5.5023-4.1765 1.6771 1.0225 2.5532 4.5105 1.182 4.7055-0.45678 0.065-0.62261-0.0809-0.7522-0.66146-0.31304-1.4025-0.38855-1.5785-0.92413-2.1533-1.5327-1.6452-4.0891 0.88941-3.1598 3.1328 0.23787 0.57427 0.89762 1.0636 2.6642 1.976 2.6595 1.3736 3.5205 2.298 3.9753 4.2681 0.25163 1.0901 0.23087 1.5776-0.11834 2.7789-1.0004 3.4414-3.3956 5.2097-5.5046 4.0641zm9.7399-0.3896c-2.5402-2.2303-3.5039-8.7046-2.062-13.852 0.55461-1.98 1.7617-3.5057 3.3818-4.2745 0.79538-0.37744 0.94854-0.37736 1.6798 7.9e-4 1.1548 0.5972 2.3122 2.3351 2.9471 4.4255 0.47539 1.5651 0.53711 2.3401 0.4543 5.7044-0.0904 3.6726-0.13629 3.9608-0.80977 5.0839-0.39267 0.65484-1.2425 1.7562-1.8885 2.4474-1.4441 1.5452-2.3438 1.6582-3.7028 0.46495zm2.654-2.1847c1.5152-1.5966 1.7744-2.4142 1.8858-5.9488 0.0855-2.712 0.0135-3.5282-0.44377-5.0337-0.6427-2.1159-1.866-3.5476-2.6269-3.0743-1.4661 0.91182-2.322 3.9298-2.2794 8.0375 0.0261 2.5178 0.58542 4.6704 1.6327 6.2838 0.52028 0.8015 0.86746 0.75134 1.8316-0.26458zm8.4159 2.4843c-1.1268-0.696-1.6081-1.306-2.3447-2.9716-1.0183-2.3026-1.3155-5.0332-1.1029-10.134 0.10246-2.4585 0.25064-4.6377 0.32929-4.8426 0.0786-0.20496 0.39574-0.33659 0.70464-0.29252 0.54948 0.0784 0.56477 0.2147 0.70647 6.2978 0.13125 5.634 0.20095 6.3595 0.74251 7.7281 0.77325 1.9541 1.8211 2.8552 3.3202 2.8552 0.86575 0 1.2713-0.15661 1.7642-0.68123 0.63207-0.67281 0.64326-0.77561 0.90602-8.3216 0.17575-5.0477 0.36873-7.7429 0.56866-7.9426 0.16644-0.16618 0.52363-0.25992 0.79375-0.20831 0.64326 0.12289 0.71932 1.9936 0.41231 10.142-0.25402 6.7424-0.39217 7.3173-1.9965 8.3088-1.1845 0.73208-3.6675 0.76435-4.8038 0.0624zm15.882 0.0649c-0.73167-0.73168-1.8684-3.2449-3.4408-7.6077-2.3191-6.4343-2.1431-6.185-2.3462-3.3233-0.0954 1.3441-0.17346 4.1421-0.17346 6.2179 0 2.0758-0.0723 3.9625-0.1606 4.1927-0.24552 0.63983-0.88041 0.49852-1.1689-0.26017-0.4923-1.2948-0.14447-15.014 0.42722-16.85 0.0835-0.26805 0.40495-0.46302 0.76349-0.46302 0.51791 0 0.70365 0.24916 1.1341 1.5214 0.28312 0.83675 1.5144 4.2003 2.7363 7.4745l2.2215 5.9531 0.13229-7.4844c0.11074-6.265 0.19695-7.5252 0.52916-7.7348 0.21829-0.13768 0.51594-0.21296 0.66146-0.16728 0.54071 0.1697 0.85143 14.125 0.37243 16.727-0.40213 2.1843-0.83989 2.6522-1.688 1.8041zm3.7118-0.16069c-0.34956-0.49906-0.41153-1.7302-0.40958-8.1359 1e-3 -4.1514 0.0774-8.173 0.16914-8.937l0.16685-1.3891h1.0951c1.5957 0 4.5231 1.4886 5.9216 3.0112 1.8412 2.0046 2.2834 3.2603 2.2936 6.5138 0.0103 3.2746-0.14515 3.6531-2.5596 6.2341-2.6233 2.8044-5.7263 4.0604-6.6771 2.7029zm4.9706-3.6132c1.7028-1.6045 2.5496-3.3378 2.5525-5.2244 5e-3 -3.4509-1.7368-5.9718-5.0908-7.3668l-0.99219-0.41267v15.403l1.2568-0.72061c0.69123-0.39634 1.7144-1.1518 2.2736-1.6788zm8.5385 3.6487c-0.88181-0.69363-1.4065-1.6982-1.7685-3.3862-0.306-1.4268-0.0285-2.4113 0.67973-2.4113 0.47045 0 0.75894 0.55342 1.1724 2.249 0.33357 1.368 0.91609 2.249 1.4871 2.249 0.58288 0 1.8676-1.7292 2.2201-2.9882 0.69486-2.4818-0.0506-3.6719-3.3222-5.3038-2.5212-1.2576-3.2771-2.1755-3.2771-3.9795 0-1.7452 1.0483-3.9771 2.1308-4.5369 1.0364-0.53597 2.3376-0.48618 3.3449 0.12799 1.049 0.63964 1.5722 1.4222 1.865 2.7898 0.30686 1.4334 0.15183 1.9844-0.55836 1.9844-0.47225 0-0.64944-0.23277-0.90526-1.1892-0.79058-2.9559-3.2429-2.9562-4.059-4.1e-4 -0.38216 1.3841 0.2079 2.1196 2.6972 3.3621 4.0052 1.9991 5.1454 4.7255 3.4634 8.281-1.3869 2.9316-3.5073 4.0604-5.1702 2.7524zm-147.36-144.09c-0.77252-0.77251 1.3921-4.5526 5.5048-9.6132 0.88698-1.0914 2.1358-2.6988 2.7752-3.5719 3.4016-4.6452 9.4293-10.786 13.636-13.892 2.8744-2.1222 5.505-3.5758 8.8636-4.8978 1.3824-0.54418 4.0018-1.6988 5.8208-2.5657 1.819-0.86697 3.9006-1.8134 4.6257-2.1033 2.6462-1.0577 15.292-3.5768 16.319-3.2508 0.65394 0.20755 0.67274 1.6181 0.024 1.8021-0.5355 0.15184-1.7346 0.38704-7.7391 1.518-5.5382 1.0431-7.5941 1.6954-12.832 4.071-2.3283 1.0559-5.424 2.4371-6.8792 3.0693-4.6275 2.0104-9.1639 5.4665-15.214 11.591-3.3823 3.424-4.434 4.6669-7.9715 9.4209-3.1321 4.2092-3.8513 5.2838-4.834 7.2231-0.5379 1.0615-0.83725 1.3759-1.3101 1.3759-0.3371 0-0.69228-0.0794-0.78929-0.17639zm203.16-0.49681c-0.7276-0.36115-2.5135-1.0198-3.9688-1.4638-1.4552-0.44393-2.9435-0.95236-3.3073-1.1299-0.78153-0.38132-0.98814-1.2695-0.40742-1.7515 0.49621-0.41182 2.4489 0.0698 5.8975 1.4545 1.2005 0.48207 2.1828 0.83387 2.1828 0.78178 0-0.0521-0.35258-1.0103-0.78351-2.1294-1.0944-2.842-2.5102-5.0917-5.2262-8.3044-5.5567-6.5728-14.263-12.371-26.666-17.758-8.603-3.7367-14.863-5.7127-22.093-6.974-2.9437-0.51352-3.3163-0.63835-3.3889-1.1356-0.12254-0.83917 0.65576-0.94597 3.4105-0.46802 5.9111 1.0256 10.568 2.3771 17.309 5.0231 12.769 5.0124 20.426 9.0051 26.326 13.727 6.4766 5.1834 10.816 10.414 12.466 15.025 0.4646 1.2988 0.9324 2.2667 1.0395 2.1508 0.27629-0.29888 1.2057-4.5598 1.5754-7.2222 0.17175-1.2369 0.43533-2.3978 0.58573-2.5797 0.37476-0.45326 1.132-0.41531 1.5408 0.0772 0.63983 0.77095-1.0356 10.171-2.1351 11.979-0.91338 1.5019-2.2919 1.7228-4.3564 0.6981zm-130.35-20.631c-1.0072-0.5471-1.8807-2.5182-1.9155-4.3225-0.0274-1.4215 3e-3 -1.493 0.62865-1.493 0.58384 0 0.70842 0.18878 1.1124 1.6856 0.45296 1.6784 1.0751 2.68 1.6646 2.68 0.84462 0 2.502-2.8821 2.5128-4.3698 0.0118-1.6143-0.79593-2.5478-3.4304-3.9647-1.3529-0.72765-2.7108-1.6595-3.0175-2.0708-1.1779-1.5795-0.44652-5.1085 1.3532-6.5291 0.60279-0.47583 0.9852-0.55966 2.1261-0.46609 1.5657 0.12841 2.5341 0.82049 3.1409 2.2445 0.46954 1.102 0.47423 2.8857 8e-3 3.0646-0.57157 0.21933-0.89333-0.13697-1.2194-1.3502-0.38233-1.4228-1.1085-2.1689-2.1109-2.1689-0.93371 0-1.7784 0.95543-2.0299 2.296-0.27894 1.4869 0.17269 2.0325 2.8413 3.4329 3.3036 1.7335 4.0675 2.7642 4.0563 5.4725-6e-3 1.4583-0.15024 2.17-0.62518 3.0861-1.4256 2.7495-3.2803 3.7588-5.0955 2.7728zm10.397 0.03772c-1.8257-1.0124-3.213-5.0427-3.213-9.3346 0-2.9536 0.6905-6.2391 1.5712-7.4759 0.73953-1.0386 2.2271-2.1187 3.1806-2.3094 0.7011-0.14022 0.95875-0.0091 1.9573 0.99637 0.69164 0.6964 1.4026 1.7905 1.7838 2.7453 0.58155 1.4564 0.63394 1.9589 0.63456 6.0854 7.9e-4 5.2062-0.18519 5.8188-2.51 8.2682-1.4068 1.4822-2.1668 1.7109-3.4045 1.0246zm2.4229-2.8766c1.4972-1.8526 1.6051-2.2148 1.7227-5.782 0.12056-3.6574-0.22008-5.4748-1.3323-7.1083-1.0056-1.4769-1.3991-1.5825-2.3508-0.63083-1.0638 1.0639-1.5554 2.882-1.7451 6.4543-0.11585 2.1824-0.0496 3.1319 0.30449 4.3656 0.5437 1.8943 1.6161 3.8256 2.1241 3.8256 0.2024 0 0.77696-0.50602 1.2768-1.1245zm8.2548 2.6339c-0.80112-0.45304-1.2632-1.0086-1.9013-2.286-1.2313-2.4648-1.501-4.5849-1.3406-10.536 0.1452-5.3859 0.31408-6.1255 1.2806-5.6082 0.46333 0.24796 0.49587 0.65509 0.48368 6.052-0.0134 5.9203 0.13856 7.1702 1.1009 9.0566 0.92318 1.8096 2.7549 2.5928 4.2244 1.8064 1.0531-0.56363 1.1605-1.239 1.4382-9.0465 0.23349-6.5645 0.33137-7.6585 0.71997-8.0471 0.3884-0.38838 0.51043-0.39936 0.89469-0.08045 0.40651 0.33738 0.42858 1.0438 0.25556 8.1794-0.21297 8.783-0.35097 9.4892-2.0606 10.546-1.2928 0.79898-3.6488 0.78248-5.0956-0.03568zm16.21 0.14418c-0.75222-0.8533-1.9803-3.6052-3.4538-7.7391-0.80397-2.2556-1.6469-4.5178-1.8733-5.0271l-0.41149-0.92604-0.0455 1.5875c-0.3282 11.442-0.35993 11.898-0.8343 11.989-0.9221 0.17639-1.0601-1.0566-0.89734-8.0199 0.16226-6.9432 0.44894-9.8689 1.0004-10.21 0.59898-0.37019 1.1827 0.23375 1.6049 1.6605 0.49094 1.6591 4.1835 11.577 4.8083 12.915 0.40899 0.87566 0.42541 0.53018 0.30178-6.35-0.13633-7.5875-0.0353-8.4841 0.97796-8.6793 0.6074-0.11697 0.68255 0.56377 0.84681 7.6703 0.17869 7.7313-0.24419 11.592-1.2697 11.592-0.19061 0-0.53024-0.20836-0.75473-0.46302zm3.9169 0.04725c-0.36185-0.36185-0.41577-1.5955-0.41577-9.5119 0-10.238-0.10401-9.7509 2-9.3579 2.8609 0.53447 5.9309 2.9105 7.0083 5.424 1.1797 2.7521 1.0966 6.4769-0.18776 8.4177-1.2142 1.8348-3.0488 3.5933-4.7293 4.5331-1.76 0.98422-3.0169 1.1535-3.6755 0.49496zm3.2188-2.5005c1.3495-0.77395 3.1209-2.709 3.9532-4.3187 0.55196-1.0674 0.36776-4.4031-0.32321-5.8532-0.70619-1.482-2.3118-2.9937-4.0012-3.7671-0.79484-0.36389-1.495-0.61174-1.556-0.55078-0.1719 0.1719 0.20954 15.29 0.3857 15.287 0.0857-0.0014 0.7794-0.36006 1.5415-0.7971zm10.613 2.514c-1.0072-0.5471-1.8807-2.5182-1.9156-4.3225-0.0275-1.4215 3e-3 -1.493 0.62865-1.493 0.58384 0 0.70842 0.18878 1.1124 1.6856 0.45297 1.6784 1.0751 2.68 1.6646 2.68 0.84463 0 2.502-2.8821 2.5128-4.3698 0.0118-1.6143-0.79593-2.5478-3.4305-3.9647-1.3529-0.72765-2.7108-1.6595-3.0175-2.0708-1.1779-1.5795-0.44653-5.1085 1.3532-6.5291 0.60279-0.47583 0.98519-0.55966 2.1261-0.46609 1.5657 0.12841 2.5341 0.82049 3.1409 2.2445 0.46954 1.102 0.47423 2.8857 8e-3 3.0646-0.57156 0.21933-0.89332-0.13697-1.2194-1.3502-0.38233-1.4228-1.1085-2.1689-2.1109-2.1689-0.9337 0-1.7784 0.95543-2.0299 2.296-0.27894 1.4869 0.17269 2.0325 2.8413 3.4329 3.3036 1.7335 4.0675 2.7642 4.0563 5.4725-6e-3 1.4583-0.15024 2.17-0.62517 3.0861-1.4256 2.7495-3.2803 3.7588-5.0955 2.7728zm7.6653-0.25816c-0.66372-1.4567 1.6268-2.3808 2.3395-0.94387 0.47468 0.95711 0.0244 1.6043-1.1162 1.6043-0.72674 0-0.98623-0.14008-1.2233-0.66038zm7.9375 0c-0.66372-1.4567 1.6268-2.3808 2.3395-0.94387 0.47468 0.95711 0.0244 1.6043-1.1162 1.6043-0.72674 0-0.98623-0.14008-1.2233-0.66038zm8.2618 0.27807c-0.4111-0.49535-0.26101-1.475 0.2777-1.8124 0.23213-0.14543 0.73634-0.18554 1.1204-0.08914 0.81183 0.20376 1.2117 1.2782 0.70358 1.8905-0.417 0.50246-1.6884 0.50919-2.1017 0.01113zm-87.684-23.634c-0.0795-0.12863-0.22779-2.1-0.32954-4.3808l-0.185-4.1469h-5.4474l0.0517 3.7632c0.0478 3.4772 0.0144 3.7707-0.43942 3.8613-0.81904 0.16353-0.99109-0.29268-1.2409-3.2906-0.13194-1.5833-0.43165-5.0814-0.66601-7.7735-0.48405-5.5602-0.44751-6.8328 0.20796-7.2433 0.76559-0.47949 0.99694 0.09983 1.2626 3.1616 0.13797 1.5901 0.32752 3.5161 0.42122 4.2801l0.17038 1.3891h5.8323l-0.16855-1.7859c-0.50448-5.3454-0.51687-6.5464-0.0714-6.9161 0.31622-0.26244 0.52524-0.28126 0.77955-0.07021 0.53375 0.44298 1.1077 7.5932 1.1077 13.799 0 5.353-7e-3 5.425-0.57035 5.5052-0.31369 0.0447-0.63539-0.02396-0.71488-0.15259zm7.1344-0.21491c-0.0883-0.23018-0.16103-2.4031-0.16157-4.8286-5.3e-4 -2.4256-0.0788-6.111-0.17387-8.1898l-0.17291-3.7797-1.8766 0.07554c-1.7579 0.07076-1.8819 0.03878-1.9593-0.50514-0.0677-0.4759 0.0994-0.62803 0.92604-0.84311 2.1112-0.54929 4.2244-0.82518 6.3206-0.82518 1.7618 0 2.2032 0.08128 2.3372 0.43041 0.28581 0.74482-0.33505 1.0996-2.2634 1.2932l-1.8682 0.18762 0.16327 0.81639c0.32863 1.6431 0.4922 15.104 0.19271 15.859-0.31941 0.80536-1.202 0.99171-1.464 0.30909zm14.552 0c-0.0883-0.23018-0.16324-3.5342-0.16648-7.3422l-6e-3 -6.9237-0.52134 0.66146c-0.28673 0.3638-0.76876 1.1972-1.0712 1.8521-0.87632 1.8976-0.94047 1.9844-1.4673 1.9844-0.3419 0-0.70977-0.43604-1.1618-1.3771-0.36381-0.75738-0.72849-1.3825-0.8104-1.3891-0.1359-0.01096-0.49911 3.461-1.0505 10.042-0.11584 1.3824-0.22076 2.5433-0.23317 2.5797-0.0124 0.03638-0.31795 0.06614-0.67898 0.06614-0.49165 0-0.70119-0.1784-0.8348-0.71072-0.0981-0.3909 0.0802-3.6949 0.3962-7.3422 0.31601-3.6473 0.57261-7.3015 0.57021-8.1204-5e-3 -1.605 0.40184-2.2495 1.2397-1.9653 0.26926 0.09133 0.87048 1.0481 1.3854 2.2047 0.5003 1.1238 0.98945 2.1396 1.087 2.2572 0.0975 0.11762 0.91534-1.0331 1.8174-2.5571 0.90201-1.524 1.8003-2.8325 1.9962-2.9077 0.19587-0.07516 0.57607 0.02447 0.84487 0.22142 0.45997 0.337 0.48661 0.88899 0.45263 9.3774-0.0376 9.3808-0.0879 9.8074-1.1586 9.8074-0.25766 0-0.54074-0.18833-0.62907-0.41852zm3.4922-0.1768c-0.3901-0.69408-0.49389-14.638-0.12802-17.198 0.19408-1.3577 0.28422-1.5214 0.83785-1.5214 0.3412 0 0.67541 0.14883 0.74267 0.33073 0.0673 0.1819 0.0604 2.712-0.0153 5.6224s-0.0495 6.6907 0.0581 8.4005l0.19578 3.1089h3.1273c1.72 0 3.3156 0.07227 3.5458 0.1606 0.54253 0.20819 0.54253 1.3227 0 1.5309-0.23019 0.08833-2.131 0.1606-4.224 0.1606-3.6709 0-3.8173-0.02105-4.1401-0.59531zm26.406 0.1768c-0.0883-0.23018-0.16325-3.5342-0.16648-7.3422l-6e-3 -6.9237-0.52134 0.66146c-0.28674 0.3638-0.76877 1.1972-1.0712 1.8521-0.87632 1.8976-0.94048 1.9844-1.4673 1.9844-0.3419 0-0.70978-0.43604-1.1618-1.3771-0.3638-0.75738-0.72848-1.3825-0.8104-1.3891-0.13589-0.01096-0.4991 3.461-1.0505 10.042-0.11584 1.3824-0.22077 2.5433-0.23317 2.5797-0.0124 0.03638-0.31795 0.06614-0.67898 0.06614-0.49165 0-0.70119-0.1784-0.8348-0.71072-0.0981-0.3909 0.0802-3.6949 0.39619-7.3422 0.31602-3.6473 0.57261-7.3015 0.57022-8.1204-5e-3 -1.605 0.40184-2.2495 1.2397-1.9653 0.26927 0.09133 0.87049 1.0481 1.3854 2.2047 0.50031 1.1238 0.98945 2.1396 1.087 2.2572 0.0975 0.11762 0.91534-1.0331 1.8174-2.5571 0.90201-1.5241 1.8003-2.8325 1.9962-2.9077 0.19587-0.07516 0.57607 0.02447 0.84487 0.22142 0.45997 0.337 0.48661 0.88899 0.45263 9.3774-0.0376 9.3808-0.0879 9.8074-1.1586 9.8074-0.25766 0-0.54074-0.18833-0.62907-0.41852zm3.0144-0.30788c0-0.39952 0.41117-2.3938 0.9137-4.4318 0.50254-2.038 1.2258-5.0151 1.6073-6.6158 0.38149-1.6007 1.0769-4.0415 1.5454-5.424 0.69965-2.0646 0.95557-2.5286 1.4328-2.5978 0.40332-0.05846 0.66081 0.10339 0.8419 0.52917 0.60154 1.4144 2.3564 9.2427 2.5099 11.197 0.0915 1.1642 0.34778 2.8519 0.56955 3.7506 0.50734 2.0559 0.41301 3.6199-0.22562 3.7409-0.30663 0.05811-0.55802-0.16384-0.74673-0.65926-0.40266-1.0571-1.3046-5.5459-1.3046-6.4928 0-0.555-0.10664-0.75201-0.35539-0.65655-0.19547 0.07501-1.0212 0.21956-1.8349 0.32123l-1.4795 0.18485-0.52783 1.7576c-0.29031 0.96668-0.725 2.5287-0.96599 3.4712-0.55771 2.1812-0.81695 2.652-1.4602 2.652-0.39052 0-0.51986-0.18072-0.51986-0.7264zm6.4353-9.2387c0.26519-0.07528 0.4299-0.27494 0.36604-0.44369-0.0639-0.16876-0.38178-1.4759-0.70647-2.9047s-0.62509-2.5599-0.66756-2.5135c-0.0425 0.04641-0.39471 1.275-0.78276 2.7302-0.38804 1.4552-0.77036 2.8667-0.84959 3.1366-0.12993 0.44266-0.0312 0.47319 1.0071 0.3114 0.63311-0.09866 1.3681-0.24097 1.6333-0.31624zm5.4489 9.2558c-0.50578-1.3124-0.65262-5.3934-0.42769-11.887 0.22468-6.4862 0.36201-7.2033 1.31-6.8395 0.56931 0.21847 0.8466 2.8788 0.60383 5.7932l-0.18557 2.2278 3.0781-3.0356c3.1753-3.1315 4.1512-3.7918 4.8037-3.2503 0.20058 0.16647 0.36469 0.45594 0.36469 0.64328 0 0.18734-1.0237 1.2984-2.2749 2.469l-2.2749 2.1284 1.067 1.2689c1.2572 1.495 2.2632 3.4669 3.6031 7.0625 1.0264 2.7543 1.0757 3.8637 0.17161 3.8637-0.69591 0-0.83626-0.24473-2.4082-4.1992-1.2972-3.2633-3.1821-6.6487-3.7018-6.6487-0.11993 0-0.71897 0.59829-1.3312 1.3295l-1.1131 1.3295 0.0963 4.1606c0.096 4.1455 0.0942 4.1609-0.49857 4.2451-0.44707 0.0635-0.66632-0.10086-0.88236-0.66146zm12.033 0.33714c-0.27372-0.71331 0.0993-1.2154 0.90302-1.2154h0.76022l0.17338-4.9609c0.0954-2.7285 0.17371-6.3599 0.17412-8.0698l7.5e-4 -3.1089h-0.76544c-0.86347 0-1.2053-0.53638-0.73774-1.1575 0.40277-0.53499 4.4632-0.67322 5.0666-0.17248 0.61243 0.50827 0.0398 1.33-0.92687 1.33h-0.78444l-8.1e-4 3.3734c-4.4e-4 1.8554-0.0784 5.419-0.17324 7.9191l-0.17243 4.5456 1.0063 0.08456c0.59331 0.04985 1.1235 0.2716 1.2918 0.5403 0.52188 0.83326-0.19957 1.1252-3.0214 1.2227-2.2192 0.07665-2.6573 0.02479-2.7938-0.33073zm14.914-0.0909c-0.75222-0.8533-1.9803-3.6052-3.4538-7.7391-0.80397-2.2556-1.6469-4.5178-1.8732-5.0271l-0.41149-0.92604-0.0455 1.5875c-0.32821 11.442-0.35993 11.898-0.8343 11.989-0.9221 0.17638-1.0601-1.0566-0.89734-8.0199 0.16225-6.9432 0.44894-9.8689 1.0004-10.21 0.59899-0.37019 1.1827 0.23375 1.6049 1.6605 0.49093 1.6591 4.1835 11.577 4.8083 12.915 0.409 0.87566 0.42541 0.53018 0.30179-6.35-0.13634-7.5875-0.0353-8.4841 0.97796-8.6793 0.60739-0.11697 0.68255 0.56377 0.8468 7.6703 0.1787 7.7313-0.24419 11.592-1.2697 11.592-0.1906 0-0.53023-0.20836-0.75473-0.46302zm6.2577 0.20668c-0.81884-0.33126-1.9138-1.7516-2.2082-2.8645-0.37204-1.4063-0.81295-6.0918-0.81295-8.6391 0-3.6953 0.9787-5.8071 3.3297-7.1849 2.0316-1.1906 4.0876-0.57358 5.1732 1.5524 0.75725 1.483 1.0138 4.5375 0.40092 4.7727-0.60934 0.23383-1.23-0.51301-1.2367-1.4882-9e-3 -1.274-0.91735-3.0517-1.7146-3.3548-0.88335-0.33585-2.2092 0.19212-2.9968 1.1933-0.98852 1.2567-1.1845 2.59-0.99126 6.7444 0.29056 6.2471 0.72871 7.4709 2.7283 7.6205 1.5506 0.11599 2.1864-0.7591 2.1864-3.0092v-1.6673l-0.8599-0.08291c-0.71872-0.0693-0.85989-0.1915-0.85989-0.74437 0-0.63761 0.0835-0.66977 2.3156-0.89192 1.7278-0.17196 2.4148-0.14811 2.7064 0.09393 0.55887 0.46382 0.0398 1.3272-0.79795 1.3272-0.63264 0-0.65232 0.05738-0.65796 1.9182-7e-3 2.3425-0.64506 3.9429-1.8123 4.5465-0.85317 0.44119-2.9787 0.52753-3.892 0.15808z" fill="#fff"/></g></svg>
