<svg width="584.46mm" height="297.88mm" version="1.1" viewBox="0 0 584.46 297.88" xml:space="preserve" xmlns="http://www.w3.org/2000/svg"><g transform="translate(-1292.5 800.53)"><path fill="#fff" d="m1833.7-502.84c-0.1093-0.10914-4.2666-0.20584-9.2384-0.2149-4.9718-9e-3 -12.373-0.15364-16.448-0.32132-4.0746-0.16767-15.862-0.31105-26.194-0.31862l-18.785-0.0138-1.0576-0.59896c-0.6453-0.36549-1.3157-1.0599-1.7198-1.7816-0.6591-1.1771-0.6626-1.2194-0.7461-9.0618-0.072-6.7443-0.017-8.1734 0.3774-9.9219 0.3487-1.5445 0.5059-3.9142 0.6441-9.7156 0.1006-4.2201 0.3319-12.138 0.514-17.595 0.2567-7.6912 0.2619-11.201 0.023-15.61-0.1694-3.1287-0.4343-11.761-0.5886-19.182-0.1543-7.4216-0.2887-13.884-0.2986-14.361-0.034-1.6219-0.4101-1.5431 9.0698-1.8983 6.9082-0.25879 12.913-0.59401 19.116-1.0672 1.9282-0.1471 5.8083-0.26774 8.6224-0.2681l5.1165-6.4e-4 -0.1447-0.99219c-0.08-0.5457-0.2161-2.0042-0.3034-3.2411-0.2389-3.3842-0.8626-6.785-1.4586-7.9534-0.2925-0.57336-0.5974-1.0425-0.6774-1.0425s-0.7457 0.50602-1.4792 1.1245c-1.1347 0.95679-1.5102 1.1245-2.5178 1.1245-0.9694 0-1.3-0.13462-1.8227-0.74236-0.7483-0.86993-0.7849-1.25-0.2245-2.3336 0.4627-0.89471 2.6731-2.0765 3.8919-2.0808 0.5434-2e-3 0.8013-0.17896 0.9922-0.68127 1.4166-3.7258-2.7534-8.3747-7.8812-8.7863l-1.7306-0.13891 0.1623 1.0316c0.4946 3.1448-1.6123 5.203-4.0405 3.9473-1.2326-0.63741-1.8623-1.6471-1.8623-2.9862 0-1.0524 0.1337-1.3235 1.1586-2.3484l1.1586-1.1586-1.3274-1.7535c-2.7665-3.6544-4.2946-4.5909-7.4912-4.5909h-1.3782l0.3945 1.3458c0.969 3.3056-0.7061 5.798-3.8967 5.798-2.1228 0-3.7059-1.3752-3.8993-3.3871-0.1507-1.5689 0.2763-2.4923 1.7809-3.8517l1.0862-0.98131-1.0029-0.45061c-1.4937-0.67109-7.5903-0.64688-9.6019 0.0381-0.8004 0.27254-1.5645 0.59614-1.6981 0.7191-0.1335 0.12297-0.215 0.992-0.1809 1.9312 0.092 2.5301-0.7874 3.9681-2.3977 3.9224-1.0379-0.0295-2.2506-1.1591-2.6401-2.4592-0.3636-1.2135 0.025-2.5398 1.0421-3.5569l0.7142-0.71417-0.9255-0.79265c-1.9431-1.6642-3.8211-2.0796-7.1269-1.5762l-1.1743 0.17883-0.022 1.2116c-0.026 1.3963-0.665 2.5348-1.6288 2.9013-1.0222 0.38865-1.3464 0.31475-2.2798-0.51962-0.7685-0.68692-0.862-0.92117-0.8448-2.1167l0.019-1.3443-2.0037 1e-3c-1.1021 6.7e-4 -3.3563 0.0791-5.0095 0.17439l-3.0057 0.17318 0.175 1.0824c0.096 0.59531 0.3012 7.095 0.4553 14.444s0.2968 13.978 0.3172 14.731c0.08 2.9672-1.7421 3.7956-7.2054 3.2759-1.8004-0.17126-6.5034-0.41952-10.451-0.5517-9.6952-0.32464-47.942-0.30641-53.215 0.0254-6.6992 0.42149-30.295 0.30427-36.116-0.17941-5.7058-0.47416-22.402-0.53179-31.618-0.10913-14.104 0.64687-28.873 0.87576-59.531 0.92268-33.248 0.0509-37.145 0.14771-44.053 1.0945-2.6493 0.36311-5.6084 0.39401-22.886 0.23897-10.914-0.0979-20.277-0.28828-20.807-0.423-1.3075-0.33243-1.7538-1.1232-2.346-4.1565-0.2756-1.4112-0.6259-2.9818-0.7787-3.4902-0.1767-0.58853-0.2776-5.4482-0.2776-13.378 0-11.908 0.029-12.65 0.6608-16.935 0.3635-2.4649 0.8288-5.3601 1.0341-6.4339l0.3733-1.9523-5.7305 0.16807c-13.034 0.38231-14.058 0.45188-14.338 0.97413-0.1414 0.26409-0.9649 0.97674-1.8301 1.5837-0.9141 0.64118-2.5292 2.2554-3.8551 3.8531-1.9094 2.3007-2.4038 2.7496-3.0283 2.7496-0.4132 0-0.8132-0.17392-0.8959-0.38948-0.2876-0.74933 1.939-3.8365 4.9158-6.8158l1.251-1.2521-1.5156 0.12834c-0.8336 0.0706-2.9649 0.24708-4.7362 0.39222s-6.9044 0.26389-11.407 0.26389h-8.1864l-0.1831 2.3151c-0.1007 1.2733-0.3597 3.5052-0.5756 4.9598-0.7288 4.9116-1.1618 8.4623-1.164 9.5442 0 0.59205-0.1854 1.6937-0.4095 2.4482-0.7399 2.4915 1.7337 2.2696-27.759 2.4907-14.268 0.10699-29.93 0.26345-34.804 0.34768-5.0803 0.0878-11.687 0.0274-15.478-0.14145-3.638-0.16203-9.2011-0.4038-12.362-0.53725-5.0137-0.21166-5.8865-0.31336-6.833-0.79627-0.695-0.35455-1.2116-0.85721-1.4368-1.3979-0.1933-0.46437-0.4866-2.8088-0.6516-5.2099-0.165-2.4011-0.4731-5.6753-0.6846-7.276-0.2913-2.2046-0.3851-6.0595-0.3867-15.895v-12.985l0.5953-0.55766c1.0466-0.98036 1.9283-1.1219 7.0287-1.1283 9.8643-0.0124 33.166-0.8745 36.032-1.3332 3.1726-0.50764 10.109-0.82628 20.701-0.95099 8.9891-0.10583 10.85-0.0609 12.828 0.30962 4.4845 0.84033 11.388 1.4922 17.68 1.6693 7.1274 0.20068 7.4688 0.28828 8.2541 2.1179 0.5693 1.3264 0.7279 5.9888 0.3435 10.1-0.1701 1.819-0.3783 4.7256-0.4628 6.459l-0.1535 3.1517 11.614-0.19364c6.3875-0.1065 12.267-0.2746 13.065-0.37355l1.4517-0.17992-1.7163-1.2254c-0.9439-0.67396-1.9447-1.4794-2.2239-1.79s-0.9655-0.63776-1.525-0.72723c-0.7826-0.12514-1.0538-0.30813-1.1755-0.79317-0.3459-1.3782 1.0252-1.8044 2.9435-0.91517 1.1548 0.53532 6.2178 4.6692 6.2178 5.0767 0 0.13859 0.2678 0.19542 0.5953 0.12629 0.3274-0.0691 4.9708-0.20434 10.319-0.30045l9.7235-0.17477 0.01-9.8249c0.01-5.4037 0.1317-11.73 0.2803-14.058 0.1487-2.3283 0.412-6.9718 0.5853-10.319 0.1732-3.347 0.4096-6.2314 0.5252-6.4099s0.7109-0.34358 1.3229-0.36691c3.0227-0.11522 6.9834-7e-3 9.844 0.26903 3.6719 0.35428 29.853 0.89479 32.411 0.66913 0.9459-0.0834 12.674-0.19086 26.062-0.23869 13.388-0.0478 27.318-0.22717 30.956-0.39852 9.6336-0.45375 40.402-0.19973 43.656 0.36042 4.4695 0.76928 15.684 0.96671 40.878 0.71967 21.132-0.20721 24.535-0.29766 28.972-0.7701 4.4726-0.47627 8.106-0.56851 32.941-0.83625 29.124-0.31398 35.377-0.2085 36.987 0.62384 1.6418 0.84904 1.5865 0.20339 1.6697 19.481 0.042 9.6737-0.011 17.845-0.1178 18.158-0.1869 0.54953-0.1029 0.57671 2.3507 0.76066 2.7 0.20243 4.3943 0.0716 5.4806-0.42339l0.6646-0.30283-1.3179-1.2703c-1.094-1.0546-1.2855-1.3754-1.1277-1.8897 0.4347-1.4158 1.4526-1.9306 3.0901-1.5627 1.314 0.29523 2.2374 1.1629 2.7145 2.5505 0.3855 1.1215 0.8441 1.3647 2.6552 1.4081 1.1846 0.0284 2.5852-0.67898 3.4912-1.7634l0.5808-0.69513-1.0438-1.1324c-1.1042-1.1979-1.2394-1.7908-0.7495-3.2876 0.4237-1.2946 1.1503-1.8254 2.4983-1.8254 0.8316 0 1.3505 0.17576 1.889 0.63979 0.6871 0.59217 0.7408 0.77831 0.7224 2.5008l-0.02 1.861 1.2105 0.51471c1.695 0.72067 4.0516 1.16 5.1336 0.95701 1.1782-0.22104 2.2049-1.298 3.8529-4.042 1.2598-2.0975 2.3408-4.4667 2.118-4.642-0.057-0.0451-0.7477-0.31036-1.534-0.58941-1.8451-0.65481-2.5391-1.5567-2.5391-3.2998 0-1.0946 0.1266-1.4251 0.8069-2.1053 2.0978-2.0978 5.2768-0.75803 5.8192 2.4525 0.1733 1.0259 0.1871 1.0365 1.1187 0.86173 1.5895-0.2982 6.1857-3.6885 5.4315-4.0064-2.284-0.96281-2.7399-4.0934-0.8686-5.9647 0.6192-0.61916 0.9738-0.74845 2.0531-0.74845 2.1987 0 3.1645 1.3166 2.9098 3.9667l-0.1241 1.2921 0.9517 0.152c1.2501 0.19964 3.52-0.1853 4.3676-0.74069 0.737-0.48289 1.6901-2.0856 1.3155-2.2121-1.8284-0.6177-2.9737-2.4243-2.4818-3.9147 0.3652-1.1066 0.7636-1.4392 1.9558-1.6327 1.873-0.30394 3.059 0.68606 3.4744 2.9001 0.1691 0.90143 0.2578 0.98305 1.0685 0.98305 1.8588 0 2.7571-0.84478 3.4709-3.2639 0.2218-0.75146 0.7055-2.0807 1.075-2.9538 1.4169-3.3486 1.9961-7.091 1.4895-9.6242l-0.1654-0.82682-32.345-8e-3 -1.0576-0.59896c-0.6453-0.36549-1.3157-1.0599-1.7198-1.7816-0.6591-1.1771-0.6626-1.2194-0.7461-9.0618-0.072-6.7443-0.017-8.1734 0.3774-9.9219 0.3487-1.5445 0.5059-3.9142 0.6441-9.7156 0.1006-4.2201 0.3319-12.138 0.514-17.595 0.2567-7.6912 0.2619-11.201 0.023-15.61-0.1694-3.1287-0.4343-11.761-0.5886-19.182-0.1543-7.4216-0.2887-13.884-0.2986-14.361-0.034-1.6251-0.4259-1.5443 9.2021-1.8958 3.7836-0.13812 7.7721-0.31754 8.8636-0.39872 12.152-0.90389 15.187-1.0046 25.501-0.846 5.8381 0.0898 11.389 0.28215 12.335 0.42755 0.9459 0.14539 3.5131 0.37995 5.705 0.52124 2.1919 0.14128 5.1089 0.49892 6.4823 0.79476 2.0144 0.43391 3.6989 0.55462 8.7148 0.6245 4.3744 0.061 6.4014 0.18613 6.8373 0.42227 0.348 0.18849 0.986 1.1088 1.4552 2.0992l0.8356 1.7636 0.081 28.84c0.059 20.783-0.01 29.911-0.2363 32.676-0.1748 2.11-0.39 9.9086-0.4783 17.33-0.15 12.609-0.194 13.561-0.6707 14.522-0.3748 0.75525-0.8288 1.1689-1.7116 1.5594-1.1369 0.50294-1.4929 0.5192-6.6336 0.30291-2.9877-0.1257-8.4-0.19221-12.027-0.1478-3.6273 0.0444-8.2112-0.0436-10.186-0.19561-1.9752-0.152-6.4126-0.34729-9.861-0.43399l-6.2697-0.15763 0.1499 1.8006c0.1855 2.2282-0.2504 5.1451-1.1363 7.6038-0.3705 1.0283-1.1188 3.1492-1.663 4.7131-1.0794 3.1023-1.6333 3.8748-3.3872 4.7239-0.9332 0.45175-1.4284 0.5268-2.5508 0.38656l-1.3928-0.17401-0.6337 1.353c-0.3485 0.74416-1.0767 1.7532-1.618 2.2423-1.1794 1.0655-2.3996 1.3054-5.8107 1.1423l-2.3804-0.1138-1.9554 1.8679c-2.5006 2.3888-4.5322 3.6299-6.205 3.7906-1.2347 0.11865-1.2883 0.15923-1.6047 1.2167-0.4441 1.4842-1.6773 3.8844-3.1238 6.08-2.5749 3.9084-5.2172 4.6607-10.257 2.9204l-1.8947-0.65432-1.7003 1.7003c-1.4757 1.4757-1.8992 1.7448-3.2058 2.0372-1.3082 0.29275-1.7277 0.27676-3.2009-0.12202l-1.6954-0.45893-1.2268 0.93642c-1.5474 1.1812-2.258 1.3076-6.6287 1.1799-3.3856-0.0989-3.558-0.0788-3.703 0.43253-0.084 0.29497-0.2282 2.7687-0.3214 5.4972l-0.1694 4.9609 1.6951 0.012c2.1654 0.0154 10.036 0.2093 10.559 0.26019 0.2182 0.0212 1.4684-0.1628 2.7781-0.409 2.9134-0.54767 6.2031-0.43613 7.5243 0.2551 0.5003 0.26178 1.5258 1.0921 2.2789 1.8452l1.3692 1.3692 1.0973-0.46604c1.6013-0.68006 5.084-1.2797 7.4048-1.275 2.5438 5e-3 4.6463 0.49381 6.2937 1.4626 1.2011 0.70635 1.4801 0.75671 4.3266 0.78072 4.9213 0.0415 6.5357 0.96577 10.057 5.7576l1.4522 1.9761 2.7781 0.11119c2.6119 0.10454 2.8931 0.17212 4.6999 1.1295 2.1857 1.1581 4.4125 3.3702 5.3059 5.2709 0.7244 1.5411 1.0048 3.8264 0.6088 4.9624-0.2586 0.74186-0.2296 0.93983 0.2064 1.4117 0.7625 0.82529 1.5445 2.481 1.9959 4.226 0.5542 2.1423 1.024 6.8981 0.8994 9.1038l-0.1031 1.8245 5.0335 0.18171c2.7684 0.0999 5.8669 0.29528 6.8856 0.4341 1.0186 0.13881 3.6454 0.36717 5.8373 0.50747 2.1919 0.14029 5.1089 0.49712 6.4823 0.79296 2.0144 0.43391 3.6989 0.55462 8.7148 0.6245 4.3744 0.0609 6.4014 0.18613 6.8373 0.42227 0.348 0.18849 0.986 1.1088 1.4552 2.0992l0.8356 1.7636 0.081 28.84c0.059 20.783-0.01 29.911-0.2363 32.676-0.1748 2.11-0.39 9.9086-0.4783 17.33-0.1499 12.6-0.1943 13.562-0.6697 14.52-0.8406 1.6937-1.8889 2.0042-6.789 2.0112-2.2677 3e-3 -4.2125-0.0835-4.3217-0.19263zm7.9781-2.524c1.3393-0.61025 1.3928-1.0317 1.392-10.957-4e-4 -5.0641 0.1154-10.755 0.2575-12.647 0.142-1.8918 0.3949-5.2851 0.5619-7.5406 0.3532-4.7704 0.3491-46.872-0.01-55.697-0.2544-6.3308-0.4844-7.2801-1.8826-7.7674-0.5276-0.18393-2.8385-0.30039-5.9607-0.30039-4.2741 0-5.4769-0.0903-7.435-0.5585-1.3818-0.33036-3.9031-0.64454-6.1724-0.76914-2.1101-0.11586-6.1582-0.41149-8.9959-0.65697-4.1187-0.3563-7.1338-0.42036-14.949-0.31763-5.3843 0.0708-10.861 0.25721-12.171 0.4143-3.4397 0.41259-11.568 0.87362-18.04 1.0232l-5.6044 0.12951 0.1268 6.6515c0.07 3.6583 0.2466 11.831 0.3931 18.161 0.3033 13.107 0.3043 12.214-0.03 26.326-0.1379 5.8208-0.2531 12.969-0.2561 15.884 0 4.2113-0.1188 5.9212-0.5565 8.318-0.488 2.6714-0.541 3.8219-0.4631 10.045 0.082 6.5186 0.1282 7.1045 0.6411 8.0862 0.3042 0.58208 0.84 1.2054 1.1906 1.3852 0.4867 0.24949 4.7074 0.32686 17.836 0.32698 15.769 1.3e-4 27.474 0.19916 46.567 0.79174 7.7736 0.24128 12.556 0.12434 13.556-0.33149zm-55.625-8.2193c-3.4638-0.98123-5.9545-2.4387-9.4279-5.5167-1.1317-1.0029-2.0712-2.1385-2.6458-3.1979l-0.8909-1.6427 0.01-6.35c0.01-7.4098 0.2843-9.5504 1.5718-12.171 1.1188-2.2771 2.0579-3.425 4.5154-5.5192 2.1511-1.8331 4.521-3.2272 7.1798-4.2236 3.3053-1.2386 3.7745-1.295 8.1152-0.97557 4.5688 0.33621 10.498 1.6686 12.742 2.8632 1.8707 0.99589 4.7526 3.9251 5.5527 5.644 0.6544 1.4056 0.6599 1.4797 0.6625 8.9252 0 8.6382-0.2914 10.631-2.1447 14.515-1.5391 3.2265-3.5379 5.2453-6.7954 6.8639l-2.5667 1.2753-6.8792 0.0545c-6.4419 0.051-7.0137 0.0164-8.9958-0.54513zm16.071-2.399c4.6167-1.6294 7.2865-5.1374 8.5213-11.196 0.3618-1.7753 0.4288-3.3952 0.3612-8.7312l-0.083-6.5515-0.751-1.4264c-0.887-1.6848-2.977-3.7727-4.5082-4.5038-2.1998-1.0503-7.9201-2.0916-12.203-2.2214-4.5683-0.13851-4.9041-0.0647-9.1281 2.0049-4.7697 2.3371-7.6712 5.8462-8.4734 10.248-0.3271 1.7949-0.3955 12.167-0.089 13.445 0.601 2.5034 3.8484 5.7488 7.6008 7.5961 3.397 1.6724 4.8538 1.9208 11.412 1.9455 5.2049 0.0197 5.6691-0.0188 7.34-0.60858zm-13.028-8.5051c-2.027-0.43904-3.6548-1.4868-4.2991-2.7672-0.6518-1.2952-0.6117-4.2199 0.089-6.488 0.4463-1.4448 0.8145-2.0469 1.9183-3.1367 1.9794-1.9545 4.761-2.8552 5.5181-1.787 0.2508 0.3539 0.8445 0.53836 2.1629 0.67203 2.1373 0.2167 3.4772 0.83496 4.6129 2.1284 1.1485 1.3081 1.4463 2.6794 1.3246 6.0993-0.1207 3.3924-0.4481 4.2234-2.0101 5.1012-0.941 0.5289-1.4051 0.59021-4.3254 0.57143-1.7992-0.0116-4.0451-0.18866-4.991-0.39354zm8.5183-2.7578c0.4727-0.58441 0.5217-0.95994 0.4341-3.3265-0.1092-2.9498-0.4261-3.7342-1.8608-4.6067-0.4493-0.27329-1.4251-0.57659-2.1684-0.67401-0.7432-0.0974-1.6305-0.35447-1.9716-0.57123-1.682-1.0688-4.8002 1.5189-5.2224 4.3339-0.4321 2.8818 0.4516 4.7671 2.5007 5.3349 0.5284 0.14641 2.4895 0.24419 4.3581 0.21728 3.2735-0.0471 3.4169-0.0729 3.9303-0.7077zm21.452-34.148c-0.615-0.12139-1.642-0.52774-2.2823-0.90299-1.5265-0.89457-3.7658-3.2817-4.4101-4.7012-0.6329-1.3945-0.7029-4.6556-0.1345-6.2668 0.5789-1.6406 2.929-4.9416 4.9598-6.9665 1.7281-1.7231 1.8372-1.7859 3.1008-1.7859 1.0048 0 1.3949 0.1218 1.6761 0.52327 0.3096 0.44199 0.9485 0.58454 4.1131 0.91771 2.0606 0.21694 4.0753 0.56662 4.4771 0.77707 0.9589 0.50219 2.2743 1.9161 2.8576 3.0715 1.0987 2.1766 0.5922 7.5167-0.9778 10.307-2.9052 5.1641-3.1511 5.3171-8.4808 5.2762-2.0795-0.0159-4.284-0.12831-4.899-0.2497zm8.6501-2.7738c2.7799-1.6331 4.8186-9.4445 3.1175-11.945-0.8506-1.2503-2.0195-1.7023-5.4832-2.1203-1.6773-0.2024-3.693-0.50524-4.4795-0.67297l-1.4298-0.30498-0.7832 0.91194c-0.4307 0.50157-1.4795 1.8391-2.3307 2.9722-2.238 2.9795-2.6053 4.7729-1.4746 7.2009 0.7021 1.5077 3.2736 4.0173 4.3611 4.2561 0.3882 0.0852 0.8249 0.20073 0.9704 0.25661 0.1455 0.0559 1.6933 0.0752 3.4396 0.043 2.6486-0.0489 3.3271-0.14795 4.0924-0.59756zm-6.2088-5.0334c-1.2785-0.43952-1.7201-0.99483-1.7201-2.1632 0-1.2274 0.9888-2.1864 2.2544-2.1864 1.6946 0 1.979 0.32348 1.979 2.2515 0 1.5928-0.048 1.7283-0.7309 2.0816-0.624 0.32269-0.8846 0.32509-1.7824 0.0164zm-334.83-39.289c8.5364-1.128 7.902-1.1106 48.419-1.3258 38.344-0.2036 48.684-0.3888 59.572-1.067 4.4213-0.27538 7.604-0.27754 16.669-0.0113 6.1622 0.181 12.395 0.42998 13.85 0.55328 3.7836 0.32059 28.693 0.3258 32.941 7e-3 1.9823-0.14883 14.404-0.28474 27.914-0.3054 30.631-0.0468 35.892-2e-3 37.717 0.32038 2.6486 0.46819 4.6676 0.41069 5.2878-0.15059 0.5072-0.45902 0.5419-0.70845 0.4207-3.0237-0.073-1.3879-0.2676-8.7147-0.4331-16.282-0.3472-15.876-0.213-25.675 0.4095-29.898 0.2983-2.0229 0.3814-3.7576 0.2726-5.6885-0.086-1.528-0.2245-8.5527-0.3078-15.61-0.1301-11.028-0.2086-12.896-0.5583-13.285-0.813-0.90536-2.1778-1.1313-6.6928-1.1078-61.617 0.32029-55.087 0.17409-65.088 1.4573-1.7616 0.22604-8.9648 0.33864-24.077 0.3764-11.86 0.0296-22.207 0.14284-22.993 0.25158-1.7693 0.24478-13.032-0.25074-19.605-0.86255-6.1104-0.56875-29.515-0.5809-79.11-0.0411-41.119 0.44756-45.872 0.45267-50.006 0.0538-2.936-0.28327-7.8755-0.68164-11.803-0.9519l-1.3517-0.093-0.1842 2.6696c-0.1013 1.4682-0.2941 4.3364-0.4284 6.3737-0.1343 2.0373-0.3643 10.048-0.5111 17.802-0.2817 14.885-0.248 14.449-1.9169 24.796-0.3945 2.4458-0.3471 26.494 0.056 28.31 0.1292 0.58208 0.367 2.1255 0.5285 3.4299 0.1616 1.3044 0.4209 2.5248 0.5763 2.712 0.2199 0.26497 2.4306 0.34816 9.9736 0.37534 5.33 0.0192 12.906 0.11609 16.835 0.2153 11.066 0.27943 11.514 0.27944 13.626 3.9e-4zm0.5292-21.432c-2.2556-0.11193-6.9861-0.32943-10.512-0.48333-5.642-0.24624-6.5411-0.34612-7.4945-0.8325-0.6933-0.35368-1.2099-0.8567-1.4349-1.397-0.1934-0.46437-0.4866-2.8088-0.6516-5.2099-0.1651-2.4011-0.4732-5.6753-0.6847-7.276-0.2913-2.2046-0.385-6.0595-0.3867-15.895v-12.985l0.5953-0.55766c1.0466-0.98036 1.9282-1.1219 7.0287-1.1283 9.8642-0.0124 33.166-0.8745 36.032-1.3332 3.1726-0.50764 10.109-0.82628 20.701-0.95099 8.9891-0.10583 10.85-0.0609 12.828 0.30962 4.4846 0.84033 11.388 1.4922 17.68 1.6693 7.1229 0.20055 7.4477 0.28366 8.2758 2.1179 0.5502 1.2186 0.6049 7.5497 0.1147 13.275-0.1807 2.11-0.3753 4.6401-0.4325 5.6224l-0.1041 1.7859 4.6659-0.0324c2.5662-0.0178 5.916-0.10713 7.444-0.19844l2.7781-0.16601-1.6959-0.8599c-0.9328-0.47294-1.9127-0.8599-2.1778-0.8599-0.6265 0-0.9402-1.1796-0.4657-1.7514 0.5721-0.68934 2.3716-0.31939 4.2706 0.878 0.911 0.57438 2.2893 1.4226 3.0629 1.8849l1.4067 0.84056h5.6883c5.8393 0 6.7119 0.1346 6.7119 1.0352 0 1.0456-0.6218 1.1775-6.1179 1.2981l-5.2807 0.1159-0.3667 0.6936c-0.3381 0.63933-5.5793 5.7416-6.3432 6.1751-0.1841 0.10442-0.5605 0.0234-0.8365-0.18004-0.4884-0.36-0.4841-0.40276 0.1596-1.5999 0.3638-0.67652 1.4652-1.9861 2.4474-2.9102 0.9823-0.92409 1.786-1.791 1.786-1.9265 0-0.41401-2.3551-0.54534-5.5563-0.30984-1.6735 0.1231-4.968 0.2307-7.3211 0.2391l-4.2784 0.0153-0.1773 1.7859c-0.097 0.98226-0.3495 2.976-0.5602 4.4306-0.7623 5.2636-1.1525 8.4889-1.1546 9.5442 0 0.59205-0.1854 1.6937-0.4095 2.4482-0.7399 2.4914 1.7333 2.2693-27.759 2.4926-14.268 0.10801-30.763 0.23978-36.657 0.29282-5.8936 0.053-12.561 5e-3 -14.817-0.10707zm50.535-2.044c19.414-0.14462 25.668-0.2681 26.1-0.51534 0.6682-0.38285 1.1514-1.62 1.1544-2.9555 0-0.98678 0.605-5.8496 1.0692-8.6256 0.146-0.87313 0.383-3.4925 0.5267-5.8208 0.1437-2.3283 0.3838-5.7811 0.5336-7.6729 0.4574-5.7784 0.6033-13.116 0.2843-14.296-0.5831-2.156-0.3869-2.0878-6.5616-2.2806-5.876-0.18346-14.777-1.015-18.131-1.6938-1.6981-0.34366-3.719-0.39346-12.171-0.29987-9.727 0.1077-18.985 0.50752-19.528 0.84336-0.1421 0.0878-3.1468 0.26888-6.6772 0.40237-3.5303 0.13348-8.8001 0.37517-11.71 0.53708s-9.3398 0.37778-14.288 0.47971c-6.4057 0.13196-9.1672 0.28071-9.5911 0.51661l-0.5953 0.33128v12.432c0 10.36 0.085 13.28 0.5117 17.519 0.2814 2.798 0.594 6.0207 0.6947 7.1617 0.1419 1.6075 0.3194 2.2329 0.7882 2.7781l0.6051 0.7036 6.1746 0.19961c3.3961 0.10979 8.0796 0.30234 10.408 0.4279 2.3283 0.12555 8.8767 0.18085 14.552 0.12287 5.6753-0.058 21.808-0.19099 35.851-0.2956zm-31.157-13.593c-0.5171-0.51719-0.4128-1.1487 0.9566-5.7891 0.707-2.3957 1.4297-5.1871 1.6059-6.203 0.3402-1.9606 0.6254-2.5185 1.2874-2.5185 0.8188 0 1.3879 0.94084 3.6579 6.0463 1.8617 4.1871 2.3151 5.4559 2.3306 6.5214 0.018 1.2359-0.026 1.3282-0.6733 1.4032-0.6232 0.0723-0.7684-0.0937-1.4501-1.6585-0.5677-1.3031-0.8583-1.6971-1.1595-1.5724-0.2211 0.0916-1.2054 0.22883-2.1873 0.30499l-1.7853 0.13847-0.266 1.089c-0.5351 2.1908-0.6519 2.4096-1.3295 2.4894-0.3622 0.0426-0.8065-0.0705-0.9874-0.25136zm5.7918-6.7715c-0.2776-0.54571-0.7114-1.4684-0.964-2.0505l-0.4593-1.0583-0.4905 1.8521c-0.2698 1.0186-0.4933 1.9414-0.4966 2.0505 0 0.10914 0.6512 0.19843 1.4545 0.19843h1.4606zm-15.286 6.5663c-1.8319-0.44938-3.8593-2.2763-4.9856-4.4926-0.625-1.2298-0.8152-3.7027-0.399-5.1889 0.8374-2.991 3.1739-4.6268 6.5986-4.6199 2.0983 4e-3 2.4643 0.11566 2.7273 0.83012 0.3147 0.85508-0.3763 1.2846-2.3163 1.4395-2.2198 0.17735-3.2394 0.71033-4.0303 2.1066-1.0593 1.8701-0.6403 4.5235 0.9838 6.2308 0.8611 0.90525 2.2133 1.555 2.5452 1.2231 0.074-0.0745-0.05-0.5796-0.2769-1.1224-0.8538-2.0434-0.589-2.3061 2.7626-2.741 2.8053-0.36397 3.4396-0.22335 3.4396 0.76257 0 0.66706-0.115 0.75547-1.2568 0.96594l-1.2567 0.23168 0.086 1.0939c0.094 1.1965-0.4678 2.5677-1.2136 2.9593-0.7203 0.37826-2.4939 0.54532-3.4082 0.32103zm29.17-0.17181c-0.2815-0.73376-0.1798-12.016 0.1133-12.563 0.1507-0.28148 0.5089-0.51177 0.7962-0.51177 0.8383 0 6.3068 4.2775 10.109 7.9068 0.9822 0.93773 1.7844 1.5366 1.7825 1.3308 0-0.20578-0.2385-1.8624-0.5258-3.6814-0.7503-4.751-0.6931-6.0854 0.2605-6.0854 0.9471 0 1.0564 0.34 1.8715 5.8208 0.534 3.5913 0.5846 6.9163 0.1167 7.6733-0.09 0.1453-0.4836 0.26022-0.8752 0.25538-0.5542-7e-3 -1.1219-0.47729-2.5612-2.1222-1.967-2.2479-4.8492-4.8416-7.3451-6.6099l-1.5213-1.0778v4.7241c0 3.3216-0.094 4.8184-0.3175 5.0416-0.46 0.45996-1.7134 0.39343-1.9032-0.10102zm-5.2168-0.57367c-0.2847-0.7383-1.3211-5.2889-1.9733-8.6651-0.449-2.324-0.4736-4.165-0.061-4.5773 0.4861-0.48607 1.4837-0.37778 1.7899 0.19428 0.1506 0.28147 0.2738 1.2294 0.2738 2.1064 0 0.87705 0.24 2.6237 0.5332 3.8814 0.9223 3.9554 1.2912 6.5034 1.038 7.1694-0.3316 0.87228-1.2458 0.80999-1.6003-0.10904zm102.16 16.588c-2.2556-0.11193-6.986-0.32943-10.512-0.48333-5.642-0.24624-6.5411-0.34612-7.4945-0.8325-0.6932-0.35368-1.2099-0.8567-1.4349-1.397-0.1933-0.46437-0.4866-2.8088-0.6516-5.2099-0.165-2.4011-0.4731-5.6753-0.6846-7.276-0.2913-2.2046-0.3851-6.0595-0.3867-15.895v-12.985l0.5954-0.55766c1.0465-0.98036 1.9282-1.1219 7.0286-1.1283 9.8643-0.0124 33.166-0.8745 36.032-1.3332 3.1726-0.50764 10.109-0.82628 20.701-0.95099 8.9892-0.10583 10.85-0.0609 12.828 0.30962 4.4845 0.84033 11.388 1.4922 17.68 1.6693 7.1274 0.20068 7.4688 0.28828 8.2541 2.1179 0.566 1.3187 0.7279 5.9671 0.3517 10.1-0.1656 1.819-0.4703 6.2243-0.6772 9.7896s-0.5647 7.7319-0.7951 9.2593c-0.7295 4.8347-1.1884 8.5644-1.1906 9.6765 0 0.59205-0.1854 1.6937-0.4095 2.4482-0.7398 2.4914 1.7334 2.2693-27.759 2.4926-14.268 0.10801-30.763 0.23978-36.657 0.29282-5.8936 0.053-12.561 5e-3 -14.817-0.10707zm50.535-2.044c19.414-0.14462 25.668-0.2681 26.1-0.51534 0.6682-0.38283 1.1514-1.6199 1.1545-2.9555 0-0.52399 0.1707-2.2029 0.3766-3.7308 0.8788-6.5212 1.2033-9.674 1.4708-14.288 0.1561-2.6921 0.4122-6.264 0.5692-7.9375s0.2403-4.7691 0.185-6.8792c-0.1093-4.1724-0.4401-5.3403-1.601-5.6513-0.3333-0.0893-2.2728-0.16433-4.3101-0.1668-4.0295-5e-3 -15.7-1.0727-18.97-1.7355-1.6999-0.34467-3.7103-0.39433-12.171-0.30065-9.7269 0.1077-18.985 0.50752-19.528 0.84336-0.1421 0.0878-3.1469 0.26888-6.6772 0.40237-3.5304 0.13348-8.8001 0.37517-11.71 0.53708s-9.3398 0.37778-14.288 0.47971c-6.4058 0.13196-9.1673 0.28071-9.5912 0.51661l-0.5953 0.33128v12.432c0 10.36 0.085 13.28 0.5117 17.519 0.2814 2.798 0.5941 6.0207 0.6948 7.1617 0.1419 1.6075 0.3193 2.2329 0.7882 2.7781l0.605 0.7036 6.1747 0.19961c3.396 0.10979 8.0796 0.30234 10.408 0.4279 2.3283 0.12555 8.8768 0.18085 14.552 0.12287 5.6753-0.058 21.808-0.19099 35.851-0.2956zm-12.246-13.665c-0.2858-0.28587-0.4193-1.5567-0.5486-5.2255-0.094-2.6663-0.2446-5.5284-0.3347-6.3602-0.1542-1.4245-0.1257-1.5297 0.489-1.8098 1.344-0.61238 6.2076 2.5199 9.1645 5.9022l1.4188 1.6229-0.096-4.4827-0.096-4.4827h0.7926c0.6902 0 0.8376 0.13671 1.1412 1.0583 0.3221 0.97802 0.874 7.444 0.9458 11.082 0.024 1.217-0.07 1.6211-0.4322 1.8507-0.6772 0.4297-1.1284 0.0633-3.2412-2.6322-2.3374-2.9821-4.3598-5.0192-6.2118-6.2569-0.7971-0.53271-1.4666-0.94605-1.4878-0.91855-0.021 0.0275 0.054 0.82392 0.1668 1.7698 0.1129 0.94589 0.2888 3.1659 0.3909 4.9334 0.1758 3.0443 0.1563 3.2429-0.3711 3.7703-0.6508 0.65078-1.1643 0.70516-1.6905 0.17902zm-13.63-0.20435c-0.8242-0.82417 0.02-7.3352 1.7047-13.149 0.7438-2.5667 0.9739-2.9378 1.8218-2.9378 0.7639 0 2.1868 1.9185 3.7285 5.0271 0.6135 1.2369 1.6609 3.1986 2.3277 4.3592 0.9145 1.5919 1.2123 2.3842 1.2123 3.2255 0 2.1205-1.1599 1.8331-2.391-0.59246-0.482-0.94953-0.972-1.7856-1.0891-1.8579-0.117-0.0723-1.2526 0.23112-2.5235 0.67435-1.271 0.44323-2.3325 0.80588-2.3589 0.80588-0.027 0-0.092 0.95753-0.1448 2.1278-0.101 2.2246-0.3169 2.6223-1.4278 2.6306-0.2983 2e-3 -0.6853-0.13883-0.8599-0.31345zm4.6217-7.512c0.8791-0.25558 1.3987-0.54166 1.3216-0.72761-1.0951-2.6386-1.8863-4.1198-2.0451-3.8284-0.1807 0.33176-1.0407 4.2492-1.0407 4.7409 0 0.31345 0.078 0.30525 1.7642-0.18488zm-14.572 6.5727c-0.2759-0.89019-1.191-7.0969-1.3735-9.3157-0.1463-1.7786-0.2929-2.3262-0.7142-2.6673-0.3916-0.3171-0.4851-0.6081-0.3581-1.114 0.1502-0.59868 0.4132-0.74084 2.0904-1.1302 1.0552-0.24493 2.6551-0.50833 3.5555-0.58533 1.4334-0.12258 1.784-0.0539 2.8189 0.55261 2.1805 1.2779 2.8443 3.8222 1.4573 5.5855-1.1561 1.4697-4.2996 2.7666-5.944 2.4522-0.5764-0.11018-0.6525-0.0486-0.5368 0.43415 0.4931 2.0582 0.7434 5.019 0.4743 5.6096-0.3399 0.74617-1.2592 0.85778-1.4698 0.17845zm4.3412-9.1373c2.1899-1.078 2.0111-2.7514-0.3623-3.3905-0.7841-0.21114-1.3412-0.20799-2.0746 0.0117l-1.0027 0.3004v4.0151l1.1245-0.17532c0.6185-0.0964 1.6603-0.43906 2.3151-0.76142zm144.2 27.18c0-0.76405-0.4033-0.84618-0.772-0.15721-0.1783 0.33313-0.1678 0.58238 0.033 0.78319 0.4128 0.41274 0.739 0.13638 0.739-0.62598zm-422.28-3.2338c19.414-0.14462 25.668-0.2681 26.1-0.51534 0.6682-0.38283 1.1514-1.6199 1.1545-2.9555 0-0.52399 0.1707-2.2029 0.3766-3.7308 0.8788-6.5212 1.2033-9.674 1.4708-14.288 0.1561-2.6921 0.4122-6.264 0.5692-7.9375s0.2403-4.7691 0.185-6.8792c-0.1093-4.1724-0.4402-5.3403-1.601-5.6513-0.3333-0.0893-2.2728-0.16433-4.3101-0.1668-4.0295-5e-3 -15.7-1.0727-18.97-1.7355-1.6999-0.34467-3.7103-0.39433-12.171-0.30065-9.727 0.1077-18.985 0.50752-19.528 0.84336-0.142 0.0878-3.1468 0.26888-6.6771 0.40237-3.5304 0.13348-8.8001 0.37517-11.71 0.53708-2.9105 0.16191-9.3398 0.37778-14.288 0.47971-6.4058 0.13196-9.1673 0.28071-9.5912 0.51661l-0.5953 0.33128v12.432c0 10.36 0.085 13.28 0.5117 17.519 0.2814 2.798 0.5941 6.0207 0.6948 7.1617 0.1419 1.6075 0.3193 2.2329 0.7882 2.7781l0.605 0.7036 6.1746 0.19961c3.3961 0.10979 8.0797 0.30234 10.408 0.4279 2.3283 0.12555 8.8768 0.18085 14.552 0.12287 5.6753-0.058 21.808-0.19099 35.851-0.2956zm-60.537-15.721c-0.4017-0.40164-0.439-7.1633-0.044-7.902 0.3236-0.60451 1.1181-0.66934 1.5675-0.12789 0.477 0.57483 0.7201 7.4146 0.2822 7.9422-0.4016 0.48387-1.3632 0.53055-1.806 0.0877zm48.683 0c-0.7221-0.7221-0.092-8.3368 0.777-9.3833 0.5766-0.69484 1.3838-0.26326 2.4718 1.3216 1.0579 1.5411 1.0594 1.542 1.4583 0.9329 1.6886-2.5781 2.6541-3.4292 3.3759-2.9756 0.3888 0.24427 0.4857 0.83816 0.6041 3.7028 0.152 3.6739-0.043 4.8671-0.796 4.8671-0.7747 0-1.0834-0.64703-1.2486-2.6178l-0.1567-1.8696-0.9235 1.1854c-0.5079 0.65194-1.137 1.1854-1.398 1.1854s-0.8404-0.44384-1.2876-0.98632l-0.813-0.98633v2.5549c0 1.9699-0.095 2.6501-0.4157 2.9707-0.4952 0.49517-1.2086 0.53771-1.648 0.0983zm-44.45-0.26458c-0.2105-0.21045-0.3175-1.3523-0.3175-3.3867 0-3.2013 0.1573-3.7042 1.1589-3.7042 0.6903 0 3.7287 1.9906 4.39 2.876l0.5197 0.69582 0.012-1.7198c0.015-2.0942 0.4312-3.0427 1.3352-3.0427 0.6026 0 0.6677 0.12398 0.8329 1.5875 0.1612 1.4281-0.065 4.2175-0.4745 5.8488-0.1828 0.72846-0.9414 1.0337-1.6398 0.65987-0.275-0.14715-1.2022-1.136-2.0606-2.1975l-1.5606-1.9299-0.1323 2.0608c-0.092 1.4321-0.2533 2.1371-0.5291 2.311-0.5449 0.34363-1.1554 0.32011-1.5346-0.0591zm11.92 0.14227c-0.1819-0.0734-0.3308-0.42025-0.3308-0.77078 0-0.47661 0.2493-0.75471 0.9887-1.1028 1.3735-0.64675 1.4058-1.2382 0.1039-1.9024-1.8343-0.93578-2.3469-2.328-1.4768-4.0107 0.958-1.8524 4.186-1.7192 3.716 0.15337-0.1397 0.55675-0.3224 0.66489-1.1234 0.66489h-0.9565l1.4476 1.3909c1.5583 1.4972 1.8929 2.3458 1.4943 3.7893-0.3255 1.1789-1.373 1.9689-2.5758 1.9426-0.5261-0.0115-1.1053-0.0809-1.2872-0.15434zm25.411-0.32906c-1.3815-0.86759-2.7124-4.0685-2.7195-6.5409 0-1.2262 0.4504-1.7712 1.3661-1.6402 0.6611 0.0945 0.7896 0.40824 1.2773 3.1183 0.3796 2.1095 0.9115 3.1859 1.5744 3.1859 0.7517 0 1.5524-1.2004 1.7332-2.5983 0.2957-2.2858 0.3586-2.4288 1.0689-2.4288 0.4682 0 0.7388 0.19938 0.921 0.67868 0.3728 0.98057 0.3169 3.1695-0.1062 4.1585-0.9355 2.1863-3.363 3.1672-5.1152 2.0669zm-12.1-0.11305c-0.4309-0.31505-0.4701-0.67621-0.3667-3.3781 0.098-2.563 0.212-3.1965 0.7452-4.1451 1.5783-2.8083 5.9044-2.8908 7.056-0.13456 0.52 1.2445 0.1203 2.773-0.977 3.7358l-0.7546 0.66219 0.6601 0.78447c1.4149 1.6816 0.095 2.6958-1.6864 1.2959-0.5434-0.42704-1.375-0.9744-1.848-1.2164l-0.8598-0.43992v1.1785c0 1.7179-0.8767 2.4559-1.9688 1.6573zm4.8393-6.1657c0.53-0.34731 0.5728-0.46854 0.2689-0.76286-0.3723-0.36055-0.8177-0.4774-1.612-0.42291-0.4829 0.0331-1.0904 0.82845-1.3835 1.8112-0.1748 0.58624-0.1701 0.58718 0.9603 0.18836 0.6248-0.22045 1.4196-0.58663 1.7663-0.81375zm44.721 6.081c-0.2692-0.3244-0.3631-1.3848-0.3631-4.101v-3.6635l-1.3229-4e-3c-1.8705-5e-3 -2.4953-0.22849-2.6783-0.95748-0.3093-1.2325 0.1996-1.4205 3.8351-1.4165 3.833 4e-3 4.4499 0.11553 4.6815 0.84533 0.2124 0.66919-0.134 1.0129-1.2498 1.2399l-0.8844 0.17997-0.1789 1.9744c-0.098 1.086-0.1179 2.6293-0.043 3.4297 0.2243 2.4046-0.745 3.7392-1.7959 2.4729zm-13.365-0.2262c-0.2855-0.74394 0.059-8.1596 0.4093-8.8144 0.2372-0.44325 0.5154-0.58553 1.028-0.52572 0.5777 0.0674 0.9183 0.47391 1.9141 2.2846 0.6663 1.2114 1.5263 2.5807 1.9111 3.0427l0.6998 0.8401 0.014-2.0212c0.011-1.5551 0.1267-2.1602 0.5022-2.6238 0.5996-0.74055 1.2586-0.55349 1.6593 0.47105 0.3885 0.99357 0.1596 6.801-0.2895 7.3421-0.7309 0.88068-1.6429 0.48515-3.6302-1.5743l-1.9088-1.9781-0.156 3.8239-0.9944 0.0823c-0.7276 0.0602-1.0387-0.0334-1.1598-0.34911zm-41.94-0.85762c-0.1606-0.40018-0.3515-1.6503-0.4243-2.7781l-0.1322-2.0505h-1.4162c-1.2919 0-1.4308-0.0584-1.583-0.6649-0.3136-1.2493 0.1854-1.4518 3.5782-1.4518 3.4141 0 4.1929 0.25703 3.8692 1.2769-0.1008 0.31756-0.4019 0.57515-0.6723 0.57515-1.2151 0-1.3267 0.21531-1.3267 2.5592 0 1.2309-0.1232 2.4683-0.2739 2.7498-0.406 0.75862-1.2741 0.64287-1.6188-0.21583zm35.337 0.16938c-0.4324-0.47885-0.5016-0.96204-0.4868-3.3976 0.014-2.3314 0.1112-3.0008 0.5423-3.7412 0.5998-1.0305 1.7403-1.5279 3.5415-1.5443 1.5204-0.0139 1.9162 0.24684 1.8071 1.1902-0.074 0.64328-0.2634 0.80496-1.2779 1.0934-1.0486 0.29813-2.1167 1.1244-2.1167 1.6374 0 0.0975 0.3658 0.31533 0.8128 0.48408 0.6795 0.25646 0.7989 0.4288 0.7276 1.0502-0.06 0.52347-0.2525 0.76723-0.6506 0.82401l-0.5654 0.0806 0.5558 1.0147c0.4706 0.85917 0.5016 1.08 0.2023 1.4407-0.538 0.64824-2.4616 0.56598-3.092-0.13223zm410.12 15.117c0.3635-0.40168 0.4412-0.80513 0.3355-1.7428-0.2014-1.7868-0.4915-1.9142-1.7567-0.77119-1.126 1.0173-1.4225 2.0656-0.7689 2.7192 0.4874 0.48743 1.663 0.37729 2.1901-0.20519zm-21.662-30.852c-0.088-0.23018-0.1643-0.61713-0.1687-0.85989-0.01-0.41138-0.025-0.41145-0.265-1e-3 -0.2853 0.48888-0.082 1.2795 0.3297 1.2795 0.1455 0 0.1923-0.18833 0.104-0.41852zm14.399-9.0918c-0.288-0.53809-1.3308-0.77196-1.3308-0.29845 0 0.37822 1.4307 1.4158 1.5322 1.1112 0.049-0.14789-0.041-0.51363-0.2014-0.81274zm11.055-6.1662c-0.053-0.54725-0.2259-0.85989-0.4762-0.85989-0.5075 0-0.6695 0.83942-0.2576 1.3356 0.5241 0.63156 0.8219 0.43849 0.7338-0.47574zm65.067-20.912c1.3393-0.61025 1.3928-1.0317 1.392-10.957-4e-4 -5.0641 0.1154-10.755 0.2575-12.647 0.142-1.8918 0.3949-5.285 0.5619-7.5406 0.3532-4.7704 0.3491-46.872-0.01-55.697-0.2544-6.3308-0.4844-7.28-1.8826-7.7674-0.5276-0.18393-2.8385-0.30039-5.9607-0.30039-4.2741 0-5.4769-0.0904-7.435-0.5585-1.3818-0.33036-3.9031-0.64454-6.1724-0.76914-2.1101-0.11586-6.1582-0.41149-8.9959-0.65697-4.1187-0.3563-7.1338-0.42036-14.949-0.31763-5.3843 0.0708-10.861 0.25721-12.171 0.4143-3.4397 0.41259-11.568 0.87362-18.04 1.0232l-5.6044 0.12951 0.1268 6.6515c0.07 3.6583 0.2466 11.831 0.3931 18.161 0.3033 13.107 0.3043 12.214-0.03 26.326-0.1379 5.8208-0.2531 12.969-0.2561 15.884 0 4.2113-0.1188 5.9212-0.5565 8.318-0.488 2.6714-0.541 3.8219-0.4631 10.045 0.082 6.5186 0.1282 7.1045 0.6411 8.0862 0.3042 0.58208 0.84 1.2054 1.1906 1.3852 0.4867 0.24949 4.7074 0.32686 17.836 0.32698 15.769 1.3e-4 27.474 0.19916 46.567 0.79174 7.7736 0.24128 12.556 0.12434 13.556-0.33149zm-50.862-11.574c-1.4552-0.10166-3.6756-0.47656-4.9342-0.83312-3.9852-1.129-6.0587-2.7591-8.6642-6.8112-1.6247-2.5268-1.8805-3.6819-1.8754-8.4681 0-3.5611 0.1083-4.5887 0.7713-7.5851 0.8629-3.8997 2.0145-6.5979 3.8686-9.0643 1.9294-2.5667 6.0615-5.3704 9.8407-6.677 1.9453-0.67254 5.4527-0.97518 6.0036-0.51801 0.2555 0.21205 0.7572 0.26686 1.4191 0.15504 1.3795-0.23307 4.2443 0.45823 6.1846 1.4924 2.1907 1.1676 5.2932 3.8973 6.5752 5.785 0.5978 0.88034 1.5532 2.5776 2.1232 3.7717 0.9465 1.9831 1.0512 2.4232 1.2085 5.0815 0.3248 5.4873-0.7953 14.071-2.2243 17.046-1.5561 3.2386-5.6699 6.1517-9.3647 6.6315-2.1498 0.27916-6.8889 0.27662-10.932-6e-3zm11.377-2.455c3.234-0.6851 6.5189-3.7018 7.3825-6.7798 0.9098-3.2424 1.2595-6.853 1.1548-11.923-0.088-4.2852-0.1743-5.0804-0.6886-6.3853-1.2951-3.2854-5.1008-7.5023-8.0665-8.9379-0.681-0.32967-2.0417-0.71674-3.0237-0.86014-0.9821-0.1434-2.3809-0.37854-3.1085-0.52253-2.7403-0.5423-5.8501 0.35431-9.8339 2.8353-4.0266 2.5076-6.3458 6.266-7.6613 12.415-0.996 4.656-1.0522 9.5574-0.135 11.774 1.2169 2.9409 4.4636 6.4644 6.7823 7.3604 2.6406 1.0204 5.0326 1.3325 10.319 1.3461 3.3237 9e-3 5.882-0.11143 6.8791-0.32266zm-9.7895-10.748c-1.8867-0.45931-3.6451-1.9408-4.0049-3.3741-0.2098-0.83613 0.3176-4.7161 0.8438-6.2076 0.4924-1.3956 1.5989-2.8709 2.1532-2.8709 0.2312 0 0.5706-0.20546 0.7542-0.45657 0.4888-0.66852 3.9897-0.81306 5.5217-0.22797 1.5508 0.59223 2.1302 1.2898 3.2264 3.8839 1.2233 2.8952 1.2721 4.4392 0.2056 6.512-0.8699 1.6908-1.68 2.391-3.1643 2.7353-1.2119 0.28108-4.3916 0.28448-5.5357 6e-3zm6.1559-3.0102c0.5744-0.57433 0.7163-0.9961 0.8052-2.3928 0.091-1.4277-0.01-1.9538-0.6254-3.3298-0.8525-1.8996-1.5805-2.397-3.5088-2.397-0.8997 0-1.5076 0.16303-1.9731 0.52917-0.37 0.29104-0.7929 0.52917-0.9398 0.52917-0.2774 0-0.8839 1.4781-1.3571 3.3073-0.9033 3.4921 0.382 4.6964 4.8339 4.5289 1.8266-0.0687 2.1492-0.15914 2.7651-0.77502zm16.598-32.038c-2.4827-0.7852-3.9026-2.0711-5.7547-5.2115-0.8938-1.5157-0.9919-1.8665-0.9896-3.5405 0-2.5218 0.7913-4.1619 3.1152-6.4858 1.6068-1.6068 1.9538-1.8263 3.3429-2.1147 0.8525-0.17698 2.4673-0.28012 3.5884-0.22921 1.7513 0.0795 2.3328 0.24163 4.1283 1.1508 2.5071 1.2695 3.6561 2.2291 4.4053 3.679 0.8037 1.5555 0.7766 6.4731-0.048 8.6656-0.8168 2.1722-1.584 3.1878-2.9165 3.861-1.0428 0.52681-1.5601 0.59328-4.4958 0.57762-1.8887-0.0101-3.7731-0.16185-4.3757-0.35241zm7.0861-2.1093c1.9376-0.82559 2.6683-2.5242 2.6893-6.2518 0.012-2.154-0.073-2.665-0.5934-3.5719-1.1054-1.9254-3.9913-3.3109-6.8767-3.3015-2.1917 7e-3 -3.6192 0.60784-4.7783 2.0105-2.0672 2.5018-2.4613 4.9208-1.1409 7.0029 1.2409 1.9566 2.3846 3.093 3.5676 3.5448 2.3158 0.88443 5.7472 1.1572 7.1324 0.5669zm-5.4843-5.5951c-0.9476-1.2424-0.8563-2.3406 0.2046-2.4622 0.4906-0.0562 0.9459 0.10686 1.3229 0.47386 0.3162 0.30775 0.9022 0.82256 1.3023 1.144 0.5463 0.43893 0.6869 0.73273 0.5645 1.1798-0.14 0.51127-0.341 0.59532-1.4237 0.59532-1.131 0-1.3336-0.0957-1.9706-0.93083zm-73.655 254.73c-0.9667-1.5124-4.0025-9.1227-5.2508-13.163-1.864-6.0331-1.9312-6.6346-1.935-17.343 0-7.1727 0.078-9.7525 0.314-9.988 0.4167-0.41666 1.5168-0.40798 1.677 0.0132 0.069 0.1819 0.1587 4.8551 0.1989 10.385 0.078 10.773 0.077 10.76 1.6861 15.875 0.9054 2.878 3.909 10.685 4.7721 12.403 1.04 2.0706 1.0302 3.0752-0.03 3.0752-0.461 0-0.8432-0.33532-1.4322-1.2568zm-16.09-11.759c-1.1587-1.827-1.5088-3.0864-1.623-5.8391-0.128-3.086 0.046-3.6344 1.1544-3.6344 0.9156 0 1.1675 0.74772 1.1675 3.4651 0 1.5638 0.162 2.9555 0.4507 3.8713 0.3308 1.0495 0.3761 1.5482 0.1701 1.8753-0.3599 0.57145-1.0379 0.70599-1.3197 0.26182zm136.75-58.111c-0.2275-0.14804-0.42-1.3985-0.5808-3.7718-0.3572-5.2722-1.0891-7.3377-4.4922-12.678-0.9736-1.528-2.2337-3.552-2.8002-4.4979-1.3353-2.2293-2.6826-3.6764-5.2295-5.6169-1.773-1.3509-2.0542-1.6737-1.9843-2.278 0.07-0.60214 0.2224-0.7158 1.0551-0.78508 0.8752-0.0728 1.1828 0.10334 3.0442 1.7436 1.1389 1.0036 2.4498 2.2564 2.9131 2.7841 2.1549 2.4543 7.2015 10.792 8.4999 14.043l0.9633 2.4121 0.01 4.3656c0 4.1686-0.019 4.3687-0.5242 4.4333-0.291 0.0372-0.6823-0.032-0.8694-0.1538zm4.6246-14.532c-0.062-0.10914-0.3831-1.0319-0.7138-2.0505-0.8435-2.5978-1.5392-3.8879-3.5452-6.5743-1.8771-2.5138-2.258-3.391-1.7423-4.0125 0.774-0.93259 1.4599-0.47713 3.4279 2.2763 3.4017 4.7591 5.099 9.2785 3.8324 10.205-0.5372 0.39281-1.0863 0.46099-1.259 0.15632zm-356.89-105.11c-1.5471-1.0247-3.6511-3.2734-3.6511-3.902 0-0.64544 0.5046-1.1226 1.1873-1.1226 0.5249 0 2.5265 1.8432 3.338 3.0739 0.3232 0.49028 0.3582 0.0879 0.279-3.2162-0.076-3.1701-0.016-3.9324 0.3703-4.7474 0.8931-1.882 0.6879-1.8476 11.592-1.9412 5.3784-0.0462 10.057-0.0141 10.397 0.0712 0.501 0.12574 0.6181 0.33123 0.6181 1.0844 0 0.569-0.1492 0.98655-0.3848 1.077-0.2116 0.0812-4.6581 0.16677-9.881 0.19013-7.612 0.0341-9.5831 0.11453-9.934 0.4056-0.3606 0.29922-0.4377 0.89712-0.4377 3.397v3.0338l0.8141-0.68498c0.9217-0.77561 1.6136-0.86982 2.0983-0.28574 0.745 0.89769-2.7686 4.3633-4.4238 4.3633-0.4285 0-1.3201-0.35832-1.9812-0.79625zm131.62-1.6116c-1.4847-0.82986-1.9182-1.2052-1.9182-1.6605 0-1.2498 1.0885-1.5674 2.4823-0.72434 0.4537 0.27445 1.071 0.5732 1.3718 0.6639 0.6015 0.18139 0.6221 0.45871-0.426-5.7332-0.459-2.7113-0.2635-2.6339-6.1756-2.4453-2.7818 0.0887-6.4865 0.27093-8.2327 0.40489-9.5987 0.73635-10.186 0.69644-10.186-0.69158 0-1.4138 0.3164-1.447 17.727-1.8608 6.678-0.15869 6.7544-0.15437 7.4798 0.42371 0.4031 0.32123 0.9119 0.93033 1.1308 1.3536 0.4509 0.87201 1.1751 5.2925 1.1774 7.1874 9e-4 0.69123 0.091 1.2547 0.2 1.2522 0.1092-3e-3 0.4845-0.30607 0.8342-0.67457 0.6949-0.73247 1.5319-0.76622 1.9624-0.0791 0.2088 0.33325 0.08 0.69191-0.5619 1.5648-1.8366 2.4973-3.7199 2.7769-6.8649 1.019zm-40.656-1.1138c-0.4326-0.3163-0.4645-0.76178-0.3649-5.0932 0.086-3.7508 0.2338-5.2538 0.7031-7.1639 0.7213-2.936 1.019-3.4136 1.9783-3.1728 0.5717 0.14351 0.9688 0.70641 2.1274 3.0156 1.5633 3.1159 2.5817 4.5686 5.2206 7.4466 1.367 1.4909 1.7876 1.814 1.9182 1.4737 0.092-0.23976 0.1673-2.3985 0.1673-4.7973 0-2.5004 0.1168-4.5797 0.2739-4.8732 0.3104-0.58007 1.1136-0.67562 1.5217-0.18104 0.4298 0.5209 0.6268 4.7964 0.3777 8.1955-0.3163 4.3152-1.0253 5.007-3.5106 3.425-2.1694-1.381-6.4488-6.4786-7.2919-8.6861-0.3979-1.042-0.4897-1.13-0.7368-0.70631-0.1599 0.2741-0.3416 2.7541-0.4191 5.7197-0.1113 4.2608-0.2107 5.2824-0.5337 5.4861-0.5403 0.34075-0.8725 0.32026-1.4312-0.0883zm-40.837-0.51327c-0.1453-0.1819-0.347-1.0451-0.4481-1.9182-0.1011-0.87312-0.4261-2.3614-0.7223-3.3073-0.6755-2.1573-1.0037-7.9705-0.4853-8.5951 0.5094-0.61378 1.5612-0.5026 1.8409 0.19461 0.1314 0.32742 0.3863 1.8895 0.5665 3.4713l0.3276 2.876 1.3461-0.16176c0.7403-0.089 2.0902-0.16279 2.9997-0.16405l1.6536-2e-3v-3.7835c0-2.59 0.1002-3.8837 0.3175-4.101 0.4692-0.46919 1.4808-0.38539 1.7565 0.14552 0.1323 0.25466 0.2988 3.5278 0.3701 7.2736 0.1373 7.2159 0.081 7.594-1.0733 7.2275-0.5374-0.17058-1.1062-2.2562-1.1062-4.0564 0-0.7629-0.075-0.87946-0.463-0.72014-0.2547 0.10455-1.5793 0.25336-2.9437 0.33069l-2.4807 0.1406 0.1727 2.145c0.1394 1.7317 0.092 2.2597-0.2463 2.7403-0.4673 0.66397-0.984 0.76287-1.3823 0.26458zm-14.541-0.37026c-1.6496-0.5842-3.6614-2.6006-4.0522-4.0615-0.4282-1.6008-0.1691-4.3934 0.5495-5.9222 0.7053-1.5006 2.5004-3.1356 3.9044-3.5563 1.3576-0.40675 4.3516-0.40276 4.7607 6e-3 0.1746 0.17462 0.3175 0.59429 0.3175 0.93259 0 0.76653-0.8627 1.1312-2.6762 1.1312-2.0598 0-3.4926 0.98503-4.3227 2.9717-0.9513 2.2769-0.1383 4.8452 1.8874 5.9626 0.8362 0.46129 1.6975 0.63946 3.6962 0.76464 1.4332 0.0898 2.8215 0.27401 3.085 0.40941 0.6866 0.35285 0.4681 1.3369-0.3468 1.5622-1.2329 0.34091-5.6407 0.21084-6.8028-0.20075zm30.151 0.10568c-0.3521-0.44096-0.5774-4.3261-0.3013-5.1973 0.1202-0.37932 0.696-2.2375 1.2796-4.1293 1.3115-4.2515 2.4922-6.35 3.5727-6.35 0.6807 0 0.828 0.18743 1.6641 2.1167 0.5045 1.1642 1.3117 3.0096 1.7938 4.101 1.0037 2.2723 2.3274 7.0809 2.1989 7.9878-0.061 0.42859-0.2842 0.63143-0.7481 0.67915-0.5465 0.0562-0.7649-0.1386-1.2568-1.1215-0.3274-0.65426-0.5953-1.3642-0.5953-1.5777 0-0.3406-0.1336-0.34097-1.0916-3e-3 -0.6003 0.21183-1.8505 0.38514-2.7781 0.38514h-1.6865v1.208c0 0.66441-0.1233 1.4383-0.2739 1.7198-0.3083 0.57602-1.3753 0.6847-1.7775 0.18105zm6.9424-6.35c-0.098-0.47295-0.7373-2.0454-1.4208-3.4943l-1.2428-2.6344-0.5672 1.5761c-0.5834 1.6211-1.3956 4.6008-1.3956 5.12 0 0.19219 0.8241 0.29254 2.4022 0.29254h2.4023zm11.222 5.5562c-0.014-0.0364-0.1831-1.0186-0.3749-2.1828-0.1918-1.1642-0.6558-3.9026-1.0311-6.0854-0.9868-5.7388-0.9046-6.7469 0.5497-6.7469 0.8286 0 1.0484 0.56887 1.2427 3.2157 0.092 1.2593 0.3525 3.2239 0.5778 4.3656 0.6061 3.071 0.8915 6.2019 0.6283 6.894-0.1561 0.41067-0.4456 0.60591-0.8983 0.60591-0.3674 0-0.6798-0.0298-0.6942-0.0661zm265-15.024c-0.093-0.15033 0.6401-2.6804 1.629-5.6224l1.798-5.3491 0.096-5.9691c0.089-5.494 0.042-6.2748-0.5857-9.809-1.2419-6.9926-1.1982-8.9604 0.1993-8.9604 0.9793 0 1.2342 0.50702 1.2342 2.4545 0 1.0007 0.266 3.4475 0.5912 5.4372 0.5007 3.0637 0.5918 4.6509 0.5953 10.365v6.7469l-1.52 4.6302c-1.7384 5.2952-2.2738 6.35-3.223 6.35-0.3573 0-0.7257-0.123-0.8186-0.27334zm13.217-2.7202c-0.073-0.19124 0.042-1.0228 0.2573-1.8479 0.7012-2.6919 1.028-6.7666 0.8848-11.03-0.151-4.4962-0.01-5.2952 0.9328-5.2952 1.1829 0 1.2503 0.32032 1.2483 5.9399 0 5.8162-0.4005 9.3709-1.271 11.339-0.4504 1.0183-0.6729 1.2422-1.2341 1.2422-0.3766 0-0.7447-0.15647-0.8181-0.34771zm-140.64-19.933c-0.481-0.57896-0.6505-6.7636-0.2553-9.311 0.715-4.6079 3.9566-12.779 6.2715-15.808 2.3178-3.0328 6.8888-8.0793 7.4443-8.2187 0.899-0.22565 1.3899 0.0774 1.3899 0.85821 0 0.52453-0.6129 1.3435-2.4193 3.233-4.2248 4.4193-6.6205 8.1516-8.3404 12.994-0.2624 0.73878-0.5682 1.3432-0.6795 1.3432-0.1114 0-0.2025 0.27902-0.2025 0.62004s-0.2582 1.3233-0.5739 2.1828c-0.4936 1.3442-0.5894 2.266-0.6848 6.5899-0.09 4.0783-0.1892 5.1145-0.5255 5.4901-0.5189 0.57971-0.9579 0.58769-1.4245 0.0259zm-6.334-16.914c-0.2741-0.33017-0.2856-0.70626-0.055-1.7859 0.4458-2.0868 1.832-5.4901 2.9981-7.3608 0.5759-0.92392 1.2378-2.1263 1.4708-2.672 0.2668-0.62493 0.6009-0.99219 0.9025-0.99219 1.7703 0 1.7848 1.3292 0.043 4.001-1.3105 2.0107-2.6756 5.02-3.226 7.1116-0.4983 1.8933-1.3859 2.5998-2.1339 1.6984z"/></g></svg>
