<?xml version="1.0" encoding="UTF-8"?>
<!-- Created with Inkscape (http://www.inkscape.org/) -->
<svg width="348.6mm" height="246.47mm" version="1.1" viewBox="0 0 348.6 246.47" xml:space="preserve" xmlns="http://www.w3.org/2000/svg"><g transform="translate(-14.895 268.82)"><g fill="#fff"><path class="teers-phoneme" d="m201-177.47c-0.37446 0.0702-0.85052 9.1796-1.0961 16.972-0.0195 19.336-0.85493 5.0229-0.60927-4.7926-0.50795-19.022 0.0199-0.94195-1.142 4.9731-0.78745-18.53-1.528-7.0844-1.9539 3.5397-1.2687 34.166-0.13569-24.415-1.1333-7.0255-0.2573 16.76-1.2654-1.7082-1.5875 0.50231-0.54716 15.546-1.9103 1.0545-2.1167 5.0231-0.8916 18.038-0.93879 10.693-1.3229-2.231-1.0327 14.382-0.35434 18.251-1.5214 4e-3 -2.069 15.218-1.8365-6.533-2.9011 5.6255-0.67276 26.863-0.0178-16.391-1.5885-1.7571-0.39845 32.079-0.48846-23.178-1.6945 3.319 1.6825 23.774-2.2848-21.97-1.1017-1.1233 0.0128 19.244-0.0382-2.83-1.247 1.4667-0.8118-27.45-1.716 24.754-1.8521-0.75347-0.43475-25.592-1.5915 25.874-1.5875-0.50231-1.1116-27.6-0.48096 27.6-1.5875-0.68283-1.3658-25.751-0.17673 26.912-1.3229 1.1851-1.4221-17.849-1.7688 0.0366-2.1167 8.7904 6e-3 -11.062-0.86567-27.821-1.3229-7.7564-0.29541 22.687-0.8047-30.192-1.5875-0.18052-0.37375 23.963-0.5373-28.065-1.5875-4.0479 1.0284 20.328-0.76186 3.4235-1.3229-7.6053-0.61467 10.229 1.292 27.443-1.111 9.0416-1.4808 30.472 0.50755-26.065-1.1953-0.27176-0.53035 30.654-0.37048-25.509-1.6433-0.12264-0.38459 30.236-0.36507-26.483-1.5875-0.72207-0.14877 31.382-0.67248-23.866-1.6066 1.6894 0.88763 28.257-1.3924-26.125-1.5105 1.7502 0.68147 23.574-1.1676-25.372-2.5249-0.82018-0.6745-24.67-1.3634 19.431-1.7678 4.2422 0.56167-16.209-1.7155-10.035-1.1539 2.9442-0.61984-3.3538-1.2708-19.393-1.7746 1.7738-0.64424-18.492-1.3476 5.1582-2.1156-3.6751 0.0408 0.55782-1.5626 3.621-6.3846 0.27176-3.1946 0.75519-4.9505-5.2551-7.862-0.58767-2.3326-8.6905-4.494 1.5969-7.7148-8.1674-2.2382 6.0587-3.3709-13.286-4.2478 3.528-1.8262 4.8446-1.0432-12.185-1.8376 3.6928-0.43867-13.46-0.64789-1.4364-1.0547-0.63181-2e-3 1.6197-1.7088 2.9743-3.9419 3.9027v1.3068c5.4462-2.2594 2.002 21.859 3.9842 13.992 1.5839 8.4736 1.5086-20.004 3.3941-0.20602 0.803 0.66315 8.0266-13.005 8.2021-2.7921 0.76241-12.064 6.2516-1.4838 6.89-8.4186 2.2762 3.2635 8.9302-5.1618 10.54 2.2202 1.8861-8.9698 1.493 11.278 2.4138 2.9001 2.5045-17.566 0.43538 19.523 1.8521 1.5403 1.247-23.111 0.15297 22.221 1.7782 3.9135 0.24181-33.14 0.95828 27.444 1.6009-1.7787 0.29665-28.115 0.95966 27.001 1.588-0.50231 0.35946-27.58 0.97767 31.477 1.587 1.0046 0.37738-21.746 0.49722 4.202 1.3834 12.181 1.2281-10.635-1.5858-23.604 1.3229-20.946-0.55431 0.33355-0.51046 34.26 0.79375 9.1417 1.1947-28.716 0.30222 29.787 1.7782 0.89965 0.26766-33.523 0.96498 29.468 1.6009-1.2764 0.3568-20.85 0.6262 2.8413 0.8015 11.176 1.7406-8.2272 0.63789-33.954 1.4495-9.022 1.8657 27.068-0.0555-32.726 1.7787-2.7823 0.83086 24.71 0.63039 0.3906 0.52865-9.7951 0.26674 12.61 1.6658-2.4232 1.3229 12.307 0.26857 27.135 1.6055-32.466 1.5875-1.5069 0.58384 31.825 1.4521-31.33 1.6485 0.12558 0.58685 30.973 1.3859-30.733 1.5462 0.0177 1.9187 30.262-0.40344-28.688 2.0805-2.3556-0.0263 23.357 0.74275 2.4027 1.34-8.5874 3e-3 13.115 0.85154 31.774 1.3229 8.761 0.25497-25.631 0.94849 33.141 1.5265 2.1642 0.1641-31.34 1.1656 31.135 1.6485-0.12558 0.2413-30.915 1.5832 30.296 1.6619-1.0252 1.4179-27.997 0.59038 28.743 2.0231 1.1685 0.0496-30.861 1.0884 29.19 1.6066-0.64555 0.0855-24.147 1.177 9.8309 1.5172 7.1658-0.9516-23.867 1.6769-17.963 1.3932 3.1316 1.0853-9.84 1.0108-30.792 1.3839-8.6649-0.32016 15.185 1.4987 11.01 0.98495-2.4605 1.4202-29.332 1.0451 41.298 1.5999 6.3534-0.58192-16.57 1.6153-9.4987 1.0583 2.541-0.32959 18.758 1.6517 5.6882 1.1312-5.1595 1.0047-22.67 1.0189-1.8018 1.0025 10.122 0.50453 27.711 0.27821-28.757 1.5813-2.6509 0.21604 23.507 1.2971 0.55606 1.5565-9.2152-0.0661-18.796 0.83238-4.1922 0.55345 6.115 0.54482 31.04 0.18156-28.524 1.5834 0.75935 1.5121 19.635 0.21957-0.4794 1.9182-8.2842 0.44107 33.005 2.3367-29.209 2.3151 0.24723-0.12526 27.834 1.7263-19.844 2.0986-5.2115-0.44795 31.08 1.8064-20.488 2.1348 3.7045 8.1e-4 22.399 1.1713-18.776 2.0986-3.9871-0.52933 29.763 1.8919-19.881 2.1348 3.9871-0.36948 24.885 2.1912-27.037 2.1167 1.5069-0.4512 29.061 2.0738-29.545 2.1167 0-0.29717 29.063 2.1504-26.516 2.1167-1.8582 0.49653 31.587 1.7712-24.326 2.1167-0.18051-0.12375 30.858 2.6732-23.379 2.6618-0.9644-0.36527 31.55 1.459-24.031 2.1006 1.4961 0.19845 26.072 1.9916-21.656 2.1167-2.541 0.106 28.145 2.5491-19.213 2.6458 1.5364 0.0824 22.745 2.4513-24.24 2.1926 1.2783 0.78802 23.188 1.5567-17.532 2.5513-4.5434-0.47377 28.533 2.4868-16.378 2.7378-0.0824-0.12967 26.426 0.43798-6.4146 1.9782-2.2476-0.30984 29.581 1.9262-7.8505 2.6928 2.6126-0.66105 28.939 2.4339-16.514 2.7373-0.36496-0.30146 29.692 0.79695-14.105 2.0252 0.36496-0.20259 16.946 0.77527 7.8466 2.1348-2.6205 0.64035 0.96306 0.85664 22.551 2.1167 0.0481 0.87707-0.42269 1.5116 8.567 1.5488 8.6354 0.0155-0.0199-0.12915-2.4615-0.48473-9.8716 1.2831 5.7261 1.8622-3.1021 2.111 2.7431 0.83528 17.013 0.85382 1.036 2.3812-3.7379 0.39395 15.848 0.49716 14.163 2.3812 1.1783 0.92198 7.665 0.60599 16.707 2.9766-1.1694 1.0032 18.915-0.77759 1.896 3.3295 0.48171-0.74387 14.76-0.58974 5.7526 1.3668-0.49054 1.0895 16.492 0.56692 1.8659 2.3812 0.75346 1.3424 8.5793 0.51204 6.992 2.6458 0.0343 1.4914 8.7342 0.2867 6.8488 2.8329-0.57196 0.66804 19.212 1.643-11.287 3.2122 5.3106 1.9086-8.7107 1.9219 1.1472 4.869-5.3331 0.42973 9.0722 0.92938-2.0007 3.3734 0.56019 2.5947-0.81446 5.6486 1.3265 8.4646 5.1193 0.62912 17.683 2.4278-1.8805 3.9708 5.6804 0.6866-12.169 0.96506-1.0088 2.4474-5.7834 3.9378-5.3372 4.6519 4.9483 8.4005-3.007 3.1359-0.32579 8.6251-2.6211 10.583 2.5116 1.9204 0.12109 6.396-0.72937 8.7023-1.7865 8.3704-7.2747 19.808-1.712 29.553-4.2039 0.051-2.5286-18.259 7e-3 -24.644-2.4968-6.0426-2.3656-6.8758-6.0581-10.436-3.938-3.4456-2.4212-2.3324-3.3176-5.0271 1.3745-3.3842 0.4689-9.4748 2.5712-9.7896-0.54156-2.6697-6.1031-7.2423 0.2094-8.6651-0.71814-1.649-12.27-0.49341 0.37591-3.2112-7.1246-1.9096 3.0823-3.8704 12.752-6.3831 8.3902-1.7909 9.5941-2.8015-7.3909-3.9656 3.5397-2.2071-5.6079 0.0527 0.46607-2.6458 0.50231 0.30695-15.24-4.3476 8.8723-3.3988-4.8014-4.5535 9.6835-0.67846-2.123-4.5873 2.231 0.24332 4.4165-4.5159-10.679-3.3771 3.2944-1.4425-8.6911-3.2158-5.4896-2.9249-1.658-1.1982 2.0608-2.7772-11.341-2.1234 0.23742-1.4935-3.4663-2.237 4.2272-2.3213-7.1187-1.412 9.9742-1.1874 1.7332-2.1699 8.5393 4e-3 -12.369-0.78041-3.0682-3.1202-8.4206 0.73982 15.305-0.30196-2.0815-2.9595 0.37182 1.2418 14.913-0.22837-2.8132-1.3622 5.9041-1.052-21.284-0.46774 7.8011-1.6185-0.985-1.6642 8.2984-1.1066-14.176-2.5151-0.89278-2.9738-16.123-0.79843 15.62-2.1828-3.5122-3.3344-8.4287-1.3516 12.799-2.5828 2.3899-2.1698 14.089-0.92663-18.093-2.7089 2.1309-2.4743-21.627-0.97165 14.028-2.1167-4.5208-2.7711-8.3935-1.6516 10.485-2.5926 2.0092-2.3026 16.105-0.66595-16.146-2.4345-0.90455-1.7477 1.1114-2.0013-11.151-1.8521 6.43-0.25748-14.728-0.64606-3.881-1.7818-3.5692-1.1969-24.692-0.0856 15.886-2.0919-2.8343-0.0135 3.0169-1.4 11.18-0.88883-3.8939-0.23946-3.3933-2.621 15.412-2.0634-3.265-1.2122 8.1943-1.2503 10.536-2.0231 3.8949 0.1221 5.6589-0.34184 14.406-1.2051 0.12361-1.589 24.694-1.2583-19.026-2.6903 4.0185-1.3877 0.0651-0.89494-19.623-2.3368-1.5069-1.8426-21.146-1.0151 7.5776-1.5875 5.0388-1.4831-19.186-1.7926 10.897-2.1167-3.0001 1.2832-22.116-0.9652 3.7428-1.5167 3.0472 0.31913-19.07-1.0056-8.5841-2.452 1.9465 0.43699-10.98-0.16212-15.198-1.3229-2.231-0.21905-3.668-1.3484-16.111-2.9104 2.231-0.6047-9.547 1.4741-17.78-1.279-7.2609-2.1466-23.477 0.4223 21.784-1.6314-0.52488-1.6834-23.484-1.7781 14.952-2.6458-7.2129-0.64744-17.269-0.37531 1.631-2.0423 0.77702 0.28358-14.785-0.72655-18.34-1.3973-1.6011-0.3885 18.848-0.95129 6.0492-0.79788-4.5306-0.47952-27.839-0.18201 20.174-1.5146-1.1488-0.0838-8.0686-0.26693-11.071-0.4842-11.03zm29.931 22.865c-0.047-2.1758-0.18053-3.8948-0.41135-3.6732 0.15869 1.4405 0.29356 2.661 0.41135 3.6732zm4.9754 3.264c2e-3 -0.44732-0.0261-0.78091-0.0951-0.90946 0.0325 0.3178 0.0641 0.62039 0.0951 0.90946zm-117.3 0.74856c5e-4 -0.36271-0.0845-0.73887-0.2682-1.1263 0.0993 1.005 0.18766 1.2856 0.2682 1.1263zm37.011-4.4963c0.0714 5e-3 0.16854 1.3806 0.29197 5.1281-0.46173 14.018-0.55891-5.1469-0.29197-5.1281zm16.933 0c0.0713 5e-3 0.16854 1.3806 0.29197 5.1281-0.46173 14.018-0.55891-5.1469-0.29197-5.1281zm15.345 1.0193c0.0715 5e-3 0.16886 1.242 0.29249 4.6111-0.46247 12.603-0.55985-4.628-0.29249-4.6111zm-33.867 1.0213c0.0716 4e-3 0.1691 1.1017 0.293 4.0921-0.46348 11.186-0.56095-4.1071-0.293-4.0921zm25.399 1.0203c0.0719 4e-3 0.16975 0.96256 0.29403 3.5741-0.4649 9.769-0.56281-3.5872-0.29403-3.5741zm6.8792 0c0.0719 4e-3 0.16976 0.96256 0.29404 3.5741-0.46491 9.7689-0.56281-3.5872-0.29404-3.5741zm5.2906 1.0213c0.0722 3e-3 0.17022 0.8226 0.29508 3.0551-0.46705 8.3511-0.56509-3.0663-0.29508-3.0551zm40.695 5.0466c0.0832-0.01 0.19836 0.12578 0.34623 0.51997-0.52812 1.4078-0.6433-0.48422-0.34623-0.51997zm16.933 0c0.0832-0.01 0.19836 0.12579 0.34623 0.51997-0.52812 1.4078-0.6433-0.48422-0.34623-0.51997zm-63.984 2.0161c0.0736 2e-3 0.17354 0.5441 0.30076 2.02-0.4759 5.5211-0.57589-2.0274-0.30076-2.02zm-35.472 8e-3c0.0779 9.9e-4 0.18412 0.27103 0.31884 1.0076-0.50396 2.7552-0.61019-1.0113-0.31884-1.0076zm28.575 0c0.0779 9.9e-4 0.18412 0.27103 0.31884 1.0076-0.50397 2.7552-0.6102-1.0113-0.31884-1.0076zm112.82 2.5116c-0.0779 9.9e-4 -0.18463 0.27103-0.31936 1.0076 0.50395 2.7552 0.61071-1.0113 0.31936-1.0076z" stroke-width="1.3779"/><path class="fron-phoneme" d="m43.799-177.47c-0.12233-6e-3 0.01005 11.486-1.1327 17.596 0.1863-13.07-1.1183-22.513-1.5214-3.01-0.82663-21.446-2.4421-3.5899-3.175 7.0324-0.28311-10.209-0.68274-22.848-0.86765-3.8723-2.8555 19.698-1.2355 4.9095-1.7782-8.6854 0.19371 14.102-2.1154 27.288-2.3812 15.793-2.5551 7.963-11.406-2.4088-17.789 4.2157-2.0308 7.6185 8.5226-1.3684 9.7761 6.1818 0.32344-4.9368 0.84481-1.0353 1.2697 3.9812 1.5646-6.8012 8.7151-14.014 7.5365 0.97125 1.399-17.083 2.388-0.27767 1.8567 7.7956 0.583 25.555 0.13171-14.411 1.0537-11.061 1.5067-10.913 0.9204 13.764 1.0759 24.55 0.02682 19.025 0.7299 4.4141 0.51625-6.531 0.08541-26.448 1.9151 3.6655 1.5828 12.651 0.11395 23.321 0.76426-2.8835 0.54725-12.164 0.83485-31.205 1.0952 3.9839 1.3048 16.153 0.88058 26.187 0.80205-11.452 0.863-20.106 1.2007-32.736 0.98562 11.945 1.0284 22.546 0.53776 28.403 1.3524-0.89094 1.0888-13.882 1.1258-28.818 0.83133 4.4022 1.2532 15.461 0.73699 25.085 0.84929-6.1102 0.86351-14.833 1.1134-33.24 0.87474 8.5363 1.5177 20.89 0.44943 25.483 0.48626-20.035 0.79478-24.14 0.41716-26.136 1.2617 2.5208 1.3229 12.085 0.47793 25.271 0.29699-8.4079 0.98185-16.826 0.49344-24.391 1.6111-2.1813 1.1389 10.3 0.21064 30.19 0.62377-5.254 1.1296-17.769 1.1333-29.039 0.98319 6.6946 0.99994 16.888 0.30748 25.701 0.4554-6.3319 1.0413-15.729 0.8378-26.431 1.2946-0.1325 1.0754 12.84 0.44846 22.927 0.32132-6.1971 1.0413-14.85 1.035-25.114 1.1806 3.2964 1.0754 13.405 0.27143 18.872 0.47567 0.792 0.7767-8.3823 1.0411-17.926 1.593-6.3052 1.34 5.7452 0.4942 21.39 0.29846-20.391 2.0598-7.984 0.09382 25.935 1.654-22.076 1.6862-0.14717 0.81106 22.321 2.1295-24.516 2.0578-1.6325 0.20902 22.805 2.5929-21.011 2.1167-1.1057 0.5626 24.357 2.0153-26.973 2.1761-2.2849 0.36268 25.373 1.9136-25.905 2.0572-2.6371 0.1128 21.703 1.538-16.377 2.1167-3.5466 0.99266 18.173 0.84159 7.4436 0.79375-4.2392 0.38548 15.421 1.3585-9.1081 1.3229 6.429 1.1815 25.566 0.31968-21.279 2.1162-0.75346 0.67514 20.929 1.4-19.443 2.1167 0.25214 0.85322 23.941 1.0441-17.655 1.7875 0.13734 0.99692-12.708 1.5217 4.7698 2.1813 12.52 0.3379-17.46-1.0921-17.952 3.175-17.079 0.88495 2.7799 0.5456 21.279 1.5679-1.4069 0.80974 14.207 1.4842-3.717 2.9301 1.3764-1.612 15.218 0.81844 13.678 0.79375-1.4765 1.9919 10.408-0.40029-0.37381 2.3606 0.16678-0.08397 17.527 1.9718-9.042 2.3084 5.3361 0.44864-8.6801 9.9561-3.9388 15.477-5.5028 0.0822-0.089 0.1633-0.17407 0.24288-0.25508v-1.9327c-3.575 1.0739-7.7136 1.1285-8.5798-0.36398-3.4024 4.3207-5.5057-3.4133-6.2534-1.2156-0.66493 2.6461-1.7547-14.802-1.3229 2.7627-0.51773-12.468-0.93477 6.1487-1.5875-4.5208-1.0692 11.307-0.15673-14.445-1.5911 4.4374-1.3793-14.785-0.7588 0.83431-1.3193-2.177-1.4604 8.7878-1.0356-28.218-2.1167-4.4914 0.67781 17.527-2.2061-12.101-1.0583 4.2696-0.45568-1.3515-1.5469 4.0915-1.5694-2.3212 0.28725-29.338-1.2611 21.053-2.6639-1.9778-1.2 12.314-0.99986 0.34729-1.0583-6.0277-0.38129-30.301-1.0961 13.223-1.5875 10.046-1.5664 5.7628 0.04843-8.3347-1.3276-5.0212-1.8285-10.876-2.261 13.247-1.0537 1.7561-0.06616 15.99-1.2824-6.8626-2.3373-4.5208-1.5751 30.646-0.77485-29.829-2.1606-1.5069 0.58103 13.206 0.3731 6.7899-0.79375 12.055-0.09533-11.794-0.70134-37.091-1.3229-11.624-0.17716 21.424-1.5571 2.5424-1.0625-7.1913 0.32654-19.774-1.2772-4.0629-1.0542 6.1867-0.07076 21.421-1.602 4.7828-1.0625-6.8067-0.02896-19.621-0.58233-6.3117-1.0351 4.457 0.15898 19.359-1.705 10.404-1.0816-3.6015-0.54184-23.01 0.12609 3.941-1.9141 11.543-0.13415-10.063-0.53685-32.931-0.80098-9.0181-1.5372 24.044-1.7744-27.943-2.1187 0.3787-1.223 27.267-1.9154-29.106-2.0603 1.0017-0.9367 27.371-1.777-25.138-2.0975-4.0116-0.6946 26.678-2.2311-19.862-2.1167 1.398-0.49049 20.07-2.104-13.444-2.1167-2.6313-1.8926 24.384-1.4888-16.022-2.1167-1.0046-0.93399 16.872-2.0966 10.004-1.6567-4.1294 0.09431-3.0432-2.4437 34.493-2.0474 7.2207 0.3276-31.577-1.263 21.903-2.1146-0.2129 0.03229-15.258-0.35287-14.416-0.98392-0.0608-0.94416 27.3-1.1632-29.752-1.9286-0.7309-0.45211 15.636-0.6947 10.784-1.0583-2.0092-0.34494-7.161-0.46221-9.8106-0.5209-9.8137zm54.932 37.167c-0.0292 0.5656-0.0198 1.1878 0.0315 1.8729-8e-3 -0.69001-0.0184-1.3124-0.0315-1.8729zm-72.531 2.0652c-0.45472 1.9766-0.43783 3.9183 0.39274 5.2703-0.11145-1.6784-0.24623-3.5406-0.39274-5.2703zm-1.2697-3.9812c-0.07495 1.1441-0.13964 2.763-0.18965 4.9525 0.35321-2.1514 0.38785-3.7588 0.18965-4.9525zm31.53-10.66c0.07218 3e-3 0.17022 0.82258 0.29507 3.0551-0.46704 8.3511-0.56508-3.0663-0.29507-3.0551zm22.752 1.0203c0.07269 2e-3 0.17192 0.68342 0.29766 2.537-0.47036 6.934-0.56958-2.5464-0.29766-2.537zm-20.659 3.0364c0.07789 9.9e-4 0.18412 0.27103 0.31884 1.0076-0.50396 2.7552-0.6102-1.0112-0.31884-1.0076zm14.26 0.9899c0.08318-0.0101 0.19836 0.12577 0.34623 0.51998-0.52812 1.4078-0.6433-0.48423-0.34623-0.51998zm2.1167 0c0.08318-0.0101 0.19836 0.12577 0.34623 0.51998-0.52812 1.4078-0.6433-0.48423-0.34623-0.51998zm-3.1476 2.024c0.07789 9.8e-4 0.18412 0.27103 0.31884 1.0076-0.50396 2.7552-0.6102-1.0112-0.31884-1.0076zm2.1244 2e-3c0.07543-0.0137 0.17884 0.38566 0.31109 1.5079-0.48333 4.1013-0.58674-1.4582-0.31109-1.5079z" stroke-width="1.3779"/><path d="m108.43-268.82c-0.37957 4.8e-4 -0.43669 6e-3 -0.66443 0.0583-0.67374 0.15627-1.2755 0.5043-1.7885 1.0346-0.65961 0.68184-1.0642 1.6087-1.1715 2.6833-0.0923 0.92483 0.15937 1.8168 0.69525 2.4639 0.29473 0.35595 0.92897 0.81007 1.559 1.1162 0.24375 0.11843 0.32124 0.14908 0.87192 0.34487 0.61914 0.22013 1.382 0.67605 1.7593 1.0514 0.29192 0.29044 0.37578 0.45773 1.1635 2.3208 0.10862 0.25691 0.36314 0.82676 0.5656 1.2664s0.41713 0.91149 0.47703 1.0486c0.2732 0.62523 0.64897 1.3838 1.0179 2.0551 0.23452 0.42668 0.43245 0.81725 0.58942 1.1626 0.32312 0.71089 0.60757 1.2297 1.104 2.0138 0.6763 1.0683 0.98211 1.6578 1.7878 3.446 0.53549 1.1886 0.67638 1.4842 0.94634 1.9866 0.35214 0.65533 0.51907 1.0058 0.72992 1.5322 0.0937 0.23406 0.19426 0.46763 0.22341 0.51901 0.15614 0.27521 0.86644 1.5818 1.1355 1.653 0.22624 0.06 0.72025-1.0222 0.97805-2.6629 0.05-0.31847 0.0321-0.90847-0.0419-1.3775-0.072-0.45699-0.22384-1.204-0.32269-1.588-0.1508-0.58584-0.56398-1.7527-1.0623-2.9999-0.24559-0.6147-0.31396-0.75522-0.90913-1.8684-0.27776-0.51952-0.68446-1.2903-0.90377-1.7127-0.2193-0.42246-0.51729-0.98592-0.66219-1.2522-0.31693-0.58239-0.49507-0.93706-1.1607-2.3096-0.54752-1.129-0.66486-1.3516-1.1927-2.2614-0.56438-0.97284-0.64493-1.1157-0.8362-1.4842-0.26467-0.51003-0.66129-1.3685-0.68646-1.4859-0.0149-0.0695-0.015-0.1475-1.5e-4 -0.25199 0.0118-0.0832 0.0274-0.23541 0.0345-0.33817 7e-3 -0.10276 0.0497-0.4857 0.0947-0.85108 0.18115-1.4725 0.18059-1.8459-4e-3 -2.541-0.24889-0.93791-0.70731-1.5359-1.5718-2.0502-0.78115-0.46468-1.7662-0.72259-2.7549-0.72144zm10.118 0.2633c-0.22097-8e-3 -0.44589-4e-3 -0.59284 0.0141-1.0236 0.12723-1.8307 0.63847-2.4382 1.5445-0.35901 0.53546-0.57904 1.1606-0.6622 1.8817-0.0319 0.27665-0.0276 0.82932 9e-3 1.2065 0.18668 1.9058 0.18062 2.1007-0.0781 2.5159-0.14038 0.22523-0.25888 0.41853-0.34903 0.46453-0.0417 0.0213-0.0979 0.0587-0.12473 0.0831-0.11336 0.10308-0.17406 0.31918-0.12845 0.45739 0.0566 0.17152 1.2691 2.3259 1.3841 2.4593 0.0762 0.0884 0.25848 0.20256 0.40962 0.2566 0.23467 0.0839 0.46329 0.0142 0.70997-0.21656 0.21543-0.20152-6.2e-4 -0.0287 0.26807-0.547 0.29163-0.56256 0.3588-0.67866 0.51082-0.88249 0.31506-0.42241 0.7178-0.67818 1.9373-1.2305 0.90365-0.40923 1.2445-0.62499 1.7184-1.0879 0.70485-0.68852 1.0464-1.299 1.2354-2.2075 0.17362-0.83469 0.11739-1.4436-0.20853-2.2568-0.19468-0.4857-0.46793-0.88555-0.88144-1.2896-0.37794-0.36926-0.55876-0.50562-0.90064-0.67947-0.33465-0.17016-0.82592-0.33933-1.2498-0.43045-0.13106-0.0282-0.34806-0.0477-0.56902-0.0555zm-10.112 2.0915 0.25646 0.0314c0.6275 0.0768 0.94808 0.25136 1.1422 0.62202 0.10582 0.20203 0.1457 0.3736 0.14513 0.62275-6e-4 0.23194-0.0344 0.38646-0.12905 0.58986-0.18177 0.39048-0.46882 0.67869-0.76878 0.77204-0.18323 0.057-0.42568 0.0525-0.60697-0.0114-0.2584-0.0912-0.63658-0.36764-0.76847-0.56158-0.14472-0.2128-0.13775-0.64817 0.0171-1.0596 0.13686-0.36359 0.33182-0.66107 0.58079-0.88635zm10.213 0.15881 0.20496 0.14185c0.63377 0.43846 0.83829 0.66037 0.9755 1.0586 0.0543 0.15744 0.0572 0.18606 0.0581 0.55012 7e-4 0.42814-0.0237 0.57674-0.13321 0.80152-0.11928 0.24484-0.40591 0.43711-0.74019 0.49669-0.51126 0.0911-1.0714-0.0547-1.383-0.36006-0.22774-0.22308-0.31263-0.43528-0.31271-0.78246-5e-5 -0.20285 7e-3 -0.25034 0.067-0.42553 0.10912-0.32102 0.26442-0.57505 0.54759-0.89589 0.16309-0.18477 0.48279-0.45915 0.6232-0.53478zm-4.9506 9.6253c0.34909 0 0.6321 0.29787 0.63213 0.66533 4e-5 0.36752-0.28299 0.66547-0.63213 0.66547-0.34908-9e-5 -0.63202-0.29801-0.63198-0.66547 3e-5 -0.3674 0.28295-0.66525 0.63198-0.66533zm-2.5832 2.6534c-0.066-3e-3 -0.12493 0.0313-0.17474 0.1091-0.0382 0.0598 1e-3 0.11315-0.0476 0.22104-0.0334 0.0737-0.15173 0.40033-0.26285 0.72575-0.21689 0.63509-0.46796 1.2499-0.78857 1.9306-0.11024 0.23407-0.28003 0.61246-0.37731 0.84081-0.0973 0.22836-0.30578 0.70947-0.46321 1.0691s-0.41884 0.96219-0.58092 1.339c-0.16208 0.3768-0.41153 0.9275-0.55444 1.2238-0.3259 0.67569-0.4538 0.9685-0.57676 1.321-0.29874 0.8564-0.37764 1.7628-0.21954 2.5208 0.12393 0.59413 0.59521 1.8508 0.98925 1.9768 0.4145 0.1325 0.63999-0.96651 0.90506-1.436 0.0583-0.10336 0.27997-0.53826 0.49252-0.96643 0.36082-0.72688 0.57182-1.2021 1.4435-3.2519 0.14671-0.34501 0.31694-0.69707 0.50204-1.038 0.48254-0.8888 0.7782-1.5086 1.1078-2.3221 0.25819-0.63717 0.46084-0.9441 0.33192-1.2718-0.45364-1.1533-1.2637-2.9721-1.7261-2.9914z" stroke-width=".28803"/><path d="m114.66-22.498c-0.32179-0.19185-0.46126-2.175-0.48531-6.9007-0.0183-3.601 0.0283-3.8722 0.66601-3.8722 0.15472 0 0.35714 0.08909 0.44982 0.19797 0.24867 0.29215 0.59671 10.023 0.37263 10.418-0.18963 0.33464-0.59771 0.39835-1.0032 0.15662zm-0.46954-18.248c-0.14664-0.13849-0.20123-1.3577-0.20123-4.4942 0-4.6572 0.029-4.8064 0.89475-4.6012l0.39603 0.09387 0.0932 4.2294c0.0513 2.3262 0.0268 4.3943-0.0543 4.5958-0.16222 0.40296-0.78534 0.50033-1.1284 0.17633zm0.3226-15.861c-0.25824-0.29387-0.3164-0.94141-0.54687-6.0889-0.18197-4.0644-0.17557-4.5052 0.0688-4.736 0.24654-0.23284 0.3041-0.23308 0.6763-3e-3 0.37559 0.23242 0.41376 0.37719 0.49703 1.8853 0.0496 0.89847 0.18643 3.2144 0.30403 5.1466 0.1753 2.8801 0.17451 3.5577-4e-3 3.7614-0.26802 0.305-0.74269 0.32142-0.9949 0.03442zm-0.82778-18.91c-0.22234-0.41617 0.23131-9.2448 0.50046-9.7399 0.18666-0.34334 0.95212-0.36513 1.0879-0.031 0.15529 0.38219-0.30479 9.6269-0.4902 9.8501-0.24148 0.29059-0.92703 0.24116-1.0982-0.0792zm0.59741-15.731c-0.26836-0.14762-0.29346-0.53837-0.29346-4.5686 0-4.7455 0.0191-4.8494 0.87116-4.7353l0.38654 0.0518 0.0445 4.4944c0.0444 4.4782-4e-3 4.9373-0.52626 4.924-0.10399-3e-3 -0.32114-0.0775-0.48254-0.16625zm0.84852-15.547c-0.21563-0.16189-0.28355-0.74625-0.37279-3.207-0.06-1.655-0.22043-3.5792-0.35648-4.2761-0.46134-2.363-0.47201-2.5345-0.17497-2.815 0.19402-0.18324 0.38457-0.2217 0.64744-0.13066 0.31017 0.1074 0.43478 0.39119 0.74457 1.6957 0.37996 1.6 0.71604 4.8964 0.71727 7.035 6.3e-4 1.598-0.46462 2.2541-1.205 1.6982zm-0.97922-17.466c-0.16555-0.18839-0.1882-0.91085-0.10058-3.207 0.18819-4.9318 0.37566-7.0087 0.65657-7.274 0.31226-0.29491 0.90339-0.14097 1.042 0.27134 0.0555 0.16519 0.0217 1.4253-0.0753 2.8003-0.0969 1.375-0.17621 3.5214-0.17621 4.7699 0 1.2618-0.0771 2.406-0.17359 2.5763-0.2079 0.36687-0.87445 0.40277-1.1729 0.0632zm-0.16503-17.893c-0.32886-0.37424-0.52614-8.4252-0.21823-8.9059 0.26617-0.41558 0.37864-0.43447 0.81063-0.13614 0.29045 0.20057 0.3298 0.54182 0.44164 3.8294 0.0675 1.9851 0.17053 3.8762 0.2289 4.2024 0.0601 0.33575 0.0253 0.73576-0.0801 0.92176-0.21916 0.38677-0.87743 0.436-1.1828 0.0885zm0.71475-14.845c-0.0919-0.10888-0.2153-0.80374-0.27428-1.5441-0.059-0.74039-0.23248-2.3851-0.38554-3.655-0.15307-1.2699-0.22991-2.428-0.17075-2.5736 0.14226-0.35012 0.90258-0.3415 1.097 0.0125 0.39397 0.7172 1.119 7.1945 0.8571 7.6567-0.19303 0.34063-0.87076 0.4031-1.1235 0.10356zm-0.22306-12.179c-0.13943-0.24605-0.15931-1.2357-0.0715-3.5583 0.13382-3.5392 0.2162-3.811 1.0066-3.3219l0.42008 0.25995v3.2905c0 2.3481-0.0576 3.3449-0.20123 3.4806-0.32217 0.30426-0.942 0.22327-1.154-0.15079zm-0.10362-12.994c-0.0948-0.11328-0.22405-1.0256-0.28717-2.0273-0.0631-1.0017-0.21524-2.3914-0.33805-3.0883-0.23917-1.3571-0.13915-1.8213 0.39248-1.8213 0.16992 0 0.39644 0.0995 0.50336 0.22123 0.26154 0.29762 0.88208 4.7815 0.81915 5.919-0.0466 0.84354-0.0807 0.91069-0.48377 0.95494-0.23847 0.0262-0.51117-0.0451-0.606-0.15838zm-0.55296-11.051c-0.21236-0.12679-0.24221-0.63441-0.19396-3.2978 0.0314-1.7314 0.10967-3.3911 0.17402-3.6883 0.10138-0.46816 0.18323-0.54027 0.61321-0.54027h0.4962l0.0451 3.5285c0.0288 2.2532-0.0188 3.6413-0.13168 3.8405-0.18988 0.33509-0.59797 0.3991-1.0029 0.15732zm0.20638-13.122c-0.16478-0.0988-0.20233-1.1141-0.1677-4.5336 0.0405-3.997 0.0719-4.4226 0.33809-4.5811 0.21397-0.12741 0.37296-0.12741 0.58693 0 0.26593 0.15834 0.29765 0.57996 0.33812 4.4935 0.0316 3.0537-0.0113 4.3824-0.1463 4.536-0.21255 0.24187-0.62588 0.27896-0.94914 0.0852zm-0.28092-14.689c-0.23329-0.22033-0.25387-0.71705-0.16904-4.0781 0.0531-2.105 0.13099-3.9876 0.17302-4.1836 0.0978-0.45628 0.82091-0.49006 1.0703-0.05 0.1059 0.18689 0.17359 1.7965 0.17359 4.1281 0 2.3316-0.0677 3.9412-0.17359 4.1281-0.21028 0.37108-0.7126 0.39701-1.0743 0.0554zm-0.33325-13.935c-0.22564-0.2131-0.26352-0.82339-0.26352-4.2458 0-4.3689 0.0589-4.6722 0.87027-4.4799 0.41063 0.0973 0.42167 0.13961 0.52917 2.0279 0.18172 3.1918 0.13639 6.5415-0.0914 6.7566-0.27851 0.26304-0.73064 0.23758-1.0445-0.0588z" stroke-width=".61594"/></g><text x="24.898001" y="-45.332767" fill="#ffffff" font-family="'Courier Prime'" font-size="26.468px" font-weight="bold" stroke-width="1.8757" xml:space="preserve"><tspan x="24.898001" y="-45.332767" fill="#ffffff" font-family="'Heydon Caps'" font-weight="normal" stroke-width="1.8757">“FRON-”</tspan></text><text x="171.64636" y="-44.32357" fill="#ffffff" font-family="'Courier Prime'" font-size="27.272px" font-weight="bold" stroke-width="1.9327" xml:space="preserve"><tspan x="171.64636" y="-44.32357" fill="#ffffff" font-family="'Heydon Caps'" font-weight="normal" stroke-width="1.9327">“-TEERS”</tspan></text></g></svg>
