<svg width="100" height="100" version="1.1" viewBox="0 0 26.458 26.458" xmlns="http://www.w3.org/2000/svg">
 <rect width="26.458" height="26.458"/>
 <g fill="#fff">
  <path class="transmit one" d="m12.172 11.517-0.26207 0.04368c-0.26207 0.08736-0.74254 0.48047-0.96094 0.78622a2.315 2.315 0 0 0 0 2.4897q0.30575 0.48047 0.6115 0.65518c0.17472 0.08736 0.17472 0.08736 0.34943 0q0.39311-0.17472-0.13104-0.78622l-0.30575-0.48047c-0.08736-0.26207-0.13104-0.34943-0.08736-0.69886 0-0.39311 0-0.48047 0.08736-0.65518q0.26207-0.43679 0.74254-0.69886 0.39311-0.21839 0.2184-0.48047-0.08736-0.17472-0.26207-0.17472m2.5771 0.43679q-0.08736 0-0.2184 0.08736-0.30575 0.34943 0.26207 0.56783 0.87358 0.30575 0.91726 1.0483-0.04368 0.39311-0.30575 1.092-0.26207 0.56783 0.04368 0.65518 0.56782 0.13104 0.87358-1.092 0.39311-1.5288-0.87358-2.1839z"/>
  <path class="transmit two" d="m11.08 9.2454q-0.17472-0.043679-0.43679 0.087358c-0.8299 0.39311-1.7035 1.0483-2.1839 1.7472-0.26207 0.34943-0.69886 1.223-0.78622 1.6161-0.13104 0.34943-0.13104 1.4414-0.043679 1.8345l0.78622 2.2276c0.17472 0.30575 0.52415 0.78622 0.69886 0.91726l0.39311 0.21839q0.17472 0.13104 0.34943 0.13104 0.34943-0.04368 0.39311-0.30575 0.08736-0.34943-0.39311-0.87358-0.39311-0.43679-0.87358-1.7035-0.52415-1.3977-0.26207-2.2276c0.087358-0.34943 0.39311-1.0046 0.65518-1.3104 0.39311-0.52415 1.1357-1.1793 1.7035-1.4414 0.34943-0.17472 0.39311-0.21839 0.43679-0.48047q0.043679-0.13104-0.13104-0.30575-0.13104-0.13104-0.30575-0.13104m6.115 0.13104h-0.04368q-0.34943 0.087358-0.39311 0.39311 0 0.30575 0.34943 0.48047c0.43679 0.21839 0.96094 1.0046 1.223 1.8345 0.43679 1.223 0.43679 1.5288 0.04368 2.5334-0.39311 1.0046-0.74254 1.4851-1.4851 2.0966l-0.48047 0.48047q-0.26207 0.26207-0.17472 0.43679l0.13104 0.26207q0.26207 0.17472 0.69886 0.04368c0.34943-0.13104 1.092-0.74254 1.4851-1.2667 0.78622-1.0483 1.2667-2.6207 1.1357-3.669-0.04368-0.61151-0.56782-1.8782-0.91726-2.4023-0.43679-0.65518-1.1793-1.223-1.5724-1.223"/>
  <path class="transmit three" d="m18.898 7.0177q-0.34943 0-0.52414 0.30575c-0.26207 0.34943-0.04368 0.78622 0.39311 0.87358q0.65518 0.13104 1.6598 1.1357c0.30575 0.34943 0.39311 0.43679 0.65518 0.96094 0.34943 0.6115 0.39311 0.87358 0.48047 1.6598 0.13104 1.6598 0 2.4023-0.8299 4.0185l-0.56782 1.0483-1.1793 1.4414q-0.26207 0.26207-0.17471 0.6115l0.21839 0.30575c0.13104 0.08736 0.17472 0.08736 0.48047 0.04368 0.39311-0.04368 0.52415-0.08736 1.092-0.65518 0.52415-0.52415 0.8299-1.0046 1.4414-2.2276 0.78622-1.5724 0.96094-2.2276 0.96094-3.4943 0-2.1403-0.26207-3.0138-1.223-4.1932-0.34943-0.39311-0.6115-0.65518-1.1793-1.0483q-1.092-0.78622-1.7035-0.78622m-10.396 0-0.39311 0.043678q-0.56783 0.13104-1.2667 0.56783c-0.43679 0.34943-1.3977 1.092-1.7035 1.4414-1.354 1.3977-1.5724 3.2322-0.78622 6.3334 0.21839 0.87358 0.96094 2.315 1.5288 3.0138q0.39311 0.39311 1.0046 0.69886l0.30575 0.17472 0.21839 0.08736c0.17472 0.043678 0.52415-0.08736 0.6115-0.26208 0.17472-0.26208-0.043679-0.8299-0.30575-1.0046q-0.74254-0.48047-1.5724-2.0529a9.2162 9.2162 0 0 1-0.69886-4.761q0.17472-0.78622 0.87358-1.4851 0.87358-0.87358 1.5724-1.3104 0.39311-0.30575 0.74254-0.34943 0.56783-0.13104 0.43679-0.74254-0.087358-0.39311-0.56783-0.39311"/>
 </g>
</svg>
