<svg width="985.82mm" height="463.69mm" version="1.1" viewBox="0 0 985.82 463.69" xml:space="preserve" xmlns="http://www.w3.org/2000/svg"><g transform="translate(293.11 640.5)"><path transform="scale(1.0188 .98154)" d="m-173.43-649.74-0.24952 12.428 0.8854 12.39-0.24325 11.326-0.21089 11.911-0.0254 12.016 0.22429 11.961-0.30202 11.238 0.43857 12.433-0.0402 11.641 0.19222 11.941-0.0377 11.696-0.0335 11.806-0.39686 10.928-0.29172 12.166 0.42722 12.358-0.0512 11.817-0.0493 11.814-0.0272 11.837 1.1037 11.831 8.3431-1.051 8.7561 1.0342 0.0317-11.222 0.74264-10.994-0.14555-11.69-0.12319-11.216-0.21495-11.413-0.25391-11.268-0.1107-11.569-0.0995-10.836 0.0445-11.195 8.7261-0.72953 9.8722 0.64274 8.2335 0.27976 0.32654 10.709 0.68342 10.272-0.58671 9.9064 0.0657 11.045-0.585 9.2491-0.0111 11.581c-0.0424 3.7009 0.56466 7.2259 0.66091 10.529 0.0962 3.3033-0.526 6.135-0.31224 9.0207 0.21376 2.7788 0.97686 6.0524 1.4563 9.2145 0.47942 3.162 0.52889 6.0456 1.1702 9.4657l9.3172 0.026 9.0953-0.76898c-0.58256-2.9652-1.3295-6.3859-1.7691-9.3717-0.43965-2.9858-0.84086-6.2867-1.0546-9.0656-0.10688-2.8857-0.22382-6.3632-0.21004-9.489 0.0138-3.1258 0.0998-6.9966 0.0998-10.737l-8e-3 -10.741 0.046-9.6988 1.1918-10.018-0.11144-10.418-1.19-11.61c0.0652-2.3325-0.28167-4.6686-0.96009-6.7481-0.67843-2.0795-1.4217-3.6929-2.8112-5.1892-1.2826-1.6032-2.9402-2.9037-4.8237-3.7576s-3.3814-1.0794-5.7327-1.0794c2.3513 0 4.2928-0.41437 5.9568-1.208 1.664-0.7936 3.7008-1.8174 4.9834-3.3137 1.3894-1.6032 2.2425-3.6241 2.7746-5.9593 0.53213-2.3352 0.52557-5.3418 0.52557-8.3344l0.38727-10.776 0.0772-11.016 0.1739-10.857 0.25952-10.855 0.54536-10.957-0.87837-11.946-0.26339-10.117c-0.0419-3.4559-0.693-6.8118-1.5585-9.3324s-1.1201-4.0819-2.8302-5.6851c-1.7101-1.7101-3.2508-2.7017-6.0222-3.5878-2.7714-0.88604-6.7735-2.128-10.194-2.128l-10.826 8e-3 -10.184 0.19421-11.269 0.0291zm77.133 0.63904 0.22307 12.235 0.26626 11.923-0.11314 11.338-0.16087 11.878 0.82148 12.406-0.16262 11.291-0.19754 11.829-0.05092 11.981-0.0027 11.824 0.21038 11.851-0.37066 11.091-0.05567 12.096 0.81905 12.508-0.21313 10.572-0.19231 12.623-0.16685 11.949 0.67429 12.154-0.69128 11.345 0.15196 12.265 8.7467-0.25699 8.7924-1.2314-0.27909-12.188 0.9614-11.212 0.5504-11.632 0.07019-11.875 0.19295-11.754 0.05412-11.73-0.07934-11.856 0.64315-11.597 0.5384-11.752 0.55579-11.961 0.79277-11.64-0.19474-11.741-0.35585-11.842-0.62116-11.944-0.6249-11.889-0.16358-11.231-0.55072-11.931-0.91063-12.447-0.48611-11.134-9.1348 0.0161zm27.734 0.69241-0.62659 8.3491 0.09668 8.7287 11.201-0.18542 11.723 0.30534 0.25385 11.712 0.44492 11.587-0.06497 11.188 1.0186 11.638 0.02937 11.502-0.25528 11.244-0.17059 11.592-0.14519 11.516-0.03248 11.6-0.18633 11.343-0.1834 11.375-0.31813 11.165-0.07281 12.016-0.15706 11.437-0.22663 11.236-0.14347 11.713 0.80658 11.702-0.89467 11.202 9.7599 0.39187 8.6002-0.80974 0.95563-11.142-0.0054-11.796-0.04221-11.49 0.01805-11.461-0.05179-11.498 0.09574-11.338-0.03493-11.579-0.0876-12.875-0.04078-10.086-0.2953-11.825 0.10574-11.015 0.38151-11.362-0.21228-11.806-0.17792-11.641-0.1572-11.657-0.23571-11.259 0.5175-11.126-0.39009-11.562 11.583 0.17224 12.042 0.0347-0.65012-9.043-0.29441-8.5418-10.475 0.0547-10.531 0.12643-10.001 0.0392-11.026 0.23045-11.072-9e-3zm73.018-0.0186-1.0705 11.263 0.65512 12.153-0.30289 11.094-0.2066 12.167 0.1816 12.102 0.70721 11.871-0.11808 11.647 0.034471 12.004-0.3377 10.7-0.051359 12.831 0.15152 11.985 0.11827 11.801-0.27441 11.42 0.045582 12.141-0.094755 11.71 0.22593 12.028 0.35943 11.629-0.67447 11.315-0.11681 12.358 11.113 0.22197 10.736-0.0575 11.152 0.21043 10.138-0.62121-0.0066-8.9514 0.04264-8.8214-8.3787 0.16374-7.9805 0.36334-8.4812 0.20106-0.05506-11.766 0.19071-9.7862-0.05345-10.966-0.34762-11.493-0.03738-10.561 0.06872-10.403 0.0052-10.889-0.07638-10.973 8.0939 0.0741 8.0994 0.0724 8.0659 0.0453 0.07562-8.3056 0.37884-8.0668-8.2097-0.50273-8.1961 0.062-8.0761 0.18553-0.2099-11.086 0.0095-10.581 0.09197-10.761-0.13055-11.217 0.11812-10.455 0.01787-10.869-0.13503-11.034 0.15116-10.636 8.6456 0.0888 8.4543-0.0475 8.7943-9e-3 0.73888-8.596-0.31123-8.6364-10.565 0.29921-11.666-0.0894-11.245-0.57667zm-291.4-0.59068 0.70286 11.587 1.0338 13.009 1.4509 11.554 0.60752 11.845 0.72533 11.752 0.45768 11.779 0.43077 11.146 1.8882 12.524 0.12635 11.448 0.78594 12.392 0.20577 11.456 0.28709 11.907 0.46648 11.94 0.3599 11.749 1.3082 11.814-0.18447 11.466 0.0436 12.141 0.0435 11.557 8e-4 11.815 9.0012-0.0514 9.2056 0.19316 8.8911 0.11455 1.2723-11.817 1.7028-11.648 0.68667-12.231 0.6091-11.89 1.5948-11.507 1.2382-11.853 0.96821-11.792 1.4573-11.983 0.0501-12.174 0.56843-11.459 0.0485-12.124 0.75568-11.807 0.71835-9.6885 1.3494-9.4175 0.0801-10.369 0.32194-9.4266 1.2277-9.3113 0.72354 9.727 0.47559 8.8238 0.42406 10.019 0.57531 9.5779 0.6012 10 1.4574 12.015 0.66033 11.503 0.5814 11.132 0.66151 11.871 1.2203 12.827 0.76935 11.788 1.4077 12.261 0.6019 10.626 1.0076 12.918 1.4082 11.888 0.77909 12.005-0.47824 11.453 9.7075 0.25735 8.0175-0.73067 9.5045 0.58531 0.44326-11.88 0.66859-11.607 0.50841-11.951 0.44976-11.908 0.65976-11.621 0.66714-11.884 1.1449-11.641 0.74372-11.941 0.30552-12.02 0.13828-12.085 0.20162-11.823 0.55204-11.384 0.42177-11.859 0.33378-12.173 0.26427-11.735 1.0686-11.288 0.13997-12.31 0.48328-11.563 0.0101-12.355-8.7922 0.45415-10.535-0.7803 0.30207 12.179-0.18028 11.709-0.48557 10.988-0.22976 12.779-0.18881 11.611-0.12356 12.353-0.29788 11.779-0.39521 11.789 0.0663 12.323-0.11673 11.872-0.18202 11.886 0.4773 12.223-0.65416 11.047-0.041 12.597-0.40718 10.79-0.0433 13.162 0.17343 11.87-0.837-9.6751-0.85441-9.6755-0.99448-10.532-0.62608-8.6585-0.58988-9.563-0.85687-11.838-0.5525-11.769-1.0972-12.346-0.66351-11.335 0.31089-11.942-1.1082-12.017-1.0232-11.759-1.2083-12.582-0.78377-10.95-0.91529-11.882-1.2208-12.052-0.92185-11.638-0.49981-11.673-8.6082 2e-5 -8.3616-0.10233-9.3673-0.28903 5e-3 12.069-0.94675 11.668-0.41988 12.19-1.1476 10.868-1.0199 12.523-1.1617 11.415-0.9023 12.313-0.11467 12.117-1.0598 11.617-1.4378 11.18-1.1007 12.264-0.82051 12.103-0.18843 11.883-1.0574 9.212-0.73402 9.9973-0.88228 8.3051-0.86452 10.873-0.17202 9.6751c-0.25165-3.9667-0.45271-7.8919-0.66423-11.815-0.18237-3.9114-0.2611-7.7084-0.43707-11.602-0.0341-3.8021-0.0368-7.6883-0.18338-11.593 0.15505-3.7553-0.17025-7.72-0.29292-11.618-0.0113-3.7737 0.0825-7.5054-0.0202-11.371 0.21199-3.6736-0.20168-7.8156-0.29369-11.727-0.0905-3.8263 0.2824-7.6135 0.20123-11.45 0.37586-3.8092-0.33926-8.2008-0.42269-12.07-0.25509-4.1827-0.0278-7.268-0.10618-10.97 0.0475-3.8001-0.41037-8.3159-0.49729-12.258-0.32554-4.2318 0.71157-7.2583 0.63237-11.033 0.78981-3.7822-0.18843-8.1018-0.31478-12.192-0.11813-3.9928-0.26366-8.0168-0.41439-12.069-0.15059-4.0489-0.34274-8.3752-0.50794-12.491-0.19375-4.2993 0.92905-7.987 0.76891-12.079 1.0893-4.1072-0.41038-8.3384-0.88285-12.695-0.46028-4.2439-1.0855-8.7049-1.2177-13.049l-10.429-0.37269zm132.32 17.87 8.4494-0.20485 8.7933-0.0401 8.8405-0.0778-0.0504 11.222 4e-3 11.171-0.23506 10.921 0.0784 11.942 0.30857 11.345-0.0962 11.172-0.22518 11.027 0.61555 11.743-8.8082 0.13402-9.2728-0.20345-9.077-0.20589-0.16469-11.687 1.2748-10.817 0.0322-11.293 7e-3 -11.181 0.26097-11.234-0.46391-11.639-0.39529-12.041z" fill="#fff" stroke-width=".26458"/><path transform="scale(.97119 1.0297)" d="m76.362-404.14 11.144-1.6077 14.868 0.99082 9.4596-0.88281 12.12 0.49126-0.0886-14.649 0.5124-14.119-0.79164-16.437 1.0469-12.604-0.22863-15.158 0.33855-14.179-0.34926-14.986-0.35468-14.607-1.3101-17.412-0.51559-12.435 1.2517-9.0288-0.083-10.738-0.11682-10.751-0.0831-0.0784 1.2474 11.619 4.0706 11.514-0.89096 8.0714 0.0974 14.808 1.5364 14.785 3.2309 15.508 1.0423 13.196 1.199 14.822 0.96504 14.191 0.89699 14.661 1.2299 13.702 1.269 16.032 1.464 14.881 14.165-2.3427 16.965 1.66 12.945 0.88035 14.923 0.73831 3.181-14.495 0.37982-16.441 1.7222-12.859 0.49659-18.583 1.1581-11.168 2.5773-14.955 0.22039-15.594 1.8789-13.13-0.29405-16.189 1.0264-11.512 0.39451-14.067 0.86852-9.7575 1.6955-12.378 0.64517 2.4002-0.32602 9.6523-0.13294 9.7616 0.0387 13.347 0.18644 13.172 2.7337 15.435 0.71231 14.257-0.9389 10.206-0.79236 18.683 0.0949 15.463-0.77642 13.868 0.78929 15.355-1.3625 14.173 0.11214 14.994 12.154-0.22507 11.758-1.2268 13.619 1.0318 11.594 0.24299 0.51964-13.71 0.82104-13.998 1.7326-14.319-0.90915-17.461 0.014-11.733-0.7334-15.706 1.8058-12.68 1.4766-13.722-0.76141-16.904-0.84613-13.122 0.47539-13.751-1.1072-14.819-0.97904-17.156-0.64865-10.84-0.46851-13.864-13.835-1.1289-13.743-0.71245-11.298 1.3917-15.799-0.63574-13.713-0.26942-13.276 0.85258-1.0262 14.749-0.51733 14.871-1.9262 12.468-1.2706 15.591 0.91094 16.963-1.5992 10.902-1.7762 17.265-1.4608 15.15 0.60199 15.814-1.5554 10.779 0.27778 12.781-2.023 10.064-2.051 7.7288 0.29251 3.7129-1.6022-12.933 1.6266-9.7837-0.49555-11.314-2.8585-11.778-0.50461-14.435-0.90139-14.741-1.2462-15.124 0.511-14.279 6e-3 -14.881-0.21654-15.532-0.023-14.501-3.5003-14.73-4.1172-14.333-13.666-0.27915-13.582-0.77622-12.485 0.97789-14.113 0.12148-14.299-2.3165-13.049 1.6101-0.02208 14.219-0.41006 13.107 0.04162 15.51 0.27034 14.508-0.30191 13.57 0.66491 15.372 0.62481 14.353 1.0429 14.571-0.26422 13.305 2.3239 14.726-0.37515 14.393-1.1236 13.456-0.88459 14.519-0.7791 14.297zm197.96-33.71c0 5.3998 0.72371 11.236 2.0482 15.261 1.3245 4.0244 3.3109 6.981 5.9599 9.63 2.649 2.649 5.5808 3.1526 9.6288 4.6199 4.048 1.4673 9.3053 3.9476 14.705 3.9476l13.247-0.15293 13.158-0.93652 13.472 0.25467 15.51 1.1723c4.404-0.19336 8.5181-1.5089 12.294-2.8818s8.2698-1.8273 10.919-4.4762c2.649-2.649 3.703-8.1234 4.7631-12.392 1.0601-4.2683 4.3828-6.268 4.3828-11.668l-0.0884-14.028-0.18162-14.121-0.0365-14.029-0.20865-14.146 0.14662-13.635-0.18604-14.407-0.31088-18.554-0.14415-9.6294-0.81751-15.193 0.22092-12.601 0.81222-13.712-0.96755-15.139-0.67977-14.585-12.668-1.2305-12.788-0.0673-10.91 1.4172-13.421 0.81065 0.54555 15.204 2.1562 14.766-0.72502 13.055-0.29835 15.332 0.27211 14.89 0.57274 14.886 2.0753 14.472 0.74248 15.493-0.55524 14.472-0.10657 14.936-2.8755 12.839-0.41453 15.275-10.147-2.1752-9.2919 1.0095 0.46478-14.532 1.7182-14.359-0.30515-15.109 0.0725-13.923-0.83753-18.111-0.0919-11.263 0.36647-13.992 0.24494-14.594-0.7448-15.815 0.11779-13.472-0.30842-14.879 0.49786-13.85-11.435-0.12508-14.547-1.7781-11.974 0.82334-12.137 1.2072 0.54402 14.045 1.3437 14.854-0.35628 12.338-0.31897 13.277-0.28097 13.106-0.35369 15.82 0.53283 14.487 0.0571 13.825-0.46584 10.676 0.0682 17.263-0.51312 13.516-1.23 11.798zm127.47-1.4377c0 5.3998 0.8522 12.925 2.1767 16.949s3.1771 7.1782 5.8261 9.8271c2.649 2.649 5.6361 4.0913 9.6825 5.4466 4.0464 1.3553 9.2153 2.6691 14.615 2.6691l13.496 0.0517 13.352 7e-3 13.47 0.0671 14.333 0.83053c4.7868-0.50064 9.1362-2.6882 13.007-4.1379 3.8712-1.4496 7.19-2.2662 9.8389-4.9152 2.649-2.649 4.8391-5.7747 6.1821-9.7729 1.343-3.9982 1.3584-9.6929 1.3584-15.093l0.0742-12.702 0.27282-12.457-0.28352-13.916 0.38805-11.477 0.0368-12.802c-4e-3 -4.7928-0.9469-9.6217-2.1195-13.189-1.1726-3.567-2.5986-5.9063-4.9419-8.2496s-5.0716-3.8196-8.6317-4.9827-7.9705-2.0407-12.759-2.0407l-12.476 0.0796-11.541 0.20387-13.502 0.0756 1.0011-12.95-0.74837-14.925-1.0032-15.471 1.2308-11.688 7.3649-3.3604 9.0243 3.3428 1.885 12.665-1.148 12.864-1.1452 12.205 12.396-7e-3 12.309-2.1695 15.9 1.1581 8.4336-0.0992 1.2037-12.186-0.57321-14.193-0.20788-12.731c0.0208-5.3708-0.24262-9.7486-1.5619-13.766-1.3193-4.0172-3.4913-7.5859-6.1403-10.235-2.649-2.649-3.5211-4.5956-7.5963-5.9421-4.0752-1.3465-11.793-3.2334-17.193-3.2334l-13.304 0.20305-13.281-0.60503-13.45-0.15518-13.115 1.2246c-5.3494 0.23657-9.7507 1.0885-13.763 2.4722-4.0118 1.3836-7.7102 3.1929-10.359 5.8419-2.649 2.649-3.6042 6.1622-4.9097 10.213-1.3055 4.0509-0.82603 9.3946-0.82603 14.794l-0.53827 11.515-0.67324 12.021 1.7537 13.253 0.15019 12.14-1.757 12.199c-0.53526 4.4124 2.241 8.8076 3.2789 12.279 1.0379 3.4719 0.0487 5.5354 2.392 7.8787 2.3433 2.3433 6.2387 5.0514 9.8768 6.3444 3.6381 1.2929 7.0666 1.2331 11.855 1.2331l14.819 0.22969 11.517-0.0954 14.608 0.73365-1.0347 13.19-0.52304 15.345 1.5158 15.713-1.4263 13.827-8.9954-2.3889-9.1366 1.0889 0.0693-14.683 0.15367-12.332 1.5528-13.096-13.184-0.68357-13.175-2.8723-13.077-1.4316-11.406 4.5911-0.30903 14.228 1.2294 15.591zm127.71 34.962 13.073 0.47007 13.851 0.46015 12.004 0.57063 10.897-1.9187 1.6163-13.521-0.95822-17.064 0.23628-12.091-0.18947-14.505 0.3627-13.564-0.0613-14.7-0.18724-14.536 0.33221-13.609 0.29828-14.484 1.4148-13.708 0.23076-14.767-0.91733-14.942-1.2331-15.039-0.83783-14.18 0.38366-12.82-12.616-0.0449-12.816-1.1737-12.817-0.32552-10.764 2.2644-0.47656 13.443 0.20408 15.036-0.69268 12.497 1.6841 16.482-0.91728 10.903 0.98414 17.668-0.20283 13.482-0.94093 11.177-0.2735 16.911-0.16812 13.172-4e-3 15.546-0.44545 13.707-0.60747 13.745 0.72602 15.462zm60.658-32.032c0 5.3998-0.22704 9.8942 1.0974 13.919s4.8901 8.2856 7.5391 10.935c2.649 2.649 4.7286 2.4164 8.3658 3.52 3.6372 1.1036 9.2508 3.7005 14.651 3.7005l13.379-3.5505 14.637 1.5946 14.456 1.1088 12.341 0.56225c5.446 0.0639 10.018-0.83012 14.054-2.1386 4.036-1.3085 6.9793-6.1735 9.6283-8.8224 2.649-2.649 4.7555-5.2268 6.2192-8.4658 1.4637-3.239 2.5028-6.9096 2.5028-12.31l-8e-3 -13.343 0.71844-13.121-0.76351-14.912 0.38273-11.763 2.3953-13.64-13.359-0.17477-13.116 0.0968-13.686-2.3321-12.45 2.7909 0.34953 12.3-0.35862 11.279 0.28139 12.521 1.5436 12.443-1.9543 11.451-8.553-0.0793-11.29-0.6824 2.0938-12.953-0.28255-14.463 1.0291-12.536-0.84791-16.955-0.27615-11.378-0.7942-15.011-0.0403-12.071 1.7283-12.796-1.1992-14.678-1.9778-15.636 9.823 0.43586 10.505 1.8702 1.9148 12.342-1.0046 10.473-0.16993 13.266-0.60308 7.8177-0.38154 16.064 13.943 0.2119 11.195-7e-3 12.807 0.31538 12.912-4e-3 0.12038-13.113 0.54304-12.999-0.48152-14.198 0.64431-13.285-1.9722-15.128c0.21067-4.6091-0.0333-8.5619-1.3051-12.389s-4.1541-9.0512-6.803-11.7c-2.649-2.649-3.741-3.426-7.6198-4.3695s-10.532-2.0456-15.931-2.0456l-13.834-2e-3 -13.909-0.79061-10.758 0.79804-16.26 0.61173c-5.6875-0.3126-10.391 0.29632-14.487 1.5427-4.0963 1.2463-8.124 1.989-10.773 4.638-2.649 2.649-5.1682 4.1053-6.358 8.415-1.1898 4.3097-0.89167 11.631-0.89167 17.031l-0.0437 14.912-0.11367 14.791-0.13376 14.896-2e-3 14.513-0.5766 13.712 0.18326 16.983 0.7256 15.069-0.24536 14.516-0.55531 14.051z" fill="none" stroke="#fff" stroke-linecap="round" stroke-linejoin="round" stroke-width="3" aria-label="MUSIC"/><path d="m-291.27-179.06 12.346-2.1628 15.559 1.0952 11.032-1.1193 13.304-0.0395 13.513 1.6258-0.0549-12.899-1.1509-15.738 0.44553-10.919-0.67858-14.147-0.17748-12.901-0.7274-13.912-0.70172-13.438-1.4555-16.948-0.71321-11.977 0.46204-11.195-0.56423-11.296-0.56451-11.261-0.54948-11.163-0.14804-0.19638 4.2894 12.076 0.54417 7.3347 1.4024 16.139 0.77391 11.823 3.4326 14.653 1.528 11.582 1.795 13.614 1.5831 12.826 1.5525 13.414 1.7936 12.218 1.8568 15.123 1.815 13.71 1.5591 10.587 15.043 1.4576 12.119 0.87306 13.735 1.1701 14.278 0.20625 11.261-2.1372 14.512 1.259 12.337-4.1265 0.20248-14.084 1.1709-14.65-0.48338-15.48 0.75018-12.311-0.40396-16.166-0.18044-13.96-0.72396-17.811-0.41456-12.314-0.46309-15.852-0.0659-13.672 0.0754-16.532 0.1537-12.049 0.32303-12.262 2.647-13.536-1.1288-15.005-13.609-5.3531-13.522 1.0743-12.653 2.1423-13.754 0.71771-11.98 1.7864 0.33981 14.171 1.6166 14.725 0.043 13.414-0.32395 12.855 0.94807 16.247 0.18905 13.864 0.31936 14.495 0.15362 14.506 1.8409 12.655-0.72804 7.7158 0.19152 14.749-0.55353 9.8373 0.40549 1.4881-0.0807-11.384-0.77335-11.279-3.2347-15.094-3.0053-10.194-1.0381-14.012-2.2695-14.891-2.1101-17.844-1.4918-9.9999-1.724-13.722-2.6802-16.102-2.4684-13.864-0.44978-11.746-13.884-0.97357-13.756-0.7746-13.419 0.0449-13.584 0.10332-13.243 0.25388-14.781-2.7236-13.119 1.1564 1.7091 15.979-0.19311 9.7938-0.16801 18.048-0.12045 15.347 1.5604 16.166-0.49522 12.863 0.97065 16.702-0.54071 13.154-0.63567 10.504-0.99763 17.668 1.6499 16.931 0.50192 15.36-0.74947 14.387-0.6672 14.734zm185.54-40.101c0 4.2662 0.55373 10.097 1.2298 13.64 0.73445 3.6383 3.1713 7.3868 4.4928 10.162 1.3411 2.8164 2.9581 5.33 5.0012 7.4436 2.0981 2.0282 6.0235 3.6806 8.6303 4.9139 3.9967 1.1728 6.933 2.5536 9.526 3.1 3.1106 0.65552 4.9824 1.2185 9.6356 1.2185l14.781 0.36965 13.949-0.57055 14.362-1.1669 15.295 1.2641 13.915-0.49435c4.2-0.10312 7.6007-3.0997 11.091-3.8216 3.0067-3.3043 6.611-1.3803 9.4677-2.0825 2.916-0.71677 5.4955-1.5572 7.5445-3.6062 2.0981-2.0981 3.5019-6.0874 4.9039-8.8972 0.95394-4.1456 2.3765-5.1928 3.1556-8.0674 0.8999-3.3206 1.5977-6.7403 1.5977-11.314l-0.28507-15.104 0.52173-13.141 0.47991-14.412 0.81216-14.152-0.32082-15.773 1.8761-13.934-0.51978-14.661-1.1568-15.505-0.8429-14.041-0.77273-14.377c0.0049-4.2519-0.13284-7.7587-0.83002-11.273-0.50416-3.2156-1.925-7.1357-3.4237-10.05-1.4332-2.7864-3.2003-5.691-5.2515-7.6738-2.0282-2.0981-4.7777-5.7997-7.5402-7.0926-3.0635-3.2992-5.6048-1.6232-8.9397-1.72-3.4732-0.10083-7.4983-0.0906-11.851-0.0906l-14.767-1.1789-14.458-5e-3 -12.71 0.9337-16.242-0.47145-13.556 2.117c-4.5599-0.40652-9.2176-2.6951-12.892-2.1764-4.4075-1.8237-5.1991 3.5487-8.0044 5.6257-2.5482 1.8867-6.5562 2.8292-8.5535 4.8266-2.0282 2.0282-3.7266 4.4168-5.0892 7.183-1.3634 2.7604-2.2704 5.9532-2.9568 9.4683-0.68608 3.513-1.1627 7.3091-1.1627 11.574l0.28414 14.981 0.0171 14.068-0.0917 8.8787-0.0174 20.032-0.50328 13.078 0.33736 16.311 0.85687 14.933-0.45894 13.191-0.36344 13.796zm65.702-13.011 0.18219-10.54 1.0148-12.316 0.03256-14.06 0.35-13.068 1.6313-13.528-1.0809-15.796-0.54119-12.734-0.10141-13.333-0.22003-13.362 9.7558 0.0429 6.9798 0.61706 0.48594 14.388 1.0284 14.008-0.80578 11.344 0.91135 14.909-1.1513 10.756-0.92688 14.945 0.01988 14.712 0.94495 13.813-2.0273 12.887-7.7827 0.55407zm126.8 48.96 13.463 3.5894 13.615 0.66491 13.205 0.3963 12.498-1.483 13.78 0.80026-0.0506-14.287 0.58681-13.356 0.98625-14.97-0.65782-16.272 0.0673-11.959 0.46378-13.519 0.21932-15.039 0.84119-13.081-0.82328-16.294-0.66028-14.993-0.59453-15.215-0.6838-11.824 13.225 0.56653 12.321 0.1662 12.244-4.2659 0.42476-11.127-0.13116-12.112-0.71247-14.22 0.36188-10.491-14.111 0.23902-14.26 2e-3 -14.387-0.5445-13.8 0.33004-14.082 0.34916-14.149 0.30357-14.052 0.39084-13.332 1.4446-15.235-2.045-14.147 1.0429 0.16944 12.774-0.43598 11.282 0.1524 13.537 0.31876 12.811 12.267-1.4 13.002 0.76619 12.36 0.41145-0.29662 13.376 8e-3 14.957 0.21196 14.571-8e-3 13.812 0.47563 14.31 1.6542 14.389 0.98401 14.354 0.56862 15.137-0.71185 13.16-1.0214 12.265 0.73415 16.946z" fill="none" stroke="#fff" stroke-linecap="round" stroke-linejoin="round" stroke-width="3" aria-label="NOT"/><path transform="scale(1.029 .9718)" d="m176-197.77c0 2.159-5e-3 3.6468 0.5352 5.2661 0.53975 1.6192 2.5014 3.5494 3.5809 4.6289 1.0795 1.0795 2.0033 1.5239 3.4053 2.0213s3.0942 0.82515 5.2532 0.82515l5.746 0.0935 6.0098 0.26038c2.0425-0.0657 3.5978-0.81658 5.1879-1.3728 1.5901-0.55617 3.6575-0.74076 4.737-1.8203 1.0795-1.0795 1.7817-2.4707 2.2108-4.1342s0.8218-3.4674 0.8218-5.6264l0.0215-9.7098 0.0289-9.7287-0.33058-10.613-0.25995-9.3625 0.41754-9.1734 0.0178-9.7179 0.0264-9.7204 0.0634-9.6968 1.2633-9.7021-0.27056-10.829 0.0109-8.641-0.0689-9.733 0.64334-9.4496-0.22341-10.163-0.19742-9.6705-0.28983-9.8696-0.33521-9.7214-0.21296-10.024-0.21528-9.2872-0.13455-9.6496-0.24917-10.435 0.88103-8.7147-8.7272-0.0971 0.34981 10.237 0.75992 9.7949-0.35203 9.4139 0.22447 10.589-0.31097 8.765 0.0289 11.123 0.51952 9.9114-0.30169 9.7105 0.30946 10.495-0.25274 9.537-0.15333 10.08-0.42377 9.1125-0.27882 10.493-0.30454 9.6067-0.10484 10.158-0.0437 9.4379 6e-3 10.567 0.0584 10.512 1.2043 10.189 0.11245 9.8481-0.74844 8.5624-0.52229 11.217-6.7394 0.227-7.3154-0.13737-6.352 0.14158-0.0367-9.7992 0.60248-9.6594-0.13504-9.9943-0.3217-10.13 0.27876-9.2734-0.021-9.8825 0.0827-9.7192 0.18637-9.7174 0.5207-9.8215-0.70925-10.823-0.25092-8.9792-0.60822-10.243 0.62559-9.2898-8.1182 0.19925-0.0618 8.8519-0.14974 9.6739 0.41914 9.4686-0.15544 9.173-0.1293 8.3884-0.0499 10.385 0.17275 9.4277-0.23444 8.842-0.27421 9.3795 0.73748 9.9118-0.45402 8.8098-0.45781 9.3186zm45.016 12.956 8.1426 0.01 0.93687-9.4775 0.37045-10.231 0.62225-9.2538 1.5156-8.8202 0.60374-10.725 0.55935-8.7068 0.62594-9.3822 1.4736-9.1747 0.45044-9.9753 1.1751-9.0463 0.4218-9.9268 0.37583-10.605 0.18305-8.8029 1.5094-8.9931 0.94698-9.3807 0.30944-9.6554 0.36692-9.5307-0.0258-9.4978 0.71353-9.7766 1.4312-9.6499 1.1482-9.7702 0.872-10.015 0.38138-9.6661-1.1371-0.15753 1.0111 10.009 0.80576 9.6766 0.51554 9.5754 0.53102 9.6198 1.0479 10.281 0.78163 9.5811 0.44666 8.7667 0.70709 10.098 0.68344 9.5554 0.5179 9.1346 0.73054 9.9 0.79785 9.5741 0.55426 9.2726 0.97282 9.8544 0.93125 9.5095 1.1052 9.579 0.55469 9.1689 1.6613 9.6523 0.52656 9.4742 0.21661 9.2581 0.3389 9.6156 0.3705 9.5366 0.48837 9.621 8.2767-0.15511-0.84016-10.034-0.96354-10.184-0.71236-9.3159-0.83911-9.9169-0.91152-10.113-0.84175-9.6269 0.0536-9.6421-0.89212-10.215-0.37695-9.3662-1.1705-10.789 0.14854-8.8984-0.9236-10.252-0.92445-9.8611-0.86249-9.829-0.93632-9.871-0.78595-9.704-0.93706-9.9579-0.9805-11.253-0.82605-8.451-1.2118-10.191-0.73879-9.361-0.54978-9.7365-1.4879-10.166-6.1851-0.21942-6.1072-0.13677-0.95079 9.6374-0.29308 10.212-0.71535 9.8257-0.55471 10.041 0.13552 9.9411-1.0292 9.4476-0.8837 10.083-0.63373 9.9566-0.4888 9.9708 0.1744 9.8482-0.2592 10.192-0.67872 9.8473-0.40868 9.9969-1.3025 9.3571-0.47335 10.148-1.4505 9.2013-1.387 10.14-0.93553 10.1-0.40652 9.9203-1.3591 9.755-1.1928 9.9921-1.5874 8.6984zm7.1234-59.017 8.2962-0.074 8.4106 0.0976 8.0545-0.37572 8.709 0.19984-0.12108-7.2295-8.1154 0.2037-8.1852-0.0531-9.1802-0.57167-8.0908 0.50169zm56.949 59.356 5.8138-0.29485 6.507 0.2893 0.70729-10.056 0.71735-10.079 0.71962-10.133 0.67328-9.279 1.0731-9.6972 0.91559-9.8857 0.71761-10.887 0.88691-8.8252 0.74284-9.9907 0.43865-10.539 0.6523-9.6236 0.76379-9.4441 0.73935-9.9254 0.62096-10.015 0.81014-9.6861 0.85306-9.8601 0.84301-9.8714 0.88035-9.8396 1.2678-9.5849 0.61692-10.563 0.58227-9.5125 0.73038-9.7881 0.37819-10.195-7.9051 0.25002-0.62976 9.5768-0.83854 9.1316-0.64051 9.8839-0.69499 9.4827-0.84911 9.3112-0.71262 9.701-0.5968 9.615-0.69883 9.4309-0.46361 9.5488 0.13383 9.5845-0.16851 9.6152-0.33824 9.7933-0.93217 9.2857-1.0675 9.0188-0.20344 10.187-1.4244 8.382-0.87226 10.608-0.69472 9.211-0.76559 9.8759-0.66474 9.7192-1.0108 9.755-1.0439 9.0816 0.40696 10.469-1.4131-0.0395-0.90585-10.091-0.21049-9.1986-0.91137-10.171-0.78027-9.6835-0.59251-9.6566-0.608-9.4956 0.34812-9.537-0.95399-9.9801-0.74021-9.1719-0.77351-9.7802-0.81977-9.5214-0.76408-9.3706-0.61176-9.3454-0.78849-9.584-0.32633-9.4355 0.0796-9.361-1.004-10.008-1.0116-9.5135-0.0202-9.1208-0.53241-9.6049-0.89263-9.4722-0.52629-9.5929-2.6429-9.6753-7.938 0.41385 0.79264 9.8646 1.5178 9.9028 0.84508 9.7262 1.5081 10.12 0.43074 9.1147 0.63613 10.151 1.4131 10.255 0.80998 9.6175 0.61285 9.0413 0.572 10.245 0.6697 9.8037 0.70238 10.229 1.2704 9.9882 0.47039 9.4976 0.39006 9.1118 0.46983 9.8556 1.0326 10.819 0.57837 9.7792 1.2167 10.251 0.38551 8.6152 0.78169 10.911 1.149 9.8788zm29.487-0.20265 6.7611-0.22312 1.3562-9.2848 0.3056-10.354 0.73979-8.865 0.61183-9.5881 0.83586-9.3041 0.67746-9.645 0.61507-9.606 0.82394-9.318 0.83093-9.5781 1.3003-9.3346 0.87307-9.6316 0.41508-9.7208 0.24987-9.7903 0.33162-9.5271 0.71024-9.0838 0.567-9.5566 0.47971-9.8764 0.49418-9.4317 1.3345-9.4594 0.45031-10.205 0.75261-9.4794 0.345-10.268 1.5675-9.0181-0.71887-0.19848 0.40781 8.9335 1.3089 10.888 0.61581 9.5202 0.32613 8.8323 0.86342 10.643 0.68892 9.1115 0.78641 9.943 0.57637 9.3611 0.48871 9.3855 0.95222 9.9303 0.74329 9.4416 0.68763 9.47 1.3505 9.8143 0.25777 8.5771 0.89756 10.223 0.50674 8.3594 0.89887 10.77 1.1434 9.4528 0.49563 9.3956 0.48283 9.49 0.34264 8.6269 0.71153 10.516 0.75041 9.6066 8.3442-0.063-0.48191-9.7682-1.0141-10.362-0.58452-9.3403 0.39684-9.9549-0.93335-10.035-0.85129-9.7771-1.0339-10.606-0.61978-8.9624-0.72001-9.9022-0.98012-10.078-0.70628-9.6611-0.1262-9.7114-0.87839-10.078-0.48763-9.916-1.1686-10.071-0.1582-9.4403-1.2238-10.182-0.63818-9.4657-1.4825-10.906-1.1397-9.0844-1.4234-10.238-1.0364-9.305-0.37686-9.5521-6.5475-0.14487-6.912-0.81164-0.85162 9.6971-0.66861 10.141 0.0635 9.9254-0.99496 9.4479-0.71908 10.278-0.84064 8.5758-0.88909 11.157-0.19788 9.9507-0.79374 9.8812-0.68186 9.9945-0.52668 9.922-0.74267 9.8442-0.55178 10.022-0.8909 9.669-0.45156 9.9126-1.1424 9.3776-0.84864 10.455-1.1908 9.287-0.0672 10.581-1.1017 9.6993-1.1254 9.841-1.1566 9.5944zm5.2958-60.017 8.9098 0.82066 8.245-0.0319 8.132-0.44142 8.3658-0.40534 0.34407-6.393-8.4483-0.028-8.4671-0.0763-8.4504-0.0622-8.3898-0.11382zm50.593 47.041c0 2.159 0.1347 3.9525 0.67445 5.5718 0.53975 1.6193 1.5859 3.0032 2.6654 4.0827s2.292 1.7841 3.8494 2.3125 3.2182 0.5005 5.3772 0.5005l8.575 0.24569 8.0411 0.28788c2.068-0.0768 3.812-0.49372 5.4085-1.0527s2.8585-1.4816 3.938-2.5611c1.0795-1.0795 1.7478-2.789 2.3343-4.3528 0.5865-1.5638 2.3174-2.9349 2.3174-5.0939l0.0641-9.5177 0.0548-9.4635 0.33356-9.5182-0.2951-9.9224-0.24561-10.343 0.27883-8.34-0.27256-9.745-0.54694-9.8693-0.32121-9.551-0.23902-9.2836c-0.0185-2.174-0.51947-4.5937-1.0639-6.2167s-1.147-2.4763-2.2265-3.5558-2.0815-1.7271-3.6971-2.2601-3.126-0.79571-5.285-0.79571l-6.0403-0.036-8.357 0.0406-6.9315 0.088-0.15295-9.9842 0.54274-9.4898-0.3025-10.292 0.0275-9.499-0.0986-11.225 0.26198-8.2735 0.57408-10.057 0.12506-9.5714-0.82286-10.354-0.5917-9.6254 8.6284-0.027 8.4575-0.22233 9.6044 0.33127 0.38736 9.7043-0.23624 8.9682-0.1777 9.4832 0.86028 9.5391 0.0306 9.3518-0.9365 9.1157-0.91135 9.2394 8.3336 0.29164 0.33-9.8152-0.15109-10.482 0.77702-9.6396-0.32407-10.042-0.3807-10.285-0.11463-9.5404c-0.0876-2.2315-0.66489-4.7221-1.2266-6.3595-0.56166-1.6374-0.85516-2.2557-1.9347-3.3352-1.0795-1.0795-2.5253-2.0087-4.2077-2.5899-1.6824-0.58121-3.1599-0.62864-5.3189-0.62864l-8.6514-0.7037-7.998 0.34374c-2.1514 0.0871-4.1282 0.0242-5.7456 0.58576-1.6174 0.56152-2.4918 1.8127-3.5713 2.8922-1.0795 1.0795-2.215 1.2491-2.8507 2.852s-0.72762 4.6482-0.72762 6.8072l0.2619 9.6211-0.13337 9.4026 0.35775 10.056 0.69229 9.5301-0.40509 9.1601 0.6015 9.9763 0.22223 9.6329-0.80651 9.5544-0.79782 9.5614c-0.0183 2.1413 0.21458 3.9876 0.74975 5.6024 0.53518 1.6148 1.4098 3.0175 2.4893 4.097s2.2291 1.6536 3.839 2.1885c1.61 0.53491 3.9246 1.191 6.0836 1.191l13.903-0.083 7.4325 0.25215-0.27698 9.2584 0.0451 10.239 0.82346 9.6948 0.26073 9.7539-0.35101 9.2697-0.31111 9.7633-0.15862 10.019-0.16342 9.662-0.21374 9.6908 0.57545 10.001-0.75963 9.5128-8.5689 0.0625-8.8827-0.75904-8.4531 0.69902-0.0583-9.9251 0.58721-9.6409-0.24227-10.165-0.23845-10.157 0.0321-9.366-0.0306-9.8642 0.26277-9.6186-8.4104-0.24421-6e-3 7.6315 0.15114 10.459-0.0892 8.5177 0.15832 9.6091 0.23674 9.1035-0.23768 8.7987zm57.887-0.46629c0 2.159 0.49049 4.3667 1.0302 5.986 0.53976 1.6192 1.2856 2.7652 2.3651 3.8447 1.0795 1.0795 2.9905 1.9573 4.6357 2.5582s2.9026 0.59413 5.0616 0.59413l8.2342 0.23186 8.3262 0.25243c2.036-0.0767 3.8788-0.37046 5.4673-0.9294 1.5885-0.55894 4.0092-1.315 5.0888-2.3945 1.0795-1.0795 2.8314-2.2691 3.0995-3.9054 0.2681-1.6363-0.88063-3.6601-0.88063-5.8191l-0.0265-9.2074 0.54426-8.9359-0.081-9.4044-0.0801-9.1813-0.0173-9.1287 0.88728-8.9489 0.62239-9.2342-1.003-9.5668-1.0169-9.6034-8.0108 0.31591 0.0693 9.9038 0.11306 9.8962-0.23374 9.4203-0.13078 9.2188 0.18605 10.948 0.38813 9.9805-0.10231 9.6166-0.19588 9.7507 0.36947 10.223-8.5694 0.0272-9.0593-1.2876-8.766 0.9043-0.0642-9.887-0.28457-9.9032-0.22339-9.6326 0.2081-9.0392-0.0298-10.073 0.42771-9.1414-0.10666-10.018-0.0228-9.6262 0.1996-9.4002 0.29048-9.5792 0.25918-9.6682 0.24169-9.6892-0.21923-10.062-0.27093-9.7539-0.11103-10.279 0.17536-8.6539 0.58897-9.4528 0.1157-9.7127-0.35522-9.9497-0.35616-9.7902 0.26671-9.1267-0.7293-10.02 9.542 0.27307 7.7864-0.0682 8.567-0.54462 0.67346 10.21-0.0288 9.5777 0.32838 10.101-0.0249 9.7135 0.48554 10.055 0.64585 9.6757-0.53017 9.9502-1.011 8.8428-0.53728 10.625 8.1364 0.047-0.30502-9.726 0.26853-8.5244-0.12259-9.672-5e-3 -8.8419-0.27624-10.018-0.0577-8.4908 0.71137-8.6623-0.0213-9.3755-0.22723-9.2937c0.0242-2.1333-0.30251-4.1216-0.83622-5.7344s-0.97846-2.6377-2.058-3.7172-2.5556-2.8455-4.2489-3.4383c-1.6932-0.59286-3.8908-0.52335-6.0498-0.52335l-8.0121-0.12558-6.8214 0.78466c-2.695-0.0742-4.5673 0.35978-6.3205 0.881-1.7532 0.52121-3.252 1.2346-4.3314 2.3141-1.0795 1.0795-2.0032 2.0274-2.5768 3.6204s-0.28524 4.1344-0.28524 6.2934l0.35966 9.6072-0.0468 8.9519-0.14052 8.8916-0.14869 10.571 0.30782 9.9613 0.45668 9.5822-0.3551 8.9009 0.09 10.014-0.0846 7.9771-0.23379 9.9859-0.27526 10.298-0.11482 9.6972 0.0846 9.7192-0.16104 9.3751 0.0302 9.7258 0.30575 9.5478-0.35547 8.4829-0.0569 10.561-0.21801 8.7972-0.0167 10.244zm58.307 12.979 8.3025 0.26538-0.15892-9.8703 0.3298-9.4663-0.27348-10.584 0.0267-8.7894 1.0807-9.5672-0.34384-10.145 0.502-9.1419 0.15436-9.7094-0.47037-9.9484 0.21925-9.3274-0.49407-9.8381 8.4455-0.0901 9.2893 0.0426 7.7836 0.0579-0.053 9.5729-0.14997 9.1594-0.32052 9.1678 0.0156 10.416-0.16146 9.3183-0.0823 9.412 0.50688 9.5921c0.0343 3.0143 0.0143 5.768 0.0775 8.4271-3e-3 2.6016 0.85565 5.405 0.97298 7.7837 0.11611 2.3539-0.49459 4.2525-0.35142 6.3286 0.32385 3.0226 0.60759 5.813 1.0523 8.7 0.44471 2.887 1.0504 4.7946 1.5902 7.4934l9.2341 1.1163c-1.1087-2.719-1.8298-5.4844-2.4038-8.3502-0.57403-2.8657-1.067-5.9022-1.3909-8.9248-0.14393-2.087-0.6224-4.9598-0.70857-7.2763-0.44803-2.8823-0.0176-4.3344 0.0311-6.6007 0.0534-2.4876-0.0337-5.7068-0.0337-8.6441l-0.0567-9.2232 0.12052-8.9686 0.88507-9.0361 0.23646-9.0032-0.59472-9.8465-0.3342-9.7038-0.33337-8.9235c0.20645-0.89897-0.21196-2.4007-1.0756-3.6961-0.64771-1.2954-1.9881-1.724-4.7948-1.724l-0.40025-0.22872c2.8067 0 4.6088-0.59305 5.2565-1.8884 0.8636-1.2954 1.8551-2.5323 1.8551-4.2595l-0.0959-9.7819-0.0502-9.7091 0.11706-9.647 0.36017-9.6555-0.27041-10.077-0.0672-9.5978 0.0807-9.6417-0.51096-10.267-0.0739-9.3421-0.37306-10.143c0.12449-1.9704 0.19152-3.6362-0.31711-5.2083-0.50863-1.5721-1.8813-3.9921-2.9608-5.0716-1.0795-1.0795-1.8205-1.3487-3.3676-1.653-1.5472-0.3044-2.9488-0.31299-5.1078-0.31299l-10.232-0.58542-9.5362 0.31848-9.723 0.0887 0.16405 9.9471 0.14552 9.8459 0.74941 9.9951-0.20396 9.4317 7e-3 10.113-0.15804 8.7911-0.28231 10.59-0.0789 9.9545-0.0687 9.874-0.39056 9.4371-0.0855 10.319 0.0892 9.9276-0.24985 9.5011 0.30421 10.226-0.0925 8.8483-0.17823 10.574 0.0448 10.07-0.30726 8.7534-0.1312 10.774-0.14161 9.391 0.23169 10.558-0.0378 9.2156zm8.3644-113.32-0.17866-9.9625 0.20988-9.1449 0.2072-9.7814 0.28045-9.4108 1.0719-9.7409-0.0325-9.6389-0.29684-9.7457-0.62143-10.561 0.067-8.6081-0.29619-9.6602 0.0237-9.4349 8.99 0.0454 8.7781 0.18274 8.3232-0.204-0.38923 8.688-0.0618 10.447 7e-3 9.7024-0.38927 8.8866 0.52263 10.498 0.47387 9.6431-0.15538 9.3765-0.25188 9.0186-0.1368 10.152-0.32083 9.2513-0.0243 9.7487-8.6519 0.027-8.594 0.0618zm50.242 113.67 8.1993 0.11849 0.0761-9.8528-0.0552-9.9184 0.10346-9.793 0.84016-9.5415 0.2732-10.152 0.54507-9.5698-0.182-10.303-0.17738-9.8816 0.0295-9.6906-0.26041-10.648 0.0669-9.0565-0.48276-10.618 0.77823-9.0461-0.33251-10.382-0.39124-10.019 0.0566-9.2373 0.83279-9.8251-0.42969-10.696-0.56595-9.9534-0.37196-9.2724-0.0364-9.5369 0.16885-9.8659-0.17467-9.748-8.7355-0.88514 0.018 9.8862 0.0912 9.9646-0.0327 9.749 0.90778 10.037-0.0422 9.7945-0.0841 9.8417 0.26462 10.084 0.16776 9.9214-0.12585 9.6107 0.49011 10.16 0.86452 9.8673-0.0788 9.8056 0.13144 10.086-0.35319 9.4279-0.23256 10.087 0.0658 9.9359-0.34192 9.7397-0.52963 9.2014 0.4859 10.717-0.24684 9.9442-0.65084 9.1818-0.35324 10.279zm24.213-0.47952 8.2008 0.5457-0.23603-10.925 0.11067-8.5425-0.11189-10.011 0.034-9.536-0.0962-9.9147 0.0108-9.6378 0.48339-9.5116 1.0064-9.7151-0.97178-11.054-0.39289-9.009 6.7133-0.53389 7.3634 0.0349 7.169 0.88769c2.0957-0.0444 4.101-0.30379 5.7044-0.85465s2.6174-1.652 3.6968-2.7315 2.0004-2.3095 2.5871-3.864c0.58664-1.5546 1.2951-3.1293 1.2951-5.2883l-0.19193-10.261-0.30373-9.4866 0.0766-8.4476 0.65229-9.1146-0.15433-10.464-0.15336-9.0232-0.29528-9.6215 0.0249-8.8957 0.0636-9.4474-0.0357-9.3844-0.28363-10.16c0.0723-1.8128-0.35448-3.8298-0.87617-5.3625-0.52168-1.5327-0.83219-2.5366-1.9117-3.6161-1.0795-1.0795-2.4403-1.8645-4.1361-2.4154-1.6958-0.55085-3.5676-0.73101-5.7266-0.73101l-8.6841 0.0685-9.8021 0.0473-10.9-0.47077 0.0755 9.925 0.0233 9.8253 1.0002 9.9607-0.0694 9.5796 0.23521 10.077 0.61462 10.148-0.44053 8.6547 0.63552 10.834 0.01 9.94-0.22452 9.3786-0.0705 10.273-0.20785 9.733-0.35017 9.6336-0.33324 9.8173-0.26793 9.9436 0.0491 10.228-0.21763 9.5913 0.0839 10.11-0.1597 9.7239-0.0847 9.9327-0.16732 9.5099-0.0464 10.001zm8.4504-103.91-0.0624-9.6715 0.13425-9.5744 0.24941-9.5441-0.30754-10.056-0.34265-9.8561-0.22292-9.3508 0.0269-9.3688 0.44909-9.1971-0.33221-10.272-0.0406-9.4687 0.68565-9.2362-0.58027-9.5986 8.3617-0.5305 8.707-0.43437 9.1519 1.0495 0.0851 9.6025-0.32515 8.4814 0.0124 10.651-0.0903 9.4641 0.2005 9.707 0.0905 9.6074-0.0559 9.4927 0.80181 9.9175 0.043 9.4061-0.5712 9.0459-0.3705 9.8045 0.19806 9.8145-9.062-0.57228-8.5778-9e-3zm62.548 104.44 8.0282-0.0648 0.11033-9.8874-5e-3 -10.244-0.21654-10.674 0.67646-8.912-0.17895-10.361 0.0475-9.7539-0.33893-10.706 0.036-9.2961-0.0136-9.9943-0.28018-10.782 0.40305-9.0914-0.0584-10.11 0.23375-9.7337 0.0618-10.082 1.1104-9.8903-0.36922-10.357 0.25098-9.7727-0.52615-10.88 0.20425-8.9119-0.40853-10.219 0.31324-9.9314-1.1836-10.521 6.9657 0.24437 7.8324 0.15802 5.5039-0.25856 0.17732-6.8692-9.8436-0.0588-9.0061 0.0929-10.598-0.18739-9.6422 0.13336-9.8512 0.0356-0.11043 7.0007 6.8169-0.1285 6.9485 0.21291 6.7694-0.47699-0.14965 9.677 0.3006 10.355-0.13724 9.8072 0.0985 10.272 0.31323 10.139-0.035 9.7644 0.28235 10.18-0.0808 9.8421-0.16009 9.9156 0.10493 10.264-0.0496 9.8775 0.4298 10.185-0.22225 9.3984 0.42281 10.731-0.15444 9.6917 0.1232 10.268-0.35001 9.5142 0.39633 10.615-0.47358 9.3671-0.20437 8.9827-0.17862 11.38z" fill="#fff" stroke-width=".26458" aria-label="JAVASCRIPT"/></g></svg>
