<?xml version="1.0" encoding="UTF-8"?>
<!-- Created with Inkscape (http://www.inkscape.org/) -->
<svg width="333.7mm" height="213.89mm" version="1.1" viewBox="0 0 333.7 213.89" xml:space="preserve" xmlns="http://www.w3.org/2000/svg"><g transform="translate(-124.47 1245.1)"><path d="m241-1031.2c-10.464-0.6001-16.167-1.1909-22.886-2.3709-7.8713-1.3822-11.811-1.9494-15.576-2.2426-7.599-0.5915-11.869-1.5922-22.524-5.2783-7.9931-2.7653-19.225-6.4487-21.813-7.1536-1.1559-0.3148-3.1204-0.9694-4.3656-1.4547-2.9488-1.1493-13.749-6.1018-15.639-7.1709-3.5501-2.0091-9.6327-7.2916-11.474-9.9646-2.1329-3.0969-2.8348-6.7888-1.726-9.0792 0.30001-0.6197 1.2846-1.8182 2.1881-2.6632 4.758-4.4505 13.048-7.5497 22.137-8.2761 7.7651-0.6205 10.039-1.1294 13.717-3.0701 2.9674-1.5658 6.0994-4.0589 8.9786-7.1469l2.382-2.5548-0.49642-1.1222c-0.44266-1.0007-0.87331-2.6633-2.2283-8.6028-0.75149-3.2942-0.9049-5.7446-0.91301-14.584-9e-3 -9.3363 0.17626-11.48 1.3202-15.314 0.695-2.3292 2.6123-5.6656 3.3136-5.7659l0.54093-0.077-0.60325-2.4362c-0.33179-1.3398-0.60497-2.7554-0.60707-3.1457-3e-3 -0.621-0.29266-0.8625-2.3189-1.9353-2.8432-1.5053-5.3388-3.4537-6.5351-5.1021-1.2942-1.7833-3.0753-8.3051-4.3824-16.047-1.8175-10.764-2.3413-18.144-1.3514-19.04 0.27352-0.2476 0.57616-0.9433 0.67255-1.5461 0.4196-2.624 2.4791-5.4486 7.4679-10.242 3.885-3.733 6.6141-5.615 12.794-8.8225 7.2637-3.7703 10.312-4.9413 22.225-8.5391 1.819-0.5494 4.6765-1.5238 6.35-2.1654 5.6642-2.1716 9.0118-3.2425 14.767-4.7238 7.468-1.9222 12.278-2.7672 16.74-2.941l3.5935-0.1399 2.0951-2.3773c2.636-2.9911 4.4584-4.5754 7.3552-6.3941 4.271-2.6814 8.5157-4.0615 13.261-4.3115 3.4622-0.1825 4.7746 0.058 8.062 1.4749 4.7282 2.0384 7.1789 3.9857 11.861 9.424 3.1636 3.6748 4.0983 4.4849 4.7636 4.1289 0.81841-0.438 9.5044 1.2745 14.207 2.8011 2.7643 0.8973 13.277 6.1445 15.463 7.7178 0.93768 0.675 2.6451 1.7672 3.7943 2.4271 3.6007 2.0678 6.5578 4.9798 7.8814 7.761 1.7648 3.7084 2.6864 14.067 2.1146 23.766-0.5732 9.7212-0.79795 10.376-4.7795 13.926-1.3824 1.2326-2.9118 2.4914-3.3985 2.7974l-0.88499 0.5564 0.15328 3.4395c0.0843 1.8918 0.22205 5.7018 0.3061 8.4667 0.0841 2.7649 0.20724 5.295 0.27374 5.6224 0.11936 0.5877 0.17533 0.5953 4.3814 0.5953 4.0094 0 8.4089 0.4407 10.943 1.0961 2.8796 0.7448 5.9988 2.5705 11.509 6.7365 3.1238 2.3616 4.0871 3.3868 5.6675 6.0321 2.5259 4.2278 6.2388 8.5381 10.033 11.647l1.2619 1.034 1.5956-1.565c2.1961-2.1539 2.7739-3.0499 5.9189-9.1786 3.0126-5.8706 5.2418-10.843 6.6325-14.795 1.1502-3.2679 2.4717-6.2662 4.8799-11.071 2.1754-4.3405 3.1693-6.8117 3.1693-7.8805 0-0.8242-1.162-2.0652-3.2429-3.4632-2.6364-1.7713-3.0875-4.4141-1.404-8.2261 0.54625-1.2369 1.3304-3.1708 1.7425-4.2974 1.3592-3.7158 5.4283-9.8194 7.3028-10.954 2.121-1.2839 4.8895-0.6382 10.551 2.4605 12.925 7.0752 14.804 8.1829 15.928 9.3927 1.8896 2.0335 2.3606 5.8496 1.0964 8.883-1.6198 3.8868-5.9506 10.168-7.9269 11.498-1.4321 0.9631-3.2808 1.1619-5.7905 0.6227-1.0914-0.2346-2.3072-0.4956-2.7019-0.5801-0.92509-0.198-2.6443 0.7896-4.0737 2.3403-2.2393 2.4294-3.6692 4.9177-11.145 19.396-2.1791 4.2202-4.712 8.9231-5.6285 10.451-0.91656 1.528-2.5536 4.5045-3.6378 6.6146l-1.9714 3.8364 1.6809 0.3506c5.8768 1.2258 11.2 3.9087 13.836 6.9729 0.54076 0.6288 1.4043 1.9171 1.9189 2.863 1.9564 3.5957 3.9568 6.2721 6.8421 9.1541 4.572 4.5667 7.3097 6.1956 12.393 7.3738 1.6167 0.3747 3.5943 0.8525 4.3947 1.0618 0.80037 0.2093 3.2412 0.6807 5.424 1.0475 4.5629 0.7668 6.7386 1.2995 11.906 2.9148 2.0373 0.6368 4.5971 1.4198 5.6885 1.7399 3.9657 1.1633 8.5089 3.8615 9.8406 5.8443 1.8007 2.6812 2.4462 7.6627 1.3536 10.445-1.8414 4.6897-7.8644 10.524-18.603 18.018-6.2534 4.3646-5.8266 4.1146-12.568 7.3624-6.0655 2.9224-6.7306 3.1803-10.575 4.0999-4.5911 1.0982-7.7202 1.4043-14.295 1.3988-6.1301-0.01-9.2028-0.3367-16.693-1.8012-5.5797-1.0908-7.5848-1.2662-12.804-1.1201-5.1603 0.1446-7.1904 0.4616-13.1 2.0459-3.9371 1.0555-7.2923 1.7256-11.245 2.2459-1.819 0.2394-4.617 0.6778-6.2177 0.9741-1.6007 0.2963-3.8629 0.6273-5.0271 0.7356-2.2252 0.207-16.341-0.2663-23.548-0.7896-5.9272-0.4303-9.2298-0.184-16.14 1.2039-3.4139 0.6858-7.2978 1.284-9.3927 1.4469-5.6028 0.4355-15.006 1.4601-15.885 1.7308-0.99042 0.3051-10.285 0.9422-17.188 1.1781-4.1474 0.1417-8.4931 0.3032-9.6573 0.3588-1.1642 0.056-2.831 0.06-3.7042 0.01zm11.112-2.4856c13.012-0.3869 17.217-0.7154 28.972-2.2626 1.6735-0.2203 4.8689-0.6348 7.1009-0.9211 2.232-0.2863 5.9229-0.9336 8.2021-1.4384 7.4194-1.6434 9.2612-1.7218 18.299-0.7782 11.22 1.1713 18.611 1.067 26.988-0.381 2.5466-0.4402 6.5632-1.1124 8.9258-1.4938 2.3626-0.3813 6.5447-1.215 9.2936-1.8526 9.7973-2.2724 15.742-2.4741 24.246-0.8225 9.7172 1.8871 16.855 2.5354 22.941 2.0836 7.4317-0.5516 11.159-1.5807 17.54-4.8433 5.6396-2.8832 7.9432-4.2146 10.6-6.1263 1.1552-0.8314 3.4904-2.4982 5.1892-3.7042 3.8455-2.7297 8.9207-7.2423 11.345-10.087 1.9683-2.3099 3.5179-4.9906 3.7989-6.572 0.21737-1.2233-0.22573-4.0646-0.8671-5.5601-1.1313-2.6377-4.9349-4.9761-11.758-7.2286-5.858-1.9339-8.8562-2.6574-13.135-3.1697-4.8958-0.5861-13.823-2.508-16.143-3.4756-4.4067-1.8374-11.249-8.5552-15.752-15.466-2.5149-3.8592-4.1099-5.3573-7.5983-7.1369-3.0159-1.5384-8.4293-2.9764-8.8207-2.3431-0.081 0.1311-0.15716 0.9353-0.16924 1.7871-0.0199 1.4063 0.0834 1.7047 1.1227 3.2423 0.62956 0.9314 2.3736 3.2183 3.8757 5.0819 3.03 3.7596 3.604 4.7271 4.2118 7.0993 0.78374 3.0592 0.099 5.118-3.6561 10.993-3.3051 5.1706-3.7217 6.0798-6.1352 13.391-1.8748 5.6794-3.747 10.176-4.9273 11.833l-0.56946 0.7997 0.61746 0.5174c0.33961 0.2846 1.4237 0.8475 2.4091 1.251 1.8688 0.7652 4.4663 2.5981 4.9423 3.4874 0.21017 0.3927 0.17688 0.6164-0.13871 0.932-0.57994 0.5799-0.68151 0.5478-2.0353-0.6439-0.66176-0.5825-2.2165-1.525-3.4551-2.0945-1.4844-0.6826-2.8023-1.5415-3.867-2.5203-1.0512-0.9663-2.5319-1.9356-4.2408-2.7759-2.7272-1.3409-3.5626-1.8943-6.2262-4.1238-2.0503-1.7162-3.7027-2.407-6.9181-2.8926-3.1246-0.4718-5.2353-1.0721-6.3111-1.7951-0.43656-0.2934-1.7688-1.5338-2.9606-2.7565-1.9386-1.9889-2.482-2.3741-5.1594-3.6572-1.6459-0.7888-3.9386-1.6918-5.0948-2.0067-1.8623-0.5071-2.306-0.5388-3.8874-0.2777-2.5428 0.42-4.0927 0.3675-6.3732-0.2158-3.2689-0.836-7.8778-3.3304-7.8778-4.2635 0-0.7344 0.74469-0.9555 1.5659-0.4648 4.6138 2.7566 5.8424 3.2787 5.8424 2.4829 0-0.2377 0.40467-1.2357 0.89926-2.2179 0.4946-0.9821 1.5126-3.2538 2.2624-5.0482 1.4257-3.4123 2.295-5.0913 4.1357-7.9879 0.60751-0.9559 1.8296-3.0667 2.7159-4.6905 3.2848-6.0188 9.0705-13.998 12.027-16.586 3.3807-2.96 8.1279-3.2193 15.969-0.8721 2.6144 0.7827 4.3156 0.8638 4.7106 0.2247 0.0769-0.1244-1.0203-1.2446-2.4381-2.4894-3.6203-3.1785-5.4299-5.3822-8.5841-10.454-2.086-3.354-3.3326-4.5004-9.2074-8.4676-3.5043-2.3665-5.8575-3.3072-9.4111-3.7623-2.5431-0.3256-11.574-0.2504-11.924 0.099-0.50276 0.5028-0.67502 5.0203-0.87972 23.071-0.16524 14.572-0.30934 19.802-0.58679 21.299l-0.36777 1.9845 2.2483-0.7277c2.6012-0.842 3.3354-0.9004 3.5719-0.2839 0.24332 0.634-0.27251 0.99-2.2304 1.5393-0.94589 0.2654-3.3232 1.2489-5.283 2.1856-4.3047 2.0576-6.5544 2.9716-10.704 4.349-5.2849 1.754-8.5114 3.6943-13.022 7.8313-4.2929 3.9369-7.3125 5.2937-13.377 6.0106-7.1044 0.8398-9.3062 1.5169-19.072 5.8652-1.1327 0.5044-2.9187 1.0774-3.9688 1.2733s-2.8617 0.5324-4.0259 0.7477c-3.5841 0.663-6.5742 1.9215-9.7896 4.1204-9.7596 6.6743-10.572 7.0025-19.05 7.6907-4.8838 0.3965-10.097 1.0387-12.435 1.532-2.4329 0.5132-6.7112 0.5568-17.33 0.1766l-6.7469-0.2416-0.0893-0.6316c-0.0491-0.3473 0.07-0.7324 0.26458-0.8558 0.19463-0.1234 2.1686-0.2261 4.3865-0.2284h4.0326l-0.69299-1.786c-0.38114-0.9822-1.1025-3.0956-1.603-4.6963-0.50052-1.6007-1.9931-6.1251-3.3169-10.054-1.3238-3.929-2.5361-7.534-2.6942-8.011-0.23503-0.7094-0.4799-0.9136-1.3456-1.1219-4.7273-1.1375-7.8444-2.3928-10.301-4.148-2.1664-1.5479-4.4539-3.6458-5.7852-5.3056l-1.2414-1.5477-2.9779 2.9233c-3.4829 3.4191-6.9574 5.8802-10.498 7.4361-3.1888 1.4012-5.3165 1.8493-11.171 2.3524-8.7865 0.755-14.428 2.3807-19.499 5.6186-1.7937 1.1454-3.9364 3.1427-4.4621 4.1593-0.59045 1.1418-0.29158 3.3097 0.74717 5.4197 1.0252 2.0825 4.668 5.8446 8.3038 8.5757 4.4497 3.3424 13.307 7.4023 24.162 11.075 27.652 9.3556 31.375 10.486 36.427 11.058 10.099 1.1438 12.689 1.5033 16.534 2.294 4.2673 0.8778 12.586 2.0209 17.862 2.4545 3.8648 0.3176 10.707 0.3246 20.902 0.021zm10.889-10.003c-0.24083-0.2661-0.43788-0.7185-0.43788-1.0054 0-1.252 1.5602-1.5833 2.2804-0.4842 0.9169 1.3993-0.72377 2.7258-1.8425 1.4896zm-32.544-0.7937c-0.24083-0.2661-0.43788-0.7186-0.43788-1.0054 0-1.252 1.5602-1.5834 2.2804-0.4843 0.9169 1.3994-0.72377 2.7259-1.8425 1.4897zm-30.945-3.1625c-0.84287-0.9314-0.4122-2.1745 0.75332-2.1745 0.91897 0 1.5891 0.9333 1.2882 1.794-0.31427 0.8989-1.3908 1.0996-2.0416 0.3805zm84.655-2.9229c-0.24084-0.2662-0.43788-0.7186-0.43788-1.0055 0-1.252 1.5602-1.5833 2.2804-0.4842 0.9169 1.3994-0.72378 2.7259-1.8425 1.4897zm26.205 0.013c-0.84287-0.9314-0.4122-2.1745 0.75332-2.1745 0.91898 0 1.5892 0.9332 1.2882 1.7939-0.31426 0.899-1.3908 1.0996-2.0416 0.3806zm88.635-1.0583c-0.84287-0.9314-0.4122-2.1745 0.75332-2.1745 0.91897 0 1.5891 0.9332 1.2882 1.7939-0.31427 0.8989-1.3908 1.0996-2.0416 0.3806zm-58.738-1.323c-0.84287-0.9313-0.4122-2.1745 0.75332-2.1745 0.91897 0 1.5891 0.9333 1.2882 1.794-0.31427 0.8989-1.3908 1.0996-2.0416 0.3805zm-99.495-0.8062c-0.24083-0.2662-0.43788-0.7186-0.43788-1.0055 0-1.252 1.5602-1.5833 2.2804-0.4842 0.9169 1.3994-0.72377 2.7259-1.8425 1.4897zm126.47-0.7938c-0.24083-0.2661-0.43788-0.7185-0.43788-1.0054 0-1.252 1.5602-1.5833 2.2804-0.4843 0.9169 1.3994-0.72377 2.7259-1.8425 1.4897zm46.038-2.6458c-0.24083-0.2661-0.43788-0.7186-0.43788-1.0054 0-1.252 1.5602-1.5834 2.2804-0.4843 0.9169 1.3994-0.72377 2.7259-1.8425 1.4897zm-142.33-3.4271c-0.84287-0.9313-0.41221-2.1745 0.75332-2.1745 0.91897 0 1.5891 0.9333 1.2882 1.794-0.31427 0.8989-1.3908 1.0996-2.0416 0.3805zm-117.48-1.3229c-0.84287-0.9314-0.4122-2.1745 0.75332-2.1745 0.91897 0 1.5891 0.9333 1.2882 1.794-0.31427 0.8989-1.3908 1.0996-2.0416 0.3805zm190.24-2.3812c-0.84287-0.9314-0.4122-2.1745 0.75332-2.1745 0.91898 0 1.5892 0.9332 1.2882 1.7939-0.31426 0.8989-1.3908 1.0996-2.0416 0.3806zm-23.559-1.0709c-0.24083-0.2661-0.43788-0.7186-0.43788-1.0054 0-1.252 1.5602-1.5834 2.2804-0.4843 0.9169 1.3994-0.72377 2.7259-1.8425 1.4897zm-19.315-2.3812c-0.24084-0.2662-0.43788-0.7186-0.43788-1.0055 0-1.252 1.5602-1.5833 2.2804-0.4842 0.9169 1.3993-0.72378 2.7258-1.8425 1.4897zm-120.65-2.6459c-0.24083-0.2661-0.43788-0.7185-0.43788-1.0054 0-1.252 1.5602-1.5833 2.2804-0.4843 0.9169 1.3994-0.72377 2.7259-1.8425 1.4897zm213.25-1.5875c-0.24083-0.2661-0.43788-0.7185-0.43788-1.0054 0-1.252 1.5602-1.5833 2.2804-0.4843 0.9169 1.3994-0.72377 2.7259-1.8425 1.4897zm31.485-0.2646c-0.24084-0.2661-0.43788-0.7185-0.43788-1.0054 0-1.252 1.5602-1.5833 2.2804-0.4842 0.9169 1.3993-0.72378 2.7258-1.8425 1.4896zm16.933 0c-0.24083-0.2661-0.43788-0.7185-0.43788-1.0054 0-1.252 1.5602-1.5833 2.2804-0.4842 0.9169 1.3993-0.72377 2.7258-1.8425 1.4896zm-289.72-1.852c-0.24084-0.2662-0.43788-0.7186-0.43788-1.0055 0-1.252 1.5602-1.5833 2.2804-0.4842 0.9169 1.3993-0.72378 2.7258-1.8425 1.4897zm16.14-3.175c-0.24083-0.2662-0.43788-0.7186-0.43788-1.0055 0-1.252 1.5602-1.5833 2.2804-0.4842 0.9169 1.3993-0.72377 2.7258-1.8425 1.4897zm232.84-8.9834c-0.84286-0.9313-0.4122-2.1745 0.75332-2.1745 0.91898 0 1.5892 0.9333 1.2882 1.794-0.31426 0.8989-1.3908 1.0996-2.0416 0.3805zm-67.733-34.131c-0.84287-0.9314-0.4122-2.1745 0.75332-2.1745 0.91898 0 1.5892 0.9332 1.2882 1.7939-0.31426 0.899-1.3908 1.0996-2.0416 0.3806zm6.3387-13.242c-0.24084-0.2661-0.43788-0.7186-0.43788-1.0054 0-1.252 1.5602-1.5834 2.2804-0.4843 0.9169 1.3994-0.72378 2.7259-1.8425 1.4897zm-122.54 73.503c0.87313-0.1309 3.433-0.4241 5.6885-0.6515 2.2556-0.2275 4.8154-0.5262 5.6885-0.6638 0.87313-0.1377 3.0758-0.3696 4.8948-0.5154 5.1374-0.4118 7.6294-1.4044 12.708-5.0616 5.4957-3.9578 9.375-5.6538 15.117-6.6091 2.5587-0.4257 3.8069-0.7922 5.7774-1.6963 8.7507-4.0155 10.995-4.739 17.281-5.571 2.7919-0.3696 5.731-0.8579 6.5314-1.0851 2.4193-0.6868 4.923-2.1795 7.222-4.3059 2.9507-2.7291 4.8255-4.2673 6.4124-5.2612 1.5948-0.9988 4.8694-2.5289 6.3516-2.9678 1.0053-0.2977 1.0624-0.3682 0.96581-1.1952-0.0564-0.4834 0.14416-3.0617 0.44575-5.7296 1.0867-9.6128 1.3366-17.525 0.8073-25.564-0.26349-4.0019-0.23348-4.7656 0.42123-10.716 0.38772-3.5236 0.78347-8.133 0.87946-10.243 0.16917-3.7187 0.19283-3.8391 0.77102-3.9212 0.36109-0.051 0.66043 0.082 0.7585 0.3375 0.19705 0.5135-0.26713 6.5675-0.98478 12.844-0.61181 5.3509-0.66158 8.3909-0.2744 16.762 0.30157 6.5197 0.15513 10.472-0.76523 20.654-0.28823 3.1885-0.46674 5.8547-0.39668 5.9247 0.21213 0.2121 3.2577-0.9744 6.699-2.6098 3.0619-1.4552 3.2322-1.5765 2.9183-2.079-0.27311-0.4374-0.22754-1.3117 0.25236-4.8418 0.54005-3.9727 0.59408-5.6061 0.69388-20.977 0.0624-9.6162 0.2508-18.684 0.4452-21.431 0.25572-3.6143 0.27236-6.4371 0.069-11.709-0.14736-3.8204-0.33465-7.0129-0.41619-7.0944-0.0815-0.082-0.61388 0.1832-1.183 0.5884l-1.0347 0.7366-0.34269 3.8443c-0.49248 5.5245-0.7858 14.406-0.81725 24.746-0.0341 11.22-0.59637 26.234-0.99743 26.635-0.15954 0.1596-0.49291 0.2123-0.74082 0.1172-0.40407-0.1551-0.43286-0.5081-0.27792-3.4086 0.28597-5.3538 0.65739-22.539 0.67581-31.269 0.0105-4.989 0.17938-10.132 0.43204-13.16 0.22811-2.7337 0.37694-5.2638 0.33072-5.6224l-0.084-0.6521-1.7391 1.1549c-0.95653 0.6352-3.1592 1.9095-4.8948 2.8318-2.6983 1.4339-3.1437 1.7608-3.0732 2.256 0.0453 0.3184-0.18083 3.6522-0.50258 7.4083-0.49796 5.8131-0.60864 9.4472-0.74388 24.424-0.1568 17.365-0.16577 17.595-0.68804 17.595-0.52392 0-0.52896-0.1693-0.50779-17.066 0.0165-13.2 0.12248-18.474 0.46765-23.283 0.24545-3.4197 0.48265-6.8295 0.52711-7.5773l0.0808-1.3596-1.21 0.5281c-9.7454 4.2532-19.906 7.8636-22.165 7.8764-0.44458 0-0.81389 0.4258-1.5609 1.7892-2.8188 5.1444-5.4038 8.4098-12.802 16.172-6.2039 6.5088-11.701 12.734-14.515 16.438-1.2714 1.6735-3.4907 4.5905-4.9318 6.4823-3.5088 4.6062-6.7767 7.7812-10.076 9.7895-1.4342 0.8732-5.1126 3.2417-8.174 5.2635-3.0615 2.0217-6.3998 4.0577-7.4184 4.5243-3.1848 1.4588-7.3055 2.742-9.7896 3.0485-2.7046 0.3338-15.617 0.4272-17.932 0.1297l-1.5279-0.1963 0.94966 2.611c0.5223 1.4361 2.1195 6.1234 3.5493 10.416 2.3494 7.0538 4.0824 11.828 4.4153 12.163 0.21098 0.2126 6.2177 0.4791 8.0323 0.3563 0.94588-0.064 2.4342-0.2234 3.3073-0.3543zm157.35-7.2096c1.5981-3.1969 2.4916-5.4856 4.1554-10.644 1.5599-4.8364 2.911-7.747 5.5425-11.94 3.201-5.0999 3.3399-5.4397 3.3416-8.1688 1e-3 -1.7372-0.1193-2.6021-0.445-3.1978-0.24554-0.4492-1.9421-2.6857-3.7701-4.9701-4.0505-5.0617-5.0029-6.7933-4.967-9.03 0.0474-2.9497 1.8806-7.3434 5.7403-13.758 2.5194-4.1873 4.5589-7.8679 6.1578-11.112 3.5084-7.1198 8.0588-15.629 9.68-18.1 2.9046-4.4288 5.5392-6.8753 7.8605-7.2992 0.6018-0.1098 1.7091 0.025 3.0868 0.3772 2.456 0.6271 3.7157 0.6871 4.7294 0.2252 0.90449-0.4122 3.6768-4.1348 5.3748-7.2173 2.2876-4.1529 2.6184-6.5135 1.2119-8.6487-0.71795-1.0899-2.4187-2.1442-10.843-6.7219-8.3621-4.5436-10.837-5.6344-12.05-5.3105-1.2169 0.325-4.6869 5.7961-6.0742 9.5774-0.47876 1.3048-1.27 3.2847-1.7582 4.3997s-0.88777 2.4663-0.88777 3.003c0 1.0372 0.35719 1.471 3.0136 3.6596 2.1595 1.7793 2.7742 3.8782 1.8509 6.3199-0.23498 0.6214-1.5957 3.5706-3.0239 6.5538-1.4282 2.9832-3.2106 7.0908-3.9609 9.1281-2.3021 6.251-4.6962 11.666-7.6029 17.198-3.5123 6.684-4.0436 7.4878-6.5854 9.9628-4.2193 4.1085-6.2533 4.8286-10.058 3.5614-2.4731-0.8236-7.1492-1.7502-8.8326-1.7502-1.8782 0-4.2304 0.7285-5.4696 1.6939-2.2952 1.7882-8.7981 10.498-10.794 14.456-0.40072 0.7949-1.7694 3.1717-3.0414 5.2818-2.5271 4.1918-3.3235 5.6922-4.6266 8.7166-0.47372 1.0994-1.4066 3.1555-2.073 4.5691l-1.2117 2.5702 0.91295 0.1713c1.4202 0.2664 2.765-0.073 2.765-0.6978 0-0.6222 2.335-5.3401 4.2659-8.6197 2.5845-4.3895 4.675-7.3723 7.1516-10.204 2.7863-3.1862 5.0236-5.0907 7.2845-6.2009 1.5001-0.7366 1.641-0.7549 5.6396-0.7309 4.2922 0.026 8.106 0.5189 10.98 1.4202 2.4116 0.7561 5.3888 2.0494 6.7944 2.9513 1.6352 1.0493 3.8439 3.453 4.8472 5.275 0.7454 1.3536 0.79253 1.6106 0.77372 4.2195-0.0261 3.621-0.92472 7.0048-3.1522 11.87-0.90865 1.9846-2.1642 5.0966-2.79 6.9157-0.62587 1.819-1.8198 5.0086-2.6532 7.0879l-1.5153 3.7807 1.7581 0.9027c0.96696 0.4964 1.8218 0.9085 1.8997 0.9156 0.0779 0.01 0.69327-1.0906 1.3676-2.4396zm39.422-98.406c-0.56825-0.5683-0.33989-1.1295 0.98089-2.4108 2.2387-2.1716 4.252-6.7523 4.2619-9.6966 5e-3 -1.4877 0.27127-1.9346 1.0842-1.8196 0.54098 0.076 0.64349 0.2565 0.71493 1.2556 0.22708 3.1754-2.0291 8.7053-4.6523 11.403-1.6106 1.6562-1.8663 1.7919-2.3896 1.2686zm-7.0644-3.4758c-2.7997-1.1549-9.5058-5.0686-10.656-6.2192-2.0779-2.0779-2.1483-3.7688-0.32544-7.8203 0.72679-1.6154 1.4749-3.2347 1.6625-3.5985 0.36765-0.713 1.339-1.0037 1.8731-0.5605 0.18146 0.1506 0.56186 0.2138 0.84533 0.1405 0.54453-0.1408 6.7585 2.1477 11.597 4.2708 3.1816 1.3963 4.417 2.4081 5.2561 4.3052 1.3037 2.9471-1.0427 8.1955-4.3881 9.8149-1.6654 0.8062-3.3318 0.7116-5.8638-0.3329zm5.063-2.5579c1.203-0.7513 2.4448-3.3017 2.466-5.0646 0.0166-1.3756-1.0288-2.1855-5.1576-3.9961-3.8898-1.7058-9.6615-3.9837-9.7691-3.8556-0.32029 0.3811-2.2596 5.0923-2.2596 5.4892 0 0.9718 1.3968 2.1555 5.1944 4.4018 6.3853 3.777 7.6693 4.1848 9.5259 3.0253zm-43.831 102.05c0.41481-0.9148 1.5258-3.9211 2.4689-6.6807 1.9647-5.7489 3.0161-8.4555 4.1815-10.764 0.96076-1.9033 2.0028-5.8863 2.2496-8.5986 0.16014-1.7602 0.11395-2.0289-0.58959-3.4294-1.0259-2.0421-3.032-3.9945-5.2023-5.0629-4.2929-2.1134-10.215-3.4883-15.024-3.4883-3.1703 0-4.8217 0.5368-7.2023 2.3414-3.7305 2.8279-9.4024 10.512-12.845 17.402l-1.8667 3.7364 1.1454 0.157c1.3243 0.1815 4.345 1.3357 7.5249 2.8753 1.7858 0.8647 2.7684 1.5987 5.038 3.7637 3.1956 3.0484 3.7188 3.2961 8.4401 3.9964 3.2732 0.4855 4.798 1.0313 6.9105 2.4733l1.5871 1.0833 0.68232-2.3119c1.7035-5.7724 3.1377-10.042 4.0026-11.917 1.3948-3.0235 2.7101-6.9819 3.0005-9.0297 0.46842-3.3028-0.58605-5.449-3.5704-7.267-1.4712-0.8962-1.851-1.259-1.851-1.768 0-0.9514 0.89509-0.944 2.6064 0.022 1.7404 0.9822 3.1954 2.5209 3.9719 4.2003 0.4523 0.9782 0.56137 1.6996 0.54488 3.6042-0.0235 2.7093-0.90313 5.8308-2.8333 10.054-1.5198 3.3254-5.2615 15.501-4.8981 15.939 0.49308 0.5941 0.76115 0.3607 1.528-1.3305zm-152.95-17.933c3.286-0.2888 8.2487-1.7073 11.246-3.2145 1.6588-0.834 6.9854-4.2268 13.53-8.6181 5.0961-3.4193 7.6372-6.0254 12.954-13.286 4.2314-5.7782 8.719-11.176 12.868-15.478 3.4149-3.5405 10.734-11.923 12.707-14.552 2.0485-2.7307 5.0688-8.0626 4.6411-8.1935-0.17494-0.054-1.0165-0.3064-1.8701-0.5619s-1.9689-0.7474-2.4784-1.0932c-0.50953-0.3457-0.95268-0.593-0.9848-0.5494-0.0321 0.044-0.46107 0.6745-0.95322 1.4021-0.49216 0.7276-2.2322 2.7869-3.8667 4.5761s-4.1904 4.8253-5.6797 6.7469c-4.1249 5.3221-5.3104 6.7627-7.5664 9.1942-1.1415 1.2303-2.8403 3.1895-3.7751 4.3537-1.597 1.9888-10.194 10.589-14.042 14.046-3.5703 3.2082-17.157 13.46-19.601 14.791-3.3051 1.7988-9.9026 3.503-14.509 3.7478-3.6654 0.1947-6.4953-0.144-11.406-1.3654-7.1412-1.7761-8.8227-2.6157-11.998-5.991-2.1471-2.2824-3.544-4.7499-4.2408-7.4911-0.51732-2.0351-0.51692-6.9462 1e-3 -12.31 0.46473-4.8124 0.50748-4.9837 1.2934-5.1809 0.60051-0.1508 0.60075-0.1529 0.12556-1.1251-0.26187-0.5358-0.9092-2.5815-1.4385-4.546-1.1634-4.318-3.2985-10.346-3.5986-10.161-0.53388 0.3299-1.5721 2.5537-2.2116 4.7369-1.0516 3.5902-1.369 9.5834-0.97677 18.446 0.27341 6.1789 0.40888 7.4402 1.2158 11.319 1.4683 7.0587 2.409 9.1275 5.6956 12.526 2.277 2.3546 5.8458 4.8662 8.1332 5.7239 5.8649 2.1992 16.346 3.0231 26.787 2.1055zm-3.556-9.6593c2.519-0.4406 6.5523-1.6479 8.7513-2.6195 2.1276-0.9401 5.4798-3.3191 15.424-10.946 4.5714-3.5062 14.372-12.742 17.689-16.67 1.4284-1.6913 3.7138-4.327 5.0787-5.8571s3.267-3.794 4.2269-5.0309c0.95995-1.2369 2.9028-3.7013 4.3176-5.4765 1.4147-1.7751 2.4296-3.1758 2.2554-3.1125-0.17425 0.063-2.2218 0.2892-4.5502 0.5023-2.3283 0.213-5.4012 0.6302-6.8286 0.9269-3.6252 0.7538-9.9551 1.386-14.338 1.4322-8.0392 0.085-37.844-0.368-40.698-0.6182-6.1823-0.542-8.8448-1.0191-13.233-2.3713-1.4313-0.441-4.2888-1.2155-6.35-1.7212s-4.2979-1.0861-4.9704-1.2898l-1.2227-0.3704 0.47652 2.1805c0.26208 1.1994 0.9716 3.475 1.5767 5.0571 1.6156 4.2239 2.4911 6.8322 3.595 10.709 0.54207 1.9039 1.1391 3.6152 1.3267 3.8028 0.36254 0.3625 2.344 6.5249 3.2348 10.06 0.29332 1.1641 1.0128 4.6765 1.5988 7.8052 0.58603 3.1287 1.3734 6.75 1.7497 8.0473 0.37629 1.2974 0.62411 2.5154 0.55071 2.7067-0.21263 0.5541 6.5705 2.4479 10.657 2.9752 2.8891 0.3728 7.1597 0.3188 9.6826-0.1225zm-24.338-8.1166c-0.46635-2.0737-1.2207-5.5563-1.6763-7.7391-0.45564-2.1828-1.2144-5.3975-1.6862-7.1438l-0.85778-3.175-0.17778 1.4553c-0.0978 0.8003-0.26371 3.4197-0.36874 5.8208-0.21377 4.8871 0.016 6.3607 1.4599 9.3629 0.5983 1.2441 3.7055 5.1892 4.087 5.1892 0.0373 0-0.31367-1.6967-0.78003-3.7703zm62.318-41.573c2.5466-0.2371 6.2376-0.7267 8.2021-1.0879s5.0602-0.8336 6.8792-1.0497 3.9099-0.4699 4.6465-0.564c1.0186-0.1301 1.4355-0.075 1.7415 0.2311 0.35993 0.36 0.5148 0.2716 1.4724-0.8401 0.58858-0.6833 1.6156-2.0556 2.2822-3.0496l1.2121-1.8073-0.55978-1.092c-0.69081-1.3475-0.92074-4.2419-0.49853-6.2756 0.53177-2.5615 1.679-4.5683 3.8564-6.7457 1.1009-1.1009 1.7899-1.9396 1.5312-1.8639-0.25871 0.076-2.3158 0.5632-4.5714 1.0831-2.2556 0.52-6.0656 1.4163-8.4667 1.9919-9.3312 2.2365-15.328 3.1583-22.49 3.4566-21.094 0.8785-26.955 0.8539-35.454-0.1487-1.819-0.2146-5.4504-0.5658-8.0698-0.7805-8.3069-0.6809-14.493-1.4417-16.391-2.0159-3.023-0.9145-9.3936-4.3934-13.857-7.5672-2.2864-1.6257-6.7882-5.9671-7.7705-7.4937l-0.76615-1.1907 0.1478 1.0584c0.0813 0.5821 0.38903 2.7847 0.68388 4.8948 1.0106 7.2323 3.2551 16.808 4.2647 18.194 0.67773 0.9306 2.79 2.7019 4.341 3.6404 3.2943 1.9933 5.9419 3.028 11.488 4.4896 1.819 0.4793 4.9407 1.3542 6.937 1.9441 5.2672 1.5565 9.4272 2.1314 17.669 2.442 21.81 0.8219 33.832 0.8643 41.54 0.1467zm41.017-5.5906c4.4753-1.1596 17.5-6.707 23.243-9.8996 5.1034-2.837 12.596-8.1832 16.129-11.509 2.1398-2.0141 2.5607-3.5656 2.8047-10.339l0.14296-3.9688-1.1247 2.7782c-1.6256 4.0153-3.0483 6.03-6.6365 9.3979-3.1245 2.9327-4.1492 3.4962-4.3606 2.3982-0.0702-0.3647 0.82681-1.405 3.194-3.7042 4.4336-4.3063 5.3448-5.879 7.8312-13.516 0.93559-2.8737 0.9467-2.9605 0.88035-6.8792-0.037-2.1828-0.22678-4.6236-0.42181-5.4239l-0.3546-1.4552-0.0293 1.9046c-0.0462 3.0061-0.77747 7.8979-1.5137 10.126-0.82281 2.4895-2.4388 5.2654-4.654 7.9942-1.6287 2.0064-2.3151 2.5358-2.855 2.2021-0.58526-0.3617-0.20024-1.3149 1.1221-2.7782 1.7854-1.9757 3.7577-5.25 4.5596-7.57 0.88878-2.5711 1.4468-6.644 1.6274-11.878l0.1552-4.498-0.87414-1.1173c-0.48078-0.6146-0.91007-1.0815-0.95399-1.0376-0.0439 0.044 0.17396 1.0825 0.48417 2.308 0.47554 1.8787 0.5375 2.664 0.39497 5.0063-0.21412 3.5189-0.96794 6.912-1.9817 8.9203-0.43475 0.8613-1.8582 2.8725-3.1633 4.4694-5.0758 6.211-7.4281 7.7225-17.808 11.443-3.2915 1.1797-7.161 2.6368-8.599 3.2379-3.6942 1.5444-4.3841 1.7848-7.5092 2.6165-2.0309 0.5404-2.6358 0.7917-2.249 0.934 4.223 1.554 6.2268 3.8012 7.0517 7.9086 0.37077 1.8462-0.0144 4.4011-0.9766 6.4779-0.72301 1.5606-3.0541 4.131-4.8631 5.3624-0.66659 0.4537-0.99979 0.7515-0.74045 0.6618 0.25934-0.09 1.1811-0.3471 2.0484-0.5719zm-4.3238-1.7589c1.1164-0.4177 1.9966-1.036 3.2956-2.3151 1.5839-1.5597 1.8344-1.9518 2.3568-3.6896 0.67685-2.2515 0.60169-3.7603-0.29066-5.8346-0.95446-2.2187-2.8595-3.3151-6.2557-3.6003l-2.0647-0.1734-1.9073 1.7529c-2.212 2.033-3.3952 4.1376-3.7242 6.6248-0.49199 3.7189 0.95913 6.0831 4.48 7.299 1.8266 0.6308 2.2725 0.6239 4.1101-0.064zm-2.4688-2.5213c-0.31264-0.062-1.0152-0.4997-1.5614-0.9718-0.87719-0.7583-1.007-1.0285-1.114-2.3184-0.0991-1.1952 3.5e-4 -1.6967 0.54829-2.7648 0.74433-1.4509 2.839-3.5537 3.5398-3.5537 0.94537 0 3.2039 1.6486 3.6678 2.6773 1.4787 3.2791-1.694 7.6075-5.0806 6.9314zm2.1169-2.6941c0.66458-0.5846 1.2297-1.7272 1.2297-2.4864 0-0.6889-1.2516-2.047-1.8866-2.047-0.79201 0-2.3467 2.278-2.3467 3.4385 0 0.3049 0.29964 0.8539 0.66586 1.2202 0.72114 0.7211 1.418 0.6838 2.3378-0.1253zm-57.905-6.6595c21.789-0.9872 22.001-1.0023 27.384-1.9511 6.3746-1.1235 14.82-2.899 20.398-4.2882 1.3962-0.3478 3.8448-0.8675 5.4414-1.155s3.9071-0.8105 5.1344-1.1624c1.2273-0.3518 3.184-0.8979 4.3482-1.2135 1.1642-0.3155 3.4859-1.1513 5.1594-1.8572 1.6735-0.706 4.8113-1.8948 6.9728-2.6419 11.694-4.0415 14.718-5.8209 19.03-11.196 2.9-3.615 3.3087-4.3429 4.026-7.1706 0.98979-3.9019 1.118-6.9224 0.41007-9.6654-0.77232-2.9926-1.2925-3.9253-3.2865-5.8922-2.8737-2.8347-3.8518-3.5189-8.4994-5.9459-6.0593-3.1641-7.7196-3.894-10.98-4.8274-3.1551-0.9032-8.4667-2.0099-8.4667-1.7641 0 0.1001 1.4492 1.1824 4.2281 3.1575 1.0455 0.7431 2.4785 1.3553 5.1369 2.1945 4.8882 1.5432 7.3168 2.7331 11.186 5.481 5.082 3.609 5.9002 4.8544 6.5057 9.903 0.51204 4.2692-0.21242 6.475-3.6135 11.002-2.542 3.3836-4.3166 4.808-9.5828 7.6917-4.9548 2.7132-15.691 7.1285-20.647 8.4911-1.768 0.4861-3.9112 1.1725-4.7625 1.5254-3.4479 1.4291-8.5186 2.8613-11.755 3.3199-1.0802 0.1531-4.1072 0.408-6.7266 0.5665-2.6194 0.1584-6.727 0.516-9.1281 0.7946-5.2208 0.6058-14.859 1.4366-22.955 1.979-6.0692 0.4065-19.474 0.5638-23.215 0.2723-14.716-1.1467-19.782-2.191-28.707-5.918l-3.5719-1.4916-2.9227-2.9119c-3.6079-3.5945-4.439-5.0703-4.5796-8.1319-0.16901-3.6805 1.0037-7.466 3.4791-11.231 1.6343-2.4854 3.0608-3.858 6.0538-5.8251 4.4585-2.9302 7.9047-4.3759 17.284-7.2508 4.5392-1.3913 16.07-5.3523 19.544-6.7136 7.0811-2.7746 16.3-5.1491 20.04-5.1612l1.7486-0.01 4.4402-4.2524-1.9844 0.1587c-3.5 0.28-8.176 1.1845-14.552 2.8147-5.7029 1.4581-14.791 4.3103-17.681 5.5491-0.65405 0.2803-4.0575 1.3466-7.5632 2.3694-7.138 2.0825-10.27 3.3172-16.428 6.4766-8.0409 4.1252-9.8047 5.271-14.089 9.1527-3.75 3.3976-5.7564 6.0011-6.5528 8.5026-0.83761 2.6312-0.8394 4.5314-6e-3 6.8918 0.94796 2.6863 2.1464 4.481 4.5102 6.7542 2.5978 2.4982 4.2367 3.7213 8.2585 6.1627 4.9404 2.999 6.0588 3.5984 8.063 4.3214 3.1224 1.1263 12.225 2.5287 18.867 2.9068 3.1274 0.178 11.262 0.8518 14.288 1.1835 2.7544 0.3019 3.6722 0.302 10.319 8e-4zm9.5814-6.7329c7.6565-0.4965 13.079-1.0651 17.731-1.8592 2.0707-0.3535 6.1188-0.8278 8.9958-1.0541 9.1501-0.7197 11.753-1.2283 17.349-3.3898 1.6299-0.6295 4.0946-1.4712 5.477-1.8702 4.1849-1.208 14.096-4.9688 17.238-6.5408 5.1909-2.5972 11.993-7.3831 10.493-7.3831-0.56326 0-1.1507-0.7544-1.5452-1.9844-0.45422-1.4161-3.0894-7.515-3.5522-8.2214-0.20226-0.3087-1.2844-2.2761-2.4047-4.372-3.7755-7.0633-5.9531-9.6345-11.498-13.576-4.5266-3.2177-7.3042-5.6117-9.486-8.176-2.3512-2.7633-6.1513-6.4529-7.797-7.5704-1.8518-1.2573-5.929-3.1294-7.5924-3.4862-4.1785-0.8961-11.698 1.1545-16.719 4.5591-2.3766 1.6117-3.8411 3.0532-7.222 7.1083-5.168 6.1987-10.507 10.454-15.944 12.709-2.4497 1.0157-8.222 3.8796-11.704 5.8068-2.9102 1.6107-4.9385 2.9863-8.5161 5.7756l-2.563 1.9982 4.415 1.275c2.4283 0.7013 5.6297 1.4677 7.1142 1.7033 2.9719 0.4715 3.7049 0.91 3.4198 2.0458-0.0888 0.3536-0.35541 0.7174-0.59258 0.8084-0.65222 0.2503-5.8889-0.8135-9.7598-1.9826-5.1898-1.5674-7.4149-1.923-10.848-1.7335-7.697 0.4249-13.993 3.1922-19.331 8.497-2.0439 2.031-3.448 4.1165-5.2958 7.8662l-1.4727 2.9885 1.5406 1.3881c2.5295 2.2791 9.6837 5.1942 16.622 6.7728 4.7457 1.0799 7.7782 1.3611 22.754 2.1106 4.6587 0.2332 15.543 0.1213 20.694-0.2128zm-29.4-3.922c-0.71144-0.5202-0.46454-1.6185 0.38612-1.7175 0.87942-0.1025 1.5864 1.0122 1.0511 1.6572-0.41224 0.4967-0.81721 0.5137-1.4372 0.06zm39.571-1.1715c-0.74182-0.2733-4.5381-9.711-4.5389-11.284-7.2e-4 -1.4121 0.80288-2.5865 2.3437-3.4251 3.2395-1.7632 6.0796-0.2094 5.7991 3.1726-0.11433 1.3787-0.10067 1.4119 0.58034 1.4119 1.1063 0 3.3694 1.2652 3.9377 2.2015 1.5901 2.6194 0.52345 4.7748-3.401 6.8726-1.6272 0.8698-3.8617 1.367-4.721 1.0505zm4.6548-4.776c2.314-1.7462-0.43519-2.8911-3.5668-1.4854l-1.1194 0.5024 0.69541 1.5237 0.6954 1.5236 1.2177-0.7077c0.66975-0.3893 1.6047-0.9997 2.0776-1.3566zm-4.8398-5.438c0.72127-1.2307 0.87972-2.2924 0.34188-2.2908-0.52491 0-2.0505 1.0174-2.0505 1.3654 0 0.5292 0.62241 2.0732 0.83575 2.0732 0.11015 0 0.50295-0.5165 0.87289-1.1478zm-28.077 9.96c-0.84596-0.1651-3.2651-2.8294-3.2651-3.596 0-1.2513 1.6941-2.009 2.437-1.09 0.81546 1.0088 1.5257 1.6946 1.755 1.6946 0.13602 0 0.51175-0.2141 0.83497-0.4759 0.49435-0.4003 0.58382-0.7259 0.56344-2.0505-0.0208-1.3522-0.64489-4.5225-0.95038-4.828-0.0553-0.055-0.46521 0.1691-0.91097 0.4987-1.9452 1.4381-5.2932 0.3202-6.5904-2.2006-0.82399-1.6012-1.0523-3.405-0.49004-3.8717 0.22495-0.1867 0.74362-0.301 1.1526-0.2541 0.62711 0.072 0.80577 0.2792 1.1405 1.3237 0.49385 1.541 1.4572 2.5993 2.3612 2.5939 1.0263-0.01 1.2865-0.2833 1.6066-1.7116 0.36153-1.6132 0.65969-1.9885 1.5798-1.9885 0.72787 0 1.5961 0.6998 1.5961 1.2864 0 0.1753 0.28437 0.8803 0.63195 1.5667 1.3938 2.7524 2.2328 7.2927 1.7476 9.4574-0.60473 2.6984-2.6622 4.1408-5.1999 3.6455zm-26.548-1.6912c-0.94589-0.873-3.1783-2.8545-4.9609-4.4035-3.2432-2.8182-3.6972-3.4785-2.9236-4.2521 0.6037-0.6037 1.4264-0.3118 3.1476 1.1168l1.728 1.4344 4.8787-5.5224-1.3318-1.6459c-1.3358-1.6509-1.6058-2.4643-1.0143-3.0558 0.74124-0.7413 1.4918-0.3433 3.0188 1.6007 0.82874 1.055 3.096 3.5351 5.0384 5.5113 2.175 2.2129 3.5316 3.7978 3.5316 4.1262 0 0.6186-0.77818 1.4088-1.3874 1.4088-0.23085 0-1.6919-1.3394-3.2467-2.9765l-2.827-2.9766-2.3558 2.5107c-1.2957 1.3808-2.3256 2.5838-2.2887 2.6733 0.0369 0.09 0.99569 0.9728 2.1306 1.9628 2.5037 2.184 2.7546 2.5812 2.1825 3.4543-0.65806 1.0043-1.4271 0.7804-3.32-0.9665zm39.581 0.4709c-0.71144-0.5202-0.46454-1.6185 0.38612-1.7176 0.87941-0.1024 1.5864 1.0123 1.0511 1.6573-0.41225 0.4967-0.81721 0.5137-1.4372 0.06zm28.506-4.4231c-2.0629-0.28-3.132-0.8319-3.7132-1.9166-0.37846-0.7062-0.47633-1.7674-0.56135-6.0865-0.1101-5.5927-0.0289-6.0137 1.1604-6.0137 1.2013 0 1.4378 0.8301 1.4378 5.0465 0 4.0264 0.24677 5.3671 1.0688 5.807 0.26617 0.1425 1.5449 0.259 2.8416 0.259 1.948 0 2.4337 0.084 2.7955 0.4839 0.51709 0.5714 0.57575 1.7211 0.10715 2.1001-0.49255 0.3984-3.2809 0.5723-5.1367 0.3203zm27.321-0.604c-0.71144-0.5202-0.46454-1.6185 0.38612-1.7176 0.87941-0.1024 1.5864 1.0123 1.0511 1.6573-0.41224 0.4967-0.81721 0.5137-1.4372 0.06zm-14.921-0.5011c-0.47838-0.4784-0.39978-1.1695 0.5926-5.2111 0.76229-3.1045 1.4712-7.5111 1.4712-9.1453 0-0.6719 1.0026-1.4657 1.8513-1.4657 1.863 0 4.187 3.4623 5.9495 8.8636 1.0134 3.1055 1.1078 4.123 0.43893 4.7284-0.73035 0.6609-1.7345 0.3957-2.1123-0.5579-0.15928-0.402-0.43025-1.311-0.60218-2.0199l-0.31258-1.2889-1.3496 0.1621c-0.74226 0.089-1.6581 0.1632-2.0353 0.1645-0.65354 0-0.71425 0.1297-1.2924 2.7143-0.33368 1.4916-0.72429 2.8608-0.86801 3.0427-0.33198 0.4202-1.3166 0.4277-1.7311 0.013zm5.9566-8.5565c0.35658-0.1086-1.1504-3.826-1.551-3.826-0.12385 0-0.23037 0.4465-0.23671 0.9922-6e-3 0.5457-0.10752 1.4878-0.22484 2.0936l-0.21331 1.1014 0.95244-0.1318c0.52384-0.072 1.0969-0.1757 1.2734-0.2294zm12.004 3.2123c-0.46443-0.5596-3.1972-8.8961-3.1972-9.7533 0-0.4441 0.26683-1.0155 0.65588-1.4045 0.77843-0.7784 1.3692-0.7117 3.6321 0.4103 1.8019 0.8934 1.6846 0.983 3.1261-2.3895 1.2241-2.864 1.6616-3.4263 2.6662-3.4263 0.79052 0 1.5615 0.8166 1.5615 1.6539 0 0.2628 0.3537 1.1785 0.786 2.0349 0.82064 1.6257 1.6813 4.6215 2.0794 7.238 0.20284 1.333 0.16655 1.6191-0.27688 2.1828-0.60615 0.7706-1.0067 0.811-1.7859 0.18-0.42361-0.343-0.68296-1.0349-0.967-2.5797-0.21348-1.161-0.63591-2.8706-0.93874-3.7991l-0.5506-1.6883-0.77282 1.4237c-1.3384 2.4655-3.1084 3.1758-5.224 2.0965l-1.1274-0.5751 0.17867 0.6125c0.0983 0.337 0.64453 1.9599 1.2139 3.6065 1.1693 3.3816 1.1953 3.5551 0.6195 4.131-0.51515 0.5151-1.2719 0.5357-1.6786 0.046zm-62.952-4.4749c-0.15838-0.1908-0.71842-1.4707-1.2445-2.8442-1.5819-4.1298-4.1436-9.6181-4.6613-9.9868-0.27827-0.1981-0.48556-0.6705-0.48556-1.1065 0-0.8791 0.73402-1.4936 3.0513-2.5545 1.237-0.5663 1.7787-0.664 3.1854-0.5744 5.3858 0.3429 5.849 6.3101 0.72486 9.337l-0.80254 0.4741 1.3114 3.1774c1.0996 2.6642 1.2655 3.2781 1.0272 3.8011-0.32101 0.7046-1.6106 0.8741-2.1062 0.2768zm0.4216-11.376c0.41081-0.3728 0.59532-0.8408 0.59532-1.51 0-1.3868-0.86071-1.7558-2.7887-1.1953l-1.4002 0.4071 0.82148 1.8488 0.82148 1.8489 0.67765-0.4296c0.37271-0.2363 0.94554-0.6727 1.273-0.9699zm-24.912 10.319c-0.73566-0.5379-0.46241-1.6189 0.43534-1.7223 0.90929-0.1047 1.5645 0.9841 1.0009 1.6632-0.41129 0.4956-0.81661 0.5122-1.4363 0.059zm101.86-1.852c-0.71144-0.5203-0.46454-1.6185 0.38612-1.7176 0.87941-0.1025 1.5864 1.0122 1.0511 1.6572-0.41224 0.4967-0.81721 0.5137-1.4372 0.06zm-62.802-2.8621c-0.47539-0.1372-1.4156-0.7776-2.0894-1.4232l-1.225-1.1738 0.15251-3.2492c0.21845-4.654 0.99572-6.7958 2.806-7.7319 0.76761-0.397 6.4107-1.7351 7.3171-1.7351 0.70524 0 1.1792 0.4868 1.1792 1.2111 0 0.8562-0.38441 1.0371-3.5719 1.6808-1.6007 0.3233-3.1108 0.6438-3.3557 0.7122-0.43129 0.1205-1.539 2.0618-1.539 2.6971 0 0.2196 0.75749 0.3134 2.5309 0.3134 2.7888 0 3.5545 0.247 3.5545 1.147 0 1.0688-0.46425 1.2342-3.4647 1.2342h-2.8297l-0.10069 1.0559c-0.0554 0.5807-0.0175 1.2808 0.0842 1.5557 0.23541 0.6364 2.3193 1.3572 3.9238 1.3572 1.3894 0 1.8579 0.3336 1.8579 1.3229 0 0.3783-0.14287 0.8308-0.3175 1.0054-0.37589 0.3759-3.6337 0.3894-4.9125 0.02zm12.796-2.4296c-0.71144-0.5202-0.46454-1.6185 0.38612-1.7176 0.87941-0.1024 1.5864 1.0123 1.0511 1.6572-0.41224 0.4968-0.81721 0.5138-1.4372 0.06zm10.656-4.0624c-0.25727-0.3112-0.36312-1.256-0.36312-3.2412 0-3.5901-0.22508-4.0461-2.6458-5.3602-1.0186-0.553-1.9195-1.0072-2.0019-1.0095-0.0824 0-0.47145 1.2662-0.8646 2.8188-0.39315 1.5525-0.85133 2.9873-1.0182 3.1883-0.39504 0.476-1.5405 0.3307-1.8982-0.2408-0.20477-0.3271-0.15124-0.9672 0.19915-2.3813 0.26355-1.0636 0.75549-3.184 1.0932-4.712 1.4594-6.6029 2.808-8.469 6.118-8.4652 1.7017 0 2.9594 0.3744 4.296 1.272 2.9209 1.9618 3.386 4.9534 1.0922 7.0257-0.57703 0.5213-1.3796 1.0268-1.7834 1.1234-1.0977 0.2625-1.2026 0.378-0.77785 0.8563 0.58998 0.6645 1.2007 2.3057 1.3905 3.7369 0.2089 1.5747-0.30825 4.7351-0.8779 5.365-0.5287 0.5845-1.4848 0.5962-1.958 0.024zm-0.11103-12.522c2.7312-0.4472 3.3096-1.9651 1.2721-3.3382-2.0173-1.3594-3.8027-1.0006-4.743 0.9534-1.0224 2.1244-1.0253 2.3312-0.0345 2.4535 1.5979 0.1972 1.9205 0.1909 3.5055-0.069zm18.823 9.1759c-0.71144-0.5203-0.46454-1.6185 0.38612-1.7176 0.87941-0.1025 1.5864 1.0122 1.0511 1.6572-0.41224 0.4967-0.81721 0.5137-1.4372 0.06zm-34.131-12.965c-0.71144-0.5202-0.46454-1.6185 0.38612-1.7176 0.87941-0.1024 1.5864 1.0122 1.0511 1.6572-0.41224 0.4968-0.81721 0.5138-1.4372 0.06zm23.283-8.9959c-0.71144-0.5202-0.46454-1.6185 0.38612-1.7175 0.87942-0.1025 1.5864 1.0122 1.0511 1.6572-0.41224 0.4967-0.81721 0.5137-1.4372 0.06zm-98.702 44.994c2.6105-5.1557 5.1326-8.2138 9.4488-11.457 3.303-2.4816 4.9274-3.3169 8.4426-4.3415 3.6076-1.0516 6.9207-1.5982 9.6867-1.5982h2.2543l2.5397-2.0353c3.9257-3.146 4.5409-3.6153 6.2439-4.7622 2.5116-1.6916 11.233-6.4455 15.993-8.7182 2.3933-1.1425 4.1621-2.1138 3.9307-2.1584-1.2756-0.2456-12.298 2.9407-18.601 5.3774-2.2796 0.8812-19.485 6.6693-22.754 7.6548-2.9404 0.8863-4.6019 1.576-8.9958 3.734-4.0895 2.0085-5.5423 3.0401-7.13 5.063-3.7282 4.7501-5.2464 11.568-3.2481 14.588 0.40059 0.6053 0.77822 1.1006 0.83918 1.1006 0.061 0 0.66846-1.1013 1.35-2.4474zm141.93-10.904c1.5696-2.4091 2.2068-4.5743 1.9884-6.7567-0.27002-2.6989-0.62932-4.0189-1.397-5.1323-1.3756-1.9949-7.0152-6.0345-10.156-7.2744-3.3429-1.3198-3.2587-1.3574-1.8296 0.8183 0.69763 1.0621 1.7818 2.8836 2.4092 4.0478 0.62746 1.1641 1.828 3.3073 2.6678 4.7625 1.5633 2.7088 3.7582 7.3772 4.6338 9.8557 0.26989 0.764 0.50831 1.3891 0.52982 1.3891 0.0215 0 0.54046-0.7695 1.1532-1.71z" fill="#fff"/></g></svg>
