<svg width="2724.2mm" height="1901mm" version="1.1" viewBox="0 0 2724.2 1901" xmlns="http://www.w3.org/2000/svg">
 <g transform="translate(1435.3 2833)">
  <path d="m-1435.3-956.94 220.29-56.388 6.2524-581.46 103.52 0.5776-5.4293 554.18 168.95-43.247 9.3245-1130.4-166.25-54.079-5.0187 512.27-103.28-8.4649 5.7759-537.15-216.08-70.288zm633.13-162.06 124.79-31.942 1.899-326.08 92.559-623-110.07-35.804-23.633 279.05-18.722 213.94-16.307-219.51-20.357-299.18-140.17-45.597 112.45 737.88zm228.38-58.458 95.373-24.413 1.2775-319.69 73.457-3.0094c20.049-0.8214 34.633-9.8179 44.077-26.827 9.7318-16.778 14.593-42.318 14.689-76.786l0.81587-293.58c0.0931-33.514-4.6056-59.853-14.195-79.232-9.2936-20.27-23.742-33.681-43.673-40.164l-167.35-54.437zm97.114-460.12 1.2575-314.69 52.559 13.102-1.0651 303.55zm151.59 396.46 129.62-33.178 0.14009-100.47-61.159 10.552 0.41632-212.66 59.546-0.2615 0.13521-96.031-59.484-4.4806 0.41391-211.43 61.808 14.998 0.13753-99.278-129.57-42.148zm143.77-36.8 54.742-14.012 0.21711-285.51 31.071-0.1364-0.07961 168.09c-9e-3 19.015 0.25903 36.757 0.80382 53.212 0.5447 15.83 1.6389 34.278 3.2796 55.311l47.31-12.11c-1.7634-20.082-2.8996-37.72-3.4049-52.877-0.25262-15.802-0.37864-32.803-0.378-50.997l4e-3 -113.42c9.39e-4 -26.929-2.7856-46.811-8.403-59.755-5.4166-13.074-12.726-19.777-22.005-20.014 9.2792 0.2367 16.59-6.0923 22.009-18.884 5.6169-12.646 8.4032-32.355 8.4041-59.219l0.0055-159.16c9.34e-4 -26.772-2.904-47.409-8.7621-62.038-5.6631-14.706-14.404-24.031-26.373-27.925l-97.566-31.737zm55.01-367.36 0.16723-219.91 30.985 7.7235-0.10132 213.91zm119.68 332.21 96.157 26.098c14.473 3.9281 25.503-0.2969 32.867-12.881 7.8052-12.672 11.745-34.431 11.736-65.139l-0.0521-180.16c-9e-3 -30.681-3.6172-53.286-10.755-67.677-7.0463-14.206-16.463-20.93-28.126-20.319 11.663-0.6111 21.076-8.3218 28.114-23.264 7.129-15.135 10.724-38.108 10.715-68.771l-0.0462-159.92c-9e-3 -30.639-3.9559-52.002-11.758-63.964-7.3601-11.911-18.376-15.169-32.828-9.9979l-96.024 34.36zm49.273-71.18-0.02156-213.1 32.762-0.6564 0.03706 219.94zm-0.02825-279.19-0.01968-194.51 32.743-9.0115 0.03382 200.75zm108.85 393.28 136.11 36.94-0.0688-113.96-68.916-12.503-0.29852-645.51-67.053 23.993zm138.12 37.485 82.922 22.506 27.508-562.86 8.6106-188.16 9.0421 185.64 28.737 585.42 111.44 30.244-78.529-938.72-134.28 48.048zm44.324-165.13 155.95 21.277-0.11581-113.6-155.9-9.2123zm239.85 242.25 123.75 33.585-3.32-680.89-2.6527-224.7 17.955 222.63 56.325 701.49 202.62 54.993 70.402-800.98 23.431-278.18-1.1318 275.17-1.6509 828.7 229.43 62.268-3.789-1425.5-348.62 124.74-54.953 791.87-16.708 249.44-18.679-251.47-53.8-738.26-219.77 78.638zm-598.4-101.31h46.704l-70.861 324.81h-46.707zm-643.81 152.94 546.73 168.29v-119.79l-172.79-41.195 172.79-41.195v-118.46zm1275.2 1.1193-559.43-151.49v118.46l172.79 41.195-172.79 41.195v119.79zm-617.39-1730.1c-39.617-0.484-78.98 0.325-98.388 2.62-171.68 20.277-316.13 78.372-446.45 179.55-139.41 108.24-240.92 254.07-294.49 419.25l28.019 9.339c93.237-285.67 330.71-501.68 627.6-565.19 53.915-11.535 111.07-17.453 168.67-17.741 57.6-0.287 115.65 5.054 171.35 16.041 119.9 23.649 241.72 77.895 337.96 150.49 136.67 103.09 236.05 239.43 290.97 394.17l28.023-9.514c-8.923-24.817-18.985-49.472-30.603-74.434-44.431-95.446-98.579-172.91-174.35-249.41-54.257-54.788-113.35-100.57-180-139.47-29.26-17.079-84.04-43.537-113.88-55.004-15.204-5.842-30.857-11.896-34.779-13.455-11.257-4.451-59.845-18.679-83.766-24.523-29.213-7.134-61.301-13.077-95.968-17.77-20.426-2.758-60.304-4.49-99.922-4.958zm13.296 111.4c-122.74-3.582-245.4 22.241-356.54 76.304-122.2 59.446-231.61 156.82-305.86 272.2-33.466 52.01-63.898 116.8-83.694 177.03l31.485 10.494c28.065-86.672 72.286-168.03 131.14-240.06 20.256-24.79 84.633-87.72 109.17-106.71 54.6-42.258 103.54-71.474 161.84-96.622 102.93-44.399 205.11-63.51 316.79-59.257 62.771 2.388 108.17 9.283 166.56 25.291 150.99 41.396 285.3 131.37 382.14 256.01 46.48 59.828 82.945 127.82 108.73 199.87l31.406-10.663c-8.117-22.233-17.121-44.581-28.156-67.995-38.408-81.486-79.381-140.22-144.05-206.5-35.626-36.513-62.373-59.998-96.764-84.965-75.463-54.784-168.64-98.591-257.83-121.21-54.753-13.888-110.56-21.592-166.35-23.219zm-32.205 106.18c-76.836 1.152-153.02 15.447-223.43 42.454-150.83 57.857-274.9 168.86-347.68 311.08-17.223 33.639-30.365 66.021-41.065 99.732l35.276 11.761c23.187-72.892 59.665-140.51 110.14-202.94 19.542-24.171 69.859-73.211 95.996-93.562 71.21-55.446 160.62-97.749 246.73-116.73 44.626-9.839 91.4-14.562 138.18-14.185 46.775 0.38 93.554 5.853 138.18 16.41 201.73 47.731 366.56 196.17 436.96 389.89l35.428-12.028c-38.17-106.46-102.61-199.9-191.07-275.84-43.788-37.588-108.33-78.34-159.42-100.66-40.393-17.648-96.376-35.369-136.32-43.157-34.102-6.648-68.685-10.582-103.3-11.843-11.537-0.419-23.082-0.543-34.609-0.372zm7.447 100.15c-36.285 0.167-72.572 3.537-105.49 10.097-166.7 33.218-307.12 139.04-384.8 290.01-14.302 27.776-25.591 55.716-34.792 84.527l41.11 13.705c0.407-1.305 0.702-2.637 1.143-3.935 29.756-88.954 76.505-160.13 145.77-221.94 80.674-71.985 179.22-115.38 288.38-126.99 16.686-1.773 40.829-2.221 64.921-1.553 24.093 0.669 48.147 2.45 64.654 5.144 87.367 14.253 164.55 47.534 233.64 100.74 26.976 20.772 72.301 66.037 91.575 91.479 32.121 42.377 57.132 88.301 74.981 136.68l41.219-13.993c-12.963-35.601-29.293-70.001-48.903-101.75-81.271-131.56-215.95-224.2-367.94-253.1-32.912-6.258-69.195-9.295-105.47-9.127zm7.354 92.988c-24.758-0.302-49.42 0.556-64.661 2.732-102.23 14.621-190.81 57.837-263.06 128.33-54.208 52.903-93.982 118.68-116.68 189.93l48.479 16.158c35.988-112.9 115.63-202.09 225.34-251.49 52.076-23.453 108.62-34.983 165.31-34.855 72.889 0.165 146.02 19.597 210.19 57.742 41.891 24.904 98.231 76.73 124.28 114.32 20.342 29.368 36.898 61.303 49.308 94.44l48.515-16.471c-57.365-154.75-192.64-268.69-361.74-296.43-15.662-2.581-40.536-4.087-65.3-4.403zm-20.052 84.474c-9.518 0.09-17.93 0.456-24.093 1.139-146.04 16.207-267.84 112.45-316.76 250.29-1.368 3.853-2.438 7.803-3.645 11.709 98.502 32.808 188.72 62.153 285.59 89.765a57.041 57.041 0 0 1 56.236-47.889 57.041 57.041 0 0 1 55.765 45.113l314.18-106.67c-8.171-21.296-18.058-42.435-28.751-60.224-55.741-92.742-147.05-156.67-253.99-177.84-17.488-3.461-55.978-5.664-84.531-5.394z" fill="#eee" stroke-width=".26458"/>
 </g>
</svg>
