<?xml version="1.0" encoding="UTF-8" standalone="no"?>
<svg
   width="1832.2mm"
   height="870.4mm"
   version="1.1"
   viewBox="0 0 1832.2 870.4"
   id="svg1"
   sodipodi:docname="logo.svg"
   inkscape:version="1.4 (e7c3feb1, 2024-10-09)"
   xmlns:inkscape="http://www.inkscape.org/namespaces/inkscape"
   xmlns:sodipodi="http://sodipodi.sourceforge.net/DTD/sodipodi-0.dtd"
   xmlns="http://www.w3.org/2000/svg"
   xmlns:svg="http://www.w3.org/2000/svg">
  <defs
     id="defs1" />
  <sodipodi:namedview
     id="namedview1"
     pagecolor="#ffffff"
     bordercolor="#666666"
     borderopacity="1.0"
     inkscape:showpageshadow="2"
     inkscape:pageopacity="0.0"
     inkscape:pagecheckerboard="0"
     inkscape:deskcolor="#d1d1d1"
     inkscape:document-units="mm"
     inkscape:zoom="0.25230948"
     inkscape:cx="3574.9746"
     inkscape:cy="1127.5835"
     inkscape:window-width="1680"
     inkscape:window-height="1022"
     inkscape:window-x="1920"
     inkscape:window-y="28"
     inkscape:window-maximized="0"
     inkscape:current-layer="g1" />
  <g
     transform="translate(239.45 1458.9)"
     id="g1"
     style="fill:#000000">
    <path
       id="path17"
       style="fill:#000000"
       d="M 700.46162 -1248.9402 C 699.5775 -1248.9632 698.64718 -1248.8957 697.66954 -1248.7382 C 691.05354 -1247.6712 688.71021 -1244.2287 685.04861 -1230.1987 C 681.43461 -1216.3537 671.3287 -1183.7409 664.3925 -1163.5439 C 661.0314 -1153.7549 656.0583 -1137.0721 653.3415 -1126.4681 C 650.6246 -1115.8641 646.42279 -1100.9606 644.00409 -1093.3482 C 638.29069 -1075.3662 635.30762 -1062.4878 632.20842 -1042.4308 C 628.44392 -1018.0688 628.04217 -1011.7981 630.00597 -1008.0267 C 633.19097 -1001.9096 641.81039 -1000.2206 646.05719 -1004.8807 C 647.03859 -1005.9572 648.79933 -1006.8392 649.97013 -1006.8392 C 653.62713 -1006.8392 669.08121 -1011.6687 681.96921 -1016.8381 C 694.51621 -1021.8719 722.36407 -1031.7483 722.75742 -1031.3049 C 723.00212 -1031.0279 726.55904 -1019.1516 729.04024 -1010.3269 C 730.35568 -1005.6483 731.39911 -1003.9541 734.06474 -1002.1708 L 734.06525 -1002.1708 C 735.9157 -1000.9321 738.30228 -999.9182 739.36881 -999.9182 C 743.12021 -999.9182 746.97737 -1003.188 749.15477 -1008.2148 C 751.27992 -1013.1208 751.28391 -1013.2619 749.61831 -1023.5969 C 748.69381 -1029.3339 744.62692 -1050.4889 740.58062 -1070.6079 C 731.56802 -1115.4209 731.9998 -1112.6401 727.6765 -1153.6571 C 724.5337 -1183.4731 723.5805 -1189.5621 719.2429 -1207.5401 C 716.5533 -1218.6871 713.64912 -1230.8597 712.78955 -1234.5907 C 710.58543 -1244.1589 706.65049 -1248.779 700.46162 -1248.9402 z M 698.61367 -1185.6681 C 698.69716 -1185.6801 698.77553 -1185.6554 698.8426 -1185.589 C 699.1109 -1185.322 700.21715 -1176.472 701.30085 -1165.921 C 702.38445 -1155.37 703.51859 -1145.2916 703.82111 -1143.5249 C 704.12327 -1141.7563 704.22226 -1140.3107 704.0397 -1140.3107 C 703.8574 -1140.3107 700.22902 -1144.0859 695.97662 -1148.6998 L 688.2448 -1157.089 L 692.80369 -1170.2039 C 695.31109 -1177.4167 697.58586 -1183.9381 697.85868 -1184.6961 C 698.06329 -1185.2646 698.36321 -1185.632 698.61367 -1185.6681 z M 682.43636 -1138.6498 C 683.19928 -1138.5777 686.78823 -1135.0303 690.76764 -1130.3831 C 695.01254 -1125.428 698.33359 -1121.2664 698.14807 -1121.1346 C 697.96207 -1121.0049 692.65819 -1117.3282 686.36119 -1112.965 C 671.42961 -1102.6192 672.36572 -1103.0595 673.49789 -1106.9251 C 674.01849 -1108.7021 676.05328 -1116.3856 678.01958 -1123.998 C 679.98578 -1131.6101 681.92182 -1138.1895 682.32216 -1138.6172 C 682.34718 -1138.644 682.3855 -1138.6546 682.43636 -1138.6498 z M 706.24473 -1107.8201 C 707.29709 -1107.7904 708.27958 -1106.0298 708.72365 -1102.9889 C 709.10065 -1100.4059 711.16745 -1090.1245 713.31665 -1080.1397 C 715.46565 -1070.1556 717.22442 -1061.5914 717.22442 -1061.1077 L 717.22391 -1061.1083 C 717.22391 -1060.6246 716.83877 -1060.2282 716.36814 -1060.2282 C 713.97314 -1060.2282 701.93036 -1067.4834 691.56036 -1075.1725 C 685.14186 -1079.932 679.02145 -1084.4503 677.96015 -1085.2132 C 676.16315 -1086.5045 677.0004 -1087.2607 690.1284 -1096.2033 C 697.8821 -1101.4845 704.4889 -1106.2291 704.81019 -1106.7453 C 705.27326 -1107.4894 705.76639 -1107.8337 706.24473 -1107.8201 z M 1346.6025 -1100.7673 C 1339.5976 -1100.7514 1332.8429 -1093.8982 1317.7702 -1074.4754 C 1312.2472 -1067.3554 1303.599 -1056.6889 1298.5533 -1050.7694 C 1282.9643 -1032.4814 1276.5928 -1022.8164 1262.7518 -996.45743 C 1254.1368 -980.05143 1242.4669 -960.01651 1233.1283 -945.59851 L 1227.7219 -937.25329 L 1225.798 -939.66709 C 1224.74 -940.99409 1217.8384 -954.12089 1210.461 -968.83689 C 1195.899 -997.88489 1188.167 -1010.4822 1173.117 -1029.6812 C 1162.771 -1042.8784 1159.506 -1045.3971 1152.7431 -1045.3971 C 1148.2202 -1045.3971 1142.1688 -1042.1674 1140.0658 -1038.6311 C 1135.6072 -1031.1321 1128.6931 -987.51528 1127.3477 -958.39928 C 1126.8178 -946.93128 1125.6106 -931.67201 1124.6647 -924.48921 C 1123.2341 -913.62921 1122.9251 -902.44514 1122.8291 -858.04314 C 1122.7306 -812.41514 1122.4009 -801.00392 1120.5621 -779.53992 C 1119.3788 -765.72592 1118.3984 -746.81889 1118.3834 -737.52129 C 1118.3685 -728.22329 1117.9311 -713.94351 1117.4114 -705.78731 C 1114.4964 -660.03271 1114.7615 -655.28578 1120.4975 -650.49198 C 1126.4415 -645.52518 1134.9333 -646.665 1139.6364 -653.0603 C 1142.219 -656.5703 1145.8007 -691.68192 1147.284 -728.03092 C 1147.8719 -742.43992 1149.4308 -765.57625 1150.7478 -779.44225 C 1155.5767 -830.56225 1163.1031 -879.25398 1163.7765 -931.20198 C 1165.6746 -946.42798 1167.3559 -959.29082 1167.5132 -959.78731 C 1167.9852 -961.27631 1175.7127 -951.53435 1183.1856 -940.02935 C 1192.4966 -925.69335 1204.3495 -901.92896 1206.4664 -893.35106 C 1208.7814 -883.96856 1212.6242 -880.14707 1220.3875 -879.50901 C 1239.6745 -879.22001 1244.9845 -893.92625 1254.4366 -906.99725 C 1258.3366 -912.15325 1264.9179 -921.54033 1269.0626 -927.85903 C 1278.8786 -942.82103 1285.4345 -951.91402 1307.0985 -980.61602 L 1324.9935 -1004.3241 L 1325.2276 -998.90586 C 1327.7375 -940.89586 1327.092 -887.73179 1323.4195 -826.40579 C 1322.3788 -809.02879 1322.0778 -787.42743 1321.5808 -778.45523 C 1319.5977 -742.65023 1320.5945 -705.05579 1324.3853 -672.66479 C 1325.4991 -663.14879 1326.8896 -647.35539 1327.4755 -637.56719 C 1328.7527 -616.23119 1329.2248 -608.64906 1337.4 -608.64906 L 1337.3985 -608.65164 C 1340.1348 -608.65164 1342.9952 -606.42697 1344.4058 -606.42697 C 1349.3129 -606.42697 1355.68 -610.54165 1358.1775 -615.32565 C 1360.4835 -619.74265 1360.4965 -619.96039 1359.9687 -645.97339 C 1359.6763 -660.38339 1358.778 -678.24254 1357.9724 -685.65934 C 1356.9053 -695.48334 1356.4588 -713.19917 1356.328 -750.91117 C 1356.1572 -800.06017 1356.2549 -803.22938 1358.2664 -813.55438 C 1362.2226 -833.86338 1362.4889 -837.26522 1363.3307 -878.31322 C 1363.7935 -900.87922 1364.7647 -926.46059 1365.4892 -935.16039 C 1366.3851 -945.91839 1366.7588 -966.79426 1366.6571 -1000.4133 C 1366.4211 -1078.4013 1364.4543 -1093.6954 1354.0083 -1098.7163 C 1351.3003 -1100.0181 1348.9375 -1100.7727 1346.6025 -1100.7673 z M 1423.3002 -1093.5027 L 1423.3002 -1093.5001 A 15 15 0 0 0 1415.9053 -1091.1286 A 15 15 0 0 0 1411.4172 -1070.3971 C 1423.1502 -1052.1801 1437.442 -1037.3587 1449.911 -1022.7897 L 1450.1786 -1022.4775 L 1450.4618 -1022.1825 C 1471.1308 -1000.5455 1481.4831 -967.86737 1504.7691 -938.21137 C 1511.8626 -926.13637 1521.3538 -917.77434 1528.8178 -910.34434 C 1536.3073 -902.88864 1541.3431 -896.69539 1543.4081 -890.15539 C 1544.5985 -879.16939 1541.3348 -868.69541 1535.2985 -856.74141 C 1529.0738 -844.41441 1520.0806 -831.32846 1513.2456 -816.30046 L 1513.0193 -815.8023 L 1512.8296 -815.29071 C 1489.3846 -751.82771 1453.6319 -692.07048 1424.6929 -627.65048 A 15 15 0 0 0 1432.2278 -607.82275 A 15 15 0 0 0 1452.0581 -615.35976 C 1479.9061 -677.35376 1515.905 -737.42971 1540.632 -804.03971 C 1545.9475 -815.67371 1554.6557 -828.52375 1562.0767 -843.21975 C 1569.5299 -857.97975 1575.7536 -875.42277 1573.1096 -895.16077 L 1572.9789 -896.13538 L 1572.721 -897.08675 C 1568.5437 -912.52675 1558.5954 -923.03564 1549.9834 -931.60764 C 1541.3716 -940.18054 1533.8233 -947.30974 1529.9583 -954.35974 L 1529.3547 -955.45889 L 1528.5795 -956.44178 C 1509.7766 -980.26178 1499.2688 -1014.2144 1472.6336 -1042.3781 C 1459.4625 -1057.7627 1446.2823 -1071.6684 1436.6379 -1086.6431 A 15 15 0 0 0 1423.3002 -1093.5027 z M 664.02974 -1074.6392 C 665.87315 -1074.6666 670.76317 -1071.5658 677.33022 -1066.1514 C 686.08722 -1058.9304 697.08555 -1051.2351 703.54205 -1047.8098 C 706.80665 -1046.0775 709.09258 -1044.4307 708.62185 -1044.1465 C 708.15105 -1043.8644 704.40616 -1042.6511 700.29936 -1041.4526 C 696.19236 -1040.2532 686.94489 -1036.9018 679.74919 -1034.0055 C 672.55319 -1031.1082 663.54496 -1027.8152 659.73026 -1026.6866 L 659.73077 -1026.6897 C 651.18112 -1024.16 651.36519 -1024.1552 652.0005 -1026.8618 C 652.2878 -1028.0838 653.6556 -1034.8691 655.0401 -1041.9379 C 657.9836 -1056.9679 662.16999 -1073.181 663.43029 -1074.4335 C 663.56529 -1074.5675 663.76639 -1074.6353 664.02974 -1074.6392 z M -22.541276 -1065.6641 C -26.817376 -1065.6641 -27.87367 -1065.2223 -30.97797 -1062.1392 C -34.31747 -1058.8232 -34.609204 -1058.0057 -35.917204 -1048.2972 C -36.681704 -1042.6222 -38.657017 -1029.7496 -40.307117 -1019.6896 C -45.958717 -985.2346 -46.527563 -965.56128 -42.931763 -928.89928 C -42.114163 -920.56428 -40.978809 -902.9914 -40.408919 -889.8474 C -39.838919 -876.7044 -38.691881 -857.72031 -37.859721 -847.66031 C -37.027521 -837.60131 -35.944413 -811.57453 -35.452633 -789.82353 C -34.960913 -768.07353 -34.305584 -748.49697 -33.995874 -746.32127 C -33.354574 -741.81527 -30.927867 -701.05259 -29.461267 -670.14659 C -28.577067 -651.51559 -28.154887 -648.25568 -25.423787 -639.00328 C -23.746187 -633.31988 -22.024798 -627.07802 -21.598698 -625.13332 C -20.551398 -620.35222 -19.957633 -619.56801 -15.699833 -617.33431 L -15.70035 -617.33586 C -7.2533499 -612.90586 0.21743561 -616.30231 3.8023356 -626.20251 C 5.5425256 -631.00751 5.5890836 -632.5445 4.4973836 -649.2905 C 0.58188363 -709.3435 -1.9035689 -756.88579 -2.4479289 -782.14079 L -3.0711466 -811.04084 L 1.9068441 -811.98238 C 12.169844 -813.92505 18.40816 -814.02475 39.73916 -812.58545 C 67.49116 -810.71162 114.5471 -810.65119 124.8611 -812.47589 C 128.9678 -813.2044 132.50471 -813.64103 132.72108 -813.44637 C 132.93743 -813.25437 132.60893 -800.74129 131.99089 -785.63929 C 129.46681 -723.97129 129.80721 -665.21165 132.85441 -636.57965 C 134.47501 -621.35295 134.4043 -621.56418 138.9698 -618.27948 C 143.5729 -614.96828 148.16798 -614.45979 152.65578 -616.76329 C 156.02928 -618.49629 161.12164 -626.14983 162.59884 -631.70553 C 163.31112 -634.38453 163.66014 -657.41355 163.63754 -700.60055 C 163.62034 -736.37055 164.12958 -776.25537 164.77287 -789.51037 C 165.5614 -805.75937 165.66351 -822.04675 165.0881 -839.75175 C 163.7308 -881.52275 164.03001 -904.65069 166.11801 -919.34069 C 167.48055 -928.92869 167.78787 -935.0819 167.3262 -943.5635 C 166.4442 -959.7695 159.97245 -1007.8378 155.12385 -1034.1978 C 154.50135 -1037.5818 150.02229 -1042.1876 146.10579 -1043.4716 C 138.83809 -1045.8536 130.72787 -1040.7278 129.23137 -1032.8066 C 128.82847 -1030.6746 129.93411 -1015.6794 131.90821 -996.50238 C 135.90431 -957.68338 136.26728 -938.26735 133.44248 -914.39835 C 131.8801 -901.19635 131.65479 -894.0616 132.08029 -871.2816 L 132.59034 -843.98456 L 123.00126 -843.34843 C 117.72726 -842.99839 89.44325 -842.44705 60.14825 -842.12163 C 23.31725 -841.71363 5.1411834 -841.14931 1.2329834 -840.29693 L -4.418868 -839.06187 L -4.9774902 -843.60887 C -6.2622902 -854.06487 -7.612572 -873.26188 -8.532312 -894.14688 C -9.071512 -906.39288 -10.495026 -925.07899 -11.695426 -935.67199 C -14.722296 -962.38299 -14.564256 -986.61193 -11.147656 -1019.5609 C -9.7171563 -1033.3559 -8.5483317 -1046.9255 -8.5483317 -1049.7157 C -8.5513317 -1059.4601 -13.994076 -1065.6641 -22.541276 -1065.6641 z M -105.30005 -1065.5292 A 15 15 0 0 0 -117.42076 -1056.693 C -142.66776 -999.74903 -175.36297 -944.46313 -197.86597 -883.07313 C -207.44107 -861.85513 -232.32083 -835.46408 -227.45383 -798.64108 L -227.32723 -797.67628 L -227.07504 -796.7368 C -223.20144 -782.2318 -213.97732 -772.37757 -206.12232 -764.45557 C -198.26732 -756.53357 -191.52489 -750.05278 -188.13789 -743.79378 L -187.54619 -742.69617 L -186.7788 -741.7138 C -169.88946 -720.03584 -160.35125 -688.76121 -135.92092 -662.57496 C -123.9331 -648.38825 -112.01444 -635.63666 -103.33789 -621.98726 A 15 15 0 0 0 -82.630632 -617.37566 A 15 15 0 0 0 -78.019543 -638.08292 C -88.756543 -654.97192 -101.78445 -668.65091 -113.08045 -682.02391 L -113.34607 -682.3381 L -113.62719 -682.63524 C -132.12919 -702.25824 -141.53634 -732.2612 -162.84434 -759.7742 C -169.39814 -771.0392 -178.09023 -778.79027 -184.81923 -785.57727 C -191.53853 -792.35437 -195.91103 -797.85334 -197.72903 -803.55034 C -199.74883 -823.57234 -182.75544 -843.45829 -170.43044 -870.91729 L -170.20927 -871.41338 L -170.02375 -871.92084 C -148.77475 -930.19984 -116.31817 -985.17102 -89.999174 -1044.531 A 15 15 0 0 0 -97.631783 -1064.3241 A 15 15 0 0 0 -105.3016 -1065.5271 L -105.30005 -1065.5292 z M 1007.4165 -1042.2272 C 1006.7735 -1042.2027 1006.1443 -1042.1348 1005.5371 -1042.0216 C 1000.8145 -1041.1426 994.74051 -1035.2587 992.69391 -1029.582 C 991.81191 -1027.135 986.83514 -1013.7679 981.63464 -999.87789 C 976.43404 -985.98889 969.66288 -966.18861 966.58698 -955.88161 C 963.51108 -945.57361 959.47944 -932.46894 957.62784 -926.75884 C 954.72384 -917.80284 948.11781 -895.35663 937.11281 -857.05663 C 927.24881 -822.72663 916.20191 -744.21682 915.95544 -706.69682 C 915.83264 -687.98122 916.33813 -685.9177 921.87343 -682.52 C 928.08843 -678.7054 937.39528 -681.04023 940.56428 -687.20653 C 941.34508 -688.72553 942.29739 -694.41758 942.68043 -699.85538 C 943.97243 -718.20138 949.91303 -761.2814 955.30653 -791.4224 L 958.42314 -808.84149 L 966.93269 -810.02333 C 976.29369 -811.32333 988.09662 -813.92847 1012.7227 -820.12917 C 1021.9642 -822.45623 1029.2839 -823.83653 1029.7165 -823.33414 C 1030.1344 -822.84814 1031.4844 -815.77606 1032.7163 -807.61986 C 1035.9973 -785.89486 1043.173 -747.51912 1047.1361 -730.50312 C 1049.0356 -722.34712 1051.5569 -710.55697 1052.7388 -704.30317 C 1055.3212 -690.64117 1062.2515 -669.12282 1065.1127 -665.88432 C 1066.2463 -664.60132 1068.0701 -663.18343 1069.1652 -662.73413 L 1069.1652 -662.73154 C 1072.5493 -661.34137 1078.6743 -661.70612 1081.6936 -663.47672 C 1085.4442 -665.67672 1088.803 -672.75184 1089.3412 -679.58374 C 1089.8412 -685.94074 1086.0314 -707.70062 1079.1279 -737.91662 C 1071.0439 -773.29762 1063.5272 -817.1434 1060.2273 -848.1564 C 1057.6493 -872.3894 1053.8132 -892.31882 1038.8182 -959.38682 C 1034.5018 -978.68982 1029.7796 -1001.6028 1028.3248 -1010.3026 C 1025.2806 -1028.5065 1023.7968 -1033.3318 1020.0008 -1037.3676 C 1017.0861 -1040.4654 1011.9175 -1042.3989 1007.4165 -1042.2272 z M 338.39742 -1016.5983 C 335.83527 -1016.4779 333.32469 -1015.6725 331.14049 -1014.0533 C 325.88399 -1010.1553 324.87863 -1007.5543 320.92613 -987.62334 C 316.98813 -967.76634 309.55021 -938.55144 305.93221 -928.73184 C 302.95921 -920.66384 297.74779 -911.87193 292.50719 -906.08413 C 282.22619 -894.72783 270.45064 -893.40667 262.24444 -902.68847 C 258.46344 -906.96547 251.91134 -919.8793 246.02114 -934.6643 C 243.53034 -940.9173 238.28532 -953.59789 234.36552 -962.84139 C 230.42142 -972.14239 226.3873 -983.48816 225.333 -988.24656 C 224.2851 -992.97456 222.89015 -998.01606 222.23293 -999.44846 C 220.84493 -1002.4726 214.78928 -1005.8486 210.75198 -1005.8486 C 203.75288 -1005.8486 197.53573 -999.18496 197.53573 -991.68356 C 197.53573 -985.76656 201.24991 -969.07574 204.91151 -958.53674 C 220.46851 -913.75774 231.21175 -887.24674 237.76945 -877.45074 C 242.97545 -869.67544 248.08754 -865.48007 256.22724 -862.30747 C 267.46724 -857.92497 285.98927 -860.49933 299.67627 -868.34483 C 308.96427 -873.66983 321.63023 -886.75847 326.39143 -895.94987 C 327.33293 -897.76867 328.24979 -899.10288 328.42852 -898.91609 C 328.60742 -898.73009 327.91909 -893.73339 326.89889 -887.81289 C 325.87869 -881.89189 324.54765 -870.54783 323.94093 -862.60203 C 323.33413 -854.65503 321.95437 -841.48133 320.87497 -833.32423 C 319.79557 -825.16823 318.48448 -812.48724 317.96145 -805.14714 C 315.43285 -769.65714 314.73429 -762.28116 312.85789 -751.26516 C 308.96989 -728.43716 302.70662 -711.77095 291.67262 -694.89495 C 283.09462 -681.77375 274.67246 -673.65387 269.64296 -673.65387 C 264.02296 -673.65387 256.78212 -684.55886 253.81292 -697.49686 C 252.98722 -701.09486 251.66789 -713.10836 250.88131 -724.19136 C 249.73821 -740.29836 248.95666 -745.83175 246.98646 -751.75815 C 240.70396 -770.65755 238.67089 -773.79369 231.88609 -775.05699 C 224.21939 -776.48599 218.94362 -772.55198 216.01212 -763.21998 C 214.25785 -757.63698 214.24979 -756.79409 215.82299 -743.94209 C 216.72789 -736.55109 217.92463 -722.6118 218.48277 -712.9662 C 219.70577 -691.8282 222.18416 -681.00391 228.89506 -667.48991 C 237.04706 -651.07191 245.33215 -642.71135 257.18015 -638.94695 L 257.18067 -638.94902 C 267.08867 -635.80202 279.42725 -637.06443 287.86045 -642.08733 C 298.02145 -648.14033 305.11654 -655.90385 318.61154 -675.73385 C 332.17254 -695.66085 338.50975 -711.23227 343.88855 -737.84427 C 347.47395 -755.58327 348.42503 -763.7283 350.36413 -793.2843 C 351.20253 -806.0623 352.76312 -824.08176 353.83162 -833.32526 C 354.90012 -842.56926 356.47189 -857.91853 357.32443 -867.43533 C 358.17693 -876.95133 359.53747 -888.51752 360.34801 -893.14022 C 363.96501 -913.76522 363.18393 -947.67532 358.29853 -982.12032 C 356.94893 -991.63632 355.6435 -1000.8868 355.39741 -1002.6762 C 354.23116 -1011.1572 346.08386 -1016.9597 338.39742 -1016.5983 z M 426.18689 -1008.713 C 422.45606 -1008.7657 418.68837 -1008.4911 414.86562 -1007.895 C 400.15862 -1005.6 391.56275 -999.63824 385.74285 -987.69724 C 379.68185 -975.26124 377.28923 -948.89392 377.25913 -894.13292 C 377.23103 -845.76292 379.46757 -679.91698 380.30235 -668.46298 C 380.99015 -659.02598 382.36811 -656.25485 388.09981 -652.78435 L 388.09878 -652.78745 C 392.03338 -650.4063 394.77619 -650.43474 399.65569 -652.90734 C 406.50709 -656.37834 406.80145 -657.68434 408.23605 -690.96134 C 408.93924 -707.27534 409.64394 -744.75752 409.80236 -774.25652 L 410.0902 -827.88942 L 412.51537 -827.88942 C 417.03537 -827.89242 427.97857 -831.04365 435.08867 -834.38825 C 449.24767 -841.05025 462.27736 -853.47302 478.04936 -875.34802 C 486.67686 -887.31302 493.3243 -900.45785 496.3733 -911.57785 C 499.4452 -922.78385 499.4369 -942.57286 496.3547 -954.93386 C 492.0787 -972.08386 488.45743 -977.64492 474.09043 -989.12092 C 457.82824 -1002.111 442.35381 -1008.4849 426.18689 -1008.713 z M 810.61097 -985.08861 C 806.50577 -985.08171 802.03956 -981.55195 800.92216 -977.42965 C 799.2345 -971.19965 797.63263 -824.22376 798.83443 -785.86976 C 800.37623 -736.66776 801.6216 -715.25908 803.2569 -709.86458 C 805.7109 -701.76728 810.94306 -694.97984 816.97596 -692.06774 C 822.69396 -689.30704 816.9189 -687.14527 839.1839 -685.62627 L 839.18339 -685.6335 C 855.89239 -684.49404 860.00351 -684.44965 879.09051 -685.19684 C 895.74261 -685.84964 895.94818 -685.88433 898.66348 -688.58113 C 902.71733 -692.60673 902.54035 -698.51234 898.24645 -702.49604 C 896.50775 -704.10844 893.74982 -706.11394 892.11762 -706.95158 C 888.37662 -708.87468 874.11251 -710.15851 856.07951 -710.20771 C 844.20101 -710.23721 842.0581 -712.10708 835.1826 -713.66538 C 832.0439 -714.37618 828.93425 -717.78673 827.71535 -721.85403 C 825.12625 -730.48403 823.74907 -771.674 822.83141 -867.934 C 821.91031 -964.56 821.63244 -974.01501 819.55254 -979.45381 C 818.39994 -982.46711 814.23127 -985.08861 810.61097 -985.08861 z M 562.67365 -973.98076 C 544.98466 -974.14389 534.76106 -972.61774 526.2397 -968.74491 C 511.8369 -962.19891 506.97525 -952.93432 507.01555 -932.10632 C 507.26411 -803.75632 507.13409 -782.2519 506.01819 -767.0859 C 505.33806 -757.8399 504.75742 -738.48819 504.72732 -724.07819 C 504.68062 -701.56719 504.93606 -696.85753 506.54116 -690.63423 C 509.80116 -677.99523 517.466 -669.88732 528.114 -667.81392 L 528.114 -667.82632 C 530.5535 -667.35147 532.8242 -666.91381 533.16021 -666.85481 C 538.27321 -665.94781 563.50983 -675.53895 576.75083 -683.42175 C 581.89693 -686.48525 587.6644 -689.91649 589.5671 -691.04609 C 593.9555 -693.65359 595.68831 -696.77161 595.73261 -702.14051 C 595.81061 -711.53361 590.84006 -715.44719 578.88506 -715.44719 C 572.40386 -715.44029 570.35535 -714.96673 563.90975 -711.98383 C 559.80335 -710.08333 553.75514 -706.9146 550.46974 -704.9424 C 543.32034 -700.64896 541.61355 -700.50928 539.29265 -704.02308 C 537.75096 -706.35708 537.52738 -709.20625 537.52738 -726.51525 C 537.52738 -744.96525 538.2582 -770.03011 539.6394 -798.98111 L 540.21714 -811.092 L 546.83689 -811.092 C 554.43389 -811.1048 563.03196 -813.26882 578.54296 -819.07032 C 581.47996 -820.16842 583.89411 -824.02942 584.49557 -828.59222 C 585.25757 -834.36862 581.84833 -838.60664 574.48533 -841.03694 C 568.89853 -842.87741 568.29997 -842.8934 561.29957 -841.3656 C 557.26557 -840.4847 550.88496 -839.48069 547.11956 -839.13266 L 540.27347 -838.50169 L 539.71174 -875.45861 C 539.27074 -904.48361 538.79307 -914.11517 537.48707 -920.32667 C 533.88427 -937.46267 534.3322 -939.06316 543.7177 -942.59456 C 548.5287 -944.40556 552.90667 -944.9234 570.38067 -945.75613 C 593.43577 -946.85523 596.40785 -947.582 599.73495 -952.9283 C 603.82155 -959.4943 601.1159 -968.96224 594.3513 -971.77004 C 592.0463 -972.72664 584.61245 -973.36777 570.72845 -973.8092 C 567.87995 -973.89952 565.20065 -973.95746 562.67365 -973.98076 z M 631.71543 -973.07332 C 628.09632 -972.95346 624.96232 -972.12755 622.8183 -970.54996 C 618.2546 -967.19196 613.82738 -960.55847 611.54198 -953.65487 C 609.40265 -947.19187 609.32802 -945.35589 608.60573 -881.77089 C 608.19813 -845.88289 607.40769 -811.40149 606.84925 -805.14869 C 604.60635 -780.03369 605.78366 -761.12704 611.59056 -729.02104 C 613.21326 -720.04904 615.07585 -709.39233 615.72933 -705.34083 C 616.66943 -699.51303 617.49916 -697.39606 619.70376 -695.20656 L 619.70273 -695.2045 C 623.67393 -691.2611 629.62907 -691.31329 633.67087 -695.32749 C 636.36001 -697.99849 636.57846 -698.76803 636.57146 -705.46123 C 636.56636 -709.44523 635.47087 -720.04625 634.13647 -729.01845 C 630.41277 -754.05545 629.25692 -770.18729 629.9574 -787.35029 C 630.8136 -808.32619 632.17013 -819.49112 632.65077 -818.29362 C 642.23567 -794.42062 647.60565 -776.58434 650.77835 -754.72334 C 652.07325 -746.29434 653.43283 -736.28399 653.79935 -732.47819 C 654.16605 -728.67119 655.32306 -721.86898 656.37026 -717.36128 C 657.41775 -712.85428 658.27505 -708.14932 658.27505 -706.90662 C 658.27505 -703.38302 662.69666 -699.89672 667.16546 -699.89672 C 669.25576 -699.89672 671.76566 -700.55335 672.7429 -701.35658 C 675.5368 -703.65358 678.14219 -710.30434 678.16479 -715.20534 C 678.25679 -733.99034 666.92335 -807.75645 653.13014 -838.57404 C 648.39678 -849.14958 643.58571 -843.14535 657.63271 -858.18835 C 675.13931 -876.93635 682.33062 -893.16566 682.36402 -913.99166 C 682.38102 -924.97366 679.90439 -936.05067 675.68019 -943.88337 C 672.06219 -950.58937 658.44085 -964.18193 651.51525 -967.99353 C 645.1265 -971.51072 637.74728 -973.2731 631.71543 -973.07332 z M 431.10752 -972.89659 C 431.8598 -972.89668 432.60914 -972.8436 433.34924 -972.73484 C 444.06724 -971.16184 458.48776 -960.61557 462.95726 -951.08397 C 464.97626 -946.77697 465.32789 -944.49868 465.33489 -935.61308 C 465.35189 -918.14108 461.73724 -908.91103 447.51324 -890.09803 C 437.35624 -876.66403 428.91988 -868.89473 418.83488 -863.68413 L 418.83488 -863.68465 C 414.40578 -861.39685 410.29056 -859.52522 409.68971 -859.52522 C 408.24711 -859.52522 408.22862 -898.89002 409.65922 -924.28302 C 410.96352 -947.43302 413.43489 -961.17733 417.16729 -966.03603 C 420.43891 -970.29596 425.84154 -972.89599 431.10752 -972.89659 z M 727.6672 -972.01189 C 720.67006 -971.83897 714.01271 -970.36682 709.99437 -967.72585 C 705.65147 -964.87185 700.80023 -957.8541 699.10563 -951.9759 C 697.10123 -945.0259 697.9976 -831.90474 700.3593 -793.77574 C 702.5956 -757.67374 703.38977 -750.25168 707.27257 -729.17968 C 709.28417 -718.26388 709.82129 -713.16943 709.1908 -710.98493 C 707.8842 -706.46133 710.48968 -701.76388 715.60178 -699.42698 L 715.60178 -699.42491 C 720.73078 -697.0791 728.43161 -696.96803 733.65081 -699.16343 C 752.91881 -707.26743 765.79669 -718.56672 773.30679 -733.95872 C 780.92529 -749.57272 783.91671 -766.69449 782.00341 -783.73449 C 780.67911 -795.52649 778.45096 -802.35534 771.30846 -816.51234 C 764.51246 -829.98034 758.75952 -838.62052 751.88742 -845.67852 L 746.59214 -851.11539 L 754.13328 -858.53096 C 760.26298 -864.55696 762.6231 -867.82721 766.7413 -875.99811 C 769.6776 -881.82411 772.5275 -889.26402 773.51969 -893.69212 C 777.03749 -909.39412 773.36725 -934.50699 765.33725 -949.68199 C 760.84625 -958.16799 751.28873 -967.3257 744.45273 -969.6911 C 740.35061 -971.11089 735.5124 -971.86837 730.67993 -972.00621 C 729.67317 -972.03492 728.66679 -972.03659 727.6672 -972.01189 z M 1003.3744 -963.75193 C 1004.3338 -964.04458 1005.82 -957.43561 1014.3773 -917.85499 C 1022.8013 -878.89199 1026.8584 -857.71185 1026.8474 -852.75095 C 1026.8419 -850.23214 1026.623 -850.12439 1021.1232 -850.04569 C 1013.6722 -849.93359 1001.226 -847.4184 981.72404 -842.0839 L 981.72456 -842.08855 C 963.70526 -837.15905 965.12764 -837.42734 965.12764 -838.95024 C 965.12764 -842.93024 1000.223 -958.21892 1002.9765 -963.28012 C 1003.1111 -963.52762 1003.2373 -963.71012 1003.3744 -963.75193 z M 727.18557 -950.24733 C 729.0536 -950.21797 731.47973 -949.05209 734.78304 -946.67597 C 742.84694 -940.87597 748.36983 -928.97171 749.62503 -914.68671 C 751.16703 -897.13371 742.43193 -878.13523 729.52393 -870.97103 L 729.52341 -870.97 C 727.00081 -869.57 724.43336 -868.42855 723.81782 -868.42855 C 723.00812 -868.43155 722.69902 -879.35518 722.69902 -907.93518 C 722.69902 -943.47048 722.8653 -947.60362 724.3568 -949.08822 C 725.14453 -949.87317 726.06476 -950.26494 727.18557 -950.24733 z M 639.35011 -944.39445 C 643.67288 -944.24322 652.58211 -934.88853 655.10367 -927.67299 C 659.44707 -915.24499 656.33192 -897.76059 647.62092 -885.67659 C 644.8948 -881.89582 640.64157 -876.5775 638.16878 -873.85922 L 633.67242 -868.91586 L 633.71427 -902.0358 C 633.76177 -939.6165 634.28471 -943.85006 638.94651 -944.37998 C 639.07604 -944.39464 639.21066 -944.39933 639.35011 -944.39445 z M 723.45608 -837.3798 C 725.30655 -837.30166 737.11291 -825.0327 741.06483 -818.98867 C 746.91753 -810.03667 753.74794 -795.64266 755.66084 -788.22776 C 756.86034 -783.57776 757.17006 -778.82246 756.87885 -769.54156 C 756.49705 -757.36856 756.39801 -756.90573 752.44811 -748.73973 C 750.12941 -743.94653 746.27208 -738.07141 743.39388 -734.95091 C 737.70206 -728.77908 730.40674 -724.11597 729.75337 -726.23361 C 728.31587 -730.89161 725.93798 -752.07886 725.11283 -767.57786 C 723.70661 -793.99086 722.59672 -836.91326 723.30881 -837.34879 C 723.34718 -837.37226 723.39639 -837.38232 723.45608 -837.3798 z " />
    <path
       id="path27"
       style="fill:#000000"
       d="M 668.97724 -1329.8831 C 667.28379 -1329.8941 665.23601 -1329.4658 662.73007 -1328.6201 C 656.29907 -1326.4491 645.63696 -1317.8649 640.96086 -1311.094 C 629.97416 -1295.186 629.99017 -1272.7604 641.00117 -1254.1084 C 645.68327 -1246.1776 650.03675 -1241.4286 654.99825 -1238.839 L 654.99825 -1238.8426 C 658.74515 -1236.8861 658.95171 -1236.8823 662.50011 -1238.7041 C 668.06311 -1241.5611 667.17212 -1247.237 659.59642 -1257.2012 C 657.38992 -1260.1021 654.3355 -1265.1325 652.8082 -1268.3778 C 650.34511 -1273.6108 650.03294 -1275.3952 650.04764 -1284.1639 C 650.06174 -1292.5805 650.40773 -1294.6973 652.37463 -1298.393 C 655.80863 -1304.847 663.28164 -1312.2751 669.09454 -1315.0132 C 675.5318 -1318.0437 677.35855 -1321.4804 674.97015 -1326.0668 C 673.63765 -1328.626 671.79965 -1329.8647 668.97724 -1329.8831 z M 727.86202 -1320.1457 C 725.3772 -1320.2324 724.54566 -1319.7023 722.78016 -1317.9489 C 717.73196 -1312.9358 720.20362 -1307.7093 728.93482 -1304.9378 C 741.70552 -1300.8828 749.08088 -1292.0078 749.08088 -1280.6938 C 749.08088 -1274.3908 746.5914 -1265.4073 742.0751 -1255.4116 C 738.1073 -1246.6295 738.39828 -1242.5252 743.10708 -1240.8539 L 743.1076 -1240.8528 C 751.2586 -1237.9598 759.36511 -1247.8359 764.01071 -1266.3169 C 769.67971 -1288.8719 762.66069 -1306.095 743.94269 -1315.5558 C 739.32489 -1317.8897 734.55971 -1319.4797 730.99361 -1319.8759 C 729.70213 -1320.0195 728.69029 -1320.1168 727.86202 -1320.1457 z "
       class="transmit one" />
    <path
       id="path25"
       style="fill:#000000"
       d="M 643.66974 -1382.3202 C 640.86029 -1382.5121 637.5135 -1381.6324 633.2373 -1379.7074 C 614.1733 -1371.1224 594.77044 -1355.7305 583.36644 -1340.1455 C 577.46844 -1332.0865 567.4361 -1311.6741 565.3014 -1303.3911 C 563.00777 -1294.4921 562.72815 -1269.9003 564.81305 -1260.4356 C 566.27505 -1253.7976 579.77406 -1216.4478 582.99386 -1210.1312 C 586.61986 -1203.0182 594.81772 -1191.9167 598.50712 -1189.1216 C 600.46652 -1187.638 604.3461 -1185.177 607.1283 -1183.6532 L 607.1283 -1183.6538 C 609.9105 -1182.1299 613.60829 -1180.8653 615.34589 -1180.8653 C 619.09199 -1180.8446 624.13144 -1184.6662 625.02643 -1188.2075 C 626.08313 -1192.3905 622.07314 -1200.8353 615.54794 -1208.1685 C 608.40094 -1216.2015 603.0739 -1226.6602 595.7259 -1247.0892 C 587.8557 -1268.9692 585.91074 -1284.4963 589.36504 -1297.8633 C 591.39204 -1305.7043 598.77317 -1320.7035 604.22667 -1328.0594 C 613.10867 -1340.0414 630.57007 -1354.79 643.57207 -1361.2925 C 651.37077 -1365.1924 652.52208 -1366.4106 653.20714 -1371.4826 C 653.64574 -1374.7299 653.27967 -1375.833 650.87757 -1378.5023 C 648.75157 -1380.8648 646.47919 -1382.1282 643.66974 -1382.3202 z M 784.02345 -1379.2408 C 783.43422 -1379.2609 782.87981 -1379.2246 782.36463 -1379.1286 C 777.43143 -1378.2094 773.96232 -1374.3312 774.00752 -1369.7871 C 774.05802 -1364.6908 775.95852 -1361.9405 781.49492 -1358.9547 C 791.35692 -1353.6367 803.21715 -1335.8546 809.55005 -1316.8926 C 819.05425 -1288.4346 819.15061 -1281.627 810.37791 -1258.459 C 801.84991 -1235.937 794.04784 -1224.8847 776.76084 -1210.8407 C 772.91364 -1207.7154 767.75451 -1202.7057 765.29591 -1199.7091 C 761.24318 -1194.7678 760.87582 -1193.8865 761.36385 -1190.2725 C 761.71855 -1187.6465 762.79096 -1185.5288 764.50836 -1184.061 L 764.50784 -1184.0625 C 767.53784 -1181.4748 774.18271 -1181.1157 780.11361 -1183.2186 C 788.78261 -1186.2926 805.39736 -1200.2955 814.27276 -1212.0065 C 832.09716 -1235.5245 843.70824 -1272.3188 840.78794 -1296.0278 C 839.06094 -1310.0558 828.03845 -1338.7798 819.66365 -1351.0818 C 809.5499 -1365.9365 792.86181 -1378.9389 784.02345 -1379.2408 z "
       class="transmit two" />
    <path
       id="path23"
       style="fill:#000000"
       d="M 822.6738 -1432.8194 C 817.18884 -1432.7474 813.02325 -1430.5134 810.08025 -1426.1387 C 804.85145 -1418.3657 809.91721 -1408.2816 819.98921 -1406.4117 C 828.22921 -1404.8847 842.71927 -1394.5793 857.61327 -1379.6583 C 865.04057 -1372.2173 866.91845 -1369.5623 872.77565 -1358.2173 C 880.40205 -1343.4453 881.98862 -1337.7394 883.44322 -1319.8594 C 886.54522 -1281.7194 883.12645 -1265.2577 864.32345 -1227.8087 C 859.95505 -1219.1087 854.02205 -1208.4308 851.13925 -1204.0804 C 846.12125 -1196.5094 832.79351 -1179.9555 824.77031 -1171.3294 C 820.20111 -1166.4172 819.30796 -1163.0203 821.03566 -1157.1303 C 821.96096 -1153.9764 823.332 -1152.0203 825.7811 -1150.3617 C 828.9144 -1148.2411 829.89907 -1148.0884 836.69207 -1148.6724 C 845.77307 -1149.4524 848.24337 -1150.9676 861.08437 -1163.6266 C 873.23038 -1175.6026 880.45694 -1186.6525 894.42394 -1214.6085 C 912.78464 -1251.3575 916.81641 -1265.9167 916.69597 -1295.0387 C 916.49297 -1344.0707 910.61324 -1364.0086 888.39124 -1391.0246 C 880.94124 -1400.0796 874.29319 -1406.0334 861.54119 -1415.0675 C 844.62182 -1427.0544 831.81539 -1432.9395 822.6738 -1432.8194 z M 584.63768 -1432.5729 C 582.16556 -1432.5414 579.31713 -1432.1997 576.05113 -1431.5627 C 566.89613 -1429.7767 557.5959 -1425.6336 546.9759 -1418.611 C 536.0919 -1411.412 515.02716 -1394.1189 507.33336 -1386.0641 C 476.87236 -1354.1741 471.74628 -1311.987 489.71428 -1241.074 C 494.84728 -1220.816 511.7603 -1187.6079 524.7633 -1172.2539 C 529.3823 -1166.7999 539.3885 -1159.7026 547.2689 -1156.2911 C 549.894 -1155.1556 553.25445 -1153.3711 554.73615 -1152.327 C 556.21785 -1151.2829 558.32603 -1150.1994 559.42113 -1149.9152 L 559.42113 -1149.9183 C 563.73913 -1148.8044 571.80853 -1152.3313 573.92413 -1156.257 C 577.11233 -1162.174 572.83037 -1174.9575 566.22537 -1179.2411 C 554.19437 -1187.0431 543.12144 -1201.5889 530.88644 -1225.6569 C 524.26534 -1238.6819 518.37666 -1259.3179 514.47246 -1283.1779 C 512.00236 -1298.2729 511.95404 -1326.1165 514.38254 -1335.0838 C 517.90554 -1348.0908 523.32835 -1357.0461 534.87535 -1368.9231 C 547.33235 -1381.7361 559.95762 -1392.534 570.39462 -1399.299 C 577.94962 -1404.197 581.2693 -1405.5949 588.0044 -1406.7156 C 595.6229 -1407.9846 600.25276 -1416.1591 597.85496 -1424.1068 C 596.08496 -1429.9732 592.05406 -1432.6675 584.63768 -1432.5729 z "
       class="transmit three" />
  </g>
</svg>
