<svg width="980.45mm" height="457.15mm" version="1.1" viewBox="0 0 980.45 457.15" xml:space="preserve" xmlns="http://www.w3.org/2000/svg"><g transform="translate(292.06 636.74)"><path transform="scale(1.0188 .98154)" d="m72.554-648.72v224.45h46.036l-0.87394-138.52-0.29166-48.096 4.0791 48.096 12.529 138.52h55.359l11.946-138.52 4.0791-48.096-0.29115 48.096-0.87395 138.52h48.075v-224.45h-77.212l-9.6149 139.16-2.9135 48.417-3.4968-48.417-9.6149-139.16zm189.1 0v190.78c0 11.329 2.5255 19.773 7.5759 25.33 5.0504 5.5577 12.723 8.3369 23.018 8.3369h50.989c10.295 0 17.967-2.7792 23.018-8.3369s7.5759-14.001 7.5759-25.33v-190.78h-47.784v184.05h-16.608v-184.05zm152.09 0c-10.295 0-17.967 2.7792-23.018 8.3369-5.0504 5.5577-7.5759 14.001-7.5759 25.33v64.127c0 10.047 2.2338 17.528 6.7014 22.445 4.4676 4.9164 11.266 7.375 20.396 7.375h37.295v61.562h-16.608v-43.607h-47.784v45.21c0 11.329 2.5255 19.773 7.5759 25.33 5.0504 5.5577 12.723 8.3369 23.018 8.3369h50.989c10.295 0 17.967-2.7792 23.018-8.3369 5.0504-5.5577 7.5759-14.001 7.5759-25.33v-67.334c0-10.047-2.2338-17.529-6.7014-22.445-4.4676-4.9164-11.266-7.3745-20.396-7.3745h-37.295v-58.356h16.608v40.4h47.784v-42.003c0-11.329-2.5255-19.773-7.5759-25.33-5.0504-5.5577-12.723-8.3369-23.018-8.3369zm90.906 0v224.45h47.784v-224.45zm87.701 0c-10.295 0-17.968 2.7792-23.018 8.3369-5.0504 5.5577-7.5754 14.001-7.5754 25.33v157.11c0 11.329 2.525 19.773 7.5754 25.33 5.0504 5.5577 12.723 8.3369 23.018 8.3369h52.737c10.295 0 17.968-2.7792 23.018-8.3369 5.0504-5.5577 7.5754-14.001 7.5754-25.33v-69.899h-47.784v63.166h-18.356v-143.65h18.356v63.166h47.784v-69.899c0-11.329-2.525-19.773-7.5754-25.33-5.0504-5.5577-12.723-8.3369-23.018-8.3369zm-765.75 1e-3v224.45h18.276v-101.32h26.613v62.845c0 7.4815 0.21362 14.108 0.64113 19.88 0.42752 5.5577 1.2825 11.757 2.565 18.597h18.597c-1.4963-6.8402-2.4586-13.039-2.8861-18.597-0.21375-5.7715-0.32057-12.398-0.32057-19.88v-52.264c0-5.9852-1.3895-10.474-4.1684-13.467-2.5651-3.2064-6.1986-4.8094-10.901-4.8094 4.7027 0 8.3362-1.4962 10.901-4.4888 2.7789-3.2064 4.1684-7.8024 4.1684-13.788v-76.953c0-6.8403-1.7099-11.864-5.13-15.07-3.4201-3.4201-8.5504-5.1301-15.391-5.1301zm77.273 0v224.45h18.276v-224.45zm26.934 0v17.314h22.765v207.13h18.597v-207.13h22.765v-17.314zm72.784 0v224.45h43.286v-17.315h-25.01v-86.572h24.048v-16.673h-24.048v-86.572h25.651v-17.314zm-290.27 0.37539 10.554 224.5h27.038l10.173-142.4 3.7479-48.427 3.4806 48.427 10.173 142.4h27.038l9.5683-224.5h-19.274l-3.1433 202.05-3.4806-48.106-11.244-153.94h-25.432l-11.244 153.94-3.4801 48.106c-3.6905-67.368-1.8699-127.82-4.1288-202.05zm131.55 16.939h26.613v90.42h-26.613zm-131.08 223.99v224.45h64.871l-4.6335-123.12-1.8539-48.096 6.7963 48.096 16.99 123.12h91.746v-224.45h-64.562l3.7068 116.07 1.8534 48.416-6.7958-48.416-15.754-116.07zm219.63 0c-12.562 0-21.933 3.2061-28.111 9.6189-5.9722 6.199-8.9581 15.818-8.9581 28.858v147.49c0 13.039 2.9859 22.766 8.9581 29.178 6.1781 6.199 15.549 9.2982 28.111 9.2982h71.358c12.562 0 21.829-3.0992 27.801-9.2982 6.1781-6.4128 9.2675-16.139 9.2675-29.178v-147.49c0-13.039-3.0893-22.659-9.2675-28.858-5.9722-6.4128-15.239-9.6189-27.801-9.6189zm114.91 0v50.981h37.069v173.47h64.871v-173.47h37.069v-50.981zm158.86 0v217.39h-21.261v-126.01h-8.177v120.24c0 4.2752 1.0899 7.4813 3.2706 9.6189 2.1806 2.1376 5.452 3.2063 9.8132 3.2063h11.448c4.3613 0 7.6326-1.0687 9.8132-3.2063 2.1806-2.1376 3.2706-5.3437 3.2706-9.6189v-211.62zm34.018 0-17.99 224.45h8.1775l4.2997-58.677h23.67l4.4128 58.677h8.5046l-18.645-224.45zm27.803 0 18.317 224.45h12.43l18.317-224.45h-8.1774l-12.757 169.62-3.5982 48.416-3.5977-48.416-12.43-169.62zm65.419 0-17.99 224.45h8.1774l4.2997-58.677h23.67l4.4134 58.677h8.5041l-18.645-224.45zm52.662 0c-4.3613 0-7.6321 1.0687-9.8128 3.2063-2.1806 2.1376-3.2711 5.3442-3.2711 9.6194v85.61c0 4.2752 1.0904 7.4818 3.2711 9.6194 2.1806 2.1376 5.4515 3.2063 9.8128 3.2063h21.261v106.13h-26.168v-68.296h-8.1774v62.524c0 4.2752 1.0904 7.4813 3.2711 9.6189 2.1806 2.1376 5.4515 3.2063 9.8128 3.2063h16.355c4.3613 0 7.6321-1.0687 9.8127-3.2063 2.1806-2.1376 3.2711-5.3437 3.2711-9.6189v-94.588c0-4.2752-1.0904-7.4818-3.2711-9.6194-2.1806-2.1376-5.4514-3.2063-9.8127-3.2063h-21.261v-97.153h26.168v65.089h8.1775v-59.318c0-4.2752-1.0904-7.4818-3.2711-9.6194-2.1806-2.1376-5.4514-3.2063-9.8127-3.2063zm58.877 0c-4.3613 0-7.6321 1.0687-9.8128 3.2063-2.1806 2.1376-3.2711 5.3442-3.2711 9.6194v198.8c0 4.2752 1.0904 7.4813 3.2711 9.6189 2.1806 2.1376 5.4515 3.2063 9.8128 3.2063h16.355c4.3613 0 7.6321-1.0687 9.8127-3.2063 2.1806-2.1376 3.2711-5.3437 3.2711-9.6189v-81.763h-8.1775v87.534h-26.168v-210.34h26.168v87.534h8.1775v-81.763c0-4.2752-1.0904-7.4818-3.2711-9.6194-2.1806-2.1376-5.4514-3.2063-9.8127-3.2063zm45.794 0v224.45h8.1775v-105.49h26.168v66.692c0 8.3366 0.21819 15.604 0.65432 21.803 0.65419 5.9852 1.5264 11.65 2.6168 16.994h8.1774c-1.0903-5.344-1.9626-11.009-2.6168-16.994-0.43612-6.199-0.65431-13.467-0.65431-21.803v-63.807c0-1.7101-0.43588-3.2063-1.3081-4.4888-0.6542-1.2826-2.3987-1.9238-5.2335-1.9238 2.8348 0 4.5793-0.64122 5.2335-1.9238 0.87225-1.2826 1.3081-2.7787 1.3081-4.4888v-96.191c0-4.2752-1.0899-7.4818-3.2706-9.6194-2.1806-2.1376-5.452-3.2063-9.8132-3.2063zm58.877 0v224.45h8.1775v-224.45zm24.533 0v224.45h8.177v-96.512h21.262c4.3613 0 7.6321-1.0692 9.8127-3.2068 2.1806-2.1376 3.2711-5.3437 3.2711-9.6189v-102.28c0-4.2752-1.0904-7.4818-3.2711-9.6194-2.1806-2.1376-5.4514-3.2063-9.8127-3.2063zm51.027 0v7.0544h20.607v217.39h8.1774v-217.39h20.607v-7.0544zm-378.78 6.4126 3.5982 48.417 7.8133 103.89h-22.623l7.6129-103.89zm93.222 0 3.5977 48.417 7.8133 103.89h-22.622l7.6129-103.89zm159.3 0.64178h26.168v104.85h-26.168zm83.41 0h26.168v113.83h-26.168zm-622.13 42.324h15.754v125.69h-15.754z" fill="#fff" stroke-width=".26458"/></g></svg>
