<svg width="800mm" height="450mm" version="1.1" viewBox="0 0 800 450" xml:space="preserve" xmlns="http://www.w3.org/2000/svg"><g transform="translate(210.84 61.573)"><path d="m544.92 367.15c-1.0884-0.46119-1.5497-1.481-0.94384-2.0869 0.24321-0.2432 1.6506-0.48405 3.1276-0.5352 4.6658-0.16162 8.0416-1.9232 8.0416-4.1963 0-1.5841-1.2102-2.6074-3.443-2.9113-2.8139-0.38288-3.236-0.55157-3.5055-1.4006-0.35113-1.1063-0.079-1.3784 2.9929-2.9927 3.4694-1.8231 4.5438-3.3497 4.242-6.0274-0.35848-3.1804-2.6215-4.0758-6.1988-2.4528-1.9058 0.86469-3.046 0.73811-3.4-0.37746-0.38749-1.2208 0.16559-1.911 2.2984-2.8681 1.4256-0.63973 2.807-0.92424 4.5123-0.92935 2.2699-8e-3 2.5658 0.0973 3.8723 1.3637 3.1273 3.0311 2.872 8.4177-0.5547 11.701l-1.17 1.121 1.2682 0.84674c1.7918 1.1963 2.7358 3.1994 2.5471 5.405-0.21817 2.5509-1.1878 3.7639-4.1901 5.2421-2.1559 1.0614-3.1606 1.3098-5.6105 1.3869-1.6414 0.0518-3.39-0.0779-3.8858-0.28803zm-164.36-2.3238c-0.76914-0.63082-0.89303-0.94949-0.57297-1.4738 0.30656-0.50226 1.0672-0.69186 3.052-0.76075 3.2528-0.11292 4.9305-0.77024 5.6838-2.227 0.99492-1.924 0.74687-3.0235-0.91141-4.0397-0.81833-0.50145-1.991-1.1303-2.606-1.3975-0.82762-0.35952-1.0854-0.7167-0.99189-1.3746 0.0946-0.66638 0.85522-1.2382 3.0386-2.2844 3.0426-1.458 3.992-2.5143 4.0168-4.4693 0.0225-1.7665-1.0142-3.7515-2.309-4.4211-1.0831-0.5601-1.4793-0.55941-4.22 8e-3 -3.6637 0.75766-4.263 0.59846-4.0956-1.0881 0.10497-1.0576 0.36463-1.3376 1.6522-1.7812 2.7935-0.96243 6.4489-1.1283 8.1327-0.36902 4.8766 2.199 5.3138 10.374 0.716 13.388l-1.3547 0.88805 1.2095 1.5051c0.91512 1.1388 1.2523 2.0204 1.3851 3.6222 0.21273 2.5652-0.48267 4.1142-2.558 5.698-1.2871 0.98222-1.8539 1.1273-4.8712 1.2469-2.9649 0.11757-3.5439 0.0294-4.396-0.66946zm-19.926-0.88633c-1.081-0.62965-0.83837-2.5665 0.63391-5.0593 0.73053-1.2369 3.4444-5.4626 6.0309-9.3906 2.5865-3.9279 5.9319-9.5519 7.4342-12.498 1.5023-2.9459 2.9167-5.5794 3.143-5.8522 0.22633-0.27277 0.92527-0.49593 1.5532-0.49593 0.93766 0 1.1417 0.16859 1.1417 0.94343 0 2.0278-4.2469 10.012-9.6674 18.175-2.0739 3.1232-4.6944 7.464-5.8232 9.6462-2.7626 5.3405-2.8695 5.4494-4.4464 4.5309zm165.23-1.2378c-0.856-0.856-0.51355-1.721 2.2795-5.7575 3.8932-5.6265 11.088-17.721 12.223-20.548 2.2171-5.5201 4.9944-10.9 5.7507-11.14 1.3591-0.43138 1.7492 0.45089 1.0279 2.3248-1.6144 4.194-5.397 12.28-7.0938 15.164-1.0271 1.7457-3.0683 5.4058-4.536 8.1335-1.4677 2.7277-3.2444 5.7629-3.9482 6.7449-0.70379 0.98198-1.7647 2.6335-2.3576 3.67-1.1126 1.9451-2.3065 2.4477-3.3457 1.4085zm-315.41-2.0811c-1.5187-0.68425-2.0122-1.6466-1.2384-2.4151 0.43248-0.42955 0.93217-0.46007 2.3356-0.14276 2.3725 0.53652 4.1512 0.15489 5.1406-1.103 1.3529-1.7199 1.0693-3.2063-0.9747-5.1098-2.5926-2.4143-2.3239-3.4728 1.0116-3.9858 4.0963-0.63 6.3242-2.8063 6.3269-6.1801 3e-3 -3.3631-2.8761-5.3864-6.8824-4.8373-2.0988 0.28768-3.0351-0.22903-3.0351-1.675 0-1.4333 1.2812-1.8663 4.9518-1.6737 3.8528 0.20223 5.5288 1.0483 6.8962 3.4813 2.4814 4.4151 1.0058 10.424-3.0905 12.584-0.96609 0.50954-1.8165 0.98641-1.8898 1.0597-0.0733 0.0733 0.13686 0.77984 0.46706 1.5701 0.81553 1.9518 0.75421 3.6786-0.19894 5.6022-1.2104 2.4428-2.4823 3.1733-5.7472 3.3006-1.8062 0.0705-3.2303-0.0958-4.0728-0.47543zm-14.905-6.8327c-0.93424-0.93423 0.46362-3.7257 5.7684-11.519 1.6636-2.4441 4.2007-6.9076 5.638-9.9189 4.5434-9.5188 4.7204-9.829 5.689-9.9665 2.2327-0.31704 1.4399 2.728-2.9324 11.263-1.669 3.2582-4.2435 7.8092-5.721 10.113-1.4775 2.304-3.3659 5.5624-4.1964 7.2408-1.3992 2.8278-1.6006 3.0516-2.7455 3.0516-0.67953 0-1.3546-0.11906-1.5-0.26449zm329.04-10.059c-0.5768-1.0778-0.2864-1.4317 1.9717-2.4031 2.3453-1.0089 3.556-2.2374 3.9569-4.0151 0.47286-2.0966-0.0829-3.0957-1.7221-3.0957-0.7579 0-1.4884 0.17854-1.6232 0.39675-0.34092 0.55163-2.3196 0.49742-2.8963-0.0793-0.74837-0.74837-0.55844-1.545 0.92269-3.8698 0.75817-1.1901 1.3785-2.4568 1.3785-2.815 0-1.2262-1.4356-2.0264-4.0374-2.2506-2.8126-0.24232-3.5009-0.60906-3.5009-1.8653 0-1.3393 0.77741-1.8164 2.9558-1.814 5.2748 6e-3 8.1534 2.3703 8.1534 6.6972 0 1.4171 0.14246 1.6367 1.4878 2.2941 2.3659 1.156 3.5029 4.7684 2.4782 7.8734-0.5666 1.7168-2.8104 4.3503-4.4124 5.1787-1.705 0.88165-4.5865 0.75074-5.1126-0.23226zm-169.49-0.29792c-0.37161-0.0779-0.78984-0.50134-0.92937-0.94098-0.19736-0.62184 0.36296-1.4353 2.5233-3.6633 3.0213-3.1158 3.8987-5.0822 3.5217-7.8925-0.58494-4.3611-3.9307-4.7406-6.0286-0.68373-0.50379 0.97422-0.85641 1.2094-1.6673 1.1122-1.7761-0.21304-2.048-1.2776-0.87146-3.4119 2.662-4.829 8.8211-5.9323 10.952-1.9618 0.51177 0.95348 0.69173 2.2503 0.70105 5.0519 0.012 3.6986-0.20351 4.5321-2.0705 7.996-0.0769 0.14262 0.5539 0.37646 1.4016 0.51968 2.1161 0.35751 4.0538 1.6004 4.0538 2.6001 0 1.0882-0.70938 1.2948-2.8211 0.82153-1.2487-0.27981-2.6901-0.25073-4.9274 0.0994-1.7393 0.27223-3.4664 0.43123-3.8381 0.35332zm-161.15-0.39748c-0.27276-0.44134-1.0596-10.727-1.1604-15.167l-0.0855-3.7692-1.2685 2.1822c-0.69765 1.2002-1.7897 2.8019-2.4268 3.5594-1.0666 1.2682-1.241 1.3396-2.2032 0.9012-0.57577-0.26233-1.0449-0.80274-1.0449-1.2037 0-0.40021 1.0848-2.3233 2.4107-4.2736 3.8913-5.7238 5.7133-7.2026 6.6705-5.414 0.70506 1.3174 1.2071 6.9784 1.3093 14.763 0.0559 4.2552-0.038 7.9599-0.20845 8.2327-0.34132 0.54613-1.693 0.67439-1.993 0.18911zm-159.33-26.226c-0.59831-1.1179-0.5263-4.5189 0.11427-5.3949 0.33664-0.46038 0.78808-0.63937 1.2071-0.47858 0.98215 0.37688 0.77194 6.3461-0.23023 6.5374-0.36715 0.07-0.85813-0.22868-1.0911-0.66393zm165.84 0c-0.5983-1.1179-0.52629-4.5189 0.11423-5.3949 0.33665-0.46038 0.78809-0.63937 1.2071-0.47858 0.98215 0.37688 0.77194 6.3461-0.23023 6.5374-0.36715 0.07-0.85813-0.22868-1.0911-0.66393zm166.64 0c-0.59831-1.1179-0.5263-4.5189 0.11426-5.3949 0.33663-0.46038 0.78808-0.63937 1.2071-0.47858 0.98216 0.37688 0.77194 6.3461-0.23022 6.5374-0.36716 0.07-0.85813-0.22868-1.0911-0.66393zm167.03 0c-0.5983-1.1179-0.52629-4.5189 0.11428-5.3949 0.33663-0.46038 0.78807-0.63937 1.2071-0.47858 0.98214 0.37688 0.77192 6.3461-0.23023 6.5374-0.36715 0.07-0.85813-0.22868-1.0911-0.66393zm-499.7-8.6127c-0.35782-0.93251-0.27992-4.6478 0.11037-5.2636 0.18647-0.29425 0.67472-0.47086 1.085-0.39246 0.64106 0.12251 0.76227 0.57439 0.86185 3.2131 0.11397 3.0207 0.10017 3.0706-0.85026 3.0706-0.53137 0-1.0745-0.28242-1.207-0.62758zm165.84 0c-0.35782-0.93251-0.27993-4.6478 0.11035-5.2636 0.18648-0.29425 0.67473-0.47086 1.085-0.39246 0.64105 0.12251 0.76227 0.57439 0.86185 3.2131 0.114 3.0207 0.10017 3.0706-0.85025 3.0706-0.53138 0-1.0745-0.28242-1.207-0.62758zm166.65-0.26512c-0.37473-1.3982-0.2909-3.8443 0.16065-4.688 0.94136-1.7589 2.3707-0.37795 2.3612 2.2814-9e-3 2.4262-0.37477 3.2993-1.3832 3.2993-0.59727 0-0.9797-0.29986-1.1386-0.8927zm167.03 0.26512c-0.35782-0.93251-0.27994-4.6478 0.11036-5.2636 0.18648-0.29425 0.67473-0.47086 1.085-0.39246 0.64104 0.12251 0.76226 0.57439 0.86185 3.2131 0.11397 3.0207 0.10017 3.0706-0.85027 3.0706-0.53136 0-1.0745-0.28242-1.207-0.62758zm-499.33-8.4478c-0.23294-0.43525-0.42352-1.683-0.42352-2.7729 0-2.1211 0.76227-3.3678 1.8127-2.9647 0.91881 0.35259 0.64553 6.2214-0.2981 6.4016-0.36715 0.07-0.85813-0.22868-1.0911-0.66394zm165.84 0c-0.23294-0.43525-0.42353-1.683-0.42353-2.7729 0-2.1211 0.76229-3.3678 1.8127-2.9647 0.91881 0.35259 0.64552 6.2214-0.2981 6.4016-0.36715 0.07-0.85813-0.22868-1.0911-0.66394zm166.63-0.024c-0.64413-1.2036-0.50784-4.6334 0.21275-5.354 0.34291-0.34292 0.68723-0.62347 0.76518-0.62347 0.078 0 0.42226 0.28055 0.76517 0.62347 0.40034 0.40035 0.62348 1.3326 0.62348 2.605 0 2.1926-0.52277 3.5164-1.3886 3.5164-0.31196 0-0.75204-0.34533-0.97793-0.76743zm167.05 0.024c-0.23294-0.43525-0.42352-1.683-0.42352-2.7729 0-2.1211 0.76228-3.3678 1.8127-2.9647 0.9188 0.35259 0.64551 6.2214-0.29809 6.4016-0.36716 0.07-0.85814-0.22868-1.0911-0.66394zm-499.7-8.6128c-0.30988-0.80756-0.30122-3.6692 0.015-4.8486 0.17375-0.64875 0.48842-0.87874 1.0857-0.79352 0.76224 0.10871 0.85184 0.40791 0.95687 3.1949 0.11397 3.0252 0.10032 3.0749-0.85026 3.0749-0.53137 0-1.0745-0.28241-1.207-0.62759zm165.84 0c-0.30989-0.80756-0.30122-3.6692 0.0147-4.8486 0.17376-0.64875 0.48842-0.87874 1.0857-0.79352 0.76224 0.10871 0.85183 0.40791 0.95685 3.1949 0.11401 3.0252 0.10028 3.0749-0.85025 3.0749-0.53137 0-1.0745-0.28241-1.207-0.62759zm166.65-0.26511c-0.36689-1.3937 0.18996-5.1018 0.80136-5.3364 1.0593-0.40648 1.7216 0.69871 1.7216 2.8728 0 2.6967-0.27216 3.3563-1.3848 3.3563-0.60248 0-0.98141-0.2972-1.1382-0.8927zm167.02 0.26511c-0.30989-0.80756-0.30122-3.6692 0.015-4.8486 0.17376-0.64875 0.48842-0.87874 1.0857-0.79352 0.76224 0.10871 0.85184 0.40791 0.95686 3.1949 0.11398 3.0252 0.10033 3.0749-0.85026 3.0749-0.53136 0-1.0745-0.28241-1.207-0.62759zm-499.33-8.4478c-0.45859-0.85691-0.57254-3.9611-0.18271-4.977 0.13241-0.34516 0.6756-0.62758 1.207-0.62758 0.95043 0 0.96426 0.0499 0.85026 3.0706-0.09462 2.5051-0.23882 3.094-0.78344 3.198-0.36715 0.07-0.85813-0.22869-1.0911-0.66394zm165.84 0c-0.4586-0.85691-0.57255-3.9611-0.1827-4.977 0.13246-0.34516 0.67559-0.62758 1.207-0.62758 0.95043 0 0.96426 0.0499 0.85026 3.0706-0.0945 2.5051-0.23882 3.094-0.78344 3.198-0.36715 0.07-0.85813-0.22869-1.0911-0.66394zm166.88 0.47898c-0.14546-0.14545-0.26451-1.5738-0.26451-3.174 0-2.8043 0.0343-2.9096 0.94944-2.9096 1.1421 0 1.4311 0.64106 1.4311 3.174 0 1.0554-0.10842 2.2013-0.24083 2.5465-0.24268 0.63238-1.3848 0.85352-1.8752 0.36307zm166.8-0.47898c-0.4586-0.85691-0.57256-3.9611-0.1827-4.977 0.13241-0.34516 0.67559-0.62758 1.207-0.62758 0.95043 0 0.96425 0.0499 0.85027 3.0706-0.0946 2.5051-0.23883 3.094-0.78344 3.198-0.36716 0.07-0.85814-0.22869-1.0911-0.66394zm-499.33-8.2287c-0.76905-0.76903-0.81549-4.477-0.06883-5.498 0.32924-0.45027 0.79078-0.63835 1.1903-0.48505 0.52444 0.20124 0.65252 0.82858 0.65252 3.1961 0 3.1443-0.55098 4.01-1.7739 2.787zm165.84 0c-0.76904-0.76903-0.81547-4.477-0.0688-5.498 0.32925-0.45027 0.79078-0.63835 1.1903-0.48505 0.52443 0.20124 0.65251 0.82858 0.65251 3.1961 0 3.1443-0.55096 4.01-1.7739 2.787zm166.92 0.37757c-0.77351-0.31212-0.67934-6.0399 0.10422-6.3406 0.33012-0.12671 0.86573-0.0105 1.1903 0.25941 0.83223 0.69068 0.80777 4.8793-0.0335 5.7205-0.3429 0.34289-0.65535 0.60937-0.69432 0.59214-0.039-0.0173-0.29402-0.12132-0.56679-0.23144zm166.75-0.37757c-0.76904-0.76903-0.81548-4.477-0.0688-5.498 0.32924-0.45027 0.79078-0.63835 1.1903-0.48505 0.52443 0.20124 0.6525 0.82858 0.6525 3.1961 0 3.1443-0.55097 4.01-1.7739 2.787zm-499.33-8.1307c-8.1487-0.5206-15.505-3.6104-24.727-10.386-5.8689-4.312-11.451-12.904-12.8-19.703-0.91929-4.6321-0.61284-13.868 0.57043-17.192 1.4148-3.9747 3.3411-7.1314 6.1793-10.126 3.8859-4.1002 7.1168-6.3868 13.717-9.7073 8.9944-4.5254 10.599-5.1582 13.589-5.3593 1.473-0.0991 2.6781-0.32574 2.6781-0.50374 0-0.17801 0.27296-0.59663 0.60662-0.93027 0.73682-0.73681 1.7739-0.42036 1.7739 0.54127 0 0.60428 0.55323 0.73919 4.0469 0.98688 4.4335 0.31431 8.2678 1.3269 11.03 2.9127 4.3578 2.5021 10.335 6.7702 12.796 9.138 3.3786 3.2496 4.8574 5.5538 6.2592 9.7524 2.8754 8.6129 3.3079 16.05 1.4439 24.83-1.3221 6.2272-3.0214 9.7352-6.5799 13.583-2.9967 3.2404-11.097 9.4366-14.316 10.951-2.1618 1.0169-2.4667 1.0579-10.117 1.3598-1.3093 0.0516-4.0767-0.015-6.1497-0.1468zm-0.7935-3.8927c0-1.7605 0.38697-2.413 1.4311-2.413 0.86454 0 0.94946 0.16408 0.94946 1.8345v1.8345l5.8522-0.19044c6.8299-0.22227 7.9433-0.58384 12.068-3.9188 1.4548-1.1763 3.734-3.0062 5.0649-4.0664 2.8691-2.2858 5.4313-5.2016 7.3047-8.3127 2.3654-3.9281 3.8496-14.14 3.0674-21.103-0.75941-6.76-2.7975-12.391-5.9103-16.329-2.181-2.7592-12.056-10.002-15.346-11.256-2.0212-0.77008-6.8885-1.5773-9.5108-1.5773-2.1641 0-2.5255 0.10601-2.7053 0.79351-0.11412 0.43643-0.48575 0.79353-0.82582 0.79353-0.34008 0-0.80943-0.3571-1.043-0.79353-0.50174-0.93749-2.0709-1.0496-2.7773-0.19837-0.27166 0.32732-1.0877 0.59513-1.8135 0.59513-3.157 0-11.838 3.6621-17.456 7.3638-1.2945 0.85296-3.8765 3.0712-5.7377 4.9295-2.6102 2.6061-3.7443 4.1044-4.9595 6.5527l-1.5754 3.1741-0.13376 6.4711c-0.16207 7.8423 0.39291 10.846 2.9328 15.871 3.8922 7.7013 8.422 11.889 17.935 16.58 4.304 2.1226 10.327 4.2209 12.892 4.4908 0.16366 0.0173 0.29757-0.48969 0.29757-1.1265zm0.42352-5.1403c-0.23294-0.43527-0.42352-1.6831-0.42352-2.7729 0-2.1211 0.76227-3.3678 1.8127-2.9647 0.91881 0.35258 0.64553 6.2214-0.2981 6.4016-0.36715 0.07-0.85813-0.22868-1.0911-0.66392zm-0.18271-8.6128c-0.30988-0.80755-0.30122-3.6692 0.015-4.8486 0.17375-0.64875 0.48842-0.87874 1.0857-0.79352 0.76224 0.10872 0.85184 0.40791 0.95687 3.1949 0.11397 3.0252 0.10032 3.0749-0.85026 3.0749-0.53137 0-1.0745-0.28242-1.207-0.62759zm0.18271-8.4478c-0.23294-0.43525-0.42352-1.683-0.42352-2.7729 0-2.1211 0.76227-3.3678 1.8127-2.9647 0.91881 0.35257 0.64553 6.2214-0.2981 6.4016-0.36715 0.07-0.85813-0.22868-1.0911-0.66394zm0.1831-8.2287c-0.76905-0.76904-0.81549-4.477-0.06883-5.498 0.32924-0.45026 0.79078-0.63835 1.1903-0.48503 0.52444 0.20124 0.65252 0.82858 0.65252 3.1961 0 3.1443-0.55098 4.01-1.7739 2.787zm-0.3658-8.7159c-0.13241-0.34519-0.24081-1.4911-0.24081-2.5465 0-2.533 0.28902-3.174 1.4311-3.174 0.9223 0 0.94946 0.0908 0.94946 3.174 0 3.0833-0.02714 3.1741-0.94946 3.1741-0.52219 0-1.0578-0.28241-1.1903-0.62757zm0.18271-8.4478c-0.23294-0.43524-0.42352-1.6831-0.42352-2.7729 0-2.1211 0.76227-3.3678 1.8127-2.9647 0.91881 0.3526 0.64553 6.2214-0.2981 6.4016-0.36715 0.07-0.85813-0.2287-1.0911-0.66394zm-0.18271-8.6128c-0.35782-0.93249-0.27992-4.6478 0.11037-5.2636 0.18647-0.29424 0.67472-0.47084 1.085-0.39244 0.64106 0.12251 0.76227 0.57437 0.86185 3.2131 0.11397 3.0206 0.10017 3.0706-0.85026 3.0706-0.53137 0-1.0745-0.28241-1.207-0.62759zm165.84 59.514c-0.13245-0.34517-0.24083-1.4911-0.24083-2.5465 0-2.533 0.28904-3.174 1.4311-3.174 0.92231 0 0.94944 0.0908 0.94944 3.174 0 3.0833-0.0271 3.1741-0.94944 3.1741-0.52219 0-1.0578-0.28241-1.1903-0.62759zm167.06 0.36308c-0.14546-0.14545-0.26517-0.815-0.26597-1.4878l-2e-3 -1.2233-3.8766-0.84403c-9.511-2.0708-19.892-8.276-25.713-15.369-3.6809-4.486-6.23-9.5248-7.1412-14.116-0.91929-4.6321-0.61284-13.868 0.57043-17.192 2.0445-5.7436 5.9062-10.759 11.535-14.983 2.3697-1.7779 10.11-5.9158 16.692-8.9237 2.5784-1.1782 2.5806-1.1785 10.117-1.1566 10.465 0.0302 11.922 0.48828 21.226 6.6703 4.6998 3.1227 8.9272 6.9913 10.759 9.8454 1.4249 2.2206 3.1448 7.1278 4.1678 11.892 1.6446 7.6585 0.31109 19.683-2.8887 26.049-1.9214 3.8226-5.5994 7.7381-11.138 11.857-7.8154 5.8123-8.393 6.0302-16.193 6.1085-5.7037 0.0573-5.7347 0.0625-5.7347 0.97057 0 0.50217-0.10841 1.1955-0.24083 1.5406-0.24267 0.63239-1.3848 0.85353-1.8752 0.36308zm15.606-6.741c0.98198-0.45003 2.9757-1.7806 4.4306-2.9569 1.4548-1.1763 3.734-3.0062 5.0649-4.0664 2.8691-2.2858 5.4313-5.2016 7.3047-8.3127 2.3654-3.9281 3.8496-14.14 3.0674-21.103-0.75942-6.76-2.7975-12.391-5.9102-16.329-2.181-2.7592-12.056-10.002-15.346-11.256-2.0286-0.77292-6.8924-1.5773-9.5373-1.5773h-2.5242l-0.11907 2.2814c-0.11142 2.1372-0.18168 2.2814-1.1109 2.2814-0.92922 0-0.9994-0.14411-1.1109-2.2814-0.10902-2.0898-0.19653-2.2814-1.0425-2.2814-0.50793 0-1.1458 0.26781-1.4174 0.59513-0.27166 0.32733-1.0877 0.59514-1.8135 0.59514-3.157 0-11.838 3.6621-17.456 7.3638-1.2945 0.85295-3.8764 3.0712-5.7377 4.9295-2.6102 2.6061-3.7443 4.1044-4.9595 6.5527l-1.5754 3.174-0.13376 6.4711c-0.16208 7.8423 0.39291 10.846 2.9328 15.871 3.8922 7.7013 8.4221 11.889 17.935 16.58 7.7134 3.8039 10.654 4.4467 19.934 4.3571 6.4796-0.0625 7.5493-0.16681 9.1254-0.88911zm-15.606-1.5909c-0.14546-0.14547-0.26451-1.5589-0.26451-3.141 0-3.0019 0.33361-3.5707 1.6862-2.875 0.54938 0.28254 0.69433 0.876 0.69433 2.8427 0 2.3938-0.42571 3.4378-1.4019 3.4378-0.24733 0-0.56869-0.11908-0.71416-0.26451zm-0.18252-11.511c0.10722-2.8592 0.18539-3.1127 0.99506-3.2278 1.0847-0.15423 1.4014 0.85573 1.2277 3.9153-0.11547 2.0359-0.18676 2.1683-1.2309 2.2882l-1.1083 0.12716zm0.18252-5.5496c-0.14546-0.14546-0.26451-1.5547-0.26451-3.1316 0-2.2818 0.13181-2.9177 0.64542-3.1148 1.1646-0.44688 1.7351 0.52522 1.7351 2.9562 0 1.2647-0.10842 2.5819-0.24083 2.9271-0.24268 0.6324-1.3848 0.85352-1.8752 0.36308zm0.23143-8.3301c-0.77351-0.31213-0.67934-6.0399 0.10422-6.3406 1.1776-0.45187 1.7804 0.6316 1.7804 3.2001 0 2.8441-0.51059 3.6949-1.8846 3.1404zm-0.2147-8.7137c-0.15468-0.15468-0.28124-1.6024-0.28124-3.2171v-2.9359l1.0911 0.12551c1.0821 0.12446 1.0911 0.14997 1.0911 3.1012 0 2.6933-0.0769 2.9867-0.80985 3.0916-0.44541 0.0637-0.93639-0.0105-1.0911-0.16533zm0.2147-8.3469c-0.33327-0.13451-0.49594-1.1514-0.49594-3.1003 0-2.3124 0.13075-2.9504 0.64542-3.1478 1.1884-0.45603 1.7351 0.5232 1.7351 3.1077 0 2.8441-0.51059 3.6949-1.8846 3.1404zm-0.31976-8.9758c-0.11937-0.31106-0.16321-1.7073-0.0975-3.1027 0.11367-2.4099 0.16936-2.5371 1.1115-2.5371 0.96985 0 0.9919 0.0661 0.9919 2.9757 0 2.7856-0.0571 2.9838-0.89449 3.1027-0.50515 0.0716-0.98894-0.11922-1.1115-0.43855zm166.7 59.396c-0.13241-0.34517-0.24147-1.0147-0.24228-1.4878-9.7e-4 -0.76598-0.4263-0.95275-3.878-1.7043-9.511-2.0708-19.892-8.276-25.713-15.369-3.6809-4.486-6.23-9.5248-7.1412-14.116-0.91929-4.6321-0.61284-13.868 0.57042-17.192 2.0445-5.7436 5.9062-10.759 11.535-14.983 2.3697-1.7779 10.11-5.9158 16.692-8.9237 2.5784-1.1782 2.5806-1.1785 10.117-1.1566 10.465 0.0302 11.922 0.48828 21.227 6.6703 4.6998 3.1227 8.9272 6.9913 10.759 9.8454 1.4249 2.2206 3.1448 7.1278 4.1678 11.892 1.6446 7.6585 0.31109 19.683-2.8887 26.049-1.9214 3.8226-5.5994 7.7381-11.138 11.857-7.8154 5.8123-8.393 6.0302-16.193 6.1085l-5.7347 0.0576v1.5406c0 1.3604-0.11097 1.5406-0.94945 1.5406-0.52219 0-1.0578-0.28242-1.1903-0.62759zm15.629-6.3765c0.98197-0.45081 2.9757-1.7821 4.4306-2.9583 1.4548-1.1763 3.734-3.0062 5.0649-4.0664 2.8691-2.2858 5.4313-5.2016 7.3047-8.3127 2.3654-3.9281 3.8496-14.14 3.0674-21.103-0.75943-6.76-2.7975-12.391-5.9103-16.329-2.181-2.7592-12.056-10.002-15.346-11.256-2.0341-0.77502-6.8952-1.5773-9.5571-1.5773h-2.544v2.1946c0 1.6705-0.15582 2.2544-0.6525 2.445-0.95702 0.36724-1.728-0.9401-1.728-2.9301 0-1.5356-0.096-1.7096-0.94332-1.7096-0.51881 0-1.1656 0.26781-1.4372 0.59513-0.27165 0.32733-1.0877 0.59514-1.8135 0.59514-3.157 0-11.838 3.6621-17.456 7.3638-1.2945 0.85295-3.8765 3.0712-5.7377 4.9295-2.6103 2.6061-3.7443 4.1044-4.9595 6.5527l-1.5754 3.174-0.13376 6.4711c-0.16207 7.8423 0.39292 10.846 2.9328 15.871 3.8922 7.7013 8.422 11.889 17.935 16.58 7.6823 3.7886 10.632 4.4328 19.934 4.3524 6.495-0.0561 7.5455-0.15774 9.1254-0.88304zm-15.447-2.0713c-0.23294-0.43527-0.42352-1.6831-0.42352-2.7729 0-2.1211 0.76228-3.3678 1.8127-2.9647 0.9188 0.35258 0.64551 6.2214-0.29809 6.4016-0.36716 0.07-0.85814-0.22868-1.0911-0.66392zm-0.1827-8.6128c-0.30989-0.80755-0.30122-3.6692 0.015-4.8486 0.17376-0.64875 0.48842-0.87874 1.0857-0.79352 0.76224 0.10872 0.85184 0.40791 0.95686 3.1949 0.11398 3.0252 0.10033 3.0749-0.85026 3.0749-0.53136 0-1.0745-0.28242-1.207-0.62759zm0.1827-8.4478c-0.23294-0.43525-0.42352-1.683-0.42352-2.7729 0-2.1211 0.76228-3.3678 1.8127-2.9647 0.9188 0.35257 0.64551 6.2214-0.29809 6.4016-0.36716 0.07-0.85814-0.22868-1.0911-0.66394zm0.18309-8.2287c-0.76904-0.76904-0.81548-4.477-0.0688-5.498 0.32924-0.45026 0.79078-0.63835 1.1903-0.48503 0.52443 0.20124 0.6525 0.82858 0.6525 3.1961 0 3.1443-0.55097 4.01-1.7739 2.787zm-0.36579-8.7159c-0.13241-0.34519-0.24082-1.4911-0.24082-2.5465 0-2.533 0.28903-3.174 1.4311-3.174 0.9223 0 0.94945 0.0908 0.94945 3.174 0 3.0833-0.0272 3.1741-0.94945 3.1741-0.52219 0-1.0578-0.28241-1.1903-0.62757zm0.1827-8.4478c-0.23294-0.43524-0.42352-1.6831-0.42352-2.7729 0-2.1211 0.76228-3.3678 1.8127-2.9647 0.9188 0.3526 0.64551 6.2214-0.29809 6.4016-0.36716 0.07-0.85814-0.2287-1.0911-0.66394zm-0.1827-8.6128c-0.35782-0.93249-0.27994-4.6478 0.11036-5.2636 0.18648-0.29424 0.67473-0.47084 1.085-0.39244 0.64104 0.12251 0.76226 0.57437 0.86185 3.2131 0.11397 3.0206 0.10017 3.0706-0.85027 3.0706-0.53136 0-1.0745-0.28241-1.207-0.62759zm-668.28 52.9c-0.21635-0.27277-0.49425-2.9955-0.61756-6.0505-0.12326-3.055-0.58117-8.322-1.0175-11.704-1.5113-11.717-2.8874-39.642-2.0058-40.704 0.57408-0.69173 1.7229-0.7235 2.2561-0.0624 0.24311 0.30144 0.48807 6.2533 0.6246 15.176 0.22751 14.869 0.35099 16.712 1.8956 28.297l0.86332 6.4749 1.1934-2.7057c1.8624-4.2224 2.2679-6.2453 2.4913-12.426 0.25286-6.9963 0.41768-8.1908 1.17-8.4795 1.3829-0.53067 2.2375 0.71419 3.9826 5.8013 0.50529 1.4729 1.8667 4.9104 3.0254 7.6389l2.1066 4.9609 0.27685-3.8697c0.40008-5.5924 1.8011-18.816 2.7011-25.493 0.42645-3.1641 0.89169-6.9135 1.0339-8.3319 0.32007-3.1928 0.73312-4.0539 1.8672-3.8925 1.2681 0.18054 1.2876 2.3647 0.10798 12.11-0.54914 4.5366-1.3621 11.292-1.8065 15.012-0.51353 4.2982-0.80887 9.2152-0.81029 13.49-3e-3 7.1599-0.36944 9.5146-1.5413 9.8865-1.242 0.39419-1.8551-0.14051-2.6161-2.2819-0.40434-1.1378-2.0064-5.0464-3.56-8.686l-2.8248-6.6173-0.4474 3.281c-0.26695 1.9577-1.114 5.0267-2.1002 7.6092-0.90902 2.3805-2.1965 5.8458-2.8611 7.7006-1.3004 3.6292-1.7208 4.3643-2.4962 4.3643-0.27388 0-0.67498-0.22318-0.89132-0.49595zm334.79-1.8346c-0.23294-0.43527-0.42353-1.6831-0.42353-2.7729 0-2.1211 0.76229-3.3678 1.8127-2.9647 0.91881 0.35258 0.64552 6.2214-0.2981 6.4016-0.36715 0.07-0.85813-0.22868-1.0911-0.66392zm-359.41-1.6564c-1.6791-0.67379-3.6813-2.4698-4.7096-4.2245-1.3228-2.2571-1.7502-6.3806-0.76361-7.3671 0.85312-0.8531 1.773-0.47412 2.0463 0.84309 0.9316 4.4892 1.9207 6.2477 4.1677 7.4097 1.8967 0.98081 3.5977 0.7226 6.1632-0.93552 5.0496-3.2637 7.147-7.0082 6.8159-12.168-0.43808-6.8262-5.6384-13.032-12.808-15.285-4.5797-1.4391-9.0633-5.0976-10.933-8.9206-1.4044-2.8721-1.3942-7.8804 0.0219-10.712 1.5623-3.1245 3.1374-3.8204 8.3338-3.6819 3.8252 0.10197 4.3183 0.20633 5.9973 1.2697 2.1142 1.339 2.8653 2.351 2.5296 3.4086-0.35656 1.1234-1.6642 1.3644-2.845 0.52432-2.8552-2.0313-3.0841-2.1117-6.0211-2.1138-2.7732-2e-3 -2.9806 0.0623-4.2296 1.3113-2.2311 2.2311-2.6675 5.9268-1.0986 9.3025 0.9657 2.0778 4.5018 5.0133 7.5185 6.2415 8.3557 3.402 10.862 5.1796 13.432 9.5269 4.8753 8.2462 3.6602 16.667-3.2347 22.417-3.7829 3.1546-7.5393 4.2959-10.383 3.1547zm75.029-0.0798c-0.32713-0.50543-1.0269-30.073-1.0352-43.742-0.0045-8.2754 0.26942-9.7206 1.8461-9.7206 1.2115 0 1.4131 0.28167 3.1232 4.3643 1.5032 3.5887 2.1115 5.4642 4.8253 14.878 0.9436 3.2732 2.8311 8.9866 4.1945 12.696 1.3634 3.7097 2.6685 7.4448 2.9001 8.3003 0.84702 3.128 1.0912-0.0667 0.6597-8.6311-0.23273-4.6189-0.57154-12.237-0.75293-16.928-0.18138-4.6916-0.45901-9.7846-0.61695-11.318-0.23868-2.317-0.17932-2.877 0.35163-3.3176 0.35133-0.29158 0.88682-0.43497 1.19-0.31863 1.6505 0.63336 2.7076 15.937 2.7894 40.385 0.04439 13.244-0.03344 13.848-1.7818 13.848-1.0364 0-1.6516-1.4434-3.1283-7.34-0.71046-2.8368-2.0882-7.3003-3.0617-9.9189-2.061-5.5438-3.4755-9.8888-5.8508-17.973-0.94266-3.2081-2.1748-6.9934-2.7381-8.4118l-1.0242-2.5789 0.19538 14.482c0.10752 7.9649 0.38467 17.996 0.61603 22.291 0.23137 4.295 0.30351 8.1782 0.16029 8.6295-0.29666 0.93471-2.3183 1.1639-2.8616 0.32444zm-12.855-1.5114c-0.47314-0.2935-0.54599-4.2921-0.47355-25.993 0.08978-26.903 0.09182-26.932 1.8229-26.672 1.5446 0.23204 1.652 1.0816 1.0516 8.322-0.37672 4.5432-0.5836 13.06-0.61028 25.124-0.0222 10.038-0.06903 18.455-0.10407 18.704-0.08998 0.64049-1.0244 0.92574-1.6867 0.51487zm52.107-1.5614c-3.3767-2.0588-4.9893-7.7425-6.4173-22.617-0.75248-7.838-1.1356-10.56-2.4288-17.259-0.25278-1.3093-0.37492-3.5881-0.27142-5.064 0.15837-2.2583 0.42076-3.0338 1.6562-4.8945 1.1691-1.7608 1.9176-2.4168 3.6759-3.2218 1.9133-0.87593 2.5676-0.98068 4.9029-0.78489 1.4822 0.12431 3.1994 0.49004 3.8158 0.8128 2.575 1.3483 5.224 5.3255 4.6827 7.0309-0.35445 1.1168-2.1591 1.4673-2.8301 0.5496-0.29337-0.40119-0.53341-1.0387-0.53341-1.4167 0-1.3862-1.9058-3.0462-4.0171-3.499-2.6267-0.56331-4.8348 0.0175-6.5366 1.7193-2.2267 2.2267-2.4816 4.6566-1.128 10.752 0.78616 3.5403 1.6756 10.398 2.1615 16.664 1.0238 13.204 3.0331 18.846 6.7119 18.846 2.4191 0 2.7366-1.2713 3.3931-13.589l0.26962-5.0587h-2.0067c-1.8123 0-2.0309-0.0966-2.2569-0.99704-0.45864-1.8274 0.31552-2.177 4.8206-2.177 4.5563 0 6.127 0.39186 6.127 1.5286 0 0.67313-1.1 1.997-1.4496 1.7446-0.07558-0.0546-0.6421-0.0991-1.2589-0.0991h-1.1215l-0.436 8.8692c-0.4617 9.392-0.81354 11.107-2.5251 12.305-1.3563 0.95003-5.3395 0.86787-6.9997-0.14441zm244.94-3.8038c-0.30989-0.80755-0.30122-3.6692 0.0147-4.8486 0.17376-0.64876 0.48842-0.87874 1.0857-0.79352 0.76224 0.10871 0.85183 0.4079 0.95685 3.1949 0.11401 3.0252 0.10028 3.0749-0.85025 3.0749-0.53137 0-1.0745-0.28241-1.207-0.62758zm0.1827-8.4478c-0.23294-0.43525-0.42353-1.6831-0.42353-2.7729 0-2.1211 0.76229-3.3678 1.8127-2.9647 0.91881 0.35257 0.64552 6.2214-0.2981 6.4016-0.36715 0.07-0.85813-0.22868-1.0911-0.66394zm0.18309-8.2287c-0.76904-0.76905-0.81547-4.477-0.0688-5.498 0.32925-0.45026 0.79078-0.63835 1.1903-0.48504 0.52443 0.20124 0.65251 0.82858 0.65251 3.1961 0 3.1443-0.55096 4.01-1.7739 2.787zm-0.36579-8.7159c-0.13245-0.34518-0.24083-1.4911-0.24083-2.5465 0-2.533 0.28904-3.174 1.4311-3.174 0.92231 0 0.94944 0.0907 0.94944 3.174 0 3.0833-0.0271 3.1741-0.94944 3.1741-0.52219 0-1.0578-0.28242-1.1903-0.62758zm0.1827-8.4478c-0.23294-0.43524-0.42353-1.683-0.42353-2.7729 0-2.1211 0.76229-3.3678 1.8127-2.9647 0.91881 0.35259 0.64552 6.2214-0.2981 6.4016-0.36715 0.07-0.85813-0.22869-1.0911-0.66394zm-0.1827-8.6128c-0.35782-0.93248-0.27993-4.6477 0.11035-5.2636 0.18648-0.29425 0.67473-0.47085 1.085-0.39245 0.64105 0.12251 0.76227 0.57438 0.86185 3.2131 0.114 3.0207 0.10017 3.0706-0.85025 3.0706-0.53138 0-1.0745-0.28241-1.207-0.6276zm0.1827-8.4478c-0.23294-0.43526-0.42353-1.683-0.42353-2.7729 0-2.1211 0.76229-3.3678 1.8127-2.9647 0.91881 0.35257 0.64552 6.2214-0.2981 6.4016-0.36715 0.07-0.85813-0.2287-1.0911-0.66395zm-166.03-8.6127c-0.43756-1.1403-0.25028-4.3657 0.29694-5.114 0.32924-0.45027 0.79078-0.63835 1.1903-0.48505 0.52558 0.20169 0.65252 0.83164 0.65252 3.2385 0 2.8872-0.03209 2.9881-0.94946 2.9881-0.52219 0-1.0578-0.28241-1.1903-0.62758zm165.84 0c-0.43755-1.1403-0.25028-4.3657 0.29693-5.114 0.32925-0.45027 0.79078-0.63835 1.1903-0.48505 0.5256 0.20169 0.65251 0.83164 0.65251 3.2385 0 2.8872-0.0321 2.9881-0.94944 2.9881-0.52219 0-1.0578-0.28241-1.1903-0.62758zm166.79-2.2983c0-3.1106 0.26602-3.6431 1.6073-3.2174 0.72755 0.23091 0.79532 0.5351 0.69077 3.1005-0.11306 2.7752-0.14246 2.8475-1.207 2.97l-1.0911 0.12551zm166.88 2.2983c-0.43756-1.1403-0.25028-4.3657 0.29695-5.114 0.32923-0.45027 0.79077-0.63835 1.1903-0.48505 0.52557 0.20169 0.6525 0.83164 0.6525 3.2385 0 2.8872-0.0321 2.9881-0.94945 2.9881-0.52219 0-1.0578-0.28241-1.1903-0.62758zm-499.33-8.4478c-0.45859-0.8569-0.57254-3.9611-0.18271-4.977 0.13241-0.34517 0.6756-0.62759 1.207-0.62759 0.95043 0 0.96426 0.0499 0.85026 3.0706-0.09462 2.5051-0.23882 3.094-0.78344 3.198-0.36715 0.07-0.85813-0.22868-1.0911-0.66394zm165.84 0c-0.4586-0.8569-0.57255-3.9611-0.1827-4.977 0.13246-0.34517 0.67559-0.62759 1.207-0.62759 0.95043 0 0.96426 0.0499 0.85026 3.0706-0.0945 2.5051-0.23882 3.094-0.78344 3.198-0.36715 0.07-0.85813-0.22868-1.0911-0.66394zm166.89 0.49574c-0.15468-0.1547-0.28124-1.6024-0.28124-3.2172v-2.9359l1.0911 0.12551c1.0821 0.12446 1.0911 0.14997 1.0911 3.1012 0 2.6933-0.0769 2.9867-0.80985 3.0916-0.44541 0.0637-0.93639-0.0105-1.0911-0.16531zm166.78-0.49574c-0.4586-0.8569-0.57256-3.9611-0.1827-4.977 0.13241-0.34517 0.67559-0.62759 1.207-0.62759 0.95043 0 0.96425 0.0499 0.85027 3.0706-0.0946 2.5051-0.23883 3.094-0.78344 3.198-0.36716 0.07-0.85814-0.22868-1.0911-0.66394zm-499.52-8.3319c-0.59831-1.1179-0.5263-4.5189 0.11427-5.3949 0.33664-0.46038 0.78808-0.63937 1.2071-0.47859 0.98215 0.37689 0.77194 6.3461-0.23023 6.5374-0.36715 0.07-0.85813-0.22868-1.0911-0.66395zm165.84 0c-0.5983-1.1179-0.52629-4.5189 0.11423-5.3949 0.33665-0.46038 0.78809-0.63937 1.2071-0.47859 0.98215 0.37689 0.77194 6.3461-0.23023 6.5374-0.36715 0.07-0.85813-0.22868-1.0911-0.66395zm167.11 0.48531c-0.7683-0.3171-0.67892-5.9348 0.0991-6.2334 1.4662-0.56263 1.8217 0.11876 1.702 3.2626-0.11637 3.0572-0.41171 3.5443-1.8012 2.9708zm166.57-0.48531c-0.5983-1.1179-0.52629-4.5189 0.11428-5.3949 0.33663-0.46038 0.78807-0.63937 1.2071-0.47859 0.98214 0.37689 0.77192 6.3461-0.23023 6.5374-0.36715 0.07-0.85813-0.22868-1.0911-0.66395zm-499.7-8.6127c-0.35782-0.9325-0.27992-4.6478 0.11037-5.2636 0.18647-0.29423 0.67472-0.47084 1.085-0.39244 0.64106 0.1225 0.76227 0.57438 0.86185 3.2131 0.11397 3.0207 0.10017 3.0706-0.85026 3.0706-0.53137 0-1.0745-0.28241-1.207-0.62758zm165.84 0c-0.35782-0.9325-0.27993-4.6478 0.11035-5.2636 0.18648-0.29423 0.67473-0.47084 1.085-0.39244 0.64105 0.1225 0.76227 0.57438 0.86185 3.2131 0.114 3.0207 0.10017 3.0706-0.85025 3.0706-0.53138 0-1.0745-0.28241-1.207-0.62758zm166.97 0.11771c-0.11937-0.31105-0.16321-1.7073-0.0975-3.1027 0.11367-2.4099 0.16936-2.5371 1.1115-2.5371 0.96985 0 0.9919 0.0661 0.9919 2.9757 0 2.7856-0.0571 2.9838-0.89449 3.1027-0.50515 0.0716-0.98894-0.11921-1.1115-0.43855zm166.7-0.11771c-0.35782-0.9325-0.27994-4.6478 0.11036-5.2636 0.18648-0.29423 0.67473-0.47084 1.085-0.39244 0.64104 0.1225 0.76226 0.57438 0.86185 3.2131 0.11397 3.0207 0.10017 3.0706-0.85027 3.0706-0.53136 0-1.0745-0.28241-1.207-0.62758zm-50.133-1.2222c-0.98801-0.39867-0.45683-1.6479 1.4257-3.3529 4.629-4.1926 9.1869-7.8998 13.485-10.968 5.8426-4.171 7.297-6.4404 3.5469-5.5348-2.1185 0.51163-105.02 0.64108-105.74 0.13301-0.59228-0.41338-0.65649-1.69-0.10227-2.0325 0.21655-0.13376 22.579-0.32098 49.694-0.41588 27.115-0.0949 50.806-0.3084 52.646-0.47442l3.3455-0.30186-2.1552-1.6066c-3.3176-2.473-6.206-4.1458-9.8516-5.7055-1.8326-0.78402-3.5278-1.7359-3.7672-2.1154-0.59829-0.94848 0.13302-2.0424 1.4726-2.2028 1.5073-0.18046 7.2054 2.6201 11.684 5.7425 6.7574 4.7113 8.0276 6.2111 8.0276 9.4785 0 2.235-0.6398 2.9296-6.7423 7.32-2.2748 1.6366-5.3039 4.0578-6.7312 5.3803-3.683 3.4127-8.3143 6.9246-9.083 6.8878-0.35958-0.0172-0.87695-0.12131-1.1497-0.23143zm-335.23-3.1364c-0.38032-0.99107 0.68602-2.5434 3.093-4.5026 3.6834-2.9982 10.315-7.8015 12.644-9.1576 1.2002-0.69892 2.4946-1.5484 2.8765-1.8877 0.99346-0.88271 0.8569-2.8478-0.31808-4.5769-1.3879-2.0425-10.316-8.7728-15.217-11.471-1.2721-0.70037-1.5835-1.7852-0.75148-2.6172 1.2583-1.2583 4.1164 0.0272 8.6493 3.8904 1.8548 1.5808 4.2651 3.4477 5.3562 4.1487 2.483 1.5952 4.6346 3.963 5.9375 6.5342 1.898 3.7455 1.3152 4.7744-4.7736 8.4285-2.3001 1.3804-6.3206 4.2059-8.9346 6.2789-7.5769 6.009-8.045 6.2787-8.5615 4.9327zm170.31-1.2024c-0.14516-0.37843 0.1748-1.1383 0.79369-1.8846 2.1252-2.5628 8.9469-8.6176 11.04-9.7986 2.5651-1.4476 4.5922-3.4099 4.5922-4.4452 0-0.43555-0.17902-0.63097-0.43376-0.47353-0.23856 0.1474-5.1931 0.31263-11.01 0.36709-5.817 0.0544-16.557 0.29134-23.868 0.52643-7.3102 0.23507-25.653 0.52057-40.763 0.63443l-27.471 0.20703-0.24678-0.98328c-0.14404-0.57387-0.0316-1.2426 0.27014-1.6061 0.45754-0.55132 1.773-0.5902 11.451-0.3385 7.2902 0.1896 12.521 0.13376 15.695-0.16747 5.1975-0.49325 27.674-1.092 56.503-1.5052l18.414-0.26391-2.1474-1.9245c-5.643-5.0574-8.6014-7.3989-11.21-8.8726-2.2599-1.2767-2.84-1.7946-2.84-2.5357 0-0.51223 0.31431-1.1293 0.69847-1.3713 1.4854-0.93578 7.8557 3.5203 15.456 10.812 4.9315 4.731 5.7035 5.9708 5.5128 8.8533-0.0713 1.0766-2.2932 3.0086-5.7446 4.995-1.966 1.1315-5.0506 3.5274-7.8963 6.1333-4.6824 4.2879-6.23 5.1173-6.796 3.6424zm-284.29-2.8867c-0.23294-0.43524-0.42352-1.683-0.42352-2.7729 0-2.1211 0.76227-3.3678 1.8127-2.9647 0.91881 0.35259 0.64553 6.2214-0.2981 6.4016-0.36715 0.07-0.85813-0.22868-1.0911-0.66395zm165.84 0c-0.23294-0.43524-0.42353-1.683-0.42353-2.7729 0-2.1211 0.76229-3.3678 1.8127-2.9647 0.91881 0.35259 0.64552 6.2214-0.2981 6.4016-0.36715 0.07-0.85813-0.22868-1.0911-0.66395zm167.11 0.48531c-0.328-0.13541-0.49594-1.1175-0.49594-2.9004 0-2.8441 0.51158-3.8218 1.7509-3.3463 0.55196 0.21181 0.64224 0.75325 0.54625 3.2758-0.11637 3.0572-0.41171 3.5443-1.8012 2.9708zm166.57-0.48531c-0.23294-0.43524-0.42352-1.683-0.42352-2.7729 0-2.1211 0.76228-3.3678 1.8127-2.9647 0.9188 0.35259 0.64551 6.2214-0.29809 6.4016-0.36716 0.07-0.85814-0.22868-1.0911-0.66395zm-499.7-8.6128c-0.30988-0.80755-0.30122-3.6692 0.015-4.8486 0.17375-0.64875 0.48842-0.87874 1.0857-0.79351 0.76224 0.10871 0.85184 0.4079 0.95687 3.1949 0.11397 3.0252 0.10032 3.0749-0.85026 3.0749-0.53137 0-1.0745-0.28241-1.207-0.6276zm165.84 0c-0.30989-0.80755-0.30122-3.6692 0.0147-4.8486 0.17376-0.64875 0.48842-0.87874 1.0857-0.79351 0.76224 0.10871 0.85183 0.4079 0.95685 3.1949 0.11401 3.0252 0.10028 3.0749-0.85025 3.0749-0.53137 0-1.0745-0.28241-1.207-0.6276zm166.96 0.0898c-0.11351-0.29576-0.15253-1.6794-0.0867-3.0749 0.11367-2.4099 0.16936-2.5371 1.1115-2.5371 0.96273 0 0.9953 0.0905 1.1078 3.0749 0.11561 3.0688 0.11381 3.0749-0.90515 3.0749-0.56157 0-1.1139-0.24199-1.2274-0.53774zm166.71-0.0898c-0.30989-0.80755-0.30122-3.6692 0.015-4.8486 0.17376-0.64875 0.48842-0.87874 1.0857-0.79351 0.76224 0.10871 0.85184 0.4079 0.95686 3.1949 0.11398 3.0252 0.10033 3.0749-0.85026 3.0749-0.53136 0-1.0745-0.28241-1.207-0.6276zm-417.03-3.4189c-1.5275-0.19296-13.692-0.40939-27.033-0.48096-13.341-0.0716-24.455-0.25322-24.698-0.40367-0.73874-0.45657-0.5064-2.1484 0.35862-2.6114 0.5599-0.29965 2.7408-0.32104 7.2408-0.071 3.5418 0.1968 14.004 0.27171 23.249 0.1665 12.384-0.14096 17.764-0.058 20.433 0.31467 2.4639 0.34405 8.4667 0.49467 18.761 0.47071 14.073-0.0327 15.384-0.0952 18.648-0.88904 1.9306-0.4696 5.0411-0.94975 6.9124-1.067 3.8615-0.24194 5.2543 0.19598 5.0529 1.5887-0.13732 0.94968-0.70564 1.1166-6.273 1.8428-1.8548 0.24194-4.533 0.70062-5.9514 1.0193-2.0495 0.4605-5.7961 0.56833-18.251 0.52527-8.6196-0.0299-16.922-0.21201-18.449-0.40498zm-82.3-5.0289c-0.45859-0.85692-0.57254-3.9611-0.18271-4.977 0.13241-0.34516 0.6756-0.62757 1.207-0.62757 0.95043 0 0.96426 0.0499 0.85026 3.0706-0.09462 2.5051-0.23882 3.094-0.78344 3.198-0.36715 0.07-0.85813-0.2287-1.0911-0.66394zm165.84 0c-0.4586-0.85692-0.57255-3.9611-0.1827-4.977 0.13246-0.34516 0.67559-0.62757 1.207-0.62757 0.95043 0 0.96426 0.0499 0.85026 3.0706-0.0945 2.5051-0.23882 3.094-0.78344 3.198-0.36715 0.07-0.85813-0.2287-1.0911-0.66394zm166.79 0.23351c-0.11937-0.31108-0.16321-1.7073-0.0975-3.1027 0.11367-2.4099 0.16936-2.5371 1.1115-2.5371 0.96985 0 0.9919 0.0661 0.9919 2.9757 0 2.7856-0.0571 2.9838-0.89449 3.1027-0.50515 0.0717-0.98894-0.1192-1.1115-0.43853zm166.89-0.23359c-0.4586-0.8569-0.57256-3.9611-0.1827-4.977 0.13241-0.34518 0.67559-0.62758 1.207-0.62758 0.95043 0 0.96425 0.0499 0.85027 3.0706-0.0946 2.5051-0.23883 3.094-0.78344 3.198-0.36716 0.07-0.85814-0.2287-1.0911-0.66394zm-499.33-8.2288c-0.76905-0.76903-0.81549-4.477-0.06883-5.498 0.32924-0.45028 0.79078-0.63834 1.1903-0.48505 0.52444 0.20124 0.65252 0.82858 0.65252 3.1961 0 3.1443-0.55098 4.01-1.7739 2.787zm165.84 0c-0.76904-0.76903-0.81547-4.477-0.0688-5.498 0.32925-0.45028 0.79078-0.63834 1.1903-0.48505 0.52443 0.20124 0.65251 0.82858 0.65251 3.1961 0 3.1443-0.55096 4.01-1.7739 2.787zm166.9 0.16424c-0.27602-0.27603-0.4761-1.5987-0.4761-3.1473 0-2.3188 0.10422-2.7043 0.78996-2.9219 1.3191-0.41868 1.5906 0.11967 1.5906 3.1539 0 2.2874-0.13421 2.9613-0.62759 3.1506-0.79904 0.30664-0.72047 0.3211-1.2768-0.23527zm166.77-0.16424c-0.76904-0.76903-0.81548-4.477-0.0688-5.498 0.32924-0.45028 0.79078-0.63834 1.1903-0.48505 0.52443 0.20124 0.6525 0.82858 0.6525 3.1961 0 3.1443-0.55097 4.01-1.7739 2.787zm-499.88-8.7159c-0.13241-0.34517-0.24081-1.4911-0.24081-2.5465 0-2.533 0.28902-3.1741 1.4311-3.1741 0.9223 0 0.94946 0.0907 0.94946 3.1741 0 3.0833-0.02714 3.1741-0.94946 3.1741-0.52219 0-1.0578-0.28242-1.1903-0.62759zm165.84 0c-0.13245-0.34517-0.24083-1.4911-0.24083-2.5465 0-2.533 0.28904-3.1741 1.4311-3.1741 0.92231 0 0.94944 0.0907 0.94944 3.1741 0 3.0833-0.0271 3.1741-0.94944 3.1741-0.52219 0-1.0578-0.28242-1.1903-0.62759zm166.97 0.11772c-0.11937-0.31107-0.16321-1.7073-0.0975-3.1027 0.11367-2.4099 0.16936-2.5371 1.1115-2.5371 0.96985 0 0.9919 0.0661 0.9919 2.9757 0 2.7856-0.0571 2.9838-0.89449 3.1027-0.50515 0.0716-0.98894-0.11922-1.1115-0.43854zm166.7-0.11772c-0.13241-0.34517-0.24082-1.4911-0.24082-2.5465 0-2.533 0.28903-3.1741 1.4311-3.1741 0.9223 0 0.94945 0.0907 0.94945 3.1741 0 3.0833-0.0272 3.1741-0.94945 3.1741-0.52219 0-1.0578-0.28242-1.1903-0.62759zm-499.33-8.4478c-0.23294-0.43526-0.42352-1.6831-0.42352-2.7729 0-2.1211 0.76227-3.3678 1.8127-2.9647 0.91881 0.35258 0.64553 6.2214-0.2981 6.4016-0.36715 0.07-0.85813-0.22869-1.0911-0.66393zm165.84 0c-0.23294-0.43526-0.42353-1.6831-0.42353-2.7729 0-2.1211 0.76229-3.3678 1.8127-2.9647 0.91881 0.35258 0.64552 6.2214-0.2981 6.4016-0.36715 0.07-0.85813-0.22869-1.0911-0.66393zm167.1 0.27896c-0.28049-0.2805-0.48768-1.529-0.48768-2.9387 0-2.595 0.54682-3.5637 1.7509-3.1016 0.55196 0.2118 0.64224 0.75326 0.54625 3.2758-0.0885 2.3269-0.25381 3.0485-0.71842 3.1371-0.33186 0.0633-0.82284-0.10436-1.0911-0.3726zm166.57-0.27896c-0.23294-0.43526-0.42352-1.6831-0.42352-2.7729 0-2.1211 0.76228-3.3678 1.8127-2.9647 0.9188 0.35258 0.64551 6.2214-0.29809 6.4016-0.36716 0.07-0.85814-0.22869-1.0911-0.66393zm-499.7-8.6128c-0.30988-0.80756-0.30122-3.6692 0.015-4.8487 0.17375-0.64875 0.48842-0.87874 1.0857-0.79352 0.76224 0.10872 0.85184 0.40791 0.95687 3.1949 0.11397 3.0252 0.10032 3.0749-0.85026 3.0749-0.53137 0-1.0745-0.28241-1.207-0.62757zm165.84 0c-0.30989-0.80756-0.30122-3.6692 0.0147-4.8487 0.17376-0.64875 0.48842-0.87874 1.0857-0.79352 0.76224 0.10872 0.85183 0.40791 0.95685 3.1949 0.11401 3.0252 0.10028 3.0749-0.85025 3.0749-0.53137 0-1.0745-0.28241-1.207-0.62757zm167.06 0.36307c-0.38409-0.38408-0.31304-4.996 0.0867-5.6267 0.18647-0.29424 0.67473-0.47086 1.085-0.39246 0.64106 0.12251 0.76226 0.57439 0.86186 3.2131 0.11321 3.0003 0.0943 3.0706-0.82658 3.0706-0.51835 0-1.0615-0.11906-1.207-0.2645zm166.61-0.36307c-0.30989-0.80756-0.30122-3.6692 0.015-4.8487 0.17376-0.64875 0.48842-0.87874 1.0857-0.79352 0.76224 0.10872 0.85184 0.40791 0.95686 3.1949 0.11398 3.0252 0.10033 3.0749-0.85026 3.0749-0.53136 0-1.0745-0.28241-1.207-0.62757zm-499.33-8.4478c-0.23294-0.43525-0.42352-1.6831-0.42352-2.7729 0-2.1211 0.76227-3.3678 1.8127-2.9647 0.91881 0.35259 0.64553 6.2214-0.2981 6.4016-0.36715 0.07003-0.85813-0.22868-1.0911-0.66394zm165.84 0c-0.23294-0.43525-0.42353-1.6831-0.42353-2.7729 0-2.1211 0.76229-3.3678 1.8127-2.9647 0.91881 0.35259 0.64552 6.2214-0.2981 6.4016-0.36715 0.07003-0.85813-0.22868-1.0911-0.66394zm166.86 0.13691c-0.13691-0.35672-0.24888-1.6833-0.24888-2.9481 0-2.4413 0.57077-3.403 1.7509-2.9501 0.55204 0.21183 0.64226 0.75354 0.54625 3.2801-0.10408 2.7393-0.19491 3.0377-0.95722 3.1465-0.49676 0.07092-0.94428-0.14591-1.0911-0.5284zm166.81-0.13691c-0.23294-0.43525-0.42352-1.6831-0.42352-2.7729 0-2.1211 0.76228-3.3678 1.8127-2.9647 0.9188 0.35259 0.64551 6.2214-0.29809 6.4016-0.36716 0.07003-0.85814-0.22868-1.0911-0.66394zm0.36999-7.2341c-8.1487-0.5206-15.505-3.6104-24.727-10.386-5.8689-4.312-11.451-12.904-12.8-19.703-0.91929-4.6321-0.61284-13.868 0.57042-17.192 1.4148-3.9747 3.3412-7.1314 6.1792-10.126 3.8859-4.1002 7.1168-6.3868 13.717-9.7073 8.9617-4.5089 10.605-5.1585 13.548-5.357 2.5525-0.17209 2.6446-0.21547 2.8722-1.3538 0.18855-0.94265 0.41318-1.1507 1.1322-1.0486 0.63137 0.08967 0.93275 0.43576 1.0177 1.1688 0.11892 1.0261 0.18045 1.0457 4.1461 1.3269 4.4135 0.31291 8.25 1.3275 11.008 2.9112 4.3578 2.5021 10.335 6.7702 12.796 9.138 3.3786 3.2495 4.8574 5.5538 6.2592 9.7524 2.8754 8.6129 3.3079 16.05 1.4439 24.83-1.3221 6.2272-3.0215 9.7352-6.5799 13.583-2.9967 3.2403-11.097 9.4366-14.316 10.951-2.1618 1.0169-2.4667 1.0579-10.117 1.3598-1.3093 0.05158-4.0767-0.015-6.1497-0.14681zm-0.79351-4.2461c0-1.8135 0.80492-3.0859 1.728-2.7317 0.48873 0.18755 0.6525 0.76374 0.6525 2.2957v2.0453l5.8522-0.19044c6.8299-0.22226 7.9433-0.58384 12.068-3.9188 1.4548-1.1763 3.734-3.0062 5.0649-4.0664 2.8691-2.2858 5.4313-5.2016 7.3047-8.3127 2.3654-3.9281 3.8496-14.14 3.0674-21.103-0.75943-6.76-2.7975-12.391-5.9103-16.329-2.181-2.7592-12.056-10.002-15.346-11.256-3.3429-1.2737-12.101-2.1281-12.101-1.1805 0 0.21822-0.44634 0.39675-0.9919 0.39675-0.54554 0-0.9919-0.17854-0.9919-0.39675 0-0.62282-2.2278-0.46369-2.7773 0.19838-0.27165 0.32732-1.0877 0.59513-1.8135 0.59513-3.157 0-11.838 3.6621-17.456 7.3638-1.2945 0.85296-3.8765 3.0712-5.7377 4.9295-2.6103 2.6061-3.7443 4.1044-4.9595 6.5527l-1.5754 3.1741-0.13376 6.4711c-0.16207 7.8423 0.39292 10.846 2.9328 15.871 3.8922 7.7013 8.422 11.889 17.935 16.58 4.304 2.1226 10.327 4.2209 12.892 4.4908 0.16366 0.01725 0.29757-0.64871 0.29757-1.4799zm0.24082-5.4645c-0.13241-0.34518-0.24082-1.4911-0.24082-2.5465 0-2.533 0.28903-3.174 1.4311-3.174 0.9223 0 0.94945 0.09072 0.94945 3.174 0 3.0833-0.0272 3.1741-0.94945 3.1741-0.52219 0-1.0578-0.28241-1.1903-0.62758zm0.40037-8.3101c-0.85793-0.85793-0.89516-5.0377-0.0511-5.7382 0.32455-0.26935 0.86772-0.38318 1.2071-0.25296 0.49887 0.19143 0.59478 0.82047 0.501 3.2858-0.12116 3.1842-0.5226 3.8397-1.657 2.7053zm-0.40037-8.7505c-0.35782-0.93248-0.27994-4.6477 0.11036-5.2636 0.18648-0.29424 0.67473-0.47084 1.085-0.39245 0.64104 0.12251 0.76226 0.57438 0.86185 3.2131 0.11397 3.0207 0.10017 3.0706-0.85027 3.0706-0.53136 0-1.0745-0.28241-1.207-0.62759zm0.1827-8.4478c-0.23294-0.43526-0.42352-1.6831-0.42352-2.7729 0-2.1211 0.76228-3.3678 1.8127-2.9647 0.9188 0.35258 0.64551 6.2214-0.29809 6.4016-0.36716 0.07003-0.85814-0.22868-1.0911-0.66393zm-0.1827-8.6128c-0.43756-1.1403-0.25028-4.3657 0.29695-5.114 0.32923-0.45027 0.79077-0.63835 1.1903-0.48505 0.52557 0.20169 0.6525 0.83164 0.6525 3.2385 0 2.8872-0.0321 2.9881-0.94945 2.9881-0.52219 0-1.0578-0.28241-1.1903-0.62758zm0.1827-8.4478c-0.4586-0.85689-0.57256-3.9611-0.1827-4.977 0.13241-0.34518 0.67559-0.62759 1.207-0.62759 0.95043 0 0.96425 0.04993 0.85027 3.0706-0.0946 2.5051-0.23883 3.094-0.78344 3.198-0.36716 0.07003-0.85814-0.22868-1.0911-0.66394zm0.21767-8.1942c-0.42718-0.42718-0.64119-1.3348-0.64119-2.7192 0-2.3388 0.71474-3.6873 1.7448-3.292 0.56244 0.21583 0.65077 0.74367 0.55332 3.3059-0.12116 3.1842-0.52259 3.8397-1.657 2.7053zm-499.55 59.479c-0.70419-0.70419-0.83071-4.151-0.1959-5.3371 0.37236-0.69575 0.27043-0.7677-1.0911-0.77022-2.522-0.0045-7.8613-1.4841-12.332-3.4171-10.083-4.3595-17.987-11.436-22.087-19.777-2.4964-5.0779-3.1487-8.7129-2.8819-16.059 0.22861-6.2935 0.69603-8.1976 3.1484-12.825 1.5391-2.9044 5.7441-7.472 9.4125-10.224 1.434-1.0759 5.1962-3.2587 8.3603-4.8507 9.4072-4.7331 10.542-5.1683 13.986-5.3614l3.0749-0.17246v-1.3183c0-1.4775 0.91108-2.6475 1.7969-2.3076 0.3881 0.14891 0.58366 0.79382 0.58366 1.9248v1.7008l3.67 0.28739c4.1209 0.3227 7.9559 1.3685 10.613 2.8943 7.5255 4.3209 14.256 9.8143 16.71 13.639 1.4249 2.2206 3.1448 7.1278 4.1678 11.892 1.6446 7.6585 0.31108 19.683-2.8887 26.049-1.9214 3.8226-5.5994 7.7381-11.138 11.857-7.7552 5.7676-8.4166 6.0218-15.887 6.107l-5.4457 0.06208 0.12776 3.0728c0.10332 2.4843 0.0105 3.1178-0.48446 3.3077-0.33671 0.12926-0.88517-0.03808-1.2188-0.37169zm-0.60662-11.032c0-2.769 0.26725-3.4049 1.4311-3.4049 0.91263 0 0.94946 0.10962 0.94946 2.8282v2.8282l5.4554-0.19551c6.3905-0.22903 7.6201-0.64172 11.671-3.9173 1.4548-1.1763 3.734-3.0062 5.0649-4.0664 2.8691-2.2858 5.4313-5.2016 7.3047-8.3127 2.3654-3.9281 3.8496-14.14 3.0674-21.103-0.75941-6.76-2.7975-12.391-5.9103-16.329-2.181-2.7592-12.056-10.002-15.346-11.256-4.0563-1.5455-15.826-2.231-16.862-0.98213-0.27166 0.32732-1.0877 0.59513-1.8135 0.59513-3.157 0-11.838 3.6621-17.456 7.3638-1.2945 0.85296-3.8765 3.0712-5.7377 4.9295-2.6103 2.6061-3.7443 4.1044-4.9595 6.5527l-1.5754 3.1741-0.13376 6.4711c-0.16206 7.8423 0.39293 10.846 2.9328 15.871 2.5841 5.113 5.3456 8.5219 9.2798 11.455 4.4488 3.317 12.838 7.4454 17.582 8.652 5.2587 1.3376 5.0556 1.384 5.0556-1.1544zm0.64118-5.9944c-0.85793-0.85793-0.89514-5.0377-0.05114-5.7382 0.32455-0.26935 0.86773-0.38318 1.2071-0.25296 0.49887 0.19143 0.59478 0.82047 0.501 3.2858-0.12116 3.1842-0.52259 3.8397-1.657 2.7053zm-0.40037-8.7505c-0.35782-0.93248-0.27992-4.6477 0.11037-5.2636 0.18647-0.29424 0.67472-0.47084 1.085-0.39245 0.64106 0.12251 0.76227 0.57438 0.86185 3.2131 0.11397 3.0207 0.10017 3.0706-0.85026 3.0706-0.53137 0-1.0745-0.28241-1.207-0.62759zm0.18271-8.4478c-0.23294-0.43526-0.42352-1.6831-0.42352-2.7729 0-2.1211 0.76227-3.3678 1.8127-2.9647 0.91881 0.35258 0.64553 6.2214-0.2981 6.4016-0.36715 0.07003-0.85813-0.22868-1.0911-0.66393zm-0.18271-8.6128c-0.43756-1.1403-0.25028-4.3657 0.29694-5.114 0.32924-0.45027 0.79078-0.63835 1.1903-0.48505 0.52558 0.20169 0.65252 0.83164 0.65252 3.2385 0 2.8872-0.03209 2.9881-0.94946 2.9881-0.52219 0-1.0578-0.28241-1.1903-0.62758zm0.18271-8.4478c-0.45859-0.85689-0.57254-3.9611-0.18271-4.977 0.13241-0.34518 0.6756-0.62759 1.207-0.62759 0.95043 0 0.96426 0.04993 0.85026 3.0706-0.09462 2.5051-0.23882 3.094-0.78344 3.198-0.36715 0.07003-0.85813-0.22868-1.0911-0.66394zm0.21766-8.1942c-0.42718-0.42718-0.64118-1.3348-0.64118-2.7192 0-2.3388 0.71475-3.6873 1.7448-3.292 0.56244 0.21583 0.65079 0.74367 0.55332 3.3059-0.12116 3.1842-0.52259 3.8397-1.657 2.7053zm-0.40037-8.7505c-0.35782-0.9325-0.27992-4.6478 0.11037-5.2636 0.18647-0.29424 0.67472-0.47084 1.085-0.39245 0.64106 0.12251 0.76227 0.57439 0.86185 3.2131 0.11397 3.0207 0.10017 3.0706-0.85026 3.0706-0.53137 0-1.0745-0.28241-1.207-0.62758zm166.21 68.229c-0.76904-0.76905-0.81547-4.477-0.0688-5.498 0.32925-0.45026 0.79078-0.63835 1.1903-0.48505 0.52443 0.20126 0.65251 0.82858 0.65251 3.1961 0 3.1443-0.55096 4.01-1.7739 2.787zm166.9 0.16422c-0.26755-0.26753-0.4761-1.5498-0.4761-2.9271 0-2.5685 0.60277-3.652 1.7804-3.2001 0.89035 0.34166 0.8659 6.0197-0.0274 6.3625-0.79903 0.30663-0.72046 0.32112-1.2768-0.23528zm-83.002-5.5177c-8.1487-0.5206-15.505-3.6104-24.727-10.386-5.8689-4.312-11.451-12.904-12.8-19.703-0.91928-4.6321-0.61284-13.868 0.57043-17.192 2.0445-5.7436 5.9062-10.759 11.535-14.983 2.3697-1.7779 10.11-5.9158 16.692-8.9237 2.5784-1.1782 2.5806-1.1785 10.117-1.1566 10.465 0.030289 11.922 0.48829 21.227 6.6703 4.6998 3.1227 8.9272 6.9913 10.759 9.8454 1.4249 2.2206 3.1448 7.1277 4.1678 11.892 1.0851 5.0532 0.94114 11.975-0.37836 18.19-1.3221 6.2272-3.0214 9.7352-6.5799 13.583-2.9967 3.2404-11.097 9.4366-14.316 10.951-2.1618 1.0169-2.4666 1.0579-10.117 1.3598-1.3093 0.05174-4.0767-0.015-6.1497-0.14681zm15.077-3.8019c0.98199-0.44294 2.9757-1.7678 4.4306-2.944 1.4548-1.1763 3.734-3.0062 5.0648-4.0664 2.8691-2.2858 5.4313-5.2016 7.3047-8.3127 2.3654-3.9281 3.8496-14.14 3.0674-21.103-0.75942-6.76-2.7975-12.391-5.9103-16.329-2.181-2.7592-12.056-10.002-15.346-11.256-4.0563-1.5455-15.826-2.231-16.862-0.98213-0.27166 0.32732-1.0877 0.59513-1.8135 0.59513-3.157 0-11.838 3.6621-17.456 7.3638-1.2945 0.85295-3.8764 3.0712-5.7377 4.9295-2.6102 2.6061-3.7443 4.1044-4.9595 6.5527l-1.5754 3.1741-0.13374 6.4711c-0.16206 7.8423 0.39292 10.846 2.9328 15.871 2.5841 5.113 5.3456 8.5219 9.2798 11.455 4.3976 3.2788 12.824 7.4355 17.582 8.673 3.3462 0.87034 4.3089 0.9432 11.007 0.83318 6.3607-0.10452 7.5782-0.22801 9.1254-0.92592zm-99.345 0.43947c-0.13245-0.34518-0.24083-1.4911-0.24083-2.5465 0-2.533 0.28904-3.174 1.4311-3.174 0.92231 0 0.94944 0.09072 0.94944 3.174 0 3.0833-0.0271 3.1741-0.94944 3.1741-0.52219 0-1.0578-0.28241-1.1903-0.62758zm167.03 0c-0.13242-0.34518-0.24083-1.4911-0.24083-2.5465 0-2.533 0.28904-3.174 1.4311-3.174 0.9223 0 0.94944 0.09072 0.94944 3.174 0 3.0833-0.0272 3.1741-0.94944 3.1741-0.52221 0-1.0578-0.28241-1.1903-0.62758zm-166.63-8.3101c-0.85793-0.85793-0.89516-5.0377-0.0511-5.7382 0.32455-0.26935 0.86773-0.38318 1.2071-0.25296 0.49887 0.19143 0.59478 0.82047 0.501 3.2858-0.12114 3.1842-0.5226 3.8397-1.657 2.7053zm166.88 0.14126c-0.28049-0.28048-0.48768-1.529-0.48768-2.9387 0-2.5802 0.60306-3.6519 1.7972-3.1937 0.88403 0.33923 0.68281 6.3331-0.2184 6.505-0.33186 0.06328-0.82284-0.10437-1.0911-0.37262zm-557.58-2.0666c-3.2124-1.148-5.4488-3.844-4.3184-5.206 0.67744-0.81627 0.85299-0.77002 2.408 0.63416 2.3837 2.1525 4.4968 2.4853 7.4033 1.1659 2.0478-0.92959 3.1557-2.6389 3.5008-5.4014 0.57297-4.5859-1.8848-8.8523-7.276-12.63-5.1362-3.5991-6.6839-5.1562-7.6391-7.6859-1.5581-4.1266-0.46873-9.5523 2.3161-11.535 1.7252-1.2285 4.542-1.7829 7.7487-1.5252 4.9717 0.39951 8.1918 2.0049 7.622 3.8-0.40141 1.2648-1.4713 1.3275-4.3247 0.25348-6.693-2.5193-10.961-0.4677-10.964 5.2704-3e-3 3.854 1.1827 5.451 6.5692 8.8528 3.1802 2.0085 6.1813 5.3267 7.8176 8.6438 4.2825 8.6814-2.5441 18.336-10.863 15.363zm50.825-0.45118c-0.37359-0.45014-0.41083-1.275-0.14771-3.2732 0.50415-3.8297 0.40745-11.509-0.16958-13.466-0.77362-2.6239-2.7643-4.9122-5.5693-6.4019-1.3738-0.72962-2.603-1.2214-2.7315-1.0928-0.47724 0.47725-1.2878 11.336-1.2552 16.816 0.0349 5.8673-0.1944 6.83-1.6271 6.83-1.6289 0-1.7173-0.7183-1.2326-10.023 1.2385-23.776 1.5255-26.266 3.3949-29.456 1.5268-2.6053 4.3823-3.281 7.6312-1.806 3.4724 1.5765 5.0952 6.5694 3.3889 10.427-0.80695 1.8242-4.3157 5.0693-5.4813 5.0693-0.97598 0-0.60683 0.69956 0.84151 1.5947 4.6699 2.8862 6.9147 10.573 5.751 19.694-0.63188 4.9528-1.5373 6.6023-2.7932 5.089zm-4.6359-29.222c1.8002-0.91138 3.8485-3.9279 3.8464-5.6645-3e-3 -2.64-2.579-4.9165-4.6824-4.1384-0.52702 0.19496-1.2289 1.0565-1.6663 2.0453-0.73324 1.6576-0.90185 2.5027-1.3901 6.9674l-0.23167 2.1185 1.3079-0.28237c0.7193-0.15529 1.9866-0.62597 2.8162-1.046zm12.478 28.733c-1.3209-0.30078-1.2062-1.971 0.64009-9.3251 2.0741-8.2613 2.4621-10.586 2.83-16.961 0.28598-4.9544 1.5296-13.062 2.194-14.303 0.22775-0.42553 0.75097-0.7737 1.1627-0.7737 1.2095 0 3.4219 2.9557 4.1472 5.5406 0.70438 2.5104 2.6974 17.309 3.4197 25.391 0.243 2.7192 0.51961 5.0699 0.6147 5.2237 0.0951 0.15386-8e-3 0.75345-0.22735 1.3324-0.29421 0.77384-0.63264 1.0191-1.2776 0.926-1.0522-0.15195-1.2317-0.84017-2.1-8.0474-0.9038-7.5025-0.62318-6.9577-3.5842-6.9577-2.0516 0-2.5444 0.12656-2.7022 0.69432-1.2539 4.5102-3.0345 14.157-3.0345 16.441 0 0.47025-1.3252 0.99115-2.0827 0.81865zm9.8177-23.409c-0.35562-3.1543-1.7751-12.126-1.9456-12.296-0.2021-0.20211-0.53289 1.8144-1.2198 7.4358-0.33332 2.7277-0.68995 5.4505-0.7925 6.0506-0.18484 1.0816-0.16723 1.0911 2.0143 1.0911h2.2008zm82.132 22.122c-0.32497-0.52582-0.93854-13.54-1.375-29.164-0.19506-6.9829-0.36754-12.767-0.3833-12.854-0.01575-0.08652-1.326-0.04768-2.9116 0.08622-3.5575 0.30072-4.5951 0.05278-4.9024-1.1717-0.50727-2.0211-9e-3 -2.1296 9.7692-2.1296 9.5447 0 10.183 0.12086 9.8473 1.8655-0.156 0.81141-2.1622 1.231-6.1156 1.2791l-2.418 0.02939-0.25864 5.6538c-0.39428 8.6188-0.3033 13.558 0.33804 18.35 0.57634 4.3064 0.81772 16.602 0.34985 17.822-0.26678 0.69525-1.5583 0.85058-1.9398 0.23328zm-123.93-1.3173c-0.78083-0.94084-1.2911-7.4096-1.6102-20.413-0.17278-7.0407-0.43252-12.92-0.5772-13.064-0.1447-0.14471-1.6127-0.05323-3.2622 0.20322-3.2969 0.51256-4.5305 0.20659-4.5305-1.1237 0-1.2356 1.5219-1.8676 5.6222-2.3351 8.4451-0.96276 13.111-0.40869 11.992 1.4239-0.31507 0.51589-1.2629 0.82907-3.3724 1.1143l-2.9342 0.39677v10.316c0 5.6736 0.23656 13.025 0.52568 16.337 0.38857 4.4505 0.41079 6.2357 0.0852 6.8441-0.50263 0.93917-1.3055 1.0641-1.9383 0.30164zm53.215-0.98876c-0.26635-0.16922-0.77236-1.1038-1.1245-2.0769-0.52829-1.46-0.69845-4.716-0.97342-18.627-0.22979-11.625-0.20435-17.013 0.082-17.358 0.5113-0.61608 2.1577-0.65766 2.5248-0.06373 0.1483 0.24008 0.30351 7.6049 0.34477 16.366 0.0513 10.897 0.23 16.648 0.56567 18.203 0.6296 2.9162 0.012 4.466-1.4193 3.5571zm36.577-0.17611c-0.10212-0.27277-0.46752-2.3706-0.81186-4.6619-0.7743-5.1521-1.4972-34.828-0.86743-35.609 0.52952-0.65636 1.6808-0.63095 2.2455 0.04949 0.32827 0.39554 0.37882 3.1766 0.18388 10.117l-0.26882 9.5718h14.104l-0.23246-2.083c-0.12791-1.1456-0.35129-5.874-0.49649-10.508-0.27511-8.7781-0.15198-9.6362 1.3804-9.6218 1.7173 0.01619 1.7965 0.38309 1.6841 7.8016-0.10542 6.956 0.66858 19.856 1.7548 29.247 0.59565 5.15 0.3814 6.3353-1.1056 6.1165-0.65786-0.09672-0.94785-0.59172-1.3508-2.3054-0.45408-1.931-1.3078-11.281-1.3222-14.482l-6e-3 -1.1903-7.0365 0.12581c-3.8701 0.06928-7.1135 0.20281-7.2076 0.29688-0.09402 0.09402 0.21615 2.9834 0.68934 6.4206 0.97051 7.0495 1.0767 10.038 0.38144 10.733-0.61884 0.61884-1.4829 0.60886-1.7184-0.0198zm-18.849-0.7935c-2.0927-1.0553-4.0803-3.7922-4.9344-6.7949-0.31805-1.1181-0.94349-4.6003-1.3898-7.7381-0.44635-3.1378-1.1801-7.1488-1.6306-8.9132-1.6962-6.6435-1.395-11.421 0.85627-13.578 0.94129-0.90182 1.5944-1.1396 3.4434-1.2538 3.9852-0.24617 6.4953 1.9944 7.0893 6.3283 0.38555 2.8129-0.0135 3.8793-1.4525 3.8793-1.3565 0-1.9664-1.0596-1.9664-3.4163 0-2.7866-3.5882-4.4887-5.3526-2.539-0.62418 0.68972-0.68434 1.2792-0.47568 4.6619 0.13137 2.1298 0.50135 4.8211 0.82217 5.9806 0.32083 1.1595 0.8761 4.284 1.2339 6.9433 0.35784 2.6592 0.82412 5.7277 1.0362 6.8188 0.84086 4.3263 3.0524 6.9433 5.8676 6.9433 1.5713 0 2.2085-1.3685 1.8473-3.9676-0.13646-0.98198-0.35114-2.6114-0.47707-3.6209l-0.22894-1.8355-2.3941-0.34665c-2.6477-0.38336-3.5984-1.1999-2.8287-2.4296 0.33301-0.53204 1.4772-0.82141 4.8955-1.2381 3.9607-0.48278 4.5292-0.47543 5.0702 0.06568 0.85898 0.85896 0.34581 2.5902-0.90921 3.0673-0.81598 0.31024-0.92534 0.51244-0.60294 1.1149 0.21661 0.40474 0.51471 2.337 0.66243 4.294 0.23327 3.0899 0.16201 3.7991-0.54147 5.3894-1.3591 3.0725-4.2438 3.8976-7.6396 2.1852zm292.67-1.3219c-0.35782-0.93248-0.27993-4.6477 0.11035-5.2636 0.18648-0.29424 0.67473-0.47084 1.085-0.39245 0.64105 0.12251 0.76227 0.57438 0.86185 3.2131 0.114 3.0207 0.10017 3.0706-0.85025 3.0706-0.53138 0-1.0745-0.28241-1.207-0.62759zm167.03 0c-0.35784-0.93248-0.27994-4.6477 0.11036-5.2636 0.18647-0.29424 0.67473-0.47084 1.085-0.39245 0.64106 0.12251 0.76226 0.57438 0.86185 3.2131 0.11396 3.0207 0.10017 3.0706-0.85025 3.0706-0.53138 0-1.0745-0.28241-1.207-0.62759zm-166.85-8.4478c-0.23294-0.43526-0.42353-1.6831-0.42353-2.7729 0-2.1211 0.76229-3.3678 1.8127-2.9647 0.91881 0.35258 0.64552 6.2214-0.2981 6.4016-0.36715 0.07003-0.85813-0.22868-1.0911-0.66393zm167.1 0.27896c-0.64232-0.64232-0.62867-4.7456 0.0187-5.631 0.32334-0.44217 0.75937-0.59549 1.2061-0.42406 0.5986 0.2297 0.68306 0.70503 0.58467 3.2905-0.0885 2.3269-0.2538 3.0485-0.71841 3.1371-0.33186 0.06328-0.82285-0.10437-1.0911-0.37261zm-167.28-8.8917c-0.43755-1.1403-0.25028-4.3657 0.29693-5.114 0.32925-0.45027 0.79078-0.63835 1.1903-0.48505 0.5256 0.20169 0.65251 0.83164 0.65251 3.2385 0 2.8872-0.0321 2.9881-0.94944 2.9881-0.52219 0-1.0578-0.28241-1.1903-0.62758zm167.03 0c-0.38506-1.0034-0.27831-4.1156 0.16988-4.9531 0.2259-0.42208 0.67608-0.76743 1.0004-0.76743 0.99126 0 1.4891 1.7316 1.1888 4.135-0.2463 1.9712-0.37716 2.2131-1.1974 2.2131-0.5065 0-1.0293-0.28241-1.1617-0.62758zm-166.85-8.4478c-0.4586-0.85689-0.57255-3.9611-0.1827-4.977 0.13246-0.34518 0.67559-0.62759 1.207-0.62759 0.95043 0 0.96426 0.04993 0.85026 3.0706-0.0945 2.5051-0.23882 3.094-0.78344 3.198-0.36715 0.07003-0.85813-0.22868-1.0911-0.66394zm166.86-0.14921c-0.31132-1.1617-0.31681-4.0263-9e-3 -4.8278 0.13242-0.34518 0.64898-0.62759 1.1478-0.62759 0.49884 0 1.0154 0.28241 1.1478 0.62759 0.38505 1.0034 0.27829 4.1156-0.16989 4.9531-0.5631 1.0521-1.8209 0.9777-2.1165-0.12521zm-166.64-8.045c-0.42718-0.42718-0.6412-1.3348-0.6412-2.7192 0-2.3388 0.71476-3.6873 1.7448-3.292 0.56243 0.21583 0.65078 0.74367 0.55332 3.3059-0.12114 3.1842-0.5226 3.8397-1.657 2.7053zm166.8-0.16167c-0.22589-0.42208-0.41071-1.5943-0.41071-2.605 0-2.061 0.53997-3.3724 1.3886-3.3724s1.3887 1.3114 1.3887 3.3724c0 2.061-0.53999 3.3724-1.3887 3.3724-0.31197 0-0.75203-0.34533-0.97793-0.76743zm-167.2-8.5888c-0.35782-0.9325-0.27993-4.6478 0.11035-5.2636 0.18648-0.29424 0.67473-0.47084 1.085-0.39245 0.64105 0.12251 0.76227 0.57439 0.86185 3.2131 0.114 3.0207 0.10017 3.0706-0.85025 3.0706-0.53138 0-1.0745-0.28241-1.207-0.62758zm167.19-2.5465c0-2.792 0.0859-3.174 0.71417-3.174 1.1957 0 1.6664 0.8537 1.6664 3.0226 0 2.6878-0.27444 3.3255-1.4311 3.3255-0.9223 0-0.94945-0.09072-0.94945-3.1741zm-167.01-5.9013c-0.23294-0.43525-0.42353-1.6831-0.42353-2.7729 0-2.1211 0.76229-3.3678 1.8127-2.9647 0.91881 0.35259 0.64552 6.2214-0.2981 6.4016-0.36715 0.07003-0.85813-0.22868-1.0911-0.66394zm167.27 0.47899c-0.41811-0.41812-0.3076-6.0101 0.12402-6.2769 0.2137-0.13211 0.74933-0.047082 1.1903 0.18891 0.67346 0.36043 0.80171 0.82666 0.80171 2.9147 0 2.3938-0.42571 3.4378-1.4019 3.4378-0.24731 0-0.5687-0.11906-0.71417-0.26451zm166.4-0.47899c-0.23294-0.43525-0.42352-1.6831-0.42352-2.7729 0-2.1211 0.76228-3.3678 1.8127-2.9647 0.9188 0.35259 0.64551 6.2214-0.29809 6.4016-0.36716 0.07003-0.85814-0.22868-1.0911-0.66394zm-499.7-8.6128c-0.30988-0.80755-0.30122-3.6692 0.015-4.8486 0.17375-0.64874 0.48842-0.87874 1.0857-0.7935 0.76224 0.10872 0.85184 0.40791 0.95687 3.1949 0.11397 3.0252 0.10032 3.0749-0.85026 3.0749-0.53137 0-1.0745-0.28241-1.207-0.62759zm165.84 0c-0.30989-0.80755-0.30122-3.6692 0.0147-4.8486 0.17376-0.64874 0.48842-0.87874 1.0857-0.7935 0.76224 0.10872 0.85183 0.40791 0.95685 3.1949 0.11401 3.0252 0.10028 3.0749-0.85025 3.0749-0.53137 0-1.0745-0.28241-1.207-0.62759zm167.27-2.4193c0.10723-2.8592 0.18541-3.1127 0.99507-3.2278 1.0846-0.15423 1.4014 0.85575 1.2277 3.9154-0.11546 2.0359-0.18677 2.1683-1.2309 2.2882l-1.1083 0.12716zm166.4 2.4193c-0.30989-0.80755-0.30122-3.6692 0.015-4.8486 0.17376-0.64874 0.48842-0.87874 1.0857-0.7935 0.76224 0.10872 0.85184 0.40791 0.95686 3.1949 0.11398 3.0252 0.10033 3.0749-0.85026 3.0749-0.53136 0-1.0745-0.28241-1.207-0.62759zm-250.99-5.1275c-0.33067-0.39845-0.40605-1.1579-0.22643-2.2812 0.28533-1.7844 2.858-8.1486 4.3697-10.81 2.5517-4.4917 7.8529-15.068 8.9492-17.854 1.5499-3.939 2.1966-4.9595 3.1431-4.9595 2.4967 0 1.1157 3.9535-6.0474 17.313-4.0742 7.5983-6.0584 12.106-6.8729 15.615-0.32885 1.4165-0.78442 2.8002-1.0124 3.0749-0.56248 0.67774-1.6993 0.62942-2.3029-0.09792zm-18.15-1.8242c-0.62718-0.65066-0.63589-1.6442-0.0199-2.2602 0.26546-0.26545 1.5381-0.47597 2.8765-0.47581l2.4004 2.996e-4 -0.11262-9.9567c-0.12671-11.207 0.0367-10.831-2.9533-6.7839-1.2735 1.7239-1.7421 2.0846-2.5777 1.9843-1.6126-0.19371-2.0221-1.2416-1.1313-2.8957 1.255-2.3304 5.3503-6.9234 6.4104-7.1894 2.6728-0.67084 3.3402 2.4237 3.3402 15.489v9.4294l2.3523-0.27302c2.9523-0.34265 3.9958-0.03824 3.9958 1.1655 0 1.3049-2.1749 1.8217-8.7287 2.0742-4.088 0.15745-5.4736 0.08443-5.8522-0.3082zm-230.19-1.4961c-0.45859-0.85691-0.57254-3.9611-0.18271-4.977 0.13241-0.34517 0.6756-0.62759 1.207-0.62759 0.95043 0 0.96426 0.04993 0.85026 3.0706-0.09462 2.5051-0.23882 3.094-0.78344 3.198-0.36715 0.070032-0.85813-0.2287-1.0911-0.66394zm165.84 0c-0.4586-0.85691-0.57255-3.9611-0.1827-4.977 0.13246-0.34517 0.67559-0.62759 1.207-0.62759 0.95043 0 0.96426 0.04993 0.85026 3.0706-0.0945 2.5051-0.23882 3.094-0.78344 3.198-0.36715 0.070032-0.85813-0.2287-1.0911-0.66394zm167.27 0.47899c-0.14545-0.14546-0.26451-1.5857-0.26451-3.2004v-2.9359l1.0911 0.12551c1.0235 0.11772 1.0987 0.25933 1.2137 2.2865 0.15937 2.8085-0.15307 3.9888-1.056 3.9888-0.39592 0-0.83887-0.11906-0.98435-0.26451zm166.4-0.47899c-0.4586-0.85691-0.57256-3.9611-0.1827-4.977 0.13241-0.34517 0.67559-0.62759 1.207-0.62759 0.95043 0 0.96425 0.04993 0.85027 3.0706-0.0946 2.5051-0.23883 3.094-0.78344 3.198-0.36716 0.070032-0.85814-0.2287-1.0911-0.66394zm-232.75-0.16963c-0.4929-1.2845 0.12086-2.0889 3.9812-5.218 2.1755-1.7633 4.6164-4.0806 5.4242-5.1495 2.3046-3.0492 2.9916-6.8971 1.5146-8.4825-1.372-1.4727-2.5203-1.1739-6.2288 1.6212-2.2752 1.7148-3.7879 1.8061-4.2791 0.25843-0.33636-1.0598 0.41342-1.875 3.6847-4.0063 2.199-1.4327 2.9544-1.7075 5.0116-1.8229 1.9259-0.10797 2.6914 0.03299 3.7356 0.68786 2.4686 1.5484 3.0469 4.6316 1.6476 8.7853-0.97352 2.8899-2.0414 4.6332-4.5302 7.3955l-1.8767 2.083h1.6175c2.0781 0 4.4714 1.9072 3.7894 3.0198-0.34788 0.5676-1.0934 0.69381-4.3643 0.73894-2.1696 0.029989-5.0566 0.20344-6.4156 0.38558-2.0886 0.27994-2.5081 0.23408-2.7117-0.29639zm-266.58-8.0591c-0.76905-0.76903-0.81549-4.477-0.06883-5.498 0.32924-0.45027 0.79078-0.63834 1.1903-0.48505 0.52444 0.20124 0.65252 0.82858 0.65252 3.1961 0 3.1443-0.55098 4.01-1.7739 2.787zm165.84 0c-0.76904-0.76903-0.81547-4.477-0.0688-5.498 0.32925-0.45027 0.79078-0.63834 1.1903-0.48505 0.52443 0.20124 0.65251 0.82858 0.65251 3.1961 0 3.1443-0.55096 4.01-1.7739 2.787zm167.32 0.35529c-0.77461-0.27776-0.67992-6.0174 0.10422-6.3183 1.188-0.45589 1.7804 0.63056 1.7804 3.2655 0 1.996-0.14352 2.5902-0.69433 2.8735-0.38187 0.19641-0.9175 0.27709-1.1903 0.17929zm166.35-0.35529c-0.76904-0.76903-0.81548-4.477-0.0688-5.498 0.32924-0.45027 0.79078-0.63834 1.1903-0.48505 0.52443 0.20124 0.6525 0.82858 0.6525 3.1961 0 3.1443-0.55097 4.01-1.7739 2.787zm-499.88-8.7159c-0.13241-0.34517-0.24081-1.4911-0.24081-2.5465 0-2.533 0.28902-3.1741 1.4311-3.1741 0.9223 0 0.94946 0.09072 0.94946 3.1741 0 3.0833-0.02714 3.174-0.94946 3.174-0.52219 0-1.0578-0.28241-1.1903-0.62758zm165.84 0c-0.13245-0.34517-0.24083-1.4911-0.24083-2.5465 0-2.533 0.28904-3.1741 1.4311-3.1741 0.92231 0 0.94944 0.09072 0.94944 3.1741 0 3.0833-0.0271 3.174-0.94944 3.174-0.52219 0-1.0578-0.28241-1.1903-0.62758zm167.19-2.5465v-3.2268l1.0911 0.12551c1.0821 0.12446 1.0911 0.14997 1.0911 3.1012 0 2.9513-9e-3 2.9767-1.0911 3.1012l-1.0911 0.12551zm166.48 2.5465c-0.13241-0.34517-0.24082-1.4911-0.24082-2.5465 0-2.533 0.28903-3.1741 1.4311-3.1741 0.9223 0 0.94945 0.09072 0.94945 3.1741 0 3.0833-0.0272 3.174-0.94945 3.174-0.52219 0-1.0578-0.28241-1.1903-0.62758zm-499.33-8.4478c-0.23294-0.43524-0.42352-1.6831-0.42352-2.7729 0-2.1211 0.76227-3.3678 1.8127-2.9647 0.91881 0.35258 0.64553 6.2214-0.2981 6.4016-0.36715 0.07003-0.85813-0.22868-1.0911-0.66394zm165.84 0c-0.23294-0.43524-0.42353-1.6831-0.42353-2.7729 0-2.1211 0.76229-3.3678 1.8127-2.9647 0.91881 0.35258 0.64552 6.2214-0.2981 6.4016-0.36715 0.07003-0.85813-0.22868-1.0911-0.66394zm167.27 0.479c-0.14545-0.14546-0.26451-1.5589-0.26451-3.141 0-3.0019 0.33363-3.5707 1.6862-2.8751 0.54937 0.28256 0.69433 0.87601 0.69433 2.8427 0 2.3939-0.42571 3.4378-1.4019 3.4378-0.24731 0-0.56869-0.11906-0.71417-0.26451zm166.4-0.479c-0.23294-0.43524-0.42352-1.6831-0.42352-2.7729 0-2.1211 0.76228-3.3678 1.8127-2.9647 0.9188 0.35258 0.64551 6.2214-0.29809 6.4016-0.36716 0.07003-0.85814-0.22868-1.0911-0.66394z" fill="#fff"/></g></svg>
