<svg width="800mm" height="450mm" version="1.1" viewBox="0 0 800 450" xml:space="preserve" xmlns="http://www.w3.org/2000/svg"><g transform="translate(210.84 61.573)"><path d="m303.05 299.87c-2.0034-1.5758-1.6759-4.1877 0.87494-6.9787l1.7889-1.9574-1.0799-1.5696c-0.59394-0.86327-1.6629-2.0815-2.3755-2.7071-1.2998-1.1413-6.7228-4.0354-9.1974-4.9085l-1.3223-0.46652-2.1335 2.5995c-2.4161 2.9438-4.1494 3.9912-6.0849 3.6771-0.68868-0.11181-1.5548-0.47713-1.9248-0.81193-1.342-1.2145-0.55345-5.2936 1.3574-7.0215 1.193-1.0788 3.842-2.0654 5.5673-2.0735l1.6812-8e-3 0.25154-1.6773c0.33174-2.2123-0.0335-7.7873-0.75925-11.589-0.67993-3.5618-2.7065-9.9132-3.8648-12.112l-0.80841-1.5348-1.1623 1.649c-2.1638 3.0697-5.8161 3.794-8.0198 1.5904-3.1905-3.1905-0.0199-7.9102 5.7112-8.5018l1.9695-0.20327-0.17275-6.3097c-0.11329-4.1366-0.38663-7.2359-0.79376-8.9989-0.68115-2.9496-3.3388-8.8786-5.2555-11.725l-1.2209-1.8129-1.405 1.2146c-1.53 1.3226-3.7243 2.0908-4.9708 1.7403-2.7606-0.77623-3.8368-1.8893-3.8368-3.9681 0-1.3883 1.2567-3.2148 2.6027-3.7828 1.0411-0.43929 4.2744-0.571 6.1819-0.25182 1.1019 0.18438 2.0271-2.9646 2.2429-7.6337 0.1916-4.1452-0.41804-12.508-1.0424-14.299l-0.38987-1.1184-0.86513 0.81275c-1.219 1.1452-4.9319 1.3638-6.1904 0.36445-1.1058-0.87814-1.1354-2.4485-0.0741-3.9389 0.85996-1.2077 2.5394-1.8497 4.8473-1.853l1.3967-1e-3 -0.19448-3.5293c-0.24279-4.4061-1.6128-8.6095-3.9471-12.11-1.8773-2.8153-4.2186-5.2033-4.4585-4.5474-0.35332 0.96602-1.6371 2.259-2.243 2.259-0.35595 0-0.81142 0.20169-1.0122 0.4482-0.21026 0.25817-0.43367 3.7165-0.52696 8.1571-0.1282 6.1034-0.31731 8.381-0.90784 10.936-0.41024 1.7748-0.94281 4.5944-1.1835 6.2657-0.74576 5.1785-1.9724 5.7806-10.238 5.0246-5.7974-0.53022-13.083-0.30557-17.465 0.53852-5.4074 1.0416-8.1172 0.49972-9.3164-1.863-1.0465-2.0619-2.7439-17.005-2.751-24.218-1e-3 -1.8697-0.12021-2.4202-0.52021-2.4202-0.28482 0-0.96354-0.38337-1.5083-0.85193-1.1784-1.0136-0.82277-1.1032-8.7028 2.1917-3.0414 1.2717-6.4701 2.4871-7.6193 2.7008-4.1639 0.77437-8.5223-0.73995-14.057-4.8842-1.7508-1.3109-3.3643-2.393-3.5856-2.4048-0.22123-0.0122-1.209-0.16284-2.195-0.33575-0.98602-0.17289-4.092-0.2189-6.9022-0.10218-4.171 0.17318-5.1094 0.3094-5.1094 0.74162 0 0.8546-1.4098 2.8886-2.1691 3.1296-0.61713 0.19586-0.7005 0.5667-0.70951 3.1559-0.0271 7.7866-1.6207 21.863-2.7146 23.978-1.2601 2.4368-3.664 2.9105-9.3295 1.8385-3.0453-0.57627-8.8361-0.67233-21.893-0.36323-3.7894 0.0897-4.7609-0.51986-5.3704-3.3694-2.1072-9.8524-2.3891-11.996-2.5511-19.398l-0.16237-7.4192-1.4644-0.68924c-1.2901-0.60717-1.6802-0.63865-3.2764-0.26444-0.99657 0.23361-3.6977 1.4974-6.0026 2.8084-5.4449 3.097-7.6808 3.843-11.485 3.8318-5.4014-0.016-7.4284-0.82336-12.65-5.039-5.2651-4.2505-5.6327-4.4057-10.757-4.5431l-4.3027-0.11532-0.72195 1.1779c-0.47274 0.77131-1.0516 1.2162-1.6769 1.2889-0.52522 0.061-1.1112 0.30303-1.3023 0.53784-0.19102 0.2348-0.42021 3.8959-0.50929 8.1358-0.1282 6.1034-0.31731 8.381-0.90784 10.936-0.41024 1.7748-0.9428 4.5944-1.1835 6.2657-0.74576 5.1785-1.9724 5.7806-10.238 5.0246-5.7974-0.53023-13.083-0.30558-17.465 0.53851-5.4074 1.0416-8.1172 0.49972-9.3164-1.863-1.0465-2.0619-2.7439-17.005-2.751-24.218-0.0014-1.8049-0.12684-2.4202-0.49186-2.4202-0.2692 0-0.91048-0.33118-1.4251-0.73594l-0.93558-0.73592-2.7815 2.2598c-3.9244 3.1883-5.4757 4.8401-6.3039 6.7123-0.66022 1.4926-0.70078 2.1047-0.48851 7.3722 0.12739 3.1595 0.39229 6.7126 0.58883 7.8958 0.58939 3.5485 0.44574 7.4814-0.3607 9.8753-1.7893 5.3116-6.778 11.465-10.371 12.793-1.7119 0.63266-2.0077 0.89108-2.4193 2.1134-1.3974 4.1499-1.7333 4.6918-5.1015 8.2282-1.8903 1.9847-4.5892 4.8986-5.9976 6.4752-2.5819 2.8903-3.9848 3.7205-6.287 3.7205-0.73676 0-1.4153 0.84209-4.2611 5.288-5.1241 8.0055-6.6549 9.2588-11.792 9.6549l-2.8781 0.22195-1.0836 1.9201c-1.2033 2.1321-4.3768 5.4244-11.171 11.589-5.6545 5.1305-7.516 6.1486-11.342 6.2032-2.3512 0.0336-3.0484-0.10611-4.6485-0.93129l-1.8824-0.97079-2.241 1.7547c-2.9501 2.3099-7.8172 5.4265-10.889 6.9726-5.4125 2.7242-12.273 3.0854-18.158 0.95616l-3.0725-1.1118-1.3751 0.69847c-2.3912 1.2146-5.3905 1.6644-11.056 1.6579-7.4848-8e-3 -12.55-1.1489-15.059-3.3907-0.52052-0.46498-1.4717-0.6766-3.4696-0.77193-3.3318-0.15899-4.2177-0.75527-7.9452-5.3474-3.3238-4.0947-4.7776-6.333-5.2219-8.0392l-0.37342-1.4342-5.394 0.12264c-6.4975 0.14772-10.162-0.29773-15.801-1.9208-4.8238-1.3884-7.0748-2.4385-12.764-5.9544-4.9512-3.0597-5.3464-3.4312-9.2993-8.741-4.2333-5.6864-7.4146-11.029-11.699-19.645-5.4516-10.964-6.6359-15.292-6.248-22.836 0.32253-6.2715 2.0547-17.015 3.7012-22.955 1.5825-5.7096 7.136-12.302 12.358-14.67 2.6572-1.2048 13.071-3.6283 20.924-4.8694 5.7168-0.90355 9.2467-1.9835 13.182-4.0332 1.8564-0.9668 3.3182-2.194 6.2177-5.2198 4.5629-4.7618 6.8774-7.9716 8.4049-11.656 1.2982-3.1315 1.925-4.2693 5.6674-10.287 5.4941-8.8349 11.179-15.443 15.086-17.538 2.8823-1.5448 6.4728-1.7241 9.0712-0.4528 3.4846 1.7049 3.8654 3.3768 2.4188 10.621-0.58732 2.9412-1.0679 6.3163-1.0679 7.5004 0 2.5895 0.83042 6.741 1.776 8.8786 1.0052 2.2725 3.9308 5.0223 6.66 6.2597 1.4136 0.64096 2.3207 1.2709 2.3207 1.6115 0 0.91717 5.8131-4.1087 8.1544-7.0502 1.1642-1.4627 3.0336-3.4954 4.1542-4.5171 2.1695-1.9782 6.456-6.6655 12.226-13.37 3.8465-4.4689 15.732-16.162 21.733-21.38 2.063-1.7941 5.0485-4.3954 6.6345-5.7807 3.3423-2.9192 20.275-19.988 26.598-26.813 2.3754-2.5637 5.6974-6.0002 7.3822-7.6367 2.6975-2.6202 3.109-3.1889 3.4465-4.7627 0.21081-0.98297 0.7055-2.4188 1.0993-3.1908 0.70832-1.3884 2.9899-3.2505 4.6011-3.7551 0.60419-0.18923 0.76194-0.42409 0.57489-0.85587-0.47927-1.1063-0.59912-4.9599-0.17868-5.7454 1.0723-2.0036 3.9702-0.03805 3.9702 2.6928 0 0.85863 0.14186 1.5611 0.31523 1.5611 0.17338 0 1.1958-0.40314 2.272-0.89586l1.9568-0.89634-0.91466-2.65c-0.77423-2.2431-0.84107-2.7387-0.43536-3.2275 0.26361-0.31764 0.77662-0.57752 1.14-0.57752 0.83344 0 2.9383 1.8297 3.9059 3.3953l0.73786 1.1939 3.1304-1.2001c1.7217-0.66005 3.544-1.2848 4.0495-1.3883l0.91917-0.18818-0.54288-2.6654c-0.5865-2.8795-0.32967-3.8085 1.0529-3.8085 0.83415 0 2.697 2.2629 3.4189 4.1531l0.56248 1.4728 4.6781-1.1193-0.24194-2.9044c-0.27036-3.2456 0.10733-4.027 1.7475-3.6154 0.94764 0.23784 3.8008 3.5687 3.8008 4.4372 0 0.43509 0.32483 0.49313 1.7031 0.30432 0.93672-0.12832 2.7161-0.33311 3.9542-0.45509 4.3717-0.43071 6.271 1.4104 6.7479 6.5413 0.38075 4.0966-0.38231 5.0696-6.6684 8.5031-1.2818 0.70015-3.9441 2.4028-5.9162 3.7836-1.9721 1.3808-5.6831 3.7592-8.2468 5.2853s-7.0008 4.1774-9.8603 5.8917c-7.9347 4.7571-9.4675 5.4898-10.917 5.2179-0.88403-0.16584-1.3073-0.0844-1.5188 0.29224-0.28623 0.50962-5.0753 5.6856-11.964 12.931-1.8834 1.9808-8.636 8.8454-15.006 15.255-6.3697 6.4091-12.964 13.228-14.654 15.152s-3.9697 4.1834-5.0663 5.0198c-3.8574 2.9417-11.017 9.7393-17.974 17.066-3.8664 4.0714-9.422 9.6615-12.346 12.422-2.9237 2.7609-8.4104 8.1452-12.193 11.965l-6.8766 6.9455 1.496 3.3217c1.9605 4.3531 2.8189 5.4991 4.7638 6.3594 4.0233 1.7797 13.224 0.9711 19.654-1.7273 2.5145-1.0552 3.7888-1.3699 6.0837-1.5026 3.3035-0.19103 4.1592 0.11193 5.0204 1.7772 0.78242 1.513 0.53387 4.6371-0.54649 6.8688-1.0379 2.144-3.965 5.3429-6.7218 7.3459-1.1598 0.84267-4.0716 2.314-6.5446 3.307-2.4504 0.98387-4.6286 1.9312-4.8405 2.1052-0.21188 0.17402-2.3422 1.3709-4.7339 2.6598-2.3918 1.2889-5.4574 3.0585-6.8125 3.9325-1.3551 0.87401-3.6465 2.1827-5.0918 2.9083-3.2243 1.6185-5.373 3.5548-7.5897 6.8391-3.8017 5.633-5.823 10.931-7.5243 19.721-1.0933 5.6488-2.0046 8.2754-3.8181 11.005-1.975 2.9726-7.2264 7.9635-11.055 10.506-4.713 3.1304-12.66 6.6811-18.074 8.0756-1.5522 0.39979-1.5647 0.41559-1.3537 1.7159 0.25756 1.5871 4.1397 7.4238 6.5729 9.8821 1.9012 1.9208 2.787 2.3798 4.5925 2.3798 1.1903 0 1.2021-0.0157 0.87305-1.1629-0.81154-2.8297-0.0544-5.7805 1.8389-7.1668 1.1772-0.86195 4.5125-1.1912 5.6908-0.56178 2.1708 1.1596 1.5455 4.421-1.4645 7.6386-2.1919 2.3432-2.2023 2.4302-0.40023 3.3653 0.43967 0.22816 2.4466 0.75077 4.4598 1.1614 4.6521 0.94881 12.778 0.84076 15.268-0.20302 0.83812-0.35131 1.5239-0.6814 1.5239-0.73352 0-0.0522-0.34243-0.8689-0.76096-1.815-1.3422-3.0344-0.28199-7.3636 2.2438-9.1622 2.2545-1.6053 6.4389-1.1954 7.4704 0.73189 0.98445 1.8395-0.15829 5.7249-2.4521 8.3374-0.61755 0.70335-1.1228 1.3656-1.1228 1.4716 0 0.10598 0.84709 0.48809 1.8824 0.84906 2.85 0.99361 10.515 0.9162 13.016-0.13146 3.8547-1.6153 14.504-8.5631 14.504-9.4628 0-0.15647-0.16442-0.38612-0.36538-0.51032-0.86816-0.53655-2.2486-4.0291-2.4158-6.112-0.34267-4.2689 1.8676-6.939 5.2909-6.3916 2.9848 0.47729 4.7809 2.499 4.7809 5.3814 0 1.8044-0.56248 3.2872-2.1989 5.7969-0.68046 1.0436-1.1767 1.9508-1.1028 2.0161 1.3739 1.2132 5.4887 1.7541 7.507 0.98676 2.8394-1.0795 19.287-16.75 18.228-17.367-0.0786-0.0457-0.62332-0.32932-1.2105-0.63019-0.58718-0.30087-1.4343-1.0912-1.8824-1.7562-1.9609-2.9098 0.06071-6.9513 3.723-7.4426 2.808-0.37663 4.4062 2.5022 3.404 6.1317l-0.38094 1.3796 1.7526-0.20758c2.2346-0.26466 4.1473-1.2553 5.7837-2.9956 1.4867-1.5811 6.4161-8.4666 6.4161-8.9622 0-0.18235-0.70686-0.5206-1.5708-0.75166-1.7944-0.47993-3.5919-1.857-4.3583-3.3391-0.79704-1.5413-0.6693-4.4611 0.26813-6.1291 2.6434-4.7033 10.286-3.7827 11.25 1.3551 0.22728 1.2115-0.10028 3.3777-0.7392 4.8886-0.19289 0.45612-0.09825 0.62747 0.34652 0.62747 0.33654 0 3.1737-2.6219 6.3048-5.8265 4.5427-4.6492 5.8329-6.1919 6.3856-7.635 1.1505-3.0038 1.1522-2.9972-0.96926-3.7215-3.1041-1.0598-5.5106-3.9015-5.9924-7.0762-0.28762-1.895 0.99464-4.3795 2.7-5.2314 1.347-0.6729 4.0876-0.82838 5.4527-0.30934 2.5307 0.96218 4.1079 4.3335 3.7946 8.1112l-0.15942 1.9224 0.95069-0.49162c1.8335-0.94811 5.2874-5.0842 6.8076-8.1523 1.8484-3.7301 2.0384-5.4727 1.2814-11.748-0.32119-2.6623-0.6816-6.7784-0.80092-9.1468-0.3071-6.0957 0.1991-7.7153 3.4033-10.889 1.3182-1.3056 3.8013-3.5033 5.518-4.8838 2.8527-2.294 3.1226-2.6198 3.1374-3.7874 0.01613-1.2815 1.2166-2.8308 2.5543-3.2964 0.81726-0.28445 1.6095-11.148 1.2514-17.16-0.37069-6.2246-0.30387-7.1569 0.58047-8.0982 1.5478-1.6476 2.3634-1.721 19.115-1.721 15.132 0 15.826 0.0293 16.994 0.7171 2.3115 1.3615 2.6427 2.1792 2.9371 7.2498 0.1463 2.5204 0.51869 6.3573 0.82753 8.5266 0.30886 2.1693 0.5647 4.7784 0.56855 5.798 0.0068 1.7604 0.06058 1.8657 1.0676 2.0869 1.1271 0.24755 3.242 2.363 3.242 3.2428 0 0.41295 0.55624 0.52581 2.5995 0.52744 5.8841 4e-3 9.1717 1.2032 14.073 5.1306 3.721 2.9814 6.0054 4.1096 9.2295 4.558 4.3535 0.60551 6.9928-0.1596 12.741-3.6934 3.2607-2.0047 5.7233-3.1289 6.854-3.1289 0.51974 0 0.70245-0.34794 0.84451-1.6083 0.23604-2.0942 1.0962-3.358 2.7731-4.0741l1.3555-0.57886 0.24628-3.3551c0.13551-1.8453 0.40449-4.2686 0.59787-5.385 0.19337-1.1165 0.47995-4.2568 0.63683-6.9784 0.31537-5.4706 0.60719-6.2238 2.9452-7.6009 1.1677-0.6878 1.8623-0.71711 16.994-0.71711 16.855 0 17.56 0.0656 19.174 1.7836 0.92406 0.98363 0.98392 1.8349 0.5401 7.6815-0.36213 4.7706 0.44008 17.247 1.109 17.247 0.43041 0 2.1039 1.755 2.3591 2.4741 0.0695 0.19594 3.2713 0.48908 7.295 0.66787 8.0812 0.35908 8.3058 0.42434 12.769 3.7115 3.425 2.5227 6.0552 3.6293 9.0889 3.824 2.4911 0.15987 2.6366 0.11912 8.4457-2.3666 3.251-1.3911 6.6773-2.7342 7.6141-2.9845l1.7031-0.45527v-1.6513c0-1.3416 0.18494-1.8222 0.98602-2.5622 0.54231-0.501 1.2408-0.99958 1.5522-1.108 0.81727-0.28445 1.6095-11.148 1.2514-17.16-0.37071-6.2246-0.30388-7.1569 0.58047-8.0982 1.5478-1.6476 2.3634-1.721 19.115-1.721 15.132 0 15.826 0.0293 16.994 0.7171 2.3115 1.3615 2.6427 2.1792 2.9371 7.2498 0.14629 2.5204 0.51869 6.3573 0.82753 8.5266 0.30886 2.1693 0.5647 4.7881 0.56855 5.8197 7e-3 1.6968 0.092 1.8969 0.89952 2.0996 0.86147 0.21622 3.0516 2.3623 3.0516 2.9903 0 0.16896 0.36736 0.39941 0.81637 0.51211 2.1311 0.53487 5.6992 4.7963 7.8319 9.3538 1.9145 4.0912 2.5353 6.8056 2.6524 11.598 0.0592 2.4232 0.26835 4.6014 0.46475 4.8405 1.2271 1.4939 2.2228 8.1789 2.212 14.852-7e-3 4.001-0.50398 7.099-1.6866 10.502l-0.68534 1.9721 1.3454 2.0819c2.0811 3.2202 4.8265 8.7819 5.6321 11.41 1.1192 3.6509 1.5242 7.4496 1.5099 14.163-0.0108 5.2846 0.0695 6.2101 0.57952 6.6333 1.5491 1.2855 4.7729 10.703 5.6915 16.627 0.33641 2.1693 0.66265 6.2612 0.72499 9.0932l0.11329 5.1491 5.0244 2.509c5.5732 2.783 7.297 4.0692 8.9908 6.7087l1.1457 1.7854 1.9601-0.86685c1.078-0.47676 3.7686-1.4634 5.979-2.1925 3.435-1.1331 4.4876-1.3255 7.2458-1.3249 2.7366 5.9e-4 3.6827 0.17126 6.2259 1.1231 1.6494 0.61729 3.7283 1.5498 4.6198 2.0723 1.6021 0.93892 1.636 0.94267 2.9173 0.32396 4.1308-1.9947 6.1406-2.4316 11.959-2.5997 5.9836-0.17287 8.9217 0.15296 12.623 1.3998l2.1349 0.71919 1.4524-0.72225c6.1184-3.0426 14.791-4.5084 19.287-3.2598 1.2583 0.34946 1.4763 0.28047 3.5389-1.1202 3.7776-2.5653 10.997-5.7136 16.318-7.1162l1.4777-0.38949 0.25266-2.8964c0.13897-1.593 0.71173-4.7784 1.2728-7.0785 0.56109-2.3002 0.97347-4.2288 0.91639-4.2859-0.0571-0.0571-2.0282 0.38431-4.3802 0.98089-9.91 2.5136-19.888 4.1972-21.421 3.6144-0.70676-0.2687-0.89082-0.20122-1.0435 0.38264-0.23776 0.90923-0.82677 0.77093-6.699-1.5728-2.4651-0.98388-5.6114-2.1554-6.9918-2.6033s-3.6393-1.2833-5.0198-1.8564c-1.3804-0.57309-3.8773-1.3297-5.5486-1.6814-1.6713-0.35166-3.8399-1.0454-4.8192-1.5416-2.8092-1.4236-10.015-4.6709-14.91-6.7193-6.8156-2.852-12.206-5.6378-13.021-6.7298-0.64139-0.85907-0.74716-1.6974-0.92702-7.3477-0.49223-15.463 0.30084-97.36 0.99575-102.83 1.262-9.9323 4.4599-24.837 5.9752-27.85 0.79141-1.5734 1.5211-2.1318 5.3633-4.1041 1.7748-0.91108 3.5601-1.96 3.9672-2.331 0.40712-0.37095 0.9897-0.67444 1.2946-0.67444s2.2307-0.7827 4.2796-1.7393c8.468-3.9538 12.136-5.1851 22.011-7.39 1.1832-0.26417 4.3296-1.281 6.9918-2.2596 6.0756-2.2333 11.756-3.5972 16.838-4.0432 7.0291-0.61683 19.951-2.6923 20.302-3.261 0.10543-0.1706 1.1099-0.31586 2.2322-0.32278 1.1223-0.0069 3.0893-0.26255 4.3711-0.56804 1.2818-0.3055 3.5407-0.6849 5.0198-0.84311 2.65-0.28348 5.2768-0.86688 6.4118-1.4241 1.6886-0.82892 6.226-1.561 11.337-1.8291 6.0062-0.3151 13.603-0.96055 14.521-1.2339 0.2958-0.08799 2.3127-0.41959 4.4819-0.7369s5.719-0.97446 7.8882-1.4603c3.6238-0.81167 7.1601-1.3552 18.466-2.8382 2.2679-0.29749 4.6881-0.6854 5.3783-0.86202 0.69023-0.17662 2.5457-0.51224 4.1234-0.74583 1.5776-0.23359 3.0345-0.56033 3.2376-0.72609 0.203-0.16576 0.8484-0.28895 1.4342-0.27374 1.7297 0.04488 4.2294-0.45871 5.1364-1.0348 0.55627-0.35331 1.2547-0.45925 2.0473-0.31055 0.67425 0.12649 2.1155-0.0083 3.2791-0.30674 1.1418-0.29283 2.9635-0.64116 4.0482-0.77405 1.0846-0.1329 2.4561-0.4504 3.0477-0.70557 0.59161-0.25517 1.8824-0.54829 2.8684-0.65138 0.98603-0.10309 3.0029-0.37651 4.482-0.60759 3.3786-0.52787 8.4309-0.23743 11.474 0.65959 1.2818 0.37788 3.6214 1.014 5.199 1.4135 1.5776 0.39956 4.0559 1.1609 5.5072 1.6918 1.4513 0.53093 3.7749 1.0867 5.1636 1.2351 3.0377 0.32458 4.0271 1.1977 4.4017 3.8845 0.13118 0.94042 0.53923 2.7586 0.90692 4.0405 0.76725 2.6748 2.662 15.691 3.5492 24.382 0.19124 1.8734 0.68203 4.3744 1.0906 5.5576 1.437 4.1611 3.5229 13.504 6.0843 27.25 0.40748 2.1868 1.1678 10.848 1.7785 20.258 0.34093 5.2541 1.3725 10.359 3.9432 19.514 0.56867 2.0252 1.2199 4.9573 1.4472 6.5158 0.22731 1.5585 1.037 5.9799 1.7993 9.8254 0.76233 3.8455 1.6476 9.1967 1.9672 11.892 0.31963 2.6949 0.9753 7.2126 1.457 10.04 1.041 6.1088 1.0644 6.7999 0.28608 8.4402-0.68938 1.4528-2.1713 2.2-6.9303 3.4947-1.6777 0.45641-4.7445 1.3929-6.8152 2.0811-2.0707 0.68823-5.1363 1.6961-6.8125 2.2396-1.6762 0.54358-4.1772 1.3614-5.5576 1.8174-11.9 3.931-33.688 8.8769-44.994 10.214-16.453 1.9452-24.646 3.6706-43.966 9.2599-6.507 1.8824-8.0738 2.2386-17.551 3.9894-4.3275 0.79945-9.4816 1.7797-11.454 2.1784-3.7119 0.75036-24.318 6.288-25.292 6.7969-0.73028 0.38162-2.9125 9.0402-3.1367 12.446l-0.1711 2.5995 2.1088 8e-3c4.37 0.0163 7.6664 2.8544 7.6664 6.6004 0 2.1786-2.1324 3.7815-5.039 3.7878-2.7085 5e-3 -5.9428-2.9348-6.823-6.2038-0.35157-1.3056-0.42478-1.3605-1.5144-1.1342-4.1347 0.85875-10.363 3.5261-14.009 5.9993l-2.1076 1.4297 1.1665 0.91295c2.1662 1.6953 3.0522 4.9132 2.0226 7.3458-0.7379 1.7434-1.7986 2.4926-3.8018 2.685-1.6575 0.15926-1.876 0.0833-3.0038-1.0445-1.5127-1.5127-2.1702-4.1048-1.688-6.6543 0.20454-1.0815 0.19688-1.8521-0.0206-2.0744-0.19301-0.19729-2.1241-0.33157-4.3667-0.30364-3.185 0.0397-4.6781 0.24483-7.184 0.98713-3.2372 0.95892-5.981 2.1686-5.9784 2.6356 8.2e-4 0.14389 0.4042 1.0554 0.89639 2.0255 2.2123 4.3607 0.34172 8.4549-3.8629 8.4549-2.7511 0-4.6473-2.198-4.6473-5.3868 0-1.7793 0.43027-2.8936 1.6229-4.2032 0.40342-0.44292 0.64135-0.89746 0.52875-1.0101-0.68564-0.68564-4.9616-1.208-9.9817-1.2196-5.6226-0.0122-7.2004 0.23274-10.843 1.688l-1.3661 0.54571 0.88136 0.93847c1.4388 1.532 2.3859 3.3695 2.3874 4.6315 3e-3 2.7314-1.8816 4.2607-4.8399 3.9272-2.119-0.23884-3.3184-1.0773-4.1448-2.8973-0.87914-1.9363-0.87025-3.5114 0.0298-5.2757l0.72473-1.4206-1.1375-0.69177c-0.62565-0.38048-2.4851-1.1301-4.1322-1.6659-2.6162-0.85106-3.3456-0.9453-5.7723-0.74587-2.8341 0.23292-6.2979 1.1864-10.52 2.8958l-2.3637 0.95709 0.45876 1.7686c0.49095 1.8927 0.26869 3.3276-0.75819 4.8948-1.4026 2.1407-4.6229 2.9231-6.371 1.548zm3.6629-3.0917c0.74478-0.94685 1.0298-2.9994 0.41644-2.9994-0.38353 0-2.1832 2.0675-2.1832 2.5081 0 0.57597 0.43687 1.436 0.72944 1.436 0.1618 0 0.62858-0.42513 1.0373-0.94475zm32.296 0.20983c0-0.96736-0.8088-2.498-1.7884-3.3846-0.77527-0.70161-0.79325-0.70188-1.2916-0.0202-0.81164 1.11-0.62408 2.5601 0.43929 3.3966 1.2578 0.98936 2.6408 0.99365 2.6408 8e-3zm25.457 0.0178c0.89284-0.89284 0.89108-1.5539-9e-3 -3.5385-0.63102-1.3907-0.77719-1.5114-1.3026-1.0757-0.56848 0.47144-1.5564 2.4519-1.5564 3.1201 0 0.47198 1.4306 2.2112 1.8188 2.2112 0.18289 0 0.65524-0.3227 1.0496-0.71711zm24.669-4.0158c0.90597-0.90597 0.24554-3.3135-1.2902-4.7034-0.91182-0.82518-1.2482-0.35012-1.207 1.7044 0.0579 2.8797 1.2203 4.2758 2.4972 2.9989zm-102.19-10.316c1.6268-1.9005 1.5431-2.129-0.47175-1.2872-1.2652 0.52862-2.6818 2.3893-2.6842 3.5257-1e-3 0.57893 0.0707 0.58789 0.80541 0.10028 0.44371-0.29449 1.5014-1.347 2.3505-2.3389zm128.1-0.38182c1.1608-0.62127 0.90922-2.3057-0.47176-3.1581-1.3633-0.84149-4.4855-1.6961-4.8532-1.3284-0.47934 0.47934 1.5612 3.5309 2.8083 4.1997 1.4256 0.76452 1.5892 0.78318 2.5166 0.28685zm-509.25-11.461c0.90195-1.0212 1.9105-3.6016 1.6852-4.3116-0.12333-0.3886-0.62877-0.80808-1.1232-0.93218-2.7791-0.6975-5.0186 3.2479-3.3547 5.9101 0.74523 1.1924 0.76037 1.1977 1.5351 0.53783 0.43037-0.36651 0.99625-0.90841 1.2575-1.2042zm-26.385-2.9581 1.4277-1.7032h-1.4676c-2.0347 0-2.9018 0.92731-2.9018 3.1033v1.6691l0.75702-0.68304c0.41637-0.37567 1.3995-1.4494 2.1847-2.3862zm501-4.482c-0.25194-0.73951-0.72105-4.6522-1.0425-8.695-0.32142-4.0427-0.81458-9.69-1.0959-12.549-0.28133-2.8595-0.61056-6.5705-0.73161-8.2468-0.44337-6.1398-3.16-23.789-5.4085-35.138-2.9165-14.721-4.0519-23.563-5.3409-41.592-0.79771-11.158-1.173-14.309-2.3432-19.674-0.57508-2.6365-1.3857-7.719-1.8013-11.294-0.41564-3.5754-1.2267-8.9754-1.8023-12-0.57564-3.0246-1.0466-5.6062-1.0466-5.7369 0-0.13077-0.44371-0.25664-0.98602-0.27982-0.54232-0.0232-2.3575-0.62551-4.0337-1.3386l-3.0477-1.2964-8.7185-5e-3c-5.6327-4e-3 -8.9777 0.13268-9.4508 0.38588-1.7012 0.91048-4.2785 8.929-5.8667 18.253-1.6301 9.5699-1.6741 10.433-2.0297 39.8-0.64841 53.558-0.52798 72.488 0.48669 76.502 0.19252 0.76145 0.78269 1.7878 1.3115 2.2808 1.6114 1.5023 6.1344 3.976 10.105 5.5262 2.0706 0.80853 6.8305 2.8061 10.577 4.4391 4.5754 1.994 7.9311 3.2139 10.219 3.7147 1.8734 0.41012 5.0198 1.3904 6.9918 2.1782 1.972 0.78791 3.787 1.4369 4.0332 1.4423 0.24624 5e-3 1.8597 0.62908 3.5856 1.3861 4.7973 2.1044 7.4172 3.2155 7.6675 3.2518 0.12481 0.0182 0.0209-0.57211-0.2311-1.3116zm14.167-0.83127c4.3942-0.86177 13.071-3.0726 13.991-3.5648 0.35095-0.18783 0.81928-1.1083 1.0471-2.0579 0.22669-0.94494 0.94538-3.0405 1.5971-4.6569l1.185-2.9388-0.8091-0.76011c-1.6301-1.5314-5.1278-9.5853-5.7076-13.143-0.16372-1.0045-0.46492-1.5784-0.90098-1.7168-1.9721-0.62591-6.3776-7.8264-8.2174-13.43-0.88844-2.7063-1.3522-10.016-0.80854-12.745 0.34679-1.7403 0.3168-1.8524-1.0382-3.8815-2.0677-3.0964-3.8592-8.9596-4.1505-13.583l-0.2325-3.6905-1.6862-1.8016c-1.9173-2.0484-2.743-4.1705-3.973-10.21-0.83504-4.1003-0.78887-8.3615 0.12427-11.474 0.42666-1.4541 0.40136-1.7906-0.25616-3.4063-0.66172-1.626-0.73013-2.5791-0.73549-10.246-5e-3 -8.2001 0.0202-8.5094 0.86215-10.308 0.47742-1.0201 0.97817-1.8548 1.1128-1.8548 0.13457 0 0.0146-0.84707-0.2667-1.8824-0.28127-1.0353-0.6445-4.464-0.80715-7.6193-0.25936-5.0315-0.76171-8.0675-1.3349-8.0675-0.0981 0-0.61819 0.3131-1.1556 0.69577-2.4368 1.7352-6.7326 1.6932-9.4199-0.092-1.3805-0.91707-2.8044-3.5028-2.793-5.072 0.0169-2.3436 2.4146-6.0049 4.7252-7.2154 2.1302-1.116 5.2032-0.42337 7.6405 1.722 1.9564 1.7221 2.6857 3.1853 2.6857 5.3884 0 0.84988 0.24717 1.8981 0.54925 2.3294 1.2486 1.7826 1.676 3.9152 1.978 9.868 0.16766 3.3058 0.39062 6.1494 0.49547 6.3191 0.10489 0.16963 0.94712-0.0745 1.8717-0.54266 0.9246-0.46809 2.1782-0.85083 2.7856-0.85052 1.5064 7.6e-4 3.5092 1.0638 4.0523 2.1508 0.9486 1.8985 0.32269 5.1673-1.2592 6.576-1.8107 1.6124-5.4455 1.4405-7.3753-0.34893l-0.91936-0.85248-0.46182 0.80863c-0.53091 0.92962-0.66128 12.908-0.17167 15.773l0.29014 1.6982 1.0845-0.80178c0.93147-0.68869 1.5345-0.8018 4.2745-0.8018 3.1203 0 3.2155 0.0255 4.3541 1.164 0.93537 0.93536 1.164 1.4535 1.164 2.6376 0 1.7731-1.1391 2.9426-3.4796 3.5729-1.3478 0.36292-4.962 0.32961-6.3421-0.0584-1.3204-0.37126-1.451 6.8752-0.2215 12.295 0.91655 4.0404 1.2557 4.9052 2.5212 6.4277l0.7811 0.93984 0.43137-1.6128c0.51953-1.9425 2.0734-3.5018 3.815-3.8286 2.4684-0.46306 4.4644 1.3767 4.7531 4.3809 0.32847 3.4183-1.5001 5.4555-4.897 5.4555h-1.8271l7e-3 2.4202c9e-3 3.4939 1.2633 8.0048 3.1021 11.155l0.91272 1.5637 0.61893-0.9435c0.87155-1.3286 2.7173-2.6095 4.1467-2.8776 1.6755-0.31434 3.6607 0.56484 4.1587 1.8418 0.55792 1.4305 0.44349 3.9904-0.2239 5.0089-1.2759 1.9473-4.3781 2.8334-6.7554 1.9296-0.87992-0.33455-0.89663-0.30654-1.1221 1.8824-0.64941 6.3041 2.3357 15.631 6.3556 19.857l1.0855 1.1413 0.8802-1.7663c1.1714-2.3507 2.5786-3.3106 5.1231-3.4947 1.9096-0.13813 2.0738-0.0834 2.9815 0.99544 0.69619 0.82737 0.96063 1.5419 0.96063 2.5956 0 2.8277-2.1615 4.8321-5.6328 5.2234-0.9036 0.10191-1.5383 0.35923-1.5383 0.6238 0 1.6408 3.1283 9.126 4.5455 10.876l0.68043 0.8403 1.4208-1.8878c2.081-2.765 3.0683-3.3805 5.4222-3.3805 1.7214 0 2.0886 0.12996 2.8422 1.006 1.5852 1.8429 1.0111 4.8943-1.2842 6.8257-1.3383 1.1261-3.1561 1.6653-5.6232 1.668l-1.8566 1e-3 -0.70294 1.8824c-1.0794 2.8905-1.6358 4.9137-1.4128 5.1368 0.18128 0.18128 4.9109-1.0572 16.048-4.2023 2.0706-0.58476 7.0725-1.7071 11.115-2.494 17.21-3.3501 21.768-4.3686 29.581-6.6101 17.495-5.0192 25.006-6.6191 36.897-7.8584 6.7092-0.69926 11.749-1.5576 22.427-3.8197 9.0538-1.918 26.148-6.541 30.295-8.1929 1.3915-0.55434 6.3521-2.2536 11.024-3.7761 4.6715-1.5225 8.7506-3.0521 9.0646-3.3991 0.88686-0.97997 1.0226-3.7835 0.38264-7.9004-0.3219-2.0707-0.9846-6.7498-1.4726-10.398-0.48805-3.6483-1.2008-8.0854-1.5838-9.8603-0.38306-1.7748-1.0264-5.1632-1.4296-7.5296-1.0707-6.2839-1.1721-6.7429-3.5252-15.956-1.6245-6.3602-2.2124-9.349-2.3982-12.191-0.95954-14.676-1.6107-20.479-3.1989-28.505-2.5627-12.952-3.0757-15.145-4.5714-19.541-1.1353-3.3373-1.4673-4.9436-1.7416-8.426-0.61654-7.8293-2.3334-18.395-3.598-22.142-0.38292-1.1347-0.69622-2.69-0.69622-3.4562 0-1.9286-0.94726-3.0059-2.7224-3.0959-3.3388-0.16938-10.524 1.5238-26.858 6.3292-14.589 4.292-19.002 5.6761-22.739 7.1322-1.9806 0.77188-5.6615 1.9547-8.1797 2.6284-4.3086 1.1528-5.0332 1.2388-12.288 1.4583-14.677 0.44413-31.327 2.009-46.074 4.3304-2.9581 0.46562-7.8792 1.1147-10.936 1.4425-3.0567 0.32775-8.7039 0.99425-12.549 1.4811s-8.928 1.125-11.294 1.4181c-8.1161 1.0051-14.129 2.3899-24.92 5.7386-3.4511 1.071-7.4042 2.2847-8.7846 2.697-1.3804 0.41229-3.2978 1.1728-4.2608 1.6901l-1.7509 0.94048 0.22643 3.19c0.12454 1.7545 0.54002 5.0652 0.9233 7.357 0.38327 2.2918 0.87302 5.7805 1.0883 7.7525 0.65046 5.9578 1.0941 8.7451 2.1687 13.625 0.98632 4.4792 1.65 10.506 2.5071 22.768 0.21365 3.0567 0.53816 6.8484 0.72111 8.426s0.50236 4.724 0.7098 6.9918c0.55486 6.0662 1.5637 12.44 3.4048 21.513 1.9761 9.7379 2.893 14.855 3.5802 19.982 0.28474 2.1241 0.76054 5.4756 1.0573 7.4476 0.2968 1.972 0.79057 6.5705 1.0973 10.219 0.3067 3.6483 0.86855 9.2149 1.2486 12.37 0.38 3.1553 0.79291 7.3504 0.91757 9.3224 0.24945 3.9462 0.68573 6.1106 1.3095 6.4961 1.4233 0.87967 5.1812 0.68658 11.764-0.60445zm76.731-44.806c-8.8522-0.89399-14.203-2.5468-23.404-7.2286-8.7366-4.4458-13.307-9.9868-18.72-22.694-2.4332-5.712-3.0524-9.0084-3.3014-17.575-0.22905-7.8791 0.11153-12.111 1.5097-18.758 0.95922-4.5601 1.7231-6.1283 6.3936-13.126 3.4071-5.1048 7.3879-9.2346 10.468-10.86 1.1925-0.62918 4.6615-2.0254 7.709-3.1028 3.0474-1.0774 6.7509-2.3964 8.2299-2.9311 3.9415-1.4251 12.081-3.034 15.341-3.0324 3.6493 1e-3 9.0998 0.8974 9.5967 1.5768 0.21298 0.29127 1.494 0.94615 2.8467 1.4553 1.3527 0.50915 3.843 1.7845 5.534 2.834 1.691 1.0496 3.8789 2.366 4.8621 2.9254 2.5349 1.4424 4.9601 3.8243 7.4289 7.2962 1.174 1.651 2.9759 4.0219 4.0042 5.2685 2.284 2.7689 4.8308 7.5485 6.1968 11.629l1.0202 3.0477-0.0239 11.294c-0.0232 10.974-0.0556 11.476-1.139 17.687-1.2608 7.2282-2.0906 9.3697-5.6507 14.583-3.9463 5.7786-5.4792 7.436-10.044 10.86-5.6832 4.2628-9.5115 6.5559-13.181 7.8952-2.6529 0.96832-3.4358 1.0859-7.7898 1.1696-2.6623 0.0512-6.212-0.0454-7.8882-0.21474zm12.275-2.116c3.1663-0.80979 6.0841-2.2184 10.314-4.9793 7.1012-4.6347 9.3218-6.6279 13.254-11.897 4.5822-6.1396 4.9917-7.1664 7.0778-17.748 0.93334-4.7346 0.98991-5.58 0.99566-14.88 5e-3 -9.2077-0.0481-10.05-0.81391-12.729-1.1656-4.0773-3.7108-9.0224-6.1218-11.894-1.1384-1.3558-2.893-3.6851-3.8991-5.176-1.6755-2.483-4.5934-5.5035-6.3697-6.5938-0.3944-0.24208-2.1166-1.3381-3.827-2.4356-1.7104-1.0975-4.4534-2.585-6.0954-3.3056-1.642-0.72063-3.2276-1.5238-3.5234-1.7849-0.74971-0.66173-6.1859-1.618-9.198-1.618-3.4635 0-9.6735 1.1765-13.942 2.6414-17.888 6.1388-19.134 6.7868-23.432 12.188-2.6614 3.3446-6.87 10.47-7.7899 13.188-2.0766 6.1365-2.4693 9.1502-2.4693 18.954 0 10.336 0.35948 12.885 2.5784 18.286 3.1055 7.5589 6.8548 13.535 10.852 17.298 3.4239 3.2231 6.9724 5.3 14.716 8.6131 4.9395 2.1134 5.4073 2.2502 11.294 3.3028 8.2531 1.4756 12.307 1.6166 16.398 0.57033zm-40.887-22.148c-3.3878-5.166-6.7133-13.245-7.6233-18.52-0.26044-1.5099-0.3579-4.4827-0.25269-7.709 0.14167-4.3448 0.36497-6.0028 1.2936-9.6042 1.1521-4.4681 2.8919-9.0146 4.4764-11.698 1.0504-1.7787 5.1035-6.3399 7.203-8.106 1.8066-1.5197 4.9487-3.004 6.0332-2.85 0.48906 0.0694 0.84651 0.39849 0.90378 0.83198 0.0743 0.5625-0.33828 0.90357-1.9137 1.582-2.4954 1.0746-4.4803 2.6987-7.7491 6.3408-3.325 3.7046-5.2468 7.6569-6.9212 14.233-1.1944 4.6912-1.2592 5.2564-1.2592 10.988 0 5.0945 0.11627 6.4186 0.7411 8.4416 1.2396 4.0133 4.5202 10.954 6.638 14.044 2.1313 3.1095 2.433 4.5122 1.014 4.715-0.58791 0.084-1.1464-0.49729-2.5838-2.6892zm25.504-15.129c-1.4658-0.3781-4.0234-1.8856-5.032-2.9659-1.0407-1.1146-1.8995-3.2198-1.8995-4.656 0-1.6845 1.0438-5.6145 1.9852-7.4744 1.037-2.0488 3.6485-4.6545 5.8848-5.8716 2.525-1.3743 4.4753-1.5402 7.4574-0.63445 3.1117 0.94514 5.2563 2.7598 6.9174 5.8532 1.0773 2.0062 1.2162 2.5751 1.21 4.9556-8e-3 3.0967-0.7229 4.8199-3.0435 7.3375-2.1405 2.3222-5.0886 3.5005-9.1024 3.6381-1.7827 0.0611-3.7525-0.0207-4.3772-0.18188zm9.5085-3.1478c2.2917-1.172 4.1367-3.3484 4.741-5.5924 1.4931-5.5448-3.7818-11.484-9.6752-10.893-2.2384 0.22429-5.087 1.9617-6.7142 4.0951-1.2296 1.612-2.6403 5.4322-2.6403 7.1496 0 1.5674 1.3851 4.0579 2.7566 4.9565 2.9358 1.9236 8.0789 2.0504 11.532 0.28434zm-79.883-61.133c-2.0333-1.0646-2.9204-2.2987-3.1562-4.3914-0.15935-1.4138 0.0108-2.0686 1.1151-4.304 0.71667-1.4501 1.303-2.8047 1.303-3.0103 0-0.20557 0.4977-0.72815 1.106-1.1613 0.95416-0.67943 1.4402-0.76363 3.5404-0.61337 4.4737 0.32011 6.5732 2.1582 6.6231 5.7985 0.0202 1.4692 0.19528 1.9757 0.89184 2.5786 1.1236 0.97255 0.80916 2.1223-0.4912 1.796-0.70415-0.17675-0.96313-0.0313-1.3412 0.75318-1.3658 2.8338-6.4636 4.1914-9.5908 2.5541zm6.6346-2.8268c1.1728-1.1017 1.1006-1.6369-0.25707-1.9084-1.4143-0.28287-2.0959-0.83351-2.0959-1.6933 0-0.8488 1.3222-1.1998 2.6369-0.69992 1.3445 0.51119 1.3072 0.53437 1.3072-0.814 0-2.0803-2.502-3.6089-5.2476-3.2059-0.90539 0.13294-1.2596 0.51984-2.2371 2.4442-1.6763 3.3-1.8079 4.5521-0.59632 5.675 1.132 1.0491 1.9516 1.2768 4.0696 1.1303 1.0094-0.0698 1.8496-0.39196 2.4202-0.92804zm19.981-1.444c-0.83028-0.411-2.0993-1.3999-2.8199-2.1976-1.1944-1.3221-1.2957-1.5969-1.1453-3.1069 0.27656-2.7762 1.5488-5.1818 3.5595-6.7305 0.98537-0.759 2.1018-1.6624 2.481-2.0075 0.78159-0.71139 1.1522-0.76605 2.0388-0.3007 0.34243 0.17972 1.3788 0.59252 2.3029 0.91732 2.0809 0.73135 4.0506 2.8318 4.6125 4.9187 0.79074 2.9366-0.6467 6.7076-3.2171 8.4398-1.661 1.1193-5.6184 1.1535-7.8124 0.0675zm6.9459-2.5173c1.2203-1.1251 1.9141-2.8119 1.9141-4.6538 0-1.2503-0.22228-1.7102-1.392-2.8799-0.76561-0.76562-1.7285-1.392-2.1398-1.392-0.67065 0-0.73971 0.18902-0.66965 1.8327 0.0587 1.377-0.0705 1.9291-0.5193 2.2202-1.018 0.66024-1.7332-0.29884-1.7332-2.3243v-1.7691l-1.0239 0.60483c-1.2 0.70887-2.9202 3.9813-2.9202 5.5554 0 3.1618 5.96 5.1331 8.484 2.8061zm22.172-1.0117c-1.7008-0.41002-4.0487-2.0684-4.6934-3.315-0.57356-1.1091-0.55536-2.5747 0.0665-5.3553 0.18458-0.82537-8e-3 -1.0694-1.6398-2.0732-1.9086-1.1744-2.195-1.9316-1.0124-2.6764 0.46763-0.29447 0.94461-0.19513 2.0523 0.42744l1.4431 0.81106 1.0558-0.78055c0.75677-0.55951 1.7495-0.82967 3.5053-0.95397 5.8585-0.41478 8.8586 2.1635 8.8612 7.6153 1e-3 2.8377-0.5612 4.2286-2.3029 5.6942-0.98952 0.83262-1.4077 0.93493-3.6881 0.90239-1.4146-0.0202-3.0561-0.1534-3.6477-0.29602zm5.9801-2.847c1.029-0.91939 1.1668-1.2764 1.3-3.3686 0.1443-2.2662 0.10896-2.3839-1.1177-3.7225-1.2559-1.3705-1.293-1.3834-4.342-1.5087-2.7679-0.11379-3.0753-0.062-3.0753 0.51821 0 0.35456 0.42433 1.0876 0.94296 1.6289 0.56394 0.58862 0.85671 1.209 0.72836 1.5435-0.24897 0.64882-1.347 0.74011-1.9269 0.16021-0.58347-0.58347-1.1034-0.10982-1.5147 1.3799-0.41251 1.494 0.0417 2.2486 1.9465 3.2336 2.9217 1.5109 5.465 1.5597 7.059 0.13551zm24.441 0.62211c-1.9699-0.3463-3.9978-1.4175-5.3223-2.8114-0.91406-0.96198-1.0747-1.4113-1.0691-2.9909 8e-3 -2.2311 0.74174-3.8095 2.7814-5.9822 1.4948-1.5924 1.5452-1.6135 3.8453-1.6107 3.9501 5e-3 6.7926 2.1883 7.3584 5.6528 0.16181 0.99058 0.56573 1.7751 1.1661 2.2649 1.169 0.95372 0.89048 2.1307-0.42605 1.8003-0.70472-0.17687-0.98849 4e-3 -1.5825 1.0112-1.3098 2.2199-3.7678 3.1905-6.7513 2.666zm2.8463-2.5859c0.63458-0.26526 1.3673-0.73979 1.6283-1.0545 0.4171-0.50294 0.30861-0.59982-0.89639-0.80058-1.973-0.32872-2.259-0.45085-2.4948-1.0653-0.4222-1.1002 0.59752-1.7079 2.4529-1.4618 1.7152 0.22752 1.7187 0.22582 1.7187-0.82814 0-1.4254-1.6106-2.7373-3.986-3.2467-1.0206-0.21887-1.89-0.35426-1.932-0.30087-0.042 0.0534-0.82523 0.94953-1.7404 1.9914-1.2484 1.4212-1.664 2.1849-1.664 3.0576 0 3.06 3.7077 5.049 6.9137 3.7089zm19.44-3.3086c-2.5624-1.3327-3.6526-3.3698-3.2756-6.1204 0.27229-1.9866 0.90545-3.2098 2.7897-5.3892 1.7831-2.0624 2.9704-2.6273 5.5227-2.6273 1.5751 0 1.9453-0.12152 2.1285-0.69877 0.26237-0.82666 1.5362-1.3206 2.0585-0.79824 0.2503 0.25031 0.24852 0.70691-5e-3 1.436-0.32486 0.93191-0.2611 1.1737 0.49732 1.8862 1.2793 1.2018 1.6585 3.0075 1.0856 5.1694-0.57879 2.1842-2.0569 5.1581-2.9769 5.9893-1.8319 1.6552-5.7488 2.2323-7.8242 1.1529zm4.6505-2.0977c2.3297-0.9734 4.6692-5.539 3.9218-7.6533-0.51552-1.4583-1.1309-1.3387-2.1977 0.42738-1.7071 2.8262-3.927 1.8915-2.2847-0.96198 0.9276-1.6117 0.83816-1.8548-0.56875-1.5458-1.2114 0.26607-4.1434 3.6497-4.4384 5.1221-0.30869 1.5408 0.24786 3.0527 1.5225 4.1359 1.3035 1.1077 2.2626 1.2205 4.0451 0.47578zm17.057-2.0882c-1.5669-0.56757-3.2279-2.8842-3.4948-4.8746-0.3036-2.2634 0.66415-4.3661 2.9862-6.4884 2.1306-1.9472 4.5101-2.9619 5.2383-2.2337 0.23032 0.23032 0.71719 0.41876 1.082 0.41876 1.1185 0 2.654 0.98958 3.425 2.2073 0.57966 0.91551 0.98354 1.1627 1.9261 1.1787 0.93642 0.01591 1.2161 0.18459 1.3017 0.78516 0.0819 0.57375-0.15938 0.85848-0.96523 1.1394-0.81984 0.28579-1.1621 0.70045-1.4448 1.7505-0.54703 2.0315-2.2742 4.5488-3.7445 5.4574-1.5631 0.96606-4.59 1.2824-6.3099 0.65937zm6.1281-3.5174c0.71632-0.77596 1.3798-1.7067 1.4743-2.0683 0.15749-0.60228 0.0396-0.62716-1.4054-0.29652-1.3249 0.30318-1.6746 0.26363-2.1854-0.24709-0.82186-0.82185-0.23368-1.724 1.3814-2.1187 2.209-0.53989 2.2555-0.57186 1.738-1.1955-0.25553-0.30789-1.0804-0.87398-1.8332-1.258-1.3562-0.6919-1.3809-0.6919-2.7376 2.42e-4 -2.0063 1.0235-4.0093 3.3782-4.0093 4.7133 0 0.88108 0.84439 3.1914 1.1745 3.2135 0.0442 3e-3 0.72583 0.23978 1.5146 0.52625 2.0196 0.73345 3.3606 0.38524 4.8879-1.2693zm-594.36 169.41c0.30186-0.63611 0.54883-1.5457 0.54883-2.0213 0-1.0626-1.7282-2.7917-2.7902-2.7917-1.9494 0-2.5716 3.7049-1.1242 6.6947l0.81165 1.6767 1.0025-1.2009c0.55139-0.66048 1.2495-1.7213 1.5514-2.3574zm-80.843-4.0959c0-1.0039-0.0898-1.0757-1.3446-1.0762-1.8998-7.8e-4 -3.741-1.03-4.4891-2.5093-0.56687-1.121-0.61069-1.9823-0.41044-8.0675 0.2757-8.3782 0.47844-8.977 3.3757-9.9693 1.2955-0.44371 2.5254-0.61404 3.585-0.4965 2.2378 0.24827 3.3648 1.684 5.4559 6.9512 2.6265 6.6156 2.9619 9.177 1.4948 11.416-0.644 0.98289-3.218 2.3173-4.47 2.3173-0.49184 0-0.68738 0.2518-0.68738 0.88514 0 0.54365 0.17291 0.83118 0.44819 0.74529 6.0238-1.8796 12.208-4.473 16.259-6.8181 2.847-1.6482 7.4117-5.3512 9.7725-7.9277 2.7668-3.0195 4.1059-5.6912 5.0681-10.112 2.8544-13.114 3.441-14.801 7.5475-21.708 2.9218-4.9144 5.2945-7.246 9.8605-9.689 1.965-1.0514 5.1862-2.8786 7.1583-4.0605 6.4945-3.8923 10.705-6.1591 14.477-7.7935 4.3173-1.8709 5.8387-2.8581 8.4883-5.5077 2.1921-2.1921 3.7081-4.9892 3.8379-7.0812l0.08863-1.4286-2.5099 0.0501c-2.0315 0.0406-3.0638 0.29518-5.416 1.3356-5.5672 2.4624-11.841 3.4845-17.22 2.8051-4.013-0.50686-6.3687-1.5671-7.9678-3.5861-1.1486-1.4502-3.6386-6.3352-3.6386-7.1383 0-0.97133-0.84219-0.32759-4.5056 3.444l-3.7903 3.9023-2.0371-0.0772c-1.9365-0.0733-2.1317 3e-3 -3.9521 1.5316-1.0532 0.88482-1.9942 1.8152-2.091 2.0675-0.0968 0.25232 0.48256 1.4286 1.2875 2.6139 2.36 3.4753 1.912 4.2929-2.4332 4.4405-2.0875 0.0709-2.6647-0.0435-3.5638-0.70624l-1.0728-0.79088-5.1725 5.1003c-2.8448 2.8052-5.4651 5.547-5.8228 6.0929-0.6329 0.96593-0.63096 1.0139 0.0719 1.786 2.4231 2.6617 1.895 6.6158-0.96756 7.2445-0.72982 0.16029-1.5824-0.0172-2.7744-0.57776-0.94645-0.44504-1.8466-0.81914-2.0003-0.83135-0.15372-0.0122-1.9712 2.156-4.0387 4.8183l-3.7592 4.8405 1.9723 0.22105c1.0848 0.12156 2.2271 0.43253 2.5385 0.691 2.3046 1.9127 1.9982 6.7306-0.51065 8.028-1.2293 0.63572-3.147 0.72813-4.4927 0.21653-0.49927-0.18982-1.4096-1.0369-2.023-1.8824-0.88019-1.2132-1.0815-1.8018-0.95493-2.7922 0.10918-0.85451-0.0765-1.6554-0.58198-2.5099-1.3836-2.339-7.1387-9.4848-10.42-12.938-2.9777-3.1338-3.4079-3.4558-4.8791-3.653-1.2046-0.16149-1.8737-0.50749-2.6402-1.3653-0.91411-1.023-1.0077-1.3473-0.85302-2.9568 0.14978-1.5589 0.38193-2.002 1.6863-3.2187 1.3648-1.273 1.6524-1.3922 2.9426-1.2192 0.78646 0.10543 1.7235 0.45744 2.0822 0.7821 0.826 0.74752 1.4352 3.2255 1.1824 4.8101-0.15461 0.96953-0.0933 1.1572 0.30241 0.925 1.1806-0.69268 3.935-2.5899 6.6682-4.5929l2.9448-2.1582-1.444-1.5665c-0.79418-0.86159-1.3933-1.8238-1.3313-2.1383 0.062-0.31447 0.72372-1.066 1.4706-1.67 1.1339-0.91709 1.7454-1.1229 3.7072-1.2479 1.9393-0.12346 2.5184-0.0245 3.319 0.56736l0.96973 0.71697 14.455-11.204-0.82877-0.89763c-1.1439-1.2389-2.7216-3.6634-2.7216-4.1823 0-0.74879 1.0921-1.5559 2.1052-1.5559 0.53809 0 1.156-0.17768 1.3732-0.39483 0.69028-0.69027 2.5908 0.0367 4.0408 1.5456l1.3881 1.4446 4.3193-3.3236-0.68921-1.5183c-1.0989-2.4209-0.80188-4.1837 0.71132-4.2212 0.30567-8e-3 1.3625-0.74316 2.3485-1.6346 0.98602-0.89148 4.1901-3.5879 7.1201-5.992s5.7536-4.7334 6.2747-5.1761l0.94739-0.80497-1.6351-1e-3c-1.5379-1e-3 -1.8065-0.1614-4.5199-2.6876-4.6724-4.3502-6.304-8.3824-6.3127-15.6-3e-3 -2.7737 0.24484-4.8813 0.94268-8.0057 0.52097-2.3325 0.85357-4.6141 0.73911-5.0701-0.11446-0.45607-0.68971-1.2906-1.2783-1.8545-0.94297-0.90342-1.3338-1.0249-3.2876-1.0214-1.9201 3e-3 -2.5059 0.18032-4.3688 1.3195-2.5689 1.571-3.406 2.4196-7.7711 7.878-3.6907 4.615-8.0582 11.66-10.529 16.983-1.6152 3.48-2.6494 4.989-7.7748 11.344-3.6254 4.4949-5.8996 6.5066-9.2737 8.2031-4.0099 2.0161-6.483 2.7512-12.601 3.7454-3.0114 0.48936-7.1694 1.3047-9.2401 1.8118-2.0706 0.50714-5.0556 1.1655-6.6333 1.4629-1.5776 0.29747-3.7355 0.93391-4.7953 1.4143-4.1694 1.8901-9.6443 7.5523-11.16 11.542-0.79037 2.0801-3.0106 12.805-3.6142 17.458-0.53802 4.1478-0.24109 12.584 0.54335 15.437 0.84175 3.0619 4.2853 11.573 6.3492 15.694 3.7236 7.4333 10.704 18.044 13.863 21.073 1.5637 1.4992 9.3956 6.2001 12.287 7.3749 2.0134 0.81812 8.6944 2.475 11.088 2.7499 0.69022 0.0793 4.1996 0.16994 7.7986 0.2015l6.5436 0.0573zm15.422-19.353c-1.0931-0.26738-2.5139-2.2857-2.5139-3.5712 0-0.52066 0.36304-1.6666 0.80675-2.5465l0.80675-1.5998 1.972 0.10827c2.3687 0.12997 3.4684 0.77868 4.171 2.4603 0.5944 1.4226 0.22625 3.185-0.87315 4.1799-0.79038 0.71529-3.2117 1.2523-4.3695 0.96908zm8.523-14.778c-1.1859-1.0072-1.7163-2.3564-1.709-4.3471 7e-3 -1.8695 0.17246-2.1181 2.0419-3.0658 2.2438-1.1375 3.4866-0.9596 5.3871 0.7711 1.5934 1.451 1.3712 4.6477-0.44141 6.3506-1.3114 1.232-3.9966 1.3801-5.2786 0.29122zm398.29 29.327c1.6687-1.6686 1.6265-2.3819-0.12549-2.1216-2.2938 0.34088-3.668 1.5494-3.187 2.8028 0.36712 0.9567 2.013 0.6182 3.3125-0.68126zm-422.59 0.23949c0-0.14437-0.43157-2.2318-0.95903-4.6386-0.79484-3.6269-0.8794-4.4721-0.49393-4.9366 0.66693-0.8036 1.7151-0.69081 2.2891 0.24633 0.27175 0.44372 0.78921 2.743 1.1499 5.1094s0.68935 4.3524 0.73036 4.4133c0.041 0.0608 0.65097-0.13024 1.3555-0.42456 2.2738-0.95006 2.1701-2.8489-0.53048-9.7109-1.7963-4.5644-2.3178-5.0602-4.6209-4.3933l-1.5736 0.4556-0.15973 5.3678c-0.23682 7.9587-0.24943 7.7455 0.49013 8.2863 0.70365 0.51453 2.3227 0.67152 2.3227 0.22524zm560.72-4.0114c1.474-0.75195 2.3288-2.121 1.8292-2.9294-0.26109-0.42244-0.52364-0.38978-1.6221 0.20181-1.1759 0.63325-3.0192 2.5753-3.0192 3.1809 0 0.46259 1.4865 0.22298 2.8121-0.45328zm-452.24-1.9984c0.49439-2.6354-0.76484-4.3001-2.0511-2.7116-0.89681 1.1075-0.83106 2.0342 0.21883 3.0841 1.185 1.185 1.5542 1.11 1.8323-0.37249zm18.608-15.67c0.66991-1.9455 0.67434-2.1026 0.09351-3.3206-1.7568-3.684-6.3618-2.5577-6.4187 1.5699-0.02493 1.8062 0.68996 2.6908 2.7861 3.4479 2.284 0.82489 2.747 0.60283 3.539-1.6973zm426.43 0.91369c0.96059-1.0521 0.99038-1.3258 0.22723-2.089-0.50366-0.50366-0.67963-0.51405-1.3446-0.0793-0.42078 0.2751-1.1461 1.1804-1.6118 2.0119l-0.84671 1.5117 1.3846-0.23583c0.78546-0.13376 1.7336-0.61815 2.1913-1.1194zm-547.92-13.654c-0.36448-0.36448-0.66521 0.18426-0.36616 0.66812 0.2259 0.36552 0.31035 0.3658 0.4318 1e-3 0.0831-0.24912 0.0535-0.55043-0.0656-0.66958zm407.57-0.86029c0.43076-0.22255 1.0694-0.65439 1.4191-0.95964 0.82653-0.72133 0.23296-1.1326-1.6456-1.1401-1.7048-7e-3 -2.7552 0.53124-2.7552 1.4115 0 1.0632 1.5593 1.4232 2.9816 0.68831zm-268.57-5.4435c0.10597-0.65281 0.047702-1.9839-0.12942-2.9581-0.56895-3.1293-3.5549-4.8189-5.3477-3.0261-2.1498 2.1498 0.89162 7.1685 4.3454 7.1706 0.78535 4.6e-4 0.97065-0.19379 1.1317-1.1864zm-138.64-6.446c1.4547-1.733 2.6449-3.257 2.6449-3.3867 0-0.12969-0.42012-0.67418-0.93359-1.2101l-0.93358-0.97445-2.3625 2.7476c-1.2994 1.5112-3.1578 3.6058-4.1297 4.6546l-1.7672 1.907 1.0106 1.0548 1.0106 1.0548 1.4078-1.3483c0.77431-0.74157 2.598-2.7663 4.0527-4.4993zm-8.6435 0.96263c0.48252-0.31615 2.428-2.2695 4.3234-4.3408l3.4461-3.766-1.1841-1.2217c-0.65124-0.6719-1.2855-1.1791-1.4095-1.1272-0.12398 0.052-2.0281 2.1008-4.2314 4.5528l-4.006 4.4583 0.96729 1.0096c1.1385 1.1884 0.99093 1.1577 2.0942 0.43481zm547.17-0.30525c0.90311-0.90311 1.1759-2.4803 0.50116-2.8973-0.68266-0.4219-2.0692 0.17367-2.8028 1.2039-1.0437 1.4658-1.0533 1.9392-0.0453 2.2371 1.37 0.4049 1.4068 0.39639 2.3469-0.54369zm-544.56-13.342-0.96171-0.96171-1.373 0.95153c-0.75518 0.52333-2.8639 2.1749-4.6861 3.6701l-3.3131 2.7185 2.7003 3.1442 8.5954-8.5609zm14.776 9.0103c0-0.30275-0.25875-0.94535-0.57501-1.428l-0.57501-0.87758-0.66795 0.80055c-0.65397 0.7838-0.65236 0.8137 0.0769 1.428 0.91935 0.77447 1.7411 0.81083 1.7411 0.077zm-3.6621-4.7712-0.90112-1.0709-0.76137 0.76138-0.76136 0.76136 0.96491 1.0072c0.9559 0.99774 0.97141 1.0006 1.6625 0.30956 0.69107-0.69108 0.68917-0.70758-0.20355-1.7685zm269.26-1.1745c3.8748-0.37553 5.6313-0.37529 9.5017 1e-3 2.6115 0.25411 6.3888 0.54916 8.3939 0.65567 5.6894 0.30221 5.5261 0.64773 7.1532-15.136 0.74782-7.2541 0.87862-9.8871 0.68575-13.804-0.13104-2.6623-0.22164-5.4724-0.20127-6.2446 0.0203-0.7723-0.12589-2.8698-0.32505-4.6612-0.19915-1.7914-0.37754-6.686-0.3964-10.877-0.0335-7.4436-0.0524-7.6298-0.81624-8.0477-1.6516-0.90354-26.646-1.1023-30.091-0.23927-1.7372 0.43506-2.2639 1.485-2.5838 5.1503-0.13771 1.5776-0.46602 4.3206-0.72959 6.0954-0.54959 3.7009-1.0971 17.849-1.0476 27.071 0.0229 4.2708 0.23218 7.3626 0.65522 9.681 0.34185 1.8734 0.85568 4.9281 1.1418 6.7881 0.28614 1.86 0.7084 3.6085 0.93835 3.8856 0.27665 0.33335 0.84936 0.44275 1.693 0.3234 0.7012-0.0992 3.414-0.38767 6.0284-0.64106zm5.286-1.9805c-10.669-0.66126-12.153-1.1434-13.285-4.318-0.61013-1.7108-0.68122-11.395-0.13623-18.56 0.50639-6.6574 0.4389-6.4288 2.1217-7.1876 1.313-0.59209 1.8283-0.61476 5.6549-0.2487 2.3157 0.22153 5.7572 0.39778 7.6478 0.3917 3.3366-0.0109 6.7018 0.60566 11.145 2.0415 2.7003 0.87258 2.9502 1.5232 3.1062 8.0887 0.1578 6.6401-0.45329 15.971-1.1561 17.653-0.27386 0.65547-0.86885 1.5373-1.3222 1.9597-0.97756 0.91074-1.8036 0.9215-13.776 0.17948zm12.855-4.4607c0.16789-1.0685 0.29316-5.5516 0.27838-9.9626-0.0362-10.798 0.0136-10.704-6.3205-12.03-2.5916-0.54254-15.794-0.43075-16.481 0.13956-0.64829 0.53802-1.0945 6.4097-1.0454 13.756 0.0595 8.9098-0.27292 8.5731 9.1004 9.2148 3.0567 0.20922 7.3324 0.5102 9.5017 0.66882 2.1693 0.15861 4.1055 0.2586 4.3027 0.22218 0.19721-0.0364 0.49593-0.94043 0.66382-2.0089zm-12.206-29.734c-1.153-0.46443-1.9784-1.9033-1.7085-2.9784 0.28165-1.1222 2.5793-3.4721 3.395-3.4721 1.4952 0 2.7976 2.8696 2.1681 4.777-0.56213 1.7033-2.1111 2.3758-3.8545 1.6736zm-10.463-6.8687c-1.9088-0.94485-2.8946-2.8308-2.9061-5.5602-7e-3 -1.4769 0.18026-2.0785 0.91541-2.9522 0.92557-1.1 3.6352-2.1847 5.4573-2.1847 1.3483 0 3.546 1.412 4.6282 2.9736 1.2777 1.8437 1.407 5.035 0.26591 6.565-1.4667 1.9668-5.5771 2.5363-8.3607 1.1585zm5.9122-2.9672c0.1091-0.28429 0.14437-0.7802 0.0783-1.102-0.0951-0.46436-0.33734-0.35767-1.1731 0.51689l-1.0531 1.102h0.97472c0.5361 0 1.064-0.2326 1.1731-0.51688zm-4.5235-2.3951c0-0.1458 0.36304-0.31665 0.80675-0.37967 1.3623-0.19347 0.98697-1.1902-0.4482-1.1902-1.2345 0-1.2564 0.0263-1.3483 1.6135-0.0867 1.5001-0.0553 1.5646 0.44819 0.91749 0.29786-0.38279 0.54154-0.81528 0.54154-0.96108zm16.693 4.2505c-2.4336-1.3784-3.8895-4.928-2.9408-7.1697 0.74472-1.7596 1.7975-2.499 3.8373-2.695 1.8151-0.17441 1.825-0.16964 3.5837 1.7334 2.3355 2.5272 2.7621 3.83 1.9501 5.9562-1.0868 2.8457-3.6911 3.7267-6.4303 2.1752zm1.5935-6.5773c0-0.69006-0.96849-0.62595-1.3695 0.0907-0.18122 0.32381-0.24423 0.91478-0.14003 1.3132 0.1853 0.7086 0.20391 0.70662 0.8495-0.0907 0.36302-0.44831 0.66005-1.0393 0.66005-1.3132zm-288.1 47.924-1.28-1.2718-0.68428 0.89639-0.68429 0.89639 2.2509 2.3268 0.83877-0.78799 0.83878-0.78799zm179.64 2.3103c5.9489-0.67291 9.3302-0.66926 14.865 0.016 3.6204 0.44822 4.5294 0.46486 4.8961 0.0896 0.24764-0.25343 0.97744-3.5264 1.6218-7.2733 1.0266-5.9701 1.1736-7.6329 1.1886-13.446 0.02534-9.8353-0.49435-23.018-1.0601-26.892-0.27364-1.8735-0.59997-4.6093-0.72518-6.0797-0.29423-3.4556-0.86538-4.5543-2.5923-4.9868-3.3448-0.83769-28.438-0.66648-30.027 0.20488-0.67845 0.37217-0.72321 0.82534-0.83034 8.4063-0.0622 4.4071-0.25294 9.3844-0.42371 11.061-0.60365 5.9254-0.79186 14.822-0.39067 18.466 0.21715 1.9721 0.63369 6.1054 0.92566 9.1852 0.69028 7.2815 1.3325 10.335 2.3459 11.156 0.98431 0.79706 3.7578 0.82232 10.206 0.093zm-6.7254-1.6402c-1.9973-1.1631-2.7763-6.0334-2.7763-17.357 0-7.9628 0.2591-9.4006 1.8471-10.251 0.45768-0.24495 2.5941-0.90063 4.7477-1.4571 4.0198-1.0387 5.3559-1.1236 18.24-1.1587 3.5516-9e-3 4.1367 0.2989 4.382 2.3112 0.622 5.1023 0.91356 13.369 0.6446 18.277-0.47686 8.7006-0.33763 8.6122-14.934 9.4756-10.803 0.63899-11.317 0.64576-12.152 0.15991zm9.9524-3.1966c9.414-0.50236 12.354-0.9009 13.249-1.7958 0.60694-0.60695 0.74078-1.4467 0.98427-6.1764 0.17076-3.3171 0.14172-6.5084-0.07372-8.0994-0.19554-1.444-0.35552-3.4205-0.35552-4.3923 0-2.9531-0.45963-3.1842-6.5436-3.2895-2.8102-0.0486-6.0775-0.0771-7.2607-0.0633-2.8863 0.0339-7.2013 1.1336-8.3606 2.1308-0.91916 0.79063-0.94832 0.95088-1.28 7.0343-0.31559 5.7886 0.06857 14.026 0.70198 15.051 0.10896 0.1762 0.55115 0.2446 0.98278 0.15199 0.43162-0.0926 4.0118-0.34058 7.9559-0.55106zm-0.73432-31.717c-0.83519-0.83519-0.94211-1.1808-0.78808-2.5474 0.39946-3.544 2.1851-4.3442 4.3491-1.9489 2.1909 2.4251 1.5982 4.7822-1.3217 5.256-1.0591 0.17188-1.4355 0.0442-2.2394-0.75969zm7.7459-6.0738c-1.9025-0.68736-2.7111-2.0378-2.6971-4.5045 0.01423-2.4989 1.1715-4.4589 3.3585-5.6881 1.6432-0.92355 2.5112-0.96494 4.9637-0.23664 2.5675 0.76246 3.68 2.155 3.6697 4.5932-0.0122 2.7536-1.0018 4.6331-2.9331 5.568-1.7894 0.86623-4.4013 0.97625-6.3617 0.26799zm1.5712-3.8282c-0.83573-0.87455-1.0779-0.98124-1.1731-0.51689-0.21032 1.0259 0.2481 1.6189 1.2515 1.6189h0.97472zm4.3529-3.0784c-0.2757-0.71845-2.5376-0.5078-2.5376 0.2363 0 0.29581 0.34093 0.58651 0.75762 0.64599 0.41669 0.0595 0.97611 0.54351 1.2432 1.0757l0.48553 0.96752 0.12671-1.1994c0.06965-0.65969 0.03578-1.4364-0.07535-1.726zm-22.403 6.2368c-1.2632-0.64918-2.2139-2.1049-2.4169-3.7009-0.15175-1.1929 0.03442-1.7277 1.2423-3.5689 1.4866-2.266 2.6001-3.0334 4.4017-3.0334 4.2278 0 5.7746 5.3104 2.542 8.727-1.839 1.9437-3.9381 2.5172-5.7691 1.5762zm4.1284-6.923c-0.20967-0.54638-1.6531-0.72237-1.6531-0.20155 0 0.17061 0.36305 0.77318 0.80676 1.339 0.80031 1.0206 0.80768 1.0223 0.92474 0.20157 0.06491-0.45501 0.02968-1.0576-0.07833-1.3391zm193.22 50.22c5.9489-0.67291 9.3302-0.66926 14.865 0.016 3.6204 0.44822 4.5294 0.46486 4.8961 0.0896 0.24764-0.25343 0.97744-3.5264 1.6218-7.2733 1.0266-5.9701 1.1736-7.6329 1.1886-13.446 0.0253-9.8353-0.49435-23.018-1.0601-26.892-0.27365-1.8735-0.59997-4.6093-0.72518-6.0797-0.29423-3.4556-0.86538-4.5543-2.5923-4.9868-3.3448-0.83769-28.438-0.66648-30.027 0.20488-0.67846 0.37217-0.72322 0.82534-0.83034 8.4063-0.0623 4.4071-0.25295 9.3844-0.42371 11.061-0.60365 5.9254-0.79187 14.822-0.39067 18.466 0.21715 1.9721 0.63369 6.1054 0.92566 9.1852 0.69029 7.2815 1.3325 10.335 2.3459 11.156 0.98431 0.79706 3.7578 0.82232 10.206 0.093zm-6.7254-1.6402c-1.9973-1.1631-2.7763-6.0334-2.7763-17.357 0-7.9628 0.2591-9.4006 1.8471-10.251 0.45768-0.24495 2.5971-0.9014 4.7542-1.4588 3.3477-0.865 4.7137-1.0242 9.3274-1.0872 9.844-0.1343 11.986-0.0665 12.544 0.39713 0.61053 0.5067 0.73808 1.3742 1.2954 8.8111 0.26521 3.5387 0.29784 7.3458 0.0954 11.13-0.47644 8.9076-0.29273 8.7888-14.936 9.655-10.803 0.63899-11.317 0.64576-12.152 0.15991zm9.9524-3.1966c9.414-0.50236 12.354-0.9009 13.249-1.7958 0.60696-0.60695 0.74079-1.4467 0.98428-6.1764 0.17077-3.3171 0.14173-6.5084-0.0737-8.0994-0.19553-1.444-0.35551-3.3163-0.35551-4.1607 0-1.1074-0.23106-1.7845-0.82923-2.43-0.80888-0.87279-0.98706-0.89979-7.2608-1.1-8.7235-0.27838-13.642 0.69518-14.728 2.9155-0.66406 1.357-1.0028 12.801-0.50884 17.191 0.23531 2.0911 0.50751 3.931 0.6049 4.0886 0.0974 0.15758 0.53023 0.21074 0.96185 0.11817 0.43163-0.0926 4.0118-0.34058 7.9559-0.55105zm-0.73432-31.717c-0.83519-0.83519-0.94211-1.1808-0.78809-2.5474 0.39947-3.544 2.1851-4.3442 4.3491-1.9489 2.1909 2.4251 1.5982 4.7822-1.3217 5.256-1.0591 0.17188-1.4355 0.0442-2.2394-0.75969zm7.3874-6.0738c-1.9025-0.68736-2.7111-2.0378-2.6971-4.5045 0.0142-2.4989 1.1715-4.4589 3.3585-5.6881 1.6432-0.92355 2.5112-0.96494 4.9637-0.23664 2.5675 0.76246 3.68 2.155 3.6697 4.5932-0.0122 2.7536-1.0018 4.6331-2.9331 5.568-1.7894 0.86623-4.4013 0.97625-6.3617 0.26799zm1.5712-3.8282c-0.83573-0.87455-1.0779-0.98124-1.1731-0.51689-0.21033 1.0259 0.24811 1.6189 1.2514 1.6189h0.97473zm4.353-3.0784c-0.2757-0.71845-2.5376-0.5078-2.5376 0.2363 0 0.29581 0.34093 0.58651 0.75763 0.64599 0.41669 0.0595 0.97612 0.54351 1.2432 1.0757l0.48555 0.96752 0.12671-1.1994c0.0696-0.65969 0.0358-1.4364-0.0753-1.726zm-22.044 5.5197c-1.2632-0.64918-2.2139-2.105-2.4169-3.701-0.15175-1.1929 0.0344-1.7277 1.2423-3.5689 1.4866-2.266 2.6001-3.0334 4.4017-3.0334 4.2278 0 5.7746 5.3104 2.542 8.727-1.839 1.9437-3.9381 2.5172-5.7691 1.5762zm4.1284-6.923c-0.20967-0.54639-1.6531-0.72237-1.6531-0.20155 0 0.1706 0.36303 0.77317 0.80675 1.339 0.80031 1.0206 0.80769 1.0222 0.92474 0.20155 0.0649-0.45501 0.0297-1.0576-0.0783-1.339zm-354.94 43.215c2.4266-2.4744 4.412-4.6179 4.412-4.7634 0-0.14554-0.26391-0.66737-0.58647-1.1597l-0.58647-0.89506-4.5401 4.7621c-2.4971 2.6192-5.2424 5.5326-6.1008 6.4743l-1.5607 1.7122 0.84432 0.89873 0.84431 0.89873 1.431-1.7145c0.78705-0.94299 3.4164-3.739 5.843-6.2134zm-1.9968-4.7892c1.9472-2.1503 3.5403-4.0562 3.5403-4.2352 0-0.17901-0.28236-0.70994-0.62747-1.1798l-0.62747-0.85437-13.074 13.027 2.3174 2.4154 2.4655-2.6317c1.356-1.4474 4.0586-4.3911 6.0058-6.5414zm-15.34 6.4945c-0.68813-0.87482-0.69984-0.87633-1.5365-0.19883l-0.84311 0.68271 0.84059 0.89477c0.83207 0.88569 0.84765 0.88771 1.5365 0.19883 0.68811-0.68811 0.68814-0.70585 3e-3 -1.5775zm-2.8166-1.9794c0.61577-0.48437 0.7412-0.80061 0.49325-1.2437-0.30919-0.55249-0.41939-0.55268-1.5728-3e-3 -1.1689 0.55741-1.2063 0.629-0.65004 1.2437 0.72453 0.80058 0.71521 0.80056 1.7296 3e-3zm10.766-4.4277 5.015-5.0772-3.227 2.4611c-8.089 6.1691-8.1817 6.2558-7.4983 7.0109 0.33971 0.37536 0.63514 0.68249 0.65652 0.68249 0.0214 0 2.2956-2.2848 5.0538-5.0772zm526.44 2.8302c0.24651-0.19287 0.4482-0.98137 0.4482-1.7522 0-1.6509-0.74876-2.1446-1.8041-1.1895-0.88967 0.80513-1.5661 3.0859-1.0161 3.4258 0.45411 0.28066 1.7265 0.021 2.372-0.48405zm-507.15-2.7762c-0.6274-1.0621-1.2009-1.2365-1.4646-0.44541-0.10357 0.31067 1.3719 1.4291 1.9921 1.5102 0.0605 8e-3 -0.17694-0.47124-0.52753-1.0648zm-2.6766-2.7781c0.24522-0.4582 0.14688-0.86534-0.36025-1.4916-1.0042-1.2401-1.6466-0.4977-0.86949 1.005 0.66959 1.2948 0.77491 1.3365 1.2297 0.48666zm4.4987-4.2474 1.763-1.6221-2.0919-2.049-1.5464 1.7567c-1.5423 1.752-1.5447 1.7591-0.89639 2.6495 0.3575 0.49105 0.73068 0.89147 0.82929 0.88985 0.0986-1e-3 0.97264-0.73292 1.9423-1.6251zm-8.0229-1.0228c-1.1289-1.2016-1.6388-0.78125-0.65933 0.54358 0.51864 0.7015 0.90327 0.93876 1.1393 0.70277 0.23598-0.23597 0.074-0.65677-0.47993-1.2464zm4.6026-2.8396c1.402-1.4285 1.4972-1.6371 1.0641-2.3306-0.26163-0.41894-0.55789-0.75448-0.65836-0.74564-0.10047 9e-3 -0.97892 0.72957-1.9521 1.6016-1.7392 1.5585-1.7582 1.598-1.1097 2.3146 0.36285 0.40094 0.76248 0.72898 0.88806 0.72898s0.92122-0.706 1.7681-1.5689zm10.56-1.9736c3.1401-2.5746 6.3916-5.9564 8.4876-8.8277 3.1813-4.358 6.2742-8.0094 10.934-12.908 2.6262-2.7609 4.9918-5.2555 5.2569-5.5435s-3.471 3.2697-8.3026 7.9061c-4.8315 4.6364-10.369 9.6114-12.306 11.056-1.9366 1.4441-4.8409 3.8819-6.454 5.4174l-2.9329 2.7917 1.0531 1.1084c0.57921 0.6096 1.197 1.1084 1.3728 1.1084s1.4768-0.94872 2.891-2.1082zm-19.514 0.10109c-0.64457-0.66503-1.2458-1.1353-1.3361-1.045-0.30444 0.30444 1.7718 2.7092 2.1417 2.4806 0.21138-0.13064-0.12939-0.73789-0.80561-1.4356zm15.666-4.9308c1.597-1.4436 4.5013-3.8964 6.454-5.4505 5.2699-4.1945 12.971-11.256 21.837-20.022l7.8878-7.7994-4.6612 3.8123c-11.982 9.8001-22.459 18.995-23.959 21.028-0.55623 0.75383-2.6538 2.6517-4.6612 4.2175-5.6506 4.4074-6.7894 5.4965-6.5068 6.2222 0.13443 0.34511 0.34817 0.62511 0.47498 0.62226 0.1268-3e-3 1.5372-1.1864 3.1343-2.63zm-2.4139-3.1653c3.2494-2.536 9.6511-8.1802 9.8419-8.6772 0.08548-0.22277 0.93788-1.3725 1.8942-2.555l1.7388-2.15-2.1418 1.8237c-1.178 1.003-3.6747 2.9995-5.5481 4.4367-3.8103 2.923-8.9639 7.8223-8.9639 8.5216 0 0.82153 0.76371 0.48525 3.179-1.3998zm34.469-16.411c1.6762-1.4289 8.7837-8.3508 15.794-15.382 7.0107-7.0312 16.027-15.93 20.037-19.776 4.0096-3.8455 9.1039-9.0894 11.321-11.653 2.2169-2.5636 6.4765-7.0007 9.4657-9.8602 2.9892-2.8595 8.0474-8.0227 11.24-11.474 5.1154-5.529 5.4459-5.9551 2.781-3.5856-1.6634 1.479-4.4826 4.0623-6.2649 5.7405-5.2743 4.9664-13.635 12.502-17.534 15.803-8.446 7.1512-17.066 16.124-28.709 29.882-3.8703 4.5738-6.835 7.6894-9.1954 9.6633-11.982 10.02-20.592 18.815-26.197 26.757-0.62619 0.88742 2.3154-1.791 6.5369-5.9521 4.2215-4.1611 9.0469-8.7347 10.723-10.164zm199 16.61c0-0.79516-0.0831-0.8714-0.53784-0.49394-0.29581 0.24551-0.53783 0.66863-0.53783 0.9403 0 0.27166 0.24202 0.49392 0.53783 0.49392 0.34135 0 0.53784-0.34351 0.53784-0.94028zm-53.855-0.56817c0.05895-0.30395-0.14271-0.64856-0.44819-0.76578-0.41212-0.15815-0.55543 0.0229-0.55543 0.70187 0 0.98599 0.81462 1.0379 1.0036 0.064zm190.82 0.0743c0-0.39441-0.16134-0.71711-0.35855-0.71711-0.1972 0-0.35856 0.3227-0.35856 0.71711s0.16136 0.71712 0.35856 0.71712c0.19721 0 0.35855-0.32271 0.35855-0.71712zm131.39 0.36743c1.1457-0.43558 1.1654-0.907 0.0682-1.626-0.67438-0.44187-1.1697-0.4865-2.3806-0.21445-0.84093 0.18896-1.7776 0.59213-2.0814 0.89595-0.4975 0.49752-0.46582 0.58701 0.31886 0.90056 1.1488 0.45904 2.9325 0.47825 4.0749 0.0439zm-470.76-27.016c0.66422-0.70915-2.4882 1.6636-5.199 3.9132-1.479 1.2274-3.2539 2.8339-3.9441 3.57-0.69022 0.73614 1.004-0.56031 3.7648-2.881 2.7609-2.3207 5.1811-4.3917 5.3783-4.6023zm10.398-1.7337c4.3907-3.7928 5.7431-5.2069 12.804-13.389 10.644-12.334 18.215-19.971 28.967-29.217 2.8595-2.459 8.1033-7.3065 11.653-10.772 3.5497-3.4657 7.8338-7.4531 9.5202-8.861 3.2999-2.7548 7.8478-7.6221 7.122-7.6221-0.24384 0-2.3939 1.9091-4.778 4.2424s-5.7061 5.4252-7.3823 6.8707c-1.6762 1.4456-5.1889 4.5664-7.8058 6.9352-2.6169 2.3688-5.7756 4.9895-7.0191 5.8237-2.6068 1.7488-19.124 18.655-25.952 26.563-2.4111 2.7925-5.3562 5.923-6.5447 6.9567-1.1885 1.0337-3.474 3.3473-5.0789 5.1414s-5.7552 6.2469-9.2228 9.8952c-3.6417 3.8314-4.9455 5.3445-3.0867 3.5821 1.7699-1.6781 4.8316-4.4449 6.8036-6.1484zm460.36 5.7242c0.50564-1.2026 0.18386-2.5916-0.67689-2.922-0.8396-0.32217-2.3023 0.21399-3.2325 1.1849l-0.94971 0.99129 1.1234 0.94529c1.618 1.3615 3.1129 1.2816 3.7357-0.1995zm-463.54-14.697c3.7181-3.9645 8.9383-9.217 11.601-11.672 6.0179-5.5499 8.1495-7.7895 10.669-11.21 2.9363-3.9856 2.9327-4.0077-0.14466-0.89638-4.809 4.8621-13.456 13.178-15.818 15.213-3.2331 2.7848-13.65 14.528-15.402 17.364-0.86641 1.4019 3.3967-2.722 9.095-8.798zm3.1357 2.2793c2.5423-2.105 4.9055-4.0694 5.2516-4.3652 0.34607-0.29581 1.9565-2.3934 3.5787-4.6612 1.6222-2.2679 3.5299-4.8495 4.2393-5.7369 1.8675-2.3363-4.7664 3.8019-10.543 9.7552-4.7509 4.8962-9.838 10.527-9.838 10.89 0 0.11166 0.60506-0.30489 1.3446-0.92576 0.73952-0.62088 3.4246-2.8512 5.967-4.9562zm447.21-7.0133c1.285-1.1053 0.87876-1.6408-2.057-2.7113-1.979-0.72158-2.1571-0.87315-2.0559-1.7491 0.10733-0.92856 0.18129-0.95797 2.3288-0.92569 1.425 0.0214 2.5467 0.24874 3.1374 0.63574 1.2377 0.811 1.1615 0.1695-0.15848-1.3339-1.3031-1.4842-3.0871-2.3829-4.7301-2.3829-1.9792 0-4.5902 3.0593-4.5902 5.3783 0 1.5735 0.52981 2.3935 2.0728 3.2083 1.9598 1.0349 4.7753 0.97928 6.0527-0.11953zm-425.84-13.666c0.66898-0.69021 1.1357-1.2549 1.0371-1.2549-0.09866 0-0.72663 0.56473-1.3956 1.2549-0.66898 0.69022-1.1357 1.2549-1.0371 1.2549 0.09866 0 0.72663-0.56472 1.3956-1.2549zm404.69-0.17927c1.59-1.0084 1.6338-1.0757 0.69968-1.0757-0.54807 0-2.2386-0.31712-3.7566-0.70472-3.6865-0.94125-8.3563-1.3947-13.044-1.2665-3.1751 0.0867-4.0575 0.23673-5.0198 0.85297l-1.1675 0.74766 6.6333 0.0194c6.5587 0.0191 6.6736 0.0329 10.219 1.2268 1.972 0.6641 3.6203 1.2228 3.6627 1.2416 0.0424 0.0188 0.84046-0.44987 1.7733-1.0415zm9.8025-4.1208 1.972-0.40773-1.7928-0.80746c-3.5094-1.5806-7.5082-2.3095-12.519-2.282-2.547 0.014-4.9942-0.11267-5.4382-0.28149-0.58334-0.22179-1.4839-0.039-3.2462 0.6589l-2.4389 0.96584 3.0172 0.27425c2.7443 0.24944 9.2454 1.5016 12.666 2.4397 0.74995 0.20565 1.45 0.59927 1.5557 0.87472 0.15811 0.41203 0.55205 0.36538 2.222-0.26312 1.1164-0.42016 2.9173-0.9474 4.0019-1.1716zm-407.86-2.6917c1.9647-1.972 3.4914-3.5855 3.3928-3.5855-0.09866 0-1.7867 1.6135-3.7514 3.5855-1.9647 1.972-3.4914 3.5855-3.3928 3.5855 0.09866 0 1.7867-1.6135 3.7514-3.5855zm21.513-24.355c2.7609-2.499 7.2787-6.493 10.04-8.8758 2.7609-2.3827 5.4698-4.8104 6.0197-5.3949 0.88227-0.9376 0.93507-1.1165 0.44863-1.5202-0.68272-0.56661-1.3159-0.06742-9.5161 7.5017-3.2539 3.0035-7.2069 6.5071-8.7846 7.7859-6.4761 5.2492-18.933 18.21-24.163 25.139-1.8691 2.4767-0.317 1.0551 9.3472-8.5613 6.3737-6.3421 13.847-13.576 16.608-16.075zm397.44 23.966 4.107-1.2039-2.6445-0.8282c-5.6977-1.7844-8.2435-2.3281-12.382-2.6442-5.9362-0.45343-5.5763-0.46433-8.6829 0.26287-2.0627 0.48284-2.5102 0.68062-1.7152 0.75796 4.0012 0.38927 15.159 3.6226 16.001 4.6366 0.23556 0.28385 0.60414 0.45011 0.81906 0.36946 0.21492-0.0807 2.2389-0.6884 4.4978-1.3505zm12.297-3.0339c1.9228-0.35904 3.4959-0.74506 3.4959-0.85785s-0.5244-0.38716-1.1653-0.60974c-0.64092-0.22257-2.9911-1.1654-5.2226-2.0952-3.6824-1.5343-4.419-1.7144-7.9728-1.9489-2.1536-0.14211-4.0161-0.35891-4.139-0.48177-0.12291-0.12286-0.97219 0.0645-1.8874 0.41635-3.3821 1.3003-3.2255 1.1704-1.8433 1.5275 6.6161 1.7093 12.687 3.7552 13.213 4.4527 0.42913 0.56891 0.78635 0.70989 1.3079 0.51616 0.3946-0.14659 2.2906-0.56029 4.2134-0.91932zm12.034-1.8175 1.9046-0.23632-5.4902-2.4894c-3.0196-1.3692-6.781-2.8085-8.3586-3.1985-1.5776-0.39-3.2219-0.8833-3.6539-1.0962-0.73688-0.36315-3.3729-0.17238-4.1362 0.29934-0.18088 0.11179 1.0278 0.65913 2.686 1.2163 4.6675 1.5685 11.363 4.6677 11.784 5.4545 0.31192 0.58282 0.62715 0.66619 1.8673 0.49387 0.82061-0.11402 2.3491-0.31366 3.3967-0.44363zm10.773-1.4326c0.66303-0.13541-0.30731-0.75858-4.5039-2.8925-4.9902-2.5374-5.551-2.7377-8.3592-2.9846-1.6951-0.14904-3.0692-0.4417-3.1452-0.66988-0.14392-0.43178-2.1452-0.55156-3.0992-0.18549-0.39631 0.15208 0.11898 0.54685 1.6738 1.2822 2.2725 1.0749 7.6426 3.2833 10.757 4.4237 0.93393 0.34199 1.8771 0.83758 2.096 1.1013 0.37904 0.45671 2.117 0.42832 4.5807-0.0748zm10.18-1.0781c2.7254-0.23158 3.4579-0.59045 2.0908-1.0243-0.37839-0.12009-2.1934-1.1259-4.0334-2.2351-4.4227-2.6662-5.7433-3.2202-9.6851-4.0625-2.8026-0.59891-3.6334-0.64688-5.3513-0.30891l-2.0336 0.40008 5.9655 3.0348c3.281 1.6691 6.2882 3.4387 6.6826 3.9324 0.6145 0.76914 0.92232 0.8691 2.1513 0.69867 0.78881-0.1094 2.6847-0.30515 4.213-0.43502zm10.662-1.5328c-3e-3 -0.11986-1.2532-0.90827-2.7788-1.752-1.5256-0.84374-4.1138-2.322-5.7517-3.285-2.0144-1.1845-3.843-1.9434-5.6517-2.3458-3.9056-0.86891-4.3673-0.55281-1.41 0.96522 3.8561 1.9793 9.2737 5.2486 9.746 5.8813 0.23295 0.31206 0.34953 0.76029 0.25906 0.99607-0.12562 0.32753 0.51464 0.34959 2.7138 0.0935 1.5831-0.18437 2.876-0.4333 2.8733-0.55317zm6.3518-0.80718 2.9405-0.41089-1.8648-1.1373c-1.0257-0.62553-2.9943-1.8717-4.3747-2.7694-3.3322-2.1667-5.1148-3.0452-7.6084-3.7493-2.035-0.57459-4.1419-0.69089-4.8285-0.26653-0.35577 0.21988 5.7805 4.0528 9.4724 5.9168 1.4515 0.73283 2.1213 1.3005 2.2798 1.9321 0.25976 1.035 0.14426 1.0209 3.9836 0.48446zm8.6006-1.2151 1.8601-0.22882-1.143-0.9923c-2.754-2.391-8.1815-5.7911-10.674-6.687-1.4629-0.52576-2.763-1.1178-2.8891-1.3156-0.13843-0.21717-0.8908-0.26051-1.8987-0.10936l-1.6694 0.25034 3.8707 2.3168c5.5859 3.3433 8.7112 5.7202 8.7112 6.6249 0 0.62211 0.16533 0.71577 0.98603 0.55864 0.54231-0.10383 1.8231-0.29176 2.8461-0.41761zm8.1732-0.82086 1.4279-0.25331-1.2486-0.75479c-0.68674-0.41513-2.7008-1.9011-4.4756-3.3022-1.7748-1.4011-4.1548-2.9898-5.2887-3.5305-1.1339-0.54071-2.0617-1.1097-2.0617-1.2643 0-0.36694-1.8403-0.35384-2.425 0.01728-0.30692 0.19482 0.44434 0.8502 2.3306 2.0332 3.5792 2.2446 8.2794 5.8469 8.7317 6.692 0.37795 0.70622 0.79173 0.75608 3.0094 0.36267zm-475.26-9.007c7.144-6.0892 17.915-16.291 17.564-16.636-0.09581-0.09395-1.6399 1.1454-3.4313 2.7541-1.7915 1.6087-6.0672 5.3752-9.5017 8.3699-6.7859 5.9171-16.677 15.355-13.774 13.143 0.98602-0.75135 5.1004-4.1854 9.1431-7.6312zm484.94 8.2291 1.0658-0.0031-0.88653-0.61341c-0.48759-0.33738-1.8546-1.4305-3.0379-2.4291-1.1832-0.99862-3.4421-2.5999-5.0198-3.5584-1.5776-0.95851-3.3082-2.0455-3.8456-2.4156-0.79302-0.54604-1.3487-0.62917-2.9486-0.44113l-1.9715 0.23171 2.0522 1.4216c1.1287 0.7819 2.617 1.951 3.3072 2.5979 0.69021 0.64696 2.3037 1.9369 3.5855 2.8666 1.2818 0.92969 2.4709 1.9373 2.6424 2.2392 0.24444 0.4302 0.70944 0.50106 2.1513 0.32781 1.0117-0.12156 2.3191-0.22242 2.9053-0.22414zm7.5589-1.8128c-1.1393-0.79811-3.1426-2.3086-4.4518-3.3567-1.3091-1.0481-3.6629-2.7481-5.2306-3.7779-2.6682-1.7526-2.952-1.8571-4.4394-1.634l-1.589 0.23829 1.2124 0.73675c3.3441 2.0321 10.356 7.9523 10.356 8.7438 0 0.3903 0.68606 0.50091 3.1072 0.50091h3.1072zm8.7652 1.1576c0-0.16141-1.4118-1.5775-3.1374-3.147-7.9192-7.2026-9.9914-8.564-12.47-8.1923l-1.6053 0.24073 2.0628 1.4404c1.1345 0.79225 3.2729 2.4284 4.7519 3.6358 1.479 1.2075 3.3159 2.6632 4.082 3.235 0.76608 0.57177 1.6535 1.4978 1.9721 2.0579 0.52057 0.91528 0.76966 1.0186 2.4616 1.0206 1.0353 0.0012 1.8824-0.1298 1.8824-0.29121zm5.445-0.43614 1.3216-0.36706-3.6146-3.4214c-6.2082-5.8763-9.4109-8.3899-10.69-8.3899-0.6198 0-1.0731 0.14219-1.0074 0.31597 0.12061 0.31872 4.392 4.2246 9.1556 8.3719 1.4201 1.2364 2.6881 2.6111 2.8177 3.0548 0.27059 0.92649 0.25911 0.92401 2.0173 0.43569zm5.9277-1.5738 1.871-0.61507-2.1904-1.8574c-7.1357-6.0508-11.359-9.2078-12.318-9.2078-0.48756 0-0.88648 0.11047-0.88648 0.24548 0 0.13502 2.348 2.4964 5.2177 5.2476 3.7146 3.5612 5.278 5.3037 5.4271 6.0489 0.11519 0.57571 0.38909 0.98073 0.60879 0.90005 0.21969-0.08069 1.2414-0.42349 2.2704-0.76178zm6.2972-2.2923 1.7142-0.65103-2.252-1.9098c-2.1559-1.8283-6.0429-4.4694-9.7036-6.5931-1.1231-0.65158-2.1036-0.9563-2.8422-0.88326-1.1129 0.11005-1.0896 0.14076 1.7831 2.359 3.6272 2.8007 8.0465 6.8013 8.4758 7.6728 0.40235 0.81676 0.68718 0.81731 2.8247 0.0056zm6.245-2.0874c0.87442-0.21946 0.83941-0.2823-1.1986-2.1514-3.1197-2.8612-9.2579-7.3004-10.094-7.3004-2.1028 0-1.7857 0.47657 2.3737 3.5673 2.3227 1.7259 4.8604 3.8836 5.6393 4.7949 0.78604 0.91957 1.6305 1.581 1.8977 1.4863 0.26483-0.09379 0.88683-0.27227 1.3822-0.39661zm7.5375-2.4193c0.17987-0.17988-7.0584-5.748-9.0823-6.9867-1.7779-1.0881-3.4402-1.4054-4.3467-0.82957-0.30341 0.19272 0.11126 0.69416 1.3204 1.5969 3.4214 2.5543 7.1903 6.0575 7.3952 6.8737l0.20738 0.82626 2.1964-0.68358c1.208-0.37597 2.2474-0.73462 2.3098-0.79699zm4.3326-1.0623 1.1844-0.42917-1.4444-1.0674c-0.79442-0.58708-3.1408-2.3269-5.2141-3.8663-2.6907-1.9977-3.9228-2.7132-4.3045-2.4996-0.41733 0.23354-0.11207 0.62948 1.3899 1.8025 3.4162 2.6681 5.9493 5.1643 5.9493 5.8626 0 0.7811 0.67722 0.8359 2.4394 0.1974zm7.2192-2.2861c0.46294-0.33501-7.1281-5.795-9.0982-6.5441-0.57392-0.2182-1.5032-0.29576-2.0652-0.17234-0.99026 0.2175-0.90061 0.32362 2.9163 3.4517 2.1659 1.775 4.0307 3.5196 4.1441 3.8768 0.19535 0.61547 0.30431 0.61943 2.0761 0.07546 1.0285-0.31576 1.9406-0.62518 2.0268-0.6876zm5.9243-1.9146c-0.2793-0.45192-10.496-6.0723-11.038-6.0723-0.19269 0 0.34553 0.46735 1.196 1.0386 2.9923 2.0097 5.7282 4.5175 5.9432 5.4478l0.2147 0.92879 1.9256-0.53597c1.0591-0.29478 1.8503-0.6579 1.7582-0.80694zm4.2927-1.0133c0.10855-0.17563-0.18691-0.57112-0.65657-0.87885-0.46966-0.30774-1.8036-1.4387-2.9642-2.5133-1.9237-1.781-2.2997-1.9758-4.2524-2.2031l-2.1421-0.2494 3.6246 2.1983c1.9935 1.209 3.9982 2.5959 4.4548 3.082 0.85491 0.91001 1.5899 1.1243 1.9359 0.5644zm5.7611-1.2626 1.7928-0.43742-1.398-0.60786c-1.8209-0.79172-5.6169-1.7719-5.8725-1.5163-0.10964 0.10966-0.0136 0.19937 0.21386 0.19937 0.22726 0 0.84032 0.6454 1.3623 1.4342 1.0235 1.5466 1.1969 1.5879 3.9016 0.92796zm-533.89-4.0653c1.1296-0.56821 10.943-6.3442 16.561-9.7471 1.8119-1.0976 5.3616-3.3873 7.8882-5.0883 2.5266-1.701 5.7673-3.838 7.2015-4.7489 1.5841-1.0061 2.7452-2.018 2.9581-2.5779 0.59995-1.578 0.42546-4.2887-0.33652-5.2276-1.2461-1.5355-3.3871-1.2495-20.729 2.7682-5.1068 1.1832-9.5609 2.9077-17.547 6.7941-6.5915 3.2077-6.9121 3.4126-7.853 5.0182-0.80441 1.3726-0.89054 1.7301-0.47837 1.9858 0.35972 0.22314 1.0635-0.23402 2.4747-1.6075 2.3003-2.2389 2.8388-2.5441 5.0542-2.8651 1.2598-0.18255 1.7553-0.10932 2.1041 0.31093 0.72122 0.86902-0.41428 2.3461-1.8036 2.3461-0.78903 0-1.5893 0.46024-2.9498 1.6966-1.0269 0.93311-1.9388 1.7443-2.0264 1.8027-0.087679 0.05839 0.17052 0.43607 0.57372 0.83926l0.73308 0.73308 4.8942-4.7264c3.3585-3.2434 4.8942-4.9729 4.8942-5.5118 0-1.6491 1.8728-2.2271 3.0394-0.93797 1.1566 1.278 1.7426 1.1705 4.81-0.88266 1.6242-1.0871 3.2267-1.9766 3.561-1.9766 0.33435 0 0.81568-0.33268 1.0696-0.7393 0.60936-0.97576 2.2377-0.80937 2.7797 0.28404l0.39641 0.79969 1.2254-0.91712c2.9786-2.2292 4.8939-2.7538 6.3447-1.7376 1.7667 1.2374 0.25835 3.5142-2.0895 3.154-1.1554-0.17726-1.6186 0.06135-5.0198 2.5857-2.0608 1.5296-5.4411 4.2256-7.5118 5.9912-6.2359 5.3172-7.5539 6.4266-10.745 9.045-2.4567 2.0156-3.036 2.6732-2.9416 3.339 0.10353 0.73041 0.25293 0.79997 1.255 0.58429 0.62559-0.13466 1.6215-0.48831 2.2131-0.78589zm-1.6997-5.3512c3.1717-2.3251 5.7092-4.4304 10.305-8.5499 1.7748-1.5909 3.752-3.3194 4.3937-3.841 1.7191-1.3975 0.73197-1.5792-1.2533-0.23063-4.4229 3.0044-8.7276 6.6167-10.849 9.1045-1.2818 1.503-3.1181 3.3669-4.0806 4.1421-2.5864 2.0832-1.7016 1.7106 1.4845-0.62507zm-1.5612-3.0229c1.5003-1.4012 3.0782-3.055 3.5062-3.6752 0.6785-0.983-0.53766 0.0781-5.9753 5.2134-0.58782 0.55514-0.88652 1.0093-0.66379 1.0093s1.6325-1.1464 3.1329-2.5475zm6.6672-6.5956c0.24898-0.30002 0.28781-0.53783 0.08782-0.53783-0.1972 0-0.55941 0.24202-0.80492 0.53783-0.24898 0.30002-0.28781 0.53783-0.08782 0.53783 0.1972 0 0.55941-0.24202 0.80492-0.53783z" fill="#fff"/></g></svg>
