<?xml version="1.0" encoding="UTF-8"?>
<!-- Created with Inkscape (http://www.inkscape.org/) -->
<svg width="10mm" height="30mm" version="1.1" viewBox="0 0 10 30" xmlns="http://www.w3.org/2000/svg">
 <g fill="none" stroke="#fff" stroke-linecap="round" stroke-linejoin="round">
  <path d="m2 2c-0.27281-0.016425 0.20597 0.1693 0.12953 0.40828 0.34969 0.57395 0.79025 1.0886 1.0938 1.6909 0.23419 0.59065 0.63707 1.0916 0.81011 1.7086 0.23498 0.51212 0.47675 1.0206 0.70539 1.5364 0.3008 0.74135 0.43159-0.51959 0.73228-0.72906 0.41307-0.61858 0.77528-1.2706 0.98942-1.9866 0.30102-0.75318 0.74532-1.4444 1.208-2.1067 0.16204-0.14234 0.18877-0.36734 0.33142-0.52176"/>
  <path d="m2 12c0.50463 0.73098 0.61416 1.6825 1.1969 2.3758 0.39339 0.71714 0.80578 1.4316 1.1509 2.1756 0.24394 0.3591 0.52537 1.6311 0.74248 0.58064 0.57724-0.90026 1.2447-1.7399 1.7178-2.706 0.32853-0.84218 1.1286-1.4942 1.192-2.426"/>
  <path d="m2 22c0.30942 1.3591 1.2157 2.4612 1.6908 3.7535 0.24714 0.76152 0.81666 1.3227 1.2567 1.9726 0.58978-1.03 1.1833-2.0571 1.7997-3.0693 0.5108-0.56468 0.77224-1.2617 1.093-1.9402 0.062747-0.19911 0.33149-0.53595 0.15982-0.71666"/>
 </g>
</svg>
