<?xml version="1.0" encoding="UTF-8"?>
<!-- Created with Inkscape (http://www.inkscape.org/) -->
<svg width="525.89mm" height="554.78mm" version="1.1" viewBox="0 0 525.89 554.78" xml:space="preserve" xmlns="http://www.w3.org/2000/svg"><g transform="translate(-384.72 339.07)"><g fill="#fff"><g transform="matrix(.052354 0 0 .052354 611.2 -154.33)"><path d="m700.46-1248.9c-0.88412-0.023-1.8144 0.045-2.7921 0.202-6.616 1.067-8.9593 4.5095-12.621 18.54-3.614 13.845-13.72 46.458-20.656 66.655-3.3611 9.789-8.3342 26.472-11.051 37.076-2.7169 10.604-6.9187 25.508-9.3374 33.12-5.7134 17.982-8.6965 30.86-11.796 50.917-3.7645 24.362-4.1662 30.633-2.2024 34.404 3.185 6.1171 11.804 7.8061 16.051 3.146 0.9814-1.0765 2.7421-1.9585 3.9129-1.9585 3.657 0 19.111-4.8295 31.999-9.9989 12.547-5.0338 40.395-14.91 40.788-14.467 0.2447 0.277 3.8016 12.153 6.2828 20.978 1.3154 4.6786 2.3589 6.3728 5.0245 8.1561h5.1e-4c1.8504 1.2387 4.237 2.2526 5.3036 2.2526 3.7514 0 7.6086-3.2698 9.786-8.2966 2.1252-4.906 2.1291-5.0471 0.46354-15.382-0.9245-5.737-4.9914-26.892-9.0377-47.011-9.0126-44.813-8.5808-42.032-12.904-83.049-3.1428-29.816-4.096-35.905-8.4336-53.883-2.6896-11.147-5.5938-23.32-6.4534-27.051-2.2041-9.5682-6.1391-14.188-12.328-14.35zm-1.848 63.272c0.0835-0.012 0.16186 0.013 0.22893 0.079 0.2683 0.267 1.3746 9.117 2.4582 19.668s2.2177 20.629 2.5203 22.396c0.30216 1.7686 0.40115 3.2142 0.21859 3.2142-0.1823 0-3.8107-3.7752-8.0631-8.3891l-7.7318-8.3892 4.5589-13.115c2.5074-7.2128 4.7822-13.734 5.055-14.492 0.20461-0.5685 0.50453-0.9359 0.75499-0.972zm-16.177 47.018c0.76292 0.072 4.3519 3.6195 8.3313 8.2667 4.2449 4.9551 7.566 9.1167 7.3804 9.2485-0.186 0.1297-5.4899 3.8064-11.787 8.1696-14.932 10.346-13.995 9.9055-12.863 6.0399 0.5206-1.777 2.5554-9.4605 4.5217-17.073 1.9662-7.6121 3.9022-14.192 4.3026-14.619 0.025-0.027 0.0633-0.037 0.1142-0.033zm23.808 30.83c1.0524 0.03 2.0348 1.7903 2.4789 4.8312 0.377 2.583 2.4438 12.864 4.593 22.849 2.149 9.9841 3.9078 18.548 3.9078 19.032l-5.1e-4 -6e-4c0 0.4837-0.38514 0.8801-0.85577 0.8801-2.395 0-14.438-7.2552-24.808-14.944-6.4185-4.7595-12.539-9.2778-13.6-10.041-1.797-1.2913-0.95975-2.0475 12.168-10.99 7.7537-5.2812 14.36-10.026 14.682-10.542 0.46307-0.7441 0.9562-1.0884 1.4345-1.0748zm640.36 7.0528c-7.0049 0.016-13.76 6.8691-28.832 26.292-5.523 7.12-14.171 17.786-19.217 23.706-15.589 18.288-21.96 27.953-35.802 54.312-8.615 16.406-20.285 36.441-29.624 50.859l-5.4064 8.3452-1.9239-2.4138c-1.058-1.327-7.9596-14.454-15.337-29.17-14.562-29.048-22.294-41.645-37.344-60.844-10.346-13.197-13.611-15.716-20.374-15.716-4.5229 0-10.574 3.2297-12.677 6.766-4.4586 7.499-11.373 51.116-12.718 80.232-0.5299 11.468-1.7371 26.727-2.683 33.91-1.4306 10.86-1.7396 22.044-1.8356 66.446-0.098 45.628-0.4282 57.039-2.267 78.503-1.1833 13.814-2.1637 32.721-2.1787 42.019s-0.4523 23.578-0.972 31.734c-2.915 45.755-2.6499 50.502 3.0861 55.295 5.944 4.9668 14.436 3.827 19.139-2.5683 2.5826-3.51 6.1643-38.622 7.6476-74.971 0.5879-14.409 2.1468-37.545 3.4638-51.411 4.8289-51.12 12.355-99.812 13.029-151.76 1.8981-15.226 3.5794-28.089 3.7367-28.585 0.472-1.489 8.1995 8.253 15.672 19.758 9.311 14.336 21.164 38.1 23.281 46.678 2.315 9.3825 6.1578 13.204 13.921 13.842 19.287 0.289 24.597-14.417 34.049-27.488 3.9-5.156 10.481-14.543 14.626-20.862 9.816-14.962 16.372-24.055 38.036-52.757l17.895-23.708 0.2341 5.4182c2.5099 58.01 1.8644 111.17-1.8081 172.5-1.0407 17.377-1.3417 38.978-1.8387 47.951-1.9831 35.805-0.9863 73.399 2.8045 105.79 1.1138 9.516 2.5043 25.309 3.0902 35.098 1.2772 21.336 1.7493 28.918 9.9245 28.918v-3e-3c2.7363 0 5.5967 2.2247 7.0073 2.2247 4.9071 0 11.274-4.1147 13.772-8.8987 2.306-4.417 2.319-4.6347 1.7912-30.648-0.2924-14.41-1.1907-32.269-1.9963-39.686-1.0671-9.824-1.5136-27.54-1.6444-65.252-0.1708-49.149-0.073-52.318 1.9384-62.643 3.9562-20.309 4.2225-23.711 5.0643-64.759 0.4628-22.566 1.434-48.147 2.1585-56.847 0.8959-10.758 1.2696-31.634 1.1679-65.253-0.236-77.988-2.2028-93.282-12.649-98.303-2.708-1.3018-5.0708-2.0564-7.4058-2.051zm76.698 7.2646a15 15 0 0 0-7.3949 2.3715 15 15 0 0 0-4.4881 20.732c11.733 18.217 26.025 33.038 38.494 47.607l0.2676 0.3122 0.2832 0.295c20.669 21.637 31.021 54.315 54.307 83.971 7.0935 12.075 16.585 20.437 24.049 27.867 7.4895 7.4557 12.525 13.649 14.59 20.189 1.1904 10.986-2.0733 21.46-8.1096 33.414-6.2247 12.327-15.218 25.413-22.053 40.441l-0.2263 0.49816-0.1897 0.51159c-23.445 63.463-59.198 123.22-88.137 187.64a15 15 0 0 0 7.5349 19.828 15 15 0 0 0 19.83-7.537c27.848-61.994 63.847-122.07 88.574-188.68 5.3155-11.634 14.024-24.484 21.445-39.18 7.4532-14.76 13.677-32.203 11.033-51.941l-0.1307-0.97461-0.2579-0.95137c-4.1773-15.44-14.126-25.949-22.738-34.521-8.6118-8.5729-16.16-15.702-20.025-22.752l-0.6036-1.0992-0.7752-0.98289c-18.803-23.82-29.311-57.773-55.946-85.936-13.171-15.385-26.351-29.29-35.996-44.265a15 15 0 0 0-13.338-6.8596zm-759.27 18.864c1.8434-0.027 6.7334 3.0734 13.3 8.4878 8.757 7.221 19.755 14.916 26.212 18.342 3.2646 1.7323 5.5505 3.3791 5.0798 3.6633-0.4708 0.2821-4.2157 1.4954-8.3225 2.6939-4.107 1.1994-13.354 4.5508-20.55 7.4471-7.196 2.8973-16.204 6.1903-20.019 7.3189h5.1e-4c-8.5496 2.5297-8.3656 2.5345-7.7303-0.1721 0.2873-1.222 1.6551-8.0073 3.0396-15.076 2.9435-15.03 7.1299-31.243 8.3902-32.496 0.135-0.134 0.3361-0.2018 0.59945-0.2057zm-686.57 8.9751c-4.2761 0-5.3324 0.4418-8.4367 3.5249-3.3395 3.316-3.6312 4.1335-4.9392 13.842-0.7645 5.675-2.7398 18.548-4.3899 28.608-5.6516 34.455-6.2204 54.128-2.6246 90.79 0.8176 8.335 1.953 25.908 2.5228 39.052 0.57 13.143 1.717 32.127 2.5492 42.187 0.8322 10.059 1.9153 36.086 2.4071 57.837 0.49172 21.75 1.147 41.327 1.4568 43.502 0.6413 4.506 3.068 45.269 4.5346 76.175 0.8842 18.631 1.3064 21.891 4.0375 31.143 1.6776 5.6834 3.399 11.925 3.8251 13.87 1.0473 4.7811 1.6411 5.5653 5.8989 7.799l-5.17e-4 -2e-3c8.447 4.43 15.918 1.0336 19.503-8.8666 1.7402-4.805 1.7867-6.342 0.69505-23.088-3.9155-60.053-6.401-107.6-6.9453-132.85l-0.62322-28.9 4.978-0.94154c10.263-1.9427 16.501-2.0424 37.832-0.60307 27.752 1.8738 74.808 1.9343 85.122 0.10956 4.1067-0.72851 7.6436-1.1651 7.86-0.97048 0.21635 0.192-0.11215 12.705-0.73019 27.807-2.5241 61.668-2.1837 120.43 0.86352 149.06 1.6206 15.227 1.5499 15.015 6.1154 18.3 4.6031 3.3112 9.1982 3.8197 13.686 1.5162 3.3735-1.733 8.4659-9.3865 9.9431-14.942 0.71228-2.679 1.0613-25.708 1.0387-68.895-0.0172-35.77 0.49204-75.655 1.1353-88.91 0.78853-16.249 0.89064-32.536 0.31523-50.241-1.3573-41.771-1.0581-64.899 1.0299-79.589 1.3625-9.588 1.6699-15.741 1.2082-24.223-0.882-16.206-7.3538-64.274-12.202-90.634-0.6225-3.384-5.1016-7.9898-9.0181-9.2738-7.2677-2.382-15.378 2.7438-16.874 10.665-0.4029 2.132 0.70274 17.127 2.6768 36.304 3.9961 38.819 4.3591 58.235 1.5343 82.104-1.5624 13.202-1.7877 20.337-1.3622 43.117l0.51005 27.297-9.5891 0.63613c-5.274 0.35004-33.558 0.90138-62.853 1.2268-36.831 0.408-55.007 0.97232-58.915 1.8247l-5.6519 1.2351-0.55862-4.547c-1.2848-10.456-2.6351-29.653-3.5548-50.538-0.5392-12.246-1.9627-30.932-3.1631-41.525-3.0269-26.711-2.8688-50.94 0.54777-83.889 1.4305-13.795 2.5993-27.365 2.5993-30.155-3e-3 -9.7444-5.4457-15.948-13.993-15.948zm-82.759 0.1349a15 15 0 0 0-12.121 8.8362c-25.247 56.944-57.942 112.23-80.445 173.62-9.5751 21.218-34.455 47.609-29.588 84.432l0.1266 0.9648 0.25219 0.93948c3.8736 14.505 13.098 24.359 20.953 32.281s14.597 14.403 17.984 20.662l0.5917 1.0976 0.76739 0.98237c16.889 21.678 26.428 52.953 50.858 79.139 11.988 14.187 23.906 26.938 32.583 40.588a15 15 0 0 0 20.707 4.6116 15 15 0 0 0 4.6111-20.707c-10.737-16.889-23.765-30.568-35.061-43.941l-0.26562-0.31419-0.28112-0.29714c-18.502-19.623-27.909-49.626-49.217-77.139-6.5538-11.265-15.246-19.016-21.975-25.803-6.7193-6.7771-11.092-12.276-12.91-17.973-2.0198-20.022 14.974-39.908 27.299-67.367l0.22117-0.49609 0.18552-0.50746c21.249-58.279 53.706-113.25 80.025-172.61a15 15 0 0 0-7.6326-19.793 15 15 0 0 0-7.6698-1.203h2e-3zm1112.7 23.302c-0.643 0.024-1.2722 0.092-1.8794 0.2056-4.7226 0.879-10.797 6.7629-12.843 12.44-0.882 2.447-5.8588 15.814-11.059 29.704-5.2006 13.889-11.972 33.689-15.048 43.996-3.0759 10.308-7.1075 23.413-8.9591 29.123-2.904 8.956-9.51 31.402-20.515 69.702-9.864 34.33-20.911 112.84-21.157 150.36-0.1228 18.716 0.38269 20.779 5.918 24.177 6.215 3.8146 15.522 1.4798 18.691-4.6865 0.7808-1.519 1.7331-7.211 2.1162-12.649 1.292-18.346 7.2326-61.426 12.626-91.567l3.1166-17.419 8.5096-1.1818c9.361-1.3 21.164-3.9051 45.79-10.106 9.2415-2.3271 16.561-3.7074 16.994-3.205 0.4179 0.486 1.7679 7.5581 2.9998 15.714 3.281 21.725 10.457 60.101 14.42 77.117 1.8995 8.156 4.4208 19.946 5.6027 26.2 2.5824 13.662 9.5127 35.18 12.374 38.419 1.1336 1.283 2.9574 2.7009 4.0525 3.1502v3e-3c3.3841 1.3902 9.5091 1.0254 12.528-0.74518 3.7506-2.2 7.1094-9.2751 7.6476-16.107 0.5-6.357-3.3098-28.117-10.213-58.333-8.084-35.381-15.601-79.227-18.901-110.24-2.578-24.233-6.4141-44.162-21.409-111.23-4.3164-19.303-9.0386-42.216-10.493-50.916-3.0442-18.204-4.528-23.029-8.324-27.065-2.9147-3.0978-8.0833-5.0313-12.584-4.8596zm-669.02 25.629c-2.5622 0.1204-5.0727 0.9258-7.2569 2.545-5.2565 3.898-6.2619 6.499-10.214 26.43-3.938 19.857-11.376 49.072-14.994 58.892-2.973 8.068-8.1844 16.86-13.425 22.648-10.281 11.356-22.057 12.677-30.263 3.3957-3.781-4.277-10.333-17.191-16.223-31.976-2.4908-6.253-7.7358-18.934-11.656-28.177-3.9441-9.301-7.9782-20.647-9.0325-25.405-1.0479-4.728-2.4428-9.7695-3.1001-11.202-1.388-3.0241-7.4436-6.4001-11.481-6.4001-6.9991 0-13.216 6.6636-13.216 14.165 0 5.917 3.7142 22.608 7.3758 33.147 15.557 44.779 26.3 71.29 32.858 81.086 5.206 7.7753 10.318 11.971 18.458 15.143 11.24 4.3825 29.762 1.8081 43.449-6.0374 9.288-5.325 21.954-18.414 26.715-27.605 0.9415-1.8188 1.8584-3.153 2.0371-2.9662 0.1789 0.186-0.50943 5.1827-1.5296 11.103-1.0202 5.921-2.3512 17.265-2.958 25.211-0.6068 7.947-1.9866 21.121-3.066 29.278-1.0794 8.156-2.3905 20.837-2.9135 28.177-2.5286 35.49-3.2272 42.866-5.1036 53.882-3.888 22.828-10.151 39.494-21.185 56.37-8.578 13.121-17 21.241-22.03 21.241-5.62 0-12.861-10.905-15.83-23.843-0.8257-3.598-2.145-15.612-2.9316-26.694-1.1431-16.107-1.9246-21.64-3.8948-27.567-6.2825-18.899-8.3156-22.036-15.1-23.299-7.6667-1.429-12.942 2.505-15.874 11.837-1.7543 5.583-1.7623 6.4259-0.18913 19.278 0.9049 7.391 2.1016 21.33 2.6598 30.976 1.223 21.138 3.7014 31.962 10.412 45.476 8.152 16.418 16.437 24.779 28.285 28.543l5.2e-4 -2e-3c9.908 3.147 22.247 1.8846 30.68-3.1383 10.161-6.053 17.256-13.817 30.751-33.647 13.561-19.927 19.898-35.498 25.277-62.11 3.5854-17.739 4.5365-25.884 6.4756-55.44 0.8384-12.778 2.399-30.797 3.4675-40.041s2.6403-24.593 3.4928-34.11c0.8525-9.516 2.213-21.082 3.0236-25.705 3.617-20.625 2.8359-54.535-2.0495-88.98-1.3496-9.516-2.655-18.766-2.9011-20.556-1.1662-8.481-9.3136-14.284-17-13.922zm87.789 7.8853c-3.7308-0.053-7.4985 0.2219-11.321 0.818-14.707 2.295-23.303 8.2568-29.123 20.198-6.061 12.436-8.4536 38.803-8.4837 93.564-0.0281 48.37 2.2084 214.22 3.0432 225.67 0.6878 9.437 2.0658 12.208 7.7975 15.679l-1e-3 -3e-3c3.9346 2.3812 6.6774 2.3527 11.557-0.11989 6.8514-3.471 7.1458-4.777 8.5804-38.054 0.70319-16.314 1.4079-53.796 1.5663-83.295l0.28784-53.633h2.4252c4.52-3e-3 15.463-3.1542 22.573-6.4988 14.159-6.662 27.189-19.085 42.961-40.96 8.6275-11.965 15.275-25.11 18.324-36.23 3.0719-11.206 3.0636-30.995-0.0186-43.356-4.276-17.15-7.8973-22.711-22.264-34.187-16.262-12.99-31.737-19.364-47.904-19.592zm384.42 23.624c-4.1052 7e-3 -8.5714 3.5367-9.6888 7.659-1.6877 6.23-3.2895 153.21-2.0877 191.56 1.5418 49.202 2.7872 70.611 4.4225 76.005 2.454 8.0973 7.6862 14.885 13.719 17.797 5.718 2.7607-0.0571 4.9225 22.208 6.4415l-5.1e-4 -7e-3c16.709 1.1395 20.82 1.1838 39.907 0.43666 16.652-0.6528 16.858-0.68749 19.573-3.3843 4.0538-4.0256 3.8769-9.9312-0.41703-13.915-1.7387-1.6124-4.4966-3.6179-6.1288-4.4555-3.741-1.9231-18.005-3.2069-36.038-3.2561-11.878-0.0295-14.021-1.8994-20.897-3.4577-3.1387-0.7108-6.2484-4.1214-7.4672-8.1886-2.5891-8.63-3.9663-49.82-4.8839-146.08-0.9211-96.626-1.199-106.08-3.2789-111.52-1.1526-3.0133-5.3213-5.6348-8.9416-5.6348zm-247.94 11.108c-17.689-0.16313-27.913 1.363-36.434 5.2358-14.403 6.546-19.264 15.811-19.224 36.639 0.24856 128.35 0.11854 149.85-0.99736 165.02-0.68013 9.246-1.2608 28.598-1.2909 43.008-0.0467 22.511 0.20874 27.221 1.8138 33.444 3.26 12.639 10.925 20.747 21.573 22.82v-0.0124c2.4395 0.47485 4.7102 0.91251 5.0462 0.97151 5.113 0.907 30.35-8.6841 43.591-16.567 5.1461-3.0635 10.914-6.4947 12.816-7.6243 4.3884-2.6075 6.1212-5.7255 6.1655-11.094 0.078-9.3931-4.8926-13.307-16.848-13.307-6.4812 7e-3 -8.5297 0.48046-14.975 3.4634-4.1064 1.9005-10.155 5.0692-13.44 7.0414-7.1494 4.2934-8.8562 4.4331-11.177 0.91932-1.5417-2.334-1.7653-5.1832-1.7653-22.492 0-18.45 0.73082-43.515 2.112-72.466l0.57774-12.111h6.6198c7.597-0.0128 16.195-2.1768 31.706-7.9783 2.937-1.0981 5.3512-4.9591 5.9526-9.5219 0.762-5.7764-2.6472-10.014-10.01-12.445-5.5868-1.8405-6.1854-1.8565-13.186-0.32866-4.034 0.8809-10.415 1.8849-14.18 2.2329l-6.8461 0.63097-0.56173-36.957c-0.441-29.025-0.91867-38.657-2.2247-44.868-3.6028-17.136-3.1549-18.736 6.2306-22.268 4.811-1.811 9.189-2.3288 26.663-3.1616 23.055-1.0991 26.027-1.8259 29.354-7.1722 4.0866-6.566 1.381-16.034-5.3836-18.842-2.305-0.9566-9.7388-1.5977-23.623-2.0392-2.8485-0.0903-5.5278-0.14826-8.0548-0.17156zm69.042 0.90744c-3.6191 0.11986-6.7531 0.94577-8.8971 2.5234-4.5637 3.358-8.9909 9.9915-11.276 16.895-2.1393 6.463-2.214 8.299-2.9362 71.884-0.4076 35.888-1.198 70.369-1.7565 76.622-2.2429 25.115-1.0656 44.022 4.7413 76.128 1.6227 8.972 3.4853 19.629 4.1388 23.68 0.9401 5.8278 1.7698 7.9448 3.9744 10.134l-1e-3 2e-3c3.9712 3.9434 9.9263 3.8912 13.968-0.12299 2.6891-2.671 2.9076-3.4405 2.9006-10.134-5e-3 -3.984-1.1006-14.585-2.435-23.557-3.7237-25.037-4.8796-41.169-4.1791-58.332 0.8562-20.976 2.2127-32.141 2.6934-30.943 9.5849 23.873 14.955 41.709 18.128 63.57 1.2949 8.429 2.6545 18.439 3.021 22.245 0.3667 3.807 1.5237 10.609 2.5709 15.117 1.0475 4.507 1.9048 9.212 1.9048 10.455 0 3.5236 4.4216 7.0099 8.8904 7.0099 2.0903 0 4.6002-0.65663 5.5774-1.4599 2.7939-2.297 5.3993-8.9478 5.4219-13.849 0.092-18.785-11.241-92.551-25.035-123.37-4.7334-10.576-9.5444-4.5713 4.5026-19.614 17.507-18.748 24.698-34.977 24.731-55.803 0.017-10.982-2.4596-22.059-6.6838-29.892-3.618-6.706-17.239-20.299-24.165-24.11-6.3888-3.5172-13.768-5.2796-19.8-5.0798zm-200.61 0.17673c0.75228-9e-5 1.5016 0.053 2.2417 0.16175 10.718 1.573 25.139 12.119 29.608 21.651 2.019 4.307 2.3706 6.5853 2.3776 15.471 0.017 17.472-3.5976 26.702-17.822 45.515-10.157 13.434-18.593 21.203-28.678 26.414v-5.2e-4c-4.4291 2.2878-8.5443 4.1594-9.1452 4.1594-1.4426 0-1.4611-39.365-0.0305-64.758 1.3043-23.15 3.7757-36.894 7.5081-41.753 3.2716-4.2599 8.6742-6.86 13.94-6.8606zm296.56 0.8847c-6.9971 0.17292-13.654 1.6451-17.673 4.286-4.3429 2.854-9.1941 9.8718-10.889 15.75-2.0044 6.95-1.108 120.07 1.2537 158.2 2.2363 36.102 3.0305 43.524 6.9133 64.596 2.0116 10.916 2.5487 16.01 1.9182 18.195-1.3066 4.5236 1.2989 9.221 6.411 11.558v2e-3c5.129 2.3458 12.83 2.4569 18.049 0.26148 19.268-8.104 32.146-19.403 39.656-34.795 7.6185-15.614 10.61-32.736 8.6966-49.776-1.3243-11.792-3.5524-18.621-10.695-32.778-6.796-13.468-12.549-22.108-19.421-29.166l-5.2953-5.4369 7.5411-7.4156c6.1297-6.026 8.4898-9.2962 12.608-17.467 2.9363-5.826 5.7862-13.266 6.7784-17.694 3.5178-15.702-0.15244-40.815-8.1824-55.99-4.491-8.486-14.049-17.644-20.885-20.009-4.1021-1.4198-8.9403-2.1773-13.773-2.3151-1.0068-0.0287-2.0131-0.0304-3.0127-6e-3zm275.71 8.26c0.9594-0.29265 2.4456 6.3163 11.003 45.897 8.424 38.963 12.481 60.143 12.47 65.104-0.01 2.5188-0.2244 2.6266-5.7242 2.7053-7.451 0.1121-19.897 2.6273-39.399 7.9618l5.2e-4 -5e-3c-18.019 4.9295-16.597 4.6612-16.597 3.1383 0-3.98 35.095-119.27 37.849-124.33 0.1346-0.2475 0.2608-0.43 0.3979-0.47181zm-276.19 13.505c1.868 0.0294 4.2942 1.1952 7.5975 3.5714 8.0639 5.8 13.587 17.704 14.842 31.989 1.542 17.553-7.1931 36.551-20.101 43.716l-5.2e-4 1e-3c-2.5226 1.4-5.09 2.5414-5.7056 2.5414-0.8097-3e-3 -1.1188-10.927-1.1188-39.507 0-35.535 0.16628-39.668 1.6578-41.153 0.78773-0.78495 1.708-1.1767 2.8288-1.1591zm-87.835 5.8529c4.3228 0.15123 13.232 9.5059 15.754 16.721 4.3434 12.428 1.2282 29.912-7.4828 41.996-2.7261 3.7808-6.9794 9.0991-9.4521 11.817l-4.4964 4.9434 0.0418-33.12c0.0475-37.581 0.57044-41.814 5.2322-42.344 0.12953-0.0147 0.26415-0.0193 0.4036-0.0145zm84.106 107.01c1.8505 0.0781 13.657 12.347 17.609 18.391 5.8527 8.952 12.683 23.346 14.596 30.761 1.1995 4.65 1.5092 9.4053 1.218 18.686-0.3818 12.173-0.48084 12.636-4.4307 20.802-2.3187 4.7932-6.176 10.668-9.0542 13.789-5.6918 6.1718-12.987 10.835-13.641 8.7173-1.4375-4.658-3.8154-25.845-4.6405-41.344-1.4062-26.413-2.5161-69.335-1.804-69.771 0.0384-0.0235 0.0876-0.0335 0.14727-0.031z"/><path class="transmit one" d="m668.98-1329.9c-1.6934-0.011-3.7412 0.4173-6.2472 1.263-6.431 2.171-17.093 10.755-21.769 17.526-10.987 15.908-10.971 38.334 0.0403 56.986 4.6821 7.9308 9.0356 12.68 13.997 15.269 3.7469 1.9565 3.9535 1.9603 7.5019 0.1385 5.563-2.857 4.672-8.5329-2.9037-18.497-2.2065-2.9009-5.2609-7.9313-6.7882-11.177-2.4631-5.233-2.7753-7.0174-2.7606-15.786 0.0141-8.4166 0.36009-10.533 2.327-14.229 3.434-6.454 10.907-13.882 16.72-16.62 6.4373-3.0305 8.264-6.4672 5.8756-11.054-1.3325-2.5592-3.1705-3.7979-5.9929-3.8163zm58.885 9.7374c-2.4848-0.087-3.3164 0.4434-5.0819 2.1968-5.0482 5.0131-2.5765 10.24 6.1547 13.011 12.771 4.055 20.146 12.93 20.146 24.244 0 6.303-2.4895 15.286-7.0058 25.282-3.9678 8.7821-3.6768 12.886 1.032 14.558h5.2e-4c8.151 2.893 16.258-6.9831 20.903-25.464 5.669-22.555-1.35-39.778-20.068-49.239-4.6178-2.3339-9.383-3.9239-12.949-4.3201-1.2915-0.1436-2.3033-0.2409-3.1316-0.2698z"/><path class="transmit two" d="m643.67-1382.3c-2.8094-0.1919-6.1562 0.6878-10.432 2.6128-19.064 8.585-38.467 23.977-49.871 39.562-5.898 8.059-15.93 28.471-18.065 36.754-2.2936 8.899-2.5732 33.491-0.48835 42.956 1.462 6.638 14.961 43.988 18.181 50.304 3.626 7.113 11.824 18.214 15.513 21.01 1.9594 1.4836 5.839 3.9446 8.6212 5.4684v-6e-4c2.7822 1.5239 6.48 2.7885 8.2176 2.7885 3.7461 0.021 8.7856-3.8009 9.6805-7.3422 1.0567-4.183-2.9533-12.628-9.4785-19.961-7.147-8.033-12.474-18.492-19.822-38.921-7.8702-21.88-9.8152-37.407-6.3609-50.774 2.027-7.841 9.4081-22.84 14.862-30.196 8.882-11.982 26.343-26.731 39.345-33.233 7.7987-3.8999 8.95-5.1181 9.6351-10.19 0.4386-3.2473 0.0725-4.3504-2.3296-7.0197-2.126-2.3625-4.3984-3.6259-7.2078-3.8179zm140.35 3.0794c-0.58923-0.02-1.1436 0.016-1.6588 0.1122-4.9332 0.9192-8.4023 4.7974-8.3571 9.3415 0.0505 5.0963 1.951 7.8466 7.4874 10.832 9.862 5.318 21.722 23.1 28.055 42.062 9.5042 28.458 9.6006 35.266 0.82786 58.434-8.528 22.522-16.33 33.574-33.617 47.618-3.8472 3.1253-9.0063 8.135-11.465 11.132-4.0527 4.9413-4.4201 5.8226-3.9321 9.4366 0.3547 2.626 1.4271 4.7437 3.1445 6.2115h-5.2e-4c3.03 2.5877 9.6749 2.9468 15.606 0.8439 8.669-3.074 25.284-17.077 34.159-28.788 17.824-23.518 29.435-60.312 26.515-84.021-1.727-14.028-12.749-42.752-21.124-55.054-10.114-14.855-26.802-27.857-35.64-28.159z"/><path class="transmit three" d="m822.67-1432.8c-5.485 0.072-9.6506 2.306-12.594 6.6807-5.2288 7.773-0.16304 17.857 9.909 19.727 8.24 1.527 22.73 11.832 37.624 26.753 7.4273 7.441 9.3052 10.096 15.162 21.441 7.6264 14.772 9.213 20.478 10.668 38.358 3.102 38.14-0.31677 54.602-19.12 92.051-4.3684 8.7-10.301 19.378-13.184 23.728-5.018 7.571-18.346 24.125-26.369 32.751-4.5692 4.9122-5.4624 8.3091-3.7346 14.199 0.9253 3.1539 2.2963 5.11 4.7454 6.7686 3.1333 2.1206 4.118 2.2733 10.911 1.6893 9.081-0.78 11.551-2.2952 24.392-14.954 12.146-11.976 19.373-23.026 33.34-50.982 18.361-36.749 22.392-51.308 22.272-80.43-0.203-49.032-6.0827-68.97-28.305-95.986-7.45-9.055-14.098-15.009-26.85-24.043-16.919-11.987-29.726-17.872-38.867-17.752zm-238.04 0.2465c-2.4721 0.032-5.3206 0.3732-8.5866 1.0102-9.155 1.786-18.455 5.9291-29.075 12.952-10.884 7.199-31.949 24.492-39.643 32.547-30.461 31.89-35.587 74.077-17.619 144.99 5.133 20.258 22.046 53.466 35.049 68.82 4.619 5.454 14.625 12.551 22.506 15.963 2.6251 1.1355 5.9856 2.92 7.4672 3.9641s3.5899 2.1276 4.685 2.4118c4.318 1.1139 12.387-2.413 14.503-6.3387 3.1882-5.917-1.0938-18.7-7.6988-22.984-12.031-7.802-23.104-22.348-35.339-46.416-6.6211-13.025-12.51-33.661-16.414-57.521-2.4701-15.095-2.5184-42.939-0.0899-51.906 3.523-13.007 8.9458-21.962 20.493-33.839 12.457-12.813 25.082-23.611 35.519-30.376 7.555-4.898 10.875-6.2959 17.61-7.4166 7.6185-1.269 12.248-9.4435 9.8506-17.391-1.77-5.8664-5.8009-8.5607-13.217-8.4661z"/></g><path transform="matrix(1.4994 0 0 1.5468 81.367 -17.637)" d="m308.51-102.31-0.11689 2.5292 0.37771 2.9142-0.1231 2.4724-0.102 2.7128-0.0135 2.7573 0.0918 2.7351-0.152 2.4349 0.2045 2.931-0.16421 2.6012 2.7105 0.05415 2.5271-0.02217 2.6154-0.03104-0.14035-2.0865 0.014-1.5712-1.6516 0.1178-1.976 0.11032 0.013-2.9375 0.027-2.9374 0.52293-2.9397-0.21005-3.4203-0.0661-2.4928-0.13116-2.9485 0.15067-2.828-2.2105-0.10982zm11.698-0.43127c-1.0312 0-1.8193 0.62624-2.3349 1.1418-0.51558 0.51557-0.79968 1.2863-0.79968 2.3175l-0.0162 2.7749-0.0184 3.1726 0.0141 3.023-0.0353 2.6988 0.40651 3.4109-0.20522 2.9532c-0.04 0.99739 0.34718 1.8629 0.85276 2.3701s1.4567 0.69082 2.4879 0.69082l1.9683-0.21626 2.3232 0.23849c0.97355-0.02864 1.6154-0.74412 2.1165-1.2669 0.50116-0.52273 0.89701-0.8195 0.89701-1.8507l0.23364-2.9772-0.14049-3.0997 0.13148-2.7646-0.14987-3.1711-0.0771-2.9354-0.17094-3.3388c0.069-0.84166-0.24389-1.6821-0.74222-2.1502s-1.2941-0.87667-2.3253-0.87667l-2.239-0.0794zm15.913 0.32027 0.0311 2.5986 0.0136 2.8962 0.49292 2.7631 0.12033 2.6233-0.17725 2.0959-0.13973 3.1931 0.0101 2.7757-0.17079 2.569 0.11392 2.759 1.922-0.03574 2.1844 0.02207-0.0788-2.5214-0.15458-2.6424 0.13016-2.2892-0.12371-2.5384 1.9273 0.05517 1.8935 0.01799 0.24705-1.6661-0.50652-2.1828-1.7678 0.17947-1.922-0.0352 0.37196-2.3027 0.18872-2.2823-0.4762-2.6706 1.9068 0.05151 2.175 0.15908-0.12146-1.7708-0.0897-2.1113-2.633 0.15773-2.5617 0.19614zm9.0008 0.18172-0.12033 2.5189 0.35145 2.9207-0.0824 2.4581-0.095 2.6788-0.0265 2.7427-6e-3 2.6781 0.0795 2.6894-0.20382 2.3736 0.0364 2.7901 2.4046 0.20652 1.6763-0.43908-4e-3 -2.6886 1e-3 -2.5714 0.35052-2.4861-0.10813-2.8402 0.21274-2.4263-0.14835-2.8148-0.14539-3.0677-0.18249-2.3225 0.43265-2.4016-1.998 0.0723zm11.582-0.0582 0.12555 2.7313 0.0498 2.6847-0.01 2.6316 0.28943 2.7377 0.21405 2.6908 0.17711 2.6142 0.19221 2.7603-0.39621 2.7445-0.55513 2.537 2.4821-0.04592 2.4965-0.10267 2.6885 0.19872c0.9585-0.05377 1.7369-0.3062 2.2343-0.83521 0.4974-0.52901 0.62041-1.6044 0.62041-2.6356l0.0191-2.0014 0.0322-1.9516-0.0303-2.1249c0.0362-0.9511-0.20351-1.6844-0.65848-2.18-0.45496-0.49554-1.0849-0.72341-1.9099-0.72341 0.82497 0 1.4298-0.32755 1.8837-0.85059 0.45394-0.52304 0.86364-1.1617 0.86364-2.1929l0.0584-2.7002 0.0326-2.7526c-0.0988-1.0948-0.40885-1.9028-0.94913-2.4342-0.54029-0.53146-0.8617-0.73022-1.8929-0.73022l-2.6135 0.033-2.7958-0.0998zm11.863-3e-3 5e-3 2.6856 0.0438 2.7172-0.0221 2.6094-0.0195 2.6239-0.0742 2.5361 0.036 2.892-5e-3 2.6485-0.029 2.5654 0.0397 2.7644 3.0722 0.06215 2.3634-0.08495 2.9273 0.18524-0.20783-2.0288 0.41598-1.3973-2.2091-0.06356-2.2388-0.07548 0.025-2.3093-0.0148-2.3237 0.0488-2.2573 1.9568-0.01708 1.9258-0.60966 0.01-1.3592-0.0969-1.5088-1.8715 0.11918-1.8039 0.11851-0.0974-2.3869-0.0727-2.4163-0.041-2.4234 2.0034-0.0047 2.3558 0.23909-0.0745-1.7319-0.0312-1.6751-2.3857 0.0707-3.2351-0.19126zm11.191-0.0599-0.19532 2.77-0.16422 2.7166 0.1016 2.6671-0.12277 2.8204-0.32734 2.6724-0.23676 2.7155-0.6747 2.4542-0.29343 2.7312-0.92926 2.3238 1.9692 0.01453 2.2074 0.25389 0.4502-2.5531-0.16903-2.6495 2.4679 0.08015 0.0568 2.1317 0.27919 2.9858 2.1779 0.0701 2.0942-0.0039-0.4031-2.782-0.26081-2.5361-0.3346-2.7286-0.1956-2.5905-0.13503-2.7705-0.50088-2.9158-0.30707-2.428-0.26686-2.6032-0.41984-2.7547-2.6705 0.12704zm7.1108-8e-3 0.0475 1.6425 6e-3 1.612 1.5305 0.11281 1.6968 0.20673 0.0447 2.9747-0.0433 2.5145 0.0566 3.3744-0.0477 2.8844-0.171 2.6629-9e-3 3.0511 0.0515 3.1177 2.0261-0.01994 1.9921-0.06274 0.0202-2.9297 0.0316-2.9333 0.026-2.9388 0.0399-2.9252 0.19504-2.8209-0.13684-3.237-0.12434-2.7778 1.5853 0.03088 1.4377-0.12453 0.0379-1.669 0.0753-1.6369-2.6339-0.14381-2.4886 0.0575-2.6073 0.0323zm14.617 0.20572c-1.0312 0-2.1331 0.13216-2.6487 0.64773-0.51558 0.51556-0.73098 1.3289-0.73098 2.3601l-0.016 2.4481 0.0859 2.4645 0.24823 2.4726c-0.1782 0.94746 0.24852 1.705 0.68517 2.1824 0.43665 0.47749 1.1258 0.81043 2.0883 0.81043l1.6252-0.04713 1.5564-0.26314 0.36317 2.7109-0.22587 2.1052 0.0556 3.0733-2.0266-0.10135-0.13823-2.6466-0.14038-2.7156-2.096-0.0051-2.1112-0.28892 0.5928 2.836-0.66537 2.6747c0.0403 1.0955 0.50033 2.0093 1.026 2.541s1.0836 0.63812 2.1149 0.63812l2.1236 0.01396 2.2054 0.07072c0.99749-0.02083 1.7893-0.27756 2.2964-0.79834 0.50715-0.52077 1.1664-1.2975 1.1664-2.3287l-0.2219-2.7177-0.11139-2.4299-0.11362-2.6794c5e-3 -0.90276-0.27107-1.7154-0.75099-2.1817s-1.1811-0.64792-2.1436-0.64792l-1.6603 0.0401-1.7727 0.0077 0.18018-2.405 0.28677-2.3488-0.47306-2.5928 2.2084-0.0066 0.38227 2.6234-0.0821 2.543 2.1035 0.06392 2.1585-0.07914-0.26348-2.599-0.0125-2.3647c-0.0754-1.0852-0.36259-1.8774-0.89702-2.4065-0.53443-0.52906-1.0046-0.76233-2.0358-0.76233l-2.2206-0.0111zm11.568-0.0936-0.23527 2.4833-0.0269 2.7929 0.30863 2.8393 0.0401 2.5945-0.0587 2.3428-0.0981 2.8349-0.0287 2.6495-0.0126 2.8292 0.22944 2.7298 1.8685-0.10458 1.8703-0.34048-0.0691-2.7819 0.17956-2.0019-0.0168-2.4199 0.2556-2.2331 1.7052-0.43284 1.8681 0.36035 0.28449-1.6724-0.1515-1.7046-2.0125-0.10771-1.6674 0.06509-0.24065-2.7093 0.0286-2.1577-0.0891-2.4719 2.0243 0.07504 1.8874-0.04567-0.0193-1.7554 0.0853-1.6377-2.6058 8.4e-4 -2.4758 0.0629zm11.855-0.0329c-1.0312 0-1.8309 0.20386-2.3466 0.71943-0.51571 0.51556-0.84394 1.1791-0.84394 2.2103l-0.0664 2.8396 0.0869 3.1919 0.0185 2.9885-0.0172 2.8597-0.0293 3.0437 0.35442 3.2301c-0.12256 0.97616 8e-3 1.6224 0.49273 2.1242 0.48507 0.50181 1.3726 0.86771 2.4038 0.86771l2.1225-0.21856 2.6322 0.2921c0.88144-0.04104 1.453-0.66952 1.9311-1.1953 0.47814-0.52583 1.0583-0.84704 1.0583-1.8782l-0.0274-2.9911-0.15381-3.3904-0.02-2.6418-4e-3 -3.1309 0.027-2.8217-0.0679-3.0612c0.0255-1.0008-0.31537-1.8796-0.82458-2.3876-0.50921-0.50798-1.1005-0.60297-2.1317-0.60297l-2.2756-6e-3zm8.9148 0.0371 0.22738 2.7568-0.1834 2.3012 0.0595 2.9515-0.0843 2.1966 0.0513 3.1857 0.18587 2.6475-0.11483 2.6342-0.12013 2.6515-0.15952 2.2956 2.0903 0.20109 2.135 0.23788-3e-3 -2.5988 0.12232-2.5698-0.1571-2.8035 0.0802-2.3925 2.9398-0.03486-0.18617 2.0731-0.15261 2.1211-0.23443 1.7818c0.0311 0.87348 0.13505 1.6285 0.1901 2.3065 0.055 0.67805 0.13781 1.3248 0.29251 2.1326l1.9792-0.06523 2.1104 0.05216c-0.19239-0.82407 0.0337-1.398-0.023-2.0422-0.0567-0.64422-0.34041-1.3268-0.34041-2.0486l0.18664-2.2274-0.2886-2.3059c0.0231-0.99759 0.13575-1.6646-0.32248-2.1718s-1.4995-0.86867-2.3245-0.86867c0.82497 0 1.7102-0.12483 2.1773-0.63696 0.46704-0.51213 0.43667-1.7082 0.43667-2.7394l0.0212-1.992-0.0587-2.1659 0.13587-1.7845c-0.01-1.0397 0.0638-1.6903-0.45421-2.208-0.51797-0.5177-1.6236-0.89889-2.6548-0.89889l-2.6781-0.26973-2.4348 0.052zm-51.057 3.159 0.40153 2.5192 0.0229 2.3538 0.18223 2.7474 0.0917 2.0303 0.13112 3.1069-1.7136 0.02829 0.16277-2.5694 0.20753-2.5294 0.25486-2.5624 0.11048-2.6021zm-21.959-0.02808 2.5091-5.72e-4 0.19062 2.4459-0.16816 2.2103 0.0321 2.6787-2.6648-0.2458 0.39813-2.2549-0.15028-2.4807zm77.061-0.0064 2.5007-0.09623 0.52725 2.7682-0.15714 2.7687-0.3307 2.6222-2.6288-0.16199-0.0847-2.9135 0.11167-2.3311zm-116.13 0.23199 1.9804-0.04802-0.0203 2.8552 4e-3 2.8338-0.0955 2.7295 0.0502 3.1557 0.14265 2.9058-0.0947 2.8341-2.5782-0.11843 0.16592-2.8382 0.0627-2.8213-0.074-2.9707-0.0957-2.9068-0.0578-2.941zm104.47 0.0449 2.2877-0.0476 0.0699 2.9416 0.18088 2.9032-0.10197 2.7443-0.0844 2.5557 0.1276 3.3854-0.23251 2.8122-2.6146-0.13058 3.5e-4 -2.9703 0.0286-2.7603-0.0826-3.1001 0.0323-2.6672 0.18777-2.7957zm-96.895 8.7554 0.19112 1.6021-0.45862 1.6526 2.1881 0.08818 1.7778-0.12337 2.2875 0.07477-0.20166-1.7603 5e-3 -1.5184-2.037-0.54983-1.9229 0.36987zm31.473 0.69644 2.7614 0.18061-0.11923 2.5438-0.0563 2.6794-0.06 2.5997-2.5834-0.08616 0.3527-2.5909 0.0688-2.5352z" stroke-width=".46036"/><path transform="matrix(1.2784 0 0 1.3188 1677.8 88.33)" d="m-887.13-168.43-0.18383 2.1943 0.44728 2.727-0.1311 2.1964-0.11242 2.4859-0.0149 2.5389 0.11059 2.5121-0.15985 2.1518 0.22156 2.7471-0.0412 2.3548 0.0737 2.5016-0.0666 2.3821-0.0721 2.4323-0.27163 1.9922 1.902-0.174 2.3788 0.17222 1.8402 0.149 2.0327 0.15826 2.0484 0.15927c0.89327-8e-3 2.2793-0.13038 2.8775-0.43591 1.2185-0.26143 0.79153-1.2474 0.93707-1.8313 0.15527-0.62305 0.27449-0.87201 0.27449-1.8069l0.0164-2.3366 0.37216-2.2224-0.0669-2.5746-0.0534-2.3326-0.0996-2.4314-0.12088-2.3579-0.0563-2.5086-0.0559-2.1428-7e-3 -2.323-0.0567-2.7117c0.0256-0.78232 0.30326-1.3254 0.0128-1.8743 0.0943-0.46993-0.84753-1.0087-1.6457-1.3307-0.66394-0.26781-1.3635-0.36919-2.1859-0.36919l-1.6447 0.0159-2.574-0.28025-1.7579 0.11115-2.2959-0.52057zm16.127 0.0222-0.12513 2.385-0.12773 2.3068 0.1801 2.6974-0.10544 2.2222-0.0541 2.4908-0.18834 2.0112-0.10619 2.6975-0.11411 2.258-8.2e-4 2.5329 0.0329 2.1731 0.0645 2.7319 0.0841 2.704 0.64004 2.544 1.8401 5e-3 1.2934-0.71782 1.6468 0.56851 0.13456-2.3316-0.0309-2.5645 0.29784-2.3223-0.0348-2.53 0.2862-2.3639-0.0954-2.5406-0.18577-2.595 0.1226-2.167-0.0457-2.4803 2e-3 -2.393 0.0342-2.3938 0.14606-2.445-0.74315-2.9045-1.7116 0.15551-1.8956-0.0831zm10.642-0.10456c-0.90561 0-1.2191 0.35434-1.8228 0.65617-0.21612 0.46978-1.1825 0.50275-1.5868 1.0864-0.38602 0.55725-0.66838 1.4366-0.66838 2.3212l0.24738 2.4692-0.0954 2.3781-0.0719 1.984-0.0128 2.9762c-8e-3 0.839 0.26164 1.6128 0.53973 2.1735 0.40051 0.6099 0.58444 0.76419 1.0787 1.0272 0.53916 0.28686 1.2046 0.45276 2.0866 0.45276l2.7131 0.23068 1.8375-0.19719-0.0612 1.9313 0.0248 2.1065 0.0485 2.0267 0.14721 2.0396-0.25686 1.6588-1.4062-0.0282-0.96178 0.51857-0.16283-2.8823-0.12423-1.9971-0.14143-2.3343-1.3783 0.17052-2.2764-0.16946-1.4241 0.16485-0.14443 2.2534-0.14332 1.7654-0.16262 2.6629c0.0476 0.97822 0.70016 1.8338 1.0232 2.4698 0.75416 0.61216 0.87795 1.0929 1.2812 1.388 0.51332 0.37558 0.96949 0.48941 1.9838 0.48941l1.9693 0.0355 1.7742 0.0232 1.7717-0.0976c0.90033-5e-3 2.0294-0.0671 2.6307-0.37127 0.97432-0.20942 1.3138-0.67309 1.5213-1.2929 0.21097-0.63005 0.31378-1.5069 0.31378-2.42l0.48722-1.9517-0.0855-2.0398-0.19165-2.0769-0.34519-2.1164-0.31456-2.0807c0.0143-0.80648 0.0575-1.356-0.21789-1.9023-0.11521-0.44561-0.7374-1-1.3898-1.3108-0.588-0.2801-1.4636-0.79813-2.265-0.79813l-2.2224 0.12726-2.1991 0.1872-0.0854-2.5898 0.0287-2.206 0.0795-2.3613-0.0836-2.5078 1.6329 0.13322 1.511 0.0492 0.19252 2.3204-0.16146 2.0216 0.37388 2.229 1.6986 0.0396 1.4815-0.11766 1.6547-5e-3 1e-3 -2.2038 0.0588-2.146-0.065-2.2754c7e-3 -0.89565-0.15967-1.7329-0.45861-2.3322-0.31433-0.68003-0.82196-1.2694-1.4073-1.548-0.60219-0.28668-1.2516-0.15719-2.1701-0.15719l-1.8843-0.0245-1.903-0.14338zm11.347-0.10079 0.42717 2.6419-0.0547 2.2962 0.1865 2.6766-0.19099 1.9966 0.42643 2.8939-0.0751 2.3018-0.10091 2.4279-0.071 2.4406-0.10965 2.4246-0.0358 2.5014-0.11626 2.3866-0.15034 1.7314-0.11811 3.1243 1.6007-0.17261 1.9082 0.1446 1.8632 0.13783-0.0811-2.5373-0.0695-2.5724-0.0641-2.5805-0.1107-2.3812 0.23346-2.3146-0.0195-2.5342 0.0592-2.4088 0.37349-2.4682-0.34374-2.7717-0.19137-2.3478-0.0775-2.4324 0.41891 2.5406 0.73625 2.435 0.51061 2.56 0.27249 2.4296 0.40619 2.5354-0.0625 2.2073 0.39022 2.645-0.15344 2.139-0.0651 2.6438 0.16986 2.6205 0.34617 2.5098 2.0267-0.0641 2.1288 0.0591 1.8717-0.54031 0.24712-2.4354 0.34646-2.3456 0.33745-2.429 0.14105-2.6222 0.28399-2.2764 0.22902-2.4798 0.38501-2.326 0.46931-2.5178-9e-3 -2.6868 0.20282-2.1575 0.2856-2.3493 0.0947 2.4851 0.25927 2.6129-0.10021 2.2239-0.0934 2.3634-0.0854 2.3371-0.10039 2.7614 0.088 2.5531-0.0234 2.4533-0.14272 1.9587-0.0259 2.9838-0.21167 2.3973 1.6464-0.33756 1.9302-0.0231 1.8239 0.38043-0.0191-2.4582-0.0766-2.5095 0.0207-2.3422 0.0356-2.4361 0.0315-2.4426 0.0517-2.4264 0.24775-2.3011-0.0647-2.7994-0.0596-2.2548-5e-3 -2.3923-0.15775-2.5968-0.0112-2.3122 0.0332-2.4051-2.2621-0.17257-2.0884 0.0687-2.2296 0.039-2.2685-0.0658-0.18746 2.3162-0.13651 2.3691-0.18774 2.2782-0.0703 2.3362 0.2267 2.3552 0.0666 2.38-0.0264 2.4707-0.32963 2.2206-0.40077 2.0616 0.0274 2.6331-0.65231 1.7695-0.30473 2.8098 0.25028-2.3046-0.1971-2.3394-0.1382-2.3586-0.27577-2.3513-0.2862-2.6547 0.46593-1.9691-0.51715-2.6048-0.1331-1.9963-0.49947-2.5154-0.41436-2.2373-0.33034-2.2281-0.45184-2.3252-1.66 6e-3 -2.7997-0.18587-2.1045 0.0685zm26.417 0.1467-0.33043 2.29-0.31004 2.5027-0.21929 2.521-0.29225 2.4173-0.0657 2.4766 0.14323 2.5557-0.38216 2.292-0.42625 2.4117 0.0729 2.6013-0.14932 2.4915-0.33542 2.5039-0.15172 2.3673-1.2423 2.1862 1.9518 0.15484 1.6014-0.0277 2.1331-0.0122 0.10058-2.271 0.40118-2.1379-0.49569-2.6179 1.5961 0.0452 2.0403 0.29613 0.13328 2.2655-9e-3 1.817-0.0387 2.4108 1.856-0.12915 1.885 0.14887 2.1537 0.20811-0.37212-2.532-0.41358-2.8096-0.35757-2.4412-0.0843-1.9638-0.33102-2.4925-9e-3 -2.2467-0.41358-3.0861-0.15971-1.9209 0.0104-2.4441-0.2157-2.4336-0.64943-2.6721-0.19389-2.2231-1.0522-2.8315-1.7904 0.0903-1.9286 0.0483-1.7346 0.16723zm12.476 0.12607-0.45744 2.2664 0.087 2.5371 0.0854 2.4016 0.32364 2.5237 0.11306 2.3749-0.11066 2.3404-0.19205 2.3022-0.15091 2.433 0.0333 2.6555-0.044 2.4175-0.0873 2.2603-0.10366 2.4804 0.3605 2.7059 1.6183-0.16354 1.8354 0.0263 1.5142-0.25205 0.30916-2.3645-0.24203-2.9928 0.17643-1.9138-0.0981-2.5884-0.2442-2.9345-0.0833-2.0305-0.0807-2.623-0.0414-2.2529-0.14428-2.5413-0.16649-2.5327 0.16534-2.2676 0.33477 2.293 0.30118 2.248 0.63447 2.4203 0.0749 1.7923 0.42438 2.6298 0.20621 1.6957 0.42989 2.8946 0.51697 2.2406 0.18281 2.2115 0.18049 2.2638 0.11576 1.8353 0.33944 2.7701 1.9823 0.0369 1.899-6e-3 2.0899 0.0307 1.6825-0.25194 0.10333-2.3683 0.61241-2.4651-0.0762-2.4752-0.0414-2.3865-0.13089-2.7967 0.0554-1.9825 0.029-2.4438-0.1114-2.5316 0.0224-2.329 0.30353-2.3498-0.16731-2.5299 2e-3 -2.4403-0.56283-2.4838-1.3471 0.13456-2.2237-0.0464-1.5081 0.14788-0.0605 2.038 0.0436 2.7447-0.061 2.1786 0.0848 2.6385 0.45595 2.5248-9e-3 2.2448-0.18839 2.0672-0.0149 2.6217 0.0938 2.5256 0.42622 2.4098-0.49018 2.146-0.27486-2.3781-0.35563-3.0486-0.24865-1.7593-0.0423-2.3547-0.37411-2.4523-0.30853-2.3282-0.25191-2.3759-0.38723-2.4305-0.29125-2.312-0.53341-2.5035-0.27227-2.332-2.1146-0.25214-1.8803 0.13219-2.2082-0.18742zm17.558-0.12164-0.60536 2.2573-3e-3 2.2626 2.0222-0.12322 2.6808 0.18673 0.0628 2.5618-0.0349 2.3856-0.18463 2.2704-0.20145 2.3005-0.01 2.8252-0.0487 2.4322-0.0633 2.4378-0.0651 2.4541-0.0323 2.3943-0.15064 2.2692 0.10596 2.7794 1.918 0.0208 1.6331-0.0591 1.7109-0.15569 0.18996-2.4251 0.084-2.4046-0.0673-2.584-0.10404-2.508-0.0916-2.5482 0.63006-2.2235-0.0123-2.4751-0.0288-2.4064 0.0887-2.4318-0.31721-2.6384-0.2601-2.8112 2.2863 0.36525 1.8432 0.15271-0.10391-2.3997 0.0461-2.2885-2.2358 0.0346-2.3837-0.2427-2.1578 0.0655-2.0734 0.16399-2.0622 0.12765zm14.017-0.19459 0.10339 2.677 0.21533 2.5094-0.0782 2.2447 0.26711 2.6094-0.14804 2.2222 0.01 2.6004-0.0483 1.7507 0.11609 3.2128 0.30354 2.3382 0.10472 2.6103-0.3079 2.2116-0.2479 2.4839-0.24716 2.3995 1.9733-0.11376 2.5514 0.0748 1.9216 0.17609 1.7945-0.10554 2.0919-0.0132 0.52211-2.1816-0.24451-2.303-2.6656-0.11311-2.652-0.0627 0.0284-2.4403 0.17536-2.3888-0.0501-2.7015 0.40866-2.2838-0.0624-2.485-0.0895-2.6071 0.0284-2.237-0.21866-2.813 0.0892-2.0876-0.12361-2.5824 0.13419-2.3226-2.037-0.33385-1.7209 0.0295zm11.322-0.17456 0.28164 2.8319-0.13081 1.8296 0.0152 3.019 0.12579 2.441-0.07 2.3379 0.17435 2.6605 0.3475 2.4025-0.18842 2.2262 0.30795 2.6169 0.15357 2.4668-0.30431 2.4332-0.29275 2.4121-0.34371 2.3633 1.8193 0.0152 1.6869-0.11368 2.0181 0.19488-2e-3 -2.4384 6e-3 -2.4414 0.25312-2.2897-0.1547-2.8382 0.0128-2.1813 0.39809-2.4548 0.10801-2.4462-0.20363-2.6805-0.16799-2.4058-0.0937-2.2827-0.10414-2.4662-0.12684-2.452 0.28652-2.2988-1.9076-0.0336-1.8736-2e-3zm7.2237 0.40887-0.114 2.3915-0.0291 2.4023 0.29155 2.5443-0.093 2.2891-0.10303 2.2851 0.0151 2.6789-6e-3 2.4336 0.1449 2.5552-0.042 2.32-0.0477 1.7471 0.0236 3.1505-0.10741 2.1892 0.0385 2.7275 1.9212 0.0838 1.6087-0.0785 1.8448-0.0179-0.0883-2.5116-0.11767-2.5917 0.20985-2.3653-0.15583-2.6672-0.0423-2.2909 0.029-2.4487-0.11289-2.5646 0.4245-2.4626 0.29877-2.4844-0.59758-2.6141-0.60934-2.4141 0.59618 2.39 0.28167 2.1416 0.29974 2.2832 0.33135 2.3094 0.78477 2.3962 0.73996 2.2404 0.11852 2.1188 0.0905 2.0347 0.15845 2.4477 0.1915 2.4433 0.19178 2.3138-0.0314 2.0769 1.8908-0.43861 2.1366 0.27334 2.0624 0.29014 1.7688 0.051-0.031-2.4787 0.22413-2.2537 0.0879-2.5237-0.0593-3.0612-0.0413-1.9108-0.0566-2.5228-0.16309-2.562-0.11653-2.4272 0.11556-2.1348-0.0187-2.6462 0.21706-2.1847-0.13985-2.6226-0.0435-2.4225-1.6963 0.0959-1.739 0.0918-1.7937-0.0315 0.19373 2.4927-0.0377 2.1956-0.0624 2.3477 0.0188 2.0879 0.1668 2.8942 0.36496 2.4969 0.13214 2.3805-0.10315 2.2616-0.11114 2.3197 0.2002 2.6507-0.29372 2.2127 0.11451-2.2816-0.38896-2.5735-0.40391-2.6185-9e-3 -2.0238-0.43336-2.5938-0.21855-2.2783-0.42601-2.5021-0.1489-2.2988-0.12196-2.5413-0.77062-2.4321-0.97307-2.7487-1.963 0.0727-1.918 0.1075-2.0828-0.14438zm21.915-0.0355c-0.90561 0-1.7497-0.062-2.3535 0.23981-0.69125 0.11229-1.0892 0.80619-1.3739 1.4962-0.26415 0.64024-0.52839 0.99905-0.52839 1.8708l-0.0656 2.2844 0.29756 2.6552 0.0311 2.2968-0.0393 2.34-0.0459 2.3696 0.1435 2.5607-0.0664 1.8494-0.18048 2.5932 0.013 2.4638 0.60429 2.6625c-0.17865 0.88107-4e-3 1.7192 0.21813 2.3121 0.3544 0.66466 0.63246 1.027 1.1395 1.3017 0.55738 0.30192 1.1934 0.20181 2.1418 0.20181l2.5146 0.33673c0.86819-0.0752 1.8113-0.26407 2.4132-0.65081 0.60195-0.38675 0.86102-1.2376 1.1327-1.9847l0.99566 1.8937 1.4423 0.21276 1.7184 0.50156 0.22979-2.0709-0.20566-2.54 0.0438-1.9714-0.0634-2.992-0.11557-1.9919-0.12748-1.8346 0.0338-2.1348-1.724 0.0442-1.9002-0.0529-1.6966 0.0981 0.1695 2.132-0.16962 1.5778-0.01 2.6067-0.0916 1.7327 0.0487 2.4509-1.7728-0.16695-1.5328 0.15565-0.079-2.5459 0.16711-2.3457-0.13921-2.9001 0.0152-2.0095 0.54329-2.3955-0.2155-2.6937 0.22512-2.1769-0.0354-2.4743-0.48041-2.5542 1.9726 0.14823 1.6174-0.0704-0.0731 2.1438 0.34375 2.2244-0.19906 2.2272-0.3536 2.0814 1.7341-0.23479 1.7107-0.33044 1.917 0.52228-0.13145-2.5557-0.12107-2.4528 0.0867-2.3626 0.1756-2.0673c0.0111-0.89381 0.21516-1.537-0.0818-2.1354 0.0274-0.54163-0.9455-1.2003-1.7139-1.5268-0.65697-0.27919-1.4651-0.46536-2.2999-0.46536l-1.9593-0.50456-1.4299 0.32236zm-80.776 4.0462 0.16432 2.401 6e-3 2.1219 0.2675 2.7825 0.14552 2.114 0.21378 2.6534 0.29101 2.495 0.63194 2.4575-1.2865 0.10465-1.8481-0.38809 0.14972-2.8972 0.0718-2.3003 0.21539-1.9849 0.44886-2.2751 0.22375-2.4582 0.47867-2.2539zm-62.93 0.31296 1.6641 0.0687 1.7371 0.0504 0.21485 2.3768-0.0858 2.12 7e-3 2.3483 0.087 2.3303-0.18708 2.0246-0.0152 2.4702-0.15198 2.0811 0.15197 2.5277-0.19857 1.7464 0.35646 2.8943-1.311 0.0886-2.3625-0.47575 0.16001-2.163 0.29642-2.2787 0.0492-2.2932 0.031-2.2637 0.32215-2.1897-0.22145-2.4991-0.0872-2.1106-0.19055-2.7789-0.21308-1.8796zm2.0001 30.107c-0.9794 0-1.8994 0.013-2.683 0.2089-0.79463 0.14441-1.6478 0.24148-2.2396 0.64499-0.77742 0.16034-1.1228 0.9545-1.495 1.6317-0.36696 0.60178-0.52343 1.3726-0.67846 2.1856-0.15508 0.81331-0.38819 1.5343-0.38819 2.4844l0.17069 2.5346-0.0202 2.0083-0.062 2.8653 0.0436 2.6153-0.12906 1.9617-0.0541 2.965-0.0711 2.2783 0.096 2.8575-0.0113 2.1912-0.10441 2.616-0.0419 2.5143 0.14755 2.7468 0.13356 2.4263 0.15774 2.6127 0.52589 2.4533-0.22182 2.5613-0.44519 2.4021c-2e-3 0.97739-0.0563 1.3993 0.13807 2.1815 0.0778 0.45935 0.74026 1.777 1.2567 2.4813 0.5188 0.55901 0.86406 0.99748 1.3798 1.3753 0.59936 0.43598 1.4314 0.84248 2.1591 1.06 0.77087 0.2304 1.6664 0.29679 2.6532 0.29679l2.2726 0.12563 1.7932-0.06221c0.81796-0.03073 1.4087-0.5903 2.0983-0.77208 0.51274-0.63371 1.2926-0.41992 1.8611-0.68527 0.55199-0.30233 1.0937-0.57187 1.5242-0.98592 0.45083-0.43356 0.61771-1.3288 0.87025-2.0233l1.2765 2.2697 1.0472 2.1917 1.6813-0.03825 1.6342-0.32876 1.7254 0.23366-0.0958-2.495-0.0355-2.2328-0.01-2.2122-2.5e-4 -2.3002 0.0281-2.2758 0.10084-2.2465 0.0439-2.3635-0.0283-2.3324 0.0555-2.2701 0.40788-2.1456-0.0761-2.4668-0.0784-2.1357-2.5377-0.0816-2.508-0.0798-2.4052 0.028-2.6454-0.39643 0.0913 2.4651-0.18407 2.0475 0.45992 2.8232-0.13656 2.1784-0.16263 2.3354 0.0893 2.725 0.45025 2.4418-0.59061 2.0242-2.1126-0.27235-1.935 0.19528-1.7875 0.46434 0.2024-2.4376 0.22162-2.4406-0.1162-2.9364-0.0198-2.16 0.0128-2.4534-0.0515-2.5611 0.42045-2.417-0.0835-2.5571-0.10203-2.5119 0.0747-2.3902 6e-3 -2.483-0.15662-2.6342 0.16389-2.348 0.26822-2.5248-0.41448-2.5893-0.3247-2.3154 1.871-0.14758 1.9887 0.011 2.0761 0.0383-0.0573 2.1983-0.14981 1.9122 0.3648 2.6687-0.011 2.267-0.21328 1.902-0.0627 2.4486 0.0153 2.3326 2.4673 0.037 2.2593-0.59427 2.6111 0.30739 2.2839 0.13948 0.0153-2.4174-0.05-2.5008 3e-3 -2.3634 0.23976-2.3008 0.50056-2.4033-0.49548-3.0863-0.18982-2.0298c7e-3 -0.94965-0.24877-2.1218-0.44025-2.8863-0.32616-0.96517-0.40045-1.4143-0.69508-1.9068-0.36637-0.79013-0.74634-1.0142-1.3031-1.3676-0.53976-0.33876-1.271-0.63323-2.1406-0.80002-0.7846-0.15047-1.841-0.36433-2.8258-0.36433l-2.0874 0.0528-1.9236 0.17019-2.4247-0.45149-2.1958-0.27502zm21.003-0.0541 0.34678 2.6892-0.0402 1.9695-0.0503 2.6796-0.12292 2.3827 0.0162 2.7424 0.0431 2.4702 0.0157 2.5019-0.084 2.1166-0.10447 2.6777 0.15294 2.6552 0.0208 2.4804 0.065 2.5343 0.52091 2.4738 0.45055 2.5236-0.17362 2.3362-0.0985 2.6101-0.12151 2.4606 0.36452 2.5249-0.24751 2.3924-0.0968 2.564 0.0597 2.6207-0.61341 1.8998 0.0792 2.8823 2.4435 0.05859 2.2601-0.19277 2.4499 0.04158 2.3035-0.02964 2.2995-0.13219 2.3752-0.09927 2.3987 0.03038 2.5086 0.33746-0.0813-2.1418 0.0812-1.9298-0.0636-2.1234 9e-5 -2.0179-2.4536-0.17941-2.3726-0.0526-2.4044-0.11431-2.255 0.41823 0.06-2.2938 0.11145-2.3473-0.18061-2.6029-0.18093-2.4994-0.0954-2.2516 0.0663-2.262 0.28489-2.1717 2.1628-0.248 2.3985-0.11938 2.6479 0.13126 1.9701 0.11051-0.13711-2.222-0.0639-2.0472 0.24752-1.5711 9e-3 -1.9806-2.5048-0.53136-2.2321 0.17444-2.397 0.12461-2.2072 0.23712 0.0449-2.322-0.0287-2.3989 0.40079-2.1871 0.0104-2.4682-0.28831-2.6282-0.17096-2.2161 0.0978-2.2297 2.2493-0.27933 2.5003-0.0387 2.6512 0.246 2.2259 0.0147 0.0554-1.994-0.0184-2.1712-0.12331-2.384 0.4229-1.5097-2.5538-0.0994-2.3718 0.0249-2.6709-0.33928-2.3112 0.0638-2.5012 0.06-2.6119-0.33729-2.1761 0.29977zm21.726 0.0188 0.12877 2.5876 0.0488 2.4345 0.57697 2.5294-0.10558 2.3213 0.19044 2.5796-0.16189 2.0508 0.1661 3.0009-0.0612 2.3778 0.28834 2.4992-0.14357 2.224-0.018 2.7785 0.47914 2.4588-0.24506 2.3195-0.15029 2.5935-0.15006 2.5041 0.23767 2.5408-0.22546 2.3773-0.15343 2.5718-0.18864 2.4188-0.23357 2.4104-0.12159 2.4907-0.0679 2.596-0.12477 2.151 2.3609-0.08521 2.6646 0.14442 2.2231 0.0321 2.5488 0.26439 0.0941-2.3667-0.0822-2.5931 0.0804-2.3815-0.10299-2.5555-0.13966-2.5118-6e-3 -2.3374-0.0872-2.5345 0.15483-2.3788-0.17146-2.7818 0.16313-2.1033-0.13722-2.6403 0.0114-2.3341-0.22819-2.7202 0.15501-2.1535-0.27975-2.8087-0.13359-2.9555-0.0982-1.7826-0.12207-2.4404-0.1646-2.4871-0.21312-2.5241 0.21431 2.212 0.3521 2.6665 0.3428 2.4832 0.66703 2.664 0.28696 2.2639 0.20303 2.2329 0.71761 2.776 0.2137 1.7786 0.40811 3.0989 0.26643 2.1438 0.40601 2.8319 0.65883 2.5665 0.36688 2.3797 0.24249 2.1165 0.36917 2.817 0.24763 2.4139 0.36615 2.552 0.13456 2.1641 0.18379 2.5135 0.21484 2.2866 2.7913 0.20447 2.167 0.09093 2.0796 0.02604 2.267-0.2136 2.3897-0.01879 2.3607-0.08714 0.10949-2.4313 0.14213-2.4123-0.13263-2.9722 0.0772-1.9809-0.10538-2.8554-0.11391-2.3226 0.10445-2.2237 0.64189-2.4705-0.0675-2.566-0.19844-2.6796-0.20543-2.5099 0.0597-2.1256-0.14409-2.7709 0.17686-2.0842-0.0537-2.6732 0.31687-2.3315-0.19827-2.911-0.20841-2.3782 0.46501-2.0641-0.1415-2.5815 2e-3 -2.4444-0.13359-2.4379-0.18901-2.4144-2.6044-0.55331-2.3852-0.0114-2.5378 0.10395-2.3939 0.34385 0.13699 2.4498 0.0682 2.3317-0.10524 2.122 0.0179 2.5818 0.18068 2.5162-0.0719 1.861 0.0878 2.8666 0.11369 2.4013-0.0287 2.2529 0.0558 1.8372 2.4e-4 2.9484 0.10769 2.5138-0.0422 2.0666 0.0928 2.4436 0.0891 2.626 0.14216 2.4303 0.0279 2.2623 0.0652 2.2311 0.46273 2.785-0.23734 2.2397-0.18936-2.3038-0.22544-2.403-0.31307-2.447-0.49531-2.7556-0.42935-2.2446-0.29146-2.1748-0.37541-2.5017-0.29406-2.2505-0.34802-2.422-0.34648-2.4208-0.0783-2.2141-0.44678-2.62-0.458-2.5433 0.0976-2.0018-0.10268-2.4722-0.49967-2.5353-0.44997-2.3459-0.15264-2.3626-0.62244-2.4136-0.61048-2.7124-2.0048 0.1286-2.7214 0.0602-2.3788 0.029-2.379-0.0638-1.8746 0.13616zm32.207-0.56522 0.0837 3.0175-0.1051 2.3381 0.0637 2.7053-0.0269 2.1319 0.22903 2.8711 0.17864 2.5409-0.0228 2.3471 0.58645 2.5417-0.21405 1.9749 0.0382 3.0221 0.18271 2.5588 0.41095 2.4193-0.14929 1.9795 0.0315 3.0523 0.0635 2.461-0.16156 2.4067-0.14861 2.4905 0.0402 2.5547-0.22714 2.2883-0.034 2.6639-0.33889 2.2694 5e-3 2.6024-0.43095 2.3935 2.3139 0.05143 2.6925 0.05373 1.7642-0.02362 2.1352-0.44258 2.3956 0.07208 2.189 0.0042 2.6488 0.24754 1.9034 0.04316c0.99065 0.01292 1.8829-0.07293 2.6736-0.26054 0.79235-0.18581 1.3915-0.62765 1.9829-1.0148 0.48733-0.53021 0.97686-1.2494 1.3781-1.7944 0.28931-0.93353 0.64364-1.1456 0.87718-1.7381 0.27612-0.70057 0.33327-1.6398 0.33327-2.7142l-0.0149-2.6475-0.0518-2.9585 0.19333-1.7786 0.0132-2.5448-0.0789-2.6155 0.0324-2.3264 0.28816-2.4668-0.20245-2.9055 0.13128-1.999 0.60119-2.5616 0.11232-2.5124 0.34343-2.4933-0.35321-2.6948-0.22297-2.3319-0.21186-2.4505-0.24576-2.533 4e-3 -2.3609c-0.0362-0.98322-0.28643-2.0661-0.50549-2.8521-0.32167-0.91018-0.46328-1.3306-0.80412-1.8651-0.39007-0.61403-0.91329-1.249-1.507-1.6433-0.6154-0.51999-1.1887-0.60806-1.9729-0.7621-0.7786-0.15293-1.7386-0.25013-2.7392-0.25013l-1.9257 0.0106-2.0345 0.072-2.6473 0.10666-2.4715-0.10757-2.1837-0.01-1.923 0.10182-2.4226 0.0113zm28.593 0.63284-0.1429 2.3309-0.0486 2.3679 3e-3 2.6806 0.23306 2.636 0.38435 2.4086 0.0601 2.4578-0.18288 1.9917 0.18501 3.0521-0.17093 2.1757 0.0933 2.7602-0.0919 2.1539-0.0445 2.725 0.0902 2.5045 0.2501 2.6353-0.0973 2.3095 0.23798 2.6289-0.15819 2.3327-0.1094 2.5239-0.12014 2.463-0.21941 2.3581-0.0276 2.6175-0.14348 1.9491 0.36641 3.1621 2.1947-0.42096 2.9012 0.14589 2.0586 0.05369 2.2442-0.13936 2.7594 0.18258 2.1782 0.11203 2.1667-0.17198 2.3892 0.0027-0.0386-2.1681 0.0317-1.8641 8e-3 -2.1511 0.16567-1.8898-2.5314-0.23568-2.4822-0.50481-2.3694 0.33996-2.0496 0.51974 0.43098-2.2103-0.24956-2.8619-0.17449-2.2703-0.23576-2.6555-0.0275-1.8679 0.30736-2.3082 0.24258-2.3477 2.0925-0.40259 2.4359 0.21086 2.4639 0.10252 1.9883 0.13307-0.0645-2.0032-0.0452-1.976 0.37801-1.966-0.49607-2.054-2.3342 0.0162-2.3704-0.0896-2.2515 0.089-2.451-0.0232 0.10586-2.2666-0.11634-2.5671-0.0846-2.3998 0.0358-2.1626 0.0766-2.3121-0.0586-3.0162 0.0715-1.7246 2.4689 9e-3 2.686 0.10657 2.3108 0.0133 2.324-0.13381 0.0636-1.9852-0.15746-2.4561-0.0954-2.0798 0.31268-1.585-2.2254 0.0191-2.6879-0.0414-2.5244-0.14133-2.3402 0.0573-2.1474 0.11597-2.842-0.10407-2.4684-0.12061zm21.735 7e-3 -0.15408 2.0432-0.15244 2.5398 0.32011 2.8263 0.0508 2.4908 0.50588 2.5158 0.0229 2.4776-0.0925 2.37-0.0369 2.5481 0.0978 2.5828-0.0928 2.0719 0.2557 2.8365 0.28892 2.5012 0.54171 2.501-0.19122 2.473-0.25155 2.3596-0.13646 2.6196-0.32586 2.177-0.0561 2.8084 0.16651 2.5758-0.27405 1.9235-0.24817 2.7563-0.22257 2.5152 0.20222 2.5974 2.6726 0.09356 2.568 0.02671 2.0906-0.0011 1.9986-0.24352 0.0864-2.4007 7e-3 -2.5059-8e-3 -2.4701-0.12974-2.7789-0.0776-2.683 0.1041-1.882 0.51117-2.3492-0.1395-2.6018-0.23657-2.8202-0.0146-2.058 1.9961 0.0125 1.8814-0.10878 1.9537-0.034 0.10962 2.5766 0.0956 2.492 0.18668 2.4851-0.0985 2.4851 0.49822 2.5176-0.79516 1.8938c0.0233 1.0053 0.11137 1.9431 0.14361 2.798 0.0974 0.87647 0.26159 1.7764 0.31288 2.5605 0.24605 0.91261 0.12308 1.5495 0.17364 2.3198 0.0537 0.81775 0.14547 1.6749 0.33563 2.6679l2.2881-0.33248 2.52 0.02119 2.4494 0.14251 2.6073 0.16077c-0.23579-0.96716-0.47861-1.9423-0.61889-2.7695-0.19648-0.8963-0.20453-1.5206-0.26471-2.2446-0.0425-0.74848-0.0995-1.5238-0.11885-2.3066-0.019-0.76746-0.0404-1.6685-0.0404-2.5311l-0.16727-2.47-9e-3 -1.7583-0.0286-2.3201 0.13974-1.7722 0.0753-2.11c2e-3 -0.97762 0.14975-1.7181-0.0373-2.5005 0.039-0.72173-0.69858-1.9728-1.1399-2.6126-0.49377-0.84397-0.72531-0.887-1.1564-1.1968-0.54767-0.39957-1.3343-1.0417-2.02-1.2023-0.66178-0.15498-1.2498 0.13441-2.0437 0.13441 0.78352 0 1.4732-0.13585 2.1338-0.32911 0.62576-0.23333 1.4688-0.44238 1.994-0.82803 0.71451-0.33193 0.79865-1.0149 1.1308-1.5748 0.21731-0.75328 0.65075-1.1935 0.84965-1.9244 0.20612-0.75747 0.21647-1.9809 0.21647-2.9927l-0.0728-2.7038 0.0553-2.1138 6.3e-4 -2.4681 0.36786-2.2961-0.1059-2.4868-0.13851-2.4206c-5e-3 -0.98351-0.1434-1.9083-0.34271-2.6944-0.23096-0.80948-0.0706-1.3173-0.44865-1.8944-0.0313-0.54952-0.88662-1.1713-1.655-1.6091-0.45865-0.29999-1.4656-0.70727-2.3243-0.90975-0.83354-0.19653-1.7784-0.36592-2.6842-0.36592l-2.1806 0.058-2.1504 0.0364-2.3028 0.0876-2.2308 0.0649-1.9679 0.13755-2.6194-0.0821-2.3453-0.58416zm9.5014 7.2877 2.091 0.14321 1.927-0.081 2.033-0.0985-0.0886 2.2667 0.26598 2.6972-0.0144 2.2707 0.0498 2.4628 0.213 2.4683-0.17659 2.1363 0.20471 2.6609-0.0711 2.4002-2.0146 0.0446-2.195-0.0567-1.4968-0.0246-0.0454-2.3628 0.0974-2.3577-0.14965-2.5035-0.0382-2.3278-0.078-2.3914-0.10589-2.413-0.18658-3.0132zm-50.165 0.27658 2.1269 0.33568 2.0968 0.0908 2.1622 0.016-0.11224 2.215-0.0619 2.3482 0.32848 2.8546-0.0437 2.2285 0.56589 2.4463-0.16899 2.1242 0.2127 2.8351-0.0537 2.3353 0.30602 2.4118-0.28018 2.1157 0.41633 2.7133 0.39423 2.5173-0.28371 2.485-0.47346 1.8939-0.20851 2.8776-0.41065 2.2831-0.2677 2.4624-1.9333 0.04472-2.1726-0.13244-1.8953 0.01126-0.0716-3.0668-0.11817-1.9514-0.0349-2.2894 0.0797-2.328-0.0417-2.5373-0.0221-2.3982 6e-3 -2.442-0.0982-2.7479 0.4909-1.853 0.24358-2.4292 0.24917-2.43-0.10777-2.5788-0.12094-2.4414 0.17169-2.2414-0.26332-2.6324 0.0477-2.3352zm-91.687 52.189 0.0359 2.752-0.11443 2.0315-0.0414 2.8966-0.0672 2.3365-0.0727 2.3142 0.36638 2.8313-9e-3 1.8245-0.11415 2.5639 0.50409 2.7706 3e-3 2.329-0.0248 2.3978 0.58476 2.4583 0.37115 2.397-0.18815 2.3284 0.0709 2.5414-0.0571 2.4407 0.0501 2.4987-0.25909 2.1263-0.24183 2.3907-0.25134 2.4139-0.17912 2.0549-0.11067 2.8564 0.0346 2.4714-0.14438 2.3891 2.9466 0.13526 2.0778 0.04628 2.2702-0.21412 2.5141-0.29138 0.60143-2.4796 0.13216-2.4044-0.0305-2.5265-0.0372-2.5307 0.0101-2.4462-0.16831-2.6431-0.21071-3.0223-0.19825-2.0302 0.11434-2.1743 0.0754-2.5053-0.1583-3.0511-0.12473-2.026-0.16576-2.5385-0.26414-2.6372-0.043-2.1903 0.0118-2.4861-0.22801-2.5784-0.30839-2.6226-0.07-2.267-0.0553-2.4469 0.33205 2.3791 0.5738 2.4627 0.16204 2.0262 0.288 2.4667 0.33347 2.5275 0.3257 2.3591 0.63073 2.5202 0.4194 2.3073 0.18756 2.0942 0.20905 2.3339 1.0286 2.7108 0.224 2.0362 0.28037 2.6249 0.47876 2.459 0.2278 2.3152 0.3636 2.4795 0.1698 2.271 0.34216 2.4742 0.34953 2.4558-0.045 2.0949 0.0556 2.5265 2.4104 0.04096 2.6192-2e-3 1.9598-0.28651 2.8055 0.12712 2.0044 0.0619 2.2398-0.26016 0.0678-2.3434-0.0659-2.7508-0.13034-2.2918-0.0504-2.2918-0.0328-2.3778 0.31643-2.1668 0.32296-2.5554-0.026-2.4283 0.0135-2.3674-0.03-2.7378-0.114-2.2088-0.0721-2.4362 0.0305-2.2055 0.0903-2.3535 0.10083-2.4392 0.33236-2.3636 3e-3 -2.4317-0.11154-2.9848 0.37229-1.7154-0.20208-3.2132-0.0119-1.7343-0.19321-2.3995-0.15669-2.3437-0.27004-2.3824-2.6295-0.22874-2.2226 0.11154-2.6268-0.29481-2.4578 0.12977 0.12131 2.4729-0.10176 2.1185 0.629 2.7844-0.0219 2.214-9e-3 2.4644 0.0319 2.074-0.0785 2.6666 0.39877 2.7746-0.0486 2.2283-0.0297 2.2949-0.0228 2.5529 0.0308 2.5145-0.04 2.3513 0.30237 2.6228 0.0639 2.376-0.0385 2.338-0.0466 2.3119 0.33348 2.7628-0.10156 2.3071-0.32429 2.157-0.34441-2.4259-0.3373-2.5977-0.26928-2.1983-0.26703-2.3664-0.1451-2.3453-0.21076-2.4397 0.24716-2.4442-0.49315-2.9327-0.43569-2.2511-0.39848-2.5231-0.4206-2.1648-0.52458-2.5051-0.35772-2.19-0.41626-2.4259-0.50393-2.5458-0.33317-2.2548-0.12197-2.1887-0.4673-2.6142-0.5482-2.8298-0.23862-1.952-2.2956 0.02289-2.3286 0.05093-2.4709 0.02679-2.2893-0.0011-2.7086-0.34621zm41.032 0.50315c-0.99271 0-2.5568 0.11513-3.351 0.31366-0.77941 0.21477-1.2258 0.65796-1.8237 1.0547-0.33525 0.56105-1.1996 0.80753-1.6403 1.3845-0.49812 0.49249-0.56712 1.3723-0.78789 2.1524-0.22255 0.78643-0.49533 1.5747-0.49533 2.566l0.0101 2.3921 0.0926 2.4478-0.10545 2.1478 0.13474 2.6468 0.25895 2.4619-0.045 2.2247 0.30325 2.5468-0.0614 2.2503-0.0996 2.2283 0.0238 2.6189 0.0788 2.4084 0.14379 2.3197-0.14048 2.3738-0.13764 2.3621-0.24105 1.9868-0.18171 2.3989 0.65858 2.8079-0.56786 2.4083c-0.0317 0.98477 0.0321 1.7542 0.21039 2.5433 0.1755 0.70356 0.50792 1.5579 0.91903 2.1783 0.40537 0.59027 0.81544 0.97026 1.3862 1.3639 0.55003 0.31616 1.7739 0.83735 2.582 1.0664 0.79318 0.22481 1.1565 0.19312 2.1361 0.19312l2.3549 0.09222 2.0614 0.03617 2.0412-0.30787 2.2174-0.36434 2.186 0.39117c0.99853 0.04273 2.0583 0.04664 2.8562-0.12458 0.92802-0.09543 1.4875-0.39726 2.055-0.76198 0.66706-0.35882 1.0321-1.0734 1.4151-1.6942 0.29307-0.75945 0.78294-1.1312 0.97671-1.8711 0.20339-0.7767 0.158-1.8563 0.158-2.8764l-0.1569-2.8652 0.076-1.8433-0.0368-2.6448 7e-3 -2.1867-0.044-2.4904 0.57768-2.1519-0.14051-2.6621-0.16309-2.4274 3.1e-4 -2.1796 0.0824-2.3176-0.20382-2.778-0.0106-2.0804 0.0247-2.3522 0.34329-2.3611 0.0676-2.3745-0.0667-2.4041-0.22914-2.4905-0.1133-2.3114c-5e-5 -0.99274 0.3105-1.7169 0.11191-2.5111 0.18231-0.74074-0.57547-1.6756-1.1117-2.3447-0.40803-0.53564-0.70147-0.92606-1.3535-1.3126-0.35244-0.27635-1.6331-1.2519-2.5507-1.4776-0.85172-0.20945-1.3515 0.329-2.2542 0.329l-2.262-0.06731-2.3112-0.20302-2.0926 0.05607-2.2526-0.39188zm20.567-0.14163 0.10377 2.5673 0.56464 2.451-0.10004 2.2674 0.1114 2.5698-0.0409 2.3448 0.25209 2.5492-0.16385 1.7171-0.0137 3.0107 0.24759 2.5472-0.18968 2.0852 0.14146 2.725-0.0643 2.2656-0.0637 2.4226 0.12633 2.4375 1e-3 2.4537 0.22636 2.3953-0.16362 2.3039-0.27737 2.2265 0.0192 2.6772-0.20343 2.309-0.20991 2.2365 0.33793 2.8363-0.35246 2.1335-0.18431 2.5333 2.9093 0.0394 1.9776-0.04741 2.3835-0.14088 2.5705 0.14042 0.25618-2.4889-0.0299-2.8993 0.0137-2.0921 0.0317-2.4854-0.15709-2.7056 0.50013-2.2129 0.13302-2.6301-0.13031-2.4947 0.0299-2.4134-0.64671-2.5559 1.9855-0.03189 2.3026 0.08105 1.7496-0.05749-7e-3 2.1559-0.14274 1.9186 0.0256 2.4081-0.11005 1.7914 0.34007 2.6526-0.0301 2.0717-0.0867 2.1367c0 0.86862-4e-3 1.4759 0.0157 2.258 0.0117 0.63067-0.0399 1.1239 0.0249 1.9756-0.0341 0.30831 0.044 1.4996 0.1972 2.5585 0.12998 0.89853 0.30563 1.9963 0.47129 2.8613l2.3892-0.08688 3.1524 0.15275 1.9558 0.05874 2.3841-0.09476c-0.16595-0.93166-0.24467-1.7463-0.34576-2.5574-0.0516-0.78305-0.1635-1.5881-0.22315-2.3646-0.0405-0.74486 0.054-1.3981 0.0243-2.1836-0.0297-0.78349-0.28486-1.8337-0.28486-2.6952l-0.0875-2.3097 0.0241-2.3598-0.12098-1.9282 0.0149-2.051 0.22819-1.9342c5e-3 -0.9869-0.0961-2.5852-0.2836-3.3757-0.1425-1.2865-0.42576-1.2888-0.65725-1.7222-0.44486-0.8506-0.88576-1.3883-1.4018-1.7308-0.66138-0.64204-1.1347-0.48342-1.8428-0.53833-0.65111-0.0505-1.3482-0.04873-2.1825-0.04873 0.79417 0 1.5433-0.08333 2.2065-0.28192 0.6791-0.18231 1.0781-0.82707 1.5943-1.2248 0.31051-0.7058 1.0705-0.77644 1.4404-1.2837 0.55035-0.5234 0.59446-1.7638 0.78124-2.5317 0.18746-0.77071 0.37329-1.097 0.37329-2.1211l-5e-3 -2.1563 0.0249-2.1243-0.15427-2.459 3e-3 -1.8951 5e-3 -2.1738 0.12059-2.0927-0.0131-2.7527c3e-3 -0.87375 0.0431-1.6141-0.15353-2.3321-0.0701-0.69777-0.55482-1.449-0.99657-2.0273-0.42863-0.55601-0.84531-0.94377-1.4414-1.3105-0.54682-0.33448-1.1511-0.56461-1.9733-0.76655-0.80693-0.1982-1.7932-0.39047-2.765-0.39047l-2.2601 0.03226-2.3676-0.05921-2.3778-0.29592-1.7912 0.22833-2.7942-0.13109-2.0594 0.06802-2.3082 0.15198zm29.195 0.22776-0.26398 2.3283 0.0484 2.4537-0.0199 2.3463 9e-3 2.4464-0.0325 2.3632-0.0471 2.3666-0.0528 2.415 0.23218 2.5423-0.0414 2.2335 0.14437 2.6118 0.0371 2.3924 0.14723 2.4863-0.0512 2.2887-0.0665 2.3073 4e-3 2.5335 0.13843 2.4573-0.20988 1.9517-0.0109 2.8557 0.21444 2.3927 0.10687 2.5528-0.0799 2.3332-0.12516 2.4074 0.25605 2.5093-0.57793 2.2827 2.8998 0.06649 1.8138-0.02755 2.1888-0.19531 2.4194 0.06002-0.0149-2.487 0.18399-2.4266-0.084-2.7555-0.0359-2.3018-0.0284-2.4903-0.0597-2.6938-0.0539-2.3742 6e-3 -2.3502 0.38579-2.3791 0.13474-2.5524 0.23544-2.4105-0.20756-2.9756 0.2004-2.0599-0.0366-2.5421-0.13647-2.543 0.0997-2.4799-0.0872-2.4899-0.39406-2.7921 0.22172-2.064 0.0517-2.5535 0.20817 2.3736 0.54082 2.4834 0.18598 2.2402 0.11357 2.2792 0.46587 2.613 0.10699 1.698 0.63603 3.0326 0.0903 1.8532 0.10784 2.6511 0.12532 2.4075 0.57378 2.4785 0.0525 2.0701 0.0156 2.4553 0.36336 2.6117 0.17901 2.3491-0.0184 1.8207 0.0663 2.5887 0.12391 2.646-0.0511 2.0564 0.37288 2.8262 0.0435 2.263 2.3051-0.18701 2.4544 0.04271 2.4603 0.06441 2.2351-0.04139 2.3472-0.03023 0.24612-2.3548 0.35042-2.2759 0.42089-2.3241 0.30802-2.467 0.20177-2.7536 0.38158-1.857 0.61052-2.3946 0.61307-2.412 0.64117-2.2957 0.0257-2.7969 0.10887-2.0052-0.0548-2.7036 0.58692-2.0314 0.26137-2.3779-0.021-2.6192 0.3872-2.0557-0.0488-3.0081 0.0217-1.8062 0.082-2.3855-0.22594-2.5503 0.0733-2.1322-0.0411 2.3896 0.29661 2.7282-0.0594 2.3158 0.6224 2.561 0.30825 2.6011 0.10922 2.4537 0.15465 2.5198-0.27642 2.2064-0.1701 2.6194 0.1244 2.6407-0.23784 1.9263-0.17532 2.9072-0.16641 2.4702-0.28501 2.1441 0.16849 2.9938-0.23983 2.2326-0.30196 2.2606-0.0891 2.7992-0.24737 2.19-0.0278 2.1969 2.4921 0.14664 2.5658 0.20107 2.4238 0.12344 2.3541-0.18755-0.0788-2.5359 9e-3 -2.2644-0.14479-2.7086-0.0239-2.1521-0.12296-2.5344 0.024-2.2099 0.0816-2.3511 0.0655-2.4223-0.0144-2.7529-0.11636-2.3736 0.10035-2.038-0.12776-2.8173 0.0313-2.0906 0.12462-2.3345 0.36803-2.2942 0.32255-2.4048 0.31031-2.4218-0.10907-2.5338 6e-3 -2.3498-0.16881-2.511-0.16375-2.3966 0.0356-2.2587 0.1661-2.3214-0.53846-2.6529-1.9546 0.05182-2.1952 0.17014-2.7739-0.52659-2.2411-0.156-2.338-0.05181-2.2744-0.01366-1.9424 0.75395 0.33905 2.4484-0.34671 2.2627-0.23485 2.5531-0.38385 2.1478-0.3028 2.4384-0.37737 2.3429-0.2065 2.6785-0.23913 2.1155-0.26332 2.6164-0.0412 2.5693-0.24431 2.1367 0.0934 2.7692-0.2556 1.9747-0.3195 2.5894-0.25404 2.4247-0.35597 2.0538-0.229 2.8092-0.20008 2.3105-0.26492 2.3876 0.33923 2.5765-0.46902 2.4647-0.32186-2.5578 0.0566-2.1872-0.18785-2.4965-0.27928-3.0371-0.18541-1.848-0.11472-2.3248-0.2308-2.4927-0.19311-2.3917-0.34364-2.5947 0.34335-2.1907-0.27717-2.8892-0.30764-2.2484-0.29423-2.2851-0.31433-2.8107-0.254-2.2982-0.24903-2.1373-0.36431-2.7224-0.0353-1.9495-0.20165-2.4312-0.31264-2.4738-0.35658-2.4774-2.3329-0.07947-2.3213-0.46841-2.211-0.39803-1.8636 0.26543-2.2393 0.35044-2.6935 0.11287zm50.386-0.0953c-0.99271 0-1.8721 0.11312-2.6662 0.31166-0.78902 0.2034-1.537 0.14988-2.1335 0.54704-0.69591 0.0858-1.1637 1.0387-1.5698 1.7652-0.33875 0.63689-0.76651 0.952-0.94438 1.7491-0.18331 0.82148-0.16003 1.782-0.16003 2.744l-0.14931 2.0454 0.44524 2.6068-0.0619 2.1257 0.67841 2.2899-0.25513 2.2721-0.23806 1.8409-0.36514 2.2903 0.30925 2.7417c-0.0652 0.90873 0.15153 1.8533 0.29505 2.5831 0.30741 0.79143 0.16365 0.92226 0.45046 1.4283 0.18595 0.30807 0.80237 0.86105 1.449 1.3101 0.48739 0.05277 1.231 0.77814 1.9986 1.0703 0.73339 0.27911 1.9718 0.64325 2.8486 0.64325l2.1828-9e-3 1.7903-0.01025 2.1366 0.06024 1.9324-0.08709 0.10459 2.3614 0.36279 2.263-0.18876 2.0988-0.014 2.4114-0.141 2.1823-0.061 2.3264-0.15136 2.0843 0.0382 2.506-1.6496 0.101-2.1074-0.53529-1.2283 0.40754 0.0158-2.1384-0.0834-2.1597-0.0839-2.175-0.1914-2.2509-0.068-2.0657-0.067-2.1288-2.348-0.0031-2.4716 0.08478-2.2758 0.09227-2.9343-0.47876 0.0366 2.2051-0.0713 2.0783 0.10312 2.3408-0.0129 2.114-0.0211 2.0378-0.0538 2.1693c0.0306 1.0376 0.3338 2.0837 0.55189 2.9066 0.38115 0.87761 0.50679 1.4535 0.85594 2.0241 0.41345 0.65179 0.84624 1.1278 1.4116 1.5306 0.5855 0.41575 1.2365 0.0882 2.0466 0.28703 0.78393 0.19241 1.8394 0.94346 2.8485 0.94346l1.982-0.03642 1.9673-0.11043 2.1727 0.07462 1.891-0.05667 2.4705 0.19705c0.90778-0.018 1.6814-0.44447 2.4212-0.65456 0.65044-0.51221 1.2822-1.0751 1.8316-1.422 0.44028-0.91535 0.89341-0.97609 1.2599-1.3472 0.42774-0.80229 0.91966-0.89496 1.175-1.477 0.28546-0.65062 0.14677-1.858 0.14677-3.0144l0.20654-2.2291 0.58286-2.2569-0.15952-2.574 0.0168-1.974-0.19953-2.4427 0.31601-2.0028-0.35171-2.4964-0.20856-2.1622c-3e-3 -0.9291-0.21625-2.229-0.40374-2.9719-0.26678-1.0555-0.40803-1.1754-0.66676-1.6196-0.40549-0.67019-0.79322-1.0632-1.343-1.4155-0.56288-0.36-0.91772-0.43702-1.7132-0.58766-0.73431-0.13906-1.9882-0.9291-2.9342-0.9291l-2.1096 0.05956-1.9847 0.11049-2.0054 0.22458-1.686 0.26598-0.0554-2.4386 0.2447-1.8014-0.17033-2.5356 0.0981-1.921-0.1258-2.3383 0.14542-2.0648-0.347-2.479-0.0381-1.9484 2.2108 0.13284 1.2929-0.09741 2.2557-0.02863-0.1549 2.304-0.0951 2.479-0.16889 2.1967-0.10453 2.3852 0.062 2.6153 2.4624 2.24e-4 2.3378-0.12594 2.4403-0.11278 2.6385 0.3038-0.11975-2.676 0.267-2.1675 0.1104-2.3211 0.0784-2.5015-0.51405-3.1093c0.0158-0.8701-0.14355-1.7514-0.33195-2.4671-0.25226-0.76784-0.17679-1.1727-0.53425-1.6983-0.14941-0.50354-1.1511-1.3953-1.867-1.8107-0.73325-0.59222-1.212-0.54022-1.925-0.6674-0.79765-0.14229-1.8533-0.48318-2.864-0.48318l-1.8162 0.17336-2.1915 0.02211-1.9605 0.05023-2.0564-0.48476zm-69.417 7.7287 2.0395 0.03346 1.7918-0.0376 2.2077-0.0079 0.0965 2.5065-0.0989 2.2481 0.0123 2.4959 0.36562 2.5542 0.15234 2.3923-0.24648 2.2975-0.27618 1.9096-0.27391 2.8034-1.9836 0.0314-1.8151 0.0791-2.3386-0.5484-0.0315-2.7376-0.0346-2.0511 0.40934-2.2574-0.10784-2.7215-0.0476-2.0866-0.12168-2.5768 0.58101-1.9962zm-29.118 0.25671 2.1476 0.15399 2.2841 0.07028 1.7602-0.047 0.67414 2.5059 0.5198 2.4986-0.10654 2.3476-0.0825 2.4812 0.10893 2.549 0.13046 2.4469 0.0669 2.4035 0.22169 2.5301-0.26823 2.2304-0.24242 2.4505-0.19034 2.5278 0.13968 2.6305-0.24283 2.2516 0.22689 2.6269-0.41275 2.0378-0.0483 2.8454-0.69636 1.971-1.921 0.14214-2.1175-0.50718-1.891 0.5398 0.14589-2.3778-0.0909-2.6253 0.18064-2.1955 0.36418-2.4729 0.40772-2.4461 0.13492-2.454-0.16763-2.7185-0.12656-2.3402 0.18227-2.2296-0.241-2.9162-0.1955-2.2646 0.45058-2.311 0.10666-2.3956-0.32078-2.7715-0.35895-2.3761-0.0387-2.1084z" stroke-width=".60643"/></g><text x="679.39117" y="78.153435" fill="#ffffff" font-family="Didot" font-size="8.3551px" font-weight="bold" stroke="#101010" stroke-linejoin="round" stroke-width=".42292" xml:space="preserve"><tspan x="679.39117" y="78.153435" font-family="'Courier Prime'" font-weight="normal" stroke="none" stroke-width=".42292">hyperblam.how</tspan></text><path d="m582.99-337.72c20.164 82.798 115.22 68.535 127.08 1.3755m-140.67 5.1651c24.784 101.1 141.62 83.68 156.2 1.6795m-242.37 232.09-96.653-74.937 96.257-122.66 101.37-42.592c52.053 30.53 93.151 23.463 125.13 0.4745l105.71 45.524 93.702 118.4-94.553 74.961m-331.36-142.26v454.03l331.36 0.8518v-444.66" fill="none" stroke="#fff" stroke-width="2.6458"/></g></svg>
