<svg width="800mm" height="450mm" version="1.1" viewBox="0 0 800 450" xml:space="preserve" xmlns="http://www.w3.org/2000/svg"><g transform="translate(210.84 61.573)"><path d="m65.884 332.29c-3.2308-3.1796-5.5642-4.2884-13.458-6.3951-3.6402-0.97153-7.2191-2.0036-7.953-2.2934-3.9746-1.5698-11.895-3.5608-15.895-3.9957-4.7029-0.51135-10.679-1.6722-16.13-3.1334-1.7125-0.45902-6.4163-1.2468-10.453-1.7506-4.0366-0.5038-9.5553-1.3064-12.264-1.7835-2.7085-0.47714-6.4115-0.99659-8.2288-1.1544-9.6629-0.83874-18.258-3.765-34.44-11.725-6.3607-3.1288-12.966-6.1434-14.678-6.699-1.7125-0.55566-5.5922-2.087-8.6215-3.403-4.7383-2.0584-6.2275-2.4871-10.658-3.0678-7.3029-0.95733-14.28-2.5439-19.429-4.4182-2.4405-0.88829-5.3652-1.9033-6.4994-2.2556-2.3568-0.73205-11.393-4.5621-14.613-6.1936-1.2761-0.64663-4.3141-1.4721-7.4212-2.0165-6.6337-1.1622-10.767-2.5018-18.605-6.0293-3.425-1.5415-8.6831-3.5181-11.685-4.3924-3.0016-0.87435-6.7707-2.084-8.3756-2.6881s-5.0538-1.6003-7.6642-2.2137c-11.547-2.7135-15.511-4.0847-17.757-6.1423-1.3321-1.2205-1.2611-2.6676 0.28827-5.8771 1.5886-3.2908 6.5208-10.008 7.3484-10.008 0.3345 0 0.7234-0.30025 0.86423-0.66721 0.6131-1.5977 6.9254 0.0617 17.971 4.7243 12.499 5.2763 16.161 6.5368 26.398 9.0866 11.278 2.8093 13.586 3.5336 19.745 6.1971 2.6032 1.1258 6.1083 2.2308 8.4512 2.6643 2.2018 0.40737 10.249 2.8231 17.884 5.3683 7.6342 2.5452 15.641 5.1222 17.792 5.7266 5.7087 1.6038 31.468 7.9665 37.905 9.3628 3.0391 0.65923 8.6436 2.3034 12.454 3.6536 3.8109 1.3502 12.033 4.2029 18.271 6.3393 6.2383 2.1364 12.246 4.3018 13.35 4.8121 1.1043 0.51028 4.3034 1.361 7.109 1.8905 3.3112 0.6249 8.8023 2.2672 15.649 4.6803 10.879 3.8346 15.718 5.0718 32.169 8.2256 16.706 3.2025 19.486 4.0071 22.443 6.4949 2.0587 1.7322 1.8528 3.4706-1.132 9.557-2.8971 5.9075-6.1865 11.339-7.0735 11.679-0.3634 0.13937-1.6305-0.7556-3.0567-2.1593zm5.684-7.8516c2.3935-4.4794 3.0539-6.6653 2.4743-8.1899-0.81466-2.1428-5.1758-3.6915-15.558-5.5251-6.5106-1.1498-26.935-6.4921-33.583-8.7838-10.009-3.4508-13.262-4.3918-18.014-5.2119-2.2868-0.39465-5.0739-1.1258-6.1936-1.6248-3.394-1.5125-8.2779-3.3202-17.381-6.4335-4.7705-1.6314-11.476-3.9243-14.901-5.0952-3.425-1.1709-9.2297-2.8629-12.899-3.7599-31.723-7.7547-40.793-10.185-50.707-13.585-11.091-3.8039-16.214-5.342-21.469-6.4459-3.268-0.68642-6.982-1.894-10.675-3.471-6.1169-2.6118-10.128-3.859-20.133-6.2597-8.8978-2.1351-12.886-3.4607-20.995-6.9781-8.4416-3.6618-14.336-5.6019-18.547-6.1048-2.9501-0.35233-3.1552-0.3197-3.4255 0.54511-0.15803 0.50594-1.4596 2.537-2.8921 4.5135-3.089 4.2618-3.9082 6.1995-3.0019 7.1009 0.82097 0.8166 10.206 3.583 15.736 4.6384 4.8613 0.92781 5.3939 1.079 10.78 3.0598 2.015 0.74098 5.6179 1.8705 8.0064 2.51 2.457 0.65789 6.8538 2.3794 10.125 3.9645 8.0557 3.9031 10.825 4.7402 19.841 5.9966 1.9257 0.26838 4.3992 1.1059 7.1763 2.4299 2.3308 1.1112 6.2126 2.8447 8.6263 3.8523 2.4137 1.0076 6.19 2.6007 8.3918 3.5402 7.3072 3.1182 12.509 4.3317 21.051 4.9112 5.8208 0.39487 6.0145 0.44233 10.711 2.625 2.6309 1.2226 6.0683 2.708 7.6385 3.301 6.437 2.4308 13.074 5.3186 20.647 8.9833 14.038 6.7935 18.752 8.2893 34.917 11.08 8.6423 1.4919 12.948 2.0461 21.128 2.7199 1.9571 0.16123 5.2085 0.77086 7.2252 1.3548 4.4478 1.2878 10.615 2.3977 13.405 2.4125 2.8411 0.0151 4.856 0.51996 14.064 3.5244 4.4035 1.4368 10.208 3.1471 12.899 3.8008 5.4211 1.3168 8.2993 2.6742 10.513 4.9579 1.4635 1.51 1.4785 1.5141 2.1681 0.59992 0.38192-0.50629 1.664-2.7352 2.8491-4.9531zm493.4 3.7724c-0.99861-0.99862 0.64018-3.1668 6.0419-7.9938 3.0443-2.7204 3.2714-3.5132 0.88961-3.1053-0.91741 0.15719-14.678 0.48483-30.58 0.72822-19.46 0.29789-30.875 0.65548-34.917 1.0939-5.0146 0.5439-13.633 0.61722-52.264 0.44457-25.443-0.11365-50.963-0.40044-56.712-0.63716-16.654-0.68575-61.043-0.99365-70.724-0.49057-4.7705 0.24792-12.477 0.7956-17.125 1.2171-11.495 1.0423-49.841 1.1504-56.267 0.15853-3.2208-0.4971-9.1441-0.66313-24.909-0.69818-22.059-0.0491-22.21-0.063-24.544-2.2892-1.4975-1.4284-2.0141-3.7387-2.369-10.594-0.15197-2.9357-0.56326-8.24-0.914-11.787-0.95025-9.611-1.1105-15.622-1.2803-48.039-0.11029-21.058-0.32887-31.117-0.75852-34.917-0.4206-3.7201-0.5947-11.066-0.57448-24.242 0.025-16.349 0.16021-20.076 0.99919-27.578 1.1814-10.562 1.9592-26.381 2.1872-44.48 0.1995-15.837-0.24109-21.807-2.819-38.201l-0.23672-1.5053-1.9796 2.9509c-2.0215 3.0133-3.2765 3.6814-4.5407 2.4171-1.1215-1.1215-1.1063-1.1497 5.8176-10.806 1.0514-1.4663 2.2167-2.7248 2.5894-2.7965 0.38239-0.07363 3.4408 2.5946 7.0172 6.1222 5.4479 5.3734 6.3197 6.4229 6.1995 7.4631-0.25239 2.184-1.4912 1.713-5.5954-2.1275-5.418-5.0699-5.4422-5.078-5.4422-1.8245 0 1.4548 0.29435 4.9146 0.65414 7.6884 1.909 14.718 2.0147 16.302 2.0146 30.193-5e-5 10.276-0.16888 14.878-0.63575 17.328-0.34963 1.8348-0.8687 7.039-1.1535 11.565-0.28478 4.5259-0.87011 11.732-1.3007 16.013-0.69758 6.9355-0.74211 10.281-0.40857 30.691 0.20589 12.599 0.5911 30.914 0.85605 40.699 0.26493 9.7856 0.6443 26.699 0.84304 37.586 0.19877 10.887 0.5882 21.595 0.86542 23.797 0.27722 2.2018 0.77641 7.5537 1.1093 11.893 0.64922 8.4632 0.98311 9.5566 3.2762 10.729 0.94685 0.48424 4.9432 0.69114 17.899 0.92663 9.174 0.16677 21.084 0.59212 26.466 0.94527 15.53 1.019 45.358 0.88965 59.159-0.25652 8.9889-0.74655 17.045-0.99383 42.034-1.2903 17.003-0.20172 33.015-0.20636 35.584-0.0101 2.5687 0.19604 7.4335 0.58199 10.811 0.85765 7.6713 0.62619 96.477 0.23072 103.5-0.46094 6.7751-0.66687 25.533-1.2564 42.923-1.349 8.3178-0.0444 17.325-0.2052 20.016-0.35754l4.8928-0.27702-2.4849-1.4367c-1.3667-0.79016-3.5236-1.6764-4.793-1.9694-1.8228-0.42074-2.3629-0.75115-2.5688-1.5715-0.71756-2.859 2.3866-3.0863 7.2513-0.53099 7.1271 3.7437 10.419 7.3231 9.4061 10.228-0.26256 0.7532-1.57 2.1637-3.0893 3.3328-1.4487 1.1148-3.878 3.1118-5.3985 4.4378-2.5232 2.2006-4.14 2.8953-4.9208 2.1144zm-336.65-25.731c-7.0203-1.118-9.914-2.4109-8.5187-3.8063 0.6779-0.6779 1.7165-0.64907 7.8475 0.21776 4.6134 0.65229 9.0679 0.72163 36.474 0.56786 25.647-0.14391 32.131-0.30362 36.334-0.89482 12.303-1.7308 22.897-2.6076 29.135-2.4113 3.5158 0.11062 8.6481-0.056 11.787-0.38284 3.058-0.31836 9.8635-0.787 15.123-1.0414 18.385-0.88923 17.917-0.81265 21.682-3.5496 2.4752-1.7991 4.2432-4.2966 5.6333-7.9577 5.0414-13.277 5.6006-15.295 6.4963-23.436 0.27329-2.4841 0.431-31.03 0.41558-75.223-0.0134-39.171 0.10339-71.797 0.26023-72.503 0.79798-3.5919 2.6215-8.1839 3.9916-10.052 1.6161-2.2032 6.763-6.3088 9.7816-7.8029 0.97856-0.48432 3.0803-1.2299 4.6704-1.6568 4.0725-1.0934 18.046-1.4223 27.355-0.64379 7.9905 0.66817 18.494 0.73201 34.216 0.20799 12.926-0.43083 15.482-0.10541 19.324 2.4602 3.1187 2.0825 9.3573 8.4831 10.383 10.653 1.3587 2.8733 2.9982 9.3271 3.7048 14.584 1.3365 9.9432 2.0213 13.684 3.5166 19.212 1.1453 4.234 1.6268 7.2043 2.0189 12.454 0.28323 3.7919 0.81098 9.062 1.1728 11.711 0.53531 3.92 0.63495 10.09 0.53513 33.138-0.11046 25.509-0.0467 28.643 0.6428 31.565 0.42102 1.7841 0.97148 5.6873 1.2232 8.6736 0.7615 9.0325 1.7593 18.928 2.4537 24.334 0.36137 2.8134 0.83834 7.8633 1.0599 11.222 0.40039 6.0689 0.41725 6.138 2.7117 11.12 3.8251 8.3058 4.1358 8.8411 6.17 10.632 3.0149 2.6538 5.3046 3.2019 13.701 3.2795 5.1579 0.0477 7.3979 0.23006 7.8952 0.64278 0.88368 0.7334 0.88212 1.5504-5e-3 2.4371-1.3983 1.3983-14.779 0.66803-19.383-1.0579-4.4921-1.684-6.2036-3.6662-10.247-11.869-3.26-6.6128-3.621-7.6094-3.9646-10.947-0.82297-7.9939-1.7602-19.782-2.4315-30.583-0.4177-6.7203-1.0677-13.155-1.595-15.79-1.1917-5.9558-1.2682-7.9671-1.4301-37.586-0.12844-23.5-0.21663-26.064-1.0863-31.581-0.5206-3.3027-1.1406-8.3067-1.3777-11.12-0.24679-2.9278-1.0927-7.7977-1.9782-11.388-0.85085-3.45-1.7733-8.2538-2.05-10.675-1.0966-9.5979-2.8574-17.879-4.4891-21.112-0.9128-1.8087-8.201-8.9198-10.342-10.09-1.2991-0.7104-3.3598-0.77894-23.884-0.79449-12.354-0.0101-28.167-0.18666-35.139-0.39401-12.152-0.36138-12.833-0.33763-16.458 0.57372-9.4713 2.3816-14.518 6.7817-16.675 14.54-0.66486 2.3907-0.75371 9.0071-0.92542 68.92-0.1044 36.452-0.27381 70.279-0.37631 75.172-0.21971 10.489-0.83038 14.132-3.619 21.586-1.0882 2.9092-1.9786 5.5652-1.9786 5.9023s-0.9773 2.6113-2.1718 5.0539c-2.3847 4.8765-3.3828 5.8932-8.6518 8.8141l-3.0395 1.685-14.975 0.81395c-8.2362 0.44769-16.528 1.0328-18.425 1.3002-2.1807 0.3073-6.4367 0.37696-11.565 0.18935-8.4612-0.30957-9.216-0.25397-25.239 1.8591-9.0711 1.1962-9.2814 1.2031-40.477 1.3225-24.985 0.0957-32.143-5e-3 -35.218-0.49456zm-146.04-6.3341c-1.7504-0.32843-3.7984-1.0791-4.3409-1.5912-0.30356-0.28651-1.4105-1.0791-2.4598-1.7612l-1.9079-1.2403-1.2655 0.90115c-0.69604 0.49561-2.3243 1.1282-3.6184 1.4057-3.4085 0.73099-6.0786 0.0992-12.743-3.015-2.0363-0.9515-2.5933-1.0321-4.6052-0.66646-3.4969 0.63559-5.9995-0.15248-15.541-4.8941-2.8134-1.3981-6.016-2.7448-7.1168-2.9925-1.1009-0.24777-5.7046-0.53601-10.23-0.64053-7.4177-0.17129-8.5796-0.30634-11.787-1.37-4.8536-1.6094-8.8214-3.5297-12.052-5.8327-1.491-1.063-4.8937-3.0434-7.5616-4.401-2.9357-1.4939-7.6604-4.5514-11.968-7.7448-3.9598-2.9358-8.1034-5.6406-9.3408-6.0974-2.3792-0.87823-3.9907-1.7039-6.8566-3.513-0.98966-0.62475-2.0035-1.1359-2.253-1.1359-0.24952 0-0.4552-0.15013-0.45712-0.33359-0.0017-0.1835-0.45226-0.55135-1.0008-0.81749-0.54854-0.26612-3.3993-1.7062-6.335-3.2001-3.0544-1.5544-6.8598-3.1002-8.8961-3.6139-1.9571-0.49372-4.6593-1.2745-6.0048-1.7351-6.8486-2.3443-14.153-3.5508-28.912-4.7758-1.5902-0.13197-3.3709-0.3428-3.9573-0.46852-0.58633-0.12575-6.9915-0.31982-14.234-0.43136-7.2422-0.11146-14.369-0.3022-15.836-0.4237-10.693-0.88509-13.755-1.2544-16.791-2.0256-4.5562-1.1572-5.073-1.4027-10.787-5.1242-7.3535-4.7895-11.091-8.8332-13.324-14.414-1.049-2.6224-1.479-11.463-0.6814-14.011 0.3063-0.97857 0.69207-5.5823 0.85726-10.23 0.37876-10.658 0.7455-11.917 6.804-23.352 2.6119-4.9301 2.9666-5.5481 4.8491-8.4512 0.87249-1.3455 2.2664-3.7474 3.0975-5.3376 0.8311-1.5902 1.6118-2.9913 1.7348-3.1136 0.38852-0.38635 3.7656-5.5298 4.0886-6.2272 0.16997-0.36696 1.2708-1.9098 2.4464-3.4284 8.6244-11.142 8.8745-11.52 10.994-16.616 1.1632-2.7976 2.4987-5.9351 2.9678-6.9722 0.4691-1.0371 0.85294-1.985 0.85294-2.1066 0-0.20918 2.2399-4.9812 6.7908-14.467 1.115-2.3241 2.5753-5.8269 3.2452-7.784 0.66989-1.9571 1.7702-5.1597 2.4451-7.1168 2.2842-6.6238 4.7898-18.128 5.1346-23.574 0.1239-1.9571 0.80778-5.871 1.5197-8.6976 0.89613-3.5579 1.3738-6.7742 1.5522-10.453 0.14172-2.9225 0.35752-5.9618 0.4794-6.7539 0.2771-1.8008 1.4013-2.4805 2.8803-1.7415 1.2137 0.60639 1.226 0.74826 0.68241 7.8521-0.17783 2.3241-0.99516 6.9278-1.8162 10.23-1.3163 5.2944-1.8031 8.2121-2.1895 13.122-0.25155 3.1965-4.7341 21.874-6.0314 25.131-0.53593 1.3455-1.1708 3.1066-1.4108 3.9135-0.41741 1.4033-2.1799 4.8887-4.0435 7.9962-1.426 2.3777-5.9238 11.711-6.8002 14.111-0.4467 1.2232-0.95166 2.4242-1.1222 2.6688-0.17047 0.24464-0.55644 1.4962-0.8577 2.7814-0.30126 1.2851-0.72778 2.4479-0.94785 2.5839-0.22006 0.136-0.40011 0.54669-0.40011 0.91262 0 1.2673-1.7139 4.4104-3.9744 7.2886-4.4152 5.6216-8.48 11.065-8.48 11.355 0 0.1619-1.1509 2.0267-2.5576 4.1439-1.4067 2.1173-3.0489 4.8504-3.6493 6.0736-0.60046 1.2232-2.2227 3.9312-3.605 6.0176-3.221 4.8619-8.4961 15.254-9.9357 19.573-0.949 2.8474-1.127 4.2486-1.1848 9.3252-0.0373 3.2859-0.24777 7.1823-0.46756 8.6587-0.84809 5.697-0.96202 6.7479-0.93363 8.6113 0.13332 8.7495 3.6803 13.707 14.903 20.83 4.7294 3.0016 9.5775 4.3652 16.993 4.7796 2.6911 0.15029 5.6149 0.34951 6.4974 0.44252 0.88253 0.093 6.9874 0.29696 13.566 0.45319 10.861 0.25792 14.078 0.41174 19.524 0.9334 0.97858 0.0938 4.1812 0.39262 7.1168 0.66415 12.419 1.1487 18.106 2.3943 31.648 6.9312 5.2906 1.7725 9.9796 3.9631 15.403 7.1962 2.1481 1.2805 4.0497 2.3326 4.2256 2.3381 0.17598 5e-3 0.82036 0.40131 1.432 0.87971 0.6116 0.4784 1.3734 0.87428 1.693 0.87973 1.1707 0.0198 6.1797 2.8079 9.4271 5.2471 3.5394 2.6585 3.6117 2.7149 5.3376 4.1644 0.6116 0.51364 1.9127 1.4463 2.8912 2.0725 1.6142 1.033 2.8362 1.7176 8.4512 4.7348 0.97856 0.52583 3.0803 1.8114 4.6704 2.8569 3.7602 2.4722 7.7094 4.285 11.939 5.4806 2.8278 0.79925 4.8036 0.98387 11.635 1.0872 4.5259 0.0684 8.8293 0.23114 9.5632 0.36147 0.73394 0.13028 3.9365 1.5321 7.1168 3.1151 10.24 5.0968 12.835 5.8289 15.989 4.5108l1.662-0.69445-1.3525-1.138c-0.74387-0.62594-1.8895-2.2357-2.5459-3.5772-0.98177-2.0067-1.1434-2.8035-0.91175-4.4939 0.15483-1.1301 0.46252-2.2751 0.68359-2.5444 0.22109-0.26932 0.47102-0.80846 0.55543-1.1981 0.16324-0.75376-2.4826-4.0985-5.9626-7.5376-2.2977-2.2706-2.4664-2.6941-1.4196-3.5628 1.2141-1.0076 4.1068 0.85535 8.0075 5.1568 1.9423 2.1418 4.4019 4.815 5.4657 5.9403 4.3646 4.6168 5.1043 9.6254 2.0229 13.699l-1.0761 1.4226 1.8955 0.8307c5.1443 2.2546 8.9834 2.342 11.457 0.26093 1.6702-1.4054 1.6682-1.6898-0.01681-2.3875-3.0037-1.2442-4.6775-3.3644-5.0543-6.4022-0.24303-1.9594 0.49175-7.4243 1.0769-8.0094 0.39633-0.39633-1.3774-1.3746-7.3469-4.0522-4.0024-1.7952-10.292-7.2812-9.804-8.5518 0.13248-0.34502 0.24072-0.81112 0.24072-1.0358 0-1.1377 2.3153-0.17604 4.9135 2.0409 2.5171 2.1477 4.918 3.5246 12.211 7.0032 5.4933 2.62 10.158 8.6183 10.722 13.786 0.19274 1.7676 0.02774 2.9402-0.67385 4.7859-0.51103 1.3445-0.92925 2.5615-0.92937 2.7043-4.54e-4 0.53265 4.7121 3.453 5.7835 3.584 1.6852 0.206 3.664-0.80184 4.7803-2.4348 1.1465-1.677 1.2301-2.0761 0.43494-2.0761-1.022 0-3.8891-2.718-4.8547-4.6022-0.98286-1.918-1.3214-5.885-0.72765-8.5255 0.28411-1.2633 0.1434-1.4425-2.4464-3.1132-4.8171-3.1077-5.9347-3.6929-9.4059-4.9252-4.987-1.7704-6.5605-3.2599-4.8998-4.6382 0.54906-0.45567 1.2302-0.37715 3.6696 0.42304 3.0736 1.0083 5.4304 1.9554 6.9986 2.8127 0.48928 0.26747 1.2899 0.70637 1.7792 0.97535 3.2256 1.7732 8.6921 5.6978 9.9715 7.1589 2.2074 2.5209 4.8559 6.7583 5.3559 8.5689 0.28342 1.0264 0.27932 2.2543-0.01177 3.5535-0.24469 1.0918-0.33428 2.0958-0.19911 2.231 0.13516 0.13516 1.0927 0.36904 2.1279 0.51969 3.725 0.54212 6.127-1.3765 7.6225-6.0886 0.2462-0.77571 0.0511-0.93374-1.3926-1.1284-4.8103-0.6487-8.3596-4.1416-10.356-10.191-1.2524-3.7958-0.37103-3.1124-11.339-8.7916-2.6911-1.3934-5.6935-3.0288-6.672-3.6343-0.97858-0.60549-2.78-1.588-4.0032-2.1834-4.9046-2.3873-10.231-6.9586-15.346-13.171-0.6116-0.74283-2.1475-2.5467-3.4132-4.0086-1.2657-1.4619-3.3475-4.3499-4.6263-6.4177-2.7861-4.505-5.5968-8.5729-8.4314-12.202-1.1501-1.4726-3.0513-4.3788-4.2249-6.4583-12.939-22.927-17.563-29.533-29.203-41.725-2.5677-2.6895-5.4443-6.4287-8.2125-10.675-2.3433-3.5947-4.6071-7.0362-5.0308-7.6478-1.6066-2.3193-4.8348-8.835-6.3909-12.899-3.0591-7.9897-3.2151-9.2362-2.9901-23.894 0.20764-13.525 2.6772-26.334 6.6705-34.598 3.1638-6.5472 3.465-7.2855 4.2646-10.453 0.40142-1.5902 0.88324-3.0914 1.0707-3.336 0.18745-0.24464 0.57179-1.3917 0.85407-2.549 1.0247-4.2009 3.0417-6.3441 4.3224-4.5926 0.42646 0.5832 0.41047 1.2964-0.07582 3.3808-0.33895 1.4529-0.80624 2.9936-1.0384 3.4237-0.23218 0.43009-1.1555 2.9837-2.0517 5.6748-0.89625 2.691-2.6254 6.7523-3.8426 9.025-1.2172 2.2727-2.5984 5.4252-3.0695 7.0056-0.47107 1.5804-1.2633 4.2245-1.7606 5.8758-1.5718 5.2198-2.1568 11.605-2.2116 24.137-0.02836 6.4794 0.02688 12.081 0.12274 12.448 0.83391 3.1922 1.5835 5.264 3.5203 9.7304 2.7999 6.4567 4.6379 9.8086 8.3228 15.178 5.9966 8.7386 7.5062 10.686 12.106 15.62 8.8714 9.515 11.079 12.11 12.221 14.369 0.6287 1.2428 1.4775 2.7826 1.8861 3.4219 3.0063 4.7028 5.7067 8.9767 6.0835 9.6283 0.24619 0.42582 1.5768 2.4756 2.9568 4.555 1.3801 2.0794 3.1635 4.9818 3.9632 6.4496 1.3055 2.3963 2.809 4.6757 8.6086 13.051 0.95844 1.3842 2.8786 4.218 4.267 6.2975 1.3884 2.0794 3.5159 4.8817 4.7279 6.2272 1.2119 1.3455 2.6582 3.0469 3.2139 3.7808 1.9199 2.5356 7.7794 8.3173 9.5878 9.4606 0.99803 0.63095 3.3158 1.9375 5.1506 2.9035 1.8348 0.96599 3.5385 1.9168 3.7859 2.113 0.24743 0.19614 2.5493 1.4442 5.1152 2.7734 2.566 1.3292 5.9664 3.1299 7.5566 4.0014 1.5902 0.87157 3.9921 2.0169 5.3376 2.5451 3.267 1.2826 9.4144 5.4121 11.113 7.4653 1.3702 1.6561 3.1206 6.3601 3.1206 8.3861 0 1.718-1.7515 6.4745-2.9807 8.0946-2.311 3.0459-5.7053 4.0775-10.296 3.1292l-2.657-0.54879-1.1864 1.41c-2.2152 2.6326-5.0714 4.1381-7.1211 3.7536zm6.4496-13.366c0-0.68604-0.59608-2.1872-1.3246-3.336-1.4037-2.2133-2.5296-2.8053-2.0694-1.0879 0.14744 0.55044 0.27095 1.3188 0.27428 1.7076 0.0067 0.76166 2.2362 3.9207 2.7861 3.9474 0.18348 8e-3 0.33361-0.54508 0.33361-1.2311zm-14.678-0.96402c0-1.9713-3.0897-8.2249-3.7262-7.5418-0.09734 0.1044-0.31927 1.4413-0.49316 2.9707-0.31306 2.7534-0.30089 2.796 1.2399 4.3368 1.954 1.954 2.9795 2.0347 2.9795 0.23435zm-17.703-2.0034c0-1.5207-1.642-4.6713-2.4381-4.6783-1.3325-0.0118-0.75578 3.7613 0.83756 5.4796 1.3625 1.4694 1.6006 1.3502 1.6006-0.80138zm44.645-4.6211c-0.64045-1.2385-5.8131-5.8426-6.564-5.8426-0.70433 0 1.8714 4.8091 3.1479 5.8773 0.83173 0.69604 3.6311 1.7078 3.9739 1.4363 0.0792-0.0627-0.17177-0.72471-0.55769-1.471zm324.63-6.5156c-0.32725-1.3039 0.44241-2.4406 1.6525-2.4406 0.72698 0 0.83629-0.36009 0.84395-2.78 0.0284-8.9598 2.0899-13.307 7.4942-15.802 4.1547-1.9184 9.1516-0.90837 13.233 2.6748 0.89866 0.78905 1.8687 1.9929 2.1556 2.6752l0.52162 1.2406 1.4336-2.2124c1.6528-2.5507 6.1383-6.7624 8.2889-7.7829 3.127-1.4838 5.8031-0.7259 10.6 3.0023 3.3564 2.6084 6.3484 6.49 7.1919 9.3303 0.84337 2.8399 0.86061 7.001 0.0372 8.9717-1.5566 3.7253-5.4388 4.237-32.164 4.2392l-21.008 2e-3zm40.758-2.5953c8.3612-0.23648 9.7682-1.0388 9.7682-5.5696 0-3.9587-1.6482-6.7839-5.8709-10.063-5.2203-4.054-7.0323-4.0462-11.456 0.0489-3.6918 3.418-4.961 6.1568-5.2567 11.344-0.16677 2.9251-0.0797 4.1332 0.31578 4.3776 0.30039 0.18565 1.8806 0.26891 3.5115 0.18504 1.6309-0.0839 5.6754-0.22915 8.9876-0.32284zm-16.982-3.0702c-0.46141-4.5599-1.141-7.7256-1.9105-8.9001-0.36407-0.55565-1.7621-1.677-3.1067-2.492-1.9241-1.1661-2.9166-1.478-4.6601-1.4645-5.0058 0.0388-7.2582 2.819-7.8034 9.6318-0.15668 1.9571-0.38595 4.2089-0.50969 5.004l-0.22493 1.4456h18.542zm13.851-31.93c-8.949-1.5889-24.498-5.2883-28.041-6.6715-1.1108-0.4337-4.0966-1.2259-6.635-1.7605-5.9809-1.2596-6.691-1.5468-6.691-2.7057 0-2.198 4.9863-5.2516 18.015-11.032 4.4034-1.9537 10.31-4.2484 13.126-5.0994 7.4094-2.2394 13.622-3.8518 14.84-3.8518 1.2633 0 2.261 1.0534 1.8968 2.0026-0.34117 0.88908-1.6426 1.3639-8.0676 2.9432-2.9357 0.72163-6.5707 1.7158-8.0779 2.2094l-2.7402 0.89729-0.30842 4.1138c-0.16963 2.2626-0.13752 6.0887 0.0715 8.5025l0.37982 4.3887 5.1152 1.272c2.8542 0.70975 7.4406 1.4518 10.376 1.6789 5.2897 0.40911 6.5266 0.82675 6.5266 2.2037 0 2.0327-2.2692 2.2434-9.7856 0.90886zm-15.623-8.992c-0.20702-1.0397-0.49923-4.2423-0.64938-7.1168-0.15012-2.8745-0.43563-5.2264-0.63446-5.2264-0.72355 0-7.4819 3.0643-13.562 6.1492-4.2811 2.1721-5.863 3.1645-5.0619 3.1756 0.64095 8e-3 3.243 0.64611 5.7824 1.4162 5.5471 1.6821 12.267 3.3917 13.563 3.4503 0.87057 0.0393 0.91164-0.0955 0.5627-1.8479zm12.509-29.341c-3.0632-0.45229-18.486-0.61422-29.504-0.30978-6.1325 0.16948-6.6407 0.12155-7.228-0.68113-0.34746-0.47489-0.63185-1.0754-0.63201-1.3344-5.3e-4 -1.0028 8.0186-8.1824 12.406-11.108 2.5575-1.7049 8.2033-4.7512 12.672-6.8374 4.4327-2.0694 9.2605-4.3249 10.728-5.0123l2.6688-1.2498-19.075 0.0807c-17.655 0.0748-19.111 0.0234-19.564-0.68928-0.38055-0.59921-0.3146-0.94462 0.29727-1.5568 0.8384-0.83888 3.839-0.9349 36.041-1.1536 10.907-0.074 11.521-0.0343 12.121 0.78543 1.2994 1.7743 0.7797 2.1454-7.5158 5.3653-14.467 5.6156-26.451 12.113-32.679 17.72l-2.7968 2.5174h3.122c1.7171 0 5.5778-0.21767 8.5793-0.48375 4.4076-0.39071 7.0123-0.34794 13.543 0.2224 4.447 0.3884 10.077 0.70617 12.511 0.70617 4.8787 0 5.7535 0.4072 5.2431 2.4406-0.27428 1.0928-0.36726 1.1165-4.1641 1.0614-2.136-0.0309-5.1846-0.2485-6.7748-0.48329zm-549.11-29.691c-4.7529-1.2587-6.36-2.259-8.81-5.4837-2.4262-3.1934-3.4875-7.4732-4.1049-16.553-0.35279-5.1882 0.76929-10.632 3.8039-18.456 0.52188-1.3455 1.1179-2.9894 1.3245-3.653 0.20661-0.6636 1.1222-2.5651 2.0347-4.2256 2.984-5.4303 8.1983-16.017 8.1983-16.645 0-0.15651 0.87337-2.1588 1.9408-4.4495 2.1872-4.6935 4.4099-10.298 5.2679-13.283 0.51105-1.778 0.71894-2.0016 1.8612-2.0016 2.6496 0 2.54 1.8229-0.52181 8.6736-0.60136 1.3455-1.3501 3.0469-1.6639 3.7808-0.31378 0.73393-1.0136 2.3352-1.5551 3.5584-1.4489 3.2727-2.011 4.6429-2.9195 7.1168-0.87784 2.3903-4.455 9.477-6.1341 12.152-2.7459 4.3749-6.1077 13.297-7.6284 20.244-0.70073 3.2016-0.71635 7.0565-0.04354 10.749 0.0891 0.48928 0.30288 1.8585 0.47492 3.0426 0.48637 3.3474 0.57379 3.6808 1.5351 5.854 0.49632 1.122 1.7453 2.826 2.7755 3.7866 1.5304 1.4271 2.4789 1.8814 5.1853 2.4835 2.1111 0.46966 4.3363 0.65469 6.1363 0.51021 3.1032-0.24909 4.3903 0.27791 4.1191 1.6865-0.36756 1.9086-6.1241 2.4763-11.276 1.1119zm547.27-10.003c-0.15349-0.15567-8.1046-0.29751-17.669-0.31516-13.164-0.0244-17.5-0.16475-17.843-0.57791-0.6172-0.74367 0.0923-6.0631 1.1905-8.9264 0.99633-2.5975 4.7962-8.3531 6.6414-10.06 2.4648-2.2796 9.3095-6.7874 11.938-7.8626 2.3731-0.97054 3.0937-1.0605 6.672-0.83315 7.5263 0.47818 16.748 3.7419 20.757 7.346 2.5969 2.3349 5.3941 7.7076 6.4095 12.311 0.37772 1.7125 0.95561 4.0553 1.2842 5.2062 1.0406 3.6447 0.99075 3.6642-9.8358 3.8422-5.0961 0.0837-9.3912 0.0251-9.5447-0.13079zm13.759-3.6291c1.8879-0.16795 2.7334-0.41862 2.5871-0.76734-0.11953-0.28489-0.65365-1.9191-1.1869-3.6316-2.6455-8.4954-5.9429-12.017-13.733-14.666-3.3778-1.1488-9.8987-2.4547-12.267-2.4566-3.0127-2e-3 -11.915 5.3698-15.493 9.3496-2.1436 2.3842-4.9901 7.6246-5.4545 10.042-0.26471 1.3778-0.26335 1.3788 2.1125 1.6641 1.3076 0.15702 6.4807 0.31166 11.496 0.34364 5.0152 0.0319 11.921 0.18383 15.346 0.33746 6.4204 0.28799 11.71 0.2196 16.593-0.21455zm-258.57-118.73c-3.6589-3.3562-10.652-8.6551-11.422-8.6551-0.82875 0-1.6992-0.89329-1.6992-1.7438 0-0.73565 3.17-6.1271 7.0114-11.925 1.7214-2.5981 3.4558-4.5023 5.9756-6.5608 5.6085-4.5817 6.5842-4.1132 6.5842 3.1614v4.9941l2.3352-0.19807c3.9724-0.33698 14.074-1.1013 19.905-1.5061 3.058-0.21228 9.6924-0.44354 14.743-0.51389 9.5668-0.13332 10.62 0.04354 10.604 1.7808-0.0187 1.9898-0.34719 2.0556-10.541 2.1112-5.3297 0.02908-12.292 0.28822-15.473 0.57584-3.1803 0.28763-9.2989 0.63808-13.597 0.77879-6.6623 0.21811-8.0188 0.15013-9.2014-0.46149-1.9488-1.0078-2.0835-1.3448-2.3331-5.8389l-0.22241-4.0032-2.6688 3.2362c-2.3786 2.8843-9.3784 13.812-9.0322 14.1 0.0748 0.06237 0.83675 0.4397 1.693 0.83838s3.3906 2.1191 5.6319 3.8231l4.0751 3.0982 0.31167-2.3177c0.40107-2.9825 1.3481-4.5688 3.2728-5.4821 1.6594-0.78741 0.9897-0.8107 14.286 0.4968 4.4508 0.43765 10.954 0.65676 18.349 0.61817 12.146-0.06338 12.976 0.06758 12.698 2.0045-0.0995 0.69167-0.57793 1.0011-1.9119 1.2365-2.7051 0.47733-26.117 0.4009-30.914-0.10087-10.175-1.0644-10.477-1.0663-11.473-0.07044-0.55153 0.55153-1.0244 1.7724-1.186 3.0621-0.64313 5.1327-0.83939 5.697-2.0194 5.806-0.80848 0.07464-1.8405-0.56549-3.7808-2.3453zm345.93-1.2046c-0.25014-0.3058-0.52484-2.4238-0.61046-4.7065-0.22416-5.9769-0.79204-6.219-10.609-4.5231-5.8769 1.0153-20.365 1.2392-25.354 0.39184-1.5902-0.27008-8.0954-0.61885-14.456-0.77504l-11.565-0.284-0.13533-1.1664c-0.0916-0.79062 0.12323-1.2746 0.66719-1.5022 0.44137-0.18472 4.5054-0.43091 9.0313-0.54709 6.7354-0.17291 9.4917-0.04153 15.187 0.72383 9.888 1.3288 18.787 1.2712 27.336-0.17694 3.6103-0.6116 7.2792-1.1049 8.153-1.0962 3.4049 0.03379 5.3621 2.3346 5.3667 6.3088l3e-3 2.5438 2.5576-1.787c3.9624-2.7685 9.3156-7.8116 9.6326-9.0745 0.15719-0.62629 0.0501-1.585-0.23797-2.1304-1.373-2.5995-8.8941-11.445-9.7316-11.445-0.17202 0-0.43691 1.3295-0.58865 2.9544-0.55903 5.9864-2.6854 7.791-10.083 8.557-5.4724 0.56668-24.774-0.07498-29.579-0.98322-8.8881-1.68-13.459-2.205-21.023-2.4149-8.103-0.22484-8.1247-0.22815-8.3897-1.2839-0.15281-0.60893-0.0101-1.366 0.33526-1.7826 0.51898-0.62535 1.3185-0.68547 5.8645-0.44103 5.2516 0.28238 14.442 1.3439 24.548 2.8353 4.139 0.61084 8.1345 0.78528 17.792 0.77674 16.59-0.01513 16.234 0.15601 17.032-8.1706 0.41186-4.2971 0.95553-4.6827 4.1747-2.9607 3.5857 1.918 5.8412 3.9183 9.9534 8.8273 5.4325 6.4851 5.5274 8.1412 0.72862 12.712-3.6666 3.4923-13.833 11.152-14.821 11.166-0.39818 5e-3 -0.9286-0.23986-1.1788-0.54566zm-280.19-3.7301c-0.41079-1.0704 0.37145-2.0193 2.1813-2.6459 1.847-0.63946 3.9083-1.9099 3.9083-2.4088 0-0.1883-1.1509-0.48506-2.5576-0.65943-3.291-0.40796-4.9073-1.1159-6.5608-2.8735-1.0969-1.1659-1.3344-1.795-1.3344-3.5345 0-2.9107 1.5841-5.1656 5.3548-7.6223 2.5401-1.655 3.3604-1.962 5.2761-1.975l2.2684-0.01513v1.537c0 1.4804-0.0985 1.571-2.6765 2.4587-6.0956 2.099-8.5537 5.2265-5.6882 7.237 0.68631 0.48153 2.3452 1.1347 3.6864 1.4514 4.1834 0.98789 6.1597 4.2245 4.247 6.9552-1.5389 2.1971-7.4766 3.7323-8.1047 2.0955zm26.83-2.8446c-1.4688-1.7456-2.0527-3.9307-2.0558-7.6932-2e-3 -2.7418 0.11969-3.1588 1.2558-4.2949 1.7478-1.7478 6.0587-2.8425 7.4478-1.8913 0.83215 0.56981 1.0384 1.7699 0.44387 2.5829-0.52675 0.72039-2.6816 0.95709-4.8023 0.52753-0.34599-0.0701-0.62118 0.44844-0.70626 1.3308-0.13332 1.382-0.0709 1.4456 1.4166 1.4456 2.2625 0 3.838 0.71506 3.838 1.742 0 1.1353-0.4101 1.3568-3.103 1.6757-1.9405 0.22983-2.2346 0.39604-2.2346 1.2628 0 1.128 1.2261 1.6345 3.0686 1.2676 1.8317-0.36477 3.6924 0.53687 3.5231 1.7072-0.16643 1.1508-1.3793 1.5778-4.6617 1.6412-2.0363 0.03934-2.4238-0.10793-3.4301-1.3039zm56.91 0.64924c-1.2334-1.2334-0.69576-3.8097 2.4762-11.867 1.8732-4.7582 2.4078-5.7155 3.32-5.9445 0.90025-0.22594 1.4105 0.09431 2.9672 1.862 1.034 1.1742 2.1921 2.5481 2.5736 3.0532 2.1678 2.8705 4.4217 8.2897 4.4217 10.632 0 3.0921-2.0325 2.9779-3.2982-0.1853l-0.73635-1.8403-2.0972 0.37012c-1.1534 0.20357-3.0479 0.37535-4.21 0.38175-1.9602 0.01009-2.1128 0.0928-2.1128 1.1359 0 1.3361-1.1356 3.1014-1.9951 3.1014-0.33561 0-0.92475-0.31454-1.3092-0.69899zm10.421-7.4805c0-0.09515-0.79284-1.5298-1.7619-3.1881-1.6676-2.8537-1.7843-2.9575-2.1812-1.9397-0.23065 0.59143-0.83183 2.0261-1.3359 3.1881l-0.91656 2.1128h3.0978c1.7038 0 3.0978-0.07784 3.0978-0.17307zm11.787 5.7424c-0.97856-0.36469-1.8394-0.66608-1.9131-0.66977-0.0736-0.0034-0.4524-0.7573-0.8417-1.6747-0.94788-2.2338-1.3923-12.256-0.58655-13.226 0.78496-0.94581 2.5542-0.83936 3.1033 0.18672 0.25325 0.47319 0.46045 3.0753 0.46045 5.7824 0 4.4319 0.0945 5.0166 0.94914 5.8712 0.84619 0.8462 1.2831 0.92113 4.0287 0.69095 3.6412-0.30526 4.363-0.10205 4.363 1.2283 0 0.7646-0.38496 1.1076-1.668 1.4862-3.0642 0.90419-6.0154 1.0257-7.8952 0.3251zm34.983-0.54146c-0.81974-0.4039-2.0207-1.5363-2.6688-2.5164-1.1066-1.6736-1.1784-2.1002-1.1784-7.0076 0-4.6155 0.10911-5.372 0.93505-6.4807 1.7939-2.4081 4.9897-2.5008 7.7172-0.22379 1.2225 1.0206 1.4419 1.456 1.2064 2.3942-0.40183 1.6011-1.4745 1.8582-3.2287 0.77406-1.8048-1.1154-2.2379-0.9098-2.8468 1.3515-0.70084 2.6027 0.11347 6.7426 1.5098 7.675 0.83258 0.55592 1.041 0.38071 0.8341-0.70139-0.34271-1.7927 0.89662-2.5166 4.3082-2.5166 3.7024 0 5.379 0.96205 4.5091 2.5874-0.3469 0.6482-0.93961 0.97099-1.7828 0.97099-1.0369 0-1.3092 0.2302-1.5202 1.2852-0.5324 2.662-4.679 3.9432-7.7942 2.4083zm-99.135-0.62127c-2.4696-1.2224-3.6805-3.2167-3.6805-6.0613 0-4.0278 2.9896-6.751 7.8545-7.1544 2.6836-0.22253 3.7104 0.32549 3.7104 1.9802 0 1.1962-1.3821 1.9361-3.6166 1.9361-1.4079 0-3.0568 0.69176-3.6046 1.5122-0.68378 1.0241-0.3193 2.9974 0.75137 4.0681 1.2785 1.2785 3.5293 1.4551 5.0419 0.39556 0.54671-0.38293 1.542-0.63312 2.2118-0.556 1.6696 0.19224 1.802 1.6436 0.31153 3.4149-1.1 1.3073-1.3622 1.3957-4.1373 1.3954-2.11-2.52e-4 -3.5039-0.26818-4.8424-0.93071zm34.573-1.0337-2.4464-1.9481-0.48168 1.4004c-0.35846 1.0421-0.79212 1.4371-1.6949 1.5438-1.7435 0.20599-2.4956-0.62856-2.483-2.7554 0.0225-3.7976 1.9672-9.1544 4.1967-11.56 2.7463-2.9633 7.8021 0.36296 7.8021 5.1332 0 1.4941-0.86239 3.2124-2.128 4.24-0.5728 0.46509-0.46932 0.75974 0.75743 2.1569 1.697 1.9327 1.7124 3.4794 0.0361 3.6345-0.74576 0.06893-1.9178-0.53879-3.5584-1.8452zm0.39811-7.7336c0.2721-0.50841 0.27452-1.038 7e-3 -1.4456-0.35153-0.53481-0.57127-0.46621-1.3034 0.40684-0.48432 0.57754-0.88057 1.2281-0.88057 1.4456 0 0.73017 1.7431 0.40447 2.1773-0.40685zm-18.628 8.15c-0.31513-0.37972-0.64746-2.6322-0.78451-5.3173l-0.23776-4.6585-2.4487-0.13146c-2.7506-0.14777-3.8267-1.052-2.9355-2.4667 0.42683-0.67753 1.3845-0.79424 7.3903-0.9006 7.6571-0.13567 9.3853 0.20177 9.1593 1.7881-0.15819 1.1108-1.4194 1.5294-4.8732 1.6175l-2.0624 0.05262-0.17455 4.7157c-0.14827 4.0075-0.3023 4.8091-1.0251 5.3376-1.0715 0.78348-1.331 0.77872-2.0079-0.03699zm97.028-0.56441c-1.0958-2.7666-1.4354-5.5028-1.3112-10.564l0.13096-5.3376 1.1954-0.13802c1.8759-0.21665 2.5378 1.2457 2.4784 5.4757-0.0276 1.9571 0.1961 4.692 0.49688 6.0774l0.54687 2.519 1.1997-0.62587c1.5722-0.82023 3.2113-0.79728 4.4383 0.0622 0.78109 0.54711 0.89664 0.86824 0.54726 1.521-0.33037 0.61735-1.1796 0.90642-3.3438 1.1382-1.5955 0.17087-3.01 0.48721-3.1434 0.70299-0.13332 0.21578-0.80685 0.39233-1.4967 0.39233-0.95423 0-1.3701-0.29257-1.7387-1.2232zm26.304 0.36541c-0.43765-0.4718-1.4955-3.4742-2.3508-6.672-1.2367-4.6238-1.7131-5.8142-2.3268-5.8142-1.0172 0-1.5233-2.006-0.7432-2.9459 0.89087-1.0734 7.9874-0.66687 10.407 0.59627 7.0516 3.6806 6.6817 12.703-0.62238 15.181-2.1714 0.73649-3.4552 0.63502-4.3643-0.34497zm3.7783-3.3948c2.6108-1.8287 2.8298-5.0959 0.47425-7.0779-1.3351-1.1235-3.3244-1.884-3.7678-1.4406-0.29054 0.29054 1.691 9.2127 2.0461 9.2127 0.14105 0 0.70237-0.31239 1.2475-0.69419zm-172.48 3.3675c-0.67304-0.41596-1.2771-3.6494-1.3152-7.0394-0.0151-1.3004-0.23776-2.7592-0.49595-3.2416-0.72997-1.364-0.1044-2.4745 1.8296-3.2484 4.9281-1.9719 10.649 0.31693 10.649 4.2602 0 3.0774-3.7976 5.7716-7.0056 4.9702-0.84108-0.21011-1.0008-0.06943-1.0008 0.88126 0 2.5032-1.3455 4.231-2.6615 3.4177zm5.079-7.9999c2.017-0.76685 1.4291-2.0737-1.053-2.3409-0.89742-0.09667-1.1344 0.13012-1.3894 1.3291-0.34194 1.6077 0.24052 1.849 2.4424 1.0118zm152.77 6.7887c-0.75025-0.17654-2.0928-4.922-3.1405-11.101-0.44532-2.6262-0.43446-3.3168 0.0615-3.9145 0.90543-1.091 2.8199-0.6989 3.1918 0.65366 0.48841 1.7763 1.8985 11.239 1.8469 12.395-0.0567 1.2679-0.98219 2.1967-1.9598 1.9667zm25.763-0.53412c-1.5924-1.2619-2.2956-4.7453-2.0575-10.19 0.16794-3.8395 0.281-4.2822 1.3228-5.1783 1.2826-1.1032 5.6003-2.1665 7.8881-1.9425 1.8029 0.1765 2.7259 1.3235 1.9984 2.4832-0.36158 0.57643-1.2844 0.83612-3.5561 1.0008-3.5744 0.25913-4.1799 0.55288-4.1799 2.0279 0 1.0731 0.0481 1.0858 4.1266 1.0858 3.015 0 4.393 0.18652 5.1152 0.69243 1.0796 0.75619 1.1619 1.0144 0.60363 1.8947-0.48817 0.76988-1.2999 0.8966-6.003 0.9372l-3.9415 0.03396 0.29447 1.668c0.313 1.7728 1.6963 3.3244 2.6408 2.962 1.0158-0.38981 2.9462 0.63234 2.9462 1.56 0 1.1599-0.35269 1.33-3.4094 1.6443-2.2207 0.22833-2.7678 0.13029-3.789-0.67901z" fill="#fff"/></g></svg>
