<svg width="800mm" height="450mm" version="1.1" viewBox="0 0 800 450" xml:space="preserve" xmlns="http://www.w3.org/2000/svg"><g transform="translate(210.84 61.573)"><path d="m-0.095173 258.16c-3.7098-0.73146-7.9805-1.1919-16.028-1.728-7.3054-0.48665-9.2926-0.47968-16.424 0.0576-6.5488 0.49336-10.975 0.54975-22.954 0.29243-17.9-0.38448-30.288-0.29698-34.827 0.24601-8.9091 1.0659-23.179 0.44948-34.015-1.4693-5.9739-1.0579-8.0022-1.0755-14.219-0.12325-1.9568 0.29969-6.5893 0.36843-14.05 0.20844-6.1216-0.13133-19.063-0.36628-28.76-0.52223-19.83-0.31893-19.47-0.26218-20.012-3.1498-0.15359-0.8179-0.16349-9.5104-0.022-19.317 0.23937-16.592 0.2031-18.158-0.52257-22.558-1.2218-7.4091-0.98643-9.2561 1.2804-10.046 3.4903-1.2167 55.584-0.82825 74.681 0.55692 5.6597 0.4105 9.7803 0.44725 17.652 0.15741 5.6478-0.20796 32.708-0.42844 60.135-0.48996 31.774-0.0713 53.743-0.28921 60.551-0.60063 5.877-0.26881 16.246-0.43336 23.043-0.36566 12.251 0.12205 12.365 0.13073 13.258 1.024 0.89402 0.89397 0.90186 0.99724 1.0222 13.456 0.07284 7.5324-0.04398 13.507-0.29201 14.934-0.22733 1.3087-0.52924 7.8981-0.67092 14.643-0.277 13.188-0.42471 14.114-2.3692 14.853-1.2634 0.48032-43.997 0.42595-46.457-0.0591zm43.907-2.1947 2.4687-0.25803-0.18283-1.2261c-0.10052-0.67434 0.09513-7.8155 0.43502-15.869 0.33981-8.0537 0.62846-19.095 0.64144-24.537 0.02543-10.64-0.09453-11.363-2.005-12.09-1.3432-0.51068-22.258-0.45475-33.986 0.0909-5.5352 0.25751-29.727 0.47953-57.979 0.53208-26.664 0.0497-54.002 0.28333-60.749 0.5194-8.0145 0.28037-13.915 0.2996-17.018 0.0555-13.842-1.0894-22.002-1.3228-47.134-1.3482-22.276-0.0226-27.064 0.0669-27.604 0.51522-0.75599 0.62743-0.85064 2.9268-0.27086 6.5799 0.86554 5.4537 1.0934 10.116 0.76406 15.633-0.18842 3.1562-0.23002 10.814-0.0924 17.018l0.25016 11.279 18.245 0.0498c10.035 0.0274 22.787 0.17911 28.337 0.33705 8.4155 0.23948 10.7 0.18187 13.753-0.34669 4.8568-0.84092 8.3969-0.79934 13.278 0.15598 10.4 2.0353 26.968 2.7811 38.467 1.7315 4.3534-0.39736 10.141-0.68605 12.862-0.64152 21.001 0.34371 44.402 0.24896 46.922-0.18995 2.2846-0.39788 4.236-0.37688 10.686 0.11503 4.3398 0.331 10.384 0.9318 13.431 1.3351 4.6947 0.6213 8.4775 0.73969 24.776 0.7754 10.579 0.0232 20.346-0.0739 21.704-0.21589zm-150.19-14.175c-0.42253-0.31958-1.0672-0.58673-1.4326-0.59364-1.7309-0.0327-1.8731-0.77114-1.8379-9.542 0.0308-7.6546 0.10067-8.4555 0.87205-9.9815 1.9157-3.7898 7.2405-4.611 9.6137-1.4826 1.342 1.769 0.71274 4.7037-1.4985 6.9885l-1.1921 1.2318 1.2058 0.24115c0.66318 0.13268 1.8633 0.8437 2.6669 1.5801 1.311 1.2015 1.4787 1.5822 1.6324 3.7074 0.27092 3.7455-1.8677 6.7361-5.6125 7.8482-2.4734 0.73454-3.4488 0.73509-4.4173 3e-3zm3.6998-3.3344c2.4201-1.2351 3.144-2.4382 2.915-4.8447-0.09633-1.0121-1.7897-1.889-4.1936-2.1715l-2.2001-0.25858v8.0242h1.0052c0.55284 0 1.6659-0.33724 2.4735-0.74942zm-1.1491-13.023c2.0442-1.9191 2.5184-3.0799 1.4293-3.4978-0.96426-0.37003-2.5178 0.19879-3.1402 1.1497-0.73839 1.1283-1.2629 4.2482-0.71422 4.2482 0.22075 0 1.3121-0.85502 2.4252-1.9zm10.018 15.277c-0.2612-0.2612-0.47491-0.72014-0.47491-1.0199 0-1.153 5.009-18.383 5.807-19.975 0.62256-1.242 1.7136-1.4099 2.5713-0.39577 1.1979 1.4165 4.3103 10.409 4.9488 14.299 0.66782 4.0684 0.54188 5.7405-0.46138 6.1255-1.2156 0.46648-1.683-0.20387-2.1839-3.1323l-0.5039-2.9459h-5.2761l-0.7007 2.8693c-1.0056 4.1176-1.2727 4.6502-2.3324 4.6502-0.50531 0-1.1324-0.2137-1.3937-0.47491zm8.4774-11.893c-0.27943-0.92508-0.77932-2.1978-1.1109-2.8284l-0.60282-1.1464-0.25102 0.94851c-0.13806 0.52167-0.51158 1.7944-0.83006 2.8284l-0.57905 1.8799h3.8819zm8.1445 11.497c-0.30682-0.30682-0.47387-1.8828-0.47194-4.4523 6e-3 -7.356 1.2209-11.796 3.6309-13.266 2.6291-1.6029 6.6435-0.68994 7.6596 1.7419 0.31868 0.76269 0.57941 1.6772 0.57941 2.0322 0 1.2794-1.2985 3.3417-2.6172 4.1567l-1.3456 0.83162 2.1922 2.4225c2.2982 2.5396 2.7079 3.4066 2.494 5.2782-0.08975 0.78502-0.37784 1.1717-0.93225 1.2511-0.59347 0.085-1.3056-0.57036-2.7349-2.517-1.0629-1.4476-2.6608-3.1606-3.551-3.8067l-1.6184-1.1748-0.19788 3.4939c-0.10889 1.9217-0.34197 3.7166-0.51807 3.9886-0.40714 0.62908-1.9477 0.64095-2.5689 0.0197zm5.465-12.039c2.6536-1.0618 2.8837-2.9206 0.36153-2.9206-1.2253 0-1.8392 0.61479-2.3329 2.3362-0.40733 1.4203-0.24099 1.4696 1.9713 0.58441zm336.39 29.885c-3.7098-0.73146-7.9805-1.1919-16.028-1.728-7.3054-0.48665-9.2926-0.47968-16.424 0.0576-6.5488 0.49336-10.975 0.54975-22.954 0.29243-17.9-0.38448-30.288-0.29698-34.827 0.24601-8.9091 1.0659-23.179 0.44948-34.015-1.4693-5.9739-1.0579-8.0022-1.0755-14.219-0.12325-1.9568 0.29969-6.5892 0.36843-14.05 0.20844-6.1216-0.13133-19.063-0.36628-28.76-0.52223-19.83-0.31893-19.47-0.26218-20.012-3.1498-0.15357-0.8179-0.16348-9.5104-0.02199-19.317 0.23939-16.592 0.20311-18.158-0.52257-22.558-1.2218-7.4091-0.98641-9.2561 1.2804-10.046 3.4903-1.2167 55.584-0.82825 74.681 0.55692 5.6597 0.4105 9.7803 0.44725 17.652 0.15741 5.6478-0.20796 32.708-0.42844 60.135-0.48996 31.774-0.0713 53.743-0.28921 60.551-0.60063 5.877-0.26881 16.246-0.43336 23.043-0.36566 12.251 0.12205 12.365 0.13073 13.258 1.024 0.89402 0.89397 0.90186 0.99724 1.0222 13.456 0.0728 7.5324-0.044 13.507-0.29201 14.934-0.22733 1.3087-0.52924 7.8981-0.67092 14.643-0.27701 13.188-0.42472 14.114-2.3692 14.853-1.2634 0.48032-43.997 0.42595-46.457-0.0591zm43.907-2.1947 2.4687-0.25803-0.18283-1.2261c-0.10051-0.67434 0.0951-7.8155 0.43502-15.869 0.33982-8.0537 0.62846-19.095 0.64144-24.537 0.0254-10.64-0.0945-11.363-2.005-12.09-1.3432-0.51068-22.258-0.45475-33.986 0.0909-5.5352 0.25751-29.727 0.47953-57.979 0.53208-26.664 0.0497-54.002 0.28333-60.749 0.5194-8.0145 0.28037-13.915 0.2996-17.018 0.0555-13.842-1.0894-22.002-1.3228-47.134-1.3482-22.276-0.0226-27.064 0.0669-27.604 0.51522-0.75599 0.62743-0.85062 2.9268-0.27086 6.5799 0.86555 5.4537 1.0934 10.116 0.76408 15.633-0.18842 3.1562-0.23002 10.814-0.09244 17.018l0.25016 11.279 18.245 0.0498c10.035 0.0274 22.787 0.17911 28.337 0.33705 8.4155 0.23948 10.7 0.18187 13.753-0.34669 4.8568-0.84092 8.3969-0.79934 13.278 0.15598 10.4 2.0353 26.968 2.7811 38.467 1.7315 4.3534-0.39736 10.141-0.68605 12.862-0.64152 21.001 0.34371 44.402 0.24896 46.922-0.18995 2.2846-0.39788 4.236-0.37688 10.686 0.11503 4.3397 0.331 10.384 0.9318 13.431 1.3351 4.6947 0.6213 8.4775 0.73969 24.776 0.7754 10.579 0.0232 20.346-0.0739 21.704-0.21589zm-141.11-15.932c-1.9692-1.2008-2.2402-2.5182-2.4313-11.82-0.13597-6.6189-0.0606-8.5562 0.3525-9.0539 0.42619-0.51354 1.0625-0.59256 3.3674-0.41824 3.3285 0.25173 4.2642 0.67204 5.3084 2.3844 1.5092 2.4752 0.54008 6.8146-1.8755 8.3973-1.1627 0.76182-1.1595 1.2252 0.0105 1.5189 1.4975 0.37585 2.9413 1.7422 3.441 3.2562 0.63612 1.9275-0.38337 4.6632-2.136 5.732-1.618 0.98659-4.4224 0.98834-6.0371 4e-3zm4.9942-4.2689c0-0.73957-0.38661-1.1056-1.8137-1.7174-0.99756-0.4276-1.888-0.77745-1.9788-0.77745-0.0908 0-0.16508 0.54236-0.16508 1.2053 0 0.75194 0.36532 1.5706 0.97122 2.1765 0.84687 0.84685 1.1002 0.91243 1.9788 0.51212 0.66791-0.30433 1.0076-0.77595 1.0076-1.399zm-1.5634-10.138c0.42287-0.69354 0.76954-1.4836 0.77035-1.7557 3e-3 -0.76837-1.4932-2.0777-2.3731-2.0777-0.72149 0-0.79153 0.26385-0.79153 2.9821 0 2.8854 0.0263 2.968 0.81271 2.5472 0.44699-0.23922 1.1587-1.0024 1.5816-1.6959zm23.951 12.294c-0.10231-0.48976-0.2769-2.4042-0.38804-4.2544-0.11113-1.8502-0.32069-4.6384-0.46571-6.196-0.55313-5.9414 0.82907-8.8429 4.2125-8.8429 4.4718 0 6.3273 7.1439 2.4357 9.3774l-1.1373 0.6527 1.551 1.5982c3.0544 3.1474 3.9902 6.6441 1.8448 6.8935-0.80535 0.0936-1.2404-0.2006-2.0483-1.3852-0.56417-0.82722-1.4951-2.0383-2.0687-2.6913l-1.043-1.1873 0.23491 2.4138c0.31316 3.2177-0.1895 4.512-1.7523 4.512-0.91465 0-1.2325-0.20577-1.3755-0.89045zm4.1285-14.206c0-0.72208-1.0006-1.4479-1.4191-1.0294-0.10875 0.10874-0.306 0.8648-0.4383 1.6801l-0.24055 1.4824 1.049-0.68735c0.57695-0.37803 1.049-1.0286 1.049-1.4458zm-19.313 14.226c-0.86767-0.86766-0.57383-4.081 1.2727-13.917 0.52571-2.8004 1.1359-5.2718 1.3561-5.4919 0.7965-0.7965 2.3016 0.0458 3.1637 1.7706 1.2975 2.5956 3.0102 7.2346 4.1949 11.362 0.83767 2.9184 0.98141 3.9368 0.65638 4.6502-0.7444 1.6338-2.0234 1.0938-2.8447-1.2011-0.51903-1.4502-0.60895-1.5101-1.9356-1.2906-0.76522 0.12669-1.703 0.23221-2.0839 0.2346-0.5293 3e-3 -0.69258 0.33706-0.69258 1.4155 0 0.77615-0.18437 1.7556-0.4097 2.1767-0.45793 0.85568-1.9502 1.0176-2.6772 0.29058zm6.0839-8.1329c-0.12236-0.38092-0.54743-1.5454-0.94461-2.5876l-0.72211-1.8951-0.46724 2.0242c-0.69638 3.0168-0.65612 3.1511 0.94459 3.1511 1.1655 0 1.373-0.12086 1.1894-0.69258zm342.5 28.354c-3.7098-0.73146-7.9805-1.1919-16.028-1.728-7.3054-0.48665-9.2926-0.47968-16.424 0.0576-6.5488 0.49336-10.975 0.54975-22.954 0.29243-17.9-0.38448-30.288-0.29698-34.827 0.24601-8.9091 1.0659-23.179 0.44948-34.015-1.4693-5.9739-1.0579-8.0022-1.0755-14.219-0.12325-1.9568 0.29969-6.5892 0.36843-14.05 0.20844-6.1216-0.13133-19.063-0.36628-28.76-0.52223-19.83-0.31893-19.47-0.26218-20.012-3.1498-0.15357-0.8179-0.16348-9.5104-0.022-19.317 0.23939-16.592 0.20311-18.158-0.52257-22.558-1.2218-7.4091-0.98641-9.2561 1.2804-10.046 3.4903-1.2167 55.584-0.82825 74.681 0.55692 5.6597 0.4105 9.7803 0.44725 17.652 0.15741 5.6478-0.20796 32.708-0.42844 60.135-0.48996 31.774-0.0713 53.743-0.28921 60.551-0.60063 5.8771-0.26881 16.246-0.43336 23.043-0.36566 12.251 0.12205 12.365 0.13073 13.258 1.024 0.894 0.89397 0.90186 0.99724 1.0222 13.456 0.0728 7.5324-0.044 13.507-0.29201 14.934-0.22733 1.3087-0.52924 7.8981-0.67092 14.643-0.277 13.188-0.42473 14.114-2.3692 14.853-1.2633 0.48032-43.997 0.42595-46.457-0.0591zm43.907-2.1947 2.4687-0.25803-0.18283-1.2261c-0.10052-0.67434 0.0951-7.8155 0.43502-15.869 0.33981-8.0537 0.62846-19.095 0.64144-24.537 0.0254-10.64-0.0945-11.363-2.005-12.09-1.3432-0.51068-22.258-0.45475-33.986 0.0909-5.5352 0.25751-29.727 0.47953-57.979 0.53208-26.664 0.0497-54.002 0.28333-60.749 0.5194-8.0145 0.28037-13.915 0.2996-17.018 0.0555-13.842-1.0894-22.002-1.3228-47.134-1.3482-22.276-0.0226-27.064 0.0669-27.604 0.51522-0.75599 0.62743-0.85063 2.9268-0.27086 6.5799 0.86555 5.4537 1.0934 10.116 0.76408 15.633-0.18842 3.1562-0.23002 10.814-0.0924 17.018l0.25016 11.279 18.245 0.0498c10.035 0.0274 22.787 0.17911 28.337 0.33705 8.4155 0.23948 10.7 0.18187 13.753-0.34669 4.8568-0.84092 8.3969-0.79934 13.278 0.15598 10.4 2.0353 26.968 2.7811 38.467 1.7315 4.3534-0.39736 10.141-0.68605 12.862-0.64152 21.001 0.34371 44.402 0.24896 46.922-0.18995 2.2846-0.39788 4.236-0.37688 10.686 0.11503 4.3398 0.331 10.384 0.9318 13.431 1.3351 4.6947 0.6213 8.4775 0.73969 24.776 0.7754 10.579 0.0232 20.346-0.0739 21.704-0.21589zm-133.34-15.09c-2.1782-1.1101-2.7487-2.316-3.9879-8.4297-1.3153-6.4889-1.5856-12.581-0.59475-13.404 1.2931-1.0732 7.3904 0.55285 9.2318 2.4619 2.5039 2.596 2.514 4.9909 0.0314 7.4735-1.6979 1.6979-1.7993 1.917-0.88799 1.917 0.34826 0 1.2387 0.60551 1.9788 1.3456 1.161 1.161 1.3454 1.6088 1.3441 3.265-3e-3 3.084-1.6227 5.0579-4.7691 5.8096-0.61264 0.14629-1.5369-0.0266-2.3464-0.43916zm3.144-3.7235c0.91609-0.98332 1.0395-2.0135 0.31224-2.6061-0.57582-0.46915-3.5412-1.3305-3.7752-1.0966-0.33474 0.33475 0.40245 2.598 1.1598 3.5608 0.96827 1.231 1.271 1.2496 2.3031 0.14181zm-1.9935-9.6025c2.7485-1.7351 2.0198-4.113-1.4747-4.8119l-1.2655-0.25311v3.2579c0 3.6305-0.0725 3.5827 2.7402 1.8071zm8.0245 13.16c-0.678-0.67802-0.59015-2.9172 0.32486-8.2802 0.81429-4.7726 2.6065-10.726 3.7578-12.483 1.0979-1.6756 2.1626-1.0875 4.0583 2.2419 2.5185 4.4232 5.6106 14.679 5.0724 16.823-0.21131 0.84192-0.45881 1.0126-1.3221 0.91192-0.95488-0.11143-1.1556-0.43437-1.9884-3.1997l-0.92633-3.0758-2.648 0.26061c-1.4564 0.1433-2.7215 0.32465-2.8114 0.40291-0.0899 0.0782-0.27135 1.4341-0.40327 3.013s-0.38055 3.0934-0.55252 3.3654c-0.39763 0.62913-1.9401 0.64105-2.5614 0.0197zm7.4536-12.349c-0.40458-1.1759-0.96373-2.5561-1.2426-3.0671-0.4886-0.89541-0.53209-0.85011-1.1977 1.2475-0.3799 1.1972-0.7016 2.5774-0.7149 3.0672-0.0218 0.80668 0.16001 0.89046 1.9333 0.89046h1.9575zm8.5875 11.078c-0.42409-0.42408-0.61881-2.4421-0.81044-8.3988-0.28475-8.8515-0.0758-9.8301 2.459-11.518 3.9618-2.6388 9.7237 1.0217 8.4224 5.3507-0.44538 1.4816-2.0378 3.4604-3.4588 4.2981-0.73569 0.43368-0.71668 0.50796 0.45572 1.7809 2.1001 2.2802 2.9922 3.8354 2.8595 4.985-0.22002 1.9064-1.2912 1.5138-4.2428-1.5547l-2.7831-2.8934-0.012 3.6325c-9e-3 2.7621-0.16161 3.7815-0.6345 4.2544-0.77059 0.77059-1.5261 0.79193-2.2543 0.0637zm6.4343-15.019c0.52265-0.90733 0.52265-1.088 0-1.5856-2.0106-1.914-3.9538-0.65584-3.9538 2.5598v2.019l1.682-0.98462c0.9251-0.54153 1.9474-1.4454 2.2719-2.0086zm-503.21-39.054c-6.7477-0.16838-13.515-0.49499-15.039-0.7258-1.5237-0.23082-5.2636-0.43332-8.311-0.45-3.0474-0.0168-6.7873-0.18331-8.311-0.37028-1.5237-0.18697-4.4317-0.55019-6.4623-0.80716-2.7139-0.34343-4.5486-0.35505-6.9258-0.0438-11.096 1.4524-16.523 1.5997-58.245 1.5803-35.125-0.0163-41.855-0.11054-45.908-0.64307-2.612-0.34316-7.2424-0.65614-10.29-0.69551-5.9956-0.0775-7.094-0.26783-7.5382-1.3067-1.028-2.4041-1.5082-54.168-0.51361-55.366 0.40877-0.49255 2.6686-0.5554 15.347-0.4268 13.141 0.13328 15.35 0.24745 19.023 0.98278 3.5405 0.70887 6.1468 0.86614 17.611 1.0627 7.4007 0.12684 15.144 0.41274 17.206 0.63523 5.5799 0.60181 25.474 0.66145 31.472 0.0944 7.5161-0.71054 59.803-0.83807 73.809-0.18003 5.9859 0.28122 11.395 0.71261 12.02 0.95863 1.8829 0.74078 2.2631 2.2913 1.8375 7.4945-0.66926 8.1837-1.2034 23.34-1.2044 34.174-1e-3 11.454-0.07157 11.915-2.0506 13.384-1.3507 1.0027-2.169 1.0331-17.529 0.6498zm14.434-2.3586c0.39342 0 1.1357-0.34029 1.6496-0.7562l0.93431-0.75621 0.25304-14.975c0.13917-8.2364 0.46501-19.156 0.72409-24.266 0.46557-9.1828 0.46158-9.2987-0.34281-9.95-0.66109-0.53532-2.1343-0.70567-7.8478-0.90751-3.8687-0.13672-9.7053-0.4441-12.97-0.68316-7.5765-0.55477-56.78-0.12176-62.53 0.55022-4.8577 0.5677-23.686 0.53168-31.265-0.0598-3.0474-0.2378-11.24-0.53721-18.205-0.66534-10.671-0.19631-13.616-0.38346-18.713-1.1892-5.5025-0.86992-7.2295-0.95621-19.138-0.95621h-13.09l0.33972 1.0884c0.18684 0.59859 0.352 9.0134 0.36704 18.7 0.015 9.6862 0.1689 20.995 0.34198 25.131l0.31467 7.5194 5.0008 4e-3c2.7504 3e-3 7.1379 0.31289 9.7499 0.68942 4.2685 0.61533 9.0549 0.68452 47.293 0.68368 42.179-9.1e-4 46.956-0.12041 57.187-1.4302 5.0167-0.6422 5.2879-0.6374 10.883 0.19225 3.5355 0.52422 7.7137 0.8547 10.883 0.86085 2.8297 6e-3 6.8368 0.19801 8.9046 0.42782 3.6156 0.40181 26.95 1.1281 28.032 0.87249 0.28989-0.0685 0.84896-0.12445 1.2424-0.12445zm-109.46-14.607c-1.9692-1.2008-2.2402-2.5182-2.4313-11.82-0.13597-6.6189-0.0606-8.5562 0.35249-9.0539 0.42621-0.51353 1.0625-0.59257 3.3674-0.41825 3.3285 0.25174 4.2642 0.67206 5.3084 2.3844 1.5092 2.4752 0.54007 6.8146-1.8755 8.3973-1.1627 0.76182-1.1595 1.2252 0.0105 1.5189 1.4975 0.37585 2.9413 1.7422 3.441 3.2562 0.63611 1.9274-0.38339 4.6632-2.136 5.732-1.618 0.98659-4.4224 0.98834-6.0371 4e-3zm4.9942-4.2689c0-0.73958-0.3866-1.1057-1.8137-1.7174-0.99754-0.4276-1.888-0.77746-1.9788-0.77746-0.0908 0-0.16507 0.54237-0.16507 1.2053 0 0.75192 0.36531 1.5706 0.97121 2.1765 0.84686 0.84686 1.1002 0.91244 1.9788 0.51212 0.66792-0.30432 1.0076-0.77596 1.0076-1.399zm-1.5633-10.138c0.42288-0.69354 0.76953-1.4836 0.77035-1.7557 3e-3 -0.76839-1.4932-2.0777-2.3731-2.0777-0.7215 0-0.79153 0.26384-0.79153 2.9821 0 2.8854 0.0263 2.968 0.81271 2.5472 0.44697-0.23922 1.1587-1.0024 1.5816-1.6959zm23.951 12.294c-0.10231-0.48975-0.27691-2.4042-0.38803-4.2544-0.11114-1.8502-0.32072-4.6384-0.46572-6.196-0.55313-5.9414 0.82907-8.8429 4.2125-8.8429 4.4718 0 6.3273 7.1439 2.4357 9.3774l-1.1373 0.6527 1.551 1.5982c3.0544 3.1474 3.9902 6.6441 1.8448 6.8935-0.80536 0.0936-1.2404-0.2006-2.0483-1.3852-0.56417-0.82724-1.4951-2.0383-2.0687-2.6913l-1.043-1.1873 0.23491 2.4138c0.31316 3.2177-0.1895 4.512-1.7523 4.512-0.91464 0-1.2325-0.20577-1.3755-0.89046zm4.1285-14.206c0-0.72208-1.0007-1.4479-1.4192-1.0294-0.10874 0.10874-0.30598 0.86481-0.4383 1.6801l-0.24055 1.4824 1.049-0.68734c0.57696-0.37803 1.049-1.0286 1.049-1.4458zm-19.313 14.226c-0.86766-0.86766-0.57381-4.081 1.2727-13.917 0.52571-2.8004 1.1359-5.2718 1.3561-5.4919 0.79649-0.79649 2.3016 0.0458 3.1637 1.7706 1.2975 2.5956 3.0102 7.2347 4.1949 11.362 0.83767 2.9184 0.98142 3.9368 0.65638 4.6502-0.74074 1.6258-2.0232 1.0944-2.8352-1.1747-0.35278-0.98588-0.72026-1.4233-1.0798-1.2854-0.29974 0.11503-1.2418 0.32055-2.0934 0.45674-1.3932 0.22278-1.5484 0.36418-1.5484 1.4103 0 0.63949-0.18436 1.5072-0.40968 1.9282-0.45795 0.85568-1.9502 1.0177-2.6773 0.2906zm6.253-7.3921c0-0.19116-0.41282-1.4457-0.91738-2.7879l-0.91739-2.4403-0.46777 2.0266c-0.75126 3.2546-0.67513 3.5492 0.91738 3.5492 0.76183 0 1.3852-0.1564 1.3852-0.34758zm276.04 26.452c-6.7477-0.16838-13.515-0.49499-15.039-0.7258-1.5237-0.23082-5.2636-0.43332-8.311-0.45-3.0474-0.0168-6.7873-0.18331-8.311-0.37028-1.5237-0.18697-4.4317-0.55019-6.4623-0.80716-2.7139-0.34343-4.5487-0.35505-6.9258-0.0438-11.096 1.4524-16.523 1.5997-58.245 1.5803-35.125-0.0163-41.855-0.11054-45.908-0.64307-2.612-0.34316-7.2424-0.65614-10.29-0.69551-5.9956-0.0775-7.0939-0.26783-7.5382-1.3067-1.028-2.4041-1.5082-54.168-0.51361-55.366 0.40878-0.49255 2.6686-0.5554 15.347-0.4268 13.141 0.13328 15.35 0.24745 19.023 0.98278 3.5405 0.70887 6.1468 0.86614 17.611 1.0627 7.4007 0.12684 15.144 0.41274 17.206 0.63523 5.5799 0.60181 25.474 0.66145 31.472 0.0944 7.5161-0.71054 59.803-0.83807 73.809-0.18003 5.9859 0.28122 11.395 0.71261 12.02 0.95863 1.8829 0.74078 2.2631 2.2913 1.8376 7.4945-0.66927 8.1837-1.2034 23.34-1.2044 34.174-1e-3 11.454-0.0715 11.915-2.0506 13.384-1.3508 1.0027-2.169 1.0331-17.529 0.6498zm14.434-2.3586c0.39343 0 1.1358-0.34029 1.6496-0.7562l0.9343-0.75621 0.25304-14.975c0.13911-8.2364 0.46501-19.156 0.7241-24.266 0.46556-9.1828 0.46157-9.2987-0.34282-9.95-0.6611-0.53532-2.1343-0.70567-7.8478-0.90751-3.8686-0.13672-9.7053-0.4441-12.97-0.68316-7.5765-0.55477-56.78-0.12176-62.53 0.55022-4.8578 0.5677-23.686 0.53168-31.265-0.0598-3.0474-0.2378-11.24-0.53721-18.205-0.66534-10.671-0.19631-13.616-0.38346-18.713-1.1892-5.5025-0.86992-7.2295-0.95621-19.138-0.95621h-13.09l0.33972 1.0884c0.18685 0.59859 0.35201 9.0134 0.36704 18.7 0.015018 9.6862 0.16891 20.995 0.34198 25.131l0.31467 7.5194 5.0008 4e-3c2.7504 3e-3 7.1379 0.31289 9.7499 0.68942 4.2685 0.61533 9.0549 0.68452 47.293 0.68368 42.179-9.1e-4 46.956-0.12041 57.187-1.4302 5.0167-0.6422 5.2879-0.6374 10.883 0.19225 3.5355 0.52422 7.7137 0.8547 10.883 0.86085 2.8297 6e-3 6.8368 0.19801 8.9046 0.42782 3.6156 0.40181 26.95 1.1281 28.032 0.87249 0.28988-0.0685 0.84895-0.12445 1.2424-0.12445zm-108.82-14.952c-2.1782-1.11-2.7487-2.316-3.9879-8.4297-1.3153-6.4889-1.5856-12.581-0.59476-13.404 1.2931-1.0732 7.3905 0.55285 9.2318 2.4619 2.5039 2.596 2.514 4.9909 0.03141 7.4735-1.6979 1.6978-1.7993 1.917-0.88799 1.917 0.34826 0 1.2387 0.60552 1.9788 1.3456 1.161 1.161 1.3454 1.6088 1.3441 3.265-3e-3 3.084-1.6227 5.0579-4.7691 5.8096-0.61264 0.14644-1.5369-0.0266-2.3464-0.43915zm3.144-3.7235c0.9161-0.98332 1.0395-2.0135 0.31225-2.6061-0.57582-0.46916-3.5412-1.3305-3.7751-1.0966-0.33474 0.33474 0.40244 2.598 1.1598 3.5608 0.96825 1.2309 1.271 1.2496 2.3031 0.1418zm-1.9935-9.6025c2.7485-1.7351 2.0198-4.113-1.4747-4.8119l-1.2655-0.25311v3.2579c0 3.6305-0.07255 3.5827 2.7402 1.8071zm8.4203 13.556c-0.67801-0.67801-0.59016-2.9172 0.32486-8.2802 0.81428-4.7726 2.6065-10.726 3.7578-12.483 1.0979-1.6756 2.1626-1.0875 4.0583 2.2419 2.5185 4.4233 5.6106 14.679 5.0724 16.823-0.21209 0.84502-0.45791 1.013-1.3345 0.91193-0.98767-0.11383-1.1545-0.40406-2.0639-3.5897-0.76987-2.6967-1.1211-3.414-1.5831-3.2324-0.3265 0.12834-1.511 0.33081-2.6322 0.44995-1.8817 0.19994-2.0568 0.30778-2.2756 1.402-0.13043 0.652-0.23708 1.9763-0.23708 2.9429s-0.18436 2.102-0.40968 2.523c-0.45795 0.85568-1.9502 1.0176-2.6773 0.29059zm7.6521-11.695c-0.14838-0.5986-0.63752-1.8898-1.087-2.8693l-0.81715-1.7809-0.7127 2.1767c-1.1092 3.3876-1.0572 3.5618 1.0628 3.5618 1.7912 0 1.819-0.0194 1.554-1.0883zm8.3891 10.028c-0.4241-0.4241-0.61882-2.4421-0.81045-8.3988-0.28475-8.8516-0.07584-9.8301 2.459-11.518 3.9618-2.6388 9.7237 1.0217 8.4224 5.3507-0.44539 1.4816-2.0378 3.4604-3.4588 4.2981-0.7357 0.43369-0.71669 0.50796 0.45571 1.7809 2.1001 2.2802 2.9922 3.8354 2.8595 4.985-0.22 1.9064-1.2912 1.5138-4.2428-1.5547l-2.7831-2.8934-0.012 3.6325c-9e-3 2.7621-0.16161 3.7815-0.63449 4.2544-0.77058 0.77058-1.5261 0.79193-2.2543 0.0637zm6.4343-15.019c0.52268-0.90733 0.52268-1.088 0-1.5856-2.0106-1.914-3.9538-0.65586-3.9538 2.5598v2.019l1.682-0.98462c0.92509-0.54154 1.9474-1.4454 2.2718-2.0086zm259.42 33.766c-6.7477-0.16838-13.515-0.49499-15.039-0.7258-1.5237-0.23082-5.2636-0.43332-8.311-0.45-3.0474-0.0168-6.7873-0.18331-8.311-0.37028-1.5237-0.18697-4.4317-0.55019-6.4623-0.80716-2.7139-0.34343-4.5486-0.35505-6.9258-0.0438-11.096 1.4524-16.523 1.5997-58.245 1.5803-35.124-0.0163-41.855-0.11054-45.908-0.64307-2.612-0.34316-7.2424-0.65614-10.29-0.69551-5.9956-0.0775-7.0939-0.26783-7.5382-1.3067-1.028-2.4041-1.5082-54.168-0.51361-55.366 0.40878-0.49255 2.6686-0.5554 15.347-0.4268 13.141 0.13328 15.35 0.24745 19.023 0.98278 3.5405 0.70887 6.1468 0.86614 17.611 1.0627 7.4007 0.12684 15.144 0.41274 17.206 0.63523 5.5799 0.60181 25.474 0.66145 31.472 0.0944 7.5161-0.71054 59.803-0.83807 73.809-0.18003 5.9859 0.28122 11.395 0.71261 12.02 0.95863 1.8829 0.74078 2.2631 2.2913 1.8376 7.4945-0.66926 8.1837-1.2034 23.34-1.2044 34.174-1e-3 11.454-0.0715 11.915-2.0506 13.384-1.3507 1.0027-2.169 1.0331-17.529 0.6498zm14.434-2.3586c0.39342 0 1.1357-0.34029 1.6496-0.7562l0.9343-0.75621 0.25305-14.975c0.1391-8.2364 0.46501-19.156 0.72408-24.266 0.46558-9.1828 0.46158-9.2987-0.34281-9.95-0.66109-0.53532-2.1343-0.70567-7.8478-0.90751-3.8686-0.13672-9.7053-0.4441-12.97-0.68316-7.5765-0.55477-56.78-0.12176-62.53 0.55022-4.8578 0.5677-23.686 0.53168-31.265-0.0598-3.0474-0.2378-11.24-0.53721-18.205-0.66534-10.671-0.19631-13.616-0.38346-18.713-1.1892-5.5025-0.86992-7.2295-0.95621-19.138-0.95621h-13.09l0.33972 1.0884c0.18684 0.59859 0.35201 9.0134 0.36704 18.7 0.015 9.6862 0.16891 20.995 0.34198 25.131l0.31467 7.5194 5.0008 4e-3c2.7504 3e-3 7.1379 0.31289 9.7499 0.68942 4.2685 0.61533 9.0549 0.68452 47.293 0.68368 42.179-9.1e-4 46.956-0.12041 57.187-1.4302 5.0167-0.6422 5.2879-0.6374 10.883 0.19225 3.5355 0.52422 7.7137 0.8547 10.883 0.86085 2.8297 6e-3 6.8368 0.19801 8.9046 0.42782 3.6156 0.40181 26.95 1.1281 28.032 0.87249 0.2899-0.0685 0.84897-0.12445 1.2424-0.12445zm-99.546-15.224c-0.42252-0.31958-1.0672-0.58672-1.4325-0.59365-1.7309-0.0328-1.8731-0.77114-1.8379-9.542 0.0308-7.6546 0.10067-8.4556 0.87206-9.9815 1.9157-3.7898 7.2405-4.611 9.6137-1.4826 1.342 1.769 0.71274 4.7037-1.4985 6.9885l-1.1921 1.2318 1.2058 0.24115c0.66317 0.13268 1.8633 0.8437 2.6668 1.5801 1.311 1.2015 1.4787 1.5822 1.6324 3.7074 0.27093 3.7456-1.8677 6.7361-5.6125 7.8482-2.4734 0.73452-3.4488 0.73509-4.4173 3e-3zm3.6998-3.3344c2.4201-1.2352 3.144-2.4382 2.915-4.8447-0.0963-1.0121-1.7897-1.889-4.1936-2.1715l-2.2001-0.25858v8.0242h1.0052c0.55285 0 1.6659-0.33722 2.4735-0.7494zm-1.1491-13.023c2.0441-1.9192 2.5184-3.0799 1.4292-3.4978-0.96427-0.37002-2.5179 0.19879-3.1402 1.1497-0.73839 1.1283-1.2629 4.2481-0.71421 4.2481 0.22074 0 1.3121-0.85501 2.4252-1.9zm10.018 15.672c-0.26121-0.26119-0.47491-0.72013-0.47491-1.0198 0-1.153 5.009-18.383 5.807-19.975 0.62255-1.242 1.7136-1.4099 2.5713-0.39577 1.1979 1.4165 4.3103 10.409 4.9488 14.299 0.66783 4.0684 0.54188 5.7405-0.46137 6.1255-1.183 0.45397-1.6692-0.20708-2.1561-2.9315l-0.49163-2.751h-5.3809l-0.67418 2.6714c-0.99943 3.9601-1.2531 4.4523-2.2943 4.4523-0.50529 0-1.1324-0.21371-1.3936-0.47492zm8.7824-10.903c-0.14075-0.59859-0.62296-1.9612-1.0714-3.028l-0.81536-1.9397-0.6542 1.9397c-1.4302 4.2407-1.4545 4.1164 0.80314 4.1164 1.9734 0 1.9912-0.0105 1.7378-1.0884zm7.8396 10.507c-0.30681-0.30682-0.47385-1.8828-0.47192-4.4523 6e-3 -7.356 1.2209-11.796 3.6309-13.266 2.6291-1.6029 6.6435-0.68993 7.6596 1.7419 0.31866 0.76268 0.57939 1.6772 0.57939 2.0322 0 1.2794-1.2985 3.3417-2.6171 4.1567l-1.3456 0.83163 2.1922 2.4225c2.2982 2.5396 2.7079 3.4066 2.494 5.2782-0.0897 0.78502-0.37782 1.1717-0.93224 1.2511-0.59348 0.085-1.3056-0.57036-2.7349-2.517-1.0629-1.4476-2.6608-3.1606-3.551-3.8067l-1.6184-1.1748-0.19788 3.4939c-0.1089 1.9217-0.34197 3.7166-0.51805 3.9886-0.40716 0.62908-1.9477 0.64094-2.5689 0.0197zm5.465-12.039c2.6536-1.0618 2.8837-2.9206 0.36153-2.9206-1.2253 0-1.8392 0.61479-2.3329 2.3362-0.40733 1.4203-0.241 1.4696 1.9713 0.58441zm246.75 30.703c-6.7477-0.16838-13.515-0.49499-15.039-0.7258-1.5237-0.23082-5.2636-0.43332-8.311-0.45-3.0474-0.0168-6.7873-0.18331-8.311-0.37028-1.5237-0.18697-4.4317-0.55019-6.4623-0.80716-2.7139-0.34343-4.5486-0.35505-6.9258-0.0438-11.096 1.4524-16.523 1.5997-58.245 1.5803-35.124-0.0163-41.855-0.11054-45.908-0.64307-2.612-0.34316-7.2424-0.65614-10.29-0.69551-5.9956-0.0775-7.0939-0.26783-7.5382-1.3067-1.028-2.4041-1.5082-54.168-0.51361-55.366 0.40878-0.49255 2.6686-0.5554 15.347-0.4268 13.141 0.13328 15.35 0.24745 19.023 0.98278 3.5405 0.70887 6.1468 0.86614 17.611 1.0627 7.4007 0.12684 15.144 0.41274 17.206 0.63523 5.5799 0.60181 25.474 0.66145 31.472 0.0944 7.5161-0.71054 59.803-0.83807 73.809-0.18003 5.9859 0.28122 11.395 0.71261 12.02 0.95863 1.8829 0.74078 2.263 2.2913 1.8375 7.4945-0.66926 8.1837-1.2034 23.34-1.2044 34.174-1e-3 11.454-0.0715 11.915-2.0506 13.384-1.3507 1.0027-2.169 1.0331-17.529 0.6498zm14.434-2.3586c0.39342 0 1.1357-0.34029 1.6496-0.7562l0.9343-0.75621 0.25304-14.975c0.13911-8.2364 0.46501-19.156 0.72408-24.266 0.46558-9.1828 0.46159-9.2987-0.3428-9.95-0.6611-0.53532-2.1343-0.70567-7.8478-0.90751-3.8686-0.13672-9.7053-0.4441-12.97-0.68316-7.5765-0.55477-56.78-0.12176-62.53 0.55022-4.8578 0.5677-23.686 0.53168-31.265-0.0598-3.0474-0.2378-11.24-0.53721-18.205-0.66534-10.671-0.19631-13.616-0.38346-18.713-1.1892-5.5025-0.86992-7.2295-0.95621-19.138-0.95621h-13.09l0.33972 1.0884c0.18684 0.59859 0.35201 9.0134 0.36704 18.7 0.015 9.6862 0.1689 20.995 0.34198 25.131l0.31467 7.5194 5.0008 4e-3c2.7504 3e-3 7.1379 0.31289 9.7499 0.68942 4.2685 0.61533 9.0549 0.68452 47.293 0.68368 42.179-9.1e-4 46.956-0.12041 57.187-1.4302 5.0167-0.6422 5.2879-0.6374 10.883 0.19225 3.5355 0.52422 7.7137 0.8547 10.883 0.86085 2.8297 6e-3 6.8368 0.19801 8.9046 0.42782 3.6156 0.40181 26.95 1.1281 28.032 0.87249 0.2899-0.0685 0.84897-0.12445 1.2424-0.12445zm-103.13-14.607c-1.9692-1.2008-2.2402-2.5182-2.4313-11.82-0.13596-6.6189-0.0606-8.5562 0.3525-9.0539 0.4262-0.51353 1.0625-0.59257 3.3674-0.41825 3.3285 0.25174 4.2642 0.67206 5.3084 2.3844 1.5092 2.4752 0.54008 6.8146-1.8755 8.3973-1.1627 0.76182-1.1595 1.2252 0.0105 1.5189 1.4975 0.37585 2.9413 1.7422 3.441 3.2562 0.63611 1.9274-0.38337 4.6632-2.136 5.732-1.618 0.98659-4.4224 0.98834-6.0371 4e-3zm4.9942-4.2689c0-0.73958-0.38662-1.1057-1.8137-1.7174-0.99755-0.4276-1.888-0.77746-1.9788-0.77746s-0.16506 0.54237-0.16506 1.2053c0 0.75192 0.36531 1.5706 0.97122 2.1765 0.84686 0.84686 1.1002 0.91244 1.9788 0.51212 0.66792-0.30432 1.0076-0.77596 1.0076-1.399zm-1.5634-10.138c0.42289-0.69354 0.76954-1.4836 0.77035-1.7557 3e-3 -0.76839-1.4932-2.0777-2.3731-2.0777-0.7215 0-0.79152 0.26384-0.79152 2.9821 0 2.8854 0.0263 2.968 0.8127 2.5472 0.44698-0.23922 1.1587-1.0024 1.5816-1.6959zm23.951 12.294c-0.10232-0.48975-0.27691-2.4042-0.38804-4.2544-0.11114-1.8502-0.3207-4.6384-0.46572-6.196-0.55312-5.9414 0.82909-8.8429 4.2125-8.8429 4.4718 0 6.3273 7.1439 2.4357 9.3774l-1.1373 0.6527 1.551 1.5982c3.0544 3.1474 3.9902 6.6441 1.8448 6.8935-0.80534 0.0936-1.2404-0.2006-2.0483-1.3852-0.56417-0.82724-1.4951-2.0383-2.0687-2.6913l-1.043-1.1873 0.23491 2.4138c0.31316 3.2177-0.1895 4.512-1.7524 4.512-0.91464 0-1.2325-0.20577-1.3755-0.89046zm4.1285-14.206c0-0.72208-1.0006-1.4479-1.4192-1.0294-0.10874 0.10874-0.30599 0.86481-0.43829 1.6801l-0.24056 1.4824 1.049-0.68734c0.57696-0.37803 1.049-1.0286 1.049-1.4458zm-18.917 14.226c-0.86767-0.86766-0.57382-4.081 1.2727-13.917 0.52571-2.8004 1.1359-5.2718 1.3561-5.4919 0.79649-0.79649 2.3016 0.0458 3.1637 1.7706 1.2975 2.5956 3.0102 7.2347 4.1949 11.362 0.83766 2.9184 0.98142 3.9368 0.65638 4.6502-0.74074 1.6258-2.0232 1.0944-2.8352-1.1747-0.35279-0.98588-0.72027-1.4233-1.0798-1.2854-0.29974 0.11503-1.2418 0.32055-2.0934 0.45674-1.3932 0.22278-1.5484 0.36418-1.5484 1.4103 0 0.63949-0.18436 1.5072-0.40968 1.9282-0.45795 0.85568-1.9502 1.0177-2.6772 0.2906zm6.253-7.3921c0-0.19116-0.41282-1.4457-0.91738-2.7879l-0.91738-2.4403-0.46778 2.0266c-0.75126 3.2546-0.67513 3.5492 0.91737 3.5492 0.76185 0 1.3852-0.1564 1.3852-0.34758zm64.245-45.549c-0.68961-0.16191-1.7039-0.6315-2.254-1.0436-2.5629-1.9199-9.7172-8.3374-9.9278-8.9055-0.3031-0.8175 0.0803-1.8136 0.80528-2.0918 0.98076-0.37635 2.2359 0.41693 5.8622 3.7052 1.9369 1.7564 3.5861 3.1289 3.6648 3.0502 0.0787-0.0787-0.11338-1.4622-0.42686-3.0744-0.73584-3.7836-1.705-11.506-1.9821-15.793-0.27901-4.3175-0.96708-6.6651-2.2115-7.5452-2.0298-1.4356-10.759-1.6798-66.086-1.8486-38.253-0.11682-53.884-0.03351-57.781 0.30767-3.5128 0.3075-18.831 0.51413-44.721 0.60324-23.431 0.08062-41.462 0.30839-44.523 0.56237-2.8297 0.23476-7.9053 0.59639-11.279 0.8036-3.3739 0.2072-7.8262 0.55648-9.894 0.77618-2.0678 0.2197-6.7051 0.51451-10.305 0.65511-5.8611 0.22893-6.6162 0.18486-7.2226-0.42159-0.79655-0.79654-0.88049-1.9457-0.18254-2.499 0.27208-0.21572 4.3237-0.51546 9.0036-0.66609 4.6799-0.15064 9.8446-0.4552 11.477-0.67682 7.0038-0.95077 18.377-1.2223 57.187-1.3652 29.959-0.11039 43.313-0.30296 49.074-0.70782 6.1377-0.43131 19.602-0.56503 59.958-0.59546 47.288-0.0356 52.735 0.02603 59.618 0.67478 7.9226 0.74676 9.0983 1.0882 10.083 2.9279 0.25877 0.48351 0.69536 3.9118 0.9702 7.6184 0.50771 6.8473 0.89345 10.098 1.9973 16.831 0.57299 3.4952 0.94321 4.8759 0.94321 3.5177 0-0.8315 2.6651-6.2678 3.8103-7.7722 1.0689-1.4042 2.2704-1.6653 2.8551-0.62047 0.27154 0.48524-4e-3 1.4779-1.0203 3.6608-0.76606 1.6473-1.8984 4.3184-2.5163 5.9358-1.5156 3.9672-2.3269 4.6189-4.9763 3.9969zm-734.27-1.3225c-2.0484-0.8433-3.4361-1.5706-8.7067-4.5629-1.1972-0.6797-2.4608-1.239-2.8079-1.243-0.87096-0.0105-2.0392-1.386-1.877-2.2109 0.4331-2.2026 3.4968-1.4959 9.0909 2.097 2.1829 1.4021 4.0412 2.477 4.1294 2.3888 0.0882-0.0883-0.10366-1.5407-0.4264-3.2277-0.32278-1.687-0.78819-6.0922-1.0343-9.7893-0.41329-6.2092-0.39277-6.8432 0.26893-8.3106 1.2478-2.7671 0.91113-2.7209 19.845-2.7243 10.23-0.0015 18.271-0.17873 20.302-0.44673 2.3608-0.31141 24.312-0.46205 73.612-0.50516 53.191-0.04652 71.449-0.1824 75.195-0.55962 2.7209-0.274 6.5802-0.66865 8.5763-0.877 5.0221-0.5242 38.744-0.49801 39.733 0.03081 0.86104 0.46082 1.0338 2.141 0.2708 2.6328-0.27208 0.17538-11.804 0.43291-25.626 0.57229-13.822 0.13941-31.186 0.45496-38.587 0.70126-7.4007 0.24631-39.457 0.524-71.237 0.6171-34.517 0.10112-58.737 0.32372-60.156 0.55289-1.306 0.211-10.488 0.39866-20.405 0.41701-13.759 0.02543-18.19 0.15061-18.702 0.5281-0.55808 0.41095-0.60393 0.72921-0.27083 1.8799 0.22054 0.76184 0.49475 3.1661 0.60933 5.3428 0.11457 2.1767 0.49895 5.8454 0.85411 8.1528l0.64576 4.1952 2.8384-2.9415c2.4314-2.5197 3.0037-2.9226 3.9913-2.81 1.7766 0.20257 1.6836 1.4337-0.26307 3.48-0.90606 0.95246-2.2645 2.6964-3.0187 3.8756-2.576 4.027-3.1602 4.2612-6.8445 2.7444zm315.54-7.8908c-0.26692-0.41242-0.69104-15.158-0.87047-30.265l-0.0434-3.6496-5.3993-0.11009c-4.6373-0.09453-5.4608-0.20786-5.8354-0.8027-0.31767-0.50441-0.31772-0.88075-1.3e-4 -1.3852 0.39408-0.6259 1.6132-0.71695 12.662-0.94574 8.037-0.16642 12.396-0.11592 12.721 0.14734 0.70202 0.56843 0.61296 1.7566-0.1537 2.0508-0.35663 0.13686-2.8275 0.45418-5.4908 0.70518l-4.8424 0.45638-0.28547 5.7635c-0.15701 3.1699-0.22787 10.663-0.15746 16.652 0.0704 5.9885-0.012 11.111-0.18344 11.383-0.17132 0.27209-0.64663 0.49469-1.0563 0.49469-0.40965 0-0.88889-0.2226-1.065-0.49469zm-17.754-2.5725c-0.34351-0.81625-0.96395-2.8975-1.3788-4.625-0.41481-1.7275-1.2301-4.6356-1.8118-6.4625-0.94715-2.9745-1.1448-3.2982-1.8916-3.0977-0.45865 0.1231-2.9196 0.22628-5.4689 0.22926l-4.6349 6e-3 -0.46637 1.682c-0.2565 0.92509-0.57934 4.1399-0.71743 7.1441-0.19218 4.1811-0.38802 5.5487-0.83511 5.8314-0.80544 0.50935-1.7204 0.47194-2.2858-0.0935-0.69031-0.69032-0.59244-5.9222 0.18817-10.06 0.3647-1.9331 0.67637-4.2518 0.69258-5.1526 0.01615-0.90084 0.31646-1.9694 0.66721-2.3746 0.35073-0.40518 1.0385-2.4199 1.5285-4.4772 1.0085-4.2351 3.8425-11.754 5.4894-14.565 0.80463-1.3731 1.3798-1.9115 2.1377-2.0011 1.3641-0.16137 1.6376 0.42739 2.4473 5.2675 0.40862 2.4427 1.9961 7.9721 4.1473 14.445 5.3705 16.161 6.066 19.788 3.7937 19.788-0.75358 0-1.1192-0.33884-1.6011-1.4841zm-5.4164-17.703c0.0571-0.04562-0.5404-1.8467-1.3279-4.0025-0.7875-2.1558-1.7396-5.4133-2.1158-7.2388l-0.68393-3.3191-1.0838 2.9234c-1.046 2.8216-3.4014 11.025-3.4014 11.847 0 0.26318 1.4667 0.31048 4.2544 0.13716 2.3399-0.14539 4.3012-0.30172 4.3584-0.34726zm57.084 18.405c-0.50754-0.32058-0.61221-2.6238-0.72168-15.88l-0.12804-15.505-6.326 0.20184c-6.7229 0.21453-7.4674 0.04622-7.4674-1.6888 0-1.3652 1.2315-1.5495 9.7486-1.4588 6.136 0.06537 9.8016-0.10306 14.263-0.65541 3.3022-0.40884 6.4437-0.633 6.9811-0.49811 1.8807 0.47203 1.6446 2.1155-0.35276 2.456-4.0006 0.68188-5.7983 0.9379-8.081 1.1508-1.4148 0.13193-3.2324 0.33594-4.039 0.45327l-1.4666 0.21332-0.0257 15.048c-0.0284 16.667-0.1611 17.566-2.3839 16.162zm56.073-2.003c-0.45848-0.65457-0.5268-2.148-0.36171-7.906 0.18166-6.3362 0.13372-7.1257-0.4466-7.3484-0.83763-0.32143-0.83894-1.89-1e-3 -2.5844 0.56486-0.4688 0.61682-1.2236 0.40511-5.8859-0.41977-9.2446 0.42962-12.143 4.0918-13.962 3.6026-1.7894 11.354-0.88274 15.83 1.8517 3.9206 2.3948 4.763 4.7933 3.1689 9.0228-1.7302 4.5905-5.3873 7.9163-10.465 9.5174l-2.8727 0.9057 4.6361 2.4912c4.7181 2.5352 9.7696 6.4908 10.441 8.176 0.45881 1.1512 0.0615 2.1776-0.8392 2.1679-0.38776-0.0045-2.1989-1.2567-4.0248-2.7835-4.9193-4.1134-11.584-7.7129-15.173-8.1943l-1.52-0.20388 0.0453 7.1978c0.0471 7.478-0.12191 8.3447-1.6272 8.3447-0.39636 0-0.97499-0.36315-1.2859-0.80702zm9.8208-20.03c4.1928-1.1725 6.2548-2.5754 8.2826-5.6351 2.4641-3.718 1.6545-6.9849-2.1036-8.4886-2.623-1.0495-7.9015-1.5814-9.703-0.97765-2.8995 0.97168-3.1848 1.7988-3.3428 9.6904l-0.13881 6.9388 1.7219-0.26592c0.94706-0.14629 3.3248-0.71415 5.2838-1.262zm40.093 18.346c-1.7858-2.1959-6.6192-9.7318-9.6981-15.121-0.99494-1.7414-2.3265-4.0566-2.9591-5.1449l-1.1501-1.9788 0.26566 11.11c0.19481 8.1484 0.14269 11.34-0.1954 11.972-0.5817 1.0869-2.2331 1.1436-2.7938 0.09588-0.26433-0.49394-0.40968-6.8554-0.40968-17.931 0-18.68 0.023-18.883 2.0836-18.365 0.74456 0.18687 1.0936 0.6028 1.2944 1.5425 1.3536 6.3349 3.1418 11.062 6.4744 17.117 1.917 3.4827 4.536 7.935 5.8201 9.894l2.3347 3.5618 0.19788-14.643c0.1089-8.0537 0.34197-14.866 0.51807-15.138 0.41762-0.64527 1.644-0.63398 2.1869 0.02019 0.58788 0.70833 0.64439 33.23 0.0597 34.323-0.76265 1.425-2.1765 0.96389-4.0291-1.3142zm-198.88 1.2046c-0.76507-0.98875-1.4742-4.1113-2.9392-12.942-0.233-1.4046-0.6923-2.9638-1.0207-3.4649-0.48182-0.73534-0.50152-1.0262-0.10216-1.5075 0.3962-0.4774 0.39057-1.9764-0.02827-7.5175-0.51002-6.7477-0.54534-6.9212-1.4092-6.9212-0.98692 0-2.1299-0.9557-2.1299-1.7809 0-0.80378 1.1287-1.7764 2.106-1.8148 0.4742-0.0187 2.376-0.1509 4.2262-0.29391 5.7697-0.44597 11.952-0.31596 13.367 0.28113 2.2194 0.93635 2.9962 2.4911 3.1744 6.3537 0.20097 4.3572-0.73126 7.0325-3.5101 10.073-2.3647 2.5874-4.0683 3.3228-8.483 3.6622-3.2915 0.25301-3.3611 0.27973-3.3584 1.2883 0.0015 0.56647 0.33673 2.4547 0.74489 4.196 1.3737 5.8607 1.8258 9.5732 1.2503 10.267-0.61764 0.7442-1.369 0.79274-1.888 0.12191zm3.7945-19.284c3.9521-0.45439 5.2631-1.2798 6.9474-4.3744 0.81664-1.5004 1.1882-2.8251 1.3237-4.7193 0.17119-2.3927 0.09648-2.7399-0.81713-3.7991l-1.0055-1.1658-5.177 0.02034c-3.2922 0.01346-5.3396 0.18305-5.6238 0.46724-0.28432 0.28432-0.43684 2.1251-0.4193 5.0606 0.03351 5.5987 0.40884 8.8981 1.0119 8.8941 0.247-0.0015 1.9389-0.17429 3.7598-0.38364zm115.71 18.933c-0.35173-0.35524-0.49468-2.2219-0.49468-6.4596 0-5.5313-0.057-5.9955-0.79153-6.4543-1.033-0.6451-1.0066-1.8395 0.0627-2.8357 0.83063-0.77383 0.84729-0.98008 0.60264-7.4596-0.29652-7.8542-0.27929-7.901 3.3873-9.1991 3.0313-1.0732 11.772-1.6075 12.768-0.78062 0.71055 0.5897 0.78317 2.2096 0.11757 2.621-0.26143 0.16158-2.4431 0.32154-4.8481 0.35546-5.1012 0.07195-7.2269 0.62917-7.7612 2.0345-0.20417 0.537-0.37122 3.4581-0.37122 6.4913v5.5149h5.0964c5.355 0 6.2195 0.27023 5.9155 1.8491-0.201 1.0438-2.7692 1.6478-7.1532 1.6824l-3.8587 0.03036v4.9955c0 3.939 0.1047 4.9136 0.4947 4.6084 1.5303-1.1975 9.8717-1.782 11.946-0.83704 1.0398 0.47376 1.6428 1.62 1.2157 2.311-0.13747 0.22248-1.9452 0.40542-4.0821 0.41311-3.2933 0.01197-6.7577 0.45897-10.761 1.3888-0.56614 0.13148-1.201 0.01616-1.4841-0.2698z" fill="#fff"/></g></svg>
