<svg width="800mm" height="450mm" version="1.1" viewBox="0 0 800 450" xml:space="preserve" xmlns="http://www.w3.org/2000/svg"><g transform="translate(210.84 61.573)"><path d="m91.863 333.73c-6.3671-1.416-10.006-3.0354-16.352-7.2766-2.5844-1.7273-5.1442-3.6135-5.6885-4.1916-0.54423-0.57809-1.756-2.6439-2.6929-4.5906-1.0039-2.0861-2.8514-4.993-4.499-7.0791-7.4305-9.408-9.4124-12.425-13.726-20.896-4.0195-7.893-6.3306-13.497-8.0757-19.584-0.73413-2.5604-4.3093-10.079-6.7692-14.236-1.8919-3.197-6.8256-14.116-7.937-17.566-0.56114-1.7418-1.1581-3.3346-1.3267-3.5396-0.81936-0.99621-3.6541-8.1323-5.5501-13.972l-2.117-6.5202-2.4062 0.0167c-1.3234 0.0103-4.9235 0.15796-8.0001 0.33059-5.07 0.28451-5.6437 0.25385-6.126-0.32735-0.38973-0.4696-0.42784-0.80744-0.14234-1.2621 0.33148-0.52782 1.528-0.66896 7.989-0.94241 4.1795-0.17691 7.6399-0.35742 7.6898-0.40117 0.04985-0.0438-0.39165-1.408-0.98116-3.0317-0.5895-1.6236-1.1866-3.7066-1.3268-4.6287-0.43827-2.8823-1.3057-5.5663-3.9131-12.109-1.3884-3.4837-2.9053-7.5076-3.371-8.942-0.46566-1.4344-1.516-4.2847-2.334-6.3339-0.81805-2.0492-1.8627-5.0672-2.3215-6.7065-0.45878-1.6394-1.6783-4.6573-2.7101-6.7065-2.3887-4.7441-2.8343-5.8395-3.784-9.301-0.77496-2.8248-2.8107-7.2076-5.8039-12.495-3.1734-5.6061-8.6364-17.99-9.8617-22.355-0.66149-2.3566-1.6968-5.8356-2.3007-7.7311l-1.098-3.4464h-2.6151c-2.8656 0-4.0564-0.41948-4.0564-1.4289 0-1.1564 0.82086-1.5517 3.2221-1.5517h2.3279l-0.34911-1.0246c-0.19201-0.56354-0.59144-2.3087-0.88763-3.8781-0.42906-2.2736-1.4441-4.6966-4.9945-11.923-6.4846-13.198-11.224-23.97-12.705-28.878-0.42258-1.4003-1.3141-3.4841-1.9811-4.6306-4.6137-7.9306-7.1329-11.822-9.8669-15.241-1.7207-2.1517-4.3108-5.8403-5.7558-8.1969-1.445-2.3567-3.2524-5.1231-4.0165-6.1477-0.76411-1.0246-2.1012-3.1204-2.9712-4.6573-3.9716-7.0154-12.884-15.296-17.612-16.362-2.4369-0.5498-12.484-0.78961-14.63-0.3492-3.7136 0.76221-7.5486 3.0074-12.308 7.206-2.4591 2.1691-6.8322 5.5099-9.7182 7.4239-3.4729 2.3034-6.1404 4.409-7.8888 6.2273-3.9133 4.0696-10.679 13.443-14.89 20.631-2.0412 3.4837-4.6211 7.6845-5.733 9.3352-1.1119 1.6507-2.5145 4.1657-3.1168 5.5888-0.60229 1.4231-1.7097 3.6773-2.4609 5.0093-3.3022 5.8552-9.5819 18.669-10.317 21.051-0.44258 1.4344-1.2305 4.2637-1.7509 6.2873-0.6546 2.5452-1.9337 5.7032-4.1502 10.246-1.7621 3.6118-3.7867 7.9921-4.4991 9.7339-2.4322 5.9473-5.2933 13.595-6.4698 17.294-0.64634 2.0323-1.9852 5.3855-2.9754 7.4517-0.9901 2.0662-2.143 5.098-2.5619 6.7373-0.78356 3.0662-6.4944 14.95-9.2559 19.261-1.449 2.262-2.652 2.976-3.6371 2.1585-0.81878-0.67953-0.68269-1.403 0.55881-2.9705 0.61206-0.77279 2.6197-4.1913 4.4613-7.5968s3.5942-6.5697 3.8946-7.0317c0.30034-0.462 0.82894-2.0975 1.1747-3.6344 0.3457-1.5369 1.6917-5.2704 2.9911-8.2968s2.7685-6.7988 3.2646-8.3832c0.49611-1.5844 1.5208-4.4736 2.277-6.4203 0.75625-1.9468 2.1988-5.8276 3.2056-8.6242 1.0068-2.7966 2.5315-6.3175 3.3881-7.8243 2.6012-4.5754 4.7903-9.563 5.5668-12.683 0.40511-1.6277 1.2957-4.4995 1.9791-6.3818 2.4438-6.7312 12.526-27.132 15.874-32.119 0.96578-1.4388 3.537-5.5908 5.7138-9.2266 2.1768-3.6358 4.9393-7.9076 6.1389-9.493 1.1996-1.5853 3.068-4.2074 4.1519-5.8268 2.8952-4.3254 8.0889-9.3697 11.931-11.588 4.2325-2.4435 6.9556-4.4994 11.739-8.8626 4.2363-3.8643 5.4117-4.622 9.8711-6.3634 2.6789-1.0461 3.0997-1.0982 10.182-1.2612 8.7434-0.20122 8.9166-0.15773 14.652 3.6799 5.7013 3.8148 9.0241 7.892 16.703 20.495 5.1001 8.3706 6.7408 10.757 9.7776 14.22 1.0414 1.1878 2.8546 3.7866 4.0292 5.7751 1.1746 1.9885 2.7543 4.4537 3.5104 5.4783 2.382 3.2279 3.2864 5.1025 4.4038 9.1283 0.59722 2.1517 1.7192 5.5049 2.4934 7.4517 1.9197 4.8274 9.1324 19.861 10.966 22.857 2.5385 4.1475 3.4188 6.1733 3.9672 9.1296 0.29083 1.5678 0.72052 3.5631 0.95485 4.434l0.42606 1.5835h5.8573c5.8809 0 8.204 0.37335 8.204 1.3185 0 0.91233-0.88047 1.1001-6.9196 1.4759l-5.9882 0.37257 2.5427 7.8243c1.3985 4.3034 3.449 9.8362 4.5567 12.295 1.1077 2.4591 2.7166 6.0638 3.5753 8.0106 0.85869 1.9468 2.8672 6.0545 4.4634 9.1283 1.5962 3.0738 3.2775 6.7624 3.7363 8.1969 0.45878 1.4344 1.978 5.0392 3.376 8.0106 1.398 2.9714 2.7995 6.5339 3.1144 7.9167 1.024 4.4968 5.4677 16.751 8.8745 24.473 1.4194 3.2172 2.4054 6.0788 2.7601 8.0106 0.30354 1.6529 0.98509 4.4724 1.5146 6.2655l0.96267 3.2601 3.9477 6e-3c4.2092 6e-3 5.0311 0.23417 4.8186 1.3373-0.15673 0.8138-1.8924 1.2109-5.4351 1.2436-1.2808 0.0114-2.3286 0.12067-2.3286 0.24182 0 0.12125 0.77798 2.6781 1.7289 5.6819 1.056 3.336 2.7234 7.4531 4.2843 10.579 1.4055 2.8144 3.0708 6.7261 3.7007 8.6926 1.8037 5.6308 4.2106 11.066 7.5791 17.115 4.8111 8.6392 6.0078 11.225 8.0215 17.334 1.737 5.2694 3.8221 10.008 6.8043 15.464 0.67517 1.2353 1.6847 3.2472 2.2434 4.471 0.99433 2.1782 6.0721 9.3354 10.302 14.52 2.9302 3.5921 4.4107 5.8138 5.4693 8.2073 1.7369 3.9274 2.5284 4.8064 6.9458 7.7139 5.1646 3.3992 6.4807 4.1542 9.3393 5.3574 5.076 2.1364 13.426 2.735 17.786 1.275 2.5947-0.86884 9.2142-4.2532 11.856-6.0617 1.9495-1.3345 10.674-10.199 11.725-11.913 3.6513-5.9566 9.6452-18.049 10.673-21.532l0.8244-2.7944 6.0859-5.9614c7.5055-7.3519 8.8036-8.976 11.641-14.566 2.6139-5.1484 3.9823-8.7816 4.5651-12.121 0.69132-3.9609 2.4924-9.2766 4.2763-12.621 4.3771-8.2071 6.0969-12.198 7.6253-17.698 0.8543-3.0738 2.1522-7.1816 2.8842-9.1283 0.73201-1.9468 2.2568-6.1383 3.3884-9.3146 2.4621-6.9109 4.1082-11.019 6.121-15.276 1.6093-3.4035 2.2234-5.2411 2.9259-8.7558 0.24575-1.2295 1.2857-4.3139 2.3111-6.8541 1.0299-2.5516 2.5184-7.3039 3.3258-10.619 0.80382-3.3 2.2802-8.515 3.2807-11.589 1.0006-3.0738 2.5871-8.3552 3.5256-11.736 2.7022-9.7354 2.8024-10.038 4.6967-14.158 2.163-4.7052 4.828-11.667 4.828-12.612 0-0.59741 1.1384-5.4146 1.7083-7.2283 0.19193-0.61091-0.49125-0.65203-10.836-0.65203-6.8982 0-11.311-0.14471-11.762-0.38569-0.84334-0.45134-0.94461-1.5727-0.19798-2.1924 0.38811-0.32212 3.5456-0.36687 12.263-0.17388l11.741 0.25991 2.2639-4.5162c2.6116-5.2098 7.8895-18.217 8.9616-22.086 1.5268-5.5097 3.6609-10.349 7.0507-15.988 1.0411-1.732 2.3226-4.3268 2.8477-5.7662 0.52507-1.4395 1.7812-3.7908 2.7914-5.2253 2.5246-3.585 9.26-13.734 12.786-19.266 1.605-2.5184 3.7008-5.7973 4.6573-7.2863 2.1966-3.4196 14.525-15.887 17.943-18.145 8.1925-5.4126 13.355-6.8813 24.242-6.8967 5.9588-0.008451 6.3315 0.036908 10.991 1.3363 2.6528 0.73974 5.4364 1.6573 6.1858 2.0391 2.7473 1.3996 6.9682 5.2539 12.469 11.386 9.6343 10.74 13.093 15.271 14.866 19.475 0.68174 1.6165 1.6484 3.5868 2.1482 4.3785 1.9082 3.0228 2.8072 5.3182 3.9838 10.172 0.66887 2.7591 1.8515 6.5315 2.6281 8.3832 0.77659 1.8516 2.4483 5.7977 3.7149 8.7691 1.2666 2.9714 2.7725 6.5761 3.3463 8.0106 3.3535 8.3826 4.8679 11.874 7.8383 18.07 1.8173 3.791 3.6726 8.1337 4.1229 9.6504l0.81868 2.7576 8.6436-0.25577c9.0659-0.26828 10.793-0.078 10.554 1.1631-0.17088 0.88724-1.6724 1.0819-10.828 1.4034-4.2521 0.14932-7.7311 0.37171-7.7311 0.49419 0 0.33924 2.9208 5.9459 4.3031 8.26 1.379 2.3087 2.5054 5.1589 4.7062 11.909 2.1788 6.6824 7.2483 17.976 9.6228 21.438 1.1576 1.6876 1.943 3.8221 2.6048 7.0791 0.24981 1.2295 1.6769 4.8343 3.1713 8.0106 8.1456 17.313 9.7041 21.266 11.552 29.298 1.2588 5.4716 2.8376 11.244 4.3265 15.819l1.235 3.7946 9.0958-0.14442c8.2957-0.13167 9.1316-0.0881 9.5033 0.49733 0.88805 1.3988-0.10115 1.5871-9.0415 1.7216l-8.4977 0.12787 0.83293 2.8528c0.45812 1.5691 1.5791 4.6133 2.4911 6.765 0.912 2.1517 2.2892 5.6726 3.0604 7.8243 0.77123 2.1517 1.9123 5.3373 2.5358 7.0791 1.2069 3.3718 4.7562 10.736 6.8476 14.207 1.8304 3.038 3.002 6.4453 3.3142 9.6386 0.30055 3.0737 0.73715 4.1044 3.6667 8.6567 2.7924 4.3391 7.4474 12.088 8.4312 14.035 0.456 0.90252 1.3973 3.2106 2.0917 5.129 1.5287 4.2229 2.2172 5.5828 4.3397 8.5715 1.5128 2.1301 6.9658 8.6256 11.835 14.098 1.1271 1.2666 2.7731 3.1692 3.658 4.228 1.8847 2.2553 2.948 2.8401 8.4511 4.6482 6.4508 2.1195 8.515 2.498 14.929 2.7374 5.494 0.20506 6.1841 0.15716 8.3832-0.58202 3.0192-1.0148 6.089-2.8674 10.262-6.1931 8.3304-6.639 10.119-9.0454 14.322-19.27 1.8958-4.6119 4.0816-8.175 8.8444-14.417 3.3237-4.3561 4.6781-7.4076 6.401-14.422 1.8907-7.6972 2.7506-9.9855 5.3734-14.299 1.1836-1.9468 2.9047-5.1323 3.8247-7.0791 0.92002-1.9468 2.0572-4.294 2.5271-5.2162 0.4699-0.92214 1.5057-3.5209 2.3017-5.7751 0.79605-2.2541 3.3107-7.8081 5.5881-12.342 2.2774-4.534 4.405-9.019 4.7278-9.9666l0.58707-1.723h-3.285c-2.5428 0-3.3957-0.13336-3.7748-0.5901-0.3546-0.42726-0.38208-0.76144-0.0995-1.2109 0.3116-0.49589 1.2008-0.65829 4.4193-0.80709l4.0292-0.1863 2.4969-4.9487c4.5162-8.9507 5.8708-12.521 6.4756-17.067 0.63287-4.7567 1.0247-5.9612 3.4607-10.638 0.99898-1.918 2.4247-4.855 3.1682-6.5266 1.3894-3.1238 2.3752-4.0091 3.4607-3.1082 0.664 0.55108 0.0958 2.0642-3.759 10.011-3.0548 6.2978-3.484 7.6685-3.4975 11.17-0.0114 2.8408-1.4834 6.7448-5.7779 15.32-1.5404 3.0756-2.8006 5.698-2.8006 5.8277 0 0.12969 2.0628 0.11673 4.5841-0.0286 4.0021-0.23083 4.6484-0.18685 5.091 0.34647 0.42845 0.51624 0.42537 0.69145-0.0199 1.1312-0.69643 0.68783-4.6344 1.2988-8.3937 1.3023l-3.0232 2e-3 -0.64986 1.7698c-0.3574 0.97337-2.4685 5.4001-4.6913 9.8372-2.2228 4.4371-4.396 9.2155-4.8293 10.619-1.6798 5.4389-5.5724 14.143-8.6392 19.318-4.0309 6.8011-4.048 6.846-6.0696 15.85-1.4887 6.6307-2.8355 9.4582-7.7131 16.193-4.8358 6.677-6.1546 8.8127-7.4601 12.081-0.61972 1.5516-2.1081 4.7814-3.3074 7.1774-1.9544 3.9043-2.5584 4.7367-5.8213 8.0218-6.1983 6.2405-12.312 10.741-16.595 12.217-2.549 0.87813-9.4827 1.1449-14.931 0.57438-4.7634-0.49875-12.895-2.9442-17.139-5.1544-2.1325-1.1106-2.9968-1.8812-5.2825-4.7098-1.503-1.8601-5.1007-6.2323-7.9948-9.7159-6.1815-7.4407-8.0669-10.338-10.463-16.077-2.1591-5.1704-6.1034-12.397-10.473-19.188-3.3121-5.1473-3.6617-6.0179-4.3519-10.838-0.29605-2.0677-1.1485-4.1038-4.8354-11.55-2.4618-4.972-4.9858-10.465-5.609-12.207-0.62316-1.7418-1.9889-5.5142-3.035-8.3832-2.5-6.8562-3.557-9.97-4.2683-12.575l-0.58506-2.1424h-1.778c-1.7576 0-2.6722-0.46273-2.6722-1.352 0-0.79728 1.1328-1.6287 2.219-1.6287h1.048l-1.3922-3.819c-0.76569-2.1005-1.9358-6.1663-2.6003-9.0352-3.2125-13.87-4.8682-18.391-12.146-33.16-2.2341-4.534-4.2518-9.2002-4.7982-11.096-0.56527-1.9616-1.6374-4.4161-2.6772-6.129-2.9599-4.876-6.8161-13.721-9.6701-22.181-1.9814-5.8734-3.3162-9.1439-4.841-11.86-1.1579-2.063-2.4907-4.701-2.9618-5.8624-0.79234-1.9531-0.95494-2.12-2.1688-2.2254-1.5453-0.1342-2.2711-0.85389-1.9335-1.9174 0.17153-0.54049 0.56087-0.76304 1.3348-0.76304 0.60096 0 1.0926-0.0752 1.0926-0.16705 0-1.024-2.2977-6.8927-3.9557-10.103-2.2159-4.2912-6.3682-14.198-7.798-18.605-0.4654-1.4344-1.9709-5.2907-3.3455-8.5694-5.0692-12.091-6.4983-15.759-7.4818-19.204-0.55343-1.9383-1.7772-5.0331-2.7196-6.8774-0.94232-1.8443-2.2472-4.5269-2.8998-5.9614-1.2546-2.7579-6.1151-9.4331-10.718-14.72-4.3598-5.0073-12.898-13.221-14.696-14.137-0.90153-0.45943-3.9048-1.406-6.674-2.1034-4.3024-1.0836-5.6631-1.2672-9.3521-1.2619-5.9341 0.00859-13.517 1.121-16.288 2.3895-4.8498 2.2203-9.4246 5.731-15.543 11.928-4.8772 4.9397-6.5331 6.9183-9.5264 11.383-1.9927 2.9723-6.4346 9.5877-9.8709 14.701-6.3967 9.5181-7.8492 12.01-8.9358 15.329-0.34173 1.0438-1.6251 3.5275-2.852 5.5193-3.0899 5.0166-3.9143 6.719-6.1509 12.702-2.2017 5.89-8.3425 20.832-10.409 25.328-0.75169 1.6352-1.3826 3.3119-1.4021 3.7258-0.0194 0.41399-0.24221 1.0042-0.49494 1.3116-0.56011 0.68125-1.7575 4.7878-2.4986 8.5695-0.49229 2.512-2.6804 8.1789-5.7544 14.903-0.6089 1.332-2.0381 5.3559-3.1759 8.942-1.1379 3.5861-3.0969 9.7714-4.3535 13.745-1.3444 4.2515-2.5913 9.0815-3.0298 11.736-0.86314 5.2261-1.7186 8.1006-3.7355 12.551-0.79651 1.7576-1.9265 5.1289-2.511 7.4918-0.785 3.1732-1.8974 6.0874-4.2556 11.149-1.7561 3.769-3.3122 7.2719-3.4581 7.7842-0.14592 0.51231-1.349 3.8647-2.6736 7.4499-1.3245 3.5851-2.7237 7.9944-3.1092 9.7984-1.6363 7.6571-4.2895 14.584-8.3775 21.873-2.0332 3.6251-3.9358 9.1938-4.6336 13.562-0.61555 3.8532-4.3232 12.143-7.589 16.968-0.61581 0.90985-4.0414 4.6815-7.6123 8.3814-6.6425 6.8824-7.299 7.7675-8.6043 11.601-0.81292 2.3874-7.1932 15.185-9.7704 19.598-1.1549 1.9774-3.0049 4.1113-6.8278 7.8755-2.884 2.8398-5.9982 5.6074-6.9204 6.1504-0.92214 0.54296-3.0759 1.8642-4.786 2.9361-4.946 3.1001-8.4076 4.2738-13.098 4.441-2.8929 0.10316-4.7372-0.0439-7.0791-0.56482zm-282.05-118.95c-1.9468-0.1788-5.3174-0.2262-7.4904-0.10534-3.3658 0.1872-4.0416 0.12898-4.5642-0.39361-0.72654-0.72653-0.78002-1.3622-0.16627-1.976 0.79357-0.79356 13.486-0.41488 16.328 0.48716 0.36713 0.11659 0.76972 0.47821 0.89466 0.80377 0.25478 0.66399-0.39871 1.6435-1.0422 1.5621-0.23106-0.0292-2.0129-0.19938-3.9597-0.37817zm268.73 0.0224c-0.66864-0.6965-0.5737-1.7424 0.19554-2.1541 1.0657-0.57031 20.265-0.98258 21.249-0.45625 0.89814 0.48065 1.0727 1.3275 0.36398 1.7655-0.24948 0.1542-3.7285 0.40118-7.7311 0.54887s-8.7026 0.38385-10.444 0.52484c-2.3881 0.1933-3.2815 0.13702-3.6327-0.22882zm244.88-0.20824c-0.676-0.67599-0.70966-1.4026-0.0881-1.8981 0.27487-0.2191 5.2338-0.44785 12.102-0.55831 12.071-0.19414 12.741-0.12209 12.191 1.3112-0.38005 0.99037-2.6397 1.1947-17.032 1.54-5.5096 0.13224-6.7114 0.0661-7.1723-0.39486zm-495.6-0.43395c-0.61151-0.61221-0.62741-1.2722-0.0447-1.855 0.579-0.579 17.508-0.63494 18.579-0.0614 1.0011 0.53579 0.92812 1.7898-0.11764 2.0207-0.46108 0.10176-4.6828 0.23074-9.3817 0.28653-6.6914 0.0794-8.65-6e-3 -9.0352-0.3909zm71.697 0.30128c-0.75349-0.46785-0.85241-1.5088-0.20492-2.1562 0.32452-0.32452 3.0699-0.44709 10.014-0.44709 8.0131 0 9.6418 0.09 10.027 0.55411 0.78157 0.94175 0.15989 1.5919-1.7393 1.8189-3.891 0.46512-17.441 0.63756-18.097 0.23032zm34.514-0.27754c-0.66746-0.66745-0.65544-1.3737 0.03309-1.9452 0.41997-0.34854 2.6285-0.39105 9.3858-0.18067 4.8601 0.15133 9.2657 0.3899 9.79 0.53013 0.69104 0.18482 0.95342 0.50395 0.95342 1.1596v0.90466l-9.8231 0.0238c-7.897 0.0192-9.9243-0.0775-10.339-0.49234zm36.277 0.2845c-0.75361-0.47597-0.85213-1.516-0.20492-2.1632 0.59679-0.59678 19.035-0.63064 20.735-0.038 1.2607 0.43946 1.4946 1.096 0.6424 1.8033-0.73851 0.61292-20.251 0.9797-21.172 0.39798zm143.53-0.19688c-0.59797-0.7205-0.12745-1.9178 0.8576-2.1818 1.3954-0.37411 20.644-0.25706 21.666 0.1318 1.0074 0.38303 1.342 1.7758 0.48998 2.0399-0.25615 0.0794-5.443 0.22999-11.526 0.33464-9.1276 0.157-11.135 0.10034-11.488-0.3245zm40.029-0.0759c-0.6455-0.64549-0.67335-1.2978-0.0806-1.8904 0.58078-0.58078 19.366-0.6372 20.442-0.0614 1.0028 0.53665 0.92925 1.7922-0.11757 2.0099-0.46108 0.0958-5.0858 0.24076-10.277 0.322-7.7909 0.12194-9.531 0.0554-9.9666-0.38013zm35.52 0.25747c-0.77882-0.47359-0.85175-1.5928-0.14216-2.1817 0.80164-0.6653 26.177-0.099 26.754 0.59714 0.33149 0.39942 0.28509 0.66166-0.20357 1.1506-0.56652 0.56689-1.9508 0.64365-13.195 0.73186-8.392 0.0658-12.778-0.0331-13.214-0.29795zm90.418-0.0986c-0.65585-0.36762-0.6935-1.5305-0.0658-2.0325 0.28083-0.2246 5.3309-0.4276 12.719-0.51135 11.28-0.12787 12.286-0.0879 12.66 0.5029 0.64704 1.023-0.13392 1.4429-3.356 1.8044-3.8476 0.4317-21.274 0.61945-21.957 0.23657zm166.78-0.0495c-1.5368-1.8518 1.0806-2.3415 12.881-2.4099 5.226-0.0303 6.4647 0.0634 6.8414 0.51714 0.71774 0.86489 0.20079 1.5517-1.3608 1.808-0.7863 0.12899-5.1186 0.34632-9.6273 0.48287-7.5069 0.22735-8.2429 0.19379-8.7341-0.39811zm39.117-6e-3c-0.38972-0.4696-0.42728-0.80614-0.14082-1.2613 0.34242-0.54397 1.7001-0.65643 10.97-0.9087 5.8184-0.15832 10.967-0.19432 11.441-0.0799 0.63244 0.15245 0.83119 0.428 0.74516 1.0331-0.15707 1.1046-1.2162 1.2334-12.977 1.5785-8.7382 0.25635-9.5496 0.22712-10.038-0.3616zm36.032 0.16468c-0.75352-0.47054-0.85231-1.5112-0.20493-2.1585 0.55672-0.55672 14.672-0.63008 16.109-0.0838 1.1052 0.42024 1.287 1.6549 0.30368 2.0632-1.1378 0.47249-15.484 0.63102-16.207 0.1791zm-659.85-0.40019c-0.76458-0.44534-0.85615-1.5724-0.17376-2.1388 0.32748-0.27179 3.6853-0.32621 10.651-0.17267 8.6699 0.19114 10.284 0.31497 10.931 0.83841 0.71252 0.57698 0.72026 0.65233 0.12779 1.2448-0.56214 0.56212-1.7309 0.62941-10.757 0.61932-6.1823-7e-3 -10.38-0.15926-10.778-0.39111zm176.3-0.18767c-0.35548-0.42833-0.38235-0.7603-0.09801-1.2109 0.3527-0.55894 1.6206-0.62078 12.726-0.62078 11.112 0 12.397 0.0628 12.968 0.63331 0.52354 0.52367 0.55017 0.73333 0.15383 1.2109-0.4154 0.50052-2.1323 0.57757-12.87 0.57757-10.851 0-12.451-0.0734-12.88-0.5901zm199.15 0.10922c-0.67603-0.37831-0.69816-1.5309-0.0398-2.0772 0.35502-0.29464 3.5234-0.34409 11.002-0.17172 11.102 0.25584 12.247 0.4442 11.372 1.8696-0.38354 0.62469-1.194 0.67411-11.105 0.67727-5.8801 1e-3 -10.933-0.13223-11.23-0.29796zm127.32-0.37584c-0.27292-0.32883-0.39571-0.91455-0.27288-1.3016 0.21036-0.66278 0.88407-0.71702 11.598-0.93378 11.711-0.23694 13.37-0.094 13.134 1.1314-0.18385 0.95459-1.8604 1.1321-13.53 1.4329-9.3312 0.24054-10.485 0.2058-10.929-0.32897zm-142.66-82.344c-1.664-0.61486-4.8319-3.1757-5.7489-4.6474-1.0895-1.7485-0.69465-2.6844 2.1864-5.1818 1.3738-1.1909 3.3734-2.9748 4.4435-3.9643 2.0281-1.8752 3.2186-2.1606 3.9753-0.95277 0.60726 0.96924 0.0958 1.6545-3.0855 4.1346-2.8265 2.2035-2.9441 2.3509-1.9733 2.4737 1.3914 0.17602 10.663-0.61013 14.818-1.2565 2.0734-0.32252 7.1755-0.56271 13.368-0.62929 9.1405-0.0983 10.05-0.0517 10.424 0.53406 0.91748 1.4382 7.5e-4 1.5816-11.794 1.8452-8.7455 0.19546-13.277 0.48822-20.339 1.314l-9.086 1.0625 1.3652 1.1987c0.75088 0.65928 2.0417 1.5438 2.8686 1.9656 1.1638 0.5937 1.477 0.95191 1.3868 1.5858-0.13827 0.97205-1.1003 1.1494-2.8092 0.51793zm137.13-3.4559c-0.15319-0.39921 0.53941-1.3624 2.1433-2.9807l2.3696-2.3909-2.411 8e-3c-1.3261 4e-3 -4.5068 0.2545-7.0684 0.55589-2.5615 0.30137-7.1408 0.74246-10.176 0.98023-4.8566 0.3804-5.5876 0.3634-6.0928-0.14175-0.74769-0.74771-0.35057-1.9999 0.72582-2.2884 0.45428-0.12181 2.3349-0.22471 4.1792-0.22872 1.8443-4e-3 5.0299-0.26037 7.0791-0.56969 2.0492-0.30933 6.0614-0.72969 8.9158-0.93414 2.8545-0.20446 5.26-0.44167 5.3454-0.52715 0.26255-0.26254-2.6161-1.5952-4.8463-2.2435-2.337-0.67941-3.0667-1.6775-2.0036-2.7406 0.51459-0.51462 0.83489-0.53316 2.3669-0.13703 2.6201 0.67744 7.0278 2.9333 7.9014 4.0439 1.7019 2.1636 0.57634 4.4899-4.0379 8.3455-2.283 1.9076-3.9554 2.3834-4.3906 1.2491zm-35.71-20.147c-0.676-0.67602-0.70966-1.4027-0.0881-1.8981 0.27487-0.21907 5.2338-0.44785 12.102-0.5583 12.071-0.19414 12.741-0.12208 12.191 1.3112-0.38005 0.99037-2.6397 1.1947-17.032 1.5401-5.5096 0.13223-6.7114 0.066-7.1723-0.39485zm-513.6-0.18656c-1.9468-0.17879-5.3174-0.22618-7.4904-0.10533-3.3658 0.18721-4.0416 0.12899-4.5642-0.39361-0.72654-0.72654-0.78002-1.3622-0.16627-1.976 0.79357-0.79356 13.486-0.41487 16.328 0.48716 0.36713 0.11646 0.76972 0.47823 0.89466 0.80377 0.25478 0.66401-0.39871 1.6435-1.0422 1.5621-0.23106-0.0292-2.0129-0.19938-3.9597-0.37817zm89.7 0.0539c-0.75349-0.46787-0.85241-1.5088-0.20492-2.1562 0.32452-0.32454 3.0699-0.4471 10.014-0.4471 8.0131 0 9.6418 0.09 10.027 0.55412 0.78157 0.94175 0.15989 1.5919-1.7393 1.8189-3.891 0.46513-17.441 0.63757-18.097 0.23033zm179.03-0.0316c-0.66864-0.69652-0.5737-1.7425 0.19554-2.1542 1.0657-0.57032 20.265-0.98258 21.249-0.45625 0.89814 0.48067 1.0727 1.3275 0.36398 1.7655-0.24948 0.1542-3.7285 0.40118-7.7311 0.54886s-8.7026 0.38386-10.444 0.52485c-2.3881 0.19329-3.2815 0.13701-3.6327-0.2288zm35.295-0.1582c-0.59797-0.72051-0.12745-1.9178 0.8576-2.1818 1.3954-0.3741 20.644-0.25705 21.666 0.13181 1.0074 0.38303 1.342 1.7758 0.48998 2.0399-0.25615 0.0794-5.443 0.22999-11.526 0.33463-9.1276 0.15701-11.135 0.10023-11.488-0.32447zm292.85 3e-3c-0.42178-0.50823-0.19181-2.037 0.30866-2.0518 0.13983-4e-3 5.4127-0.0598 11.717-0.12391 11.89-0.12083 12.626-0.0356 12.075 1.3985-0.27069 0.7054-2.7571 0.89993-14.29 1.118-7.7169 0.14592-9.4574 0.0854-9.8112-0.34079zm115.04 0.18879c-0.75352-0.47055-0.85231-1.5112-0.20493-2.1585 0.55672-0.55671 14.672-0.6301 16.109-0.0838 1.1052 0.42022 1.287 1.6549 0.30368 2.0632-1.1378 0.47248-15.484 0.63101-16.207 0.17909zm-693.91-0.67562c-0.61151-0.61221-0.62741-1.2722-0.0447-1.8549 0.579-0.57901 17.508-0.63495 18.579-0.0614 1.0011 0.5358 0.92812 1.7898-0.11764 2.0207-0.46108 0.10186-4.6828 0.23074-9.3817 0.28653-6.6914 0.0794-8.65-5e-3 -9.0352-0.39091zm34.065 0.27621c-0.76458-0.44533-0.85615-1.5724-0.17376-2.1388 0.32748-0.27179 3.6853-0.32623 10.651-0.17266 8.6699 0.19113 10.284 0.31495 10.931 0.83839 0.71252 0.57698 0.72026 0.65233 0.12779 1.2448-0.56214 0.56214-1.7309 0.62942-10.757 0.61933-6.1823-7e-3 -10.38-0.15924-10.778-0.3911zm72.146-0.25245c-0.66746-0.66746-0.65544-1.3738 0.03309-1.9452 0.41997-0.34854 2.6285-0.39104 9.3858-0.18064 4.8601 0.15132 9.2657 0.38987 9.79 0.53011 0.69104 0.18481 0.95342 0.50394 0.95342 1.1596v0.90467l-9.8231 0.0238c-7.897 0.0192-9.9243-0.0775-10.339-0.49235zm219.84 0.0113c-0.6455-0.6455-0.67335-1.2978-0.0806-1.8904 0.58078-0.58078 19.366-0.6372 20.442-0.0614 1.0028 0.53665 0.92925 1.7922-0.11757 2.0099-0.46108 0.0958-5.0858 0.24078-10.277 0.322-7.7909 0.12195-9.531 0.0555-9.9666-0.38011zm83.47 0.16235c-0.67603-0.37832-0.69816-1.5309-0.0398-2.0772 0.35502-0.29465 3.5234-0.3441 11.002-0.17173 11.102 0.25585 12.247 0.44418 11.372 1.8697-0.38354 0.62467-1.194 0.67408-11.105 0.67726-5.8801 1e-3 -10.933-0.13223-11.23-0.29796zm209.25-0.053c-1.5368-1.8518 1.0806-2.3415 12.881-2.4099 5.226-0.0303 6.4647 0.0634 6.8414 0.51716 0.71774 0.86486 0.20079 1.5517-1.3608 1.808-0.7863 0.129-5.1186 0.34632-9.6273 0.48286-7.5069 0.22734-8.2429 0.1938-8.7341-0.39811zm39.117-5e-3c-0.38972-0.46959-0.42728-0.80612-0.14082-1.2613 0.34242-0.54396 1.7001-0.65643 10.97-0.90869 5.8184-0.15834 10.967-0.19434 11.441-0.08 0.63244 0.15247 0.83119 0.42801 0.74516 1.0331-0.15707 1.1046-1.2162 1.2334-12.977 1.5785-8.7382 0.25635-9.5496 0.22712-10.038-0.3616zm-485.1-0.37139c-0.39107-0.47121-0.42908-0.80802-0.14255-1.2633 0.33202-0.52757 1.6714-0.6861 8.9204-1.0557 9.7085-0.49504 16.578-0.60154 17.441-0.27038 0.6919 0.26552 0.78532 1.4717 0.14466 1.8676-0.24458 0.15115-4.0589 0.40341-8.4763 0.56055-4.4174 0.15715-10.129 0.40229-12.693 0.54473-4.1538 0.23082-4.7194 0.18906-5.1946-0.3835zm37.588-0.0524c-0.35548-0.42833-0.38235-0.7603-0.09801-1.2109 0.3527-0.55895 1.6206-0.6208 12.726-0.6208 11.112 0 12.397 0.0628 12.968 0.63334 0.52354 0.52365 0.55017 0.73333 0.15383 1.2109-0.4154 0.50053-2.1323 0.57758-12.87 0.57758-10.851 0-12.451-0.0734-12.88-0.59011zm241.62 0.10589c-0.65585-0.36762-0.6935-1.5305-0.0658-2.0325 0.28083-0.22459 5.3309-0.42761 12.719-0.51136 11.28-0.12786 12.286-0.0879 12.66 0.50291 0.64704 1.023-0.13392 1.4429-3.356 1.8044-3.8476 0.43169-21.274 0.61945-21.957 0.23657zm275.9-0.47844c-0.35492-0.42767-0.38218-0.76101-0.099-1.2109 0.34278-0.54462 1.6429-0.65039 10.597-0.86213 8.4741-0.20037 10.299-0.15294 10.752 0.27945 0.47902 0.45727 0.47902 0.58651 0 1.0598-0.91454 0.90366-5.0163 1.3181-13.075 1.321-6.5601 3e-3 -7.7572-0.0836-8.1753-0.58728zm-330.38-5.4458c-0.24591-0.24591-0.4471-0.66275-0.4471-0.92632 0-0.26357 1.3401-2.2839 2.978-4.4896 3.2149-4.3294 11.272-19.502 15.861-29.866 4.2412-9.5804 15.374-28.721 20.567-35.358 3.4525-4.4135 3.8124-5.0128 5.4495-9.0744 2.0528-5.0929 3.7443-8.1973 5.8196-10.681 1.9339-2.3144 3.1493-2.8887 3.6043-1.703 0.27985 0.72923-0.58328 2.2653-2.803 4.9884-1.5392 1.8882-4.4955 7.565-5.6749 10.897-0.2718 0.76788-1.9868 3.3667-3.8112 5.7751-6.9016 9.1112-8.9489 12.688-21.577 37.698-14.135 27.996-17.054 33.187-18.659 33.187-0.47267 0-1.0606-0.2012-1.3065-0.4471zm13.726-0.83906c-0.64652-0.77902-0.24194-1.7401 2.5954-6.1655 1.3795-2.1517 3.3821-5.4878 4.4501-7.4136 2.5663-4.6274 3.4588-6.0242 5.9764-9.3528 2.7051-3.5766 3.6911-5.2902 5.6809-9.8735 1.4532-3.3475 4.9591-9.7783 10.562-19.374 1.0769-1.8443 2.9597-4.4732 4.1841-5.842 1.714-1.9161 2.4193-3.0734 3.0653-5.0299 1.1902-3.6043 4.0198-9.2007 7.1983-14.237 1.5016-2.3791 3.8494-6.6616 5.2174-9.5166 2.7776-5.7972 4.0222-7.6632 5.1108-7.6632 1.4666 0 1.2442 1.1807-1.0961 5.8176-1.2706 2.5174-2.5696 5.1981-2.8867 5.9571-0.31714 0.75904-2.0768 3.8814-3.9104 6.9385-3.9994 6.6684-5.907 10.419-7.0228 13.807-0.87032 2.6429-1.3502 3.3459-5.0482 7.3956-2.5125 2.7514-7.1075 10.525-10.447 17.674-3.7355 7.9961-4.6304 9.6058-7.857 14.133-1.7526 2.4591-3.8192 5.5608-4.5923 6.8928-3.4856 6.0056-6.5762 11.567-7.7131 13.879-1.0123 2.0586-1.3983 2.5149-2.1273 2.5149-0.48985 0-1.0927-0.24344-1.3396-0.54099zm16.097 0.10982c-0.6825-0.68249-0.59491-1.0246 0.89143-3.481 0.74396-1.2295 2.8242-5.0379 4.6229-8.463 1.7986-3.4251 4.9421-8.7903 6.9855-11.923 2.0434-3.1324 4.392-7.0474 5.2191-8.7 2.0413-4.0787 10.183-18.038 12.222-20.954 0.90755-1.2983 3.002-4.7221 4.6543-7.6085 1.6523-2.8864 4.3091-7.1081 5.904-9.3816 1.5949-2.2734 3.2589-5.1054 3.6977-6.2931 1.0336-2.7975 2.065-4.8073 3.7674-7.3413 0.75722-1.1271 1.9396-3.1141 2.6276-4.4155 0.68799-1.3015 1.7049-2.8524 2.2599-3.4464 1.0852-1.1617 2.3643-1.4161 2.7015-0.53729 0.19159 0.49925-4.23 8.7679-6.0715 11.354-0.43602 0.61233-1.5199 2.671-2.4087 4.5749-0.88875 1.9039-2.6613 4.8029-3.939 6.4423-2.9881 3.8338-4.324 5.9276-6.9392 10.876-1.1707 2.2151-2.9228 5.1172-3.8937 6.4492-2.6712 3.6648-8.2946 13.295-11.4 19.524-1.5225 3.0536-4.0601 7.3714-5.639 9.5952-4.3222 6.0875-5.8552 8.7598-9.5859 16.709-2.9442 6.2733-3.5329 7.2803-4.3113 7.3746-0.49582 0.06-1.1099-0.0993-1.3646-0.35396zm77.957-0.40167c-0.35585-1.4178 1.5696-5.9167 5.5476-12.962 2.0219-3.581 4.431-7.8522 5.3536-9.4916 0.92263-1.6394 2.0853-3.5256 2.5836-4.1916 0.96195-1.2855 2.235-1.5938 2.6046-0.6307 0.28696 0.74778-2.9193 6.9487-9.6113 18.588-1.417 2.4645-2.7402 5.1538-2.9405 5.9761-0.78002 3.2021-0.87177 3.352-2.1258 3.4739-0.98817 0.0961-1.229-0.0339-1.4118-0.76227zm13.799 0.10365c-0.16853-0.53094 0.32891-1.9026 1.5954-4.3991 1.0121-1.9952 2.1355-4.5498 2.4964-5.6768 0.36088-1.1271 0.91211-2.3426 1.2249-2.7012 0.69728-0.79938 1.891-0.8501 2.1816-0.09266 0.40399 1.0528-1.0666 5.789-2.9813 9.6015-1.7714 3.5272-2.0019 3.8196-3.0931 3.9255-0.92207 0.0894-1.2324-0.0538-1.4239-0.65713zm-72.939-0.04593c-1.2213-0.71134-0.82903-1.6972 3.62-9.0985 1.4782-2.4591 4.2489-7.489 6.1572-11.178 3.3566-6.4879 7.0205-12.848 10.518-18.257 1.8279-2.827 3.7569-6.5278 5.2436-10.06 0.51752-1.2295 1.9491-4.0441 3.1814-6.2545 1.2322-2.2105 2.7516-5.1114 3.3764-6.4465 2.3993-5.1271 10.06-18.067 12.73-21.504 0.94252-1.2129 2.3366-1.2504 2.5062-0.06735 0.11014 0.76813-0.45548 1.737-7.5441 12.924-2.2492 3.5498-4.7215 7.9889-5.5043 9.8833-0.78161 1.8915-2.3105 4.9094-3.3975 6.7065-1.087 1.7971-3.2499 5.8662-4.8064 9.0425-1.5565 3.1763-5.2532 9.807-8.2148 14.735-5.3084 8.8328-13.383 23.725-14.637 26.995-1.0576 2.758-1.8431 3.3852-3.2286 2.5782zm32.583-0.0446c-0.79765-0.79763-0.49455-1.4611 2.6723-5.8492 1.7156-2.3773 4.0714-5.7862 5.235-7.5753 2.0859-3.2073 6.7659-12.602 8.6632-17.391 1.0682-2.6963 1.7295-3.7651 4.0553-6.5546 1.9936-2.3911 2.276-2.9581 3.3941-6.8146 1.4869-5.1289 3.8098-9.0202 5.3846-9.0202 1.2757 0 1.159 0.96087-0.52673 4.3371-0.90645 1.8155-2.03 4.4745-2.4968 5.909-1.1563 3.5536-1.6533 4.4592-3.9871 7.2654-1.1078 1.332-2.5333 3.5116-3.1679 4.8436-5.7589 12.089-7.7127 15.832-10.792 20.678-1.9531 3.0738-4.0243 6.4271-4.6025 7.4517-1.7826 3.1589-2.724 3.8272-3.8314 2.7199zm15.024-0.64318c-0.46691-1.4711 7.4503-18.284 10.803-22.941 2.083-2.8936 4.8802-7.4672 8.5452-13.972 2.1172-3.7578 2.6957-4.471 3.6261-4.471 1.1933 0 1.1661 1.0064-0.0876 3.2473-0.66321 1.1854-2.4143 4.4269-3.8914 7.2034-1.477 2.7765-3.7757 6.4935-5.1081 8.2601-2.9635 3.9291-8.5567 14.769-10.146 19.665-1.109 3.4152-1.1911 3.5442-2.3248 3.6546-0.91325 0.0889-1.229-0.05512-1.4164-0.64579zm-30.948-0.8842c-0.35397-1.4104 3.5666-9.3203 9.0095-18.177 1.0813-1.7596 3.2516-5.8555 4.823-9.1021 1.5713-3.2466 3.4555-6.8368 4.1872-7.9783s2.1112-3.9434 3.0657-6.2263c1.6624-3.976 3.4612-7.2382 7.5726-13.733 1.0377-1.6394 2.8692-4.9926 4.0699-7.4517 1.2007-2.4591 2.4472-4.7644 2.7698-5.123 0.7246-0.80524 1.9099-0.84777 2.2048-0.07911 0.23406 0.60996-4.1992 10.014-5.6138 11.909-0.45906 0.61476-1.5974 2.4591-2.5297 4.0984-0.93222 1.6394-2.4642 4.3076-3.4045 5.9293-0.94023 1.6217-2.201 4.3043-2.8018 5.9614-0.60077 1.657-2.1671 4.7832-3.4806 6.9471s-2.784 4.9303-3.2677 6.1476c-1.4908 3.7523-2.9714 6.5159-5.8117 10.848-3.2606 4.9727-5.0476 8.3998-6.8632 13.162-1.2825 3.3638-1.4079 3.5453-2.5263 3.6553-0.98075 0.09646-1.2146-0.0345-1.4032-0.78624z" fill="#fff"/></g></svg>
