<?xml version="1.0" encoding="UTF-8"?>
<!-- Created with Inkscape (http://www.inkscape.org/) -->
<svg width="140.22mm" height="151.75mm" version="1.1" viewBox="0 0 140.22 151.75" xmlns="http://www.w3.org/2000/svg">
 <g transform="translate(538.16 -799.84)">
  <g fill="#fff">
   <g transform="matrix(.035664 0 0 .035664 -491.53 850.93)">
    <path d="m700.46-1248.9c-0.88412-0.023-1.8144 0.045-2.7921 0.202-6.616 1.067-8.9593 4.5095-12.621 18.54-3.614 13.845-13.72 46.458-20.656 66.655-3.3611 9.789-8.3342 26.472-11.051 37.076-2.7169 10.604-6.9187 25.508-9.3374 33.12-5.7134 17.982-8.6965 30.86-11.796 50.917-3.7645 24.362-4.1662 30.633-2.2024 34.404 3.185 6.1171 11.804 7.8061 16.051 3.146 0.9814-1.0765 2.7421-1.9585 3.9129-1.9585 3.657 0 19.111-4.8295 31.999-9.9989 12.547-5.0338 40.395-14.91 40.788-14.467 0.2447 0.277 3.8016 12.153 6.2828 20.978 1.3154 4.6786 2.3589 6.3728 5.0245 8.1561h5.1e-4c1.8504 1.2387 4.237 2.2526 5.3036 2.2526 3.7514 0 7.6086-3.2698 9.786-8.2966 2.1252-4.906 2.1291-5.0471 0.46354-15.382-0.9245-5.737-4.9914-26.892-9.0377-47.011-9.0126-44.813-8.5808-42.032-12.904-83.049-3.1428-29.816-4.096-35.905-8.4336-53.883-2.6896-11.147-5.5938-23.32-6.4534-27.051-2.2041-9.5682-6.1391-14.188-12.328-14.35zm-1.848 63.272c0.0835-0.012 0.16186 0.013 0.22893 0.079 0.2683 0.267 1.3746 9.117 2.4582 19.668s2.2177 20.629 2.5203 22.396c0.30216 1.7686 0.40115 3.2142 0.21859 3.2142-0.1823 0-3.8107-3.7752-8.0631-8.3891l-7.7318-8.3892 4.5589-13.115c2.5074-7.2128 4.7822-13.734 5.055-14.492 0.20461-0.5685 0.50453-0.9359 0.75499-0.972zm-16.177 47.018c0.76292 0.072 4.3519 3.6195 8.3313 8.2667 4.2449 4.9551 7.566 9.1167 7.3804 9.2485-0.186 0.1297-5.4899 3.8064-11.787 8.1696-14.932 10.346-13.995 9.9055-12.863 6.0399 0.5206-1.777 2.5554-9.4605 4.5217-17.073 1.9662-7.6121 3.9022-14.192 4.3026-14.619 0.025-0.027 0.0633-0.037 0.1142-0.033zm23.808 30.83c1.0524 0.03 2.0348 1.7903 2.4789 4.8312 0.377 2.583 2.4438 12.864 4.593 22.849 2.149 9.9841 3.9078 18.548 3.9078 19.032l-5.1e-4 -6e-4c0 0.4837-0.38514 0.8801-0.85577 0.8801-2.395 0-14.438-7.2552-24.808-14.944-6.4185-4.7595-12.539-9.2778-13.6-10.041-1.797-1.2913-0.95975-2.0475 12.168-10.99 7.7537-5.2812 14.36-10.026 14.682-10.542 0.46307-0.7441 0.9562-1.0884 1.4345-1.0748zm640.36 7.0528c-7.0049 0.016-13.76 6.8691-28.832 26.292-5.523 7.12-14.171 17.786-19.217 23.706-15.589 18.288-21.96 27.953-35.802 54.312-8.615 16.406-20.285 36.441-29.624 50.859l-5.4064 8.3452-1.9239-2.4138c-1.058-1.327-7.9596-14.454-15.337-29.17-14.562-29.048-22.294-41.645-37.344-60.844-10.346-13.197-13.611-15.716-20.374-15.716-4.5229 0-10.574 3.2297-12.677 6.766-4.4586 7.499-11.373 51.116-12.718 80.232-0.5299 11.468-1.7371 26.727-2.683 33.91-1.4306 10.86-1.7396 22.044-1.8356 66.446-0.098 45.628-0.4282 57.039-2.267 78.503-1.1833 13.814-2.1637 32.721-2.1787 42.019s-0.4523 23.578-0.972 31.734c-2.915 45.755-2.6499 50.502 3.0861 55.295 5.944 4.9668 14.436 3.827 19.139-2.5683 2.5826-3.51 6.1643-38.622 7.6476-74.971 0.5879-14.409 2.1468-37.545 3.4638-51.411 4.8289-51.12 12.355-99.812 13.029-151.76 1.8981-15.226 3.5794-28.089 3.7367-28.585 0.472-1.489 8.1995 8.253 15.672 19.758 9.311 14.336 21.164 38.1 23.281 46.678 2.315 9.3825 6.1578 13.204 13.921 13.842 19.287 0.289 24.597-14.417 34.049-27.488 3.9-5.156 10.481-14.543 14.626-20.862 9.816-14.962 16.372-24.055 38.036-52.757l17.895-23.708 0.2341 5.4182c2.5099 58.01 1.8644 111.17-1.8081 172.5-1.0407 17.377-1.3417 38.978-1.8387 47.951-1.9831 35.805-0.9863 73.399 2.8045 105.79 1.1138 9.516 2.5043 25.309 3.0902 35.098 1.2772 21.336 1.7493 28.918 9.9245 28.918v-3e-3c2.7363 0 5.5967 2.2247 7.0073 2.2247 4.9071 0 11.274-4.1147 13.772-8.8987 2.306-4.417 2.319-4.6347 1.7912-30.648-0.2924-14.41-1.1907-32.269-1.9963-39.686-1.0671-9.824-1.5136-27.54-1.6444-65.252-0.1708-49.149-0.073-52.318 1.9384-62.643 3.9562-20.309 4.2225-23.711 5.0643-64.759 0.4628-22.566 1.434-48.147 2.1585-56.847 0.8959-10.758 1.2696-31.634 1.1679-65.253-0.236-77.988-2.2028-93.282-12.649-98.303-2.708-1.3018-5.0708-2.0564-7.4058-2.051zm76.698 7.2646a15 15 0 0 0-7.3949 2.3715 15 15 0 0 0-4.4881 20.732c11.733 18.217 26.025 33.038 38.494 47.607l0.2676 0.3122 0.2832 0.295c20.669 21.637 31.021 54.315 54.307 83.971 7.0935 12.075 16.585 20.437 24.049 27.867 7.4895 7.4557 12.525 13.649 14.59 20.189 1.1904 10.986-2.0733 21.46-8.1096 33.414-6.2247 12.327-15.218 25.413-22.053 40.441l-0.2263 0.49816-0.1897 0.51159c-23.445 63.463-59.198 123.22-88.137 187.64a15 15 0 0 0 7.5349 19.828 15 15 0 0 0 19.83-7.537c27.848-61.994 63.847-122.07 88.574-188.68 5.3155-11.634 14.024-24.484 21.445-39.18 7.4532-14.76 13.677-32.203 11.033-51.941l-0.1307-0.97461-0.2579-0.95137c-4.1773-15.44-14.126-25.949-22.738-34.521-8.6118-8.5729-16.16-15.702-20.025-22.752l-0.6036-1.0992-0.7752-0.98289c-18.803-23.82-29.311-57.773-55.946-85.936-13.171-15.385-26.351-29.29-35.996-44.265a15 15 0 0 0-13.338-6.8596zm-759.27 18.864c1.8434-0.027 6.7334 3.0734 13.3 8.4878 8.757 7.221 19.755 14.916 26.212 18.342 3.2646 1.7323 5.5505 3.3791 5.0798 3.6633-0.4708 0.2821-4.2157 1.4954-8.3225 2.6939-4.107 1.1994-13.354 4.5508-20.55 7.4471-7.196 2.8973-16.204 6.1903-20.019 7.3189h5.1e-4c-8.5496 2.5297-8.3656 2.5345-7.7303-0.1721 0.2873-1.222 1.6551-8.0073 3.0396-15.076 2.9435-15.03 7.1299-31.243 8.3902-32.496 0.135-0.134 0.3361-0.2018 0.59945-0.2057zm-686.57 8.9751c-4.2761 0-5.3324 0.4418-8.4367 3.5249-3.3395 3.316-3.6312 4.1335-4.9392 13.842-0.7645 5.675-2.7398 18.548-4.3899 28.608-5.6516 34.455-6.2204 54.128-2.6246 90.79 0.8176 8.335 1.953 25.908 2.5228 39.052 0.57 13.143 1.717 32.127 2.5492 42.187 0.8322 10.059 1.9153 36.086 2.4071 57.837 0.49172 21.75 1.147 41.327 1.4568 43.502 0.6413 4.506 3.068 45.269 4.5346 76.175 0.8842 18.631 1.3064 21.891 4.0375 31.143 1.6776 5.6834 3.399 11.925 3.8251 13.87 1.0473 4.7811 1.6411 5.5653 5.8989 7.799l-5.17e-4 -2e-3c8.447 4.43 15.918 1.0336 19.503-8.8666 1.7402-4.805 1.7867-6.342 0.69505-23.088-3.9155-60.053-6.401-107.6-6.9453-132.85l-0.62322-28.9 4.978-0.94154c10.263-1.9427 16.501-2.0424 37.832-0.60307 27.752 1.8738 74.808 1.9343 85.122 0.10956 4.1067-0.72851 7.6436-1.1651 7.86-0.97048 0.21635 0.192-0.11215 12.705-0.73019 27.807-2.5241 61.668-2.1837 120.43 0.86352 149.06 1.6206 15.227 1.5499 15.015 6.1154 18.3 4.6031 3.3112 9.1982 3.8197 13.686 1.5162 3.3735-1.733 8.4659-9.3865 9.9431-14.942 0.71228-2.679 1.0613-25.708 1.0387-68.895-0.0172-35.77 0.49204-75.655 1.1353-88.91 0.78853-16.249 0.89064-32.536 0.31523-50.241-1.3573-41.771-1.0581-64.899 1.0299-79.589 1.3625-9.588 1.6699-15.741 1.2082-24.223-0.882-16.206-7.3538-64.274-12.202-90.634-0.6225-3.384-5.1016-7.9898-9.0181-9.2738-7.2677-2.382-15.378 2.7438-16.874 10.665-0.4029 2.132 0.70274 17.127 2.6768 36.304 3.9961 38.819 4.3591 58.235 1.5343 82.104-1.5624 13.202-1.7877 20.337-1.3622 43.117l0.51005 27.297-9.5891 0.63613c-5.274 0.35004-33.558 0.90138-62.853 1.2268-36.831 0.408-55.007 0.97232-58.915 1.8247l-5.6519 1.2351-0.55862-4.547c-1.2848-10.456-2.6351-29.653-3.5548-50.538-0.5392-12.246-1.9627-30.932-3.1631-41.525-3.0269-26.711-2.8688-50.94 0.54777-83.889 1.4305-13.795 2.5993-27.365 2.5993-30.155-3e-3 -9.7444-5.4457-15.948-13.993-15.948zm-82.759 0.1349a15 15 0 0 0-12.121 8.8362c-25.247 56.944-57.942 112.23-80.445 173.62-9.5751 21.218-34.455 47.609-29.588 84.432l0.1266 0.9648 0.25219 0.93948c3.8736 14.505 13.098 24.359 20.953 32.281s14.597 14.403 17.984 20.662l0.5917 1.0976 0.76739 0.98237c16.889 21.678 26.428 52.953 50.858 79.139 11.988 14.187 23.906 26.938 32.583 40.588a15 15 0 0 0 20.707 4.6116 15 15 0 0 0 4.6111-20.707c-10.737-16.889-23.765-30.568-35.061-43.941l-0.26562-0.31419-0.28112-0.29714c-18.502-19.623-27.909-49.626-49.217-77.139-6.5538-11.265-15.246-19.016-21.975-25.803-6.7193-6.7771-11.092-12.276-12.91-17.973-2.0198-20.022 14.974-39.908 27.299-67.367l0.22117-0.49609 0.18552-0.50746c21.249-58.279 53.706-113.25 80.025-172.61a15 15 0 0 0-7.6326-19.793 15 15 0 0 0-7.6698-1.203h2e-3zm1112.7 23.302c-0.643 0.024-1.2722 0.092-1.8794 0.2056-4.7226 0.879-10.797 6.7629-12.843 12.44-0.882 2.447-5.8588 15.814-11.059 29.704-5.2006 13.889-11.972 33.689-15.048 43.996-3.0759 10.308-7.1075 23.413-8.9591 29.123-2.904 8.956-9.51 31.402-20.515 69.702-9.864 34.33-20.911 112.84-21.157 150.36-0.1228 18.716 0.38269 20.779 5.918 24.177 6.215 3.8146 15.522 1.4798 18.691-4.6865 0.7808-1.519 1.7331-7.211 2.1162-12.649 1.292-18.346 7.2326-61.426 12.626-91.567l3.1166-17.419 8.5096-1.1818c9.361-1.3 21.164-3.9051 45.79-10.106 9.2415-2.3271 16.561-3.7074 16.994-3.205 0.4179 0.486 1.7679 7.5581 2.9998 15.714 3.281 21.725 10.457 60.101 14.42 77.117 1.8995 8.156 4.4208 19.946 5.6027 26.2 2.5824 13.662 9.5127 35.18 12.374 38.419 1.1336 1.283 2.9574 2.7009 4.0525 3.1502v3e-3c3.3841 1.3902 9.5091 1.0254 12.528-0.74518 3.7506-2.2 7.1094-9.2751 7.6476-16.107 0.5-6.357-3.3098-28.117-10.213-58.333-8.084-35.381-15.601-79.227-18.901-110.24-2.578-24.233-6.4141-44.162-21.409-111.23-4.3164-19.303-9.0386-42.216-10.493-50.916-3.0442-18.204-4.528-23.029-8.324-27.065-2.9147-3.0978-8.0833-5.0313-12.584-4.8596zm-669.02 25.629c-2.5622 0.1204-5.0727 0.9258-7.2569 2.545-5.2565 3.898-6.2619 6.499-10.214 26.43-3.938 19.857-11.376 49.072-14.994 58.892-2.973 8.068-8.1844 16.86-13.425 22.648-10.281 11.356-22.057 12.677-30.263 3.3957-3.781-4.277-10.333-17.191-16.223-31.976-2.4908-6.253-7.7358-18.934-11.656-28.177-3.9441-9.301-7.9782-20.647-9.0325-25.405-1.0479-4.728-2.4428-9.7695-3.1001-11.202-1.388-3.0241-7.4436-6.4001-11.481-6.4001-6.9991 0-13.216 6.6636-13.216 14.165 0 5.917 3.7142 22.608 7.3758 33.147 15.557 44.779 26.3 71.29 32.858 81.086 5.206 7.7753 10.318 11.971 18.458 15.143 11.24 4.3825 29.762 1.8081 43.449-6.0374 9.288-5.325 21.954-18.414 26.715-27.605 0.9415-1.8188 1.8584-3.153 2.0371-2.9662 0.1789 0.186-0.50943 5.1827-1.5296 11.103-1.0202 5.921-2.3512 17.265-2.958 25.211-0.6068 7.947-1.9866 21.121-3.066 29.278-1.0794 8.156-2.3905 20.837-2.9135 28.177-2.5286 35.49-3.2272 42.866-5.1036 53.882-3.888 22.828-10.151 39.494-21.185 56.37-8.578 13.121-17 21.241-22.03 21.241-5.62 0-12.861-10.905-15.83-23.843-0.8257-3.598-2.145-15.612-2.9316-26.694-1.1431-16.107-1.9246-21.64-3.8948-27.567-6.2825-18.899-8.3156-22.036-15.1-23.299-7.6667-1.429-12.942 2.505-15.874 11.837-1.7543 5.583-1.7623 6.4259-0.18913 19.278 0.9049 7.391 2.1016 21.33 2.6598 30.976 1.223 21.138 3.7014 31.962 10.412 45.476 8.152 16.418 16.437 24.779 28.285 28.543l5.2e-4 -2e-3c9.908 3.147 22.247 1.8846 30.68-3.1383 10.161-6.053 17.256-13.817 30.751-33.647 13.561-19.927 19.898-35.498 25.277-62.11 3.5854-17.739 4.5365-25.884 6.4756-55.44 0.8384-12.778 2.399-30.797 3.4675-40.041s2.6403-24.593 3.4928-34.11c0.8525-9.516 2.213-21.082 3.0236-25.705 3.617-20.625 2.8359-54.535-2.0495-88.98-1.3496-9.516-2.655-18.766-2.9011-20.556-1.1662-8.481-9.3136-14.284-17-13.922zm87.789 7.8853c-3.7308-0.053-7.4985 0.2219-11.321 0.818-14.707 2.295-23.303 8.2568-29.123 20.198-6.061 12.436-8.4536 38.803-8.4837 93.564-0.0281 48.37 2.2084 214.22 3.0432 225.67 0.6878 9.437 2.0658 12.208 7.7975 15.679l-1e-3 -3e-3c3.9346 2.3812 6.6774 2.3527 11.557-0.11989 6.8514-3.471 7.1458-4.777 8.5804-38.054 0.70319-16.314 1.4079-53.796 1.5663-83.295l0.28784-53.633h2.4252c4.52-3e-3 15.463-3.1542 22.573-6.4988 14.159-6.662 27.189-19.085 42.961-40.96 8.6275-11.965 15.275-25.11 18.324-36.23 3.0719-11.206 3.0636-30.995-0.0186-43.356-4.276-17.15-7.8973-22.711-22.264-34.187-16.262-12.99-31.737-19.364-47.904-19.592zm384.42 23.624c-4.1052 7e-3 -8.5714 3.5367-9.6888 7.659-1.6877 6.23-3.2895 153.21-2.0877 191.56 1.5418 49.202 2.7872 70.611 4.4225 76.005 2.454 8.0973 7.6862 14.885 13.719 17.797 5.718 2.7607-0.0571 4.9225 22.208 6.4415l-5.1e-4 -7e-3c16.709 1.1395 20.82 1.1838 39.907 0.43666 16.652-0.6528 16.858-0.68749 19.573-3.3843 4.0538-4.0256 3.8769-9.9312-0.41703-13.915-1.7387-1.6124-4.4966-3.6179-6.1288-4.4555-3.741-1.9231-18.005-3.2069-36.038-3.2561-11.878-0.0295-14.021-1.8994-20.897-3.4577-3.1387-0.7108-6.2484-4.1214-7.4672-8.1886-2.5891-8.63-3.9663-49.82-4.8839-146.08-0.9211-96.626-1.199-106.08-3.2789-111.52-1.1526-3.0133-5.3213-5.6348-8.9416-5.6348zm-247.94 11.108c-17.689-0.16313-27.913 1.363-36.434 5.2358-14.403 6.546-19.264 15.811-19.224 36.639 0.24856 128.35 0.11854 149.85-0.99736 165.02-0.68013 9.246-1.2608 28.598-1.2909 43.008-0.0467 22.511 0.20874 27.221 1.8138 33.444 3.26 12.639 10.925 20.747 21.573 22.82v-0.0124c2.4395 0.47485 4.7102 0.91251 5.0462 0.97151 5.113 0.907 30.35-8.6841 43.591-16.567 5.1461-3.0635 10.914-6.4947 12.816-7.6243 4.3884-2.6075 6.1212-5.7255 6.1655-11.094 0.078-9.3931-4.8926-13.307-16.848-13.307-6.4812 7e-3 -8.5297 0.48046-14.975 3.4634-4.1064 1.9005-10.155 5.0692-13.44 7.0414-7.1494 4.2934-8.8562 4.4331-11.177 0.91932-1.5417-2.334-1.7653-5.1832-1.7653-22.492 0-18.45 0.73082-43.515 2.112-72.466l0.57774-12.111h6.6198c7.597-0.0128 16.195-2.1768 31.706-7.9783 2.937-1.0981 5.3512-4.9591 5.9526-9.5219 0.762-5.7764-2.6472-10.014-10.01-12.445-5.5868-1.8405-6.1854-1.8565-13.186-0.32866-4.034 0.8809-10.415 1.8849-14.18 2.2329l-6.8461 0.63097-0.56173-36.957c-0.441-29.025-0.91867-38.657-2.2247-44.868-3.6028-17.136-3.1549-18.736 6.2306-22.268 4.811-1.811 9.189-2.3288 26.663-3.1616 23.055-1.0991 26.027-1.8259 29.354-7.1722 4.0866-6.566 1.381-16.034-5.3836-18.842-2.305-0.9566-9.7388-1.5977-23.623-2.0392-2.8485-0.0903-5.5278-0.14826-8.0548-0.17156zm69.042 0.90744c-3.6191 0.11986-6.7531 0.94577-8.8971 2.5234-4.5637 3.358-8.9909 9.9915-11.276 16.895-2.1393 6.463-2.214 8.299-2.9362 71.884-0.4076 35.888-1.198 70.369-1.7565 76.622-2.2429 25.115-1.0656 44.022 4.7413 76.128 1.6227 8.972 3.4853 19.629 4.1388 23.68 0.9401 5.8278 1.7698 7.9448 3.9744 10.134l-1e-3 2e-3c3.9712 3.9434 9.9263 3.8912 13.968-0.12299 2.6891-2.671 2.9076-3.4405 2.9006-10.134-5e-3 -3.984-1.1006-14.585-2.435-23.557-3.7237-25.037-4.8796-41.169-4.1791-58.332 0.8562-20.976 2.2127-32.141 2.6934-30.943 9.5849 23.873 14.955 41.709 18.128 63.57 1.2949 8.429 2.6545 18.439 3.021 22.245 0.3667 3.807 1.5237 10.609 2.5709 15.117 1.0475 4.507 1.9048 9.212 1.9048 10.455 0 3.5236 4.4216 7.0099 8.8904 7.0099 2.0903 0 4.6002-0.65663 5.5774-1.4599 2.7939-2.297 5.3993-8.9478 5.4219-13.849 0.092-18.785-11.241-92.551-25.035-123.37-4.7334-10.576-9.5444-4.5713 4.5026-19.614 17.507-18.748 24.698-34.977 24.731-55.803 0.017-10.982-2.4596-22.059-6.6838-29.892-3.618-6.706-17.239-20.299-24.165-24.11-6.3888-3.5172-13.768-5.2796-19.8-5.0798zm-200.61 0.17673c0.75228-9e-5 1.5016 0.053 2.2417 0.16175 10.718 1.573 25.139 12.119 29.608 21.651 2.019 4.307 2.3706 6.5853 2.3776 15.471 0.017 17.472-3.5976 26.702-17.822 45.515-10.157 13.434-18.593 21.203-28.678 26.414v-5.2e-4c-4.4291 2.2878-8.5443 4.1594-9.1452 4.1594-1.4426 0-1.4611-39.365-0.0305-64.758 1.3043-23.15 3.7757-36.894 7.5081-41.753 3.2716-4.2599 8.6742-6.86 13.94-6.8606zm296.56 0.8847c-6.9971 0.17292-13.654 1.6451-17.673 4.286-4.3429 2.854-9.1941 9.8718-10.889 15.75-2.0044 6.95-1.108 120.07 1.2537 158.2 2.2363 36.102 3.0305 43.524 6.9133 64.596 2.0116 10.916 2.5487 16.01 1.9182 18.195-1.3066 4.5236 1.2989 9.221 6.411 11.558v2e-3c5.129 2.3458 12.83 2.4569 18.049 0.26148 19.268-8.104 32.146-19.403 39.656-34.795 7.6185-15.614 10.61-32.736 8.6966-49.776-1.3243-11.792-3.5524-18.621-10.695-32.778-6.796-13.468-12.549-22.108-19.421-29.166l-5.2953-5.4369 7.5411-7.4156c6.1297-6.026 8.4898-9.2962 12.608-17.467 2.9363-5.826 5.7862-13.266 6.7784-17.694 3.5178-15.702-0.15244-40.815-8.1824-55.99-4.491-8.486-14.049-17.644-20.885-20.009-4.1021-1.4198-8.9403-2.1773-13.773-2.3151-1.0068-0.0287-2.0131-0.0304-3.0127-6e-3zm275.71 8.26c0.9594-0.29265 2.4456 6.3163 11.003 45.897 8.424 38.963 12.481 60.143 12.47 65.104-0.01 2.5188-0.2244 2.6266-5.7242 2.7053-7.451 0.1121-19.897 2.6273-39.399 7.9618l5.2e-4 -5e-3c-18.019 4.9295-16.597 4.6612-16.597 3.1383 0-3.98 35.095-119.27 37.849-124.33 0.1346-0.2475 0.2608-0.43 0.3979-0.47181zm-276.19 13.505c1.868 0.0294 4.2942 1.1952 7.5975 3.5714 8.0639 5.8 13.587 17.704 14.842 31.989 1.542 17.553-7.1931 36.551-20.101 43.716l-5.2e-4 1e-3c-2.5226 1.4-5.09 2.5414-5.7056 2.5414-0.8097-3e-3 -1.1188-10.927-1.1188-39.507 0-35.535 0.16628-39.668 1.6578-41.153 0.78773-0.78495 1.708-1.1767 2.8288-1.1591zm-87.835 5.8529c4.3228 0.15123 13.232 9.5059 15.754 16.721 4.3434 12.428 1.2282 29.912-7.4828 41.996-2.7261 3.7808-6.9794 9.0991-9.4521 11.817l-4.4964 4.9434 0.0418-33.12c0.0475-37.581 0.57044-41.814 5.2322-42.344 0.12953-0.0147 0.26415-0.0193 0.4036-0.0145zm84.106 107.01c1.8505 0.0781 13.657 12.347 17.609 18.391 5.8527 8.952 12.683 23.346 14.596 30.761 1.1995 4.65 1.5092 9.4053 1.218 18.686-0.3818 12.173-0.48084 12.636-4.4307 20.802-2.3187 4.7932-6.176 10.668-9.0542 13.789-5.6918 6.1718-12.987 10.835-13.641 8.7173-1.4375-4.658-3.8154-25.845-4.6405-41.344-1.4062-26.413-2.5161-69.335-1.804-69.771 0.0384-0.0235 0.0876-0.0335 0.14727-0.031z"/>
    <path class="transmit one" d="m668.98-1329.9c-1.6934-0.011-3.7412 0.4173-6.2472 1.263-6.431 2.171-17.093 10.755-21.769 17.526-10.987 15.908-10.971 38.334 0.0403 56.986 4.6821 7.9308 9.0356 12.68 13.997 15.269 3.7469 1.9565 3.9535 1.9603 7.5019 0.1385 5.563-2.857 4.672-8.5329-2.9037-18.497-2.2065-2.9009-5.2609-7.9313-6.7882-11.177-2.4631-5.233-2.7753-7.0174-2.7606-15.786 0.0141-8.4166 0.36009-10.533 2.327-14.229 3.434-6.454 10.907-13.882 16.72-16.62 6.4373-3.0305 8.264-6.4672 5.8756-11.054-1.3325-2.5592-3.1705-3.7979-5.9929-3.8163zm58.885 9.7374c-2.4848-0.087-3.3164 0.4434-5.0819 2.1968-5.0482 5.0131-2.5765 10.24 6.1547 13.011 12.771 4.055 20.146 12.93 20.146 24.244 0 6.303-2.4895 15.286-7.0058 25.282-3.9678 8.7821-3.6768 12.886 1.032 14.558h5.2e-4c8.151 2.893 16.258-6.9831 20.903-25.464 5.669-22.555-1.35-39.778-20.068-49.239-4.6178-2.3339-9.383-3.9239-12.949-4.3201-1.2915-0.1436-2.3033-0.2409-3.1316-0.2698z"/>
    <path class="transmit two" d="m643.67-1382.3c-2.8094-0.1919-6.1562 0.6878-10.432 2.6128-19.064 8.585-38.467 23.977-49.871 39.562-5.898 8.059-15.93 28.471-18.065 36.754-2.2936 8.899-2.5732 33.491-0.48835 42.956 1.462 6.638 14.961 43.988 18.181 50.304 3.626 7.113 11.824 18.214 15.513 21.01 1.9594 1.4836 5.839 3.9446 8.6212 5.4684v-6e-4c2.7822 1.5239 6.48 2.7885 8.2176 2.7885 3.7461 0.021 8.7856-3.8009 9.6805-7.3422 1.0567-4.183-2.9533-12.628-9.4785-19.961-7.147-8.033-12.474-18.492-19.822-38.921-7.8702-21.88-9.8152-37.407-6.3609-50.774 2.027-7.841 9.4081-22.84 14.862-30.196 8.882-11.982 26.343-26.731 39.345-33.233 7.7987-3.8999 8.95-5.1181 9.6351-10.19 0.4386-3.2473 0.0725-4.3504-2.3296-7.0197-2.126-2.3625-4.3984-3.6259-7.2078-3.8179zm140.35 3.0794c-0.58923-0.02-1.1436 0.016-1.6588 0.1122-4.9332 0.9192-8.4023 4.7974-8.3571 9.3415 0.0505 5.0963 1.951 7.8466 7.4874 10.832 9.862 5.318 21.722 23.1 28.055 42.062 9.5042 28.458 9.6006 35.266 0.82786 58.434-8.528 22.522-16.33 33.574-33.617 47.618-3.8472 3.1253-9.0063 8.135-11.465 11.132-4.0527 4.9413-4.4201 5.8226-3.9321 9.4366 0.3547 2.626 1.4271 4.7437 3.1445 6.2115h-5.2e-4c3.03 2.5877 9.6749 2.9468 15.606 0.8439 8.669-3.074 25.284-17.077 34.159-28.788 17.824-23.518 29.435-60.312 26.515-84.021-1.727-14.028-12.749-42.752-21.124-55.054-10.114-14.855-26.802-27.857-35.64-28.159z"/>
    <path class="transmit three" d="m822.67-1432.8c-5.485 0.072-9.6506 2.306-12.594 6.6807-5.2288 7.773-0.16304 17.857 9.909 19.727 8.24 1.527 22.73 11.832 37.624 26.753 7.4273 7.441 9.3052 10.096 15.162 21.441 7.6264 14.772 9.213 20.478 10.668 38.358 3.102 38.14-0.31677 54.602-19.12 92.051-4.3684 8.7-10.301 19.378-13.184 23.728-5.018 7.571-18.346 24.125-26.369 32.751-4.5692 4.9122-5.4624 8.3091-3.7346 14.199 0.9253 3.1539 2.2963 5.11 4.7454 6.7686 3.1333 2.1206 4.118 2.2733 10.911 1.6893 9.081-0.78 11.551-2.2952 24.392-14.954 12.146-11.976 19.373-23.026 33.34-50.982 18.361-36.749 22.392-51.308 22.272-80.43-0.203-49.032-6.0827-68.97-28.305-95.986-7.45-9.055-14.098-15.009-26.85-24.043-16.919-11.987-29.726-17.872-38.867-17.752zm-238.04 0.2465c-2.4721 0.032-5.3206 0.3732-8.5866 1.0102-9.155 1.786-18.455 5.9291-29.075 12.952-10.884 7.199-31.949 24.492-39.643 32.547-30.461 31.89-35.587 74.077-17.619 144.99 5.133 20.258 22.046 53.466 35.049 68.82 4.619 5.454 14.625 12.551 22.506 15.963 2.6251 1.1355 5.9856 2.92 7.4672 3.9641s3.5899 2.1276 4.685 2.4118c4.318 1.1139 12.387-2.413 14.503-6.3387 3.1882-5.917-1.0938-18.7-7.6988-22.984-12.031-7.802-23.104-22.348-35.339-46.416-6.6211-13.025-12.51-33.661-16.414-57.521-2.4701-15.095-2.5184-42.939-0.0899-51.906 3.523-13.007 8.9458-21.962 20.493-33.839 12.457-12.813 25.082-23.611 35.519-30.376 7.555-4.898 10.875-6.2959 17.61-7.4166 7.6185-1.269 12.248-9.4435 9.8506-17.391-1.77-5.8664-5.8009-8.5607-13.217-8.4661z"/>
   </g>
   <path transform="matrix(.98458 0 0 1.0157 -842.1 941.2)" d="m313.26-75.318c-0.92191 0-2.0628-0.09692-2.6775 0.20096-0.74889 0.13574-0.70693 0.88352-0.98385 1.5469-0.26256 0.62899-0.8292 1.1944-0.8292 2.0643l-0.0674 2.8292 0.0162 3.0064 0.12017 2.9828-0.11131 2.681 0.21816 3.1804-0.0279 2.8492 0.068 2.9743-0.11571 2.8712c-4e-3 0.89207 0.16339 1.6376 0.46876 2.2327 0.32132 0.59459 0.62572 0.67065 1.2319 0.96788 0.61108 0.29961 1.4001 0.59771 2.3257 0.59771l2.2166 0.0814 1.8921 0.07531 2.0535 0.07187c0.9171-0.0034 1.713-0.13416 2.3254-0.43355 0.64399-0.27928 1.5986-0.72461 1.8977-1.3269 0.29835-0.60092-0.15381-1.8023-0.15381-2.6949l0.0588-2.4308 0.0199-2.4566 0.30942-2.34-0.33059-2.6268-2.74-0.0032-2.7772-0.04027-0.0557 2.3997 5e-3 2.3633 0.0109 2.6692 0.0674 2.5188-1.7412-0.30184-1.2702 0.42242 0.0371-2.7609 0.094-2.7884 0.24548-2.9063-0.26591-3.0778 8e-3 -2.5611-0.25907-3.3322-0.0573-2.3427 0.094-2.8517 1.4764-0.10788 1.8122 0.21374-0.10162 2.371-0.0435 2.4857-0.14683 2.0855 0.0396 2.6579 2.6754-0.23162 2.8561 0.15778-0.0136-2.9564 8e-3 -2.2541 0.0358-2.2766 0.50664-2.4096c-0.16456-0.92725-0.22676-1.6569-0.60719-2.2676-0.19609-0.60019-1.0313-1.6651-1.7571-1.9758-0.66435-0.28434-1.4101 0.10132-2.2913 0.10132l-1.8973 0.09387-2.1375-0.05712zm15.78-0.13514c-0.92191 0-1.6801 0.21045-2.2947 0.50833-0.61031 0.30003-0.80562 0.80629-1.114 1.4016-0.30835 0.59524-0.74507 1.2635-0.74507 2.1572l-0.0894 2.7575 0.16337 3.1248 0.0338 2.8757 0.074 2.9422 0.1106 2.9452 0.23179 2.9071-0.36051 2.5155-0.11778 3.2118c-0.0116 0.88375 0.0498 1.4668 0.3519 2.0582 0.22781 0.45624 1.1578 1.1589 1.8243 1.4953 0.62313 0.31459 1.3811 0.57227 2.272 0.57227l1.9013-0.23701 1.8684 0.0069 2.1314 0.1143c0.85614-0.0061 1.5578-0.20209 2.1432-0.50268 0.55858-0.34151 1.0174-1.1585 1.3231-1.7381 0.30991-0.58769 0.50603-0.88358 0.50603-1.7835l0.10951-2.8452-0.0584-3.1051-0.0731-2.879 0.34374-2.6592-0.13152-3.1328-0.12842-2.8956-0.0442-2.833-0.0222-2.901c-5e-3 -0.89395-0.0562-1.6222-0.36595-2.2181-0.21089-0.59373-0.94641-1.3539-1.6115-1.6559-0.6335-0.28766-1.2955-0.31434-2.195-0.31434l-1.6548 0.17884-2.3833-0.40554zm11.942 0.09542-0.045 2.806 0.34783 2.9867-0.0873 2.6427 0.22335 3.0422-0.10115 2.6757-0.11501 2.3957-0.17918 3.1421 0.36886 3.0656 0.0919 2.9099-0.21244 2.8051-0.22189 2.816 2.1388 0.03293 2.0244-0.06492 0.40314-2.9134 0.35084-2.9791 0.34469-3.072 0.42271-2.9432-0.0253-2.9942-0.10534-3.0283-0.22712-3.0665-0.21974-3.0396-5e-3 -2.7687 0.30339 2.7115 0.16096 2.374 0.28146 2.9262 0.26566 2.7007 0.19645 2.5265 0.29628 2.8435 0.31925 2.7074 0.20794 2.5827 0.40467 2.8236 0.29571 2.686 2.3731 0.09722 1.978-0.09202 2.6243-0.03878 0.29094-2.6439 0.17323-2.7968 0.20434-2.6582 0.21833-2.6879 0.26612-2.6521 0.20025-2.7568 0.20003-2.7469 0.14531-2.8345 0.26889-2.4821 0.23935-2.7152-0.0695 2.8645-0.0456 3.0818 0.33827 3.0767-0.0816 2.8733 0.12069 3.1889-0.22017 2.6235 0.31839 3.3683-0.24465 2.8785-0.28293 2.9621 2.7677 0.0052 2.7154-0.0092 0.0592-2.7911 4e-3 -2.8863-0.0184-3.4268-2.2e-4 -2.2648-0.10461-2.9893 0.0658-2.6527 0.1786-2.7958-0.0843-2.981-0.0644-2.9121-0.0481-2.9194-0.0602-2.7537-2.7379 0.07929-3.1162 0.02005-2.8705 0.07614 0.14482 2.8277-0.35619 2.5586-0.2913 2.8141-0.18528 2.7639-0.13353 2.7709 0.12321 2.7207-0.13758 2.8735-0.38256 2.7183-0.32644 2.7436-0.94415 2.4148 0.037-2.6954-0.38101-3.0503-0.30586-2.5695-0.15385-2.6004 0.0465-2.7093-0.33893-2.8253-0.2603-2.6374-0.43369-3.1873-0.24035-2.2885-0.19975-2.6512-2.9014 0.04002-3.13-0.15647zm24.015-0.10948 0.0427 2.9097 0.12593 2.9333 0.20888 2.7659-0.1378 2.6348 0.01 3.0751 0.0981 2.9169 0.0466 2.7625 0.16607 2.966-0.18854 2.6457-0.17718 2.7472-0.15257 2.728 2.6112 0.11281 2.7774 0.20673 0.0282-2.9588-0.0579-3.4203 0.0492-2.5586-0.0579-3.0516-0.17971-3.2698-0.0483-2.88-6e-3 -2.8157-0.0342-3.0186-0.0681-3.0536 0.29397 2.7034 0.30538 2.6988 0.30137 2.6923 0.31823 2.7064 0.47976 2.8098 0.20658 2.3898 0.22878 2.8542 0.26489 2.7404 0.13104 2.5696 0.2962 2.8062 2.2437 0.02556 2.1272-0.14851 2.3036 0.14507 0.26543-2.6907 0.20234-2.7774 0.26064-2.6179 0.31113-2.6514 0.26621-2.7265 0.36382-2.6791 0.59924-2.664 0.39976-2.6715 0.22863-2.6138-0.22875-2.8053-0.0372 2.8118 0.33569 3.2819-0.12495 2.4962 0.10849 3.4789 0.29118 2.8912-0.14189 3.0365-0.10426 2.9542-0.26586 2.9677-0.28102 2.6837 3.3354 0.15494 2.0773-0.0064 0.18944-2.7236-0.0445-2.9838-0.0143-2.7961 0.0612-2.7826 0.0192-2.8626 0.41489-2.8356-0.18631-3.0052-0.0933-2.6856-0.0985-2.9371-0.11992-2.8299-0.0648-2.7701-2.91 0.02983-3.0224 0.0022-2.7707 0.04909 0.1226 2.8355-0.3031 2.6015-0.33916 2.7234 0.0731 2.8817-0.0815 2.769-0.20219 2.7925-4e-3 2.7032-0.64203 2.6702-0.4059 2.8271-0.69035 2.576 0.071-2.7073-0.23143-2.7946 0.0429-2.6255-0.44175-3.0546-0.33094-2.6016-8e-3 -2.5627-0.32391-2.8451-0.41392-3.0621-0.41676-2.5584-0.3577-2.7379-2.9415 0.05587-2.7004 0.10949zm24.156 0.07166-0.0956 2.4626-0.0826 2.8411 0.15268 3.2406-7e-3 2.8174 0.25681 3.0068-0.0605 2.3387 0.0773 3.2772 0.28222 2.8542 0.0743 2.9136-0.3264 2.6785 9e-3 2.9443 2.4559-0.31886 2.798 0.23206-0.0269-2.8707 0.069-2.7559-5e-3 -2.9033-0.0272-2.8823 0.0631-2.7617 0.0559-2.8753 0.24707-2.7745 0.0284-2.9135-0.18303-2.9352-0.2341-2.945-0.11695-2.8366-2.6494 0.10011zm6.5154-0.16048 0.0399 2.247-0.0322 2.2704 2.3548 0.16663 1.7981-0.15313 0.055 2.9986-0.10368 2.7672 0.31697 3.2867-0.15984 2.5598 0.18626 3.4401-0.0505 2.8967-0.17936 2.5946-0.0159 3.3415 0.0113 2.8554 2.7679 0.08946 2.6727 0.01971-0.0902-3.0929 0.10327-2.81 0.0244-2.9988-3e-3 -2.9926 0.27217-2.8519-0.21688-3.3519 0.0606-2.6873-0.11018-3.4506 0.0759-2.4583 2.2551 0.0012 1.8123-0.07373-0.0204-2.2601-0.0603-2.6006-2.7406 0.07836-2.696 0.11248-2.7683 0.07722-2.6098 0.1072zm15.354 0.20758-0.26062 2.844 0.50314 2.8089-0.0807 2.8242-0.0526 2.8702-0.12629 2.5306 0.0212 3.2036 9e-3 2.8305-0.11533 2.7571-5e-3 2.9146 0.21471 2.9072-0.39243 2.7748 2.9296-0.01033 2.4543-0.08885 0.36309-2.7477-0.0448-2.9445 0.18186-2.6936-0.13832-3.2691-0.0462-2.5428-0.1325-3.0159-7e-3 -2.6328 0.30321-2.7275-0.14579-2.9743-0.28853-3.1024-0.0376-2.6389-2.6822 0.0705zm6.7274-0.14227-6e-3 2.7791 0.05 3.0155-0.0163 2.2998 6e-3 3.3759 0.25089 2.8718-0.0222 2.8255 0.0227 2.89 0.0743 2.8569-0.047 2.8217 0.0143 2.8984-0.2507 2.7407 2.9333 0.01702 2.4791-0.22239-0.0143-2.9286-0.17769-3.2229 0.30711-2.6675-0.12413-3.0945-0.12185-2.975-0.13475-3.0765 0.40821-2.8178-0.28844-2.982-0.44575-3.0055 0.29567 2.549 0.30452 2.5734 0.4776 3.0087 0.39402 2.6648 0.38667 2.674 0.38711 2.6887 0.4123 2.6388 0.3165 2.5307 0.48495 2.9626 0.53536 2.7042 2.5618-0.045 2.5238-0.14398 2.8427 0.19318 0.0623-2.7821-0.0631-2.9546-0.0942-2.892-0.0849-2.9256 0.51506-2.6546-4e-3 -2.8577-0.0139-2.807 0.0913-2.8292-0.21146-3.0008-0.17879-3.1597 0.0353-2.3328-2.807-0.01819-2.9495-0.18355 0.0683 2.8162 0.0985 3.0266-0.0146 2.686 0.0932 3.1226 0.23711 2.9903 0.3562 2.9122 0.46551 2.8621-0.2506 2.9862-0.1567 2.9367-0.48064-2.9765-0.18179-2.7676-0.56302-3.1324-0.39179-2.764-0.46749-3.4916-0.25033-2.2765-0.22759-3.0126-0.45589-2.8184-0.94034-3.0708-2.6586 0.02365-2.6637 0.01111zm22.423 0.02983c-0.9219 0-1.3069 0.2511-1.9215 0.54899-0.3086 0.34316-0.98638 0.9005-1.3778 1.5183-0.36541 0.57674-0.81236 1.1189-0.81236 1.9819l7e-3 2.914 0.43914 2.9759 0.16602 2.8884-0.16475 2.8055-0.19167 2.8698-0.0645 3.0224 0.0544 2.9657-0.25819 2.7049c0.0106 0.93671 0.5172 1.7261 0.8292 2.341 0.63206 0.57996 0.63062 0.9948 1.0935 1.2921 0.54643 0.35103 1.2405 0.39545 2.2388 0.39545l2.3504 0.18198c0.97758-0.02999 1.6793-0.45742 2.3156-0.82793 0.6363-0.37051 1.3124-0.61551 1.589-1.3528l0.94111 2.0884 3.1937 0.10914-0.16995-2.7901-9e-3 -2.3568-0.0394-2.6212 0.17073-2.3553-0.16447-3.0463 0.0462-2.0517-2.6406 0.0041-2.9026-0.0866 0.16941 2.7299 0.28236 2.5914-0.27263 2.445 0.19813 2.7632-1.5621 0.01634-2.1344-0.05083 0.0145-2.7117-0.0145-2.755 0.0145-2.7043-0.0835-2.8298 0.11715-2.5649-0.012-2.7877-8e-3 -2.7238 0.18616-2.5973 1.4768-0.25696 1.6973 0.14884 0.34688 2.885-0.0216 2.8891-0.4195 2.6657 2.7191-0.055 2.8261 0.20589-8e-3 -2.3599-0.0293-2.3428 0.29922-2.2147-0.25707-2.4167c7e-5 -0.8936-0.12563-1.6125-0.43289-2.2083-0.28205-0.5752-0.85824-1.358-1.4879-1.6623-0.61879-0.29907-1.3124-0.14993-2.2262-0.14993l-2.0374-0.02942-1.7484 0.07348zm-109.34 4.4745 1.1601-0.22169 1.7723 0.20142 2e-3 2.8181 0.1282 2.9116-0.0238 2.7141-0.0277 2.2387 0.0343 3.4084-0.0692 2.6065 0.0391 3.0563 0.0251 2.8473-1.7524-0.05-1.6799 6e-3 -0.0242-2.8376-0.0484-2.9047 0.22512-2.7166-0.0935-2.9624 3e-3 -2.6549 0.0612-2.7848-0.087-2.8798zm-22.084 29.722 0.55985 3.1501-7e-3 2.8668-0.046 2.875 0.19106 3.0108-0.0552 2.8259-0.0572 2.9086-0.0309 2.9304 0.35012 3.0061 0.32536 2.9243-0.20193 2.8101-0.23918 2.6814-0.20198 3.0216-0.15367 3.0238-0.13913 2.9192-0.3275 2.7186 2.5253-0.35396 2.7222 0.30385 2.6671 0.29523-0.0145-2.6971-0.0495-2.7463 0.1663-2.5505 0.0216-2.7777-0.12061-3.2241-0.0915-2.2629-0.0996-2.7733 2.2445-0.15137 2.385 0.05727 0.0991 2.9642-0.0214 2.7261 0.1796 3.112-0.2011 2.7491c0.0149 0.88917 0.0193 1.6523 0.057 2.4331 0.0253 0.74944 0.17915 1.6306 0.28085 2.4571 0.10012 0.81372 0.2826 1.707 0.47436 2.6761l2.6348 0.059948 2.5198 0.00176 2.3333-0.24829c-0.17489-0.94735-0.38273-1.9176-0.46997-2.7127-0.16875-0.90223-0.14303-1.8609-0.152-2.5754-0.01-0.75846 0.11991-1.1213 0.11991-2.0202l0.24631-2.582-0.0354-2.7151-0.32565-2.7996c9e-3 -1.2366-0.24026-2.3608-0.63696-3.1875-0.4314-0.90533-0.75512-1.2834-1.4714-1.6752-0.73975-0.40461-1.8586-0.74886-2.906-0.74886 1.0308 0 2.3064-0.10178 3.0534-0.51277 1.1143-0.30602 1.2496-1.0362 1.5605-1.881 0.31456-0.85483 0.40587-2.1034 0.40587-3.3577l0.28375-2.6532-0.0708-2.9222 0.0763-2.6962-0.21469-2.8584c-0.013-0.94673 0.13261-1.6514-0.11628-2.3593 3e-3 -0.65592-0.31744-1.3968-0.92523-1.909-0.14719-0.43727-1.2981-0.78933-2.2022-1.026-0.80114-0.20971-1.8545-0.7308-2.7174-0.7308l-2.8475 0.04217-2.8093 0.06898-2.9476-0.14351-2.6102 0.23564zm22.355-0.0034 0.10494 3.0499-0.12879 2.56-0.0554 3.1936 0.24358 3.122 0.0294 2.8225-0.0276 2.8592-0.034 2.8845 0.12161 3.0437-0.0408 2.449-0.13701 3.0715-0.0158 2.963 0.46181 3.1286-0.0145 2.9438-0.13568 2.8706-0.2867 2.6976 2.7637 0.15129 2.497 0.025692 2.3891-0.22698 2.5144-0.42425 2.5779 0.25216 2.7016 0.4798 0.16452-1.9961-0.27049-2.389 0.031-1.9104-2.5588-0.62197-2.6479-0.13238-2.5474 0.59769-0.012-2.5477 0.0744-2.4247-0.0382-2.5669 0.0577-2.4218 0.14982-2.4955 2.3212-0.42646 2.539 0.20941 2.3352-0.11359 0.0168-2.8581-0.0586-2.9683-2.4505 0.02088-2.4846-0.01506-2.2361 0.15256-0.13376-2.8853 5e-3 -2.1527 0.44309-2.4743-0.30111-2.7245 0.11667-2.2845 2.6738 0.05044 2.2925-0.09191 2.7641 0.06814 0.13515-2.0777-0.20513-2.1868 0.15172-2.0624-2.5639 0.03849-2.6958-0.0262-2.6655-0.20802-2.7083-0.3244-2.5428 0.19623zm22.916-0.2083c-0.96637 0-1.8206 0.24226-2.5454 0.47608-0.8958-0.01204-1.3949 0.38093-1.8632 0.91193-0.51299 0.27553-0.82058 1.2435-1.0205 2.0939-0.17891 0.76112 0.058 1.7265 0.058 2.595l-0.0478 2.8961-0.0691 2.9094-0.0196 2.5678 0.45247 3.4012-0.0659 2.9439-0.11722 2.8995-0.23756 2.687-0.0329 3.2274-0.10444 2.6888-0.056 3.1338 0.0459 3.0044c-9e-3 0.92914 0.46773 1.804 0.70411 2.5019 0.5736 0.68217 0.67079 1.2628 1.0298 1.6927 0.59297 0.60621 0.78347 0.65328 1.3902 0.87488 0.65969 0.24093 1.5293 0.09387 2.5915 0.09387l1.515-0.13092 1.6926 0.5581c0.94304-0.00132 1.9389-0.01843 2.654-0.24297 0.87342-0.12733 1.2923-0.55454 1.7346-1.0226 0.45281-0.4792 1.0213-0.96322 1.282-1.6571l0.59513 1.4455 0.62612 1.4756 2.1662 0.043149 2.2042 0.037808-0.0677-2.7023 0.0127-2.5913 0.0772-2.6084-0.15593-2.8663-3e-3 -2.4863-0.12036-2.8156 0.14868-2.4439-0.19825-3.0943-2.292 0.25596-2.3407 0.20638-2.9969-0.26947 0.14166 3.0243 0.23847 2.9288-0.0185 2.9292-0.0634 2.9425 0.11515 2.997-2.5678-0.12693-2.4302 0.060816-0.0353-3.1749-0.0825-2.4623 3e-3 -2.7248 8e-3 -2.7587-0.12623-2.9394 0.0116-2.5757 0.0882-2.7366-0.061-2.9118 0.18839-2.6143-0.0283-3.1816-0.0501-2.4693 2.4114 0.04569 2.2348-0.40787-0.0322 2.4264-0.0361 2.3079 0.12112 2.7906 5e-3 2.2343-0.0552 2.5889 2.5242-0.08683 2.7394 0.18075 2.5948 0.04725 0.11262-2.5142 0.42767-2.6543-0.11464-2.6261-0.2512-2.6469-0.38836-2.9735c0.0313-0.83982 0.0474-1.5556-0.17659-2.2033-0.11929-0.64211-0.5871-1.2245-1.1091-1.682-0.46383-0.41329-0.92672-0.67567-1.6643-0.90391-0.73667-0.22796-1.5659-0.39103-2.5128-0.39103l-2.5506 0.11296-2.9516 0.01669zm16.931 0.42515-0.18666 2.833 0.0128 2.95-0.15195 2.6126 0.21943 3.2789 0.21401 2.9256-0.0263 2.8147-0.0657 2.6676-0.0251 3.1365-0.10316 2.7636-0.0466 2.9686-0.0213 2.9865-0.011 2.9132 0.0153 2.9335 0.0726 2.9576-0.0336 2.8597 2.5256-0.020781 2.6092 0.017531 2.8532 0.14107 0.11577-2.8949 0.22589-2.7981-0.0826-3.102-0.0789-2.927 8e-3 -2.8481-0.11485-3.2443 0.0252-2.5857-0.20862-3.2318 0.32562-2.5813-0.16288-3.1369-0.17905-2.9821 0.0191-2.6594 0.32669-2.904-0.33863-3.2712-0.35782-2.9374-2.5828 0.02342-2.394 0.19351zm15.523-0.175c-0.96638 0-1.5233 0.33667-2.2481 0.57049-0.54738 0.33194-1.4563 0.3206-1.9778 0.79627-0.58088 0.1941-0.8889 1.1303-1.135 1.9133-0.23009 0.73205-0.3133 1.6039-0.3133 2.4935l-0.0178 2.9212 0.37475 3.007-0.0428 2.91-0.0606 2.9259 0.086 3.0259 0.0332 2.9612-0.10154 2.8322 0.15706 3.0555 0.25492 2.9434-0.31148 2.9279-0.26627 2.9833c-0.0352 0.9089 0.0104 1.6196 0.23216 2.3061 0.18072 0.62274 0.6016 1.3119 1.1093 1.7945 0.47757 0.45395 1.1973 0.82606 1.9095 1.0627 0.72571 0.24114 1.4178 0.30234 2.3762 0.30234l2.7112-0.30491 3.2374 0.2094 2.575 0.18168c0.95296-0.011549 1.6911-0.37873 2.4083-0.619 0.59759-0.47445 1.2723-0.61565 1.7581-1.0304 0.48221-0.49346 0.9153-0.93586 1.1821-1.5734 0.27783-0.66378 0.43539-1.4334 0.43539-2.4024l-0.1023-3.3455 0.0539-2.3605-0.0453-2.9672 0.0325-2.7713-0.026-2.9275-2.552 0.0076-2.3461 0.11501-2.2607 0.04444-0.22237 2.319-0.0945 3.0244-0.18516 2.5972 0.0134 2.8369 0.0813 2.933-2.3162-0.00484-2.5175-0.13892 0.0339-2.8243 0.19448-2.7437-0.0801-3.3221-0.12427-2.8742 0.0371-2.4445 0.27658-2.721-0.0761-3.2816-0.0714-2.6821-0.12833-2.9296 0.0269-2.6298 0.0314-2.8585 2.352 0.0173 2.2486-0.30901-0.0684 2.6886 0.16077 2.9567 0.0164 2.809 0.042 2.8549 0.36125 2.8035 2.843 0.04848 1.9339-0.13336 2.4679 0.06222 4e-3 -2.8527 0.40866-2.8213-0.15767-2.9954-0.0213-2.7654 0.0201-2.7379c-0.0709-0.96762-0.38552-2.1861-0.66696-2.9057-0.3823-0.9935-0.24762-1.0865-0.63394-1.4803-0.22536-0.51129-1.2333-0.8419-2.1567-1.053-0.76076-0.17387-1.7236-0.45211-2.6585-0.45211l-2.7721 0.0704-2.8587 0.0055zm16.663 0.07362-0.0423 2.8188-0.0659 2.9442 0.0621 3.061-0.0477 2.7952 0.0749 3.0121-0.0215 2.8498 6e-3 2.9381-0.029 2.7627 8e-3 2.966 0.0134 2.8102 0.13612 3.1596 0.055 2.9121 0.0877 2.9257-0.19085 2.7166-0.12418 2.7912 2.5051-0.062828 2.6901 0.098556 2.7683 0.30508-0.12138-3.097-0.0289-2.8707 0.2627-2.7741-0.0234-2.9253-0.13791-3.1361-0.0992-2.9873 0.12821-2.5902 0.0271-2.9403-0.14615-3.3688 4e-3 -2.4699-0.0411-2.9618 0.0843-2.8615 0.0225-2.9028-0.0551-2.9506 0.30572-2.7736-2.5505 0.01555-2.887-0.23779zm10.073 0.08522 0.0987 2.9264-0.14109 2.6422-0.0578 3.0332 0.14871 3.1008-9e-3 2.8146 0.038 2.949-0.0129 2.8009-0.10146 2.6228 0.27908 3.351-0.10722 2.7566-7e-3 3.0008-0.17179 2.6098 0.0186 3.1903-9e-3 2.9039-0.11878 2.5783 3.0328 0.10098 2.6918 0.036519 2.9907 0.1484 2.8103 0.064702 3.3129 0.061777c0.84448-0.019741 1.5409-0.21658 2.1971-0.46146 0.59719-0.30954 1.4064-0.57767 1.8672-1.0391 0.64407-0.44033 0.6693-1.3771 0.86574-2.0627 0.20154-0.70344 0.55712-1.0934 0.55712-2.0416l-0.0248-2.9642 0.26861-2.9411-0.10265-3.1884 0.013-2.7028 0.41394-2.9779-0.22285-3.144-0.12332-2.8396-0.12925-2.9277 0.19779-2.8973-0.29436-3.0785-0.1782-2.8506c1e-3 -0.93378-0.15892-1.8039-0.39974-2.5045-0.2754-0.73625-0.66719-1.3544-1.1266-1.8082-0.55399-0.56599-1.0539-0.86947-1.7383-1.0755-0.71156-0.21419-1.5215-0.20846-2.5188-0.20846l-2.8809-0.26833-2.8863-0.07325-2.6693 0.11465-3.0208 0.03268zm22.235-0.26487 0.2766 3.2278-0.0153 2.8082 0.1169 2.9801-0.0364 2.8406-0.0692 2.8705 0.0423 3.0146-0.0234 2.855 0.17638 2.982-0.10327 2.6583 0.16748 3.2066-0.0865 2.7807 0.0289 3.0148-0.18459 2.7054 0.1477 3.1563-0.38204 2.6361 2.5574-0.53718 2.5954 0.14491 2.571 0.15891 2.5312 0.12942 2.5182 0.074061 2.4732-0.041429 4e-3 -2.0656 0.0339-1.9976 0.32607-1.844-2.641-0.06218-2.7129-0.24932-2.2248 0.21882-0.1387-3.0436-0.0274-2.0009-0.0845-2.796 0.0192-2.2241 0.24078-2.4407 2.4611 0.0218 2.2745-0.29989 2.4489 0.21698-0.0293-3.0172 0.0633-2.9554-2.564-0.21664-2.5101-0.0921-2.5217-0.08166 0.3908-2.3376 0.14833-2.5281-0.14716-2.5113-0.21033-2.6447-0.11636-2.3818 2.5756-0.28073 2.7003 0.23996 2.6044 0.25295-0.14143-2.4483 0.0769-1.6993-0.13714-2.4265-2.6447-0.1-2.3792 0.12938-2.0974 0.11582-3.1059 0.02854-2.665-0.14977zm-118.99 5.8387 2.4288 0.1786 2.1898-0.25228 0.17851 3.0702-0.0323 2.791 0.27569 3.0709-0.25388 2.6106-0.19672 3.0162-1.8726 0.21145-2.68 0.04742 0.14035-2.8883 0.0644-2.8973 0.0822-2.9026-0.26512-3.4493zm104.26 0.23604 2.4078 0.16245 2.3995 0.09289 0.0671 2.9094 8e-3 2.8125-0.1385 2.6365-0.032 3.0166 0.11076 2.964-0.10677 2.4208 0.031 3.2548 0.0594 2.8692-0.0691 2.7462 0.0293 2.3976-0.0176 3.3247-2.293 0.05928-2.4338-0.22338 2e-3 -3.0413 7.8e-4 -2.6347 0.0525-2.7982-0.0364-2.9362-0.0165-2.9656 0.3034-2.5027-0.0403-2.9586 0.0757-2.7664 0.0225-2.8355-0.0975-2.8728z" stroke-width=".46036"/>
   <path transform="matrix(1.0214 0 0 1.0537 -852.46 944.05)" d="m308.51-102.31-0.11689 2.5292 0.37771 2.9142-0.1231 2.4724-0.102 2.7128-0.0135 2.7573 0.0918 2.7351-0.152 2.4349 0.2045 2.931-0.16421 2.6012 2.7105 0.05415 2.5271-0.02217 2.6154-0.03104-0.14035-2.0865 0.014-1.5712-1.6516 0.1178-1.976 0.11032 0.013-2.9375 0.027-2.9374 0.52293-2.9397-0.21005-3.4203-0.0661-2.4928-0.13116-2.9485 0.15067-2.828-2.2105-0.10982zm11.698-0.43127c-1.0312 0-1.8193 0.62624-2.3349 1.1418-0.51558 0.51557-0.79968 1.2863-0.79968 2.3175l-0.0162 2.7749-0.0184 3.1726 0.0141 3.023-0.0353 2.6988 0.40651 3.4109-0.20522 2.9532c-0.04 0.99739 0.34718 1.8629 0.85276 2.3701s1.4567 0.69082 2.4879 0.69082l1.9683-0.21626 2.3232 0.23849c0.97355-0.02864 1.6154-0.74412 2.1165-1.2669 0.50116-0.52273 0.89701-0.8195 0.89701-1.8507l0.23364-2.9772-0.14049-3.0997 0.13148-2.7646-0.14987-3.1711-0.0771-2.9354-0.17094-3.3388c0.069-0.84166-0.24389-1.6821-0.74222-2.1502s-1.2941-0.87667-2.3253-0.87667l-2.239-0.0794zm15.913 0.32027 0.0311 2.5986 0.0136 2.8962 0.49292 2.7631 0.12033 2.6233-0.17725 2.0959-0.13973 3.1931 0.0101 2.7757-0.17079 2.569 0.11392 2.759 1.922-0.03574 2.1844 0.02207-0.0788-2.5214-0.15458-2.6424 0.13016-2.2892-0.12371-2.5384 1.9273 0.05517 1.8935 0.01799 0.24705-1.6661-0.50652-2.1828-1.7678 0.17947-1.922-0.0352 0.37196-2.3027 0.18872-2.2823-0.4762-2.6706 1.9068 0.05151 2.175 0.15908-0.12146-1.7708-0.0897-2.1113-2.633 0.15773-2.5617 0.19614zm9.0008 0.18172-0.12033 2.5189 0.35145 2.9207-0.0824 2.4581-0.095 2.6788-0.0265 2.7427-6e-3 2.6781 0.0795 2.6894-0.20382 2.3736 0.0364 2.7901 2.4046 0.20652 1.6763-0.43908-4e-3 -2.6886 1e-3 -2.5714 0.35052-2.4861-0.10813-2.8402 0.21274-2.4263-0.14835-2.8148-0.14539-3.0677-0.18249-2.3225 0.43265-2.4016-1.998 0.0723zm11.582-0.0582 0.12555 2.7313 0.0498 2.6847-0.01 2.6316 0.28943 2.7377 0.21405 2.6908 0.17711 2.6142 0.19221 2.7603-0.39621 2.7445-0.55513 2.537 2.4821-0.04592 2.4965-0.10267 2.6885 0.19872c0.9585-0.05377 1.7369-0.3062 2.2343-0.83521 0.4974-0.52901 0.62041-1.6044 0.62041-2.6356l0.0191-2.0014 0.0322-1.9516-0.0303-2.1249c0.0362-0.9511-0.20351-1.6844-0.65848-2.18-0.45496-0.49554-1.0849-0.72341-1.9099-0.72341 0.82497 0 1.4298-0.32755 1.8837-0.85059 0.45394-0.52304 0.86364-1.1617 0.86364-2.1929l0.0584-2.7002 0.0326-2.7526c-0.0988-1.0948-0.40885-1.9028-0.94913-2.4342-0.54029-0.53146-0.8617-0.73022-1.8929-0.73022l-2.6135 0.033-2.7958-0.0998zm11.863-3e-3 5e-3 2.6856 0.0438 2.7172-0.0221 2.6094-0.0195 2.6239-0.0742 2.5361 0.036 2.892-5e-3 2.6485-0.029 2.5654 0.0397 2.7644 3.0722 0.06215 2.3634-0.08495 2.9273 0.18524-0.20783-2.0288 0.41598-1.3973-2.2091-0.06356-2.2388-0.07548 0.025-2.3093-0.0148-2.3237 0.0488-2.2573 1.9568-0.01708 1.9258-0.60966 0.01-1.3592-0.0969-1.5088-1.8715 0.11918-1.8039 0.11851-0.0974-2.3869-0.0727-2.4163-0.041-2.4234 2.0034-0.0047 2.3558 0.23909-0.0745-1.7319-0.0312-1.6751-2.3857 0.0707-3.2351-0.19126zm11.191-0.0599-0.19532 2.77-0.16422 2.7166 0.1016 2.6671-0.12277 2.8204-0.32734 2.6724-0.23676 2.7155-0.6747 2.4542-0.29343 2.7312-0.92926 2.3238 1.9692 0.01453 2.2074 0.25389 0.4502-2.5531-0.16903-2.6495 2.4679 0.08015 0.0568 2.1317 0.27919 2.9858 2.1779 0.0701 2.0942-0.0039-0.4031-2.782-0.26081-2.5361-0.3346-2.7286-0.1956-2.5905-0.13503-2.7705-0.50088-2.9158-0.30707-2.428-0.26686-2.6032-0.41984-2.7547-2.6705 0.12704zm7.1108-8e-3 0.0475 1.6425 6e-3 1.612 1.5305 0.11281 1.6968 0.20673 0.0447 2.9747-0.0433 2.5145 0.0566 3.3744-0.0477 2.8844-0.171 2.6629-9e-3 3.0511 0.0515 3.1177 2.0261-0.01994 1.9921-0.06274 0.0202-2.9297 0.0316-2.9333 0.026-2.9388 0.0399-2.9252 0.19504-2.8209-0.13684-3.237-0.12434-2.7778 1.5853 0.03088 1.4377-0.12453 0.0379-1.669 0.0753-1.6369-2.6339-0.14381-2.4886 0.0575-2.6073 0.0323zm14.617 0.20572c-1.0312 0-2.1331 0.13216-2.6487 0.64773-0.51558 0.51556-0.73098 1.3289-0.73098 2.3601l-0.016 2.4481 0.0859 2.4645 0.24823 2.4726c-0.1782 0.94746 0.24852 1.705 0.68517 2.1824 0.43665 0.47749 1.1258 0.81043 2.0883 0.81043l1.6252-0.04713 1.5564-0.26314 0.36317 2.7109-0.22587 2.1052 0.0556 3.0733-2.0266-0.10135-0.13823-2.6466-0.14038-2.7156-2.096-0.0051-2.1112-0.28892 0.5928 2.836-0.66537 2.6747c0.0403 1.0955 0.50033 2.0093 1.026 2.541s1.0836 0.63812 2.1149 0.63812l2.1236 0.01396 2.2054 0.07072c0.99749-0.02083 1.7893-0.27756 2.2964-0.79834 0.50715-0.52077 1.1664-1.2975 1.1664-2.3287l-0.2219-2.7177-0.11139-2.4299-0.11362-2.6794c5e-3 -0.90276-0.27107-1.7154-0.75099-2.1817s-1.1811-0.64792-2.1436-0.64792l-1.6603 0.0401-1.7727 0.0077 0.18018-2.405 0.28677-2.3488-0.47306-2.5928 2.2084-0.0066 0.38227 2.6234-0.0821 2.543 2.1035 0.06392 2.1585-0.07914-0.26348-2.599-0.0125-2.3647c-0.0754-1.0852-0.36259-1.8774-0.89702-2.4065-0.53443-0.52906-1.0046-0.76233-2.0358-0.76233l-2.2206-0.0111zm11.568-0.0936-0.23527 2.4833-0.0269 2.7929 0.30863 2.8393 0.0401 2.5945-0.0587 2.3428-0.0981 2.8349-0.0287 2.6495-0.0126 2.8292 0.22944 2.7298 1.8685-0.10458 1.8703-0.34048-0.0691-2.7819 0.17956-2.0019-0.0168-2.4199 0.2556-2.2331 1.7052-0.43284 1.8681 0.36035 0.28449-1.6724-0.1515-1.7046-2.0125-0.10771-1.6674 0.06509-0.24065-2.7093 0.0286-2.1577-0.0891-2.4719 2.0243 0.07504 1.8874-0.04567-0.0193-1.7554 0.0853-1.6377-2.6058 8.4e-4 -2.4758 0.0629zm11.855-0.0329c-1.0312 0-1.8309 0.20386-2.3466 0.71943-0.51571 0.51556-0.84394 1.1791-0.84394 2.2103l-0.0664 2.8396 0.0869 3.1919 0.0185 2.9885-0.0172 2.8597-0.0293 3.0437 0.35442 3.2301c-0.12256 0.97616 8e-3 1.6224 0.49273 2.1242 0.48507 0.50181 1.3726 0.86771 2.4038 0.86771l2.1225-0.21856 2.6322 0.2921c0.88144-0.04104 1.453-0.66952 1.9311-1.1953 0.47814-0.52583 1.0583-0.84704 1.0583-1.8782l-0.0274-2.9911-0.15381-3.3904-0.02-2.6418-4e-3 -3.1309 0.027-2.8217-0.0679-3.0612c0.0255-1.0008-0.31537-1.8796-0.82458-2.3876-0.50921-0.50798-1.1005-0.60297-2.1317-0.60297l-2.2756-6e-3zm8.9148 0.0371 0.22738 2.7568-0.1834 2.3012 0.0595 2.9515-0.0843 2.1966 0.0513 3.1857 0.18587 2.6475-0.11483 2.6342-0.12013 2.6515-0.15952 2.2956 2.0903 0.20109 2.135 0.23788-3e-3 -2.5988 0.12232-2.5698-0.1571-2.8035 0.0802-2.3925 2.9398-0.03486-0.18617 2.0731-0.15261 2.1211-0.23443 1.7818c0.0311 0.87348 0.13505 1.6285 0.1901 2.3065 0.055 0.67805 0.13781 1.3248 0.29251 2.1326l1.9792-0.06523 2.1104 0.05216c-0.19239-0.82407 0.0337-1.398-0.023-2.0422-0.0567-0.64422-0.34041-1.3268-0.34041-2.0486l0.18664-2.2274-0.2886-2.3059c0.0231-0.99759 0.13575-1.6646-0.32248-2.1718s-1.4995-0.86867-2.3245-0.86867c0.82497 0 1.7102-0.12483 2.1773-0.63696 0.46704-0.51213 0.43667-1.7082 0.43667-2.7394l0.0212-1.992-0.0587-2.1659 0.13587-1.7845c-0.01-1.0397 0.0638-1.6903-0.45421-2.208-0.51797-0.5177-1.6236-0.89889-2.6548-0.89889l-2.6781-0.26973-2.4348 0.052zm-51.057 3.159 0.40153 2.5192 0.0229 2.3538 0.18223 2.7474 0.0917 2.0303 0.13112 3.1069-1.7136 0.02829 0.16277-2.5694 0.20753-2.5294 0.25486-2.5624 0.11048-2.6021zm-21.959-0.02808 2.5091-5.72e-4 0.19062 2.4459-0.16816 2.2103 0.0321 2.6787-2.6648-0.2458 0.39813-2.2549-0.15028-2.4807zm77.061-0.0064 2.5007-0.09623 0.52725 2.7682-0.15714 2.7687-0.3307 2.6222-2.6288-0.16199-0.0847-2.9135 0.11167-2.3311zm-116.13 0.23199 1.9804-0.04802-0.0203 2.8552 4e-3 2.8338-0.0955 2.7295 0.0502 3.1557 0.14265 2.9058-0.0947 2.8341-2.5782-0.11843 0.16592-2.8382 0.0627-2.8213-0.074-2.9707-0.0957-2.9068-0.0578-2.941zm104.47 0.0449 2.2877-0.0476 0.0699 2.9416 0.18088 2.9032-0.10197 2.7443-0.0844 2.5557 0.1276 3.3854-0.23251 2.8122-2.6146-0.13058 3.5e-4 -2.9703 0.0286-2.7603-0.0826-3.1001 0.0323-2.6672 0.18777-2.7957zm-96.895 8.7554 0.19112 1.6021-0.45862 1.6526 2.1881 0.08818 1.7778-0.12337 2.2875 0.07477-0.20166-1.7603 5e-3 -1.5184-2.037-0.54983-1.9229 0.36987zm31.473 0.69644 2.7614 0.18061-0.11923 2.5438-0.0563 2.6794-0.06 2.5997-2.5834-0.08616 0.3527-2.5909 0.0688-2.5352z" stroke-width=".46036"/>
  </g>
  <text x="-443.10236" y="950.44659" fill="#ffffff" font-family="Didot" font-size="5.6916px" font-weight="bold" stroke="#101010" stroke-linejoin="round" stroke-width=".2881" xml:space="preserve"><tspan x="-443.10236" y="950.44659" font-family="'Courier Prime'" font-weight="normal" stroke="none" stroke-width=".2881">hyperblam.how</tspan></text>
 </g>
</svg>
