<?xml version="1.0" encoding="UTF-8" standalone="no"?>
<!-- Created with Inkscape (http://www.inkscape.org/) -->

<svg
   width="525.89mm"
   height="554.78mm"
   version="1.1"
   viewBox="0 0 525.89 554.78"
   xml:space="preserve"
   id="svg8"
   sodipodi:docname="regicide-with-tee.svg"
   inkscape:version="1.4.3 (0d15f75, 2025-12-25)"
   xmlns:inkscape="http://www.inkscape.org/namespaces/inkscape"
   xmlns:sodipodi="http://sodipodi.sourceforge.net/DTD/sodipodi-0.dtd"
   xmlns="http://www.w3.org/2000/svg"
   xmlns:svg="http://www.w3.org/2000/svg"><defs
     id="defs8" /><sodipodi:namedview
     id="namedview8"
     pagecolor="#ffffff"
     bordercolor="#000000"
     borderopacity="0.25"
     inkscape:showpageshadow="2"
     inkscape:pageopacity="0.0"
     inkscape:pagecheckerboard="0"
     inkscape:deskcolor="#d1d1d1"
     inkscape:document-units="mm"
     inkscape:zoom="0.23481809"
     inkscape:cx="2131.4372"
     inkscape:cy="973.0937"
     inkscape:window-width="1920"
     inkscape:window-height="1052"
     inkscape:window-x="0"
     inkscape:window-y="28"
     inkscape:window-maximized="0"
     inkscape:current-layer="svg8" /><g
     transform="translate(-110.85612,481.25004)"
     id="g8" /><g
     id="g9"
     transform="translate(-698.86969,45.223139)"><path
       d="m 1008,-525.12 c 20.164,82.798 115.22,68.535 127.08,1.3755 m -140.67,5.1651 c 24.784,101.1 141.62,83.68 156.2,1.6795 m -242.37,232.09 -96.652,-74.937 96.256,-122.66 101.37,-42.592 c 52.053,30.53 93.151,23.463 125.13,0.4745 l 105.71,45.524 93.702,118.4 -94.553,74.961 m -331.36,-142.26 v 454.03 l 331.36,0.8518 v -444.66"
       fill="none"
       stroke="#ffffff"
       stroke-width="2.6458"
       id="path1"
       transform="translate(-110.85612,481.25004)" /><g
       transform="matrix(0.06002508,0,0,0.06002508,923.6164,149.3581)"
       id="g4"
       style="fill:#ffffff"><path
         d="m 700.46,-1248.9 c -0.88412,-0.023 -1.8144,0.045 -2.7921,0.202 -6.616,1.067 -8.9593,4.5095 -12.621,18.54 -3.614,13.845 -13.72,46.458 -20.656,66.655 -3.3611,9.789 -8.3342,26.472 -11.051,37.076 -2.7169,10.604 -6.9187,25.508 -9.3374,33.12 -5.7134,17.982 -8.6965,30.86 -11.796,50.917 -3.7645,24.362 -4.1662,30.633 -2.2024,34.404 3.185,6.1171 11.804,7.8061 16.051,3.146 0.9814,-1.0765 2.7421,-1.9585 3.9129,-1.9585 3.657,0 19.111,-4.8295 31.999,-9.9989 12.547,-5.0338 40.395,-14.91 40.788,-14.467 0.2447,0.277 3.8016,12.153 6.2828,20.978 1.3154,4.6786 2.3589,6.3728 5.0245,8.1561 h 5.1e-4 c 1.8504,1.2387 4.237,2.2526 5.3036,2.2526 3.7514,0 7.6086,-3.2698 9.786,-8.2966 2.1252,-4.906 2.1291,-5.0471 0.46354,-15.382 -0.9245,-5.737 -4.9914,-26.892 -9.0377,-47.011 -9.0126,-44.813 -8.5808,-42.032 -12.904,-83.049 -3.1428,-29.816 -4.096,-35.905 -8.4336,-53.883 -2.6896,-11.147 -5.5938,-23.32 -6.4534,-27.051 -2.2041,-9.5682 -6.1391,-14.188 -12.328,-14.35 z m -1.848,63.272 c 0.0835,-0.012 0.16186,0.013 0.22893,0.079 0.2683,0.267 1.3746,9.117 2.4582,19.668 1.0836,10.551 2.2177,20.629 2.5203,22.396 0.30216,1.7686 0.40115,3.2142 0.21859,3.2142 -0.1823,0 -3.8107,-3.7752 -8.0631,-8.3891 l -7.7318,-8.3892 4.5589,-13.115 c 2.5074,-7.2128 4.7822,-13.734 5.055,-14.492 0.20461,-0.5685 0.50453,-0.9359 0.75499,-0.972 z m -16.177,47.018 c 0.76292,0.072 4.3519,3.6195 8.3313,8.2667 4.2449,4.9551 7.566,9.1167 7.3804,9.2485 -0.186,0.1297 -5.4899,3.8064 -11.787,8.1696 -14.932,10.346 -13.995,9.9055 -12.863,6.0399 0.5206,-1.777 2.5554,-9.4605 4.5217,-17.073 1.9662,-7.6121 3.9022,-14.192 4.3026,-14.619 0.025,-0.027 0.0633,-0.037 0.1142,-0.033 z m 23.808,30.83 c 1.0524,0.03 2.0348,1.7903 2.4789,4.8312 0.377,2.583 2.4438,12.864 4.593,22.849 2.149,9.9841 3.9078,18.548 3.9078,19.032 l -5.1e-4,-6e-4 c 0,0.4837 -0.38514,0.8801 -0.85577,0.8801 -2.395,0 -14.438,-7.2552 -24.808,-14.944 -6.4185,-4.7595 -12.539,-9.2778 -13.6,-10.041 -1.797,-1.2913 -0.95975,-2.0475 12.168,-10.99 7.7537,-5.2812 14.36,-10.026 14.682,-10.542 0.46307,-0.7441 0.9562,-1.0884 1.4345,-1.0748 z m 640.36,7.0528 c -7.0049,0.016 -13.76,6.8691 -28.832,26.292 -5.523,7.12 -14.171,17.786 -19.217,23.706 -15.589,18.288 -21.96,27.953 -35.802,54.312 -8.615,16.406 -20.285,36.441 -29.624,50.859 l -5.4064,8.3452 -1.9239,-2.4138 c -1.058,-1.327 -7.9596,-14.454 -15.337,-29.17 -14.562,-29.048 -22.294,-41.645 -37.344,-60.844 -10.346,-13.197 -13.611,-15.716 -20.374,-15.716 -4.5229,0 -10.574,3.2297 -12.677,6.766 -4.4586,7.499 -11.373,51.116 -12.718,80.232 -0.5299,11.468 -1.7371,26.727 -2.683,33.91 -1.4306,10.86 -1.7396,22.044 -1.8356,66.446 -0.098,45.628 -0.4282,57.039 -2.267,78.503 -1.1833,13.814 -2.1637,32.721 -2.1787,42.019 -0.015,9.298 -0.4523,23.578 -0.972,31.734 -2.915,45.755 -2.6499,50.502 3.0861,55.295 5.944,4.9668 14.436,3.827 19.139,-2.5683 2.5826,-3.51 6.1643,-38.622 7.6476,-74.971 0.5879,-14.409 2.1468,-37.545 3.4638,-51.411 4.8289,-51.12 12.355,-99.812 13.029,-151.76 1.8981,-15.226 3.5794,-28.089 3.7367,-28.585 0.472,-1.489 8.1995,8.253 15.672,19.758 9.311,14.336 21.164,38.1 23.281,46.678 2.315,9.3825 6.1578,13.204 13.921,13.842 19.287,0.289 24.597,-14.417 34.049,-27.488 3.9,-5.156 10.481,-14.543 14.626,-20.862 9.816,-14.962 16.372,-24.055 38.036,-52.757 l 17.895,-23.708 0.2341,5.4182 c 2.5099,58.01 1.8644,111.17 -1.8081,172.5 -1.0407,17.377 -1.3417,38.978 -1.8387,47.951 -1.9831,35.805 -0.9863,73.399 2.8045,105.79 1.1138,9.516 2.5043,25.309 3.0902,35.098 1.2772,21.336 1.7493,28.918 9.9245,28.918 v -0.003 c 2.7363,0 5.5967,2.2247 7.0073,2.2247 4.9071,0 11.274,-4.1147 13.772,-8.8987 2.306,-4.417 2.319,-4.6347 1.7912,-30.648 -0.2924,-14.41 -1.1907,-32.269 -1.9963,-39.686 -1.0671,-9.824 -1.5136,-27.54 -1.6444,-65.252 -0.1708,-49.149 -0.073,-52.318 1.9384,-62.643 3.9562,-20.309 4.2225,-23.711 5.0643,-64.759 0.4628,-22.566 1.434,-48.147 2.1585,-56.847 0.8959,-10.758 1.2696,-31.634 1.1679,-65.253 -0.236,-77.988 -2.2028,-93.282 -12.649,-98.303 -2.708,-1.3018 -5.0708,-2.0564 -7.4058,-2.051 z m 76.698,7.2646 a 15,15 0 0 0 -7.3949,2.3715 15,15 0 0 0 -4.4881,20.732 c 11.733,18.217 26.025,33.038 38.494,47.607 l 0.2676,0.3122 0.2832,0.295 c 20.669,21.637 31.021,54.315 54.307,83.971 7.0935,12.075 16.585,20.437 24.049,27.867 7.4895,7.4557 12.525,13.649 14.59,20.189 1.1904,10.986 -2.0733,21.46 -8.1096,33.414 -6.2247,12.327 -15.218,25.413 -22.053,40.441 l -0.2263,0.49816 -0.1897,0.51159 c -23.445,63.463 -59.198,123.22 -88.137,187.64 a 15,15 0 0 0 7.5349,19.828 15,15 0 0 0 19.83,-7.537 c 27.848,-61.994 63.847,-122.07 88.574,-188.68 5.3155,-11.634 14.024,-24.484 21.445,-39.18 7.4532,-14.76 13.677,-32.203 11.033,-51.941 l -0.1307,-0.97461 -0.2579,-0.95137 c -4.1773,-15.44 -14.126,-25.949 -22.738,-34.521 -8.6118,-8.5729 -16.16,-15.702 -20.025,-22.752 l -0.6036,-1.0992 -0.7752,-0.98289 c -18.803,-23.82 -29.311,-57.77298 -55.946,-85.93598 -13.171,-15.385 -26.351,-29.29 -35.996,-44.265 a 15,15 0 0 0 -13.338,-6.8596 z m -759.27,18.864 c 1.8434,-0.027 6.7334,3.0734 13.3,8.4878 8.757,7.221 19.755,14.916 26.212,18.342 3.2646,1.7323 5.5505,3.3791 5.0798,3.6633 -0.4708,0.2821 -4.2157,1.4954 -8.3225,2.6939 -4.107,1.1994 -13.354,4.5508 -20.55,7.4471 -7.196,2.8973 -16.204,6.1903 -20.019,7.3189 h 5.1e-4 c -8.5496,2.5297 -8.3656,2.5345 -7.7303,-0.1721 0.2873,-1.222 1.6551,-8.0073 3.0396,-15.076 2.9435,-15.03 7.1299,-31.243 8.3902,-32.496 0.135,-0.134 0.3361,-0.2018 0.59945,-0.2057 z m -686.57,8.9751 c -4.2761,0 -5.3324,0.4418 -8.4367,3.5249 -3.3395,3.316 -3.6312,4.1335 -4.9392,13.842 -0.7645,5.675 -2.7398,18.548 -4.3899,28.608 -5.6516,34.455 -6.2204,54.128 -2.6246,90.79 0.8176,8.335 1.953,25.908 2.5228,39.052 0.57,13.143 1.717,32.127 2.5492,42.187 0.8322,10.059 1.9153,36.086 2.4071,57.837 0.49172,21.75 1.147,41.327 1.4568,43.502 0.6413,4.506 3.068,45.269 4.5346,76.175 0.8842,18.631 1.3064,21.891 4.0375,31.143 1.6776,5.6834 3.399,11.925 3.8251,13.87 1.0473,4.7811 1.6411,5.5653 5.8989,7.799 l -5.17e-4,-0.002 c 8.447,4.43 15.918,1.0336 19.503,-8.8666 1.7402,-4.805 1.7867,-6.342 0.69505,-23.088 -3.9155,-60.053 -6.401,-107.6 -6.9453,-132.85 l -0.62322,-28.9 4.978,-0.94154 c 10.263,-1.9427 16.501,-2.0424 37.832,-0.60307 27.752,1.8738 74.807997,1.9343 85.121997,0.10956 4.1067,-0.72851 7.6436,-1.1651 7.86,-0.97048 0.21635,0.192 -0.11215,12.705 -0.73019,27.807 -2.5241,61.668 -2.1837,120.43 0.86352,149.06 1.6206,15.227 1.5499,15.015 6.1154,18.3 4.6031,3.3112 9.1982,3.8197 13.686,1.5162 3.3735,-1.733 8.4659,-9.3865 9.9431,-14.942 0.71228,-2.679 1.0613,-25.708 1.0387,-68.895 -0.0172,-35.77 0.49204,-75.655 1.1353,-88.91 0.78853,-16.249 0.89064,-32.536 0.31523,-50.241 -1.3573,-41.771 -1.0581,-64.899 1.0299,-79.589 1.3625,-9.588 1.6699,-15.741 1.2082,-24.223 -0.882,-16.206 -7.3538,-64.27397 -12.202,-90.63397 -0.6225,-3.384 -5.1016,-7.9898 -9.0181,-9.2738 -7.2677,-2.382 -15.378,2.7438 -16.874,10.665 -0.4029,2.132 0.70274,17.127 2.6768,36.30397 3.9961,38.819 4.3591,58.235 1.5343,82.104 -1.5624,13.202 -1.7877,20.337 -1.3622,43.117 l 0.51005,27.297 -9.5891,0.63613 c -5.274,0.35004 -33.557997,0.90138 -62.852997,1.2268 -36.831,0.408 -55.007,0.97232 -58.915,1.8247 l -5.6519,1.2351 -0.55862,-4.547 c -1.2848,-10.456 -2.6351,-29.653 -3.5548,-50.538 -0.5392,-12.246 -1.9627,-30.932 -3.1631,-41.525 -3.0269,-26.711 -2.8688,-50.94 0.54777,-83.889 1.4305,-13.795 2.5993,-27.365 2.5993,-30.155 -0.003,-9.7444 -5.4457,-15.948 -13.993,-15.948 z m -82.759,0.1349 a 15,15 0 0 0 -12.121,8.8362 c -25.247,56.944 -57.942,112.23 -80.445,173.62 -9.5751,21.218 -34.455,47.609 -29.588,84.432 l 0.1266,0.9648 0.25219,0.93948 c 3.8736,14.505 13.098,24.359 20.953,32.281 7.855,7.922 14.597,14.403 17.984,20.662 l 0.5917,1.0976 0.76739,0.98237 c 16.889,21.678 26.428,52.953 50.858,79.139 11.988,14.187 23.906,26.938 32.583,40.588 a 15,15 0 0 0 20.707,4.6116 15,15 0 0 0 4.6111,-20.707 c -10.737,-16.889 -23.765,-30.568 -35.061,-43.941 l -0.26562,-0.31419 -0.28112,-0.29714 c -18.502,-19.623 -27.909,-49.626 -49.217,-77.139 -6.5538,-11.265 -15.246,-19.016 -21.975,-25.803 -6.7193,-6.7771 -11.092,-12.276 -12.91,-17.973 -2.0198,-20.022 14.974,-39.908 27.299,-67.367 l 0.22117,-0.49609 0.18552,-0.50746 c 21.249,-58.279 53.706,-113.25 80.025,-172.60997 a 15,15 0 0 0 -7.6326,-19.793 15,15 0 0 0 -7.6698,-1.203 h 0.002 z m 1112.7,23.302 c -0.643,0.024 -1.2722,0.092 -1.8794,0.2056 -4.7226,0.879 -10.797,6.7629 -12.843,12.44 -0.882,2.447 -5.8588,15.814 -11.059,29.704 -5.2006,13.889 -11.972,33.689 -15.048,43.996 -3.0759,10.308 -7.1075,23.413 -8.9591,29.123 -2.904,8.956 -9.51,31.402 -20.515,69.702 -9.864,34.33 -20.911,112.84 -21.157,150.36 -0.1228,18.716 0.38269,20.779 5.918,24.177 6.215,3.8146 15.522,1.4798 18.691,-4.6865 0.7808,-1.519 1.7331,-7.211 2.1162,-12.649 1.292,-18.346 7.2326,-61.426 12.626,-91.567 l 3.1166,-17.419 8.5096,-1.1818 c 9.361,-1.3 21.164,-3.9051 45.79,-10.106 9.2415,-2.3271 16.561,-3.7074 16.994,-3.205 0.4179,0.486 1.7679,7.5581 2.9998,15.714 3.281,21.725 10.457,60.101 14.42,77.117 1.8995,8.156 4.4208,19.946 5.6027,26.2 2.5824,13.662 9.5127,35.18 12.374,38.419 1.1336,1.283 2.9574,2.7009 4.0525,3.1502 v 0.003 c 3.3841,1.3902 9.5091,1.0254 12.528,-0.74518 3.7506,-2.2 7.1094,-9.2751 7.6476,-16.107 0.5,-6.357 -3.3098,-28.117 -10.213,-58.333 -8.084,-35.381 -15.601,-79.227 -18.901,-110.24 -2.578,-24.233 -6.4141,-44.162 -21.409,-111.23 -4.3164,-19.303 -9.0386,-42.21602 -10.493,-50.91602 -3.0442,-18.204 -4.528,-23.029 -8.324,-27.065 -2.9147,-3.0978 -8.0833,-5.0313 -12.584,-4.8596 z m -669.02,25.629 c -2.5622,0.1204 -5.0727,0.9258 -7.2569,2.545 -5.2565,3.898 -6.2619,6.499 -10.214,26.43 -3.938,19.857 -11.376,49.072 -14.994,58.892 -2.973,8.068 -8.1844,16.86 -13.425,22.648 -10.281,11.356 -22.057,12.677 -30.263,3.3957 -3.781,-4.277 -10.333,-17.191 -16.223,-31.976 -2.4908,-6.253 -7.7358,-18.934 -11.656,-28.177 -3.9441,-9.301 -7.9782,-20.647 -9.0325,-25.405 -1.0479,-4.728 -2.4428,-9.7695 -3.1001,-11.202 -1.388,-3.0241 -7.4436,-6.4001 -11.481,-6.4001 -6.9991,0 -13.216,6.6636 -13.216,14.165 0,5.917 3.7142,22.608 7.3758,33.147 15.557,44.779 26.3,71.29 32.858,81.086 5.206,7.7753 10.318,11.971 18.458,15.143 11.24,4.3825 29.762,1.8081 43.449,-6.0374 9.288,-5.325 21.954,-18.414 26.715,-27.605 0.9415,-1.8188 1.8584,-3.153 2.0371,-2.9662 0.1789,0.186 -0.50943,5.1827 -1.5296,11.103 -1.0202,5.921 -2.3512,17.265 -2.958,25.211 -0.6068,7.947 -1.9866,21.121 -3.066,29.278 -1.0794,8.156 -2.3905,20.837 -2.9135,28.177 -2.5286,35.49 -3.2272,42.866 -5.1036,53.882 -3.888,22.828 -10.151,39.494 -21.185,56.37 -8.578,13.121 -17,21.241 -22.03,21.241 -5.62,0 -12.861,-10.905 -15.83,-23.843 -0.8257,-3.598 -2.145,-15.612 -2.9316,-26.694 -1.1431,-16.107 -1.9246,-21.64 -3.8948,-27.567 -6.2825,-18.899 -8.3156,-22.036 -15.1,-23.299 -7.6667,-1.429 -12.942,2.505 -15.874,11.837 -1.7543,5.583 -1.7623,6.4259 -0.18913,19.278 0.9049,7.391 2.1016,21.33 2.6598,30.976 1.223,21.138 3.7014,31.962 10.412,45.476 8.152,16.418 16.437,24.779 28.285,28.543 l 5.2e-4,-0.002 c 9.908,3.147 22.247,1.8846 30.68,-3.1383 10.161,-6.053 17.256,-13.817 30.751,-33.647 13.561,-19.927 19.898,-35.498 25.277,-62.11 3.5854,-17.739 4.5365,-25.884 6.4756,-55.44 0.8384,-12.778 2.399,-30.797 3.4675,-40.041 1.0685,-9.244 2.6403,-24.593 3.4928,-34.11 0.8525,-9.516 2.213,-21.082 3.0236,-25.705 3.617,-20.625 2.8359,-54.535 -2.0495,-88.98 -1.3496,-9.516 -2.655,-18.766 -2.9011,-20.556 -1.1662,-8.481 -9.3136,-14.284 -17,-13.922 z m 87.789,7.8853 c -3.7308,-0.053 -7.4985,0.2219 -11.321,0.818 -14.707,2.295 -23.303,8.2568 -29.123,20.198 -6.061,12.436 -8.4536,38.803 -8.4837,93.564 -0.0281,48.37 2.2084,214.22 3.0432,225.67 0.6878,9.437 2.0658,12.208 7.7975,15.679 l -10e-4,-0.003 c 3.9346,2.3812 6.6774,2.3527 11.557,-0.11989 6.8514,-3.471 7.1458,-4.777 8.5804,-38.054 0.70319,-16.314 1.4079,-53.796 1.5663,-83.295 l 0.28784,-53.633 h 2.4252 c 4.52,-0.003 15.463,-3.1542 22.573,-6.4988 14.159,-6.662 27.189,-19.085 42.961,-40.96 8.6275,-11.965 15.275,-25.11 18.324,-36.23 3.0719,-11.206 3.0636,-30.995 -0.0186,-43.356 -4.276,-17.15 -7.8973,-22.711 -22.264,-34.187 -16.262,-12.99001 -31.737,-19.36401 -47.904,-19.59201 z m 384.42,23.624 c -4.1052,0.007 -8.5714,3.5367 -9.6888,7.659 -1.6877,6.23 -3.2895,153.21 -2.0877,191.56 1.5418,49.202 2.7872,70.611 4.4225,76.005 2.454,8.0973 7.6862,14.885 13.719,17.797 5.718,2.7607 -0.0571,4.9225 22.208,6.4415 l -5.1e-4,-0.007 c 16.709,1.1395 20.82,1.1838 39.907,0.43666 16.652,-0.6528 16.858,-0.68749 19.573,-3.3843 4.0538,-4.0256 3.8769,-9.9312 -0.41703,-13.915 -1.7387,-1.6124 -4.4966,-3.6179 -6.1288,-4.4555 -3.741,-1.9231 -18.005,-3.2069 -36.038,-3.2561 -11.878,-0.0295 -14.021,-1.8994 -20.897,-3.4577 -3.1387,-0.7108 -6.2484,-4.1214 -7.4672,-8.1886 -2.5891,-8.63 -3.9663,-49.82 -4.8839,-146.08 -0.9211,-96.626 -1.199,-106.08 -3.2789,-111.52 -1.1526,-3.0133 -5.3213,-5.6348 -8.9416,-5.6348 z m -247.94,11.108 c -17.689,-0.16313 -27.913,1.363 -36.434,5.2358 -14.403,6.546 -19.264,15.811 -19.224,36.639 0.24856,128.35 0.11854,149.85 -0.99736,165.02 -0.68013,9.246 -1.2608,28.598 -1.2909,43.008 -0.0467,22.511 0.20874,27.221 1.8138,33.444 3.26,12.639 10.925,20.747 21.573,22.82 v -0.0124 c 2.4395,0.47485 4.7102,0.91251 5.0462,0.97151 5.113,0.907 30.35,-8.6841 43.591,-16.567 5.1461,-3.0635 10.914,-6.4947 12.816,-7.6243 4.3884,-2.6075 6.1212,-5.7255 6.1655,-11.094 0.078,-9.3931 -4.8926,-13.307 -16.848,-13.307 -6.4812,0.007 -8.5297,0.48046 -14.975,3.4634 -4.1064,1.9005 -10.155,5.0692 -13.44,7.0414 -7.1494,4.2934 -8.8562,4.4331 -11.177,0.91932 -1.5417,-2.334 -1.7653,-5.1832 -1.7653,-22.492 0,-18.45 0.73082,-43.515 2.112,-72.466 l 0.57774,-12.111 h 6.6198 c 7.597,-0.0128 16.195,-2.1768 31.706,-7.9783 2.937,-1.0981 5.3512,-4.9591 5.9526,-9.5219 0.762,-5.7764 -2.6472,-10.014 -10.01,-12.445 -5.5868,-1.8405 -6.1854,-1.8565 -13.186,-0.32866 -4.034,0.8809 -10.415,1.8849 -14.18,2.2329 l -6.8461,0.63097 -0.56173,-36.957 c -0.441,-29.025 -0.91867,-38.657 -2.2247,-44.868 -3.6028,-17.136 -3.1549,-18.736 6.2306,-22.268 4.811,-1.811 9.189,-2.3288 26.663,-3.1616 23.055,-1.0991 26.027,-1.8259 29.354,-7.1722 4.0866,-6.566 1.381,-16.034 -5.3836,-18.842 -2.305,-0.9566 -9.7388,-1.5977 -23.623,-2.0392 -2.8485,-0.0903 -5.5278,-0.14826 -8.0548,-0.17156 z m 69.042,0.90744 c -3.6191,0.11986 -6.7531,0.94577 -8.8971,2.5234 -4.5637,3.358 -8.9909,9.9915 -11.276,16.895 -2.1393,6.463 -2.214,8.299 -2.9362,71.884 -0.4076,35.888 -1.198,70.369 -1.7565,76.622 -2.2429,25.115 -1.0656,44.022 4.7413,76.128 1.6227,8.972 3.4853,19.629 4.1388,23.68 0.9401,5.8278 1.7698,7.9448 3.9744,10.134 l -10e-4,0.002 c 3.9712,3.9434 9.9263,3.8912 13.968,-0.12299 2.6891,-2.671 2.9076,-3.4405 2.9006,-10.134 -0.005,-3.984 -1.1006,-14.585 -2.435,-23.557 -3.7237,-25.037 -4.8796,-41.169 -4.1791,-58.332 0.8562,-20.976 2.2127,-32.141 2.6934,-30.943 9.5849,23.873 14.955,41.709 18.128,63.57 1.2949,8.429 2.6545,18.439 3.021,22.245 0.3667,3.807 1.5237,10.609 2.5709,15.117 1.0475,4.507 1.9048,9.212 1.9048,10.455 0,3.5236 4.4216,7.0099 8.8904,7.0099 2.0903,0 4.6002,-0.65663 5.5774,-1.4599 2.7939,-2.297 5.3993,-8.9478 5.4219,-13.849 0.092,-18.785 -11.241,-92.551 -25.035,-123.37 -4.7334,-10.576 -9.5444,-4.5713 4.5026,-19.614 17.507,-18.748 24.698,-34.977 24.731,-55.803 0.017,-10.982 -2.4596,-22.059 -6.6838,-29.892 -3.618,-6.706 -17.239,-20.299 -24.165,-24.11 -6.3888,-3.5172 -13.768,-5.2796 -19.8,-5.0798 z m -200.61,0.17673 c 0.75228,-9e-5 1.5016,0.053 2.2417,0.16175 10.718,1.573 25.139,12.119 29.608,21.651 2.019,4.307 2.3706,6.5853 2.3776,15.471 0.017,17.472 -3.5976,26.702 -17.822,45.515 -10.157,13.434 -18.593,21.203 -28.678,26.414 v -5.2e-4 c -4.4291,2.2878 -8.5443,4.1594 -9.1452,4.1594 -1.4426,0 -1.4611,-39.365 -0.0305,-64.758 1.3043,-23.15 3.7757,-36.894 7.5081,-41.753 3.2716,-4.2599 8.6742,-6.86 13.94,-6.8606 z m 296.56,0.8847 c -6.9971,0.17292 -13.654,1.6451 -17.673,4.286 -4.3429,2.854 -9.1941,9.8718 -10.889,15.75 -2.0044,6.95 -1.108,120.07 1.2537,158.2 2.2363,36.102 3.0305,43.524 6.9133,64.596 2.0116,10.916 2.5487,16.01 1.9182,18.195 -1.3066,4.5236 1.2989,9.221 6.411,11.558 v 0.002 c 5.129,2.3458 12.83,2.4569 18.049,0.26148 19.268,-8.104 32.146,-19.403 39.656,-34.795 7.6185,-15.614 10.61,-32.736 8.6966,-49.776 -1.3243,-11.792 -3.5524,-18.621 -10.695,-32.778 -6.796,-13.468 -12.549,-22.108 -19.421,-29.166 l -5.2953,-5.4369 7.5411,-7.4156 c 6.1297,-6.026 8.4898,-9.2962 12.608,-17.467 2.9363,-5.826 5.7862,-13.266 6.7784,-17.694 3.5178,-15.702 -0.15244,-40.815 -8.1824,-55.99 -4.491,-8.486 -14.049,-17.644 -20.885,-20.009 -4.1021,-1.4198 -8.9403,-2.1773 -13.773,-2.3151 -1.0068,-0.0287 -2.0131,-0.0304 -3.0127,-0.006 z m 275.71,8.26 c 0.9594,-0.29265 2.4456,6.3163 11.003,45.897 8.424,38.963 12.481,60.143 12.47,65.104 -0.01,2.5188 -0.2244,2.6266 -5.7242,2.7053 -7.451,0.1121 -19.897,2.6273 -39.399,7.9618 l 5.2e-4,-0.005 c -18.019,4.9295 -16.597,4.6612 -16.597,3.1383 0,-3.98 35.09498,-119.27 37.84898,-124.33 0.1346,-0.2475 0.2608,-0.43 0.3979,-0.47181 z m -276.19,13.505 c 1.868,0.0294 4.2942,1.1952 7.5975,3.5714 8.0639,5.8 13.587,17.704 14.842,31.989 1.542,17.553 -7.1931,36.551 -20.101,43.716 l -5.2e-4,10e-4 c -2.5226,1.4 -5.09,2.5414 -5.7056,2.5414 -0.8097,-0.003 -1.1188,-10.927 -1.1188,-39.507 0,-35.535 0.16628,-39.668 1.6578,-41.153 0.78773,-0.78495 1.708,-1.1767 2.8288,-1.1591 z m -87.835,5.8529 c 4.3228,0.15123 13.232,9.5059 15.754,16.721 4.3434,12.428 1.2282,29.912 -7.4828,41.996 -2.7261,3.7808 -6.9794,9.0991 -9.4521,11.817 l -4.4964,4.9434 0.0418,-33.12 c 0.0475,-37.581 0.57044,-41.814 5.2322,-42.344 0.12953,-0.0147 0.26415,-0.0193 0.4036,-0.0145 z m 84.106,107.01 c 1.8505,0.0781 13.657,12.347 17.609,18.391 5.8527,8.952 12.683,23.346 14.596,30.761 1.1995,4.65 1.5092,9.4053 1.218,18.686 -0.3818,12.173 -0.48084,12.636 -4.4307,20.802 -2.3187,4.7932 -6.176,10.668 -9.0542,13.789 -5.6918,6.1718 -12.987,10.835 -13.641,8.7173 -1.4375,-4.658 -3.8154,-25.845 -4.6405,-41.344 -1.4062,-26.413 -2.5161,-69.335 -1.804,-69.771 0.0384,-0.0235 0.0876,-0.0335 0.14727,-0.031 z"
         id="path1-5"
         style="fill:#ffffff" /><path
         class="transmit one"
         d="m 668.98,-1329.9 c -1.6934,-0.011 -3.7412,0.4173 -6.2472,1.263 -6.431,2.171 -17.093,10.755 -21.769,17.526 -10.987,15.908 -10.971,38.334 0.0403,56.986 4.6821,7.9308 9.0356,12.68 13.997,15.269 3.7469,1.9565 3.9535,1.9603 7.5019,0.1385 5.563,-2.857 4.672,-8.5329 -2.9037,-18.497 -2.2065,-2.9009 -5.2609,-7.9313 -6.7882,-11.177 -2.4631,-5.233 -2.7753,-7.0174 -2.7606,-15.786 0.0141,-8.4166 0.36009,-10.533 2.327,-14.229 3.434,-6.454 10.907,-13.882 16.72,-16.62 6.4373,-3.0305 8.264,-6.4672 5.8756,-11.054 -1.3325,-2.5592 -3.1705,-3.7979 -5.9929,-3.8163 z m 58.885,9.7374 c -2.4848,-0.087 -3.3164,0.4434 -5.0819,2.1968 -5.0482,5.0131 -2.5765,10.24 6.1547,13.011 12.771,4.055 20.146,12.93 20.146,24.244 0,6.303 -2.4895,15.286 -7.0058,25.282 -3.9678,8.7821 -3.6768,12.886 1.032,14.558 h 5.2e-4 c 8.151,2.893 16.258,-6.9831 20.903,-25.464 5.669,-22.555 -1.35,-39.778 -20.068,-49.239 -4.6178,-2.3339 -9.383,-3.9239 -12.949,-4.3201 -1.2915,-0.1436 -2.3033,-0.2409 -3.1316,-0.2698 z"
         id="path2-4"
         style="fill:#ffffff" /><path
         class="transmit two"
         d="m 643.67,-1382.3 c -2.8094,-0.1919 -6.1562,0.6878 -10.432,2.6128 -19.064,8.585 -38.467,23.977 -49.871,39.562 -5.898,8.059 -15.93,28.471 -18.065,36.754 -2.2936,8.899 -2.5732,33.491 -0.48835,42.956 1.462,6.638 14.961,43.988 18.181,50.304 3.626,7.113 11.824,18.214 15.513,21.01 1.9594,1.4836 5.839,3.9446 8.6212,5.4684 v -6e-4 c 2.7822,1.5239 6.48,2.7885 8.2176,2.7885 3.7461,0.021 8.7856,-3.8009 9.6805,-7.3422 1.0567,-4.183 -2.9533,-12.628 -9.4785,-19.961 -7.147,-8.033 -12.474,-18.492 -19.822,-38.921 -7.8702,-21.88 -9.8152,-37.407 -6.3609,-50.774 2.027,-7.841 9.4081,-22.84 14.862,-30.196 8.882,-11.982 26.343,-26.731 39.345,-33.233 7.7987,-3.8999 8.95,-5.1181 9.6351,-10.19 0.4386,-3.2473 0.0725,-4.3504 -2.3296,-7.0197 -2.126,-2.3625 -4.3984,-3.6259 -7.2078,-3.8179 z m 140.35,3.0794 c -0.58923,-0.02 -1.1436,0.016 -1.6588,0.1122 -4.9332,0.9192 -8.4023,4.7974 -8.3571,9.3415 0.0505,5.0963 1.951,7.8466 7.4874,10.832 9.862,5.318 21.722,23.1 28.055,42.062 9.5042,28.458 9.6006,35.266 0.82786,58.434 -8.528,22.522 -16.33,33.574 -33.617,47.618 -3.8472,3.1253 -9.0063,8.135 -11.465,11.132 -4.0527,4.9413 -4.4201,5.8226 -3.9321,9.4366 0.3547,2.626 1.4271,4.7437 3.1445,6.2115 h -5.2e-4 c 3.03,2.5877 9.6749,2.9468 15.606,0.8439 8.669,-3.074 25.284,-17.077 34.159,-28.788 17.824,-23.518 29.435,-60.312 26.515,-84.021 -1.727,-14.028 -12.749,-42.752 -21.124,-55.054 -10.114,-14.855 -26.802,-27.857 -35.64,-28.159 z"
         id="path3-1"
         style="fill:#ffffff" /><path
         class="transmit three"
         d="m 822.67,-1432.8 c -5.485,0.072 -9.6506,2.306 -12.594,6.6807 -5.2288,7.773 -0.16304,17.857 9.909,19.727 8.24,1.527 22.73,11.832 37.624,26.753 7.4273,7.441 9.3052,10.096 15.162,21.441 7.6264,14.772 9.213,20.478 10.668,38.358 3.102,38.14 -0.31677,54.602 -19.12,92.051 -4.3684,8.7 -10.301,19.378 -13.184,23.728 -5.018,7.571 -18.346,24.125 -26.369,32.751 -4.5692,4.9122 -5.4624,8.3091 -3.7346,14.199 0.9253,3.1539 2.2963,5.11 4.7454,6.7686 3.1333,2.1206 4.118,2.2733 10.911,1.6893 9.081,-0.78 11.551,-2.2952 24.392,-14.954 12.146,-11.976 19.373,-23.026 33.34,-50.982 18.361,-36.749 22.392,-51.308 22.272,-80.43 -0.203,-49.032 -6.0827,-68.97 -28.305,-95.986 -7.45,-9.055 -14.098,-15.009 -26.85,-24.043 -16.919,-11.987 -29.726,-17.872 -38.867,-17.752 z m -238.04,0.2465 c -2.4721,0.032 -5.3206,0.3732 -8.5866,1.0102 -9.155,1.786 -18.455,5.9291 -29.075,12.952 -10.884,7.199 -31.949,24.492 -39.643,32.547 -30.461,31.89 -35.587,74.077 -17.619,144.99 5.133,20.258 22.046,53.466 35.049,68.82 4.619,5.454 14.625,12.551 22.506,15.963 2.6251,1.1355 5.9856,2.92 7.4672,3.9641 1.4816,1.0441 3.5899,2.1276 4.685,2.4118 4.318,1.1139 12.387,-2.413 14.503,-6.3387 3.1882,-5.917 -1.0938,-18.7 -7.6988,-22.984 -12.031,-7.802 -23.104,-22.348 -35.339,-46.416 -6.6211,-13.025 -12.51,-33.661 -16.414,-57.521 -2.4701,-15.095 -2.5184,-42.939 -0.0899,-51.906 3.523,-13.007 8.9458,-21.962 20.493,-33.839 12.457,-12.813 25.082,-23.611 35.519,-30.376 7.555,-4.898 10.875,-6.2959 17.61,-7.4166 7.6185,-1.269 12.248,-9.4435 9.8506,-17.391 -1.77,-5.8664 -5.8009,-8.5607 -13.217,-8.4661 z"
         id="path4-8"
         style="fill:#ffffff" /></g><path
       style="fill:#ffffff;stroke-width:1.6831"
       d="m 1055.1658,230.63218 0.4584,5.5179 -0.025,4.80061 0.1938,5.09447 -0.061,4.856 -0.1145,4.90711 0.071,5.15344 -0.039,4.88062 0.2924,5.09772 -0.1711,4.54434 0.2774,5.48167 -0.143,4.7536 0.047,5.15378 -0.3058,4.62489 0.2447,5.39567 -0.6332,4.50641 4.238,-0.91831 4.3009,0.24772 4.2604,0.27167 4.1945,0.22124 4.173,0.12656 4.0983,-0.0708 v -3.53114 l 0.056,-3.41489 0.5403,-3.1523 -4.3766,-0.10638 -4.4955,-0.4262 -3.6867,0.37406 -0.2299,-5.20301 -0.046,-3.42055 -0.1396,-4.77973 0.032,-3.8021 0.3991,-4.17236 4.0785,0.0372 3.769,-0.51267 4.058,0.37093 -0.048,-5.15789 0.1043,-5.05225 -4.2488,-0.37034 -4.1597,-0.15736 -4.1786,-0.13953 0.6476,-3.99613 0.2457,-4.32176 -0.2438,-4.29307 -0.3484,-4.5211 -0.1929,-4.07167 4.2681,-0.47991 4.4746,0.41022 4.3158,0.43241 -0.2344,-4.18537 0.128,-2.90494 -0.2273,-4.1481 -4.3825,-0.17095 -3.9426,0.22119 -3.4757,0.19798 -5.1469,0.0488 -4.4162,-0.25604 z"
       id="path25" /><path
       id="path24"
       style="fill:#ffffff;stroke-width:1.6831"
       d="m 1032.3054,230.46574 -4.4227,0.19571 -5.0063,0.0565 -4.5566,0.36703 0.1633,5.00282 -0.234,4.51662 -0.096,5.18545 0.246,5.30027 -0.017,4.81232 0.064,5.04109 -0.022,4.78798 -0.1682,4.48358 0.4626,5.72817 -0.1782,4.71318 -0.016,5.12981 -0.2844,4.46094 0.03,5.45421 -0.016,4.96369 -0.1966,4.4079 5.0255,0.1722 4.461,0.0626 4.9558,0.25396 4.6566,0.1104 5.4898,0.10519 c 1.3995,-0.0338 2.5534,-0.37023 3.6408,-0.78887 0.9897,-0.52915 2.3311,-0.98722 3.0947,-1.77602 1.0672,-0.75274 1.1086,-2.35395 1.4341,-3.52597 0.334,-1.20254 0.9237,-1.86937 0.9237,-3.49033 l -0.042,-5.06716 0.4453,-5.02803 -0.1696,-5.45073 0.02,-4.62012 0.6864,-5.09066 -0.3698,-5.3742 -0.2044,-4.85495 -0.2138,-5.00454 0.3278,-4.95325 -0.4879,-5.26286 -0.2948,-4.87235 c 0,-1.59629 -0.2638,-3.0841 -0.6628,-4.28178 -0.4563,-1.25862 -1.1052,-2.31533 -1.8664,-3.0911 -0.9182,-0.96756 -1.7466,-1.48645 -2.8808,-1.83865 -1.1792,-0.36616 -2.5212,-0.35661 -4.1738,-0.35661 l -4.774,-0.45835 z m -1.549,10.55095 3.9904,0.27834 3.9757,0.15821 0.1111,4.97412 0.016,4.80798 -0.2287,4.50705 -0.054,5.15676 0.1834,5.06629 -0.1774,4.13829 0.052,5.56465 0.098,4.90455 -0.1145,4.69491 0.048,4.09826 -0.03,5.68384 -3.7998,0.10182 -4.0332,-0.38181 v -5.19939 l 8e-4,-4.50443 0.088,-4.78364 -0.06,-5.01934 -0.027,-5.06978 0.5028,-4.2783 -0.068,-5.05761 0.1245,-4.72883 0.037,-4.84713 -0.1615,-4.91149 z" /><path
       style="fill:#ffffff;stroke-width:1.6831"
       d="m 1001.6275,230.93928 -0.071,4.81872 -0.1094,5.03312 0.1026,5.23276 -0.079,4.77838 0.1245,5.14918 -0.036,4.87171 0.017,5.02268 -0.049,4.72282 0.016,5.07037 0.022,4.80402 0.2255,5.40134 0.091,4.97822 0.1448,5.00146 -0.3162,4.64403 -0.2058,4.77154 4.1512,-0.10738 4.4579,0.16847 4.5873,0.52153 -0.2011,-5.2943 -0.047,-4.90745 0.4353,-4.74233 -0.039,-5.00078 -0.2286,-5.36115 -0.1649,-5.10678 0.2125,-4.42794 0.046,-5.02642 -0.2422,-5.75895 v -4.2223 l -0.069,-5.06318 0.1397,-4.89172 0.037,-4.96233 -0.091,-5.04403 0.5066,-4.74147 -4.2263,0.0266 -4.7842,-0.4065 z"
       id="path22" /><path
       style="fill:#ffffff;stroke-width:1.6831"
       d="m 974.01498,230.81343 c -1.60147,0 -2.52431,0.57554 -3.72553,0.97525 -0.90698,0.56745 -2.41311,0.54806 -3.27742,1.36122 -0.96249,0.33182 -1.47304,1.93226 -1.88087,3.27078 -0.3812,1.25144 -0.51902,2.74186 -0.51902,4.26264 l -0.0301,4.99377 0.62102,5.14046 -0.0711,4.97463 -0.10099,5.00181 0.14302,5.17276 0.0556,5.06217 -0.16827,4.84164 0.26024,5.22336 0.42241,5.03173 -0.5162,5.00524 -0.44109,5.09995 c -0.0593,1.55375 0.0164,2.76868 0.38475,3.94225 0.29935,1.06458 0.99686,2.24269 1.83821,3.0677 0.79139,0.77601 1.98404,1.41214 3.16421,1.81667 1.20249,0.41224 2.34957,0.51686 3.93774,0.51686 l 4.49277,-0.52125 5.36456,0.35798 4.26717,0.31058 c 1.57915,-0.0197 2.80243,-0.64745 3.99089,-1.05819 0.99029,-0.81107 2.10838,-1.05244 2.91335,-1.76146 0.79914,-0.84357 1.5168,-1.59985 1.95898,-2.68972 0.46033,-1.13473 0.7213,-2.45039 0.7213,-4.1069 l -0.16945,-5.71911 0.0893,-4.03527 -0.0757,-5.07243 0.0538,-4.73753 -0.0437,-5.00454 -4.22898,0.0135 -3.88779,0.19662 -3.74613,0.0759 -0.36863,3.96431 -0.15651,5.17021 -0.30682,4.43989 0.0219,4.84968 0.13463,5.01395 -3.8382,-0.008 -4.17173,-0.23749 0.0556,-4.82812 0.32232,-4.69034 -0.13299,-5.67912 -0.20601,-4.91345 0.0611,-4.17884 0.45823,-4.65154 -0.12615,-5.6099 -0.11786,-4.58502 -0.21257,-5.00815 0.0438,-4.49564 0.052,-4.88659 3.89745,0.0296 3.72617,-0.52826 -0.11276,4.59617 0.26644,5.05446 0.0273,4.80198 0.0693,4.88044 0.59869,4.79256 4.71109,0.083 3.20468,-0.22799 4.08951,0.10637 v -4.87669 l 0.67718,-4.82299 -0.26124,-5.12063 -0.0356,-4.72745 0.0337,-4.68042 c -0.11777,-1.65414 -0.63889,-3.73712 -1.10523,-4.96728 -0.63352,-1.69839 -0.41029,-1.85737 -1.05037,-2.53057 -0.37354,-0.87405 -2.04375,-1.43922 -3.57403,-1.80011 -1.26066,-0.29723 -2.85621,-0.77287 -4.40545,-0.77287 l -4.59359,0.12034 -4.73716,0.0101 z"
       id="path21" /><path
       style="fill:#ffffff;stroke-width:1.6831"
       d="m 948.29138,231.11259 -0.3092,4.84301 0.0219,5.043 -0.25176,4.46624 0.36352,5.60526 0.35467,5.00131 -0.0438,4.81171 -0.10938,4.56025 -0.0419,5.36185 -0.17101,4.72437 -0.0775,5.07479 -0.0355,5.10542 -0.0182,4.98011 0.0255,5.0148 0.12115,5.05601 -0.0556,4.88865 4.18532,-0.0356 4.32359,0.03 4.72813,0.24116 0.19188,-4.94882 0.37427,-4.78334 -0.13627,-5.30286 -0.13135,-5.00369 0.0173,-4.86881 -0.19033,-5.54613 0.0419,-4.42024 -0.34566,-5.52475 0.53954,-4.41272 -0.26972,-5.36253 -0.2968,-5.09788 0.0319,-4.54624 0.54127,-4.96437 -0.56115,-5.5921 -0.59295,-5.02149 -4.27984,0.04 -3.96718,0.33081 z"
       id="path20" /><path
       style="fill:#ffffff;stroke-width:1.6831"
       d="m 920.23479,230.38581 c -1.60148,0 -3.01691,0.41414 -4.21795,0.81385 -1.48452,-0.0205 -2.31156,0.6512 -3.08764,1.55895 -0.8501,0.47101 -1.35974,2.12575 -1.69117,3.5795 -0.29634,1.30114 0.096,2.95145 0.096,4.43614 l -0.0793,4.95088 -0.1144,4.97361 -0.0319,4.38964 0.74974,5.81433 -0.10939,5.03259 -0.19434,4.95668 -0.39369,4.59342 -0.0538,5.51723 -0.17301,4.59649 -0.0926,5.35722 0.0757,5.13601 c -0.0164,1.58836 0.77508,3.08394 1.16676,4.27699 0.95055,1.16616 1.11162,2.15875 1.7064,2.89367 0.98281,1.03631 1.29839,1.11678 2.30381,1.49559 1.0932,0.41189 2.53425,0.1604 4.29451,0.1604 l 2.51046,-0.22382 2.80489,0.95409 c 1.56273,-0.002 3.21297,-0.0315 4.39806,-0.41537 1.44724,-0.21767 2.14138,-0.94799 2.87434,-1.74812 0.75029,-0.8192 1.69245,-1.64664 2.12434,-2.83282 l 0.98628,2.47108 1.0376,2.52253 3.58971,0.0737 3.65261,0.0646 -0.11284,-4.61957 0.02,-4.42982 0.12789,-4.45904 -0.25833,-4.89993 v -4.25033 l -0.19963,-4.81325 0.24639,-4.17784 -0.32852,-5.28969 -3.798,0.43757 -3.87885,0.3528 -4.96623,-0.46067 0.23481,5.17004 0.39515,5.00677 -0.0301,5.00745 -0.10437,5.03019 0.19088,5.12337 -4.25514,-0.217 -4.02707,0.10402 -0.0593,-5.42749 -0.13636,-4.2093 v -4.65803 l 0.0164,-4.71599 -0.20919,-5.02489 0.0201,-4.40315 0.14648,-4.67821 -0.10099,-4.97771 0.3122,-4.46913 -0.0474,-5.43893 -0.082,-4.22127 3.99599,0.0781 3.70338,-0.69727 -0.0538,4.14793 -0.0602,3.94534 0.20072,4.77052 v 3.81953 l -0.0912,4.42572 4.18277,-0.14845 4.53962,0.30898 4.29989,0.0808 0.18669,-4.29802 0.70853,-4.53751 -0.18987,-4.48931 -0.41639,-4.52487 -0.64336,-5.08318 c 0.052,-1.43568 0.0793,-2.65929 -0.29269,-3.76653 -0.19763,-1.09768 -0.97289,-2.09328 -1.83793,-2.87537 -0.7687,-0.70652 -1.53567,-1.15506 -2.75794,-1.54523 -1.22073,-0.3897 -2.59496,-0.66847 -4.16408,-0.66847 l -4.22669,0.1931 -4.89103,0.0286 z"
       id="path19" /><path
       style="fill:#ffffff;stroke-width:1.6831"
       d="m 882.26024,230.7419 0.17392,5.21378 -0.21339,4.37632 -0.0911,5.45944 0.40363,5.33706 0.0492,4.82504 -0.0456,4.88779 -0.0556,4.93105 0.20145,5.20319 -0.0674,4.18655 -0.22698,5.25071 -0.0255,5.06524 0.76523,5.34833 -0.0237,5.03242 -0.22487,4.90728 -0.47509,4.61154 4.57973,0.25863 4.13782,0.0439 3.95916,-0.38803 4.16663,-0.72525 4.27173,0.43108 4.477,0.8202 0.27264,-3.41232 -0.44838,-4.08399 0.052,-3.26582 -4.24037,-1.06326 -4.38776,-0.22629 -4.2215,1.02174 -0.0201,-4.35529 0.12288,-4.14501 -0.0638,-4.3881 0.0959,-4.14006 0.2483,-4.26606 3.84649,-0.72901 4.20737,0.35796 3.86965,-0.19417 0.0283,-4.8859 -0.0976,-5.0743 -4.0607,0.0356 -4.11731,-0.0258 -3.70548,0.26079 -0.2216,-4.93241 v -3.68004 l 0.73415,-4.22979 -0.49888,-4.65753 0.19324,-3.90533 4.43079,0.0861 3.7991,-0.1572 4.58028,0.11647 0.22405,-3.55182 -0.34,-3.73834 0.2514,-3.52567 -4.24857,0.0658 -4.46734,-0.0448 -4.41703,-0.35562 -4.48794,-0.55455 -4.21375,0.33546 z"
       id="path18" /><path
       id="path17"
       style="fill:#ffffff;stroke-width:1.6831"
       d="m 854.45679,230.35008 -4.32533,0.40269 -4.91572,-0.005 0.92703,5.38548 -0.0173,4.90019 -0.0757,4.91497 0.3164,5.14719 -0.0912,4.8306 -0.0942,4.97236 -0.052,5.00977 0.58001,5.13851 0.53927,4.99932 -0.33399,4.80364 -0.3967,4.58446 -0.33472,5.16458 -0.25486,5.16981 -0.23053,4.98976 -0.54263,4.64795 4.18513,-0.60535 4.51063,0.51925 4.42004,0.50531 -0.0237,-4.6114 -0.0829,-4.69406 0.27574,-4.36007 0.0355,-4.74884 -0.20008,-5.51162 -0.1515,-3.86866 -0.1649,-4.74101 3.71906,-0.25832 3.95215,0.0975 0.16498,5.06803 -0.0356,4.66014 0.29844,5.3194 -0.33408,4.70013 c 0.0255,1.52003 0.0319,2.82438 0.0943,4.15915 0.0419,1.28116 0.2967,2.78714 0.46515,4.20002 0.16663,1.39106 0.46862,2.91824 0.78638,4.5749 l 4.36598,0.10266 4.17574,0.004 3.86701,-0.42443 c -0.28978,-1.61949 -0.63479,-3.27829 -0.77936,-4.63751 -0.27957,-1.54237 -0.23737,-3.18125 -0.25213,-4.40269 -0.0173,-1.29658 0.19907,-1.91711 0.19907,-3.45379 l 0.40801,-4.41399 -0.0593,-4.64098 -0.54009,-4.78624 c 0.0173,-2.11397 -0.39752,-4.03575 -1.05492,-5.44899 -0.715,-1.54767 -1.2519,-2.19432 -2.43881,-2.86411 -1.22592,-0.69167 -3.07935,-1.2794 -4.81491,-1.2794 1.70813,0 3.82143,-0.17411 5.05929,-0.87671 1.8465,-0.52314 2.07056,-1.77128 2.58576,-3.21545 0.52121,-1.46135 0.67316,-3.59616 0.67316,-5.74038 l 0.46963,-4.53576 -0.11786,-4.99497 0.12798,-4.60968 -0.35587,-4.88627 c -0.0219,-1.61843 0.21932,-2.82289 -0.19297,-4.03304 0,-1.12129 -0.52632,-2.3877 -1.53348,-3.2633 -0.24392,-0.74752 -2.15031,-1.34971 -3.6486,-1.75429 -1.32756,-0.35851 -3.0736,-1.24897 -4.50353,-1.24897 l -4.71846,0.0722 -4.65576,0.11748 z m 11.18143,10.13694 0.29662,5.24896 -0.0538,4.77146 0.45658,5.2498 -0.42003,4.46271 -0.32624,5.15588 -3.10323,0.36183 -4.44091,0.0809 0.23226,-4.93757 0.10765,-4.95325 0.13637,-4.96193 -0.44009,-5.89603 -0.0976,-4.45662 4.02415,0.30529 z" /><path
       style="fill:#ffffff;stroke-width:1.60184"
       d="m 1064.281,172.64829 c -1.3838,0 -1.9616,0.42926 -2.8841,0.9385 -0.4633,0.58664 -1.4806,1.53941 -2.0682,2.59553 -0.5484,0.98594 -1.2193,1.91275 -1.2193,3.38805 l 0.016,4.98147 0.6592,5.08729 0.2492,4.93771 -0.2474,4.796 -0.2877,4.9059 -0.098,5.1668 0.082,5.06985 -0.3874,4.624 c 0.016,1.6013 0.7763,2.95076 1.2444,4.00194 0.9488,0.99143 0.9466,1.70061 1.6413,2.20883 0.8202,0.6001 1.862,0.67602 3.3605,0.67602 l 3.5279,0.3111 c 1.4673,-0.0513 2.5206,-0.78195 3.4755,-1.41535 0.9552,-0.63339 1.9699,-1.0522 2.3851,-2.3126 l 1.4127,3.57011 4.7936,0.18657 -0.2551,-4.76966 -0.016,-4.02894 -0.059,-4.48094 0.2562,-4.02636 -0.2467,-5.20764 0.069,-3.50737 -3.9636,0.006 -4.3567,-0.1481 0.2543,4.66674 0.4238,4.43 -0.4091,4.17972 0.2973,4.72369 -2.3446,0.028 -3.2038,-0.0869 0.022,-4.63563 -0.022,-4.70966 0.022,-4.62299 -0.1262,-4.83754 0.1758,-4.38468 -0.018,-4.76555 -0.017,-4.65634 0.2794,-4.44008 2.2167,-0.43927 2.5476,0.25445 0.5206,4.93189 -0.032,4.93891 -0.6296,4.557 4.0812,-0.0941 4.242,0.35197 -0.016,-4.03424 -0.044,-4.005 0.4491,-3.78603 -0.386,-4.13133 c 2e-4,-1.5276 -0.1885,-2.75657 -0.6496,-3.77507 -0.4233,-0.98332 -1.2883,-2.32152 -2.2333,-2.84171 -0.9289,-0.51127 -1.9699,-0.25631 -3.3414,-0.25631 l -3.0581,-0.0503 -2.6243,0.12556 z"
       id="path15" /><path
       style="fill:#ffffff;stroke-width:1.60184"
       d="m 1030.6247,172.5973 -0.017,4.75086 0.076,5.15499 -0.025,3.93149 0.017,5.7711 0.3764,4.90933 -0.034,4.83018 0.034,4.94045 0.1112,4.88385 -0.07,4.82369 0.022,4.95481 -0.3762,4.6852 4.4028,0.0291 3.7211,-0.38018 -0.022,-5.00643 -0.2668,-5.50954 0.461,-4.56008 -0.1863,-5.29003 -0.183,-5.08575 -0.2022,-5.25926 0.6128,-4.81703 -0.4331,-5.09772 -0.669,-5.13788 0.4438,4.35751 0.4571,4.39922 0.7168,5.14334 0.5915,4.55547 0.5803,4.57119 0.581,4.59634 0.6189,4.51102 0.4751,4.32622 0.7279,5.06455 0.8035,4.62282 3.8452,-0.0769 3.7882,-0.24614 4.2668,0.33023 0.093,-4.75598 -0.094,-5.05086 -0.1414,-4.94388 -0.1279,-5.0013 0.7731,-4.53803 v -4.88522 l -0.02,-4.79855 0.1364,-4.83652 -0.3175,-5.12984 -0.2682,-5.4015 0.052,-3.98792 -4.2132,-0.0312 -4.4271,-0.31377 0.1026,4.81427 0.1481,5.17397 -0.022,4.5917 0.1397,5.33807 0.3559,5.11191 0.5347,4.97839 0.6987,4.89275 -0.3761,5.1049 -0.2352,5.02028 -0.7215,-5.08831 -0.2728,-4.73122 -0.8451,-5.35481 -0.5881,-4.72505 -0.7016,-5.96889 -0.3758,-3.89166 -0.3416,-5.15003 -0.6843,-4.81803 -1.4114,-5.24954 -3.9905,0.0404 -3.9981,0.0191 z"
       id="path14" /><path
       style="fill:#ffffff;stroke-width:1.60184"
       d="m 1020.5271,172.84052 -0.3911,4.86181 0.7552,4.8018 -0.1212,4.82796 -0.079,4.90659 -0.1897,4.32605 0.032,5.47656 0.016,4.8387 -0.1731,4.71326 -0.016,4.9825 0.3224,4.96984 -0.5892,4.74353 4.3973,-0.0177 3.6839,-0.15181 0.545,-4.69719 -0.068,-5.03361 0.273,-4.6047 -0.2077,-5.58851 -0.069,-4.3469 -0.1989,-5.15566 -0.016,-4.50078 0.4551,-4.66265 -0.2187,-5.08456 -0.4331,-5.30353 -0.057,-4.51118 -4.0259,0.1205 z"
       id="path13" /><path
       style="fill:#ffffff;stroke-width:1.60184"
       d="m 975.67161,172.12628 0.0602,3.84124 -0.0492,3.88123 3.53447,0.28486 2.69878,-0.26177 0.0829,5.12608 -0.15487,4.73052 0.47582,5.61861 -0.23982,4.37596 0.27957,5.88085 -0.0757,4.9519 -0.26927,4.43545 -0.0237,5.71228 0.0164,4.88129 4.1545,0.15299 4.01176,0.0336 -0.13463,-5.2873 0.15487,-4.80369 0.0374,-5.12644 v -5.11583 l 0.40846,-4.87532 -0.32551,-5.73005 0.0911,-4.59393 -0.16489,-5.8988 0.11439,-4.20245 3.38481,0.002 2.7202,-0.12607 -0.0301,-3.86364 -0.0912,-4.44572 -4.11357,0.13398 -4.04667,0.19227 -4.15514,0.13195 -3.91723,0.18327 z"
       id="path12" /><path
       style="fill:#ffffff;stroke-width:1.60184"
       d="m 965.89211,172.40062 -0.14302,4.2098 -0.1246,4.85686 0.22925,5.5398 -0.0164,4.81632 0.3854,5.14012 -0.0912,3.99799 0.11613,5.60237 0.42359,4.87924 0.11112,4.98078 -0.48995,4.57889 0.0173,5.03328 3.68625,-0.5451 4.19953,0.3967 -0.0401,-4.90745 0.10437,-4.71119 v -4.96318 l -0.0401,-4.92729 0.0943,-4.72112 0.0839,-4.91531 0.37099,-4.743 0.0419,-4.98061 -0.27482,-5.01771 -0.35122,-5.03447 -0.17556,-4.84915 -3.97675,0.17113 z"
       id="path11" /><path
       style="fill:#ffffff;stroke-width:1.60184"
       d="m 964.22382,172.2781 -0.0638,4.97414 -0.18924,5.01446 -0.31339,4.72829 0.20692,4.50418 -0.0164,5.25688 -0.14813,4.98643 -0.0702,4.72248 -0.2493,5.07036 0.28294,4.52282 0.26589,4.69633 0.22907,4.6635 -3.91932,0.19285 -4.16882,0.35341 -0.0419,-5.05807 0.0875,-5.84697 -0.0738,-4.37392 0.0875,-5.2167 0.26982,-5.58972 0.072,-4.92335 v -4.81342 l 0.052,-5.16028 0.10273,-5.22013 -0.44136,4.62146 -0.45823,4.61359 -0.45249,4.60248 -0.47764,4.62657 -0.72002,4.80334 -0.3102,4.08535 -0.34328,4.87925 -0.39761,4.68471 -0.19671,4.39272 -0.44447,4.79718 -3.36784,0.0438 -3.19284,-0.25387 -3.45763,0.24798 -0.39843,-4.59973 -0.30364,-4.74795 -0.39132,-4.47531 -0.46689,-4.53254 -0.39952,-4.66095 -0.54619,-4.57991 -0.89941,-4.5541 -0.59998,-4.56692 -0.34319,-4.46827 0.34328,-4.79566 0.0556,4.80677 -0.5039,5.61038 0.1876,4.26725 -0.16326,5.94716 -0.43708,4.9425 0.21293,5.19089 0.15651,5.0502 0.39907,5.07326 0.42177,4.58777 -5.00633,0.26488 -3.11782,-0.0101 -0.28449,-4.65597 0.0675,-5.10081 0.0219,-4.77992 -0.0926,-4.75684 -0.0283,-4.89361 -0.62267,-4.84745 0.27965,-5.13738 0.13974,-4.59101 0.14813,-5.02096 0.17993,-4.8377 0.0975,-4.73547 4.36798,0.051 4.53653,0.004 4.1587,0.084 -0.18413,4.84728 0.45494,4.44725 0.50909,4.65565 -0.10938,4.92625 0.12288,4.73358 0.30345,4.77378 v 4.62112 l 0.96376,4.56469 0.60927,4.83291 1.03605,4.40367 -0.10601,-4.62813 0.34739,-4.77734 -0.0638,-4.48828 0.66314,-5.22184 0.4967,-4.44743 0.0164,-4.38092 0.48622,-4.86369 0.62121,-5.23464 0.62558,-4.37358 0.5369,-4.68044 4.41502,0.0956 4.05323,0.18717 z"
       id="path10" /><path
       style="fill:#ffffff;stroke-width:1.60184"
       d="m 893.58907,172.46527 -0.0675,4.79685 0.52213,5.10575 -0.13136,4.51769 0.33536,5.20062 -0.1515,4.5741 -0.17273,4.09544 -0.26891,5.3714 0.55367,5.24063 0.1381,4.97448 -0.31895,4.7953 -0.33307,4.81394 3.21024,0.0564 3.0386,-0.11092 0.60508,-4.98044 0.52659,-5.09276 0.51739,-5.25157 0.63443,-5.03139 -0.0383,-5.11858 -0.15824,-5.17688 -0.34082,-5.24215 -0.32989,-5.19619 v -4.73308 l 0.4555,4.6353 0.24146,4.05834 0.4225,5.00232 0.39889,4.61684 0.2947,4.31904 0.44482,4.86096 0.4792,4.62829 0.31202,4.41512 0.60744,4.82693 0.44383,4.59171 3.562,0.16612 2.96878,-0.15737 3.93911,-0.0663 0.43672,-4.51973 0.25987,-4.78112 0.30683,-4.54419 0.32769,-4.59494 0.39935,-4.53377 0.30062,-4.71273 0.30026,-4.69582 0.21813,-4.84557 0.40363,-4.24314 0.35914,-4.64162 -0.10437,4.89686 -0.0693,5.26832 0.50781,5.2596 -0.12287,4.91191 0.18112,5.4514 -0.33043,4.48486 0.47783,5.7581 -0.36726,4.92077 -0.4246,5.06372 4.15414,0.008 4.07575,-0.0151 0.0893,-4.77138 v -4.93412 l -0.0264,-5.8581 -3.7e-4,-3.87167 -0.15651,-5.1102 0.0993,-4.53478 0.26817,-4.7794 -0.12625,-5.09601 -0.0959,-4.97822 -0.072,-4.99072 -0.0912,-4.70743 -4.10947,0.13549 -4.67736,0.0344 -4.30855,0.1301 0.21749,4.83394 -0.5347,4.37391 -0.43727,4.81069 -0.27802,4.72489 -0.20044,4.73684 0.18495,4.65101 -0.20656,4.91226 -0.57426,4.64691 -0.48995,4.69017 -1.41717,4.1281 0.0556,-4.60778 -0.5719,-5.21448 -0.45896,-4.39255 -0.23098,-4.44536 0.0711,-4.63154 -0.50882,-4.82985 -0.39068,-4.50861 -0.65093,-5.44868 -0.36069,-3.91218 -0.29999,-4.53223 -4.35495,0.0684 -4.69796,-0.26749 z"
       id="path9" /><path
       id="path8"
       style="fill:#ffffff;stroke-width:1.60184"
       d="m 878.66442,171.7323 -2.99995,0.56969 c -1.3838,0 -2.52176,0.35966 -3.44424,0.86887 -0.91609,0.51291 -1.20897,1.37849 -1.67175,2.39617 -0.46288,1.01757 -1.11855,2.15997 -1.11855,3.68775 l -0.13472,4.71405 0.24493,5.34201 0.0501,4.91584 0.11103,5.02977 0.16663,5.035 0.34829,4.96976 -0.54117,4.30004 -0.17739,5.49075 c -0.0164,1.51076 0.0757,2.50714 0.52869,3.51815 0.34201,0.77993 1.73793,1.98113 2.73834,2.55619 0.93533,0.5378 2.07238,0.97847 3.4096,0.97847 l 2.85429,-0.40529 2.80452,0.0118 3.19921,0.1957 c 1.28499,-0.0101 2.33791,-0.34546 3.21644,-0.85932 0.83853,-0.58381 1.52728,-1.98024 1.98606,-2.97106 0.46524,-1.00466 0.75958,-1.51095 0.75958,-3.04935 l 0.1649,-4.86366 -0.0875,-5.30809 -0.10939,-4.92192 0.51584,-4.54533 -0.19689,-5.35592 -0.19288,-4.94976 -0.0656,-4.84277 -0.0337,-4.95932 c 0,-1.52822 -0.0839,-2.77344 -0.5492,-3.79212 -0.31657,-1.01499 -1.42017,-2.31478 -2.41857,-2.83104 -0.95073,-0.49177 -1.94431,-0.53665 -3.29447,-0.53665 l -2.48403,0.30529 z m 1.43211,7.8269 2.66041,0.34442 v 4.81755 l 0.19224,4.97671 -0.0356,4.64013 -0.0419,3.8269 0.0501,5.82648 -0.10428,4.45573 0.0592,5.22547 0.0392,4.86712 -2.63051,-0.0851 -2.52176,0.0101 -0.0374,-4.85147 -0.072,-4.96541 0.338,-4.6436 -0.13974,-5.06457 v -4.53837 l 0.0926,-4.76102 -0.13135,-4.92279 0.53425,-4.77927 z" /><path
       style="fill:#ffffff;stroke-width:1.60184"
       d="m 851.97933,172.53318 c -1.3839,0 -3.09621,-0.16562 -4.01887,0.34353 -1.1241,0.23205 -1.06121,1.51037 -1.47669,2.64442 -0.39423,1.07525 -1.2447,2.04182 -1.2447,3.52892 l -0.10099,4.8365 0.0237,5.13944 0.18021,5.09908 -0.16663,4.58316 0.3276,5.43688 -0.0419,4.87068 0.10264,5.08456 -0.17365,4.90832 c 0,1.52498 0.24521,2.79947 0.70371,3.81678 0.4822,1.01646 0.93915,1.14647 1.84896,1.6546 0.91718,0.51217 2.10154,1.02177 3.49072,1.02177 l 3.3271,0.1392 2.83998,0.12875 3.08226,0.12287 c 1.3766,-0.005 2.57117,-0.22937 3.49036,-0.74116 0.96659,-0.47743 2.39934,-1.23872 2.84837,-2.26833 0.44774,-1.02727 -0.2309,-3.08104 -0.2309,-4.60693 l 0.0875,-4.15543 0.0301,-4.19955 0.46434,-4.00023 -0.49615,-4.4905 -4.11257,-0.005 -4.16854,-0.0688 -0.0839,4.10227 v 4.04006 l 0.0164,4.56298 0.101,4.30588 -2.61346,-0.51599 -1.90666,0.72213 0.0556,-4.71975 0.14138,-4.76676 0.36835,-4.9683 -0.39898,-5.26149 0.0164,-4.3782 -0.38896,-5.69639 -0.0857,-4.00483 0.14129,-4.87497 2.21612,-0.18441 2.72002,0.36538 -0.15314,4.05322 -0.0656,4.24929 -0.22032,3.56515 0.0593,4.54367 4.01568,-0.39594 4.28695,0.26971 -0.0201,-5.05395 0.0164,-3.85338 0.0538,-3.89183 0.76041,-4.1192 c -0.24694,-1.58513 -0.34037,-2.83248 -0.91145,-3.87647 -0.29433,-1.02601 -1.54788,-2.84647 -2.63734,-3.37762 -0.99704,-0.48607 -2.11649,0.17322 -3.43922,0.17322 l -2.84773,0.1604 -3.20824,-0.0976 z"
       id="path5-8" /><path
       d="m 846.50155,124.64379 -0.2009,4.48542 0.64928,5.16819 -0.21156,4.38469 -0.17538,4.81102 -0.0237,4.88995 0.15815,4.85056 -0.26134,4.31818 0.35158,5.198 -0.28221,4.6131 4.65958,0.0961 4.34429,-0.0394 4.49605,-0.0551 -0.24119,-3.7003 0.0237,-2.78644 -2.83934,0.2089 -3.39693,0.19566 0.0219,-5.20953 0.0474,-5.20935 0.89896,-5.21341 -0.36106,-6.06574 -0.11276,-4.42086 -0.22551,-5.22903 0.25896,-5.01532 -3.8,-0.19477 z m 20.11001,-0.76484 c -1.77275,0 -3.12766,1.11061 -4.01394,2.02494 -0.88629,0.91433 -1.37469,2.28118 -1.37469,4.10998 l -0.0283,4.92114 -0.0319,5.62646 0.0237,5.36114 -0.0602,4.78621 0.69878,6.04906 -0.35276,5.23736 c -0.0693,1.76883 0.59678,3.30378 1.46593,4.20327 0.86914,0.89949 2.50426,1.22513 4.27683,1.22513 l 3.38389,-0.38352 3.99371,0.42295 c 1.67366,-0.0509 2.77708,-1.31966 3.63848,-2.24679 0.86158,-0.92704 1.54204,-1.45334 1.54204,-3.28213 l 0.40153,-5.27991 -0.24146,-5.49719 0.22606,-4.90289 -0.25769,-5.62378 -0.133,-5.20581 -0.29387,-5.9212 c 0.1195,-1.49265 -0.41922,-2.98313 -1.27588,-3.81328 -0.85675,-0.83014 -2.22469,-1.55472 -3.99754,-1.55472 l -3.84895,-0.14088 z m 27.3558,0.56799 0.0538,4.6085 0.0237,5.13626 0.84736,4.90023 0.20692,4.6523 -0.30463,3.71698 -0.24019,5.66282 0.0164,4.92258 -0.29369,4.55599 0.19598,4.89296 3.30404,-0.0634 3.75525,0.0392 -0.13637,-4.47158 -0.26571,-4.68618 0.22369,-4.05979 -0.21257,-4.50173 3.31307,0.0978 3.25509,0.032 0.42477,-2.95475 -0.87079,-3.87111 -3.03896,0.31829 -3.30404,-0.0624 0.63944,-4.08374 0.32432,-4.04755 -0.81865,-4.73618 3.27807,0.0914 3.73902,0.28212 -0.20892,-3.14043 -0.15487,-3.74429 -4.52623,0.27972 -4.40399,0.34786 z m 15.47321,0.32227 -0.20691,4.46716 0.60425,5.17973 -0.14138,4.35932 -0.16325,4.75072 -0.0456,4.86404 -0.0173,4.7495 0.13637,4.76952 -0.35049,4.20946 0.062,4.94812 4.13362,0.36625 2.88182,-0.77869 v -4.76811 -4.56024 l 0.60271,-4.409 -0.18595,-5.03696 0.3657,-4.30293 -0.25495,-4.99191 -0.24995,-5.44042 -0.31375,-4.11885 0.74382,-4.25911 -3.43485,0.12825 z m 19.91057,-0.10317 0.21576,4.84383 0.0857,4.76117 -0.0164,4.66703 0.4977,4.85519 0.36789,4.772 0.30445,4.63615 0.33043,4.89527 -0.68119,4.86724 -0.95428,4.49925 4.26689,-0.0815 4.29187,-0.18207 4.62176,0.35242 c 1.64769,-0.0954 2.98592,-0.54303 3.84093,-1.48121 0.85512,-0.93818 1.0665,-2.84533 1.0665,-4.6741 l 0.0319,-3.5494 0.0556,-3.46107 -0.052,-3.7684 c 0.062,-1.68674 -0.34994,-2.98721 -1.13203,-3.86613 -0.7821,-0.87882 -1.86501,-1.28294 -3.28335,-1.28294 1.41816,0 2.45795,-0.5809 3.23822,-1.50847 0.78046,-0.92759 1.48462,-2.06023 1.48462,-3.88901 l 0.101,-4.78867 0.0556,-4.88162 c -0.16982,-1.94158 -0.70288,-3.37453 -1.63164,-4.31695 -0.92886,-0.94249 -1.48143,-1.29499 -3.25418,-1.29499 l -4.49278,0.0586 -4.80616,-0.177 z m 20.39341,-0.005 0.0173,4.76279 0.0756,4.81882 -0.0392,4.62766 -0.0337,4.65336 -0.12789,4.49765 0.062,5.12883 -0.0164,4.69699 -0.0501,4.54962 0.0693,4.90253 5.28134,0.11025 4.0629,-0.15064 5.0324,0.32852 -0.35732,-3.59799 0.71519,-2.47804 -3.79773,-0.11276 -3.84868,-0.13381 0.0419,-4.09543 -0.0255,-4.12097 0.0839,-4.00322 3.36393,-0.0303 3.31061,-1.0812 0.0173,-2.41049 -0.16663,-2.67579 -3.21736,0.21136 -3.10104,0.21018 -0.16836,-4.23306 -0.12451,-4.28519 -0.0711,-4.29778 3.44414,-0.008 4.04977,0.42401 -0.12789,-3.07145 -0.0538,-2.9707 -4.10118,0.12539 -5.56155,-0.33919 z m 19.2384,-0.1062 -0.33581,4.91246 -0.28221,4.81777 0.17465,4.72996 -0.21102,5.00186 -0.56288,4.73936 -0.40691,4.81583 -1.16002,4.35241 -0.50435,4.84364 -1.59746,4.12115 3.38516,0.0258 3.79482,0.45028 0.77389,-4.52782 -0.29051,-4.69875 4.24256,0.14205 0.0976,3.78047 0.48002,5.29518 3.74395,0.12438 3.6001,-0.006 -0.69304,-4.93374 -0.4482,-4.49765 -0.57536,-4.83904 -0.33626,-4.59413 -0.23208,-4.91335 -0.86104,-5.17104 -0.52778,-4.30594 -0.45886,-4.61665 -0.72166,-4.88533 -4.59095,0.22529 z m 12.22414,-0.0135 0.0811,2.9129 0.0164,2.8588 2.63115,0.20007 2.91691,0.36662 0.0775,5.27551 -0.0738,4.45932 0.0976,5.98435 -0.0829,5.11534 -0.29388,4.72254 -0.0164,5.41097 0.0893,5.5291 3.48298,-0.0354 3.42473,-0.11125 0.0355,-5.19567 0.0538,-5.20208 0.0456,-5.21182 0.0693,-5.18771 0.33526,-5.00273 -0.23527,-5.74067 -0.21375,-4.92628 2.72522,0.0547 2.47162,-0.22085 0.0656,-2.9599 0.12953,-2.90296 -4.52777,-0.25504 -4.2782,0.10199 -4.4822,0.0572 z m 25.12811,0.36484 c -1.7728,0 -3.6672,0.23438 -4.5535,1.14872 -0.8864,0.91432 -1.2567,2.35674 -1.2567,4.18553 l -0.027,4.34159 0.1482,4.37066 0.4267,4.38504 c -0.3064,1.68028 0.4273,3.02374 1.178,3.8704 0.7507,0.8468 1.9353,1.43726 3.59,1.43726 l 2.7939,-0.0837 2.6755,-0.46667 0.6245,4.80766 -0.3884,3.73348 0.096,5.45036 -3.484,-0.17975 -0.2376,-4.69362 -0.2414,-4.81599 -3.6031,-0.008 -3.6296,-0.51239 1.0192,5.02952 -1.1439,4.74346 c 0.069,1.94281 0.8601,3.5634 1.7637,4.50633 0.9038,0.94295 1.863,1.13168 3.6359,1.13168 l 3.6505,0.0247 3.7914,0.12539 c 1.7149,-0.0368 3.076,-0.49223 3.9478,-1.41582 0.8718,-0.92355 2.0051,-2.30104 2.0051,-4.12983 l -0.3814,-4.81972 -0.1915,-4.3093 -0.1955,-4.7518 c 0.016,-1.601 -0.4659,-3.04217 -1.2909,-3.86913 -0.825,-0.82698 -2.0304,-1.14906 -3.685,-1.14906 l -2.8542,0.0712 -3.0476,0.0135 0.3098,-4.26516 0.493,-4.16548 -0.8132,-4.5982 3.7965,-0.0118 0.6571,4.65248 -0.1414,4.50989 3.6161,0.11344 3.7107,-0.14036 -0.4532,-4.60922 -0.022,-4.19367 c -0.1297,-1.92456 -0.6234,-3.32949 -1.5421,-4.26781 -0.9187,-0.93827 -1.727,-1.35196 -3.4997,-1.35196 l -3.8174,-0.0197 z m 19.8863,-0.16594 -0.4045,4.40401 -0.045,4.95308 0.5305,5.03536 0.069,4.60123 -0.101,4.15483 -0.1686,5.02757 -0.049,4.69877 -0.022,5.01744 0.3945,4.84117 3.2122,-0.18545 3.2151,-0.60382 -0.1195,-4.93358 0.3087,-3.55029 -0.028,-4.29156 0.4394,-3.9603 2.9315,-0.76762 3.2114,0.63907 0.4891,-2.96593 -0.2606,-3.02303 -3.4595,-0.19101 -2.8664,0.11545 -0.4137,-4.80482 0.048,-3.82658 -0.1531,-4.38379 3.4799,0.13313 3.2446,-0.081 -0.034,-3.11311 0.1464,-2.9044 -4.4797,0.002 -4.256,0.11158 z m 20.3798,-0.0584 c -1.7726,0 -3.1473,0.36154 -4.034,1.27589 -0.8865,0.91431 -1.4508,2.09106 -1.4508,3.91986 l -0.1145,5.0359 0.1499,5.66068 0.032,5.29995 -0.03,5.07156 -0.05,5.39786 0.6092,5.72842 c -0.2106,1.73117 0.017,2.87724 0.8469,3.76717 0.834,0.88994 2.3597,1.53885 4.1326,1.53885 l 3.6487,-0.38761 4.5249,0.51803 c 1.5153,-0.0728 2.4978,-1.18737 3.3198,-2.11981 0.8219,-0.93254 1.8193,-1.5022 1.8193,-3.3309 l -0.047,-5.30457 -0.2644,-6.01273 -0.034,-4.6851 v -5.5525 l 0.047,-5.00417 -0.1161,-5.42888 c 0.044,-1.77488 -0.5421,-3.33338 -1.4175,-4.2343 -0.8753,-0.90089 -1.8918,-1.06934 -3.6645,-1.06934 l -3.9121,-0.0101 z m 15.3254,0.0658 0.3909,4.88906 -0.3154,4.08107 0.1028,5.23434 -0.1448,3.89557 0.087,5.64969 0.3196,4.69521 -0.1974,4.67164 -0.2065,4.70231 -0.2744,4.07114 3.5936,0.35663 3.6703,0.42185 v -4.60883 l 0.2102,-4.55742 -0.27,-4.97188 0.138,-4.24299 5.0538,-0.0618 -0.3201,3.67655 -0.2623,3.76167 -0.4031,3.15994 c 0.054,1.54908 0.2323,2.88806 0.3268,4.09046 0.094,1.20249 0.2368,2.34947 0.503,3.78207 l 3.4023,-0.11563 3.628,0.0926 c -0.3307,-1.46145 0.057,-2.47929 -0.04,-3.62174 -0.098,-1.1425 -0.5852,-2.35302 -0.5852,-3.63309 l 0.3208,-3.95021 -0.4962,-4.08939 c 0.04,-1.76918 0.2335,-2.95208 -0.5542,-3.85159 -0.7878,-0.8995 -2.5778,-1.54055 -3.9962,-1.54055 1.4182,0 2.9401,-0.22137 3.7431,-1.12961 0.8028,-0.90823 0.7506,-3.02941 0.7506,-4.8582 l 0.037,-3.53272 -0.101,-3.84113 0.2336,-3.16471 c -0.016,-1.84387 0.1094,-2.99766 -0.7807,-3.91578 -0.8906,-0.91812 -2.7912,-1.59414 -4.5639,-1.59414 l -4.6041,-0.47836 -4.1855,0.0922 z m -87.7717,5.60234 0.69021,4.46768 0.0392,4.17436 0.3132,4.87239 0.15824,3.60064 0.22533,5.50995 -2.94571,0.0501 0.27975,-4.5567 0.35677,-4.48577 0.43809,-4.54429 0.18987,-4.6147 z m -37.74949,-0.0499 4.31338,-9.1e-4 0.3277,4.33769 -0.28914,3.91987 0.0556,4.75054 -4.58101,-0.43591 0.68429,-3.99896 -0.25833,-4.39939 z m 132.47499,-0.0118 4.2989,-0.17066 0.9063,4.90929 -0.2702,4.91016 -0.5683,4.65034 -4.5192,-0.28729 -0.1448,-5.16696 0.1919,-4.13409 z m -199.63807,0.41143 3.40449,-0.0851 -0.0356,5.06356 v 5.02562 l -0.16489,4.84063 0.0857,5.59648 0.24529,5.15332 -0.16325,5.02614 -4.43207,-0.21003 0.28513,-5.03341 0.10765,-5.00346 -0.12788,-5.26838 -0.1649,-5.15509 -0.0994,-5.21572 z m 179.59347,0.0796 3.9327,-0.0845 0.1195,5.21681 0.311,5.14868 -0.1754,4.86689 -0.1448,4.5324 0.2194,6.00387 -0.3997,4.98729 -4.4946,-0.23158 6e-4,-5.26769 0.049,-4.89525 -0.1414,-5.49789 0.056,-4.73015 0.3228,-4.95805 z m -166.57137,15.5273 0.32852,2.84125 -0.78839,2.93079 3.76154,0.15636 3.05628,-0.2188 3.93227,0.13263 -0.34665,-3.12181 0.0164,-2.69282 -3.50176,-0.97508 -3.30559,0.65594 z m 54.10479,1.23509 4.74718,0.3203 -0.205,4.51131 -0.096,4.7518 -0.10263,4.61044 -4.44109,-0.15282 0.60617,-4.59486 0.11786,-4.49605 z"
       stroke-width="0.803817"
       id="path6-3"
       style="fill:#ffffff" /><path
       style="fill:#ffffff;stroke-width:1.60184"
       d="m 1018.5874,172.12628 -0.06,3.84124 0.048,3.88123 -3.5345,0.28486 -2.6987,-0.26177 -0.083,5.12608 0.1549,4.73052 -0.4758,5.61861 0.24,4.37596 -0.2797,5.88085 0.076,4.9519 0.2693,4.43545 0.024,5.71228 -0.016,4.88129 -4.1545,0.15299 -4.0116,0.0336 0.1346,-5.2873 -0.1548,-4.80369 -0.037,-5.12644 v -5.11583 l -0.4087,-4.87532 0.3257,-5.73005 -0.091,-4.59393 0.165,-5.8988 -0.1145,-4.20245 -3.3851,0.002 -2.7202,-0.12607 0.0301,-3.86364 0.0911,-4.44572 4.1136,0.13398 4.0467,0.19227 4.1553,0.13195 3.9171,0.18327 z"
       id="path26" /><text
       x="1005.1236"
       y="316.85162"
       fill="#ffffff"
       font-family="Didot"
       font-size="9.57941px"
       font-weight="bold"
       stroke="#101010"
       stroke-linejoin="round"
       stroke-width="0.484893"
       xml:space="preserve"
       id="text6"
       style="fill:#ffffff"><tspan
         x="1005.1236"
         y="316.85162"
         font-family="'Courier Prime'"
         font-weight="normal"
         stroke="none"
         stroke-width="0.484893"
         id="tspan6"
         style="fill:#ffffff">hyperblam.how</tspan></text></g></svg>
