<?xml version="1.0" encoding="UTF-8"?>
<!-- Created with Inkscape (http://www.inkscape.org/) -->
<svg width="140.08mm" height="180.82mm" version="1.1" viewBox="0 0 140.08 180.82" xmlns="http://www.w3.org/2000/svg">
 <g transform="translate(492.65 -674.95)">
  <g fill="#fff">
   <g transform="matrix(.035664 0 0 .035664 -446.07 726.05)">
    <path d="m700.46-1248.9c-0.88412-0.023-1.8144 0.045-2.7921 0.202-6.616 1.067-8.9593 4.5095-12.621 18.54-3.614 13.845-13.72 46.458-20.656 66.655-3.3611 9.789-8.3342 26.472-11.051 37.076-2.7169 10.604-6.9187 25.508-9.3374 33.12-5.7134 17.982-8.6965 30.86-11.796 50.917-3.7645 24.362-4.1662 30.633-2.2024 34.404 3.185 6.1171 11.804 7.8061 16.051 3.146 0.9814-1.0765 2.7421-1.9585 3.9129-1.9585 3.657 0 19.111-4.8295 31.999-9.9989 12.547-5.0338 40.395-14.91 40.788-14.467 0.2447 0.277 3.8016 12.153 6.2828 20.978 1.3154 4.6786 2.3589 6.3728 5.0245 8.1561h5.1e-4c1.8504 1.2387 4.237 2.2526 5.3036 2.2526 3.7514 0 7.6086-3.2698 9.786-8.2966 2.1252-4.906 2.1291-5.0471 0.46354-15.382-0.9245-5.737-4.9914-26.892-9.0377-47.011-9.0126-44.813-8.5808-42.032-12.904-83.049-3.1428-29.816-4.096-35.905-8.4336-53.883-2.6896-11.147-5.5938-23.32-6.4534-27.051-2.2041-9.5682-6.1391-14.188-12.328-14.35zm-1.848 63.272c0.0835-0.012 0.16186 0.013 0.22893 0.079 0.2683 0.267 1.3746 9.117 2.4582 19.668s2.2177 20.629 2.5203 22.396c0.30216 1.7686 0.40115 3.2142 0.21859 3.2142-0.1823 0-3.8107-3.7752-8.0631-8.3891l-7.7318-8.3892 4.5589-13.115c2.5074-7.2128 4.7822-13.734 5.055-14.492 0.20461-0.5685 0.50453-0.9359 0.75499-0.972zm-16.177 47.018c0.76292 0.072 4.3519 3.6195 8.3313 8.2667 4.2449 4.9551 7.566 9.1167 7.3804 9.2485-0.186 0.1297-5.4899 3.8064-11.787 8.1696-14.932 10.346-13.995 9.9055-12.863 6.0399 0.5206-1.777 2.5554-9.4605 4.5217-17.073 1.9662-7.6121 3.9022-14.192 4.3026-14.619 0.025-0.027 0.0633-0.037 0.1142-0.033zm23.808 30.83c1.0524 0.03 2.0348 1.7903 2.4789 4.8312 0.377 2.583 2.4438 12.864 4.593 22.849 2.149 9.9841 3.9078 18.548 3.9078 19.032l-5.1e-4 -6e-4c0 0.4837-0.38514 0.8801-0.85577 0.8801-2.395 0-14.438-7.2552-24.808-14.944-6.4185-4.7595-12.539-9.2778-13.6-10.041-1.797-1.2913-0.95975-2.0475 12.168-10.99 7.7537-5.2812 14.36-10.026 14.682-10.542 0.46307-0.7441 0.9562-1.0884 1.4345-1.0748zm640.36 7.0528c-7.0049 0.016-13.76 6.8691-28.832 26.292-5.523 7.12-14.171 17.786-19.217 23.706-15.589 18.288-21.96 27.953-35.802 54.312-8.615 16.406-20.285 36.441-29.624 50.859l-5.4064 8.3452-1.9239-2.4138c-1.058-1.327-7.9596-14.454-15.337-29.17-14.562-29.048-22.294-41.645-37.344-60.844-10.346-13.197-13.611-15.716-20.374-15.716-4.5229 0-10.574 3.2297-12.677 6.766-4.4586 7.499-11.373 51.116-12.718 80.232-0.5299 11.468-1.7371 26.727-2.683 33.91-1.4306 10.86-1.7396 22.044-1.8356 66.446-0.098 45.628-0.4282 57.039-2.267 78.503-1.1833 13.814-2.1637 32.721-2.1787 42.019s-0.4523 23.578-0.972 31.734c-2.915 45.755-2.6499 50.502 3.0861 55.295 5.944 4.9668 14.436 3.827 19.139-2.5683 2.5826-3.51 6.1643-38.622 7.6476-74.971 0.5879-14.409 2.1468-37.545 3.4638-51.411 4.8289-51.12 12.355-99.812 13.029-151.76 1.8981-15.226 3.5794-28.089 3.7367-28.585 0.472-1.489 8.1995 8.253 15.672 19.758 9.311 14.336 21.164 38.1 23.281 46.678 2.315 9.3825 6.1578 13.204 13.921 13.842 19.287 0.289 24.597-14.417 34.049-27.488 3.9-5.156 10.481-14.543 14.626-20.862 9.816-14.962 16.372-24.055 38.036-52.757l17.895-23.708 0.2341 5.4182c2.5099 58.01 1.8644 111.17-1.8081 172.5-1.0407 17.377-1.3417 38.978-1.8387 47.951-1.9831 35.805-0.9863 73.399 2.8045 105.79 1.1138 9.516 2.5043 25.309 3.0902 35.098 1.2772 21.336 1.7493 28.918 9.9245 28.918v-3e-3c2.7363 0 5.5967 2.2247 7.0073 2.2247 4.9071 0 11.274-4.1147 13.772-8.8987 2.306-4.417 2.319-4.6347 1.7912-30.648-0.2924-14.41-1.1907-32.269-1.9963-39.686-1.0671-9.824-1.5136-27.54-1.6444-65.252-0.1708-49.149-0.073-52.318 1.9384-62.643 3.9562-20.309 4.2225-23.711 5.0643-64.759 0.4628-22.566 1.434-48.147 2.1585-56.847 0.8959-10.758 1.2696-31.634 1.1679-65.253-0.236-77.988-2.2028-93.282-12.649-98.303-2.708-1.3018-5.0708-2.0564-7.4058-2.051zm76.698 7.2646a15 15 0 0 0-7.3949 2.3715 15 15 0 0 0-4.4881 20.732c11.733 18.217 26.025 33.038 38.494 47.607l0.2676 0.3122 0.2832 0.295c20.669 21.637 31.021 54.315 54.307 83.971 7.0935 12.075 16.585 20.437 24.049 27.867 7.4895 7.4557 12.525 13.649 14.59 20.189 1.1904 10.986-2.0733 21.46-8.1096 33.414-6.2247 12.327-15.218 25.413-22.053 40.441l-0.2263 0.49816-0.1897 0.51159c-23.445 63.463-59.198 123.22-88.137 187.64a15 15 0 0 0 7.5349 19.828 15 15 0 0 0 19.83-7.537c27.848-61.994 63.847-122.07 88.574-188.68 5.3155-11.634 14.024-24.484 21.445-39.18 7.4532-14.76 13.677-32.203 11.033-51.941l-0.1307-0.97461-0.2579-0.95137c-4.1773-15.44-14.126-25.949-22.738-34.521-8.6118-8.5729-16.16-15.702-20.025-22.752l-0.6036-1.0992-0.7752-0.98289c-18.803-23.82-29.311-57.773-55.946-85.936-13.171-15.385-26.351-29.29-35.996-44.265a15 15 0 0 0-13.338-6.8596zm-759.27 18.864c1.8434-0.027 6.7334 3.0734 13.3 8.4878 8.757 7.221 19.755 14.916 26.212 18.342 3.2646 1.7323 5.5505 3.3791 5.0798 3.6633-0.4708 0.2821-4.2157 1.4954-8.3225 2.6939-4.107 1.1994-13.354 4.5508-20.55 7.4471-7.196 2.8973-16.204 6.1903-20.019 7.3189h5.1e-4c-8.5496 2.5297-8.3656 2.5345-7.7303-0.1721 0.2873-1.222 1.6551-8.0073 3.0396-15.076 2.9435-15.03 7.1299-31.243 8.3902-32.496 0.135-0.134 0.3361-0.2018 0.59945-0.2057zm-686.57 8.9751c-4.2761 0-5.3324 0.4418-8.4367 3.5249-3.3395 3.316-3.6312 4.1335-4.9392 13.842-0.7645 5.675-2.7398 18.548-4.3899 28.608-5.6516 34.455-6.2204 54.128-2.6246 90.79 0.8176 8.335 1.953 25.908 2.5228 39.052 0.57 13.143 1.717 32.127 2.5492 42.187 0.8322 10.059 1.9153 36.086 2.4071 57.837 0.49172 21.75 1.147 41.327 1.4568 43.502 0.6413 4.506 3.068 45.269 4.5346 76.175 0.8842 18.631 1.3064 21.891 4.0375 31.143 1.6776 5.6834 3.399 11.925 3.8251 13.87 1.0473 4.7811 1.6411 5.5653 5.8989 7.799l-5.17e-4 -2e-3c8.447 4.43 15.918 1.0336 19.503-8.8666 1.7402-4.805 1.7867-6.342 0.69505-23.088-3.9155-60.053-6.401-107.6-6.9453-132.85l-0.62322-28.9 4.978-0.94154c10.263-1.9427 16.501-2.0424 37.832-0.60307 27.752 1.8738 74.808 1.9343 85.122 0.10956 4.1067-0.72851 7.6436-1.1651 7.86-0.97048 0.21635 0.192-0.11215 12.705-0.73019 27.807-2.5241 61.668-2.1837 120.43 0.86352 149.06 1.6206 15.227 1.5499 15.015 6.1154 18.3 4.6031 3.3112 9.1982 3.8197 13.686 1.5162 3.3735-1.733 8.4659-9.3865 9.9431-14.942 0.71228-2.679 1.0613-25.708 1.0387-68.895-0.0172-35.77 0.49204-75.655 1.1353-88.91 0.78853-16.249 0.89064-32.536 0.31523-50.241-1.3573-41.771-1.0581-64.899 1.0299-79.589 1.3625-9.588 1.6699-15.741 1.2082-24.223-0.882-16.206-7.3538-64.274-12.202-90.634-0.6225-3.384-5.1016-7.9898-9.0181-9.2738-7.2677-2.382-15.378 2.7438-16.874 10.665-0.4029 2.132 0.70274 17.127 2.6768 36.304 3.9961 38.819 4.3591 58.235 1.5343 82.104-1.5624 13.202-1.7877 20.337-1.3622 43.117l0.51005 27.297-9.5891 0.63613c-5.274 0.35004-33.558 0.90138-62.853 1.2268-36.831 0.408-55.007 0.97232-58.915 1.8247l-5.6519 1.2351-0.55862-4.547c-1.2848-10.456-2.6351-29.653-3.5548-50.538-0.5392-12.246-1.9627-30.932-3.1631-41.525-3.0269-26.711-2.8688-50.94 0.54777-83.889 1.4305-13.795 2.5993-27.365 2.5993-30.155-3e-3 -9.7444-5.4457-15.948-13.993-15.948zm-82.759 0.1349a15 15 0 0 0-12.121 8.8362c-25.247 56.944-57.942 112.23-80.445 173.62-9.5751 21.218-34.455 47.609-29.588 84.432l0.1266 0.9648 0.25219 0.93948c3.8736 14.505 13.098 24.359 20.953 32.281s14.597 14.403 17.984 20.662l0.5917 1.0976 0.76739 0.98237c16.889 21.678 26.428 52.953 50.858 79.139 11.988 14.187 23.906 26.938 32.583 40.588a15 15 0 0 0 20.707 4.6116 15 15 0 0 0 4.6111-20.707c-10.737-16.889-23.765-30.568-35.061-43.941l-0.26562-0.31419-0.28112-0.29714c-18.502-19.623-27.909-49.626-49.217-77.139-6.5538-11.265-15.246-19.016-21.975-25.803-6.7193-6.7771-11.092-12.276-12.91-17.973-2.0198-20.022 14.974-39.908 27.299-67.367l0.22117-0.49609 0.18552-0.50746c21.249-58.279 53.706-113.25 80.025-172.61a15 15 0 0 0-7.6326-19.793 15 15 0 0 0-7.6698-1.203h2e-3zm1112.7 23.302c-0.643 0.024-1.2722 0.092-1.8794 0.2056-4.7226 0.879-10.797 6.7629-12.843 12.44-0.882 2.447-5.8588 15.814-11.059 29.704-5.2006 13.889-11.972 33.689-15.048 43.996-3.0759 10.308-7.1075 23.413-8.9591 29.123-2.904 8.956-9.51 31.402-20.515 69.702-9.864 34.33-20.911 112.84-21.157 150.36-0.1228 18.716 0.38269 20.779 5.918 24.177 6.215 3.8146 15.522 1.4798 18.691-4.6865 0.7808-1.519 1.7331-7.211 2.1162-12.649 1.292-18.346 7.2326-61.426 12.626-91.567l3.1166-17.419 8.5096-1.1818c9.361-1.3 21.164-3.9051 45.79-10.106 9.2415-2.3271 16.561-3.7074 16.994-3.205 0.4179 0.486 1.7679 7.5581 2.9998 15.714 3.281 21.725 10.457 60.101 14.42 77.117 1.8995 8.156 4.4208 19.946 5.6027 26.2 2.5824 13.662 9.5127 35.18 12.374 38.419 1.1336 1.283 2.9574 2.7009 4.0525 3.1502v3e-3c3.3841 1.3902 9.5091 1.0254 12.528-0.74518 3.7506-2.2 7.1094-9.2751 7.6476-16.107 0.5-6.357-3.3098-28.117-10.213-58.333-8.084-35.381-15.601-79.227-18.901-110.24-2.578-24.233-6.4141-44.162-21.409-111.23-4.3164-19.303-9.0386-42.216-10.493-50.916-3.0442-18.204-4.528-23.029-8.324-27.065-2.9147-3.0978-8.0833-5.0313-12.584-4.8596zm-669.02 25.629c-2.5622 0.1204-5.0727 0.9258-7.2569 2.545-5.2565 3.898-6.2619 6.499-10.214 26.43-3.938 19.857-11.376 49.072-14.994 58.892-2.973 8.068-8.1844 16.86-13.425 22.648-10.281 11.356-22.057 12.677-30.263 3.3957-3.781-4.277-10.333-17.191-16.223-31.976-2.4908-6.253-7.7358-18.934-11.656-28.177-3.9441-9.301-7.9782-20.647-9.0325-25.405-1.0479-4.728-2.4428-9.7695-3.1001-11.202-1.388-3.0241-7.4436-6.4001-11.481-6.4001-6.9991 0-13.216 6.6636-13.216 14.165 0 5.917 3.7142 22.608 7.3758 33.147 15.557 44.779 26.3 71.29 32.858 81.086 5.206 7.7753 10.318 11.971 18.458 15.143 11.24 4.3825 29.762 1.8081 43.449-6.0374 9.288-5.325 21.954-18.414 26.715-27.605 0.9415-1.8188 1.8584-3.153 2.0371-2.9662 0.1789 0.186-0.50943 5.1827-1.5296 11.103-1.0202 5.921-2.3512 17.265-2.958 25.211-0.6068 7.947-1.9866 21.121-3.066 29.278-1.0794 8.156-2.3905 20.837-2.9135 28.177-2.5286 35.49-3.2272 42.866-5.1036 53.882-3.888 22.828-10.151 39.494-21.185 56.37-8.578 13.121-17 21.241-22.03 21.241-5.62 0-12.861-10.905-15.83-23.843-0.8257-3.598-2.145-15.612-2.9316-26.694-1.1431-16.107-1.9246-21.64-3.8948-27.567-6.2825-18.899-8.3156-22.036-15.1-23.299-7.6667-1.429-12.942 2.505-15.874 11.837-1.7543 5.583-1.7623 6.4259-0.18913 19.278 0.9049 7.391 2.1016 21.33 2.6598 30.976 1.223 21.138 3.7014 31.962 10.412 45.476 8.152 16.418 16.437 24.779 28.285 28.543l5.2e-4 -2e-3c9.908 3.147 22.247 1.8846 30.68-3.1383 10.161-6.053 17.256-13.817 30.751-33.647 13.561-19.927 19.898-35.498 25.277-62.11 3.5854-17.739 4.5365-25.884 6.4756-55.44 0.8384-12.778 2.399-30.797 3.4675-40.041s2.6403-24.593 3.4928-34.11c0.8525-9.516 2.213-21.082 3.0236-25.705 3.617-20.625 2.8359-54.535-2.0495-88.98-1.3496-9.516-2.655-18.766-2.9011-20.556-1.1662-8.481-9.3136-14.284-17-13.922zm87.789 7.8853c-3.7308-0.053-7.4985 0.2219-11.321 0.818-14.707 2.295-23.303 8.2568-29.123 20.198-6.061 12.436-8.4536 38.803-8.4837 93.564-0.0281 48.37 2.2084 214.22 3.0432 225.67 0.6878 9.437 2.0658 12.208 7.7975 15.679l-1e-3 -3e-3c3.9346 2.3812 6.6774 2.3527 11.557-0.11989 6.8514-3.471 7.1458-4.777 8.5804-38.054 0.70319-16.314 1.4079-53.796 1.5663-83.295l0.28784-53.633h2.4252c4.52-3e-3 15.463-3.1542 22.573-6.4988 14.159-6.662 27.189-19.085 42.961-40.96 8.6275-11.965 15.275-25.11 18.324-36.23 3.0719-11.206 3.0636-30.995-0.0186-43.356-4.276-17.15-7.8973-22.711-22.264-34.187-16.262-12.99-31.737-19.364-47.904-19.592zm384.42 23.624c-4.1052 7e-3 -8.5714 3.5367-9.6888 7.659-1.6877 6.23-3.2895 153.21-2.0877 191.56 1.5418 49.202 2.7872 70.611 4.4225 76.005 2.454 8.0973 7.6862 14.885 13.719 17.797 5.718 2.7607-0.0571 4.9225 22.208 6.4415l-5.1e-4 -7e-3c16.709 1.1395 20.82 1.1838 39.907 0.43666 16.652-0.6528 16.858-0.68749 19.573-3.3843 4.0538-4.0256 3.8769-9.9312-0.41703-13.915-1.7387-1.6124-4.4966-3.6179-6.1288-4.4555-3.741-1.9231-18.005-3.2069-36.038-3.2561-11.878-0.0295-14.021-1.8994-20.897-3.4577-3.1387-0.7108-6.2484-4.1214-7.4672-8.1886-2.5891-8.63-3.9663-49.82-4.8839-146.08-0.9211-96.626-1.199-106.08-3.2789-111.52-1.1526-3.0133-5.3213-5.6348-8.9416-5.6348zm-247.94 11.108c-17.689-0.16313-27.913 1.363-36.434 5.2358-14.403 6.546-19.264 15.811-19.224 36.639 0.24856 128.35 0.11854 149.85-0.99736 165.02-0.68013 9.246-1.2608 28.598-1.2909 43.008-0.0467 22.511 0.20874 27.221 1.8138 33.444 3.26 12.639 10.925 20.747 21.573 22.82v-0.0124c2.4395 0.47485 4.7102 0.91251 5.0462 0.97151 5.113 0.907 30.35-8.6841 43.591-16.567 5.1461-3.0635 10.914-6.4947 12.816-7.6243 4.3884-2.6075 6.1212-5.7255 6.1655-11.094 0.078-9.3931-4.8926-13.307-16.848-13.307-6.4812 7e-3 -8.5297 0.48046-14.975 3.4634-4.1064 1.9005-10.155 5.0692-13.44 7.0414-7.1494 4.2934-8.8562 4.4331-11.177 0.91932-1.5417-2.334-1.7653-5.1832-1.7653-22.492 0-18.45 0.73082-43.515 2.112-72.466l0.57774-12.111h6.6198c7.597-0.0128 16.195-2.1768 31.706-7.9783 2.937-1.0981 5.3512-4.9591 5.9526-9.5219 0.762-5.7764-2.6472-10.014-10.01-12.445-5.5868-1.8405-6.1854-1.8565-13.186-0.32866-4.034 0.8809-10.415 1.8849-14.18 2.2329l-6.8461 0.63097-0.56173-36.957c-0.441-29.025-0.91867-38.657-2.2247-44.868-3.6028-17.136-3.1549-18.736 6.2306-22.268 4.811-1.811 9.189-2.3288 26.663-3.1616 23.055-1.0991 26.027-1.8259 29.354-7.1722 4.0866-6.566 1.381-16.034-5.3836-18.842-2.305-0.9566-9.7388-1.5977-23.623-2.0392-2.8485-0.0903-5.5278-0.14826-8.0548-0.17156zm69.042 0.90744c-3.6191 0.11986-6.7531 0.94577-8.8971 2.5234-4.5637 3.358-8.9909 9.9915-11.276 16.895-2.1393 6.463-2.214 8.299-2.9362 71.884-0.4076 35.888-1.198 70.369-1.7565 76.622-2.2429 25.115-1.0656 44.022 4.7413 76.128 1.6227 8.972 3.4853 19.629 4.1388 23.68 0.9401 5.8278 1.7698 7.9448 3.9744 10.134l-1e-3 2e-3c3.9712 3.9434 9.9263 3.8912 13.968-0.12299 2.6891-2.671 2.9076-3.4405 2.9006-10.134-5e-3 -3.984-1.1006-14.585-2.435-23.557-3.7237-25.037-4.8796-41.169-4.1791-58.332 0.8562-20.976 2.2127-32.141 2.6934-30.943 9.5849 23.873 14.955 41.709 18.128 63.57 1.2949 8.429 2.6545 18.439 3.021 22.245 0.3667 3.807 1.5237 10.609 2.5709 15.117 1.0475 4.507 1.9048 9.212 1.9048 10.455 0 3.5236 4.4216 7.0099 8.8904 7.0099 2.0903 0 4.6002-0.65663 5.5774-1.4599 2.7939-2.297 5.3993-8.9478 5.4219-13.849 0.092-18.785-11.241-92.551-25.035-123.37-4.7334-10.576-9.5444-4.5713 4.5026-19.614 17.507-18.748 24.698-34.977 24.731-55.803 0.017-10.982-2.4596-22.059-6.6838-29.892-3.618-6.706-17.239-20.299-24.165-24.11-6.3888-3.5172-13.768-5.2796-19.8-5.0798zm-200.61 0.17673c0.75228-9e-5 1.5016 0.053 2.2417 0.16175 10.718 1.573 25.139 12.119 29.608 21.651 2.019 4.307 2.3706 6.5853 2.3776 15.471 0.017 17.472-3.5976 26.702-17.822 45.515-10.157 13.434-18.593 21.203-28.678 26.414v-5.2e-4c-4.4291 2.2878-8.5443 4.1594-9.1452 4.1594-1.4426 0-1.4611-39.365-0.0305-64.758 1.3043-23.15 3.7757-36.894 7.5081-41.753 3.2716-4.2599 8.6742-6.86 13.94-6.8606zm296.56 0.8847c-6.9971 0.17292-13.654 1.6451-17.673 4.286-4.3429 2.854-9.1941 9.8718-10.889 15.75-2.0044 6.95-1.108 120.07 1.2537 158.2 2.2363 36.102 3.0305 43.524 6.9133 64.596 2.0116 10.916 2.5487 16.01 1.9182 18.195-1.3066 4.5236 1.2989 9.221 6.411 11.558v2e-3c5.129 2.3458 12.83 2.4569 18.049 0.26148 19.268-8.104 32.146-19.403 39.656-34.795 7.6185-15.614 10.61-32.736 8.6966-49.776-1.3243-11.792-3.5524-18.621-10.695-32.778-6.796-13.468-12.549-22.108-19.421-29.166l-5.2953-5.4369 7.5411-7.4156c6.1297-6.026 8.4898-9.2962 12.608-17.467 2.9363-5.826 5.7862-13.266 6.7784-17.694 3.5178-15.702-0.15244-40.815-8.1824-55.99-4.491-8.486-14.049-17.644-20.885-20.009-4.1021-1.4198-8.9403-2.1773-13.773-2.3151-1.0068-0.0287-2.0131-0.0304-3.0127-6e-3zm275.71 8.26c0.9594-0.29265 2.4456 6.3163 11.003 45.897 8.424 38.963 12.481 60.143 12.47 65.104-0.01 2.5188-0.2244 2.6266-5.7242 2.7053-7.451 0.1121-19.897 2.6273-39.399 7.9618l5.2e-4 -5e-3c-18.019 4.9295-16.597 4.6612-16.597 3.1383 0-3.98 35.095-119.27 37.849-124.33 0.1346-0.2475 0.2608-0.43 0.3979-0.47181zm-276.19 13.505c1.868 0.0294 4.2942 1.1952 7.5975 3.5714 8.0639 5.8 13.587 17.704 14.842 31.989 1.542 17.553-7.1931 36.551-20.101 43.716l-5.2e-4 1e-3c-2.5226 1.4-5.09 2.5414-5.7056 2.5414-0.8097-3e-3 -1.1188-10.927-1.1188-39.507 0-35.535 0.16628-39.668 1.6578-41.153 0.78773-0.78495 1.708-1.1767 2.8288-1.1591zm-87.835 5.8529c4.3228 0.15123 13.232 9.5059 15.754 16.721 4.3434 12.428 1.2282 29.912-7.4828 41.996-2.7261 3.7808-6.9794 9.0991-9.4521 11.817l-4.4964 4.9434 0.0418-33.12c0.0475-37.581 0.57044-41.814 5.2322-42.344 0.12953-0.0147 0.26415-0.0193 0.4036-0.0145zm84.106 107.01c1.8505 0.0781 13.657 12.347 17.609 18.391 5.8527 8.952 12.683 23.346 14.596 30.761 1.1995 4.65 1.5092 9.4053 1.218 18.686-0.3818 12.173-0.48084 12.636-4.4307 20.802-2.3187 4.7932-6.176 10.668-9.0542 13.789-5.6918 6.1718-12.987 10.835-13.641 8.7173-1.4375-4.658-3.8154-25.845-4.6405-41.344-1.4062-26.413-2.5161-69.335-1.804-69.771 0.0384-0.0235 0.0876-0.0335 0.14727-0.031z"/>
    <path class="transmit one" d="m668.98-1329.9c-1.6934-0.011-3.7412 0.4173-6.2472 1.263-6.431 2.171-17.093 10.755-21.769 17.526-10.987 15.908-10.971 38.334 0.0403 56.986 4.6821 7.9308 9.0356 12.68 13.997 15.269 3.7469 1.9565 3.9535 1.9603 7.5019 0.1385 5.563-2.857 4.672-8.5329-2.9037-18.497-2.2065-2.9009-5.2609-7.9313-6.7882-11.177-2.4631-5.233-2.7753-7.0174-2.7606-15.786 0.0141-8.4166 0.36009-10.533 2.327-14.229 3.434-6.454 10.907-13.882 16.72-16.62 6.4373-3.0305 8.264-6.4672 5.8756-11.054-1.3325-2.5592-3.1705-3.7979-5.9929-3.8163zm58.885 9.7374c-2.4848-0.087-3.3164 0.4434-5.0819 2.1968-5.0482 5.0131-2.5765 10.24 6.1547 13.011 12.771 4.055 20.146 12.93 20.146 24.244 0 6.303-2.4895 15.286-7.0058 25.282-3.9678 8.7821-3.6768 12.886 1.032 14.558h5.2e-4c8.151 2.893 16.258-6.9831 20.903-25.464 5.669-22.555-1.35-39.778-20.068-49.239-4.6178-2.3339-9.383-3.9239-12.949-4.3201-1.2915-0.1436-2.3033-0.2409-3.1316-0.2698z"/>
    <path class="transmit two" d="m643.67-1382.3c-2.8094-0.1919-6.1562 0.6878-10.432 2.6128-19.064 8.585-38.467 23.977-49.871 39.562-5.898 8.059-15.93 28.471-18.065 36.754-2.2936 8.899-2.5732 33.491-0.48835 42.956 1.462 6.638 14.961 43.988 18.181 50.304 3.626 7.113 11.824 18.214 15.513 21.01 1.9594 1.4836 5.839 3.9446 8.6212 5.4684v-6e-4c2.7822 1.5239 6.48 2.7885 8.2176 2.7885 3.7461 0.021 8.7856-3.8009 9.6805-7.3422 1.0567-4.183-2.9533-12.628-9.4785-19.961-7.147-8.033-12.474-18.492-19.822-38.921-7.8702-21.88-9.8152-37.407-6.3609-50.774 2.027-7.841 9.4081-22.84 14.862-30.196 8.882-11.982 26.343-26.731 39.345-33.233 7.7987-3.8999 8.95-5.1181 9.6351-10.19 0.4386-3.2473 0.0725-4.3504-2.3296-7.0197-2.126-2.3625-4.3984-3.6259-7.2078-3.8179zm140.35 3.0794c-0.58923-0.02-1.1436 0.016-1.6588 0.1122-4.9332 0.9192-8.4023 4.7974-8.3571 9.3415 0.0505 5.0963 1.951 7.8466 7.4874 10.832 9.862 5.318 21.722 23.1 28.055 42.062 9.5042 28.458 9.6006 35.266 0.82786 58.434-8.528 22.522-16.33 33.574-33.617 47.618-3.8472 3.1253-9.0063 8.135-11.465 11.132-4.0527 4.9413-4.4201 5.8226-3.9321 9.4366 0.3547 2.626 1.4271 4.7437 3.1445 6.2115h-5.2e-4c3.03 2.5877 9.6749 2.9468 15.606 0.8439 8.669-3.074 25.284-17.077 34.159-28.788 17.824-23.518 29.435-60.312 26.515-84.021-1.727-14.028-12.749-42.752-21.124-55.054-10.114-14.855-26.802-27.857-35.64-28.159z"/>
    <path class="transmit three" d="m822.67-1432.8c-5.485 0.072-9.6506 2.306-12.594 6.6807-5.2288 7.773-0.16304 17.857 9.909 19.727 8.24 1.527 22.73 11.832 37.624 26.753 7.4273 7.441 9.3052 10.096 15.162 21.441 7.6264 14.772 9.213 20.478 10.668 38.358 3.102 38.14-0.31677 54.602-19.12 92.051-4.3684 8.7-10.301 19.378-13.184 23.728-5.018 7.571-18.346 24.125-26.369 32.751-4.5692 4.9122-5.4624 8.3091-3.7346 14.199 0.9253 3.1539 2.2963 5.11 4.7454 6.7686 3.1333 2.1206 4.118 2.2733 10.911 1.6893 9.081-0.78 11.551-2.2952 24.392-14.954 12.146-11.976 19.373-23.026 33.34-50.982 18.361-36.749 22.392-51.308 22.272-80.43-0.203-49.032-6.0827-68.97-28.305-95.986-7.45-9.055-14.098-15.009-26.85-24.043-16.919-11.987-29.726-17.872-38.867-17.752zm-238.04 0.2465c-2.4721 0.032-5.3206 0.3732-8.5866 1.0102-9.155 1.786-18.455 5.9291-29.075 12.952-10.884 7.199-31.949 24.492-39.643 32.547-30.461 31.89-35.587 74.077-17.619 144.99 5.133 20.258 22.046 53.466 35.049 68.82 4.619 5.454 14.625 12.551 22.506 15.963 2.6251 1.1355 5.9856 2.92 7.4672 3.9641s3.5899 2.1276 4.685 2.4118c4.318 1.1139 12.387-2.413 14.503-6.3387 3.1882-5.917-1.0938-18.7-7.6988-22.984-12.031-7.802-23.104-22.348-35.339-46.416-6.6211-13.025-12.51-33.661-16.414-57.521-2.4701-15.095-2.5184-42.939-0.0899-51.906 3.523-13.007 8.9458-21.962 20.493-33.839 12.457-12.813 25.082-23.611 35.519-30.376 7.555-4.898 10.875-6.2959 17.61-7.4166 7.6185-1.269 12.248-9.4435 9.8506-17.391-1.77-5.8664-5.8009-8.5607-13.217-8.4661z"/>
   </g>
   <path transform="matrix(1.0214 0 0 1.0537 -807 819.16)" d="m308.51-102.31-0.11689 2.5292 0.37771 2.9142-0.1231 2.4724-0.102 2.7128-0.0135 2.7573 0.0918 2.7351-0.152 2.4349 0.2045 2.931-0.16421 2.6012 2.7105 0.05415 2.5271-0.02217 2.6154-0.03104-0.14035-2.0865 0.014-1.5712-1.6516 0.1178-1.976 0.11032 0.013-2.9375 0.027-2.9374 0.52293-2.9397-0.21005-3.4203-0.0661-2.4928-0.13116-2.9485 0.15067-2.828-2.2105-0.10982zm11.698-0.43127c-1.0312 0-1.8193 0.62624-2.3349 1.1418-0.51558 0.51557-0.79968 1.2863-0.79968 2.3175l-0.0162 2.7749-0.0184 3.1726 0.0141 3.023-0.0353 2.6988 0.40651 3.4109-0.20522 2.9532c-0.04 0.99739 0.34718 1.8629 0.85276 2.3701s1.4567 0.69082 2.4879 0.69082l1.9683-0.21626 2.3232 0.23849c0.97355-0.02864 1.6154-0.74412 2.1165-1.2669 0.50116-0.52273 0.89701-0.8195 0.89701-1.8507l0.23364-2.9772-0.14049-3.0997 0.13148-2.7646-0.14987-3.1711-0.0771-2.9354-0.17094-3.3388c0.069-0.84166-0.24389-1.6821-0.74222-2.1502s-1.2941-0.87667-2.3253-0.87667l-2.239-0.0794zm15.913 0.32027 0.0311 2.5986 0.0136 2.8962 0.49292 2.7631 0.12033 2.6233-0.17725 2.0959-0.13973 3.1931 0.0101 2.7757-0.17079 2.569 0.11392 2.759 1.922-0.03574 2.1844 0.02207-0.0788-2.5214-0.15458-2.6424 0.13016-2.2892-0.12371-2.5384 1.9273 0.05517 1.8935 0.01799 0.24705-1.6661-0.50652-2.1828-1.7678 0.17947-1.922-0.0352 0.37196-2.3027 0.18872-2.2823-0.4762-2.6706 1.9068 0.05151 2.175 0.15908-0.12146-1.7708-0.0897-2.1113-2.633 0.15773-2.5617 0.19614zm9.0008 0.18172-0.12033 2.5189 0.35145 2.9207-0.0824 2.4581-0.095 2.6788-0.0265 2.7427-6e-3 2.6781 0.0795 2.6894-0.20382 2.3736 0.0364 2.7901 2.4046 0.20652 1.6763-0.43908-4e-3 -2.6886 1e-3 -2.5714 0.35052-2.4861-0.10813-2.8402 0.21274-2.4263-0.14835-2.8148-0.14539-3.0677-0.18249-2.3225 0.43265-2.4016-1.998 0.0723zm11.582-0.0582 0.12555 2.7313 0.0498 2.6847-0.01 2.6316 0.28943 2.7377 0.21405 2.6908 0.17711 2.6142 0.19221 2.7603-0.39621 2.7445-0.55513 2.537 2.4821-0.04592 2.4965-0.10267 2.6885 0.19872c0.9585-0.05377 1.7369-0.3062 2.2343-0.83521 0.4974-0.52901 0.62041-1.6044 0.62041-2.6356l0.0191-2.0014 0.0322-1.9516-0.0303-2.1249c0.0362-0.9511-0.20351-1.6844-0.65848-2.18-0.45496-0.49554-1.0849-0.72341-1.9099-0.72341 0.82497 0 1.4298-0.32755 1.8837-0.85059 0.45394-0.52304 0.86364-1.1617 0.86364-2.1929l0.0584-2.7002 0.0326-2.7526c-0.0988-1.0948-0.40885-1.9028-0.94913-2.4342-0.54029-0.53146-0.8617-0.73022-1.8929-0.73022l-2.6135 0.033-2.7958-0.0998zm11.863-3e-3 5e-3 2.6856 0.0438 2.7172-0.0221 2.6094-0.0195 2.6239-0.0742 2.5361 0.036 2.892-5e-3 2.6485-0.029 2.5654 0.0397 2.7644 3.0722 0.06215 2.3634-0.08495 2.9273 0.18524-0.20783-2.0288 0.41598-1.3973-2.2091-0.06356-2.2388-0.07548 0.025-2.3093-0.0148-2.3237 0.0488-2.2573 1.9568-0.01708 1.9258-0.60966 0.01-1.3592-0.0969-1.5088-1.8715 0.11918-1.8039 0.11851-0.0974-2.3869-0.0727-2.4163-0.041-2.4234 2.0034-0.0047 2.3558 0.23909-0.0745-1.7319-0.0312-1.6751-2.3857 0.0707-3.2351-0.19126zm11.191-0.0599-0.19532 2.77-0.16422 2.7166 0.1016 2.6671-0.12277 2.8204-0.32734 2.6724-0.23676 2.7155-0.6747 2.4542-0.29343 2.7312-0.92926 2.3238 1.9692 0.01453 2.2074 0.25389 0.4502-2.5531-0.16903-2.6495 2.4679 0.08015 0.0568 2.1317 0.27919 2.9858 2.1779 0.0701 2.0942-0.0039-0.4031-2.782-0.26081-2.5361-0.3346-2.7286-0.1956-2.5905-0.13503-2.7705-0.50088-2.9158-0.30707-2.428-0.26686-2.6032-0.41984-2.7547-2.6705 0.12704zm7.1108-8e-3 0.0475 1.6425 6e-3 1.612 1.5305 0.11281 1.6968 0.20673 0.0447 2.9747-0.0433 2.5145 0.0566 3.3744-0.0477 2.8844-0.171 2.6629-9e-3 3.0511 0.0515 3.1177 2.0261-0.01994 1.9921-0.06274 0.0202-2.9297 0.0316-2.9333 0.026-2.9388 0.0399-2.9252 0.19504-2.8209-0.13684-3.237-0.12434-2.7778 1.5853 0.03088 1.4377-0.12453 0.0379-1.669 0.0753-1.6369-2.6339-0.14381-2.4886 0.0575-2.6073 0.0323zm14.617 0.20572c-1.0312 0-2.1331 0.13216-2.6487 0.64773-0.51558 0.51556-0.73098 1.3289-0.73098 2.3601l-0.016 2.4481 0.0859 2.4645 0.24823 2.4726c-0.1782 0.94746 0.24852 1.705 0.68517 2.1824 0.43665 0.47749 1.1258 0.81043 2.0883 0.81043l1.6252-0.04713 1.5564-0.26314 0.36317 2.7109-0.22587 2.1052 0.0556 3.0733-2.0266-0.10135-0.13823-2.6466-0.14038-2.7156-2.096-0.0051-2.1112-0.28892 0.5928 2.836-0.66537 2.6747c0.0403 1.0955 0.50033 2.0093 1.026 2.541s1.0836 0.63812 2.1149 0.63812l2.1236 0.01396 2.2054 0.07072c0.99749-0.02083 1.7893-0.27756 2.2964-0.79834 0.50715-0.52077 1.1664-1.2975 1.1664-2.3287l-0.2219-2.7177-0.11139-2.4299-0.11362-2.6794c5e-3 -0.90276-0.27107-1.7154-0.75099-2.1817s-1.1811-0.64792-2.1436-0.64792l-1.6603 0.0401-1.7727 0.0077 0.18018-2.405 0.28677-2.3488-0.47306-2.5928 2.2084-0.0066 0.38227 2.6234-0.0821 2.543 2.1035 0.06392 2.1585-0.07914-0.26348-2.599-0.0125-2.3647c-0.0754-1.0852-0.36259-1.8774-0.89702-2.4065-0.53443-0.52906-1.0046-0.76233-2.0358-0.76233l-2.2206-0.0111zm11.568-0.0936-0.23527 2.4833-0.0269 2.7929 0.30863 2.8393 0.0401 2.5945-0.0587 2.3428-0.0981 2.8349-0.0287 2.6495-0.0126 2.8292 0.22944 2.7298 1.8685-0.10458 1.8703-0.34048-0.0691-2.7819 0.17956-2.0019-0.0168-2.4199 0.2556-2.2331 1.7052-0.43284 1.8681 0.36035 0.28449-1.6724-0.1515-1.7046-2.0125-0.10771-1.6674 0.06509-0.24065-2.7093 0.0286-2.1577-0.0891-2.4719 2.0243 0.07504 1.8874-0.04567-0.0193-1.7554 0.0853-1.6377-2.6058 8.4e-4 -2.4758 0.0629zm11.855-0.0329c-1.0312 0-1.8309 0.20386-2.3466 0.71943-0.51571 0.51556-0.84394 1.1791-0.84394 2.2103l-0.0664 2.8396 0.0869 3.1919 0.0185 2.9885-0.0172 2.8597-0.0293 3.0437 0.35442 3.2301c-0.12256 0.97616 8e-3 1.6224 0.49273 2.1242 0.48507 0.50181 1.3726 0.86771 2.4038 0.86771l2.1225-0.21856 2.6322 0.2921c0.88144-0.04104 1.453-0.66952 1.9311-1.1953 0.47814-0.52583 1.0583-0.84704 1.0583-1.8782l-0.0274-2.9911-0.15381-3.3904-0.02-2.6418-4e-3 -3.1309 0.027-2.8217-0.0679-3.0612c0.0255-1.0008-0.31537-1.8796-0.82458-2.3876-0.50921-0.50798-1.1005-0.60297-2.1317-0.60297l-2.2756-6e-3zm8.9148 0.0371 0.22738 2.7568-0.1834 2.3012 0.0595 2.9515-0.0843 2.1966 0.0513 3.1857 0.18587 2.6475-0.11483 2.6342-0.12013 2.6515-0.15952 2.2956 2.0903 0.20109 2.135 0.23788-3e-3 -2.5988 0.12232-2.5698-0.1571-2.8035 0.0802-2.3925 2.9398-0.03486-0.18617 2.0731-0.15261 2.1211-0.23443 1.7818c0.0311 0.87348 0.13505 1.6285 0.1901 2.3065 0.055 0.67805 0.13781 1.3248 0.29251 2.1326l1.9792-0.06523 2.1104 0.05216c-0.19239-0.82407 0.0337-1.398-0.023-2.0422-0.0567-0.64422-0.34041-1.3268-0.34041-2.0486l0.18664-2.2274-0.2886-2.3059c0.0231-0.99759 0.13575-1.6646-0.32248-2.1718s-1.4995-0.86867-2.3245-0.86867c0.82497 0 1.7102-0.12483 2.1773-0.63696 0.46704-0.51213 0.43667-1.7082 0.43667-2.7394l0.0212-1.992-0.0587-2.1659 0.13587-1.7845c-0.01-1.0397 0.0638-1.6903-0.45421-2.208-0.51797-0.5177-1.6236-0.89889-2.6548-0.89889l-2.6781-0.26973-2.4348 0.052zm-51.057 3.159 0.40153 2.5192 0.0229 2.3538 0.18223 2.7474 0.0917 2.0303 0.13112 3.1069-1.7136 0.02829 0.16277-2.5694 0.20753-2.5294 0.25486-2.5624 0.11048-2.6021zm-21.959-0.02808 2.5091-5.72e-4 0.19062 2.4459-0.16816 2.2103 0.0321 2.6787-2.6648-0.2458 0.39813-2.2549-0.15028-2.4807zm77.061-0.0064 2.5007-0.09623 0.52725 2.7682-0.15714 2.7687-0.3307 2.6222-2.6288-0.16199-0.0847-2.9135 0.11167-2.3311zm-116.13 0.23199 1.9804-0.04802-0.0203 2.8552 4e-3 2.8338-0.0955 2.7295 0.0502 3.1557 0.14265 2.9058-0.0947 2.8341-2.5782-0.11843 0.16592-2.8382 0.0627-2.8213-0.074-2.9707-0.0957-2.9068-0.0578-2.941zm104.47 0.0449 2.2877-0.0476 0.0699 2.9416 0.18088 2.9032-0.10197 2.7443-0.0844 2.5557 0.1276 3.3854-0.23251 2.8122-2.6146-0.13058 3.5e-4 -2.9703 0.0286-2.7603-0.0826-3.1001 0.0323-2.6672 0.18777-2.7957zm-96.895 8.7554 0.19112 1.6021-0.45862 1.6526 2.1881 0.08818 1.7778-0.12337 2.2875 0.07477-0.20166-1.7603 5e-3 -1.5184-2.037-0.54983-1.9229 0.36987zm31.473 0.69644 2.7614 0.18061-0.11923 2.5438-0.0563 2.6794-0.06 2.5997-2.5834-0.08616 0.3527-2.5909 0.0688-2.5352z" stroke-width=".46036"/>
   <path transform="matrix(.8138 0 0 .8138 -842.62 912.54)" d="m435.8-212.25c-1.1522 0-2.1523 0.17394-2.9204 0.55799-0.92894 0.18966-0.90141 1.1271-1.249 1.9769-0.33045 0.80785-1.018 1.5526-1.018 2.6756l-0.0731 2.3988 0.0381 2.6121 0.16303 2.5829-0.14958 2.2208 0.34692 2.8192c-0.0737 1.0461 0.0579 1.9239 0.38368 2.6278 0.32718 0.70477 0.96457 1.2997 1.6725 1.6546 0.70851 0.35519 1.5024 0.47473 2.5782 0.47473l2.8927-6.3e-4 2.6934-0.44541-0.0994 2.3723 0.26989 2.909 8e-3 2.6336 7e-3 2.635 9e-3 2.6465-1.2511 0.0219-2.6081-0.55491 0.077-2.8004 0.0219-2.8314 0.35853-2.6914-2.4204-0.10588-2.4039-0.0556-2.4578-0.10017-0.0629 2.9216 0.0234 2.878 0.0436 3.2442c0.0143 1.1686 0.20244 2.1244 0.59284 2.8999 0.37843 0.76291 0.90032 0.99335 1.6776 1.3831 0.77161 0.3869 2.2206 1.0806 3.3686 1.0806l2.3208 0.038 2.3097 0.049 2.4364-0.17435c1.0213-0.014 1.7505-0.45388 2.4604-0.84416 0.54711-0.61825 1.3997-0.81322 1.8035-1.4942 0.42615-0.71867 0.4049-2.2373 0.4049-3.4205l0.0671-2.4346 0.30166-2.5051-0.18608-2.6155 0.16641-2.2071-0.29889-2.6931c0.0244-1.0475-0.1659-1.9539-0.51351-2.6585-0.37218-0.72775-1.0303-1.6756-1.7293-2.0239-0.71003-0.35379-1.5468-0.26786-2.6306-0.26786l-2.9611-0.27795-2.7443 0.18934-0.0188-2.9344 4e-3 -2.0917 0.0355-2.1187 0.60791-2.2783-0.33561-2.4618 1.6863-0.68263 1.8007 0.61385 0.13868 2.9163-0.0808 2.6854 0.26396 2.9239 2.1884-0.0277 2.5033 0.043 1.8448-0.1227-0.10449-2.9766 0.23503-2.5375-0.0644-2.8333c-0.0176-1.1678-0.10964-2.0487-0.50152-2.8237-0.29028-0.70553-0.84854-1.2735-1.6774-1.6819-0.78689-0.38779-1.5485-0.59542-2.6708-0.59542l-2.6196-0.40262-2.3313 0.16885zm14.504 0.18601 0.41256 2.9425 0.37042 2.9835-0.0622 2.5009-0.11284 3.0559 0.17497 2.9527-0.11411 2.8164-0.10153 2.4161-0.0683 3.407 0.0517 2.9343-0.15556 2.6477-0.17681 2.9058 0.33725 3.1706-0.32351 2.642-0.30353 2.8607 2.7406 0.013 2.7683 0.0201 2.8533 0.0388 2.4684-0.33347 2.8848 0.15201 0.43111-2.6326-0.44285-3.4073-2.2658 0.0882-2.257 0.19319-1.8369 0.36687-0.16486-3.028 0.225-2.7103-0.28785-3.1734-0.25044-3.4754 2.0859-0.0245 2.8542 0.36583 2.0376 0.35178-0.0755-2.7678-0.0802-2.8221-2.1771 0.0484-2.3151-0.0367-1.8909 0.027 0.26668-2.832 0.18567-3.043 0.14783-2.8881-0.82877-2.8522 2.3445 0.0311 2.1354-0.10296 2.2405-0.15783 0.19599-2.6933-0.10329-2.9127-2.8756-0.33146-2.6725 0.0365-2.7539 0.0759-2.8422-0.10216zm15.391 0.0574-0.0187 2.8589-0.0701 2.7698 0.12984 3.051 0.1245 2.8926 0.21471 2.9267-0.0508 2.7297 0.48937 2.9502-0.0431 2.9026-0.19208 2.7539-0.14679 2.9189-0.13016 2.8841-0.0726 2.9271-0.16904 2.8007-0.15176 2.813 2.2024-0.22431 2.4086 0.16803 2.2427 0.12357-0.0596-3.0306-0.0336-2.7697 0.42433-2.7761-0.0496-3.0288 0.19499-2.6388-0.19229-3.3322 0.44024-2.4125-0.0883-3.0563-0.10282-2.8839-0.0724-2.8685-0.1129-2.8883-0.038-2.8064-0.13445-2.9293-0.16823-3.572-2.2756 0.2341-2.4035 0.0568zm8.526-0.0481 0.20554 2.9562-0.26026 2.6887 2.3636-0.1211 2.4046-0.16829 2.3591 0.0527 2.7243 0.3412-0.89593 2.6988-0.81477 2.7771-0.46814 2.7507-1.1157 2.5782-1.025 2.7316-0.88112 2.7054-0.82493 2.7397-0.52586 2.6893-0.9249 2.9009-1.2249 2.6278-1.1948 2.5094-0.26153 2.2989 0.26985 2.5988 2.4162-0.32576 2.5993-0.0927 2.7465 0.0803 2.8215 0.10364 2.1661 5e-3 2.6288 0.13803 2.3686-0.46226 0.0637-2.5986 0.16697-2.5084-2.5403 0.0549-2.8148-0.16858-2.4844 0.0588-2.6908-0.0359 1.0466-2.5921 1.1606-2.7363 0.71437-2.8844 0.85806-2.4719 1.03-2.5967 0.98397-2.7571 1.1116-2.5387 0.72797-2.9114 0.71-2.843 0.7229-2.8672 0.7686-2.4276 0.16316-2.431-0.0638-2.5129-2.9015-0.47395-2.7747 0.14231-2.9824 0.0636-3.0297-0.26605-2.7834 0.0352zm19.164-0.34194-9e-3 3.1938-0.076 2.8098 0.0212 2.9776 0.0357 2.8831 0.0319 2.8765 0.0525 2.8929 0.24958 3.0184-0.0522 2.5284-0.0585 3.0623 1e-3 2.9248-0.14657 2.7232-0.0185 3.0023 0.0247 2.9141-0.11517 2.686 2.3472 0.077 2.2701 0.0451 2.2325-0.0583 3.4e-4 -2.8785 0.0516-2.8252-2e-3 -2.92 0.11865-2.8578 0.41818-2.8486 0.27249-2.8668 0.1909-2.7772-0.11407-3.0279-0.1612-3.1034 0.29854-2.5108-0.32814-3.506 0.0167-2.2538 0.10981-2.9946-0.73136-2.8021-2.1771 3e-3 -2.4332-0.024zm9.1954 0.36761 0.45045 2.865-0.15093 2.7187 0.17002 3.1605-0.10335 2.706-0.0718 2.9198 0.0196 2.9378-0.0279 2.8462 0.44687 2.8765-0.25807 2.7271-0.16162 3.0277-0.15502 2.742-0.18832 2.8707-0.13669 2.9426-0.0298 2.9613 2.2494-0.0203 2.4921 0.028 2.4992 0.0991-0.13229-2.997-0.15829-2.9167 0.3328-2.7234 0.15081-2.9356 0.0293-2.892 0.28434-2.9771-0.37441-3.0994-0.1006-2.6773-0.33896-3.0329 0.0389-2.8558-0.47303-2.9621-0.1786-2.6986 0.25738 2.6923 0.3636 3.0412 0.74422 3.0899 0.41233 2.7533 0.31769 2.4848 0.31489 3.0845 0.35831 2.8688 0.37293 3.0769 0.64637 2.9585 0.17507 2.7144 0.15975 2.5286 0.27285 2.8941 2.6472 0.12848 2.322 0.0893 2.8059 0.30127 2.1582-0.48658 0.13766-2.7582 0.40062-2.8402 0.25127-2.7938-0.11296-3.0708 0.2704-2.6862-0.28352-3.3046-0.0152-2.5016-0.11589-2.8908 2e-3 -2.7396-0.0972-2.9222-0.12211-2.8921-9e-3 -2.7461-0.0485-2.8866 0.11073-2.7582-2.234-2e-3 -2.6001-0.12422-2.4821-0.18151-0.0226 2.6241 0.15426 3.0486 0.0771 2.8016 0.0343 2.6482 6e-3 2.8698 0.3953 3.0954-0.0343 2.5673 0.12299 2.9563-0.0774 2.5577 0.45582 3.1831-0.24233 2.3115 0.29396 3.3623-0.40223-2.8126-0.55405-3.2925-0.35338-2.3839-0.40095-2.9795-0.34712-2.6131-0.46844-2.9008-0.50138-2.885-0.25432-2.615-0.38885-2.8644-0.41837-2.8458-0.0827-2.6737-0.91031-3.2692-2.3734 0.10262-2.6197-0.47714-2.3482 0.41067zm27.691-0.0889c-1.1522 0-2.0817 0.22599-2.8498 0.61004-0.78874 0.3648-1.3755 0.92605-1.7548 1.7013-0.37784 0.77238-0.64633 1.2864-0.64633 2.4364l8e-3 3.0406 0.0575 3.0847 0.0138 3.0134 0.16596 3.0841-0.11482 2.8073 0.0932 3.2932 0.58679 3.0039-0.25241 3.0434-0.2089 3.0592-0.3073 2.6536c0.0249 1.2735 0.32926 2.3871 0.72436 3.2091 0.48155 0.8752 1.0184 1.4339 1.739 1.8138 0.75543 0.39831 1.5831 0.47483 2.7625 0.47483l2.9465 0.09c0.81475-0.013 1.9342-9e-3 2.5609-0.22198 0.99499-0.088 1.0853-0.48645 1.4115-0.90504 0.35761-0.45886 0.79254-1.0656 1.0336-1.7284l0.47837 1.3275 1.0198 1.5965 1.6426-0.0704 1.9261 0.11807-0.13138-3.168-0.0245-2.4622-0.12483-3.0274 0.0292-2.5705 0.40216-2.6797-0.20425-2.9714-0.37425-3.1274-2.2734 0.0144-2.1347 0.19064-1.8649 0.17159-0.1807 2.4799-0.0105 2.8781-0.0962 2.0225-0.0683 3.3123 0.24063 2.7081-2.2349-8e-3 -2.1925 0.0396 0.1438-2.7382 0.0307-2.8492 0.12666-2.7509-0.0555-2.9385 0.17576-2.7961-0.18731-3.0934-6e-3 -2.5069-0.22276-3.1132 0.40048-2.4441-0.47497-2.9455 2.1014-6.3e-4 2.0858-0.12385 0.63141 2.8739-0.0846 2.8754-0.23022 2.7243-0.41325 2.5895 2.1836-0.27894 2.51 0.26145 2.2683 0.18805-0.0199-2.4407-0.0215-2.4166 0.011-2.4767-0.10737-2.6016 0.14895-2.0913c-2e-3 -1.154-0.0714-2.0927-0.45635-2.8616-0.26998-0.76379-1.0577-1.4239-1.884-1.8137-0.78965-0.3725-1.8451-0.70341-2.971-0.70341l-2.2962 0.0905-2.5628 0.12696zm19.54 0.0719-0.11289 2.7524-5.4e-4 2.7843 3.2524 0.12648 2.1197 0.0999 0.0916 2.9472 0.23549 2.9007-0.0665 2.708-0.0496 2.4863 0.20045 3.4813-0.0249 2.8004-0.16065 2.7223-0.079 2.8698-0.0434 3.0105-0.17632 2.6037-0.0181 3.1223 0.16933 2.9692 2.5872 0.0516 2.4779-0.0509 1.6761-0.0257 0.21524-2.7616-0.0803-3.0824 0.26829-2.7115-0.15131-3.1137 0.0134-2.7149-0.0495-3.5738 0.1349-2.1083 0.29389-2.9961 0.10108-2.762-0.3305-3.1509-0.23133-2.7752-0.24489-2.8794 2.5019-0.10987 3.0787 0.16487 0.0535-2.7403-0.46918-3.11-2.8614 0.0134-2.3476 0.0921-3.109 0.0327-3.2069-0.12073-2.9091-0.11188zm19.253 0.0697-0.43873 2.8801-0.0507 2.6387 0.40481 3.0541-0.0428 2.873-0.0705 2.7291 0.0402 3.0973-0.18673 2.53 0.0858 3.2384-0.0733 2.7624 0.16522 3.0096-0.27489 2.4937-0.0663 3.0863-0.0959 2.779 0.18876 3.0987 2.1062-0.58817 2.3919 0.29348 2.2989 0.26949-0.0667-2.6796 0.18061-2.3618 0.33787-2.6273-0.23301-2.8359 0.29236-2.3839 0.0178-2.6162-0.65525-2.5862 1.887 0.015 1.8364-0.037 0.0206 2.5961-0.0964 2.4624 0.14074 2.781-5e-3 2.5126 6.7e-4 2.5895 0.24127 2.7412-0.4025 2.1962 2.359 0.1093 2.7153 0.0819 2.0957 0.0736-0.0917-3.0704-0.0748-2.8553-8e-3 -2.7298-0.0139-2.9087-0.0415-2.8944 0.33712-2.7406-0.0398-2.9854-5e-3 -2.8516-0.13407-3.2756-0.0216-2.5192-0.0557-2.9189 0.27204-2.7767-0.23141-3.0427-0.17545-3.0268-2.233 0.0869-2.2759 0.0778-2.1053 0.1893-0.0257 2.8031-0.0292 2.1122 0.045 3.516-0.079 2.5533 0.0509 3.0936 0.0343 2.8426-1.9562-0.06-1.8692 7e-3 -0.032-2.8521-0.0599-2.9326 0.27246-2.7069-0.1456-3.0035-0.0138-2.631 0.0289-2.7876-2.3185-0.0182-1.7905 5e-3zm19.003-0.066 0.0103 2.888-0.0121 2.8386 0.27287 3.0027-0.0237 2.7748-0.0251 2.8804 6e-3 2.9065 0.46345 2.9968 0.43366 2.8921-0.19852 2.7603-0.24341 2.6097-0.19839 3.0181-0.14076 3.0206-0.12359 2.8949-0.34962 2.6543 2.6802-0.44692 2.9141 0.22102 2.8622 0.25614 2.5609 0.0751 2.7104 0.0211 0.2375-2.7151-0.0999-2.944-2.3312-0.57919-2.3244 0.22923-2.2824 0.1722-0.13649-3.1198-0.0677-2.8715 0.2025-2.5777 8e-3 -3.0841 2.4183 0.16648 1.9625-0.0751 2.2548-4e-3 0.10251-2.6618 0.0603-2.7057-2.1127 0.0719-2.2549-3e-3 -2.4706-0.29265-0.0844-3.0396 0.0149-3.1955 0.16602-2.387 0.29995-2.7805 2.356 0.0631 2.0013-0.12923 2.1759-0.17203 0.26196-2.6786-0.23354-3.0094-2.3034 0.13053-3.1827-0.0135-2.7901-0.23264-2.3898 0.24506zm-157.19 43.865 0.0498 2.9788 0.0492 2.8728 0.31345 3.0454 0.45007 2.8516-0.0114 2.9845-0.22354 2.463-0.11519 3.3464-0.0817 2.9733-0.22692 2.6907 0.06 3.268-0.13405 2.708-0.0766 3.1136-0.2086 2.5322-0.0815 3.2908 0.31299 3.208-0.19227 2.8494 2.5277-0.0373 2.5416-0.0545 2.7343 0.16209-0.0562-3.3584-0.16739-2.7152-0.0446-2.8452 0.52313-2.6476 0.0734-2.8925-0.0179-2.9622-0.13268-3.1498 0.1756-2.5701 0.0574-3.0422-0.16968-3.2158-0.20067-3.2287-0.18364-2.3928 0.0346-2.6944-0.0554-2.8884 0.13578 2.709 0.37898 3.137 0.26559 2.1053 0.26337 3.1052 0.21658 3.2686 0.25961 2.9758 0.35081 2.98 0.21777 2.801 0.32327 2.9855 0.45073 2.8893 0.11156 2.3513 0.30702 3.4047 0.17745 2.5217 0.31798 3.2401 2.3049-0.17274 2.5479 0.0332 2.3736-0.0129 2.669 0.18706 0.1391-3.3408 0.24599-2.4769 0.81364-2.8459 0.14336-3.0856 0.54133-2.6495 0.43352-2.8938 0.16578-3.0268 0.4912-2.7447 0.40146-2.9919 0.0714-2.9886 0.48631-2.8574 0.0126-2.9031-0.10992-2.9695-0.14287-3.115-0.1811 2.4603-0.0452 3.3187-0.14027 2.7758-0.16005 2.8217-0.0161 2.9185 8e-3 3.1942 0.38951 3.0591-0.0337 2.7584-0.0575 2.884 7e-3 2.4743 0.57654 3.4738-0.15913 2.933-0.22796 2.8638-0.34543 2.6084 2.7584 0.12955 2.6538-0.18071 2.7661 0.33684 0.0472-2.921 0.43528-2.9061 0.1895-2.887-0.16846-3.307-0.0909-3.2439-0.13188-2.8517-0.0145-2.5321 0.17468-2.8414-0.0148-3.041 0.26131-2.8143-0.13-3.1436-0.0987-2.9259-0.0163-2.8964 0.087-2.9043-0.30444-3.1176-0.15215-2.8573-2.4936 0.0635-2.8683-0.20891-2.4662 0.0512-2.7477-0.14651-2.3502 0.29172-0.39511 2.4839-5e-3 3.5564 0.22683 2.9865-0.39281 2.5975-0.1644 3.264 1e-3 2.9441-0.24929 2.9548-0.26846 2.9507 0.022 3.0222-0.5142 2.7884-0.40948 3.0381-0.49029 2.4039-0.56805 3.2762-0.31231 2.9832-0.25254-3.0047-0.40937-3.1558-0.23979-2.7064-0.17311-2.9117-0.34682-3.1295-0.055-2.7582-0.27238-3.4614-0.2741-2.5931-0.19612-2.8373-0.38383-3.4984-0.25597-2.4862-0.2959-3.1774-0.0932-2.601-0.28048-3.2689-2.7107-0.11093-2.5472-0.0661-2.4176 0.22833-2.5688 0.11761zm35.43-0.0173 0.29402 2.9156 0.0821 2.9711-0.0346 2.8992-0.19791 2.4849 0.0959 3.4437-0.0121 2.9414 0.17717 3.0422 0.17903 2.9098 0.29262 3.0611 0.15966 2.9494-0.38011 2.4019-0.22598 3.3339-0.16521 2.9887-0.36403 2.5874 0.15089 3.3756-0.0689 2.9706 2.6234-0.0186 2.5763-0.30886 2.6718 0.0376 2.5256-0.13314 2.6809 0.0373 2.6338 0.242-8e-3 -2.2633 0.0258-2.2128 0.0895-2.1838-2.6416-0.0169-2.7471-0.0473-2.605 0.0107 0.41619-2.5593 0.0433-2.8836 0.13803-2.589-0.37165-2.9579-0.3159-2.705 2.6662 0.0514 2.4597-0.35532 2.753 0.39636-0.20878-2.5049 0.48756-1.7769-0.43985-2.4205-2.6822-0.20008-2.3627 0.2318-2.1466 0.21228-0.1535-3.0702-0.22185-2.7916-0.11626-2.4567 0.0672-2.5854 0.13851-2.7424 2.8714 0.0906 2.3135-0.39976 2.7148 0.25441 0.0406-2.2105-0.0408-2.3182 0.44648-2.175-2.7638-8e-3 -2.7849-0.0292-2.5909 0.0752-2.804 0.0647-2.905-0.12009zm22.225-0.0374-0.34919 2.9769-0.31022 2.9576-0.20326 3.0564-0.43396 2.7411-0.39473 3.0426-0.23557 2.9753-0.43293 2.8915-0.53293 2.6056-0.0639 3.3447-0.35791 3.0111-0.54259 2.6064-0.45756 3.1276-0.37106 3.0277-0.35751 2.982-0.53979 2.3297-0.26926 3.5418 2.5362-0.11206 2.6599 0.05 2.529-0.0345 0.1851-2.5285 0.42162-2.3925 0.65049-2.4874-0.6139-3.1415 2.4065 0.10069 2.312 0.0837 0.21627 2.4152 0.3043 2.8485 0.26474 2.5801 0.0267 2.4677 2.8085 0.07 2.972 0.18013 2.4732-0.53943-0.48521-3.3785-0.2499-2.4353-0.0176-2.7802-0.41887-3.4784-0.35964-2.7306-0.45777-3.0234-0.30365-2.6562-0.31154-2.9419-0.34091-2.9135-0.44408-3.2949-0.41689-2.7268-0.17608-2.7457-0.3579-2.9459-0.31834-2.8749 0.10187-2.9372-0.44527-2.8945-2.9903-0.12765-2.8736 0.0461-2.9738 0.0116zm17.581 0.0437-0.13482 2.7649 0.14365 3.0584 0.33056 3.0924-0.20295 2.3516 0.339 3.4338 0.0168 2.9913-0.10217 2.7121-0.0249 3.1549-0.094 2.8876-0.16369 2.8375-0.14797 2.9286-0.10494 2.9925 0.0648 3.1342-0.0812 2.8166 0.0926 3.0758-0.0899 2.882 2.6849 9e-3 2.646-0.16562 2.7261 0.0822-0.0765-3.1366 0.075-2.6041-5e-3 -2.9045 0.0531-2.8878-0.22421-3.1436-0.23702-3.037-0.17749-2.7862-0.059-2.7968 0.14914-2.7142-0.23566-3.2518-0.0931-2.8453 0.26198-2.733-0.21774-2.9246-0.35338-3.1569 0.31439 2.5819 0.63219 3.3298 0.45819 2.8834 0.25917 2.3836 0.49956 3.4764 0.37096 2.8766 0.52398 3.0023 0.45781 2.9372 0.38416 2.8873 0.81946 3.1057 0.42099 2.8144 0.13232 2.675 0.25385 3.0716 0.51411 3.0662 2.6866-0.27933 2.9368-0.0392 3.0881 0.2459 2.6643 0.0154 0.0552-2.9071-4e-3 -3.084-0.10925-3.2973 0.3394-2.423-0.0977-3.1434 0.0187-2.8401-0.17624-3.3135 0.0183-2.6129-8e-3 -2.9601-0.14081-3.3508 0.2106-2.5124-0.0397-3.0173 0.10938-2.8306-6e-3 -3.005 0.49945-2.9082-0.73852-3.1237-2.4292 0.046-2.9956-0.40296-2.3271 0.53721 0.0419 2.8025 0.39388 2.8304-0.0422 2.5353 0.0936 3.1146 0.57824 2.7871-0.15428 2.6219-0.0522 2.9349-0.0557 2.8398 0.33234 2.8766-0.15112 2.6942-0.0711 2.9108-0.10874 2.7541-0.1399 2.7482 0.0419 2.8319-0.3775-2.8023-0.42881-3.145-0.42226-2.6592-0.21675-2.6349-0.46967-2.932-0.33155-2.6748-0.24691-2.7537-0.44402-2.9522-0.2634-2.7235-0.47968-2.9115-0.4988-2.8484-0.34657-2.6725-0.46895-2.8786-0.21277-2.7158-3.0644-0.2462-2.6808 0.18746-3.2527-0.0401zm32.808-0.0149c-1.0126 0-2.117-0.10679-2.8764 0.14633-0.8637 0.10898-1.1361 0.8179-1.6324 1.3589-0.21575 0.68083-1.0101 0.96936-1.3117 1.7014-0.30537 0.74108-0.38371 1.0997-0.38371 2.1103l0.0121 3.0466 0.0306 3.0589-6e-3 3.0128-0.0532 2.9724-0.11514 2.8398c0.0336 1.009 0.13663 1.8138 0.39176 2.5586 0.2219 0.69531 0.62387 1.3436 1.1307 1.8493 0.46424 0.42848 1.3958 1.0039 2.1138 1.2622 0.71474 0.25712 1.2105 0.22727 2.1404 0.22727l2.1176-0.25835 2.7393 0.17457 1.8208-0.51188 0.0214 3.1099-0.038 2.7816 0.0786 3.4684 0.36054 3.2074-0.21829 3.0462-2.2632-0.31702-2.1557 0.3061-0.017-2.6471 0.0949-2.573-0.15205-2.9591-0.0815-2.6129-2.7613-0.32617-2.1122 0.39935-2.8054 0.1879-0.0623 2.6216-0.14221 2.3767-0.0676 2.6908-0.0111 2.3908c3e-3 1.1104 0.24097 2.1055 0.49585 2.92 0.35512 0.82236 0.74517 1.5249 1.2113 2.0417 0.62134 0.61686 0.91229 0.48176 1.5954 0.72276 0.72929 0.25729 1.8033 0.85362 2.8668 0.85362l2.6449-0.34036 2.7332-0.0356 2.9455 0.37493c0.98693-0.0176 2.5-0.0904 3.245-0.3534 1.2821-0.15751 1.112-0.56352 1.4946-0.97597 0.49066-0.56846 0.67219-1.4907 0.85655-2.3579 0.16398-0.77134 0.20262-1.7169 0.20262-2.7401l0.10659-2.4178-0.10255-2.7756 0.23025-2.0937-0.0357-2.6759 0.33882-2.338-0.47395-2.903c0.0277-0.85382-0.22043-1.8966-0.44113-2.5541-0.34338-0.85805 0.0327-0.93497-0.3285-1.317 3e-3 -0.41279-1.2854-0.88672-2.2653-1.1262-0.76013-0.18581-1.4722-0.26744-2.3504-0.26744l-2.1811 0.0591-2.2446 0.0476-2.6275-0.67603 0.0103-2.9154-0.0468-2.7271 0.0359-2.646 0.14327-2.6765 1e-3 -2.8104 2.0279-0.26262 2.2934 0.18677 0.12646 2.5389-0.15278 1.9578 0.051 2.9562 0.075 2.4945 2.5723-0.11879 2.7352-0.61564 2.5894 0.60797 0.0482-2.4188-0.10312-2.7579 0.0583-2.3878 0.0744-2.1972c2e-3 -1.0101-0.0719-1.8612-0.32371-2.6192-0.20645-0.74027-0.70177-1.509-1.2306-2.0246-0.55286-0.58019-1.1478-1.0892-1.8771-1.3198-0.759-0.23995-1.2658 0.0483-2.2882 0.0483l-2.8795-0.0465-2.7452 0.0319zm29.227-0.0779c-1.0126 0-2.0452 0.15942-2.8046 0.41253-0.71533 0.29363-1.5419 0.30501-2.0552 0.80641-0.68074 0.20105-1.0366 1.0813-1.2582 1.9708-0.20031 0.80423-0.13728 1.9172-0.13728 2.878l-0.0426 2.8122 0.0243 3.0585-0.011 2.8928-0.0141 2.8903 0.25037 3.0972-0.0972 2.7241-0.14209 2.7568 0.40268 3.2966 0.2346 2.901-0.21405 2.8388-0.19913 2.9252 0.10051 2.9126c-0.076 1.0116-9e-3 1.8944 0.2014 2.6532 0.20812 0.75728 0.54602 0.99747 1.0346 1.5042 0.48798 0.12764 1.5187 1.0802 2.3134 1.4353 0.74123 0.33116 1.2457 0.47918 2.2223 0.47918l2.9336-0.0229 2.9331-0.11165 3.44 0.14993c0.89642-4e-3 1.6924-0.13761 2.3865-0.39296 0.69091-0.25938 1.2509-0.67159 1.7285-1.178 0.44296-0.53985 0.7415-1.3056 0.99596-2.0507 0.25706-0.75268 0.5568-1.4122 0.5568-2.43l-0.0353-3.2411 0.22134-2.5414 0.16073-2.8732-0.0523-3.0705 0.56046-2.8698-0.29018-3.4838 4e-3 -2.3678 0.10704-2.8582 0.28964-3.0155-0.38588-3.5084-0.12631-2.3144-0.32113-2.9203c-0.0473-1.0318-0.21967-1.9451-0.49944-2.7153-0.28851-0.7788-0.66647-1.3972-1.1789-1.905-0.51283-0.50887-0.96495-0.81286-1.7312-1.0678-0.76226-0.25362-1.8804-0.58847-2.8931-0.58847l-2.7783 0.11742-3.1993-0.13995zm17.437 0.10661-0.27438 2.7689 0.0558 3.0665 0.48218 2.9616-0.0528 2.8888-0.17922 2.531-0.0493 3.3491-0.11523 2.8777 0.28081 3.1346-0.10052 2.8276-0.036 3.0176-0.12711 2.7986-0.11248 2.6886-0.0526 3.2519-0.13322 2.8286 0.0805 3.0321 0.0589 2.4741 2.8804 0.27676 2.5254 0.17571 2.6089 0.0556 0.0363-2.7547 0.28973-2.762-0.22939-3.2024 0.12976-2.2925 0.57118-2.8574-0.14372-2.8234-0.0836-2.7275 2.1634-0.14428 2.3528 0.0386 2.2818 0.069-0.0344-2.329 0.19887-2.1434-0.28598-2.4629-2.3862 0.0681-2.4218-0.0661-2.2841 0.22843-0.017-2.8496 0.31434-2.8238 0.42394-2.7882-0.25335-2.8344-0.60163-2.9809 2.572 0.0316 2.8934 0.14205 2.3963-4e-3 -0.17455-2.8529-0.0687-1.8038 0.0163-2.3997-2.6042 0.0249-2.3715 0.17884-2.4384 0.0678-2.9052 0.012-2.8392-0.49752zm-91.624 6.0916-0.25154 2.4756 0.36507 3.0936 0.14593 2.4632 0.22507 3.0507 0.33861 2.8264 0.47823 2.9469 0.0594 2.6156 0.41481 2.9575-0.25533 2.6387-1.8976 0.0253-1.9141 8e-3 0.11063-2.9387 0.27275-2.668 0.18164-3.333 0.61717-2.1274-8e-3 -3.3379 0.53607-2.3074 0.14358-2.8676-7e-3 -2.9969zm75.938 0.3165 2.6222 0.19863 2.265-0.23371-0.0259 2.767-0.0387 2.7774 0.0223 3.0031-4.4e-4 2.715 0.14845 2.9766-0.0969 2.6029-0.11703 2.5006 0.0367 3.4013 0.36613 2.9986 0.40118 2.8844-0.42876 2.4118-0.29453 2.9006-2.5791-0.39338-2.264 0.60661 0.34615-2.7675 0.59547-2.8128-0.19504-3.3329 0.0648-2.3439 0.31675-2.8896 0.0564-2.7824-0.21623-2.9964-0.18628-2.8039 0.23796-2.7954-0.35534-2.9362-0.32085-2.7586zm-139.14 44.073-0.56173 2.8217-0.0331 2.7513 0.0977 2.9424-0.11683 2.6088-0.0949 2.774 0.016 3.0134 0.0552 2.8622-0.064 2.1579 0.0177 3.4505 0.0317 2.831 0.26297 2.925-3e-3 2.7892-0.25073 2.7479 2.1479 0.05531 1.8854-0.38727 2.0822-0.0663 0.15013-2.5722 0.22529-2.6557-0.0856-2.689-0.152-2.7295 0.0383-2.4519 3.0042 0.08488 2.2724-0.20163c1.0658 0.02692 1.8919-0.27031 2.5991-0.608 0.63322-0.47116 1.3032-0.73798 1.6696-1.3787 0.38167-0.66737 0.44995-1.9532 0.44995-3.0236l-0.14428-2.9892 0.35439-2.3353 4e-3 -2.6674 0.43413-2.6434-0.53423-2.6873c-0.0198-1.0659-0.26058-2.0162-0.61965-2.723-0.40564-0.76008-0.8573-1.2004-1.5299-1.5359-0.69525-0.34678-1.4351-0.41133-2.5033-0.41133l-2.9842-0.34035-2.591 0.11918-2.8803 0.1085zm17.745-2e-3 -0.23188 2.7572-0.0856 2.7141 0.032 2.9817-0.16545 2.5241 0.10887 3.1776 0.31874 2.914-0.0919 2.2386-0.0499 3.1255-0.0589 2.8721 0.32105 2.9487 0.22305 2.8886 0.28032 2.8064-0.52704 2.8019 1.9248-0.09954 2.1363 0.07033 1.9202-0.0353-6e-3 -2.6462-0.12759-2.9632-0.0658-2.8681 0.12753-2.0671 0.52149-2.532-0.45011-2.7693 1.8209-0.36895 2.0427 0.38865 0.0131 2.4142-0.0866 2.2829-0.0713 2.3781 0.20214 2.5703c-0.0316 0.71124 0.0528 1.4143 0.0641 2.0548 0.11062 0.68478 0.2389 1.2706 0.28653 1.923 0.0491 0.67265-0.078 1.361 0.082 2.1954l2.6836 0.01533 1.3903-0.59978 2.2422 0.61472c-0.17945-0.83207-0.10941-1.4222-0.19689-2.1068 0.10462-0.57148-0.14218-1.3678-0.21986-2.0821-0.0719-0.66132-0.11742-1.3373-0.11742-2.0434l-0.14471-2.5915 0.0125-2.028 0.0832-2.1819c-2e-3 -1.0512 0.0294-1.8941-0.29866-2.5944-0.13402-0.69878-0.96803-1.3772-1.6687-1.7349-0.64101-0.32722-1.3137-0.37702-2.117-0.37702 0.84069 0 1.5737-0.17767 2.1777-0.53044 0.60372-0.35326 1.0606-0.98769 1.3845-1.6899 0.32388-0.70237 0.34398-1.8578 0.34398-2.907l-5e-3 -2.3468-0.0343-2.5261 0.1349-1.9779 0.0682-2.3191c3e-3 -1.0461 0.074-1.7788-0.27514-2.4768-0.12326-0.59665-1.1587-1.6754-1.9819-2.0604-0.73788-0.34509-1.4772-0.18492-2.4707-0.18492l-3.0802-0.39092-2.7736 0.0879-2.8957 0.11624zm22.986 0.0251c-1.0508 0-2.2312-0.0668-2.9318 0.28289-0.84214 0.18158-1.1921 0.96227-1.5102 1.7318-0.30341 0.7339-0.54656 1.2721-0.54656 2.2963l-0.0781 2.4766 0.0468 3.068-0.0101 2.7114 0.35334 2.8846-5e-3 2.704-0.0184 2.7519-0.0877 2.7014 0.36983 2.9248-0.0602 2.724-0.47043 2.6268c0.0134 1.0648 0.1151 1.842 0.47133 2.5484 0.28279 0.61642 0.99644 1.3335 1.7459 1.7123 0.71307 0.36039 1.6847 0.53678 2.7094 0.53678l2.341 0.07561 2.2571 0.02914 2.5186 0.03986c0.9203-0.05791 1.7312-0.25079 2.3738-0.62626 0.66608-0.35562 1.0536-1.4065 1.3838-2.1196 0.32894-0.71027 0.6786-1.0317 0.6786-2.0787l-0.0172-2.7421-0.0754-2.8119-0.0202-2.8369-0.0892-2.6918 0.26618-2.4494-0.0234-2.876 0.0436-2.6823 0.19863-2.68-0.24-3.0317 0.18156-2.4616c-0.10786-1.0768 9e-3 -1.8916-0.38971-2.6033-0.062-0.68253-1.0345-1.2657-1.9163-1.6372-0.76895-0.32401-1.7616-0.55732-2.7407-0.55732l-1.681 0.0391-2.8801 5e-3zm13.266-0.46122 0.0747 3.1816 0.0669 2.8861 0.04 2.8272 0.0219 2.8039-0.049 2.2019-0.11873 3.2916-0.0127 2.9469 0.10152 2.9296 0.26026 2.826-0.16409 2.551-0.0902 2.7538 0.32443 3.2631-0.36055 2.6352 3.5017 0.01952 2.2216-0.29689 3.2947 0.28041 2.6501 0.04917c1.0374-0.01198 2.3121-0.1617 3.0067-0.51675 1.0858-0.31333 0.96923-1.1632 1.2183-1.8469 0.26141-0.71759 1.0297-1.2965 1.0297-2.371l0.5709-2.6664-0.0507-2.7835-0.24176-3.2219 0.0615-2.1714-0.17007-2.8551-0.0242-2.6097-0.0896-2.7494-0.26305-2.8671-0.0984-2.6382-0.32789-3.3824c0.0223-0.83365-0.25578-1.7414-0.59616-2.345-0.44403-0.75563-0.83259-1.0452-1.4593-1.327-0.68113-0.30627-1.4424-0.35504-2.537-0.35504l-2.9672-0.0819-2.9045-0.036-2.8957-0.0335zm18.325 0.23506 0.54012 3.2429 0.23467 2.9073 0.25224 2.919-0.0871 2.7876-0.11239 2.8809 0.17869 3.0775-0.19478 2.74 0.0813 2.9579-0.43858 2.5153-0.30703 3.0681-0.19606 2.5159c0.0398 1.2309 0.1879 2.164 0.55586 2.9442 0.3202 0.72994 0.85283 1.2397 1.5878 1.6251 0.71241 0.37355 1.58 0.45866 2.6145 0.45866l2.5276 0.25811 1.8307-0.41542 2.0774 0.14051c1.0899 0.08518 2.4849 0.06872 3.2028-0.24316 1.2018-0.20616 1.1428-0.81377 1.3757-1.515 0.23914-0.71985 0.26744-1.6446 0.26744-2.7075l0.60974-2.8631 0.38429-2.9593-0.18201-3.0452 0.0862-2.7598-0.0586-2.9012 0.0442-2.8229-0.28462-3.2172-0.22744-2.8891-0.23261-2.8771-0.14161-3.242-0.0238-2.4552-1.9832 0.0378-2.1629 2e-3 -1.5933 0.1312 0.0584 2.9444-0.14181 2.6506-0.0774 2.6596 0.61727 3.1808 0.0927 2.9862-0.0861 2.8386-0.10804 2.8126-0.0808 2.8947-0.29004 2.7043-0.3311 2.2901-0.25024 3.2878-1.437 0.20333-1.6572 0.0841-0.0214-3.3395-0.0169-2.4262-0.0333-2.9413-0.13482-3.0406 0.0767-2.6008 0.14933-2.8817-0.0824-2.9693-0.17163-3.031 0.0418-2.6777 0.0837-2.8463-0.0999-2.9176-1.8411 0.0865-2.4699-0.28185zm22.919 0.26791c-1.0509 0-2.1989 0.0501-2.8995 0.39976-0.71845 0.33255-1.2287 0.8422-1.5749 1.5479-0.34487 0.70314-0.21275 1.723-0.21275 2.7701l0.0998 2.7841-0.14429 2.4457-0.15706 2.6602 0.66512 3.0371-0.13513 2.4544-0.12083 2.9509 0.11098 2.7872-0.17659 2.6697-0.0598 2.7979-0.37769 2.5871c-6.9e-4 1.0484 0.34022 2.0096 0.69021 2.7088 0.50126 0.75665 1.0244 1.3113 1.6409 1.6395 0.67156 0.35743 1.2489 0.22082 2.3446 0.22082l2.3096 0.04814 2.3657 0.09163 2.5725 0.01592c0.94638-0.0019 1.6676-0.45621 2.3218-0.80678 0.54015-0.61313 1.4877-0.72378 1.8454-1.311 0.39113-0.64207 0.25567-1.5073 0.25567-2.6033l-0.11044-2.7242 0.0863-2.0278-0.0621-2.7541-0.0978-2.2966 0.11572-2.2945-2.1107-0.03059-1.7182 0.23043-2.0404-0.10199-0.0877 2.8862-0.0467 2.9252-0.10309 2.5561-0.18188 3.0834-1.9296-0.09984-1.7716 0.25486 0.0973-2.8627 0.10532-2.9799 0.33284-2.9042-0.0114-2.9705-0.13118-3.5255 0.35221-2.2565-0.28113-3.75-0.0931-2.2675-0.36626-2.9152 1.9929 0.0555 1.8748-0.0278-0.16848 2.6694 0.14331 3.1546-0.0639 2.5003-3e-3 2.986 2.1528 0.11481 1.871-0.21795 2.8052 0.40238-0.16351-2.5458-0.13999-2.3841-0.0893-2.7756-0.19665-2.1842 0.37989-2.077c-0.11612-1.0915-0.43374-2.0687-0.83564-2.7869-0.45902-0.7787-0.96938-1.4233-1.6466-1.7593-0.70446-0.34956-1.577-0.38984-2.6486-0.38984l-2.2811 0.0248-2.3468-0.0526zm12.765-0.0439-0.0338 2.6107-0.0903 2.5286 2.3347-0.13923 2.7435 0.3543 0.0134 2.8803-0.16152 2.5859-0.0363 3.0524-0.0291 2.6546 0.0151 3.0579 0.0443 2.8916 0.16418 2.9163 0.0759 2.8421 0.49016 2.8326-0.50979 2.4711-0.47861 2.9235 2.0781-0.2654 2.0913 0.13887 2.0237 0.1069-4e-3 -2.8641-0.0305-2.869-0.12416-2.992 0.0174-2.7109 0.25236-2.6257-0.0265-3.0261-0.15191-3.2785 0.0337-2.398 0.16251-2.7965 0.18061-2.8081-0.0626-2.8528 2.5199 5e-3 2.0049-0.35212-0.0862-2.9716 0.21121-1.9495-2.3541 0.15886-2.9552-0.11161-2.3602 0.11413-2.7829-0.036-2.6427-0.0674zm16.771-0.54373 0.0606 3.1273 0.14554 3.0835 0.26618 2.8971-0.0441 2.6594 0.30493 2.983-0.0714 2.6852-0.10937 2.6641 0.0164 3.0548 0.0648 2.8439 0.11406 2.755-0.20921 2.8079-0.20217 2.7915-0.29561 2.4175 2.0338-0.26176 2.938 0.3766 1.5563 0.35348-0.0222-2.9452 0.0123-2.6962-0.0566-2.9341 0.46593-2.6387-0.11732-2.9931 0.12285-2.6837-0.0226-2.8697-0.16866-3.1576-0.11107-3.0232-0.0855-2.5514 0.10616-2.5428-0.0863-2.8673-0.26557-3.0258-1.923 0.16145-2.2121-0.0913zm13.224 0.61963c-1.0508 0-2.0521 0.0971-2.7526 0.44674-0.62941 0.40928-1.2806 0.65461-1.6477 1.3339-0.37052 0.68559-0.52279 1.7456-0.52279 2.7996l-0.0528 2.6204 0.57146 2.9609-0.16702 2.4656-0.19236 2.6767-0.0178 2.9264 0.0662 2.7947-0.23018 2.3372-4e-3 3.0273 0.0343 2.7602 0.33648 2.7511c-0.11433 1.0349 0.13904 1.9615 0.43845 2.6546 0.44255 0.72863 0.79861 1.2089 1.4095 1.5416 0.65905 0.35898 1.391 0.4215 2.4817 0.4215l2.3133 0.0204 2.7226 0.18946 1.9468-0.12111c1.0363-0.0093 2.2118-0.07436 2.9059-0.42823 1.0037-0.2379 1.0086-1.4405 1.2799-2.1702 0.2712-0.7294 0.78713-0.97351 0.78713-2.0224l-0.0659-2.7821-0.1479-2.8865 3e-3 -2.5419-0.0286-3.1859 0.67992-2.3056-0.13201-2.7528 0.41556-2.6972-0.42323-2.9466-0.153-2.5377-0.44799-2.7809c4e-3 -1.045 0.11271-1.7919-0.2358-2.4894-0.088-0.61437-1.1361-1.8966-1.9741-2.2775-0.74409-0.33819-1.4864 0.0824-2.4749 0.0824l-2.0189 0.14977-2.7289-0.27219zm13.491-0.0561-0.13236 2.7258 3.4e-4 2.8361 0.19004 2.8508 0.0645 2.8578 0.28882 2.8054-0.0996 2.7024-0.21127 2.6457 0.0885 3.1019-0.1411 2.7183-0.14593 2.6569 0.40369 3.2558-0.29412 2.533-0.12394 2.9609 2.5309 0.03811 1.5993-0.05503 2.005-0.13567-0.0504-2.8608 0.19361-2.8649-0.0928-3.2727-0.0417-2.4606-0.032-2.8541-0.22102-3.0746 0.43994-2.5792 0.0671-3.0035-0.19395-2.8614-0.0334-2.7793-0.70967-2.9226 0.38155 2.8512 0.68151 2.9805 0.37582 2.7814 0.37047 2.8717 0.23645 2.6398 0.42671 3.1385 0.25846 2.5105 0.73012 3.3761 0.34673 2.7707 0.32151 2.8623 0.31557 2.6889 2.8996-0.46692 2.9848-0.02213 2.9908 0.497-0.0923-2.9445 0.57406-2.6182-9e-3 -2.8676-0.11631-2.9753 0.0258-2.6067-0.0155-2.8329 0.12121-2.7029-0.14713-3.0553-0.14721-2.8868-0.0335-3.0542-0.17499-2.6267-0.0475-2.7446 0.15555-2.6402-2.0816-0.69984-2.2341 0.16369-2.0261 0.28644 0.10303 2.8392 0.13418 2.791 0.0849 2.8289-0.11099 2.4684 0.24713 3.1798-0.0321 2.2222 0.10085 3.3786 0.0756 2.807 0.10691 2.8419-0.08 2.5069 0.19347 3.073-0.42143-2.8373-0.31428-2.7248-0.40563-3.3978-0.17634-2.1424-0.44678-2.8822-0.34228-2.7157-0.24267-2.7236-0.38698-2.8895-0.46491-2.775-0.54969-2.8571-0.59003-3.0093-1.8563 0.24475-2.7594-0.13189-2.0171 0.0923zm-145.89 4.729 1.8421-0.12801 2.0593 0.14316 0.0401 2.7278-0.0384 2.6191-5e-3 2.7188-0.0526 2.6358-0.0407 2.6391-1.9479-0.04103-1.6139 0.17264-0.0756-2.8299 0.11777-2.4951-0.0345-2.7202 0.0526-2.6223zm18.079-0.14461 2.0044 0.0401 1.9863 0.12206 0.17056 2.5018-0.20025 1.9898 0.0326 2.9014 0.23895 2.4336-0.0768 2.5821-1.9556-0.0232-2.0388-0.0712 0.44383-2.3144-0.0534-2.5935 0.41348-2.4236-0.40703-2.5906zm18.403 0.47592 1.8808-0.0635 1.951 0.0606 0.1989 2.9979-0.0818 2.6724-0.0328 3.121-0.021 2.9338-0.0514 2.7304-0.0401 3.0497 0.0303 3.074 0.40247 3.0455-0.21286 2.8803-1.7032 0.11732-2.418-0.50628 0.29458-2.8051 0.0803-2.9413-0.0199-2.957 0.21379-2.9011 0.0418-2.8954-0.25461-3.213 0.32966-2.5027 0.37453-3.0094zm18.28-4e-3 2.2561 0.11736 1.5909-0.10609-0.0729 2.8543 0.27694 3.1731-0.0836 2.2805 0.39891 3.5941-0.14643 2.4504-0.16494 3.2058-0.10518 2.9624 0.35964 3.0374-0.53005 2.6416-2.0034-0.03391-1.5515 0.3488 0.0576-2.8831-0.13896-3.5027-0.0757-2.7319-0.0143-2.6762-0.17772-3.2657 0.18903-2.5009-5e-3 -3.0542-0.10338-3.1466zm79.105 0.0237 1.8661-1e-3 1.7749-0.0945-0.0867 2.8094 0.0325 3.0925 0.13385 3.0332 0.18418 2.975 0.0443 2.8305-0.0697 2.554 0.13955 3.4569 0.24787 2.9098-0.12451 2.8708-1.632 0.07257-2.7133-0.43633 0.0306-2.8774-0.14896-3.2321 0.5097-2.5625 0.15012-2.9005-0.1439-3.146 0.27745-2.5856-0.21968-3.5324-0.12574-2.3327z" stroke-width=".77153"/>
  </g>
  <text x="-397.09583" y="854.63428" fill="#ffffff" font-family="Didot" font-size="5.6916px" font-weight="bold" stroke="#101010" stroke-linejoin="round" stroke-width=".2881" xml:space="preserve"><tspan x="-397.09583" y="854.63428" font-family="'Courier Prime'" font-weight="normal" stroke="none" stroke-width=".2881">hyperblam.how</tspan></text>
 </g>
</svg>
