<svg width="173.8mm" height="45.329mm" version="1.1" viewBox="0 0 173.8 45.329" xmlns="http://www.w3.org/2000/svg">
 <g transform="translate(132.56 559.59)">
  <path d="m-52.88-559.59c-3.1727-0.0301-3.5833 0.0244-5.2917 0.69763-4.0549 1.598-8.3999 4.3896-10.441 6.7086-0.6061 0.68847-1.4185 2.1062-1.9193 3.3492l-0.8687 2.1554 0.016 4.7625c0.015 4.3141 0.084 5.0116 0.7307 7.4083 1.1987 4.44 4.7757 11.062 7.3003 13.514 1.9095 1.8547 6.3186 3.7475 10.441 4.4829 4.9793 0.88823 10.308 0.21283 13.866-1.758l1.5922-0.88212 1.2986 1.2149c0.7143 0.66812 2.0488 1.7667 2.9657 2.4417h5e-4c0.9169 0.67498 1.8923 1.2273 2.1674 1.2273 0.6016 0 1.558-0.89877 1.558-1.464 0-0.47118-0.9511-2.4143-2.421-4.9449l-1.0331-1.7782 0.5633-0.56379c0.8735-0.87354 1.7489-3.0349 2.403-5.9335 0.485-2.1493 0.5958-3.4403 0.5958-6.8792 0-4.8074-0.3411-6.5321-1.849-9.3839-0.4977-0.94113-0.9048-1.9371-0.9048-2.2133s-0.5382-1.3115-1.1958-2.3006c-4.4484-6.6915-10.57-9.7755-19.574-9.8609zm59.965 0.37879c-4.0028-0.13537-9.2842 0.73187-12.18 2.1994-1.7442 0.88387-4.6932 4.0898-5.5894 6.0766-1.2115 2.6859-2.5867 7.3058-2.9197 9.8087-0.4532 3.4054-0.1695 7.1543 0.9302 12.292 0.5917 2.7648 1.2981 4.0271 3.6411 6.5071 3.7866 4.0079 8.4142 6.6469 13.435 7.6621 0.9459 0.19125 2.2647 0.35889 2.9305 0.37259 1.3444 0.0276 6.5067-0.84338 8.615-1.4537 1.5799-0.45732 3.6562-1.7596 4.2494-2.665l0.4128-0.62993 0.8749 0.66714c1.7944 1.3687 5.2526 3.3125 5.8932 3.3125 0.8721 0 1.6304-0.71243 1.6304-1.5317 0-0.36087-0.7616-1.9797-1.6929-3.5972s-1.9225-3.3991-2.2025-3.9594l-0.509-1.0191 0.9002-2.3957c1.3347-3.5535 1.6869-5.8006 1.5451-9.8516-0.1502-4.2948-0.6431-6.389-2.3368-9.9208-1.0728-2.237-1.6701-3.112-3.0814-4.515-3.1432-3.1245-7.3014-5.6988-11.105-6.875-0.9145-0.2828-2.1064-0.43909-3.4406-0.48421zm-116.21 1.8474c-0.5675-0.0234-1.4148-6e-3 -2.5999 0.0501-5.7016 0.26902-9.2301 1.726-13.382 5.5263-2.0757 1.8998-4.5783 5.1458-5.7371 7.4414-1.9797 3.9218-2.3176 12.816-0.6274 16.508 0.7653 1.6717 2.6568 4.1436 3.9605 5.1749 1.2837 1.0154 6.3289 3.7939 8.0827 4.4514 3.8173 1.4311 7.4438 1.9317 12.816 1.7689 4.534-0.13743 5.551-0.45267 8.8067-2.7285l1.7291-1.2087 1.543 1.2123c0.8486 0.66667 2.4062 1.7442 3.4613 2.3947 2.2734 1.4016 3.4131 1.5457 4.0876 0.51625 0.3998-0.6179 0.4002-0.74881 0-1.7859-0.2375-0.61554-1.2441-2.5835-2.2366-4.3729l-1.8045-3.253 1.3741-2.742c1.998-3.9856 2.3215-5.5777 2.1952-10.811-0.098-4.0453-0.1467-4.386-0.8325-5.7878-1.5753-3.2197-6.3459-7.3896-11.164-9.7591-2.975-1.463-5.1449-2.0965-7.1835-2.0965-0.7612 0-1.4681-0.13628-1.571-0.30282-0.067-0.10764-0.3545-0.1719-0.9219-0.19534zm53.068 1.1596 3.8364 9e-3c4.4461 0.0103 6.3531 0.40152 9.6707 1.9828 3.2879 1.5671 6.9515 5.6409 7.9386 8.8279 0.1851 0.59767 0.6623 1.9202 1.0604 2.9388 0.638 1.6322 0.7383 2.3075 0.8464 5.6885 0.1317 4.1163-0.3801 8.6093-1.1508 10.1l-0.3984 0.77049-2.3647-4.6395c-1.3004-2.5519-2.6482-5.0872-2.9952-5.6338-0.942-1.4838-3.4448-3.7281-4.8509-4.3501-2.4483-1.083-7.6752-0.131-8.5803 1.5627-0.3621 0.67756-0.4299 2.6958-0.1308 3.8876 0.085 0.3385 3.0727 3.4443 6.6399 6.9014 3.5673 3.4571 6.486 6.3804 6.486 6.4968 0 0.39453-2.7783 1.5735-4.6349 1.9668-5.5477 1.1751-12.886-0.54007-16.243-3.7967-2.6867-2.6063-5.7745-8.3481-6.8069-12.657-0.2804-1.1699-0.442-3.0942-0.462-5.503-0.051-6.0659 0.994-8.3507 5.022-10.98 1.043-0.68084 3.0708-1.7632 4.5067-2.405zm62.583 0.2651c2.2261 3e-3 3.6405 0.45675 6.3221 1.7353 5.6832 2.7096 9.1251 6.4792 10.495 11.493 0.8523 3.1193 0.6642 9.5111-0.3695 12.552l-0.461 1.3565-2.0887-2.3968c-3.6401-4.1783-7.8177-8.0394-9.7038-8.9679-4.1733-2.0545-7.0952-0.97804-7.598 2.7993-0.3499 2.6287 0.2389 3.5105 5.2467 7.8517 0.9458 0.81999 3.5356 3.0425 5.7547 4.9392 2.2192 1.8967 4.0349 3.5549 4.0349 3.6845 0 0.85896-3.1298 2.1952-6.5288 2.7879-4.2151 0.73505-8.261 0.30027-11.239-1.2077-4.6481-2.3539-8.1134-5.5888-9.3354-8.7147-1.2943-3.3099-1.9341-10.858-1.2045-14.203 0.8434-3.8661 2.6953-8.1194 4.4049-10.117 1.8611-2.1742 4.1369-2.9862 9.6965-3.4602 0.9995-0.0852 1.8315-0.13436 2.5735-0.13333zm-118.72 1.7828c3.171-0.13985 3.899-0.0466 8.1148 1.0361 4.4534 1.1437 11.81 6.5468 12.837 9.4278 0.5883 1.6509 0.7948 5.7675 0.4264 8.5049-0.2887 2.1449-1.7648 6.2353-2.25 6.2353-0.1236 0-1.096-1.4288-2.1611-3.175-2.4592-4.032-4.1652-5.9561-6.1418-6.9267-1.3049-0.64075-1.8373-0.74621-3.7687-0.74621-3.3143 0-4.5308 0.86242-4.9563 3.513-0.087 0.54189-0.3812 1.2886-0.6543 1.6598-0.3431 0.46684-0.4321 0.84675-0.2873 1.2309 0.1152 0.30555 1.638 1.6371 3.3843 2.959 1.7462 1.3219 4.4839 3.6506 6.0834 5.1754 2.798 2.6673 2.8882 2.788 2.3812 3.1786-1.1562 0.89068-3.7879 2.0158-5.2896 2.2614v-5.2e-4c-1.7517 0.2868-4.1819 0.28597-7.4083-2e-3 -7.3295-0.65437-15.285-5.3829-16.938-10.068-0.4909-1.3914-0.5581-6.2088-0.1287-9.2465 0.4797-3.3938 2.5981-7.0495 6.0033-10.359 3.3173-3.2242 6.1607-4.456 10.754-4.6586zm65.642 16.67c0.4638-0.46382 3.5544 2.0856 4.3656 3.6013 0.4012 0.74957 0.2517 0.71596-0.5286-0.11885-0.3528-0.37742-1.3856-1.2905-2.2945-2.0293-0.9088-0.73888-1.6025-1.3928-1.5425-1.4531zm-56.306 1.3824c0.091 9e-3 0.2766 0.0893 0.5736 0.24288 0.819 0.42356 1.8969 1.6707 2.9419 3.4034 0.3291 0.54571 0.5586 0.99226 0.5106 0.99218-0.1273-2.1e-4 -3.7836-4.0358-4.0349-4.4535-0.079-0.13184-0.082-0.19411 0.01-0.185zm114.27 0.27285 0.7276 0.6413c0.4002 0.35279 0.7276 0.68021 0.7276 0.72761 0 0.20751-0.2139 0.0387-0.8134-0.64131zm-61.034 0.0884c-0.04-0.0847 0.207 0.10149 0.7085 0.4904 1.9094 1.4807 5.5387 5.0158 6.4327 6.2658 0.4819 0.67396 0.8387 1.2225 0.7937 1.2185-0.1398-0.0111-5.4816-5.2886-6.9236-6.8404-0.6449-0.69411-0.9714-1.0496-1.0113-1.1343zm-56.832 0.32969c0.089-0.0119 0.1601 0.0868 0.2744 0.28836 0.2727 0.48089 1.5765 2.093 3.3817 4.1816 1.1059 1.2797 1.4467 1.9156 0.4134 0.77153-0.2772-0.30693-1.4867-1.3255-2.6872-2.2634-1.2006-0.9379-2.184-1.788-2.174-1.8893 0-0.10124 0.1898-0.42209 0.4118-0.71313 0.1842-0.24142 0.2909-0.36381 0.3799-0.37569zm113.17 0.16795c-0.061-0.0823 0.1388 0.0515 0.587 0.38447 0.6526 0.48478 1.9624 1.6218 2.9105 2.5265 0.9482 0.90467 1.6646 1.6464 1.5916 1.6474s-0.6715-0.50061-1.3307-1.1157c-0.6593-0.61509-1.9094-1.7532-2.7781-2.529-0.5967-0.53292-0.9192-0.83133-0.9803-0.91364zm7.2058 1.9275c0.014-0.0137 0.1209 0.0664 0.3307 0.23099 0.2547 0.19972 0.463 0.40812 0.463 0.46302 0 0.21776-0.2171 0.0774-0.5628-0.36328-0.1645-0.20983-0.2446-0.31707-0.2309-0.33073zm25.234 6.7159c-0.6012 0.19081-3.1272 4.5202-2.8753 4.9279 0.088 0.14293 0.3975 0.38621 0.6868 0.54106 0.4396 0.23528 0.6548 0.14416 1.3084-0.55553l0.7819-0.83715v0.90537c0 0.86184 0.4276 3.6727 0.6656 4.376 0.1445 0.42733 1.0948 0.42876 1.3585 2e-3 0.2793-0.45198 0.1596-4.1542-0.2103-6.5035-0.3448-2.1897-0.9006-3.1148-1.7156-2.8562zm-6.1139 0.72192c-0.182 0.0448-0.3776 0.16766-0.5937 0.36328-0.6481 0.58654-1.6292 2.9076-1.4387 3.4039 0.2096 0.54624 0.8504 0.74884 1.4144 0.447 0.4283-0.22922 0.4862-0.064 0.6299 1.7989 0.087 1.1282 0.2362 2.2541 0.3312 2.5022 0.2334 0.60822 1.0914 0.57207 1.4299-0.0605 0.4998-0.93383 0.3093-4.7536-0.3307-6.6322-0.4741-1.3914-0.8961-1.957-1.4423-1.8226zm-108.2 0.28577c-0.4551-0.0656-0.7852 0.2846-1.6661 1.7673-0.9221 1.5523-1.0516 1.9371-0.8056 2.3968 0.3477 0.64971 0.9856 0.70482 1.6108 0.13901 0.421-0.381 0.4643-0.26877 0.6423 1.6536 0.105 1.1343 0.3127 2.2112 0.4615 2.3931 0.4 0.48898 0.6721 0.40835 1.1668-0.34675 0.4019-0.61323 0.4122-0.96374 0.1096-3.6783-0.3709-3.3281-0.6786-4.2037-1.5193-4.3248zm-6.0953 0.0677c-0.5927-0.23805-1.1295 0.30756-1.7606 1.7136-0.7061 1.5754-0.7038 2.2386 0.01 2.5125 0.4824 0.18509 1.4154-0.27789 1.4154-0.70228 0-0.18957 0.086-0.21148 0.2232-0.0568 0.1227 0.13824 0.3713 1.2618 0.5524 2.497 0.1812 1.2352 0.3853 2.3365 0.4543 2.4474 0.3009 0.48696 1.1085 0.15074 1.4149-0.58911 0.6264-1.5121-0.3583-5.7758-1.6919-7.3262-0.2155-0.25064-0.4189-0.41675-0.6165-0.49609zm63.348 0.68884c-0.2483 0.0352-0.528 0.21865-0.8563 0.5271-1.0667 1.0021-1.9979 2.5244-1.8231 2.9802 0.2533 0.65989 1.1418 0.82369 1.7048 0.31419 0.471-0.42626 0.505-0.40054 0.7586 0.57155 0.146 0.55976 0.3479 1.4938 0.4485 2.0758 0.1007 0.58209 0.3052 1.2123 0.4548 1.4004 0.4239 0.53336 1.0452 0.26306 1.325-0.57671 0.1808-0.54272 0.1302-1.3983-0.1752-2.9528-0.6315-3.2139-1.0923-4.4453-1.8371-4.3398zm-5.3216 0.82373c-0.6766 4e-3 -1.6392 0.86509-2.6722 2.4417-0.8786 1.3409 0.5101 2.2513 1.6981 1.1131l0.7167-0.68678 0.3375 2.7042c0.1856 1.4873 0.3951 2.7967 0.4651 2.9099 0.2549 0.41254 1.1431 0.19115 1.4371-0.35811 0.6088-1.1376-0.3568-6.5072-1.4092-7.8367-0.1541-0.19467-0.3476-0.28857-0.5731-0.28732z" fill="#fff"/>
 </g>
</svg>
