<svg width="166.82mm" height="44.667mm" version="1.1" viewBox="0 0 166.82 44.667" xmlns="http://www.w3.org/2000/svg">
 <g transform="translate(517.53 -309.03)">
  <path d="m-424.67 309.03c-0.9127 0-1.3024 0.76059-3.1554 6.1562-0.9113 2.6534-2.0858 5.8835-2.6101 7.1784-0.9751 2.4083-2.2362 6.5952-3.4748 11.536-0.383 1.528-1.2704 4.5045-1.9719 6.6146-1.0599 3.1883-2.126 7.7789-2.126 9.1545 0 0.18147 0.308 0.69639 0.6847 1.1441 0.5158 0.61299 0.9056 0.8139 1.5782 0.8139 1.1039 0 1.2911-0.32207 1.6893-2.9104 0.418-2.7177 1.4764-7.3501 2.2913-10.027l0.6765-2.2226 3.1962 0.17208c1.7578 0.0945 3.9238 0.17157 4.8136 0.17157h1.6175l0.8687 4.9609c1.2805 7.3135 1.4598 8.0439 2.0748 8.4522 1.1775 0.78185 1.9399-0.36102 1.9404-2.9084 6e-4 -2.4707-1.8965-14.176-3.5682-22.014-0.5275-2.4738-1.3663-6.9387-1.864-9.9219-0.9687-5.8061-1.1967-6.35-2.6608-6.35zm32.646 1.0635c-0.7466-0.25713-1.5876 0.41349-3.1895 2.3099-1.0755 1.2733-2.8244 3.476-3.8866 4.8948-1.0621 1.4188-1.9607 2.5797-1.9957 2.5797s-0.605-0.9308-1.2661-2.0686c-1.2121-2.0861-4.033-5.8723-5.0131-6.7288-0.6852-0.59872-2.1199-0.59649-2.6634 4e-3 -0.8281 0.91505-1.0373 2.8446-1.2392 11.439-0.1241 5.2856-0.3685 9.8478-0.6341 11.84-1.3502 10.128-1.7297 14.423-1.3922 15.768 0.3409 1.3581 2.7139 1.9091 3.2954 0.76533 0.1286-0.25294 0.3705-2.7816 0.5375-5.6193 0.1669-2.8377 0.5437-7.4216 0.8371-10.186 0.2935-2.7649 0.6455-7.4567 0.7824-10.427 0.1369-2.97 0.3563-5.508 0.4878-5.6394 0.2949-0.29498 2.2297 3.5763 2.8112 5.6255 0.2288 0.80603 0.5041 2.1628 0.6119 3.0148 0.1601 1.266 0.3308 1.6497 0.9353 2.1006 0.6827 0.5093 0.7949 0.52108 1.4552 0.15193 0.5445-0.30441 0.8787-0.88525 1.3984-2.4314 0.6874-2.0453 1.4798-3.3458 4.0209-6.5996l1.3819-1.7694 0.2367 1.2289c0.1587 0.82263 0.087 3.2432-0.2176 7.3251-0.5699 7.6352-0.7136 23.718-0.2217 24.823 0.1798 0.40398 0.5965 0.84261 0.926 0.97514 0.8732 0.35083 0.9623 0.33327 1.6082-0.32091 0.5855-0.59278 0.5882-0.64026 0.6522-11.179 0.044-7.2521 0.1875-11.624 0.4542-13.891 0.2177-1.8506 0.4199-6.2941 0.4599-10.089 0.066-6.3525 0.039-6.8172-0.4335-7.3422-0.2526-0.28088-0.4907-0.46981-0.7395-0.55552zm-85.142 0.1049c-2.7049-0.0199-3.1812 0.0476-4.2995 0.60927-0.6916 0.34741-1.2675 0.77401-1.2805 0.94826-0.013 0.17424-0.049 6.1508-0.081 13.281-0.081 18.223 0.3002 23.32 1.8748 25.06h6e-4c0.8773 0.96936 5.4226 0.45889 8.2558-0.92708 1.7526-0.85735 4.7501-3.5944 5.4782-5.0023 0.2092-0.4047 0.5071-1.6773 0.662-2.8277 0.3351-2.49-0.1269-5.5273-1.1963-7.8631-0.7712-1.6845-1.3439-2.0065-4.3874-2.467-3.1499-0.4766-3.1752-0.49811-1.5895-1.3653 1.449-0.79238 3.5131-2.3708 4.2927-3.2825 0.2498-0.29215 0.719-1.067 1.0429-1.7219 1.0021-2.0259 0.765-5.559-0.6305-9.3927-0.553-1.519-2.2029-3.4225-3.6716-4.2359-1.3438-0.7442-1.6087-0.79229-4.4705-0.81339zm17.286 0.46199c-0.4471 0.0146-0.8267 0.26576-1.0485 0.75086-0.2198 0.48091-0.2487 2.9003-0.1059 8.8635 0.108 4.5111 0.136 11.455 0.062 15.431-0.094 5.0632-0.034 7.9168 0.1984 9.525 0.7203 4.9781 1.4821 5.5603 7.6709 5.8622 9.6293 0.46974 11.109 0.27151 11.122-1.4904 0-0.40026-0.3703-0.79448-1.2526-1.3229-1.2385-0.74182-1.3317-0.75466-6.4162-0.89349-2.8376-0.0775-5.3603-0.23631-5.6063-0.35295-1.5424-0.73156-1.689-2.1814-2.0754-20.541l-0.3038-14.42-0.7912-0.74311c-0.4917-0.46184-1.0066-0.6838-1.4537-0.66921zm-32.973 2.6029c-1.1 0-11.13 8.0026-16.064 12.817-1.9645 1.9168-4.5559 4.2289-5.7583 5.1382-2.5828 1.9531-3.1427 2.6655-2.7182 3.4587 0.161 0.30079 0.4149 0.54674 0.5638 0.54674s0.7697 0.55153 1.3797 1.2258c3.1841 3.5196 14.386 10.696 20.682 13.25 1.1674 0.47356 2.3665 0.86358 2.6649 0.86558 1.1428 9e-3 1.5409-1.2114 0.7592-2.3275-0.2301-0.32847-2.3119-1.5449-4.6261-2.7037-4.7048-2.3559-8.67-4.6543-13.258-7.6848-1.699-1.1222-3.5742-2.2545-4.1672-2.5161s-1.078-0.55105-1.078-0.64285c0-0.31275 11.928-10.295 18.74-15.682 3.5882-2.8379 4.2783-3.4959 4.2783-4.0804 0-0.84647-0.6877-1.6645-1.3989-1.6645zm118.32 0c-0.8512 0-1.3522 1.3646-2.126 5.7888-0.8754 5.0044-1.393 6.8985-3.0076 11.012-0.6283 1.6007-2.043 5.5893-3.1435 8.8635-2.6957 8.0195-3.3185 11.98-1.9699 12.519 1.1851 0.47412 1.6456-0.23727 2.1958-3.391 0.5484-3.144 3.0249-10.919 5.1831-16.272 1.7422-4.321 2.6225-7.4208 3.4096-12.006 0.8365-4.8739 0.7001-6.5143-0.5415-6.5143zm5.8177 0c-0.4895 0-1.2971 0.93248-1.2971 1.4976 0 0.34444 14.801 15.117 16.489 16.457l1.0108 0.80253-1.6722 1.2542c-3.3281 2.4969-10.796 10.597-12.415 13.465-0.4495 0.79647-0.9246 1.515-1.0563 1.5963-0.3502 0.21645-0.2923 1.5452 0.084 1.9213 0.1778 0.17821 0.4852 0.2609 0.6831 0.185 0.1979-0.076 0.4587-0.13797 0.5793-0.13797s1.3908-1.5098 2.8226-3.3554c3.7001-4.7693 6.9036-8.2561 9.0418-9.8413 1.0156-0.75287 2.2744-1.8422 2.7973-2.421 0.8105-0.89714 0.9507-1.2376 0.9498-2.3084-6e-4 -0.76597-0.1968-1.5771-0.5028-2.0789-0.6603-1.0829-10.48-11.086-14.155-14.42-1.5868-1.4393-3.0981-2.6169-3.3584-2.6169zm-110.57 0.51935 0.5953 0.12661c0.3275 0.0698 1.3097 0.26468 2.1828 0.43253 1.8446 0.35461 2.6901 0.74606 3.4747 1.6087 1.1086 1.2187 1.4239 2.2128 1.4139 4.5098-0.01 3.7528-0.8257 4.8416-5.1108 6.8213-1.2657 0.58477-2.3588 1.063-2.4288 1.063-0.071 0-0.1271-3.2761-0.1271-7.2807zm54.208 4.5077c0.1185 0 0.4178 1.2204 0.6651 2.712s0.8606 4.5812 1.3632 6.8652 0.9142 4.3379 0.9142 4.5641c0 0.35302-0.5433 0.41083-3.8365 0.41083-2.1101 0-3.8364-0.0493-3.8364-0.10956 0-0.0603 0.413-1.1926 0.9183-2.5166 0.5053-1.324 1.2285-3.5667 1.6066-4.9837 1.1771-4.4107 1.9812-6.9422 2.2055-6.9422zm-54.208 14.758 0.9922 0.18242c0.5457 0.10021 1.528 0.34358 2.1828 0.54105 0.6549 0.19748 1.6228 0.42951 2.1513 0.51521 1.4379 0.23312 3.0951 1.5619 3.7259 2.9879 0.4335 0.98065 0.5098 1.5477 0.3849 2.8846-0.2331 2.4968-1.0363 3.6631-3.3517 4.8669-1.0421 0.54183-5.2815 1.8055-5.4022 1.6102-0.3498-0.56596-0.6832-4.934-0.6832-8.9478z" fill="#fff"/>
 </g>
</svg>
