<?xml version="1.0" encoding="UTF-8"?>
<!-- Created with Inkscape (http://www.inkscape.org/) -->
<svg width="782.37mm" height="255.2mm" version="1.1" viewBox="0 0 782.37 255.2" xml:space="preserve" xmlns="http://www.w3.org/2000/svg"><g transform="translate(1290.5 313.18)"><path d="m-1056.2-58.139c-0.081-0.081-12.632-0.17029-27.891-0.19844-27.173-0.0501-27.771-0.0622-29.061-0.58618-0.8061-0.32763-1.5329-0.85641-1.8751-1.3643-0.5542-0.82234-0.5604-1.0177-0.7412-23.41-0.1612-19.965-0.1311-23.132 0.2593-27.343 0.4668-5.0338 0.5185-9.0932 0.4266-33.47-0.048-12.744-0.016-13.918 0.3927-14.223 0.2448-0.18259 0.6496-0.26704 0.8996-0.18768 0.2501 0.0794 0.5366 0.0117 0.6368-0.15038 0.1323-0.21412 3.5131-0.24217 12.369-0.10259l12.187 0.19208-0.1859-9.6316c-0.1023-5.2974-0.2974-11.715-0.4337-14.262-0.1363-2.5466-0.3294-8.7676-0.4292-13.824-0.1-5.0568-0.1921-9.2021-0.2051-9.2117-0.013-0.01-3.5954-0.12185-7.9611-0.24943-10.17-0.2972-12.493-0.67577-14.223-2.3181-1.0782-1.0233-1.2103-1.9153-0.9724-6.5648 0.3745-7.3177 0.5948-27.461 0.3867-35.359-0.1863-7.0711-0.2303-7.5648-0.6333-7.1063-1.0011 1.1393-12.252 1.5169-26.362 0.88461l-5.8209-0.26083-1.0583 0.98323c-0.5821 0.54078-2.0854 1.5212-3.3406 2.1788-1.2553 0.65755-2.933 1.6868-3.7282 2.2872-2.0162 1.5222-3.3822 1.416-3.3822-0.26293 0-0.58616 0.3429-0.96907 1.8496-2.0649 1.0173-0.73993 2.5669-1.7428 3.4434-2.2287l1.5938-0.88335-7.8752-0.0493c-8.468-0.0531-19.284-0.45272-20.575-0.76026-0.4365-0.104-4.7095-0.19142-9.4954-0.19427-7.9959-5e-3 -8.7253-0.0427-8.9944-0.46821-0.2094-0.33102-0.2121-0.59118-0.01-0.91253 0.2574-0.40815 0.9756-0.44398 7.8038-0.38934 4.1362 0.0331 10.497 0.17552 14.135 0.3165 3.7785 0.14642 10.696 0.17155 16.135 0.0586l9.52-0.19772-2.5086-1.6158c-1.3797-0.88866-3.0147-1.9007-3.6334-2.249-1.237-0.69644-1.5602-1.2736-1.1462-2.0473 0.4393-0.82072 1.0296-0.8695 2.3606-0.19504 1.9442 0.9852 8.4119 5.3392 8.5794 5.7756 0.1587 0.41371 1.8936 0.50179 17.657 0.89642 5.725 0.14332 7.0356 0.1033 8.6512-0.26415 2.6429-0.60112 6.0519-0.58859 6.3944 0.0235 0.166 0.29652 0.2351-5.3842 0.1973-16.206-0.06-17.147-0.1751-19.539-1.3609-28.247-0.7146-5.2484-0.5707-5.5784 2.5582-5.8632 3.9095-0.35588 9.3665-0.95567 9.7533-1.072 0.2183-0.0657 1.9447-0.3 3.8365-0.52079 4.0813-0.47634 21.396-0.54171 30.692-0.11587 3.2015 0.14665 10.464 0.3652 16.14 0.48567 8.6451 0.1835 10.555 0.29371 11.774 0.67951 1.2633 0.39979 3.478 0.49793 16.801 0.74447 23.508 0.43502 25.311 0.40664 28.972-0.45603 6.4106-1.5105 11.611-2.5426 14.676-2.9126 7.1557-0.86394 23.272-0.66712 29.278 0.35756 4.6445 0.79244 6.057 1.9054 6.3341 4.991 0.2661 2.9627-0.2078 14.635-0.8562 21.088-0.4927 4.9033-0.6092 7.6016-0.5996 13.891 0.01 4.2929 0.1063 9.2008 0.2217 10.907l0.2099 3.1014 69.493-0.057-1.3684-1.2842c-0.75264-0.70629-2.7674-2.2653-4.4773-3.4644-2.3651-1.6587-3.1088-2.3194-3.1088-2.762 0-0.51244 0.6107-1.4133 0.95808-1.4133 0.76347 0 6.0316 3.8352 8.5274 6.2078 3.8168 3.6286 3.3989 5.116-2.7351 9.7333-3.5914 2.7034-4.5974 3.1071-5.1536 2.0679-0.15064-0.28147-0.27389-0.68732-0.27389-0.90189 0-0.40095 2.0133-2.0722 5.003-4.153l1.6957-1.1802-1.6957-0.17085c-0.93264-0.094-16.315-0.18711-34.183-0.20698l-32.488-0.0361 0.2085 2.4559c0.3031 3.5688 0.2341 7.0967-0.2994 15.288-0.2605 4.0018-0.5568 11.562-0.6582 16.801-0.1704 8.8006-0.2256 9.6162-0.7256 10.724-0.2976 0.65965-0.9028 1.5037-1.3448 1.8756-0.764 0.64285-1.011 0.68491-5.0012 0.85175-2.3087 0.0965-4.8524 0.28174-5.6528 0.41159s-4.6876 0.44941-8.6384 0.71012l-7.1831 0.47402-0.2229 4.9117c-0.242 5.3338-0.2964 41.179-0.063 41.412 0.079 0.0786 5.0744 0.26124 11.102 0.4058 6.0273 0.14457 11.82 0.37941 12.872 0.52186 2.053 0.27793 3.587 0.92192 4.4366 1.8626 0.5181 0.57356 0.5293 0.96205 0.5354 18.483 0 9.8433 0.094 18.969 0.2014 20.278 1.4516 17.708 1.6654 25.674 0.8876 33.073-0.3872 3.6832-0.4573 6.295-0.3871 14.42 0.079 9.1172 0.047 9.9992-0.3893 10.876-0.5851 1.175-1.2898 1.5614-2.8323 1.5534-55.75-0.29179-61.788-0.2818-72.322 0.11962-10.339 0.39399-36.165 0.58412-36.481 0.26857zm39.35-1.957c3.4925-0.14427 20.493-0.31434 37.779-0.37794 28.267-0.10399 31.494-0.1583 32.076-0.53985 0.3561-0.23332 0.7036-0.69061 0.7723-1.0162 0.069-0.32558 0.1954-5.8307 0.2818-12.234 0.086-6.4029 0.2455-13.011 0.3536-14.684 0.1815-2.8113-0.035-11.313-0.7316-28.707-0.5384-13.447-0.8228-24.17-0.8184-30.858 0-5.612-0.062-6.8356-0.3801-7.0998-0.6509-0.54015-2.7884-1.0869-5.8332-1.492-3.6039-0.47955-35.187-0.83527-77.788-0.87614-28.42-0.0273-36.638 0.13273-46.831 0.91171-2.7649 0.2113-5.8903 0.38503-6.9453 0.38605l-1.9183 2e-3v9.2388c0 5.0813-0.083 9.4566-0.1857 9.7227-0.1754 0.45728-0.1426 0.45575 0.5953-0.0278 0.4296-0.28143 1.5268-1.1443 2.4383-1.9175 0.9114-0.77319 1.8342-1.4058 2.0505-1.4058 0.4756 0 1.4516 0.93062 1.4516 1.3841 0 0.60685-3.5369 3.7168-4.9768 4.376-1.7002 0.77839-3.0869 0.69651-4.4337-0.26179-1.1786-0.83856-5.6718-6.3897-5.6667-7.0009 0.01-0.66819 0.294-1.0412 0.9674-1.2512 0.6778-0.2114 0.9862 0.0838 3.3431 3.2004l1.6386 2.1668 0.1688-1.5052c0.093-0.82786 0.2603-4.8509 0.3722-8.94l0.2034-7.4348-10.956-0.20929c-6.0256-0.11511-11.4-0.23172-11.944-0.25914-0.9357-0.0472-0.9981 3.8e-4 -1.1645 0.88755-0.097 0.51556-0.097 4.2755 0 8.3554 0.493 20.98 0.5124 29.292 0.081 34.802-0.2375 3.0326-0.4569 9.3318-0.4977 14.287-0.1003 12.18 0.3292 36.298 0.6537 36.709 0.417 0.52823 1.8933 0.80319 6.6803 1.2442 4.4188 0.40709 17.796 0.64537 18.312 0.32618 0.1449-0.0895 4.8517-0.23254 10.46-0.31782 7.7202-0.1174 11.858-0.0542 17.038 0.2603 3.7632 0.22844 8.0328 0.45729 9.488 0.50855 4.5157 0.15908 27.187-0.0775 33.867-0.35345zm-33.867-15.118c-5.7617-0.90786-15.399-4.1142-17.966-5.9776-2.0885-1.5156-4.9439-5.5734-6.5752-9.344-0.8426-1.9476-0.8581-2.0555-0.8366-5.8208 0.026-4.5141 0.6717-8.3106 2.1236-12.482 1.768-5.0792 3.0424-7.0092 6.792-10.285 3.5206-3.0762 6.6653-5.0849 10.489-6.7l1.9643-0.82967 0.8776-4.1c0.4827-2.255 1.1279-5.7669 1.4338-7.8042 0.3192-2.1261 0.7151-3.8696 0.9294-4.0925 0.276-0.28727 0.9028-0.37258 2.4077-0.3277 3.1724 0.0946 3.7504 0.70141 5.2191 5.4786 1.1702 3.8066 1.1529 3.7177 1.6066 8.2316 0.2149 2.1381 0.4222 3.9075 0.4607 3.932 0.038 0.0244 0.9894 0.23797 2.1133 0.47453 2.2994 0.48397 4.844 1.6754 7.7127 3.6111 2.7508 1.8563 3.9193 3.2927 5.0369 6.192 4.1202 10.689 4.4354 11.72 4.5816 14.997 0.3719 8.3323-1.4636 15.175-5.0639 18.88-2.2226 2.2868-6.5828 4.7468-10.349 5.8387-2.0607 0.59742-2.8101 0.67834-6.0667 0.65502-2.2145-0.0159-4.9984-0.22872-6.8906-0.52688zm12.736-2.5735c1.9572-0.61528 4.9587-2.1179 7.0016-3.5053 4.2458-2.8832 6.0697-8.1959 6.0537-17.633-0.01-3.1791-0.061-3.536-0.9111-5.8974-0.498-1.3824-1.437-4.0018-2.0867-5.8208-1.7243-4.8275-2.0971-5.5596-3.5173-6.9076-1.7805-1.6899-5.5089-3.8485-7.5899-4.3943-0.9552-0.25052-1.8185-0.37373-1.9184-0.27378-0.1 0.0999 0.1489 2.2393 0.5531 4.7542 0.6479 4.0322 0.7147 4.9946 0.5647 8.1444-0.3067 6.44-1.6448 10.661-3.9787 12.55-0.924 0.74782-1.1621 0.81163-3.0288 0.81163-1.6619 0-2.3079-0.13204-3.595-0.73478-3.1274-1.4646-5.2586-3.8653-6.2428-7.0321-0.4235-1.3628-0.5225-2.4424-0.5225-5.6955 0-4.601 0.2835-7.2962 1.1984-11.39 0.3554-1.5907 0.5933-2.945 0.5286-3.0097-0.1986-0.19864-2.2921 0.72056-4.2406 1.862-2.5849 1.5142-4.6717 3.1492-7.1758 5.622-1.7304 1.7089-2.359 2.5597-3.2294 4.3709-2.3285 4.8455-3.4683 9.7872-3.5134 15.233-0.025 3.0039 0.023 3.3116 0.7954 5.1685 1.0018 2.4063 3.5535 6.3699 4.9511 7.6905 0.6234 0.58914 1.966 1.3594 3.4096 1.9562 2.9091 1.2026 9.7782 3.3162 12.832 3.9486 4.914 1.0174 10.758 1.0957 13.662 0.18294zm-8.1522-20.974c2.8513-0.99399 4.333-10.527 2.9777-19.159-0.3198-2.0373-0.8105-4.9543-1.0904-6.4823-0.2798-1.528-0.634-4.0591-0.7871-5.6247s-0.5848-3.8873-0.9594-5.1594c-0.3746-1.2721-0.7883-2.6836-0.9193-3.1368-0.3656-1.2641-1.4348-2.2916-2.1545-2.0704-0.3258 0.10012-0.6328 0.21769-0.6823 0.26126-0.095 0.0837-1.552 7.7074-2.9553 15.465-0.4606 2.5466-1.004 5.5232-1.2076 6.6146-0.2035 1.0914-0.4491 4.0728-0.5457 6.6252-0.1847 4.881 0.01 6.5509 0.9749 8.456 0.8162 1.608 3.1825 3.5173 5.1042 4.1183 1.3929 0.43563 1.2722 0.4307 2.2448 0.0917zm35.771 8.0266c-1.2565-0.6313-1.9766-1.8078-2.9388-4.8015-0.8062-2.5082-0.8149-2.5953-0.6941-6.9059 0.11-3.927 0.2039-4.6298 0.9345-6.9952 0.8861-2.8686 1.3985-3.7367 2.6318-4.459 1.2628-0.73958 3.836-1.0694 4.8941-0.62724 1.3096 0.54717 2.5698 1.9556 3.4695 3.8776 0.7282 1.5557 0.8157 2.0275 0.9079 4.8966 0.091 2.8154 0.01 3.5946-0.7246 6.8792-1.0039 4.498-1.2471 5.2765-2.0438 6.543-1.1927 1.896-4.3015 2.6652-6.4365 1.5925zm3.3877-1.9412c1.2162-0.42397 1.7526-1.5486 2.6753-5.6091 0.9168-4.0343 1.2385-7.1885 0.8933-8.7582l-0.2263-1.0292-1.5018 1.8357c-1.5256 1.8647-6.2939 9.4293-6.2892 9.9773 0 0.16486 0.2863 0.90914 0.6331 1.654 0.9617 2.0653 1.9674 2.5739 3.8156 1.9297zm-2.6853-10.455c1.2843-2.1251 3.0402-4.7026 3.9021-5.7276l1.567-1.8637-0.9678-0.88698c-1.0902-0.99908-2.2106-1.152-3.7447-0.51094-1.0029 0.41906-1.4644 1.167-2.4517 3.9741-0.5263 1.4962-0.6845 2.5647-0.7953 5.3733-0.076 1.9282-0.072 3.5057 0.01 3.5057 0.081 0 1.1977-1.7387 2.4819-3.8639zm11.107 12.376c-0.9701-1.0719-0.2491-2.4266 1.2915-2.4266 0.6169 0 0.9835 0.16015 1.1717 0.51177 0.3675 0.68667 0.3465 1.6911-0.044 2.0812-0.4819 0.48194-1.9225 0.3829-2.4196-0.16636zm9.5994-0.24375c-2.604-1.3206-3.8528-3.8362-3.1677-6.3806 0.2025-0.75186 0.5104-1.2129 0.9411-1.4092 1.0786-0.49142 1.4497 0.0807 1.4497 2.2346 0 1.7751 0.039 1.8919 0.9216 2.7237 2.5407 2.3962 5.516 0.95902 6.8668-3.317 0.8253-2.6124 0.8437-3.504 0.1132-5.4833-0.7011-1.8995-2.3803-3.6286-3.7789-3.891-0.9952-0.1867-1.5952 0.0159-3.4588 1.1676l-0.9018 0.55734-0.5425-0.54251c-0.4949-0.49487-0.5425-0.86517-0.5425-4.2174 0-5.0621-0.3024-4.7796 5.4551-5.0961 4.8196-0.26492 5.922-0.11702 5.922 0.79451 0 0.94345-0.6323 1.1051-4.9951 1.2768l-4.2653 0.16792v4.0881l0.9922-0.35408c1.3083-0.46691 2.0706-0.46068 3.7243 0.0304 1.7994 0.53438 3.0349 1.7944 4.246 4.3302 0.8389 1.7567 0.9594 2.258 0.9594 3.9933 0 3.9558-1.7419 7.6336-4.354 9.1926-1.8982 1.133-3.5374 1.1723-5.5848 0.13397zm-78.824-68.324c3.6729-0.23309 75.761-0.72921 87.374-0.6013l4.6963 0.0517v-46.338l-1.5213 0.1668c-2.317 0.25403-15.67 0.67007-21.657 0.67475-2.9254 2e-3 -7.6879-0.11258-10.583-0.25527-7.714-0.38014-10.082-0.3965-45.985-0.31757l-32.783 0.0721 0.1865 7.5946c0.1025 4.1771 0.3569 12.06 0.5653 17.517 0.2083 5.457 0.381 12.571 0.3837 15.809v5.887h7.6112c4.1863 0 9.4548-0.11699 11.708-0.25999zm88.036-48.312 4.0349-0.17544 7e-4 -1.6216c9e-4 -2.2641 0.7495-12.65 1.0509-14.579 0.4222-2.7028 0.624-6.9083 0.3547-7.3897-0.2121-0.37896-0.4935-0.14662-1.7951 1.4821-0.8489 1.0623-2.0604 2.7352-2.6923 3.7174-0.8726 1.3566-1.2954 1.7859-1.759 1.7859-0.7387 0-1.2453-0.4601-1.2453-1.1311 0-0.7326 1.9696-3.6454 4.6493-6.876 2.759-3.326 3.9969-4.1429 5.5178-3.641 1.195 0.39438 4.25 3.2392 5.9696 5.5588 1.5957 2.1524 1.7113 3.1204 0.4262 3.5698-0.7252 0.25363-0.834 0.18891-1.9843-1.1799-0.6694-0.79656-1.997-2.266-2.9502-3.2654l-1.7332-1.8172 0.1062 2.4728c0.064 1.4889-0.1102 4.3678-0.4377 7.2353-1.0989 9.6218-1.5255 15.478-1.1276 15.478 1.0079 0 12.883-1.4218 15.524-1.8588 0.8646-0.14302 3.1747-0.33874 5.1335-0.43493 3.1623-0.1553 3.6253-0.23881 4.1317-0.74522 0.8109-0.81087 1.1251-3.0081 1.4212-9.9388 0.6695-15.67 0.7579-24.346 0.5268-51.713-0.095-11.208-0.043-14.298 0.2781-16.669 0.2748-2.0286 0.3951-5.3023 0.3969-10.805v-7.8946l-0.6272-0.50803c-2.9504-2.39-20.035-3.6294-30.298-2.198-3.5244 0.49157-10.692 1.9507-15.509 3.1574-4.2273 1.0589-8.8262 1.5734-11.774 1.3172-1.1641-0.10117-9.2604-0.28118-17.992-0.40001-13.663-0.18596-16.059-0.27703-17.198-0.65372-3.3564-1.1104-6.5778-1.2546-30.824-1.3794-22.3-0.11486-23.302-0.0991-27.252 0.42947-6.6211 0.8859-10.295 1.314-12.803 1.4915l-2.3517 0.16654 0.1755 2.0237c2.0525 23.669 2.0349 23.102 1.8768 60.364-0.1311 30.906-0.1132 32.726 0.3302 33.602 0.5704 1.1268 1.3397 1.413 5.2847 1.966 5.9315 0.83151 11.822 0.93134 55.22 0.93588 23.998 2e-3 43.664 0.036 43.702 0.0744 0.1659 0.16588 22.576 0.20473 26.238 0.0455zm-21.459-38.169c-0.307-0.33928-0.5786-1.6046-0.8944-4.1672l-0.4535-3.68-6.9823-0.1008-0.6803 1.9024c-0.3742 1.0463-0.9492 2.6648-1.2779 3.5965-0.6608 1.8737-1.2436 2.4526-1.9865 1.9732-0.7128-0.45992-0.5334-1.798 0.598-4.461 0.6916-1.6277 1.0187-2.7999 1.0337-3.7042 0.018-1.1065 0.1192-1.3656 0.6167-1.5839 0.7185-0.31521 1.2102-1.7165 1.7799-5.0724 0.2262-1.3326 0.7695-4.1306 1.2073-6.2177 0.467-2.2261 0.8657-5.0974 0.9647-6.9461 0.1368-2.5577 0.2603-3.2431 0.6552-3.638 1.1222-1.1222 1.9668-0.23868 2.3405 2.4482 0.1512 1.0871 0.8105 4.1755 1.4652 6.8631 0.6546 2.6876 1.4918 6.4938 1.8605 8.4584 0.3686 1.9645 0.8683 3.9567 1.1103 4.4271 0.3326 0.64642 0.3654 0.92975 0.1345 1.1606-0.1883 0.18836-0.2567 0.82411-0.1784 1.6584 0.1787 1.9036 0.657 5.5 0.8027 6.0357 0.1348 0.49594-0.758 1.5349-1.3191 1.5349-0.1957 0-0.5543-0.21925-0.7968-0.48722zm-1.6257-11.353c-0.086-0.5457-0.2799-1.7661-0.4309-2.712-0.1509-0.94589-0.7055-3.3179-1.2325-5.2712l-0.9581-3.5514-0.3493 1.3024c-0.1921 0.71634-0.8134 3.3265-1.3807 5.8004-0.5673 2.4738-1.1129 4.7063-1.2125 4.9609-0.1657 0.42411 0.067 0.46302 2.7698 0.46302h2.9507zm-21.614 11.033c-4.392-0.39062-6.5972-1.53-6.9875-3.6102-0.091-0.48632-0.094-2.9357-0.01-5.4431 0.088-2.5074 0.2359-8.998 0.3289-14.423 0.1617-9.4264 0.1922-9.8768 0.6865-10.141 0.4012-0.21473 0.6383-0.16823 1.0568 0.20726 0.4948 0.44398 0.5255 0.68525 0.371 2.9108-0.093 1.3347-0.1689 7.7523-0.1694 14.261-8e-4 10.414 0.049 11.89 0.417 12.297 0.5961 0.65861 2.3799 1.0417 6.0322 1.2955 2.5932 0.18018 3.2457 0.30913 3.5297 0.69759 0.8677 1.1867 0 2.2471-1.789 2.1906-0.6434-0.0203-2.2049-0.12895-3.47-0.24147zm36.355-0.27487c-1.1948-0.35831-2.6832-1.9682-3.6075-3.9022-0.6582-1.3771-0.7276-1.7158-0.4684-2.2849 0.2402-0.52716 0.4977-0.66808 1.2206-0.66808 0.8503 0 0.9776 0.11525 1.7694 1.6008 0.8804 1.6517 1.9263 2.6326 2.8072 2.6326 0.5213 0 1.5367-0.94691 2.2871-2.1326 1.0371-1.6389 1.2215-3.0827 1.2244-9.5876v-6.2963l-0.9922 0.77352c-2.3776 1.8536-5.2401 1.788-7.3003-0.1673-1.7749-1.6846-2.278-3.7671-2.482-10.275-0.1477-4.7114-0.1401-4.8043 0.4173-5.1025 0.659-0.3527 1.462-0.0357 1.7392 0.6866 0.097 0.25152 0.099 1.5348 0 2.8516-0.2101 2.9423 0.247 7.2378 0.9361 8.7956 0.4029 0.91079 0.7598 1.2691 1.6613 1.6679 1.3149 0.58164 2.0552 0.48135 3.3067-0.44798 1.5807-1.1739 2.4882-3.831 2.8258-8.2739 0.1832-2.4105 0.5747-3.1837 1.6121-3.1837 0.3234 0 0.7189 0.15764 0.8788 0.35031 0.209 0.25188 0.2296 3.9131 0.073 13.031-0.2034 11.867-0.2533 12.791-0.778 14.4-0.6899 2.1161-1.8252 3.947-2.9993 4.8368-1.0207 0.77359-2.8522 1.0813-4.139 0.69543zm-89.469-0.35307c-0.1755-0.21154-0.2808-0.71923-0.2339-1.1282 0.065-0.56985 0.2832-0.80759 0.9323-1.0174 0.4659-0.15059 0.8977-0.32919 0.9596-0.39688 0.062-0.0677-0.1048-1.5518-0.3706-3.2981-0.3267-2.1467-0.4875-4.7252-0.4966-7.9612-0.01-2.6324-0.092-6.9484-0.1874-9.5912l-0.1741-4.8049h-1.2487c-1.4437 0-1.9856-0.45344-1.735-1.4518 0.1973-0.78603-0.199-0.74181 6.1099-0.6817 6.4499 0.0614 7.6596 0.37189 10.21 2.6201 1.5945 1.4058 2.5176 3.4926 3.0203 6.8276 0.7296 4.8403 0.4511 6.9713-1.3649 10.447-2.649 5.0695-9.1117 10.208-13.39 10.646-1.3351 0.13678-1.7816 0.0908-2.0306-0.20927zm8.6538-5.9756c2.0795-1.7504 3.6134-3.67 4.8606-6.0827 0.8805-1.7033 0.889-1.7541 0.8875-5.2917 0-5.7206-1.167-8.434-4.2714-9.9528-1.2704-0.62155-1.9037-0.74334-4.4-0.8462l-2.9161-0.12015 0.1938 9.3622c0.1495 7.2187 0.3088 10.059 0.6959 12.405 0.276 1.6735 0.5044 3.1394 0.5074 3.2577 0.01 0.40097 2.6477-1.2206 4.4423-2.7312zm18.816 5.2983c-2.0605-0.26516-3.4424-0.9971-4.0037-2.1206-0.3919-0.78464-0.4626-1.6988-0.463-5.9869-3e-4 -4.1754-0.07-5.1185-0.3973-5.3902-0.5096-0.42294-0.5074-1.1746 0.01-1.687 0.3289-0.32889 0.4392-1.7135 0.6074-7.6257 0.2856-10.041-0.031-9.6486 7.7046-9.5309 3.0277 0.0461 5.0094 0.18377 5.2255 0.36313 0.435 0.36098 0.452 1.3374 0.031 1.7587-0.2183 0.21821-1.5367 0.3175-4.2162 0.3175-2.1442 0-4.1983 0.11395-4.5646 0.25322-1.1353 0.43165-1.4332 1.4593-1.7343 5.9833-0.154 2.313-0.2799 5.1461-0.2799 6.2957v2.0902l4.8529-0.19045c4.3274-0.16983 4.9004-0.14294 5.2916 0.24829 0.2414 0.24131 0.4388 0.64456 0.4388 0.8961 0 0.99848-0.482 1.0924-5.6092 1.0924h-4.9741v4.5796c0 3.2599 0.095 4.7025 0.3307 5.0061 0.5905 0.7614 2.3469 1.0175 8.1112 1.1827 5.0196 0.14382 5.7192 0.21776 6.1515 0.65008 0.5973 0.59727 0.6196 1.1119 0.072 1.6595-0.3529 0.35295-1.2223 0.41053-5.7547 0.38108-2.9364-0.0191-6.0076-0.12075-6.8249-0.22593zm205.58 22.112c-3.6738-1.0957-5.0696-2.4004-7.1019-6.6381-1.4109-2.9421-2.5029-6.1738-3.7828-11.196l-0.85535-3.3561v-8.4667c0-9.4122-0.0831-8.7587 2.271-17.859 1.1984-4.6331 2.3938-8.2806 3.3074-10.092 0.84788-1.6812 3.5403-3.8716 5.8756-4.7802 3.4702-1.3501 8.6792-1.708 11.157-0.76662 3.9756 1.5106 7.3762 5.7642 9.9042 12.389 2.02 5.2934 2.4416 14.691 0.97884 21.82-1.518 7.3973-3.7846 17.253-4.3397 18.869-1.4542 4.2348-3.6426 7.4214-5.9638 8.6838-3.7847 2.0585-7.6461 2.5286-11.45 1.3939zm6.9887-5.6014c1.4752-0.50264 3.1642-2.1153 4.0535-3.8703 1.1684-2.3058 3.8639-13.441 5.1423-21.244 0.29279-1.787 0.52735-4.5278 0.53652-6.2695 0.0169-3.2134-0.5022-9.4824-0.78347-9.461-0.0885 7e-3 -0.57768 0.53357-1.087 1.1708-0.50932 0.63724-1.856 2.2449-2.9926 3.5726-2.9825 3.4839-6.5098 8.7226-10.426 15.485-1.976 3.4119-4.5127 7.5646-4.8979 8.0178-0.20978 0.24686-0.65686 0.90822-0.9935 1.4697-0.60927 1.0161-0.60995 1.0277-0.14685 2.5135 0.25588 0.82099 1.0592 2.7174 1.7851 4.2142 1.3705 2.8259 2.2844 3.8522 3.9768 4.466 1.2605 0.45713 4.4033 0.42193 5.8333-0.0653zm-10.326-22.001c2.2659-3.7355 4.8066-7.971 6.6482-11.083 2.5168-4.253 6.1429-9.0078 9.2044-12.069 0.99353-0.99353 1.8064-1.9032 1.8064-2.0215 0-0.11829-0.75971-1.1054-1.6882-2.1937-2.2495-2.6364-3.5951-3.2561-6.6408-3.0587-3.1576 0.20474-6.0451 1.5146-7.1897 3.2615-1.422 2.1703-4.3105 10.458-5.0024 14.354-0.46356 2.6098-0.83091 13.87-0.53071 16.268 0.23436 1.872 0.0404 2.0696 3.3929-3.4571zm33.267 27.578c-1.4475-1.0679-1.936-2.052-1.7872-3.6005 0.23109-2.405 1.5006-3.4337 4.3208-3.5012 1.6535-0.0396 1.7152-0.016 2.8029 1.07 1.011 1.0095 1.1208 1.2501 1.2073 2.6458 0.119 1.9213-0.24714 2.6377-1.7546 3.4334-1.6332 0.86207-3.5825 0.8427-4.7892-0.0476zm27.651-0.0977c-1.3097-0.39228-3.0361-1.0623-3.8365-1.4888-1.9671-1.0484-5.5296-4.643-6.4344-6.4924-1.5555-3.1794-1.8867-7.8186-0.79251-11.101 0.37353-1.1205 0.71491-1.6008 1.5384-2.1645 1.6605-1.1366 2.307-1.1883 3.3379-0.26725l0.88096 0.78713 7e-3 4.1954c7e-3 3.9051 0.052 4.2869 0.65427 5.5183 0.89548 1.831 3.1563 3.9441 5.0012 4.6743 2.2786 0.90191 5.5034 0.85883 7.4487-0.0995 2.0375-1.0038 4.7605-3.8452 5.9053-6.1623 1.2797-2.59 2.9754-8.0332 3.3514-10.758 0.51426-3.7265-0.39442-7.5202-3.0001-12.525-1.8454-3.5446-5.8612-6.2424-9.564-6.4252-1.7111-0.0845-2.0132-0.0123-3.9688 0.94776-1.1642 0.57154-2.7715 1.5358-3.5719 2.1429-1.7373 1.3177-2.5146 1.5604-3.3955 1.0601-1.0026-0.56933-1.6002-1.5537-1.8936-3.1195-0.33313-1.7775-0.33403-12.187-1e-3 -15.877 0.30844-3.4224 0.62819-4.4268 1.5631-4.9103 1.5375-0.79509 6.495-1.2068 16.397-1.3619 9.4572-0.14807 9.7076-0.13875 10.54 0.39243 1.3788 0.8797 1.4837 2.6137 0.23381 3.8636-0.79303 0.79303-2.3103 0.91715-14.049 1.1493l-8.9936 0.17785-0.16938 0.79375c-0.0932 0.43657-0.18347 2.9198-0.20068 5.5184-0.0291 4.3985 6.6e-4 4.7123 0.43171 4.5458 3.1168-1.2042 3.682-1.3117 6.9453-1.3207 3.8551-0.0107 5.2983 0.34793 8.1006 2.0131 3.3644 1.9992 5.397 4.4455 7.9903 9.6164 1.5472 3.0851 2.3668 5.6899 2.686 8.5364 0.52718 4.7008-1.0841 12.46-3.7445 18.031-1.2128 2.54-1.5896 3.0537-4.0416 5.5107-2.2629 2.2676-3.0375 2.8637-4.7482 3.6541-2.138 0.9878-5.251 1.7227-7.1257 1.6823-0.60566-0.0131-2.1728-0.34473-3.4824-0.73702zm68.527-11.045c-2.4203-0.61732-3.4261-1.4452-4.6226-3.8047-0.98696-1.9463-2.334-6.2209-2.651-8.4122-0.33648-2.3265-0.3353-6.8004 3e-3 -9.4945 0.33654-2.684 2.2233-9.6536 2.9921-11.053 0.74175-1.3499 2.4879-2.6702 4.2063-3.1806 1.8106-0.53769 4.7651-0.52446 5.9263 0.0265 2.0907 0.99211 4.4881 4.3707 5.5148 7.7719 0.59398 1.9676 0.84232 8.0465 0.42735 10.461-0.1742 1.0134-0.84076 4.1371-1.4812 6.9416-1.5677 6.8644-2.4816 8.6134-5.2347 10.018-1.2535 0.63955-3.9232 1.0211-5.0799 0.72608zm3.9674-3.7735c1.2998-0.74808 2.1532-2.8589 3.4893-8.6301 1.1712-5.0588 1.2259-5.4747 1.2434-9.452 0.0106-2.4044-0.0916-4.2703-0.24222-4.4209-0.17104-0.17104-0.94159 0.55437-2.2426 2.1112-1.7846 2.1356-3.3691 4.538-8.2924 12.573l-1.5479 2.5263 0.58518 1.5648c1.2804 3.4238 2.6785 4.6298 5.0242 4.3339 0.65484-0.0826 1.5472-0.3554 1.983-0.60622zm-4.9017-14.935c3.1332-5.2464 5.2466-8.2382 7.2481-10.261l1.2076-1.2204-0.94293-1.1016c-0.51862-0.60588-1.2823-1.2771-1.697-1.4915-1.138-0.58847-3.0847-0.48216-4.6678 0.2549-1.5897 0.74014-1.9274 1.2793-3.3354 5.3244-1.1963 3.437-1.5084 5.577-1.5084 10.344 0 3.3106 0.0551 3.8493 0.36015 3.5212 0.19808-0.21308 1.6991-2.6295 3.3357-5.3698zm17.317 18.57c-0.30266-0.14685-0.75287-0.60996-1.0005-1.0291-0.40337-0.68286-0.41039-0.85735-0.0674-1.6782 0.71969-1.7225 2.7972-2.0745 3.9759-0.67376 1.132 1.3453 0.83042 2.8678-0.67184 3.3914-1.0013 0.34905-1.5002 0.34673-2.2362-0.0104zm15.865-0.0654c-2.9287-0.72221-5.8355-3.28-6.5812-5.7909-0.99285-3.3433-0.037-6.7688 1.8967-6.797 1.1115-0.0162 1.3824 0.61145 1.3702 3.175-0.014 2.9432 0.45617 4.0122 2.2562 5.1301 1.6716 1.0381 3.6283 1.2143 5.1073 0.45977 1.924-0.98154 3.3427-2.8776 4.2894-5.7324 1.0976-3.3102 1.2912-5.3672 0.69827-7.422-0.93255-3.2319-2.4514-5.4733-4.3759-6.4578-2.192-1.1212-3.7264-0.92527-6.321 0.80727-1.7804 1.1889-2.3826 1.1986-3.1351 0.0502-0.37586-0.57363-0.44419-1.3933-0.43395-5.2054 0.015-5.584 0.19363-6.9137 0.99966-7.4418 0.93779-0.61447 4.057-0.90221 9.8764-0.9111 5.3392-8e-3 5.3527-7e-3 5.7617 0.61758 0.56764 0.86633 0.15159 1.9162-0.84496 2.1322-0.4089 0.0886-3.3439 0.20968-6.5222 0.269-3.1783 0.0593-5.8257 0.15484-5.8831 0.21225-0.0574 0.0574-0.18496 1.5153-0.28346 3.2398-0.17249 3.0201-0.16046 3.1276 0.32682 2.9212 3.8504-1.6307 7.978-0.8105 10.654 2.117 2.267 2.4805 4.0076 6.7924 4.0076 9.9281 0 2.2887-1.0558 6.4648-2.247 8.8877-1.0509 2.1376-3.2797 4.4144-5.1942 5.3062-1.5331 0.71413-3.7402 0.91968-5.4219 0.50496zm-544.35-4.2399c-3.5401-0.99121-5.8544-3.7039-7.0049-8.2105-0.5632-2.2058-0.5036-27.525 0.066-28.094 0.4471-0.44706 0.6383-0.45218 1.1711-0.0314 0.3681 0.29082 0.4355 1.8951 0.5581 13.295 0.1311 12.198 0.1721 13.069 0.6928 14.724 0.8063 2.5644 1.9726 4.1516 3.7231 5.0669 1.1987 0.62672 1.6873 0.73923 2.7716 0.63815 1.1413-0.10639 1.4465-0.26938 2.2953-1.2258 0.5384-0.60673 1.3415-1.9741 1.7846-3.0386 1.4538-3.4921 1.6604-5.4912 1.8078-17.488 0.073-5.9664 0.2427-11.056 0.3765-11.311 0.2805-0.53378 1.5447-0.62469 2.0238-0.14552 0.4204 0.42036 0.4406 19.7 0.024 23.098-0.7307 5.9625-3.1847 11.142-5.8645 12.378-1.2598 0.58096-3.0756 0.72221-4.4255 0.34426zm-26.935-1.2656c-0.444-0.44398-0.4041-9.293 0.065-14.342 0.315-3.3927 0.3138-3.9965-0.01-4.3184-0.4687-0.46871-0.4728-0.86875-0.016-1.5343 0.1971-0.28704 0.4427-1.3553 0.5457-2.374s0.3576-3.6182 0.5657-5.7767c0.2515-2.6091 0.5262-4.1749 0.8195-4.6714 0.926-1.5675 4.1407-2.6378 6.4409-2.1446 2.7879 0.59791 4.4962 2.0056 5.7949 4.7754 0.5649 1.2046 0.6881 1.8539 0.6882 3.6273 2e-4 1.9789-0.067 2.2559-0.8037 3.3039-1.2565 1.7878-3.126 3.045-5.8106 3.9077-1.3097 0.42084-3.0494 0.84754-3.8661 0.94822l-1.4848 0.18307-0.3343 2.9506c-0.1839 1.6229-0.3916 5.6296-0.4616 8.9038s-0.2378 6.1615-0.373 6.4162c-0.2818 0.531-1.2927 0.6145-1.7617 0.14552zm6.8502-21.809c3.47-1.0774 5.2672-2.8272 5.2642-5.1252 0-1.6172-1.0195-3.7131-2.2624-4.6612-0.891-0.67962-1.2105-0.76278-2.9309-0.76278-2.7901 0-2.818 0.045-3.365 5.424-0.2441 2.4011-0.4417 4.7496-0.4389 5.2189 0 0.8188 0.04 0.84675 0.8648 0.69156 0.4729-0.089 1.7636-0.44234 2.8682-0.78531zm42.839 20.937c-0.2803-0.33785-0.3766-3.678-0.4768-16.55l-0.1255-16.127h-3.2179c-2.1501 0-3.3233-0.10536-3.5355-0.3175-0.4144-0.41442-0.4069-1.398 0.013-1.7351 0.192-0.15409 3.6708-0.34488 8.2967-0.45502 8.6875-0.20684 9.0996-0.1527 9.0996 1.1955 0 1.2092-0.3573 1.3122-4.5508 1.3122h-3.9158v8.6651c0 4.7658 0.141 11.977 0.318 16.025 0.2258 5.167 0.2386 7.4929 0.043 7.8052-0.3752 0.59932-1.5097 0.70472-1.9447 0.18065zm576.53-0.17324c-1.6774-0.48736-2.4194-1.5499-3.4098-4.8827-0.84454-2.8418-0.79371-7.8196 0.11452-11.216 1.1476-4.292 1.7467-5.0117 4.6265-5.5578 2.5036-0.47479 4.0703 0.552 5.4504 3.572 0.60638 1.3269 0.74224 2.0402 0.83147 4.3656 0.0916 2.3872-8e-3 3.2876-0.7023 6.3788-0.91041 4.0507-1.1386 4.7472-1.9111 5.832-0.9761 1.3708-3.1823 2.0364-4.9996 1.5084zm3.1803-2.6109c1.2558-1.3443 2.6949-8.3091 2.3963-11.598l-0.15265-1.6813-1.3602 1.6813c-0.74812 0.92474-2.3352 3.2887-3.5269 5.2532-2.1517 3.5472-2.1646 3.579-1.857 4.6083 0.73299 2.4533 3.01 3.3317 4.5005 1.736zm-3.058-8.9903c1.1246-1.8985 2.6468-4.1107 3.3828-4.916l1.3381-1.4641-0.53042-0.71248c-0.67878-0.91178-1.593-1.2318-2.8471-0.9965-1.4261 0.26754-2.048 1.0403-2.89 3.5913-0.56673 1.7169-0.77752 2.9629-0.89102 5.2667-0.0998 2.0267-0.0597 2.9628 0.12214 2.8504 0.14894-0.0921 1.1909-1.7207 2.3155-3.6192zm9.998 11.504c-1.0824-0.76553-0.45303-2.5077 0.90587-2.5077 1.0165 0 1.761 1.4186 1.2041 2.2941-0.34847 0.54781-1.476 0.66195-2.11 0.21358zm9.8557 0.14874c-1.8001-0.42335-3.5331-1.8104-4.0842-3.269-0.70255-1.8595-0.10009-4.4145 1.0409-4.4145 0.67967 0 0.90266 0.44719 0.83074 1.666-0.0912 1.5464 0.40575 2.7349 1.4008 3.3499 2.361 1.4592 4.5596 0.0283 5.7496-3.7421 0.63393-2.0086 0.54633-3.6108-0.29208-5.3428-1.2587-2.6001-3.5869-3.3949-5.6993-1.9456-1.2304 0.84418-1.2908 0.85426-1.8379 0.3071-0.55769-0.55769-0.6096-6.8909-0.0626-7.639 0.30006-0.41036 0.96415-0.51981 4.4165-0.72793 4.7007-0.28337 5.2845-0.20578 5.2845 0.70232 0 0.35244-0.14883 0.73635-0.33073 0.85313-0.1819 0.11677-1.9976 0.27263-4.0349 0.34634l-3.7042 0.13402-0.079 1.8192c-0.0723 1.6651-0.0387 1.802 0.39688 1.6169 0.26173-0.11127 1.1307-0.25467 1.9311-0.31866 1.1769-0.0941 1.6829 5e-3 2.6458 0.51996 2.1797 1.1649 3.9688 4.3728 3.9688 7.1162 0 1.5578-0.6222 4.1499-1.3208 5.5025-1.2325 2.3863-4.0752 3.9704-6.2199 3.4661zm-670.6-0.95288c-0.2796-0.33681-0.2816-1.0087-0.011-3.638 0.4424-4.3016 1.2128-9.5786 2.0353-13.941 0.4769-2.5287 0.7177-4.8988 0.8245-8.1152 0.083-2.4988 0.2231-4.6557 0.3115-4.793 0.088-0.1373 0.4225-0.3313 0.7425-0.43112 0.9669-0.30162 1.5588 0.5632 1.7442 2.5481 0.3096 3.3152 2.0483 9.0483 5.4393 17.935 0.5831 1.528 1.274 3.6116 1.5354 4.6302l0.4753 1.8521 0.3183-2.6458c0.175-1.4552 0.454-4.7294 0.6199-7.276 0.1659-2.5466 0.4732-5.9994 0.6827-7.6729 0.2096-1.6735 0.5649-4.9477 0.7895-7.276 0.3524-3.6521 0.4833-4.2969 0.9534-4.6964 0.6802-0.57797 0.8164-0.57669 1.5465 0.0145 0.5842 0.47313 0.5868 0.50741 0.2831 3.7703-0.1686 1.8111-0.5916 5.0788-0.94 7.2616-0.7076 4.4335-1.0623 8.2045-1.4673 15.601-0.2526 4.6142-0.3281 5.1084-0.9394 6.1516-0.5689 0.97074-0.79 1.1343-1.5335 1.1343-1.3717 0-1.8827-0.80078-2.7859-4.3656-0.4425-1.7462-1.8798-6.2661-3.194-10.044-1.3142-3.778-2.3985-6.9332-2.4095-7.0115-0.011-0.0783-0.4235 1.5246-0.9167 3.5619-1.0626 4.3888-1.6023 7.9843-1.9959 13.296-0.159 2.1461-0.4123 4.0508-0.5628 4.2327-0.3764 0.455-1.1326 0.41469-1.5451-0.0824zm-8.4003-0.69815c-0.3889-0.38885-0.4097-4.027-0.044-7.7523 0.7925-8.0826 1.0429-13.182 0.8782-17.882-0.095-2.7045-0.096-5.2214 0-5.5932 0.2025-0.80694 0.815-1.0994 1.5163-0.7241 0.4763 0.2549 0.5093 0.60026 0.5001 5.2246-0.01 2.7234-0.1199 6.4994-0.2545 8.3912s-0.3281 6.6949-0.4301 10.674c-0.1455 5.6801-0.2654 7.3141-0.5581 7.6068-0.4564 0.4564-1.1789 0.48127-1.6049 0.0553zm534.78-1.6663c-0.0912-0.36347-0.10732-0.80996-0.0358-0.99219 0.22681-0.57759 7.0853-8.6657 7.3483-8.6657 0.13839 0 0.25161-0.16497 0.25161-0.3666 0-0.33835-3.0258-3.1538-4.7961-4.4626-0.44372-0.32805-0.76013-0.80874-0.76013-1.1548 0-0.62285 0.62987-1.4244 1.1193-1.4244 0.3585 0 2.4761 1.5898 4.6932 3.5234l1.6841 1.4687 3.0347-3.1676c3.5368-3.6916 3.8045-3.8792 4.6999-3.2925 1.1885 0.77876 0.85319 1.3992-2.6398 4.8837l-3.2835 3.2756 1.6317 1.8798c3.363 3.8744 4.1444 5.343 3.2949 6.1925-0.6753 0.67529-1.5207 0.35325-2.3999-0.91422-1.6164-2.3301-4.2412-5.4092-4.4309-5.1978-2.0636 2.3-5.0592 5.7723-6.228 7.2188-1.2271 1.5188-1.638 1.8565-2.2589 1.8565-0.58866 0-0.79612-0.14825-0.92478-0.66087zm188.11-0.70686c-1.8086-0.87575-2.5683-6.4159-1.4122-10.298 0.66298-2.2262 1.3843-2.8864 3.1536-2.8864 3.0684 0 4.2386 3.7574 2.925 9.3912-0.29085 1.2474-0.70924 2.5433-0.92975 2.8799-0.72793 1.111-2.456 1.5333-3.7366 0.91322zm2.179-1.216c0.77689-0.51874 1.6933-4.1295 1.6933-6.672v-1.6106l-0.75566 0.8691c-1.0199 1.1731-3.4777 5.1801-3.4777 5.67 0 0.49149 0.5127 1.4853 0.89951 1.7435 0.16011 0.10691 0.52924 0.19439 0.82028 0.19439 0.29105 0 0.66017-0.0875 0.82029-0.19439zm-2.0118-5.2199c0.45741-0.79948 1.3714-2.1715 2.031-3.049 0.93755-1.2472 1.1337-1.6744 0.89887-1.9574-0.46042-0.55478-1.1837-0.64936-2.0809-0.27211-0.688 0.28928-0.89932 0.61702-1.3604 2.11-0.47261 1.5301-0.7623 4.6222-0.43304 4.6222 0.0621 0 0.48712-0.65412 0.94454-1.4536zm6.4038 6.4278c-0.41843-0.41843-0.40074-0.6198 0.0983-1.1188 0.52207-0.52207 0.76295-0.52217 1.2846-5.3e-4 0.31345 0.31345 0.34823 0.54048 0.14189 0.92604-0.30823 0.57593-1.0483 0.66975-1.5248 0.1933zm5.3178-0.11222c-0.93188-0.45951-1.4903-1.1789-1.7574-2.2639-0.24289-0.98674 0.21639-2.0689 0.87807-2.0689 0.43341 0 0.53571 0.1727 0.53571 0.9044 0 1.2687 0.21787 1.7037 1.0755 2.1472 2.3942 1.2381 4.5714-3.385 2.8189-5.9855-0.83768-1.243-1.8087-1.5455-2.9641-0.92331-1.4775 0.7957-1.7241 0.50182-1.7241-2.0552 0-1.5135 0.11102-2.317 0.34723-2.513 0.35569-0.29519 5.6456-0.48659 5.918-0.21413 0.0826 0.0826 0.0796 0.33384-7e-3 0.55839-0.12521 0.32629-0.63657 0.40829-2.5462 0.40829h-2.3896l-1.7e-4 1.1245-1.6e-4 1.1245 1.2569-0.0773c1.7269-0.10622 2.8181 0.61047 3.65 2.3973 0.74472 1.5996 0.78289 2.1828 0.26917 4.1127-0.46559 1.7491-0.99664 2.5748-2.0813 3.2362-1.0185 0.62104-2.1379 0.651-3.2801 0.0878zm-104.8-2.0044c-0.64652-0.64652-0.26176-1.4061 2.0496-4.0461l2.3671-2.7037-1.3749-1.1791c-0.75619-0.64848-1.7618-1.462-2.2348-1.8078-1.1858-0.86697-1.1451-2.0974 0.082-2.4798 0.41645-0.12976 1.0919 0.27263 2.8637 1.7059l2.3187 1.8757 1.5484-1.477c1.6725-1.5953 2.0639-1.7373 2.7373-0.99311 0.70528 0.77933 0.52568 1.2601-1.0428 2.7915l-1.4807 1.4457 1.7453 2.0455c1.8089 2.12 2.0342 2.6964 1.3295 3.401-0.78038 0.78038-1.3848 0.47029-3.0587-1.5692-1.197-1.4584-1.7151-1.9136-1.9532-1.7161-0.17819 0.14788-1.2561 1.3388-2.3953 2.6464-2.0696 2.3756-2.7722 2.789-3.5012 2.0601zm144.11-1.1792c-0.4796-0.57897-0.49778-4.3455-0.0237-4.9165 0.61094-0.73586 1.389-0.74606 2.1074-0.0276 0.62533 0.62533 0.65854 0.789 0.51278 2.5276-0.16948 2.0216-0.64971 2.8549-1.6452 2.8549-0.32343 0-0.75146-0.19726-0.95118-0.43836zm1.895-1.8545c0.16594-0.79929 0.24324-1.5117 0.1718-1.5832-0.14728-0.14728-1.7684 2.1278-1.7684 2.4817 0 0.40407 0.58144 0.82847 0.94428 0.68924 0.19285-0.074 0.4864-0.78852 0.65233-1.5878zm-0.19025-2.7342c6e-3 -0.0728-0.19093-0.17122-0.43799-0.2188-0.49175-0.0947-1.233 1.3353-1.233 2.3788 0 0.45672 0.18689 0.29478 0.82987-0.7191 0.45643-0.71972 0.83492-1.3681 0.84108-1.4409zm1.504 4.6302c0-0.21828 0.1786-0.39687 0.39688-0.39687s0.39687 0.17859 0.39687 0.39687-0.17859 0.39688-0.39687 0.39688-0.39688-0.1786-0.39688-0.39688zm2.0505 0.1111c-0.2754-0.16041-0.46302-0.58598-0.46302-1.0503 0-0.95195 0.40959-1.0285 0.63782-0.11914 0.32815 1.3075 1.7434 0.64646 1.7434-0.81427 0-1.0352-0.56313-1.5499-1.4518-1.3269-0.63667 0.15979-0.66489 0.11611-0.66489-1.0288 0-1.2973-0.15632-1.1967 2.0285-1.3059 0.24253-0.0121 0.49058 0.12678 0.55121 0.30868 0.0762 0.22859-0.22342 0.33073-0.97014 0.33073-0.78395 0-1.0804 0.10889-1.0804 0.39687 0 0.23399 0.24434 0.39854 0.59531 0.40093 0.74378 5e-3 1.0943 0.23472 1.4818 0.97074 1.0271 1.9513-0.67851 4.2446-2.4078 3.2374zm-23.283-0.26458c-0.57235-0.33337-0.60374-1.3847-0.0549-1.8402 0.28312-0.23497 0.32363-0.42314 0.13229-0.61448-0.84291-0.84291 0.23101-2.3358 1.2774-1.7758 0.40352 0.21596 0.64892 0.0956 1.3293-0.65215 0.90079-0.9899 1.1142-1.0622 1.8974-0.64311 0.725 0.38801 0.64768 1.5397-0.15997 2.3827-0.59425 0.62026-0.62477 0.74014-0.26459 1.0391 0.52779 0.43802 0.52198 1.436-0.0109 1.8782-0.3309 0.27462-0.58998 0.2821-1.2424 0.0359-0.67032-0.25302-0.9364-0.23765-1.4247 0.0823-0.70026 0.45882-0.85647 0.47019-1.4789 0.10764zm-55.562-0.26459c-0.78624-0.45794-0.5455-1.4254 0.64135-2.5773l1.1044-1.0719-0.97208-1.076c-1.1716-1.2968-1.28-2.2684-0.30278-2.7137 0.6062-0.27621 0.76824-0.20834 1.7189 0.71993l1.0496 1.0249 0.92034-0.89203c0.82391-0.79856 0.99035-0.86013 1.5884-0.58763 0.87485 0.39861 0.87931 1.397 0.0113 2.535l-0.65675 0.86105 0.93163 0.90297c1.0852 1.0518 1.1039 1.7702 0.0613 2.3535-0.68996 0.38602-0.75284 0.36702-1.644-0.49675l-0.92662-0.89811-1.1943 1.1009c-1.2478 1.1502-1.5649 1.2611-2.3306 0.81513z" fill="#fff"/></g></svg>
