<svg width="558.34mm" height="423.25mm" version="1.1" viewBox="0 0 558.34 423.25" xml:space="preserve" xmlns="http://www.w3.org/2000/svg"><g transform="translate(898.54 1911.6)"><path fill="#fff" d="m-690.18-1488.9c-3.5334-0.9062-8.2055-3.2458-10.319-5.1673-0.43656-0.3969-1.5967-1.2832-2.578-1.9694-1.6443-1.1499-1.8696-1.4284-2.8723-3.5507-0.59843-1.2666-1.3717-2.8983-1.7184-3.6259s-1.6572-2.7516-2.9123-4.4979c-3.9402-5.4821-6.5128-9.6712-7.7947-12.692-0.68108-1.6051-1.9536-4.4066-2.8278-6.2256-1.5996-3.3283-3.4114-8.4305-4.1433-11.668-0.56055-2.4796-1.6796-5.1956-4.5132-10.954-2.8199-5.7302-4.8711-10.657-6.114-14.684-0.47152-1.528-1.4548-4.2074-2.1851-5.9542-1.1184-2.6752-1.9647-5.2869-4.0635-12.54l-0.26015-0.899-3.6148 0.2253c-5.9747 0.3723-7.74 0.3257-8.0814-0.2133-0.21349-0.3371-0.2141-0.5889-2e-3 -0.926 0.28674-0.4562 3.0201-0.6933 9.5315-0.8267l1.6231-0.033-0.74373-2.3722c-0.40905-1.3047-0.88352-3.2945-1.0544-4.4217-0.17086-1.1271-0.90355-3.7208-1.6282-5.7637-0.72464-2.0428-1.9779-5.7383-2.7849-8.2122-0.80707-2.4738-1.9113-5.7481-2.4539-7.276-0.54255-1.528-1.1987-3.6711-1.4582-4.7625-0.25945-1.0914-1.0315-3.2346-1.7158-4.7625-1.763-3.9371-2.3216-5.4366-2.7886-7.4863-0.55277-2.4261-1.0781-3.7231-3.8264-9.4471-3.8082-7.9315-6.3207-14.21-7.4643-18.653-0.56185-2.1828-1.3697-5.0998-1.7952-6.4823l-0.77368-2.5135-1.5347 0.073c-1.6758 0.08-2.7986-0.3337-2.9433-1.085-0.16756-0.87 0.45659-1.2374 2.1024-1.2374 0.85531 0 1.5512-0.089 1.5463-0.1984-5e-3 -0.1092-0.28582-1.5677-0.62439-3.2412-0.50452-2.4937-0.95642-3.7658-2.5047-7.0509-1.039-2.2045-1.8892-4.0809-1.8892-4.1699s-0.88212-2.2143-1.9603-4.723c-2.6478-6.1612-5.243-12.976-6.2046-16.294-0.49398-1.7043-1.2867-3.5974-2.1045-5.0257-0.72158-1.2602-2.0047-3.5971-2.8514-5.193s-2.0988-3.6407-2.7824-4.544c-1.726-2.2803-3.3183-4.7805-5.1174-8.0352-0.8438-1.5265-2.056-3.5839-2.6938-4.5721s-1.5301-2.536-1.983-3.4396c-1.3971-2.7879-5.3163-7.8706-7.4891-9.7127-3.4688-2.9407-4.9023-3.4717-9.8278-3.6404-4.2789-0.1466-5.6529 0.075-8.439 1.3625-1.595 0.7369-2.6034 1.5249-5.7525 4.4953-2.1001 1.9809-5.4768 4.837-7.5037 6.3468-2.644 1.9694-4.174 3.334-5.4149 4.8295-2.7797 3.3499-7.3005 10.403-10.325 16.107-1.5429 2.9104-3.2871 6.0693-3.8761 7.0197-0.58894 0.9505-1.3384 2.3792-1.6654 3.175-0.32702 0.7958-1.5797 3.5305-2.7838 6.0771-6.1651 13.039-6.7597 14.521-7.906 19.712-0.77593 3.513-1.5928 5.7664-3.9017 10.763-1.6724 3.6191-5.1964 13.326-6.7068 18.475-0.94225 3.2118-1.5264 4.8371-3.0427 8.4655-0.45609 1.0914-1.0751 3.056-1.3756 4.3656-0.31537 1.3745-1.0362 3.3604-1.7049 4.6972-0.63721 1.2737-1.5141 3.211-1.9487 4.305-0.88982 2.24-2.3864 5.2857-3.3376 6.7926-0.66054 1.0464-1.5291 1.3229-2.1632 0.6888-0.48686-0.4869-0.38797-0.94 0.48076-2.2026 1.3313-1.935 6.3184-12.405 6.6307-13.921 0.48917-2.374 1.0558-4.1787 2.101-6.6917 0.54897-1.3199 1.3771-3.5904 1.8403-5.0456s1.3781-4.2532 2.0331-6.2177c0.65501-1.9646 1.7207-5.2388 2.3681-7.2761 0.64747-2.0373 2.0548-5.5496 3.1273-7.8052 2.2711-4.7761 2.9425-6.5347 3.4769-9.1069 0.52972-2.5497 1.7475-6.1547 3.4822-10.308 0.79736-1.9092 1.8623-4.4726 2.3666-5.6965s1.429-3.2479 2.0549-4.4979c0.62593-1.25 1.5959-3.3419 2.1556-4.6487s1.7782-3.6285 2.7078-5.1594c0.92964-1.5308 2.1698-3.7358 2.756-4.9 1.7674-3.51 3.6232-6.7332 5.4844-9.525 0.97012-1.4552 2.2249-3.4197 2.7885-4.3656 2.2968-3.855 5.509-7.2292 9.3699-9.8424 1.8711-1.2665 4.1144-3.1788 6.7676-5.7691 4.1804-4.0812 5.1288-4.7617 8.3344-5.9799 1.9327-0.7345 2.1188-0.7543 7.1438-0.76 4.7077-0.01 5.2656 0.043 6.3732 0.5555 1.8393 0.8508 6.0625 4.0765 7.3495 5.6137 1.8034 2.1539 5.2793 7.6093 7.444 11.683 3.084 5.804 4.82 8.681 7.0292 11.65 1.1206 1.5056 2.8121 4.1739 3.7591 5.9295 0.94694 1.7556 1.9831 3.5491 2.3026 3.9857 1.3573 1.8549 2.0492 3.491 3.0405 7.19 1.2072 4.5045 2.9297 9.1941 5.4148 14.742 0.95541 2.1328 1.7366 3.9643 1.736 4.0699-6e-4 0.1057 1.0776 2.3353 2.3959 4.9546 2.1983 4.3678 2.438 4.9977 2.8914 7.5996 0.76199 4.3727 0.17059 3.9056 4.9842 3.9362 4.487 0.028 5.271 0.1429 5.7059 0.8323 0.58637 0.9295-0.1575 1.1207-4.7446 1.219-3.0643 0.066-4.3525 0.1839-4.3525 0.3994 0 0.1683 0.52452 2.0313 1.1656 4.14s1.4263 4.7748 1.7449 5.9248c0.77953 2.8134 5.6607 14.92 8.0642 20.002 1.0668 2.2555 2.2349 5.1199 2.5956 6.3653 0.36075 1.2453 1.1612 3.448 1.7788 4.8948 0.61758 1.4468 1.4035 3.2991 1.7466 4.1163s0.80678 2.365 1.0306 3.4396c0.65129 3.1272 3.995 13.436 6.0831 18.755 1.0569 2.6921 2.0052 5.5496 2.1073 6.35 0.21311 1.6712 0.77412 4.2585 1.3614 6.2787l0.40533 1.3942h2.8387c2.907 0 3.4737 0.1767 3.4737 1.083 0 0.6458-0.53354 0.7691-3.3289 0.7691-1.3706 0-2.4919 0.053-2.4919 0.1186 0 0.065 0.28883 1.0475 0.64184 2.1828 0.35302 1.1353 1.0013 3.324 1.4407 4.8637s1.536 4.3972 2.437 6.35 2.0858 5.0388 2.6328 6.8578c1.5823 5.2615 2.444 7.365 6.0698 14.817 2.6125 5.3691 3.636 7.7861 4.3697 10.319 1.7534 6.0521 2.6561 8.4492 5.0316 13.362 0.77411 1.6007 1.7561 3.6843 2.1821 4.6302 0.81952 1.8194 4.5023 7.5355 7.8415 12.171 1.2317 1.7098 2.4702 3.8431 3.2207 5.5474 0.67068 1.5231 1.4446 3.0855 1.7198 3.4719 0.57829 0.8122 5.6034 4.4285 8.3177 5.9859 4.2354 2.4302 10.261 3.2706 13.995 1.952 2.6532-0.937 8.1483-4.3975 10.082-6.3488 5.2742-5.3238 6.03-6.3592 8.9829-12.307 3.2872-6.621 4.7187-9.8928 5.1749-11.827 0.59866-2.5387 1.3174-3.6303 4.811-7.307 4.6081-4.8497 6.3337-7.2044 8.2962-11.321 2.0164-4.2295 3.1318-7.4506 3.6625-10.576 0.65464-3.8558 1.6571-6.8832 3.7233-11.245 3.5161-7.422 3.4483-7.2306 5.4393-15.354 0.41127-1.6779 1.2155-4.2973 1.7871-5.8208 0.57165-1.5235 1.666-4.7941 2.4319-7.268 0.76587-2.4738 1.989-5.9862 2.718-7.8052s1.5613-3.9026 1.8495-4.6302c0.28821-0.7276 0.8063-2.6488 1.1513-4.2693s1.1518-4.3589 1.793-6.0854c1.1601-3.1238 1.4163-4.069 2.685-9.9046 0.36608-1.6838 1.251-5.0433 1.9666-7.4656 0.71555-2.4223 2.0244-7.3149 2.9085-10.872 1.0654-4.2868 2.0144-7.4353 2.8141-9.3355 1.8501-4.3962 3.2357-8.6019 3.6826-11.178 0.22274-1.2838 0.58139-2.9156 0.797-3.6264 0.21561-0.7107 0.3933-1.3655 0.39488-1.4552 2e-3 -0.09-3.5988-0.2502-8.0008-0.3568-4.7665-0.1155-8.1374-0.3034-8.3344-0.4647-0.41729-0.3418-0.426-1.0633-0.0177-1.4716 0.23471-0.2347 2.435-0.2728 8.7974-0.1523l8.4844 0.1607 0.77363-1.8189c2.1836-5.1335 3.1291-7.5352 4.7428-12.047 0.97109-2.7152 1.9991-5.8703 2.2845-7.0115 0.99909-3.9954 2.3801-7.5679 4.4654-11.552 1.1565-2.2094 2.2449-4.5491 2.4185-5.1993 0.42479-1.5907 1.9364-4.5505 3.315-6.4907 1.3242-1.8638 4.7613-7.5718 5.8142-9.6558 0.40396-0.7996 1.304-2.372 2.0001-3.4943s1.8201-3.0578 2.4978-4.301c1.5337-2.8136 2.7904-4.5118 6.0781-8.2135 5.6252-6.3336 8.5128-8.7967 12.922-11.022 2.5036-1.2639 7.1239-2.0608 11.991-2.0683 4.366-0.01 5.9953 0.3202 10.767 2.1602 1.9838 0.7651 2.3769 1.0502 4.8258 3.5004 3.6629 3.665 10.075 11.68 13.669 17.087 0.82219 1.2369 1.8152 3.1419 2.2066 4.2333 0.39147 1.0914 1.3438 3.2346 2.1164 4.7625 1.002 1.9818 1.529 3.4228 1.8386 5.0271 0.80151 4.1536 1.4827 6.4564 3.3263 11.245 2.6436 6.8663 3.3498 8.7345 6.201 16.404 1.4065 3.7835 2.7953 7.2922 3.0861 7.797 0.90043 1.563 2.3981 5.3307 3.0007 7.5488l0.57501 2.1167h6.5091c5.5653 0 6.5698 0.06 6.9276 0.416 0.2302 0.2288 0.34758 0.601 0.26085 0.827-0.17453 0.4548-1.591 0.5982-8.9237 0.9034-3.2637 0.1359-4.1672 0.2519-4.1672 0.5353 0 0.199 0.84153 2.0582 1.8701 4.1317 2.1871 4.4091 2.8446 6.1183 4.3507 11.31 1.4831 5.1128 5.46 15.054 6.7948 16.984 0.7993 1.1561 1.2637 2.4774 1.9307 5.493 0.34597 1.5642 1.105 3.9035 1.6868 5.1985 1.7116 3.81 6.3782 15.394 7.1837 17.833 0.4086 1.2369 1.0544 3.7967 1.435 5.6885 0.90672 4.5064 2.0724 9.2747 3.259 13.332l0.95869 3.2778 6.4674-0.1028c5.9113-0.094 6.4924-0.063 6.7582 0.3553 0.22579 0.3557 0.18817 0.5607-0.16828 0.9172-0.40167 0.4016-1.2056 0.4724-6.4277 0.566-5.0007 0.09-5.9454 0.1674-5.8253 0.4804 0.0788 0.2054 0.33239 1.1031 0.56347 1.9949 0.23108 0.8917 0.71945 2.4059 1.0853 3.3649 1.149 3.0119 3.2019 9.0295 4.1602 12.195 0.90996 3.0054 3.277 8.6289 5.458 12.967 1.5726 3.1278 1.8358 3.9761 2.2427 7.2288 0.33866 2.7073 0.44186 3.0136 1.8723 5.5562 6.1475 10.928 6.8458 12.346 8.3352 16.936 1.1458 3.5307 3.0286 6.8001 6.164 10.704 1.0174 1.2668 2.2698 2.8985 2.783 3.6261s1.4857 1.9778 2.1611 2.7781c0.67537 0.8004 1.8329 2.2928 2.5724 3.3165 1.4876 2.0593 2.0227 2.3996 6.1474 3.9092 4.8807 1.7863 7.6017 2.2993 12.196 2.2993 4.7065 0 6.8516-0.9592 11.461-5.125 6.3476-5.737 7.6436-7.6534 10.491-15.512 1.1811-3.2597 2.348-5.4371 5.388-10.054 3.5041-5.3219 4.1915-6.8979 5.3259-12.21 1.2457-5.8335 2.0678-8.4488 3.3979-10.809 1.9508-3.4612 3.0224-5.6572 3.7504-7.686 0.38906-1.0842 0.94929-2.4475 1.245-3.0296 0.29567-0.5821 1.229-3.1059 2.0741-5.6085 0.84679-2.5076 2.4437-6.427 3.5574-8.7312 2.2782-4.7133 3.7698-8.3335 3.8172-9.2644 2e-3 -0.031-1.0858-0.09-2.4165-0.1323-1.9629-0.062-2.4743-0.1635-2.7106-0.5391-0.21196-0.337-0.21191-0.5891 2e-4 -0.9261 0.24314-0.3862 0.7692-0.4756 3.1736-0.5394l2.8822-0.076 1.1112-2.3049c1.1209-2.325 3.2351-7.3597 4.2772-10.186 0.3105-0.842 0.68637-2.6875 0.83526-4.101 0.39185-3.7201 0.70373-4.8904 2.1302-7.9939 0.70232-1.528 1.7929-4.0164 2.4235-5.5299 1.2432-2.9838 1.9511-3.7965 2.6757-3.072 0.38051 0.3805 0.34973 0.5993-0.3459 2.4593-0.41997 1.1228-1.4376 3.5298-2.2614 5.3488-2.1455 4.7375-2.2515 5.0978-2.4917 8.4667-0.24033 3.3709-0.85677 5.21-4.2568 12.7-0.89178 1.9645-1.6911 3.7361-1.7763 3.9368-0.12931 0.3047 0.38946 0.3335 3.1418 0.1748 2.7919-0.161 3.348-0.1283 3.6317 0.2135 0.24585 0.2962 0.26024 0.5432 0.0541 0.9284-0.29361 0.5486-0.55047 0.5943-5.8397 1.0396l-2.2474 0.1892-0.57841 1.624c-0.31812 0.8932-1.1955 2.9768-1.9497 4.6302-3.2278 7.0761-4.4427 10.016-4.9945 12.087-0.32264 1.211-1.1263 3.5327-1.7859 5.1594-0.6596 1.6266-1.418 3.5799-1.6853 4.3405-0.26734 0.7606-1.3938 3.0553-2.5031 5.0993-2.4862 4.5807-2.7839 5.438-4.1193 11.862-1.281 6.1624-1.9047 7.6046-6.116 14.143-3.3399 5.1855-3.6632 5.7882-4.9935 9.3108-1.0335 2.7367-2.5764 6.2875-3.3366 7.6789-0.73048 1.337-4.038 5.3206-5.1789 6.2374-0.59271 0.4763-2.0458 1.778-3.2291 2.8925-2.3444 2.2083-4.829 3.7431-7.3764 4.5566-1.4478 0.4624-2.1058 0.5037-5.7843 0.3628-4.9842-0.191-6.8652-0.5583-11.127-2.1731-3.969-1.5038-5.1397-2.0735-6.1143-2.9756-1.0032-0.9286-11.193-14.552-12.396-16.574-1.4029-2.357-2.1599-3.9656-3.1127-6.6146-1.1928-3.3165-4.6772-10.394-7.3347-14.899-2.6233-4.4467-2.8615-5.0559-3.0718-7.8555-0.15845-2.1091-1.0193-4.921-2.0439-6.6757-0.9433-1.6157-4.7315-10.618-5.5608-13.215-0.45648-1.4294-1.6977-5.2183-2.7584-8.4198-1.0606-3.2014-2.1398-6.7455-2.3983-7.8757l-0.4699-2.0549-0.86249 0.1618c-1.0959 0.2056-1.8974-0.047-2.0916-0.6585-0.25226-0.7948 0.12647-1.323 1.0763-1.5012 0.49528-0.093 0.9005-0.2769 0.9005-0.409 0-0.132-0.41187-1.5177-0.91526-3.0794-0.5034-1.5616-1.4642-5.4587-2.1351-8.6602-0.67089-3.2014-1.5192-6.8679-1.8852-8.1477-0.87627-3.0646-5.5104-14.737-7.1725-18.067-1.3112-2.6264-2.0657-4.6729-2.8214-7.6522-0.22144-0.8732-1.1543-3.0758-2.073-4.8948-1.7855-3.5353-4.995-11.264-5.4935-13.229-1.1603-4.5735-3.1525-10.275-4.6227-13.229-0.90517-1.819-1.8486-3.9256-2.0965-4.6813-0.42192-1.2862-0.51147-1.3793-1.3999-1.4552-1.6824-0.1439-1.9064-1.8182-0.26957-2.0149l0.67976-0.082-0.50477-1.8215c-0.59494-2.147-1.944-5.6228-2.6184-6.7464-0.86453-1.4404-3.3628-8.152-5.1706-13.891-0.95816-3.0417-2.9171-8.4324-4.5671-12.568-1.1832-2.9655-3.0028-8.5136-3.5089-10.699-0.18321-0.791-0.83007-2.5175-1.4375-3.8364-0.60739-1.319-1.4955-3.3778-1.9735-4.5751-1.4009-3.5087-6.3146-10.506-11.605-16.527-5.4699-6.2246-6.0192-6.6314-11.147-8.2542-2.9012-0.9181-3.174-0.9558-6.919-0.9558-3.9487 0-9.0788 0.6537-10.729 1.3672-3.3436 1.4459-8.4981 5.7665-12.441 10.428-3.8538 4.5563-4.2005 5.0268-5.8328 7.9158-0.82218 1.4553-1.9657 3.345-2.541 4.1996-0.5754 0.8545-1.7281 2.7-2.5617 4.101-0.83352 1.4011-2.5402 4.2368-3.7927 6.3016-2.8358 4.6752-3.7683 6.5124-4.6951 9.2509-0.40155 1.1864-1.3791 3.3296-2.1723 4.7625-1.9698 3.5584-2.9566 5.8645-4.5677 10.675-1.645 4.9117-4.4974 12.638-6.7273 18.223-0.8933 2.2371-1.559 4.1326-1.4794 4.2122 0.0796 0.08-0.0261 0.4055-0.2349 0.7242-0.55111 0.8411-1.1991 3.2331-1.6017 5.9128-0.35056 2.3331-1.0383 4.3961-3.7153 11.145-0.77925 1.9646-1.7718 4.8221-2.2056 6.35-0.43382 1.528-1.0844 3.7902-1.4457 5.0271-2.6983 9.237-3.9455 14.09-4.4208 17.203-0.69189 4.5311-1.0877 6.0495-2.526 9.689-0.64056 1.6209-1.511 4.4784-1.9344 6.35-0.58605 2.5909-1.3127 4.6766-3.0452 8.7405-1.2515 2.9357-2.2754 5.4473-2.2754 5.5814 0 0.134-0.82844 2.7491-1.841 5.8111-1.0125 3.0621-2.0896 6.8013-2.3934 8.3093-1.2954 6.4299-2.8638 10.989-5.949 17.294-1.6971 3.468-2.7154 6.7245-3.3094 10.583-0.37456 2.4332-1.7087 6.1631-3.5837 10.019-1.6646 3.4231-2.8251 5.1228-5.7331 8.3978-4.3528 4.9022-6.5109 7.6366-6.8995 8.7421-2.2187 6.3123-2.707 7.4572-6.1334 14.381-2.3179 4.6838-2.9914 5.8094-4.2896 7.169-0.84697 0.887-2.4889 2.6621-3.6487 3.9446-1.6949 1.8742-2.8716 2.8375-5.9953 4.9077-5.1672 3.4246-6.0803 3.7671-10.284 3.8581-2.751 0.06-3.7078-0.031-5.6886-0.5391zm-197.05-93.452c-0.0982-0.098-2.5801-0.2512-5.5153-0.3399-4.6876-0.1417-5.3722-0.2177-5.628-0.6244-0.21203-0.337-0.21199-0.589 1.5e-4 -0.926 0.63264-1.0051 10.766-0.6048 12.084 0.4773 0.47469 0.3899 0.53068 0.5732 0.29359 0.9613-0.31377 0.5137-0.94228 0.7437-1.2343 0.4517zm188.47-0.3433c-0.40523-0.7572-0.13828-1.5259 0.59109-1.7021 0.32221-0.078 3.6285-0.2253 7.3473-0.3278 6.8932-0.1899 7.923-0.087 7.923 0.7905 0 0.8419-0.80616 0.9962-6.4046 1.2255-3.0987 0.1269-6.4249 0.3113-7.3916 0.4097-1.6272 0.1657-1.7804 0.1363-2.0652-0.3958zm174.23 0.1c-0.64329-0.3203-0.8463-1.247-0.35891-1.6384 0.54901-0.4408 16.509-0.6089 17.086-0.18 0.60228 0.4482 0.17506 1.1768-0.8878 1.5142-1.154 0.3664-15.174 0.6356-15.839 0.3042zm-301.09-0.262c-0.65936-0.3287-0.84971-1.0677-0.41113-1.5962 0.26327-0.3172 1.48-0.3841 6.9827-0.3841 7.1535 0 7.8112 0.111 7.4474 1.2571-0.14647 0.4615-0.45377 0.5804-1.8184 0.704-3.16 0.2861-11.639 0.2995-12.201 0.019zm27.784 0.1519c-2.8594-0.1239-3.4587-0.2228-3.7028-0.6109-0.21236-0.3376-0.21129-0.5884 4e-3 -0.926 0.27073-0.4247 0.82666-0.455 6.71-0.3658 3.5282 0.053 6.7285 0.1811 7.1118 0.2836 0.55175 0.1476 0.69694 0.3478 0.69694 0.9611v0.7747l-3.7042 0.016c-2.0373 0.01-5.2394-0.051-7.1157-0.1323zm22.563-0.1123c-0.347-0.1724-0.66641-0.5589-0.70981-0.8591-0.16381-1.1327 0.29309-1.1973 7.8553-1.1106 6.2647 0.072 7.2096 0.1371 7.5967 0.5246 0.73088 0.7316 0.28132 1.2205-1.2676 1.3783-3.2561 0.3319-12.845 0.3794-13.475 0.067zm101.64 0c-0.40915-0.4092-0.33461-1.1147 0.1613-1.5267 0.568-0.4718 14.622-0.6943 15.787-0.2499 1.0254 0.3911 0.89594 1.3666-0.21678 1.633-1.3555 0.3245-15.422 0.4529-15.731 0.1436zm57.564 0.1226c-3.3558-0.1365-3.9838-0.2291-4.232-0.6234-0.21235-0.3374-0.2118-0.5886 2e-3 -0.926 0.27187-0.429 0.95174-0.4565 9.2591-0.3741 4.9311 0.049 9.163 0.1427 9.4042 0.2085 0.60959 0.1662 0.77966 0.7543 0.3773 1.3046-0.30016 0.4105-0.93371 0.4689-5.6042 0.5168-2.8962 0.03-7.0391-0.018-9.2064-0.1064zm178.76-0.052c-0.1819-0.1905-0.33073-0.5461-0.33073-0.7902s0.14883-0.5652 0.33073-0.7134c0.18976-0.1547 3.1532-0.3513 6.9526-0.4612 5.8518-0.1693 6.662-0.1432 6.9672 0.2245 0.60914 0.7339 0.25553 1.3438-0.89187 1.5383-0.58052 0.098-3.6749 0.2621-6.8763 0.3637-4.6408 0.1473-5.8879 0.1145-6.1516-0.1617zm27.554-0.089c-0.0797-0.2077-0.10574-0.6542-0.0578-0.9922l0.0871-0.6145 7.9007-0.2065c5.8436-0.1527 7.9964-0.1271 8.2682 0.099 0.51852 0.4304 0.45657 1.2347-0.10891 1.4141-0.61694 0.1958-10.004 0.67-13.356 0.6746-2.0002 0-2.6209-0.082-2.7329-0.374zm25.992-0.019c-0.66764-0.3329-0.86117-1.0698-0.42042-1.6009 0.25909-0.3121 1.3011-0.3841 5.5609-0.3841 5.6704 0 6.6877 0.173 6.5516 1.1141-0.0622 0.43-0.32886 0.6327-1.0105 0.7682-1.623 0.3227-10.077 0.4039-10.682 0.1027zm-493.03-0.1858c-0.17462-0.1747-0.3175-0.508-0.3175-0.7409 0-0.9859 0.47054-1.0583 6.8815-1.0583 6.5846 0 7.3095 0.1221 7.1026 1.1965-0.053 0.275-0.39334 0.5827-0.75638 0.6837-1.2205 0.3396-12.561 0.2684-12.91-0.081zm149.49 0c-0.41226-0.4123-0.4058-1.1329 0.0132-1.4761 0.21287-0.1743 3.4153-0.2565 8.9864-0.2308 7.4828 0.035 8.7121 0.096 9.0717 0.456 0.61252 0.6126 0.2342 1.2175-0.87622 1.4011-1.9323 0.3195-16.856 0.1891-17.195-0.1502zm82.021 0c-0.17463-0.1747-0.3175-0.508-0.3175-0.7409 0-0.9959 0.44504-1.0583 7.543-1.0583 7.2942 0 7.9742 0.1056 7.7622 1.2061-0.14528 0.7543-0.98429 0.8446-8.1747 0.8792-4.7356 0.023-6.5816-0.055-6.813-0.2861zm-206.95-0.2884c-0.75235-0.3807-0.98384-1.0981-0.53054-1.6443 0.25804-0.3109 1.4994-0.3466 7.4963-0.2159 3.9529 0.086 7.4027 0.2677 7.6662 0.4033 0.68654 0.3532 0.46818 1.3372-0.34678 1.5625-1.2583 0.348-13.569 0.2569-14.285-0.1056zm271.09 0.086c-4.1262-0.1234-4.7716-0.2011-5.0257-0.6046-0.21249-0.3375-0.21212-0.5886 1e-3 -0.9261 0.31849-0.5035 0.22337-0.5002 10.484-0.3534 4.022 0.058 4.7769 0.134 5.2696 0.5329 0.78919 0.6391 0.48117 1.23-0.74689 1.4329-1.0359 0.1712-1.7094 0.1656-9.9827-0.082zm25.361-0.1901c-0.47345-0.4735-0.50031-1.2511-0.0554-1.6051 0.19539-0.1555 3.8186-0.3188 8.8541-0.3992 8.9691-0.1432 9.5061-0.085 9.2952 1.0119-0.13823 0.719-1.3725 0.8714-8.4258 1.0408-3.2742 0.079-6.7021 0.1868-7.6175 0.2404-1.2097 0.071-1.7698-0.01-2.0505-0.2888zm60.27-0.1054c-0.1819-0.1918-0.33072-0.5485-0.33072-0.7927 0-0.2441 0.14882-0.5613 0.33072-0.7048 0.18982-0.1498 3.7313-0.3302 8.3122-0.4235 7.3298-0.1492 8.0278-0.1249 8.549 0.2971 0.34704 0.281 0.50444 0.6239 0.40517 0.8826-0.20763 0.541-2.0927 0.7065-10.539 0.9248-5.1182 0.1323-6.4627 0.096-6.7274-0.1835zm-101.53-65.439c-1.4741-0.6768-3.9819-3.1609-4.2436-4.2034-0.0919-0.3661-0.0275-0.9447 0.14308-1.2856 0.48178-0.9631 6.3495-6.5731 6.875-6.5731 0.66912 0 1.1472 0.6864 0.96511 1.3856-0.0858 0.3293-1.1088 1.4322-2.2735 2.4508l-2.1175 1.8521 2.5676 0.077c1.6794 0.05 4.2175-0.1515 7.3372-0.5826 3.7918-0.5239 6.119-0.6751 11.352-0.7379 6.0047-0.072 6.6082-0.039 6.8747 0.3792 0.22769 0.357 0.18903 0.5611-0.17536 0.9255-0.41785 0.4178-1.3156 0.4861-8.4622 0.6431-7.2907 0.1603-11.172 0.4678-16.193 1.2829-0.8751 0.1421-2.2403 0.2592-3.0339 0.2603h-1.4428l1.0459 1.0807c0.57523 0.5945 1.4924 1.3112 2.0381 1.5929 0.72385 0.3736 0.99219 0.6819 0.99219 1.1399 0 0.4835-0.53657 1.0519-0.88154 0.9337-0.0245-0.01-0.63982-0.2885-1.3674-0.6226zm97.817-2.0601c-0.55645-0.5564-0.35828-0.9539 1.4107-2.829l1.729-1.8328-1.6628 0.1258c-1.562 0.1181-6.5741 0.6426-11.056 1.1569-4.2569 0.4885-6.0854 0.277-6.0854-0.7038 0-0.8285 0.82364-1.1566 2.903-1.1566 1.1393 0 3.6609-0.2311 5.6035-0.5136 1.9426-0.2825 5.1394-0.651 7.1039-0.8189s3.6054-0.3374 3.6463-0.3766c0.17442-0.1672-1.4212-1.0137-3.1655-1.6793-2.06-0.7862-2.6431-1.3504-2.1722-2.1017 0.44463-0.7093 1.2153-0.6904 3.0532 0.075 3.7171 1.548 5.2437 3.0818 4.8868 4.9097-0.23097 1.1831-1.6038 3.0254-3.3721 4.5251-1.601 1.3578-2.3578 1.6848-2.8229 1.2197zm-388-15.983c-0.0982-0.098-2.5801-0.2511-5.5153-0.3399-4.6876-0.1417-5.3722-0.2176-5.628-0.6243-0.21203-0.337-0.21199-0.589 1.5e-4 -0.9261 0.63264-1.005 10.766-0.6048 12.084 0.4773 0.47469 0.3899 0.53068 0.5732 0.29359 0.9614-0.31377 0.5137-0.94228 0.7436-1.2343 0.4516zm188.47-0.3433c-0.40523-0.7572-0.13828-1.5258 0.59109-1.702 0.32221-0.078 3.6285-0.2254 7.3473-0.3278 6.8932-0.19 7.923-0.087 7.923 0.7905 0 0.8419-0.80616 0.9961-6.4046 1.2254-3.0987 0.1269-6.4249 0.3113-7.3916 0.4097-1.6272 0.1657-1.7804 0.1363-2.0652-0.3958zm174.23 0.1001c-0.64329-0.3204-0.8463-1.2471-0.35891-1.6385 0.54901-0.4408 16.509-0.6089 17.086-0.1799 0.60228 0.4481 0.17506 1.1767-0.8878 1.5141-1.154 0.3664-15.174 0.6357-15.839 0.3043zm58.939-0.078c-0.3961-0.3962-0.43847-0.8204-0.13043-1.3056 0.33385-0.5258 16.599-0.6539 17.031-0.1341 0.55768 0.6719-0.10635 1.2436-1.668 1.4359-0.78473 0.097-4.4544 0.2157-8.1549 0.2646-5.3168 0.07-6.8014 0.015-7.0776-0.2608zm-360.03-0.1835c-0.65936-0.3288-0.84971-1.0678-0.41113-1.5962 0.26327-0.3172 1.48-0.3842 6.9827-0.3842 7.1535 0 7.8112 0.111 7.4474 1.2571-0.14647 0.4615-0.45377 0.5805-1.8184 0.704-3.16 0.2861-11.639 0.2995-12.201 0.019zm27.784 0.1518c-2.8594-0.1239-3.4587-0.2227-3.7028-0.6108-0.21236-0.3377-0.21129-0.5884 4e-3 -0.9261 0.27073-0.4246 0.82666-0.4549 6.71-0.3658 3.5282 0.053 6.7285 0.1811 7.1118 0.2837 0.55175 0.1475 0.69694 0.3477 0.69694 0.9611v0.7747l-3.7042 0.015c-2.0373 0.01-5.2394-0.051-7.1157-0.1323zm124.21-0.1101c-0.40915-0.4092-0.33461-1.1147 0.1613-1.5267 0.568-0.4718 14.622-0.6943 15.787-0.2499 1.0254 0.3911 0.89594 1.3667-0.21678 1.6331-1.3555 0.3245-15.422 0.4528-15.731 0.1435zm236.33 0.071c-0.1819-0.1906-0.33073-0.5462-0.33073-0.7903s0.14883-0.5651 0.33073-0.7134c0.18976-0.1547 3.1532-0.3512 6.9526-0.4612 5.8518-0.1693 6.662-0.1432 6.9672 0.2245 0.60914 0.734 0.25553 1.3439-0.89187 1.5384-0.58052 0.098-3.6749 0.262-6.8763 0.3636-4.6408 0.1473-5.8879 0.1145-6.1516-0.1616zm27.554-0.089c-0.0797-0.2077-0.10574-0.6541-0.0578-0.9921l0.0871-0.6146 7.9007-0.2065c5.8436-0.1527 7.9964-0.127 8.2682 0.099 0.51852 0.4303 0.45657 1.2346-0.10891 1.4141-0.61694 0.1958-10.004 0.6699-13.356 0.6746-2.0002 0-2.6209-0.082-2.7329-0.3741zm25.992-0.019c-0.66764-0.3329-0.86117-1.0697-0.42042-1.6008 0.25909-0.3122 1.3011-0.3842 5.5609-0.3842 5.6704 0 6.6877 0.173 6.5516 1.1142-0.0622 0.4299-0.32886 0.6326-1.0105 0.7682-1.623 0.3226-10.077 0.4039-10.682 0.1026zm-493.03-0.1858c-0.17462-0.1746-0.3175-0.508-0.3175-0.7408 0-0.986 0.47054-1.0584 6.8815-1.0584 6.5846 0 7.3095 0.1221 7.1026 1.1965-0.053 0.2751-0.39334 0.5828-0.75638 0.6838-1.2205 0.3396-12.561 0.2683-12.91-0.081zm122.78 0.029c-0.1819-0.1905-0.33073-0.546-0.33073-0.7902 0-0.2441 0.14883-0.5619 0.33073-0.7062s2.2953-0.338 4.6964-0.4304c13.419-0.5165 13.467-0.5171 13.882-0.1731 0.52738 0.4377 0.52032 1.2297-0.0128 1.4342-0.23018 0.088-1.6292 0.1651-3.1088 0.1705-1.4797 0.01-4.2382 0.1223-6.1299 0.2597-7.8111 0.5675-8.9813 0.5971-9.3266 0.2355zm26.71-0.029c-0.41226-0.4123-0.4058-1.1329 0.0132-1.476 0.21287-0.1743 3.4153-0.2566 8.9864-0.2309 7.4828 0.035 8.7121 0.096 9.0717 0.4561 0.61252 0.6125 0.2342 1.2175-0.87622 1.4011-1.9323 0.3194-16.856 0.189-17.195-0.1503zm82.021 0c-0.17463-0.1746-0.3175-0.508-0.3175-0.7408 0-0.9959 0.44504-1.0584 7.543-1.0584 7.2942 0 7.9742 0.1057 7.7622 1.2061-0.14528 0.7544-0.98429 0.8446-8.1747 0.8793-4.7356 0.023-6.5816-0.055-6.813-0.2862zm-206.95-0.2884c-0.75235-0.3806-0.98384-1.098-0.53054-1.6442 0.25804-0.311 1.4994-0.3467 7.4963-0.2159 3.9529 0.086 7.4027 0.2676 7.6662 0.4032 0.68654 0.3533 0.46818 1.3372-0.34678 1.5625-1.2583 0.348-13.569 0.257-14.285-0.1056zm271.09 0.086c-4.1262-0.1234-4.7716-0.201-5.0257-0.6046-0.21249-0.3375-0.21212-0.5886 1e-3 -0.926 0.31849-0.5035 0.22337-0.5003 10.484-0.3534 4.022 0.057 4.7769 0.1339 5.2696 0.5329 0.78919 0.639 0.48117 1.2299-0.74689 1.4328-1.0359 0.1712-1.7094 0.1657-9.9827-0.082zm25.361-0.1901c-0.47345-0.4734-0.50031-1.2511-0.0554-1.6051 0.19539-0.1554 3.8186-0.3188 8.8541-0.3992 8.9691-0.1431 9.5061-0.085 9.2952 1.012-0.13823 0.7189-1.3725 0.8713-8.4258 1.0408-3.2742 0.079-6.7021 0.1868-7.6175 0.2403-1.2097 0.071-1.7698-0.01-2.0505-0.2888zm196-0.1074c-0.1819-0.1907-0.33073-0.5465-0.33073-0.7906 0-0.2442 0.14883-0.5626 0.33073-0.7076 0.19177-0.1529 3.3582-0.319 7.5364-0.3953 7.6946-0.1406 8.1223-0.079 7.5037 1.0768-0.37529 0.7012-1.2174 0.8-8.4916 0.996-4.954 0.1334-6.2849 0.097-6.5484-0.1793zm-234.6-4.0963c-0.22867-0.2287-0.41577-0.5616-0.41577-0.7397 0-0.1782 0.9038-1.6829 2.0084-3.3438 2.7239-4.0955 8.0047-15.171 11.595-24.319 1.3374-3.4072 7.2916-15.444 10.415-21.056 0.64808-1.1642 2.409-3.9621 3.9131-6.2177 2.2794-3.4183 2.9517-4.6755 4.0382-7.5513 0.71691-1.8977 1.6621-4.1599 2.1005-5.0271 1.1772-2.3289 3.1382-4.8841 3.7483-4.8841 1.2718 0 1.0175 1.1312-0.87546 3.8952-1.7918 2.6164-2.2713 3.5641-3.8436 7.5966-0.91073 2.3359-1.7295 3.9031-2.8635 5.4809-4.4977 6.258-7.7128 12.422-15.023 28.8-1.2016 2.6922-3.0999 6.8593-4.2186 9.2604s-2.8815 6.1939-3.9175 8.4284c-2.0258 4.3693-4.8247 9.5739-5.3186 9.89-0.47531 0.3042-0.89185 0.238-1.3432-0.2133zm21.068-0.6955c-0.51525-0.5152-0.39642-0.9022 1.2711-4.1393 0.87375-1.6961 2.4715-4.9293 3.5506-7.1848 1.0791-2.2556 2.8788-5.6489 3.9994-7.5407 1.1206-1.8917 3.202-5.8208 4.6252-8.7312 2.7415-5.6062 6.7666-13.15 8.278-15.514 0.49899-0.7806 1.5918-2.7885 2.4286-4.462 1.8131-3.6261 3.1704-6.0042 5.0592-8.8635 0.79726-1.2069 1.7582-3.1401 2.2359-4.4979 0.4607-1.3097 1.1406-2.9171 1.5109-3.5719s1.4965-2.7384 2.5026-4.6301c1.0061-1.8917 2.0179-3.6479 2.2484-3.9026 0.50536-0.5584 1.2185-0.5983 1.639-0.092 0.30563 0.3683-1.0615 3.2851-4.4144 9.4181-0.59667 1.0914-1.3944 2.8124-1.7728 3.8245s-1.3775 2.7981-2.2203 3.9688c-2.1654 3.0079-3.2621 4.9048-5.2274 9.0408-0.94507 1.9889-2.2292 4.3429-2.8537 5.2311-1.537 2.1862-5.894 10.428-7.6917 14.55-1.9486 4.4678-2.4143 5.3493-4.6154 8.7366-2.3657 3.6408-4.5111 7.8481-6.7581 13.254-0.96785 2.3283-1.9347 4.5012-2.1485 4.8286-0.42583 0.6521-1.1501 0.7743-1.6466 0.2778zm65.464-0.085c-0.61409-0.6141-0.55099-0.9541 0.60317-3.2496 0.56768-1.1291 1.355-3.1207 1.7495-4.4259 0.76594-2.5339 1.2368-3.2991 2.0302-3.2991 0.75748 0 0.84175 0.616 0.37113 2.7127-0.78449 3.4949-3.024 8.4466-3.8941 8.6099-0.23699 0.045-0.62395-0.1121-0.85989-0.348zm-9.9761-0.2856c-0.69131-0.8329 0.36751-3.59 4.627-12.048 4.8766-9.6837 5.2682-10.345 6.0583-10.233 1.2399 0.1764 0.8808 1.1884-3.6084 10.167-2.6202 5.2406-4.4679 9.2616-4.6459 10.11-0.1625 0.7751-0.41801 1.6383-0.56779 1.9182-0.33073 0.618-1.3813 0.6661-1.8633 0.085zm-66.993 0c-0.45729-0.4573-0.10101-1.72 1.0381-3.679 0.67484-1.1607 2.378-4.3129 3.7848-7.0051 1.4068-2.6921 3.4241-6.1851 4.483-7.7622 1.9715-2.9364 3.0284-5.0163 3.8534-7.5836 0.2572-0.8004 2.3634-5.1461 4.6806-9.6573 3.0792-5.9948 4.637-8.7293 5.7886-10.161 1.2801-1.5916 1.7034-2.3779 2.2566-4.1915 0.95866-3.1429 2.4497-6.4198 4.9315-10.838 1.1772-2.0957 2.6425-5.0242 3.2562-6.5077 2.1793-5.2681 3.4161-7.3275 4.4006-7.3275 1.1141 0 0.98788 0.7948-0.68838 4.3354-0.90351 1.9084-1.8626 4.0651-2.1312 4.7927-0.26867 0.7276-1.4976 3.1684-2.7311 5.424-2.8004 5.121-4.0722 7.8518-4.8208 10.351-0.77414 2.5841-1.3365 3.6588-2.744 5.2435-0.6447 0.7259-1.6393 2.0088-2.2103 2.8508-1.589 2.3435-5.0467 9.2654-6.9104 13.834-2.1324 5.2275-2.6855 6.3046-5.2621 10.248-2.0068 3.0717-6.6436 11.787-8.4089 15.805-0.7218 1.643-0.90782 1.8688-1.597 1.9383-0.42903 0.043-0.86507-0.01-0.96898-0.1102zm24.735-0.1536c-0.57934-0.5794-0.326-1.3717 1.5481-4.8419 2.1286-3.9415 4.7372-9.2628 7.5227-15.346 0.46645-1.0186 2.2852-4.4283 4.0416-7.577 2.9653-5.3157 4.4918-8.4002 4.9578-10.018 0.56292-1.954 9.3622-19.907 11.736-23.945 2.4086-4.097 2.6076-4.3657 3.2346-4.3657 1.3232 0 0.93017 1.4813-1.4741 5.5563-3.7063 6.2817-6.0088 10.562-6.6893 12.435-0.39644 1.0914-1.5702 3.6513-2.6084 5.6885-1.0382 2.0373-2.3186 4.7485-2.8453 6.0249-1.2475 3.0231-4.1248 8.7596-7.1164 14.188-2.6781 4.8596-8.149 16.102-9.6056 19.739-0.5245 1.3097-1.0909 2.4688-1.2587 2.5757-0.4579 0.2917-1.0861 0.2416-1.4428-0.115zm23.429-0.2329c-0.86992-0.5067-0.47366-1.5256 2.2237-5.7179 1.4777-2.2967 3.3129-5.368 4.0782-6.8252 1.2294-2.3407 4.2374-9.3692 5.5244-12.908 0.25266-0.6947 0.86562-1.8258 1.3621-2.5135 2.4914-3.4507 2.7249-3.905 3.4118-6.6399 0.65378-2.6029 2.0934-5.9712 2.9832-6.9797 0.50852-0.5764 1.6118-0.6042 1.826-0.046 0.0889 0.2317-0.37554 1.5542-1.0453 2.9765-0.66296 1.4078-1.5667 3.7502-2.0083 5.2054-0.67105 2.2112-1.1027 3.0658-2.628 5.2025-1.0112 1.4166-2.1295 3.3634-2.5077 4.3657-1.8218 4.8269-5.1149 11.832-7.5149 15.986-1.4642 2.5344-3.0286 5.3372-3.4762 6.2283-0.44767 0.8912-1.0081 1.6949-1.2455 1.786-0.51511 0.1976-0.4173 0.2096-0.98354-0.1202zm10.648-0.1133c-0.50829-0.6125-0.18404-1.8818 1.4678-5.7461 0.82574-1.9317 1.9482-4.5837 2.4944-5.8934 1.6526-3.9625 2.0165-4.6719 3.7345-7.2805 0.90886-1.38 2.8936-4.9221 4.4104-7.8713s2.9346-5.5388 3.1504-5.7547c0.49629-0.4963 1.3852-0.5081 1.5722-0.021 0.20436 0.5325-5.2311 11.485-7.1032 14.313-2.4614 3.7181-6.2355 11.893-7.3245 15.866-0.31775 1.159-0.70471 2.2603-0.85992 2.4473-0.38049 0.4585-1.1367 0.4295-1.5422-0.059zm-21.894-0.7008c-0.52424-0.5242-0.40345-1.0831 0.88716-4.1047 1.4408-3.3733 2.3777-5.2671 5.1479-10.406 1.1375-2.1101 2.8042-5.5629 3.7037-7.673 0.89956-2.11 2.2105-4.908 2.9132-6.2177s1.6534-3.4528 2.1127-4.7625c0.84447-2.4082 4.2758-9.2521 6.1027-12.172 0.54665-0.8737 1.4644-2.7406 2.0395-4.1485 1.4763-3.6144 2.1905-4.83 2.897-4.931 0.81042-0.1159 1.0119 0.5595 0.52315 1.7535-1.4482 3.538-3.0556 6.987-3.7953 8.1433-0.47507 0.7427-1.3244 2.2916-1.8873 3.442-0.56297 1.1504-1.5162 2.9847-2.1183 4.0761s-1.5326 3.294-2.0678 4.8948c-0.53522 1.6007-1.3627 3.5652-1.8388 4.3656-1.3291 2.2343-2.1236 3.9082-3.4673 7.3053-0.67812 1.7145-1.8922 4.2547-2.698 5.645-2.9316 5.058-3.438 6.0069-4.385 8.2164-0.5302 1.2369-1.2906 3.2609-1.6899 4.4979-0.63595 1.9703-0.80794 2.2585-1.3881 2.3264-0.36421 0.043-0.81019-0.07-0.99106-0.2513zm-139.63-124.86c-7.9896-0.3183-12.06-1.5439-17.907-5.3918-4.8031-3.1608-8.4256-6.0243-12.124-9.5834l-1.4556-1.4009-4.0722-0.073c-3.5414-0.064-4.1103-0.1337-4.3639-0.5364-0.21274-0.3377-0.21219-0.5883 2e-3 -0.926 0.24969-0.3936 0.71624-0.463 3.113-0.463 2.759 0 2.8055-0.01 2.178-0.4665-0.72605-0.528-3.7102-4.0306-5.4636-6.4127-3.5958-4.8852-6.7581-8.632-8.5974-10.186-4.7349-4.0017-8.1964-8.5004-11.077-14.396-2.0428-4.1809-2.2696-4.4969-6.9447-9.6806-3.7925-4.205-6.6319-6.6309-9.6346-8.2313-1.9914-1.0614-2.8862-2.0825-6.4058-7.3096-1.5668-2.3269-3.4123-4.8878-4.101-5.6909s-2.2644-2.8034-3.5013-4.4451c-4.5172-5.9952-6.9322-8.4058-10.985-10.964l-1.8567-1.1722-5.259-0.2094c-4.5805-0.1824-5.2966-0.2692-5.5503-0.6725-0.21244-0.3377-0.21133-0.5883 4e-3 -0.926 0.25993-0.4074 0.74945-0.4603 4.0761-0.4408l3.7807 0.022-0.77015-0.6419c-2.7995-2.3332-12.231-7.2987-15.444-8.131-2.1956-0.5687-6.7227-1.3914-9.3459-1.6983-3.5335-0.4134-8.4297 0.3116-12.128 1.7959-2.7697 1.1116-8.4768 3.8604-10.826 5.2139-1.0968 0.6321-2.8232 1.4597-3.8364 1.8392-1.0133 0.3795-1.9554 0.8005-2.0937 0.9354-0.15466 0.151 1.7343 0.2454 4.9104 0.2454 5.4438 0 6.2186 0.1541 6.0178 1.1965-0.053 0.2751-0.39333 0.5828-0.75637 0.6838s-3.7012 0.1955-7.4182 0.21l-6.7581 0.026-2.2377 1.8901c-1.2307 1.0396-2.8247 2.4165-3.5421 3.0598s-2.1462 1.7549-3.175 2.4703-3.2994 2.8143-5.0456 4.6644c-1.7462 1.85-4.7234 4.9777-6.6158 6.9504-1.8925 1.9728-4.1266 4.5989-4.9647 5.8358s-2.18 3.0824-2.982 4.1011c-0.80196 1.0186-2.6123 3.3191-4.023 5.1121-2.724 3.4624-7.2106 7.7098-8.1506 7.7164-1.4145 0.01-1.537-1.2844-0.21767-2.3001 4.6172-3.5547 8.409-7.8521 13.699-15.526 1.6353-2.3721 3.9181-5.0962 5.0892-6.0732 0.4956-0.4134 2.9818-3.0527 5.5249-5.8651 2.5431-2.8123 5.0706-5.3842 5.6165-5.7151 1.2377-0.7503 2.5516-1.7943 6.3482-5.0442 4.2786-3.6625 7.4036-5.6425 10.52-6.6651 0.72761-0.2388 3.347-1.5128 5.8208-2.8312 4.6902-2.4994 7.1573-3.6589 9.6405-4.5309 2.1167-0.7433 6.8919-1.5374 9.243-1.537 1.8411 2e-4 9.7594 1.2055 12.331 1.877 2.9008 0.7574 11.208 5.3699 16.332 9.0681 1.9228 1.3878 2.4018 1.6103 3.8596 1.7928 2.094 0.2623 2.2596 0.3714 2.1008 1.3845-0.1207 0.7702-4e-3 0.916 1.7244 2.149 2.3563 1.6813 3.7533 3.2175 7.6991 8.4668 1.7502 2.3284 3.8578 4.9477 4.6836 5.8209 0.82581 0.8731 2.9295 3.7306 4.6748 6.35 2.6706 4.0079 3.3576 4.8644 4.336 5.4062 2.6137 1.4471 5.883 4.1665 9.7742 8.1304 5.0428 5.1369 6.8706 7.554 8.5722 11.336 2.1442 4.7656 4.6468 8.2507 8.0209 11.17 4.4935 3.8873 6.8511 6.5767 11.314 12.906 1.4264 2.023 4.6538 5.5122 6.323 6.8359l1.0555 0.837 4.5669 0.1323c3.6744 0.1064 4.6482 0.2136 4.9827 0.5483 0.22865 0.2288 0.34461 0.6014 0.25769 0.8279-0.20423 0.5322-1.4902 0.7339-4.7016 0.7375h-2.5913l2.8559 2.4579c6.2337 5.3651 12.253 9.2025 16.482 10.508 3.8407 1.1858 5.6931 1.402 12.435 1.4516 9.5846 0.07 10.007-0.02 17.727-3.8075 9.6171-4.7179 12.249-6.1881 14.558-8.1336 7.3436-6.1851 12.404-11.72 17.053-18.652 2.5298-3.7719 3.5195-4.9612 7.6766-9.225 7.5353-7.7285 12.177-13.476 15.278-18.918 2.4877-4.3656 5.7171-8.4915 14.013-17.903 1.8476-2.0962 4.4462-5.1762 5.7748-6.8446 2.9261-3.6746 7.5389-8.3967 10.543-10.792l2.2141-1.766-3.1122-0.1323c-2.5845-0.1099-3.1616-0.2108-3.4034-0.5953-0.21239-0.3378-0.21095-0.5883 5e-3 -0.9261 0.26728-0.4174 0.75312-0.4549 4.9378-0.3813 4.5896 0.081 4.6571 0.074 6.0522-0.6308 1.8978-0.9584 6.4186-3.8381 9.4884-6.044 3.0882-2.2191 7.1011-4.2639 9.4262-4.8031 1.449-0.3361 3.5108-0.3922 11.967-0.3257l10.217 0.08 2.1167 0.7459c4.2017 1.4808 12.836 6.0676 18.256 9.6982 2.2001 1.4737 2.4931 1.595 3.852 1.5947 1.6555-3e-4 2.5494 0.4622 2.275 1.1772-0.0971 0.2531-0.42366 0.5248-0.72561 0.6038-0.49772 0.1302-0.42744 0.2699 0.7524 1.4962 0.71577 0.744 1.9536 2.1266 2.7507 3.0725 1.5808 1.8758 9.223 9.3932 13.155 12.94 3.3845 3.053 6.3793 6.4818 9.3073 10.656 1.3594 1.9381 4.0928 5.6669 6.0742 8.2863 4.0416 5.343 6.2619 8.5734 8.5123 12.384 0.84273 1.4273 2.0502 3.2727 2.6833 4.1011 0.63307 0.8283 1.4911 2.1014 1.9067 2.829 1.1735 2.0545 2.8883 4.2293 5.9459 7.5406 1.5452 1.6735 3.5852 3.941 4.5334 5.0389 3.6932 4.2767 11.96 12.254 14.489 13.982 1.3612 0.93 2.8469 2.0116 3.3014 2.4035 0.45457 0.3918 1.5409 1.1979 2.414 1.7913 0.87312 0.5933 2.3019 1.694 3.175 2.446 0.87312 0.7519 2.1379 1.6497 2.8107 1.9952 2 1.0269 7.1322 2.6942 9.2444 3.0033 6.7537 0.9883 9.0128 1.1483 14.44 1.023 7.5204-0.1735 7.7795-0.2654 17.547-6.2195 7.2275-4.4058 7.8851-4.8356 9.3892-6.1374l1.288-1.1147-4.5058 0.082c-4.7274 0.087-5.367-0.044-5.367-1.0966 0-0.9967 0.55678-1.0875 6.3913-1.0422l5.6423 0.044 2.3541-2.7419c1.2948-1.5081 3.1422-3.5754 4.1054-4.5941 2.4935-2.637 4.5858-5.3043 5.6037-7.1437 1.4468-2.6146 3.575-5.8305 4.6342-7.0029 0.54712-0.6056 1.7776-1.6094 2.7345-2.2307s2.9702-2.3022 4.4741-3.7353c2.5968-2.4746 2.8083-2.7596 4.2045-5.6663 1.9228-4.003 2.2648-4.4025 3.0756-3.5917 0.54147 0.5415 0.20238 1.6923-1.4818 5.029-1.1799 2.3375-1.6597 2.9635-4.1184 5.3727-1.5306 1.4998-3.7453 3.4415-4.9215 4.315-2.5121 1.8655-3.1896 2.6713-5.8686 6.9805-1.1039 1.7755-3.157 4.5472-4.5625 6.1591-10.133 11.621-10.835 12.284-18.312 17.284-8.5883 5.7428-12.046 7.6025-15.709 8.4489-2.2269 0.5145-2.9895 0.5519-9.0316 0.4424-9.5974-0.174-13.255-0.7121-19.161-2.8187-3.5196-1.2555-3.7695-1.3861-5.5422-2.8941-0.7892-0.6715-2.5348-2.0542-3.8791-3.0729-6.6582-5.0453-7.7853-5.9173-9.5027-7.3518-1.0186-0.8508-2.626-2.4738-3.5719-3.6066-0.94588-1.1327-2.6313-2.855-3.7455-3.8273s-2.2025-2.0318-2.4186-2.3546c-0.2161-0.3227-2.492-3.0275-5.0575-6.0107s-5.3628-6.4363-6.2162-7.6735c-0.85337-1.2373-2.0435-2.8446-2.6448-3.5719s-1.5889-2.2748-2.1948-3.439c-1.4293-2.7466-4.0475-6.6051-8.7575-12.906-2.0906-2.7969-4.7438-6.4448-5.8962-8.1065-2.822-4.0694-8.4704-10.124-16.027-17.18-3.4426-3.2145-6.3001-5.9618-6.35-6.1051-0.0499-0.1432-1.1439-1.4001-2.431-2.7929l-2.3403-2.5324-6.7411 0.023c-6.9481 0.024-7.4961-0.052-7.4961-1.047 0-0.9881 0.48828-1.0788 5.8068-1.0788h5.1718l-1.3221-0.9467c-2.0583-1.4739-8.7655-5.3911-11.112-6.4896-1.1642-0.5451-3.5226-1.4166-5.2409-1.9367l-3.1242-0.9458h-9.8704c-5.4287 0-10.484 0.1164-11.234 0.2586-2.3137 0.4388-5.2369 1.9935-10.842 5.7667-5.2146 3.5101-5.3592 3.6313-4.5348 3.7999 1.0165 0.2079 1.7151 0.8359 1.5136 1.3607-0.1885 0.4913-1.5987 0.7136-4.5571 0.7185h-2.3812l-2.3826 1.9172c-3.1549 2.5387-9.1451 8.4957-12.434 12.365-1.4552 1.7121-4.0224 4.7051-5.7049 6.6512-1.6825 1.9461-3.7048 4.4313-4.4941 5.5227-0.7893 1.0914-2.3893 3.1543-3.5555 4.5842-2.7119 3.3248-3.9617 5.1264-5.3675 7.7367-0.6217 1.1544-1.6632 2.8133-2.3145 3.6864-1.601 2.1464-6.597 7.8914-9.545 10.976-4.3974 4.601-8.1478 9.1343-10.748 12.991-2.4069 3.5705-9.4065 12.043-10.452 12.652-0.3338 0.1943 1.4577 0.2763 6.1595 0.282 6.9987 0.01 7.6949 0.1215 7.4844 1.2141-0.14519 0.754-0.9848 0.8447-8.1406 0.8793-5.337 0.026-6.536-0.036-6.89-0.3565-0.38383-0.3473-0.64778-0.1906-2.5292 1.5016-1.1554 1.0391-3.0232 2.5733-4.1507 3.4093-1.907 1.414-6.3187 4.2082-6.6441 4.2082-0.079 0-2.6396 1.2962-5.6901 2.8804-7.983 4.146-9.0443 4.516-13.784 4.8064-2.121 0.13-4.035 0.2196-4.2533 0.1993-0.21828-0.02-2.54-0.1224-5.1594-0.2268zm-199.7-16.022c-0.0982-0.098-2.5801-0.2512-5.5153-0.3399-4.6876-0.1417-5.3722-0.2177-5.628-0.6244-0.21203-0.337-0.21199-0.589 1.5e-4 -0.926 0.63264-1.0051 10.766-0.6048 12.084 0.4773 0.47469 0.3899 0.53068 0.5732 0.29359 0.9613-0.31377 0.5137-0.94228 0.7437-1.2343 0.4517zm188.47-0.3433c-0.40523-0.7572-0.13828-1.5259 0.59109-1.7021 0.32221-0.078 3.6285-0.2253 7.3473-0.3278 6.8932-0.1899 7.923-0.087 7.923 0.7905 0 0.8419-0.80616 0.9962-6.4046 1.2255-3.0987 0.1269-6.4249 0.3113-7.3916 0.4097-1.6272 0.1657-1.7804 0.1363-2.0652-0.3958zm174.23 0.1c-0.64329-0.3204-0.8463-1.2471-0.35891-1.6384 0.54901-0.4409 16.509-0.609 17.086-0.18 0.60228 0.4481 0.17506 1.1768-0.8878 1.5142-1.154 0.3663-15.174 0.6356-15.839 0.3042zm58.939-0.078c-0.3961-0.3962-0.43847-0.8204-0.13043-1.3056 0.33385-0.5258 16.599-0.654 17.031-0.1342 0.55768 0.672-0.10635 1.2437-1.668 1.4359-0.78473 0.097-4.4544 0.2157-8.1549 0.2646-5.3168 0.07-6.8014 0.016-7.0776-0.2607zm-360.03-0.1836c-0.65936-0.3287-0.84971-1.0677-0.41113-1.5962 0.26327-0.3172 1.48-0.3841 6.9827-0.3841 7.1535 0 7.8112 0.111 7.4474 1.2571-0.14647 0.4615-0.45377 0.5804-1.8184 0.704-3.16 0.2861-11.639 0.2995-12.201 0.019zm27.784 0.1519c-2.8594-0.1239-3.4587-0.2228-3.7028-0.6109-0.21236-0.3376-0.21129-0.5884 4e-3 -0.926 0.27073-0.4247 0.82666-0.455 6.71-0.3658 3.5282 0.053 6.7285 0.1811 7.1118 0.2836 0.55175 0.1476 0.69694 0.3478 0.69694 0.9611v0.7747l-3.7042 0.016c-2.0373 0.01-5.2394-0.051-7.1157-0.1323zm22.563-0.1123c-0.347-0.1724-0.66641-0.5589-0.70981-0.8591-0.16381-1.1327 0.29309-1.1973 7.8553-1.1106 6.2647 0.072 7.2096 0.1371 7.5967 0.5246 0.73088 0.7316 0.28132 1.2205-1.2676 1.3783-3.2561 0.3319-12.845 0.3794-13.475 0.067zm101.64 0c-0.40915-0.4092-0.33461-1.1148 0.1613-1.5267 0.568-0.4718 14.622-0.6943 15.787-0.2499 1.0254 0.3911 0.89594 1.3666-0.21678 1.633-1.3555 0.3245-15.422 0.4529-15.731 0.1436zm57.564 0.1226c-3.3558-0.1365-3.9838-0.2291-4.232-0.6234-0.21235-0.3374-0.2118-0.5886 2e-3 -0.926 0.27187-0.429 0.95174-0.4565 9.2591-0.3741 4.9311 0.049 9.163 0.1427 9.4042 0.2085 0.60959 0.1662 0.77966 0.7543 0.3773 1.3046-0.30016 0.4104-0.93371 0.4689-5.6042 0.5168-2.8962 0.03-7.0391-0.018-9.2064-0.1064zm178.76-0.052c-0.1819-0.1905-0.33073-0.5461-0.33073-0.7902s0.14883-0.5652 0.33073-0.7134c0.18976-0.1547 3.1532-0.3513 6.9526-0.4612 5.8518-0.1693 6.662-0.1432 6.9672 0.2244 0.60914 0.734 0.25553 1.3439-0.89187 1.5384-0.58052 0.098-3.6749 0.2621-6.8763 0.3637-4.6408 0.1472-5.8879 0.1145-6.1516-0.1617zm27.554-0.089c-0.0797-0.2077-0.10574-0.6542-0.0578-0.9922l0.0871-0.6145 7.9007-0.2065c5.8436-0.1528 7.9964-0.1271 8.2682 0.099 0.51852 0.4303 0.45657 1.2347-0.10891 1.4141-0.61694 0.1958-10.004 0.67-13.356 0.6746-2.0002 0-2.6209-0.082-2.7329-0.374zm-467.04-0.2058c-0.17462-0.1746-0.3175-0.508-0.3175-0.7408 0-0.986 0.47054-1.0583 6.8815-1.0583 6.5846 0 7.3095 0.1221 7.1026 1.1965-0.053 0.275-0.39334 0.5827-0.75638 0.6837-1.2205 0.3396-12.561 0.2684-12.91-0.081zm122.78 0.029c-0.1819-0.1905-0.33073-0.5461-0.33073-0.7902s0.14883-0.5619 0.33073-0.7062 2.2953-0.338 4.6964-0.4304c13.419-0.5165 13.467-0.5171 13.882-0.1732 0.52738 0.4377 0.52032 1.2297-0.0128 1.4343-0.23018 0.088-1.6292 0.165-3.1088 0.1704-1.4797 0.01-4.2382 0.1223-6.1299 0.2598-7.8111 0.5675-8.9813 0.597-9.3266 0.2355zm-98.224-0.3172c-0.75235-0.3807-0.98384-1.0981-0.53054-1.6443 0.25804-0.3109 1.4994-0.3467 7.4963-0.2159 3.9529 0.086 7.4027 0.2677 7.6662 0.4032 0.68654 0.3533 0.46818 1.3372-0.34678 1.5626-1.2583 0.348-13.569 0.2569-14.285-0.1056zm271.09 0.086c-4.1262-0.1233-4.7716-0.201-5.0257-0.6045-0.21249-0.3375-0.21212-0.5886 1e-3 -0.9261 0.31849-0.5035 0.22337-0.5003 10.484-0.3534 4.022 0.058 4.7769 0.1339 5.2696 0.5329 0.78919 0.6391 0.48117 1.23-0.74689 1.4329-1.0359 0.1712-1.7094 0.1656-9.9827-0.082zm25.361-0.19c-0.47345-0.4735-0.50031-1.2511-0.0554-1.6051 0.19539-0.1555 3.8186-0.3188 8.8541-0.3992 8.9691-0.1432 9.5061-0.085 9.2952 1.0119-0.13823 0.7189-1.3725 0.8714-8.4258 1.0408-3.2742 0.079-6.7021 0.1868-7.6175 0.2404-1.2097 0.071-1.7698-0.01-2.0505-0.2888zm60.27-0.1054c-0.1819-0.1918-0.33072-0.5486-0.33072-0.7927s0.14882-0.5613 0.33072-0.7048c0.18982-0.1498 3.7313-0.3302 8.3122-0.4235 7.3298-0.1492 8.0278-0.125 8.549 0.2971 0.34704 0.281 0.50444 0.6238 0.40517 0.8826-0.20763 0.541-2.0927 0.7065-10.539 0.9248-5.1182 0.1323-6.4627 0.096-6.7274-0.1835zm135.73 0c-0.1819-0.1908-0.33073-0.5466-0.33073-0.7907s0.14883-0.5625 0.33073-0.7076c0.19177-0.1529 3.3582-0.319 7.5364-0.3953 7.6946-0.1405 8.1223-0.079 7.5037 1.0768-0.37529 0.7012-1.2174 0.8-8.4916 0.996-4.954 0.1335-6.2849 0.097-6.5484-0.1792zm-215.3-64.908c-1.4741-0.6768-3.9819-3.1609-4.2436-4.2035-0.0919-0.3661-0.0275-0.9446 0.14308-1.2856 0.48178-0.963 6.3495-6.5731 6.875-6.5731 0.6695 0 1.1473 0.6867 0.96416 1.3857-0.0863 0.3293-1.0395 1.3726-2.1182 2.3185l-1.9613 1.7198 2.4096 0.077c1.5252 0.049 4.1613-0.1652 7.1819-0.5825 3.7948-0.5243 6.1205-0.6755 11.355-0.7383 6.0047-0.072 6.6082-0.039 6.8747 0.3791 0.22769 0.3571 0.18903 0.5611-0.17537 0.9255-0.41785 0.4179-1.3156 0.4861-8.4622 0.6432-7.2907 0.1603-11.172 0.4677-16.193 1.2829-0.87511 0.142-2.2162 0.2592-2.9802 0.2603-0.76399 0-1.3891 0.096-1.3891 0.2115 0 0.3613 2.2086 2.3585 3.1089 2.8112 0.94138 0.4734 1.1999 1.5547 0.44138 1.8457-0.23018 0.088-0.43854 0.1538-0.46302 0.1454-0.0245-0.01-0.63982-0.2886-1.3674-0.6226zm56.807-2.3247c-0.54092-0.5409-0.36904-0.9212 1.1654-2.5786l1.4837-1.6026h-1.2853c-0.70689 0-2.8331 0.183-4.7248 0.4033-6.9809 0.813-7.9707 0.9077-9.5382 0.9123-2.0778 0.01-2.8254-0.6907-1.82-1.6962 0.30998-0.31 0.96634-0.416 2.5797-0.4168 1.1902-6e-4 3.2602-0.1789 4.6-0.3962 1.3399-0.2173 4.372-0.5799 6.738-0.8058s4.3654-0.4774 4.443-0.5588c0.2393-0.251-1.0015-0.9788-3.0989-1.8177-2.1831-0.8732-2.7601-1.4217-2.2878-2.1751 0.44464-0.7093 1.2153-0.6904 3.0532 0.075 3.7171 1.5481 5.2437 3.0819 4.8868 4.9097-0.23097 1.1832-1.6038 3.0255-3.3721 4.5251-1.601 1.3579-2.3578 1.6849-2.8229 1.2198zm-368.95-12.808c-0.0982-0.098-2.5801-0.2512-5.5153-0.3399-4.6876-0.1417-5.3722-0.2176-5.628-0.6244-0.21203-0.337-0.21199-0.589 1.5e-4 -0.926 0.63264-1.0051 10.766-0.6048 12.084 0.4773 0.47469 0.3899 0.53068 0.5732 0.29359 0.9613-0.31377 0.5137-0.94228 0.7437-1.2343 0.4517zm188.47-0.3433c-0.40523-0.7572-0.13828-1.5259 0.59109-1.702 0.32221-0.078 3.6285-0.2254 7.3473-0.3278 6.8932-0.19 7.923-0.087 7.923 0.7904 0 0.8419-0.80616 0.9962-6.4046 1.2255-3.0987 0.1269-6.4249 0.3113-7.3916 0.4097-1.6272 0.1657-1.7804 0.1363-2.0652-0.3958zm233.17 0.022c-0.3961-0.3962-0.43847-0.8204-0.13043-1.3056 0.33385-0.5258 16.599-0.654 17.031-0.1341 0.55768 0.6719-0.10635 1.2436-1.668 1.4359-0.78473 0.097-4.4544 0.2156-8.1549 0.2645-5.3168 0.07-6.8014 0.016-7.0776-0.2607zm-360.03-0.1836c-0.65936-0.3287-0.84971-1.0677-0.41113-1.5961 0.26327-0.3173 1.48-0.3842 6.9827-0.3842 7.1535 0 7.8112 0.111 7.4474 1.2571-0.14647 0.4615-0.45377 0.5805-1.8184 0.704-3.16 0.2861-11.639 0.2995-12.201 0.019zm50.348 0.04c-0.347-0.1724-0.66641-0.5589-0.70981-0.8591-0.16381-1.1327 0.29309-1.1973 7.8553-1.1106 6.2647 0.072 7.2096 0.1371 7.5967 0.5246 0.73088 0.7316 0.28132 1.2205-1.2676 1.3783-3.2561 0.3319-12.845 0.3794-13.475 0.067zm101.64 0c-0.40915-0.4092-0.33461-1.1147 0.1613-1.5267 0.568-0.4718 14.622-0.6943 15.787-0.2499 1.0254 0.3911 0.89594 1.3666-0.21678 1.633-1.3555 0.3246-15.422 0.4529-15.731 0.1436zm57.564 0.1227c-3.3558-0.1366-3.9838-0.2291-4.232-0.6235-0.21235-0.3374-0.2118-0.5886 2e-3 -0.926 0.27187-0.429 0.95174-0.4565 9.2591-0.3741 4.9311 0.049 9.163 0.1427 9.4042 0.2085 0.60959 0.1662 0.77966 0.7543 0.3773 1.3046-0.30016 0.4105-0.93371 0.4689-5.6042 0.5168-2.8962 0.03-7.0391-0.018-9.2064-0.1063zm178.76-0.052c-0.1819-0.1905-0.33073-0.5461-0.33073-0.7902s0.14883-0.5652 0.33073-0.7134c0.18976-0.1547 3.1532-0.3513 6.9526-0.4612 5.8518-0.1693 6.662-0.1432 6.9672 0.2245 0.60914 0.7339 0.25553 1.3439-0.89187 1.5383-0.58052 0.098-3.6749 0.2621-6.8763 0.3637-4.6408 0.1473-5.8879 0.1145-6.1516-0.1617zm27.554-0.089c-0.0797-0.2077-0.10574-0.6542-0.0578-0.9922l0.0871-0.6145 7.9007-0.2065c5.8436-0.1527 7.9964-0.1271 8.2682 0.099 0.51852 0.4304 0.45657 1.2347-0.10891 1.4142-0.61694 0.1958-10.004 0.6699-13.356 0.6745-2.0002 0-2.6209-0.082-2.7329-0.374zm25.992-0.019c-0.66764-0.3329-0.86117-1.0698-0.42042-1.6008 0.25909-0.3122 1.3011-0.3842 5.5609-0.3842 5.6704 0 6.6877 0.173 6.5516 1.1141-0.0622 0.43-0.32886 0.6327-1.0105 0.7682-1.623 0.3227-10.077 0.4039-10.682 0.1027zm-493.03-0.1858c-0.17462-0.1747-0.3175-0.508-0.3175-0.7409 0-0.9859 0.47054-1.0583 6.8815-1.0583 6.5846 0 7.3095 0.1221 7.1026 1.1965-0.053 0.275-0.39334 0.5827-0.75638 0.6837-1.2205 0.3397-12.561 0.2684-12.91-0.081zm122.78 0.029c-0.1819-0.1905-0.33073-0.5461-0.33073-0.7902s0.14883-0.5619 0.33073-0.7062 2.2953-0.338 4.6964-0.4304c13.419-0.5165 13.467-0.5171 13.882-0.1731 0.52738 0.4376 0.52032 1.2296-0.0128 1.4342-0.23018 0.088-1.6292 0.165-3.1088 0.1704-1.4797 0.01-4.2382 0.1223-6.1299 0.2598-7.8111 0.5675-8.9813 0.597-9.3266 0.2355zm26.71-0.029c-0.41226-0.4123-0.4058-1.1329 0.0132-1.4761 0.21287-0.1743 3.4153-0.2565 8.9864-0.2308 7.4828 0.035 8.7121 0.096 9.0717 0.456 0.61252 0.6126 0.2342 1.2175-0.87622 1.4011-1.9323 0.3195-16.856 0.1891-17.195-0.1502zm82.021 0c-0.17463-0.1747-0.3175-0.508-0.3175-0.7409 0-0.9959 0.44504-1.0583 7.543-1.0583 7.2942 0 7.9742 0.1056 7.7622 1.2061-0.14528 0.7544-0.98429 0.8446-8.1747 0.8793-4.7356 0.023-6.5816-0.055-6.813-0.2862zm89.498-0.3925c-0.49817-0.4982-0.49333-1.253 0.0107-1.6713 0.21828-0.1811 0.39687-0.4968 0.39687-0.7014 0-1.2444 4.4404-7.8028 5.4093-7.9894 0.27988-0.054 0.66017 0.1089 0.84507 0.3618 0.4189 0.5729-0.16022 1.8197-2.0252 4.3603-0.69438 0.9458-1.4477 2.1662-1.674 2.7119l-0.41146 0.9922h3.0044c2.8219 0 2.9964-0.03 2.8729-0.5029-0.19506-0.7459 0.68473-2.479 2.7905-5.497 1.9236-2.7568 2.695-3.3611 3.3959-2.6602 0.34373 0.3437 0.32067 0.5278-0.19402 1.5485-0.32127 0.6372-1.0884 1.8729-1.7048 2.746-1.1814 1.6735-1.8027 2.7856-2.1065 3.7703-0.16569 0.5371-0.0952 0.5953 0.72142 0.5953 0.49778 0 1.6217-0.075 2.4977-0.1664 1.37-0.1432 1.575-0.2339 1.4666-0.6484-0.0782-0.2989 0.4218-1.2658 1.3162-2.5455 0.79322-1.135 1.8354-2.81 2.3159-3.7221 0.84966-1.613 1.6611-2.2268 2.3672-1.7904 0.82073 0.5072-0.20812 3.2057-2.5732 6.7492-1.1211 1.6797-1.2603 2.0209-0.92452 2.2664 0.21742 0.159 0.35104 0.5193 0.29692 0.8008-0.13823 0.7189-1.3725 0.8713-8.4258 1.0407-3.2742 0.079-6.7021 0.1868-7.6175 0.2404-1.2097 0.071-1.7698-0.01-2.0505-0.2888zm60.27-0.1054c-0.1819-0.1918-0.33072-0.5485-0.33072-0.7927 0-0.2441 0.14882-0.5612 0.33072-0.7048 0.18982-0.1497 3.7313-0.3302 8.3122-0.4234 7.3298-0.1493 8.0278-0.125 8.549 0.297 0.34704 0.281 0.50444 0.6239 0.40517 0.8826-0.20763 0.541-2.0927 0.7065-10.539 0.9248-5.1182 0.1324-6.4627 0.096-6.7274-0.1835zm135.73 0c-0.1819-0.1908-0.33073-0.5465-0.33073-0.7907 0-0.2441 0.14883-0.5625 0.33073-0.7075 0.19177-0.153 3.3582-0.3191 7.5364-0.3954 7.6946-0.1405 8.1223-0.079 7.5037 1.0768-0.37529 0.7013-1.2174 0.8-8.4916 0.996-4.954 0.1335-6.2849 0.097-6.5484-0.1792zm-166.59-1.1727c-0.5521-0.5521-0.54168-0.7169 0.13004-2.0554 0.64921-1.2936 1.5126-2.3045 1.9682-2.3045 1.1044 0 0.98993 1.9317-0.2209 3.7285-0.7025 1.0424-1.2741 1.2347-1.8774 0.6314zm-6.7261-0.1795c-0.58623-0.5862-0.27845-1.4369 1.7518-4.8419 1.2387-2.0774 1.619-2.5135 2.1919-2.5135 1.163 0 0.9778 1.6633-0.44223 3.9724-0.31447 0.5114-0.88767 1.5532-1.2738 2.3151-0.72519 1.4311-1.4953 1.8003-2.2277 1.0679zm-30.336-0.3028c-0.77719-0.5683-0.36707-1.3671 2.3983-4.6714 2.7407-3.2747 2.9035-3.4294 3.6177-3.4355 0.74539-0.01 0.84379 0.7528 0.25174 1.9422-0.6735 1.3531-4.9911 6.5204-5.4482 6.5204-0.18319 0-0.55199-0.1601-0.81954-0.3557z"/></g></svg>
