<svg width="549.73mm" height="277.55mm" version="1.1" viewBox="0 0 549.73 277.55" xml:space="preserve" xmlns="http://www.w3.org/2000/svg"><g transform="translate(945.73 1636)"><path fill="#fff" d="m-468.04-1358.7c-0.0779-0.126-0.43344-0.1733-0.79015-0.1051-0.45003 0.086-0.74812-0.035-0.97377-0.3968-0.185-0.2962-0.51849-0.4702-0.77352-0.4035-0.55257 0.1445-1.321-0.5822-1.321-1.2494 0-0.7311 2.8161-4.3112 5.4045-6.8707 1.2476-1.2337 2.2684-2.3277 2.2684-2.4311s-1.5478-1.5719-3.4396-3.2633c-2.6386-2.359-3.4396-3.2262-3.4396-3.724 0-0.3568-0.14796-0.8857-0.3288-1.1752-0.24262-0.3885-0.25287-0.6477-0.0391-0.9886 0.55173-0.8802 1.2742-0.6796 2.5799 0.7163 0.68684 0.7343 1.4152 1.3351 1.6186 1.3351 0.20341 0 1.0618 0.7765 1.9076 1.7255 0.84579 0.9491 1.9891 2.0402 2.5406 2.4246l1.0028 0.6991 1.1098-1.0356c0.61041-0.5695 2.4419-2.3154 4.0699-3.8798 2.9164-2.8022 3.8796-3.3562 4.2332-2.4346 0.091 0.2372-0.0516 0.5637-0.33904 0.7759-0.39766 0.2936-0.43052 0.4329-0.16547 0.7017 0.80587 0.817 0.1775 1.8442-3.8505 6.2946l-1.6677 1.8426 1.8021 1.1872c0.99115 0.653 2.7964 2.0521 4.0117 3.1091l2.2096 1.9219-0.15914 1.1611c-0.0875 0.6385-0.22661 1.2702-0.30909 1.4036-0.27521 0.4453-1.0081 0.2501-1.7579-0.4683-0.59165-0.5668-0.74208-0.6205-0.74208-0.2646 0 0.9143-1.0121 0.3598-4.3524-2.3843l-3.4263-2.8149-1.3034 1.4337c-1.7828 1.9611-3.3062 4.3453-3.5144 5.5003-0.0952 0.5283-0.28075 1.1689-0.41223 1.4236-0.24636 0.4771-1.4024 0.6406-1.6537 0.2339zm11.151-7.5794c-1.427-1.3451-2.5742-2.1759-2.5742-1.8643 0 0.1641 3.7815 3.3171 3.9688 3.3092 0.0728 0-0.55479-0.6533-1.3946-1.4449zm-283.87 7.0412c-0.17269-0.2766-0.45888-0.4472-0.63597-0.3793-0.17709 0.068-0.80952-0.01-1.4054-0.1681-2.3222-0.6253-1.5284-2.3856 3.3661-7.4648 1.5042-1.561 2.6595-2.9604 2.5672-3.1097-0.0923-0.1493-1.7214-1.6604-3.6202-3.3581-3.2055-2.8659-3.4415-3.1414-3.2993-3.8523 0.0842-0.4211 7e-3 -0.9993-0.17121-1.285-0.23888-0.3825-0.24801-0.6411-0.0347-0.9814 0.52586-0.8389 1.2428-0.669 2.4749 0.5863 0.64803 0.6603 1.3842 1.2005 1.6359 1.2005 0.2517 0 1.1496 0.7746 1.9954 1.7212 1.4732 1.6489 3.4704 3.3059 3.9846 3.3059 0.134 0 1.9927-1.6669 4.1304-3.7041 2.3515-2.2411 4.0965-3.7042 4.4178-3.7042 0.71064 0 0.99466 0.7843 0.40378 1.115-0.35376 0.1979-0.42227 0.4744-0.30332 1.224 0.1646 1.0373-0.16111 1.5102-4.0141 5.8289l-1.3854 1.5527 1.65 1.0696c0.90749 0.5883 2.6446 1.9361 3.8602 2.9952l2.2102 1.9255-0.17558 1.3236c-0.0966 0.728-0.23499 1.4198-0.30761 1.5373-0.36361 0.5883-1.257-0.092-4.6158-3.5173-3.194-3.2569-4.3942-4.1597-4.3318-3.2585 9e-3 0.1334 1.2594 1.2865 2.7781 2.5624 3.0222 2.539 3.4228 2.9702 3.4228 3.6838 0 0.9471-0.97012 0.4265-4.2942-2.3045l-3.3681-2.7673-1.7166 2.0119c-1.7304 2.028-3.0566 4.2821-3.0566 5.1954 0 1.3846-1.493 2.0859-2.1616 1.0154zm270.5-26.273c-0.17463-0.1746-0.3175-0.508-0.3175-0.7408 0-0.9532 0.5281-1.0584 5.3153-1.0584 4.0721 0 4.755 0.061 5.2549 0.4654 0.78995 0.6396 0.47217 1.2852-0.7305 1.4841-1.8478 0.3055-9.1822 0.1897-9.5222-0.1503zm16.404 0c-0.17463-0.1746-0.3175-0.508-0.3175-0.7408 0-0.9495 0.53282-1.0584 5.1799-1.0584 3.6998 0 4.6056 0.073 4.8715 0.3935 0.95982 1.1565-0.97451 1.7232-5.8823 1.7232-2.396 0-3.6363-0.1023-3.8516-0.3175zm-47.612-0.2402c-0.45125-0.4665-0.41537-1.1719 0.0851-1.6724 0.32032-0.3203 0.99984-0.4157 2.9599-0.4157h2.5441l-0.67564-0.7276c-0.3716-0.4002-1.0967-1.3637-1.6113-2.1411s-2.1749-2.742-3.6895-4.3656c-1.5146-1.6237-3.0441-3.349-3.399-3.834-0.35481-0.4849-1.2405-1.3789-1.9682-1.9866-1.3382-1.1175-4.3078-4.1954-8.2338-8.5343-3.0347-3.3538-11.858-16.597-13.82-20.744-0.65423-1.3824-1.8222-3.3556-2.5954-4.3849-1.2574-1.6737-6.5874-6.8292-14.288-13.82-2.1621-1.9629-3.0054-2.9561-4.3035-5.0685-1.3034-2.121-2.116-3.0762-4.2167-4.9566-5.5684-4.9845-5.8205-5.1723-12.074-8.9983-0.89858-0.5498-1.0716-1.5646-0.34498-2.023 0.73844-0.4658 1.6879 0.1525 10.461 6.8127 3.2033 2.4319 5.7802 5.0818 7.7454 7.9648 1.8343 2.6909 7.9163 8.9573 14.599 15.042 3.1898 2.9042 4.8217 4.9922 6.7517 8.6386 0.73171 1.3824 2.5073 4.3265 3.9457 6.5423 1.4384 2.2159 3.7183 5.7441 5.0664 7.8405 2.7065 4.2088 6.3514 8.4224 10.903 12.605 1.5047 1.3824 3.2231 3.0467 3.8188 3.6985 0.59565 0.6517 2.2864 2.4376 3.7572 3.9687s3.0934 3.4387 3.6058 4.239c0.5124 0.8004 1.6155 2.0803 2.4513 2.8443 1.3255 1.2115 1.661 1.3891 2.6251 1.3891 0.60797 0 1.2483 0.1428 1.4229 0.3175 0.41229 0.4122 0.40582 1.1334-0.0132 1.474-0.1819 0.1479-2.7715 0.352-5.7547 0.4536-4.279 0.1458-5.4938 0.1127-5.7547-0.157zm79.503-0.089c-0.69255-0.3452-0.89543-1.0759-0.44832-1.6147 0.25487-0.3071 1.1846-0.3841 4.6348-0.3841 2.3738 0 4.6214 0.1161 4.9947 0.258 0.72687 0.2763 0.90947 1.0794 0.34795 1.5302-0.48513 0.3894-8.8018 0.5733-9.5292 0.2106zm-93.526-0.1731c-0.1819-0.1893-0.33073-0.5438-0.33073-0.7879 0-0.9777 0.73882-1.167 4.9369-1.2646 4.4122-0.1026 5.2366 0 5.4895 0.6549 0.31434 0.8191-0.32004 1.0757-3.0832 1.247-1.4922 0.092-3.606 0.2416-4.6974 0.3314-1.4599 0.1201-2.0718 0.072-2.3151-0.1808zm31.472-0.027c-0.17463-0.1746-0.3175-0.508-0.3175-0.7408 0-0.9301 0.55339-1.0583 4.5682-1.0583 2.2053 0 4.1581 0.1203 4.445 0.2738 0.73923 0.3957 0.64656 1.2755-0.16691 1.5848-1.0085 0.3834-8.1356 0.3337-8.5288-0.06zm44.992 0.02c-0.1819-0.1856-0.33073-0.528-0.33073-0.7608 0-0.8795 0.5861-1.0583 3.4677-1.0583 2.5672 0 2.8215-0.043 2.7125-0.4631-0.16394-0.6315 0.22453-1.0534 2.6833-2.9136 4.5782-3.4638 8.2646-7.9297 10.92-13.229 0.96711-1.9299 2.2318-4.1326 2.8104-4.8948s1.7538-2.5764 2.6114-4.0316 2.0057-3.1816 2.5511-3.8365c0.54543-0.6548 1.841-2.4597 2.8791-4.0108 1.0953-1.6366 2.501-3.3499 3.3495-4.0825 0.80417-0.6942 2.0626-2.1865 2.7965-3.316 0.73391-1.1296 1.8519-2.5093 2.4844-3.0661 0.63253-0.5567 1.5347-1.5823 2.0049-2.2789 0.64013-0.9485 0.99717-1.2464 1.4215-1.1859 0.42203 0.06 0.58752 0.296 0.64833 0.9239 0.11022 1.1379-0.53129 2.2867-2.3358 4.1828-0.83157 0.8738-1.8329 2.1042-2.2252 2.7343-0.3923 0.63-1.6093 1.9993-2.7044 3.0427-1.0951 1.0434-2.7731 3.0282-3.7288 4.4107-0.95572 1.3824-2.1932 3.0338-2.7499 3.6697-0.55672 0.636-1.5661 2.1242-2.2431 3.3073-0.67697 1.1831-1.8494 3.0441-2.6055 4.1355s-2.1715 3.5362-3.1455 5.433c-1.9637 3.824-4.6495 7.1959-10.056 12.625l-2.8326 2.8443h1.0481c0.96537 0 1.8796 0.5082 1.8796 1.0448 0 0.1173-0.19669 0.3767-0.4371 0.5764-0.61873 0.514-10.39 0.6918-10.874 0.1979zm-336.29-0.2602c-0.45125-0.4664-0.41538-1.1719 0.085-1.6723 0.28799-0.288 0.91822-0.4161 2.0505-0.4168l1.6347-1e-3 -0.86555-0.5277c-0.50274-0.3065-1.4897-1.4983-2.3546-2.8433-0.81898-1.2736-2.4054-3.2681-3.5255-4.4322-2.5074-2.6063-5.9761-6.8884-8.1444-10.054-0.897-1.3097-2.3634-3.2147-3.2588-4.2333-0.89532-1.0187-2.052-2.5069-2.5703-3.3073-0.51834-0.8004-1.7836-2.3543-2.8117-3.4531-4.9466-5.2872-7.6691-8.5785-12.385-14.973-3.2606-4.4212-6.9776-8.1551-13.587-13.649-2.7955-2.3236-3.7361-3.4238-5.717-6.6865-3.8585-6.3554-5.1273-8.017-7.5842-9.9329-7.9841-6.2255-8.3118-6.533-7.8114-7.3311 0.59454-0.9485 1.2984-0.6756 3.8407 1.4888 1.3645 1.1617 3.7906 3.2241 5.3913 4.5831 2.4719 2.0986 3.2172 2.9286 4.9464 5.5086 1.1198 1.6707 2.5462 3.9902 3.1698 5.1544 1.2536 2.3404 3.7049 4.9598 8.7901 9.3927 4.6862 4.0851 6.7089 6.0718 8.8515 8.6939 1.9145 2.343 2.7712 3.4501 6.5031 8.4049 0.86311 1.1459 3.1449 3.7717 5.0707 5.8351 1.9258 2.0635 3.9743 4.4447 4.5523 5.2917 0.57796 0.847 1.8371 2.4826 2.7981 3.6346 0.96101 1.1521 2.433 3.1162 3.2712 4.3646 1.6608 2.4739 3.6061 4.8036 7.4201 8.8866 1.3594 1.4552 3.2404 3.7883 4.1802 5.1846s2.0038 2.8161 2.3645 3.155c0.36077 0.3389 0.65594 0.8931 0.65594 1.2316 0 0.6092 0.0307 0.6153 3.1221 0.6153 3.1957 0 3.7571 0.1612 3.7571 1.0788 0 0.2442-0.14882 0.5649-0.33072 0.7127-0.18191 0.1479-2.7715 0.352-5.7547 0.4537-4.279 0.1458-5.4938 0.1126-5.7547-0.1571zm31.472-0.024c-0.17463-0.1746-0.3175-0.508-0.3175-0.7408 0-0.9532 0.5281-1.0583 5.3153-1.0583 4.0721 0 4.755 0.06 5.2549 0.4653 0.78995 0.6397 0.47217 1.2853-0.7305 1.4841-1.8478 0.3055-9.1822 0.1898-9.5222-0.1503zm15.875 0c-0.17463-0.1746-0.3175-0.508-0.3175-0.7408 0-0.9495 0.53282-1.0583 5.1799-1.0583 3.6998 0 4.6056 0.073 4.8715 0.3935 0.95982 1.1565-0.97451 1.7231-5.8823 1.7231-2.396 0-3.6363-0.1022-3.8516-0.3175zm31.891-0.065c-0.69255-0.3453-0.89543-1.076-0.44832-1.6147 0.25487-0.3071 1.1846-0.3842 4.6348-0.3842 2.3738 0 4.6214 0.1161 4.9947 0.258 0.72687 0.2764 0.90948 1.0794 0.34795 1.5302-0.48513 0.3895-8.8018 0.5733-9.5292 0.2107zm-61.789-0.1997c-0.17462-0.1747-0.3175-0.508-0.3175-0.7409 0-0.9301 0.5534-1.0583 4.5682-1.0583 2.2053 0 4.1581 0.1203 4.445 0.2739 0.73923 0.3956 0.64656 1.2754-0.16691 1.5847-1.0085 0.3835-8.1356 0.3338-8.5288-0.059zm45.257 0.02c-0.1819-0.1856-0.33073-0.5279-0.33073-0.7608 0-0.9181 0.56343-1.0583 4.2532-1.0583h3.6182l0.16213-0.7276c0.10945-0.4912 0.70048-1.1228 1.819-1.944 2.5558-1.8762 7.3642-6.1029 9.0553-7.9597 1.6652-1.8283 3.6934-4.7004 4.6372-6.5666 0.33118-0.6549 1.736-2.8575 3.1217-4.8948 2.1126-3.1059 3.3609-4.5589 7.7283-8.9959 4.6673-4.7415 7.0147-7.5284 9.7932-11.627 0.48771-0.7194 1.6966-2.3674 2.6864-3.6622s2.2408-3.0875 2.78-3.9837c1.7682-2.9391 4.6405-6.6063 7.4933-9.567 2.5664-2.6635 3.7948-4.2084 6.9423-8.7313 1.5659-2.2501 5.6285-6.391 7.3472-7.4889 1.196-0.764 3.1998-2.3763 5.5262-4.4465 0.29208-0.2599-0.36633-0.2957-3.2328-0.1755-3.7878 0.1588-4.41 0.018-4.41-0.9995 0-1.2024 0.50668-1.3094 6.2042-1.3094 4.3739 0 5.4319 0.071 5.6915 0.3842 0.52074 0.6274 0.20961 1.2705-1.0114 2.0906-0.63271 0.4249-2.2392 1.805-3.57 3.0669s-2.9874 2.6212-3.6815 3.0207c-1.8575 1.0692-6.0898 5.4078-8.8003 9.0214-1.3053 1.7402-3.3124 4.1809-4.4603 5.4239-2.7718 3.0014-7.7125 9.3123-8.4868 10.84-0.70364 1.3885-5.2826 7.7137-8.1459 11.252-1.0548 1.3036-4.277 4.854-7.1606 7.8899-3.0313 3.1914-5.7562 6.3211-6.4599 7.4195-0.66938 1.0448-1.558 2.3379-1.9746 2.8734s-1.3021 1.9642-1.9675 3.175c-2.0146 3.6652-5.5742 8.1946-7.903 10.056-0.72761 0.5816-2.6614 2.2669-4.2974 3.7451-2.5986 2.348-2.9098 2.7169-2.4628 2.9196 0.71841 0.3257 0.90095 0.9781 0.41088 1.4686-0.5624 0.5629-10.388 0.7887-10.915 0.2508zm-76.729-0.5226c-0.1819-0.1892-0.33073-0.5437-0.33073-0.7879 0-0.9777 0.73882-1.1669 4.9369-1.2645 4.4122-0.1026 5.2366 0 5.4895 0.6548 0.31433 0.8192-0.32004 1.0758-3.0832 1.247-1.4922 0.092-3.606 0.2417-4.6974 0.3314-1.4599 0.1201-2.0718 0.072-2.3151-0.1808zm-156.16-41.897c-0.56474-0.6805-0.17945-1.2555 1.5424-2.302 2.0683-1.2569 2.495-1.6122 6.7015-5.5795 3.3155-3.1268 3.3805-3.2107 4.9461-6.3811 1.3122-2.6572 1.9809-3.6472 3.8682-5.7262 1.255-1.3824 2.8393-3.4533 3.5206-4.6019 1.8236-3.0743 5.3891-6.9091 8.424-9.0604 1.4032-0.9946 3.3938-2.7295 4.4236-3.8554 2.0372-2.227 3.0767-2.874 3.7372-2.3258 0.21815 0.181 0.39664 0.4376 0.39664 0.5702 0 0.4948-4.4582 4.8772-7.0115 6.8925-3.2838 2.5917-6.8911 6.5234-8.6495 9.4273-0.73465 1.2132-2.3463 3.3563-3.5814 4.7625-1.6922 1.9265-2.5402 3.1761-3.4408 5.0702-0.65729 1.3824-1.3886 2.7543-1.6252 3.0485-1.1638 1.4475-8.1789 7.9318-9.8533 9.1077-1.9586 1.3754-2.8425 1.6234-3.3986 0.9534zm467.06-11.008c-1.036-0.3143-1.8641-1.3228-2.0944-2.5507-0.4337-2.3118 1.6346-5.1636 4.0025-5.5187 0.67442-0.1011 1.2635-0.3177 1.3091-0.4814 0.24958-0.8963 1.4994-8.0484 1.7627-10.087 0.32891-2.5467 0.54252-3.0427 1.3105-3.0427 0.93452 0 1.0356 0.7798 0.77657 5.9918-0.23963 4.822-0.41726 5.8964-1.6468 9.9611-0.23423 0.7743-0.22498 1.3997 0.0405 2.7353 0.30715 1.5452 0.29736 1.7782-0.091 2.1666-0.33359 0.3336-0.54152 0.3681-0.89057 0.148-0.35108-0.2215-0.60949-0.1733-1.1283 0.2102-0.82787 0.6121-2.2297 0.8077-3.3507 0.4676zm2.8479-2.8163c0.13436-0.3534 0.24429-1.1705 0.24429-1.8159 0-1.0558-0.0624-1.1734-0.62282-1.1734-1.2165 0-2.6133 1.9446-2.1897 3.0485 0.1927 0.5021 1.1742 0.884 1.8308 0.7123 0.27126-0.071 0.60312-0.4181 0.73747-0.7715zm16.104 2.8592c-1.3525-0.4383-1.7991-0.8377-2.2464-2.009-0.56316-1.4747-0.3932-3.0521 0.52379-4.8617 1.0341-2.0407 1.9203-2.6333 3.9613-2.6489 1.6224-0.013 1.7484 0.033 2.5076 0.8973 0.953 1.0854 1.2181 2.2697 0.99213 4.4319-0.28598 2.7362-1.5423 4.1711-3.785 4.3232-0.70207 0.048-1.5811-0.012-1.9534-0.1328zm2.7579-2.6927c0.61459-0.4834 0.69714-0.7361 0.69714-2.1341 0-0.8721-0.12325-1.8159-0.27389-2.0974-0.34998-0.654-1.6117-0.6765-2.1886-0.039-1.0652 1.1771-1.6075 3.8182-0.92422 4.5015 0.49579 0.4958 1.9213 0.3734 2.6895-0.2309zm25.874 2.6664c-0.48642-0.115-1.0159-0.3406-1.1766-0.5014-0.16074-0.1607-0.44223-1.3193-0.62553-2.5746-0.18331-1.2553-0.39241-2.3415-0.46467-2.4138-0.36003-0.36-1.5747 0.3277-2.214 1.2535-1.2506 1.8112-2.2152 1.6576-2.7426-0.4367-0.16039-0.637-0.38223-1.2142-0.49296-1.2826-0.3144-0.1943-0.77665 1.1536-1.1372 3.316-0.30758 1.8448-0.37654 1.9823-1.0327 2.0588-1.123 0.131-1.2906-0.5455-1.2088-4.8781 0.0634-3.3566 0.13552-3.9175 0.53626-4.17 0.59692-0.376 1.3558 0.065 1.4736 0.8572 0.10128 0.6807 0.25207 0.7048 0.87623 0.14 0.71352-0.6458 2.2708-0.2756 2.8127 0.6685l0.42316 0.7373 0.91517-0.6211c1.3261-0.8999 2.7785-0.8412 3.7721 0.1524 0.74076 0.7407 0.7734 0.8743 0.7734 3.1657 0 2.0935 0.0638 2.4264 0.51125 2.6659 0.66446 0.3556 0.94128 1.2544 0.53654 1.742-0.17536 0.2113-0.39355 0.372-0.48488 0.3571-0.0913-0.015-0.56402-0.1211-1.0504-0.2361zm-19.092-0.3123c-2.7213-0.7737-3.4159-3.7189-1.5594-6.6119 1.1512-1.7941 2.3937-2.7154 3.3427-2.4788 2.5242 0.6292 3.5169 1.9777 3.7075 5.036 0.15097 2.4223-0.17004 3.1999-1.5862 3.8427-1.2248 0.556-2.4588 0.623-3.9046 0.212zm2.6104-2.3578c0.58691-0.63 0.92451-2.0489 0.66281-2.7858-0.24953-0.7027-1.1827-1.6892-1.5979-1.6892-0.58569 0-1.9399 2.1165-1.9399 3.0318 0 1.7383 1.7716 2.6276 2.875 1.4432zm-37.697 2.0914c-0.10633-0.1721-0.44233-1.1283-0.74668-2.125l-0.55336-1.8122-0.91875 0.6778c-1.946 1.4358-3.963 1.5078-5.5133 0.1968-1.1104-0.9389-1.3472-2.2553-0.7073-3.9309 0.9361-2.4512 2.8569-3.9197 5.5392-4.2349 1.129-0.1327 1.4748-0.2765 1.4748-0.6132 0-1.0657 1.3666-1.4528 1.8619-0.5273 0.16692 0.3118 0.31428 2.1619 0.34246 4.2994 0.0364 2.7587 0.18529 4.2535 0.56246 5.6462 0.42846 1.582 0.45542 1.9635 0.16362 2.3151-0.41074 0.4949-1.2296 0.5538-1.505 0.1082zm-3.7757-4.907c0.81224-0.4798 1.6472-1.9645 1.9602-3.4857l0.18527-0.9003-1.3622 0.1613c-1.7059 0.202-2.7485 0.93-3.2977 2.3027-0.5276 1.3186-0.52833 1.4463-0.0112 1.9635 0.5445 0.5445 1.5619 0.5278 2.5256-0.042zm-12.069 4.569c-0.14552-0.053-0.59501-0.1697-0.99886-0.2589-1.0899-0.2406-2.7448-1.8724-3.2557-3.21-0.7755-2.0307-0.16779-4.629 1.4358-6.1391 1.0849-1.0217 3.1964-1.9073 4.5385-1.9037 4.0644 0.011 5.8066 3.9955 2.5524 5.8376-0.90425 0.5119-1.5742 0.6394-3.8092 0.7249-1.4916 0.057-2.712 0.1557-2.712 0.2191 0 0.064 0.1865 0.4761 0.41445 0.9169 0.57372 1.1095 1.9235 1.6301 3.6628 1.4128 3.0408-0.38 2.4206 1.8778-0.64686 2.3546-0.5043 0.078-1.036 0.099-1.1815 0.046zm2.9838-7.434c1.2595-0.8822 0.46067-1.9703-1.4451-1.9684-1.3438 0-3.4784 1.3264-3.5147 2.1818-0.0171 0.4042 4.3461 0.2164 4.9598-0.2134zm28.88 7.1365c-0.23789-0.2867-0.38356-1.6064-0.46083-4.1748-0.0968-3.2176-0.0521-3.8061 0.31201-4.1083 0.5701-0.4732 1.6744-0.1698 1.8934 0.52 0.15685 0.4943 0.21728 0.5086 0.61685 0.147 0.44927-0.4065 2.3486-0.9424 3.3824-0.9542 0.3113 0 0.83316 0.2099 1.1597 0.4743 0.90298 0.7312 0.36196 1.5256-1.1554 1.6967-2.1052 0.2373-2.8627 1.208-3.6249 4.6454-0.44229 1.9947-1.321 2.7205-2.1232 1.7539zm-39.4-0.2367c-0.20209-0.2435-0.37262-1.6672-0.45162-3.7703-0.14518-3.8651-0.38223-4.8802-1.31-5.6101-0.94426-0.7427-1.729-0.2943-2.6903 1.5373-1.025 1.9529-1.3683 3.0756-1.7368 5.6803-0.29019 2.0508-0.34005 2.1612-1.0115 2.2391-0.47263 0.055-0.78782-0.076-0.95273-0.3968-0.52384-1.0179-1.0522-26.372-0.56188-26.963 0.41393-0.4987 1.1664-0.4692 1.7024 0.067 0.38492 0.3849 0.41542 0.8819 0.25053 4.0824-0.10327 2.0043-0.0997 6.1098 8e-3 9.1233l0.19566 5.4791 0.73029-1.161c0.87207-1.3865 1.7681-2.2257 2.5887-2.4244 1.7244-0.4176 3.7076 1.1952 4.4246 3.5982 0.49445 1.6572 0.58765 7.9653 0.1259 8.5217-0.41122 0.4955-0.89827 0.4944-1.311 0zm16.752-19.208c-0.46087-0.1366-1.1595-0.6305-1.5524-1.0975-0.63957-0.7601-0.69906-0.9988-0.56726-2.2758 0.17182-1.6648 1.1086-3.2535 2.373-4.0244 1.0127-0.6175 1.998-0.6723 2.2088-0.123 0.0838 0.2183 0.36904 0.3969 0.63396 0.3969 0.71644 0 1.5069 1.1732 1.8632 2.7653 0.27902 1.2468 0.25782 1.5264-0.18308 2.4142-0.27425 0.5522-0.7963 1.2112-1.1601 1.4643-0.83284 0.5795-2.5234 0.8039-3.6161 0.48zm2.5048-2.4142c0.55584-0.5559 0.34806-1.4619-0.49865-2.1743-0.44889-0.3777-0.90964-0.629-1.0239-0.5584-0.42712 0.264-0.85981 1.7406-0.69843 2.3836 0.13627 0.5429 0.3283 0.6666 1.0354 0.6666 0.47745 0 1.011-0.1429 1.1856-0.3175zm-15.01 1.4093c-0.36335-0.679-0.37043-7.0477-9e-3 -7.7238 0.60745-1.135 2.1074-0.365 2.1074 1.0819 0 0.5588 0.0161 0.5565 0.81405-0.1149 1.582-1.3312 3.6532-0.7202 4.7138 1.3905 1.0125 2.0149 0.90825 4.2745-0.19725 4.2745-0.69605 0-0.95898-0.4248-1.3292-2.1474-0.62353-2.9013-1.5694-3.003-2.8061-0.3015-1.5862 3.4649-1.8542 3.9037-2.4342 3.9863-0.36449 0.052-0.68158-0.1124-0.85989-0.4456zm64.703-1.5602c-1.5899-3.1571-3.5374-4.3129-6.3811-3.7873-2.2773 0.421-2.8301 0.803-4.9139 3.3958-0.71504 0.8896-2.0099 0.016-1.7154-1.1579 0.28884-1.1509 2.8282-3.4138 4.5669-4.0699 3.4065-1.2853 7.4863-0.1937 9.2741 2.4815 1.5895 2.3784 1.8946 4.6926 0.64321 4.8798-0.45057 0.067-0.72723-0.2596-1.4738-1.742zm-172.35-5.9345c-0.17463-0.1747-0.3175-0.508-0.3175-0.7409 0-0.9532 0.5281-1.0583 5.3153-1.0583 4.0721 0 4.755 0.061 5.2549 0.4653 0.78995 0.6397 0.47217 1.2853-0.7305 1.4841-1.8478 0.3056-9.1822 0.1898-9.5222-0.1502zm16.14 0c-0.17462-0.1747-0.3175-0.508-0.3175-0.7409 0-0.9494 0.53282-1.0583 5.1799-1.0583 3.6998 0 4.6056 0.073 4.8715 0.3935 0.95983 1.1565-0.9745 1.7232-5.8823 1.7232-2.396 0-3.6363-0.1023-3.8516-0.3175zm31.891-0.3295c-0.69255-0.3453-0.89543-1.076-0.44832-1.6147 0.25487-0.3071 1.1846-0.3842 4.6348-0.3842 2.3738 0 4.6214 0.1161 4.9947 0.2581 0.72688 0.2763 0.90948 1.0794 0.34796 1.5301-0.48514 0.3895-8.8018 0.5734-9.5292 0.2107zm-93.791-0.1732c-0.1819-0.1892-0.33073-0.5437-0.33073-0.7879 0-0.9777 0.73882-1.1669 4.9369-1.2645 4.4122-0.1026 5.2366 0 5.4895 0.6549 0.31434 0.8191-0.32003 1.0757-3.0832 1.247-1.4922 0.092-3.606 0.2416-4.6974 0.3313-1.4599 0.1201-2.0718 0.072-2.3151-0.1808zm32.001-0.027c-0.17462-0.1746-0.3175-0.508-0.3175-0.7408 0-0.9302 0.5534-1.0584 4.5682-1.0584 2.2053 0 4.1581 0.1204 4.445 0.2739 0.73923 0.3956 0.64656 1.2755-0.16691 1.5848-1.0085 0.3834-8.1356 0.3337-8.5288-0.06zm44.728 0.02c-0.1819-0.1856-0.33073-0.528-0.33073-0.7608 0-0.9634 0.51362-1.0584 5.7226-1.0584 4.2723 0 5.1542 0.067 5.5033 0.4158 0.52688 0.5269 0.52287 0.7534-0.0213 1.2055-0.61874 0.514-10.39 0.6918-10.874 0.1979zm-325.97-1.054c-0.45126-0.4664-0.41538-1.1719 0.085-1.6723 0.35057-0.3506 1.2551-0.4158 5.7679-0.4158 5.5059 0 5.9871 0.087 5.9871 1.0789 0 0.2441-0.14883 0.5648-0.33073 0.7127-0.1819 0.1478-2.7715 0.352-5.7547 0.4536-4.279 0.1458-5.4938 0.1126-5.7547-0.1571zm31.208-0.024c-0.17462-0.1747-0.3175-0.508-0.3175-0.7409 0-0.9532 0.52811-1.0583 5.3153-1.0583 4.0721 0 4.755 0.06 5.2549 0.4653 0.78995 0.6397 0.47218 1.2853-0.7305 1.4841-1.8478 0.3056-9.1822 0.1898-9.5222-0.1502zm16.14 0c-0.17463-0.1747-0.3175-0.508-0.3175-0.7409 0-0.9494 0.53282-1.0583 5.1799-1.0583 3.6998 0 4.6056 0.073 4.8715 0.3935 0.95982 1.1565-0.97451 1.7232-5.8823 1.7232-2.396 0-3.6363-0.1023-3.8516-0.3175zm32.156-0.065c-0.69255-0.3453-0.89543-1.076-0.44832-1.6147 0.25487-0.3071 1.1846-0.3842 4.6348-0.3842 2.3738 0 4.6214 0.1161 4.9947 0.258 0.72687 0.2764 0.90948 1.0794 0.34795 1.5302-0.48513 0.3895-8.8018 0.5733-9.5292 0.2107zm-93.791-0.1732c-0.1819-0.1892-0.33073-0.5438-0.33073-0.7879 0-0.9777 0.73882-1.1669 4.9369-1.2645 4.4122-0.1026 5.2366 0 5.4895 0.6548 0.31434 0.8192-0.32004 1.0758-3.0832 1.247-1.4922 0.092-3.606 0.2417-4.6974 0.3314-1.4599 0.1201-2.0718 0.072-2.3151-0.1808zm31.472-0.026c-0.17463-0.1746-0.3175-0.508-0.3175-0.7409 0-0.9301 0.55339-1.0583 4.5682-1.0583 2.2053 0 4.1581 0.1203 4.445 0.2739 0.73923 0.3956 0.64656 1.2755-0.16691 1.5847-1.0085 0.3835-8.1356 0.3338-8.5288-0.059zm45.257 0.02c-0.1819-0.1856-0.33073-0.5279-0.33073-0.7608 0-0.9633 0.51362-1.0583 5.7226-1.0583 4.2723 0 5.1542 0.067 5.5033 0.4158 0.52688 0.5269 0.52287 0.7534-0.0213 1.2055-0.61874 0.514-10.39 0.6918-10.874 0.1978zm406.12-1.0783c-0.79737-0.7973-6e-3 -1.9775 1.1343-1.6913 1.0992 0.2759 0.75984 2.0088-0.39344 2.0088-0.23284 0-0.56621-0.1428-0.74084-0.3175zm-11.112-1.3229c-0.79737-0.7973-6e-3 -1.9775 1.1343-1.6914 1.0992 0.2759 0.75984 2.0089-0.39344 2.0089-0.23284 0-0.56621-0.1428-0.74084-0.3175zm-159.67-4.3708c-0.40529-0.061-0.87041-0.3249-1.0336-0.5862s-0.49844-0.4224-0.74501-0.3579c-0.55258 0.1445-1.321-0.5822-1.321-1.2494 0-0.7311 2.816-4.3112 5.4045-6.8707 1.2476-1.2337 2.2685-2.3277 2.2685-2.4311s-1.5592-1.5821-3.4649-3.2859c-3.2175-2.8766-3.454-3.1524-3.3118-3.8634 0.0842-0.4211 7e-3 -0.9993-0.1712-1.285-0.23888-0.3825-0.24802-0.6411-0.0347-0.9814 0.60257-0.9613 1.245-0.6554 3.5312 1.6812 2.2216 2.2705 5.5892 5.1327 6.0392 5.1327 0.12917 0 1.9839-1.6669 4.1216-3.7042 2.3515-2.241 4.0965-3.7041 4.4178-3.7041 0.73879 0 0.95599 0.7375 0.34916 1.1855-0.39766 0.2936-0.43052 0.4329-0.16548 0.7017 0.49602 0.5029 0.4006 1.1888-0.26458 1.9019-1.8499 1.9832-5.0932 5.805-5.0932 6.0017 0 0.2091 3.1624 2.8179 6.2699 5.1721 1.0525 0.7975 1.2693 1.1187 1.4163 2.0987 0.3705 2.4707-0.41698 2.3088-3.5602-0.732-2.1277-2.0583-5.052-4.3985-5.052-4.0428 0 0.054 1.2394 1.1268 2.7543 2.384 1.5148 1.2572 2.8245 2.4689 2.9104 2.6927 0.27445 0.7152 0.16853 1.1573-0.27725 1.1573-0.4 0-4.6951-3.3069-6.608-5.0877l-0.82372-0.7668-1.3914 1.5382c-1.8727 2.0702-3.3936 4.4352-3.6045 5.6047-0.3375 1.8721-0.53334 2.0018-2.5602 1.6962zm-272.84-1.6617c-0.0899-0.1455-0.44713-0.2646-0.79375-0.2646-0.34663 0-0.69431-0.1036-0.77263-0.2304-0.0783-0.1267-0.49889-0.3017-0.9346-0.3888-2.0771-0.4154-1.0109-2.5391 3.7481-7.4655l2.8346-2.9344-1.2471-1.1849c-0.68591-0.6517-2.2889-2.1127-3.5622-3.2466-1.7045-1.5178-2.3151-2.2304-2.3151-2.7018 0-0.3521-0.14796-0.8771-0.3288-1.1666-0.24262-0.3885-0.25288-0.6476-0.0391-0.9886 0.52586-0.8389 1.2428-0.6691 2.4749 0.5863 0.64803 0.6603 1.3842 1.2005 1.6359 1.2005 0.2517 0 1.1496 0.7745 1.9954 1.7212 0.84579 0.9466 2.0537 2.0922 2.6843 2.5458l1.1465 0.8246 1.0985-1.0245c0.60416-0.5634 2.4305-2.3043 4.0586-3.8687 2.9338-2.819 3.8792-3.3572 4.2409-2.4146 0.0978 0.255-6e-3 0.5253-0.25568 0.665-0.30866 0.1727-0.38128 0.4773-0.27295 1.1449 0.16908 1.0419-0.28016 1.7128-3.5475 5.298-1.0594 1.1625-1.9262 2.1877-1.9262 2.2783 0 0.091 0.74414 0.647 1.6536 1.2366 0.9095 0.5896 2.6482 1.9385 3.8639 2.9975l2.2102 1.9256-0.17558 1.3236c-0.0966 0.728-0.235 1.4197-0.30762 1.5372-0.25823 0.4179-1.0086 0.2034-1.74-0.4973-0.59165-0.5668-0.74208-0.6205-0.74208-0.2646 0 0.9143-1.0121 0.3598-4.3524-2.3843l-3.4263-2.8149-1.3034 1.4338c-1.7828 1.961-3.3062 4.3452-3.5144 5.5002-0.0952 0.5283-0.28075 1.1689-0.41224 1.4236-0.25694 0.4976-1.4066 0.6338-1.6756 0.1984zm10.734-7.95c-1.0814-1.0118-2.1235-1.8396-2.3159-1.8396-0.34553 0 0.50775 0.8208 2.8268 2.7192 1.8707 1.5314 1.6384 1.1313-0.51088-0.8796zm124.89-37.592c-3.2861-0.5459-7.1393-1.7531-9.0191-2.8258-4.1723-2.3808-9.6878-6.4362-13.595-9.9959-1.5835-1.4428-3.8457-3.4121-5.0271-4.3763-2.179-1.7783-4.5797-4.4754-7.0889-7.9639-3.3898-4.7128-6.2139-7.9842-8.9933-10.418-4.2694-3.7382-7.482-8.068-10.095-13.606-1.684-3.5686-2.7037-4.9904-7.0072-9.7699-3.5033-3.8909-5.5421-5.6555-8.9177-7.7182-1.2166-0.7435-2.4382-1.5626-2.7148-1.8202-0.27658-0.2577-1.9215-2.5843-3.6554-5.1704-1.7339-2.586-3.6364-5.2488-4.2278-5.9173s-2.5243-3.1361-4.2952-5.4835c-3.7141-4.9231-6.262-7.4384-10.287-10.155-1.5749-1.0631-3.6374-2.5473-4.5833-3.2983-2.9858-2.3707-5.7972-4.1276-8.9672-5.6038-1.6892-0.7866-3.3733-1.5967-3.7425-1.8003-2.732-1.5063-10.209-3.0717-14.807-3.1-5.633-0.035-11.784 2.0881-20.77 7.1675-1.3097 0.7403-2.9766 1.5439-3.7042 1.7857-2.6446 0.8789-6.1757 3.2901-10.286 7.0235-1.3946 1.2668-3.4086 2.8924-4.4756 3.6124-1.067 0.7201-2.3378 1.7672-2.824 2.3269-0.48618 0.5598-3.2768 3.5241-6.2014 6.5873-2.9246 3.0632-5.9695 6.516-6.7665 7.6729-1.3942 2.0239-2.9817 4.1261-7.3605 9.7472-2.7313 3.5061-7.3633 7.8847-8.2294 7.7793-0.7367-0.09-1.2381-0.7518-1.0132-1.3379 0.0858-0.2236 1.249-1.2806 2.585-2.3488 3.1661-2.5316 7.2104-7.3997 12.827-15.44 0.7116-1.0187 2.7873-3.4059 4.6126-5.3051 1.8253-1.8991 4.6285-4.9183 6.2292-6.7092s3.6132-3.7364 4.4722-4.3234c1.6847-1.1511 4.15-3.1732 6.5699-5.3886 2.1451-1.9639 6.7516-4.9793 8.4359-5.5221 0.78327-0.2524 3.6268-1.5994 6.3189-2.9933 2.6921-1.3939 5.5608-2.8591 6.3748-3.256 3.9119-1.9075 9.1111-3.1471 13.2-3.1471 1.932 0 8.5735 1.0088 11.514 1.7488 3.322 0.8361 11.202 5.2348 18.244 10.183 8.2532 5.8001 9.3458 6.7782 12.602 11.28 1.9566 2.7053 5.2364 6.7932 6.2135 7.7442 0.37377 0.3639 2.1548 2.8889 3.9578 5.6112 2.6807 4.0475 3.464 5.0445 4.2978 5.4699 3.1233 1.5934 9.3864 7.1931 13.487 12.058 2.579 3.06 3.4149 4.391 5.0266 8.0036 1.8679 4.1869 3.7298 6.623 8.6313 11.293 3.927 3.7416 6.2418 6.4373 9.5546 11.127 1.9967 2.8265 4.1665 5.2358 6.7432 7.4873 10.464 9.143 12.232 10.541 16.666 13.18 5.9983 3.5703 8.2626 4.1113 17.899 4.2767 9.2437 0.1587 9.83 0.056 16.009-2.8134 2.5318-1.1756 5.139-2.443 5.7938-2.8165 0.65484-0.3735 2.175-1.1479 3.3782-1.7209 1.2032-0.5731 2.9631-1.5131 3.9109-2.0889 3.0908-1.8778 10.294-8.5349 14.327-13.241 2.807-3.2754 2.7262-3.1669 5.9118-7.9312 2.5878-3.8703 5.8375-7.6329 10.288-11.912 1.212-1.1654 6.7363-7.717 8.9321-10.593 0.60926-0.798 2.0062-3.0389 3.1044-4.9798s2.5309-4.2019 3.184-5.0244c0.65303-0.8225 2.224-2.8051 3.491-4.4058 1.267-1.6008 3.3839-4.112 4.7041-5.5805 3.6362-4.0445 6.4288-7.34 8.9481-10.559 4.577-5.8486 11.2-11.734 15.97-14.192 3.0745-1.5841 5.3047-2.9947 10.078-6.3745 1.3388-0.9478 3.498-2.2728 4.7983-2.9443 3.8716-1.9997 4.432-2.0678 16.164-1.9654l10.206 0.089 1.9844 0.7538c3.245 1.2328 6.6186 2.8859 10.907 5.3443 7.382 4.2321 9.8482 5.9858 12.906 9.1771 5.1768 5.4033 13.349 13.547 15.975 15.92 3.4814 3.1455 6.0262 6.0986 9.2452 10.728 1.4671 2.1101 4.2876 5.9859 6.2678 8.6131 3.6853 4.8893 5.4037 7.405 8.0485 11.783 1.4257 2.3599 3.3353 5.2525 6.1654 9.3392 0.69387 1.002 2.7522 3.4448 4.5741 5.4285 1.8219 1.9838 3.9164 4.3191 4.6545 5.1897 2.9912 3.5283 11.378 11.68 13.464 13.087 1.1642 0.7851 2.712 1.9165 3.4396 2.5141 0.72761 0.5977 1.8152 1.4013 2.4168 1.7858s1.9708 1.4338 3.0427 2.3318c1.0719 0.8981 2.4846 1.9032 3.1395 2.2336 2.26 1.1405 7.4869 2.7124 10.054 3.0237 1.3824 0.1676 3.3194 0.4197 4.3044 0.5603s4.4206 0.2557 7.6347 0.2557c6.2266 0 7.4982-0.1751 10.313-1.4199 1.3786-0.6097 8.5155-4.7875 10.689-6.257 0.58208-0.3936 1.9718-1.2708 3.0882-1.9493 3.198-1.9435 5.686-4.1269 8.6857-7.6221 1.528-1.7804 3.7306-4.2535 4.8948-5.496 2.8669-3.0596 4.1576-4.8072 6.6302-8.9772 2.5342-4.2738 3.5563-5.4762 6.1338-7.2155 1.0849-0.7321 3.1424-2.4804 4.5722-3.8851 2.4126-2.3702 2.7106-2.7817 4.1411-5.7191 1.6392-3.3659 2.2459-4.0537 2.8542-3.2355 0.27131 0.365 0.29179 0.7104 0.0863 1.4552-0.37495 1.3589-2.2137 4.9704-3.263 6.4091-0.90523 1.2411-5.583 5.5412-7.9569 7.3144-1.7782 1.3283-2.3048 1.9851-4.8537 6.0542-2.6259 4.192-4.1559 6.0544-12.735 15.502-2.8634 3.1533-7.8858 6.9508-15.056 11.384-8.1534 5.0413-9.5788 5.5149-17.173 5.7064-9.1198 0.2299-17.022-1.0909-23.942-4.0018-0.56692-0.2385-2.3368-1.4742-3.9331-2.7461-5.8246-4.6409-6.9721-5.5395-8.5299-6.68-2.6044-1.9067-5.461-4.4968-7.0355-6.379-0.81358-0.9726-2.319-2.5244-3.3454-3.4484-1.638-1.4747-4.475-4.6969-10.991-12.484-0.9861-1.1784-2.234-2.8015-2.7732-3.607-0.53916-0.8054-1.5524-2.2011-2.2517-3.1016s-1.8807-2.7459-2.6255-4.101c-1.9369-3.5244-5.546-8.7834-9.9504-14.499-1.0639-1.3808-2.9686-4.0473-4.2327-5.9255-2.8965-4.3039-7.604-9.4201-15.447-16.788-3.248-3.0513-6.519-6.3037-7.2689-7.2275-3.0374-3.742-6.8763-6.7807-14.007-11.087-5.0439-3.0462-7.063-3.9556-12.007-5.408l-2.5067-0.7364-9.6368 0.051c-5.3002 0.028-10.22 0.1619-10.933 0.297-2.0869 0.3958-5.6281 2.3319-11.239 6.145-2.8858 1.9611-6.1994 4.0332-7.3635 4.6046-1.1642 0.5715-3.1123 1.8455-4.3291 2.8313-2.7697 2.2437-9.0174 8.4967-11.803 11.812-1.1598 1.3808-3.5507 4.1774-5.313 6.2147s-4.08 4.8948-5.1505 6.35-2.8468 3.7607-3.9474 5.1234c-2.8183 3.4892-3.0463 3.8205-4.6751 6.7922-2.0709 3.7784-3.4876 5.5757-10.622 13.476-7.2138 7.9879-9.2841 10.475-11.637 13.979-4.8678 7.2508-11.74 14.571-18.591 19.802-3.1102 2.3749-4.0199 2.8927-13.675 7.7838-7.8343 3.9686-8.3638 4.0945-17.049 4.0536-4.9796-0.024-7.1377-0.1448-9.469-0.532zm41.293-65.318c-0.48643-0.115-1.0159-0.3406-1.1767-0.5013-0.16073-0.1607-0.44222-1.3193-0.62553-2.5746s-0.39241-2.3415-0.46467-2.4138c-0.36003-0.36-1.5747 0.3277-2.214 1.2535-1.2506 1.8112-2.2152 1.6576-2.7426-0.4367-0.16039-0.637-0.38222-1.2142-0.49296-1.2826-0.3144-0.1944-0.77665 1.1536-1.1372 3.316-0.30757 1.8447-0.37654 1.9822-1.0327 2.0588-1.123 0.1309-1.2906-0.5456-1.2088-4.8781 0.0634-3.3567 0.13553-3.9176 0.53627-4.17 0.59691-0.376 1.3558 0.065 1.4736 0.8571 0.10128 0.6808 0.25206 0.7049 0.87622 0.14 0.71352-0.6457 2.2708-0.2756 2.8127 0.6685l0.42316 0.7374 0.91518-0.6211c1.3261-0.8999 2.7785-0.8412 3.7721 0.1523 0.74076 0.7408 0.7734 0.8744 0.7734 3.1657 0 2.0936 0.0638 2.4265 0.51125 2.6659 0.66447 0.3557 0.94129 1.2544 0.53655 1.7421-0.17536 0.2113-0.39356 0.372-0.48488 0.3571-0.0913-0.015-0.56403-0.1212-1.0504-0.2362zm-53.914-0.3141c-0.10633-0.172-0.44234-1.1283-0.74668-2.125l-0.55336-1.8122-0.91875 0.6779c-1.946 1.4357-3.963 1.5077-5.5133 0.1968-1.1104-0.9389-1.3472-2.2554-0.7073-3.931 0.93609-2.4511 2.8569-3.9196 5.5392-4.2349 1.129-0.1327 1.4748-0.2764 1.4748-0.6131 0-1.0657 1.3666-1.4528 1.8619-0.5274 0.16692 0.3119 0.31428 2.162 0.34246 4.2995 0.0364 2.7587 0.18528 4.2535 0.56246 5.6461 0.42845 1.582 0.45542 1.9635 0.16362 2.3151-0.41074 0.495-1.2296 0.5538-1.505 0.1082zm-3.7757-4.9069c0.81223-0.4798 1.6472-1.9645 1.9602-3.4858l0.18528-0.9003-1.3622 0.1614c-1.7059 0.202-2.7485 0.93-3.2977 2.3026-0.52761 1.3186-0.52834 1.4464-0.0112 1.9635 0.54451 0.5445 1.5619 0.5278 2.5256-0.041zm29.058 4.9828c-1.3525-0.4383-1.7991-0.8377-2.2464-2.0091-0.56316-1.4746-0.3932-3.052 0.5238-4.8616 1.0341-2.0407 1.9203-2.6333 3.9613-2.649 1.6224-0.012 1.7484 0.033 2.5076 0.8974 0.953 1.0854 1.2181 2.2697 0.99214 4.4319-0.28599 2.7361-1.5423 4.1711-3.785 4.3232-0.70206 0.048-1.5811-0.012-1.9534-0.1328zm2.7579-2.6927c0.61458-0.4834 0.69714-0.7362 0.69714-2.1341 0-0.8721-0.12326-1.816-0.2739-2.0974-0.34998-0.654-1.6117-0.6765-2.1886-0.039-1.0652 1.177-1.6075 3.8182-0.92422 4.5015 0.49579 0.4958 1.9213 0.3734 2.6895-0.2309zm6.518 2.354c-2.7213-0.7736-3.4159-3.7188-1.5594-6.6119 1.1512-1.794 2.3937-2.7153 3.3427-2.4787 2.5242 0.6292 3.5169 1.9776 3.7075 5.036 0.15097 2.4222-0.17004 3.1999-1.5862 3.8427-1.2248 0.556-2.4588 0.623-3.9046 0.2119zm2.6104-2.3577c0.58691-0.63 0.92451-2.0489 0.66281-2.7859-0.24953-0.7026-1.1827-1.6891-1.5979-1.6891-0.58569 0-1.9399 2.1165-1.9399 3.0318 0 1.7382 1.7716 2.6275 2.875 1.4432zm-53.278 2.2826c-0.14552-0.053-0.59501-0.1697-0.99886-0.2589-1.0899-0.2407-2.7448-1.8725-3.2556-3.2101-0.77551-2.0306-0.1678-4.6289 1.4358-6.1391 1.0849-1.0216 3.1964-1.9073 4.5385-1.9036 4.0644 0.011 5.8066 3.9955 2.5524 5.8375-0.90425 0.5119-1.5742 0.6394-3.8092 0.7249-1.4916 0.057-2.712 0.1557-2.712 0.2192 0 0.063 0.1865 0.4761 0.41445 0.9169 0.57373 1.1094 1.9235 1.63 3.6628 1.4127 3.0408-0.3799 2.4206 1.8778-0.64686 2.3546-0.50429 0.078-1.036 0.099-1.1815 0.046zm2.9838-7.4341c1.2595-0.8822 0.46067-1.9702-1.4451-1.9684-1.3438 0-3.4784 1.3265-3.5147 2.1819-0.0171 0.4042 4.3461 0.2164 4.9598-0.2135zm28.88 6.8719c-0.23789-0.2866-0.38356-1.6063-0.46083-4.1747-0.0968-3.2176-0.0521-3.8061 0.31201-4.1083 0.5701-0.4732 1.6745-0.1698 1.8934 0.52 0.15686 0.4942 0.21728 0.5086 0.61686 0.147 0.44926-0.4066 2.3486-0.9424 3.3824-0.9542 0.3113 0 0.83316 0.2099 1.1597 0.4743 0.90298 0.7312 0.36196 1.5256-1.1554 1.6966-2.1052 0.2373-2.8627 1.2081-3.6249 4.6455-0.44228 1.9947-1.321 2.7205-2.1232 1.7538zm-39.135-0.5012c-0.20208-0.2435-0.37261-1.6672-0.45161-3.7703-0.14519-3.8651-0.38224-4.8802-1.31-5.6101-0.94426-0.7427-1.729-0.2943-2.6903 1.5373-1.025 1.9529-1.3682 3.0756-1.7368 5.6803-0.29019 2.0508-0.34005 2.1612-1.0115 2.2391-0.47264 0.055-0.78782-0.076-0.95274-0.3968-0.52384-1.018-1.0522-26.372-0.56188-26.963 0.41394-0.4987 1.1664-0.4692 1.7024 0.067 0.38492 0.385 0.41542 0.882 0.25052 4.0825-0.10326 2.0043-0.0997 6.1098 8e-3 9.1233l0.19566 5.4791 0.73028-1.161c0.87207-1.3865 1.7681-2.2257 2.5887-2.4244 1.7244-0.4176 3.7076 1.1952 4.4246 3.5982 0.49446 1.6572 0.58765 7.9653 0.1259 8.5217-0.41121 0.4955-0.89826 0.4943-1.311 0zm29.976-2.0053c-1.036-0.3143-1.8641-1.3228-2.0944-2.5507-0.43371-2.3118 1.6346-5.1635 4.0025-5.5186 0.67442-0.1012 1.2635-0.3178 1.3091-0.4815 0.24958-0.8963 1.4994-8.0484 1.7627-10.087 0.32891-2.5467 0.54252-3.0427 1.3105-3.0427 0.93453 0 1.0356 0.7798 0.77658 5.9918-0.23964 4.822-0.41726 5.8964-1.6468 9.9611-0.23424 0.7743-0.22498 1.3997 0.0405 2.7353 0.30714 1.5452 0.29735 1.7782-0.091 2.1666-0.33359 0.3336-0.54152 0.3681-0.89058 0.148-0.35107-0.2215-0.60949-0.1733-1.1283 0.2102-0.82786 0.6121-2.2297 0.8077-3.3507 0.4676zm2.8479-2.8163c0.13436-0.3534 0.24429-1.1705 0.24429-1.8159 0-1.0558-0.0624-1.1734-0.62283-1.1734-1.2165 0-2.6133 1.9446-2.1897 3.0485 0.19269 0.5021 1.1742 0.884 1.8308 0.7123 0.27125-0.071 0.60312-0.4181 0.73747-0.7715z"/></g></svg>
