<?xml version="1.0" encoding="UTF-8"?>
<!-- Created with Inkscape (http://www.inkscape.org/) -->
<svg width="432.03mm" height="203.4mm" version="1.1" viewBox="0 0 432.03 203.4" xml:space="preserve" xmlns="http://www.w3.org/2000/svg"><g transform="translate(1289.1 -262.74)"><path d="m-1255.3 465.93c-1.1641-0.10291-4.7955-0.55263-8.0698-0.99937-3.2742-0.44675-7.739-0.88257-9.9218-0.96849-8.5507-0.3366-11.302-0.96574-12.438-2.8444-0.5026-0.8312-0.5357-1.5367-0.712-15.159-0.5057-39.081-0.677-44.785-1.5181-50.535-0.1706-1.1664-0.275-12.039-0.2818-29.369-0.01-21.836-0.09-28.391-0.3944-31.75-0.7464-8.2406-0.4757-17.793 0.7796-27.507 0.2249-1.7407 0.409-4.8399 0.409-6.8871 0-3.5695 0.4861-8.7282 1.0861-11.526 0.1562-0.72812 0.5852-1.6818 0.9533-2.1194 1.2791-1.5201 1.5595-1.5705 8.7292-1.5679 6.2777 2e-3 11.218 0.36481 14.499 1.0638 0.7276 0.15503 5.371 0.38373 10.319 0.50822 4.9477 0.12448 9.8847 0.37009 10.971 0.5458 2.6424 0.42735 9.4994 0.20068 15.197-0.50237 9.5314-1.1762 12.557-1.3535 22.983-1.3468 11.487 7e-3 20.178 0.30689 26.917 0.92763 2.5466 0.23457 6.9519 0.50731 9.7896 0.60609l5.1594 0.17958 0.089 0.62583c0.049 0.34421-0.041 0.75497-0.1984 0.91281-0.4329 0.43294-0.3471 4.162 0.2388 10.368 0.2885 3.0559 0.5834 5.8862 0.6553 6.2894 0.09 0.50594-0.032 0.89538-0.3929 1.2568-1.0515 1.0515-1.9491 0.43771-2.2072-1.5094-0.3332-2.5142-0.9588-11.373-0.9605-13.602v-2.2733l-5.0933-0.18827c-2.8012-0.10354-5.748-0.31363-6.5484-0.46685-0.8855-0.16952-8.603-0.32965-19.712-0.40901-19-0.13574-21.842-0.0403-30.162 1.0131-7.4761 0.94648-11.312 1.1455-14.949 0.77563-1.819-0.185-7.1768-0.43357-11.906-0.5524-6.6952-0.16821-9.3897-0.34198-12.171-0.78487-4.1281-0.6574-17.299-1.0666-18.55-0.57631-0.5241 0.20529-0.7662 0.5692-1.0021 1.5059-0.6235 2.476-1.0783 6.7202-1.233 11.506-0.087 2.6921-0.3937 6.6807-0.6815 8.8635-0.6927 5.2545-1.0352 15.395-0.7282 21.564 0.646 12.983 0.7447 18.159 0.7545 39.555 0.01 19.207 0.08 23.632 0.4291 26.723 0.2968 2.6254 0.4891 8.2503 0.6603 19.315 0.1328 8.5857 0.352 17.337 0.487 19.447 0.1351 2.11 0.2544 8.0156 0.2653 13.124 0.013 5.8554 0.1243 9.5868 0.3026 10.098 0.2365 0.67842 0.4856 0.85663 1.5214 1.0887 2.0472 0.45864 4.9607 0.78816 9.7052 1.0977 4.053 0.26441 6.7357 0.55485 12.435 1.3463 1.0187 0.14145 2.8641 0.36869 4.1011 0.50496 3.1371 0.34564 17.998 0.31896 20.108-0.0361 1.1474-0.193 11.318-0.31856 30.559-0.37725 17.244-0.0526 29.584-0.19405 30.692-0.3518 1.0187-0.1451 3.3999-0.40406 5.2917-0.57547s3.4604-0.32949 3.4859-0.35129c0.025-0.0218-0.1216-0.75304-0.3266-1.625-0.2782-1.1827-0.374-3.6717-0.377-9.8006 0-8.6354 0.024-8.8503 1.1864-8.8503 1.1494 0 1.1907 0.27165 1.1907 7.8349 0 7.394 0.2006 9.4657 1.2368 12.774 0.4386 1.4003 0.4366 1.4354-0.1096 1.8777-0.4353 0.35243-1.3257 0.48535-4.0831 0.6095-1.9395 0.0873-4.4789 0.28257-5.6431 0.43388-3.7165 0.48303-31.238 0.81179-43.76 0.52273-8.1744-0.18872-12.441-0.18153-14.817 0.025-1.835 0.1595-4.5865 0.39706-6.1145 0.5279-3.2055 0.27448-15.002 0.27174-18.124-4e-3zm377.73-13.978c-0.33128-0.33128-0.54681-1.0762-0.66978-2.3151-0.37005-3.728-1.5466-11.195-2.2993-14.593-0.42716-1.9282-0.98482-4.9953-1.2392-6.816-0.3726-2.6663-0.55266-3.3389-0.92561-3.4574-0.59739-0.18989-0.65069-1.9082-0.0661-2.1325 0.21829-0.0838 0.39688-0.37768 0.39688-0.65316 0-0.27547 0.0893-0.51347 0.19844-0.52889 1.8102-0.2557 5.065-0.15095 6.1023 0.19639 2.4155 0.80888 4.1886 2.7901 4.8081 5.3725 0.7635 3.1826-1.6733 5.7647-5.9102 6.2626-1.2166 0.14299-1.4817 0.25902-1.3775 0.60294 0.45928 1.5171 1.8122 8.8306 2.5419 13.741 0.53612 3.6075 0.54102 3.8142 0.10183 4.2995-0.57849 0.63923-1.0378 0.64512-1.6616 0.0213zm1.9872-21.998c1.4412-0.63096 1.7823-1.2727 1.4105-2.6534-0.58398-2.1687-2.5898-3.5971-4.7613-3.3907l-0.92604 0.088 0.0287 1.4552c0.0158 0.80037 0.17732 2.33 0.35899 3.3992l0.3303 1.944 1.2285-0.17996c0.67568-0.099 1.7243-0.39705 2.3304-0.66238zm-330.64 22.038c-0.2182-0.0784-0.9624-0.49818-1.6536-0.93274-0.9449-0.59406-1.2568-0.9517-1.2568-1.4414 0-1.6404 1.1642-2.1598 2.4949-1.1131 0.9701 0.7631 2.6779 0.55577 3.524-0.42783 0.5031-0.58487 0.5957-1.0003 0.5957-2.6715 0-1.8745-0.027-1.9645-0.5118-1.705-0.2814 0.15064-1.0462 0.27389-1.6994 0.27389-2.101 0-3.0984-1.5242-3.4859-5.3272-0.242-2.375-0.056-2.8749 1.0669-2.8749 1.0183 0 1.0603 0.0802 1.432 2.7301 0.4599 3.2791 1.6589 3.4921 2.6914 0.47805 0.5193-1.5161 1.5403-2.0478 2.3247-1.2107 0.9797 1.0456 1.473 8.7503 0.6816 10.645-0.9988 2.3911-4.2645 4.2743-6.2037 3.5774zm-45.067-1.8441c-0.6268-0.62677 0.6101-5.0958 2.5874-9.3486 0.7781-1.6735 2.142-4.8882 3.0309-7.1438 1.9794-5.023 2.4366-5.8208 3.3352-5.8208 0.4485 0 0.7654 0.20719 0.9556 0.62468 0.2333 0.51197 0.1412 0.95356-0.5106 2.4474-0.4374 1.0025-1.4564 3.4416-2.2645 5.4201-0.8082 1.9786-1.9546 4.598-2.5478 5.8208-0.5931 1.2229-1.4463 3.414-1.896 4.8693-0.4496 1.4552-0.9359 2.7947-1.0807 2.9766-0.2793 0.35102-1.3137 0.4502-1.6095 0.15434zm-5.1798-4.1825c-2.2422-1.1774-4.5086-3.1048-5.2038-4.4253-0.2069-0.39295-0.3761-1.143-0.3761-1.6668 0-1.7348 0.6903-2.5638 5.9253-7.1161 1.6703-1.4524 2.8403-2.2766 3.2319-2.2766 0.6741 0 1.2454 0.79655 1.0104 1.4089-0.082 0.21389-1.3021 1.4042-2.7111 2.6452-1.4089 1.241-3.1484 2.8562-3.8653 3.5895-1.1657 1.1922-1.2735 1.3994-1.0184 1.9591 0.4738 1.0399 2.7307 2.8568 4.9706 4.0014 2.1896 1.119 2.6953 1.8078 1.9695 2.6824-0.5314 0.64022-1.6032 0.42177-3.933-0.80161zm16.314-0.95394c-0.5714-0.33282-0.6123-1.6438-0.068-2.1878 0.3269-0.32693 0.4206-1.863 0.546-8.9486 0.083-4.7046 0.2055-8.8218 0.2718-9.1492 0.1587-0.78396 1.5466-0.84332 1.9532-0.0835 0.162 0.30276 0.2739 2.626 0.2739 5.6885v5.1768h0.9689c2.3617 0 4.8442 2.7381 4.8494 5.3486 0 2.5152-2.7531 4.4402-6.3475 4.4303-1.0914-3e-3 -2.1927-0.12681-2.4474-0.27514zm5.0514-3.0963c0.4863-0.22301 0.9456-0.56559 1.0207-0.76127 0.4904-1.2778-1.6969-3.7271-2.7332-3.0606-0.1645 0.10582-0.3857 1.1802-0.4916 2.3874l-0.1925 2.195 0.7562-0.17758c0.4159-0.0977 1.1541-0.36005 1.6404-0.58307zm7.8848 2.859c-2.6314-0.83577-3.3862-4.2658-1.5318-6.961 1.0639-1.5464 3.2878-3.0992 4.4385-3.0992 1.0844 0 3.3715 2.0014 3.8118 3.3358 0.6745 2.0436-0.4104 4.7529-2.3938 5.9779-1.3005 0.80333-3.1441 1.1216-4.3247 0.74657zm2.7477-3.0875c1.0012-0.66666 1.3156-1.1729 1.3156-2.1182 0-0.94266-0.8328-1.9441-1.6168-1.9441-0.2522 0-0.8846 0.49768-1.4053 1.106-1.1558 1.3503-1.3116 2.7332-0.3513 3.1191 0.8847 0.35563 1.3324 0.32023 2.0578-0.16276zm29.15 2.7639c-0.7245-0.72443-0.3313-1.5937 1.6668-3.6851 1.0915-1.1424 1.9844-2.3083 1.9844-2.5911 0-0.33637-1.4218-1.7278-4.1137-4.0259-3.7974-3.2418-4.1077-3.5738-4.0349-4.3175 0.064-0.65801 0.2119-0.82096 0.8052-0.88924 0.5851-0.0673 1.254 0.36009 3.4396 2.198 5.1085 4.2959 5.5324 4.7028 6.0866 5.8435 0.8539 1.7575 0.4057 2.8681-2.259 5.5982-2.1204 2.1723-2.8765 2.5676-3.575 1.8691zm-16.674-1.1365c-0.2982-0.37907-0.5855-0.81937-0.6385-0.97846-0.067-0.20079-0.293-0.18407-0.739 0.0547-1.8378 0.98352-3.758 0.76252-4.8714-0.56065-1.3768-1.6362-0.5968-5.1818 1.4382-6.5379 0.7307-0.48691 1.2089-0.59901 2.2665-0.53131l1.3405 0.0858 0.5833-3.0427c0.3208-1.6735 0.8487-3.5785 1.173-4.2333 0.5022-1.0137 0.7073-1.1906 1.38-1.1906 0.6169 0 0.8736 0.17391 1.1703 0.79298 0.6366 1.3284 0 5.8358-1.6077 11.421-0.2881 0.99959-0.254 1.2416 0.3693 2.6193 0.8261 1.8259 0.6792 2.5891-0.5216 2.71-0.6049 0.0609-0.9333-0.0879-1.3429-0.60859zm-2.8515-3.3452c0.5992-0.27303 1.4804-1.6362 1.4804-2.2901 0-0.28861-0.6189-0.58364-1.2243-0.58364-0.213 0-0.6795 0.29225-1.0367 0.64943-0.698 0.69802-0.8908 2.1195-0.3187 2.3503 0.1819 0.0734 0.3549 0.14285 0.3844 0.15434 0.03 0.0115 0.3512-0.11467 0.7149-0.28035zm232.03 3.4998c-1.8343-0.46248-3.5597-1.9675-4.6053-4.0171-0.91012-1.784-0.5784-2.8856 0.8689-2.8856 0.63575 0 0.91337 0.25992 1.8169 1.701 0.58659 0.93556 1.352 1.8881 1.7009 2.1167 1.4585 0.95562 4.0516 0.21208 5.0096-1.4364 0.45028-0.77481 0.5336-1.3581 0.51019-3.5719-0.0234-2.2143-0.22837-3.4392-1.2568-7.5102-0.67584-2.6754-1.2288-4.9589-1.2288-5.0743 0-0.11546 0.20836-0.41855 0.46302-0.67354 0.44107-0.44163 0.43166-0.45509-0.19843-0.28393-1.4513 0.39426-5.8342 0.83523-8.3344 0.83854l-2.6458 4e-3v-0.92604c0-1.0554-0.69279-0.86861 6.35-1.7121 1.8918-0.22656 5.285-0.87268 7.5406-1.4358 6.6052-1.6491 8.2021-1.6801 8.2021-0.15941 0 0.89184-0.59795 1.2296-2.5772 1.4556-1.9243 0.21977-2.7109 0.37947-4.5665 0.92713-0.65485 0.19326-1.6669 0.43844-2.249 0.54484-0.94923 0.17351-0.99015 0.21089-0.39688 0.36258 0.74244 0.18982 0.66227-0.0282 2.3895 6.4994 1.4634 5.5304 1.7193 9.28 0.78211 11.459-0.68868 1.6009-2.1691 3.0013-3.6326 3.4364-1.4956 0.44461-3.0133 0.57632-3.9421 0.34213zm25.657-4.1907c-0.64797-0.69122-1.4826-1.6437-1.8548-2.1167-0.37216-0.47295-0.75182-0.8567-0.84369-0.85278-0.0919 4e-3 -0.46413 0.4885-0.82725 1.0769-1.3677 2.2161-3.7261 2.8084-6.2186 1.5618-1.6314-0.81594-2.5146-2.0621-2.5122-3.5448 2e-3 -1.2578 0.54021-2.1803 2.0011-3.4301 1.8851-1.6127 3.0644-2.2855 4.0061-2.2855 0.49941 0 1.0866-0.1786 1.3049-0.39688 1.0759-1.0759 2.3711-0.11642 3.4054 2.5226 0.77994 1.9902 1.4172 2.9962 3.2622 5.1503 1.414 1.6508 1.6543 2.4504 0.94867 3.1561-0.70467 0.70467-1.4398 0.47329-2.6718-0.841zm-6.2354-3.0427c1.171-1.2474 2.0705-4.1407 1.4136-4.5467-0.8288-0.51222-4.7906 2.5597-4.7906 3.7146 0 1.2804 2.4008 1.872 3.377 0.83214zm13.424 2.0358c-0.43656-0.22457-2.0737-1.6803-3.638-3.235-2.1947-2.1812-2.8443-2.9874-2.8443-3.5305 0-0.6916 0.40856-1.025 1.256-1.025 0.23045 0 1.7673 1.3175 3.4152 2.9277 1.8055 1.7642 3.1174 2.8528 3.3012 2.7392 0.21824-0.13488 0.26371-1.2333 0.15974-3.8596-0.15756-3.9801-0.0251-4.4532 1.247-4.4532 1.1645 0 1.3364 0.59217 1.3364 4.6044 0 4.1425-0.23386 5.0831-1.4411 5.7962-0.93865 0.55448-1.7633 0.56504-2.7922 0.0357zm18.056-4.1811-1.976-1.4177-0.69942 0.87656c-1.2956 1.6238-3.5563 1.6779-5.0481 0.12076-1.0994-1.1475-1.1846-2.7549-0.29992-5.6554 0.60744-1.9915 0.78883-2.3125 1.3923-2.464 0.38842-0.0975 0.91394-0.0367 1.1938 0.13811 0.275 0.17173 0.62099 0.23747 0.76886 0.14608 0.64984-0.40162 1.5235 0.20818 2.4509 1.7108 0.95698 1.5504 3.8194 4.4132 5.2688 5.2693 0.9526 0.56272 1.1994 1.4893 0.57917 2.1746-0.73766 0.81511-1.5065 0.62468-3.6305-0.89918zm-4.7146-3.1788c-0.0112-0.3096-0.16927-1.0392-0.35131-1.6212l-0.33098-1.0583-0.35018 1.5121c-0.2853 1.232-0.28724 1.588-0.0105 1.9215 0.43481 0.52392 1.0724 0.0629 1.0429-0.75405zm13.185 3.8924c-0.97916-0.29975-1.2935-0.53565-1.428-1.0717-0.28902-1.1515 0.1806-1.5295 1.9232-1.548 2.2781-0.0242 2.4328-0.0621 2.762-0.6772 0.48625-0.90858-0.37026-1.4629-3.6866-2.386-3.5584-0.99042-4.5328-1.6523-4.5328-3.0791 0-1.844 1.8694-3.5416 4.3417-3.9428 1.1201-0.18177 1.7437 0.2301 1.7437 1.1516 0 0.49587-0.22652 0.7328-0.99219 1.0378-2.7483 1.0948-2.807 1.3988-0.39688 2.055 4.6698 1.2715 5.5136 1.7602 6.26 3.6256 0.7773 1.9427-0.24978 3.9036-2.5473 4.8633-1.1694 0.48848-1.7743 0.48347-3.4468-0.0285zm23.017-0.87929c-0.36708-0.28874-0.73568-0.79698-0.81911-1.1294-0.37834-1.5074-2.0244-10.56-2.0244-11.134 0-0.91714 0.64814-1.3861 1.426-1.0317 0.60427 0.27533 1.2199 1.901 1.2199 3.2214 0 0.75873 0.43735 0.68157 0.6366-0.11231 0.23278-0.9275 1.7118-2.5317 2.7242-2.9547 1.8796-0.78534 4.3121-0.29487 4.3121 0.86946 0 0.9829-0.53005 1.4189-1.7249 1.4189-0.91742 0-1.3614 0.16462-2.0122 0.74608l-0.835 0.74608 0.088 8.3243-0.7803 0.7803c-0.91849 0.9185-1.3102 0.96373-2.2108 0.25533zm12.77-0.92601c-0.17923-0.21597-0.43366-1.3561-0.5654-2.5336-0.13174-1.1775-0.47592-3.2022-0.76485-4.4993-0.60479-2.7151-0.65476-3.7162-0.20783-4.1632 0.41956-0.41956 1.1338-0.40347 1.4967 0.0337 0.42662 0.51405 2.123 8.5341 2.1462 10.147 0.0168 1.1621-1.4113 1.851-2.1048 1.0153zm-23.303-0.23308c-1.3087-0.35289-2.3594-1.0169-3.4727-2.1944-1.8412-1.9474-1.7135-4.7523 0.3219-7.0705 1.1996-1.3663 2.6218-2.023 4.7714-2.2032 1.9995-0.16763 2.6289 0.094 2.6289 1.093 0 0.82116-0.49702 1.2111-1.5436 1.2111-2.2184 0-4.2786 1.3344-4.7846 3.0991-0.48023 1.6744 1.4692 3.3723 4.25 3.7017 1.4194 0.16812 2.0782 0.61231 2.0782 1.4013 0 1.2686-1.6919 1.6515-4.2495 0.96177zm-269.21-2.0611c-3.3193-1.7193-6.5056-3.8014-8.1253-5.3098-1.0337-0.9626-1.2532-1.3285-1.2454-2.0761 0.013-1.2305 0.1591-1.4521 4.0787-6.173 3.4406-4.1441 4.0457-4.6189 4.8548-3.8097 0.6223 0.62232 0.284 1.2608-2.3283 4.3933-1.4552 1.745-2.6459 3.2626-2.6459 3.3725 0 0.10989 3.304 0.0923 7.3422-0.0392 4.0382-0.13143 30.976-0.23896 59.862-0.23896s52.654-0.0873 52.818-0.19406c0.4543-0.29548 11.217-0.71507 25.631-0.99917 16.307-0.32142 22.034-0.62976 26.723-1.4386 4.7626-0.82159 8.7388-1.1083 9.2689-0.6684 0.4866 0.40388 0.504 1.4197 0.031 1.8123-0.1965 0.16315-0.8811 0.35538-1.5213 0.42717-0.6402 0.0718-2.295 0.25812-3.6775 0.41406-1.3824 0.15594-3.466 0.46179-4.6302 0.67967-2.7005 0.50542-9.7863 0.80842-26.855 1.1484-15.35 0.30572-64.874 0.74748-104.78 0.93462-14.625 0.0686-29.965 0.21588-34.09 0.32731l-7.4994 0.2026 2.8692 1.9331c1.578 1.0632 4.0003 2.5515 5.3827 3.3073 2.5938 1.4181 3.1169 2.0753 2.3692 2.9763-0.5029 0.60596-1.0345 0.46997-3.837-0.98158zm316.98-0.11053c-1.209-0.62877-1.8593-1.3389-2.7295-2.9804-0.70865-1.3368-1.5744-3.881-2.0179-5.9301-0.15488-0.71556-0.19053-0.7276-2.1542-0.7276-2.2683 0-3.0203-0.28557-3.0203-1.147 0-0.99297 0.50266-1.2342 2.5715-1.2342 1.8694 0 1.9321-0.0206 1.8099-0.59531-1.3046-6.1326-1.2138-7.4025 0.49841-6.9727 0.50154 0.12588 0.69393 0.39396 0.82819 1.154 0.46889 2.6545 1.1244 5.6616 1.2647 5.8019 0.0863 0.0863 1.2393-0.12221 2.5623-0.46329 1.7785-0.45851 2.5217-0.5474 2.8514-0.34102 0.55813 0.34936 0.71935 1.5032 0.26088 1.867-0.4495 0.35671-2.6976 1.0554-4.0828 1.2688l-1.0929 0.16842 0.51408 2.0068c0.63889 2.4939 1.8567 4.9502 2.7419 5.5302 0.83202 0.54516 1.7214 0.21945 2.403-0.87999 0.92303-1.489 1.6183-1.7335 2.4799-0.87195 0.7439 0.7439 0.67302 1.0934-0.53049 2.616-1.6532 2.0914-3.3618 2.6646-5.158 1.7304zm-26.921-12.041c-0.58723-0.34202-0.6188-1.7145-0.0445-1.9349 0.75645-0.29028 1.1509-0.16955 1.5786 0.48312 0.77186 1.178-0.28572 2.1788-1.5341 1.4518zm-325.46-1.7427c-0.4363-0.43631-0.059-1.7055 1.5063-5.0705 0.9254-1.9892 2.0751-4.6287 2.5548-5.8656 0.4798-1.2369 1.3795-3.4991 1.9994-5.0271 0.6199-1.528 1.0843-2.821 1.0319-2.8734-0.052-0.0524-0.8639 0.18036-1.8035 0.51733-2.007 0.71981-2.6407 0.48612-2.5022-0.92284 0.074-0.7555 0.2323-0.86835 2.3286-1.6629 1.2369-0.46881 2.6657-0.85792 3.175-0.86469 2.0758-0.0276 3.3222 1.5734 4.4136 5.6693 0.5587 2.0966 0.3494 2.6508-1.0008 2.6508-0.8634 0-0.9166-0.061-1.499-1.7198-0.3321-0.94588-0.6672-1.8961-0.7447-2.1115-0.1632-0.45349-0.6453 0.55713-2.3955 5.0219-0.6561 1.6735-2.1601 5.1561-3.3424 7.7391-1.9932 4.3548-2.2003 4.6964-2.8473 4.6964-0.3838 0-0.7772-0.0794-0.8742-0.17639zm-12.442-1.1943c-0.6738-0.37709-0.612-12.611 0.098-19.398 0.2892-2.7641 0.5235-5.2049 0.5207-5.424 0-0.21906-0.3632 0.17228-0.8011 0.86964s-0.9621 1.3316-1.165 1.4094c-0.6285 0.24121-1.4684-0.39474-1.4684-1.1119 0-1.3073 2.9412-5.2402 4.5509-6.0852 1.0386-0.54523 1.7432-0.46266 2.4366 0.28556 0.7067 0.76255 3.4539 8.4278 3.2297 9.0118-0.082 0.21246-0.4487 0.52322-0.816 0.69057-0.999 0.45515-1.5463-0.20773-2.5704-3.1132l-0.8777-2.4899-0.5965 4.5654c-0.4437 3.396-0.6332 6.4968-0.7397 12.106-0.079 4.1473-0.1961 7.7943-0.2605 8.1043-0.1345 0.64649-0.9037 0.93566-1.5407 0.57919zm-14.672-2.9352c-0.1539-0.1854-0.5233-1.7878-0.8209-3.5609-0.3825-2.2789-0.9349-4.2546-1.8846-6.7405-0.739-1.9342-1.4415-3.6156-1.5613-3.7365-0.1198-0.12091-0.3644 0.41487-0.5436 1.1906-0.4285 1.8545-0.9451 2.6557-1.6451 2.5512-1.0124-0.15117-1.1633-0.81386-0.6979-3.0647 0.472-2.283 1.8796-5.5576 2.4894-5.7916 0.6325-0.24268 2.801 0.41563 4.0852 1.2402 1.3382 0.85921 3.4396 3.3969 3.4396 4.1537 0 0.68794-0.5108 1.1305-1.3097 1.1347-0.4847 3e-3 -1.0713-0.42582-2.0832-1.5214-1.6138-1.7473-1.6131-1.7105 0.056 2.811 1.5798 4.2796 2.7635 10.207 2.2382 11.208-0.2828 0.53887-1.3559 0.61555-1.7622 0.12592zm289.6-0.67709c-0.58601-0.68416-0.65279-0.97825-1.9163-8.4389-1.4183-8.3751-1.4383-8.7302-0.50391-8.9647 0.43251-0.10855 0.81634-0.0375 1.0443 0.1934 0.27387 0.27735 1.976 8.729 1.976 9.8115 0 0.10996 0.54549-0.18458 1.2122-0.65452 1.0003-0.70511 1.4594-0.85445 2.6264-0.85445 2.4866 0 3.978 1.7164 3.7372 4.3011-0.2947 3.163-2.064 4.6702-5.7688 4.914-1.6781 0.11048-2.0948 0.0573-2.4072-0.30742zm4.7673-3.3573c1.1666-1.3426 0.5502-3.3077-0.86909-2.7706-0.863 0.32657-1.2699 1.007-1.4523 2.4285l-0.1705 1.329 0.94828-0.15085c0.5535-0.0881 1.1961-0.43609 1.5436-0.836zm35.309 3.5248c-0.17462-0.17462-0.3175-0.64669-0.3175-1.049 0-0.90072 0.71449-1.3348 1.8298-1.1118 1.9528 0.39057 2.364-1.1763 1.7401-6.6308l-0.4713-4.12h-1.6286c-1.7575 0-2.2636-0.27953-2.2636-1.2501 0-0.75886 0.86032-1.1312 2.614-1.1312h1.2566l0.30034-2.8725c0.4878-4.6653 1.7058-7.164 4.0654-8.3398 1.8225-0.90819 3.048-0.92253 3.45-0.0403 0.37969 0.83333 0.0108 1.3203-1.3225 1.746-2.2236 0.70996-3.366 2.8786-3.6996 7.0232l-0.19991 2.4834h1.742c1.8453 0 2.377 0.26637 2.377 1.1906 0 0.92434-0.53176 1.1906-2.3777 1.1906h-1.7427l0.18695 2.0505c0.10283 1.1278 0.30774 3.0707 0.45537 4.3176 0.40743 3.4414-0.265 5.5265-2.0859 6.4681-0.91173 0.47147-3.4628 0.52068-3.9081 0.0754zm-60.677-1.2716c-2.3151-1.2233-3.0638-3.6192-1.7433-5.5786 1.2165-1.8051 5.9821-3.4009 7.8482-2.6279 0.46913 0.19432 0.95994 0.63468 1.0907 0.97859 0.13075 0.3439 0.81434 1.4862 1.5191 2.5384 1.5968 2.384 1.6913 2.6456 1.2064 3.3379-0.58809 0.83962-1.6822 0.72848-2.4889-0.25283l-0.67179-0.81714-1.1812 1.1812c-1.7509 1.7509-3.7655 2.1989-5.5792 1.2405zm2.922-2.5003c0.85166-0.44041 1.683-1.9835 1.5606-2.8966-0.0809-0.6035-0.11269-0.61029-1.3615-0.2909-2.4473 0.62592-3.583 2.2163-2.2495 3.1503 0.74489 0.52174 1.1009 0.5282 2.0504 0.0372zm29.027 0.58366c-0.5446-0.86072-0.95845-3.1205-0.95845-5.2335 0-1.7382 0.0348-1.8427 0.6649-2.0009 0.9133-0.22922 1.4518 0.29863 1.4518 1.4231 0 0.51533 0.20411 2.0017 0.45358 3.3031 0.44094 2.3002 0.43953 2.3764-0.0506 2.7348-0.71126 0.52009-1.1269 0.45974-1.5612-0.22667zm6.1194-0.72265c-0.77266-0.60777-1.3947-2.0209-1.6557-3.7612-0.13277-0.88539-0.32214-1.2592-0.6861-1.3544-0.54058-0.14136-0.71523-1.3414-0.23813-1.6362 0.14982-0.0926 0.26458-1.3962 0.26458-3.0054 0-2.986 0.16811-3.4769 1.1906-3.4769 0.92146 0 1.1904 0.53304 1.1947 2.368 5e-3 2.3331 0.14128 2.5064 1.5693 2.0026 1.6689-0.58882 2.3527-0.52057 2.7133 0.2708 0.40985 0.89953-0.19799 1.4585-2.2615 2.0797l-1.5468 0.46565 0.17386 0.97066c0.40617 2.2677 0.69185 2.9898 1.1484 2.9023 0.2466-0.0472 0.68648-0.53479 0.97753-1.0835 0.58176-1.0968 1.372-1.4498 2.2243-0.99366 0.37212 0.19915 0.55381 0.55546 0.55381 1.0861 0 0.90321-1.015 2.6502-1.8999 3.27-0.86101 0.60308-2.8952 0.54591-3.7222-0.10461zm15.304-1.4674c-1.0767-0.5615-1.4621-1.1613-1.4718-2.2906-0.0113-1.3108 0.35942-2.2021 1.5992-3.8446l1.0416-1.38 3.303 0.1142 0.72184 1.3229c0.89075 1.6325 0.90413 2.2697 0.0846 4.03-1.0356 2.2244-3.2746 3.0931-5.2785 2.0482zm2.7193-3.0538c0.36938-0.66122 0.2529-2.1005-0.16967-2.0965-0.26553 2e-3 -1.2889 1.5802-1.5135 2.3332-0.16478 0.55263-0.10781 0.60647 0.55997 0.52917 0.46717-0.0541 0.88451-0.33865 1.1232-0.76584zm-248.67 0.95184c-0.7018-0.84565 0.4828-49.011 1.2354-50.228 0.1066-0.17246 0.2578-3.8008 0.336-8.063 0.1192-6.493 0.2066-7.7901 0.5391-8 0.5516-0.34822 1.4205-0.31979 1.7992 0.0589 0.4643 0.46439 0.4161 11.382-0.071 15.986-0.4441 4.2014-0.8629 11.526-1.2158 21.267-0.1344 3.7108-0.3585 9.4258-0.498 12.7-0.1394 3.2742-0.2593 8.2213-0.2664 10.993-0.013 5.1778-0.1088 5.6753-1.0916 5.6753-0.2442 0-0.5893-0.17523-0.7671-0.38941zm222.97-3.6005c-0.58723-0.34202-0.6188-1.7145-0.0445-1.9349 0.75645-0.29028 1.1509-0.16955 1.5786 0.48312 0.77186 1.178-0.28572 2.1788-1.5341 1.4518zm-246.66-23.706c-1.7695-0.22379-2.9514-0.88976-4.2524-2.3963l-1.3038-1.5098v-3.5795c0-5.1786 0.5905-15.53 1.2004-21.042 0.7136-6.4486 1.048-10.294 1.0483-12.052 2e-4 -1.6282 0.2992-2.1034 1.3231-2.1034 0.3784 0 0.8308 0.14287 1.0055 0.3175 0.5039 0.50397 0.4253 21.635-0.1144 30.711-0.2403 4.0418-0.3891 7.3966-0.3306 7.455 0.058 0.0585 2.1291 0.30849 4.6015 0.55564s4.6442 0.56812 4.8261 0.71328c0.4634 0.36982 0.4119 1.6814-0.097 2.4574-0.4194 0.64006-0.4893 0.65142-3.7703 0.61251-1.8387-0.0218-3.7002-0.0848-4.1368-0.14003zm119.67-0.23156c-1.1175-0.60651-2.0595-2.4382-2.0595-4.0047 0-3.1313 3.2801-5.2979 5.7451-3.7949 0.4676 0.28514 0.9184 0.40819 1.0017 0.27344 0.083-0.13476 0.7531-3.0142 1.4885-6.3988 1.4379-6.6184 1.847-7.6243 3.1009-7.6243 1.1182 0 1.8966 0.72856 2.721 2.5468 0.8512 1.8773 0.978 3.1336 0.341 3.3781-0.9335 0.35821-1.4289 0.14516-1.929-0.82961l-0.508-0.99022-0.2726 1.0564c-0.15 0.581-0.5868 2.5446-0.9707 4.3636-0.8431 3.9951-1.314 5.4366-2.8712 8.7898-0.9189 1.9788-1.3971 2.6957-2.0731 3.1079-1.033 0.62974-2.6833 0.68596-3.7141 0.12651zm-198.92-1.5904c-0.6771-0.81596-1.0735-8.1478-1.2193-22.553-0.078-7.7569-0.066-14.513 0.028-15.013 0.1267-0.67508 0.339-0.95178 0.824-1.0735 0.3593-0.0902 0.8197-0.0258 1.0231 0.14301 0.2533 0.21019 0.424 0.21951 0.5414 0.0296 0.2886-0.46694 1.4261-0.31181 1.7184 0.23434 0.174 0.32508 0.2739 3.9204 0.2737 9.8557l-1e-4 9.344 5.0934-0.0916c2.8013-0.0504 5.5696-0.17228 6.1517-0.27087l1.0583-0.17926 0.1698-1.5812c0.093-0.86967 0.1826-5.4659 0.1984-10.214 0.022-6.5624 0.108-8.6953 0.3594-8.8936 0.5538-0.43677 2.5988-0.64667 3.0062-0.30856 0.2994 0.2485 0.3673 1.8783 0.3673 8.8189 0 8.1338 0.2826 14.184 1.2157 26.024 0.3241 4.1125 0.3505 5.4533 0.113 5.7395-0.4486 0.54051-3.3113 0.46777-3.7985-0.0965-0.2022-0.23411-0.5823-1.021-0.8448-1.7486-0.3929-1.0892-0.4973-2.415-0.5909-7.505l-0.1136-6.1821-0.967 0.15992c-0.5319 0.088-3.3185 0.16123-6.1926 0.16283l-5.2255 3e-3 0.01 2.0505c0 1.1278 0.1848 3.3602 0.4044 4.9609 0.9338 6.8081 0.9647 7.3099 0.4825 7.8427-0.4833 0.53408-1.2915 0.65108-1.5548 0.22509-0.1022-0.16528-0.3164-0.115-0.5637 0.1323-0.5183 0.51833-1.5266 0.51048-1.963-0.0153zm18.187-8.3667c-0.084-0.21107-0.1471-0.14837-0.1598 0.15985-0.012 0.27892 0.051 0.43519 0.1389 0.34727 0.088-0.0879 0.097-0.31612 0.021-0.50712zm43.569 7.264c-0.1723-0.6866 0.123-5.0486 0.6944-10.257 0.299-2.7259 0.4944-19.453 0.2252-19.287-0.098 0.0606-0.4414 0.91252-0.7636 1.8932-1.1738 3.5727-1.9348 4.5612-3.5113 4.5612-0.8812 0-1.2145-0.16961-2.0413-1.0388-0.5435-0.57134-1.2686-1.762-1.6114-2.6458-0.3427-0.88387-0.6864-1.607-0.7638-1.607-0.077 0-0.3388 1.1013-0.581 2.4474-0.2421 1.3461-0.7959 4.3649-1.2306 6.7086-0.4346 2.3436-0.9189 5.7369-1.0761 7.5406-0.6275 7.1968-1.1676 11.216-1.5715 11.693-0.2626 0.31021-0.6839 0.44837-1.2101 0.39688l-0.8073-0.079 0.01-2.249c0-1.2369 0.1521-3.6777 0.328-5.424 0.176-1.7462 0.3212-4.8419 0.3228-6.8792 0-2.9618 0.1595-4.5525 0.7844-7.9375 1.2465-6.7529 1.8241-9.3497 2.6946-12.115 0.8412-2.672 1.2609-3.3634 2.0417-3.3634 0.7696 0 2.9702 2.9121 4.2724 5.6537l1.2401 2.611 0.5425-0.89122c0.2984-0.49017 0.9777-1.8153 1.5096-2.9448 1.5003-3.1855 3.6286-5.0333 4.8837-4.2398 0.5297 0.3348 0.6132 1.6566 0.5653 8.9392-0.037 5.6831-0.3444 10.61-0.8456 13.571-0.1549 0.91544-0.2984 4.2296-0.3188 7.3649l-0.037 5.7005-0.7276 0.62607c-0.4002 0.34433-0.7276 0.78655-0.7276 0.98271 0 0.57327-0.5784 0.99165-1.3708 0.99165-0.5809 0-0.774-0.15221-0.9173-0.72315zm-26.552-1.0787-0.9261-0.45353 0.01-5.4207c0-2.9814 0.2128-7.9326 0.4631-11.003 0.2502-3.07 0.455-8.1599 0.455-11.311v-5.7291h-4.5978c-3.3595 0-4.6719-0.0892-4.8728-0.33127-0.34-0.40975-0.3637-2.8679-0.032-3.2682 0.2639-0.31792 20.354-0.29674 20.87 0.022 0.1506 0.093 0.2738 0.7604 0.2738 1.483 0 1.189-0.069 1.3404-0.7276 1.5939-0.4002 0.15401-2.2925 0.34695-4.2051 0.42877l-3.4774 0.14875-0.1417 8.759c-0.078 4.8174-0.2638 12.388-0.4132 16.824-0.241 7.1584-0.3231 8.1023-0.7309 8.4005-0.5854 0.42803-0.8142 0.41122-1.9458-0.143zm149.67-15.547c-2.4497-0.63567-7.5099-1.7601-11.245-2.4987-3.7349-0.73865-8.1004-1.6904-9.7011-2.1151-7.8854-2.0918-9.182-2.2944-22.886-3.5742-3.8563-0.36013-9.9285-1.0787-13.494-1.5967-5.4557-0.79279-11.811-1.4046-14.9-1.4345-0.6555-6e-3 -0.7351-0.0948-0.6615-0.73481l0.084-0.7276 3.9688 0.0447c3.1753 0.0358 5.3441 0.25958 10.848 1.1196 3.7836 0.59118 8.6651 1.2473 10.848 1.458 16.799 1.6219 17.385 1.7033 26.723 3.7189 2.9105 0.62819 6.78 1.4032 8.599 1.7223 9.7239 1.7056 16.811 3.2891 17.529 3.9168 0.5733 0.50125 0.5876 0.95424 0.047 1.4946-0.5509 0.55086-0.6091 0.54284-5.7581-0.79324zm60.281-5.3786c-1.9848-0.49915-3.0725-1.6447-3.2426-3.415-0.1112-1.1577-0.038-1.3859 0.7161-2.2453 0.4779-0.54434 1.3883-1.1614 2.1123-1.4319l1.2724-0.47531-2.0981-3.4396c-3.6596-5.9994-3.9837-6.6462-3.7845-7.5532 0.1704-0.77561 1.5227-1.9776 7.644-6.7938 1.1773-0.92624 2.8167-1.159 3.9462-0.56014 0.866 0.45907 6.525 5.5837 7.6077 6.8892 1.5759 1.9003 3.7317 5.2513 3.9974 6.2138 0.7537 2.7295-3.3155 5.6993-6.1731 4.5053-2.2815-0.95327-3.363-4.3007-2.0254-6.269 0.3446-0.50711 1.0993-1.1919 1.677-1.5218l1.0506-0.59973-3.4396-3.3106c-1.8918-1.8208-3.7093-3.3818-4.0388-3.4689-0.3334-0.0881-0.8191 2e-3 -1.0947 0.20211-0.3896 0.28337-6.1899 4.8052-6.6074 5.151-0.1325 0.10972 4.2845 7.2262 5.7301 9.2324 2.3391 3.246 2.7035 3.9125 2.7035 4.9458 0 0.78694-0.2116 1.2399-0.9723 2.082-1.5051 1.6659-3.2172 2.3062-4.9808 1.8626zm-30.824-10.223c-1.2369-0.19486-3.9158-0.48433-5.9531-0.64326s-4.9543-0.40491-6.4823-0.54661c-1.528-0.14171-7.8978-0.37534-14.155-0.51917s-12.865-0.38147-14.684-0.52809-5.5099-0.44403-8.2021-0.66093c-8.5294-0.68718-13.149-1.1444-21.167-2.095-12.094-1.4338-20.887-1.9944-31.486-2.0073-4.2928-5e-3 -7.9644-0.11044-8.159-0.23381-0.1947-0.12336-0.3137-0.50849-0.2646-0.85584l0.089-0.63154 8.202 0.0221c9.4276 0.0254 17.373 0.58185 31.882 2.2331 21.505 2.4473 36.109 3.4315 50.981 3.4354 10.917 3e-3 22.35 0.87423 23.018 1.7544 0.3288 0.43296 0.1863 1.1523-0.2932 1.4806-0.3556 0.2435-0.5675 0.23049-3.3266-0.20417zm-40.569-7.9718c-0.4319-0.43185-0.1022-2.101 0.7488-3.7907 0.5088-1.0105 1.2117-2.5985 1.5619-3.5289 1.1759-3.1241 4.7841-11.06 5.2622-11.574 0.7795-0.83795 2.1235-0.66929 3.1585 0.39636 0.9045 0.93138 5.2332 8.9396 6.2325 11.53 0.7828 2.0296 1.1492 3.5742 0.9628 4.0599-0.2049 0.53398-1.8127 1.0624-2.6177 0.86036-0.6457-0.16206-0.8594-0.64747-1.8501-4.2027-0.421-1.5108-0.4383-1.5296-1.2764-1.3957-0.4672 0.0746-2.163 0.2703-3.7683 0.43483l-2.9187 0.29914-0.6749 1.2289c-0.3712 0.67588-1.1936 2.1814-1.8275 3.3455-0.6339 1.1642-1.279 2.2041-1.4335 2.3111-0.3527 0.2441-1.3254 0.26038-1.5596 0.0261zm9.7454-9.7466c0.7276-0.0881 1.592-0.21567 1.9208-0.2836l0.5978-0.12352-0.5608-1.1188c-0.7114-1.4193-1.7868-2.574-2.3973-2.574-0.4931 0-0.7947 0.47461-1.9229 3.0256l-0.6769 1.5305 0.8582-0.14807c0.472-0.0814 1.4535-0.22011 2.1811-0.30816zm35.256 9.108c-0.2744-0.15978-0.463-0.58574-0.463-1.0452 0-1.0558 1.1082-1.3825 1.9237-0.56701 0.4718 0.47182 0.5078 0.6511 0.2462 1.2254-0.321 0.70456-0.9261 0.8417-1.7069 0.3869zm-23.835-0.41978c-0.3455-0.34552-0.1414-6.414 0.4506-13.395 0.5465-6.4451 0.6524-7.1403 1.1665-7.6544 0.4842-0.48419 0.662-0.52137 1.238-0.2589 0.37 0.16857 0.6727 0.4344 0.6727 0.59073 0 0.38835 3.8908 6.7413 4.3744 7.1428 0.3271 0.27147 0.3881 0.19067 0.3881-0.51436 0-0.93597 1.5367-4.5278 2.7458-6.418 1.0148-1.5864 2.1728-2.1359 3.4601-1.6419 0.706 0.27092 1.1327 1.4186 1.8649 5.0156 0.3827 1.8804 1.0968 4.9668 1.5868 6.8586 0.4901 1.8918 1.0345 4.3643 1.21 5.4945 0.2906 1.8726 0.2768 2.1015-0.156 2.5797-0.4912 0.54278-1.3131 0.69763-1.5624 0.29434-0.078-0.12673-0.4817-0.29827-0.8964-0.38122-0.991-0.1982-2.2738-2.561-2.6845-4.9446-0.5183-3.0082-0.8837-4.4979-1.1033-4.4979-0.1173 0-0.6043 0.3359-1.0824 0.74643-2.758 2.3688-3.8799 2.2428-6.6473-0.74627-1.0343-1.1172-1.4996-1.4699-1.5035-1.1397 0 0.26296-0.1782 2.3831-0.3891 4.7114-0.2109 2.3283-0.3869 5.0132-0.3912 5.9664 0 0.9849-0.1448 1.8701-0.3252 2.0505-0.336 0.33595-2.1177 0.43999-2.4166 0.14111zm-47.338-0.28892c-0.5656-0.12537-0.9077-1.3126-0.4967-1.7236 0.1747-0.17468 0.2981-1.2359 0.2981-2.5628 0-1.9781-0.067-2.3065-0.5291-2.5952-0.3371-0.21049-0.5292-0.61701-0.5292-1.1197 0-0.50273 0.1921-0.90925 0.5292-1.1197 0.4048-0.25286 0.5291-0.61702 0.5291-1.5506 0-2.2968 2.1409-4.2088 4.7127-4.2088 0.9676 0 1.3109 0.14987 2.0607 0.89958 0.765 0.76509 0.8995 1.0835 0.8995 2.1298 0 1.2623-0.4514 2.4426-1.1589 3.0297-0.3473 0.28821-0.2808 0.43678 0.5035 1.1254 1.3949 1.2248 1.4655 2.2594 0.2762 4.0512-0.6014 0.90602-1.4234 1.7231-2.179 2.1659-1.3341 0.78186-4.1878 1.6403-4.9161 1.4789zm3.3943-5.249c1.0718-0.44785 0.9714-0.65573-0.484-1.0019-0.6713-0.15964-0.7276-0.11121-0.7276 0.62575 0 0.93567-0.073 0.91294 1.2116 0.37611zm-0.034-4.9789c1.3346-0.55764 1.9943-2.0068 0.9135-2.0068-0.8812 0-2.0913 1.0056-2.0913 1.7378 0 0.75375 0.011 0.75634 1.1778 0.26897zm11.066 10.175c-1.284-0.31061-2.191-1.0088-2.6084-2.0078-0.5623-1.3457-0.546-13.936 0.019-14.405 0.5609-0.46552 1.6304-0.11913 1.8203 0.58957 0.088 0.32901 0.1619 3.2246 0.1639 6.4346 0 4.6141 0.082 5.944 0.3786 6.35 0.3331 0.45622 0.7739 0.52323 3.9459 0.59981 3.1424 0.0759 3.6271 0.14829 4.0389 0.60333 0.3676 0.40613 0.4138 0.67153 0.2153 1.2367l-0.2527 0.7196-3.4336 0.0427c-1.8884 0.0235-3.8175-0.0501-4.2868-0.16366zm57.276-4.0013c-0.4051-0.23598-0.463-0.72066-0.463-3.8786 0-3.8925 0.947-13.485 1.3847-14.026 0.3742-0.46247 1.3931-0.41247 1.8091 0.0888 0.3546 0.42722 0.358 0.38304-0.8331 10.825-0.1162 1.0186-0.2187 2.9492-0.2277 4.2902-0.014 2.13-0.081 2.4727-0.5281 2.712-0.6091 0.32597-0.5609 0.32647-1.1419-0.0119zm-114.17-5.4328c-0.1819-0.0805-0.3307-0.43187-0.3307-0.78077 0-0.74874 0.2214-0.81303 3.5719-1.0373 2.2562-0.151 11.219-1.4766 13.494-1.9959 0.5821-0.13284 4.3921-0.85377 8.4667-1.6021 6.6877-1.2282 23.231-4.5047 36.116-7.1528 2.6922-0.55331 7.0975-1.3674 9.7896-1.809s9.6573-1.5815 15.478-2.5331c5.8209-0.9516 11.774-1.9544 13.229-2.2284s3.6579-0.63368 4.8948-0.79927c1.2369-0.16558 5.6802-1.1953 9.8739-2.2883 10.082-2.6277 13.468-3.3632 25.977-5.6432 8.956-1.6324 18.012-3.5305 26.151-5.4812 6.58-1.577 7.0894-1.6076 7.2655-0.43533 0.0434 0.28892-0.0757 0.64615-0.26458 0.79385-0.41891 0.32751-7.9054 2.2005-12.405 3.1034-1.8065 0.36254-5.1395 1.071-7.4065 1.5744-4.8539 1.0778-8.8531 1.7715-14.664 2.5437-8.2547 1.0969-15.29 2.692-23.945 5.429-4.9564 1.5674-8 2.1536-15.875 3.0577-4.4215 0.50759-17.703 2.599-30.295 4.7704-4.415 0.76137-13.267 2.5222-20.505 4.0789-4.6433 0.99863-11.676 2.3773-18.124 3.553-3.2015 0.58373-7.3687 1.3647-9.2605 1.7355-13.086 2.5648-20.174 3.6153-21.233 3.1467zm-0.3968-8.9871c-0.3141-0.31529-0.231-1.343 0.1323-1.6356 0.1819-0.14654 0.7474-0.35434 1.2567-0.46179 1.7422-0.36753 9.1247-2.9683 15.28-5.3828 3.3833-1.3272 8.9197-3.3536 12.303-4.503 3.3835-1.1494 6.9852-2.41 8.0039-2.8014 1.0186-0.39137 2.626-0.99779 3.5719-1.3476 0.9458-0.34982 3.8033-1.4255 6.35-2.3904 6.8695-2.6029 8.5794-3.1829 13.576-4.6052 2.5014-0.71202 5.7386-1.6654 7.1938-2.1186 2.5311-0.78826 10.492-2.9507 14.684-3.9886 2.6933-0.66683 3.1238-0.64671 3.4929 0.16328 0.5323 1.1683-0.1933 1.4989-7.197 3.2799-3.5653 0.90661-7.9111 2.0683-9.6573 2.5816-1.7463 0.51326-4.2466 1.2232-5.5563 1.5777-7.0059 1.8962-10.113 2.933-19.724 6.5813-4.7986 1.8216-11.492 4.2499-14.873 5.3962-3.3817 1.1463-8.7084 3.0607-11.837 4.2541-6.7602 2.5786-14.454 5.2258-15.822 5.444-0.5387 0.0859-1.0688 0.0666-1.1779-0.043zm193.04-11.117c-1.3923-0.68676-2.0093-1.5453-2.148-2.989-0.1571-1.635 0.49461-2.6804 2.0618-3.3075 1.1159-0.44649 1.9304-0.37579 3.2335 0.28069 0.40019 0.2016 0.72761 0.27399 0.72761 0.16088s0.30221-1.6925 0.67158-3.5097c0.75118-3.6956 0.90202-5.943 0.43052-6.4145-0.32067-0.32068-6.7758-1.7588-7.9848-1.779-0.65809-0.0109-0.67918 0.0588-2.0376 6.7429-1.463 7.1988-1.7452 7.9407-3.3376 8.7746-1.1903 0.62334-3.1774 0.57947-4.0812-0.0901-2.6548-1.9667-2.5328-5.5356 0.21031-6.1516 0.51528-0.11571 1.5868-0.12444 2.3812-0.0194 0.79441 0.10505 1.4613 0.17619 1.482 0.1581 0.0804-0.0703 1.9366-8.5612 2.1004-9.6076 0.38878-2.4851 1.5048-2.6781 8.0412-1.3909 4.7951 0.94429 5.581 1.3704 6.0638 3.2878 0.35118 1.3947 0.035 3.7915-1.3026 9.8751-0.96134 4.3722-1.161 4.9027-2.1627 5.7456-0.93074 0.78316-3.009 0.89475-4.3495 0.23355zm-44.723-20.089c-2.9175-1.7488-2.9628-5.4844-0.086-7.0631 0.7315-0.40141 1.2477-0.47713 2.4578-0.36058l1.5318 0.14755-1.6155-2.9736c-3.8161-7.0242-4.2562-8.3916-3.0798-9.5681 0.7912-0.79111 1.789-0.8732 3.7665-0.30985 0.7176 0.20445 1.9001 0.45372 2.6277 0.55393 1.4876 0.20488 1.9844 0.50644 1.9844 1.2045 0 0.9251-0.7016 1.2932-2.1886 1.1483-1.4353-0.13989-3.2345-0.4966-4.0147-0.79599-0.3354-0.12871-0.2403 0.16876 0.3721 1.164 0.4525 0.73531 2.0783 3.9196 3.6129 7.0762 2.0645 4.2464 2.749 5.9038 2.6315 6.3718-0.087 0.34788-0.2825 0.63251-0.4337 0.63251-0.1513 0-0.7741 0.55262-1.384 1.228-1.9863 2.1995-4.1768 2.7466-6.1828 1.5442z" fill="#fff"/></g></svg>
