<?xml version="1.0" encoding="UTF-8"?>
<!-- Created with Inkscape (http://www.inkscape.org/) -->
<svg width="554.04mm" height="200mm" version="1.1" viewBox="0 0 554.04 200" xml:space="preserve" xmlns="http://www.w3.org/2000/svg"><g transform="translate(1130.6 -317.53)"><path d="m-697.67 517.22c-0.45726-0.45726-0.39838-0.96328 0.32762-2.8158 1.4039-3.5823 2.9692-5.1049 7.8093-7.596 4.985-2.5658 7.6561-4.9905 8.8445-8.0287 1.1428-2.9219 2.0556-7.5372 2.2031-11.14l0.14622-3.5719-1.5986-5.5562c-1.8874-6.5599-2.4394-9.0879-2.4384-11.167 1e-3 -2.3406 0.51883-6.052 1.066-7.6424 0.85223-2.477 1.5296-3.097 5.6414-5.1634 4.2911-2.1565 6.8414-3.8458 9.4452-6.2565 1.8348-1.6988 2.1613-2.1816 1.475-2.1816-0.19985 0-1.7774-0.42879-3.5057-0.95286-1.7283-0.52408-4.7842-1.2888-6.7909-1.6993-4.5015-0.92094-5.4277-1.3584-6.1782-2.9179-0.56442-1.173-0.5654-1.2126-0.30455-12.289 0.25974-11.03 0.0726-18.108-0.60962-23.061-0.32349-2.3486-3.1367-12.174-4.3107-15.056-1.0769-2.6433-2.5544-4.8458-4.7358-7.0596-1.417-1.4381-2.2908-2.013-5.6294-3.7042-4.1505-2.1024-5.5389-3.1748-6.5287-5.043-0.51469-0.97142-0.59989-1.5999-0.68421-5.0473-0.10048-4.108-0.0342-4.3826 1.0592-4.3926 1.0485-0.01 1.2757 0.68501 1.2757 3.9001 0 4.9248 0.56454 5.6786 6.4975 8.6762 4.0472 2.0448 4.8239 2.6276 7.178 5.3866 2.2026 2.5815 3.7914 5.8295 4.9948 10.211 0.51957 1.8918 1.2944 4.6471 1.7219 6.1229 1.1236 3.8791 1.2532 4.7612 1.7022 11.589 0.27368 4.1613 0.39369 9.7695 0.36908 17.246-0.0201 6.0938-0.0224 11.215-5e-3 11.38 0.0655 0.62926 1.4094 1.1514 4.6976 1.8252 3.4726 0.7116 10.649 2.7804 12.201 3.5173 0.76118 0.36143 0.85989 0.53119 0.85989 1.4788 0 0.97145-0.15775 1.2215-1.7044 2.7012-2.4317 2.3264-5.4756 4.3562-10.334 6.8914-5.6216 2.9333-5.85 3.2881-6.1358 9.5293-0.19917 4.3492 0.0596 6.0317 1.9864 12.915 1.3979 4.9938 1.4806 5.4555 1.4686 8.2021-0.013 2.9959-0.43282 5.721-1.5881 10.309-0.85216 3.3843-1.5998 4.9368-3.2912 6.8343-1.6606 1.863-3.3997 3.0633-7.3788 5.0928-4.2977 2.192-5.707 3.6219-6.798 6.8973-0.23701 0.71158-0.54769 1.4426-0.69041 1.6245-0.32967 0.42018-1.3148 0.42772-1.7293 0.0132zm-395.96-14.153c-0.076-0.26295-0.4468-1.7878-0.8235-3.3885-0.9784-4.1568-2.2143-8.4656-2.9788-10.385l-0.6586-1.6536-1.8901-3e-3c-1.0395-1e-3 -3.6417 0.13763-5.7826 0.30907l-3.8925 0.31171-0.9311 2.4031c-0.5121 1.3217-1.7543 4.308-2.7604 6.6362-1.6213 3.7519-1.9001 4.2332-2.4524 4.2332-1.0652 0-0.8767-0.9301 1.0533-5.1969 1.9842-4.3863 3.2183-7.3318 3.2183-7.681 0-0.12044-0.3334-0.21897-0.7408-0.21897-0.8981 0-1.3759-0.43009-1.3759-1.2385 0-0.6365 0.3763-0.80415 2.1072-0.93904l0.9166-0.0714 1.8862-5.8208c2.8143-8.6846 3.6674-10.451 5.0477-10.451 0.3328 0 0.8368 0.24877 1.1201 0.55281 0.2833 0.30405 1.2989 2.8937 2.257 5.7547 2.718 8.1166 3.1545 9.1547 3.8945 9.2621 1.2422 0.18037 1.7752 1.3313 0.8551 1.8463-0.4985 0.27897-0.5357 0.11375 0.9647 4.2799 1.3025 3.6164 2.9741 10.09 2.86 11.075-0.066 0.56974-0.2354 0.71364-0.9182 0.77988-0.6238 0.0605-0.8726-0.0407-0.9758-0.39688zm-8.2118-17.503 2.9397-0.17317-2.3624-5.9531c-1.2993-3.2742-2.4549-6.0479-2.5681-6.1636-0.3053-0.31237-1.7304 3.055-3.4832 8.231l-1.5517 4.5823 2.043-0.1751c1.1236-0.0963 3.3659-0.25301 4.9827-0.34825zm19.065 17.51c-0.097-0.097-0.1764-3.7857-0.1764-8.197v-8.0206l-0.7276-0.15309c-1.167-0.24554-1.5158-0.52537-1.6066-1.2887-0.1279-1.0757 0.4004-1.5529 1.4923-1.348l0.9119 0.17107-0.1727-3.5243c-0.095-1.9384-0.3118-4.7447-0.4817-6.2363-0.3022-2.6517-0.3241-2.7121-0.9868-2.716-1.0164-6e-3 -1.392-0.3588-1.2942-1.2153l0.087-0.76504 5.424-0.0797c3.2952-0.0484 5.8034 0.0307 6.3909 0.20151 0.5318 0.15465 1.567 0.82061 2.3003 1.4799 1.6806 1.511 2.4213 3.3214 2.4213 5.9182 0 1.586-0.1324 2.0759-1.0632 3.9356-1.7073 3.4111-3.7877 4.7926-8.3982 5.5769l-2.5197 0.42865 0.1358 7.5687c0.079 4.4041 0.034 7.7508-0.1081 8.0043-0.2416 0.43178-1.2893 0.59853-1.6286 0.25923zm6.1562-19.428c2.1296-0.73839 3.2446-1.5915 4.0757-3.1184 1.3898-2.5536 1.1881-5.4289-0.5093-7.258-1.0084-1.0867-1.7303-1.278-5.4186-1.4352l-3.3248-0.1418 0.3338 2.2189c0.1836 1.2204 0.3403 3.1832 0.3483 4.3618 0.01 1.1786 0.092 3.0625 0.1871 4.1864l0.1728 2.0436 1.3486-0.1793c0.7417-0.0986 1.9956-0.40364 2.7864-0.67784zm6.8109 19.43c-0.098-0.0984-0.1789-0.45445-0.1789-0.79122 0-0.86522 0.4991-0.93297 6.1709-0.8377l4.9423 0.083 0.01-4.4979c0.01-4.4397 0.3405-13.985 0.6852-19.506l0.1772-2.8374-4.2044-0.073-4.2044-0.0731v-1.5875l3.8364-0.085c2.1101-0.0468 6.3627-4e-3 9.4503 0.0951 5.237 0.16806 5.6247 0.21457 5.7765 0.69302 0.09 0.28208 0.017 0.68868-0.1614 0.90355-0.2729 0.32882-0.9886 0.36228-4.5198 0.21131-4.009-0.17139-4.196-0.15697-4.205 0.32423-0.01 0.27698-0.1336 1.6942-0.2853 3.1494s-0.3558 7.2893-0.4536 12.965l-0.1777 10.319h12.965v1.5875l-12.72 0.0687c-6.9957 0.0378-12.8-0.0118-12.898-0.11024zm226.22-2.2481c-0.61835-0.34604-0.59366-3.1885 0.0607-6.9887 0.85665-4.975 1.3068-6.4195 4.6532-14.931 1.3445-3.4197 2.8876-7.5869 3.4291-9.2604 1.4327-4.4275 1.3559-4.281 2.194-4.1845 0.52898 0.0609 0.74918 0.25169 0.81331 0.7047 0.13287 0.93858-2.1426 7.9975-4.4481 13.799-2.1358 5.3742-3.4673 9.2552-3.9486 11.509-0.49359 2.3114-1.0838 6.4364-1.088 7.6039-6e-3 1.5999-0.67506 2.3024-1.6656 1.7481zm-143.22-2.3115c-4.6627-2.2058-7.1433-8.0882-5.5911-13.258 0.85639-2.8524 4.5102-7.8175 7.3986-10.054 0.76759-0.59428 1.6338-1.2968 1.9248-1.5611 0.84096-0.76373 1.531-0.85856 3.2794-0.45069 3.3385 0.77882 5.8721 3.1417 7.9726 7.4352 2.5423 5.1966 3.1362 9.2848 1.7581 12.102-1.236 2.5262-4.1372 4.6992-8.0894 6.059-1.0445 0.35935-2.1897 0.49251-4.2345 0.49236-2.5408-1.9e-4 -2.9539-0.0717-4.4184-0.76452zm7.5687-2.0788c1.6754-0.55472 4.1934-1.8516 5.3229-2.7414 1.436-1.1314 2.1915-3.0942 1.9962-5.1861-0.16875-1.807-1.3734-5.6759-2.3951-7.6922-0.83809-1.6539-2.8879-3.9218-4.1067-4.5435-0.52912-0.26994-1.4986-0.57126-2.1545-0.66962-1.1169-0.16748-1.2926-0.10503-2.7719 0.98513-2.326 1.7141-5.5071 5.5311-6.6009 7.9203-0.91073 1.9893-1.1004 4.0008-0.55427 5.8794 1.0819 3.7217 3.5532 6.1039 6.7599 6.516 1.666 0.21412 2.8003 0.0963 4.5044-0.46797zm-35.959 2.2118c-0.4949-0.59637-0.2469-1.3024 0.6001-1.7083l0.7505-0.35972-0.1746-3.8756c-0.4521-10.035-0.964-18.941-1.0963-19.074-0.08-0.081-1.119-0.20682-2.3081-0.27958l-2.1619-0.13229v-1.8521l2.1167-0.069c1.1642-0.0379 2.3846-0.2069 2.712-0.37544 0.4407-0.22687 0.7499-0.22998 1.1906-0.012 0.3274 0.16196 1.2502 0.3706 2.0505 0.46365 4.6467 0.54018 8.7947 3.1286 10.377 6.475 0.7962 1.6843 1.5296 4.9585 1.5296 6.8285 0 2.3686-0.79607 3.8538-3.8094 7.1069-2.2226 2.3996-4.6691 4.2158-7.732 5.7402-2.9617 1.474-3.6053 1.6529-4.0444 1.1238zm9.1719-7.1453c3.2153-3.0967 4.0332-4.3332 4.0306-6.0928-0.01-4.124-1.241-7.3572-3.4591-9.0568-1.9428-1.4886-3.2652-1.9912-6.7915-2.5809l-0.8599-0.14381v2.3085c7e-4 1.2697 0.2371 5.4636 0.5255 9.32s0.526 7.7358 0.528 8.621c0 0.88525 0.072 1.6783 0.1565 1.7624 0.3465 0.34647 3.5801-1.9333 5.8687-4.1375zm67.136 7.0174c-2.1925-1.0015-4.2027-4.1248-4.5604-7.0856-0.11172-0.92474-0.0441-1.1458 0.42793-1.3984 0.93146-0.4985 1.4898 0.0525 2.1576 2.1293 1.1403 3.5464 3.0702 5.1359 5.455 4.4928 2.5162-0.67851 3.3518-2.6144 2.6277-6.0876-0.68888-3.3039-2.2173-5.7833-5.8038-9.4149-3.5404-3.5849-4.405-4.9663-4.405-7.0376 0-1.7324 0.65938-2.8377 2.3339-3.9123 2.5601-1.6428 4.8319-2.0169 6.8052-1.1205 1.9054 0.86551 2.7764 2.3283 3.1921 5.361 0.18275 1.3333-0.23531 1.9154-1.2702 1.7687-0.51506-0.073-0.65785-0.32952-0.91849-1.65-0.38873-1.9695-0.80442-2.7483-1.7194-3.2215-0.95593-0.49433-2.0743-0.47284-3.4567 0.0664-1.9642 0.76618-2.585 1.3344-2.585 2.366 0 1.4463 0.82664 2.6936 3.5566 5.3665 4.0426 3.9582 6.3529 8.2573 6.6739 12.419 0.30452 3.949-0.94217 6.1537-3.9946 7.0644-1.7351 0.51766-3.2277 0.48271-4.516-0.10577zm81.677-0.88079c-0.54434-0.54434-0.3561-1.242 0.79269-2.9382 1.5769-2.3282 4.5748-6.1691 6.0411-7.7399 1.2025-1.2882 2.1091-2.6976 2.1091-3.2788 0-0.15275-0.23812-0.0396-0.52916 0.25144-0.35766 0.35766-0.89363 0.53299-1.6536 0.54096-0.61846 6e-3 -2.6128 0.18242-4.4318 0.39096s-6.1053 0.5583-9.525 0.77723-8.0632 0.57601-10.319 0.7935c-4.0198 0.38761-10.751 0.86617-20.77 1.4766-2.7649 0.16846-8.9562 0.32431-13.758 0.34635l-8.7312 0.0401v-1.3229l9.525-0.16614c12.685-0.22126 25.253-0.99031 36.116-2.2101 3.1287-0.35132 7.415-0.77061 9.525-0.93175s4.9676-0.45852 6.35-0.66085c4.4386-0.64961 7.0769-0.77844 7.6024-0.37123 0.35867 0.27794 0.3443 0.21577-0.0618-0.26725-0.91096-1.0836-4.1811-3.5456-9.0048-6.7795-4.2007-2.8162-4.6407-3.1824-4.5686-3.8022 0.16282-1.4014 0.95902-1.008 7.6453 3.7769 7.5084 5.3733 8.4445 6.2301 8.6329 7.9015 0.16794 1.49-0.4632 2.7737-2.4685 5.0211-1.2533 1.4046-4.2483 5.2803-6.6534 8.6099-0.64478 0.89262-1.3181 1.0885-1.8642 0.5424zm-101.48-1.429c-1.784-0.55637-3.3351-2.1769-4.1565-4.3424-0.60195-1.587-0.6508-2.0652-0.64826-6.3465 3e-3 -5.1698 0.37962-7.4474 1.6891-10.216 1.5649-3.309 3.411-4.6003 6.5765-4.6003 2.3218 0 2.9143 0.21715 4.4468 1.6298 1.528 1.4085 1.8084 1.9154 1.44 2.6036-0.4791 0.8952-1.5255 0.6596-2.9378-0.66146-1.1038-1.0325-1.4238-1.1898-2.4087-1.1848-1.4826 8e-3 -3.1587 0.78558-3.8825 1.8022-1.8101 2.542-2.7741 6.4807-2.7953 11.421-0.0131 3.043 0.0419 3.4271 0.68848 4.8062 1.0445 2.228 2.6923 3.0865 4.9523 2.58 1.8724-0.41961 2.804-1.3075 4.0304-3.8411 1.0512-2.1717 1.119-2.2484 1.9199-2.1706 0.75069 0.073 0.83804 0.17545 0.91215 1.0702 0.18578 2.243-3.1666 6.7337-5.4644 7.32-1.9248 0.49106-3.0938 0.52603-4.3621 0.13049zm130.29-1.8605c-2.6797-1.3354-4.4946-4.9352-4.7177-9.3576-0.11726-2.324-0.0793-2.5831 0.5028-3.4356 0.34629-0.50711 1.1024-1.1898 1.6801-1.517 1.849-1.0472 4.9094-0.67292 6.2523 0.76466 2.3007 2.4629 0.20822 5.4121-4.0565 5.7172l-1.8328 0.13114 0.16516 0.82341c0.49948 2.4901 2.2749 4.7326 4.0239 5.0824 1.1003 0.22006 1.5906-0.11297 2.4138-1.6396 0.73291-1.359 1.5556-1.7709 2.3012-1.1521 0.57705 0.47891 0.46656 1.211-0.43927 2.9105-1.319 2.4747-3.5132 3.0578-6.2931 1.6726zm1.5085-10.582c0.85501-0.55391 0.61978-1.2298-0.56289-1.6172-1.6671-0.54621-3.3559 0.51042-3.3559 2.0996 0 0.40266 3.1515 0.0147 3.9188-0.4824zm108.82 9.2559c-1.966-1.0113-2.5349-1.7986-1.9612-2.7143 0.44019-0.70263 1.2536-0.62414 2.6725 0.2579 1.6812 1.0451 2.4186 0.92036 3.4092-0.57652 1.6176-2.4443 0.8647-6.1128-1.6375-7.9792-0.63083-0.47054-1.9987-1.3913-3.0397-2.0462-2.3608-1.485-3.4438-2.9774-3.4413-4.7417 3e-3 -2.0599 1.5691-3.7198 3.5128-3.7232 1.3571-2e-3 3.4001 1.0816 4.3384 2.302 1.3378 1.74 1.7068 2.4682 1.6221 3.2016-0.0677 0.5864-0.23164 0.72681-0.92725 0.79414-0.72702 0.0704-0.90672-0.0405-1.287-0.79375-1.3461-2.6666-4.3073-4.0454-4.7656-2.2191-0.26001 1.036 0.31465 1.6864 3.1052 3.5148 1.4582 0.95544 3.1171 2.2219 3.6864 2.8144 2.5695 2.6741 2.9167 7.2994 0.78879 10.508-0.86915 1.3106-1.8031 1.9488-3.2255 2.2042-0.78353 0.14068-1.2958-4e-3 -2.8502-0.8033zm-100.02-0.14242c-0.13425-0.33697-0.43587-4.8989-0.67028-10.138-0.62986-14.077-0.89593-18.812-1.2456-22.167-0.17297-1.6593-0.23871-3.2144-0.1461-3.4557 0.19945-0.51977 1.0616-0.57966 1.4586-0.10133 0.15404 0.18561 0.46735 3.1919 0.69624 6.6807 0.2289 3.4888 0.6621 9.7697 0.96268 13.958 0.30058 4.1879 0.5674 9.4266 0.59292 11.642l0.0464 4.0273-0.72537 0.0835c-0.55462 0.0639-0.78283-0.0607-0.96947-0.52916zm10.144-0.54653c-0.87602-0.59404-1.5387-1.3507-2.1434-2.4474-0.84803-1.538-0.87544-1.683-0.8785-4.6483-4e-3 -3.4964 0.3816-5.1587 1.5782-6.8106 2.0136-2.7798 5.8129-2.8705 8.1621-0.19492 2.0881 2.3782 1.7466 4.6938-0.87974 5.9652-1.0804 0.52302-1.5059 0.58092-3.267 0.4446-1.1136-0.0862-2.2927-0.23537-2.6201-0.33148-0.56773-0.16666-0.59532-0.10551-0.59532 1.3198 0 2.5214 1.1082 4.4223 2.8601 4.906 1.1876 0.3279 2.0222-0.0962 3.33-1.6922 1.3277-1.6202 1.8679-1.8916 2.6913-1.3521 0.91216 0.59767 0.8095 1.1455-0.56009 2.9885-1.4664 1.9733-2.8116 2.7127-4.9352 2.7127-1.2265 0-1.687-0.14439-2.7421-0.8599zm4.8536-10.4c0.85018-0.59548 0.72559-1.2883-0.39828-2.2147-1.1548-0.95187-2.1035-1.032-3.0843-0.26048-0.66155 0.52037-1.6328 2.0343-1.4332 2.2339 0.14794 0.14794 2.656 0.59136 3.5267 0.62353 0.44056 0.0163 1.0656-0.15575 1.3891-0.38229zm72.792 10.13c-1.1873-0.79372-2.7197-3.9046-3.2751-6.6488-0.2327-1.1497-0.49675-3.63-0.58675-5.5117l-0.16365-3.4213-0.82894 0.15551c-1.3826 0.25938-5.2109 0.21986-5.4874-0.0566-0.14258-0.14258-0.2194-0.54087-0.1707-0.88507 0.0821-0.57995 0.24374-0.6394 2.2052-0.81092 1.1642-0.1018 2.6227-0.25793 3.2411-0.34694l1.1245-0.16185v-7.3658l0.70263-0.17635c1.2106-0.30385 1.3998 0.30998 1.2264 3.9799l-0.15267 3.2312 2.6502-0.38857c1.4576-0.21372 2.8438-0.31425 3.0806-0.22341 0.26569 0.10195 0.43041 0.4702 0.43041 0.96218 0 0.90624 0.0668 0.88052-3.5071 1.351-1.2741 0.16772-2.3718 0.39448-2.4395 0.50391-0.19852 0.32121 0.38308 6.3205 0.81844 8.4423 0.70884 3.4548 2.2872 6.07 3.2894 5.4506 0.16567-0.1024 0.63716-0.9349 1.0477-1.85 0.83667-1.8648 1.5506-2.3306 2.3974-1.5642 0.28062 0.25395 0.51021 0.61127 0.51021 0.79405 0 0.8548-1.2568 3.4706-2.0472 4.2611-0.72613 0.72613-1.0816 0.88084-2.0235 0.88084-0.74797 0-1.4532-0.2076-2.0417-0.601zm-63.42-0.24566c-0.19759-0.19759-0.3175-1.1745-0.3175-2.5866 0-2.9247-0.41051-6.2271-1.0911-8.7773-0.68843-2.5797-0.61062-3.2394 0.39569-3.3544 0.41791-0.0478 0.88374 0.0371 1.0352 0.18852 0.15144 0.15144 0.47777 1.2026 0.72516 2.3358 0.32594 1.493 0.5509 2.0316 0.8169 1.9558 0.20189-0.0576 0.81374-0.23104 1.3597-0.3855 1.2242-0.34635 3.0347 0.075 4.5218 1.0524 0.55905 0.36743 1.0353 0.62936 1.0583 0.58208 1.4073-2.8896 2.2722-3.9005 4.1517-4.8529 2.061-1.0444 3.5078-0.80451 5.0703 0.84072 1.4547 1.5318 2.5939 5.515 2.5939 9.0694 0 1.7903-0.0257 1.8646-0.70241 2.0345-1.0365 0.26014-1.5221-0.19797-1.7486-1.6496-0.63556-4.073-0.8198-4.8726-1.4445-6.2689-0.86745-1.9388-1.3859-2.2504-2.5487-1.5317-1.3 0.80343-1.6981 1.3479-2.6535 3.6291-0.63814 1.5236-1.0634 2.1767-1.5834 2.4318-1.0173 0.49905-2.2585 0.0213-3.0266-1.1651-0.60569-0.93551-1.9266-1.6972-2.9432-1.6972-0.86186 0-1.1703 1.0059-1.3582 4.429-0.10735 1.9561-0.30905 3.3966-0.5094 3.638-0.39765 0.47912-1.3606 0.52304-1.8015 0.0822zm27.53-0.5039c-3.0839-1.5265-4.8777-6.5602-3.6524-10.249 0.76684-2.3087 3.4853-4.2875 5.8654-4.2694 2.396 0.0182 5.9224 2.9189 5.9224 4.8715 0 2.3284-2.3094 2.9876-7.917 2.2598-1.0801-0.14019-1.9861-0.22581-2.0132-0.19027-0.19072 0.24965 0.67949 3.2598 1.1106 3.8419 1.5532 2.0968 3.3014 2.3565 5.6628 0.8412 1.1599-0.74429 1.4176-0.81546 1.997-0.55147 0.51496 0.23463 0.64639 0.46699 0.58175 1.0285-0.064 0.55574-0.4758 0.98831-1.7612 1.8498-1.4814 0.99296-1.8528 1.1245-3.175 1.1243-0.98869-1.3e-4 -1.8792-0.18922-2.6214-0.5566zm5.629-9.2442c0.26613-0.4306-1.0634-1.9812-2.1345-2.4895-0.65338-0.31005-1.2603-0.40364-1.8727-0.28877-0.99148 0.18601-2.8252 1.6276-2.669 2.0983 0.21048 0.63425 6.3199 1.2565 6.6762 0.67999zm8.8362 8.5591c-0.22855-0.68563-0.34222-2.9071-0.35616-6.9602l-0.0205-5.9531 0.60987-0.0865c1.107-0.15693 1.3741 0.36582 1.379 2.6985l4e-3 2.1504 0.55806-0.87153c0.83561-1.305 2.4051-2.0205 4.3692-1.9919 3.7822 0.055 5.4282 2.4363 6.0404 8.7386 0.13861 1.427 0.0887 1.7126-0.38149 2.1828-0.6601 0.6601-0.85695 0.6699-1.5666 0.078-0.44497-0.37116-0.60979-0.9576-0.83079-2.9559-0.30091-2.7209-0.96771-4.5768-1.8054-5.0251-0.29516-0.15796-1.086-0.28721-1.7573-0.28721-2.0634 0-2.564 0.91105-3.7799 6.8792-0.45177 2.2174-0.4699 2.2501-1.2927 2.33-0.75698 0.0735-0.86565-0.0125-1.1702-0.92604zm157.86-13.078c-1.4588-0.34194-2.7154-1.3818-3.0839-2.5521-0.20653-0.65578-0.35152-4.4953-0.43192-11.438-0.13253-11.443 0.0157-13.056 1.3914-15.14 0.87778-1.3299 1.7708-1.7339 4.531-2.0502 3.3832-0.38761 12.071-0.35614 12.473 0.0452 0.42405 0.42405 0.40041 0.88471-0.0695 1.3546-0.31463 0.31463-1.4404 0.38913-6.0193 0.39834-5.9489 0.012-8.2339 0.28127-9.0151 1.0625-0.79014 0.79013-1.2824 3.1527-1.4372 6.8971l-0.14663 3.5478 3.674-0.17994c2.0207-0.099 5.4206-0.42177 7.5555-0.71734 2.1348-0.29557 4.5756-0.50142 5.424-0.45743 1.4826 0.0769 1.5458 0.10966 1.6297 0.84502 0.11051 0.96809-0.27582 1.2102-1.9394 1.2153-0.7276 2e-3 -3.1684 0.2322-5.424 0.51102-2.2556 0.27882-5.6268 0.5889-7.4917 0.68906l-3.3906 0.18212 0.17136 3.7427c0.26348 5.7545 0.55074 8.5878 0.91522 9.0269 0.98327 1.1848 6.5351 1.3632 13.039 0.41912 3.3402-0.48485 4.2478-0.54006 4.5641-0.27763 0.55134 0.45758 0.50686 1.7481-0.0683 1.9818-0.25466 0.10347-2.249 0.40916-4.4318 0.6793-4.1996 0.51974-10.642 0.63121-12.418 0.21486zm-55.184-0.74373c-2.131-0.64822-4.0829-2.5153-5.2736-5.0444-0.95849-2.0359-1.0348-3.0361-0.26318-3.4491 0.78274-0.41891 1.6584 0.23105 2.0437 1.5169 0.47856 1.5973 1.7732 3.3468 2.9774 4.0237 0.88657 0.49828 1.3802 0.59382 2.6087 0.50496 2.6425-0.19114 4.5463-2.0818 4.7359-4.7031 0.22464-3.1056-1.1843-5.9428-4.1814-8.4201-6.0788-5.0244-7.0203-6.4416-6.3336-9.5337 0.72508-3.2652 3.8533-5.1052 6.6728-3.9248 1.9543 0.81816 4.2927 4.7759 3.6523 6.1815-0.17601 0.38629-0.50602 0.6058-0.91076 0.6058-0.75511 0-1.1189-0.38484-1.3768-1.4567-0.45024-1.8706-1.8729-3.3058-3.2769-3.3058-0.83615 0-2.0608 1.3396-2.2767 2.4906-0.31332 1.6702 0.43807 2.8264 3.7062 5.7033 4.7042 4.141 5.5664 5.2915 6.3979 8.5374 1.1514 4.4943-0.77121 8.5537-4.7056 9.9356-1.7056 0.59906-2.9962 0.703-4.1964 0.33792zm33.241-1.4799c-0.24863-0.64793-0.18146-16.444 0.095-22.341 0.1328-2.8328 0.19858-5.1935 0.14617-5.2459-0.0524-0.0524-1.9612 0.28007-4.2417 0.73886-2.2805 0.45878-4.3228 0.76643-4.5385 0.68368-0.26153-0.10036-0.36446-0.43577-0.30907-1.0072l0.083-0.85673 2.6458-0.47794c1.4552-0.26286 4.2532-0.82225 6.2177-1.2431 4.8571-1.0405 10.541-1.9163 11.768-1.8133 1.1838 0.0994 1.7558 0.74836 1.299 1.4739-0.20236 0.32139-0.8089 0.52134-1.983 0.6537-0.93032 0.10488-3.3678 0.44284-5.4166 0.75103l-3.7251 0.56035-0.34374 6.3927c-0.19482 3.6231-0.30037 9.7743-0.24363 14.198l0.10011 7.8052-0.6938 0.0804c-0.45209 0.0524-0.75167-0.0703-0.8599-0.35236zm-14.931-2.0471c-0.15275-0.18405-0.40483-2.7141-0.56019-5.6224-0.20546-3.8463-0.49098-6.3336-1.0474-9.1242-0.98311-4.9309-1.423-8.2594-1.3112-9.9219 0.0788-1.1718 0.16281-1.3333 0.7356-1.4142 0.91878-0.12969 1.3375 0.59706 1.3393 2.3246 2e-3 1.6732 0.12258 2.4607 1.4366 9.3628 0.99086 5.2046 1.6472 13.294 1.1575 14.267-0.27048 0.5375-1.3453 0.61633-1.7502 0.12838zm-403.53-9.4376c-0.1676-0.31312-0.2739-3.0462-0.2739-7.0409v-6.5291l-0.8599 0.14849c-2.1473 0.37081-7.1393 0.73207-9.062 0.65581l-2.1167-0.084v-1.5875l2.6459-0.0533c1.4552-0.0293 4.1638-0.19752 6.0192-0.37379l3.3735-0.32049v-12.868l0.7026-0.17635c1.3029-0.327 1.4007 0.16022 1.3383 6.6639-0.031 3.2415 0.017 5.9666 0.1057 6.0559 0.089 0.0892 3.3871-0.0395 7.3287-0.28608 5.854-0.36623 7.2417-0.38597 7.5768-0.10779 0.4946 0.41045 0.534 1.1702 0.08 1.5342-0.1866 0.14952-3.2695 0.34506-7.0776 0.44891-3.7107 0.10119-7.0286 0.25105-7.3729 0.33303l-0.626 0.14904 0.097 6.6443c0.053 3.6544 5e-4 6.7932-0.1172 6.9751-0.3301 0.51006-1.4529 0.39462-1.761-0.18105zm422.72-32.461c-0.1037-0.1037-0.19099-2.0439-0.19399-4.3116-5e-3 -4.0631-0.41099-11.904-0.62699-12.12-0.17816-0.17817-11.68 1.462-14.651 2.0893-2.1922 0.46281-2.6927 0.65387-2.5971 0.99139 0.25377 0.89581 0.94593 4.7981 1.3802 7.7814 0.48573 3.3367 0.42912 3.6024-0.76957 3.6128-0.69795 6e-3 -0.90129-0.72888-1.646-5.9491-0.37369-2.6194-0.73647-4.924-0.80619-5.1213-0.0853-0.24159-0.34937-0.30292-0.80825-0.18774-1.0884 0.27316-1.6948-0.0482-1.6948-0.89819 0-0.79463 0.38622-1.0688 1.5055-1.0688 0.56051 0 0.64471-0.0962 0.52123-0.59532-0.48987-1.9802-1.7791-10.169-1.7113-10.869 0.0716-0.73806 0.1771-0.83928 0.87513-0.83928h0.79375l0.31784 2.6458c0.2987 2.4865 1.3848 8.9005 1.5368 9.0759 0.0382 0.044 1.8987-0.27825 4.1345-0.71621 4.2567-0.83384 7.9596-1.4665 11.403-1.9483l2.0463-0.2863 0.1408-14.063h1.3229l0.15929 8.4667c0.0876 4.6567 0.29974 9.6808 0.4714 11.165s0.3381 5.0558 0.36988 7.9375l0.0578 5.2394-0.67136 0.0783c-0.36925 0.0431-0.7562-7e-3 -0.85989-0.11024zm19.258-0.33843c-1.5675-0.72731-2.7382-2.1169-3.461-4.1081-0.78558-2.1643-0.80946-2.9528-0.10087-3.332 1.0117-0.54142 1.5281-0.0851 2.1081 1.8624 0.64652 2.1709 1.5325 3.3181 2.8728 3.7196 2.0552 0.61575 4.7848-0.85528 6.0473-3.2591 0.64052-1.2195 0.73101-1.6859 0.73198-3.7728 2e-3 -3.4747-0.43616-4.2666-4.6073-8.334-2.9443-2.8711-3.4662-3.5098-3.9545-4.8389-0.97-2.6404-0.55063-4.962 1.19-6.5878 1.0265-0.95881 1.9607-1.2736 3.7795-1.2736 2.8652 0 5.7848 1.4261 7.9459 3.8814 0.8617 0.97894 1.0828 1.4245 1.0208 2.0575-0.0626 0.63948-0.217 0.82368-0.7405 0.88319-0.51118 0.0581-1.0839-0.33743-2.5208-1.741-2.0236-1.9767-3.5272-2.6998-5.6136-2.6998-1.4349 0-2.0632 0.32105-2.5786 1.3176-1.105 2.1367-0.12263 4.1959 3.7083 7.7732 2.2751 2.1246 2.9166 2.9033 3.7043 4.4972 2.2046 4.4606 1.1472 9.797-2.5205 12.721-2.093 1.6685-4.9803 2.1768-7.0115 1.2344zm-53.405-3.1774c-1.2618-3.1537-3.0832-13.094-3.0832-16.826v-1.6826l-2.9766 1.0144c-1.6371 0.55791-4.1077 1.4596-5.4901 2.0038-1.3824 0.5442-2.9303 1.0024-3.4396 1.0181-0.85319 0.0264-0.92604-0.0321-0.92604-0.74299 0-0.7541 0.0842-0.80102 3.7042-2.0654 11.184-3.9061 17.098-5.7782 18.432-5.8346 1.3393-0.0566 1.4157-0.0246 1.4911 0.62445 0.10547 0.90735-0.23105 1.1181-2.6751 1.6754-1.1365 0.25916-3.0264 0.76602-4.1998 1.1264l-2.1334 0.65516 0.17616 2.4274c0.2809 3.8707 1.6015 10.975 2.726 14.665 0.72534 2.3801 0.60692 2.9755-0.59179 2.9755-0.45109 0-0.70321-0.25711-1.0142-1.0342zm42.484 0.7035c-0.2826-0.34592-0.98115-21.664-0.81281-24.805 0.0875-1.6335 0.12537-1.7198 0.75363-1.7198h0.66146l0.16685 7.0115c0.0918 3.8563 0.31543 9.7192 0.49703 13.029 0.26424 4.8155 0.26408 6.097-8.1e-4 6.4161-0.40269 0.48522-0.9026 0.51212-1.2654 0.0681zm-148.04-6.4024c-0.42376-0.42377-0.56927-2.4215-0.98385-13.507-0.13605-3.638-0.43199-7.9243-0.65765-9.525s-0.48324-3.4794-0.5724-4.1749c-0.0892-0.69548-0.26418-1.3276-0.38892-1.4047-0.12475-0.0771-0.22682-0.47741-0.22682-0.88959 0-0.61913 0.17248-0.8183 0.99219-1.1457 1.9234-0.76828 3.8796-1.2486 5.0751-1.246 3.2075 7e-3 6.3692 3.0288 6.3641 6.0828-2e-3 1.2421-1.1974 3.2755-2.771 4.7137-1.583 1.4468-4.7256 3.2238-5.701 3.2238-0.52015 0-0.54291 0.10243-0.39681 1.7859 0.33342 3.842 0.93539 13.184 0.93539 14.517 0 1.1191-0.10438 1.4617-0.51177 1.6797-0.65701 0.35162-0.69965 0.34759-1.1565-0.10926zm4.5093-22.43c3.298-2.5189 3.2815-5.0747-0.0442-6.8389l-1.1987-0.63592-1.775 0.46555c-0.97625 0.25606-1.8202 0.51075-1.8754 0.56599-0.0552 0.0552 0.10485 2.0693 0.35574 4.4757l0.45618 4.3752 1.3478-0.67456c0.74129-0.37101 1.9714-1.1509 2.7336-1.733zm-263.04 20.546c-0.5364-0.53637-0.5239-0.79898 0.066-1.3887 0.3309-0.3309 0.4166-0.64127 0.2742-0.99219-0.114-0.28086-0.7465-3.1382-1.4054-6.3497-0.659-3.2115-1.619-7.7359-2.1332-10.054-1.39-6.266-2.8165-16.44-2.9651-21.148l-0.1253-3.9688 0.7538-0.71374c1.5943-1.5095 6.2219-1.9947 9.4667-0.99248 3.5891 1.1086 5.2617 3.8217 5.2928 8.5854 0.019 2.9195-0.4703 4.7935-2.1069 8.0698-0.8312 1.6639-2.7662 3.792-4.4492 4.8929l-0.7524 0.49222 1.6785 0.57107c2.5222 0.85813 4.7384 2.08 5.831 3.2149 2.022 2.1003 3.5964 7.0982 3.3215 10.544-0.23824 2.9857-2.6747 6.6432-5.4171 8.1319-1.163 0.6313-4.8502 1.522-6.3006 1.522-0.3373 0-0.8004-0.18709-1.0291-0.41577zm4.8759-2.5574c1.4976-0.45007 3.0438-1.6692 4.0614-3.2022 1.3769-2.0744 1.6707-3.4118 1.3032-5.9332-0.83606-5.736-2.8788-7.8148-9.3446-9.5093-1.4511-0.38032-2.6829-0.64274-2.7373-0.58317-0.1793 0.19648 1.783 9.7958 3.3318 16.298l0.8312 3.49 0.8141-0.14105c0.4478-0.0776 1.2309-0.26629 1.7402-0.41936zm-5.1264-22.482c4.2737-2.0838 7.1202-6.7846 7.096-11.719-0.02-4.0114-1.27-6.0334-4.2698-6.9054-2.5634-0.74519-6.3302-0.11703-6.811 1.1358-0.2685 0.6997 0.049 4.5166 0.9524 11.458 0.8485 6.5181 0.9086 6.8792 1.1446 6.8792 0.08 0 0.9299-0.38213 1.8878-0.84919zm-9.5136 24.463c-0.066-0.10914-0.4331-1.3822-0.8167-2.8291-1.1911-4.4925-4.1647-10.538-6.4626-13.139-0.6553-0.7418-1.8301-1.6093-3.0058-2.2195-1.0616-0.55095-2.1392-1.1829-2.3947-1.4044-0.2556-0.22147-0.5342-0.33316-0.6192-0.24821-0.085 0.0849-0.013 1.6816 0.159 3.5482 0.1724 1.8666 0.332 5.4178 0.3546 7.8917l0.041 4.4979h-1.3229l-0.196-4.4979c-0.2981-6.8385-0.9424-14.046-1.7149-19.182-0.9073-6.0324-1.0373-14.43-0.2547-16.458 0.8973-2.3254 3.1428-3.5903 5.8698-3.3062 4.4562 0.46413 7.7396 3.5994 8.747 8.3525 0.8 3.7743 0.3277 7.3297-1.4633 11.015-1.2699 2.613-3.1354 4.5184-5.7927 5.9167l-1.9203 1.0105 1.2144 0.46379c1.7386 0.66395 3.6128 2.2428 5.0451 4.25 1.2677 1.7765 4.1196 7.7053 5.1045 10.612 0.6972 2.0574 1.2326 4.9435 1.0199 5.4978-0.1644 0.42856-1.3677 0.60178-1.5915 0.22912zm-11.78-23.086c3.4672-1.0941 5.9162-3.4933 7.4257-7.2746 0.7389-1.851 0.8459-2.4321 0.8525-4.6302 0.011-3.7427-0.7324-5.921-2.7094-7.936-2.4515-2.4986-5.2013-3.0322-7.1562-1.3887-1.1697 0.98336-1.3474 1.9629-1.3549 7.4662-0.01 5.0935 0.7406 14.294 1.1614 14.294 0.055 0 0.8561-0.23878 1.7809-0.53061zm41.501 22.642c-2.5496-0.70759-4.0614-2.0089-4.3941-3.7822-0.10002-0.53315-0.088-2.7621 0.0266-4.9532 0.11467-2.1911 0.28106-11.425 0.36977-20.52l0.16129-16.536h1.3229l-0.0989 20.521c-0.10973 22.768-0.18641 21.7 1.6192 22.556 1.3342 0.63313 4.3501 1.0329 6.3195 0.83765 1.6117-0.15978 1.7876-0.12651 2.1628 0.4093 0.41194 0.58813 0.32984 1.2844-0.19373 1.6429-0.46199 0.31634-6.0037 0.18321-7.2954-0.17526zm53.077-0.0408c-0.0883-0.23019-0.16115-2.3436-0.16183-4.6964-1e-3 -4.7986-0.2959-10.073-1.0736-19.227-0.29054-3.4197-0.64203-7.6465-0.7811-9.3927s-0.32959-3.8137-0.42337-4.5944l-0.17052-1.4194-0.78112 1.255c-1.3658 2.1944-3.3858 6.1127-4.7219 9.1595-1.4398 3.2832-1.9015 3.9338-2.7914 3.9338-1.508 0-1.9371-0.50466-3.9254-4.6165-1.0592-2.1903-2.3623-4.6968-2.8959-5.5699l-0.97018-1.5875 0.15984 1.8521c0.0879 1.0186 0.38811 3.2808 0.66709 5.0271 1.7227 10.783 3.0842 23.86 2.9237 28.084-0.0351 0.92335-0.72196 1.3871-1.232 0.83178-0.19841-0.21605-0.4271-2.4675-0.62585-6.1613-0.17225-3.2014-0.66218-8.5593-1.0887-11.906-0.80556-6.3209-0.86432-6.6765-1.9674-11.906-0.85767-4.0662-0.89977-6.7856-0.11717-7.5682 0.42634-0.42634 0.74996-0.51808 1.3818-0.39172 1.7322 0.34644 3.1117 2.3027 5.7531 8.1583 1.309 2.9018 1.8334 3.6757 1.8334 2.7054 0-0.99969 6.3387-12.492 7.5366-13.664 1.1073-1.0834 2.059-0.95379 2.267 0.30883 0.0839 0.50933 0.30688 1.2108 0.49546 1.5587 0.22452 0.41427 0.41966 2.515 0.56531 6.0854 0.29106 7.1353 0.67247 12.188 1.3004 17.227 0.66817 5.3615 1.0152 15.958 0.54139 16.529-0.43847 0.52833-1.4929 0.51952-1.6977-0.0142zm-175.83-0.35785c-0.1664-0.31097-0.2739-2.9419-0.2739-6.7053 0-3.4065-0.079-7.6582-0.175-9.4482l-0.175-3.2546-3.463 0.18764c-9.286 0.50314-10.753 0.60844-10.929 0.7843-0.1042 0.10426-0.1766 2.4754-0.1608 5.2693 0.021 3.7585 0.1743 6.0047 0.5885 8.6359 0.308 1.9559 0.4935 3.7655 0.4123 4.0214-0.2129 0.67064-1.1523 0.89691-1.6514 0.39778-0.7778-0.77785-1.3515-6.0869-1.3662-12.643-0.011-5.0728-0.074-6.0143-0.4103-6.1433-0.6023-0.2311-0.5062-1.5128 0.1258-1.678 0.3355-0.0877 0.572-0.43415 0.6606-0.96742 0.4497-2.7083 1.4634-14.445 1.797-20.807 0.056-1.077 0.1256-1.1906 0.7239-1.1906 0.653 0 0.6624 0.0315 0.7379 2.4789 0.042 1.3634-0.2193 5.4115-0.5809 8.9958-0.3616 3.5843-0.7388 7.6182-0.8382 8.9643l-0.1808 2.4474 1.9523 7e-3c1.0738 4e-3 4.3621-0.1993 7.3073-0.45129l5.3549-0.45814 0.138-21.455h1.3229l0.01 10.848c0 5.9664 0.1032 11.047 0.2188 11.29s0.099 0.66001-0.036 0.92604c-0.1493 0.29313-0.1586 2.0472-0.024 4.4524 0.4858 8.6522 0.6634 15.351 0.4158 15.677-0.3774 0.49629-1.1903 0.39819-1.5003-0.18105zm14.146-0.26308c-2.2828-1.3285-3.6495-3.566-4.7386-7.7577-0.9004-3.4654-1.1026-5.1199-0.6868-5.6209 0.3511-0.42307 1.4676-0.54448 1.6905-0.18383 0.073 0.11813 0.3796 1.4262 0.6813 2.9068 0.7501 3.6808 1.7163 6.1623 2.9413 7.554 1.4632 1.6622 2.2597 1.9294 4.5812 1.5364 3.8316-0.64855 6.6533-2.7291 7.4587-5.4994 0.6283-2.1613 0.3928-7.73-0.5356-12.666-1.0225-5.4364-3.278-13.855-3.3142-12.37-0.029 1.1888-4.1501 4.0398-5.8288 4.0323-0.9073-4e-3 -3.13-0.61622-4.1462-1.142-1.8213-0.94233-3.5772-3.8671-5.2331-8.7171-1.0988-3.2182-1.1413-4.2456-0.1814-4.3814 0.3442-0.0487 0.7342 0.0198 0.8666 0.15224 0.1325 0.13243 0.535 1.3399 0.8944 2.6832 1.2706 4.7475 3.3151 8.112 5.3344 8.7785 3.505 1.1568 6.7499-1.6015 6.7961-5.7768 0.011-0.97887-0.079-2.3236-0.2005-2.9883-0.179-0.98172-0.1368-1.292 0.2248-1.6536 1.0021-1.0021 1.9098-0.28289 2.2766 1.8038 0.1535 0.87313 1.105 5.2784 2.1145 9.7896 2.6873 12.009 2.8651 12.922 3.195 16.418 0.4719 5.0009-0.3223 8.1018-2.6732 10.438-2.162 2.1482-5.3979 3.4421-8.596 3.4371-1.2823-2e-3 -1.8595-0.1546-2.921-0.77237zm121.91 0.59847c-0.4556-0.18224-0.42666-2.8996 0.0892-8.3727 0.38346-4.0687 0.38346-4.4955 0-4.9192-0.58101-0.64202-0.52549-1.1611 0.19082-1.7839 0.54542-0.47424 0.65972-0.98131 1.0694-4.7441 0.75083-6.8966 2.5313-21.028 2.8613-22.711 0.6356-3.2401 2.6337-3.4409 4.1812-0.42017 0.69984 1.366 2.3244 6.5479 3.1953 10.192 0.66182 2.7693 1.6032 8.6829 2.2944 14.414l0.20744 1.7198 0.84098-0.0841c1.5621-0.15621 1.8362 1.6786 0.29683 1.9864-0.67866 0.13573-0.75801 0.24258-0.61205 0.82412 0.24021 0.95707 1.3432 7.6853 1.7318 10.564 0.2648 1.9615 0.26399 2.5212-4e-3 2.8443-0.40453 0.48742-1.168 0.52332-1.5208 0.0715-0.14205-0.1819-0.52224-2.5334-0.84486-5.2255-0.8404-7.0127-1.1227-8.3446-1.7578-8.2922-0.28116 0.0232-1.8209 0.22922-3.4216 0.45785-1.6007 0.22864-3.757 0.41802-4.7916 0.42086l-1.8812 5e-3 -0.16147 1.5214c-0.0888 0.83675-0.29475 3.605-0.45765 6.1516-0.33985 5.3129-0.47404 5.7924-1.5054 5.3799zm7.7211-15.445c1.2998-0.1489 2.886-0.40236 3.5249-0.56324l1.1616-0.2925-0.17205-2.0143c-0.45531-5.3306-1.5422-11.431-2.81-15.773-0.65812-2.2535-2.9276-8.0698-3.1488-8.0698-0.43591 0-2.2638 11.716-3.158 20.241-0.29001 2.7649-0.59488 5.414-0.67748 5.887l-0.1502 0.85989 1.5334-2e-3c0.84334-1e-3 2.5968-0.124 3.8966-0.2729zm-105.87 11.864c-0.151-0.18926-0.353-1.3561-0.4488-2.5931-0.096-1.2369-0.3418-3.8563-0.5468-5.8208-0.2049-1.9645-0.5119-4.9604-0.6821-6.6575-0.2663-2.6559-0.3791-3.1038-0.8095-3.2164-0.604-0.15793-0.6878-1.3719-0.1168-1.6915 0.3325-0.18608 0.3176-0.70515-0.1126-3.9158-0.2728-2.0357-0.743-5.1432-1.0448-6.9056-0.3019-1.7624-0.5488-3.2884-0.5488-3.3911 0-0.10267-0.8045-0.15384-1.7878-0.11369-2.042 0.0834-2.4456-0.0767-2.4456-0.97006 0-0.8458 0.7085-1.1843 2.4786-1.1843 1.3906 0 1.4587-0.0322 1.5388-0.72761 0.065-0.56753 0.2228-0.7276 0.7163-0.7276 0.484 0 1.2195 0.66322 1.2195 1.0997 0 0.0227 1.0715-0.12186 2.3812-0.32134 5.2054-0.79285 8.2714-0.36347 9.6167 1.3468 0.8179 1.0398 1.4553 3.398 1.4646 5.4185 0.014 3.0728-1.9004 6.1834-5.467 8.8825-1.4179 1.073-3.7903 2.3547-5.2531 2.8378-0.3669 0.12119-0.3963 0.33675-0.1936 1.4196 0.5315 2.8384 1.6001 12.54 1.6409 14.898l0.044 2.5178-0.6841 0.0795c-0.3763 0.0437-0.8077-0.0753-0.9588-0.26458zm1.9075-21.601c1.7437-0.91146 5.5333-4.6694 6.2077-6.1557 0.6259-1.3795 0.6826-3.1154 0.1586-4.8564-0.473-1.5717-1.2888-2.4656-2.4486-2.6832-1.0824-0.20307-7.7888 0.37637-8.1286 0.70231-0.1989 0.19081 1.0223 10.183 1.6239 13.288 0.1653 0.85275 0.4537 0.81983 2.587-0.29527zm22.093 21.619c-3.488-0.25734-4.9959-0.72829-5.9456-1.8569-0.5977-0.71033-0.6683-1.0255-0.6627-2.9576 0-1.1894 0.1159-3.5317 0.25-5.2052 0.134-1.6735 0.3274-4.0845 0.4296-5.3578l0.1859-2.3151h-1.1767c-1.3027 0-1.8118-0.34147-1.8118-1.2152 0-0.687 0.4552-0.90143 1.9133-0.90143h1.0763l-0.183-3.5057c-0.1006-1.9282-0.4263-5.2321-0.7236-7.3422-0.696-4.9397-0.6005-6.8949 0.3849-7.8783l0.7221-0.72064h5.5082c4.2797 0 5.6057 0.081 5.9456 0.36313 0.5547 0.46045 0.5554 0.93641 0 1.4898-0.3845 0.38445-0.9503 0.41454-4.8287 0.25673-2.9249-0.11901-4.6363-0.0836-5.1207 0.10603-0.7072 0.27678-0.7276 0.34254-0.7259 2.3418 1e-3 1.1314 0.178 4.2002 0.3933 6.8196 0.2154 2.6194 0.3932 5.5235 0.3952 6.4537v1.6912l4.961-0.19786c2.7285-0.10881 5.6753-0.21499 6.5484-0.23595l1.5875-0.0381 0.081 0.83729c0.06 0.62055-0.043 0.87633-0.3968 0.98817-0.7212 0.22761-7.5589 0.68312-10.294 0.68576l-2.4076 2e-3 -0.2317 4.4318c-0.1274 2.4375-0.2346 5.68-0.2382 7.2056l-0.01 2.7739 0.7563 0.36317c0.444 0.21322 2.465 0.47137 4.8948 0.62521 2.2761 0.14413 4.2873 0.38414 4.4692 0.53337 0.5031 0.41277 0.3952 1.4763-0.1811 1.7847-0.5673 0.30363-1.1529 0.30099-5.5736-0.0252zm193.3-3.0271c-0.22868-0.22867-0.41578-0.62696-0.41578-0.88508 0-0.67175 3.6641-5.4061 7.249-9.3665 1.6884-1.8652 3.0698-3.5321 3.0698-3.7042 2e-5 -0.5423-22.72-0.34905-27.517 0.23405-4.435 0.53909-14.753 0.57381-19.007 0.0639-1.4062-0.16856-6.4858-0.32943-11.288-0.35749-4.8022-0.0281-8.888-0.0668-9.0796-0.0861-0.21823-0.022-0.31704-0.30676-0.26458-0.76264l0.0837-0.72761 7.8052 0.0208c4.2929 0.0115 11.913 0.11617 16.933 0.2327 8.9575 0.20791 10.079 0.17183 20.638-0.66396 1.9645-0.15551 7.1105-0.3649 11.436-0.46532l7.8637-0.18258-2.7947-3.2956c-1.5371-1.8126-3.8049-4.3961-5.0396-5.7412-1.685-1.8356-2.2234-2.5974-2.1586-3.0544 0.0649-0.45811 0.25755-0.60883 0.77801-0.60883 0.55534 0 1.2032 0.59977 3.2864 3.0427 4.1926 4.9165 8.6035 9.7896 8.8609 9.7896 0.45565 0 1.5808 1.9792 1.5808 2.7807 0 1.0036-0.27187 1.3902-3.5235 5.01-1.4451 1.6087-3.6175 4.2489-4.8276 5.8671-1.8658 2.495-2.6191 3.2756-3.161 3.2756-0.0505 0-0.27885-0.1871-0.50752-0.41578zm17.752 0.23939c-0.42917-0.42917-0.0583-1.5852 1.6508-5.1454 1.9124-3.9838 3.5022-7.875 5.4275-13.285 0.63054-1.7718 2.0324-5.1264 3.1153-7.4547 1.0828-2.3283 2.3637-5.222 2.8463-6.4303 0.80039-2.0039 0.93601-2.1899 1.543-2.1167 1.3209 0.15939 1.2755 0.66815-0.42202 4.7236-0.88021 2.1029-2.0985 4.895-2.7072 6.2046s-1.6196 3.7505-2.2464 5.424c-3.1575 8.4312-4.4314 11.542-6.0412 14.751-1.4996 2.9892-1.8494 3.5057-2.3742 3.5057-0.33851 0-0.69485-0.0794-0.79186-0.17639zm20.197-6.1417c-1.4126-0.46276-2.8639-1.3643-3.665-2.2767-1.8307-2.085-3.2141-5.8722-3.2141-8.7987 0-2.2848 1.2446-4.674 2.9883-5.7366 2.392-1.4577 5.5673-1.1848 7.387 0.63486 0.77437 0.77436 1.0018 1.2102 1.0018 1.9198 0 2.2525-2.7198 4.1176-6.3694 4.3678-1.9737 0.13527-2.0973 0.17979-2.0973 0.75536 0 0.96926 1.1529 3.8876 1.9471 4.929 0.85034 1.1148 2.1419 1.7955 3.3845 1.7837 1.091-0.0104 1.7209-0.46224 1.9573-1.404 0.3886-1.5483 2.5006-1.5213 2.5006 0.032 0 0.88528-1.3177 3.0695-2.1065 3.4916-0.74114 0.39665-2.8916 0.57146-3.7144 0.30195zm0.51341-12.931c1.0781-0.54792 1.2464-0.91391 0.68052-1.4798-1.1211-1.1211-3.7358-0.59532-4.5129 0.90747-0.21187 0.40972-0.38522 0.81038-0.38522 0.89037 0 0.36711 3.3694 0.11306 4.2176-0.318zm104.57 12.086c-1.7845-0.87061-2.0489-1.1994-1.791-2.2269 0.23346-0.9302 1.1848-1.0907 2.4969-0.42132 1.335 0.68108 2.1827 0.69678 2.9752 0.0551 0.78204-0.63326 0.83068-2.1442 0.0955-2.965-0.28376-0.31678-1.3494-0.96179-2.368-1.4334-2.8456-1.3174-3.8365-2.6412-3.8365-5.1262 0-2.383 2.2625-4.7971 4.4959-4.7971 1.9033 0 4.5 1.8457 4.5 3.1986 0 1.2692-1.2487 1.387-2.554 0.24099-1.278-1.1221-2.2574-1.1539-3.2007-0.10395-0.39491 0.43956-0.59531 0.9984-0.59531 1.6601 0 1.261 0.66629 1.9142 2.7424 2.6884 2.1342 0.79589 3.4659 2.1706 3.8754 4.0007 0.55764 2.4918-0.34156 4.3359-2.7012 5.5397-1.363 0.69534-2.2032 0.63238-4.1344-0.30981zm-96.455-0.11935c-0.23594-0.23594-0.42899-0.56239-0.42899-0.72543 0-0.39804 1.9219-3.635 3.3847-5.7008l1.1821-1.6694-0.75674-0.84417c-0.4162-0.4643-1.4541-1.5722-2.3065-2.4621-1.1628-1.214-1.5275-1.7755-1.4605-2.249 0.0634-0.44803 0.28326-0.65369 0.75827-0.70911 0.53736-0.0627 1.0995 0.36292 2.8562 2.1627l2.1872 2.2408 1.7568-2.6386c1.5402-2.3133 1.8404-2.6288 2.4355-2.5596 1.2685 0.14766 1.0279 1.1009-1.032 4.0886-1.1492 1.6668-1.8132 2.87-1.694 3.07 0.10779 0.18083 0.52413 0.7455 0.92521 1.2548 1.2283 1.5598 2.6118 4.0366 2.6118 4.6758 0 0.42181-0.19636 0.65512-0.64642 0.76808-0.86719 0.21765-1.0169 0.0932-2.0126-1.6735-1.1186-1.9849-2.1155-3.2812-2.4399-3.1731-0.14272 0.0476-1.118 1.5102-2.1674 3.2504-1.0493 1.7401-2.0914 3.1996-2.3158 3.2432-0.22436 0.0437-0.60097-0.11368-0.83691-0.34963zm83.234-1.3619c-1.169-0.57617-2.7967-2.4692-3.6877-4.2889-1.2904-2.6355-1.1234-6.923 0.35794-9.1901 0.88299-1.3514 1.7649-1.9797 3.0144-2.1472 3.2997-0.44258 5.5385 1.7943 4.7451 4.7409-0.57807 2.1468-2.5307 3.3846-5.3443 3.388-0.82835 9.7e-4 -1.2567 0.11421-1.2566 0.3322 5e-4 0.78979 1.5872 3.5831 2.4812 4.368 1.4621 1.2837 2.1135 1.1608 3.8686-0.73001 1.4633-1.5764 2.2164-1.9111 2.8575-1.27 0.17463 0.17463 0.31743 0.56158 0.31733 0.8599-2.5e-4 0.81445-2.2873 3.5729-3.3202 4.0045-1.1841 0.49474-2.9531 0.46529-4.0334-0.0671zm0.54026-9.891c1.8337-0.50924 2.3095-2.887 0.66055-3.3009-1.3681-0.34339-2.5068 0.69105-3.1221 2.8362-0.20174 0.70342-0.16823 0.74298 0.62832 0.74158 0.46278-8.1e-4 1.2877-0.12542 1.8332-0.2769zm-67.513 9.1031c-4.1614-2.0737-3.8394-7.6087 0.59045-10.149 1.1478-0.65829 1.6643-0.78753 3.1555-0.78961 1.118-2e-3 2.2776 0.18542 3.1088 0.50127l1.3258 0.50374v-0.8477c0-0.98913 0.40318-1.4827 1.2112-1.4827 0.82207 0 1.0315 0.35191 1.9712 3.3119 0.46116 1.4527 1.3112 3.8594 1.8889 5.3481 1.2546 3.2331 1.2646 4.1351 0.0475 4.2533-1.0371 0.10068-1.3348-0.29115-2.5026-3.2931l-0.86834-2.2323-0.69601 1.5316c-0.73858 1.6253-2.1614 3.0787-3.6037 3.6814-1.482 0.61922-4.0146 0.4678-5.6286-0.33653zm5.9799-2.8342c0.516-0.56173 1.0579-1.6156 1.3996-2.7218 0.6519-2.1106 0.61402-2.1732-1.7689-2.9244-1.3102-0.413-1.4897-0.41231-2.8325 0.011-3.227 1.0172-4.3074 4.337-1.9734 6.0636 1.6266 1.2033 3.845 1.0197 5.1752-0.42842zm51.06 3.0936c-0.097-0.097-0.17639-4.0931-0.17639-8.8801 0-4.787-0.13455-10.452-0.29901-12.59-0.16445-2.1373-0.31328-4.8981-0.33073-6.135-0.0295-2.0908 7e-3 -2.2545 0.5206-2.3279 0.30378-0.0434 0.68451 0.0804 0.84608 0.27505 0.58445 0.70421 1.5894 28.347 1.0678 29.371-0.23058 0.45267-1.2779 0.63704-1.6283 0.28663zm-22.254-1.7346c-0.25844-0.36898-0.41187-1.1627-0.41187-2.1306 0-2.0254-0.69468-5.0216-1.3605-5.8681-1.1462-1.4572-2.2118-0.67363-2.8976 2.1306-0.46288 1.8929-0.95464 2.7221-1.7298 2.9166-0.59621 0.14964-0.87276-0.0366-2.1-1.4144-0.77737-0.8727-1.7789-1.7381-2.2257-1.9232-0.71257-0.29516-0.88055-0.27533-1.3679 0.16144-0.30559 0.27386-0.96669 1.3611-1.4691 2.4162-0.85718 1.8-0.96648 1.9182-1.7728 1.9182-1.2382 0-1.9069-0.86696-2.6672-3.4582-0.83976-2.8619-0.83901-3.3533 6e-3 -3.7382 0.85984-0.39177 1.4136 0.11016 1.98 1.7946l0.40225 1.1964 0.86183-1.2227c1.1877-1.685 2.8598-2.4388 4.3927-1.9803 0.5966 0.17844 1.3824 0.52959 1.7462 0.78034 1.2593 0.868 1.2918 0.86478 1.7244-0.17065 1.0726-2.567 3.8688-3.7804 5.9198-2.5688 1.9302 1.1402 3.1966 4.8678 3.2017 9.4244 2e-3 1.4869-0.0815 1.8213-0.50977 2.0505-0.78368 0.41942-1.2706 0.3306-1.7222-0.31414zm131.52-6.8864c-0.5426-0.86486-0.8921-2.1667-1.2253-4.5641-0.16179-1.1642-0.70444-4.2173-1.2059-6.7846-0.50144-2.5674-0.91172-4.8901-0.91172-5.1615 0-0.53719-1.1714-2.9134-1.7244-3.498-0.18881-0.1996-2.3486-0.86961-4.7996-1.4889-5.4421-1.3751-6.2388-1.6836-9.0865-3.518-6.6871-4.3077-9.2259-7.3436-11.271-13.478-0.83546-2.5059-1.1463-7.0702-0.65723-9.6507 0.9457-4.9897 2.9645-9.2361 5.7068-12.004 3.8525-3.888 6.0508-5.0391 14.052-7.3581 2.7787-0.80537 6.1999-1.8798 7.6028-2.3876 1.4029-0.50781 4.0639-1.3021 5.9134-1.765 2.9689-0.74312 3.6237-0.82163 5.5915-0.67037 6.3515 0.48821 12.35 3.1958 16.655 7.5178 1.579 1.5852 2.1606 2.4236 3.2534 4.6892 1.4015 2.9056 2.6476 7.216 3.708 12.826 0.49965 2.6435 0.53739 3.3062 0.28847 5.0664-0.36162 2.557-1.9593 7.5851-3.012 9.4787-3.3052 5.9459-10.475 11.61-16.909 13.358-2.3559 0.64009-2.5365 0.89148-3.1451 4.3771-0.91334 5.2312-3.5926 12.062-5.6819 14.486-0.78628 0.91228-1.1389 1.1245-1.8685 1.1245-0.64558 0-1.0047-0.16797-1.2728-0.59531zm2.4664-3.8846c1.716-2.6742 3.3933-7.0892 3.9773-10.469 1.0356-5.9941 1.2999-6.3072 6.7499-7.998 3.1651-0.9819 9.1817-5.2756 11.71-8.3565 2.3296-2.8392 4.437-8.2254 4.7298-12.088 0.18149-2.3953-0.80304-8.7016-1.9001-12.171-1.8926-5.985-5.2295-9.8464-11.07-12.811-3.4428-1.7471-5.922-2.3463-9.8189-2.3732-3.6538-0.0252-4.1047 0.0856-18.301 4.4986-10.004 3.1097-14.525 7.397-16.801 15.93-0.76203 2.8576-0.92908 7.1032-0.36619 9.3068 0.62803 2.4587 2.8119 6.7758 4.2497 8.4008 1.2182 1.3769 6.3431 5.0078 8.8897 6.2983 1.4775 0.74872 6.8304 2.3484 8.8345 2.6401 2.2602 0.32902 3.1115 0.80712 4.085 2.2942 0.76672 1.1712 1.0204 2.0117 1.7751 5.8816 0.48428 2.4833 1.1328 6.182 1.4411 8.2193 0.52333 3.4579 0.66272 4.101 0.88889 4.101 0.049 0 0.46591-0.58722 0.92646-1.3049zm13.769-24.982c-1.6528-0.35621-2.5048-0.87163-3.2108-1.9424-0.93763-1.422-0.55562-8.4665 0.57982-10.692 0.85808-1.682 1.4636-1.9241 4.3776-1.7502 2.5495 0.1521 3.281 0.42602 3.281 1.2286 0 0.86694-0.58335 1.0789-2.9699 1.0789-2.3035 0-2.3386 0.01-2.6124 0.7276-0.15264 0.40018-0.34434 1.2886-0.42599 1.9744l-0.14846 1.2468 5.2307 0.1524v1.8521l-5.424 0.1508v1.3069c0 1.1598 0.0819 1.3484 0.72761 1.6762 0.40018 0.20312 1.3229 0.45545 2.0505 0.56072 0.7276 0.10528 1.4717 0.31391 1.6536 0.46363 0.45946 0.37817 0.41348 1.4098-0.085 1.9083-0.48091 0.48091-1.0135 0.49106-3.0243 0.0577zm-7.7284-0.89869c-0.22147-0.25466-0.98406-1.5941-1.6947-2.9766l-1.292-2.5135-0.0796 1.8461c-0.10573 2.4517-0.94723 3.4392-2.0182 2.3683-0.34845-0.34846-0.41577-1.2203-0.41577-5.3848 0-4.7175 0.0301-5.0133 0.59531-5.8438 1.0467-1.5379 1.891-1.9817 3.7703-1.9817 1.9592 0 2.8923 0.52422 3.6524 2.0521 0.39623 0.79644 0.42934 1.1381 0.19475 2.0093-0.32181 1.1951-1.6113 2.4647-3.0213 2.9745l-0.92893 0.33591 0.81023 0.9228c1.0542 1.2007 2.8777 4.977 2.6796 5.5494-0.37392 1.0806-1.5735 1.4225-2.2523 0.64195zm-1.7153-9.584c1.4558-0.98252 1.873-1.4771 1.677-1.9881-0.21039-0.54829-1.9776-0.52267-2.5968 0.0376-0.32733 0.29622-0.48386 0.80978-0.48386 1.5875 0 0.63229 0.0536 1.1496 0.11903 1.1496 0.0655 0 0.64355-0.354 1.2846-0.78666zm-11.581 8.592c-0.79088-0.20722-1.5544-0.62393-1.9182-1.0469-0.57417-0.6675-0.60437-0.91107-0.60437-4.8738 0-4.0257 0.0254-4.2212 0.7276-5.6076 0.9376-1.8511 1.8982-2.3616 4.445-2.3621 2.003-4.4e-4 2.5003 0.24815 2.5003 1.2497 0 0.75988-0.86064 1.1312-2.622 1.1312-1.4196 0-1.9882 0.42954-2.2767 1.7198-0.0976 0.43656-0.22697 0.97999-0.28743 1.2076-0.0925 0.34814 0.18981 0.41118 1.7771 0.39688 1.52-0.0137 1.9447 0.0731 2.1837 0.44602 0.34037 0.53126-0.0346 1.355-0.65504 1.4389-0.20269 0.0274-1.0531 0.12529-1.8899 0.21747l-1.5214 0.16762v1.4038c0 0.93973 0.13436 1.5153 0.40646 1.7411 0.22355 0.18554 1.3249 0.3935 2.4474 0.46215 2.2369 0.13679 2.7024 0.35207 2.7024 1.2497 0 0.32817-0.14883 0.714-0.33073 0.85741-0.56798 0.4478-3.6738 0.57065-5.0842 0.20111zm-7.0112-0.37967c-0.15064-0.28147-0.27389-1.7264-0.27389-3.211v-2.6992l-1.2276 0.16825c-0.67516 0.0925-2.0014 0.16826-2.9472 0.16826h-1.7196l0.14893 1.6425c0.1708 1.8836-0.0963 2.5909-0.97839 2.5909-1.1832 0-1.3036-0.50203-1.4287-5.9592l-0.11747-5.1261 0.69881-0.17539c1.2022-0.30174 1.4857 0.21231 1.4857 2.6942v2.2166h1.4164c0.77902 0 2.1482-0.0765 3.0427-0.16998l1.6263-0.16998v-2.4708c0-2.4183 0.0141-2.4744 0.66489-2.6377 1.2908-0.32397 1.3557-0.0409 1.5327 6.6869 0.11457 4.3545 0.0771 6.3764-0.12265 6.6171-0.42855 0.51638-1.4883 0.41917-1.801-0.1652zm22.516-15.562c-0.13622-0.25466-0.39792-1.227-0.58157-2.1607-0.44663-2.2709-1.1389-2.9771-3.8857-3.9636l-2.1828-0.78399v2.1981c0 2.4406-0.2461 2.8894-1.5054 2.745l-0.7436-0.0853v-4.5059c0-4.313 0.0289-4.562 0.67591-5.8184 0.40893-0.7941 1.1234-1.627 1.8087-2.1087 1.05-0.73799 1.3018-0.79617 3.4445-0.79617 2.0089 0 2.4336 0.0835 3.2422 0.6376 1.3632 0.9341 2.0734 2.1079 2.0734 3.4268 0 1.4098-0.56214 2.5157-1.5862 3.1206-0.94739 0.55964-0.96366 0.65306-0.22752 1.3068 0.88455 0.78551 1.5668 2.5967 1.7353 4.6069 0.10823 1.2909 0.0545 1.9571-0.18079 2.2406-0.46006 0.55434-1.7783 0.51669-2.0866-0.0596zm-1.1053-10.242c1.6522-1.4952-1.2258-3.2749-3.5692-2.2072-0.64802 0.29526-1.711 1.9202-1.711 2.6155 0 0.21914 0.68089 0.27493 2.3698 0.19419 1.8226-0.0871 2.4947-0.22629 2.9104-0.60254zm-22.721 7.9143c-1.4303-0.81759-1.6826-1.12-2.7479-3.2944-0.7838-1.5998-0.84269-1.9136-0.84433-4.4979l-2e-3 -2.7781 0.68411-0.0795c0.95681-0.11123 1.1777 0.29693 1.5212 2.8112 0.35002 2.562 0.9938 4.1773 2.0582 5.1643 1.2732 1.1806 2.7852 0.78953 3.7379-0.96671 0.33557-0.61865 0.49404-1.719 0.5938-4.1234 0.14858-3.581 0.32964-3.9731 1.6786-3.6345 0.90997 0.22839 1.0953 0.95358 1.091 4.2683-4e-3 3.1349-0.61479 4.8533-2.2495 6.3302-1.736 1.5684-3.6841 1.8509-5.5213 0.8007zm-410.52 19.925c-0.7276-0.46611-2.8112-1.6247-4.6302-2.5747-3.6854-1.9246-3.8739-2.1774-2.8577-3.8317 1.3161-2.1424 2.6683-3.116 5.8396-4.2045 0.4355-0.14945 0.4541-0.5016 0.2646-4.9957-0.1121-2.6592-0.2038-6.2636-0.2038-8.0099v-3.175h1.5875l0.1645 4.3656c0.09 2.4011 0.2521 5.8185 0.3592 7.5942l0.1947 3.2285 1.6673-0.1557c1.5447-0.14424 1.7177-0.10527 2.3528 0.52976 0.8424 0.8424 0.8507 1.2349 0.1325 6.2372-0.5997 4.1762-0.9662 5.2068-1.9905 5.5962-1.0374 0.39439-1.4599 0.30574-2.8805-0.60431zm-0.5349-5.525c-0.2361-1.3613-0.4526-2.4983-0.481-2.5267-0.1622-0.16224-3.8016 1.5769-4.0765 1.948-0.2921 0.39443-0.035 0.60109 2.249 1.806 1.4183 0.74836 2.6146 1.3352 2.6584 1.3042 0.044-0.0311-0.1137-1.1703-0.3499-2.5316zm3.453-2.9867c0.1826-0.94708 0.157-1.0175-0.301-0.82987-0.2753 0.11274-0.7088 0.26489-0.9635 0.33812-0.5726 0.16465-0.5729 0.36032 0 3.4958l0.4581 2.5288 0.306-2.249c0.1683-1.2369 0.3957-2.7146 0.5054-3.2838zm-34.996-9.3678c-0.4071-0.25852-0.9569-4.7892-1.5692-12.93-0.41-5.4521-0.5142-6.1488-0.936-6.2591-0.6776-0.17721-0.6538-1.6686 0.03-1.8857 0.2776-0.0881 0.5715-0.33425 0.6531-0.547 0.1996-0.51994 1.488-0.51121 1.488 0.0101 0 0.32242 0.4343 0.39715 2.3151 0.39835 2.9607 2e-3 4.0607 0.31819 5.0584 1.4545 1.3531 1.5411 1.3654 3.8038 0.03 5.5014-0.8152 1.0364-3.5579 2.3022-4.9985 2.307-1.8986 6e-3 -1.9836 0.13455-1.7786 2.6822 0.098 1.2147 0.3692 3.6602 0.6034 5.4346 0.2342 1.7744 0.3546 3.4115 0.2677 3.638-0.1713 0.44644-0.6439 0.52593-1.1637 0.19575zm2.961-14.629c1.2325-0.34219 2.7905-1.7953 2.7905-2.6027 0-0.31221-0.2922-0.85989-0.6494-1.2171-0.5882-0.58819-0.8627-0.64943-2.9104-0.64943h-2.261v4.7625l0.9922-1e-3c0.5457-8.1e-4 1.4628-0.13214 2.0381-0.29185zm74.379 13.817c-0.08-0.12881-0.6323-2.5398-1.2283-5.3578-0.7438-3.5174-1.0973-5.8701-1.1276-7.5049l-0.044-2.3812 0.7253-0.0835c0.9255-0.10654 1.1117 0.34928 1.493 3.6554 0.1595 1.3824 0.7116 4.359 1.2269 6.6146 1.0528 4.608 1.0363 5.2917-0.1274 5.2917-0.4252 0-0.8382-0.10539-0.9178-0.23419zm-9.8084-0.83229c-2.7731-1.0686-4.3656-3.1725-4.3656-5.7678 0-1.1933 0.1182-1.5046 0.8923-2.3492 0.8199-0.89478 1.0308-0.98244 2.6044-1.0826 4.4196-0.28142 5.4497 3.2667 1.482 5.1049-1.1054 0.51215-1.2247 0.63979-0.8719 0.93257 0.6718 0.55757 2.8183 0.62556 4.4818 0.14196 1.4302-0.41579 1.5519-0.41512 2.0229 0.011 0.2755 0.2494 0.501 0.78363 0.501 1.1872 0 0.64795-0.172 0.79809-1.4711 1.2842-1.2895 0.48243-3.4391 1.0759-3.8206 1.0548-0.073-4e-3 -0.7276-0.2367-1.4552-0.51706zm-0.6614-6.2096 0.926-0.35662-0.8275-0.0201c-0.4551-0.0111-0.9757 0.15847-1.1569 0.37675-0.3938 0.4746-0.174 0.4746 1.0584 0zm16.339 5.4353c-1.2296-0.2386-1.9832-0.89069-2.6122-2.2603-0.6159-1.3413-0.6148-2.3622 0-3.725 0.6627-1.4591 1.6935-2.2282 2.9866-2.2282 2.1531 0 3.2791 1.2637 2.5959 2.9132-0.33752 0.81482-1.7234 1.8493-2.4775 1.8493-0.2375 0-0.4318 0.11488-0.4318 0.25528 0 0.45698 0.99594 0.80306 2.311 0.80306 0.70806 0 1.4303 0.14287 1.6049 0.3175 0.5031 0.5031 0.38575 1.744-0.19427 2.0544-0.56953 0.3048-2.2747 0.31411-3.7868 0.0207zm25.73-1.1327c-2.5404-1.361-3.0834-3.739-1.553-6.8016 1.4303-2.8623 3.8642-3.8706 6.4779-2.6836 3.3561 1.5241 0.74458 5.3069-3.6682 5.3134-0.8831 1e-3 -0.99219 0.0746-0.99219 0.66682 0 0.46349 0.26089 0.82918 0.8599 1.2054 0.85679 0.53806 2.004 0.56781 3.927 0.10185 0.83656-0.20271 1.6287 0.47829 1.511 1.2991-0.11361 0.79285-1.3528 1.2953-3.5146 1.425-1.5875 0.0953-2.0302 0.0188-3.0479-0.52638zm3.5614-6.908c0.34385-0.25143 0.39622-0.41292 0.17769-0.54798-0.3463-0.21402-2.0603 0.27812-2.2958 0.65919-0.23657 0.38278 1.5724 0.28781 2.1181-0.11121zm26.667 6.9374c-0.1819-0.18518-0.33073-0.65549-0.33073-1.0451 0-0.82159 0.3494-1.1595 1.4552-1.4073 1.0978-0.24604 2.249-0.71883 2.249-0.9237 0-0.0939-0.63932-0.55306-1.4207-1.0204-2.7912-1.6695-2.5754-4.153 0.48588-5.592 1.9694-0.92573 3.2063-0.59363 3.0057 0.80697-0.0617 0.43078-0.39725 0.71881-1.1728 1.0068-0.59747 0.22183-1.2857 0.56972-1.5293 0.77309-0.39943 0.33336-0.30614 0.43816 0.94777 1.0647 2.4601 1.2292 3.2889 3.3876 1.9238 5.0099-0.7473 0.88811-1.6762 1.2515-3.8278 1.4975-1.0189 0.11648-1.5544 0.0654-1.7859-0.17033zm-38.638-0.4293c-0.29161-0.25466-0.73918-1.0324-0.99459-1.7284-0.56057-1.5275-0.74192-1.664-1.5026-1.1312-1.2154 0.85127-2.3173 0.50322-3.4031-1.0748-0.4385-0.63733-0.91061-1.1588-1.0491-1.1588-0.13952 0-0.25188 0.99477-0.25188 2.2301 0 1.6746-0.10357 2.3336-0.41577 2.6458-0.55955 0.55955-1.2564 0.5239-1.8146-0.0928-0.52729-0.58264-1.7383-4.3069-1.7384-5.346-4e-5 -0.86361 0.60786-1.3995 1.3634-1.2019 0.3541 0.0926 0.8225-0.0469 1.2277-0.36565 1.0361-0.815 2.4245-0.67773 3.6229 0.3582l1.0106 0.87357 0.59822-0.59823c1.256-1.2559 3.1073-1.0116 4.0596 0.53587 0.28051 0.45582 0.74936 1.766 1.0419 2.9115 0.56002 2.193 0.46323 3.1223-0.35799 3.4375-0.64903 0.24905-0.81337 0.21437-1.3963-0.29465zm30.808-0.0807c-0.85445-0.67211-1.4968-2.7171-1.4968-4.7651 0-1.2861-0.078-1.529-0.52917-1.647-0.35702-0.0934-0.52917-0.3609-0.52917-0.82237 0-0.39744 0.22169-0.82243 0.52917-1.0145 0.44181-0.27591 0.52917-0.61701 0.52917-2.0662 0-2.0161 0.41573-3.1158 1.2602-3.3334 1.0703-0.27587 1.3856 0.3036 1.3856 2.5463v2.0476l1.1791-0.26982c1.2961-0.2966 1.9959 9e-3 1.9959 0.8724 0 0.64814-0.46552 0.96807-1.954 1.3429l-1.2855 0.3237 0.12512 1.9495c0.0688 1.0722 0.18306 2.0074 0.25389 2.0783 0.0708 0.0708 0.49118-0.052 0.93411-0.27297 0.90385-0.4509 1.5476-0.30824 1.9431 0.43058 0.34016 0.6356 0.0321 1.2264-1.2064 2.3138-1.1123 0.97664-2.1376 1.0703-3.1343 0.28633zm-11.899-1.1647c-0.40389-0.40389-0.88063-2.6097-1.1476-5.3096-0.12773-1.2918-0.0747-1.663 0.2798-1.9571 0.32677-0.2712 0.59025-0.29338 1.0417-0.0877 0.51968 0.23678 0.67367 0.17203 1.1002-0.46258 1.1615-1.7282 3.0154-2.0591 4.455-0.7952 1.1672 1.0248 1.9108 2.7924 2.2724 5.4014 0.24613 1.7757 0.22856 2.1859-0.11611 2.712-0.41947 0.64019-1.05 0.78271-1.6845 0.38079-0.20127-0.12749-0.5338-1.2218-0.74243-2.4434-0.39117-2.2903-1.0368-3.9622-1.5971-4.1357-0.61803-0.19138-1.3281 1.529-1.6423 3.9792-0.17067 1.3308-0.43799 2.5735-0.59405 2.7616-0.37707 0.45434-1.1477 0.43366-1.625-0.0436zm-108.64-7.6629c-0.4264-0.51373-1.39-6.7641-1.2868-8.3462 0.071-1.0843 0.1474-1.2082 0.7935-1.2827 0.491-0.0567 0.8195 0.0846 1.048 0.4505 0.3282 0.52543 0.3523 0.52189 1.6983-0.24821 1.5112-0.86459 2.2666-0.9744 2.7442-0.39892 0.6231 0.75074 0.2119 1.5698-1.1036 2.1984-0.6864 0.32798-1.3952 0.86376-1.575 1.1906-0.1799 0.32686-0.3922 1.9635-0.4718 3.637-0.1443 3.0325-0.1471 3.043-0.8289 3.1222-0.3763 0.0437-0.8343-0.10148-1.0179-0.32271zm16.708-0.749c-0.7624-0.92518-1.1971-7.9482-0.5331-8.6122 0.457-0.45696 1.2028-0.39064 1.4958 0.13303 0.189 0.33771 0.3414 0.37848 0.6085 0.16284 0.732-0.59093 1.9161-0.63733 2.8894-0.1132l0.9455 0.50921 0.7361-0.92245c1.4381-1.8023 3.2688-2.3926 4.8633-1.5681 1.3973 0.72257 2.0996 2.7161 2.5587 7.2632 0.1815 1.7977-0.2102 2.6846-1.1856 2.6846-0.8378 0-1.2261-0.89385-1.5475-3.562-0.3507-2.9111-0.8074-3.9249-1.7104-3.7964-0.5994 0.0853-1.8704 2.2626-2.1548 3.6912-0.2962 1.4882-1.6222 1.1846-2.7765-0.63551-1.3704-2.1608-1.9276-1.6192-2.2344 2.1716-0.099 1.229-0.3097 2.3898-0.4672 2.5797-0.3632 0.43754-1.133 0.44502-1.4878 0.0145zm-6.9698-1.1651c-0.2626-0.31637-0.3892-1.5584-0.4572-4.4858l-0.094-4.0484 0.7307-0.18338c1.1786-0.29582 1.4415 0.35621 1.4449 3.5832 0 1.5365 0.073 3.2195 0.1594 3.7398 0.2433 1.4706-0.9476 2.4017-1.7836 1.3945zm32.245-0.64308c-0.8118-0.47275-1.4926-2.2297-1.8216-4.7009-0.2797-2.1003-0.3868-2.4056-0.8683-2.4744-0.8001-0.11436-0.7714-1.5686 0.038-1.9237 0.5483-0.24064 0.5921-0.4507 0.6614-3.175 0.072-2.8415 0.091-2.9196 0.7001-3.0059 1.0427-0.14753 1.1912 0.28455 1.1227 3.2666l-0.064 2.7941 0.613-0.14456c0.3372-0.0795 1.4899-0.17307 2.5615-0.20793 1.6101-0.0524 2.0003 0.017 2.2476 0.39965 0.5441 0.84195-0.1022 1.3666-1.9736 1.6022-0.9313 0.11725-2.0956 0.27436-2.5874 0.34915l-0.8942 0.13597 0.1755 1.5029c0.2942 2.5201 0.638 3.4873 1.2397 3.4873 0.3532 0 0.6563-0.2965 0.9005-0.88096 0.6368-1.5239 1.6984-1.945 2.339-0.92773 0.3459 0.54935-0.3908 2.304-1.4383 3.4252-0.7571 0.81055-2.0269 1.0162-2.9513 0.47787zm28.643-0.74704c-1.1421-0.23982-2.5754-0.96049-3.3992-1.7091-2.6026-2.365-1.9549-7.5903 1.1596-9.3542 1.833-1.0382 3.9299-0.60728 4.7486 0.97601 0.58457 1.1304 0.49874 1.7314-0.3922 2.7461-0.7894 0.8991-2.314 1.4959-3.8215 1.4959-0.5277 0-0.6766 0.13262-0.6766 0.60259 0 1.5548 2.0042 2.837 4.4345 2.837 0.84978 0 1.688 0.14288 1.8626 0.3175 0.41439 0.4144 0.40691 1.3975-0.0132 1.7372-0.46289 0.37418-2.794 0.58389-3.9026 0.35108zm0-8.4994c0-0.49625-0.8273-0.60076-1.2679-0.16016-0.401 0.40101-0.3701 0.43305 0.4174 0.43305 0.4678 0 0.8505-0.1228 0.8505-0.27289zm-12.438 7.0919c-1.3527-1.8296-4.2307-6.9438-4.2307-7.5179 0-0.6478 0.8667-1.2834 1.4466-1.0608 0.1907 0.0732 0.8569 1.0646 1.4803 2.2032 1.3448 2.4562 2.3648 4.0225 2.3648 3.6315 0-0.9222 1.0776-6.0284 1.3386-6.3429 0.4046-0.48746 1.4173-0.48599 1.8229 3e-3 0.419 0.50496-0.5828 7.212-1.3166 8.8137-0.4554 0.99416-0.6171 1.1245-1.3949 1.1245-0.6844 0-1.0198-0.18955-1.511-0.85393zm-23.892-0.50969c-0.3807-0.21305-0.447-0.71859-0.447-3.407v-3.1568l0.7026-0.17635c1.1377-0.28555 1.4146 0.39365 1.41 3.458 0 1.4638-0.091 2.7892-0.1985 2.9453-0.3104 0.45339-0.9829 0.60781-1.4671 0.33687zm16.508-0.85869c-0.1983-0.23895-0.2801-1.2475-0.2308-2.8443l0.076-2.474h0.7912c0.6649 0 0.8182 0.12662 0.9608 0.79375 0.2266 1.0594 0.2729 3.9521 0.072 4.4763-0.1987 0.51788-1.2543 0.54842-1.6694 0.0483zm-42.686-6.2656c-0.2743-0.15978-0.463-0.58574-0.463-1.0452 0-1.0558 1.1083-1.3825 1.9238-0.567 0.4718 0.47182 0.5078 0.65109 0.2461 1.2254-0.321 0.70456-0.926 0.8417-1.7069 0.3869zm24.871-1.5875c-0.2744-0.15978-0.463-0.58574-0.463-1.0452 0-1.0558 1.1082-1.3825 1.9237-0.567 0.4718 0.47182 0.5078 0.65109 0.2462 1.2254-0.321 0.70456-0.9261 0.8417-1.7069 0.3869zm16.14-1.3229c-0.5873-0.34203-0.6188-1.7145-0.044-1.9349 0.7564-0.29028 1.1509-0.16955 1.5785 0.48311 0.7719 1.178-0.2857 2.1788-1.534 1.4518z" fill="#fff"/></g></svg>
