<?xml version="1.0" encoding="UTF-8"?>
<!-- Created with Inkscape (http://www.inkscape.org/) -->
<svg width="594.18mm" height="370.8mm" version="1.1" viewBox="0 0 594.18 370.8" xml:space="preserve" xmlns="http://www.w3.org/2000/svg"><g transform="translate(698.06 231.62)"><path d="m-681.86 139.05c-0.58208-0.046-2.1299-0.21225-3.4396-0.36939-1.3097-0.15714-3.2959-0.5828-4.4138-0.94592-1.1179-0.36312-2.5011-0.99961-3.0737-1.4144-0.58959-0.4271-1.3001-1.2891-1.6382-1.9874-0.46541-0.96141-0.62671-1.8603-0.73186-4.0788-0.0742-1.5651 2e-3 -6.1108 0.16849-10.102 0.16686-3.9908 0.42499-11.006 0.57363-15.59 0.14864-4.5839 0.51138-11.549 0.80608-15.478 0.29471-3.9291 0.60194-10.597 0.68273-14.817 0.11958-6.2461 0.0433-9.1489-0.41037-15.61-0.3065-4.3656-0.6954-10.2-0.86422-12.965-0.19911-3.261-0.29626-13.672-0.27653-29.633 0.0167-13.533-0.0799-31.512-0.21482-39.952-0.13489-8.4402-0.36371-17.191-0.50851-19.447-0.14479-2.2556-0.39449-6.4823-0.5549-9.3927-0.1604-2.9104-0.63516-9.2803-1.055-14.155-0.41985-4.875-0.90197-10.751-1.0714-13.058-0.23063-3.1411-0.23585-6.8965-0.0208-14.949 0.15796-5.9147 0.3558-19.684 0.43964-30.598 0.0838-10.914 0.27209-21.328 0.41833-23.142s0.39268-3.8976 0.54763-4.6302c0.15496-0.73262 0.45919-1.6892 0.67606-2.1258 0.21688-0.43656 0.76794-1.1909 1.2246-1.6762 0.45666-0.48536 1.1875-1.0771 1.624-1.315 0.57018-0.3107 1.4272-0.42627 3.0427-0.4103 1.2369 0.0122 3.1173 0.15936 4.1787 0.32698s4.0379 0.42396 6.6146 0.56965c2.5767 0.14569 6.1732 0.43731 7.9922 0.64805 1.819 0.21074 5.629 0.57277 8.4667 0.80451 2.8377 0.23173 5.9778 0.53521 6.9782 0.67438 1.0003 0.13918 4.215 0.38777 7.1438 0.55242 2.9287 0.16465 11.754 0.30505 19.612 0.312 11.498 0.0102 15.295-0.0772 19.447-0.44745 2.8377-0.25304 6.4095-0.62971 7.9375-0.83705 1.528-0.20733 4.1879-0.49543 5.9109-0.64022s7.0213-0.3862 11.774-0.53648c4.7527-0.15027 13.88-0.42228 20.283-0.60446 7.2317-0.20576 17.956-0.28112 28.31-0.19894 9.1678 0.0728 21.729 0.13229 27.914 0.13229 6.1846 0 13.421-0.10685 16.081-0.23744 4.7554-0.23348 4.8464-0.22788 5.4455 0.33493 0.60533 0.56868 0.60856 0.60776 0.50034 6.0583-0.1012 5.0973-0.031 6.1794 0.99072 15.275 0.60481 5.3843 1.1671 11.767 1.2494 14.184 0.14456 4.2403 0.12996 4.414-0.41693 4.9609-0.40535 0.40535-0.89411 0.56674-1.7164 0.56674-0.83615 0-1.287-0.15287-1.6536-0.56063-0.44914-0.49958-0.49571-0.92453-0.4277-3.9026 0.042-1.8381-0.0541-5.6042-0.21344-8.3691-0.15937-2.7649-0.58733-7.5869-0.95101-10.716-0.36369-3.1287-0.73159-7.4494-0.81756-9.6015l-0.1563-3.913-1.0857 0.14557c-0.59712 0.0801-3.2883 0.2632-5.9805 0.40698s-10.431 0.33654-17.198 0.42836c-10.176 0.13808-13.272 0.0911-17.906-0.27181-3.0816-0.24132-10.999-0.55166-17.595-0.68965-6.5955-0.13798-18.421-0.2531-26.279-0.25583-7.8581-3e-3 -16.252 0.11947-18.653 0.27155-2.4011 0.15208-6.8659 0.63301-9.9219 1.0687-4.3454 0.61958-7.6032 0.8814-14.949 1.2014-5.166 0.22504-15.346 0.42817-22.622 0.45139-8.2482 0.0263-15.222-0.0845-18.521-0.29431-2.9104-0.18509-6.9585-0.50612-8.9958-0.71341s-5.8473-0.44635-8.4667-0.53124c-2.6194-0.0849-6.2508-0.28498-8.0698-0.44464-2.8418-0.24943-3.4444-0.23264-4.2819 0.11932-0.56148 0.23597-1.1473 0.74345-1.3819 1.1972-0.224 0.43317-0.52295 1.3058-0.66434 1.9391-0.14138 0.63332-0.38456 2.181-0.5404 3.4394s-0.45547 4.7707-0.66585 7.8052c-0.21037 3.0345-0.50839 9.3273-0.66227 13.984-0.15387 4.6567-0.39663 11.634-0.53947 15.506s-0.25738 10.301-0.25453 14.287c3e-3 3.9864 0.11973 10.284 0.25973 13.995s0.54746 10.795 0.90546 15.743c0.35801 4.9477 0.72045 10.425 0.80543 12.171 0.085 1.7462 0.38641 8.3542 0.66986 14.684 0.42938 9.5894 0.53743 17.468 0.6477 47.228 0.10086 27.219 0.22752 37.387 0.5323 42.73 0.21997 3.8563 0.6535 9.6308 0.9634 12.832 0.43858 4.5308 0.52773 6.759 0.40226 10.054-0.0886 2.3283-0.45571 7.6862-0.81569 11.906-0.35998 4.2201-0.77244 9.9351-0.91659 12.7-0.14414 2.7649-0.33911 7.4679-0.43326 10.451-0.0941 2.9832-0.0329 9.0554 0.13606 13.494 0.25119 6.5975 0.38903 8.2382 0.75551 8.9929 0.34544 0.71138 0.74707 1.0329 1.7508 1.4014 0.7164 0.26303 2.6809 0.71578 4.3656 1.0061 1.6847 0.29034 5.5502 0.657 8.5901 0.8148 4.0575 0.21063 7.2584 0.20607 12.039-0.0171 3.5813-0.16723 7.9998-0.4742 9.8188-0.68215s5.2123-0.6163 7.5406-0.90746c2.3283-0.29116 5.9597-0.65576 8.0698-0.81024 2.11-0.15447 4.2532-0.33853 4.7625-0.40902 0.50932-0.0705 2.4143-0.24556 4.2333-0.38905 1.819-0.14348 4.617-0.39224 6.2177-0.55279 1.9052-0.1911 13.922-0.31249 34.793-0.35149 20.535-0.0384 33.342-0.16612 35.983-0.35895 2.2556-0.16466 9.2207-0.42668 15.478-0.58228 6.2574-0.15559 17.449-0.39844 24.871-0.53967 7.4216-0.14122 16.022-0.33626 19.112-0.43342l5.618-0.17665 0.13959-0.81965c0.0768-0.45081 0.25229-3.0164 0.39004-5.7014 0.16215-3.1606 0.15418-8.6492-0.0226-15.568-0.2501-9.7876-0.23642-10.727 0.1627-11.168 0.23966-0.26483 0.77733-0.62299 1.1948-0.79592 0.58442-0.24207 0.97677-0.24256 1.7053-2e-3 0.56601 0.18681 1.0891 0.59578 1.3018 1.0178 0.21358 0.42378 0.42089 2.1321 0.51911 4.2774 0.0899 1.9645 0.045 6.9056-0.0999 10.98-0.14487 4.0746-0.50556 10.683-0.80154 14.684s-0.60566 7.5481-0.68819 7.8806c-0.0825 0.3325-0.48737 0.77899-0.89965 0.99219-0.41229 0.2132-0.97759 0.38764-1.2562 0.38764-0.27864 0-0.79563-0.22734-1.1489-0.5052-0.58321-0.45875-1.2614-0.51677-7.3779-0.63111-3.7046-0.0693-14.832-0.26897-24.727-0.44382-9.8954-0.17485-21.921-0.2434-26.723-0.15234-4.8022 0.0911-10.636 0.27431-12.965 0.4072-2.3283 0.1329-11.02 0.3692-19.315 0.52511s-20.201 0.4027-26.458 0.54841c-6.2574 0.14571-13.818 0.38203-16.801 0.52514-2.9832 0.14312-8.2815 0.43872-11.774 0.65689s-7.8978 0.522-9.7896 0.67517-5.0469 0.50449-7.0115 0.78072c-1.9645 0.27622-4.822 0.62695-6.35 0.77938s-4.5045 0.39433-6.6146 0.53756c-2.11 0.14322-6.9916 0.24157-10.848 0.21854-3.8563-0.023-7.4877-0.0795-8.0698-0.12554zm117.36-16.74c-1.054-0.31028-1.8812-0.73603-2.1769-1.1204-0.26294-0.34184-0.47955-1.0706-0.48279-1.6242-4e-3 -0.71412 0.17862-1.1887 0.63279-1.6429 0.35127-0.35127 0.94175-0.71474 1.3122-0.80771 0.39604-0.0994 1.1693 0.0203 1.8771 0.29062 0.867 0.33111 1.6144 0.41725 2.6725 0.30803 0.80793-0.0834 2.2327-0.50899 3.1661-0.9458 0.95948-0.44899 2.2088-1.3207 2.8744-2.0055 0.71751-0.73826 1.3449-1.7161 1.6066-2.5039 0.36234-1.0909 0.38205-1.564 0.12634-3.0324l-0.30298-1.7398-0.75461 0.39022c-0.41503 0.21463-1.207 0.38761-1.7599 0.38442-0.55293-3e-3 -1.4883-0.22517-2.0786-0.49328s-1.5786-1.0692-2.1962-1.7801c-0.61764-0.71096-1.6527-2.3697-2.3002-3.6861-0.75058-1.526-1.1772-2.7486-1.1772-3.3734 0-0.6272 0.1905-1.1705 0.52917-1.5092 0.29398-0.29398 0.88195-0.52917 1.3229-0.52917 0.43656 0 1.0219 0.22814 1.3007 0.50697s0.73621 1.0252 1.0164 1.6586c0.28018 0.63341 0.82745 1.6554 1.2161 2.2712 0.50104 0.7937 0.88611 1.1195 1.3231 1.1195 0.41541 0 1.0906-0.51763 2.0706-1.5875 1.099-1.1998 1.6311-1.5875 2.1788-1.5875 0.44806 0 1.0197 0.29515 1.498 0.7734 0.42537 0.42537 0.7734 1.0117 0.7734 1.3029s0.34834 1.4017 0.7741 2.4678c0.42575 1.066 0.97672 2.9422 1.2244 4.1693 0.30495 1.511 0.39791 2.7919 0.28802 3.9687-0.10709 1.1468-0.43789 2.2975-0.97297 3.3844-0.4459 0.90575-1.4182 2.3115-2.1607 3.1238-1.0718 1.1727-1.9255 1.7582-4.1432 2.8414-2.6591 1.2988-2.9082 1.3678-5.1853 1.4362-1.7437 0.0524-2.8528-0.0637-4.0921-0.42852zm-77.158-1.7284c-0.35719-0.35719-0.64474-0.92273-0.639-1.2568 6e-3 -0.33404 0.2312-1.6194 0.50103-2.8563 0.26984-1.2369 1.211-5.0862 2.0914-8.5539 0.88046-3.4677 1.9699-7.4128 2.4211-8.767 0.45112-1.3541 1.0311-2.6529 1.2889-2.8862 0.25779-0.2333 0.81996-0.49442 1.2493-0.58029 0.56255-0.11251 0.97694-2e-3 1.4837 0.39696 0.38671 0.30419 0.7766 0.88764 0.86641 1.2966 0.10995 0.50059-0.0974 1.4505-0.63463 2.9076-0.43885 1.1902-1.5749 4.8923-2.5245 8.2268-0.94962 3.3345-2.0275 7.3527-2.3952 8.9293-0.46902 2.0108-0.83313 3.0048-1.2197 3.3296-0.30306 0.25466-0.8409 0.46302-1.1952 0.46302-0.3543 0-0.93642-0.29224-1.2936-0.64943zm-12.715-3.1772c-1.0333-0.49195-3.236-1.4509-4.8948-2.131-1.6588-0.68009-3.8797-1.7101-4.9354-2.2888-1.0557-0.57876-2.2142-1.4388-2.5745-1.9112s-0.83604-1.3717-1.0572-1.9985c-0.22114-0.62677-0.40148-1.452-0.40075-1.8339 7.2e-4 -0.38189 0.26861-1.0098 0.59531-1.3953s2.1244-1.7288 3.995-2.9849c1.8705-1.2561 4.728-3.3101 6.35-4.5645 1.622-1.2543 3.6634-2.893 4.5365-3.6416 0.87312-0.74856 1.9395-1.6303 2.3698-1.9594 0.55576-0.42511 0.97716-0.54978 1.4552-0.43053 0.3701 0.0923 0.88127 0.35564 1.1359 0.58513 0.25993 0.23424 0.46303 0.79346 0.46303 1.2749 0 0.64457-0.21909 1.0452-0.88191 1.6126-0.48505 0.41525-1.9436 1.6099-3.2412 2.6547-1.2976 1.0448-3.7284 2.9863-5.4019 4.3144s-4.0272 3.0859-5.2305 3.9062c-1.2033 0.82028-2.1484 1.6098-2.1001 1.7545 0.0482 0.14469 0.43743 0.37126 0.8649 0.50349 0.42747 0.13224 2.0274 0.81176 3.5553 1.51s4.1678 1.8876 5.8663 2.6429c1.6985 0.75528 3.258 1.5715 3.4655 1.8138 0.20753 0.2423 0.44992 0.64554 0.53866 0.8961 0.0887 0.25056 0.0348 0.81862-0.1199 1.2624-0.15469 0.44373-0.49902 0.92334-0.76519 1.0658s-0.75966 0.2541-1.0966 0.24811c-0.33699-6e-3 -1.4582-0.4134-2.4915-0.90535zm527.62-1.4546c-0.25823-0.28534-0.9944-2.5178-1.6359-4.9609-0.64153-2.4432-1.8855-6.9424-2.7645-9.9984-0.87893-3.0559-2.2346-7.6399-3.0125-10.186-0.77794-2.5466-1.6058-5.3119-1.8396-6.145s-0.72035-1.81-1.0811-2.1708c-0.39285-0.39284-0.6526-0.95264-0.64756-1.3956 5e-3 -0.4068 0.15486-0.93196 0.33385-1.167s1.0384-0.78663 1.9098-1.2257c0.87141-0.43906 2.5964-1.1263 3.8333-1.5273 1.4752-0.47819 2.8406-0.73314 3.9688-0.74108 1.0866-8e-3 2.012 0.1432 2.5135 0.40968 0.43656 0.23198 1.1081 0.75984 1.4922 1.173 0.38418 0.41317 0.93888 1.2312 1.2327 1.818 0.2938 0.5867 0.66409 1.7694 0.82286 2.6283 0.15877 0.85886 0.28867 2.2391 0.28867 3.0672s-0.18093 2.0184-0.40207 2.6452c-0.22114 0.62676-0.70142 1.532-1.0673 2.0117s-1.1672 1.1647-1.7808 1.5222c-0.61353 0.35753-2.068 0.96736-3.2322 1.3552-1.1642 0.3878-2.1556 0.74214-2.2033 0.7874-0.0476 0.0453 0.17191 1.0157 0.48786 2.1565s1.7539 5.6213 3.1955 9.9566c1.4416 4.3354 2.621 8.2757 2.621 8.7564 0 0.51061-0.20115 1.0559-0.48386 1.3118-0.26612 0.24083-0.84298 0.43788-1.2819 0.43788-0.45672 0-0.99886-0.22189-1.2676-0.5188zm-1.6488-27.733c0.84458-0.37014 1.7673-0.96756 2.0505-1.3276 0.34484-0.43839 0.51492-1.0668 0.51492-1.9024 0-0.68626-0.13556-1.6525-0.30123-2.1471-0.16568-0.49465-0.55264-1.1797-0.8599-1.5224-0.49349-0.55035-0.73005-0.60785-2.0278-0.49285-0.80801 0.0716-2.0745 0.39061-2.8144 0.70889-0.96832 0.41656-1.318 0.70291-1.248 1.022 0.0535 0.24382 0.40973 1.753 0.79164 3.3537s0.7487 3.0002 0.81508 3.1098c0.0664 0.10968 0.44082 0.12549 0.83209 0.0352 0.39126-0.0903 1.4024-0.4671 2.247-0.83725zm-415.35 26.677c-0.2961-0.12002-0.69473-0.40664-0.88587-0.63694-0.19113-0.2303-0.35907-0.82666-0.3732-1.3252-0.0209-0.73874 0.40826-1.5114 2.3192-4.1749 1.2897-1.7976 3.1072-4.253 4.0388-5.4564 0.93167-1.2034 1.6559-2.3802 1.6094-2.615-0.0465-0.23487-1.8443-1.5125-3.9951-2.8391-2.1508-1.3266-5.1428-3.3367-6.6489-4.4668-1.5061-1.1301-3.0504-2.3668-3.4317-2.7481-0.3813-0.3813-0.69328-0.98253-0.69328-1.336 0-0.35353 0.11451-0.85675 0.25447-1.1183 0.13996-0.26152 0.60732-0.62164 1.0386-0.80027 0.63162-0.26163 0.90894-0.25582 1.4261 0.0299 0.3531 0.19505 1.8314 1.257 3.2852 2.3599 1.4537 1.1029 4.4124 3.0674 6.5748 4.3656 2.1624 1.2982 4.503 2.904 5.2013 3.5684 0.90583 0.86197 1.281 1.4305 1.3095 1.9844 0.022 0.42694 0.0117 1.1334-0.0229 1.57-0.0345 0.43656-0.34412 1.3571-0.68798 2.0456s-1.5002 2.4149-2.5696 3.8365c-1.0694 1.4215-2.6894 3.6242-3.5998 4.8949s-1.9134 2.491-2.2288 2.712-0.75536 0.39414-0.97764 0.38491c-0.22228-9e-3 -0.64641-0.11496-0.9425-0.23498zm-77.586-0.34356c-0.1481-0.1819-0.45862-1.2832-0.69004-2.4474-0.23143-1.1642-0.60066-4.2598-0.82052-6.8792-0.21987-2.6194-0.42994-7.1884-0.46683-10.153l-0.0671-5.3909 0.71075-0.53511c0.62971-0.4741 0.80434-0.49636 1.5315-0.19517 0.45139 0.18698 0.9447 0.57163 1.0962 0.85479 0.18018 0.33666 0.21073 1.8233 0.0883 4.2955-0.10299 2.0794-0.10125 5.0426 4e-3 6.585l0.19115 2.8043 0.83495-0.8752c0.45923-0.48136 1.6667-1.2816 2.6832-1.7783 1.5737-0.769 2.1268-0.90313 3.7236-0.90313 1.5785 0 2.0398 0.10914 2.9143 0.68943 0.5714 0.37919 1.4203 1.0808 1.8865 1.559 0.46619 0.47828 1.0565 1.2991 1.3119 1.8241 0.26127 0.53721 0.5105 1.7905 0.57005 2.8668 0.0938 1.6954 0.0268 2.0471-0.59048 3.1004-0.38295 0.65347-1.1995 1.5331-1.8146 1.9547s-1.7136 1.0648-2.4412 1.4294c-0.72761 0.36453-2.1044 0.8568-3.0596 1.0939-1.054 0.26166-2.8354 0.43114-4.5317 0.43114-1.916 0-2.8797-0.10401-3.0642-0.33073zm7.7937-5.3835c0.75431-0.20665 1.7429-0.68828 2.1969-1.0703 0.6503-0.54719 0.80843-0.86776 0.7452-1.5106-0.0575-0.58406-0.33584-0.98768-0.97929-1.4198-0.49447-0.33207-1.2464-0.60376-1.671-0.60376-0.42461 0-1.0321 0.13361-1.3499 0.29691s-0.90724 0.60412-1.3097 0.97959c-0.40251 0.37547-0.83705 1.1051-0.96566 1.6213-0.1286 0.51625-0.30706 1.264-0.39656 1.6617l-0.16273 0.72308 1.2607-0.15121c0.69337-0.0832 1.8778-0.32027 2.6321-0.52691zm17.527 3.3775c-0.64982-0.4121-1.5066-1.1356-1.9039-1.6078-0.612-0.72732-0.7224-1.1023-0.7224-2.4537 0-0.87734 0.1869-2.3164 0.41532-3.1979 0.22843-0.88153 0.82415-2.4146 1.3238-3.4068 0.70487-1.3997 1.0714-1.8448 1.6352-1.9859 0.39969-0.10003 1.0839-0.39941 1.5204-0.66528s1.0456-0.48385 1.3534-0.48439c0.3078-5.5e-4 0.86957 0.2428 1.2484 0.54077 0.37881 0.29797 0.84135 0.8175 1.0279 1.1545s0.68504 1.1093 1.1078 1.7161c0.42278 0.60686 0.91525 1.6684 1.0944 2.359 0.23471 0.90485 0.25355 1.6743 0.0674 2.7545-0.14214 0.82501-0.63418 2.121-1.0944 2.8826-0.49483 0.81886-1.3609 1.7428-2.1218 2.2636-1.0072 0.68938-1.5547 0.87995-2.5279 0.87995-0.90934 0-1.5588-0.20079-2.4237-0.74927zm3.2365-6.2054c0.0231-0.3223 0.0216-0.82413-3e-3 -1.1152-0.0248-0.29104-0.10959-0.70442-0.18845-0.91863-0.12623-0.34289-0.17332-0.34289-0.3938 0-0.13773 0.21421-0.3774 0.84843-0.53259 1.4094-0.1552 0.56096-0.21647 1.1912-0.13615 1.4005 0.11314 0.29483 0.26611 0.31628 0.67912 0.0953 0.2932-0.15692 0.55196-0.54901 0.57502-0.87131zm321.29 4.847c-1.4026-0.45884-1.9082-0.83968-4.1672-3.139-2.3132-2.3544-2.571-2.7146-2.571-3.5919 0-0.68255 0.19486-1.17 0.64943-1.6246 0.45659-0.45659 0.94149-0.64943 1.633-0.64943 0.82809 0 1.1333 0.17535 1.9303 1.1091 0.52067 0.61002 1.435 1.6031 2.0318 2.2068 0.7122 0.72044 1.4851 1.2012 2.249 1.399 1.0376 0.2687 1.293 0.23601 2.3545-0.30146 0.85403-0.43241 1.4267-0.99546 2.0256-1.9917 0.48805-0.81182 0.95253-2.0706 1.118-3.0298 0.19078-1.1062 0.20138-2.417 0.0325-4.0222-0.13776-1.3097-0.49415-3.3338-0.79198-4.4979-0.29783-1.1642-1.2119-3.8728-2.0314-6.0193-0.81941-2.1464-1.5614-3.9019-1.6489-3.901-0.0875 8.5e-4 -1.4687 0.36351-3.0695 0.8059s-4.2544 1.1627-5.897 1.6007c-1.7291 0.46103-3.4538 0.76227-4.0961 0.71546-0.92301-0.0673-1.1501-0.19693-1.3509-0.77132-0.13274-0.37975-0.16623-0.98975-0.0744-1.3556 0.0974-0.38792 0.47158-0.78809 0.8979-0.96017 0.40204-0.16227 3.5885-0.95182 7.081-1.7546s8.6717-2.0636 11.509-2.802 5.962-1.576 6.943-1.8613c1.4448-0.42027 1.8972-0.45905 2.3812-0.20413 0.32867 0.1731 0.68506 0.44572 0.79197 0.60584s0.19621 0.60009 0.19844 0.97772c2e-3 0.37762-0.24634 0.91341-0.55237 1.1906-0.38345 0.34734-2.0388 0.80636-5.3249 1.4766-2.6227 0.5349-4.8935 1.0976-5.0463 1.2503-0.19399 0.19399 0.1748 1.457 1.2226 4.1868 0.8252 2.15 1.7321 4.683 2.0153 5.6288 0.28324 0.94589 0.71302 2.7897 0.95507 4.0973 0.29817 1.6108 0.40301 3.232 0.32509 5.0271-0.0911 2.0984-0.26461 3.0131-0.83414 4.397-0.42007 1.0207-1.2668 2.3619-2.0361 3.225-0.77833 0.87326-1.8824 1.7539-2.6993 2.1531-0.80139 0.39159-2.0494 0.73239-2.9698 0.81095-1.1602 0.099-2.0172-5e-3 -3.1837-0.38668zm-306.17-1.3013c-1.1198-0.53841-1.8905-1.1354-2.4338-1.8854-0.43726-0.60363-0.93403-1.5187-1.1039-2.0335s-0.24764-1.3928-0.17276-1.9511c0.0749-0.55831 0.4048-1.3924 0.73315-1.8535s1.3136-1.3015 2.1893-1.8676c0.87579-0.56605 2.0393-1.1631 2.5856-1.3268l0.99331-0.2976 0.17073-1.8821c0.0939-1.0352 0.1323-4.3419 0.0853-7.3483l-0.0854-5.4662 0.64144-0.68538c0.42747-0.45676 0.91955-0.68538 1.4752-0.68538 0.54282 0 1.0464 0.22629 1.443 0.64842 0.47181 0.50223 0.65795 1.1137 0.8256 2.712 0.11905 1.135 0.22377 3.1351 0.23271 4.4448 9e-3 1.3097 0.1404 3.1552 0.29211 4.101 0.15171 0.94589 0.86518 4.1428 1.5855 7.1043 0.72031 2.9615 1.3097 5.7351 1.3097 6.1636 0 0.47444-0.25396 1.0331-0.64943 1.4286-0.35719 0.35718-0.88522 0.64943-1.1734 0.64943s-0.83514-0.11831-1.2154-0.2629c-0.4181-0.15896-0.85154-0.64597-1.0963-1.2318l-0.40484-0.96894-0.63552 1.0657c-0.34954 0.58615-0.92712 1.2568-1.2835 1.4903-0.3564 0.23352-1.1029 0.49246-1.6588 0.57541-0.78623 0.11732-1.3749-0.0242-2.6496-0.63707zm2.1367-5.3646c0.092-0.4598 0.10972-0.89349 0.0395-0.96374-0.0702-0.0703-0.3092 0.0229-0.531 0.20694-0.2218 0.18408-0.40327 0.53839-0.40327 0.78736s0.0794 0.53205 0.17639 0.62906c0.097 0.097 0.26072 0.17639 0.3638 0.17639s0.26266-0.3762 0.35462-0.83601zm327.43 0.2407c-1.3134-0.68173-1.7842-1.1015-2.2721-2.026-0.39034-0.73958-0.61331-1.6106-0.60963-2.3812 3e-3 -0.66834 0.22566-1.6992 0.49436-2.2908 0.2687-0.59159 0.85781-1.4962 1.3091-2.0102 0.45132-0.51402 1.7111-1.3866 2.7996-1.9391 1.8568-0.94244 2.0492-0.98673 3.1168-0.7171 0.62582 0.15805 1.7572 0.34751 2.5141 0.42101 0.7569 0.0735 2.3047 0.50423 3.4396 0.95717s3.254 1.4841 4.7092 2.2914c1.4552 0.80733 2.8542 1.6521 3.1089 1.8773 0.31644 0.27982 0.46302 0.80064 0.46302 1.6452 0 0.94966-0.14179 1.369-0.61237 1.8111-0.38568 0.36233-0.94885 0.57411-1.5214 0.5721-0.49995-2e-3 -1.4448-0.31254-2.0996-0.69064-0.65484-0.3781-2.0458-1.1382-3.091-1.6892-1.5358-0.80955-1.9292-0.92673-2.0505-0.61063-0.0826 0.21513-0.1502 0.58977-0.15031 0.83253-1.2e-4 0.24276-0.34423 1.1686-0.7647 2.0574-0.63866 1.35-0.95723 1.7093-1.9354 2.1828-0.88184 0.42689-1.6672 0.56683-3.1809 0.56683-1.7515 0-2.2231-0.11059-3.6667-0.85989zm4.4784-4.5765c0.16888-0.37065 0.30706-1.1526 0.30706-1.7376 0-0.98149-0.046-1.0494-0.59532-0.87888-0.32742 0.10165-0.91569 0.41043-1.3073 0.68616-0.39158 0.27573-0.79366 0.75873-0.89351 1.0733-0.1321 0.41619-0.0203 0.70262 0.41054 1.0515 0.32565 0.26369 0.85744 0.47944 1.1818 0.47944 0.37514 0 0.70139-0.24518 0.89673-0.6739zm55.406 1.4015c-0.30563-0.32742-0.63064-0.89762-0.72226-1.2671-0.0916-0.36948-0.0488-0.98147 0.0951-1.36 0.14391-0.3785 0.80536-1.0786 1.4699-1.5559 0.66452-0.47722 1.2082-1.081 1.2082-1.3417s-0.2481-0.70515-0.55134-0.98765c-0.30323-0.28251-1.0775-0.64614-1.7206-0.80807-0.64309-0.16193-1.7953-0.52865-2.5605-0.81494-0.76517-0.28628-1.8453-0.96158-2.4003-1.5007s-1.2383-1.4294-1.5184-1.9785-0.50931-1.5282-0.50931-2.1757c0-0.97061 0.18263-1.4084 1.0398-2.4929 0.57191-0.72352 1.4078-1.5775 1.8576-1.8978 0.44981-0.32028 1.4404-0.79713 2.2013-1.0597s2.1927-0.56036 3.1817-0.66185c1.4442-0.1482 1.9284-0.0992 2.4592 0.24856 0.36353 0.2382 0.77394 0.73021 0.91201 1.0934 0.17715 0.46593 0.14095 0.92375-0.12297 1.5554-0.28772 0.68863-0.60775 0.96003-1.3873 1.1765-0.55733 0.15476-1.3446 0.28204-1.7494 0.28285-0.40485 8.1e-4 -1.1192 0.16163-1.5875 0.35737-0.46826 0.19574-1.0143 0.55233-1.2134 0.79242-0.30755 0.37085-0.30196 0.52821 0.0372 1.0458 0.26692 0.40738 1.132 0.85496 2.611 1.3509 1.2165 0.40792 2.7203 1.0571 3.3418 1.4426s1.4234 1.1422 1.782 1.6815c0.35861 0.5393 0.76679 1.4914 0.90707 2.1157 0.16627 0.74003 0.16276 1.5469-0.0101 2.3182-0.14582 0.65069-0.49857 1.5608-0.78389 2.0224-0.28531 0.46166-1.1669 1.3287-1.959 1.9268-1.1758 0.88773-1.6524 1.0874-2.5961 1.0874-0.85764 0-1.2992-0.1536-1.7115-0.59531zm-37.637-2.505c-0.21828-0.0815-1.2303-0.7604-2.249-1.5087-1.0186-0.74832-2.292-1.6523-2.8297-2.0089-0.53771-0.35659-1.1033-0.92403-1.2568-1.261-0.15352-0.33693-0.27913-0.8839-0.27913-1.2155s0.27557-0.86177 0.61237-1.1782c0.3486-0.32749 0.95524-0.57529 1.4084-0.57529 0.49329 0 1.5156 0.4604 2.6882 1.2106 1.2937 0.82772 2.0561 1.1586 2.4104 1.0461 0.28502-0.0905 0.75629-0.665 1.0473-1.2767 0.29099-0.61175 0.65337-1.8038 0.80529-2.6489 0.15192-0.84517 0.34607-1.6497 0.43144-1.7878 0.0854-0.13814 0.51355-0.43645 0.9515-0.66293 0.48468-0.25064 1.0863-0.34807 1.5375-0.24898 0.40766 0.0895 1.0117 0.45074 1.3423 0.80266 0.55053 0.58601 0.58633 0.79896 0.42543 2.5302-0.0966 1.0397-0.35972 2.623-0.58465 3.5184s-0.72884 2.2175-1.1198 2.9378c-0.39096 0.72034-1.1154 1.5814-1.6099 1.9134-0.63087 0.42365-1.2622 0.59749-2.1167 0.58284-0.66971-0.0115-1.3962-0.0875-1.6145-0.16903zm15.743-0.44066c-0.72761-0.34398-1.6801-1.0051-2.1167-1.4693-0.77291-0.82168-0.7961-0.92371-0.88306-3.886-0.0835-2.843-0.0438-3.1353 0.60592-4.4632 0.38237-0.78154 1.1105-1.7856 1.618-2.2312 0.50753-0.44563 1.3812-1.0441 1.9416-1.33 0.56033-0.28586 1.8071-0.71777 2.7707-0.9598 1.4404-0.36182 1.8914-0.38225 2.5369-0.11488 0.43178 0.17885 0.8534 0.52073 0.93693 0.75974 0.0835 0.23901 0.65304 0.67856 1.2656 0.97678 0.84556 0.41166 1.5108 1.1124 2.763 2.9104 0.90715 1.3025 2.1275 3.2163 2.712 4.2529 0.69023 1.2242 1.0626 2.2158 1.0626 2.8295 0 0.61735-0.22133 1.2022-0.63855 1.6872-0.52298 0.60801-0.85315 0.74236-1.8243 0.74236-0.75017 0-1.3705-0.16719-1.6887-0.45513-0.27661-0.25033-0.90694-1.1734-1.4007-2.0513l-0.8978-1.5962-0.33492 0.79655c-0.18421 0.43811-0.64921 1.2086-1.0333 1.7122-0.38413 0.50362-1.2433 1.2766-1.9094 1.7178-0.98723 0.65392-1.4836 0.80163-2.6869 0.79952-0.99789-2e-3 -1.9045-0.20517-2.7989-0.62799zm3.1187-4.5989c0.23241-0.25681 0.54561-1.001 0.696-1.6536s0.27634-1.6927 0.2799-2.3112c4e-3 -0.61846-0.10346-1.1245-0.23782-1.1245-0.13435 0-0.62679 0.32187-1.0943 0.71525-0.46751 0.39339-1.0124 1.1039-1.2109 1.579-0.19849 0.47506-0.3609 1.2605-0.3609 1.7454s0.14288 1.0245 0.3175 1.1991c0.17463 0.17463 0.51336 0.3175 0.75274 0.3175 0.23939 0 0.6254-0.21011 0.85781-0.46693zm35.881 2.3232c-0.96033-0.11953-2.2105-0.45659-2.7781-0.74902-0.56764-0.29244-1.4117-0.92909-1.8757-1.4148-0.46402-0.48569-0.97003-1.2182-1.1245-1.6279-0.15444-0.40965-0.28081-1.3134-0.28081-2.0083 0-0.88073 0.24594-1.7556 0.81195-2.8883 0.54092-1.0825 1.2997-2.0416 2.2733-2.8733 1.1123-0.9503 1.6736-1.2485 2.3499-1.2485 0.49411 0 1.1293 0.21788 1.4309 0.4908 0.34345 0.31083 0.54233 0.81957 0.54233 1.3874 0 0.73536-0.26164 1.1561-1.4552 2.3402-1.0108 1.0027-1.4552 1.651-1.4552 2.1225 0 0.3734 0.11815 0.89968 0.26255 1.1695s0.69004 0.63166 1.2125 0.8041c0.5859 0.19337 1.4997 0.24483 2.3844 0.1343 1.3507-0.16876 1.4808-0.13294 2.227 0.61335 0.5306 0.5306 0.79259 1.0568 0.79259 1.5919 0 0.45093-0.2633 1.1054-0.60405 1.5016-0.45339 0.52711-0.8988 0.72338-1.7859 0.78697-0.65004 0.0466-1.9676-0.0131-2.928-0.1326zm28.486-2.187c-0.5287-0.46735-0.8941-1.42-1.6999-4.4318-0.56456-2.11-1.179-4.6932-1.3655-5.7404-0.29794-1.6732-0.28794-1.9818 0.0825-2.5472 0.23183-0.35381 0.7386-0.72287 1.1262-0.82015 0.44891-0.11267 0.926-0.0318 1.3145 0.22272 0.3354 0.21977 0.72862 0.79074 0.87382 1.2688 0.14519 0.4781 0.89154 3.0994 1.6585 5.8251 1.2255 4.355 1.3532 5.0331 1.0535 5.5932-0.1876 0.35053-0.63126 0.76953-0.98592 0.93113-0.35467 0.16159-0.8112 0.29381-1.0145 0.29381-0.20332 0-0.67273-0.26789-1.0431-0.59531zm-15.385-0.1845c-0.30291-0.12568-0.87269-0.61112-1.2662-1.0788-0.3935-0.46764-1.2361-1.9374-1.8724-3.2662-0.6363-1.3287-1.3104-2.8611-1.4979-3.4052-0.2389-0.69316-0.26412-1.2078-0.0843-1.7192 0.14118-0.40145 0.59023-0.88977 0.9979-1.0852 0.59523-0.28528 0.8949-0.2916 1.5215-0.0321 0.42914 0.17775 0.87999 0.50141 1.0019 0.71924 0.17688 0.31607 0.45136 0.14684 1.3592-0.83806 0.7769-0.84283 1.9113-1.6182 3.5781-2.4457 2.3001-1.1418 2.4959-1.1933 3.4016-0.89439 0.60034 0.19813 1.1083 0.60188 1.3533 1.0757 0.21575 0.41722 0.39228 0.94899 0.39228 1.1817 0 0.23273-0.17185 0.75547-0.38189 1.1616-0.26942 0.521-0.9512 0.99161-2.3151 1.598-1.0633 0.47275-2.2011 1.1078-2.5285 1.4112-0.54879 0.50852-0.59531 0.78219-0.59531 3.5021 0 2.7187-0.0468 2.9941-0.59531 3.5061-0.32742 0.30562-0.89297 0.61905-1.2568 0.6965-0.3638 0.0775-0.9093 0.038-1.2122-0.0877zm46.191-5.7253c-0.65485-0.37287-1.4757-0.93698-1.8241-1.2536-0.34843-0.31661-1.0171-1.4091-1.4858-2.4277-0.4688-1.0186-1.3094-3.0636-1.868-4.5444-0.87991-2.3324-1.0769-2.6596-1.4733-2.4474-0.25169 0.1347-0.68752 0.24491-0.9685 0.24491-0.28099 0-0.8246-0.24676-1.208-0.54837-0.47044-0.37004-0.69714-0.80109-0.69714-1.3255 0-0.42743 0.20836-0.95231 0.46302-1.1664s0.67845-0.54392 0.94175-0.73295c0.45842-0.32911 0.45-0.44283-0.19844-2.6805-0.37244-1.2852-0.67717-2.6674-0.67717-3.0716s0.22279-1.01 0.49508-1.3462c0.35367-0.43677 0.77099-0.61139 1.4611-0.61139 0.6109 0 1.1591 0.19312 1.4914 0.52537 0.28895 0.28895 0.80743 1.5506 1.1522 2.8036 0.34474 1.253 0.70033 2.3972 0.7902 2.5426 0.10239 0.16567 0.91021 0.0272 2.1637-0.37085 1.1828-0.37561 2.2673-0.56823 2.6535-0.4713 0.35922 0.0902 0.82895 0.41494 1.0438 0.72173 0.21488 0.3068 0.3907 0.81292 0.3907 1.1247 0 0.31179-0.22422 0.85195-0.49826 1.2003-0.32998 0.4195-1.1181 0.80322-2.3335 1.1362l-1.8352 0.50274 1.1035 2.6698c0.60694 1.4684 1.3543 3.1612 1.6608 3.7617 0.30649 0.60051 0.75141 1.1664 0.9887 1.2574 0.29653 0.11378 0.83039-0.24834 1.7071-1.158 1.0476-1.0869 1.4392-1.3236 2.19-1.3236 0.52432 0 1.2116 0.23389 1.6114 0.54837 0.56698 0.44599 0.69714 0.76871 0.69714 1.7286 0 0.72612-0.24796 1.6695-0.64447 2.452-0.35446 0.69948-1.073 1.648-1.5967 2.1079-0.86773 0.76188-1.1099 0.83579-2.729 0.83289-1.4167-3e-3 -2.018-0.14057-2.9674-0.68113zm-407.99-1.5952c-1.0901-0.50719-2.5784-1.3003-3.3073-1.7625-0.7289-0.46217-2.3373-1.549-3.5742-2.4152s-3.4561-2.5614-4.9314-3.7672c-1.4754-1.2057-3.4102-2.9985-4.2996-3.984s-1.748-2.1881-1.9078-2.6725-0.21902-1.2624-0.1315-1.7289c0.0875-0.46654 0.64867-1.441 1.247-2.1656 0.59832-0.72452 1.6994-1.7707 2.4468-2.3248 0.7474-0.55412 2.0733-1.5321 2.9464-2.1733 0.87313-0.64119 4.2069-3.0754 7.4083-5.4093 3.2015-2.3339 6.7329-4.9576 7.8477-5.8304 1.4812-1.1596 2.2469-1.5868 2.8443-1.5868 0.46465 0 1.0458 0.22838 1.3466 0.52917 0.32641 0.32641 0.52916 0.88194 0.52916 1.4499 0 0.87369-0.14433 1.019-2.8258 2.8443-1.5542 1.058-4.0911 2.8761-5.6376 4.0402-1.5465 1.1642-4.1355 3.1873-5.7532 4.4958-1.6178 1.3085-2.917 2.4035-2.8872 2.4333s4.575 0.17824 10.1 0.32988c5.5254 0.15163 12.308 0.45422 15.073 0.67241 2.7649 0.2182 6.3368 0.51546 7.9375 0.6606 1.6007 0.14513 6.1846 0.39896 10.186 0.56407 4.5048 0.18585 11.242 0.23351 17.689 0.12512 5.7272-0.0963 12.811-0.34849 15.743-0.56048 2.9312-0.21198 7.4726-0.5656 10.092-0.78582 2.6194-0.22023 7.3224-0.63136 10.451-0.91363 3.1287-0.28227 9.6771-0.88231 14.552-1.3334 4.875-0.45111 12.931-1.4054 17.903-2.1206 4.9716-0.71525 10.687-1.5963 12.7-1.9578s5.6847-0.95578 8.1586-1.3205c2.4738-0.36469 6.641-0.90362 9.2604-1.1976 2.6194-0.29399 7.3224-0.71144 10.451-0.92765 3.1287-0.21622 10.749-0.51807 16.933-0.67079 6.1846-0.15272 15.174-0.39588 19.976-0.54034 4.8022-0.14446 9.8244-0.3351 11.161-0.42363 2.356-0.15612 2.4498-0.14048 3.1088 0.51856 0.37375 0.37375 0.67954 0.86896 0.67954 1.1005s-0.2735 0.69443-0.60779 1.0287c-0.54498 0.54499-0.94822 0.62623-3.9026 0.78626-1.8122 0.0982-10.736 0.29455-19.831 0.43642-9.095 0.14187-19.156 0.38024-22.357 0.52972s-7.964 0.45314-10.583 0.6748c-2.6194 0.22166-6.608 0.64061-8.8635 0.931-2.2556 0.29039-7.7724 1.1219-12.26 1.8477-4.4873 0.72586-11.095 1.7312-14.684 2.2342s-8.6688 1.1508-11.288 1.4396c-2.6194 0.28887-6.7866 0.70641-9.2604 0.92787-2.4739 0.22145-8.7246 0.75556-13.891 1.1869s-11.655 0.96648-14.42 1.1892c-2.7649 0.22275-7.5274 0.52155-10.583 0.664-3.0559 0.14246-10.616 0.39518-16.801 0.56162-6.1846 0.16643-13.626 0.22979-16.536 0.1408-2.9104-0.089-13.209-0.22241-22.886-0.29648l-17.595-0.13466 0.69384 0.5304c0.38161 0.29173 1.8163 1.4707 3.1882 2.62s3.6101 2.8347 4.9738 3.7454c1.3637 0.91068 3.9395 2.3459 5.724 3.1893 1.8232 0.86174 3.3682 1.7644 3.5267 2.0606 0.15516 0.2899 0.2821 0.89752 0.2821 1.3503 0 0.52121-0.23824 1.0614-0.64944 1.4726-0.49622 0.49622-0.91755 0.64536-1.7859 0.63218-0.71297-0.0108-1.8751-0.3609-3.1185-0.9394zm374.3-10.048c-0.55683-0.51633-0.71978-0.88617-0.65875-1.4952 0.0509-0.50796 0.34565-1.0058 0.79183-1.3374 0.62833-0.467 0.80592-0.48884 1.5315-0.18831 0.4514 0.18697 0.93523 0.55392 1.0752 0.81543 0.13996 0.26152 0.25447 0.78097 0.25447 1.1543s-0.23813 0.91698-0.52917 1.208-0.79827 0.52917-1.1272 0.52917-0.93094-0.30871-1.3378-0.68601zm-146.23-10.407c-0.80037-0.0922-1.7136-0.31195-2.0293-0.48824-0.31576-0.17629-0.70629-0.72101-0.86783-1.2105-0.19489-0.59051-0.20867-1.1137-0.041-1.5548 0.13902-0.36565 0.58781-0.92837 0.99731-1.2505 0.59513-0.46813 0.95752-0.55423 1.8057-0.429 0.58363 0.0862 1.7755 0.22145 2.6486 0.30064 1.2222 0.11083 1.8004 0.0341 2.5128-0.33336 0.5089-0.26253 0.96279-0.67879 1.0086-0.92504 0.0523-0.28097-0.22033-0.60477-0.73209-0.86941-0.44851-0.23194-1.8549-0.7616-3.1253-1.177s-3.3219-1.229-4.5588-1.808c-1.2369-0.57897-2.751-1.4908-3.3646-2.0263-0.69324-0.60501-1.2186-1.3444-1.3876-1.9528-0.14956-0.53852-0.27194-1.3363-0.27194-1.7729s0.12389-1.2398 0.2753-1.785c0.15141-0.5452 0.69992-1.4037 1.2189-1.9077 0.51899-0.50403 1.4605-1.1138 2.0922-1.3551 0.88137-0.3366 1.7517-0.4123 3.7406-0.32537 2.1291 0.0931 2.8595 0.24187 4.0903 0.83337 1.1136 0.53515 1.5687 0.92176 1.7722 1.5055 0.1861 0.53383 0.18795 1.0316 6e-3 1.5542-0.16059 0.46066-0.58198 0.89882-1.0515 1.0933-0.66564 0.27572-1.0419 0.23968-2.5019-0.2396-0.94514-0.31027-2.1856-0.56412-2.7565-0.56412-0.72015 0-1.2654 0.19727-1.7804 0.64418l-0.74236 0.64418 1.9844 0.91854c1.0914 0.50519 3.1921 1.338 4.6683 1.8507 1.4761 0.51267 3.2874 1.238 4.0251 1.6118s1.7524 1.0406 2.2549 1.4818c0.5296 0.465 1.0898 1.3191 1.3327 2.032 0.23048 0.6764 0.41904 1.6292 0.41904 2.1172s-0.16086 1.2724-0.35746 1.7429c-0.19661 0.47054-0.79631 1.2408-1.3327 1.7118-0.53637 0.47094-1.5622 1.1537-2.2796 1.5172-1.1369 0.5761-1.6197 0.65598-3.7605 0.62207-1.3509-0.0214-3.111-0.11436-3.9114-0.2066zm84.192-1.2055c-1.3919-0.21581-2.8382-0.657-3.9532-1.206-1.1337-0.55812-2.3861-1.4934-3.5254-2.6327-1.3058-1.3058-2.0696-2.378-2.9259-4.107l-1.1588-2.3399 9e-3 -3.1937c7e-3 -2.6753 0.0988-3.3869 0.56336-4.3843 0.30503-0.65485 1.068-1.879 1.6955-2.7203 0.88446-1.1859 1.5231-1.7178 2.8412-2.3668 1.3834-0.68106 2.0274-0.83818 3.4551-0.843 1.2911-4e-3 2.0344 0.14293 2.8131 0.55748 0.58208 0.30987 1.4629 0.96087 1.9573 1.4466 0.49445 0.48579 1.06 1.2664 1.2568 1.7346 0.19678 0.46827 0.35778 1.552 0.35778 2.4083 0 1.1771-0.14544 1.7727-0.59621 2.4416-0.32792 0.4866-0.97011 1.1031-1.4271 1.37-0.45698 0.26689-1.6472 0.65821-2.6449 0.8696s-2.6306 0.38641-3.6287 0.38894l-1.8146 5e-3 0.17358 0.72761c0.0955 0.40018 0.47861 1.34 0.85144 2.0885s1.215 1.9057 1.8715 2.5716c0.6565 0.66588 1.7052 1.4583 2.3303 1.761 0.71418 0.34573 2.242 0.67631 4.1103 0.88935 2.7024 0.30817 3.0302 0.40483 3.5938 1.0601 0.3411 0.39655 0.62018 1.0179 0.62018 1.3808s-0.17419 0.99669-0.38708 1.4084c-0.2129 0.4117-0.57983 0.82251-0.81539 0.9129-0.23557 0.0904-1.1032 0.15258-1.928 0.13818s-2.4874-0.17932-3.6946-0.3665zm-1.2355-17.607c0.40279-0.33428 0.4001-0.38729-0.0359-0.70606-0.25923-0.18956-0.93074-0.34465-1.4922-0.34465-0.5615 0-1.3511 0.17074-1.7546 0.37943-0.40356 0.20868-0.90255 0.58283-1.1089 0.83143-0.34983 0.42152-0.22911 0.44355 1.7905 0.32663 1.2674-0.0734 2.3462-0.27526 2.6011-0.48678zm-56.167 16.003c-0.76389-0.2057-1.8354-0.60449-2.3812-0.88621s-1.4287-0.96879-1.962-1.5268c-0.53327-0.55804-1.2476-1.5504-1.5875-2.2052-0.47383-0.91298-0.63921-1.7233-0.70924-3.4748-0.0502-1.2563 0.0473-2.952 0.21675-3.7681 0.20311-0.9784 0.50215-1.6199 0.87779-1.883 0.31335-0.21948 0.87066-0.40079 1.2385-0.40291 0.36781-2e-3 1.145-0.16722 1.7271-0.36691 0.74153-0.25438 1.4939-0.30179 2.5135-0.15839 0.80037 0.11256 1.989 0.34927 2.6414 0.52602 0.6524 0.17674 1.7464 0.6052 2.431 0.95214 0.68464 0.34693 1.5461 1.0258 1.9143 1.5085 0.3682 0.48274 0.80694 1.5188 0.97497 2.3022 0.16863 0.78627 0.233 2.1182 0.14369 2.9727-0.089 0.85151-0.41553 2.138-0.72562 2.8588-0.31008 0.72082-1.039 1.7399-1.6197 2.2645-0.58076 0.52468-1.4557 1.121-1.9442 1.3251s-1.2196 0.36333-1.6244 0.35375c-0.40485-0.01-1.3611-0.18571-2.125-0.3914zm2.7109-5.1612c0.37541-0.37542 0.53008-0.88217 0.53008-1.7367 0-0.94656-0.13371-1.3149-0.62035-1.709-0.3412-0.27628-1.0556-0.61345-1.5875-0.74927-0.53193-0.13581-1.5922-0.32713-2.3562-0.42515l-1.3891-0.17823 1e-3 0.75243c8.2e-4 0.41384 0.11898 1.1754 0.26259 1.6924 0.14361 0.51696 0.64721 1.3348 1.1191 1.8175 0.47189 0.48267 1.0979 0.9794 1.3911 1.1038s0.88985 0.16689 1.3259 0.0943c0.43606-0.0726 1.0314-0.37051 1.3229-0.66205zm33.934 4.4905c-0.25467-0.14833-0.64162-0.61505-0.8599-1.0372s-0.39799-1.1603-0.39936-1.6405c-1e-3 -0.48017-0.24244-2.0637-0.53571-3.5189-0.29327-1.4552-0.72227-3.3223-0.95333-4.149-0.23105-0.82676-0.69078-1.7575-1.0216-2.0683-0.44493-0.41799-0.86498-0.54325-1.6137-0.48117-0.98634 0.0818-1.0268 0.12648-1.5849 1.7518-0.31502 0.91734-0.84638 1.9591-1.1808 2.3151s-0.89084 0.64721-1.2365 0.64721-0.94999-0.16796-1.3429-0.37325c-0.39296-0.20529-1.0717-0.7517-1.5082-1.2142s-1.1153-1.009-1.5082-1.2142c-0.39296-0.20529-0.95576-0.37325-1.2507-0.37325-0.29492 0-0.71046 0.26789-0.92344 0.59531s-0.57764 1.7859-0.81036 3.2412c-0.23273 1.4552-0.62677 3.061-0.87565 3.5684-0.24887 0.5074-0.86922 1.2006-1.3785 1.5405-0.66447 0.44341-1.1502 0.57624-1.7198 0.47024-0.48421-0.0901-1.2306-0.62168-1.9141-1.3631-0.77974-0.84588-1.292-1.752-1.6849-2.9803-0.36547-1.1424-0.61203-2.7639-0.6991-4.5975l-0.13451-2.8326 0.92628-0.44171c0.69713-0.33244 1.1145-0.37925 1.6872-0.18924 0.41848 0.13886 0.90794 0.54073 1.0877 0.89304s0.33415 1.0573 0.34311 1.5666l0.0163 0.92605 0.50817-1.3014c0.2795-0.71579 0.89901-1.7085 1.3767-2.206s1.338-1.1464 1.9119-1.4421c0.85109-0.43842 1.3911-0.51517 2.9297-0.41643 1.0375 0.0666 2.2552 0.30505 2.7059 0.52993 0.79502 0.39661 0.82438 0.38988 0.97853-0.22427 0.0874-0.34824 0.64132-0.98261 1.2309-1.4097 0.58961-0.42711 1.6998-0.90689 2.467-1.0662 0.99977-0.20756 1.754-0.20915 2.6621-6e-3 0.69691 0.15618 1.9143 0.59014 2.7053 0.96436 0.91759 0.43408 1.7157 1.0634 2.2047 1.7385 0.42157 0.58197 1.0055 1.697 1.2977 2.4779 0.29216 0.78088 0.75762 2.5841 1.0344 4.0071 0.27672 1.423 0.64939 3.7298 0.82814 5.1263 0.28367 2.2161 0.27223 2.6411-0.0899 3.3414-0.22821 0.4413-0.60766 0.87633-0.84322 0.96672-0.23557 0.0904-0.86505 0.16074-1.3988 0.15631-0.5338-4e-3 -1.1789-0.1294-1.4336-0.27773zm-256.36-9.343c-0.56797-0.28244-0.62424-0.49812-0.69955-2.6814-0.0451-1.3058 0.0437-4.3388 0.19731-6.7398 0.15356-2.4011 0.63683-9.2472 1.0739-15.214 0.69866-9.5367 0.79467-12.191 0.79424-21.96-2.7e-4 -6.1119-0.11886-12.66-0.26354-14.552-0.14469-1.8918-0.4417-5.5827-0.66004-8.2021-0.21833-2.6194-0.51987-8.9012-0.67008-13.96-0.18061-6.0821-0.1843-9.3632-0.0109-9.6872 0.14422-0.26947 0.62395-0.63979 1.0661-0.82292 0.63316-0.26226 0.96759-0.26515 1.5749-0.0136 0.42408 0.17566 0.89279 0.63659 1.0416 1.0243 0.15565 0.40558 0.2727 3.3085 0.27564 6.8363 3e-3 3.3723 0.21872 9.623 0.47978 13.891 0.31781 5.1951 0.46766 10.951 0.45346 17.417-0.0117 5.3115-0.1648 12.039-0.34031 14.949-0.17551 2.9104-0.43439 6.78-0.57529 8.599s-0.49346 7.2364-0.78346 12.039c-0.29 4.8022-0.52759 10.881-0.52798 13.509-5.1e-4 3.4245-0.0944 4.8953-0.33144 5.1918-0.1819 0.22751-0.58857 0.47462-0.9037 0.54912-0.31514 0.0745-0.85092-3e-3 -1.1906-0.1717zm-112.22-36.392c-1.6178-0.1138-2.4066-0.28284-2.5825-0.5534-0.13925-0.21426-0.22217-0.73474-0.18426-1.1566 0.0379-0.42189 0.24752-0.8583 0.4658-0.9698 0.21829-0.11151 1.7066-0.50508 3.3073-0.87462 1.6007-0.36954 6.1251-1.2891 10.054-2.0434 3.9291-0.75432 11.132-2.1831 16.007-3.175 4.875-0.99191 8.685-1.8079 8.4667-1.8133-0.21828-5e-3 -3.0758 0.22709-6.35 0.51666s-9.4655 0.82033-13.758 1.1795c-4.2929 0.35913-10.067 0.7754-12.832 0.92503-2.7649 0.14963-9.3133 0.39493-14.552 0.54513-5.2388 0.15019-11.894 0.389-14.789 0.5307-2.8954 0.14169-5.7146 0.25762-6.265 0.25762-0.5569 0-1.185-0.18438-1.4164-0.41577-0.22868-0.22868-0.41578-0.70218-0.41578-1.0522 0-0.37237 0.24702-0.7923 0.59532-1.012 0.32742-0.20656 2.6789-0.68243 5.2255-1.0575 2.5466-0.37506 5.8208-0.81169 7.276-0.97029 1.4552-0.15859 5.0271-0.5848 7.9375-0.94712s6.4228-0.83523 7.8052-1.0509c1.3824-0.21568 5.4901-0.86897 9.1281-1.4518 3.638-0.58279 6.7336-1.1127 6.8792-1.1776 0.14552-0.0649-12.784-0.0899-28.733-0.0555-24.256 0.0523-29.069 3e-3 -29.435-0.30058-0.24071-0.19972-0.43765-0.62239-0.43765-0.93927s0.14287-0.71902 0.3175-0.89364c0.2435-0.24351 8.0284-0.31868 33.404-0.32256 18.197-3e-3 35.123-0.11814 37.613-0.25636 3.1623-0.17557 6.3122-0.56792 10.451-1.3018 3.2585-0.57775 7.8295-1.3604 10.158-1.7393s6.2574-0.98686 8.7312-1.3511c2.4738-0.36422 6.4624-0.89882 8.8635-1.188 2.4011-0.28917 6.6278-0.64636 9.3927-0.79376s5.6224-0.1902 6.35-0.0951c0.72761 0.0951 1.5313 0.35712 1.7859 0.58227s0.46302 0.67012 0.46302 0.98881c0 0.3187-0.20836 0.76241-0.46302 0.98603-0.25466 0.22363-0.70115 0.47872-0.99219 0.56688-0.29104 0.0882-3.3867 0.34129-6.8792 0.56252s-8.1955 0.64561-10.451 0.94306c-2.2556 0.29745-6.006 0.82662-8.3344 1.1759-2.3283 0.34932-6.6146 0.93197-9.525 1.2948-2.9104 0.36282-6.7204 0.79529-8.4667 0.96102-1.7462 0.16574-9.1281 1.3128-16.404 2.549-7.276 1.2362-16.325 2.7055-20.108 3.2652-3.7835 0.55966-6.4624 1.0253-5.9531 1.0348 0.50933 9e-3 3.8431-0.10032 7.4083-0.24398s8.9826-0.44242 12.039-0.66392 9.5448-0.7545 14.42-1.1844 12.146-1.024 16.158-1.3201 8.7745-0.71364 10.583-0.92785c1.8089-0.21422 3.7764-0.39185 4.3723-0.39473 0.74487-4e-3 1.2301 0.1568 1.5527 0.51327 0.30459 0.33657 0.41404 0.73842 0.31193 1.1453-0.0865 0.34472-0.43226 0.75204-0.76831 0.90515-0.33606 0.15312-5.4884 1.2394-11.45 2.4138-5.9612 1.1745-14.53 2.8506-19.041 3.7247-4.5111 0.8741-10.286 1.997-12.832 2.4954l-4.6302 0.90618 6.4823 0.027c3.5653 0.0149 8.5659-0.0924 11.112-0.23831 2.5466-0.14593 6.3235-0.44185 8.393-0.65761s3.8767-0.39229 4.016-0.39229c0.13926 0 0.44031 0.18709 0.66898 0.41577 0.22868 0.22868 0.41577 0.70074 0.41577 1.049 0 0.34829-0.20835 0.74194-0.46302 0.87478-0.25466 0.13284-1.4155 0.32138-2.5797 0.41898-1.1642 0.0976-3.6645 0.34767-5.5562 0.55572s-6.2376 0.49969-9.6573 0.64807-9.3133 0.25119-13.097 0.22847c-3.7835-0.0227-7.9273-0.11504-9.2084-0.20515zm322.56-18.003c-0.38907-0.11745-1.198-0.48929-1.7976-0.82629-0.59963-0.33701-1.4437-1.1464-1.8757-1.7986-0.432-0.65221-0.9161-1.6691-1.0758-2.2598-0.15968-0.59069-0.22423-1.719-0.14345-2.5073 0.0815-0.79508 0.50249-2.1556 0.94551-3.0556 0.57545-1.1689 1.3424-2.1108 2.7442-3.3705 1.0701-0.9615 2.5204-2.1128 3.223-2.5583 0.70261-0.44558 1.8853-1.0086 2.6282-1.2512 0.74289-0.24259 1.3937-0.47795 1.4463-0.52303 0.0526-0.0451-0.45495-1.1169-1.1278-2.3817-0.67287-1.2649-2.3379-3.9801-3.7001-6.0339-1.3622-2.0538-3.0825-4.8057-3.8229-6.1154s-2.0163-3.8595-2.8354-5.6663c-0.81907-1.8068-1.5526-3.6756-1.63-4.1528-0.0774-0.47728-0.067-1.1621 0.0233-1.5218s0.55128-0.88986 1.0245-1.1782 1.5577-0.66642 2.41-0.84023c1.2096-0.24669 1.9353-0.24487 3.3073 8e-3 0.96672 0.17838 3.6031 0.91435 5.8587 1.6355 2.2556 0.72115 4.3332 1.5361 4.617 1.8111 0.32607 0.31595 0.51593 0.85548 0.51593 1.4661 0 0.72642-0.18095 1.1218-0.72913 1.5934-0.40102 0.34494-1.0358 0.62717-1.4107 0.62717s-2.6954-0.65484-5.1566-1.4552c-2.4613-0.80036-4.7078-1.4552-4.9922-1.4552s-0.51716 0.049-0.51716 0.10885c0 0.0599 0.42357 1.1017 0.94127 2.3151 0.51771 1.2134 1.6017 3.4458 2.4089 4.9608 0.8072 1.515 2.3876 4.2534 3.5121 6.0854 1.1244 1.832 2.9153 4.9665 3.9798 6.9655 1.8286 3.4342 2.0114 3.6776 3.3157 4.4136 0.75922 0.42848 1.8116 1.2828 2.3387 1.8986 0.52704 0.61574 1.0342 1.5244 1.1271 2.0193 0.0928 0.49486 0.1034 1.3873 0.0235 1.9831s-0.57281 1.9484-1.0953 3.0055c-0.52249 1.0572-1.4821 2.6301-2.1325 3.4953s-1.8093 2-2.5753 2.5217c-0.76603 0.5217-2.3067 1.2517-3.4238 1.6223-1.4347 0.47592-2.5611 0.66705-3.8365 0.65098-0.99299-0.0125-2.1238-0.11884-2.5128-0.2363zm3.1879-9.3983c0.0182-0.0728 0.0312-0.40018 0.029-0.7276-3e-3 -0.4814-0.0531-0.51937-0.26053-0.19844-0.14106 0.21828-0.2583 0.61516-0.26053 0.88194-2e-3 0.26679 0.10013 0.41562 0.22746 0.33073 0.12733-0.0849 0.24639-0.21387 0.26458-0.28663zm-384.32-1.8501c-0.41422-0.29013-0.64026-0.86923-0.852-2.1828-0.15851-0.98335-0.58818-4.2287-0.95483-7.2119s-0.91038-7.1504-1.2083-9.2604c-0.29791-2.11-0.82356-4.908-1.1681-6.2177-0.34454-1.3097-0.76354-3.0731-0.9311-3.9188-0.30122-1.5202-0.31349-1.5356-1.0871-1.3657-0.46993 0.10322-0.93666 0.0439-1.1685-0.14852-0.21232-0.17621-0.38603-0.59754-0.38603-0.9363 0-0.33875 0.18792-0.72108 0.41761-0.84962 0.35564-0.19902 0.31637-0.30005-0.26458-0.68071-0.46645-0.30562-0.6822-0.68312-0.6822-1.1936 0-0.41066 0.20836-0.9256 0.46302-1.1443 0.25466-0.21872 0.67959-0.47471 0.94428-0.56887 0.30728-0.10931 0.43021-0.33907 0.34003-0.63553-0.0777-0.25538-0.50364-2.1052-0.94658-4.1107-0.44294-2.0055-1.0394-5.1011-1.3254-6.8792-0.28602-1.778-0.69628-4.9592-0.91169-7.0692s-0.47325-5.4605-0.57298-7.4454c-0.17897-3.562-0.17356-3.6131 0.41568-3.9284 0.478-0.25582 0.66906-0.24746 0.95845 0.0419 0.2571 0.25711 0.43715 1.749 0.62374 5.1683 0.14427 2.6438 0.40211 6.1859 0.57299 7.8713 0.17087 1.6855 0.36487 3.0103 0.43111 2.944 0.0662-0.0662-0.0106-1.7055-0.17071-3.6429-0.16013-1.9373-0.36935-5.7996-0.46492-8.5829l-0.17378-5.0605 0.7326-0.48002c0.6606-0.43284 0.80112-0.44163 1.4297-0.0894l0.69712 0.39063 0.18227 5.2822c0.10026 2.9052 0.3133 7.0681 0.47343 9.2509 0.16014 2.1828 0.58413 6.5231 0.94221 9.6451 0.35807 3.122 0.65105 5.9051 0.65105 6.1846 0 0.42888 0.13002 0.48227 0.83236 0.3418 0.4578-0.0916 3.2855-0.58883 6.2838-1.105s7.8327-1.345 10.743-1.8417 6.4228-1.1934 7.8052-1.5481c1.3824-0.35474 3.055-0.72601 3.7167-0.82505l1.2032-0.18006-1.0914-6.6587c-0.92765-5.6596-1.3161-7.3383-2.5887-11.188-0.82353-2.491-1.974-6.4201-2.5566-8.7312-0.58261-2.3112-1.0604-4.4063-1.0618-4.6558-1e-3 -0.24954 0.21915-0.57235 0.49009-0.71735 0.34341-0.18379 0.6159-0.16658 0.89967 0.0568 0.23157 0.18232 0.72268 1.7177 1.1392 3.5614 0.40266 1.7825 0.78378 3.1893 0.84694 3.1261 0.0632-0.0632-0.0343-1.631-0.21647-3.484-0.33108-3.3671-0.33092-3.3695 0.26708-3.8537 0.3291-0.26649 0.75058-0.48453 0.93661-0.48453 0.18604 0 0.58323 0.20836 0.88265 0.46302 0.47285 0.40218 0.60039 1.0541 0.97061 4.9609 0.23442 2.4738 0.8376 7.5935 1.3404 11.377 0.69959 5.2644 1.128 7.5623 1.8252 9.7896 0.50107 1.6007 1.1204 3.6843 1.3762 4.6302 0.25584 0.94588 0.61826 1.8771 0.80536 2.0694 0.1871 0.19229 0.34019 0.63175 0.34019 0.97657s0.12871 0.70649 0.28602 0.80371c0.15731 0.0972 0.21698 0.45185 0.1326 0.78805-0.0997 0.39709 0.68618 3.0524 2.2427 7.5779 2.1689 6.3058 2.4816 7.4686 3.2964 12.258 0.49515 2.9104 1.2002 6.3037 1.5667 7.5406 0.36655 1.2369 0.66895 2.5023 0.672 2.8119 3e-3 0.30961-0.17149 0.70986-0.38789 0.88944-0.22282 0.18493-0.67722 0.2553-1.0478 0.16228-0.53918-0.13532-0.74621-0.4783-1.1757-1.9478-0.28673-0.98094-0.64433-2.2598-0.79467-2.8419-0.15034-0.58209-0.57188-3.3847-0.93677-6.228-0.36488-2.8433-0.95819-6.1771-1.3185-7.4083s-1.1316-3.5483-1.714-5.1491-1.065-2.8361-1.0723-2.7452c-7e-3 0.0909 0.57604 2.8293 1.2964 6.0854 0.7204 3.2561 1.5492 7.587 1.8419 9.6243 0.29265 2.0373 0.7146 5.4694 0.93767 7.6269 0.26884 2.6001 0.31936 4.0839 0.14983 4.4006-0.14066 0.26284-0.44739 0.55143-0.68162 0.64131-0.23422 0.0899-0.75486 0.16342-1.157 0.16342-0.40723 0-0.95438-0.24672-1.2351-0.55693-0.45028-0.49755-0.52314-1.1744-0.68333-6.348-0.0986-3.1851-0.37971-7.1764-0.62465-8.8696-0.24495-1.6932-1.0626-5.8568-1.817-9.2523s-1.4477-6.2498-1.5406-6.3427-0.92097 0.0178-1.8402 0.24593c-0.91918 0.22816-2.5047 0.53722-3.5233 0.6868-1.0186 0.14958-3.2808 0.38459-5.0271 0.52225-1.7462 0.13765-5.1395 0.67643-7.5406 1.1973-2.4011 0.52085-6.1516 1.3754-8.3344 1.8989-2.1828 0.52354-4.053 1.028-4.156 1.121-0.103 0.093 0.21869 2.9066 0.71488 6.2525 0.69194 4.6658 1.1455 6.8232 1.9467 9.2584 0.57448 1.7462 1.8369 5.3137 2.8054 7.9276 1.1034 2.9782 1.7058 4.972 1.6134 5.3402-0.0811 0.32318-0.36855 0.65776-0.63875 0.74352-0.2702 0.0858-0.68349 0.0822-0.91842-8e-3 -0.23809-0.0914-0.68664-0.96962-1.0134-1.9843-0.32247-1.0012-0.62913-1.7776-0.68146-1.7253-0.0523 0.0523 0.0893 0.89044 0.31472 1.8625 0.22543 0.97203 0.40987 2.1086 0.40987 2.5258s-0.1871 0.94553-0.41578 1.1742c-0.22867 0.22867-0.67843 0.41577-0.99946 0.41577s-0.8374-0.1777-1.1475-0.3949zm-7.0435-48.746c-0.0671-0.25743-0.12639-0.11087-0.13178 0.3257-5e-3 0.43656 0.0495 0.64718 0.12197 0.46805 0.0725-0.17913 0.0769-0.53632 0.01-0.79375zm30.954-17.848c-0.0845-0.21107-0.14715-0.14837-0.15985 0.15985-0.0115 0.27892 0.051 0.43519 0.13897 0.34727 0.0879-0.0879 0.0973-0.31612 0.0209-0.50712zm37.665 64.558c-0.14144-0.33616-0.7963-4.957-1.4552-10.268s-1.375-11.443-1.5912-13.626-0.52234-5.8142-0.68031-8.0698c-0.15798-2.2556-0.35543-11.64-0.4388-20.855l-0.15158-16.754-6.6729 0.18899c-6.5909 0.18668-6.6799 0.18203-7.2394-0.37749-0.31158-0.31157-0.56467-0.83439-0.56245-1.1618 2e-3 -0.32742 0.0915-0.72455 0.19844-0.88251 0.10691-0.15795 0.43251-0.41747 0.72356-0.5767 0.50567-0.27666 0.49686-0.3018-0.19844-0.56615-0.52483-0.19955-0.72761-0.46022-0.72761-0.93534 0-0.3726 0.21486-0.77369 0.49468-0.92344 0.32103-0.17182 1.0408-0.17852 2.0505-0.0191 0.85572 0.13511 3.1037 0.42374 4.9954 0.64139 1.8918 0.21766 4.8981 0.47805 6.6807 0.57865l3.2411 0.1829v-0.82414c0-0.51867 0.17416-0.91734 0.46986-1.0756 0.29806-0.15952 0.63664-0.15812 0.92604 4e-3 0.29439 0.16475 0.45619 0.57908 0.45619 1.1682v0.9129h4.5804c3.7428 0 4.9644-0.0985 6.6807-0.53859 1.1552-0.29622 2.6456-0.72916 3.312-0.96209 1.0496-0.36685 1.3124-0.37444 1.9648-0.0567 0.41424 0.20173 0.86244 0.69802 0.99601 1.1029 0.17977 0.54489 0.13564 0.89971-0.16993 1.3661-0.22704 0.34649-0.74733 0.70346-1.1562 0.79327-0.409 0.0898-0.85935 0.42747-1.0012 0.75059-0.19133 0.436-0.46223 0.57668-1.0515 0.54604-0.43657-0.0227-1.0914-0.0647-1.4552-0.0934s-1.894 0.14311-3.4005 0.38175c-1.5065 0.23865-4.2312 0.45067-6.0551 0.47117l-3.316 0.0373 0.18056 4.9139c0.0993 2.7027 0.29169 7.0337 0.42752 9.6246 0.13583 2.5909 0.24676 8.9124 0.24652 14.048-2.4e-4 5.1354 0.12329 11.052 0.27451 13.149s0.39253 4.9426 0.53625 6.3251c0.14371 1.3824 0.75132 6.543 1.3502 11.468 1.0093 8.2992 1.0572 8.986 0.655 9.3882-0.33172 0.33172-0.54079 0.36653-0.88758 0.14778-0.36335-0.2292-0.5084-0.17564-0.72872 0.26907-0.19115 0.38582-0.57546 0.58024-1.2596 0.63724-0.81896 0.0682-1.0278-0.0208-1.2417-0.52916zm2.2544-5.1753c-0.0979-0.98226-0.52685-4.7738-0.95331-8.4257-0.42646-3.6519-0.96444-8.593-1.1955-10.98-0.27265-2.8169-0.51176-9.5878-0.68119-19.289-0.14358-8.2219-0.35219-16.616-0.46358-18.653-0.14249-2.6064-0.21535 0.60856-0.24584 10.848-0.0238 8.0036 0.0765 16.576 0.22299 19.05 0.14648 2.4738 0.44504 6.3434 0.66348 8.599s0.69353 6.5418 1.0558 9.525c0.36223 2.9832 0.8595 6.7039 1.105 8.2682s0.49676 2.8443 0.55827 2.8443c0.0615 0 0.0318-0.80367-0.0661-1.7859zm19.884 1.8863c-0.10369-0.10369-0.18853-0.84629-0.18853-1.6502 0-1.2964-0.0406-1.4061-0.35943-0.97013-0.21593 0.2953-0.68564 0.49154-1.1765 0.49154-0.44941 0-1.0142-0.1636-1.2552-0.36355-0.40253-0.33406-0.4243-1.7162-0.26846-17.044 0.0933-9.174 0.28973-18.846 0.43657-21.494 0.16947-3.0555 0.44131-5.4424 0.74426-6.535 0.2625-0.94666 0.67628-2.0249 0.91952-2.3962 0.32867-0.50162 0.67027-0.67495 1.3302-0.67495 0.48838 0 1.549 0.30262 2.3568 0.67248 0.9488 0.43437 1.9804 1.225 2.9136 2.233 0.79461 0.85828 2.0158 2.4904 2.7137 3.627 0.6979 1.1366 1.2999 2.1098 1.3378 2.1628 0.0379 0.053 0.46779-0.15024 0.9554-0.45161 0.56973-0.35211 1.3548-1.3512 2.1967-2.7957 0.72059-1.2363 2.0841-3.5891 3.03-5.2284 1.0641-1.8443 2.3351-3.6111 3.3337-4.6343 0.88767-0.90948 1.9466-1.7801 2.3532-1.9347 0.52314-0.19889 0.99087-0.19803 1.5999 3e-3 0.5519 0.18214 0.97393 0.55762 1.1765 1.0468 0.17377 0.41951 0.23988 1.0024 0.14691 1.2953-0.11638 0.36668-0.0165 0.61419 0.32067 0.79464 0.26934 0.14414 0.7989 0.836 1.1768 1.5375 0.37791 0.70146 0.9339 2.1684 1.2355 3.2598 0.30163 1.0914 0.84283 3.3536 1.2026 5.0271 0.35983 1.6735 0.79918 3.8761 0.97635 4.8948 0.22265 1.2801 0.32926 6.0599 0.34523 15.478l0.0231 13.626 0.77687 2.472c0.57679 1.8354 0.7062 2.5849 0.50248 2.9104-0.15091 0.24112-0.64386 0.4753-1.0954 0.5204-0.56885 0.0568-0.91295-0.0651-1.1202-0.397-0.23097-0.36985-0.56019-0.45824-1.4447-0.38789-0.93692 0.0745-1.1982-7e-3 -1.4342-0.44816-0.15874-0.2966-0.40345-2.9569-0.54381-5.9118s-0.43944-7.2776-0.66463-9.6059c-0.22519-2.3283-0.94554-8.8768-1.6008-14.552-0.65524-5.6753-1.2582-10.841-1.3398-11.478l-0.14845-1.1596-2.0355 3.6732c-1.1195 2.0202-2.4639 4.3363-2.9874 5.1468-0.52356 0.81051-1.342 1.9179-1.8188 2.4609-0.47675 0.543-1.2228 1.1714-1.658 1.3964-0.49523 0.2561-1.0954 0.34824-1.6048 0.24637-0.44753-0.0895-1.1458-0.48095-1.5518-0.86988-0.40596-0.38893-1.299-1.0119-1.9846-1.3844-0.88926-0.48316-1.742-1.3357-2.9756-2.9752-1.6467-2.1883-1.7372-2.2641-1.8963-1.5875-0.0919 0.39077-0.18122 2.2991-0.19844 4.2408-0.0172 1.9416-0.21929 7.0613-0.44904 11.377s-0.49764 12.014-0.59531 17.107l-0.17758 9.2604-0.67136 0.0783c-0.36925 0.0431-0.7562-7e-3 -0.8599-0.11024zm0.43341-33.438c0.0949-6.8063 0.0611-10.233-0.0926-9.3927-0.13315 0.7276-0.36624 2.8648-0.51798 4.7492s-0.2759 7.4409-0.2759 12.348c0 4.9067 0.0893 9.1394 0.19844 9.406 0.11252 0.27481 0.27209-1.0046 0.36854-2.9549 0.0936-1.8918 0.23735-8.2616 0.31955-14.155zm26.627-2.8287c-0.13488-1.483-0.49495-3.9218-0.80017-5.4195-0.30521-1.4977-0.61994-2.7847-0.6994-2.8599-0.0794-0.0752-0.0732 0.57761 0.0138 1.4507 0.0871 0.87312 0.34263 3.9688 0.56797 6.8792 0.22533 2.9104 0.48656 5.5893 0.5805 5.9531 0.11996 0.46457 0.23208 0.0708 0.37667-1.3229 0.11322-1.0914 0.0955-3.1977-0.0394-4.6808zm210.61 32.964c-0.80036-0.11975-7.7655-0.33322-15.478-0.47438-7.7126-0.14116-16.107-0.32864-18.653-0.41662-2.5466-0.088-7.071-0.28029-10.054-0.42735-2.9832-0.14707-8.8172-0.5045-12.965-0.7943s-11.232-0.82055-15.743-1.1794-11.893-0.88606-16.404-1.1715c-4.5111-0.28541-11.805-0.64179-16.208-0.79197-4.4031-0.15019-11.205-0.27306-15.115-0.27306-5.8763 0-7.1644-0.0663-7.4267-0.38231-0.17451-0.21027-0.27838-0.65564-0.23083-0.98971 0.0476-0.33407 0.38411-0.74699 0.74791-0.91761 0.49915-0.23409 3.8752-0.25301 13.758-0.0771 7.2033 0.1282 15.061 0.35162 17.462 0.49651 2.4011 0.14488 8.4733 0.56375 13.494 0.93081 5.0205 0.36706 9.6639 0.72954 10.319 0.80551 0.65484 0.076 3.7505 0.32024 6.8792 0.54281 3.1287 0.22258 7.2959 0.51859 9.2604 0.65781 1.9645 0.13921 6.727 0.43146 10.583 0.64945 3.8563 0.21799 12.429 0.52223 19.05 0.6761 6.6212 0.15387 15.924 0.3667 20.672 0.47297 6.6081 0.14788 8.7344 0.27657 9.062 0.54848 0.23544 0.1954 0.42807 0.65499 0.42807 1.0213s-0.20836 0.8242-0.46302 1.0175-0.70114 0.33851-0.99218 0.32265c-0.29105-0.0159-1.184-0.12682-1.9844-0.24658zm-187.37-2.4364c-0.67687-0.19319-1.5698-0.58058-1.9844-0.86086-0.41454-0.28028-1.0734-0.64987-1.4642-0.82131-0.39077-0.17144-0.88571-0.65055-1.0999-1.0647s-0.46809-1.8816-0.56429-3.2611c-0.0962-1.3795-0.29442-3.4606-0.44048-4.6248-0.14607-1.1642-0.61415-3.7172-1.0402-5.6733s-0.90046-4.8732-1.0543-6.4823c-0.1538-1.6091-0.40634-9.7122-0.56118-18.007-0.15484-8.2947-0.33251-16.967-0.3948-19.272-0.0829-3.0685-0.0262-4.2956 0.21183-4.5825 0.1788-0.21545 0.54632-0.33387 0.8167-0.26316 0.29643 0.0775 0.74544-0.12528 1.1309-0.51078 0.35163-0.35163 0.79684-0.63932 0.98936-0.63932s0.61465 0.18534 0.93807 0.41187l0.58804 0.41188v15.931c0 8.7619 0.12209 17.834 0.27132 20.159s0.39107 5.1813 0.53742 6.3455c0.14636 1.1642 0.55273 3.7835 0.90306 5.8208 0.35033 2.0373 0.94457 5.5448 1.3205 7.7944 0.37596 2.2496 0.86875 4.3729 1.0951 4.7184 0.37504 0.57237 0.53293 0.61237 1.7801 0.45094 0.7527-0.0974 2.8568-0.40872 4.6758-0.69176s4.7956-0.75761 6.6146-1.0546c1.819-0.29699 4.46-0.82904 5.8688-1.1823 1.4088-0.35328 2.7894-0.64234 3.0678-0.64234s0.71832 0.23421 0.97737 0.52047c0.27471 0.30355 0.4124 0.74464 0.33037 1.0583-0.10594 0.4051-0.0132 0.53787 0.37576 0.53787 0.28404 0 0.80867 0.29224 1.1659 0.64943 0.39664 0.39664 0.64943 0.95392 0.64943 1.4317 0 0.53805-0.23911 0.98345-0.76593 1.4267-0.68041 0.57254-1.1154 0.66538-3.8964 0.83165-1.7218 0.10293-5.1573 0.42181-7.6346 0.70862-2.4773 0.2868-6.2305 0.57885-8.3406 0.649-2.7356 0.0909-4.1896 0.0267-5.0671-0.22373zm190.73-2.5039c-0.40611-0.25079-0.80361-0.71445-0.88333-1.0304-0.0797-0.31592-0.10464-0.77955-0.0554-1.0303 0.0493-0.25075 0.40941-0.69447 0.80033-0.98605 0.62871-0.46894 0.80548-0.4909 1.5315-0.19019 0.45139 0.18698 0.93523 0.55392 1.0752 0.81544s0.25447 0.78097 0.25447 1.1543-0.23813 0.91697-0.52917 1.208c-0.29104 0.29104-0.73753 0.52599-0.99219 0.52212-0.25466-4e-3 -0.79529-0.21223-1.2014-0.46302zm-9.7896-1.8521c-0.4061-0.25079-0.8036-0.71446-0.88332-1.0304-0.0797-0.31591-0.10464-0.77954-0.0554-1.0303 0.0493-0.25075 0.40942-0.69447 0.80033-0.98605 0.62872-0.46895 0.80549-0.4909 1.5315-0.19019 0.45139 0.18697 0.93522 0.55392 1.0752 0.81544 0.13996 0.26151 0.25447 0.78096 0.25447 1.1543s-0.23812 0.91698-0.52916 1.208-0.73753 0.526-0.99219 0.52213c-0.25466-4e-3 -0.79529-0.21223-1.2014-0.46302zm-11.602-1.3581c-0.60693-0.49096-0.62837-0.64647-0.75692-5.4901-0.0728-2.7417-0.0545-5.7587 0.0406-6.7046 0.0951-0.94588 0.12834-1.7659 0.0739-1.8223-0.0544-0.0564-0.90616 0.55453-1.8927 1.3576-0.98653 0.80303-2.4874 1.943-3.3352 2.5333-0.84784 0.59028-1.9006 1.1521-2.3395 1.2485-0.43889 0.0964-1.3354 0.0947-1.9923-4e-3 -0.88923-0.13335-1.5018-0.46111-2.3983-1.2832-0.66221-0.60723-1.6616-1.6803-2.2209-2.3846l-1.0169-1.2805v5.1831c0 4.8304-0.036 5.2192-0.52916 5.7123-0.29105 0.29104-0.8656 0.52917-1.2768 0.52917-0.44505 0-0.98674-0.25453-1.3385-0.62891-0.58653-0.62434-0.59023-0.6825-0.50914-8.0036 0.0809-7.3063 0.0878-7.3856 0.74315-8.5459 0.40682-0.72032 0.93795-1.2623 1.3797-1.408 0.49245-0.16236 0.94992-0.12591 1.4552 0.11596 0.42134 0.20167 0.85029 0.69766 1.0016 1.1581 0.14553 0.44293 1.0385 1.6821 1.9844 2.7536 0.94589 1.0716 2.0954 2.3455 2.5546 2.8309 0.59923 0.63357 0.9725 0.83197 1.3229 0.70315 0.26848-0.0987 1.6517-1.1103 3.0738-2.2479s3.0544-2.3077 3.6275-2.6 1.5288-0.53152 2.1239-0.53152 1.4321 0.18105 1.86 0.40233 1.043 0.90589 1.3668 1.5214c0.55977 1.0639 0.59374 1.484 0.68949 8.5274 0.0989 7.2762 0.0905 7.4213-0.4731 8.1359-0.44669 0.56643-0.79749 0.7276-1.5836 0.7276-0.59945 0-1.2636-0.20533-1.6344-0.50526zm-41.335-1.6306c-0.45425-0.35732-0.69714-0.80447-0.69714-1.2834 0-0.47143 0.53788-1.4847 1.4997-2.8251 0.82483-1.1495 3.0754-4.4907 5.0013-7.4248 1.9259-2.9342 3.8263-5.5476 4.2232-5.8076 0.39685-0.26002 1.1212-0.47277 1.6097-0.47277 0.61544 0 1.1292 0.23097 1.6733 0.75218 0.43181 0.4137 0.98528 1.174 1.2299 1.6896s0.8393 3.0902 1.3214 5.7213c0.48214 2.6312 0.95772 5.5756 1.0569 6.5432 0.16967 1.6562 0.14017 1.7993-0.50346 2.4429-0.46459 0.4646-0.9631 0.681-1.5556 0.67528-0.47956-5e-3 -1.0608-0.15345-1.2917-0.33073-0.23089-0.17727-0.54853-0.5641-0.70586-0.85961-0.15734-0.29552-0.36767-1.3671-0.4674-2.3812l-0.18133-1.844-3.0816 0.0778c-1.6948 0.0428-3.2085 0.11995-3.3636 0.17144-0.15512 0.0515-0.96315 1.235-1.7956 2.63s-1.7396 2.6573-2.0157 2.8051-0.67244 0.2687-0.88066 0.2687-0.6923-0.24676-1.0757-0.54837zm11.436-10.167c-0.10795-0.72761-0.23296-1.6801-0.27781-2.1167l-0.0815-0.79375-1.0793 1.4552c-0.59363 0.80036-1.2901 1.7798-1.5477 2.1766l-0.46837 0.72137 3.651-0.1198zm-45.735 9.147c-1.0187-0.0895-2.0973-0.37279-2.6458-0.6949l-0.92604-0.54378-0.0717-5.6739c-0.0636-5.0282-0.0121-5.8704 0.4524-7.3998 0.32551-1.0719 0.89027-2.1537 1.4904-2.8548 0.53148-0.62092 1.5185-1.4045 2.1934-1.7413 0.67491-0.33681 1.6223-0.6879 2.1052-0.7802 0.48298-0.0923 1.4136-0.0478 2.0681 0.0988 0.65447 0.14666 1.5336 0.52074 1.9536 0.83128 0.42002 0.31053 0.9479 1.025 1.1731 1.5878 0.22517 0.56275 0.4094 1.3568 0.4094 1.7644 0 0.4077-0.18505 1.2844-0.41123 1.9482s-0.81604 1.6798-1.3108 2.2578l-0.89956 1.0509 1.0343 0.30988c0.56886 0.17043 1.413 0.62857 1.8759 1.0181s1.004 1.0969 1.2026 1.572c0.19849 0.47507 0.3609 1.3062 0.3609 1.847 0 0.54082-0.24232 1.4838-0.53848 2.0956s-0.98076 1.4184-1.5214 1.7925-1.4591 0.84558-2.0412 1.0478c-0.58208 0.20219-1.7727 0.4239-2.6458 0.49269-0.87312 0.0688-2.3614 0.0571-3.3073-0.026zm5.4876-3.5422c0.47157-0.25099 1.047-0.7457 1.2787-1.0994 0.24859-0.37939 0.35039-0.86644 0.24833-1.188-0.0951-0.29976-0.51582-0.72231-0.93485-0.93899-0.41902-0.21669-1.4524-0.39682-2.2964-0.40029-0.84397-3e-3 -1.9714-0.10785-2.5055-0.23194-0.53405-0.1241-1.2782-0.16691-1.6536-0.0951-0.66998 0.12808-0.68265 0.17218-0.68265 2.3779v2.2474l2.8443-0.10759c2.0174-0.0763 3.0935-0.24025 3.7017-0.56394zm-2.2495-8.7447c0.59452-0.45583 1.3123-1.2769 1.595-1.8245 0.32801-0.6353 0.45349-1.2373 0.34664-1.663-0.0921-0.36699-0.44596-0.77313-0.78635-0.90255-0.34264-0.13027-1.0509-0.13787-1.5867-0.017-0.5323 0.12006-1.3817 0.53396-1.8876 0.91979-0.50585 0.38584-1.1112 1.0719-1.3453 1.5245-0.23407 0.45264-0.4884 1.5158-0.56518 2.3625l-0.1396 1.5395 1.644-0.55519c0.90421-0.30536 2.1304-0.92815 2.725-1.384zm19.781 12.096c-0.3638-0.0548-1.135-0.23004-1.7137-0.38946-0.57874-0.15942-1.5463-0.62978-2.1502-1.0452-0.70289-0.48361-1.2525-1.1416-1.5274-1.8288-0.24403-0.60991-0.42949-1.8254-0.42949-2.8148 0-0.95775 0.12711-3.4854 0.28248-5.617 0.15536-2.1316 0.39202-4.146 0.52591-4.4763s0.56445-0.72267 0.9568-0.87184c0.49902-0.18973 0.92692-0.18276 1.4241 0.0232 0.39093 0.16193 0.85043 0.60091 1.0211 0.97552 0.23595 0.51786 0.23895 1.7026 0.0125 4.9431-0.16379 2.3441-0.25823 4.7977-0.20987 5.4526l0.0879 1.1906 3.6615 0.1323c3.6132 0.13054 3.6699 0.14208 4.2995 0.87465 0.36645 0.4264 0.63798 1.079 0.63798 1.5334 0 0.48707-0.24955 1.0406-0.64944 1.4404-0.6028 0.60281-0.82601 0.64685-3.1088 0.6134-1.3527-0.0198-2.7571-0.0809-3.1209-0.13564zm75.315-3.4872c-0.26878-0.297-0.43762-0.93562-0.4372-1.6536 3.8e-4 -0.64338 0.29177-3.0153 0.64754-5.2708s0.82033-4.9198 1.0324-5.9205c0.22857-1.0787 0.60885-2.0428 0.93409-2.368 0.3444-0.34441 0.89051-0.54857 1.4673-0.54857 0.52352 0 1.1521 0.21113 1.4611 0.49079 0.36577 0.33101 0.54233 0.81868 0.54233 1.4979 0 0.5539-0.23064 1.9962-0.51254 3.2052s-0.82711 3.9223-1.2116 6.0295-0.87095 4.0993-1.0811 4.4267c-0.28677 0.44688-0.63414 0.59531-1.3932 0.59531-0.64365 0-1.1704-0.17588-1.4491-0.48385zm-10.704-1.4212c-0.18727-0.18727-0.31681-1.0826-0.31582-2.1828 9.3e-4 -1.0259 0.28681-3.9934 0.6353-6.5943 0.49163-3.6694 0.74342-4.8388 1.1237-5.2191 0.26956-0.26956 0.84876-0.56183 1.2871-0.6495 0.58569-0.11714 0.98882-9e-3 1.5204 0.40964 0.5754 0.45261 0.72343 0.78829 0.72343 1.6405 0 0.58927-0.37049 3.4679-0.82331 6.3969-0.45281 2.929-0.99134 5.5934-1.1967 5.9208-0.29253 0.46636-0.61854 0.59531-1.505 0.59531-0.62239 0-1.2745-0.14287-1.4491-0.3175zm-134.66-13.471c-0.1819-0.18695-0.33073-0.59917-0.33073-0.91605s0.17599-0.72221 0.3911-0.90073c0.2151-0.17852 2.9833-0.72602 6.1516-1.2167 3.1683-0.49064 9.9872-1.37 15.153-1.9542 5.166-0.58418 12.607-1.3582 16.536-1.72 3.9291-0.36182 11.49-0.95835 16.801-1.3256 5.3115-0.36728 13.408-0.96721 17.992-1.3332 4.5839-0.36598 14.288-1.2554 21.564-1.9766 7.276-0.72116 15.908-1.5517 19.182-1.8456 3.2742-0.29391 9.4655-0.89445 13.758-1.3345 4.2929-0.44008 13.342-1.4491 20.108-2.2422 6.7667-0.79311 16.828-1.9185 22.357-2.5008 5.5298-0.58233 13.328-1.3588 17.33-1.7255 4.0018-0.36671 10.372-0.84922 14.155-1.0722 3.7836-0.22303 9.1414-0.58533 11.906-0.80511 2.7649-0.21979 6.5749-0.57213 8.4667-0.783 1.8918-0.21086 6.5947-0.73511 10.451-1.165 3.8563-0.42988 9.0355-0.96992 11.509-1.2001 2.4738-0.23017 4.8688-0.47864 5.322-0.55216 0.5632-0.0914 1.0156 0.0214 1.429 0.35613 0.46361 0.3754 0.56452 0.65059 0.43208 1.1783-0.095 0.37865-0.38088 0.75152-0.6352 0.82858-0.25432 0.0771-2.2483 0.26849-4.4312 0.42539-2.1828 0.15689-5.5761 0.45482-7.5406 0.66205-1.9645 0.20724-7.2033 0.79004-11.642 1.2951-4.4384 0.50507-11.344 1.1604-15.346 1.4563s-9.4787 0.6669-12.171 0.82448c-2.6921 0.15757-6.8593 0.46101-9.2604 0.67429-2.4011 0.21328-6.7469 0.62685-9.6573 0.91905-2.9104 0.29219-8.685 0.89068-12.832 1.33-4.1473 0.43929-13.077 1.4465-19.844 2.2383-6.7667 0.79177-15.815 1.7918-20.108 2.2224-4.2929 0.43052-10.484 1.0333-13.758 1.3395s-11.906 1.1429-19.182 1.8593c-7.276 0.71642-16.98 1.599-21.564 1.9613-4.5839 0.36227-10.894 0.84512-14.023 1.073-3.1287 0.22787-8.0103 0.5925-10.848 0.81028-2.8377 0.21779-9.3266 0.81003-14.42 1.3161s-11.165 1.1657-13.494 1.4659c-2.3283 0.30019-7.0313 0.96779-10.451 1.4836-3.4197 0.51576-6.8726 0.9945-7.6729 1.0639-0.98325 0.0852-1.5625 0.0159-1.7859-0.21379zm2.9031-18.108c-0.32342-0.22654-0.58804-0.68821-0.58804-1.0259s0.15348-0.74143 0.34107-0.89711c0.18758-0.15569 1.3484-0.65979 2.5797-1.1202 1.2312-0.46045 6.8821-2.4413 12.557-4.4019 5.6753-1.9606 15.677-5.4114 22.225-7.6684s19.645-6.6998 29.104-9.8729c9.4588-3.1731 23.032-7.8756 30.162-10.45s15.108-5.4901 17.727-6.4793c2.6194-0.9892 9.0602-3.4717 14.313-5.5168 5.2528-2.045 14.302-5.6391 20.108-7.9869 5.8068-2.3478 13.177-5.2839 16.379-6.5247s8.0235-3.0647 10.716-4.053c2.6921-0.98836 8.169-2.873 12.171-4.1881 4.0018-1.3151 8.4638-2.7647 9.9155-3.2214s4.845-1.4868 7.5406-2.2894c2.6957-0.80253 5.5269-1.6317 6.2916-1.8426 1.0218-0.28179 1.5303-0.30854 1.9182-0.10094 0.33475 0.17916 0.52783 0.5539 0.52783 1.0245 0 0.53226-0.18469 0.82613-0.65346 1.0397-0.3594 0.16376-1.4012 0.48817-2.3151 0.72093-0.91391 0.23276-4.9954 1.4347-9.07 2.671-4.0746 1.2363-8.3608 2.5532-9.525 2.9265s-5.9862 2.0284-10.716 3.6781c-4.7294 1.6497-12.171 4.4151-16.536 6.1454-4.3656 1.7303-12.7 5.0567-18.521 7.392-5.8208 2.3353-14.572 5.7958-19.447 7.6899-4.875 1.8941-11.781 4.5336-15.346 5.8654s-10.947 4.0322-16.404 6.0009c-5.457 1.9687-16.947 5.9404-25.532 8.826-8.5857 2.8856-19.599 6.6322-24.474 8.3257-4.875 1.6936-13.447 4.6694-19.05 6.613-5.6026 1.9436-12.032 4.1865-14.288 4.9842-2.2556 0.79775-5.6993 2.0575-7.6527 2.7994-1.9534 0.74189-3.6236 1.3489-3.7114 1.3489-0.0879 0-0.42439-0.18535-0.74781-0.41188zm289.76-0.63392c-0.45626-0.10883-1.1886-0.45357-1.6275-0.76609s-1.2538-1.2531-1.811-2.0901c-0.55716-0.83707-1.2199-2.1172-1.4727-2.8448-0.27521-0.79206-0.46313-2.1299-0.4683-3.334-5e-3 -1.1061 0.13069-2.4158 0.30098-2.9104 0.17028-0.49466 0.60023-1.3419 0.95542-1.8828 0.3552-0.54091 1.2242-1.3546 1.9311-1.8082 0.70689-0.45362 1.8545-1.0406 2.5503-1.3043 0.69577-0.26375 2.1847-0.63361 3.3088-0.82193 1.8206-0.305 2.2039-0.2919 3.5103 0.11991 0.92685 0.29217 1.8704 0.84646 2.5639 1.5062 0.60353 0.57413 1.1236 1.0139 1.1556 0.97722 0.0321-0.0367 0.66833-1.2869 1.4139-2.7784 0.74557-1.4915 1.9-3.9322 2.5654-5.424 0.66538-1.4917 1.6764-3.8755 2.2467-5.2972 0.57028-1.4218 1.0369-2.7017 1.0369-2.8443 0-0.1426-0.20836-0.25971-0.46302-0.26025s-2.0108-0.54-3.9026-1.1988c-1.8918-0.6588-4.8683-1.6002-6.6146-2.0921-1.7462-0.49185-4.3656-1.1526-5.8208-1.4683-1.4552-0.3157-4.371-0.79789-6.4795-1.0715s-3.9098-0.4129-4.0029-0.30948c-0.0931 0.10343-0.31899 0.6643-0.50192 1.2464s-1.3797 3.7372-2.6595 7.0115c-1.2798 3.2742-3.2181 8.5725-4.3074 11.774-1.0893 3.2015-2.3448 6.8035-2.7901 8.0046-0.44528 1.2011-1.0038 2.5592-1.2411 3.0182-0.23731 0.45892-0.95907 1.3984-1.6039 2.0878-0.64483 0.68937-1.5234 1.3988-1.9524 1.5765-0.48438 0.20064-1.231 0.25547-1.9698 0.14467-0.65438-0.0981-2.0314-0.59947-3.0601-1.1141-1.3664-0.68359-2.1622-1.3031-2.9536-2.2996-0.5958-0.75013-1.3014-1.8401-1.5679-2.4222-0.26656-0.58208-0.48727-1.45-0.49046-1.9288-3e-3 -0.47874 0.22709-1.327 0.51175-1.885s0.90974-1.3462 1.3891-1.7515c0.47933-0.40534 1.6103-1.0839 2.5132-1.5079 0.90296-0.42398 2.6294-0.94656 3.8365-1.1613 1.2668-0.22535 2.6981-0.31798 3.3853-0.2191 0.65485 0.0942 1.3821 0.27377 1.6161 0.39899 0.32168 0.17215 0.50536 0.0528 0.75302-0.48913 0.18016-0.39425 1.2187-3.0385 2.3079-5.8762 1.0892-2.8377 2.7495-7.3485 3.6896-10.024 1.4763-4.2017 1.6854-5.0235 1.5346-6.0297-0.12858-0.85743-0.0694-1.2844 0.22434-1.6176 0.21946-0.24895 0.47798-0.82463 0.57449-1.2793 0.0965-0.45467 0.45891-1.093 0.80535-1.4184s0.99131-0.62018 1.433-0.65493c0.46031-0.0362 1.0124-0.32158 1.2933-0.66854 0.40609-0.50151 0.80421-0.6229 2.3206-0.70761 1.4043-0.0784 2.5702 0.0822 5.0084 0.69027 1.7479 0.43587 5.6783 1.3264 8.7342 1.9788 3.0559 0.65249 7.2826 1.5042 9.3927 1.8927 2.202 0.40544 4.2774 0.94594 4.8714 1.2687 0.56919 0.30927 1.2734 0.88479 1.5648 1.2789 0.32041 0.43329 0.57741 1.2892 0.65002 2.1647 0.0846 1.0203-0.0528 2.0201-0.46508 3.3844-0.32184 1.065-1.7798 4.4366-3.2399 7.4926s-3.515 7.4017-4.5663 9.6573c-1.0513 2.2556-2.6642 5.8155-3.5841 7.911-0.91991 2.0954-2.0389 4.2899-2.4866 4.8766-0.4477 0.58666-1.4093 1.4199-2.1369 1.8517-0.72761 0.43179-1.8479 0.94601-2.4894 1.1427-0.64159 0.19671-1.8918 0.34546-2.7781 0.33056-0.88638-0.0149-1.9849-0.11613-2.4412-0.22496zm-303.95-12.864c-0.22868-0.22867-0.41395-0.61563-0.41172-0.85989 2e-3 -0.24427 0.0915-0.56952 0.19844-0.72278 0.10691-0.15326 3.4686-2.7655 7.4704-5.805 4.0018-3.0395 8.4667-6.4342 9.9219-7.5438 1.4552-1.1096 4.9676-3.7881 7.8052-5.9524 2.8376-2.1643 6.5881-5.026 8.3344-6.3594 1.7462-1.3334 6.092-4.5614 9.6573-7.1732 3.5653-2.6118 9.9946-7.2526 14.288-10.313 4.2929-3.0602 10.306-7.2761 13.361-9.3686 3.0559-2.0926 9.0091-6.0795 13.229-8.8598s10.054-6.5463 12.965-8.3688c2.9104-1.8225 7.792-4.8039 10.848-6.6254s8.4733-4.9744 12.039-7.0064 7.9706-4.5333 9.7896-5.5582c1.819-1.025 5.5695-3.1155 8.3344-4.6457 2.7649-1.5302 7.8846-4.3286 11.377-6.2186 3.4925-1.8901 9.148-4.9827 12.568-6.8725s8.1227-4.509 10.451-5.8204c2.3283-1.3114 6.2984-3.5456 8.8224-4.965 4.0724-2.29 4.6608-2.548 5.2255-2.2907 0.43134 0.19654 0.6364 0.50861 0.6364 0.96853 0 0.54223-0.30565 0.86477-1.5214 1.6054-0.83675 0.50974-4.7956 2.7805-8.7974 5.0462s-10.431 5.8505-14.288 7.9664c-3.8563 2.1158-9.6308 5.272-12.832 7.0137-3.2015 1.7417-9.0962 4.9836-13.1 7.2042s-10.611 5.9396-14.684 8.2644c-4.0731 2.3248-9.8465 5.6914-12.83 7.4815-2.9832 1.79-7.5076 4.5631-10.054 6.1624-2.5466 1.5993-7.7258 4.9396-11.509 7.4228-3.7835 2.4832-10.244 6.8106-14.356 9.6164s-10.185 7.0298-13.494 9.3868c-3.3092 2.3569-9.7672 7.0463-14.351 10.421-4.5839 3.3746-16.252 12.221-25.929 19.66-10.811 8.3096-17.817 13.524-18.171 13.525-0.31703 5.7e-4 -0.76351-0.18605-0.99219-0.41473zm111.71-34.636c-1.0603-0.29186-1.7994-0.88149-4.8621-3.879-1.9864-1.9441-4.5566-4.6063-5.7114-5.916-1.288-1.4607-2.4513-3.1079-3.0093-4.2611-0.67787-1.401-0.90953-2.2295-0.90953-3.2525 0-1.2656 0.0946-1.4737 1.2132-2.6697 0.95353-1.0194 1.659-1.4673 3.2955-2.0922 1.1452-0.43732 3.0103-0.98895 4.1446-1.2258 1.3103-0.27365 2.5448-0.36858 3.3853-0.26031 0.72761 0.0937 1.8078 0.38467 2.4005 0.64653s1.511 1.005 2.0406 1.6514c0.52969 0.64643 1.203 1.7042 1.4963 2.3507 0.29559 0.65158 0.53582 1.7493 0.53904 2.463 5e-3 1.208 0.0426 1.2772 0.60113 1.1186 0.32742-0.093 1.3692-0.35476 2.3151-0.58171 1.1177-0.26816 2.2004-0.35276 3.0926-0.24164 0.89808 0.11185 1.742 0.43838 2.4402 0.94418 0.58705 0.42525 1.3227 1.2737 1.6348 1.8854 0.48214 0.94506 0.54636 1.4129 0.42721 3.1124-0.0771 1.1001-0.28038 2.465-0.45169 3.0333-0.17575 0.58294-0.89084 1.6457-1.641 2.439-0.73126 0.77321-2.2331 1.969-3.3375 2.6573s-2.763 1.5256-3.6858 1.8605c-0.93579 0.33967-2.2284 0.59857-2.9226 0.58538-0.6846-0.013-1.8074-0.17854-2.4951-0.36783zm5.6047-5.7056c1.0247-0.60876 2.3571-1.5452 2.9609-2.081 0.9631-0.85468 1.1011-1.1188 1.1246-2.1528l0.0268-1.1785-1.3229 0.0318c-0.91258 0.0219-2.1436 0.38103-3.9688 1.1577-1.4552 0.6192-2.9824 1.4086-3.3937 1.7541-0.41135 0.34555-0.98472 0.62828-1.2742 0.62828-0.28945 0-0.78633-0.133-1.1042-0.29555-0.31786-0.16255-0.78363-0.54951-1.0351-0.8599s-0.45978-0.86754-0.46302-1.2381c-3e-3 -0.37058 0.40866-1.6803 0.91532-2.9104 0.58483-1.42 0.92296-2.6787 0.92604-3.4473 4e-3 -0.96167-0.13496-1.342-0.67494-1.8493-0.56177-0.52775-0.94071-0.63493-2.1828-0.61735-0.89687 0.0127-1.8765 0.21482-2.4291 0.5012-0.50932 0.26396-1.2455 0.71608-1.6358 1.0047l-0.70982 0.52478 1.6107 2.4108c0.88588 1.3259 2.7661 3.8991 4.1783 5.7181 2.1708 2.7962 2.7471 3.3758 3.7293 3.7505 0.63896 0.24376 1.5437 0.40089 2.0105 0.34918 0.46681-0.0517 1.6871-0.59211 2.7118-1.2009zm13.337-6.5814c-0.45608-0.2781-1.1251-0.90274-1.4868-1.3881-0.36164-0.48533-1.6184-2.7279-2.7927-4.9835-1.1744-2.2556-2.9759-5.9371-4.0033-8.1812-1.0275-2.244-1.8682-4.3628-1.8682-4.7084 0-0.34555 0.30555-0.93383 0.679-1.3073 0.54977-0.54977 0.83864-0.64707 1.5178-0.51124 0.46135 0.0923 0.99187 0.32082 1.1789 0.50789s1.0524 2.0504 1.9228 4.1407c0.8705 2.0903 2.0733 4.7028 2.6729 5.8055 0.5996 1.1027 1.6785 2.9869 2.3975 4.1871 0.89191 1.4887 1.5056 2.2319 1.9313 2.3387 0.41162 0.10331 2.454-0.49037 6.0019-1.7446 2.9579-1.0457 5.8304-1.9624 6.3834-2.037 0.73163-0.0988 1.1459-9e-3 1.5214 0.33113 0.35516 0.32142 0.51595 0.81241 0.51595 1.5755 0 0.72569-0.16219 1.2554-0.46956 1.5336-0.25826 0.23372-1.8954 0.97619-3.638 1.6499-1.7426 0.67374-4.5212 1.6916-6.1744 2.2619-1.8178 0.62704-3.4911 1.0365-4.2333 1.0359-0.74114-6e-4 -1.5559-0.20131-2.0566-0.50665zm-112.23-4.0432c-0.17462-0.17462-0.31458-0.56158-0.31101-0.85989 4e-3 -0.29832 1.343-2.2161 2.9766-4.2618 1.6335-2.0457 6.4765-7.8797 10.762-12.965 4.2856-5.0848 9.281-10.972 11.101-13.082s5.0392-5.7343 7.1542-8.054 6.4018-6.9035 9.5263-10.186 8.0073-8.2677 10.851-11.077c2.8433-2.8096 5.443-5.2974 5.777-5.5284 0.51547-0.35649 0.70551-0.36744 1.2568-0.0724 0.38596 0.20656 0.64946 0.5826 0.64946 0.92686 0 0.40509-2.2114 2.7984-7.3538 7.9589-4.0446 4.0588-9.4257 9.5823-11.958 12.274-2.5323 2.6921-6.5454 7.0774-8.918 9.745-2.3725 2.6676-7.9749 9.212-12.45 14.543-4.4748 5.3312-8.8339 10.521-9.6868 11.534s-2.8662 3.5465-4.4739 5.6313c-2.6625 3.4525-2.9972 3.7905-3.7542 3.7905-0.45704 0-0.97386-0.14287-1.1485-0.3175zm133.47-0.9601c-0.37765-0.41729-0.43789-1.2341-0.43789-5.9375 0-3.7232-0.0935-5.5115-0.29482-5.6359-0.18044-0.11152-0.23835-0.60317-0.14927-1.2673 0.0801-0.59682-0.0848-2.8733-0.36634-5.0589-0.28154-2.1856-0.51202-4.7179-0.51218-5.6274-2.4e-4 -1.3011 0.1125-1.7664 0.52886-2.1828 0.39308-0.39307 0.88195-0.52917 1.9008-0.52917 0.82593 0 1.8019 0.20827 2.453 0.52346 0.59472 0.2879 2.9304 2.2822 5.1905 4.4318 2.26 2.1496 4.7094 4.5632 5.4429 5.3635 0.73354 0.80037 1.8775 2.1313 2.5421 2.9576 0.66461 0.8263 1.2817 1.7333 1.3713 2.0156 0.0896 0.28227 0.0429 0.82874-0.10369 1.2144-0.14661 0.38563-0.59275 0.82516-0.99142 0.97674-0.48436 0.18415-0.9156 0.18867-1.2998 0.0136-0.31621-0.14408-1.5454-1.4604-2.7316-2.9251l-2.1567-2.6632-0.71546 0.507c-0.3935 0.27885-2.1846 1.0125-3.9803 1.6303l-3.2648 1.1233 0.15611 2.0067c0.0859 1.1037 0.18581 3.5338 0.2221 5.4002 0.0602 3.0964 0.021 3.4265-0.44761 3.7703-0.28248 0.20724-0.82957 0.3768-1.2158 0.3768-0.38619 0-0.89922-0.21773-1.14-0.48385zm5.6247-15.996 2.1626-0.89676-3.1204-2.7971c-1.7162-1.5384-3.163-2.7553-3.2151-2.7042-0.0521 0.0511 0.0546 1.7782 0.23713 3.838l0.33181 3.7451 0.72071-0.14414c0.39638-0.0793 1.6938-0.54768 2.8833-1.0409zm17.767 5.963c-0.35665-0.28917-1.2671-2.3008-2.4249-5.3578-1.0196-2.6921-2.6213-7.391-3.5593-10.442s-1.7054-5.7926-1.7054-6.0927 0.18534-0.81015 0.41188-1.1336c0.3128-0.44659 0.67527-0.58804 1.5069-0.58804 0.78072 0 1.289 0.17828 1.7709 0.62116 0.37176 0.34163 2.3301 1.4834 4.3518 2.5373l3.6758 1.9162-0.15979-0.79894c-0.0879-0.43941-0.29624-2.1022-0.46303-3.6951-0.26002-2.4834-0.24351-3.1016 0.11581-4.3376 0.23049-0.79282 0.66993-1.6685 0.97656-1.946 0.36623-0.33143 0.91575-0.49513 1.6017-0.47715 0.58041 0.0152 1.2666 0.22869 1.545 0.48061 0.27544 0.24927 0.80492 0.89206 1.1766 1.4284 0.3717 0.53637 2.0356 4.5882 3.6976 9.0042 1.662 4.4159 3.272 8.3674 3.5778 8.781 0.34525 0.46698 0.55602 1.1501 0.55602 1.8022 0 0.60148-0.17747 1.2276-0.41538 1.4655-0.22846 0.22846-0.72143 0.4922-1.0955 0.58608-0.37406 0.0939-0.99082 0.0617-1.3706-0.0715-0.48459-0.16996-1.053-0.89096-1.9064-2.4182-0.6688-1.1968-1.737-3.5678-2.3739-5.269-1.0114-2.7016-1.1781-2.9946-1.3177-2.3162-0.0879 0.42722-0.30919 1.0547-0.49169 1.3945-0.1825 0.33974-0.73514 0.78622-1.2281 0.99218-0.49294 0.20596-1.2275 0.37299-1.6324 0.37117-0.4438-2e-3 -2.0232-0.78364-3.9772-1.9684-1.9972-1.2109-3.2412-1.8241-3.2412-1.5978 0 0.20198 0.30918 1.3556 0.68705 2.5637 0.37788 1.2081 1.628 4.6062 2.7781 7.5514 1.1501 2.9452 2.0911 5.5188 2.0911 5.719 0 0.20024-0.24676 0.67779-0.54837 1.0612-0.36052 0.45833-0.80365 0.69714-1.2936 0.69714-0.40988 0-1.0022-0.20836-1.3163-0.46303zm25.006-9.4774c-0.22846-0.22846-0.48496-0.6926-0.57-1.0314-0.085-0.33882-0.11498-0.8841-0.0665-1.2117 0.0484-0.32762 0.39447-0.82353 0.76895-1.102 0.48919-0.36379 0.88825-0.45428 1.4175-0.32144 0.50391 0.12647 0.85718 0.47333 1.1181 1.0978 0.2976 0.71226 0.3176 1.1063 0.091 1.7929-0.15973 0.48398-0.47299 0.95002-0.69613 1.0356-0.22314 0.0856-0.68513 0.15569-1.0266 0.15569-0.3415 0-0.80784-0.18692-1.0363-0.41537zm-3.3029-9.3505c-0.27802-0.27802-0.64463-1.2008-0.8147-2.0505-0.17006-0.84976-0.70776-3.3905-1.1949-5.6461-0.48712-2.2556-1.2745-5.7893-1.7498-7.8527-0.72026-3.127-0.81225-3.8655-0.55248-4.4357 0.17141-0.3762 0.6057-0.81798 0.96509-0.98173 0.49234-0.22433 0.84646-0.21777 1.4364 0.0266 0.43063 0.17838 0.90434 0.64153 1.0527 1.0292 0.14834 0.38769 0.76404 3.1457 1.3682 6.1289s1.4455 7.0007 1.8696 8.9277c0.42413 1.9271 0.77115 3.6291 0.77115 3.7823 0 0.15321-0.29225 0.5708-0.64943 0.92799-0.35719 0.35719-0.9525 0.64943-1.3229 0.64943s-0.90096-0.22747-1.179-0.50549zm70.752-3.3042c-0.58208-0.18409-1.4217-0.52417-1.8658-0.75574-0.44412-0.23157-1.3131-0.96956-1.9311-1.64-0.61798-0.67042-1.3747-1.7809-1.6816-2.4677-0.41623-0.9314-0.56426-1.8208-0.58247-3.4998-0.0221-2.0351 0.0589-2.4207 0.8438-4.0181 0.59805-1.2172 1.2116-2.0196 1.9717-2.5786 0.60692-0.44633 1.764-1.0625 2.5714-1.3692 0.87749-0.33338 2.3771-0.61253 3.7286-0.69405 1.2819-0.0773 2.8856-3e-3 3.7042 0.17116 0.79392 0.16914 2.0254 0.61069 2.7367 0.98124l1.2932 0.67371-0.14334-6.7023c-0.0788-3.6863-0.29512-8.4657-0.48062-10.621l-0.33728-3.9186-1.7386 0.21443c-0.95625 0.11794-6.9774 0.1868-13.38 0.15303-6.4029-0.0338-12.683-0.13201-13.957-0.2183l-2.3151-0.1569 0.0276 6.7006c0.0152 3.6853 0.11998 8.2484 0.23291 10.14s0.36048 3.9353 0.55011 4.5411c0.29647 0.94714 0.27882 1.4106-0.12594 3.3073-0.2589 1.2132-0.65035 2.7186-0.86989 3.3453-0.22804 0.65097-0.9496 1.6899-1.6831 2.4234-0.70614 0.70614-2.121 1.7027-3.144 2.2145s-2.5104 1.0656-3.3052 1.2306c-1.0513 0.21826-1.9981 0.22307-3.475 0.0177-1.1164-0.15528-2.5344-0.5055-3.151-0.77826-0.61662-0.27276-1.4309-0.90206-1.8095-1.3984-0.37861-0.49638-1.0057-1.5957-1.3936-2.443-0.57472-1.2554-0.67676-1.7811-0.5513-2.8405 0.0847-0.71498 0.53746-2.0195 1.0062-2.8989 0.46871-0.8794 1.3967-2.0793 2.0621-2.6663 0.66545-0.58709 1.9193-1.4263 2.7864-1.8649s2.4744-0.95772 3.5719-1.1535c1.0975-0.19582 2.7278-0.36018 3.623-0.36526l1.6276-9e-3 0.17907-2.9766c0.0985-1.6371 0.14001-5.8341 0.0923-9.3266l-0.0868-6.35-0.75164-1.0583c-0.61733-0.86923-0.7298-1.2567-0.62941-2.1686 0.0672-0.61067 0.38673-1.6227 0.71-2.249s0.84463-1.4223 1.1586-1.769c0.31395-0.34668 1.1661-0.91107 1.8937-1.2542 0.72761-0.34312 1.5725-0.62502 1.8776-0.62644 0.30507-1e-3 0.94601-0.19782 1.4243-0.43643 0.78842-0.39332 1.5523-0.40554 8.1766-0.1308 4.0188 0.16667 10.343 0.30499 14.054 0.30736 6.0128 4e-3 6.862 0.0578 7.8052 0.49585 0.58209 0.27034 1.325 0.74743 1.6508 1.0602 0.32587 0.31276 0.78804 0.94682 1.027 1.409 0.35013 0.67707 0.40116 1.2749 0.26264 3.0771-0.0946 1.2302-0.0568 5.1646 0.084 8.7431 0.14074 3.5785 0.39669 10.555 0.56877 15.502 0.29092 8.3646 0.28007 9.1121-0.15467 10.653-0.31635 1.1212-0.80174 2.0368-1.5009 2.8311-0.56834 0.64568-1.6536 1.526-2.4116 1.9562-0.75801 0.43022-2.0249 0.97194-2.8153 1.2038-0.85487 0.25079-2.3556 0.41443-3.7042 0.4039-1.2469-0.01-2.7433-0.16832-3.3254-0.35241zm1.5875-11.551 0.52917-0.60263-1.1504 0.63678c-0.63273 0.35023-1.3313 0.98653-1.5523 1.414l-0.40192 0.77722 1.0232-0.81137c0.56274-0.44625 1.2613-1.0826 1.5523-1.414zm5.8571 0.33495c-0.36528-0.36528-0.39189-0.34185-0.2639 0.23229 0.0783 0.3512 0.21225 0.81714 0.29767 1.0354 0.11055 0.28249 0.18661 0.21554 0.2639-0.23229 0.0597-0.34605-0.0742-0.81199-0.29767-1.0354zm-33.363-2.6834c-0.0959-0.15521-0.30101-0.28219-0.45576-0.28219-0.17545 0-0.15537 0.15181 0.0533 0.40327 0.18407 0.2218 0.38917 0.34878 0.45576 0.28218 0.0666-0.0666 0.0426-0.24806-0.0533-0.40326zm-111.53-11.02c-1.3824-0.66239-2.8516-1.5236-3.2648-1.9138s-0.91919-1.031-1.1245-1.4239c-0.20529-0.39296-0.37325-1.2312-0.37325-1.8626 0-0.63149 0.18432-1.8558 0.4096-2.7207 0.23676-0.90899 0.78996-2.0608 1.311-2.7295 0.49577-0.63635 1.688-1.7838 2.6495-2.55s2.4848-1.7492 3.3854-2.1846c0.90052-0.43539 2.054-0.86666 2.5634-0.95838 0.50932-0.0917 1.6331-0.0511 2.4972 0.0903 0.86416 0.14138 1.5966 0.22988 1.6276 0.19667 0.031-0.0332 0.37135-1.4688 0.75627-3.1901 0.38493-1.7214 1.1691-5.8886 1.7427-9.2604 0.57356-3.3719 1.2223-6.8189 1.4416-7.6601 0.21931-0.84118 0.62873-1.9802 0.90983-2.5312s0.66862-1.131 0.86116-1.289 0.86416-0.42463 1.4925-0.59264c0.85022-0.22735 1.5055-0.23011 2.562-0.0108 0.80594 0.16731 2.1207 0.74785 3.0415 1.343 0.89204 0.57656 2.2246 1.6116 2.9612 2.3 0.73661 0.68845 1.8602 1.9812 2.4968 2.8728 0.78236 1.0957 1.1575 1.8928 1.1575 2.4594 0 0.53729-0.2332 1.0715-0.64943 1.4878-0.46301 0.46302-0.93977 0.64943-1.6609 0.64943-0.55632 0-1.2787-0.18718-1.6053-0.41595-0.32663-0.22878-0.99676-1.0142-1.4892-1.7454-0.49243-0.73121-1.9298-2.2791-3.1941-3.4397-1.2643-1.1606-2.3362-2.0718-2.3818-2.0249-0.0457 0.0469-0.26445 1.0973-0.48619 2.3343-0.22174 1.2369-0.89236 4.6302-1.4903 7.5406s-1.5655 7.115-2.1501 9.3435l-1.063 4.0518 0.54458 1.1249c0.33803 0.69828 0.54457 1.6526 0.54457 2.5161 0 0.7886-0.29163 2.2599-0.67329 3.3969-0.37031 1.1031-0.98625 2.6448-1.3687 3.426-0.3825 0.78117-1.1035 1.897-1.6022 2.4797-0.49872 0.58264-1.2818 1.2546-1.7401 1.4933-0.56622 0.29484-1.6815 0.46082-3.4792 0.5178l-2.6458 0.0839zm8.138-11.267c-0.18301-0.11619-0.66291-0.21307-1.0664-0.2153-0.72346-4e-3 -0.7276 5e-3 -0.29694 0.66253 0.29389 0.44853 0.38806 0.96669 0.28789 1.584-0.1123 0.69201-0.0394 0.97901 0.29694 1.1682 0.38477 0.21643 0.49138 0.029 0.77856-1.3687 0.26727-1.3008 0.26727-1.661 0-1.8307z" fill="#fff"/></g></svg>
