<?xml version="1.0" encoding="UTF-8" standalone="no"?>
<!-- Created with Inkscape (http://www.inkscape.org/) -->

<svg
   width="865.71814mm"
   height="521.92853mm"
   viewBox="0 0 865.71814 521.92853"
   version="1.1"
   id="svg1"
   xml:space="preserve"
   inkscape:version="1.4 (e7c3feb1, 2024-10-09)"
   sodipodi:docname="LFOs4.svg"
   xmlns:inkscape="http://www.inkscape.org/namespaces/inkscape"
   xmlns:sodipodi="http://sodipodi.sourceforge.net/DTD/sodipodi-0.dtd"
   xmlns="http://www.w3.org/2000/svg"
   xmlns:svg="http://www.w3.org/2000/svg"><sodipodi:namedview
     id="namedview1"
     pagecolor="#ffffff"
     bordercolor="#666666"
     borderopacity="1.0"
     inkscape:showpageshadow="2"
     inkscape:pageopacity="0.0"
     inkscape:pagecheckerboard="0"
     inkscape:deskcolor="#d1d1d1"
     inkscape:document-units="mm"
     inkscape:zoom="0.19126932"
     inkscape:cx="2164.4872"
     inkscape:cy="844.35913"
     inkscape:window-width="1680"
     inkscape:window-height="1022"
     inkscape:window-x="1920"
     inkscape:window-y="28"
     inkscape:window-maximized="0"
     inkscape:current-layer="layer1" /><defs
     id="defs1" /><g
     inkscape:label="Layer 1"
     inkscape:groupmode="layer"
     id="layer1"
     transform="translate(783.15712,825.78782)"><path
       style="fill:#ffffff;stroke-width:1"
       d="m -520.41868,-345.17184 c -9.07804,-0.86419 -14.06602,-1.84421 -20.66757,-4.0607 -6.46917,-2.17203 -10.59798,-3.96589 -15.11665,-6.5678 -1.53063,-0.88136 -5.27414,-2.96755 -8.31892,-4.63598 -3.04478,-1.66845 -6.53244,-3.75205 -7.75034,-4.63023 -5.35756,-3.86305 -17.22651,-17.27488 -23.83719,-26.93581 -1.38896,-2.02986 -4.1216,-5.9327 -6.07254,-8.67302 -6.04886,-8.49627 -16.24394,-24.01006 -18.06883,-27.49525 -0.95657,-1.82687 -3.11862,-5.8958 -4.80455,-9.04207 -4.60448,-8.59281 -9.77164,-20.52906 -12.49626,-28.86659 -0.48319,-1.4786 -1.30897,-3.70996 -1.83505,-4.95853 -0.52608,-1.24858 -1.69153,-4.40408 -2.58984,-7.01221 -0.89834,-2.60814 -2.97352,-8.0182 -4.6115,-12.02234 -3.4155,-8.34937 -5.71105,-14.5684 -8.02091,-21.72984 -1.72105,-5.33599 -4.8232,-11.74003 -11.14747,-23.01282 -4.3249,-7.70898 -5.11885,-9.46044 -7.03335,-15.51578 -0.8343,-2.6388 -2.35614,-6.37556 -3.38187,-8.30393 -4.34047,-8.16006 -9.62548,-19.29134 -9.51795,-20.04671 0.0815,-0.57189 0.41368,-0.83973 1.14596,-0.92377 0.94908,-0.10899 1.11022,0.0676 2.02109,2.21439 1.49518,3.52377 6.04852,12.51401 8.70935,17.19595 1.5048,2.64783 2.79036,5.53259 3.53607,7.93487 1.97643,6.36704 2.59248,7.8363 5.25339,12.52906 3.53901,6.24138 11.19745,20.81814 11.88208,22.6159 0.30923,0.81195 1.17264,3.88439 1.91873,6.8277 1.70785,6.73752 4.60771,15.25686 8.10275,23.80461 5.07125,12.40271 6.12791,15.12323 8.81568,22.69744 4.92475,13.87803 6.68147,17.7741 12.6397,28.03255 13.09893,22.55282 16.2329,27.56045 22.37636,35.75416 14.98815,19.99016 16.50515,21.849 22.3209,27.3509 5.06263,4.7894 6.40381,5.78276 12.07652,8.94459 15.88985,8.85658 14.95635,8.40949 23.62009,11.3128 3.04479,1.02035 7.19675,2.18675 9.22661,2.59204 6.06053,1.21003 15.86084,2.00112 24.91181,2.01089 7.83556,0.008 8.51102,-0.0463 11.97522,-0.97136 6.40524,-1.7103 11.74881,-4.92538 19.55342,-11.76467 7.71899,-6.76429 17.73576,-19.37524 24.30072,-30.59419 1.1406,-1.9492 2.62731,-4.2743 3.30381,-5.1669 0.6765,-0.89259 2.00439,-2.78546 2.95086,-4.20634 0.94647,-1.4209 3.32464,-4.48246 5.28482,-6.8035 3.53553,-4.18635 8.24454,-11.0266 12.72033,-18.47739 1.28032,-2.13134 4.01831,-6.37057 6.08441,-9.42049 2.1311,-3.14589 5.37052,-8.6778 7.48656,-12.78471 2.0515,-3.98165 4.23677,-8.06296 4.85613,-9.06955 1.48788,-2.4181 8.3754,-19.6869 10.35011,-25.95041 3.52316,-11.17493 7.20741,-19.82368 15.68898,-36.82986 5.3453,-10.71769 10.60376,-22.49562 14.03102,-31.42672 0.97369,-2.53731 2.87573,-7.02145 4.22677,-9.96473 3.18642,-6.94168 5.00724,-11.64611 7.53017,-19.45556 2.12065,-6.56434 4.68405,-13.33262 8.91556,-23.54039 1.34631,-3.24777 3.70076,-9.6418 5.2321,-14.20897 1.53134,-4.56717 3.60468,-10.21383 4.60742,-12.54816 1.00275,-2.33433 2.25143,-5.32376 2.77482,-6.64316 0.52339,-1.3194 3.33434,-7.57884 6.24654,-13.90985 5.85799,-12.73502 6.52271,-14.3266 9.98971,-23.91921 1.32055,-3.65375 3.85016,-9.63258 5.62137,-13.28631 2.9198,-6.0231 15.5814,-29.67631 19.0836,-35.6502 4.14721,-7.0741 18.1197,-28.07332 22.48763,-33.79661 1.98757,-2.60427 5.43957,-7.1432 7.67116,-10.08648 8.32773,-10.98365 10.0009,-12.72512 17.11217,-17.81073 15.67134,-11.20727 27.22664,-18.26248 33.78017,-20.62483 1.67552,-0.60398 6.20189,-1.9133 10.0586,-2.90963 3.85672,-0.9963 8.25781,-2.15323 9.78019,-2.57094 3.82978,-1.05081 10.9441,-1.58007 18.71913,-1.39261 6.31946,0.15238 6.73212,0.20995 11.17505,1.55906 2.53731,0.77045 5.85889,1.7263 7.38129,2.12411 1.52239,0.3978 3.93828,1.2638 5.36865,1.92441 3.70069,1.70919 18.14551,12.69041 23.44356,17.82224 3.9686,3.84411 4.44743,4.46417 6.69749,8.673 2.57191,4.81086 7.0794,12.31186 13.03659,21.69439 1.99765,3.14627 5.16911,8.90246 7.0477,12.79153 3.804355,7.87583 6.506515,12.77134 10.486765,18.999 7.0243,10.99049 8.405807,13.29872 9.590967,16.0245 2.44447,5.62211 5.93817,12.06262 10.45935,19.28145 6.05005,9.65992 5.92945,9.44064 10.30404,18.73362 3.69888,7.85751 4.89824,9.92536 15.18505,26.1808 4.56255,7.20988 5.988,9.93542 8.6859,16.6079 2.63519,6.51741 2.65899,6.5606 9.14389,16.59248 5.52807,8.55166 9.49948,15.27566 13.89679,23.52859 1.76311,3.30905 2.04049,4.07538 1.70321,4.70556 -0.44978,0.84047 -1.92141,1.01153 -2.50699,0.29145 -0.20634,-0.25373 -2.36093,-4.19811 -4.788,-8.76528 -2.42708,-4.56716 -6.91811,-12.3973 -9.98009,-17.4003 -6.32876,-10.34068 -7.42474,-12.40567 -9.86451,-18.58627 -3.04737,-7.71984 -5.98681,-12.90958 -12.77107,-22.54808 -5.07502,-7.21016 -7.60799,-11.58069 -10.07656,-17.38679 -4.15881,-9.78152 -6.22184,-13.53786 -13.94842,-25.39693 -3.08425,-4.73382 -5.4696,-9.17488 -6.93246,-12.90693 -1.669217,-4.2585 -4.284137,-9.02346 -9.215327,-16.79241 -6.39859,-10.08081 -9.418495,-15.42052 -12.523555,-22.14384 -0.79685,-1.72538 -3.31585,-6.04342 -5.59778,-9.59567 -6.8698,-10.69406 -12.63397,-19.89863 -14.90719,-23.80462 -2.60007,-4.46767 -6.58978,-8.57968 -13.61552,-14.03289 -2.60921,-2.02519 -6.09685,-4.73336 -7.75034,-6.01813 -3.92307,-3.04827 -7.03204,-4.48574 -13.34011,-6.16795 -2.84181,-0.75784 -6.57858,-1.76163 -8.30396,-2.23064 -2.67352,-0.72673 -4.0368,-0.85425 -9.22659,-0.86312 -9.4361,-0.016 -14.00137,0.45026 -19.06732,1.94778 -2.40253,0.7102 -6.11207,1.72567 -8.24341,2.25664 -11.19179,2.78808 -17.78539,6.02851 -32.45227,15.94869 -11.27002,7.62264 -16.1248,11.43311 -19.22922,15.09285 -1.51549,1.7866 -3.76112,4.42102 -4.9903,5.8543 -8.50007,9.91159 -16.28024,20.99056 -22.30481,31.76202 -1.47591,2.6388 -3.88807,6.45862 -5.36036,8.48846 -4.9362,6.80557 -12.04693,19.11898 -17.58292,30.44778 -2.23183,4.56716 -5.29199,10.79513 -6.80036,13.83991 -1.50839,3.04477 -3.32593,7.17272 -4.03897,9.17319 -1.70106,4.77243 -3.29726,8.60298 -6.60958,15.86165 -4.19633,9.19594 -8.0799,18.44489 -9.73786,23.19136 -0.82757,2.36915 -2.16039,5.61171 -2.9618,7.20567 -0.80143,1.59396 -2.2387,5.13616 -3.19391,7.87154 -1.75702,5.03143 -3.20004,8.68837 -6.97617,17.67919 -3.10438,7.39136 -6.6235,17.29041 -8.14418,22.90892 -2.37674,8.78141 -2.75675,9.87597 -5.6093,16.15659 -1.54172,3.39447 -3.8683,8.82904 -5.17021,12.07679 -5.20609,12.98735 -7.40456,18.0815 -11.38824,26.38808 -2.28767,4.77015 -4.65539,9.85123 -5.26159,11.2913 -0.60622,1.44005 -1.50688,3.26692 -2.00146,4.05969 -0.49458,0.79279 -1.90714,3.68347 -3.13902,6.42379 -4.89283,10.88395 -6.13872,13.99693 -9.15796,22.88195 -4.56386,13.43055 -7.96753,21.7815 -11.068,27.15544 -1.06326,1.84294 -3.19212,5.82883 -4.73081,8.85754 -1.53868,3.0287 -4.25721,7.61115 -6.04122,10.1832 -1.784,2.57207 -5.72876,8.63393 -8.76614,13.47083 -3.03738,4.8369 -8.01974,12.1474 -11.07193,16.24555 -6.6605,8.94304 -9.36278,12.80367 -12.22175,17.46063 -3.62137,5.89888 -11.41635,16.52241 -15.98807,21.78967 -6.5284,7.52161 -15.56845,14.98447 -22.03348,18.18936 -2.98067,1.4776 -6.32934,2.61734 -9.9323,3.38052 -3.29046,0.69699 -15.19551,0.67857 -22.6927,-0.0351 z m 5.35143,-10.48362 c -3.48997,-0.74074 -5.25726,-4.13286 -3.70433,-7.11 0.29444,-0.56449 0.44159,-1.2707 0.32699,-1.56934 -0.42697,-1.11265 0.23006,-2.21373 1.84772,-3.09654 1.30004,-0.70948 1.5447,-0.98859 1.18331,-1.34996 -0.33338,-0.33338 -0.51769,-3.75616 -0.6872,-12.76098 -0.25166,-13.36864 0.10135,-26.94465 1.05411,-40.5388 0.67765,-9.66895 0.53874,-13.5172 -1.11247,-30.81684 -0.48435,-5.07463 -0.98076,-12.67537 -1.10312,-16.89054 -0.12232,-4.21517 -0.37344,-9.28058 -0.55798,-11.25645 -0.18452,-1.97589 -0.51564,-6.91408 -0.73581,-10.97379 -0.93786,-17.29326 -1.17832,-20.92607 -1.69776,-25.64994 -0.3964,-3.60498 -0.57145,-10.13483 -0.63317,-23.62009 -0.0844,-18.42013 -0.0767,-18.63773 0.6528,-18.63773 0.72657,0 0.74139,0.31518 0.94557,20.11399 0.16615,16.10981 0.3276,20.84869 0.81106,23.80461 0.332,2.02986 0.78387,8.17476 1.00416,13.65538 0.45182,11.24052 0.89064,18.13934 1.66675,26.20353 0.29302,3.04479 0.7002,8.3593 0.90485,11.81005 0.20463,3.45074 0.90309,12.41816 1.55213,19.92759 l 1.18009,13.6535 -0.66501,9.59753 c -0.55562,8.01881 -0.64217,13.13368 -0.52619,31.09489 0.12136,18.79987 0.20829,21.4976 0.69242,21.49934 0.95858,0.002 2.93059,1.42164 3.67194,2.64066 2.92319,4.80681 -0.94886,11.35706 -6.07086,10.26993 z m 2.13629,-4.05831 c 1.80198,-1.41744 1.60818,-4.42427 -0.28518,-4.42427 -1.03424,0 -2.77377,2.03394 -2.77377,3.24323 0,0.67885 1.21505,1.92366 1.87767,1.92366 0.13042,0 0.66202,-0.33418 1.18128,-0.74262 z m -37.20661,-13.67318 c -1.73354,-0.50437 -3.51991,-2.57834 -3.75952,-4.3648 -0.27712,-2.06599 0.72401,-4.56271 2.56953,-6.40823 l 1.46998,-1.46997 -0.19198,-9.4603 c -0.10558,-5.20316 -0.45222,-12.78187 -0.77028,-16.84158 -0.31806,-4.05968 -0.7463,-13.85833 -0.95167,-21.77476 -0.62184,-23.97105 -1.42876,-34.32989 -3.72205,-47.7826 l -1.46659,-8.60317 0.41843,-7.97538 c 0.43027,-8.20096 0.31306,-18.50654 -0.4097,-36.02425 -0.22614,-5.48059 -0.36118,-13.36934 -0.30013,-17.53054 0.11029,-7.52517 0.11546,-7.56645 0.94081,-7.68367 1.38074,-0.19611 1.54495,1.0671 1.31886,10.1457 -0.15195,6.10212 -0.0367,10.86778 0.4183,17.2829 0.52156,7.35463 0.58626,11.70676 0.3814,25.64993 l -0.24674,16.79241 1.48438,7.38129 c 2.81701,14.00817 2.87769,14.78626 4.11567,52.77615 0.19843,6.08955 0.61375,14.22741 0.9229,18.08413 1.08032,13.4773 1.28729,17.01388 1.2905,22.05156 l 0.002,5.07464 h 0.87747 c 1.19151,0 1.58689,0.57562 2.32288,3.38179 0.62828,2.39546 0.628,2.39996 -0.27076,4.21367 -0.68712,1.38662 -1.28887,2.0119 -2.54646,2.64606 -1.77099,0.89306 -2.17966,0.93908 -3.89847,0.43902 z m 2.43243,-3.6813 c 0.51086,-0.27341 0.71242,-0.77191 0.70882,-1.75306 -0.008,-2.3588 -0.33547,-3.0318 -1.47221,-3.0318 -0.79966,0 -1.15173,0.27318 -1.61775,1.25525 -0.81169,1.71047 -0.74805,2.65586 0.22461,3.33712 0.96756,0.67771 1.2095,0.69932 2.15653,0.19249 z m 67.77555,-13.65447 c -3.49595,-1.89767 -3.75731,-6.33908 -0.50314,-8.55033 1.17929,-0.80136 1.24026,-0.92373 0.64518,-1.29538 -0.56139,-0.35059 -0.69471,-1.20854 -0.9148,-5.8869 -0.14169,-3.01206 -0.43952,-6.63903 -0.66184,-8.05993 -0.26343,-1.68373 -0.3861,-10.03824 -0.35223,-23.98917 0.0506,-20.79477 -0.15216,-33.7382 -1.14706,-73.2592 -0.26315,-10.45372 -0.39223,-25.06657 -0.28683,-32.47299 0.17905,-12.58299 0.23515,-13.47454 0.85522,-13.59357 1.63701,-0.31423 1.60432,-0.82138 1.88029,29.1784 0.14426,15.68253 0.42232,32.58261 0.61789,37.55576 0.19558,4.97313 0.44089,23.07571 0.54513,40.22796 0.15305,25.17974 0.30123,32.10353 0.76936,35.9505 0.3189,2.62052 0.60474,6.89559 0.63522,9.50018 0.0396,3.3842 0.18084,4.73651 0.49496,4.7388 0.24174,10e-4 0.54218,-0.16286 0.66765,-0.36585 0.12539,-0.20298 0.70074,-0.36905 1.27843,-0.36905 0.85034,0 1.23071,0.30779 1.99761,1.61639 0.521,0.88902 1.14245,2.34616 1.38101,3.23807 0.38029,1.4219 0.34036,1.83271 -0.32408,3.33484 -0.41681,0.94224 -1.198,2.00158 -1.73599,2.35408 -1.50439,0.98573 -4.17351,1.05306 -5.84198,0.14739 z m 3.90752,-3.7137 c 0.37201,-0.59383 0.17096,-1.94432 -0.42576,-2.85991 -0.45005,-0.69055 -2.48875,0.37446 -2.84095,1.48411 -0.51575,1.62498 2.35353,2.8334 3.26671,1.3758 z m -115.2569,-32.36532 c -0.71044,-0.38817 -1.68018,-1.27017 -2.15499,-1.95998 -1.71678,-2.4943 -0.37766,-6.85664 2.49516,-8.12828 0.8325,-0.3685 0.99841,-0.5975 0.69648,-0.96132 -0.24404,-0.29405 -0.51716,-4.48246 -0.7107,-10.89912 -0.17289,-5.73186 -0.47648,-11.75019 -0.67467,-13.37408 -0.19818,-1.62389 -0.53233,-11.00733 -0.74253,-20.85212 -0.21021,-9.84477 -0.63062,-20.88901 -0.93426,-24.54274 -0.30364,-3.65373 -0.71878,-8.96825 -0.92255,-11.81006 -0.44859,-6.25573 -0.4894,-39.65824 -0.0494,-40.35251 0.17209,-0.27151 0.7093,-0.43758 1.19382,-0.36907 l 0.88092,0.12456 0.22818,18.82226 c 0.15089,12.44633 0.42463,20.94757 0.80808,25.09634 0.95751,10.35951 1.04218,12.57531 1.1704,30.63231 0.10029,14.11507 0.26554,18.78961 0.88752,25.09636 0.83754,8.49211 1.59074,21.34319 1.29599,22.11132 -0.12679,0.33046 0.27713,0.55942 1.26593,0.71753 2.5399,0.40615 3.00343,1.08963 3.09541,4.56427 0.0675,2.55221 -0.0387,3.19427 -0.66775,4.0369 -1.87305,2.50875 -4.79024,3.34281 -7.16112,2.04743 z m 3.41056,-3.67554 c 0.31486,-0.35522 0.65048,-1.34758 0.74586,-2.20522 0.14457,-1.29999 0.056,-1.59666 -0.53331,-1.78366 -0.81144,-0.25754 -2.31063,0.60906 -2.87369,1.66113 -0.65384,1.22171 0.23267,2.61176 1.86911,2.9308 0.12079,0.0236 0.47719,-0.24783 0.79203,-0.60305 z m 138.8346,-8.15391 c -2.84228,-1.32775 -3.96635,-3.85171 -3.13014,-7.02839 0.24646,-0.93631 0.53802,-2.28366 0.64791,-2.99411 0.27576,-1.78284 0.79039,-2.30697 2.07942,-2.11778 l 1.08641,0.15945 -0.25437,-3.54186 c -0.13993,-1.94803 -0.40591,-5.70089 -0.59108,-8.3397 -0.18518,-2.6388 -0.34908,-9.69716 -0.36424,-15.68522 -0.0427,-16.85499 -0.55525,-27.92938 -1.67405,-36.16826 -1.01251,-7.45625 -1.02034,-8.15858 -0.19556,-17.53054 0.1965,-2.23284 0.36573,-8.55215 0.37607,-14.0429 0.014,-7.25077 0.14001,-10.10438 0.46167,-10.42605 0.6464,-0.6464 1.70143,-0.5412 2.03532,0.20299 0.30925,0.68924 -0.005,23.15262 -0.43825,31.46271 -0.21663,4.14265 -0.12763,5.88427 0.52839,10.33379 0.98075,6.65248 1.83665,24.46126 1.85038,38.50164 0.006,5.8529 0.24967,13.15299 0.56733,16.97693 0.6907,8.31456 0.81887,9.10761 1.47205,9.10761 0.28582,0 0.81805,0.4184 1.18274,0.92977 0.36471,0.51136 0.95373,1.28413 1.30895,1.71725 0.86728,1.05746 0.86695,4.48296 -5.7e-4,6.18428 -1.34256,2.63292 -4.20525,3.57984 -6.94838,2.29839 z m 3.09224,-3.82223 c 0.62704,-0.62704 0.54925,-2.35053 -0.13712,-3.03685 -1.59021,-1.59022 -3.49555,0.64323 -2.35956,2.76588 0.42706,0.79795 1.81864,0.94899 2.49666,0.27097 z m 32.73598,-46.46836 c -3.58512,-2.08725 -3.98843,-6.00823 -0.94687,-9.20555 1.34258,-1.41136 1.3958,-1.55389 0.93027,-2.49201 -0.72015,-1.45121 -1.88773,-28.77302 -2.09286,-48.97334 l -0.10487,-10.33378 0.9901,-0.1144 c 0.67372,-0.0778 1.10947,0.10864 1.3637,0.5837 0.213,0.39798 0.61768,8.45924 0.94138,18.75211 0.5374,17.08833 1.06906,29.54695 1.5697,36.78403 l 0.22338,3.22931 h 1.03246 c 1.32136,0 1.32976,0.014 3.1502,5.04108 0.69574,1.92147 0.21747,4.04341 -1.29217,5.73298 -0.86394,0.96693 -1.34468,1.17143 -3.02667,1.28755 -1.1155,0.077 -2.32592,-0.0521 -2.73771,-0.29169 z m 3.35516,-4.20654 c 0.28936,-1.15295 -0.10723,-3.39158 -0.66156,-3.73417 -0.49265,-0.30448 -2.50908,1.83283 -2.50908,2.65949 0,1.18493 0.75433,1.99977 1.85128,1.99977 0.85261,0 1.13727,-0.19959 1.31936,-0.92509 z m -215.8404,-4.3812 c -2.16102,-0.79741 -3.16318,-1.59914 -3.96603,-3.17288 -0.90862,-1.78104 -0.95013,-3.71676 -0.11346,-5.28679 0.3462,-0.64963 0.58958,-1.32288 0.54085,-1.49614 -0.20907,-0.74318 0.43618,-1.76325 1.44546,-2.28516 0.90674,-0.46891 1.02494,-0.67865 0.71196,-1.26343 -0.57658,-1.07739 -0.51129,-47.70621 0.0676,-48.28513 0.6646,-0.66461 2.06424,-0.53938 2.26877,0.20298 0.0979,0.35522 0.23363,11.23306 0.30167,24.17299 l 0.12373,23.52713 1.03324,6.9e-4 c 4.40098,0.002 7.43092,6.87028 4.95777,11.23658 -1.42872,2.52239 -4.61349,3.6669 -7.37166,2.64916 z m 3.78184,-4.00777 c 0.59054,-0.63387 0.74385,-1.21238 0.66023,-2.49118 l -0.10899,-1.66559 -1.78498,-0.11382 c -2.39187,-0.15247 -3.56644,0.60827 -3.56644,2.3099 0,2.40622 3.1763,3.70362 4.8001,1.96066 z m 40.24041,-75.3684 c -0.2446,-0.29473 -0.38732,-0.83447 -0.31716,-1.19945 0.11759,-0.61132 0.77186,-0.67142 8.30734,-0.76284 7.98713,-0.097 8.18544,-0.0814 8.42186,0.66357 0.53668,1.69097 -0.1137,1.8346 -8.30735,1.8346 -6.24598,0 -7.74206,-0.0989 -8.10469,-0.53588 z m 28.78699,0 c -0.2446,-0.29473 -0.38728,-0.83447 -0.31704,-1.19945 0.11925,-0.6202 0.91596,-0.66995 12.18312,-0.76087 11.89347,-0.0959 12.05868,-0.087 12.29693,0.66358 0.5629,1.77351 0.16995,1.83262 -12.18315,1.83262 -9.6336,0 -11.60845,-0.0883 -11.97986,-0.53588 z m 38.34352,-0.0471 c -0.22309,-0.26879 -0.3481,-0.78732 -0.27781,-1.1523 0.11759,-0.61079 0.68207,-0.66359 7.09474,-0.66359 6.19152,0 7.01156,0.0708 7.36792,0.63571 0.26045,0.41287 0.27456,0.75349 0.0402,0.97173 -0.19842,0.18482 -3.38898,0.41728 -7.09014,0.5166 -5.30683,0.14239 -6.81509,0.0772 -7.13495,-0.30815 z m 138.14661,-0.18929 c -1.30513,-1.36501 0.0918,-2.70558 2.4298,-2.33173 0.79183,0.12665 4.39063,0.0333 7.99732,-0.20723 5.67523,-0.37861 6.6305,-0.36461 7.09912,0.10405 0.83982,0.83984 0.26531,1.98867 -1.11547,2.23058 -0.65278,0.1144 -4.50846,0.31571 -8.56816,0.4474 -5.84257,0.18954 -7.47744,0.13893 -7.84261,-0.24305 z m -84.88472,-0.38723 c -0.25373,-0.25538 -0.46133,-0.74294 -0.46133,-1.08346 0,-0.34052 0.2076,-0.78289 0.46133,-0.98305 0.25373,-0.20016 4.22235,-0.46833 8.81915,-0.59594 7.5248,-0.20888 8.38086,-0.17193 8.5891,0.37074 0.12722,0.3315 0.13685,0.90049 0.0214,1.26445 -0.2568,0.80908 -1.58517,0.96992 -10.50956,1.27257 -4.93852,0.16747 -6.56721,0.10982 -6.91996,-0.24531 z m 31.27818,0.0676 c -3.95822,-0.10994 -7.40436,-0.33424 -7.65809,-0.49843 -0.57017,-0.36904 -0.60771,-1.96633 -0.0543,-2.30838 0.48771,-0.30142 18.00043,-0.22431 19.99711,0.0881 1.63213,0.25534 2.34231,1.2083 1.73964,2.33438 -0.43883,0.81995 0.61738,0.79102 -14.02441,0.38439 z m -249.84161,-0.55121 c -0.24459,-0.29472 -0.38731,-0.83447 -0.31715,-1.19944 0.11735,-0.61002 0.75817,-0.67163 7.93818,-0.76311 7.61509,-0.0971 7.81667,-0.0805 8.0528,0.66355 0.53304,1.67946 -0.13935,1.83488 -7.93818,1.83488 -5.92334,0 -7.37432,-0.10053 -7.73565,-0.53588 z m 36.28703,-0.0177 c -0.11687,-0.30448 -0.11687,-0.80271 0,-1.10719 0.18027,-0.46979 1.49233,-0.5536 8.6673,-0.5536 8.8404,0 9.63106,0.14076 9.06572,1.61401 -0.20369,0.53081 -1.23203,0.60037 -8.87549,0.60037 -7.34406,0 -8.67706,-0.0832 -8.85753,-0.55359 z m 29.77543,0.0177 c -0.2446,-0.29472 -0.38731,-0.83447 -0.31711,-1.19944 0.11815,-0.61413 0.80611,-0.67095 9.23018,-0.76226 8.91728,-0.0966 9.10748,-0.0831 9.34448,0.66358 0.5447,1.71618 -0.0483,1.834 -9.2302,1.834 -7.05254,0 -8.6619,-0.0956 -9.02735,-0.53588 z m 128.1647,-0.068 c -0.12749,-0.33207 -0.0628,-0.87182 0.14381,-1.19945 0.32473,-0.51521 1.52406,-0.60908 8.87421,-0.69467 7.63232,-0.0889 8.52268,-0.0366 8.73368,0.51332 0.12917,0.33677 0.13699,0.92106 0.0172,1.29843 -0.20414,0.64311 -0.76065,0.68614 -8.87751,0.68614 -7.67685,0 -8.686,-0.0684 -8.89138,-0.60377 z m 86.84014,0.24444 c -7.91558,-0.16739 -9.23874,-0.2767 -9.56214,-0.78997 -0.20642,-0.32765 -0.27105,-0.86739 -0.14364,-1.19946 0.20672,-0.53872 1.32495,-0.60376 10.37956,-0.60376 9.90521,0 10.15769,0.0184 10.55931,0.76882 0.32826,0.61335 0.282,0.9119 -0.22875,1.47626 -0.35211,0.38909 -0.9051,0.67028 -1.22886,0.6249 -0.32377,-0.0454 -4.72274,-0.16996 -9.77548,-0.27679 z m 114.93836,-0.17655 c -0.24461,-0.29473 -0.38748,-0.83448 -0.31749,-1.19945 0.11787,-0.61461 0.98494,-0.6849 11.74456,-0.95219 10.62996,-0.26406 11.65566,-0.23621 12.06806,0.32778 0.294,0.40207 0.33362,0.83516 0.11393,1.24564 -0.40239,0.75189 -5.70771,1.11019 -16.4741,1.1126 -5.39959,0.001 -6.77603,-0.10182 -7.13496,-0.53438 z m -432.91204,-0.36906 c -0.24459,-0.29473 -0.3873,-0.83448 -0.3171,-1.19945 0.11815,-0.61463 0.81295,-0.67088 9.41474,-0.76214 9.10329,-0.0966 9.2919,-0.0834 9.529,0.66356 0.54613,1.7207 -0.035,1.83391 -9.41475,1.83391 -7.21386,0 -8.84596,-0.095 -9.21189,-0.53588 z m 547.05506,-0.0607 c -0.12888,-0.33604 -0.0654,-0.87906 0.14131,-1.20668 0.3267,-0.51795 1.40619,-0.59571 8.27041,-0.59571 h 7.89466 v 1.1072 1.10719 l -8.03597,0.0995 c -7.19485,0.0891 -8.0605,0.0356 -8.27041,-0.51149 z m -175.07189,-0.30758 c -0.49426,-0.49445 -0.43526,-1.52491 0.11087,-1.93685 0.26304,-0.19841 4.50624,-0.3368 9.87245,-0.32198 9.25184,0.0255 9.41299,0.039 9.52121,0.79641 0.0605,0.42373 -0.10558,0.94717 -0.36906,1.16322 -0.62207,0.50995 -18.64315,0.79173 -19.13547,0.2992 z m 32.61344,-0.42986 c -0.12903,-0.33637 -0.0656,-0.87965 0.14107,-1.20728 0.32474,-0.51483 1.34736,-0.59571 7.53228,-0.59571 h 7.15653 v 1.1072 1.10719 l -7.2976,0.10018 c -6.51105,0.0892 -7.32289,0.0342 -7.53228,-0.51149 z m 62.67131,-0.0531 c -0.22645,-0.42312 -0.22574,-0.89111 0.001,-1.29803 0.3226,-0.57641 1.24132,-0.63632 9.76049,-0.63632 8.36626,0 9.42994,0.0667 9.63606,0.60376 0.12749,0.33207 0.0628,0.87183 -0.14384,1.19946 -0.32652,0.51794 -1.58443,0.60856 -9.63805,0.69426 -8.58624,0.0914 -9.28837,0.0502 -9.61664,-0.56313 z m 55.12741,0.32502 c -0.93058,-0.199 -1.10719,-0.4128 -1.10719,-1.34032 v -1.10358 l 6.59486,-0.101 c 6.61855,-0.10123 7.61409,0.0591 7.61409,1.22698 0,0.26512 -0.26097,0.74303 -0.57995,1.06201 -0.47891,0.4789 -1.52385,0.57235 -5.99729,0.53629 -2.97953,-0.024 -5.91557,-0.15022 -6.52452,-0.28043 z m 108.004935,-0.16476 c -0.5879,-0.70837 -0.43657,-1.72677 0.31532,-2.12183 0.65647,-0.34494 14.085257,-1.22801 15.685217,-1.03145 0.88445,0.10864 1.13021,0.3352 1.22156,1.12611 0.0767,0.66392 -0.1057,1.10336 -0.55358,1.3339 -0.3674,0.18908 -2.99309,0.45533 -5.83488,0.59167 -2.8418,0.13628 -6.33305,0.34613 -7.758377,0.4662 -2.09825,0.17676 -2.68358,0.10735 -3.07526,-0.3646 z m -692.904085,-0.12052 c -0.59803,-0.59803 -0.23243,-1.96473 0.57862,-2.16303 0.45672,-0.1117 5.14845,-0.15635 10.42606,-0.0994 l 9.59567,0.10382 v 1.1072 1.10719 l -10.17429,0.0979 c -5.59588,0.0539 -10.28759,-0.0153 -10.42606,-0.15377 z m 31.13338,-0.29555 c -0.24461,-0.29472 -0.38732,-0.83447 -0.31715,-1.19945 0.11746,-0.61069 0.765,-0.67152 8.12275,-0.76299 7.80111,-0.0969 8.00106,-0.0809 8.23732,0.66358 0.53491,1.68532 -0.12651,1.83474 -8.12276,1.83474 -6.08467,0 -7.55817,-0.0997 -7.92016,-0.53588 z m 526.40696,-0.009 c -0.11842,-0.30877 -0.11842,-0.81406 0,-1.12283 0.18463,-0.48114 1.25935,-0.54712 7.51304,-0.46134 l 7.29759,0.10018 v 0.92266 0.92265 l -7.29759,0.10017 c -6.25369,0.0858 -7.32841,0.0197 -7.51304,-0.46133 z m 77.53854,0.15575 c -0.1325,-0.21455 -0.14389,-0.77718 -0.0252,-1.25034 l 0.21592,-0.86028 8.58409,-0.26381 c 10.42715,-0.32044 10.75759,-0.29327 10.92579,0.89846 0.24564,1.74023 -0.45031,1.866 -10.32533,1.866 -6.0189,0 -9.2165,-0.13307 -9.37533,-0.39003 z m 29.73732,-0.14585 c -0.24459,-0.29472 -0.38731,-0.83447 -0.31714,-1.19945 0.11759,-0.61136 0.77223,-0.6714 8.31767,-0.76288 7.795951,-0.0944 8.208618,-0.0645 8.575155,0.62024 0.29235,0.54627 0.24562,0.85897 -0.194147,1.29874 -0.829787,0.82976 -15.696218,0.86911 -16.381538,0.0434 z m 49.868892,-0.49367 c -0.27149,-0.19011 -0.43759,-0.74207 -0.36908,-1.22658 0.12317,-0.87112 0.18615,-0.88362 5.66052,-1.12443 3.04477,-0.1339 7.69498,-0.3 10.33379,-0.36907 l 4.79784,-0.12553 v 1.09206 c 0,0.94788 -0.17055,1.12961 -1.29174,1.37637 -2.02755,0.44625 -18.56702,0.77234 -19.13133,0.37719 z m 33.26998,-1.05047 c -0.50153,-1.30697 0.38424,-1.78482 3.79996,-2.05002 1.80541,-0.14017 5.72773,-0.53794 8.71624,-0.88393 4.40217,-0.50964 5.54062,-0.54026 5.99729,-0.16128 0.71159,0.59058 0.71854,1.26567 0.0189,1.84625 -0.57385,0.47624 -12.5045,1.84004 -16.16709,1.84806 -1.63785,0.005 -2.18753,-0.13558 -2.36538,-0.59908 z m 36.2432292,-0.86115 c -7.07401,-0.1789 -7.75675,-0.25343 -7.87307,-0.85946 -0.32122,-1.67341 0.0992,-1.73533 11.7817801,-1.73533 H 19.876893 l 0.24599,0.98008 c 0.39156,1.5601 -0.57048,1.98627 -4.2699,1.89149 -1.73732,-0.0444 -6.6443417,-0.16906 -10.9044918,-0.27678 z m 24.8446708,-0.63948 c -0.20212,-0.24398 -0.30999,-0.74222 -0.2397,-1.10719 0.11871,-0.61629 0.74577,-0.66359 8.79575,-0.66359 h 8.66795 l 0.11815,0.83203 c 0.065,0.45765 -0.10113,0.91015 -0.36906,1.00557 -0.26797,0.0954 -4.11386,0.21926 -8.54641,0.27515 -5.93233,0.0748 -8.15615,-0.0155 -8.42668,-0.34197 z m 24.72797,0 c -0.2025,-0.24398 -0.31076,-0.74222 -0.24058,-1.10719 0.11773,-0.61205 0.78008,-0.67131 8.52785,-0.7628 7.53221,-0.089 8.42449,-0.0361 8.63463,0.51149 0.12889,0.33589 0.0696,0.87177 -0.13153,1.19085 -0.31392,0.49767 -1.50721,0.58236 -8.39405,0.5957 -5.81758,0.0106 -8.12947,-0.10652 -8.39627,-0.42805 z m -199.194022,-12.2175 c -0.21275,-0.3975 -0.42054,-9.73189 -0.51553,-23.15876 -0.14343,-20.27202 -0.23782,-23.11235 -0.95603,-28.76696 -0.45342,-3.56991 -0.95171,-10.48941 -1.15608,-16.05428 -0.19756,-5.37911 -0.67901,-12.27139 -1.06989,-15.31616 -0.39088,-3.04477 -0.80816,-6.78155 -0.92731,-8.30393 -0.27261,-3.48364 -0.87702,-27.14521 -1.12499,-44.04193 -0.10382,-7.07081 -0.27478,-12.99534 -0.38003,-13.16564 -0.10511,-0.1703 -0.70421,-0.42226 -1.33101,-0.55994 -1.53672,-0.33752 -3.93649,-2.86768 -4.23646,-4.46664 -0.74436,-3.96785 2.58372,-7.51895 7.04677,-7.51895 4.37697,0 6.73367,4.26179 5.1911,9.38737 -0.65606,2.17992 -1.51481,3.16081 -2.76723,3.16081 h -0.96644 l 0.11322,11.16419 c 0.0623,6.14029 0.2926,13.48928 0.51171,16.33107 0.21912,2.8418 0.53206,11.56093 0.69544,19.37586 0.20517,9.81424 0.48022,15.40752 0.88932,18.08415 0.36756,2.40495 0.7241,8.4958 0.93978,16.05426 0.2966,10.39436 0.49599,13.09854 1.36067,18.45321 1.00767,6.24016 1.0138,6.3896 1.13195,27.6281 0.0876,15.74396 0.007,21.48877 -0.307,21.86703 -0.59665,0.71893 -1.71835,0.63888 -2.14207,-0.15286 z m -2.98205,-152.70421 c 1.00417,-2.64119 -0.11252,-4.95834 -2.38961,-4.95834 -0.93666,0 -1.48093,0.28092 -2.20001,1.13551 -0.52551,0.62453 -0.95547,1.42598 -0.95547,1.781 0,0.89703 1.41255,2.11993 2.95251,2.5561 1.96393,0.55624 2.20365,0.50868 2.59258,-0.51427 z m -161.5451,151.80159 c -0.16423,-0.25373 -0.29858,-8.51614 -0.29858,-18.36093 0,-15.7665 -0.0807,-18.33942 -0.67639,-21.59025 -0.37202,-2.02984 -0.59542,-4.31343 -0.49645,-5.07463 0.14483,-1.11388 0.0607,-1.38427 -0.4308,-1.38536 -1.10054,-0.002 -2.87201,-1.36205 -3.50053,-2.68654 -2.21055,-4.65839 1.95472,-7.85494 7.65759,-5.87667 2.4615,0.85387 3.19696,1.94631 3.28284,4.87624 0.0669,2.28513 0.0359,2.36927 -1.18527,3.20209 -0.68972,0.47043 -1.71433,0.85531 -2.2769,0.85531 -0.96917,0 -1.00721,0.0629 -0.72446,1.19946 1.2907,5.18825 1.69911,20.66989 0.97602,36.99867 -0.31776,7.17546 -0.52728,8.30395 -1.54186,8.30395 -0.26765,0 -0.62099,-0.20761 -0.78521,-0.46134 z m 2.10033,-50.27199 c 0,-1.12181 -0.95262,-1.67377 -2.88874,-1.67377 -1.74649,0 -2.2359,0.78038 -1.16259,1.85368 0.51075,0.51075 1.22819,0.72976 2.39056,0.72976 1.51913,0 1.66077,-0.0776 1.66077,-0.90967 z m 120.86707,49.90293 c -0.0896,-0.25372 -0.3265,-2.62034 -0.52662,-5.25917 -0.20014,-2.6388 -0.61409,-7.12291 -0.91991,-9.96472 -0.89612,-8.32737 -1.34601,-22.74668 -1.09964,-35.24562 0.15513,-7.86956 0.0881,-13.05635 -0.20786,-16.05429 -0.24037,-2.43582 -0.58258,-9.49416 -0.76047,-15.68521 -0.31905,-11.10369 -0.66924,-18.52188 -1.45475,-30.81684 -0.89998,-14.08641 -1.57538,-24.21233 -1.87084,-28.04886 -0.17198,-2.23284 -0.32226,-11.01373 -0.33398,-19.51309 -0.0216,-15.68837 -0.55335,-27.98338 -1.22107,-28.2344 -0.20225,-0.0761 -0.87096,-0.58788 -1.48604,-1.13746 -0.92407,-0.82564 -1.14623,-1.34658 -1.27892,-2.99881 -0.13474,-1.67767 0.0106,-2.32636 0.90458,-4.02944 1.12369,-2.14137 2.19044,-2.72027 3.30629,-1.79419 0.31602,0.26227 1.09575,0.43232 1.73275,0.37789 0.98148,-0.0838 1.34335,0.14234 2.37219,1.48285 1.39658,1.81965 1.73495,2.85266 1.38766,4.23636 -0.23464,0.93494 -2.15278,3.15879 -3.00191,3.4804 -0.27841,0.10546 -0.31433,1.44355 -0.11801,4.3958 0.15521,2.33433 0.29948,11.21955 0.32058,19.74493 0.0211,8.52538 0.19317,18.49011 0.38235,22.14383 0.18918,3.65374 0.59393,11.45943 0.89948,17.34601 0.30553,5.88657 0.64703,11.78237 0.75887,13.10177 0.48062,5.66988 1.66306,27.59337 1.66306,30.83461 0,1.94799 0.26626,6.56071 0.59168,10.25049 0.45567,5.16673 0.55337,9.67765 0.42511,19.62592 -0.21191,16.43419 0.22503,31.60154 1.21483,42.17096 0.42752,4.56522 0.6784,8.69444 0.55753,9.17601 -0.1583,0.63077 -0.47903,0.87561 -1.14698,0.87561 -0.50995,0 -1.00043,-0.20761 -1.08994,-0.46134 z m -5.27247,-193.50465 c 0.38754,-0.85057 0.32186,-1.03268 -0.65377,-1.81321 l -1.08459,-0.86767 -0.44826,0.79827 c -0.24653,0.43905 -0.45412,1.25499 -0.46133,1.81319 -0.0106,0.88615 0.12847,1.01493 1.10204,1.01493 0.83848,0 1.22198,-0.23455 1.54591,-0.94551 z m -79.76678,192.74949 c -0.17721,-0.46609 -0.51501,-4.73274 -0.75068,-9.48146 -0.23567,-4.7487 -0.48589,-8.72694 -0.55604,-8.8405 -0.0702,-0.11358 -0.47486,-5.52099 -0.89932,-12.01652 -1.32674,-20.30261 -1.51629,-22.49505 -2.41423,-27.92537 -1.04372,-6.31199 -1.22808,-9.13033 -1.686,-25.77345 -0.1927,-7.00298 -0.45742,-13.74177 -0.5883,-14.97507 l -0.23797,-2.24237 -1.59415,-0.42638 c -4.41931,-1.18198 -6.8931,-6.4406 -4.99538,-10.61895 0.92436,-2.03527 5.06922,-6.42924 6.06472,-6.42924 0.42631,0 1.11309,0.33826 1.5262,0.75172 0.41311,0.41344 1.66456,1.37015 2.78096,2.12603 4.40765,2.98418 4.99871,8.92517 1.24686,12.53287 l -1.63346,1.57072 0.37687,17.06701 c 0.34929,15.81831 0.67434,20.86543 1.83432,28.48302 0.49747,3.26671 0.7491,7.32094 1.13546,18.29365 0.1894,5.37911 0.60033,11.85618 0.91317,14.39349 0.85656,6.94686 1.69337,23.32302 1.22091,23.89232 -0.60061,0.72368 -1.38934,0.55114 -1.74394,-0.38152 z m -5.18812,-105.26229 c 1.40341,-0.72573 1.83793,-1.59597 1.83793,-3.68088 0,-2.22688 -0.85473,-3.8133 -2.40311,-4.46026 -0.68578,-0.28653 -1.42016,-0.8132 -1.63195,-1.17037 -0.3455,-0.5827 -0.53404,-0.49306 -1.83539,0.8724 -1.56358,1.64065 -2.36778,3.76979 -1.99556,5.2834 0.74453,3.02744 3.49335,4.46647 6.02808,3.15571 z m 205.422142,105.07607 c -0.11475,-0.18576 -0.46238,-6.29864 -0.7724,-13.58421 -0.31001,-7.28557 -0.73322,-14.3949 -0.94041,-15.79854 -0.31322,-2.1218 -2.28523,-12.54241 -3.24263,-17.13497 -0.21063,-1.01042 -0.51412,-1.32215 -1.67605,-1.72159 -3.57137,-1.22777 -5.194177,-4.6472 -3.69992,-7.79612 1.24183,-2.61696 4.9501,-4.80803 5.53919,-3.27289 0.11687,0.30448 0.5041,0.55358 0.86058,0.55358 0.35647,0 1.41822,0.82329 2.35942,1.82951 1.52169,1.6268 1.71129,2.01732 1.71129,3.52446 0,1.89137 -0.71319,3.55482 -1.87217,4.36661 l -0.76923,0.53878 0.77108,4.55826 c 0.4241,2.50705 1.18397,6.71729 1.6886,9.35609 0.99736,5.21533 1.70919,16.40906 1.79542,28.2334 0.0463,6.34986 0.0337,6.46053 -0.74848,6.57199 -0.43756,0.0623 -0.88949,-0.0387 -1.00429,-0.22436 z m -4.13151,-51.9534 c 0.98558,-0.98558 0.70535,-2.23935 -0.74836,-3.34815 l -1.32831,-1.01314 -0.69333,0.9021 c -1.18132,1.53701 -0.71205,3.09796 1.13556,3.77733 0.87923,0.32327 1.02052,0.29576 1.63444,-0.31814 z m -32.412322,51.20472 c -0.37721,-0.61032 -1.66,-10.33516 -2.02863,-15.37914 -0.2077,-2.84179 -0.47787,-7.88555 -0.60039,-11.20834 -0.12248,-3.32279 -0.54484,-7.973 -0.93847,-10.33379 -0.8656,-5.1912 -1.33554,-13.59021 -1.84056,-32.89482 -0.20974,-8.01793 -0.52472,-17.36652 -0.69993,-20.77466 -0.31222,-6.07365 -0.33859,-6.21649 -1.32838,-7.19675 -3.15709,-3.12668 -2.47997,-7.75013 1.41088,-9.63366 2.21218,-1.07089 2.6784,-0.99936 4.96037,0.76118 2.44679,1.88769 3.19748,3.22479 2.96558,5.28219 -0.24177,2.145 -1.16161,3.35623 -3.29029,4.33263 l -1.83348,0.84099 0.24008,3.69064 c 0.1321,2.02986 0.38887,13.3232 0.57071,25.09635 0.18182,11.77314 0.42826,21.98699 0.54764,22.69743 0.11939,0.71045 0.61598,3.5338 1.10359,6.27411 0.6918,3.88791 0.96229,7.2118 1.23132,15.13163 0.22681,6.67699 0.63021,12.24427 1.17914,16.27294 0.4589,3.36805 0.72874,6.39898 0.59963,6.73542 -0.24148,0.62932 -1.90874,0.85591 -2.24881,0.30565 z m -2.27969,-100.65929 c 1.10383,-1.10382 0.71501,-2.21223 -1.15814,-3.30148 -1.15188,-0.66984 -1.20523,-0.67004 -1.93758,-0.007 -0.41505,0.37563 -0.75309,1.14343 -0.75309,1.71061 0,1.81395 2.56709,2.87988 3.84881,1.59815 z m -122.99512,98.84325 c -0.18354,-0.35523 -0.43285,-6.70775 -0.55402,-14.11671 -0.21986,-13.44165 -0.63257,-21.78575 -1.40559,-28.41793 -0.22477,-1.92836 -0.46307,-8.07327 -0.52957,-13.65538 -0.0666,-5.58208 -0.29338,-12.05916 -0.50417,-14.39349 -0.21077,-2.33433 -0.3894,-7.39973 -0.39691,-11.25645 -0.007,-3.8567 -0.2533,-11.74545 -0.54619,-17.53054 -0.29288,-5.78507 -0.70566,-16.33108 -0.91731,-23.43556 -0.21164,-7.10448 -0.61872,-15.94257 -0.9046,-19.64019 l -0.51981,-6.72297 -1.47148,-1.3998 c -1.64875,-1.56843 -2.13821,-3.18051 -1.75053,-5.7657 0.32042,-2.13677 2.59809,-5.77665 3.61475,-5.77665 0.91149,0 4.5203,2.99797 5.52528,4.59007 1.33887,2.12104 0.25909,6.74944 -1.7927,7.68429 -0.92349,0.42077 -0.94274,0.50168 -0.72069,3.02879 0.12554,1.42804 0.3892,8.74137 0.58605,16.25182 0.19686,7.51045 0.53239,18.1395 0.74565,23.6201 0.21326,5.4806 0.55007,15.69444 0.74847,22.69742 0.1984,7.003 0.523,14.55958 0.72134,16.79241 0.19835,2.23284 0.35321,7.6304 0.34413,11.99458 -0.009,4.4215 0.24543,10.87632 0.57508,14.57803 0.58121,6.52665 1.48349,40.56467 1.09208,41.19801 -0.34459,0.55754 -1.59139,0.34915 -1.93926,-0.32415 z m -3.72238,-153.8853 c 0.51121,-1.34456 0.15525,-2.55198 -0.96963,-3.28903 -1.131,-0.74106 -1.28105,-0.61291 -1.53962,1.31485 -0.33337,2.48543 1.70512,4.08922 2.50925,1.97418 z"
       id="path2" /><path
       style="fill:#ffffff;stroke-width:1"
       d="m -524.84965,-312.86264 c -2.35794,-1.03909 -3.77902,-2.36476 -3.6535,-3.40821 0.174,-1.44652 1.09011,-1.83034 2.97226,-1.24527 0.87557,0.27217 2.2595,0.51715 3.07537,0.5444 1.29243,0.0432 1.49931,-0.0628 1.60688,-0.82259 0.24094,-1.70227 -0.39318,-2.8282 -3.25596,-5.78127 -4.17146,-4.30299 -4.81777,-5.88511 -3.37247,-8.25548 0.92035,-1.50944 2.65319,-2.40988 4.3573,-2.26419 2.31868,0.19822 2.68016,2.52134 0.44096,2.83386 -2.28358,0.31873 -1.82541,1.87121 1.64853,5.58589 1.484,1.58686 2.99999,3.5212 3.36886,4.29853 0.84766,1.78633 0.89266,4.47935 0.10022,5.99513 -1.22087,2.33509 -4.85542,3.59135 -7.2884,2.5192 z m 17.13561,-6.7157 c -0.56844,-0.22936 -0.61471,-1.84233 -0.0627,-2.18352 0.22051,-0.13625 3.68337,-0.98085 7.69523,-1.87681 9.32531,-2.08258 12.13386,-3.01325 18.0399,-5.97785 8.14024,-4.08607 11.44986,-6.61012 22.31714,-17.01996 5.09638,-4.88185 7.62595,-7.64203 10.41103,-11.36017 5.33044,-7.11622 6.91377,-9.44001 8.25469,-12.11508 1.30334,-2.60009 3.63003,-6.42682 7.23255,-11.89541 2.75418,-4.18083 4.91681,-8.33727 4.20844,-8.08837 -0.27225,0.0957 -2.19928,0.81216 -4.28225,1.59221 -3.14108,1.17631 -3.88453,1.33753 -4.35755,0.94497 -0.82328,-0.68326 -0.70099,-1.76318 0.27185,-2.40061 1.79112,-1.17358 8.82212,-3.54471 10.51101,-3.54471 1.42808,0 1.89625,0.19534 2.91867,1.21778 1.68354,1.68352 2.56883,5.63615 2.5436,11.35665 -0.0161,3.66407 -0.10989,4.29688 -0.69997,4.7284 -0.88571,0.64764 -1.46797,0.62937 -2.16525,-0.0678 -0.44018,-0.44017 -0.56362,-1.46969 -0.55502,-4.62867 0.006,-2.23442 -0.18462,-5.00518 -0.42379,-6.15726 l -0.43485,-2.09467 -1.41673,2.61094 c -0.7792,1.43603 -2.59815,4.37183 -4.04212,6.52403 -1.44398,2.1522 -3.99052,6.29238 -5.65899,9.20041 -2.92251,5.09369 -10.12961,15.3575 -13.36391,19.03186 -1.6206,1.8411 -16.03539,15.3892 -19.58989,18.41207 -5.746,4.88657 -14.98028,9.37818 -23.53683,11.44844 -8.81803,2.13351 -12.70153,2.79225 -13.81432,2.34323 z m -40.92888,-2.85106 c -0.30699,-0.67376 -0.2292,-1.43118 0.34276,-3.33769 0.40693,-1.35639 0.69386,-2.46615 0.63763,-2.46615 -0.0562,0 -0.83271,0.31999 -1.72552,0.71106 -4.13877,1.81296 -7.52128,1.12985 -9.20059,-1.85806 -1.64833,-2.93284 -0.75381,-6.13059 3.18631,-11.39046 2.16096,-2.88478 2.83765,-3.38074 3.79242,-2.77956 1.08144,0.68096 0.85794,1.53908 -0.97434,3.74078 -2.63023,3.16054 -3.4357,4.62353 -3.67966,6.68337 -0.18349,1.54924 -0.0949,1.95587 0.57072,2.62156 0.4367,0.4367 1.2616,0.7879 1.85064,0.7879 1.6117,0 5.8858,-2.32155 8.51041,-4.62257 2.41655,-2.11863 3.35226,-2.45591 4.14924,-1.49561 0.66665,0.80327 0.25782,2.31902 -1.67425,6.20731 -0.92664,1.86483 -1.95261,4.31824 -2.27993,5.45199 -0.32733,1.13377 -0.78164,2.184 -1.00956,2.33386 -0.86869,0.57111 -2.10039,0.28113 -2.49628,-0.58773 z m -27.35649,-14.7536 c -2.02504,-0.37322 -3.21056,-1.13475 -4.14031,-2.65958 -2.07086,-3.39633 0.28183,-7.90716 6.61081,-12.67495 l 3.23315,-2.43561 2.03971,0.24183 c 2.28206,0.27059 5.32074,2.15699 5.791,3.59506 0.53947,1.64969 0.23073,4.26669 -0.75944,6.43731 -2.34277,5.13575 -7.89719,8.39492 -12.77492,7.49594 z m 5.43081,-4.415 c 3.02488,-1.73473 5.3574,-5.56411 4.78306,-7.85248 -0.1225,-0.4881 -0.88272,-1.31955 -1.68939,-1.84769 l -1.46665,-0.96025 -1.78966,1.20758 c -4.22203,2.84885 -7.16704,6.27564 -7.16704,8.3395 0,2.44558 3.95823,3.04682 7.32968,1.11334 z m -26.40484,-12.27092 c -2.96736,-0.69359 -5.03039,-3.21589 -5.03039,-6.15025 0,-2.27302 3.05076,-6.68833 9.87559,-14.29275 1.28102,-1.42736 2.247,-1.72883 3.03015,-0.94568 0.77014,0.77014 0.5076,1.34084 -1.88607,4.0998 -7.71845,8.89636 -8.9996,11.4242 -6.70483,13.22928 2.63412,2.072 6.5922,0.0833 11.11433,-5.5844 2.05934,-2.58101 3.13083,-3.12358 4.15195,-2.10246 0.80678,0.80678 0.4686,1.84303 -1.44303,4.42166 -4.15617,5.60637 -8.96436,8.29326 -13.1077,7.3248 z m -18.40058,-19.81741 c -0.39667,-0.47795 -0.37598,-0.88477 0.11788,-2.31785 1.4362,-4.16806 2.45287,-11.90747 1.83596,-13.97634 -0.54935,-1.84226 -0.78098,-1.7435 -10.36264,4.41825 -1.82328,1.17251 -2.77738,1.03234 -2.99746,-0.44033 -0.0915,-0.61202 0.65964,-1.27516 3.70854,-3.27417 5.80424,-3.80558 8.34671,-5.05019 9.72293,-4.75967 2.41335,0.50944 3.55709,2.67002 3.55709,6.71953 0,1.21368 -0.17836,3.17155 -0.39636,4.35082 -0.218,1.17926 -0.3156,2.22488 -0.21688,2.32358 0.0987,0.0987 1.57042,-1.00198 3.27048,-2.446 3.22097,-2.73583 4.46966,-3.36098 5.46625,-2.73663 1.48208,0.9285 0.92802,1.82812 -3.18711,5.17492 -2.20509,1.79338 -4.99553,4.22434 -6.20098,5.40214 -2.26489,2.2129 -3.42806,2.63364 -4.31765,1.56175 z m -19.5617,-22.48747 c -0.24475,-0.24476 -0.44502,-0.72649 -0.44502,-1.07051 0,-0.69386 10.54465,-9.58878 12.01764,-10.13746 1.05597,-0.39335 2.07484,0.22222 2.07484,1.25356 0,0.36175 -1.55719,1.86191 -3.61584,3.48343 -1.98869,1.56644 -4.75975,3.76335 -6.15789,4.88204 -2.65609,2.12523 -3.13926,2.32341 -3.87373,1.58894 z m -5.41187,-17.20089 c -0.12377,-0.32264 -0.22511,-0.81579 -0.22511,-1.09589 0,-0.58088 4.44154,-4.05196 8.54203,-6.67567 1.52296,-0.97446 2.82607,-1.8164 2.89579,-1.87098 0.0697,-0.0545 -0.48119,-1.13653 -1.22424,-2.40435 -1.55316,-2.65006 -1.60042,-3.81464 -0.16161,-3.98168 0.84039,-0.0976 1.16221,0.21597 2.47429,2.41056 0.82954,1.38748 2.43917,3.85334 3.57694,5.47968 2.22322,3.17789 2.47297,4.03223 1.35383,4.63117 -1.03113,0.55184 -1.54219,0.2334 -2.96007,-1.8444 -0.69426,-1.01737 -1.38551,-1.84978 -1.53612,-1.84978 -0.29628,0 -4.19029,2.74911 -8.28775,5.85103 -2.60143,1.96937 -4.04255,2.40685 -4.44798,1.35031 z m -9.35822,-19.63843 c -0.79517,-0.79517 -0.9039,-1.15782 -0.70324,-2.34557 0.19166,-1.13446 1.42916,-5.49683 2.67097,-9.41559 0.3307,-1.04362 -0.41631,-0.79791 -5.44855,1.79215 -5.14233,2.64672 -6.40552,2.88061 -6.59789,1.2217 -0.12741,-1.09881 0.43503,-1.49261 6.80932,-4.76756 5.27412,-2.7097 7.07365,-2.52898 7.97018,0.80043 0.42409,1.57499 0.0702,3.63969 -1.52973,8.92665 -0.65637,2.16885 -0.44114,2.7427 0.51609,1.37606 0.67078,-0.95767 7.17046,-4.43561 8.2894,-4.43561 0.47609,0 1.02157,0.34112 1.26107,0.78861 0.82136,1.53475 -0.0754,2.41131 -4.89252,4.78203 -5.20748,2.56289 -6.81326,2.80855 -8.3451,1.2767 z m 458.42342,-19.01556 c -3.61051,-2.31389 -4.72402,-6.66226 -3.35731,-13.11063 0.69324,-3.2708 1.3983,-4.54353 3.2779,-5.91695 1.46111,-1.06764 1.72541,-1.13075 4.06067,-0.96973 2.61755,0.18048 3.62127,0.66703 3.62127,1.75546 0,1.13687 -0.9039,1.53663 -2.88129,1.27433 -1.67264,-0.22188 -1.9399,-0.14896 -2.99494,0.81715 -2.64588,2.42283 -3.09877,10.10945 -0.74337,12.61665 1.09605,1.16669 1.71527,1.09776 3.86443,-0.43024 2.09993,-1.49299 2.86825,-1.60596 3.62028,-0.53228 0.82405,1.17651 0.35344,2.05865 -1.89415,3.55052 -2.54415,1.68871 -4.888,2.02591 -6.57349,0.94572 z m 45.90254,-0.0591 c -1.57404,-0.37397 -2.90616,-1.27203 -3.71266,-2.5029 -0.56557,-0.86317 -0.65417,-1.92973 -0.65417,-7.8755 0,-7.65881 0.24877,-8.6605 2.48908,-10.02291 1.30802,-0.79545 5.47855,-1.6323 7.15315,-1.43532 0.95762,0.11269 1.11256,0.28455 1.11256,1.23449 0,1.25157 -0.40319,1.44289 -4.07941,1.93574 -2.06389,0.2767 -2.26982,0.39237 -2.84205,1.59632 -0.33931,0.71389 -0.7312,2.34102 -0.87085,3.61582 l -0.25389,2.31785 h 2.6074 c 2.30206,0 2.63563,0.0889 2.84846,0.7595 0.41678,1.31314 -0.4356,1.83648 -2.99109,1.83648 h -2.33836 l 0.2039,2.13242 c 0.27345,2.85971 0.6518,3.18426 3.75092,3.21754 2.69347,0.0289 3.77954,0.52338 3.77954,1.72066 0,1.56025 -2.91475,2.25096 -6.20253,1.46981 z m -14.85168,-0.7874 c -0.46346,-0.17497 -0.94635,-0.61418 -1.07307,-0.97603 -1.52548,-4.35562 -2.7116,-6.79274 -4.58193,-9.41446 -1.4549,-2.03939 -2.21744,-3.46925 -2.21744,-4.15792 0,-1.06197 0.98978,-2.26711 3.09959,-3.77397 1.48584,-1.06122 1.49153,-2.19335 0.0112,-2.33749 -1.41731,-0.13806 -3.08731,1.15631 -4.08687,3.16759 -0.58421,1.1755 -0.72249,2.56148 -0.87873,8.80773 -0.16902,6.75684 -0.24443,7.42401 -0.85225,7.54043 -1.58803,0.30417 -1.74374,-0.38338 -1.74374,-7.69957 0,-7.98589 0.39818,-9.98381 2.4402,-12.24409 1.62328,-1.79677 3.32991,-2.612 5.46805,-2.612 2.03656,0 3.74605,1.25258 4.09573,3.00103 0.31944,1.59716 -0.83764,4.0791 -2.40772,5.16457 -0.68862,0.47606 -1.30516,0.90322 -1.37011,0.94923 -0.0649,0.046 0.47361,0.85882 1.19681,1.80625 2.80307,3.67224 5.04037,8.7255 5.04037,11.38446 0,1.23438 -0.94088,1.84718 -2.14064,1.39424 z m 52.54479,0.0751 c -1.64019,-0.53767 -2.84711,-1.51693 -3.45911,-2.80664 -0.7823,-1.64857 -0.79682,-8.14427 -0.0248,-11.10814 1.14788,-4.40709 2.77198,-5.37292 9.26422,-5.50946 l 4.079408,-0.0858 0.114935,0.99491 c 0.157,1.35903 -0.542819,1.64951 -4.750633,1.97192 -1.93771,0.14847 -3.79509,0.41295 -4.12751,0.58773 -0.6702,0.35237 -1.80615,2.90713 -1.80615,4.06205 0,0.71013 0.16706,0.73064 4.03752,0.49555 3.93198,-0.2388 4.04426,-0.22397 4.29546,0.5675 0.460817,1.45191 -0.30719,1.79309 -4.67922,2.0787 l -4.10929,0.26845 0.16613,2.00314 c 0.23218,2.79995 0.70664,3.07584 5.31447,3.09043 2.38967,0.007 3.886788,0.17148 4.172123,0.45681 0.669879,0.6699 0.534718,2.07686 -0.239318,2.49111 -0.936575,0.50124 -7.065395,0.82947 -8.248225,0.44173 z m -553.58609,-2.20551 c -3.60961,-1.28947 -5.5369,-4.01905 -5.16532,-7.31557 0.18464,-1.6382 1.34318,-4.24182 2.44471,-5.4941 2.0199,-2.2963 8.71892,-4.79516 9.84263,-3.67145 0.14692,0.14692 0.80056,0.22561 1.45252,0.17485 1.49425,-0.11633 4.59496,2.13038 5.54234,4.01582 2.0062,3.99262 -0.65547,9.76852 -5.48631,11.90544 -2.39969,1.06149 -6.25541,1.2335 -8.63057,0.38501 z m 6.318,-3.4138 c 3.45053,-0.95831 5.79213,-5.11259 4.37465,-7.76117 -0.43546,-0.81368 -3.52286,-2.60644 -4.48864,-2.60644 -1.00872,0 -4.48185,1.39898 -5.412,2.17997 -1.38935,1.16653 -2.71402,3.43614 -2.71402,4.65007 0,3.10136 3.85363,4.75579 8.24001,3.53757 z m 443.30192,3.51294 c -0.32051,-0.32052 -0.58276,-0.96762 -0.58276,-1.438 0,-1.31579 0.83164,-1.77534 2.70455,-1.49449 1.48471,0.22266 1.71286,0.15089 2.43371,-0.76552 0.43748,-0.55615 0.79541,-1.26138 0.79541,-1.56715 0,-1.35927 -0.9571,-3.51224 -2.2649,-5.09487 -0.78087,-0.94496 -1.52411,-2.27431 -1.65164,-2.95411 -0.50177,-2.67471 2.10017,-5.4877 5.12907,-5.54507 2.60245,-0.0493 2.92005,2.07326 0.42983,2.87256 -1.15111,0.36948 -2.38406,1.28496 -2.38406,1.77017 0,0.15995 0.6714,1.06657 1.492,2.01471 3.47522,4.01529 3.86371,9.03634 0.90047,11.63811 -1.18929,1.0442 -1.53369,1.14644 -3.86231,1.14644 -1.8297,0 -2.72229,-0.16569 -3.13937,-0.58278 z m 90.2283,-0.16378 c -0.44944,-0.26253 -0.67169,-1.18757 -0.866,-3.60457 -0.34437,-4.28368 -1.19843,-10.86514 -1.44146,-11.10817 -0.10597,-0.10597 -1.63657,-4.2e-4 -3.40147,0.23445 -2.44436,0.32528 -3.33361,0.32352 -3.73237,-0.007 -0.60935,-0.50571 -0.69337,-1.67825 -0.14455,-2.01744 0.66808,-0.4129 11.60667,-1.69389 13.52813,-1.58425 1.70096,0.0971 1.86373,0.1875 1.96855,1.09383 0.12854,1.11173 -0.0966,1.2252 -3.21862,1.6221 l -1.99178,0.25321 0.24018,1.7206 c 0.4716,3.37844 1.33283,11.00166 1.33283,11.79762 0,0.77007 -0.87906,1.98859 -1.4172,1.96448 -0.13834,-0.006 -0.52371,-0.17021 -0.85624,-0.36443 z m -127.14265,-0.90763 c -0.56903,-0.68565 -1.09433,-6.47803 -1.1115,-12.25637 -0.0126,-4.04419 -0.0814,-4.49635 -0.75493,-4.91696 -1.03812,-0.64832 -0.92422,-1.58506 0.33755,-2.77597 1.2155,-1.14724 1.95322,-1.27696 2.62928,-0.46236 0.25392,0.30595 1.01907,0.55629 1.70035,0.55629 1.9608,0 5.11466,1.3718 7.03004,3.05778 1.98177,1.74442 3.50702,4.62379 3.48792,6.58443 -0.0418,4.29017 -3.8312,8.36775 -9.33043,10.04007 -2.8076,0.8538 -3.40192,0.87959 -3.98828,0.17309 z m 5.12295,-4.4361 c 2.15157,-1.09029 4.33864,-3.42409 4.68452,-4.99881 0.33229,-1.51293 -0.89265,-4.0957 -2.53749,-5.35028 -1.49614,-1.14117 -3.74538,-2.10335 -4.91688,-2.10335 -0.85745,0 -0.8818,0.0847 -0.87992,3.05954 0.001,1.68276 0.10961,4.68669 0.24135,6.67539 0.27569,4.16309 0.38451,4.24984 3.40842,2.71751 z m 15.49614,3.75808 c -0.51547,-0.37964 -0.67121,-1.81803 -1.00577,-9.28898 -0.21772,-4.86188 -0.30531,-9.07572 -0.19466,-9.36408 0.33945,-0.8846 2.03862,-0.64916 2.23829,0.31013 0.14602,0.70163 0.95353,15.45726 0.95315,17.41712 -1.8e-4,0.91766 -1.22729,1.48828 -1.99101,0.92581 z M -675.3496,-474.3535 c -2.7985,-2.2282 -3.37273,-4.79083 -1.93473,-8.6342 1.69579,-4.53242 4.82334,-6.54654 10.64615,-6.85607 3.1658,-0.16827 3.57,-0.10694 5.48902,0.83187 2.26158,1.10649 3.51939,2.65835 4.28456,5.28623 0.36832,1.26494 0.36243,1.67652 -0.0308,2.15032 -0.86705,1.04472 -1.96957,0.4941 -2.96176,-1.47921 -1.26558,-2.51706 -2.86213,-3.53346 -5.55034,-3.53346 -4.73687,0 -7.951,2.08154 -8.87398,5.74698 -0.52552,2.08705 -0.0736,3.31014 1.58432,4.28837 1.47871,0.87246 1.84569,1.85034 1.09607,2.92057 -0.78198,1.11645 -1.6501,0.94937 -3.74852,-0.7214 z m 445.55314,-7.5129 c -0.96328,-0.70438 -0.68629,-2.27412 0.42917,-2.43225 1.17208,-0.16615 1.98647,0.60677 1.85261,1.75829 -0.12979,1.11596 -1.23205,1.44153 -2.28178,0.67396 z m 43.97157,-9.63544 c -0.20985,-0.25496 -0.49882,-1.29799 -0.64215,-2.31785 -0.14334,-1.01984 -0.49295,-2.9927 -0.77691,-4.38412 -0.28398,-1.39143 -1.01863,-6.39796 -1.63257,-11.12564 -1.6934,-13.04005 -2.62748,-16.96301 -5.44636,-22.87368 -1.42437,-2.98661 -2.14472,-3.9783 -4.73035,-6.51212 -1.67756,-1.64394 -3.70275,-3.30356 -4.50045,-3.68802 -3.87286,-1.86664 -12.05464,-0.68397 -25.77243,3.72539 -2.94045,0.94516 -7.43232,2.21338 -9.98194,2.81828 -10.47122,2.48426 -20.61036,1.63377 -34.07233,-2.8581 -9.18423,-3.06451 -28.08756,-11.73554 -36.39004,-16.69226 -9.06233,-5.41036 -19.84976,-8.83456 -31.67166,-10.05338 -3.19744,-0.32966 -4.14629,-0.97194 -3.3226,-2.24911 0.80492,-1.24812 8.75552,-0.4969 17.37867,1.64204 6.50858,1.61444 12.7003,4.18762 18.25025,7.58458 7.10455,4.34846 16.56584,9.28427 21.88355,11.4163 1.99488,0.79981 4.91552,2.04567 6.49032,2.7686 9.94645,4.56599 22.32765,7.16446 32.3679,6.79312 5.61243,-0.20757 4.6473,0.006 29.11209,-6.41127 6.80203,-1.78394 8.49093,-2.09757 11.49648,-2.13497 4.84906,-0.0603 6.06679,0.54489 10.87971,5.40736 3.26751,3.30117 4.0029,4.2861 5.52647,7.40165 1.80553,3.69214 3.58639,9.25558 4.42903,13.83638 0.39095,2.12533 0.49752,2.36066 0.58775,1.29801 0.55117,-6.49175 1.23691,-9.93964 2.47092,-12.42364 2.19936,-4.4272 5.55392,-7.66717 8.66478,-8.36878 1.40368,-0.31658 12.81508,0.58439 21.88548,1.72795 11.96332,1.50827 42.32952,0.87121 56.255947,-1.18023 8.772133,-1.29217 12.234333,-2.34463 21.880425,-6.65134 2.855578,-1.27493 7.774813,-3.45392 10.931635,-4.84219 7.800701,-3.43048 11.349804,-5.45706 14.904135,-8.51041 6.025505,-5.17623 10.18964,-8.35961 12.588376,-9.62351 3.431616,-1.80812 9.560563,-3.7761 13.423189,-4.31013 2.851036,-0.39418 3.337985,-0.37887 3.837465,0.12068 0.431682,0.43168 0.477628,0.74855 0.187219,1.29119 -0.300753,0.56194 -1.188898,0.8511 -4.06351,1.32297 -5.871407,0.96377 -10.98707,2.95677 -14.908481,5.80812 -0.71389,0.51909 -3.527489,2.90232 -6.252447,5.29605 -2.724957,2.39375 -5.874911,4.96322 -6.999907,5.70995 -2.940238,1.95161 -9.090434,4.92148 -15.694164,7.57853 -3.150612,1.26767 -7.146899,2.96744 -8.880649,3.77726 -7.565587,3.5339 -12.496652,4.68215 -25.774393,6.00188 -12.87714,1.27989 -20.82436,1.69663 -33.74776,1.76964 -9.70821,0.0548 -12.33046,-0.0625 -20.58244,-0.92087 -14.42956,-1.50101 -17.48546,-1.62902 -19.30463,-0.80869 -1.847,0.83288 -4.81475,4.64725 -5.90509,7.58964 -1.26589,3.41613 -1.57033,7.37557 -1.69406,22.0323 -0.12391,14.67677 -0.12265,14.66556 -1.69931,14.6804 -0.33199,0.003 -0.7753,-0.20293 -0.98516,-0.45789 z m -492.31682,-5.72704 c -0.77609,-1.27173 -6.19502,-14.18131 -8.22049,-19.58378 -1.37648,-3.67147 -3.82405,-9.47242 -5.43901,-12.891 -3.30014,-6.98576 -3.63466,-8.05388 -2.75182,-8.78658 1.05954,-0.87933 2.16552,0.0262 3.24631,2.65797 0.5416,1.31883 1.99262,4.55237 3.22449,7.18563 1.23187,2.63325 3.26876,7.70822 4.52643,11.27769 1.25767,3.56948 3.5304,9.32699 5.05049,12.79449 2.85402,6.51029 2.98764,7.27972 1.30784,7.53101 -0.41885,0.0627 -0.84377,-0.0208 -0.94424,-0.18543 z"
       id="path3" /></g></svg>
