<svg width="591.22mm" height="209.97mm" version="1.1" viewBox="0 0 591.22 209.97" xml:space="preserve" xmlns="http://www.w3.org/2000/svg"><g transform="translate(-1533.4 747.94)"><path fill="#fff" d="m1863-538.25c-0.9435-0.21419-2.1663-0.56984-2.7173-0.79034-0.5511-0.22049-1.1938-0.40089-1.4283-0.40089-0.5999 0-3.2515-2.6059-3.6934-3.6295-1.0141-2.3496 0.3369-7.8738 2.4375-9.967 3.0268-3.0162 7.7572-5.9826 9.5401-5.9826 0.8439 0 1.15 0.11642 1.2658 0.48144 0.084 0.26479 0.5597 0.67547 1.057 0.9126 1.51 0.72007 4.4733 3.7189 5.2576 5.3205 0.6412 1.3096 0.712 1.7426 0.712 4.3535 0 3.8027-0.5911 5.8177-2.2471 7.6596-0.6509 0.72392-1.5794 1.5041-2.0633 1.7338-1.3051 0.61932-5.9717 0.79694-8.1206 0.3091zm7.4466-2.4229c0.6049-0.35207 1.1753-1.0854 1.8094-2.3264 0.8682-1.699 0.9261-1.9709 0.9261-4.3526 0-2.1337-0.094-2.7098-0.5894-3.5987-1.3-2.3345-0.9772-2.431-4.6907 1.4019-1.8323 1.8912-4.1579 4.5497-5.168 5.9078-1.6152 2.1716-1.7819 2.5006-1.3828 2.7293 1.7787 1.0193 7.4963 1.1694 9.0954 0.23876zm-8.5322-5.3936c1.0654-1.5229 7.304-7.9268 7.7221-7.9268 0.5285 0 0.1674-0.45922-1.2026-1.5292l-1.4409-1.1254-1.3796 0.52422c-3.1831 1.2094-6.8019 4.3037-7.6338 6.5272-1.2796 3.4199-1.2384 5.0319 0.1658 6.4976l0.7258 0.75762 1.0088-1.1297c0.5549-0.62131 1.4704-1.7893 2.0344-2.5955zm-0.2417-19.928c-2.672-0.62514-4.3421-1.2725-7.4083-2.8717-3.5664-1.86-4.0095-2.2276-5.0593-4.1972-0.4343-0.81479-1.7655-2.5522-2.9584-3.8609-3.1074-3.4093-5.0566-5.8626-5.7453-7.2313-0.3294-0.65484-1.0422-1.8455-1.5839-2.6458-1.3547-2.0016-2.4358-4.2092-3.3995-6.9414-1.0046-2.8482-1.258-3.3453-3.475-6.817-4.0555-6.3505-9.8946-19.045-11.422-24.832-0.2823-1.0699-1.1581-3.3321-1.9462-5.0271-1.4179-3.0497-1.4433-3.0832-2.4349-3.2142-0.7828-0.10334-1.0203-0.26054-1.0854-0.71825-0.063-0.44208 0.083-0.62779 0.5953-0.75629 0.3733-0.0937 0.6786-0.26988 0.6786-0.39157 0-0.12168-0.3996-1.0982-0.888-2.17-0.4885-1.0718-1.0857-2.5369-1.3272-3.2558-0.2416-0.71886-0.9677-2.1856-1.6136-3.2595-0.6459-1.0738-1.4237-2.7239-1.7283-3.6669-0.3047-0.94296-0.711-1.9694-0.9029-2.2809-0.192-0.31153-1.1211-1.8166-2.0649-3.3446-2.9454-4.7689-4.5131-7.9216-6.1177-12.303-1.8987-5.1848-2.199-6.0615-2.5396-7.4136-0.1473-0.58499-0.7029-1.7756-1.2345-2.6458-2.5249-4.1326-7.0194-12.686-7.9117-15.057-0.8066-2.1429-4.1233-7.0458-6.3668-9.4117-0.8969-0.94589-2.4297-2.7914-3.4061-4.101s-2.5799-3.4528-3.5634-4.7625c-3.132-4.1712-6.9718-7.0181-10.164-7.5363-3.4398-0.55829-7.4587-0.20002-9.8048 0.87405-0.7864 0.36005-2.1864 1.236-3.1111 1.9466-2.1394 1.6442-4.05 2.8786-6.6738 4.3118-3.1849 1.7398-7.3863 6.1338-11.138 11.649-1.1384 1.6735-2.4571 3.519-2.9305 4.101s-1.4489 2.0704-2.1679 3.3073c-0.7189 1.2369-2.1116 3.5586-3.0949 5.1594-2.3933 3.8964-3.4126 5.959-4.1188 8.3344-0.6429 2.1624-1.5562 4.1018-3.1851 6.763-1.0508 1.7169-4.238 8.5978-5.1398 11.096-0.2626 0.7276-0.9874 2.2754-1.6107 3.4396-0.6232 1.1642-1.2729 2.6524-1.4435 3.3073-0.1707 0.65485-0.701 1.7859-1.1785 2.5135-0.9856 1.5021-2.3154 4.0371-2.4289 4.6302-0.4898 2.56-0.4643 2.5103-1.3295 2.5946-1.0219 0.0996-1.5135 0.79768-3.8771 5.5062-1.4483 2.8851-3.9789 6.8601-10.592 16.638-0.5906 0.87313-1.5679 2.7243-2.1719 4.1137-1.5144 3.4836-3.3051 6.5154-5.7283 9.6986-1.1304 1.4848-2.6128 3.5684-3.2942 4.6302-0.6814 1.0618-1.9259 2.7331-2.7656 3.714s-2.0928 2.5883-2.7846 3.5719c-0.6919 0.98361-1.8136 2.4432-2.4928 3.2436-0.6791 0.80036-2.0422 2.6458-3.029 4.101-5.5768 8.2232-8.8725 11.422-14.949 14.509-2.4199 1.2294-3.4589 1.6045-5.0941 1.8392-2.5277 0.36277-5.2417-0.0306-7.0674-1.0242-0.6778-0.36888-3.0699-2.3382-5.3158-4.3764-2.2459-2.0381-4.8801-4.2382-5.8539-4.8892-0.9737-0.65093-2.308-1.7815-2.9652-2.5124-1.1537-1.2832-4.2515-6.5035-7.4424-12.542-0.8459-1.6007-2.3757-4.2201-3.3996-5.8208-1.024-1.6007-2.6528-4.6964-3.6197-6.8792-2.1721-4.9037-2.5536-5.6558-4.6347-9.1366-0.9163-1.5326-1.923-3.6162-2.237-4.6302-1.3649-4.4069-2.2193-6.4778-6.2159-15.066-1.7084-3.6714-3.015-6.8643-3.3016-8.0682-0.2609-1.0958-0.7391-3.1234-1.0626-4.5059-0.8028-3.4308-3.0292-9.027-5.7367-14.42-2.4687-4.9172-2.7914-5.6966-3.5213-8.5049-0.5742-2.2092-2.4183-6.8038-3.9674-9.8847-1.202-2.3908-1.2876-3.3062-0.3091-3.3062 1.1269 0 3.2303 4.1786 5.5936 11.112 1.1646 3.4165 2.647 7.0482 3.4054 8.3426 0.6722 1.1471 4.5231 10.764 5.6132 14.017 0.4466 1.3332 1.0467 3.515 1.3334 4.8486 0.8271 3.8469 1.4427 5.434 4.9435 12.743 1.812 3.7836 3.8234 8.3674 4.4696 10.186s2.049 4.9146 3.1172 6.8792c1.0683 1.9645 2.2659 4.3458 2.6615 5.2917 1.2717 3.0408 2.7927 5.8738 4.9718 9.2604 1.1704 1.819 2.7802 4.6765 3.5774 6.35 1.475 3.0966 5.3908 9.6717 7.1469 12.001 0.5329 0.70674 1.6237 1.7343 2.4241 2.2834s2.4672 1.9257 3.7042 3.0589c1.2369 1.1332 3.1419 2.8788 4.2333 3.8789 2.8174 2.5818 4.2537 3.2295 7.4083 3.3408 2.9241 0.10311 4.005-0.22816 7.3294-2.2462 5.1586-3.1315 7.6802-5.7557 13.436-13.982 0.7127-1.0186 2.0769-2.8204 3.0315-4.004 0.9547-1.1835 2.4783-3.1481 3.386-4.3656 0.9076-1.2176 2.246-2.9876 2.9742-3.9335 5.175-6.7223 7.2598-9.8459 9.4452-14.152 1.2547-2.472 3.5433-6.4344 5.086-8.8053 1.5426-2.3709 3.4762-5.349 4.2969-6.618l1.4922-2.3072-0.7797-0.084c-1.7439-0.18795-1.0922-1.6358 0.7363-1.6358h1.1563l1.7557-3.5057c2.0167-4.027 2.7454-5.1557 4.3982-6.813 0.653-0.65484 1.5835-1.8455 2.0676-2.6458 0.4842-0.80037 1.1432-1.8124 1.4646-2.249s0.8336-1.6272 1.1382-2.6458c0.3047-1.0186 0.8542-2.3738 1.2212-3.0115s1.8085-3.8524 3.2034-7.1438c1.3949-3.2914 3.1025-6.8773 3.7947-7.9687 1.6985-2.6779 2.0721-3.443 2.951-6.0432 1.2165-3.5988 5.2919-11.097 8.7234-16.05 5.0567-7.2984 6.2001-8.7918 10.285-13.434 1.3412-1.524 3.5258-3.1083 6.2672-4.5449 1.3308-0.69742 3.2814-1.9722 4.3347-2.8328 4.0455-3.3055 5.7969-3.9464 11.271-4.1242 4.6087-0.14968 4.965-0.0713 8.3676 1.8407 1.8097 1.0169 2.7077 1.7462 4.1101 3.3377 1.8565 2.1067 3.8763 4.7569 5.8673 7.6984 0.6326 0.93464 2.0015 2.6015 3.0419 3.7042 1.0405 1.1026 2.4362 2.7787 3.1017 3.7246s1.6916 2.3018 2.2803 3.0132c0.7142 0.86296 1.3486 2.0901 1.9063 3.6873 1.2621 3.6142 4.1799 9.1656 7.4644 14.202 1.0885 1.669 1.6049 2.7948 2.0024 4.3656 1.2587 4.9736 5.7255 14.928 9.1421 20.373 0.7305 1.1642 1.7253 3.0692 2.2106 4.2333 0.4853 1.1642 1.2967 2.7882 1.803 3.609 0.5064 0.82081 1.2686 2.5472 1.6938 3.8364 1.2635 3.8311 2.0061 5.2956 2.7841 5.4909 0.5012 0.12578 0.6795 0.34279 0.6795 0.82695 0 0.40209-0.1512 0.65642-0.3902 0.65642-0.2767 0 0.1082 1.0104 1.3229 3.4732 0.9422 1.9102 1.7131 3.7323 1.7131 4.0491 0 1.5413 3.3688 10.253 5.0362 13.023 0.7151 1.1881 1.5844 2.9152 1.9319 3.8381 0.9027 2.3972 2.6907 5.8708 4.1312 8.0258 2.0935 3.1318 3.1824 5.0617 3.6928 6.5452 0.7835 2.2775 2.2545 5.3012 3.5627 7.3235 0.6673 1.0316 1.4551 2.3495 1.7506 2.9287 0.5586 1.095 2.8136 3.8152 5.8429 7.048 0.9703 1.0356 2.1594 2.6242 2.6423 3.5304 0.9692 1.8183 1.5586 2.3338 4.4823 3.9205 2.7632 1.4995 4.5512 2.1614 7.0115 2.5953 4.2032 0.74141 6.2176 0.39372 10.846-1.8721 2.3369-1.144 3.4349-1.8921 5.558-3.787 2.3626-2.1086 2.8994-2.7689 5.0141-6.1677 1.3025-2.0935 2.7056-4.6326 3.1181-5.6425 0.4125-1.0099 0.8921-2.0074 1.0657-2.2167 0.1737-0.20928 1.6281-1.4414 3.2319-2.7381 1.6038-1.2967 3.4519-3.0001 4.1067-3.7854 1.519-1.8216 3.8311-6.2175 4.197-7.9794 0.4628-2.2291 1.5676-4.8681 2.9206-6.9766 2.0413-3.181 2.5478-4.2081 3.4581-7.0115 1.1802-3.6347 5.1553-12.887 6.6719-15.529 0.392-0.68305 0.9717-2.1118 1.2881-3.175 0.3163-1.0632 1.029-2.9451 1.5837-4.1821s1.3207-3.3643 1.7021-4.7274c0.3815-1.3632 1.1513-3.6849 1.7106-5.1594 0.5594-1.4745 1.4928-4.1723 2.0743-5.9952 0.5814-1.8229 1.7661-4.7399 2.6327-6.4823 1.81-3.6396 2.0062-4.132 2.5795-6.4753 0.2481-1.0142 1.1152-2.9681 2.1136-4.7625 1.9668-3.5351 4.0775-7.9794 4.9972-10.522 1.1198-3.096 1.9642-4.7921 3.4293-6.8883 0.7829-1.1201 1.7232-2.6914 2.0896-3.4918 0.3663-0.80036 1.2638-2.1313 1.9945-2.9577 1.5182-1.717 3.4216-4.1406 4.9603-6.3158 2.8318-4.0031 4.7496-6.3455 6.3968-7.8129 6.03-5.372 9.7803-7.5471 14.142-8.202 4.0887-0.61395 8.5521-0.49694 11.94 0.313 4.0253 0.9625 5.6725 2.1094 11.746 8.1782 3.8266 3.8237 4.9729 5.1377 5.6469 6.4727 0.465 0.92131 1.2642 2.3057 1.7759 3.0764 0.5275 0.79447 1.2023 2.3665 1.5582 3.6302 0.7503 2.6643 7.3912 16.623 9.8072 20.614 1.0175 1.6808 2.0418 4.0778 2.342 5.4801 0.1074 0.50213 0.853 1.9309 1.6568 3.175 1.4791 2.2894 2.6095 4.5652 3.2261 6.4954 0.5223 1.635 3.3664 7.1835 4.8146 9.3927 0.7155 1.0914 1.4883 2.6392 1.7174 3.4396s1.6756 3.8365 3.2145 6.7469c3.733 7.0603 3.6577 6.8955 4.4393 9.7092 1.475 5.3099 3.6337 11.157 5.965 16.156 0.73 1.5654 1.7168 3.8384 2.193 5.0512 0.4761 1.2128 1.6168 3.4444 2.5349 4.9591 2.8482 4.6989 3.2058 5.4428 3.367 7.0052 0.1355 1.3132 0.3705 1.7745 2.1233 4.1689 3.196 4.3661 4.7393 6.8121 5.4982 8.7145 0.3924 0.98389 1.307 2.5317 2.0324 3.4396 1.6791 2.1017 9.0166 9.3445 9.9618 9.8332 1.1143 0.57624 5.2683 1.7254 7.284 2.015 1.0022 0.14402 3.0858 0.27081 4.6302 0.28176 3.5776 0.0254 4.9265-0.4469 8.9634-3.1383 3.9165-2.6111 5.3546-4.2006 7.3289-8.1004 1.1882-2.3472 2.1918-3.8474 4.0632-6.0737 2.9146-3.4674 3.4144-4.3744 4.5208-8.2048 0.9561-3.31 1.1657-3.7558 3.194-6.7902 1.6201-2.424 3.3434-5.6316 5.019-9.3426 0.5789-1.2822 1.5972-3.1505 2.2629-4.1519 0.6658-1.0014 1.639-2.7503 2.1629-3.8865 0.5238-1.1362 1.3312-2.6611 1.7941-3.3887 2.2418-3.5237 3.8812-7.0017 4.1429-8.7894 0.3221-2.1998 0.592-2.9277 1.8614-5.0198 0.5467-0.90112 1.297-2.2363 1.6673-2.9671 0.7344-1.4491 1.4032-1.9812 2.0112-1.6 0.422 0.26461-0.1834 1.6116-2.4915 5.544-0.9556 1.6281-1.1959 2.3095-1.3381 3.7954-0.2202 2.3015-0.9235 3.7096-7.5617 15.14-2.5844 4.4499-3.184 5.5893-3.6109 6.8618-0.5897 1.7576-3.1249 6.5468-4.3418 8.2021-1.7122 2.329-2.3416 3.672-3.1315 6.6827-0.9709 3.7007-1.6029 4.8538-4.7011 8.5763-1.7879 2.1482-2.9596 3.8903-4.1364 6.1496-1.8929 3.6343-3.3848 5.4072-6.3384 7.5323-3.365 2.4211-4.7259 3.1947-6.655 3.7833-1.636 0.4991-2.2594 0.54222-5.975 0.41328-3.7395-0.12977-4.4852-0.23991-7.5661-1.1174-1.8798-0.53542-3.823-1.209-4.3184-1.4967-1.1349-0.65938-8.9703-8.6966-10.322-10.588-0.5559-0.7777-1.497-2.3827-2.0915-3.5666-0.986-1.964-3.7555-6.2267-6.4091-9.8649-0.7433-1.0191-1.0494-1.7084-1.0577-2.3812-0.016-1.287-0.5241-2.6174-1.7516-4.5847-0.5676-0.90969-1.241-2.0112-1.4966-2.4477-1.4742-2.5184-4.964-10.266-6.1378-13.626-0.3305-0.94588-1.0789-2.8544-1.6633-4.2412-0.5844-1.3868-1.4828-4.0657-1.9964-5.9531s-1.1248-3.9675-1.3582-4.6223c-0.5545-1.5562-4.4624-9.048-5.519-10.58-0.4526-0.65645-1.188-2.146-1.6343-3.3102s-1.3531-2.9501-2.0151-3.9688c-1.729-2.6601-3.7221-6.6665-5.1024-10.256-0.6582-1.7119-1.6596-3.7954-2.2253-4.6302-1.3189-1.9463-1.9508-3.2192-2.6581-5.3542-0.3134-0.94589-1.0443-2.5532-1.6243-3.5719-1.2267-2.1545-4.0878-7.9896-4.3642-8.9007-0.1042-0.34338-1.2598-2.827-2.568-5.5191s-2.763-5.9068-3.2328-7.1438c-1.3197-3.4744-3.4936-7.1261-5.8379-9.8062-2.4002-2.7441-8.2807-8.0862-10.029-9.1107-1.9937-1.1684-5.9021-1.9788-9.5503-1.9802-6.1319-2e-3 -8.7776 0.71974-13.097 3.5748-2.5117 1.6602-6.9445 5.8271-8.9614 8.4237-0.9648 1.2422-3.2776 4.199-5.1396 6.5707-1.9605 2.4974-3.7767 5.1172-4.3152 6.2249-0.5115 1.052-1.4071 2.5403-1.9903 3.3073-0.9926 1.3056-1.907 3.0794-4.9473 9.5967-0.6788 1.4552-1.9887 4.1246-2.9108 5.932-2.0326 3.9842-2.6502 5.5137-2.998 7.4247-0.1572 0.86421-0.9144 2.7016-1.8554 4.5027-0.8744 1.6735-2.0005 4.1143-2.5024 5.424-2.7833 7.2619-4.1811 11.364-4.6261 13.576-0.3287 1.6337-0.8709 3.2153-1.5901 4.6379-0.6002 1.1873-1.323 2.9922-1.6062 4.0108-0.2832 1.0186-1.2017 3.1022-2.0412 4.6302-1.4493 2.6377-5.0514 10.728-5.0514 11.346 0 0.15936-0.3698 1.452-0.8218 2.8726-0.7661 2.4077-1.3696 3.628-4.1561 8.4037-0.5943 1.0186-1.3407 2.8046-1.6585 3.9688-1.6652 6.0992-3.3712 8.5545-10.107 14.545-1.8468 1.6426-2.2091 2.1321-3.5198 4.7556-1.3424 2.6872-2.0024 3.8155-4.5313 7.746-0.489 0.76007-1.5588 1.9507-2.3772 2.6458-0.8185 0.69514-2.0511 1.7546-2.7393 2.3544-1.4473 1.2614-5.5996 3.5727-7.8391 4.3635-1.9408 0.68527-6.4412 0.89783-8.5522 0.40393zm-296.75-3.5307c-1.3078-1.9045-2.0882-2.7025-4.2961-4.3935-2.2998-1.7614-2.6979-2.1769-2.6979-2.816 0-0.73869 0.3891-1.0708 1.2544-1.0708 0.4702 0 2.8883 1.7287 4.3262 3.0929l0.9504 0.90163 0.18-4.7946c0.099-2.637 0.3506-6.6016 0.5591-8.8103 0.9693-10.267 1.1276-23.154 0.3677-29.945-0.1596-1.4263-0.3083-16.281-0.3708-37.04-0.087-28.895-0.042-35.077 0.2695-37.174 0.4427-2.9786 1.0075-15.569 0.8844-19.713l-0.087-2.9104-0.873 1.8521c-0.4801 1.0186-1.3731 2.9558-1.9844 4.3047-1.154 2.5468-1.8336 3.1602-2.7023 2.4393-0.6273-0.52063-0.4705-1.255 0.7564-3.5422 0.6323-1.1789 1.4317-2.8567 1.7762-3.7283 0.8058-2.0384 2.5388-3.8392 3.6947-3.8392 1.1599 0 2.1496 0.58897 3.4307 2.0416 1.3974 1.5845 2.1186 2.999 3.4464 6.7595 1.3637 3.8619 1.381 5.2699 0.06 4.8422-0.4438-0.14364-1.7815-3.0245-2.4651-5.309-0.3861-1.2901-1.4627-3.4788-2.1323-4.3352l-0.4935-0.631-0.01 1.6893c-0.023 4.9054-0.5457 17.519-0.7843 18.946-0.1637 0.97939-0.3189 9.0203-0.3829 19.844-0.059 10.008-0.2475 24.51-0.4183 32.225-0.2375 10.733-0.2375 15.052 0 18.389 0.9039 12.698 1.0577 25.633 0.4106 34.523-0.5716 7.8519-0.7691 12.877-0.5518 14.036l0.1933 1.0301 0.8947-1.8094c1.6785-3.3946 3.6457-5.5142 4.731-5.0978 0.6746 0.25887 0.4864 0.88528-0.8712 2.8993-1.7976 2.6668-2.3108 3.7582-3.1615 6.7233-0.7118 2.4808-0.7768 2.5947-1.5254 2.6696-0.7142 0.0715-0.9202-0.12316-2.38-2.249zm231.04-35.18c-0.4355-0.43555-0.038-1.0892 1.9238-3.1615 1.3122-1.3863 2.4122-2.8525 2.9319-3.9082 0.744-1.5112 0.83-1.9298 0.8151-3.9656-0.027-3.6945-1.3367-5.8362-4.5616-7.4602-1.9089-0.96127-2.3508-1.474-1.896-2.1999 0.4468-0.71312 1.3163-0.63721 3.0039 0.26225 1.913 1.0196 3.7765 2.9915 4.7246 4.9992 0.6159 1.3042 0.6872 1.7715 0.6872 4.5035 0 2.935-0.034 3.1165-0.9042 4.8848-1.1279 2.2912-4.8488 6.2221-5.8895 6.2221-0.3623 0-0.7381-0.0794-0.8352-0.17639zm-42.804-1.0804c-0.5265-1.3617-1.0192-4.1626-1.0238-5.8208v-1.6536h-1.3179c-1.1869 0-1.3344-0.0661-1.4847-0.6649-0.2446-0.97424 0.2947-1.4518 1.6393-1.4518 1.0419 0 1.169-0.0702 1.3171-0.7276 0.47-2.0871 0.6913-2.6894 1.3972-3.8024 1.2549-1.9788 4.1206-3.0038 4.9032-1.7538 0.4358 0.69597-0.051 1.2434-1.5513 1.7452-1.1193 0.37431-1.3936 0.60983-1.8964 1.6282-0.3234 0.65485-0.6604 1.5555-0.7491 2.0014-0.1516 0.76237-0.1014 0.82551 0.8412 1.0583 0.8269 0.20422 1.0024 0.36346 1.0024 0.90905 0 0.57327-0.1411 0.6791-1.0583 0.79375l-1.0583 0.13229 0.05 1.4552c0.028 0.80037 0.1934 2.4942 0.3682 3.7642 0.2538 1.8442 0.2504 2.3901-0.017 2.712-0.5082 0.61235-1.0452 0.48398-1.3579-0.32459zm-30.088-2.3812c-2.0851-1.9576-2.5513-3.2492-2.555-7.0776 0-3.6967 0.3031-4.5204 2.5781-6.9259 1.3652-1.4434 2.3502-1.7953 3.0545-1.091 0.5873 0.58733 0.3248 1.2225-0.9812 2.374-2.1821 1.9237-2.484 2.6732-2.3556 5.8475 0.1189 2.9425 0.3842 3.7055 1.9675 5.6607 0.964 1.1904 1.1412 2.0526 0.4745 2.3084-0.687 0.26365-0.789 0.21247-2.1828-1.0962zm53.089-1.4104c-0.2268-0.12692-0.5593-0.58532-0.7388-1.0187l-0.3263-0.78791-0.7474 0.55257c-0.6085 0.44988-1.0061 0.52772-2.1393 0.41884-1.1704-0.11246-1.5287-0.28295-2.2508-1.0709-1.5276-1.6669-1.8445-4.1692-0.5788-4.5709 0.6472-0.20544 1.5371 0.64257 1.5371 1.4648 0 0.59367 0.9873 1.8584 1.4507 1.8584 0.1947 0 0.8464-0.77977 1.4483-1.7328 2.1259-3.366 2.8176-2.6558 3.4915 3.5849 0.1315 1.2173-0.3401 1.7528-1.1462 1.3016zm-16.25-0.48277c-1.5016-0.68196-1.8546-1.8747-1.0278-3.4734 0.7641-1.4777 3.7095-2.2363 4.0234-1.0362 0.1302 0.49802 0.1822 0.47627 0.6328-0.26459 0.5345-0.87888 1.286-1.0404 1.915-0.41144 0.6755 0.67552 1.8053 3.2359 1.7136 3.8833-0.1221 0.86196-1.4188 1.0252-1.6772 0.21121l-0.1801-0.56755-0.4068 0.5808c-0.4806 0.6861-2.3089 1.5702-3.2471 1.5702-0.3638 0-1.1494-0.22159-1.7458-0.49243zm2.6237-2.7733c0.099-0.25811-0.012-0.3271-0.3727-0.23265-0.7142 0.18679-0.9102 0.59958-0.2845 0.59958 0.284 0 0.5798-0.16512 0.6572-0.36693zm19.33 2.9602c-0.1078-0.17442-0.2495-3.2092-0.3149-6.7441-0.091-4.9076-0.04-6.5214 0.2128-6.8266 0.3862-0.4654 1.4765-0.53249 1.7395-0.10705 0.2808 0.45444 0.1204 12.961-0.1733 13.51-0.2931 0.54761-1.1674 0.64787-1.4641 0.16788zm6.5284-0.25839c-0.496-0.53243-0.6834-1.1506-0.8683-2.8641-0.057-0.53016-0.2497-0.68772-0.97-0.79375-1.7391-0.25602-1.7921-1.8956-0.067-2.0673l0.8332-0.0829v-1.6501c0-1.7797 0.2765-2.2851 1.2501-2.2851 0.7855 0 1.1899 0.99458 0.9681 2.3814l-0.1635 1.0226 1.0232 0.084c0.899 0.0738 1.0334 0.17365 1.108 0.82324 0.074 0.64421-0.053 0.7973-0.9895 1.1906-1.0129 0.42555-1.0745 0.51486-1.0771 1.5621v1.1107l0.7971-0.27786c1.0494-0.36581 1.5842-0.13022 1.5842 0.69785 0 0.47608-0.2522 0.82741-0.8599 1.1979-1.1153 0.67999-1.9007 0.66491-2.5661-0.0493zm-51.736-0.912c-0.2202-0.52709-0.4044-1.0926-0.4092-1.2568 0-0.16413-0.2132-0.0566-0.463 0.23889-1.2228 1.4464-2.5851 1.7954-4.0506 1.0375-0.8657-0.44767-1.2984-1.2972-1.2984-2.5492 0-1.1403 1.6518-2.7582 3.0557-2.993 0.5749-0.0962 1.1763-0.21453 1.3364-0.26302 0.3286-0.0995 0.6292-2.1829 0.6326-4.3841 0-1.7279 0.4215-2.4543 1.3401-2.3246l0.6466 0.0913 0.1722 4.7625c0.095 2.6194 0.303 5.1784 0.463 5.6868 0.4239 1.347 0.3675 2.5616-0.1277 2.7516-0.7299 0.28009-0.8879 0.18291-1.2977-0.79776zm-2.6789-2.6056c0.4006-0.61145 0.3983-0.64285-0.036-0.4881-1.0092 0.3598-1.5289 1.1416-0.7589 1.1416 0.2015 0 0.5591-0.29407 0.7946-0.65349zm8.7608 2.8926c-2.5804-1.3254-2.5649-4.9156 0.028-6.4019 1.1443-0.65602 3.0906-0.79505 4.1802-0.29861 0.8962 0.40834 1.3111 1.6526 0.933 2.7983-0.3261 0.98805-1.8265 1.9274-3.0797 1.9281-0.7362 4.1e-4 -0.7358 2e-3 0.1879 0.46303 0.6881 0.3437 0.9261 0.63262 0.9261 1.1241 0 0.59769-0.1148 0.66788-1.1906 0.72809-0.6803 0.0381-1.5309-0.10814-1.9844-0.34109zm1.8521-4.3558c0.09-0.14552 0.044-0.26458-0.1011-0.26458-0.1455 0-0.3382 0.11906-0.4281 0.26458-0.09 0.14552-0.044 0.26459 0.1011 0.26459 0.1455 0 0.3381-0.11907 0.4281-0.26459zm-202.41 2.0084c-5.0179-1.2434-7.8585-5.2242-6.2518-8.7612 1.1656-2.5659 3.7425-4.0885 6.9265-4.0926 2.141-3e-3 2.6326 0.2302 2.6326 1.2475 0 0.77096-0.8596 1.129-2.7292 1.137-1.5728 7e-3 -3.1974 0.66669-4.128 1.677-0.46 0.49944-0.6725 1.0914-0.7569 2.1091-0.1076 1.2982-0.047 1.4953 0.742 2.3934 2.0302 2.3123 4.3768 2.9502 9.891 2.689 4.945-0.23422 6.7124-0.57569 7.6079-1.4699 1.3954-1.3932 1.1786-4.4941-0.3141-4.4941-0.4423 0-0.5231 0.18095-0.5231 1.1717 0 1.2417-0.49 2.0033-1.2889 2.0033-0.9612 0-1.0924-0.52827-1.0924-4.4013 0-4.0408 0.2155-5.1237 1.0194-5.1237 0.7793 0 1.0605 0.54593 1.1485 2.2299l0.081 1.5502 1.2825 0.32455c0.7054 0.1785 1.5984 0.64033 1.9844 1.0263 0.6274 0.62733 0.7105 0.93252 0.7837 2.8786 0.1884 5.0069-2.1042 6.287-11.194 6.2508-2.6248-0.0104-5.0488-0.15442-5.8208-0.34571zm228.34-12.829c-0.582-0.26978-1.2222-0.76587-1.4224-1.1024-0.326-0.54784-0.3055-0.65942 0.1965-1.0659 0.5059-0.40972 0.6809-0.41775 1.7952-0.0824 2.1535 0.6481 3.0917 0.50897 4.0683-0.60332 1.1808-1.3448 2.1036-3.4368 2.1067-4.7756 0-0.86652-0.1724-1.316-0.77-1.9844-0.7114-0.7956-0.8948-0.86232-2.3151-0.84207-0.9329 0.0133-2.3648 0.30413-3.6232 0.73586-3.2007 1.0982-3.0802 1.2714-3.0703-4.4137 0.01-3.5665 0.099-4.9298 0.3579-5.271 0.7223-0.95131 2.112-1.2596 5.6783-1.2596 3.7108 0 4.22 0.18408 3.9113 1.4141-0.1507 0.6004-0.2799 0.63302-3.021 0.76295-3.2478 0.15393-3.8335 0.39963-4.4146 1.852-0.4916 1.2285-0.7937 3.637-0.5687 4.5335l0.1674 0.66708 1.2556-0.55864c0.7821-0.34796 2.004-0.60014 3.24-0.66867 1.7177-0.0952 2.1444-0.0243 3.175 0.5276 0.6549 0.35069 1.4684 1.0455 1.8078 1.544 0.5443 0.79921 0.6068 1.1573 0.5292 3.0293-0.073 1.7531-0.2383 2.428-0.9505 3.8741-0.4743 0.96315-1.3291 2.1728-1.8995 2.6881-1.6878 1.5248-4.223 1.9312-6.2339 0.99914zm-9.6275-0.5264c-0.6687-0.66877-0.6968-1.6793-0.082-2.9402 0.5577-1.1433 1.2411-1.2735 2.4438-0.46562 1.706 1.1459 1.1872 3.4795-0.847 3.8096-0.7537 0.12232-1.0743 0.0369-1.515-0.4038zm-14.317-1.063c-0.5093-0.27052-1.2408-0.61665-1.6255-0.76919-0.5722-0.22689-0.7211-0.48526-0.8186-1.4203-0.065-0.62863-0.4479-2.3278-0.8499-3.776-0.6338-2.2836-0.7159-2.986-0.6191-5.2917 0.088-2.0846 0.245-2.9348 0.7292-3.9379 1.2165-2.52 3.6368-3.3039 7.5282-2.4381 2.1149 0.47054 2.7995 0.90346 2.7995 1.7704 0 0.29081 0.3757 1.0748 0.8348 1.7422 1.4734 2.1414 1.8833 3.59 1.8926 6.6871 0.01 2.2296-0.098 3.0159-0.5276 3.9822-0.6405 1.4391-1.9961 3.0426-3.0197 3.5719-1.1312 0.585-5.1393 0.50854-6.3239-0.12064zm5.8349-2.6538c1.3395-1.4081 1.9414-3.2878 1.7748-5.5427-0.071-0.9628-0.3276-2.2199-0.5699-2.7935l-0.4406-1.043-0.7548 1.5722c-0.4152 0.86469-1.6759 2.879-2.8017 4.4762-1.1257 1.5972-2.1017 3.047-2.1687 3.2218-0.1947 0.5074 1.261 1.1281 2.6727 1.1396 1.1724 0.01 1.3934-0.09 2.2882-1.0305zm-3.8189-6.2349c2.3783-3.5394 2.6404-3.8364 3.3863-3.8364h0.8085l-1.2087-1.2087c-1.7389-1.7389-3.9757-2.1298-5.3701-0.93854-0.8189 0.69954-1.472 2.4416-1.4782 3.9428 0 1.1914 0.9525 5.8774 1.2009 5.8774 0.046 0 1.2435-1.7264 2.6613-3.8365zm-196.78 5.5672c-0.067-0.0668-1.426-0.18453-3.0206-0.26173-4.0929-0.19814-6.235-0.50944-9.0885-1.3208-4.0673-1.1565-6.3785-2.5274-6.3785-3.7836 0-1.6178 1.3405-2.3219 6.4083-3.366 1.8505-0.38125 4.053-0.92351 4.8943-1.205s1.7718-0.51478 2.0678-0.51836c0.296-4e-3 2.4987-0.66301 4.8948-1.4654 4.8246-1.6156 7.5665-2.0743 8.1556-1.3644 0.8003 0.96424 0.3078 1.2649-3.7989 2.3191-2.1829 0.56033-4.9213 1.2962-6.0855 1.6353l-2.1166 0.61648 0.08 3.0221c0.053 1.9762 0.19 3.0917 0.3969 3.2232 0.174 0.11061 2.4112 0.20293 4.9717 0.20516 4.3196 4e-3 4.6899 0.0423 5.1352 0.53429 0.3965 0.43812 0.4276 0.64496 0.1789 1.1906-0.2961 0.65007-0.3499 0.66039-3.4374 0.66039-1.7251 0-3.1912-0.0546-3.258-0.12138zm-6.1823-4.1781c-0.086-0.90951-0.217-2.1512-0.2911-2.7593l-0.1347-1.1056-1.4574 0.5014c-0.8015 0.27577-2.6707 0.75187-4.1538 1.058-2.8998 0.59857-4.1517 0.99458-4.1517 1.3133 0 0.44913 5.392 1.989 8.2824 2.3653 0.9017 0.1174 1.7347 0.22855 1.8511 0.247 0.1164 0.0185 0.1412-0.71059 0.055-1.6201zm110.65 1.0583c-0.065-0.1819-0.011-0.53909 0.1196-0.79375 0.1889-0.36727 0.5851-0.46302 1.9162-0.46302 1.7572 0 2.4817 0.395 2.1777 1.1873-0.2007 0.52293-4.0282 0.58607-4.2135 0.0695zm5.8067-0.0479c-0.283-0.73753 0.5617-1.2091 2.1581-1.2048 1.7195 5e-3 2.2561 0.24593 2.1209 0.9537-0.082 0.4266-0.3821 0.50838-2.1103 0.57415-1.6035 0.061-2.0467-5e-3 -2.1687-0.32307zm5.9095-0.25448c0-0.7616 0.4275-0.95435 2.1167-0.95435 1.6891 0 2.1166 0.19275 2.1166 0.95435 0 0.61505-0.061 0.63315-2.1166 0.63315-2.0562 0-2.1167-0.0181-2.1167-0.63315zm5.8208 0c0-0.7616 0.4275-0.95435 2.1167-0.95435s2.1167 0.19275 2.1167 0.95435c0 0.61505-0.061 0.63315-2.1167 0.63315-2.0562 0-2.1167-0.0181-2.1167-0.63315zm5.8209 0c0-0.7616 0.4275-0.95435 2.1166-0.95435 1.6892 0 2.1167 0.19275 2.1167 0.95435 0 0.61505-0.061 0.63315-2.1167 0.63315-2.0561 0-2.1166-0.0181-2.1166-0.63315zm5.9972 0.45676c-0.3271-0.32706-0.1796-1.0887 0.2421-1.2505 0.2302-0.0883 0.9944-0.1606 1.6982-0.1606 1.6891 0 2.1166 0.19275 2.1166 0.95435 0 0.61025-0.07 0.63315-1.9402 0.63315-1.0672 0-2.0197-0.0794-2.1167-0.17639zm5.7388-0.22385c-0.3026-0.78859 0.4209-1.1873 2.1546-1.1873 1.7443 0 2.3982 0.3615 2.0929 1.1571-0.2327 0.60646-4.016 0.63333-4.2475 0.0302zm11.642 0c-0.3026-0.78859 0.4209-1.1873 2.1546-1.1873s2.4571 0.39867 2.1545 1.1873c-0.1183 0.30844-0.6125 0.40024-2.1545 0.40024-1.5421 0-2.0363-0.0918-2.1546-0.40024zm5.8208 0c-0.3026-0.78859 0.4209-1.1873 2.1546-1.1873s2.4572 0.39867 2.1546 1.1873c-0.1184 0.30844-0.6125 0.40024-2.1546 0.40024s-2.0362-0.0918-2.1546-0.40024zm5.8983 0.011c-0.2808-0.73178 0.5741-1.1983 2.1959-1.1983 1.6133 0 2.3308 0.41847 2.0358 1.1873-0.2189 0.57032-4.0133 0.58021-4.2317 0.011zm5.9136-0.2328c0-0.78236 0.4227-0.96671 2.2044-0.96143 1.5887 5e-3 2.1186 0.25919 1.9859 0.9537-0.082 0.42749-0.383 0.50833-2.1427 0.57473-2.0143 0.076-2.0476 0.0668-2.0476-0.567zm5.8208-0.0111c0-0.7616 0.4275-0.95435 2.1167-0.95435 1.6891 0 2.1166 0.19275 2.1166 0.95435 0 0.61505-0.061 0.63315-2.1166 0.63315-2.0562 0-2.1167-0.0181-2.1167-0.63315zm5.8208 0c0-0.7616 0.4275-0.95435 2.1167-0.95435s2.1167 0.19275 2.1167 0.95435c0 0.61505-0.061 0.63315-2.1167 0.63315-2.0561 0-2.1167-0.0181-2.1167-0.63315zm53.636 0.30242c-0.065-0.1819-0.011-0.53909 0.1195-0.79375 0.1889-0.36727 0.5852-0.46302 1.9163-0.46302 1.7571 0 2.4816 0.395 2.1776 1.1873-0.2007 0.52293-4.0282 0.58607-4.2134 0.0695zm5.8066-0.0479c-0.283-0.73753 0.5617-1.2091 2.1581-1.2048 1.7196 5e-3 2.2562 0.24593 2.1209 0.9537-0.082 0.4266-0.3821 0.50838-2.1103 0.57415-1.6034 0.061-2.0466-5e-3 -2.1687-0.32307zm5.9095-0.25448c0-0.7616 0.4275-0.95435 2.1167-0.95435s2.1167 0.19275 2.1167 0.95435c0 0.61505-0.061 0.63315-2.1167 0.63315-2.0562 0-2.1167-0.0181-2.1167-0.63315zm5.8209 0c0-0.7616 0.4275-0.95435 2.1166-0.95435 1.6892 0 2.1167 0.19275 2.1167 0.95435 0 0.61505-0.061 0.63315-2.1167 0.63315-2.0561 0-2.1166-0.0181-2.1166-0.63315zm5.8208 0c0-0.7616 0.4275-0.95435 2.1167-0.95435 1.6891 0 2.1166 0.19275 2.1166 0.95435 0 0.61505-0.061 0.63315-2.1166 0.63315-2.0562 0-2.1167-0.0181-2.1167-0.63315zm11.736 0.23291c-0.3027-0.78859 0.4208-1.1873 2.1545-1.1873 1.7444 0 2.3982 0.3615 2.0929 1.1571-0.2327 0.60646-4.016 0.63333-4.2474 0.0302zm5.8208 0c-0.3026-0.78859 0.4209-1.1873 2.1546-1.1873s2.4571 0.39867 2.1545 1.1873c-0.1183 0.30844-0.6125 0.40024-2.1545 0.40024-1.5421 0-2.0363-0.0918-2.1546-0.40024zm5.8208 0c-0.3026-0.78859 0.4209-1.1873 2.1546-1.1873s2.4572 0.39867 2.1546 1.1873c-0.1184 0.30844-0.6125 0.40024-2.1546 0.40024s-2.0362-0.0918-2.1546-0.40024zm5.8209 0c-0.3027-0.78859 0.4208-1.1873 2.1545-1.1873s2.4572 0.39867 2.1546 1.1873c-0.1184 0.30844-0.6125 0.40024-2.1546 0.40024-1.542 0-2.0362-0.0918-2.1545-0.40024zm5.8982 0.011c-0.2808-0.73178 0.5741-1.1983 2.196-1.1983 1.6132 0 2.3307 0.41847 2.0357 1.1873-0.2188 0.57032-4.0132 0.58021-4.2317 0.011zm5.9136-0.2328c0-0.78236 0.4227-0.96671 2.2045-0.96143 1.5887 5e-3 2.1186 0.25919 1.9859 0.9537-0.082 0.42749-0.3831 0.50833-2.1427 0.57473-2.0144 0.076-2.0477 0.0668-2.0477-0.567zm5.8208-0.0111c0-0.7616 0.4276-0.95435 2.1167-0.95435 1.6892 0 2.1167 0.19275 2.1167 0.95435 0 0.61505-0.061 0.63315-2.1167 0.63315-2.0561 0-2.1167-0.0181-2.1167-0.63315zm5.8209 0c0-0.7616 0.4275-0.95435 2.1166-0.95435 1.6892 0 2.1167 0.19275 2.1167 0.95435 0 0.61505-0.061 0.63315-2.1167 0.63315-2.0561 0-2.1166-0.0181-2.1166-0.63315zm-328.51-14.599c-0.3322-1.3236-0.5217-1.3054 13.448-1.2856 7.1872 0.0102 13.21 0.10653 13.384 0.21406 0.415 0.25648 0.406 1.1351-0.014 1.399-0.1819 0.11419-6.2535 0.23338-13.492 0.26487l-13.162 0.0573zm5.1929-8.3396c-0.652-0.12859-1.8426-0.56275-2.6458-0.9648-1.1583-0.57976-1.4773-0.87731-1.5422-1.4383-0.1308-1.1318 1.6388-2.0294 8.2839-4.2017 4.5581-1.4901 11.136-4.2865 12.586-5.3504l1.1625-0.85306-1.9796-0.16139c-1.0888-0.0888-2.5243-0.29295-3.1901-0.45375-0.6657-0.16081-3.166-0.42114-5.5562-0.57853-8.802-0.5796-9.1078-0.64412-8.9323-1.8847 0.087-0.61609 0.1338-0.62553 2.999-0.607 4.4501 0.0288 11.661 0.55431 14.023 1.022 2.4708 0.48927 4.887 1.1876 5.3578 1.5486 0.6498 0.49821 0.3455 1.4307-0.8166 2.5018-1.5036 1.386-2.1592 1.8008-4.0373 2.5545-0.8592 0.34481-2.9315 1.1858-4.605 1.8689-3.5894 1.4652-9.6783 3.7425-10.676 3.9928-0.3858 0.0968-0.7014 0.27376-0.7014 0.39318 0 0.54806 3.3357 0.74768 11.606 0.69454 5.9656-0.0383 8.9541 0.0355 9.217 0.22777 0.2339 0.17107 0.3536 0.59574 0.3002 1.0652l-0.089 0.7807-9.7896 0.0388c-5.3842 0.0213-10.323-0.0665-10.975-0.19505zm216.8-67.051c-0.3092-1.2319 0.2003-1.4518 3.3642-1.4518h2.878l-0.03-5.7547c-0.017-3.1651-0.1059-7.3025-0.1984-9.1943l-0.1683-3.4396-1.196 1.7198c-0.6577 0.94589-1.5507 2.2891-1.9843 2.9849-0.8293 1.3308-1.7169 1.7954-2.3794 1.2456-0.7518-0.62394-0.3799-1.5041 2.018-4.7763 2.7934-3.812 3.8667-5.0104 4.4873-5.0104 1.0106 0 0.9543-0.63739 1.4776 16.735l0.1654 5.4901h2.0286c2.19 0 3.0467 0.35533 2.8847 1.1965-0.053 0.27505-0.3934 0.58273-0.7564 0.68374-0.363 0.10102-3.3069 0.19554-6.542 0.21004l-5.8819 0.0264z"/></g></svg>
