<svg width="619.97mm" height="194.45mm" version="1.1" viewBox="0 0 619.97 194.45" xml:space="preserve" xmlns="http://www.w3.org/2000/svg"><g transform="translate(-1466.8 804.73)"><path fill="#fff" d="m1617.8-610.47c-0.3717-0.25289-0.9049-4.7044-0.9049-7.5549 0-2.4531 0.2896-3.0099 1.4179-2.7267 0.6264 0.15722 0.6324 0.1928 0.824 4.9311 0.1461 3.6138 0.1144 4.8674-0.1308 5.1628-0.3536 0.42608-0.7622 0.48966-1.2062 0.18766zm156.63 0c-0.3717-0.25289-0.9049-4.7044-0.9049-7.5549 0-2.4531 0.2895-3.0099 1.4178-2.7267 0.6265 0.15722 0.6324 0.1928 0.824 4.9311 0.1462 3.6138 0.1144 4.8674-0.1307 5.1628-0.3537 0.42608-0.7623 0.48966-1.2062 0.18766zm161.13 0c-0.3717-0.25289-0.9049-4.7044-0.9049-7.5549 0-2.4531 0.2896-3.0099 1.4179-2.7267 0.6264 0.15722 0.6324 0.1928 0.824 4.9311 0.1461 3.6138 0.1144 4.8674-0.1308 5.1628-0.3536 0.42608-0.7622 0.48966-1.2062 0.18766zm-295.69-7.4825c-5.2999-0.37432-5.0789-0.23521-8.9013-5.6044-2.7731-3.8952-3.8995-6.0467-4.332-8.2741-0.6568-3.3822-0.1713-20.812 0.6964-25.003 0.5275-2.5479 1.4255-4.7285 2.373-5.7624l0.8401-0.91665 3.8217-0.22736c4.3781-0.26047 7.8707-0.6311 11.098-1.1777 3.6356-0.61576 7.3345-0.50931 9.6817 0.27863 3.2399 1.0876 4.2451 1.9006 7.0809 5.7274 3.1152 4.2038 3.4635 6.0991 3.2506 17.688-0.1736 9.4524-0.2876 10.205-2.1497 14.189-0.6571 1.4062-1.1947 2.5866-1.1947 2.6231 0 0.0365 1.4585 0.11408 3.2411 0.17232 3.0192 0.0986 3.3409 0.16118 4.6964 0.91312 0.8004 0.44398 1.4962 1.0171 1.5464 1.2736 0.053 0.27006-0.3364 0.90425-0.9248 1.5068-1.2416 1.2715-2.5122 1.6602-6.789 2.0771-3.4937 0.3405-4.8765 0.20476-5.8692-0.57613l-0.6751-0.53105-2.7525 1.7674-5.8278 0.0366c-3.2053 0.0202-7.2148-0.0613-8.9099-0.18104zm7.4477-2.6674c-0.8003-0.45234-1.7892-1.1347-2.1975-1.5163-0.6656-0.62216-0.9142-0.68505-2.4049-0.60839-1.3963 0.0718-1.9448-0.0425-3.4249-0.71356-2.572-1.1662-2.3821-1.9808 0.8657-3.7118l1.5214-0.81091-0.4153-1.5944-0.4154-1.5944-1.7255-0.0157c-1.0891-0.01-2.3015-0.22947-3.2876-0.59531-2.5832-0.95841-2.6715-1.9034-0.2858-3.0569 0.7112-0.34389 2.0881-0.82014 3.0598-1.0583l1.7668-0.43307 0.1855-3.0101c0.102-1.6556 0.2482-3.1736 0.3249-3.3734 0.1068-0.27828-0.1712-0.36332-1.1878-0.36332-1.1219 0-1.5868-0.17396-3.0049-1.1245-1.3132-0.88023-1.6776-1.2682-1.6776-1.7859 0-0.55808 0.3075-0.81514 1.9673-1.6448 1.082-0.54083 2.4856-1.061 3.119-1.156l1.1518-0.17271-0.076-2.1446-0.076-2.1446-1.1327-0.19267c-1.6456-0.27992-3.8758-1.5425-3.9767-2.2513-0.065-0.45804 0.2602-0.7964 1.5619-1.624 0.9044-0.575 2.3329-1.2539 3.1744-1.5087 1.2473-0.37765 1.5907-0.60962 1.8581-1.2554 0.1805-0.43566 0.6319-1.1531 1.0031-1.5943l0.675-0.80219-1.8461 0.17845c-1.0154 0.0981-2.9177 0.29424-4.2274 0.43576s-3.1313 0.25943-4.048 0.26202c-3.9421 0.0111-4.7927 1.8535-5.4621 11.83-0.4754 7.0858-0.523 12.698-0.1362 16.075 0.3259 2.845 1.2169 4.7704 4.0466 8.7448 2.0531 2.8837 3.1068 4.0121 4.1374 4.4305 0.6844 0.27789 5.4114 0.6124 9.6644 0.6839l2.3812 0.04zm8.6651-0.80431c0.8428-0.25621 1.1284-0.81698 0.5865-1.1519-0.1503-0.0929-0.248-0.54645-0.217-1.0078 0.031-0.46135 0.035-2.4097 0.01-4.3296l-0.047-3.4908-0.7688-0.45414c-1.2503-0.73856-1.9731-2.2973-1.7885-3.8566 0.3639-3.0725 2.8248-4.7542 5.1769-3.5379 2.2739 1.1758 2.5238 5.5359 0.414 7.2194l-0.917 0.73161v7.0115h0.6568c0.5707 0 0.8297-0.3553 1.9768-2.712 2.0813-4.2758 2.1286-4.6025 2.1994-15.171 0.073-10.864 0.018-11.191-2.494-14.946-1.8614-2.7828-3.192-4.0206-5.466-5.0847-1.526-0.71411-2.0303-0.81499-4.1508-0.83031-2.2387-0.0162-2.5079 0.0405-3.7104 0.78197-0.7132 0.43968-1.6846 1.3081-2.1589 1.9299-1.4917 1.9558-1.7219 3.18-1.9491 10.368-0.1127 3.5653-0.3301 7.3157-0.4832 8.3344-0.153 1.0186-0.2821 3.4594-0.2867 5.424-0.01 3.0211 0.095 3.9494 0.6627 6.0204 0.9347 3.4101 1.4672 4.5207 2.8011 5.8418 2.8619 2.8346 6.6048 3.9288 9.9549 2.9103zm-13.349-3.9165c-0.1295-0.4951-0.1777-0.50002-0.9674-0.0986-1.1755 0.59746-1.1745 0.61974 0.026 0.61974 0.9418 0 1.0605-0.0657 0.9414-0.52109zm-2.1954-8.1823c0-0.44385-0.1137-0.4749-0.9922-0.27089-0.5457 0.12672-1.1113 0.24733-1.2568 0.26802-0.318 0.0452 1.1297 0.4285 1.7859 0.47287 0.2891 0.0195 0.4631-0.15703 0.4631-0.47zm0.7937-12.331c0-0.50933-0.097-0.92605-0.2165-0.92605-0.5791 0-2.9585 0.84322-2.9585 1.0484 0 0.18826 1.1134 0.47713 2.9766 0.77225 0.1091 0.0173 0.1984-0.38529 0.1984-0.89461zm0.104-9.8112c0.4069-1.0604 0.1904-1.1765-1.0635-0.57023l-1.2241 0.59187 0.8933 0.16361c0.4914 0.09 0.97 0.17928 1.0636 0.19844 0.093 0.0191 0.2424-0.1535 0.3307-0.38369zm157.02 37.713c-5.2999-0.37432-5.0789-0.23521-8.9013-5.6044-2.773-3.8952-3.8995-6.0467-4.332-8.2741-0.6568-3.3822-0.1713-20.812 0.6964-25.003 0.5276-2.5479 1.4256-4.7285 2.373-5.7624l0.8401-0.91665 3.8217-0.22736c4.3781-0.26047 7.8707-0.6311 11.098-1.1777 2.6013-0.4406 5.7156-0.50233 5.9531-0.11802 0.09 0.14552 0.5225 0.26459 0.9611 0.26459 1.0725 0 4.5011 1.1711 5.7245 1.9553 1.2204 0.78226 2.1932 1.828 4.1238 4.4333 3.1152 4.2038 3.4635 6.0991 3.2506 17.689-0.1714 9.3332-0.2948 10.186-2.013 13.905-0.5867 1.27-1.0668 2.3394-1.0668 2.3765 0 0.0371 1.399 0.11585 3.1089 0.17503 2.8667 0.0992 3.2222 0.17041 4.564 0.91379 0.8004 0.44339 1.4963 1.016 1.5464 1.2725 0.053 0.27006-0.3364 0.90425-0.9248 1.5068-1.2501 1.2803-2.5238 1.6658-6.884 2.0835-3.2739 0.31363-4.5409 0.21939-5.5404-0.41212-0.597-0.37722-1.6072-0.15032-3.0138 0.67695-0.5222 0.30708-1.8874 0.39673-6.4823 0.42565-3.2015 0.0202-7.2078-0.0613-8.903-0.18104zm6.654-2.603c-0.6548-0.41415-1.4174-1.0072-1.6946-1.3179-0.4063-0.45534-0.8051-0.56489-2.0564-0.56489-1.9953 0-4.9802-1.2525-4.9802-2.0898 0-0.68567 0.776-1.4017 2.4938-2.3011l1.3667-0.71556-0.4032-1.5478-0.4033-1.5478-1.7255-0.0157c-1.0891-0.01-2.3015-0.22947-3.2876-0.59531-2.5831-0.95841-2.6715-1.9034-0.2858-3.0569 0.7112-0.3439 2.0874-0.82015 3.0583-1.0583l1.7653-0.43307 0.1809-2.9104c0.1-1.6007 0.2466-3.1783 0.3268-3.5057 0.138-0.56307 0.067-0.59532-1.314-0.59532-1.2779 0-1.6689-0.14012-3.1375-1.1245-1.3132-0.88022-1.6777-1.2682-1.6777-1.7859 0-0.5586 0.3086-0.8157 1.9844-1.6533 1.0914-0.54552 2.5545-1.0675 3.2513-1.1599l1.2669-0.16806-0.076-2.1408-0.076-2.1408-1.1327-0.19267c-1.6456-0.27992-3.8758-1.5425-3.9767-2.2513-0.065-0.45804 0.2602-0.7964 1.562-1.624 0.9043-0.57501 2.3483-1.2586 3.2088-1.5192 1.2466-0.37744 1.6492-0.63883 1.981-1.2864 0.2291-0.44697 0.7159-1.1699 1.0819-1.6064l0.6654-0.79375-0.7388-0.0872c-0.4064-0.048-1.7048 0.0434-2.8855 0.20296-1.1806 0.15959-3.5754 0.36423-5.3216 0.45473-3.6327 0.18828-4.4103 0.47468-5.1325 1.8903-0.9742 1.9097-1.3225 3.926-1.7318 10.026-0.4754 7.0858-0.523 12.698-0.1362 16.075 0.326 2.845 1.2169 4.7704 4.0466 8.7448 2.0532 2.8837 3.1069 4.0121 4.1374 4.4305 0.6406 0.2601 5.2282 0.60227 9.1352 0.68136l1.8521 0.0375zm9.3266-0.33051c0.8019-0.20185 0.9922-0.37166 0.9922-0.88539 0-0.34961-0.1253-0.71304-0.2783-0.80764-0.1531-0.0946-0.2542-0.48857-0.2247-0.87551 0.029-0.38694 0.036-2.2148 0.014-4.062l-0.04-3.3585-0.7688-0.45415c-1.2503-0.73856-1.9731-2.2973-1.7884-3.8566 0.3638-3.0725 2.8247-4.7542 5.1769-3.5379 2.2738 1.1758 2.5238 5.5359 0.4139 7.2194l-0.9169 0.73161v6.4823h0.8105c0.7627 0 0.8794-0.14532 1.9765-2.4613 1.9208-4.055 1.976-4.457 2.0459-14.892 0.073-10.864 0.018-11.191-2.494-14.946-1.8614-2.7828-3.192-4.0206-5.4659-5.0847-1.5261-0.71412-2.0303-0.81499-4.1509-0.83032-2.2387-0.0162-2.5079 0.0406-3.7104 0.78198-0.7131 0.43968-1.6846 1.3081-2.1588 1.9299-1.4918 1.9558-1.7219 3.18-1.9492 10.368-0.1127 3.5653-0.3301 7.3157-0.4832 8.3344-0.153 1.0186-0.282 3.4594-0.2867 5.424-0.01 3.0211 0.095 3.9494 0.6627 6.0204 0.9347 3.41 1.4672 4.5207 2.8011 5.8418 2.8702 2.8427 6.1979 3.8317 9.8227 2.9193zm-13.295-4.0658c0-0.48712-0.2062-0.48712-1.0584 0l-0.6614 0.37812 0.8599 9e-3c0.5921 6e-3 0.8599-0.11421 0.8599-0.3875zm-2.1167-8.0419c0-0.44386-0.1137-0.4749-0.9922-0.27089-0.5457 0.12672-1.1113 0.24733-1.2568 0.26802-0.3179 0.0452 1.1297 0.4285 1.786 0.47287 0.289 0.0195 0.463-0.15703 0.463-0.47zm0.7937-12.596c0-0.5901-0.1265-0.92604-0.3488-0.92604-0.6799 0-3.0907 0.81778-3.0907 1.0484 0 0.19423 1.8424 0.65189 3.1088 0.77225 0.2076 0.0197 0.3307-0.3134 0.3307-0.89461zm0.2166-10.278 0.084-0.71255-2.4844 1.2013 0.8934 0.16175c1.2511 0.22653 1.4113 0.15739 1.5068-0.65053zm-319.61 37.386c-5.2998-0.37432-5.0789-0.23521-8.9013-5.6044-2.773-3.8952-3.8995-6.0466-4.332-8.2741-0.6568-3.3822-0.1713-20.812 0.6965-25.003 0.5275-2.5479 1.4255-4.7285 2.373-5.7624l0.84-0.91665 3.8217-0.22736c4.4612-0.26541 7.9057-0.63546 11.23-1.2065 3.1686-0.54427 6.8913-0.32022 9.559 0.57529 3.2295 1.0841 4.2373 1.8999 7.0712 5.7241 3.1152 4.2038 3.4635 6.0991 3.2506 17.689-0.1714 9.3332-0.2948 10.186-2.013 13.905-0.5867 1.27-1.0668 2.3394-1.0668 2.3765 0 0.0371 1.399 0.11585 3.1089 0.17503 2.8667 0.0992 3.2222 0.17041 4.564 0.91379 0.8004 0.44339 1.4963 1.016 1.5464 1.2725 0.053 0.27006-0.3364 0.90425-0.9248 1.5068-1.2501 1.2803-2.5238 1.6658-6.8839 2.0835-3.3215 0.31819-4.5401 0.22084-5.5935-0.44686-0.5636-0.35725-0.7278-0.31933-2.1166 0.48899l-1.5057 0.87629-5.8208 0.0366c-3.2015 0.0202-7.2078-0.0613-8.903-0.18104zm7.1832-2.541c-0.6549-0.38281-1.575-1.0574-2.0448-1.499-0.7754-0.72901-0.9979-0.79712-2.4148-0.73929-1.2574 0.0513-1.9014-0.0908-3.3131-0.73085-2.539-1.1513-2.3516-2.0135 0.795-3.6576 0.7811-0.40811 1.4182-0.86109 1.4157-1.0066 0-0.14552-0.1583-0.85989-0.3464-1.5875l-0.3419-1.3229-1.9681-0.15872c-3.3327-0.26876-5.5407-1.4287-4.8602-2.5533 0.3877-0.64068 2.5225-1.6294 4.6352-2.1466l1.7688-0.43307 0.1874-2.8882c0.1031-1.5885 0.2484-3.047 0.3229-3.2412 0.1019-0.26535-0.194-0.35298-1.1917-0.35298-1.1219 0-1.5868-0.17397-3.0049-1.1245-1.3132-0.88023-1.6777-1.2682-1.6777-1.7859 0-0.55808 0.3075-0.81514 1.9673-1.6448 1.082-0.54083 2.4855-1.061 3.1187-1.156l1.1514-0.17266-0.076-2.2769-0.076-2.2769-1.1327-0.19273c-1.6457-0.28001-3.8759-1.5426-3.9768-2.2513-0.065-0.45804 0.2602-0.7964 1.562-1.624 0.9044-0.57501 2.3483-1.2586 3.2088-1.5192 1.2506-0.37863 1.6469-0.6368 1.9747-1.2864 0.2257-0.44697 0.6548-1.0801 0.9536-1.4069s0.4621-0.67554 0.3628-0.77487c-0.099-0.0993-1.4591-0.0312-3.0217 0.1514-1.5627 0.1826-4.1508 0.39875-5.7516 0.48033-3.3519 0.17082-4.1564 0.48076-4.8679 1.8753-0.9742 1.9097-1.3225 3.9261-1.7318 10.026-0.4754 7.0858-0.5229 12.698-0.1361 16.075 0.3259 2.845 1.2168 4.7704 4.0465 8.7448 2.0532 2.8837 3.1069 4.0121 4.1374 4.4305 0.6615 0.26858 5.3059 0.60648 9.3999 0.68388l2.1166 0.04zm8.9297-0.6661c0.9342-0.284 1.1103-0.88493 0.5311-1.8124-0.2257-0.36136-0.2464-0.65657-0.066-0.94124 0.1501-0.23695 0.2283-1.8586 0.1825-3.7829l-0.08-3.3682-0.8758-0.47163c-1.3365-0.71978-2.1095-2.2974-1.918-3.9145 0.2783-2.3497 1.7273-3.9212 3.6155-3.9212 1.8353 0 3.1011 1.2792 3.3497 3.3853 0.2016 1.708-0.281 3.3136-1.238 4.1189l-0.7887 0.66369v6.6488h0.6782c0.5958 0 0.82-0.29929 1.8442-2.4613 1.9208-4.055 1.9761-4.457 2.0459-14.892 0.073-10.864 0.018-11.191-2.494-14.946-1.8614-2.7828-3.192-4.0206-5.4659-5.0847-1.526-0.71412-2.0303-0.81499-4.1509-0.83032-2.2387-0.0162-2.5079 0.0405-3.7104 0.78198-0.7131 0.43968-1.6846 1.3081-2.1588 1.9299-1.4918 1.9558-1.7219 3.18-1.9491 10.368-0.1127 3.5653-0.3302 7.3157-0.4832 8.3344-0.1531 1.0186-0.2821 3.4594-0.2868 5.424-0.01 3.0211 0.095 3.9494 0.6627 6.0204 0.9347 3.41 1.4672 4.5207 2.8011 5.8418 2.862 2.8346 6.6048 3.9288 9.955 2.9103zm-13.428-4.0568c0-0.49293-0.4607-0.49293-1.3229 0l-0.6615 0.37812 0.9922 9e-3c0.7097 7e-3 0.9922-0.10361 0.9922-0.3875zm-2.1167-8.3065c0-0.44386-0.1137-0.4749-0.9922-0.2709-0.5457 0.12673-1.1112 0.24734-1.2568 0.26803-0.3179 0.0452 1.1297 0.4285 1.786 0.47287 0.2891 0.0195 0.463-0.15703 0.463-0.47zm0.7938-12.066c0-0.50932-0.098-0.92604-0.2166-0.92604-0.579 0-2.9584 0.84321-2.9584 1.0484 0 0.18827 1.1134 0.47714 2.9765 0.77225 0.1092 0.0173 0.1985-0.38528 0.1985-0.89461zm0.2165-10.543 0.084-0.71255-2.4844 1.2013 0.8934 0.16175c1.2511 0.22653 1.4113 0.15739 1.5068-0.65053zm474.94 37.386c-5.2998-0.37432-5.0789-0.23521-8.9013-5.6044-2.773-3.8952-3.8994-6.0466-4.332-8.2741-0.6568-3.3822-0.1713-20.812 0.6965-25.003 0.5275-2.5479 1.4255-4.7285 2.373-5.7624l0.84-0.91665 3.8217-0.22736c4.4612-0.26541 7.9057-0.63546 11.23-1.2065 3.1686-0.54427 6.8913-0.32022 9.559 0.57529 3.2295 1.0841 4.2373 1.8999 7.0712 5.7241 3.1152 4.2038 3.4635 6.0991 3.2506 17.689-0.1732 9.4285-0.2906 10.211-2.1195 14.125l-1.1646 2.4922 3.3433 0.10346c3.138 0.0971 3.4327 0.15309 4.7985 0.91171 0.8004 0.44454 1.4963 1.0181 1.5464 1.2746 0.053 0.27007-0.3364 0.90425-0.9248 1.5068-1.2416 1.2715-2.5122 1.6602-6.789 2.0771-3.4924 0.34037-4.8765 0.20473-5.8678-0.57505l-0.6737-0.52996-1.5169 0.88263-1.5169 0.88262-5.8208 0.0366c-3.2015 0.0202-7.2078-0.0613-8.903-0.18104zm7.1832-2.5416c-0.6549-0.38313-1.5165-0.99811-1.9148-1.3666-0.6271-0.5802-0.9331-0.66151-2.2826-0.60643-1.2547 0.0512-1.8999-0.0912-3.3107-0.73095-2.5397-1.1516-2.3515-2.015 0.7973-3.6576 1.0047-0.52413 1.3776-0.85856 1.2699-1.1389-0.084-0.21828-0.2836-0.96242-0.4439-1.6536l-0.2915-1.2568-1.7405-0.0157c-1.1048-0.01-2.3111-0.22743-3.3026-0.59531-2.5832-0.95841-2.6716-1.9034-0.2859-3.0569 0.7112-0.3439 2.0881-0.82015 3.0599-1.0583l1.7667-0.43307 0.1855-3.0101c0.1021-1.6556 0.2483-3.1736 0.325-3.3734 0.1068-0.27828-0.1713-0.36332-1.1878-0.36332-1.1219 0-1.5868-0.17397-3.0049-1.1245-1.3132-0.88023-1.6776-1.2682-1.6776-1.7859 0-0.55808 0.3074-0.81514 1.9672-1.6448 1.082-0.54083 2.4856-1.0611 3.1191-1.156l1.1517-0.17272-0.152-4.2892-1.1327-0.19268c-1.6456-0.27992-3.8759-1.5425-3.9768-2.2512-0.065-0.45805 0.2602-0.7964 1.562-1.624 0.9044-0.575 2.3328-1.2539 3.1743-1.5087 1.2473-0.37765 1.5907-0.60963 1.8582-1.2554 0.1804-0.43567 0.6196-1.1385 0.9758-1.5619 0.3562-0.42338 0.5719-0.84555 0.4793-0.93816-0.093-0.0926-1.4468-0.019-3.0094 0.16362-1.5627 0.1826-4.1508 0.39875-5.7516 0.48033-3.3519 0.17082-4.1564 0.48076-4.8679 1.8753-0.9742 1.9097-1.3225 3.9261-1.7318 10.026-0.4754 7.0858-0.5229 12.698-0.1361 16.075 0.3259 2.845 1.2168 4.7704 4.0465 8.7448 2.0532 2.8837 3.1069 4.0121 4.1374 4.4305 0.6615 0.26858 5.3059 0.60648 9.3999 0.68388l2.1166 0.04zm9.1943-0.77541c0.8467-0.34274 1.1265-0.9728 0.5816-1.3096-0.1531-0.0946-0.2542-0.48858-0.2247-0.87552 0.029-0.38693 0.036-2.254 0.014-4.1491l-0.04-3.4456-0.8898-0.47917c-1.3495-0.72678-2.1242-2.2994-1.932-3.922 0.2783-2.3497 1.7273-3.9212 3.6155-3.9212 1.8353 0 3.1011 1.2792 3.3497 3.3853 0.2016 1.708-0.281 3.3136-1.238 4.1189l-0.7887 0.66369v3.4751c0 3.4524 0 3.4745 0.5953 3.3905 0.4584-0.0651 0.8821-0.66237 1.8429-2.5981 2.0006-4.0303 2.0597-4.4455 2.1301-14.972 0.073-10.864 0.018-11.191-2.494-14.946-1.8614-2.7828-3.192-4.0206-5.4659-5.0847-1.526-0.71412-2.0303-0.81499-4.1509-0.83032-2.2387-0.0162-2.5079 0.0406-3.7104 0.78198-0.7131 0.43968-1.6846 1.3081-2.1588 1.9299-1.4918 1.9558-1.7219 3.18-1.9491 10.368-0.1127 3.5653-0.3302 7.3157-0.4832 8.3344-0.1531 1.0186-0.2821 3.4594-0.2868 5.424-0.01 3.0211 0.095 3.9494 0.6627 6.0204 0.9347 3.41 1.4672 4.5207 2.8011 5.8418 2.9346 2.9065 7.1224 4.0541 10.22 2.8004zm-13.596-3.6824c-0.1854-0.48292-0.3093-0.48292-1.1541 0l-0.6614 0.37813 0.9839 9e-3c0.768 7e-3 0.9504-0.0777 0.8316-0.3875zm-2.2124-8.3065c0-0.44386-0.1137-0.4749-0.9922-0.27089-0.5457 0.12672-1.1112 0.24733-1.2567 0.26802-0.318 0.0452 1.1296 0.4285 1.7859 0.47287 0.2891 0.0195 0.463-0.15703 0.463-0.47zm0.7938-12.331c0-0.50932-0.098-0.92604-0.2166-0.92604-0.579 0-2.9584 0.84321-2.9584 1.0484 0 0.18827 1.1134 0.47714 2.9765 0.77225 0.1092 0.0173 0.1985-0.38528 0.1985-0.89461zm0.1039-9.8112c0.407-1.0604 0.1904-1.1765-1.0635-0.57024l-1.2241 0.59188 0.8934 0.16361c0.4914 0.09 0.9699 0.17928 1.0635 0.19843 0.094 0.0192 0.2424-0.1535 0.3307-0.38368zm-276.06 33.893c-0.4673-0.56298-0.018-2.0532 1.0722-3.5585 0.4486-0.61928 3.0392-3.443 5.7569-6.2749 5.3141-5.5375 8.5131-9.0552 8.5131-9.3614 0-0.27779-9.1264-8.9437-12.788-12.142-1.7217-1.5042-3.1992-2.9142-3.2832-3.1334-0.2068-0.53876 0.2653-1.235 0.9022-1.3308 0.3023-0.0455 1.0107 0.34232 1.6916 0.92604 1.6618 1.4245 5.4324 4.9378 7.0098 6.5316 0.7359 0.74349 2.5218 2.4437 3.9688 3.7782 1.4469 1.3345 2.8887 2.6905 3.204 3.0133l0.5733 0.58689 2.2518-2.3662c1.2384-1.3014 2.7946-3.0885 3.4583-3.9713 0.6636-0.88281 2.358-2.7218 3.7654-4.0867 1.4073-1.3649 3.3798-3.2927 4.3832-4.2841 1.9403-1.9171 2.9001-2.2444 3.0703-1.047 0.065 0.45995-0.8163 1.4816-3.9957 4.6302-2.2438 2.222-4.769 4.933-5.6115 6.0244-0.8425 1.0914-2.5541 3.0259-3.8034 4.2989l-2.2716 2.3146 1.9784 2.011c1.088 1.106 2.8858 2.6534 3.995 3.4385 2.6366 1.8663 8.1697 7.5726 8.1697 8.4255 0 0.9173-0.7321 1.0539-1.6883 0.31507-0.4539-0.35073-2.0754-1.878-3.6033-3.3938-1.528-1.5159-3.5521-3.2788-4.498-3.9176-0.9459-0.63881-2.5455-2.0309-3.5548-3.0934-1.0092-1.0626-1.9269-1.932-2.0392-1.932-0.1124 0-0.8478 0.80368-1.6343 1.7859-0.7865 0.98227-3.7979 4.3375-6.692 7.456-3.251 3.5031-5.5653 6.2333-6.0557 7.1438-0.8409 1.5612-1.6113 1.9775-2.2453 1.2135zm158.49 0c-0.4672-0.56298-0.018-2.0532 1.0722-3.5585 0.4486-0.61928 3.0392-3.443 5.7569-6.2749s5.758-6.0652 6.7564-7.185l1.8151-2.036-3.9318-3.7915c-2.1625-2.0853-5.7567-5.4035-7.9871-7.3737-2.2304-1.9702-4.1246-3.7628-4.2093-3.9835-0.3627-0.94506 1.0618-1.7854 1.8156-1.0711 0.2001 0.18964 0.84 0.74735 1.422 1.2394 0.9853 0.83285 6.5202 6.0415 11.745 11.053l2.2497 2.1577 2.325-2.4567c1.2787-1.3512 2.8611-3.1699 3.5164-4.0416s2.3429-2.7017 3.7503-4.0666 3.3798-3.2927 4.3832-4.2841c1.9403-1.9171 2.9001-2.2444 3.0703-1.047 0.065 0.45995-0.8163 1.4816-3.9957 4.6302-2.2438 2.222-4.7689 4.933-5.6114 6.0244-0.8425 1.0914-2.5893 3.061-3.8819 4.3769l-2.3501 2.3925 2.4537 2.392c1.3495 1.3156 3.1682 2.8724 4.0415 3.4597 2.1993 1.4788 7.8048 7.3193 7.8048 8.132 0 0.91731-0.7321 1.0539-1.6882 0.31508-0.4539-0.35074-2.0755-1.878-3.6034-3.3938-1.528-1.5159-3.5513-3.2794-4.4964-3.9189-0.945-0.63952-2.6233-2.1077-3.7296-3.2625l-2.0115-2.0998-1.4594 1.8228c-0.8027 1.0025-3.8273 4.3743-6.7214 7.4928-3.251 3.5031-5.5653 6.2333-6.0557 7.1438-0.8408 1.5612-1.6112 1.9775-2.2453 1.2135zm55.826-0.53011c-0.6274-0.756 0.019-1.7478 3.0678-4.7086 1.9977-1.9398 4.1194-4.3882 6.1257-7.0688 1.6883-2.2556 3.4199-4.4789 3.848-4.9407l0.7785-0.83965-0.9726-0.85401c-0.535-0.46971-1.5318-1.272-2.2151-1.7829-0.6834-0.51088-2.9093-2.5545-4.9466-4.5413-4.0156-3.9161-5.3356-4.9309-7.9653-6.1233-1.7802-0.80716-2.229-1.3272-1.7732-2.0546 0.4556-0.72729 1.3218-0.63165 3.184 0.35161 2.1716 1.1466 5.0789 3.5988 7.735 6.524 1.0859 1.1959 3.0549 2.9759 4.3756 3.9556 1.3207 0.97971 2.5602 1.9728 2.7545 2.2068 0.1942 0.23404 0.4996 0.42552 0.6786 0.42552 0.3886 0 2.2461-2.3268 3.9075-4.8948 3.5258-5.4498 10.818-13.243 12.204-13.045 1.2511 0.17939 0.7985 1.0313-1.9947 3.7549-3.1868 3.1075-5.5708 5.8852-7.2917 8.4959-2.4825 3.7661-3.5416 5.3126-4.2067 6.1426l-0.682 0.85097 1.6241 1.0011c3.9034 2.4062 5.4599 3.6863 7.5846 6.238 1.186 1.4244 2.9518 3.4138 3.9241 4.4208 1.5472 1.6026 1.7316 1.8983 1.4789 2.3705-0.1588 0.29673-0.413 0.53951-0.5649 0.53951-0.5398 0-3.5137-2.8159-5.5885-5.2917-2.6703-3.1864-4.2432-4.5752-7.1758-6.3358l-2.3435-1.4069-0.6449 0.7625c-0.3547 0.41938-1.4652 1.8341-2.4678 3.1438-3.9852 5.2058-11.015 13.097-11.668 13.097-0.244 0-0.5905-0.17704-0.7701-0.39344zm-373.86-0.26364c-0.4672-0.56298-0.018-2.0532 1.0723-3.5585 0.4486-0.61928 3.0391-3.4439 5.7568-6.2769 5.6165-5.855 8.2485-8.747 8.2485-9.0635 0-0.29714-8.6637-8.5355-12.523-11.908-1.7217-1.5046-3.1992-2.915-3.2833-3.1341-0.3617-0.94261 1.0644-1.7811 1.8167-1.0682 0.2001 0.18964 0.8401 0.74735 1.4221 1.2394 0.9841 0.83196 6.5097 6.0316 11.737 11.045l2.2421 2.1502 0.9824-1.2242c0.5404-0.67331 1.4842-1.7004 2.0975-2.2825 0.6133-0.58208 1.7587-1.9079 2.5455-2.9462 0.7867-1.0383 2.5801-3.0028 3.9854-4.3656 1.4052-1.3628 3.3759-3.2889 4.3793-4.2803 1.9404-1.9171 2.9002-2.2444 3.0703-1.047 0.065 0.45995-0.8163 1.4816-3.9957 4.6302-2.2438 2.222-4.7689 4.933-5.6114 6.0244-0.8424 1.0914-2.6136 3.0855-3.936 4.4313l-2.4043 2.4469 2.111 2.143c1.161 1.1787 3.0185 2.7855 4.1277 3.5708 2.6369 1.8667 8.1697 7.5729 8.1697 8.4257 0 0.91731-0.7321 1.0539-1.6883 0.31508-0.4539-0.35073-2.0754-1.878-3.6034-3.3938-1.528-1.5159-3.552-3.2791-4.4979-3.9184-0.9459-0.63922-2.604-2.0908-3.6847-3.2257-1.0808-1.1349-2.0522-2.0635-2.1587-2.0635-0.1066 0-0.7821 0.74414-1.5011 1.6536-0.7191 0.90951-3.6767 4.2052-6.5726 7.3237-3.2576 3.5081-5.5679 6.232-6.059 7.1438-0.8408 1.5612-1.6112 1.9775-2.2453 1.2135zm210.61-9.4e-4c-0.6275-0.75601 0.019-1.7478 3.0678-4.7086 1.9844-1.927 4.135-4.4059 6.1324-7.0688 1.692-2.2556 3.4686-4.5478 3.948-5.094l0.8718-0.99291-0.9922-0.87227c-0.5457-0.47975-1.5279-1.2754-2.1828-1.7682-0.6548-0.49276-2.8575-2.5187-4.8948-4.5021-4.0181-3.9119-5.3388-4.9261-7.9653-6.117-1.7801-0.80715-2.2289-1.3272-1.7732-2.0546 0.4557-0.72729 1.3218-0.63164 3.1841 0.35161 2.1716 1.1466 5.0789 3.5988 7.735 6.524 1.0859 1.1959 3.0549 2.9759 4.3756 3.9556 1.3207 0.97972 2.5602 1.9728 2.7544 2.2068 0.1943 0.23404 0.4939 0.42553 0.6658 0.42553 0.3356 0 2.4056-2.6528 3.9226-5.0271 3.1718-4.964 10.605-12.839 11.938-12.648 1.251 0.17939 0.7985 1.0313-1.9947 3.7549-3.2774 3.1958-5.6177 5.9348-7.3726 8.6282-1.2038 1.8478-3.362 5.0007-4.185 6.114-0.3246 0.43915-0.2089 0.57477 1.2663 1.4841 3.9029 2.4058 5.4595 3.686 7.5841 6.2376 1.1861 1.4244 2.9519 3.4138 3.9241 4.4208 1.5473 1.6026 1.7317 1.8983 1.479 2.3705-0.1588 0.29674-0.413 0.53952-0.5649 0.53952-0.5399 0-3.5137-2.8159-5.5885-5.2917-2.6725-3.189-4.2432-4.5751-7.1866-6.3423l-2.3543-1.4134-0.7697 0.90131c-0.4233 0.49572-1.5885 1.9729-2.5893 3.2826-3.9536 5.1738-11.01 13.097-11.665 13.097-0.244 0-0.5905-0.17705-0.7701-0.39344zm-154.78-0.79375c-0.6274-0.75601 0.019-1.7478 3.0679-4.7086 1.9976-1.9398 4.1193-4.3882 6.1257-7.0688 1.6882-2.2556 3.4261-4.4854 3.862-4.9551 0.7872-0.84845 0.7891-0.85782 0.2831-1.4213-0.2801-0.31197-1.2236-1.1087-2.0967-1.7705-0.8732-0.66178-3.2544-2.8279-5.2917-4.8137-4.0164-3.9148-5.3366-4.9294-7.9653-6.1213-1.7802-0.80715-2.229-1.3272-1.7732-2.0546 0.4553-0.72671 1.3212-0.63186 3.184 0.34879 2.0975 1.1042 5.092 3.6406 7.8778 6.6728 1.09 1.1863 2.8455 2.7849 3.9011 3.5523s2.314 1.7614 2.7963 2.2087l0.877 0.81329 0.7846-0.92604c0.4316-0.50932 1.5446-2.0571 2.4733-3.4396 4.3715-6.5071 11.226-13.914 12.684-13.706 1.2067 0.17221 0.7903 1.0883-1.424 3.1325-3.2569 3.0067-7.1409 7.6893-8.9908 10.839-0.5559 0.94657-1.6119 2.4944-2.3468 3.4396l-1.336 1.7186 1.717 1.0583c3.9963 2.4632 5.5379 3.7275 7.676 6.2952 1.186 1.4244 2.9518 3.4138 3.9241 4.4208 1.5472 1.6026 1.7316 1.8983 1.4789 2.3705-0.1588 0.29673-0.413 0.53951-0.5649 0.53951-0.5398 0-3.5136-2.8159-5.5885-5.2917-1.1585-1.3824-2.7197-3.057-3.4694-3.7212-1.2744-1.1292-5.6686-3.9517-6.1522-3.9517-0.2691 0-0.9376 0.78319-3.275 3.8365-3.9852 5.2058-11.015 13.097-11.668 13.097-0.244 0-0.5905-0.17705-0.7701-0.39344zm420.95 9.4e-4c-0.4672-0.56298-0.018-2.0532 1.0722-3.5585 0.4486-0.61928 3.0392-3.4439 5.7569-6.2769s5.7048-6.0044 6.6381-7.0475l1.6969-1.8965-3.9459-3.7967c-2.1702-2.0882-5.7707-5.4087-8.0011-7.3789-2.2304-1.9702-4.1246-3.7628-4.2093-3.9835-0.085-0.22074-0.034-0.59352 0.1136-0.8284 0.4738-0.75618 1.2623-0.62235 2.4792 0.42076 1.6617 1.4245 5.4323 4.9378 7.0098 6.5316 0.7358 0.74349 2.5218 2.4437 3.9687 3.7782 1.4469 1.3346 2.8987 2.7005 3.2261 3.0354l0.5954 0.60895 0.4459-0.65414c0.2453-0.35977 1.3522-1.6066 2.4598-2.7708 1.1076-1.1642 2.5303-2.8033 3.1615-3.6425 0.6313-0.83919 2.2817-2.6251 3.6676-3.9688 1.386-1.3436 3.3409-3.254 4.3443-4.2454 1.9403-1.9171 2.9001-2.2444 3.0703-1.047 0.065 0.45994-0.8163 1.4817-3.9955 4.6302-2.2437 2.222-4.9768 5.1711-6.0736 6.5536-1.0968 1.3824-2.8409 3.3438-3.8758 4.3585-1.0349 1.0148-1.8817 1.9755-1.8817 2.1349 0 0.46731 4.4874 4.698 6.2181 5.8624 2.2003 1.4803 7.8049 7.3202 7.8049 8.1326 0 0.91731-0.7321 1.0539-1.6883 0.31508-0.4539-0.35073-2.0754-1.878-3.6034-3.3938-1.528-1.5159-3.5513-3.2794-4.4963-3.9189-0.945-0.63952-2.6203-2.1044-3.7229-3.2554l-2.0046-2.0926-1.3307 1.6833c-0.7319 0.92583-3.7001 4.2348-6.5959 7.3534-3.2576 3.5081-5.5679 6.232-6.059 7.1438-0.8408 1.5612-1.6112 1.9775-2.2453 1.2135zm55.826-0.26552c-0.6278-0.75641 0.019-1.7476 3.0702-4.7086 2.0611-1.9998 4.1671-4.4409 6.4573-7.4847 1.8693-2.4843 3.5853-4.6718 3.8134-4.861 0.228-0.18926 0.4146-0.45222 0.4146-0.58437 0-0.27777-1.3363-1.4845-3.1232-2.8205-0.6834-0.51088-2.9093-2.5545-4.9466-4.5413-4.0156-3.9161-5.3356-4.9309-7.9653-6.1233-1.7802-0.80716-2.229-1.3272-1.7732-2.0546 0.4553-0.72672 1.3212-0.63187 3.184 0.34878 2.0975 1.1042 5.092 3.6406 7.8778 6.6728 1.09 1.1863 2.8455 2.7879 3.9011 3.559s2.3849 1.8117 2.9538 2.3124l1.0346 0.91028 0.7594-0.89744c0.4177-0.4936 1.5193-2.0285 2.448-3.411 4.3714-6.5071 11.226-13.914 12.684-13.706 1.2067 0.17221 0.7903 1.0883-1.424 3.1325-3.2561 3.0059-7.1405 7.6888-8.9902 10.838-0.5556 0.94588-1.5601 2.4279-2.2322 3.2934-0.6722 0.86546-1.1859 1.6821-1.1417 1.8147 0.044 0.13263 1.1437 0.89355 2.4434 1.6909 3.282 2.0135 4.1237 2.7296 6.2778 5.3405 1.0348 1.2541 2.7614 3.1969 3.837 4.3173 1.7216 1.7932 1.921 2.102 1.6654 2.5797-0.1597 0.29842-0.4147 0.54259-0.5666 0.54259-0.541 0-3.5154-2.818-5.5854-5.2917-2.6255-3.1375-4.1845-4.5212-7.0664-6.2718l-2.2669-1.377-0.7427 0.84778c-0.4085 0.46629-1.5616 1.9194-2.5624 3.229-3.9536 5.1738-11.01 13.097-11.665 13.097-0.244 0-0.5905-0.17705-0.7701-0.39344zm-437.63-2.6525c-0.2024-0.2439-0.3833-1.5629-0.4635-3.3788-0.1459-3.3071 0.069-3.8528 1.3888-3.5217 0.6636 0.16654 0.6649 0.17312 0.6649 3.3179 0 2.5118-0.084 3.2354-0.4158 3.5668-0.5191 0.51915-0.7539 0.52229-1.1744 0.0157zm156.9 0c-0.2025-0.2439-0.3834-1.5629-0.4635-3.3788-0.146-3.3071 0.069-3.8528 1.3887-3.5217 0.6636 0.16654 0.6649 0.17312 0.6649 3.3179 0 2.5118-0.084 3.2354-0.4158 3.5668-0.5191 0.51915-0.7539 0.52229-1.1743 0.0157zm160.6 0c-0.2024-0.2439-0.3833-1.5629-0.4635-3.3788-0.1459-3.3071 0.069-3.8528 1.3888-3.5217 0.6636 0.16654 0.6649 0.17312 0.6649 3.3179 0 2.5118-0.084 3.2354-0.4158 3.5668-0.5191 0.51915-0.7539 0.52229-1.1744 0.0157zm-317.49-10.967c-0.3129-0.19791-0.3906-1.0065-0.3969-4.1317-0.01-3.4172 0.048-3.9211 0.4552-4.1803 0.3379-0.21502 0.5882-0.21586 0.9261-3e-3 0.3977 0.25048 0.4734 0.80119 0.5366 3.9046 0.088 4.3196-0.2257 5.2296-1.521 4.4104zm156.9 0c-0.3129-0.19791-0.3906-1.0065-0.3969-4.1317-0.01-3.4172 0.048-3.9211 0.4553-4.1803 0.3378-0.21502 0.5882-0.21586 0.926-3e-3 0.3977 0.25048 0.4734 0.80119 0.5367 3.9046 0.088 4.3196-0.2258 5.2296-1.5211 4.4104zm160.6 0c-0.3129-0.19791-0.3906-1.0065-0.3969-4.1317-0.01-3.4172 0.048-3.9211 0.4553-4.1803 0.3378-0.21502 0.5882-0.21586 0.926-3e-3 0.3977 0.25048 0.4734 0.80119 0.5367 3.9046 0.088 4.3196-0.2258 5.2296-1.5211 4.4104zm-317.45-15.674c-0.2119-0.21196-0.3175-1.3817-0.3175-3.519 0-2.1372 0.1056-3.307 0.3175-3.519 0.4536-0.45361 1.4493-0.39223 1.6386 0.10101 0.274 0.7141 0.1763 5.5427-0.1299 6.4212-0.3025 0.86792-0.9389 1.0855-1.5087 0.51573zm156.63 0c-0.439-0.43892-0.439-6.599 0-7.0379 0.4536-0.45361 1.4492-0.39223 1.6385 0.10101 0.274 0.7141 0.1764 5.5427-0.1298 6.4212-0.3026 0.86792-0.939 1.0855-1.5087 0.51573zm160.87 0c-0.4389-0.43892-0.4389-6.599 0-7.0379 0.4536-0.45361 1.4493-0.39223 1.6386 0.10101 0.274 0.7141 0.1764 5.5427-0.1299 6.4212-0.3025 0.86792-0.9389 1.0855-1.5087 0.51573zm-317.67-13.49c-0.5387-2.3652-0.6607-3.1335-0.6664-4.1971-0.01-1.2629 0.3291-1.8388 1.0724-1.8388 0.8479 0 1.0629 0.69585 1.117 3.6147l0.053 2.8676-0.7184 0.0828c-0.5683 0.0655-0.7475-0.045-0.8577-0.52917zm156.63 0c-0.5387-2.3652-0.6606-3.1335-0.6663-4.1971-0.01-1.2629 0.3291-1.8388 1.0723-1.8388 0.8479 0 1.063 0.69585 1.117 3.6147l0.053 2.8676-0.7183 0.0828c-0.5684 0.0655-0.7475-0.045-0.8578-0.52917zm161.13 0c-0.5387-2.3652-0.6607-3.1335-0.6664-4.1971-0.01-1.2629 0.3291-1.8388 1.0724-1.8388 0.8479 0 1.0629 0.69585 1.117 3.6147l0.053 2.8676-0.7184 0.0828c-0.5683 0.0655-0.7475-0.045-0.8577-0.52917zm-456.69-6.8958c-0.2678-0.7432-0.6576-6.368-0.6578-9.4926-2e-4 -3.6596 0.184-4.1454 1.4516-3.8272 0.6518 0.16361 0.6649 0.21628 0.6649 2.6837v2.5168l1.4439-1.0667c0.7941-0.58668 1.5016-1.0667 1.5722-1.0667 0.071 0 0.9025-0.4854 1.8487-1.0787 1.8549-1.1631 2.8854-1.2892 3.0172-0.3692 0.072 0.50139-0.3822 0.93974-2.4165 2.3333-0.4453 0.30508-0.2528 0.5504 2.2233 2.8331 2.7943 2.5761 3.5734 3.7093 3.1257 4.5459-0.1374 0.25671-0.3945 0.46565-0.5712 0.46431-0.1768-1e-3 -1.4526-1.0787-2.835-2.3942-1.3825-1.3155-2.9363-2.7343-3.4529-3.153l-0.9394-0.76119-1.4775 1.2372-1.4775 1.2372 0.1377 2.2653c0.09 1.4784 0.03 2.4664-0.1721 2.8443-0.335 0.62587-1.2916 0.78573-1.4853 0.2482zm25.377-1.8893c-1.9166-1.6405-3.2729-5.158-3.2759-8.4956 0-2.4481 0.3923-3.7571 1.4514-4.8162 0.7052-0.70521 1.0817-0.87231 1.9656-0.87231 2.0169 0 3.7516 1.1583 4.7937 3.2009 0.6122 1.2001 0.4936 1.9782-0.342 2.2434-0.5745 0.18234-0.9177-0.11611-2.1305-1.8526-0.7219-1.0337-1.9009-1.5656-2.5591-1.1545-1.7116 1.0689-1.3194 6.5101 0.6559 9.0998 0.865 1.1341 1.9759 1.2356 2.5142 0.22978 0.4008-0.74899 1.47-1.1384 1.912-0.69635 0.4068 0.40674-0.1578 2.18-1.0204 3.2051-0.5588 0.66408-0.8746 0.80567-1.7974 0.80567-0.89 0-1.3342-0.18384-2.1675-0.89708zm11.457 0.44919c-0.2505-0.41535-0.9646-4.4913-1.3819-7.8865-0.698-5.6802-0.3248-8.0299 1.13-7.1142 0.3877 0.24403 0.4752 0.77112 0.5378 3.2398 0.041 1.6216 0.1193 2.9484 0.1736 2.9484 0.054 0 1.3403-0.9346 2.8576-2.0769 2.9365-2.2108 4.0091-2.6954 4.6179-2.0865 0.5073 0.50725 0.2517 0.95443-1.2456 2.179l-1.2939 1.0583 0.7507 0.79375c1.2647 1.3371 5.5265 6.9732 5.7099 7.5511 0.1668 0.52566-0.2403 1.3125-0.6791 1.3125-0.2933 0-2.2439-2.1068-4.1644-4.4979-0.8766-1.0914-2.0154-2.3889-2.5307-2.8833l-0.937-0.89895-0.9234 0.81075c-0.5078 0.44592-1.1239 0.923-1.3691 1.0602-0.404 0.22612-0.4153 0.45703-0.121 2.4694 0.4303 2.9422 0.3154 4.0468-0.4323 4.1534-0.3137 0.0447-0.6283-0.0148-0.6991-0.13229zm-19.725-0.79976c-0.4885-0.91276-0.8015-3.6444-0.884-7.7152-0.074-3.6397-0.034-4.0993 0.3807-4.3643 0.3377-0.21605 0.5882-0.21739 0.926-5e-3 0.573 0.3604 0.7611 2.0502 0.8948 8.0405 0.096 4.3202 0.091 4.3665-0.48 4.4478-0.3513 0.05-0.6793-0.10815-0.8375-0.40381zm45.972-2.1074c-0.4777-1.2246-1.5677-6.9448-1.7419-9.1408l-0.1622-2.0449-2.3734 0.0605c-2.0122 0.0513-2.4188-0.01-2.6718-0.40253-0.646-1.0023 0.051-1.3482 3.6931-1.8331 5.9366-0.79031 7.7264-0.60772 7.4696 0.76205-0.071 0.37833-0.4882 0.52633-2.0383 0.72292l-1.9491 0.24718 0.1707 2.0018c0.094 1.101 0.4127 3.2758 0.7085 4.833 0.2959 1.5572 0.5014 3.4027 0.4568 4.101-0.069 1.0855-0.1675 1.282-0.6761 1.3543-0.4465 0.0634-0.6675-0.10157-0.8859-0.66146zm7.3354 0.0404c-0.3045-0.79338-0.1619-5.2604 0.2263-7.0926 0.4392-2.0728 1.4885-4.5152 2.3349-5.4348 1.2637-1.373 3.5643-1.7618 4.7777-0.80737 0.5676 0.44652 0.6971 0.76837 0.6971 1.7329 0 1.8616-0.9181 3.203-2.8669 4.1885l-0.8825 0.44632 1.1471 0.72921c1.8019 1.1455 3.9699 3.6621 3.8731 4.496-0.127 1.0947-1.0851 1.0531-2.0894-0.0907-0.4582-0.52187-1.8271-1.7161-3.0419-2.6538l-2.2088-1.705-0.074 3.2317-0.074 3.2317-0.8261 0.0804c-0.5732 0.0558-0.877-0.0521-0.9922-0.35237zm5.69-10.774c0.1444-0.26984 0.2253-0.73186 0.1798-1.0267-0.081-0.52631-0.099-0.52486-0.9747 0.0798-0.4905 0.33872-1.1994 1.1425-1.5753 1.7862l-0.6834 1.1704 1.3955-0.75953c0.7675-0.41774 1.5137-0.98031 1.6581-1.2502zm7.7822 10.294c-0.449-0.3283-0.4737-0.68405-0.326-4.6964 0.213-5.787 1.1183-9.7704 2.2185-9.7611 0.686 6e-3 0.9434 0.23304 1.973 1.7414 0.6736 0.98694 1.2222 2.4229 2.0459 5.3551 1.2646 4.5024 1.2965 5.1632 0.2545 5.2838-0.6483 0.0751-0.7449-0.0507-1.2845-1.6722l-0.5835-1.7534-1.0967 0.18138c-0.6032 0.0998-1.1861 0.2342-1.2952 0.29877-0.1091 0.0646-0.1984 1.1777-0.1984 2.4737 0 2.0588-0.065 2.3909-0.5118 2.6302-0.6407 0.34286-0.6131 0.34473-1.1958-0.0813zm3.5596-7.6311c0-0.64569-0.8719-3.3908-1.0769-3.3908-0.1175 0-0.2869 0.56554-0.3765 1.2568-0.09 0.69122-0.2182 1.5247-0.2858 1.8521-0.109 0.52786-0.017 0.59531 0.8082 0.59531 0.5409 0 0.931-0.13129 0.931-0.31337zm8.1751 6.3256c-1.1514-0.77144-2.323-2.5223-3.4351-5.1336-0.7358-1.7275-0.8832-2.4046-0.8924-4.0994-0.01-1.6477 0.092-2.1711 0.5369-2.7781 0.9512-1.2983 2.0782-1.6925 4.6114-1.6126l2.2489 0.0709v1.8521l-2.1744 0.13229c-2.7575 0.16777-3.124 0.47392-3.1003 2.5897 0.013 1.1679 0.2414 1.992 1.005 3.6269 1.627 3.4833 3.0104 4.3928 4.4124 2.9005 1.2611-1.3425 2.3428-0.27021 1.4564 1.4438-0.8304 1.6058-3.0583 2.0866-4.6688 1.0075zm19.1-1.7657c-0.8921-1.3024-2.175-2.8204-2.851-3.3734s-1.7922-1.6812-2.4804-2.5072l-1.2512-1.5018-0.5801 0.61745c-0.554 0.58972-0.566 0.70471-0.2686 2.5601 0.1712 1.0685 0.271 2.3594 0.2216 2.8687-0.075 0.7789-0.2019 0.93901-0.7955 1.0076-0.8108 0.0938-0.7644 0.25308-1.9361-6.6462-0.9963-5.8669-0.8869-7.326 0.5497-7.326 0.7002 0 0.8966 0.44404 0.9167 2.0722 0.01 0.67932 0.099 1.7099 0.2024 2.2902l0.1871 1.055 1.5106-1.8696c1.5657-1.9378 2.993-2.9577 3.7387-2.6716 0.7268 0.27892 0.4761 1.0383-0.8822 2.6714l-1.3001 1.5632 0.7564 1.0826c0.4159 0.59544 1.7481 2.0456 2.9604 3.2225 2.4511 2.3796 4.1885 5.029 4.1885 6.3869 0 0.7367-0.094 0.86592-0.6325 0.86592-0.4991 0-0.9748-0.49966-2.2544-2.368zm222.43-5.7534c-0.9466-0.15024-2.06-1.4964-2.06-2.4907 0-1.1602 0.6131-2.418 1.5718-3.2247 0.8465-0.71226 1.7079-0.92332 1.9789-0.48484 0.078 0.12673 0.4969 0.30132 0.9303 0.38798 1.4018 0.28036 1.9875 2.1857 1.2296 3.9997-0.5799 1.3878-1.9719 2.079-3.6506 1.8125zm-12.407-1.4338c-1.6779-0.61578-1.7162-3.3476-0.068-4.8747 0.8259-0.76548 1.284-0.80511 2.503-0.21657 1.5861 0.76568 2.0912 1.3956 2.0912 2.608 0 2.0328-2.3059 3.2981-4.5258 2.4833zm-10.898-1.1715c-1.2363-0.69424-1.6244-2.588-0.841-4.1031 0.3771-0.72922 0.5054-0.78061 1.9487-0.78061 1.7915 0 2.7964 0.59909 3.0663 1.8279 0.1861 0.84701-0.3291 2.3345-1.0016 2.8922-0.6639 0.55051-2.3304 0.63643-3.1724 0.16355zm38.443-2.2093c-4.515-1.8492-5.4313-2.4995-4.8441-3.438 0.4852-0.77532 1.4927-0.60385 4.1833 0.71192 2.8064 1.3724 3.4052 1.8534 3.26 2.6186-0.1243 0.6554-1.157 0.69807-2.5992 0.1074zm-50.646-3.5518c-0.7936-0.5803-0.3887-1.2435 1.1688-1.9142 1.8446-0.79442 3.0563-0.83501 3.4414-0.11528 0.4578 0.85534-0.066 1.3781-1.8922 1.8889-2.0467 0.57242-2.1222 0.57633-2.718 0.14066zm11.11-1.9196c-0.2287-0.22868-0.4174-0.43704-0.4193-0.46302-0.2802-3.7948-0.6911-15.969-0.5642-16.716 0.1619-0.95286 0.257-1.0583 0.9546-1.0583 0.6283 0 0.9943 0.28268 1.9356 1.4949 1.439 1.853 1.632 2.6677 1.6399 6.9211 0.01 3.6299-0.3104 6.4282-0.9581 8.4537-0.5394 1.6868-1.6714 2.2848-2.5885 1.3676zm24.34-0.46521c-0.4171-0.30498-0.4581-0.59561-0.308-2.1828 0.095-1.007 0.2738-4.5694 0.3969-7.9164 0.2481-6.7452 0.5256-8.0813 1.9225-9.2568 1.6814-1.4148 3.3829-0.48827 3.9337 2.142 0.4966 2.3712 0.063 4.9385-1.4508 8.5891-0.6896 1.663-1.6699 4.2733-2.1785 5.8007-1.0652 3.199-1.3418 3.5364-2.3158 2.8242zm-11.135-0.61769c-0.3943-0.39426-0.4298-1.1902-0.3392-7.6068 0.11-7.7951 0.2203-8.4332 1.7313-10.011 1.3869-1.448 3.5188-0.63143 3.9188 1.5009 0.3896 2.0765-0.038 5.7192-1.0571 9.0163-1.5733 5.0876-2.304 7.1302-2.6251 7.3381-0.5003 0.32397-1.1638 0.22707-1.6287-0.23785zm-31.171-1.5881c-0.097-0.097-0.1764-0.40053-0.1764-0.6745 0-1.0933 5.9141-3.1179 9.1077-3.1179 1.3562 0 1.9797 0.64574 1.496 1.5495-0.2122 0.39637-0.6864 0.52015-2.4567 0.64124-1.4316 0.0979-3.0155 0.43288-4.5586 0.96402-2.3979 0.82537-3.0941 0.95548-3.412 0.63758zm54.394-0.90524c-0.4495-0.47177-0.416-1.164 0.076-1.5724 0.3096-0.257 1.2703-0.29611 4.0262-0.16394 3.869 0.18555 4.6136 0.43354 3.965 1.3205-0.2842 0.38867-0.9316 0.48696-4.0375 0.6129-2.864 0.11613-3.7736 0.0716-4.0297-0.19713zm-1.0715-7.7025c-0.4125-0.41251-0.406-1.1373 0.013-1.4593 0.3673-0.28221 6.344-1.2118 8.0036-1.2448 0.953-0.019 1.0664 0.0483 1.1392 0.6763 0.075 0.65007-0.041 0.73385-1.7198 1.2349-3.281 0.97947-6.8673 1.3619-7.4362 0.79291zm-48.668-0.76687c-2.8261-0.25176-3.5757-0.55114-3.4576-1.3809 0.08-0.55949 0.2022-0.57968 3.947-0.65041 3.4656-0.0655 3.9289-0.0212 4.4846 0.42885 0.6008 0.4865 0.6058 0.52314 0.164 1.1975-0.5109 0.77977-0.7339 0.79734-5.138 0.40501zm106.67-18.168c-0.3717-0.25289-0.9049-4.7044-0.9049-7.5549 0-2.4531 0.2896-3.0099 1.4179-2.7267 0.6264 0.15722 0.6324 0.19279 0.824 4.9311 0.1461 3.6138 0.1144 4.8674-0.1308 5.1628-0.3536 0.42609-0.7622 0.48966-1.2062 0.18766zm-209.81-0.52917c-0.3717-0.25288-0.9049-4.7044-0.9049-7.5549 0-2.4531 0.2896-3.0099 1.4179-2.7267 0.6264 0.15722 0.6324 0.1928 0.824 4.9311 0.1462 3.6138 0.1144 4.8674-0.1308 5.1628-0.3536 0.42608-0.7622 0.48966-1.2062 0.18765zm116.17-6.6444c-0.9634-0.60072-2.5694-2.2522-5.4343-5.5885-3.1969-3.723-3.4092-4.1614-3.3435-6.9039 0.048-2.0074 0.1584-2.4723 0.9407-3.9688 2.0707-3.9609 5.051-7.6515 8.0296-9.9435l1.5849-1.2195-3.4023-1.6806c-4.1338-2.042-4.9977-2.677-4.7412-3.4851 0.2682-0.84524 0.996-0.72635 3.1094 0.50797 1.0245 0.59835 2.9884 1.6104 4.3642 2.2489l2.5015 1.161 1.2382-0.84753c1.8736-1.2825 4.0502-2.8966 5.4261-4.0241l1.2344-1.0115-1.7427-3.3859c-0.9585-1.8622-1.701-3.6044-1.6501-3.8714 0.051-0.26701 0.3429-0.52139 0.6488-0.56527 0.6418-0.092 1.5757 1.2232 3.1567 4.4454 0.5354 1.0914 1.0116 2.0264 1.0581 2.0777 0.046 0.0513 1.134-0.62928 2.4166-1.5125 2.9839-2.0548 8.3548-4.2395 10.959-4.4578 1.6112-0.13508 1.8063-0.0969 2.127 0.41673 0.1943 0.311 0.4751 0.56546 0.6242 0.56546 1.3037 0 4.7754 3.113 6.9174 6.2028 2.2118 3.1904 2.512 3.9018 2.5016 5.9274-0.014 2.6649-0.4169 4.2671-1.8236 7.2473-1.4628 3.099-3.2598 5.2918-6.4062 7.8171-1.0914 0.87597-2.786 2.4392-3.7658 3.4737-2.049 2.1637-4.0007 3.5037-6.9722 4.7868-1.1519 0.49741-2.6301 1.2114-3.2849 1.5866-1.9736 1.1308-8.327 3.9342-9.5614 4.2188-0.6348 0.14639-2.2258 0.26862-3.5355 0.27163-1.8738 4e-3 -2.5504-0.1-3.175-0.48944zm4.6027-1.3326c0.3062-0.19387 0.3363-1.0871 0.176-5.2215-0.1063-2.7432-0.2326-5.027-0.2806-5.0752-0.048-0.0482-1.2094 0.51736-2.581 1.2568s-2.6845 1.3444-2.9175 1.3444-0.4875 0.10345-0.5657 0.2299c-0.078 0.12645 0.7563 1.585 1.8543 3.2412 1.098 1.6562 2.0628 3.3387 2.1439 3.7388 0.1234 0.60827 0.2832 0.72694 0.9744 0.72355 0.4547-2e-3 0.993-0.1093 1.1962-0.23794zm8.1717-2.9735c2.4329-1.1786 4.9593-2.3736 5.6141-2.6554 2.1292-0.91647 4.6341-2.4188 4.2268-2.5352-0.2147-0.0613-1.6405-0.68232-3.1684-1.38-4.1699-1.9041-7.2259-3.1552-8.166-3.3432-0.4625-0.0925-0.9071-0.2753-0.988-0.40623-0.081-0.13093-0.9787 0.21109-1.9951 0.76006l-1.8479 0.99811 0.1487 3.8382c0.082 2.111 0.223 4.5915 0.3138 5.5122 0.1583 1.606 0.1909 1.6676 0.8018 1.5142 0.3502-0.0879 2.6273-1.1241 5.0602-2.3028zm-13.837 0.24435c-1.8638-2.8328-3.3901-4.6567-3.9932-4.772-0.3479-0.0665-0.6326-0.0931-0.6326-0.059 0 0.33304 5.1045 6.2256 5.2591 6.071 0.06-0.0605-0.2245-0.61849-0.6333-1.2399zm28.577-11.981c-0.5125-2.6214-2.1806-7.1956-2.9294-8.0333-0.049-0.0543-0.8338 0.57588-1.7449 1.4004-1.5017 1.359-5.7886 4.1891-9.0136 5.9506-0.69 0.37688-1.2556 0.75111-1.2568 0.83162 0 0.0805 0.9801 0.54305 2.1806 1.0279 1.2005 0.4848 3.5843 1.5393 5.2972 2.3433 2.4984 1.1726 3.1468 1.5907 3.278 2.1135 0.1549 0.61722 0.2795 0.53444 2.357-1.5666l2.1934-2.2182zm-24.466 3.1408c7.6098-3.7394 15.582-8.3306 18.022-10.379 1.0594-0.88942 5.9251-6.3176 7.4288-8.2875 1.0682-1.3995 2.0606-4.0704 2.0606-5.5461 0-0.89494-0.1163-1.0639-1.1478-1.6684-0.6312-0.36994-1.3515-0.67261-1.6006-0.67261s-0.7926-0.17564-1.2077-0.3903c-0.8866-0.4585-1.8176-0.24145-5.7377 1.3378-2.1818 0.87894-6.975 3.6953-6.975 4.0983 0 0.74889 1.1392 2.5429 1.7969 2.8298 1.9798 0.8636 1.7239 4.2952-0.3202 4.2952-0.9398 0-2.1946-0.80986-2.6963-1.7403-0.3652-0.6773-0.3872-0.97126-0.131-1.7478 0.2189-0.66326 0.2288-1.1424 0.034-1.6548l-0.2742-0.72122-1.1228 0.83868c-0.6175 0.46127-2.1593 1.5723-3.4263 2.469-1.2669 0.8967-2.3087 1.6978-2.3151 1.7802-0.026 0.33573 3.2661 1.6859 3.9386 1.6153 1.0026-0.10515 2.8329 0.67511 3.4631 1.4763 1.0566 1.3432 0.308 2.7117-1.4833 2.7117-0.9102 0-2.1059-0.79284-2.3485-1.5572-0.208-0.65553-5.057-3.0119-5.7472-2.7928-0.8457 0.26841-5.6914 5.0873-7.0046 6.9658-1.6252 2.325-3.266 5.6223-3.2612 6.5538 0.01 1.0802 0.5586 2.0216 1.3212 2.2489 0.3626 0.10812 1.4927 0.17148 2.5114 0.14081 1.7322-0.0522 2.1349-0.19477 6.2232-2.2037zm29.212-5.2617c0.9561-1.0963 2.0344-2.5774 2.3962-3.2914 1.0169-2.0066 2.0233-4.8434 1.7963-5.0632-0.4302-0.41665-5.5421-1.5601-6.9746-1.5601-1.4174 0-1.5567 0.06-2.4593 1.0591-0.5263 0.58251-0.9569 1.2243-0.9569 1.4262s0.4183 1.2134 0.9294 2.2477c0.5112 1.0343 1.3077 3.1826 1.7701 4.774 0.9909 3.4108 0.8901 3.399 3.4988 0.40785zm1.7886-11.965c-0.582-0.69123-1.4109-1.5915-1.842-2.0006l-0.7838-0.74385-0.7934 1.4043-0.7933 1.4043 2.4123 0.56215c1.3268 0.30918 2.5127 0.57751 2.6354 0.5963 0.1227 0.0188-0.2532-0.5314-0.8352-1.2226zm2.1516-0.79375c-0.185-0.52343-2.5799-4.174-3.2277-4.92-0.4082-0.47024-0.4297-0.46535-0.5812 0.13229-0.1233 0.48678 0.1065 0.90578 1.0658 1.9435 0.6726 0.7276 1.5601 1.7694 1.9723 2.3151 0.8273 1.0955 1.017 1.2257 0.7708 0.52917zm170.7 30.922c-0.9635-0.60072-2.5694-2.2522-5.4343-5.5885-3.197-3.723-3.4093-4.1614-3.3435-6.9039 0.048-2.0074 0.1584-2.4723 0.9407-3.9688 2.0707-3.9609 5.051-7.6515 8.0296-9.9435l1.5848-1.2195-3.4022-1.6806c-4.1338-2.042-4.9977-2.677-4.7413-3.4851 0.2683-0.84524 0.996-0.72635 3.1095 0.50797 1.0245 0.59835 2.9884 1.6104 4.3642 2.2489l2.5014 1.161 1.2383-0.84753c1.8736-1.2825 4.0502-2.8966 5.4261-4.0241l1.2344-1.0115-1.7427-3.3859c-0.9585-1.8622-1.701-3.6044-1.6501-3.8714 0.051-0.26701 0.3429-0.52139 0.6488-0.56527 0.6418-0.092 1.5757 1.2232 3.1566 4.4454 0.5355 1.0914 1.0117 2.0264 1.0582 2.0777 0.047 0.0513 1.1339-0.62928 2.4165-1.5125 2.984-2.0548 8.3549-4.2395 10.959-4.4578 1.6111-0.13508 1.8063-0.0969 2.127 0.41673 0.1942 0.311 0.4751 0.56546 0.6241 0.56546 1.3038 0 4.7754 3.113 6.9175 6.2028 2.2118 3.1904 2.512 3.9018 2.5015 5.9274-0.014 2.6649-0.4168 4.2671-1.8235 7.2473-1.4628 3.099-3.2598 5.2918-6.4063 7.8171-1.0914 0.87597-2.7859 2.4392-3.7657 3.4737-2.049 2.1637-4.0008 3.5037-6.9722 4.7868-1.1519 0.49741-2.6301 1.2114-3.285 1.5866-1.9736 1.1308-8.3269 3.9342-9.5613 4.2188-0.6349 0.14639-2.2259 0.26862-3.5355 0.27163-1.8739 4e-3 -2.5504-0.1-3.175-0.48944zm4.6027-1.3326c0.3061-0.19387 0.3363-1.0871 0.176-5.2215-0.1063-2.7432-0.2326-5.027-0.2806-5.0752-0.048-0.0482-1.2095 0.51736-2.5811 1.2568s-2.6844 1.3444-2.9174 1.3444-0.4876 0.10345-0.5657 0.2299c-0.078 0.12645 0.7563 1.585 1.8543 3.2412 1.098 1.6562 2.0627 3.3387 2.1439 3.7388 0.1233 0.60827 0.2831 0.72694 0.9744 0.72355 0.4547-2e-3 0.993-0.1093 1.1962-0.23794zm8.1717-2.9536c10.106-4.8501 9.7521-4.6439 12.418-7.2384l2.4644-2.3984-0.2819-1.5875c-0.3676-2.0698-1.1715-4.5912-2.1693-6.8037l-0.8012-1.7766-1.6103 1.4572c-1.4687 1.3292-5.5698 4.0287-9.1175 6.0017-0.7726 0.42968-1.3679 0.8148-1.3229 0.85583 0.045 0.041 1.1534 0.51351 2.4631 1.05 6.5487 2.6824 8.759 4.0031 8.2036 4.9017-0.2943 0.47617-0.9911 0.28921-3.8276-1.027-3.803-1.7648-7.0601-3.1034-8.4203-3.4607-1.0608-0.27862-1.2366-0.24155-2.7268 0.5748l-1.5929 0.87263 0.1473 3.8365c0.081 2.11 0.2217 4.5898 0.3125 5.5105 0.2034 2.0627-0.1278 2.1061 5.862-0.76856zm-13.837 0.22438c-1.8638-2.8328-3.39-4.6567-3.9931-4.772-0.3479-0.0665-0.6326-0.0931-0.6326-0.059 0 0.33304 5.1045 6.2256 5.2591 6.071 0.061-0.0605-0.2245-0.61849-0.6334-1.2399zm4.1111-8.8399c7.6098-3.7394 15.582-8.3306 18.022-10.379 1.0594-0.88942 5.9251-6.3176 7.4288-8.2875 1.0683-1.3995 2.0606-4.0704 2.0606-5.5461 0-0.89494-0.1162-1.0639-1.1477-1.6684-0.6312-0.36994-1.3515-0.67261-1.6006-0.67261s-0.7926-0.17564-1.2077-0.3903c-0.8866-0.4585-1.8176-0.24145-5.7377 1.3378-2.1818 0.87894-6.975 3.6953-6.975 4.0983 0 0.74889 1.1391 2.5429 1.7968 2.8298 1.9798 0.8636 1.724 4.2952-0.3202 4.2952-0.9398 0-2.1945-0.80986-2.6962-1.7403-0.3652-0.6773-0.3873-0.97126-0.131-1.7478 0.2189-0.66326 0.2287-1.1424 0.034-1.6548l-0.2742-0.72122-1.1228 0.83868c-0.6175 0.46127-2.1594 1.5723-3.4263 2.469-1.2669 0.8967-2.3087 1.6949-2.3151 1.7737-0.026 0.31839 2.9684 1.5769 3.7646 1.5823 0.4697 3e-3 1.3443 0.22844 1.9434 0.50054 1.8635 0.84624 2.5411 2.4915 1.3653 3.3151-1.2453 0.87222-2.9956 0.33667-3.7655-1.1521-0.4664-0.90208-4.684-3.0403-5.4914-2.784-0.8406 0.2668-5.69 5.0923-6.9983 6.9638-1.6252 2.325-3.266 5.6223-3.2612 6.5538 0.01 1.0802 0.5586 2.0216 1.3211 2.2489 0.3627 0.10812 1.4928 0.17148 2.5115 0.14081 1.7322-0.0522 2.1349-0.19477 6.2232-2.2037zm29.25-5.3057c0.935-1.0721 1.996-2.5334 2.3578-3.2474 0.8398-1.6573 2.0322-4.8161 1.8767-4.9716-0.3621-0.36212-4.805-1.4275-6.516-1.5625l-1.9979-0.15766-1.1109 1.2621c-0.6111 0.69415-1.111 1.3513-1.111 1.4604s0.4245 1.0572 0.9433 2.1069c0.5188 1.0497 1.3225 3.248 1.7859 4.885l0.8427 2.9764 0.6147-0.40122c0.338-0.22067 1.3796-1.2784 2.3147-2.3505zm1.4874-11.921c-1.4225-1.6923-2.484-2.6366-2.6024-2.3151-0.054 0.14553-0.3868 0.74084-0.7404 1.3229l-0.6429 1.0583 2.298 0.56492c1.2639 0.31071 2.3984 0.5786 2.5211 0.59531 0.1227 0.0167-0.2523-0.53515-0.8334-1.2264zm2.4487-0.66146c-0.1818-0.59564-2.4671-4.1366-3.2575-5.0474-0.3999-0.46083-0.4287-0.4487-0.6185 0.26087-0.1699 0.63533-0.051 0.89954 0.8098 1.8062 0.5548 0.58413 1.4593 1.6276 2.01 2.3188 1.1187 1.4041 1.3215 1.5311 1.0562 0.66146zm-456.39 30.261c-0.9634-0.60071-2.5693-2.2522-5.4342-5.5885-2.5268-2.9425-3.5585-4.5742-3.3062-5.2288 0.097-0.25287 0.2029-1.2489 0.2343-2.2135 0.046-1.4039 0.2329-2.0901 0.9385-3.4396 2.0657-3.9514 5.0488-7.6444 8.0247-9.9343l1.5849-1.2195-3.4023-1.6806c-4.1338-2.042-4.9977-2.677-4.7412-3.4851 0.2682-0.84523 0.996-0.72635 3.1094 0.50798 1.0245 0.59834 2.9884 1.6104 4.3642 2.2489l2.5015 1.161 1.2382-0.84645c1.5465-1.0572 4.6833-3.398 5.7361-4.2805l0.7938-0.66534-1.8086-3.5691c-0.9948-1.963-1.7675-3.7851-1.7171-4.0491 0.05-0.26401 0.3418-0.51593 0.6478-0.55981 0.651-0.0934 1.5673 1.2122 3.2595 4.6438 0.5919 1.2006 1.1453 2.1828 1.2297 2.1828 0.084 0 1.185-0.71039 2.446-1.5786 2.935-2.021 8.3339-4.2138 10.905-4.4294 1.5518-0.1301 1.803-0.0854 2.1296 0.37878 0.2036 0.28944 0.6597 0.61775 1.0135 0.72956 1.6381 0.5177 4.1536 2.9763 6.4534 6.3072 2.0062 2.9057 2.334 3.7092 2.3238 5.6956-0.014 2.6649-0.4169 4.2671-1.8236 7.2473-1.4628 3.099-3.2598 5.2918-6.4062 7.8171-1.0914 0.87596-2.786 2.4391-3.7657 3.4737-2.0491 2.1637-4.0008 3.5037-6.9723 4.7868-1.1518 0.49741-2.6301 1.2114-3.2849 1.5866-1.9736 1.1308-8.327 3.9342-9.5613 4.2188-0.6349 0.14639-2.2259 0.26862-3.5356 0.27164-1.8738 4e-3 -2.5504-0.1-3.175-0.48945zm4.4763-1.2512c0.4798-0.18412 0.5263-1.5201 0.2449-7.0369l-0.1714-3.361-2.431 1.3105c-1.337 0.72078-2.5988 1.3123-2.804 1.3146-1.1448 0.0124-1.0196 0.4607 0.9643 3.4532 1.103 1.6638 2.0719 3.3525 2.153 3.7526 0.1186 0.58487 0.2926 0.7276 0.8866 0.7276 0.4065 0 0.9274-0.0723 1.1576-0.1606zm8.2982-3.035c10.19-4.8904 9.7131-4.6094 12.641-7.4529l2.694-2.6159-0.3461-1.7683c-0.499-2.5492-2.1767-7.1277-2.914-7.9525-0.048-0.0543-0.8337 0.57587-1.7449 1.4004-1.4825 1.3416-5.4385 3.9569-9.0738 5.9987-1.2806 0.71925-1.2978 0.74489-0.6615 0.98706 1.7037 0.64838 4.3473 1.7997 6.9316 3.0187 2.6986 1.2729 3.4114 1.8898 2.9836 2.5821-0.2943 0.47617-0.991 0.28921-3.8275-1.027-3.6001-1.6706-7.032-3.0922-8.2506-3.4175-0.8708-0.23252-1.1471-0.15634-2.8568 0.78774l-1.8927 1.0452 0.1448 3.7544c0.08 2.0649 0.2191 4.5077 0.3101 5.4284 0.2038 2.0627-0.1274 2.1061 5.8624-0.76856zm-13.837 0.22437c-2.3308-3.5426-4.0435-5.3721-4.5526-4.863-0.1 0.0999 1.9521 2.6781 3.7581 4.7218 0.7248 0.82016 1.3673 1.4417 1.4278 1.3811 0.061-0.0605-0.2245-0.61849-0.6333-1.2399zm6.6367-9.9968c3.6132-1.8171 7.5281-3.9051 8.6998-4.6398 1.1718-0.73475 3.0721-1.9159 4.223-2.6247 2.6886-1.6558 3.3345-2.2364 6.6128-5.9442 3.791-4.2876 4.5141-5.2966 5.154-7.1914 0.8754-2.5922 0.7821-3.231-0.6117-4.19-0.6447-0.44355-1.365-0.80646-1.6006-0.80646-0.2357 0-0.7797-0.18158-1.2088-0.40352-0.7258-0.37533-0.9223-0.35586-2.8129 0.27879-3.3316 1.1184-5.378 2.0788-7.808 3.6643l-2.2993 1.5003 0.4853 1.0838c0.2962 0.66159 0.7917 1.2323 1.2719 1.4648 1.9854 0.96155 1.7428 4.3177-0.3121 4.3177-0.9398 0-2.1945-0.80986-2.6963-1.7403-0.3647-0.67631-0.387-0.97182-0.132-1.7444 0.1706-0.51699 0.2158-1.1694 0.1017-1.4688-0.1882-0.49385-0.4842-0.3379-3.5617 1.8767-1.846 1.3284-3.3641 2.4798-3.3734 2.5587-0.034 0.28616 2.924 1.5766 3.6268 1.5823 0.397 3e-3 1.212 0.22844 1.8112 0.50054 1.8635 0.84625 2.5411 2.4915 1.3652 3.3151-1.2914 0.90456-3.2033 0.23362-3.89-1.3651-0.2384-0.5552-0.8633-0.99031-2.5374-1.767-2.2056-1.0232-2.2263-1.0271-2.9606-0.55349-1.3405 0.86448-5.3931 4.9917-6.6186 6.7405-1.6079 2.2944-3.25 5.5969-3.2452 6.5266 0.01 1.0802 0.5586 2.0216 1.3212 2.2489 0.3626 0.10812 1.5069 0.17127 2.5428 0.14033 1.8408-0.055 2.0322-0.13108 8.4529-3.3602zm26.552-3.9592c1.0228-1.1608 2.2002-2.7979 2.6164-3.638 0.8707-1.7576 2.0223-4.804 1.8723-4.953-0.3423-0.34001-5.624-1.4693-6.8719-1.4693-1.4173 0-1.5567 0.06-2.4593 1.0591-0.5263 0.5825-0.9569 1.2243-0.9569 1.4262s0.4115 1.1996 0.9144 2.2172c0.6989 1.4142 2.5252 6.7448 2.5252 7.3705 0 0.44449 0.7833-0.22352 2.3598-2.0126zm3.1965-11.063c0-0.11487-0.7899-1.0743-1.7552-2.132l-1.7552-1.9231-1.7018 3.0734 2.4076 0.56116c2.9922 0.69739 2.8046 0.66925 2.8046 0.42061zm0.092-3.2969c-1.23-1.9967-2.6128-3.6958-2.6883-3.3034-0.051 0.26412 0.5073 1.1265 1.3202 2.0397 1.3911 1.5628 1.7652 1.9084 1.3681 1.2637zm73.465 27.719c-0.5443-0.65583-0.097-1.48 2.1825-4.0235 1.1991-1.3379 3.8211-4.2819 5.8265-6.5423 2.0055-2.2604 3.9186-4.3152 4.2514-4.5662l0.605-0.4564-1.9687-2.5263c-2.4485-3.142-4.1705-5.149-7.6477-8.9135-1.4975-1.6212-2.7227-3.1247-2.7227-3.341 0-0.60742 0.7196-1.0634 1.4062-0.89104 0.7363 0.18481 6.4057 6.622 9.6201 10.923 1.2306 1.6466 2.3367 3.0552 2.4579 3.1301 0.1212 0.0749 0.917-0.50231 1.7686-1.2827 2.6611-2.4387 5.4266-4.662 7.8959-6.3478 1.3083-0.89323 3.7131-2.9139 5.3438-4.4904 2.9738-2.8748 3.8276-3.3363 3.9928-2.158 0.1529 1.0912-3.0566 4.0512-11.616 10.713-2.289 1.7815-5.792 4.9662-5.7832 5.2576 0.011 0.3621 5.3124 5.6427 7.9325 7.9013 3.846 3.3154 4.2925 3.8201 4.1877 4.7341-0.05 0.43429-0.2667 0.7897-0.51 0.83578-0.4855 0.0919-7.4492-6.0942-10.761-9.5595-1.2038-1.2595-2.2892-2.2901-2.4119-2.2901-0.2164 0-5.903 5.9338-7.7335 8.0698-0.4989 0.58209-1.5803 1.9513-2.4032 3.0427-2.4829 3.2932-3.1152 3.7427-3.9129 2.7816zm206.9 0c-0.5443-0.65583-0.097-1.48 2.1825-4.0235 1.1991-1.3379 3.8007-4.2549 5.7813-6.4823 1.9805-2.2274 3.8456-4.2674 4.1446-4.5334 0.542-0.48214 0.5375-0.4916-1.4506-3.0427-2.4744-3.175-4.1883-5.1733-7.6734-8.9463-1.4975-1.6212-2.7227-3.1247-2.7227-3.341 0-0.60556 0.7188-1.0636 1.4006-0.89245 0.7193 0.18053 6.0583 6.2065 9.202 10.386 1.1917 1.5843 2.4 3.1379 2.6852 3.4523l0.5185 0.57174 1.1005-1.072c1.9693-1.9182 6.0737-5.2547 8.5064-6.9148 1.3084-0.89287 3.7131-2.9132 5.3439-4.4898 2.9738-2.8748 3.8276-3.3363 3.9927-2.158 0.1562 1.1148-2.1038 3.1908-12.154 11.164-1.505 1.194-3.3563 2.8013-4.114 3.5719l-1.3776 1.401 2.5682 2.67c1.4125 1.4685 3.8184 3.7477 5.3464 5.0649 3.846 3.3154 4.2924 3.8201 4.1876 4.7341-0.05 0.43429-0.2666 0.7897-0.5099 0.83578-0.4883 0.0925-7.4559-6.1012-10.804-9.6034l-2.2309-2.334-2.7535 2.8882c-3.5039 3.6755-5.3782 5.8224-7.2565 8.3122-2.485 3.2939-3.1163 3.7426-3.9138 2.7816zm-420.16-0.79375c-0.5443-0.65583-0.097-1.48 2.1825-4.0235 1.1992-1.3379 3.8008-4.2549 5.7813-6.4823 1.9806-2.2274 3.8511-4.2724 4.1569-4.5444l0.5558-0.49466-1.7631-2.2835c-2.1963-2.8446-4.1796-5.156-7.667-8.9352-1.496-1.6212-2.7201-3.1247-2.7201-3.341 0-0.60556 0.7188-1.0636 1.4006-0.89245 0.7187 0.18038 6.0546 6.2021 9.2031 10.386 3.1883 4.2368 2.7487 3.9439 4.0363 2.6898 1.9714-1.9202 6.0749-5.2561 8.5087-6.917 1.3083-0.89287 3.7131-2.9132 5.3439-4.4898 2.9738-2.8748 3.8276-3.3363 3.9927-2.158 0.1562 1.1148-2.1039 3.1908-12.154 11.164-1.505 1.194-3.3556 2.8013-4.1124 3.5719l-1.376 1.401 2.6989 2.8016c1.4844 1.5409 3.9491 3.8796 5.4771 5.1972 3.8468 3.3171 4.2925 3.821 4.1877 4.7349-0.05 0.4343-0.2667 0.78971-0.51 0.83578-0.5052 0.0957-7.553-6.1887-10.926-9.7426l-2.3536-2.4797-2.7631 2.8984c-3.5135 3.6856-5.3866 5.8309-7.2661 8.3223-2.485 3.2939-3.1163 3.7426-3.9139 2.7816zm266.7 0c-0.7702-0.92807-0.3666-1.428 8.6917-10.766l1.9704-2.0312-1.0683-1.276c-0.5875-0.70182-1.6948-2.2286-2.4606-3.3927-2.8679-4.3598-5.5667-7.9829-6.9897-9.3837-0.8081-0.7954-1.4692-1.6348-1.4692-1.8653 0-0.54972 0.5202-1.0542 1.0872-1.0542 1.0296 0 4.277 4.0616 9.6291 12.044 0.7825 1.167 1.7388 2.4171 2.1252 2.7781l0.7024 0.65637 2.1577-2.3753c1.1868-1.3064 3.2973-3.5826 4.69-5.0582s3.3701-3.8 4.3941-5.1653c2.3354-3.1138 4.3775-5.0621 5.1856-4.9472 1.1669 0.16588 0.8374 1.0742-1.1881 3.2754-1.0627 1.1549-2.2231 2.5166-2.5786 3.0259-1.2124 1.737-3.5044 4.3619-7.3212 8.3844l-3.8131 4.0188 2.4528 1.9676c1.3491 1.0822 2.8696 2.3529 3.379 2.8239 0.5093 0.47094 1.8785 1.6578 3.0427 2.6376 3.9796 3.3491 5.7661 6.0969 3.964 6.0969-0.4747 0-1.2676-0.58956-2.7578-2.0505-3.425-3.3577-6.3781-5.9942-9.0784-8.105l-2.5449-1.9894-1.9475 2.0376c-5.6178 5.8777-7.0558 7.4499-7.974 8.7183-1.0269 1.4186-1.6894 1.7079-2.2805 0.99562zm206.9 0c-0.7702-0.92807-0.3666-1.428 8.6916-10.766l1.9704-2.0312-1.0682-1.276c-0.5876-0.70182-1.6948-2.2286-2.4606-3.3927-2.8679-4.3598-5.5667-7.9829-6.9898-9.3837-0.808-0.7954-1.4692-1.6348-1.4692-1.8653 0-0.54972 0.5203-1.0542 1.0873-1.0542 1.0296 0 4.2769 4.0616 9.6291 12.044 0.7825 1.167 1.7388 2.4171 2.1251 2.7781l0.7025 0.65637 2.1577-2.3753c1.1867-1.3064 3.2972-3.5826 4.69-5.0582 1.3927-1.4756 3.37-3.8 4.394-5.1653 2.3355-3.1138 4.3776-5.0621 5.1857-4.9472 1.1669 0.16588 0.8374 1.0742-1.1881 3.2754-1.0628 1.1549-2.2232 2.5166-2.5787 3.0259-1.2124 1.737-3.5043 4.3619-7.3211 8.3844l-3.8132 4.0188 2.4529 1.9676c1.3491 1.0822 2.8696 2.3529 3.3789 2.8239 0.5093 0.47094 1.8786 1.6578 3.0427 2.6376 3.9797 3.3491 5.7662 6.0969 3.964 6.0969-0.4746 0-1.2675-0.58956-2.7578-2.0505-3.4249-3.3577-6.378-5.9942-9.0783-8.105l-2.5449-1.9894-1.9475 2.0376c-5.6179 5.8777-7.0558 7.4499-7.974 8.7183-1.0269 1.4186-1.6894 1.7079-2.2805 0.99562zm-420.16-0.52916c-0.7712-0.92924-0.2946-1.518 8.8239-10.898l2.103-2.1634-1.0684-1.2762c-0.5876-0.70193-1.695-2.2287-2.4608-3.3929-2.8679-4.3598-5.5667-7.9829-6.9897-9.3837-0.8081-0.7954-1.4692-1.6348-1.4692-1.8653 0-0.54972 0.5202-1.0542 1.0872-1.0542 1.0296 0 4.277 4.0616 9.6291 12.044 0.7825 1.167 1.7376 2.4171 2.1225 2.7781l0.6998 0.65637 2.0281-2.245c1.1154-1.2348 3.1676-3.4514 4.5603-4.926 1.3928-1.4745 3.3701-3.798 4.3941-5.1633 2.3354-3.1138 4.3776-5.0621 5.1857-4.9472 1.1668 0.16588 0.8373 1.0742-1.1882 3.2754-1.0627 1.155-2.2231 2.5166-2.5786 3.0259-1.1909 1.7061-3.4822 4.3357-7.1904 8.2519l-3.68 3.8863 2.4532 1.9679c1.3493 1.0823 2.8699 2.3532 3.3793 2.8241 0.5093 0.47094 1.8785 1.6578 3.0427 2.6376 3.9796 3.3491 5.7661 6.0969 3.964 6.0969-0.4747 0-1.2676-0.58956-2.7578-2.0505-3.4381-3.3706-6.3811-5.9966-9.1199-8.1375-1.4226-1.112-2.6124-1.9833-2.6441-1.9362-0.032 0.0471-2.0752 2.2288-4.5413 4.8482-2.4661 2.6194-4.9396 5.3876-5.4967 6.1516-1.034 1.4181-1.6976 1.7069-2.2878 0.99563zm320.46-0.71781c-0.86-0.85999-0.034-1.9662 7.3161-9.7953 2.8161-2.9997 5.3909-5.8523 5.7217-6.3393l0.6017-0.88535-1.0916-0.94906c-1.4869-1.2928-6.0553-4.4713-8.4158-5.8553-1.9548-1.1461-3.4082-1.8229-4.8276-2.2482-1.0075-0.30185-1.4425-0.96723-1.0391-1.5897 0.4512-0.69637 2.1464-0.50868 4.0828 0.45206 1.7611 0.87378 8.0588 5.1376 10.665 7.2209 0.8649 0.69122 1.6533 1.2568 1.7522 1.2568 0.099 0 1.4897-1.7562 3.0908-3.9026 5.0846-6.8162 6.1323-8.0459 6.7765-7.9538 1.4394 0.20583 0.762 1.48-4.0895 7.6924-1.618 2.0719-3.2231 4.1037-3.567 4.515-0.3439 0.41134-0.6239 0.82806-0.6222 0.92604 0 0.098 1.0383 0.89251 2.3037 1.7656 3.7597 2.5942 7.8212 6.0398 9.3545 7.936 0.7896 0.97649 1.8284 2.2632 2.3084 2.8593 0.6406 0.79554 0.8517 1.2987 0.7938 1.8912-0.1589 1.6235-0.9457 1.1444-3.7832-2.3037-1.4552-1.7684-3.4197-3.8519-4.3656-4.6301-3.6565-3.0083-5.205-4.2279-6.4189-5.0555l-1.2596-0.85868-2.0582 2.1974c-4.7886 5.1126-8.3358 9.2198-10.418 12.063-0.6089 0.83135-1.2345 1.599-1.3902 1.7059-0.4264 0.29282-1.0646 0.24116-1.4207-0.11501zm206.9 0c-0.8607-0.86076-0.036-1.9635 7.3527-9.8342 2.8361-3.021 5.3807-5.8469 5.6547-6.2796l0.4982-0.78685-1.0245-0.90633c-1.3951-1.2341-6.3254-4.6762-8.649-6.0383-1.9222-1.1268-3.3788-1.8038-4.7921-2.2272-1.0075-0.30185-1.4425-0.96723-1.0391-1.5897 0.4526-0.69855 2.1483-0.50775 4.1019 0.46155 1.6798 0.83341 8.3264 5.3165 10.544 7.112 0.6549 0.53014 1.3885 1.1175 1.6304 1.3054 0.3885 0.30173 0.7919-0.12956 3.4662-3.7065 5.2542-7.0275 6.2443-8.1914 6.8892-8.0992 1.4636 0.20929 0.7814 1.462-4.3716 8.0272-1.7867 2.2764-3.4473 4.3996-3.6902 4.7181-0.4346 0.56993-0.4051 0.6045 1.8407 2.1602 3.7701 2.6116 7.8116 6.0443 9.3361 7.9295 0.7896 0.97649 1.8284 2.2632 2.3084 2.8593 0.6406 0.79554 0.8517 1.2987 0.7938 1.8912-0.1589 1.6235-0.9457 1.1444-3.7832-2.3037-1.4552-1.7684-3.4197-3.8519-4.3656-4.6301-3.6248-2.9823-5.2002-4.2246-6.35-5.0076l-1.1906-0.81084-3.2147 3.4725c-3.5523 3.8372-7.5064 8.4677-9.1649 10.733-0.5925 0.80908-1.2046 1.5585-1.3603 1.6654-0.4264 0.29282-1.0646 0.24116-1.4208-0.11501zm-419.89-0.26459c-0.8608-0.86076-0.036-1.9635 7.3526-9.8342 2.8361-3.021 5.3846-5.853 5.6633-6.2932l0.5068-0.80039-1.1654-1.0247c-1.5318-1.3468-6.3942-4.753-8.7898-6.1574-1.9222-1.1268-3.3788-1.8038-4.7922-2.2272-1.0075-0.30185-1.4424-0.96723-1.0391-1.5897 0.4508-0.69568 2.1178-0.51069 4.0947 0.4544 1.5873 0.77489 9.5427 6.2497 11.845 8.1518l1.0497 0.86713 3.0222-4.0421c5.2496-7.0213 6.24-8.1855 6.8849-8.0933 1.4394 0.20583 0.762 1.48-4.0894 7.6924-1.6181 2.0719-3.2232 4.1037-3.5671 4.515-0.3438 0.41135-0.6252 0.84792-0.6252 0.97016 0 0.12225 0.9823 0.90653 2.1828 1.7429 3.6211 2.5225 7.452 5.7994 8.9607 7.6646 0.7833 0.96848 1.817 2.2486 2.297 2.8448 0.6405 0.79554 0.8517 1.2987 0.7937 1.8912-0.1587 1.6221-0.9454 1.1442-3.7831-2.2979-2.5214-3.0584-4.3219-4.7504-8.4667-7.9564-3.4115-2.6388-2.6964-2.7762-6.3897 1.2271-3.5798 3.8803-7.527 8.5079-9.1649 10.745-0.5924 0.80908-1.2046 1.5585-1.3602 1.6654-0.4265 0.29282-1.0647 0.24116-1.4208-0.11501zm250.5-2.4638c-0.2024-0.2439-0.3834-1.5629-0.4635-3.3788-0.1459-3.3071 0.069-3.8528 1.3888-3.5217 0.6636 0.16654 0.6649 0.17312 0.6649 3.3179 0 2.5118-0.084 3.2354-0.4158 3.5668-0.5192 0.51915-0.7539 0.52229-1.1744 0.0157zm-210.34-0.79375c-0.2024-0.2439-0.3833-1.5629-0.4634-3.3788-0.146-3.3071 0.069-3.8528 1.3887-3.5217 0.6636 0.16654 0.6649 0.17312 0.6649 3.3179 0 2.5118-0.084 3.2354-0.4158 3.5668-0.5191 0.51915-0.7539 0.52229-1.1744 0.0157zm210.35-10.173c-0.313-0.19791-0.3906-1.0065-0.3969-4.1317-0.01-3.4172 0.048-3.9211 0.4552-4.1803 0.3379-0.21502 0.5882-0.21585 0.9261-3e-3 0.3977 0.25048 0.4734 0.80119 0.5366 3.9046 0.088 4.3196-0.2258 5.2296-1.521 4.4104zm-210.34-0.79375c-0.3129-0.19791-0.3906-1.0065-0.3969-4.1317-0.01-3.4172 0.048-3.9211 0.4553-4.1803 0.3378-0.21502 0.5882-0.21585 0.926-3e-3 0.3977 0.25048 0.4734 0.80119 0.5367 3.9046 0.088 4.3196-0.2258 5.2296-1.5211 4.4104zm210.39-14.88c-0.4389-0.43892-0.4389-6.599 0-7.0379 0.4536-0.45361 1.4493-0.39223 1.6386 0.10101 0.274 0.7141 0.1763 5.5427-0.1299 6.4212-0.3026 0.86793-0.939 1.0855-1.5087 0.51574zm-210.34-0.79375c-0.2119-0.21196-0.3175-1.3817-0.3175-3.519 0-2.1372 0.1056-3.307 0.3175-3.519 0.4536-0.45361 1.4493-0.39223 1.6386 0.10101 0.274 0.7141 0.1764 5.5427-0.1299 6.4212-0.3025 0.86793-0.9389 1.0855-1.5087 0.51574zm-196.25-12.37c-0.7492-0.30368-1.2418-0.95922-1.1355-1.5111 0.075-0.39029 0.3899-0.46704 1.9514-0.47573 2.7402-0.0153 3.9276-1.019 3.4511-2.9174-0.2297-0.91498-1.1696-1.4544-3.4641-1.9877-2.2555-0.52433-3.2238-1.0689-3.5837-2.0154-1.1764-3.0942 2.5926-7.2748 6.6264-7.3501 1.4467-0.027 1.4557-0.0222 1.5364 0.80959 0.079 0.81042 0.033 0.85062-1.4552 1.2776-2.32 0.66567-3.6042 1.5193-4.3224 2.8732-0.8132 1.5328-0.5567 1.8531 1.9383 2.4206 1.0416 0.23692 2.349 0.68654 2.9052 0.99917 3.0978 1.7411 2.8391 6.134-0.4492 7.6274-1.1185 0.50801-3.0623 0.62953-3.9987 0.24998zm406.16-0.32687c-0.5387-2.3652-0.6607-3.1335-0.6664-4.1971-0.01-1.2629 0.3291-1.8388 1.0724-1.8388 0.8479 0 1.0629 0.69585 1.117 3.6147l0.053 2.8676-0.7184 0.0828c-0.5683 0.0655-0.7475-0.045-0.8577-0.52917zm-209.81-0.52917c-0.5387-2.3652-0.6607-3.1335-0.6664-4.1971-0.01-1.2628 0.3291-1.8388 1.0724-1.8388 0.8479 0 1.0629 0.69586 1.117 3.6147l0.053 2.8676-0.7184 0.0828c-0.5683 0.0655-0.7475-0.045-0.8577-0.52917zm-186.62-3e-3c-0.4484-0.44838-0.4484-10.558 0-11.007 1.0619-1.0619 3.2622 1.1189 5.2314 5.1849 0.6356 1.3123 1.1874 2.1518 1.3229 2.0126 0.1279-0.13143 0.2711-1.7531 0.3183-3.6037 0.071-2.79 0.1659-3.4445 0.5539-3.832 0.364-0.36344 0.5697-0.40265 0.926-0.17649 0.3961 0.25138 0.4575 0.75244 0.4536 3.6997 0 3.1785-0.054 3.5099-0.734 4.9032-1.4811 3.0338-1.9848 2.8357-4.3329-1.7036l-1.8078-3.4948-0.074 3.8185c-0.044 2.2645-0.1915 3.9604-0.3631 4.1672-0.361 0.43498-1.0759 0.44992-1.4946 0.0312zm29.845-2.9245-1.9844-2.7112-0.079 1.4915c-0.084 1.5975-0.721 2.5517-1.5031 2.2516-0.7035-0.26997-0.892-1.3132-0.7389-4.0913 0.1284-2.3305 0.091-2.7037-0.2872-2.8488-0.595-0.22833-0.5683-1.4479 0.035-1.6057 0.3122-0.0816 0.5788-0.58002 0.7933-1.4828 0.3985-1.678 1.3952-3.226 2.5174-3.9103 1.1015-0.67161 2.9672-0.67844 4.0554-0.0149 2.2248 1.3566 0.8562 3.981-3.0077 5.7678-1.055 0.48786-1.9182 1.0043-1.9182 1.1476s0.6846 1.1244 1.5214 2.1803c2.1811 2.7523 3.829 5.3765 3.7235 5.9298-0.05 0.26227-0.3278 0.50625-0.6174 0.54217-0.3944 0.0489-1.0243-0.61483-2.5108-2.6458zm-0.066-9.4406c1.2856-0.93128 1.5405-1.2947 1.169-1.6662-0.4366-0.43659-1.8806 0.28703-2.4561 1.2308-0.2733 0.44816-0.4974 0.90413-0.4979 1.0133 0 0.41434 0.7525 0.17006 1.785-0.57784zm-17.792 11.364c-0.2453-0.77294 0.042-2.2896 1.0967-5.7881 0.4984-1.6533 1.0786-3.826 1.2895-4.8282 0.5393-2.5638 1.0463-3.6751 1.6766-3.6751 0.6311 0 1.802 1.3354 2.4508 2.7951 0.6924 1.5578 3.1855 10.734 3.0279 11.145-0.2136 0.55658-1.1607 0.40129-1.5108-0.24771-0.1766-0.32742-0.5864-1.4288-0.9105-2.4474-0.4875-1.532-0.6851-1.8488-1.1434-1.8332-3.6788 0.12549-3.2944-0.19999-3.8156 3.2304-0.3075 2.0237-0.318 2.0431-1.1476 2.1236-0.658 0.0638-0.875-0.0377-1.0136-0.47418zm5.9519-7.1325c0-0.43637-1.4187-4.0955-1.4873-3.8359-0.036 0.13686-0.3024 1.112-0.5917 2.1671l-0.526 1.9182h1.3025c0.7164 0 1.3025-0.11226 1.3025-0.24945zm20.635 4.2154c-0.9668-1.035-1.427-3.5223-1.2755-6.8939 0.1691-3.7607 0.9622-4.6127 4.2939-4.6127h1.879v1.8521l-1.695 0.18694c-0.9323 0.10282-1.8049 0.29676-1.9392 0.43099-0.1342 0.13422-0.3098 0.73471-0.3902 1.3344l-0.1463 1.0904h1.7357c1.2455 0 1.8565 0.12077 2.1633 0.42759 0.8851 0.88508-0.2646 1.6791-2.4403 1.6852-1.2632 4e-3 -1.3889 0.0578-1.388 0.59921 5e-4 0.32742 0.2264 0.9651 0.502 1.4171 0.5757 0.9441 1.8214 1.2691 3.8163 0.99566 0.6597-0.0904 1.513-0.0857 1.8963 0.0105 0.5693 0.14289 0.6817 0.3063 0.6141 0.89257-0.076 0.65929-0.2227 0.74361-1.8026 1.0368-0.9459 0.1755-2.4757 0.32465-3.3996 0.33145-1.5342 0.0113-1.7443-0.0567-2.4239-0.7842zm50.398-0.8571c-0.068-0.1819-0.4025-1.1642-0.7443-2.1828l-0.6214-1.8521-1.5625 0.0927c-0.8593 0.051-1.6122 0.14039-1.673 0.19874-0.061 0.0584-0.1647 0.79056-0.2308 1.6271-0.1377 1.742-0.3948 2.1825-1.2735 2.1825-1.2288 0-1.1526-1.6339 0.4258-9.1273 0.4597-2.1824 0.9644-4.1229 1.1215-4.3122 0.5683-0.6847 1.3704-0.22397 2.1532 1.2368 0.782 1.4593 3.4572 8.681 3.8387 10.363 0.2724 1.201-0.056 2.1046-0.7648 2.1046-0.3003 0-0.6013-0.14883-0.6689-0.33073zm-2.5378-7.4083c-0.3041-0.76399-0.6394-1.6162-0.745-1.8938-0.1408-0.37012-0.2745-0.0938-0.5015 1.0363-0.4505 2.2431-0.4494 2.2465 0.745 2.2465h1.0545zm9.0003 7.1438c-1.7475-1.1572-3.3885-5.6692-3.0626-8.4209 0.3248-2.7424 1.7799-3.893 4.5602-3.6061 1.9061 0.19673 2.4982 0.55556 2.4982 1.514 0 0.92325-0.7822 1.2465-1.9458 0.80415-2.0735-0.78833-2.8177-0.087-2.8141 2.652 0 1.5199 0.1477 2.2753 0.645 3.3434 0.6662 1.4308 0.9048 1.5781 2.792 1.7237 1.2742 0.0983 1.3888 0.9369 0.2581 1.8884-1.0135 0.85278-1.7573 0.87848-2.931 0.10128zm9.1644 0c-0.4474-1.3894-0.7183-3.9262-0.8547-8.0047-0.1392-4.1635-0.1062-4.8077 0.2624-5.1135 0.2319-0.19248 0.6961-0.31106 1.0315-0.26351 0.5903 0.0837 0.6123 0.18215 0.6847 3.0607l0.075 2.9742 1.645-1.2768c3.8931-3.0219 5.2412-3.5782 5.4315-2.2414 0.063 0.44225-0.3258 0.89885-1.6537 1.9424-0.9548 0.75033-1.7359 1.4246-1.7359 1.4983 0 0.0737 1.1325 1.2832 2.5167 2.6878s2.5846 2.7678 2.6677 3.0295c0.1639 0.51655-0.3003 1.2441-0.7939 1.2441-0.1689 0-1.6721-1.2484-3.3405-2.7742l-3.0334-2.7742-0.8563 0.85629c-0.8547 0.8547-0.8558 0.85932-0.5937 2.4868 0.3109 1.9306 0.025 2.999-0.8017 2.999-0.2992 0-0.592-0.14883-0.6505-0.33073zm-43.13-0.79375c-0.501-1.5123-0.7128-2.8611-0.8502-5.4142l-0.1596-2.9668-2.2483-0.0759c-1.7996-0.0607-2.3065-0.16829-2.5395-0.5389-0.212-0.33708-0.2117-0.58896 0-0.92604 0.2595-0.41115 0.8426-0.46787 5.2047-0.50636 3.6103-0.0318 5.0343 0.0457 5.3718 0.29247 1.0417 0.76169-0.2789 1.4597-2.777 1.4678l-0.9012 3e-3 0.3536 8.9958h-0.6729c-0.3701 0-0.7222-0.14883-0.7825-0.33073zm8.3274-0.0672c-0.2426-0.29223-0.3-1.4039-0.2164-4.1844 0.1008-3.3497 0.1885-3.937 0.7609-5.0922 0.8097-1.6341 2.1926-2.4857 4.0469-2.492 1.1095-4e-3 1.405 0.11746 2.1828 0.89524 0.7843 0.78427 0.8996 1.0699 0.8996 2.2286 0 1.5184-0.7442 2.6533-2.1113 3.2195-0.4395 0.18205-0.7991 0.41033-0.7991 0.50729 0 0.097 0.5886 0.75604 1.308 1.4646 1.3835 1.3627 2.0281 2.5205 1.7731 3.1849-0.2796 0.7286-1.0985 0.42008-2.4046-0.90594-0.7083-0.71916-1.8052-1.6791-2.4374-2.1331l-1.1496-0.82554v1.9479c0 1.1622-0.128 2.076-0.3175 2.2654-0.4352 0.43522-1.138 0.39839-1.5354-0.0805zm4.7634-7.5087c1.4465-1.0515 0.565-2.5554-1.0949-1.8678-0.7472 0.30954-1.2784 1.0374-1.6593 2.274-0.1681 0.54558-0.1281 0.55902 0.9586 0.32197 0.6238-0.13605 1.4318-0.46373 1.7956-0.72818z"/></g></svg>
