<svg width="533.63mm" height="249.16mm" version="1.1" viewBox="0 0 533.63 249.16" xml:space="preserve" xmlns="http://www.w3.org/2000/svg"><g transform="translate(-1391.2 794.69)"><path fill="#fff" d="m1880-545.77c-4.6566-0.1009-17.774-0.27026-29.149-0.37636-20.445-0.19069-20.694-0.19937-21.696-0.75775-1.6994-0.94691-1.9156-2.0213-1.9219-9.5514 0-3.7646 0.1119-6.7809 0.2824-7.4083 0.1582-0.58209 0.3791-4.0349 0.4909-7.6729s0.3463-10.484 0.5212-15.214c0.2385-6.4508 0.2443-9.7557 0.023-13.229-0.1622-2.5466-0.2917-7.9044-0.2878-11.906 0-4.0018-0.1306-9.4429-0.2991-12.091-0.3293-5.1792-0.2523-5.6419 0.9332-5.6098 1.1573 0.0313 13.662-0.56432 17.368-0.82729 2.1101-0.14973 6.6642-0.34503 10.12-0.43401 3.4561-0.089 6.2838-0.24685 6.2838-0.35082s-0.123-1.7244-0.2734-3.6009c-0.2787-3.478-0.8005-5.9346-1.4467-6.8112-0.3425-0.46448-0.4228-0.44135-1.6072 0.46303-1.9706 1.5046-3.9046 1.1876-3.9046-0.63999 0-1.0775 0.9374-1.9626 2.5392-2.3975 0.6165-0.16737 1.2613-0.34331 1.433-0.39098 0.1718-0.0477 0.3911-0.61256 0.4875-1.2553 0.3125-2.0841-1.2738-4.416-3.8952-5.726-1.2044-0.60183-1.9842-0.8091-3.0441-0.8091h-1.425l0.1705 0.9088c0.2092 1.1148-0.282 2.7076-0.944 3.062-0.7572 0.40524-2.1839 0.30046-2.8095-0.20635-1.4612-1.1836-1.4491-2.955 0.029-4.2528l0.9035-0.79335-1.2732-1.6819c-1.8238-2.4092-2.9207-3.2868-4.5686-3.6555-1.7108-0.38273-2.7713-0.27135-2.6216 0.27535 0.059 0.21483 0.161 1.1185 0.227 2.0081 0.1112 1.5001 0.063 1.6812-0.663 2.4938-0.6856 0.76726-0.9787 0.89042-2.3563 0.99007-1.402 0.10141-1.6635 0.0379-2.4011-0.58274-1.5446-1.2997-1.4491-3.2372 0.2504-5.0809l1.0584-1.1483-0.757-0.29112c-2.4322-0.93532-6.2145-0.86482-8.7852 0.16376l-1.0465 0.41874 0.1383 1.5256c0.1536 1.6942-0.1168 2.4369-1.1287 3.1-0.5532 0.36247-0.7774 0.37708-1.4584 0.095-1.625-0.67311-2.0925-3.0408-0.884-4.4771 0.8136-0.96685 0.6766-1.2445-1.2042-2.4414-1.233-0.78464-2.2148-0.90829-4.6077-0.58031l-1.2275 0.16826v1.1667c0 2.0413-1.907 3.2044-3.175 1.9364-0.5118-0.51175-0.6408-1.0653-0.5395-2.3151l0.048-0.59531h-9.2052l-0.058 12.223c-0.039 8.2802-0.15 12.335-0.3435 12.568-0.3439 0.41436-1.3301 0.45208-1.7165 0.0657-0.3996-0.39959-15.444-0.44899-24.963-0.082-9.4526 0.36446-30.408-0.0211-45.508-0.83734-4.1644-0.22509-11.956 0.21077-16.862 0.94331-3.2042 0.4784-4.0319 0.51775-5.5563 0.26419-4.7433-0.78902-5.6975-0.85574-10.126-0.70802-2.5466 0.085-5.2255 0.27896-5.9531 0.43113-2.5679 0.53702-6.9001 1.1185-8.6102 1.1557-1.9086 0.0415-2.8026-0.35541-3.6231-1.6086-0.4269-0.65198-0.4695-1.7177-0.4996-12.498-0.018-6.4818-0.1381-12.114-0.2669-12.516l-0.2341-0.73133-2.1478 1.6984c-1.1813 0.9341-2.4682 2.1185-2.8599 2.632-0.3916 0.51348-1.3886 1.4846-2.2154 2.158-0.8269 0.67344-2.8131 2.4976-4.4139 4.0538-1.6007 1.5561-4.0641 3.8307-5.4743 5.0545l-2.5639 2.2252 0.3811 0.73698c0.4458 0.8621 0.4864 2.8428 0.108 5.2612-0.4216 2.6935-0.7043 3.2181-1.683 3.1228l-0.822-0.0801 0.095-1.8521c0.052-1.0186 0.1888-2.4474 0.303-3.175 0.121-0.77073 0.1021-1.5213-0.045-1.7983-0.2262-0.42539-0.4251-0.32804-1.8905 0.92544-0.9007 0.77046-3.2508 2.9489-5.2224 4.841-1.9715 1.8921-4.5263 4.2736-5.6772 5.2923-1.151 1.0186-4.6058 4.3066-7.6773 7.3066-3.0716 3-5.8568 5.6002-6.1894 5.7782l-0.6047 0.32364 0.225 12.61c0.3079 17.26 0.2979 18.614-0.1441 19.438-1.1153 2.0811-3.8988 2.2316-44.991 2.4325-17.981 0.0879-35.312 0.27008-38.513 0.40482-3.2014 0.13474-13.218 0.32575-22.259 0.42446l-16.438 0.17947-0.9403-0.58115c-1.7249-1.066-1.8814-1.9639-1.6325-9.3657 0.1185-3.5243 0.1843-8.4939 0.1463-11.043-0.038-2.5495 0.055-5.7642 0.2062-7.1438 0.1514-1.3795 0.3489-3.8179 0.4389-5.4187l0.1637-2.9104-10.994-0.137-1.4653 1.4151c-1.7449 1.6852-3.6551 3.2018-4.3431 3.4481-0.5847 0.20934-1.2277-0.24461-1.2124-0.85593 0.016-0.6463 1.2545-1.9533 3.0096-3.1764l1.5652-1.0907-2.3589-5e-3c-1.2975-3e-3 -3.4305-0.12179-4.7402-0.2649s-3.6594-0.18369-5.2216-0.0902l-2.8404 0.17002-0.14 15.346-0.7469 0.55751c-0.7267 0.54238-1.1573 0.56612-15.875 0.87524-8.3205 0.17475-16.259 0.45729-17.642 0.62787-4.5792 0.56501-9.2904 0.80227-18.704 0.94196-7.6948 0.11418-9.6696 0.0679-11.377-0.26631-3.4874-0.68272-9.4974-1.224-14.643-1.3187-2.909-0.0536-5.127-0.20977-5.4526-0.38405-0.3019-0.16158-0.7741-0.62603-1.0494-1.0321-0.4424-0.65257-0.5005-1.2609-0.5005-5.2363 0-5.8045 0.7511-16.235 1.5814-21.96 0.3588-2.4738 0.6557-5.061 0.6599-5.7493 0.01-1.5462 0.6785-3.2873 1.4285-3.7172 0.4279-0.24529 5.6886-0.34008 21.862-0.39395 11.714-0.039 25.883-0.0985 31.485-0.13229 5.6026-0.0337 13.699 0.0961 17.992 0.28848 8.412 0.37703 9.0259 0.49804 9.7029 1.9125 0.1705 0.35646 0.4429 2.4936 0.6051 4.7492 0.1622 2.2556 0.4087 4.8154 0.5477 5.6886 0.139 0.87312 0.2537 2.732 0.2548 4.131v2.5434l5.2255 0.17396c2.874 0.0957 6.1154 0.24598 7.203 0.33402l1.9775 0.16007-1.5145-1.6358c-1.5116-1.6327-1.8408-2.4964-1.1969-3.1402 0.5914-0.59149 1.113-0.3217 2.8558 1.4773 3.2646 3.3698 2.8409 3.2062 8.8241 3.4066l5.2005 0.17417 0.036-9.5008c0.02-5.2254 0.1092-13.358 0.1984-18.071 0.1445-7.6396 0.2106-8.6011 0.6079-8.8513 0.3266-0.20564 0.6351-0.17938 1.1538 0.0982 0.8488 0.45422 12.21 0.51321 31.209 0.16205 7.927-0.14651 13.984-0.12353 18.124 0.0688 21.58 1.0024 32.103 0.97571 37.968-0.0965 2.7032-0.49417 5.135-0.49888 7.1438-0.0138 1.9067 0.4604 11.455 0.55076 13.656 0.12925 2.9186-0.55892 8.6137-1.3134 9.9188-1.314 0.9688-4.4e-4 1.6038 0.17025 2.249 0.60457 1.7345 1.1676 1.7269 1.098 1.5974 14.741-0.045 4.737 0.048 9.2906 0.2247 11.026 0.2176 2.1338 0.2231 3.519 0.02 4.9801-0.1548 1.1133-0.2815 2.9791-0.2815 4.1463v2.1222l1.3851-1.1491c0.7618-0.63201 3.7681-3.4727 6.6807-6.3126 2.9126-2.8399 5.8314-5.5692 6.4863-6.065 0.6548-0.49585 2.9852-2.6669 5.1786-4.8245l3.988-3.923h-1.7463c-1.964 0-2.9224-0.4648-2.9224-1.4173 0-1.1038 0.43-1.2285 4.2367-1.2285h3.6018l0.7771-0.81939c0.4274-0.45066 1.7296-1.6009 2.8937-2.5561 1.9907-1.6333 6.2236-5.6575 11.092-10.545 1.1758-1.1804 2.8819-2.716 3.7914-3.4125 0.9095-0.69651 1.6542-1.3381 1.6549-1.4258 7e-4 -0.0877 0.3982-0.59153 0.8833-1.1197l0.882-0.96027 0.1671-4.8176c0.1869-5.3934-0.044-13.238-0.3904-13.238-0.3047 0-2.6102-1.6145-4.7396-3.3191-1.9769-1.5825-4.6115-4.0103-9.7683-9.0018-1.9645-1.9015-4.1945-3.9644-4.9555-4.5842l-1.3836-1.1268-3.9081-0.046-3.908-0.0461v-0.77646c0-0.70964 0.1139-0.80597 1.3229-1.1194 0.7276-0.1886 1.9647-0.34521 2.7491-0.34802l1.4261-5e-3 -4.0465-3.9006c-2.2256-2.1453-4.9509-4.572-6.0563-5.3926-1.1054-0.82058-3.0814-2.5879-4.3911-3.9274-2.8352-2.8997-5.4105-5.0622-7.9375-6.6652-2.1533-1.366-3.2381-1.8714-3.4122-1.5899-0.068 0.11014-0.1277 7.9168-0.1325 17.348-0.01 12.586-0.09 17.246-0.3149 17.517-0.3613 0.43525-1.3412 0.48625-1.7371 0.0904-0.3996-0.39959-15.444-0.44899-24.963-0.082-9.4526 0.36446-30.407-0.0211-45.508-0.83734-4.1644-0.22509-11.956 0.21077-16.862 0.94331-3.2042 0.4784-4.0319 0.51775-5.5562 0.26419-4.7434-0.78902-5.6976-0.85574-10.126-0.70802-2.5466 0.085-5.2255 0.27897-5.9531 0.43113-2.5679 0.53702-6.9001 1.1185-8.6102 1.1557-1.9086 0.0415-2.8026-0.35541-3.6231-1.6085-0.4243-0.64805-0.476-1.7948-0.5687-12.63-0.056-6.5546-0.086-13.955-0.067-16.445l0.035-4.5272-0.5945 0.0921c-0.3269 0.0506-3.1855 0.21395-6.3524 0.36291l-5.758 0.27084-1.7826 1.4539c-1.8203 1.4846-2.6644 1.8904-3.3696 1.6198-0.6827-0.26198-0.4392-1.0326 0.6896-2.1827 0.9489-0.96693 1.0245-1.127 0.5953-1.261-1.3107-0.40888-4.5741-0.68423-8.1658-0.68897l-3.9699-5e-3 -0.4785 4.1672c-0.2632 2.292-0.5887 4.9411-0.7234 5.887-0.1346 0.94589-0.3465 2.7343-0.4707 3.9742s-0.3733 2.5299-0.5536 2.8667c-0.7527 1.4066-0.497 1.3911-23.267 1.4104-11.589 0.01-25.894 0.027-31.787 0.038-5.8936 0.0111-13.85-0.12186-17.681-0.29543-7.7239-0.34993-8.5636-0.53473-9.1798-2.0202-0.1857-0.44786-0.4766-2.7588-0.6463-5.1354s-0.4191-4.996-0.5542-5.8208c-0.1351-0.82483-0.2463-6.4574-0.2472-12.517 0-12.357-0.067-11.937 1.9253-12.386 0.5505-0.12408 4.3605-0.24829 8.4667-0.27603 8.937-0.0604 19.807-0.4407 24.002-0.8398 8.8422-0.84122 26.894-1.3066 29.428-0.75866 2.8194 0.60951 10.265 1.3386 15.286 1.4968 5.7417 0.18092 6.1234 0.28792 6.8008 1.9068 0.3404 0.81337 0.3788 1.8118 0.236 6.131-0.094 2.8377-0.2388 6.1879-0.3223 7.445l-0.1518 2.2856 4.7223 0.17684c2.5973 0.0973 5.5983 0.34867 6.6688 0.55868 1.0706 0.21002 2.0529 0.38185 2.1829 0.38185 0.4855 0 0.2021-0.54989-0.9544-1.8521-0.6548-0.73732-1.1906-1.5509-1.1906-1.808 0-0.63388 0.5142-1.1024 1.2098-1.1024 0.7307 0 2.5642 1.9656 3.3554 3.597l0.5942 1.225 5.9531-0.1905c3.2742-0.10478 6.0126-0.24772 6.0854-0.31765 0.1808-0.17378 0.043-17.334-0.1998-24.819-0.3331-10.284-0.2432-10.848 1.8478-11.606 2.5374-0.91997 16.558-1.2357 58.942-1.3273 11.835-0.0256 23.638-0.18122 26.988-0.35586 3.2742-0.17072 12.323-0.39388 20.108-0.49592 14.046-0.18408 14.164-0.18122 15.243 0.37069 1.4487 0.74055 1.9218 1.7977 1.9861 4.4383 0.1125 4.619-0.283 22.611-0.5434 24.719-0.1528 1.2369-0.2787 3.4414-0.2798 4.8988v2.6499l1.3429 0.47694c2.5316 0.89915 6.2332 3.7034 10.829 8.2036 2.4017 2.3518 5.1997 4.9092 6.2177 5.6832 1.0181 0.77402 3.4469 2.9143 5.3974 4.7562 3.3908 3.2019 3.5393 3.3086 3.3841 2.4292-0.4896-2.7742-0.5078-4.1297-0.061-4.5763 0.523-0.52297 1.5575-0.58434 1.9188-0.11383 0.3694 0.48096 0.9131 5.784 0.7181 7.0034-0.1608 1.0053-0.1201 1.077 1.2492 2.2025 0.7785 0.63985 2.7893 2.4766 4.4685 4.0816 4.5805 4.3782 9.6702 8.926 11.872 10.608l1.9605 1.4976-0.2357-8.1656c-0.368-12.748-0.3468-12.909 1.7991-13.687 2.5374-0.91997 16.558-1.2357 58.942-1.3273 11.835-0.0256 23.638-0.18122 26.988-0.35586 3.2742-0.17072 12.323-0.39388 20.108-0.49592 14.046-0.18408 14.164-0.18122 15.243 0.37069 1.4487 0.74055 1.9217 1.7977 1.9861 4.4383 0.1125 4.619-0.283 22.611-0.5434 24.719-0.1528 1.2369-0.2787 3.3417-0.2798 4.6773v2.4284l1.5213 0.19555c2.2938 0.29484 4.5776 0.23911 5.7115-0.13938l1.0151-0.33883-0.8047-0.56723c-1.5782-1.1126-1.776-2.8343-0.3863-3.3627 1.3634-0.51835 3.791 1.0241 3.791 2.4086 0 0.36212 0.3053 0.58088 1.115 0.79891 0.9437 0.25411 1.2953 0.22518 2.2879-0.18824 0.6451-0.26866 1.4029-0.79735 1.684-1.1749l0.5111-0.68637-0.8146-0.81463c-0.8763-0.87631-1.0369-1.8238-0.5335-3.1478 0.3563-0.93711 0.6846-1.14 1.8355-1.1346 1.6402 8e-3 2.5225 1.2599 2.2202 3.1506l-0.1616 1.0106 1.5504 0.58709c1.8037 0.68302 4.0671 0.76315 4.9636 0.17574 0.7491-0.49088 2.8355-3.7951 3.5652-5.6464l0.5399-1.3695-0.8488-0.18272c-1.4966-0.32223-2.2456-0.86052-2.5716-1.8482-0.3661-1.1094-0.2175-1.8876 0.5457-2.858 0.4536-0.5766 0.7705-0.70445 1.7459-0.70445 1.5261 0 2.6394 1.006 2.8971 2.6179 0.096 0.59746 0.2564 1.0863 0.3574 1.0863s0.7399-0.18956 1.4198-0.42123c1.1165-0.38042 3.8851-2.517 3.8851-2.9982 0-0.10744-0.2976-0.35463-0.6613-0.5493-1.3402-0.71726-1.3348-3.3196 0.01-4.6641 1.2112-1.2111 3.3505-0.54405 3.8176 1.1904 0.1511 0.56141 0.2026 1.3819 0.1143 1.8232-0.1465 0.73276-0.089 0.81827 0.6667 0.98416 1.0241 0.22494 2.8681-0.0537 3.6544-0.55228 0.3244-0.20567 0.7741-0.73038 0.9994-1.166 0.4073-0.78752 0.4044-0.79459-0.4979-1.2249-1.9687-0.9388-2.0133-3.4099-0.073-4.0502 1.6139-0.53263 3.0828 0.65249 3.0828 2.4872 0 0.60672 0.1029 0.6746 1.0227 0.6746 1.4021 0 2.28-0.763 2.8198-2.4508 0.2438-0.76214 0.7383-2.1435 1.0991-3.0698 0.9888-2.539 1.4566-5.1341 1.2517-6.9448l-0.1762-1.5576-26.787-8e-3 -1.0584-0.59558c-1.7505-0.98511-1.9602-2.0067-1.9665-9.5822 0-3.7646 0.1119-6.7809 0.2824-7.4083 0.1582-0.58208 0.3791-4.0349 0.4909-7.6729s0.3463-10.484 0.5212-15.214c0.2385-6.4508 0.2443-9.7557 0.023-13.229-0.1622-2.5466-0.2917-7.9044-0.2878-11.906 0-4.0018-0.1306-9.4429-0.2991-12.091-0.3293-5.1792-0.2523-5.6419 0.9332-5.6098 1.2116 0.0328 13.724-0.57124 17.236-0.8321 2.0372-0.1513 7.9229-0.34389 13.079-0.42798 8.2914-0.13521 10.111-0.0866 15.743 0.42069 3.5022 0.31547 7.8104 0.80615 9.5738 1.0904 2.2567 0.36377 4.529 0.51797 7.6729 0.52072 3.0643 3e-3 4.6745 0.10878 5.1282 0.33794 0.4282 0.21621 0.8901 0.89147 1.3095 1.9143l0.648 1.5803 0.1075 23.361c0.079 17.128 0.02 24.4-0.2202 27.252-0.1803 2.1399-0.4055 9.0103-0.5005 15.268-0.1177 7.7507-0.2715 11.605-0.4825 12.092-0.1704 0.39322-0.6808 0.90675-1.1342 1.1412-0.7486 0.38712-2.1893 0.40036-15.688 0.14422-8.175-0.15512-16.53-0.35812-18.568-0.45112l-3.7042-0.16909-0.023 2.8818c-0.018 2.2144-0.1525 3.2494-0.5828 4.4693-2.748 7.7904-2.6192 7.5491-4.4722 8.3784-0.7787 0.34847-1.4136 0.44766-2.1311 0.33292-0.9952-0.15913-1.035-0.13463-1.5167 0.93349-0.6327 1.4032-1.9772 2.5823-3.2076 2.8132-0.5304 0.0995-1.9023 0.11662-3.0487 0.038-2.0505-0.14054-2.0942-0.13054-2.6794 0.6133-0.3272 0.41588-1.4266 1.4178-2.4431 2.2264-1.4324 1.1395-2.1817 1.5392-3.3304 1.7764-1.4281 0.29498-1.4929 0.34549-1.7795 1.3866-0.392 1.4245-2.552 5.195-3.5758 6.2422-0.4461 0.45623-1.1755 1.0201-1.6209 1.2531-1.1528 0.60301-3.6387 0.52724-5.6707-0.17287l-1.6859-0.58085-1.0972 1.1451c-1.8432 1.9236-3.3676 2.39-5.8055 1.7762-1.048-0.26389-1.2125-0.223-2.6953 0.66991l-1.5792 0.95094-7.198-0.35628-0.1729 0.86423c-0.095 0.47532-0.1728 2.5655-0.1728 4.6449v3.7806l5.7547 0.0951c3.1651 0.0523 6.1119-6e-4 6.5484-0.11763 0.4366-0.11702 1.9315-0.28524 3.322-0.37382 2.9923-0.19061 3.8328 0.0997 5.6628 1.956l1.1663 1.1829 1.539-0.58623c2.2098-0.84173 7.0974-1.0484 9.1055-0.38512 0.7862 0.25968 1.7221 0.66223 2.0798 0.89455 0.4734 0.3075 1.3011 0.42268 3.0427 0.42339 4.0821 2e-3 5.627 0.89298 8.712 5.0261l1.1849 1.5875 2.0685 1e-5c1.7719 0 2.2928 0.11346 3.632 0.79112 2.143 1.0844 3.8674 2.7069 4.7673 4.4856 0.6905 1.3647 0.7426 1.6626 0.6062 3.466-0.082 1.0851-0.058 1.973 0.053 1.973 0.1112 0 0.5096 0.56555 0.8854 1.2568 0.884 1.6261 1.5541 5.2554 1.6075 8.706l0.042 2.7356 2.3813-5e-3c3.0698-6e-3 13.3 0.91816 17.727 1.6021 2.4099 0.37227 4.7466 0.53099 7.8052 0.53016 2.9921-8.2e-4 4.5738 0.10391 5.0271 0.33285 0.4281 0.21615 0.8903 0.89172 1.3098 1.9143l0.6483 1.5803 0.1032 23.548c0.074 16.78 0.013 24.536-0.2099 26.988-0.1722 1.8918-0.3656 8.4402-0.4298 14.552-0.073 7.0002-0.2271 11.54-0.415 12.267-0.2145 0.82986-0.528 1.2944-1.1155 1.6526-0.9128 0.55663-0.9835 0.55747-17.221 0.20562zm15.414-1.8392c0.4827-0.16827 0.9185-0.5679 1.0821-0.99219 0.1624-0.42136 0.3225-4.6937 0.3934-10.5 0.073-6.0169 0.2899-11.676 0.5616-14.684 0.3828-4.2393 0.4233-7.552 0.3026-24.739-0.077-10.914-0.2377-21.542-0.3578-23.617-0.3002-5.1866 0.053-4.9033-6.2053-4.9765-3.4784-0.0407-5.287-0.17711-6.4278-0.48495-0.8731-0.2356-3.3734-0.54448-5.5562-0.6864s-5.338-0.3768-7.0115-0.52196c-3.8881-0.33724-16.567-0.34926-20.592-0.0195-7.2777 0.59626-13.688 0.93761-17.608 0.93761h-4.2007l0.195 9.6573c0.1072 5.3115 0.2369 11.86 0.2881 14.552 0.051 2.6921 0.1464 5.1044 0.2114 5.3607s0.017 2.8756-0.1068 5.8208-0.3018 10.055-0.3957 15.799c-0.116 7.1034-0.2902 11.124-0.5443 12.568-0.4381 2.489-0.5104 11.238-0.1108 13.398 0.1743 0.94194 0.4784 1.6142 0.8969 1.9827 0.6278 0.55279 0.8056 0.55921 20.969 0.75685 11.185 0.10964 24.027 0.28035 28.538 0.37937 13.688 0.30043 14.84 0.30109 15.678 9e-3zm-45.576-7.1062c-2.6004-0.66515-5.5034-2.2006-7.6729-4.0583-2.1027-1.8005-3.1758-3.2294-3.605-4.8006-0.4024-1.4729-0.124-11.149 0.3793-13.182 0.8988-3.6297 4.2976-7.3045 8.7615-9.4728 1.4664-0.71234 3.2021-1.4144 3.8569-1.5601 2.9796-0.66289 12.264 0.75009 15.163 2.3077 1.7337 0.93147 3.6804 2.9082 4.5167 4.5865 0.6896 1.3838 0.6936 1.428 0.6918 7.6237 0 7.2663-0.3408 9.2733-2.1516 12.754-1.301 2.5006-2.7164 3.8372-5.5106 5.2033l-1.9933 0.97461-5.2916 0.0486c-4.3352 0.0399-5.6265-0.037-7.1438-0.4251zm13.172-2.1053c2.0088-0.79514 4.4484-3.0478 5.3386-4.9296 1.3166-2.7831 1.726-5.3333 1.728-10.766 1e-3 -2.7214-0.1276-5.5516-0.2858-6.2893-0.3513-1.6381-1.905-3.7006-3.5951-4.7724-2.8897-1.8326-12-3.0213-15.196-1.9829-2.634 0.85577-5.4116 2.4778-6.9789 4.0756-1.9718 2.0102-2.4155 2.7119-3.1115 4.9212-0.5171 1.6412-0.5843 2.4396-0.5901 7.0115-0.01 4.8795 0.027 5.2274 0.6116 6.4146 1.2763 2.5916 5.8952 5.8261 9.3037 6.5151 0.8004 0.1618 1.6933 0.34593 1.9844 0.40918 0.291 0.0633 2.4937 0.0888 4.8948 0.0568 3.8441-0.0512 4.5484-0.13055 5.8961-0.664zm-10.928-7.0053c-3.3408-0.71983-4.3361-2.0017-4.1385-5.3296 0.1995-3.3593 1.3086-5.255 3.7358-6.3852 1.6353-0.76152 2.2999-0.78361 2.9212-0.0971 0.3544 0.39159 0.8149 0.52917 1.7714 0.52917 2.157 0 4.0459 1.2722 4.6743 3.1483 0.1656 0.49466 0.3012 1.928 0.3012 3.1851 0 2.8918-0.6733 4.4704-2.1167 4.9626-1.1819 0.40306-5.2515 0.39548-7.1487-0.0133zm6.5534-2.1887c0.5366-0.33797 0.5953-0.58396 0.5953-2.494 0-3.4597-0.7263-4.4673-3.5223-4.8866-0.6965-0.10445-1.42-0.34355-1.6078-0.53133-0.51-0.50997-2.2908 0.37492-3.2284 1.6042-0.6203 0.81326-0.7746 1.3123-0.8571 2.7722-0.1105 1.9557 0.1399 2.6703 1.1726 3.3469 1.3291 0.87089 6.1698 0.99347 7.4477 0.1886zm17.092-29.073c-2.5108-1.2512-4.4861-3.7984-4.7638-6.143-0.2521-2.1286 0.4324-3.9041 2.6578-6.8944 2.6494-3.5599 4.4002-4.5483 5.7197-3.2288 0.4096 0.40962 1.1181 0.59221 3.0924 0.79693 1.4085 0.14606 2.9893 0.38089 3.5128 0.52185 1.1355 0.30578 2.4694 1.6104 3.0364 2.97 0.9046 2.1686 0.251 6.336-1.432 9.1314-2.1256 3.5305-2.0878 3.5109-6.7636 3.5109-3.4487 0-3.8248-0.0494-5.0597-0.66483zm8.1086-1.5614c1.2298-0.44387 2.7343-3.0027 3.3326-5.6683 0.5807-2.5872 0.3914-3.8515-0.7472-4.9901-0.94-0.94004-0.7708-0.89474-6.1565-1.648-1.0186-0.14248-2.1082-0.335-2.4213-0.42783-0.4709-0.13958-0.8476 0.16703-2.1795 1.7735-0.8856 1.0682-1.8498 2.447-2.1427 3.0639-0.6528 1.3749-0.6851 3.2394-0.078 4.5182 0.5724 1.2062 2.2425 2.8911 3.3381 3.3677 1.0659 0.46369 5.7801 0.47104 7.0548 0.011zm-5.4497-4.5015c-1.9579-0.85232-1.3636-3.5909 0.7793-3.5909 1.1679 0 1.66 0.63071 1.7098 2.1914 0.036 1.1295-0.032 1.2928-0.6331 1.5214-0.8329 0.31669-0.8516 0.31546-1.856-0.12181zm-325.94 14.911c2.6961-0.17488 11.176-0.2669 21.167-0.22972 18.955 0.0705 46.583-0.36162 49.742-0.77809 4.0391-0.53254 4.0792-0.54512 4.5336-1.4238 0.3778-0.73072 0.3907-1.6852 0.1256-9.3023-0.2789-8.0123-0.2068-26.756 0.1179-30.643 0.082-0.97987 0.018-2.9444-0.1409-4.3656-0.1593-1.4212-0.3151-7.254-0.3463-12.962l-0.057-10.378-0.6029-0.60249c-0.7442-0.74371-2.0644-0.72934-6.7715 0.0737-1.7649 0.30109-3.8638 0.65444-4.6641 0.78523-2.5046 0.40926-11.034 0.42538-13.106 0.0248-2.077-0.4016-4.3086-0.33905-12.824 0.35944-6.4109 0.5259-19.045 0.3835-25.447-0.28683-3.2676-0.34212-6.5612-0.37941-20.77-0.23514-9.2875 0.0943-20.946 0.19225-25.907 0.21765l-9.0208 0.0462-0.1746 9.525c-0.096 5.2388-0.2413 14.645-0.323 20.902-0.082 6.2574-0.2925 13.223-0.4685 15.478-0.1761 2.2556-0.3172 8.3674-0.3135 13.582l0.01 9.4807 1.4928 1.2862 19.626-0.13148c10.795-0.0723 21.651-0.26276 24.124-0.42323zm50.468-4.6552c-0.6194-0.21924-1.6585-0.93089-2.3091-1.5814-1.9598-1.9598-2.7211-5.5136-1.9588-9.1438 0.4168-1.985 1.9199-5.1554 2.52-5.3153 0.2711-0.0722 1.5049-0.1143 2.7418-0.0934 2.7839 0.047 3.7974 0.5821 4.8843 2.5791 0.6028 1.1075 0.7653 1.7925 0.8649 3.6447 0.1435 2.6706-0.5049 7.1517-1.2093 8.3578-1.0813 1.8514-3.0938 2.416-5.5338 1.5524zm2.8573-2.2115c0.7772-0.41591 1.0049-1.0426 1.4551-4.004 0.5886-3.8726 0.2624-5.6145-1.3304-7.1025-0.5903-0.55143-0.9352-0.65171-2.0737-0.60286-1.614 0.0693-1.8341 0.29868-2.5689 2.6775-0.9685 3.1358-0.5415 6.6909 0.9641 8.0274 1.2725 1.1296 2.6124 1.5083 3.5538 1.0044zm12.132 1.2538c-1.7348-1.1663-1.1505-2.5436 0.8941-2.1075 2.1472 0.45794 3.0004-0.39206 2.7573-2.7469-0.3425-3.3187-2.0502-4.1637-5.1435-2.545-0.7916 0.41427-0.8907 0.41573-1.2875 0.0189-0.563-0.56293-0.8718-2.2385-0.886-4.8074-0.011-1.9866 0.024-2.1098 0.8067-2.841 1.1332-1.0586 2.3437-1.3459 5.2672-1.2501 2.4614 0.0806 2.5149 0.096 2.5821 0.7438 0.1328 1.2819-0.2203 1.4452-3.4321 1.5875l-2.9865 0.13229 0.067 1.6983c0.037 0.93408 0.1158 1.7474 0.1757 1.8074 0.06 0.06 0.3496-0.0197 0.6435-0.17698 0.8414-0.45032 2.9884-0.34066 4.0129 0.20497 0.5071 0.27004 1.2711 1.0514 1.6979 1.7363 0.6547 1.051 0.7939 1.5886 0.8913 3.4447 0.14 2.6674-0.1947 3.8152-1.428 4.8981-0.7781 0.68317-1.135 0.80697-2.326 0.80697-1.0265 0-1.6499-0.16341-2.3059-0.6044zm-6.2587-0.23089c-0.8147-0.81475-0.026-1.9911 1.139-1.6987 0.58 0.14557 0.6688 0.29711 0.5987 1.0217-0.066 0.68422-0.2121 0.86599-0.7455 0.92833-0.3648 0.0426-0.8113-0.0705-0.9922-0.25135zm-23.149-3.8291c-0.5973-0.17658-0.884-1.3108-0.4603-1.8213 0.3911-0.47128 5.2642-0.56678 6.0999-0.11954 0.5812 0.31104 0.6753 1.1132 0.1788 1.5251-0.3628 0.30115-5.0686 0.63738-5.8184 0.41573zm-27.054-0.65133c-3.1809-0.76082-8.0876-2.4938-9.2909-3.2814-1.9075-1.2485-6.0208-5.2299-7.3999-7.1626-1.3711-1.9215-3.1175-5.342-3.5373-6.9283l-0.2975-1.1245-3.0987-0.0218c-1.7042-0.012-3.4558-0.0718-3.8924-0.13287-2.3212-0.32495-2.5093-0.39771-2.6686-1.0326-0.2213-0.88158-0.034-1.0901 1.828-2.037 1.5486-0.78749 5.2991-1.7698 6.8437-1.7924 0.6358-9e-3 0.7266-0.12985 0.8547-1.1349 1.002-7.8632 1.5982-10.234 3.345-13.306 0.6544-1.1506 1.9943-2.9071 3.0264-3.9674 1.5841-1.6275 2.2923-2.1165 4.8948-3.3801 7.8415-3.8073 10.405-4.571 16.14-4.8079 6.1293-0.25319 9.3868 0.23783 13.434 2.0249 4.9037 2.1655 6.3019 3.2342 10.073 7.6998 1.4711 1.7418 2.136 2.8005 2.7356 4.3556 1.8686 4.8467 1.8638 4.8195 1.7186 9.7274-0.091 3.0727-0.2754 5.001-0.5822 6.0854-0.247 0.87312-0.7066 2.7781-1.0212 4.2333-0.6361 2.9415-1.918 5.5489-3.6539 7.4322-2.2715 2.4642-8.4692 5.931-14.006 7.8345-2.4774 0.85166-2.4858 0.85257-8.433 0.9111-3.2742 0.0322-6.4293-0.0553-7.0114-0.19455zm10.897-2.081c2.3755-0.27316 5.0522-1.1421 9.4188-3.0577 7.0875-3.1092 9.6411-5.8902 10.928-11.901 0.3429-1.6016 0.7552-3.3288 0.916-3.8381 0.1609-0.50932 0.3586-2.831 0.4393-5.1594l0.1466-4.2333-0.8562-2.5135c-1.2801-3.7578-1.9789-4.8533-5.1666-8.0998-2.7183-2.7684-3.0938-3.0509-5.6885-4.2804-1.528-0.724-3.3735-1.5008-4.1011-1.7262-2.1659-0.67109-5.8269-1.0267-10.186-0.98946-4.8487 0.0414-4.7543 0.0144-15.081 4.3152-3.5169 1.4647-7.4453 6.0496-8.7313 10.191-0.6626 2.1338-1.249 5.2479-1.4359 7.6258l-0.1475 1.8764 2.4454-0.35379c1.3449-0.19459 3.7154-0.47306 5.2677-0.61884s3.9213-0.55917 5.2646-0.91865c3.2027-0.85711 9.7783-1.6217 10.522-1.2235 0.2961 0.15842 0.7715 0.28804 1.0565 0.28804 0.7027 0 0.8395 0.47907 0.8395 2.9406 0 2.3884-0.3952 3.5867-1.4589 4.4234-0.6916 0.54406-0.9963 0.57362-5.919 0.5742-2.8544 3.3e-4 -7.96 0.0789-11.346 0.17467-6.0773 0.17184-6.154 0.18113-6.0039 0.72699 1.0434 3.7958 4.4352 8.3663 8.7692 11.817 1.4504 1.1547 2.4224 1.6844 4.101 2.2344 1.21 0.39649 2.5573 0.87884 2.9938 1.0719 1.803 0.79725 8.74 1.1464 13.014 0.65496zm-7.2462-19.398c0.3932-0.25802 0.7151-0.55567 0.7151-0.66146 2e-4 -0.23557-6.5589 0.077-7.223 0.3442-0.2618 0.10534-1.512 0.34669-2.7781 0.53633-2.2801 0.3415-2.2502 0.34434 3.1344 0.29742 4.7077-0.041 5.5324-0.11026 6.1516-0.51649zm-7.1563-2.4842c-0.1819-0.0734-0.4796-0.0734-0.6615 0s-0.033 0.13345 0.3307 0.13345c0.3638 0 0.5127-0.0601 0.3308-0.13345zm1.5875-0.26459c-0.1819-0.0734-0.4796-0.0734-0.6615 0s-0.033 0.13345 0.3307 0.13345c0.3638 0 0.5127-0.0601 0.3308-0.13345zm1.5875-0.26458c-0.1819-0.0734-0.4796-0.0734-0.6615 0s-0.033 0.13345 0.3307 0.13345c0.3638 0 0.5127-0.0601 0.3308-0.13345zm4.6963-0.49822c0-0.42713 8e-4 -0.42717-2.9104 0.12504-1.1171 0.21189-1.0639 0.22764 0.8599 0.25483 1.6855 0.0238 2.0505-0.0438 2.0505-0.37987zm-46.151-14.559c-0.5599-0.55996-0.5372-0.78495 0.3662-3.616 0.4301-1.3478 0.9708-3.7602 1.2016-5.361s0.6595-3.6455 0.9527-4.544c0.8749-2.6809 1.6066-2.851 3.2097-0.74589 1.3534 1.7772 1.7629 3.2875 2.0791 7.6682 0.2846 3.9412 0.217 4.749-0.4176 4.9926-0.7436 0.28537-1.1137-0.1171-1.4373-1.5633-0.2988-1.3353-0.3787-1.4419-1.0802-1.4419-1.5697 0-1.9495 0.34923-2.4852 2.285-0.7121 2.5736-1.4364 3.2789-2.389 2.3263zm5.6677-7.0587c0-0.7705-0.5608-3.6886-0.8313-4.3621-0.2923-0.72785-0.2952-0.72522-0.6452 0.59-0.1934 0.72661-0.4298 1.947-0.5254 2.712l-0.1738 1.3909h1.0888c0.6958 0 1.0881-0.1194 1.0869-0.33073zm11.204 6.6146c-0.2924-0.32742-1.4145-2.0106-2.4935-3.7403l-1.9619-3.145-0.1323 3.0706c-0.1044 2.4236-0.2278 3.1658-0.5855 3.5227-0.3745 0.37354-0.5698 0.39894-1.1245 0.14623l-0.6712-0.30583v-5.5336c0-5.9106-0.013-5.8548 1.3218-5.8548 0.5828 0 2.6281 2.5462 4.1869 5.2124 0.6127 1.0478 1.2312 1.9776 1.3745 2.0661 0.1669 0.10316 0.2619-1.39 0.2644-4.154 0-4.5888 0.2134-5.5719 1.2165-5.7169 1.1569-0.16728 1.2338 0.33197 1.1026 7.1567-0.132 6.872-0.3089 7.8712-1.3933 7.8712-0.315 0-0.8121-0.26789-1.1045-0.59532zm-25.259-0.90018c-0.5024-0.60479-0.7057-13.146-0.2226-13.728 0.4189-0.5047 1.5532-0.49825 1.7482 0.01 0.1049 0.2736 0.5338 0.39734 1.3807 0.39836 3.9709 5e-3 6.5453 2.5052 5.4353 5.2792-0.6615 1.6533-2.306 2.5173-4.7993 2.5214l-1.9185 3e-3v2.6591c0 2.6077-0.1987 3.2941-0.9478 3.2941-0.1714 0-0.475-0.19672-0.6747-0.43716zm5.4006-8.2007c1.552-0.80258 0.2172-2.448-2.1722-2.6776l-1.3426-0.12901v1.0258c0 0.56422-0.075 1.4648-0.1642 2.0012l-0.1612 0.9754 1.5458-0.40368c0.8503-0.22203 1.884-0.57853 2.2973-0.79224zm-79.979 41.475c5.0259-0.40624 20.348-1.0925 29.104-1.3036 5.9683-0.14385 8.7811-0.30715 9.1943-0.53377 0.5945-0.32608 0.5953-0.33586 0.5953-7.4485 0-4.8549-0.098-7.3372-0.3081-7.7982-0.2399-0.52647-0.2318-0.81869 0.036-1.3199 0.4215-0.78771 0.2547-6.41-0.3731-12.575-0.5445-5.3461-0.3601-5.1479-4.8525-5.216-1.8515-0.028-7.5931-0.22086-12.759-0.4285-6.3724-0.25612-10.882-0.30661-14.023-0.157-2.5466 0.12128-14.19 0.30117-25.873 0.39975l-21.243 0.17924-0.5189 0.65974c-0.2967 0.37714-0.5199 1.0694-0.5211 1.6162 0 1.0166-0.6847 6.6071-0.9376 7.6806-0.2543 1.0797-0.9423 12.037-1.0957 17.452-0.171 6.0348-2e-4 6.9979 1.3128 7.403 0.4702 0.14507 3.1171 0.32014 5.882 0.38904 5.035 0.12547 8.8526 0.46641 12.568 1.1224 2.184 0.38563 18.574 0.30208 23.812-0.12137zm-11.589-13.311c-0.4096-0.40963-0.4199-4.1743-0.015-5.5256 0.4714-1.5732 1.5376-2.4248 3.2096-2.5634 1.2275-0.10179 1.5129-0.0277 2.2353 0.58022 0.4556 0.38329 0.9033 1.0385 0.995 1.4561 0.2028 0.9231-0.4094 2.507-1.1469 2.9676-0.5231 0.32666-0.522 0.33879 0.1017 1.0799 0.647 0.769 0.6362 1.3772-0.029 1.6325-0.2071 0.0795-1.051-0.32805-1.8755-0.90558-0.8244-0.57753-1.5983-1.0501-1.7197-1.0501s-0.2207 0.52304-0.2207 1.1623c0 0.8158-0.1248 1.2102-0.4185 1.3229-0.5908 0.22669-0.7557 0.2035-1.1161-0.1569zm4.4111-5.3813c0.1928-0.19276-0.5467-0.91581-0.9366-0.91581-0.499 0-1.6753 1.1925-1.6753 1.6984 0 0.33698 0.1958 0.31556 1.2513-0.13689 0.6882-0.29501 1.3005-0.58556 1.3606-0.64566zm-29.007 5.1268c-0.409-0.40903-0.4534-5.8425-0.054-6.5892 0.3792-0.7085 1.2674-0.65738 1.4515 0.0835 0.081 0.32742 0.1134 1.9645 0.071 3.638-0.071 2.817-0.1163 3.0484-0.609 3.119-0.2928 0.042-0.6797-0.0711-0.8599-0.25135zm3.1648-0.0101c-0.3323-0.33235-0.458-4.8292-0.1569-5.614 0.3429-0.89351 2.1844-0.15838 4.1389 1.6523l0.7276 0.67404v-1.0684c0-1.5158 0.4763-2.7348 1.0686-2.7348 0.2682 0 0.5602 0.11732 0.6488 0.26072 0.2979 0.48204 0.1646 4.6335-0.183 5.6973-0.5474 1.6754-1.1442 1.532-2.9944-0.71948l-1.5827-1.9259-0.08 1.8421c-0.075 1.7357-0.2971 2.2394-0.992 2.2496-0.1527 2e-3 -0.4206-0.13882-0.5953-0.31345zm9.6029 0.0505c-0.2809-0.45464 0.1442-1.3206 0.6484-1.3206 0.2634 0 0.6401-0.19414 0.837-0.43142 0.309-0.37238 0.2733-0.49006-0.2614-0.8599-0.3407-0.23566-0.9039-0.69095-1.2517-1.0118-1.4462-1.3342-0.2563-3.8962 1.732-3.7292 0.8538 0.0717 0.943 0.15426 0.943 0.87294 0 0.67348-0.1127 0.80667-0.7437 0.87903l-0.7438 0.0853 1.2068 1.1238c1.065 0.99176 1.2068 1.2552 1.2068 2.2418 0 1.515-0.8783 2.4169-2.3536 2.4169-0.5801 0-1.129-0.12013-1.2198-0.26695zm27.218-0.12857c-0.2646-0.68962 0.074-5.4572 0.4704-6.6159 0.5256-1.5377 1.4034-1.4758 2.5079 0.17697l0.8256 1.2353 1.0288-1.4967c1.8919-2.7526 2.744-2.1301 2.744 2.0045 0 2.8017-0.2416 3.7685-0.9419 3.7685-0.526 0-0.9079-1.0778-0.9201-2.5969l-0.01-1.2395-0.85 0.99219c-0.9947 1.1612-1.5954 1.2492-2.2026 0.32247-0.2414-0.36835-0.5063-0.6022-0.5889-0.51967-0.082 0.0825-0.2152 1.0685-0.2949 2.1911-0.1412 1.9899-0.1631 2.0431-0.8739 2.1249-0.4855 0.0558-0.7844-0.0602-0.8945-0.34709zm14.552-1e-3c-0.2096-0.54618 0.041-6.7212 0.2985-7.3424 0.1066-0.25764 0.4709-0.46302 0.8214-0.46302 0.5109 0 0.8024 0.33719 1.5437 1.7859 0.5027 0.98227 1.2142 2.1431 1.5813 2.5797l0.6674 0.79375 0.013-1.4552c0.016-1.8252 0.2114-2.5666 0.7269-2.7644 0.8975-0.34439 1.1311 0.34602 1.1311 3.3433 0 4.57-0.5684 4.9313-3.2634 2.0746l-1.7399-1.8444-0.078 1.7783c-0.075 1.722-0.1011 1.7809-0.8071 1.8621-0.4862 0.0559-0.7844-0.0601-0.895-0.34828zm-19.869-0.30173c-1.1068-0.54567-2.1269-2.6013-2.3488-4.7331-0.1324-1.2715-0.082-1.665 0.2497-1.9401 0.9085-0.75398 1.3374-0.27144 1.8177 2.0451 0.2518 1.2146 0.5955 2.3741 0.7637 2.5768 0.7755 0.93441 1.812-0.0927 2.0539-2.0352 0.1088-0.87325 0.338-1.4812 0.6272-1.6632 0.691-0.43488 1.0684 0.12341 1.2061 1.7841 0.147 1.7725-0.6306 3.37-1.9436 3.993-1.0634 0.50463-1.3534 0.50136-2.4259-0.0274zm14.768-0.0292c-0.7103-0.58047-0.9331-1.9202-0.6928-4.1642 0.2583-2.4124 0.8262-3.0379 2.9311-3.2288 1.2638-0.1146 1.6649-0.0567 1.9448 0.28058 0.4226 0.50911 0.2195 1.1745-0.4281 1.4028-0.2579 0.091-0.8857 0.33835-1.395 0.5498-0.9013 0.37414-0.9101 0.39189-0.3308 0.66282 0.8339 0.38994 0.8034 1.4581-0.048 1.6717l-0.643 0.16137 0.5097 0.83586c0.2803 0.45972 0.5101 1.091 0.5107 1.4029 0 0.95347-1.4029 1.2066-2.359 0.42519zm16.183 0.0186c-0.1085-0.26486-0.1973-1.8163-0.1973-3.4476v-2.966l-1.7171-0.0767c-1.4067-0.0629-1.7334-0.1627-1.8077-0.55246-0.1959-1.0269 0.3981-1.2441 3.4033-1.2441 3.2999 0 3.6934 0.0994 3.6934 0.93332 0 0.46131-0.1904 0.65395-0.7727 0.78185-0.7467 0.164-0.7781 0.23373-0.9304 2.0715-0.087 1.046-0.1855 2.5567-0.2195 3.357-0.055 1.2863-0.131 1.465-0.6583 1.5399-0.3832 0.0544-0.667-0.0875-0.7937-0.39688zm-46.094-0.2073c-0.1767-0.21295-0.3865-1.338-0.4661-2.5001l-0.1449-2.113-1.0853-0.0795c-0.7962-0.0584-1.1093-0.20626-1.1755-0.55529-0.1903-1.0024 0.4133-1.2443 3.0946-1.24 1.401 2e-3 2.7079 0.10579 2.9041 0.23014 0.6637 0.42062 0.2207 1.1897-0.8282 1.4378l-0.997 0.23578 0.037 2.1965c0.021 1.2081-0.043 2.3266-0.1414 2.4857-0.2509 0.40606-0.818 0.35968-1.1978-0.098zm269.92-20.663c5.2865-0.94493 12.574-1.1756 16.247-0.51431 2.7447 0.49419 4.3053 0.46239 9.4942-0.1935 3.717-0.46983 25.942-0.412 28.707 0.0747 3.0446 0.53581 29.647 0.57937 36.777 0.0602 3.5348-0.25735 7.7858-0.35918 12.205-0.29236l6.7806 0.10254 0.1613-2.9179c0.089-1.6048 0.2312-10.478 0.3165-19.719 0.085-9.2406 0.2766-18.23 0.4251-19.976 0.1484-1.7462 0.3194-8.3164 0.3799-14.6l0.1102-11.425-0.6071-0.70573-0.607-0.70573-7.6639-0.0105c-15.268-0.0209-32.938 0.23745-39.282 0.57425-5.3039 0.28158-8.6979 0.28243-18.67 5e-3 -10.746-0.2993-12.703-0.29082-16.536 0.0716-3.2722 0.30934-6.2517 0.37812-12.039 0.27792-10.57-0.18301-23.25 0.46459-24.743 1.2637-1.0127 0.54196-1.1491 1.6445-0.7966 6.4398 0.3204 4.3602 0.4762 29.332 0.3146 50.433-0.077 9.983 0.017 11.178 0.9488 12.11 0.6185 0.61842 0.7808 0.65068 2.4794 0.49281 0.9997-0.0929 3.5191-0.47306 5.5986-0.84477zm70.657-24.259c-0.3659-0.46417 0.039-17.357 0.4619-19.248 0.1788-0.80037 0.5183-1.7875 0.7545-2.1937 0.8375-1.44 2.6625-1.2739 5.0128 0.45631 2.101 1.5467 2.5659 2.8646 1.8515 5.2489-0.3698 1.2344-2.5071 3.6875-3.6113 4.1448l-0.7626 0.3159 2.5031 2.5623c4.0018 4.0964 4.8525 5.5762 3.46 6.0182-0.4945 0.15695-1.0993-0.35887-4.0891-3.4879l-3.5087-3.6721-0.012 4.4145c-0.013 4.8877-0.1915 5.7719-1.1637 5.7719-0.3496 0-0.7529-0.14883-0.8964-0.33073zm3.7121-13.975c2.303-1.5255 2.9032-3.393 1.5314-4.7648-1.0856-1.0856-2.2466-1.0697-2.632 0.0359-0.3998 1.1469-0.7028 5.5407-0.3821 5.5407 0.1414 0 0.8086-0.3653 1.4827-0.81177zm-69.128 12.857c-0.248-0.29872-0.2817-1.9948-0.1435-7.2099 0.2618-9.8784 0.6555-11.718 2.9621-13.845 1.9024-1.7535 2.927-2.0902 6.381-2.0969 4.6216-9e-3 5.8764 0.86498 5.8764 4.0929 0 1.6936-0.028 1.764-1.1409 2.877-1.6734 1.6734-4.6259 2.9268-8.1992 3.4808l-1.0058 0.15592 1.3204 1.5242c0.7262 0.83829 2.8159 3.0896 4.6438 5.0028 3.4418 3.6027 3.9892 4.574 2.7919 4.954-0.7254 0.23022-1.973-0.8875-6.9061-6.187-3.8029-4.0854-4.0485-4.298-4.2796-3.7042-0.1382 0.35519-0.1827 2.758-0.102 5.5082 0.086 2.9398 0.041 5.0688-0.1136 5.3578-0.3136 0.58595-1.626 0.64199-2.0849 0.089zm7.2071-15.468c2.4969-0.63859 3.897-1.3415 4.7929-2.4062 0.8259-0.98145 0.8716-1.5666 0.1884-2.4094-0.4637-0.57208-0.703-0.62414-2.8442-0.61882-1.8735 5e-3 -2.5482 0.11809-3.3963 0.57108-1.7763 0.94876-3.0106 2.5745-3.4288 4.5163l-0.1851 0.8599h1.4339c0.7886 0 2.3363-0.23079 3.4392-0.51287zm14.176 15.211c-0.4182-0.23931-0.8698-0.86124-1.1117-1.5312-0.4743-1.3135-1.1568-8.3376-1.4721-15.151-0.1938-4.1859-0.1701-4.8025 0.1953-5.0932 0.574-0.4566 9.067-0.4684 9.5221-0.0132 0.1747 0.17462 0.3175 0.59429 0.3175 0.93259 0 0.98515-0.9817 1.1778-4.9517 0.97192l-3.5314-0.18317 0.2728 0.71759c0.1501 0.39468 0.2728 2.2577 0.2728 4.14v3.4224h3.2901c3.6393 0 4.6474 0.22958 4.6474 1.0583 0 0.82381-1.0052 1.0583-4.5361 1.0583h-3.1788l0.1453 0.72761c0.08 0.40018 0.2715 1.9146 0.4256 3.3654 0.1541 1.4508 0.4581 2.9093 0.6755 3.2412 0.4622 0.70535 0.9578 0.73659 5.242 0.33032 1.581-0.14992 3.0881-0.20482 3.349-0.122 0.6318 0.20052 0.891 0.94072 0.467 1.3336-0.502 0.46505-3.1557 0.90135-6.441 1.059-2.3001 0.11035-3.0401 0.0561-3.5996-0.26409zm19.142-0.34439c-0.2963-0.25466-1.2158-2.0704-2.0432-4.0349-0.8273-1.9645-2.5517-5.8341-3.8319-8.599-2.5443-5.495-2.9975-6.7528-2.8624-7.9423 0.079-0.6991 0.201-0.79823 1.0676-0.87024 0.9418-0.0783 0.9886-0.0413 1.269 0.99969 0.16 0.59453 0.9536 2.5956 1.7634 4.4469 0.8098 1.8513 2.1112 5.005 2.892 7.0082s1.5866 3.9611 1.7908 4.3507l0.3712 0.70843 0.1876-1.1757c0.1033-0.64664 0.4656-2.3068 0.8053-3.6892 0.6697-2.7256 1.3132-6.1597 1.5865-8.4667 0.257-2.1688 0.6002-3.304 1.1492-3.8008 0.5575-0.5046 1.2898-0.34055 1.4177 0.31762 0.2744 1.4126-0.5524 6.9779-1.7753 11.95-0.34 1.3824-0.7463 3.3652-0.9028 4.4062-0.3985 2.6501-1.3773 4.831-2.1767 4.8502-0.093 2e-3 -0.4116-0.2043-0.708-0.45897zm42.454-0.0569c-1.6346-0.52589-2.2612-1.7882-2.8285-5.6978-0.1689-1.1642-0.7051-3.724-1.1916-5.6885-1.1947-4.8249-1.4855-6.6767-1.3901-8.852l0.081-1.8405 1.3229-0.48862c1.539-0.56843 3.3838-0.46888 5.3065 0.28633 2.8135 1.1052 4.1925 3.0278 4.2087 5.8677 0.013 2.2974-0.5849 3.3136-2.5759 4.3779l-1.5079 0.80602 1.253 0.33436c3.6483 0.97349 6.8173 4.8083 6.2912 7.613-0.2395 1.2767-1.2978 2.3816-2.7308 2.8509-1.5424 0.50516-5.2187 0.7593-6.2383 0.43124zm5.2007-2.1434c1.8456-0.51251 1.9812-2.4653 0.3071-4.4212-1.1949-1.3959-3.2397-2.3889-5.3779-2.6115-1.573-0.16375-1.6746-0.142-1.5346 0.32857 0.082 0.27716 0.3283 1.4672 0.5464 2.6446 0.4876 2.6321 0.8578 3.4773 1.7312 3.9523 0.8106 0.44088 2.9367 0.49357 4.3278 0.10726zm-5.0255-10.947c2.3516-1.1697 3.0943-1.9472 3.0943-3.2393 0-2.0679-1.5231-3.5839-4.0414-4.0224-2.5833-0.44986-2.4048-0.63216-2.2385 2.2853 0.1549 2.7187 0.7126 6.2201 0.969 6.0839 0.083-0.0442 1.0808-0.54264 2.2166-1.1076zm-31.143 12.673c-0.2248-0.22478-0.5267-0.84985-0.671-1.3891-0.299-1.1176-0.8794-18.616-0.6383-19.244 0.4354-1.1348 3.8377-1.9519 8.1962-1.9684 2.3347-9e-3 2.8561 0.25509 2.6985 1.3663-0.085 0.59695-0.1733 0.61402-4.1875 0.80545-2.2555 0.10757-4.2498 0.25266-4.4317 0.32243-0.245 0.0939-0.3308 1.1928-0.3308 4.2362v4.1094h3.0601c3.3291 0 4.0837 0.21651 4.0837 1.1716 0 0.81568-0.4073 0.94446-2.9982 0.94795-1.1887 2e-3 -2.5834 0.0728-3.0994 0.15816l-0.9383 0.15525 0.083 3.8591c0.045 2.1225 0.1176 3.8939 0.1601 3.9364 0.043 0.0425 1.5586-0.0974 3.369-0.31082 4.114-0.48508 5.3938-0.49158 5.7774-0.0294 0.798 0.96146-0.4441 1.4619-4.9923 2.0116-3.1867 0.3851-4.6569 0.3457-5.1403-0.13776zm102.5 14.542c0-0.82887-0.6213-0.73814-0.746 0.10892-0.056 0.38158 0.055 0.57459 0.3308 0.57459 0.2701 0 0.4152-0.23888 0.4152-0.68351zm-11.235-4.7186c0.4406-0.67239 0.3169-2.3839-0.1951-2.7004-0.3859-0.23851-2.0638 1.5081-2.0638 2.1483 0 1.2609 1.5468 1.6389 2.2589 0.55206zm-14.254-2.6016c-0.073-0.1819-0.1335-0.0331-0.1335 0.33073 0 0.3638 0.06 0.51263 0.1335 0.33073 0.073-0.1819 0.073-0.47956 0-0.66146zm-4.3879-23.832c-0.204-0.20397-0.2853-0.0565-0.2853 0.5173 0 1.0445 0.3713 1.4183 0.4837 0.48704 0.048-0.39549-0.042-0.84745-0.1984-1.0043zm12.494-6.2562c-0.2104-0.80459-0.8248-1.222-1.2147-0.82534-0.2504 0.2548-0.1845 0.4354 0.3051 0.83546 0.7962 0.65052 1.0815 0.64734 0.9096-0.0101zm8.9797-5.0919c0.1828-0.54846-0.1134-1.5586-0.4265-1.4543-0.5807 0.19333-0.5195 1.7751 0.069 1.7751 0.138 0 0.299-0.14433 0.3578-0.32074zm-324.65-0.88596c5.2865-0.94494 12.574-1.1756 16.247-0.51432 2.7446 0.49419 4.3052 0.46239 9.4941-0.1935 3.717-0.46983 25.942-0.412 28.707 0.0747 3.0447 0.53581 29.647 0.57937 36.777 0.0602 3.5347-0.25735 7.7857-0.35918 12.205-0.29236l6.7807 0.10254 0.1613-2.9179c0.089-1.6048 0.2311-10.478 0.3164-19.719 0.085-9.2406 0.2767-18.23 0.4251-19.976s0.3194-8.3164 0.3799-14.6l0.1102-11.425-0.6071-0.70573-0.607-0.70573-7.6638-0.0105c-15.268-0.0208-32.938 0.23745-39.282 0.57425-5.3039 0.28158-8.6979 0.28243-18.67 5e-3 -10.746-0.29929-12.703-0.29082-16.536 0.0716-3.2722 0.30934-6.2517 0.37812-12.039 0.27792-10.57-0.18301-23.25 0.4646-24.744 1.2637-1.0127 0.54197-1.1491 1.6445-0.7966 6.4398 0.3204 4.3602 0.4762 29.332 0.3146 50.433-0.076 9.983 0.017 11.178 0.9488 12.11 0.6185 0.61842 0.7808 0.65068 2.4794 0.49281 0.9997-0.0929 3.5191-0.47305 5.5987-0.84476zm85.252-5.5186c-1.0475-0.45613-2.3346-2.0215-2.7202-3.3083-0.6887-2.2988-0.2115-5.882 1.1142-8.3667 0.8861-1.6609 1.2227-1.8539 3.7432-2.1467 1.5674-0.18211 3.2878 0.99138 4.1926 2.8598 1.7378 3.5886 0.8241 9.5033-1.6749 10.843-1.093 0.58596-3.4444 0.64604-4.6549 0.11895zm3.6672-2.3367c0.6389-0.47972 1.2484-2.4363 1.2466-4.002 0-1.9719-0.4622-3.3276-1.4719-4.3374-1.9985-1.9984-3.7218-0.34589-4.009 3.8442-0.1209 1.7634-0.059 2.2301 0.4195 3.1682 0.3087 0.6051 0.7705 1.222 1.0262 1.3709 0.6487 0.37778 2.2607 0.3524 2.7886-0.0439zm10.883 2.0713c-1.0806-0.47048-1.962-1.6287-1.962-2.5783 0-0.87563 0.6377-1.2644 1.2928-0.78806 2.1439 1.5588 3.2723 1.7652 4.187 0.7659 1.2211-1.3342 1.086-3.1401-0.3419-4.568-0.8497-0.84968-1.0478-0.92214-2.5212-0.92214-1.4052 0-1.6904-0.0914-2.353-0.75394-0.4562-0.45621-0.8185-1.1615-0.9174-1.7859-0.09-0.5676-0.2979-1.4833-0.4622-2.035-0.4776-1.6033-0.089-1.8019 3.857-1.9723 3.616-0.15616 4.1381-0.01 4.1381 1.1621 0 0.88036-0.868 1.1517-3.6846 1.1517h-2.3273l0.5628 2.1087 1.3661-0.16055c1.7467-0.2053 2.9193 0.1873 4.1607 1.3931 1.8262 1.7737 2.2749 5.2803 0.9501 7.4239-1.0348 1.6743-3.9339 2.4344-5.945 1.5588zm-6.131-0.98838c-0.8148-0.81475-0.026-1.9911 1.139-1.6987 0.58 0.14556 0.6688 0.2971 0.5987 1.0217-0.066 0.68422-0.2121 0.86599-0.7455 0.92833-0.3648 0.0426-0.8113-0.0705-0.9922-0.25135zm-48.88-5.2742c-3.1809-0.76082-8.0876-2.4938-9.2909-3.2814-1.9075-1.2485-6.0208-5.2299-7.3999-7.1626-1.6368-2.2938-3.1959-5.5241-3.7044-7.6751-0.736-3.1138-0.089-10.881 1.3094-15.707 0.8241-2.8453 2.5933-5.8303 4.7983-8.0956 1.5841-1.6275 2.2923-2.1165 4.8948-3.3801 7.8415-3.8073 10.405-4.571 16.14-4.8079 6.1293-0.2532 9.3868 0.23782 13.434 2.0249 4.9037 2.1655 6.3019 3.2342 10.073 7.6997 1.4711 1.7418 2.136 2.8005 2.7356 4.3556 1.3087 3.3944 1.8032 5.0889 1.8032 6.1791v1.0348l2.0505 5e-3c2.3788 5e-3 4.8975 0.48834 7.1068 1.3629 1.2835 0.50807 1.5723 0.73753 1.6378 1.301 0.044 0.37626-0.075 0.80723-0.2645 0.9577-0.4291 0.3411-5.1154 1.5745-8.2679 2.176l-2.3675 0.45173-0.4726 1.834c-0.26 1.0087-0.7239 3.0246-1.031 4.4798-0.963 4.5632-2.9388 7.5512-6.7232 10.167-2.4021 1.6606-7.5859 4.1845-11.017 5.3639-2.4774 0.85165-2.4858 0.85256-8.433 0.91109-3.2742 0.0322-6.4293-0.0553-7.0114-0.19455zm10.897-2.081c2.3755-0.27316 5.0522-1.1421 9.4188-3.0577 6.8701-3.0138 9.6461-5.9337 10.798-11.358 0.28-1.3183 0.7046-3.1427 0.9436-4.0543 0.2389-0.91159 0.3864-1.7027 0.3279-1.7579-0.059-0.0553-1.1185-1e-3 -2.3554 0.11977-6.9614 0.68181-10.356 1.129-14.155 1.8648-4.7233 0.9147-6.1536 0.90585-7.165-0.0443-0.8697-0.81704-1.434-2.8374-1.434-5.1345 0-1.9457 0.2528-2.5184 1.1113-2.5184 0.2619 0 0.4762-0.10004 0.4762-0.22232s0.6251-0.36825 1.3891-0.5466c1.0081-0.23536 4.2731-0.30136 11.906-0.2407l10.517 0.0836v-0.79375c0-1.0437-1.622-5.6506-2.528-7.1966-0.3926-0.66981-1.9781-2.4977-3.5234-4.062-2.595-2.627-3.0218-2.9448-5.5877-4.1624-1.528-0.72501-3.3735-1.5027-4.1011-1.7281-2.1659-0.67109-5.8269-1.0267-10.186-0.98947-4.4893 0.0384-4.8713 0.12806-10.716 2.5159-6.5101 2.6599-6.2248 2.4994-8.4666 4.7632-3.2098 3.2412-4.4574 5.6833-5.5713 10.905-0.5444 2.5521-0.6419 9.4338-0.1587 11.199 1.2138 4.4348 4.3367 8.7786 8.9539 12.455 1.4504 1.1548 2.4224 1.6844 4.101 2.2344 1.21 0.3965 2.5573 0.87884 2.9938 1.0719 1.803 0.79725 8.74 1.1464 13.014 0.65495zm2.7512-20.112c4.7151-0.84316 6.5655-1.0974 9.7548-1.3401 1.9555-0.14882 3.6116-0.32677 3.6803-0.39545 0.236-0.23602-2.482-0.1138-6.0487 0.272-1.9646 0.21249-5.209 0.38872-7.2099 0.39161-3.3495 5e-3 -3.6381 0.0437-3.6381 0.49033 0 0.26679 0.079 0.56445 0.1764 0.66146 0.2514 0.25135 1.6188 0.2181 3.2852-0.0799zm7.1218-3.5802c1.819-0.21575 5.242-0.39331 7.6067-0.39457 2.3648-1e-3 4.2995-0.10354 4.2995-0.22727s-1.0898-0.30232-2.4219-0.39687c-3.0602-0.21723-19.353-0.22648-19.914-0.0113-0.2302 0.0883-0.4185 0.44551-0.4185 0.79375v0.63315l3.7703-2e-3c2.0736-1e-3 5.2586-0.17883 7.0776-0.39458zm15.28-0.84384c-0.2547-0.0665-0.6714-0.0665-0.9261 0-0.2546 0.0666-0.046 0.121 0.463 0.121 0.5094 0 0.7177-0.0545 0.4631-0.121zm-80.698-13.333c-0.6918-0.40294-0.5646-1.1576 0.4311-2.5579 0.8896-1.2511 2.2721-4.1955 3.5099-7.4751 0.8694-2.3036 1.3-2.9104 2.0652-2.9104 1.2628 0 2.5091 4.0072 2.9414 9.4572 0.1837 2.3165-0.1536 3.1807-1.1215 2.8735-0.3885-0.12332-0.6234-0.56861-0.8618-1.634-0.244-1.09-0.4092-1.3969-0.6462-1.2002-0.1751 0.14533-0.8713 0.30047-1.5472 0.34477-1.0487 0.0687-1.2951 0.1969-1.6807 0.87427-0.5771 1.0136-1.9852 2.516-2.3483 2.5055-0.1534-4e-3 -0.4872-0.1294-0.7419-0.27773zm6.2879-6.5272c-0.104-0.83675-0.2535-1.6262-0.3321-1.7544-0.1068-0.17427-1.3917 2.509-1.3917 2.9063 0 0.0384 0.3274 0.11937 0.7276 0.17999 0.4002 0.0606 0.8306 0.12806 0.9565 0.14987 0.1259 0.0218 0.1438-0.64497 0.04-1.4817zm5.8357 6.1327c-0.4526-0.45264-0.5269-4.0585-0.1877-9.1092l0.1688-2.5135 0.8058-0.0789c0.6884-0.0674 1.0403 0.16546 2.417 1.5991 1.03 1.0727 2.0221 2.4851 2.7502 3.9153l1.1389 2.2373 0.1991-1.0583c0.1095-0.58208 0.206-2.493 0.2144-4.2466 0.016-3.2729 0.1756-3.8232 1.1109-3.8232 0.6298 0 0.709 0.18466 1.0366 2.4176 0.7055 4.8079-1.109 10.862-3.0342 10.123-0.2261-0.0868-1.2475-1.8062-2.2698-3.8209s-1.977-3.7363-2.1216-3.8257c-0.1696-0.10485-0.2629 1.2362-0.2629 3.7809 0 3.4842-0.056 3.9943-0.4838 4.3812-0.6041 0.54668-0.9519 0.55187-1.4817 0.0221zm-18.319-0.17954c-0.114-0.1819-0.2432-2.3548-0.2873-4.8286-0.044-2.4738-0.2139-4.9405-0.3772-5.4815-0.469-1.5534-0.024-1.8856 2.3234-1.735 2.2368 0.14355 3.6835 0.79833 4.5362 2.0531 1.5842 2.3311-0.3347 5.5566-3.3072 5.5593l-1.1245 9.9e-4v1.9627c0 1.0795-0.072 2.1511-0.1606 2.3813-0.191 0.49755-1.3079 0.55873-1.6028 0.0878zm3.2936-6.8155c1.0268-0.62603 1.2562-1.0925 0.8815-1.7926-0.256-0.4784-1.7862-1.3118-1.9916-1.0848-0.051 0.056-0.1437 0.84589-0.2069 1.7554-0.1277 1.8405-0.017 1.9351 1.317 1.122zm-78.789 43.393c5.4571-0.14357 11.886-0.23176 14.288-0.19598 2.4011 0.0358 8.5626 0.0353 13.692-1e-3 8.9269-0.0633 9.3493-0.0888 9.8558-0.59531 0.3598-0.35989 0.5291-0.88195 0.5291-1.632 0-0.60654 0.1132-1.8269 0.2515-2.712 0.84-5.3759 1.1499-8.022 1.2418-10.605 0.057-1.6007 0.2389-4.4582 0.4041-6.35 0.3452-3.9511 0.4128-10.121 0.1268-11.572-0.1206-0.6119-0.4175-1.1108-0.7788-1.3086-0.367-0.20087-2.5988-0.38634-6.0079-0.49928-5.3643-0.17771-7.8098-0.40086-13.243-1.2084-2.2994-0.34175-4.3313-0.38647-11.509-0.25333-4.7944 0.0889-10.146 0.26806-11.892 0.39807-9.0756 0.6757-17.532 1.0261-34.396 1.4253-2.0765 0.0491-3.6755 0.21074-4.0349 0.40775l-0.5953 0.32634v10.714c0 7.3758 0.1182 11.886 0.3792 14.477 0.2086 2.0695 0.459 4.628 0.5565 5.6854 0.2929 3.1778-0.02 3.0415 7.5638 3.2991 3.5472 0.12048 8.8902 0.32445 11.873 0.45326 2.9832 0.12882 6.8527 0.18346 8.599 0.12143 1.7462-0.062 7.6398-0.23025 13.097-0.37382zm-34.597-13.535c-0.409-0.40903-0.4534-5.8425-0.054-6.5892 0.3792-0.7085 1.2674-0.65738 1.4515 0.0835 0.081 0.32742 0.1134 1.9645 0.071 3.638-0.071 2.817-0.1163 3.0484-0.609 3.119-0.2928 0.042-0.6797-0.0711-0.8599-0.25135zm3.1648-0.0101c-0.3323-0.33235-0.458-4.8292-0.1569-5.614 0.3429-0.8935 2.1844-0.15837 4.1389 1.6523l0.7276 0.67404v-1.0684c0-1.5158 0.4763-2.7348 1.0686-2.7348 0.2682 0 0.5602 0.11732 0.6488 0.26072 0.2979 0.48204 0.1646 4.6335-0.183 5.6973-0.5474 1.6754-1.1442 1.532-2.9944-0.71948l-1.5827-1.9259-0.08 1.8421c-0.075 1.7357-0.2971 2.2394-0.992 2.2496-0.1527 2e-3 -0.4206-0.13882-0.5953-0.31345zm9.6029 0.0506c-0.2809-0.45464 0.1442-1.3206 0.6484-1.3206 0.2634 0 0.6401-0.19414 0.837-0.43142 0.309-0.37238 0.2733-0.49006-0.2614-0.8599-0.3407-0.23566-0.9039-0.69095-1.2517-1.0118-1.4462-1.3342-0.2563-3.8962 1.732-3.7292 0.8538 0.0717 0.943 0.15426 0.943 0.87294 0 0.67348-0.1127 0.80667-0.7437 0.87903l-0.7438 0.0853 1.2068 1.1238c1.065 0.99176 1.2068 1.2552 1.2068 2.2418 0 1.515-0.8783 2.4169-2.3536 2.4169-0.5801 0-1.129-0.12013-1.2198-0.26695zm11.828-0.0506c-0.4096-0.40964-0.4199-4.1743-0.015-5.5256 0.4714-1.5732 1.5376-2.4248 3.2096-2.5634 1.2275-0.10179 1.5129-0.0277 2.2353 0.58021 0.4556 0.3833 0.9033 1.0385 0.995 1.4561 0.2028 0.92311-0.4094 2.507-1.1469 2.9676-0.5231 0.32667-0.522 0.3388 0.1017 1.0799 0.647 0.76901 0.6362 1.3772-0.029 1.6326-0.2071 0.0795-1.051-0.32806-1.8755-0.90559-0.8244-0.57753-1.5983-1.05-1.7197-1.05s-0.2207 0.52304-0.2207 1.1623c0 0.81581-0.1248 1.2102-0.4185 1.3229-0.5908 0.22668-0.7557 0.20349-1.1161-0.1569zm4.4111-5.3813c0.1928-0.19277-0.5467-0.91581-0.9366-0.91581-0.499 0-1.6753 1.1925-1.6753 1.6984 0 0.33698 0.1958 0.31556 1.2513-0.13689 0.6882-0.29502 1.3005-0.58557 1.3606-0.64566zm10.978 5.3032c-0.2646-0.68962 0.074-5.4572 0.4704-6.6159 0.5256-1.5377 1.4034-1.4758 2.5079 0.17697l0.8256 1.2353 1.0288-1.4967c1.8919-2.7526 2.744-2.1301 2.744 2.0045 0 2.8017-0.2416 3.7685-0.9419 3.7685-0.526 0-0.9079-1.0778-0.9201-2.5969l-0.01-1.2395-0.85 0.99219c-0.9947 1.1612-1.5954 1.2492-2.2026 0.32246-0.2414-0.36834-0.5063-0.60219-0.5889-0.51967-0.082 0.0825-0.2152 1.0685-0.2949 2.1911-0.1412 1.9899-0.1631 2.0431-0.8739 2.1249-0.4855 0.0558-0.7844-0.0602-0.8945-0.34709zm-5.3174-0.30292c-1.1068-0.54567-2.1269-2.6013-2.3488-4.7331-0.1324-1.2715-0.082-1.665 0.2497-1.9401 0.9085-0.75398 1.3374-0.27144 1.8177 2.0451 0.2518 1.2146 0.5955 2.3741 0.7637 2.5768 0.7755 0.93441 1.812-0.0927 2.0539-2.0352 0.1088-0.87325 0.338-1.4812 0.6272-1.6632 0.691-0.43487 1.0684 0.12342 1.2061 1.7841 0.147 1.7725-0.6306 3.37-1.9436 3.993-1.0634 0.50463-1.3534 0.50135-2.4259-0.0274zm19.869 0.0371c-0.2096-0.54618 0.041-6.7212 0.2985-7.3424 0.1066-0.25763 0.4709-0.46302 0.8214-0.46302 0.5109 0 0.8024 0.3372 1.5437 1.7859 0.5027 0.98227 1.2142 2.1431 1.5813 2.5797l0.6674 0.79375 0.013-1.4552c0.016-1.8252 0.2114-2.5666 0.7269-2.7644 0.8975-0.34438 1.1311 0.34603 1.1311 3.3434 0 4.57-0.5684 4.9313-3.2634 2.0745l-1.7399-1.8444-0.078 1.7783c-0.075 1.722-0.1011 1.7809-0.8071 1.8621-0.4862 0.0559-0.7844-0.0601-0.895-0.34829zm11.082-0.0477c-0.1085-0.26486-0.1973-1.8163-0.1973-3.4476v-2.966l-1.7171-0.0767c-1.4067-0.0629-1.7334-0.1627-1.8077-0.55246-0.1959-1.0269 0.3981-1.2441 3.4033-1.2441 3.2999 0 3.6934 0.0994 3.6934 0.93332 0 0.46131-0.1904 0.65395-0.7727 0.78185-0.7467 0.164-0.7781 0.23373-0.9304 2.0715-0.087 1.046-0.1855 2.5567-0.2195 3.357-0.055 1.2863-0.131 1.465-0.6583 1.5399-0.3832 0.0544-0.667-0.0875-0.7937-0.39688zm-46.094-0.2073c-0.1767-0.21295-0.3865-1.338-0.4661-2.5001l-0.1449-2.113-1.0853-0.0796c-0.7962-0.0584-1.1093-0.20625-1.1755-0.55528-0.1903-1.0024 0.4133-1.2443 3.0946-1.24 1.401 2e-3 2.7079 0.10579 2.9041 0.23014 0.6637 0.42062 0.2207 1.1897-0.8282 1.4378l-0.997 0.23578 0.037 2.1965c0.021 1.2081-0.043 2.3266-0.1414 2.4857-0.2509 0.40606-0.818 0.35968-1.1978-0.098zm29.911-0.0758c-0.7103-0.58046-0.9331-1.9202-0.6928-4.1642 0.2583-2.4124 0.8262-3.0379 2.9311-3.2288 1.2955-0.11747 1.6618-0.0604 1.966 0.30612 0.525 0.63259 0.1089 1.175-1.3018 1.6968-1.3074 0.48354-1.6299 0.96176-0.8217 1.2183 0.7248 0.23005 0.7367 1.3629 0.017 1.5915-0.4918 0.1561-0.5007 0.2184-0.1323 0.93074 0.2171 0.41989 0.3948 0.99474 0.3948 1.2774 0 0.90524-1.4316 1.131-2.36 0.37217zm445.47 13.146c0.4827-0.16827 0.9185-0.5679 1.0821-0.99219 0.1624-0.42136 0.3225-4.6937 0.3934-10.5 0.073-6.0169 0.2899-11.676 0.5616-14.684 0.3828-4.2393 0.4233-7.552 0.3026-24.739-0.077-10.914-0.2377-21.542-0.3578-23.617-0.3002-5.1866 0.053-4.9033-6.2053-4.9765-3.4784-0.0407-5.287-0.17711-6.4278-0.48495-0.8731-0.2356-3.3734-0.54448-5.5562-0.6864s-5.338-0.3768-7.0115-0.52196c-3.8881-0.33724-16.567-0.34926-20.592-0.0195-7.2777 0.59626-13.688 0.93761-17.608 0.93761h-4.2007l0.195 9.6573c0.1072 5.3115 0.2369 11.86 0.2881 14.552 0.051 2.6921 0.1464 5.1044 0.2114 5.3607s0.017 2.8756-0.1068 5.8208-0.3018 10.055-0.3957 15.799c-0.116 7.1034-0.2902 11.124-0.5443 12.568-0.4381 2.489-0.5104 11.238-0.1108 13.398 0.1743 0.94194 0.4784 1.6142 0.8969 1.9827 0.6278 0.55279 0.8056 0.55921 20.969 0.75685 11.185 0.10964 24.027 0.28035 28.538 0.37937 13.688 0.30043 14.84 0.30109 15.678 9e-3zm-44.518-10.027c-4.1691-0.86531-5.8113-1.9091-8.092-5.1434-1.9828-2.812-2.4738-4.6964-2.2742-8.7275 0.3349-6.7607 2.1403-11.667 5.4379-14.778 1.8844-1.7776 4.9675-3.5534 7.4237-4.2758 1.3911-0.40916 4.0098-0.57613 4.311-0.27488 0.081 0.0813 0.9746 0.17441 1.9852 0.20693 2.276 0.0732 4.4343 1.0701 6.9201 3.1963 1.9506 1.6684 3.1219 3.22 4.44 5.8814 0.8405 1.6971 0.9514 2.1751 1.0775 4.6456 0.077 1.5146 0 4.1757-0.1812 5.9135-0.807 7.9255-2.045 10.375-6.4263 12.716l-1.9217 1.0268-5.1594 0.0535c-4.1664 0.0432-5.6177-0.0416-7.5406-0.4407zm11.237-1.6144c3.009-0.48819 5.4714-2.3026 6.6472-4.898 0.9254-2.0425 1.347-5.6346 1.253-10.675l-0.087-4.6641-0.9081-1.8432c-1.1501-2.3343-4.2665-5.5362-6.368-6.5426-1.6886-0.80874-5.9038-1.4241-7.8035-1.1393-1.8328 0.27484-5.7319 2.3492-7.5099 3.9952-3.122 2.8904-4.8848 8.0133-4.9122 14.275-0.014 3.2138 0.033 3.5413 0.7108 4.989 0.4731 1.0099 1.3944 2.2176 2.6458 3.4681l1.9201 1.9187 2.7781 0.68088c2.2575 0.55331 3.4474 0.68392 6.35 0.69705 1.9645 9e-3 4.3422-0.10883 5.2837-0.26158zm-9.1202-9.8497c-0.5846-0.33018-1.2907-1.0287-1.5776-1.5608-0.4849-0.89942-0.497-1.1172-0.1821-3.2947 0.6082-4.2068 2.1391-5.9152 5.3006-5.9152 2.9225 0 3.8895 0.71524 5.0558 3.7396 0.9621 2.4949 0.9871 3.3794 0.1464 5.1852-0.9587 2.0592-1.7658 2.4511-5.0389 2.447-2.2544-3e-3 -2.8024-0.0918-3.7042-0.60105zm6.5562-1.9957c0.8417-0.84173 0.9257-3.039 0.1822-4.7672-0.6843-1.5907-1.1261-1.9013-2.7515-1.9339-1.815-0.0364-2.8818 0.76237-3.4559 2.5876-0.5459 1.7353-0.6456 3.3996-0.2287 3.8165 1.1341 1.1341 5.2226 1.3283 6.2539 0.29703zm13.312-26.769c-1.5875-0.61993-2.4809-1.4509-3.8971-3.6245-1.2982-1.9926-1.5442-3.402-0.9202-5.2731 0.5454-1.6355 2.0911-3.6819 3.5619-4.7157 1.0829-0.76118 1.2798-0.80394 3.7008-0.80394 2.3832 0 2.6738 0.0603 4.2767 0.88787 3.4339 1.7728 4.0304 2.7469 4.0013 6.5343-0.029 3.8474-0.974 6.1031-2.9959 7.1551-1.1242 0.58489-6.0829 0.48226-7.7275-0.15994zm7.3584-2.1275c0.7174-0.62985 0.9878-1.1372 1.2312-2.3096 0.3854-1.8563 0.1912-4.5983-0.3882-5.4826-1.1469-1.7504-4.5877-2.9773-7.0436-2.5116-1.7226 0.32669-2.8713 1.326-3.8695 3.3662-0.8519 1.7412-0.7211 2.6404 0.691 4.7512 1.5698 2.3466 2.8138 2.9344 6.2862 2.9708 2.0608 0.0216 2.2214-0.0191 3.0929-0.78438zm-5.4838-4.4723c-0.9166-0.98037-0.8838-1.9532 0.07-2.0878 0.3557-0.0502 0.7724 0.0705 0.9261 0.26822 0.1536 0.19772 0.6141 0.57374 1.0232 0.8356 1.0825 0.69288 0.8966 1.6077-0.347 1.7079-0.7424 0.0598-1.074-0.0837-1.6725-0.72386zm-61.401 213.32c-0.8932-1.3618-3.4085-7.8693-4.7364-12.253l-1.0818-3.5719-0.1012-8.8134c-0.1072-9.3348-0.066-9.689 1.1045-9.5218 0.5442 0.0778 0.5545 0.21126 0.7053 9.0747 0.1472 8.6587 0.1786 9.0851 0.8394 11.377 0.8738 3.0309 2.8428 8.3255 4.2065 11.311 1.1411 2.4982 1.2046 3.1947 0.3031 3.3236-0.4243 0.0607-0.7537-0.18541-1.2394-0.92604zm-13.937-10.983c-0.455-1.0242-0.6509-2.0288-0.7264-3.7245-0.112-2.5162 0.1346-3.1889 1.1173-3.0485 0.5033 0.0719 0.5673 0.30842 0.721 2.6642 0.093 1.4219 0.3109 2.9287 0.4847 3.3483 0.4451 1.0745 0.2628 1.9864-0.4166 2.0834-0.4466 0.0638-0.6804-0.19837-1.18-1.3229zm-35.021-35.288c-0.2287-0.22868-0.4158-0.52237-0.4158-0.65264 0-0.13028 1.4247-1.3775 3.166-2.7716 5.056-4.048 6.0932-5.6838 6.3014-9.9389 0.2223-4.5424-1.0083-8.7932-3.1969-11.044-1.5899-1.6347-4.5585-3.4148-6.2787-3.765-3.1486-0.64091-3.0345-0.5813-3.0345-1.5849v-0.91614l2.0049 0.0112c1.7891 0.01 2.2467 0.1273 4.2528 1.0899 3.0756 1.4758 5.4834 3.7361 6.689 6.2793 2.3817 5.0243 2.6544 11.623 0.6439 15.58-1.2255 2.4124-7.7148 8.1279-9.2282 8.1279-0.2685 0-0.6752-0.1871-0.9039-0.41577zm-40.516-0.0969c-3.5855-0.85818-7.47-5.3344-9.5431-10.997-0.39-1.0654-0.4811-2.0698-0.4679-5.1594 0.014-3.4054 0.095-4.0743 0.7131-5.9531 1.1151-3.3875 2.8318-5.7438 5.5097-7.5623 0.8396-0.57016 1.7019-1.0366 1.9163-1.0366 0.8286 0 1.2268 0.34055 1.2268 1.0492 0 0.58778-0.2768 0.91173-1.437 1.6821-4.124 2.7382-5.9584 6.4181-5.9674 11.971-0.01 3.7051 0.9239 6.2498 3.5879 9.8173 1.6018 2.145 2.4954 2.8926 4.6761 3.9117 1.1133 0.52026 1.5663 0.89074 1.6895 1.3816 0.2568 1.0231-0.2918 1.281-1.904 0.89505zm35.14-8.4682c-1.131-0.94353-0.5778-1.867 1.1185-1.867 1.9422 0 2.9712-1.3786 1.6596-2.2233-0.3274-0.21087-1.0715-0.46177-1.6536-0.55755-1.782-0.29321-2.6742-0.64625-3.2901-1.3019-0.8128-0.86518-0.9902-2.4712-0.4083-3.6973 0.8153-1.7182 2.5167-2.1497 5.1379-1.3031 1.5292 0.49386 2.0437 1.1163 1.6032 1.9394-0.3237 0.60478-0.9521 0.66153-2.4281 0.21929-0.8744-0.26198-1.0995-0.2447-1.456 0.11178-0.7038 0.70381-0.2216 1.1674 1.9755 1.8991 2.4847 0.8275 3.2423 1.522 3.4246 3.1399 0.1677 1.4879-0.4717 2.8986-1.6416 3.6216-1.1335 0.70054-3.213 0.71037-4.0416 0.0191zm-9.9433-0.87483c-0.326-0.32742-0.753-1.2662-0.949-2.0861l-0.3562-1.4908-0.7981 0.90899c-1.3622 1.5515-2.8251 2.0311-4.2353 1.3886-1.2563-0.57246-2.0405-2.9887-2.0405-6.2876 0-1.9129 0.2591-2.4211 1.2342-2.4211 0.8664 0 1.1465 0.75249 1.1509 3.0915 0.01 4.8451 1.9694 4.512 3.6016-0.61196 0.5817-1.8262 0.8208-2.2532 1.3332-2.3819 0.8761-0.21988 1.411 0.33122 1.4133 1.4561 0 1.1687 0.452 4.0575 0.8307 5.3386 0.2479 0.83846 0.3747 0.93927 1.1815 0.93927 1.1506 0 1.8149 0.63041 1.5936 1.5122-0.3116 1.2418-2.9394 1.6692-3.9599 0.64414zm-21.828 0.0994c-0.427-0.27065-0.7464-3.545-1.0023-10.275-0.1975-5.195-0.111-5.633 1.1129-5.633 0.9509 0 1.1676 0.75906 1.1676 4.0904v3.0669l0.7871-0.40704c1.0868-0.56202 3.6225-0.78345 4.9276-0.4303 2.5784 0.69767 4.0631 2.5521 4.0705 5.0841 0 1.6902-0.632 2.8857-2.045 3.8379-1.4929 1.0061-4.9545 1.1158-6.7193 0.21294-0.6336-0.32416-0.7116-0.30889-0.8351 0.16358-0.141 0.53918-0.8494 0.67938-1.464 0.28975zm7.9131-2.9233c2.0359-2.0359-0.3933-5.2242-3.5061-4.6016-1.4505 0.2901-2.5941 2.0994-2.5982 4.1107 0 0.89318 0.8859 1.2056 3.5246 1.2405 1.659 0.0219 1.8694-0.0392 2.5797-0.74954zm178.86 1e-3c-0.256-0.16213-0.4412-1.1419-0.5987-3.168-0.2864-3.6853-1.1229-6.3618-2.8619-9.1568-0.7242-1.1642-1.8845-3.0692-2.5783-4.2333-1.2376-2.0765-3.7306-4.8322-5.695-6.2951-1.1698-0.87112-1.303-1.6866-0.3161-1.9343 0.7409-0.18597 0.8884-0.082 3.7801 2.666 2.52 2.3946 6.9657 9.3146 8.3339 12.972 1.1809 3.1569 1.6361 8.1578 0.817 8.9769-0.4845 0.48456-0.4115 0.47022-0.881 0.17295zm3.5968-12.126c-0.062-0.10914-0.3713-0.98726-0.6877-1.9514-0.596-1.8165-2.0021-4.3734-3.0371-5.5231-1.814-2.0149-1.9465-3.4396-0.3198-3.4396 0.4375 0 3.6624 4.7559 4.5422 6.6986 0.8467 1.8695 1.1023 3.4624 0.6441 4.0145-0.3523 0.42452-0.9549 0.53058-1.1417 0.20097zm-6.3837-104.28c-0.091-0.14675 0.4373-2.1011 1.1734-4.3429 1.6595-5.0548 1.7727-5.8201 1.7094-11.56-0.039-3.5234-0.186-5.2942-0.6157-7.4078-0.9402-4.625-0.7119-6.8327 0.6794-6.5684 0.3699 0.0703 0.4919 0.38423 0.5482 1.4109 0.04 0.7263 0.3147 3.0203 0.6107 5.0978 0.3921 2.7514 0.5402 5.1945 0.5453 8.9958l0.01 5.2186-1.0915 3.4396c-1.3714 4.3211-2.0782 5.7948-2.8311 5.9021-0.3137 0.0447-0.6445-0.0388-0.7352-0.18553zm10.813-1.9632c-0.073-0.19125 0.062-1.0544 0.3019-1.9182 0.3096-1.1172 0.4842-3.2508 0.6047-7.3914l0.1695-5.8208h1.5875l0.08 4.4979c0.1194 6.731-0.6768 10.98-2.0576 10.98-0.3038 0-0.6124-0.15647-0.6858-0.34771zm-117.09-17.313c-0.1791-0.45762-0.2386-2.1511-0.1603-4.5641 0.1177-3.6277 0.1856-4.0236 1.2467-7.276 1.7563-5.383 3.1585-7.8594 6.8168-12.039 2.4317-2.7783 3.2708-3.5712 3.7794-3.5712 0.4822 0 0.6766 0.16089 0.7406 0.61296 0.066 0.46721-0.4389 1.1592-2.1247 2.9104-3.9752 4.1296-5.7883 7.232-7.718 13.207-0.9172 2.8399-0.9598 3.1369-0.9598 6.6981 0 2.0628-0.1222 3.9549-0.2738 4.2382-0.3916 0.73161-1.0152 0.63167-1.3469-0.21583zm-5.3355-13.461c-0.5661-0.56619 0.6495-4.652 2.2159-7.4477 0.4669-0.83338 1.0853-1.9681 1.3741-2.5216 0.4317-0.82723 0.6486-0.99211 1.2181-0.92604 1.0767 0.12489 0.9061 1.5222-0.4393 3.5984-0.9699 1.4967-1.6464 3.0353-2.7574 6.2715-0.3474 1.0117-1.1282 1.5086-1.6114 1.0254z"/></g></svg>
