<svg width="591.31mm" height="201.08mm" version="1.1" viewBox="0 0 591.31 201.08" xml:space="preserve" xmlns="http://www.w3.org/2000/svg"><g transform="translate(-1356.9 677.97)"><path fill="#fff" d="m1729.6-477.48c-1.2774-1.3712-1.009-3.0757 0.7952-5.0498l1.3044-1.4272-0.7408-1.168c-0.4074-0.64242-1.1477-1.5108-1.6451-1.9297-1.0145-0.85434-6.9552-3.8582-7.6303-3.8582-0.2398 0-0.6312 0.33038-0.8697 0.73417-0.2385 0.4038-1.1483 1.4158-2.0218 2.249-1.444 1.3774-1.6946 1.5148-2.7627 1.5148-0.8026 0-1.4044-0.18081-1.9005-0.571-0.6726-0.52911-0.7177-0.6841-0.6144-2.1126 0.1946-2.6891 2.0883-4.4169 5.1067-4.6592l1.6967-0.1362 0.1801-1.201c0.5607-3.7389-0.9722-12.001-3.0969-16.691l-0.7659-1.6907-1.0884 1.2365c-1.2733 1.4466-2.2515 2.014-3.4621 2.0086-1.1977-5e-3 -2.0653-0.49616-2.8061-1.5874-1.6059-2.3656 0.7904-5.3498 4.6126-5.7443l1.4215-0.14671v-3.4687c0-4.0564-0.5126-7.8339-1.3839-10.234-0.6696-1.8447-2.7788-5.8636-3.6156-6.8893l-0.5162-0.63264-0.8794 0.84367c-1.0284 0.98665-2.0088 1.4053-3.291 1.4053-3.3264 0-4.5144-4.2076-1.6188-5.7335 0.8405-0.44291 3.3289-0.63067 4.6642-0.35195 0.5632 0.11758 0.6951-0.0296 1.1854-1.3229 0.4875-1.2857 0.5501-2.01 0.5372-6.2177-0.013-4.0983-0.3715-8.2206-0.7723-8.869-0.065-0.10573-0.677 0.0904-1.3593 0.43579-1.4415 0.72979-2.4482 0.79163-3.5566 0.21848-1.0735-0.55516-1.3993-1.4827-0.9219-2.6252 0.5113-1.2236 1.4286-1.7496 3.3557-1.9244l1.6345-0.14821-0.1577-2.5892c-0.1946-3.1944-1.0746-5.9655-2.6849-8.4547-1.1981-1.8522-2.9623-3.957-3.3165-3.957-0.111 0-0.3435 0.34239-0.5169 0.76087-0.2055 0.49612-0.6658 0.89861-1.3228 1.1567l-1.0077 0.39582-0.1384 5.9209c-0.097 4.1403-0.2651 6.42-0.5596 7.5804-0.2317 0.91274-0.6184 2.925-0.8593 4.4717-0.3657 2.3483-0.5587 2.9474-1.1702 3.6322-0.7214 0.8079-0.7666 0.81931-3.0694 0.77577-12.255-0.23173-13.46-0.2112-16.198 0.27605-3.5924 0.63942-5.3369 0.503-6.3829-0.49914-0.4316-0.41356-0.8437-0.93933-0.9157-1.1684-0.6958-2.2135-1.7102-12.241-1.7217-17.019-0.01-2.063-0.058-2.3151-0.4886-2.3151-0.2657 0-0.75-0.28413-1.0763-0.6314l-0.5931-0.6314-1.6358 0.6006c-0.8997 0.33032-2.8859 1.1374-4.4139 1.7934-4.8053 2.0632-6.2454 2.3411-9.0489 1.7463-2.1613-0.45858-4.9553-1.9942-7.4325-4.0849-1.68-1.4179-3.2378-1.6609-9.6462-1.5046-2.6565 0.0648-2.712 0.0789-2.712 0.69192 0 0.7504-0.8686 1.9242-1.5944 2.1545-0.4677 0.14844-0.5222 0.40836-0.5222 2.4881 0 6.3503-1.1192 16.214-2.0109 17.724-0.992 1.6793-2.7468 1.9709-7.1173 1.1827-2.7451-0.49509-9.7268-0.62134-14.43-0.26095-4.5143 0.34589-5.2606-0.16002-5.8096-3.9381-0.1692-1.1642-0.5527-3.1882-0.8523-4.4979-0.4268-1.866-0.5722-3.6209-0.6717-8.11l-0.1271-5.7287-1.0197-0.45979c-1.644-0.74136-3.0089-0.3928-6.6903 1.7085-4.194 2.3939-5.8258 2.9327-8.8818 2.9327-3.1959 0-5.2032-0.66804-7.5909-2.5263-3.6869-2.8692-5.1894-3.9092-6.1367-4.2476-0.5585-0.19946-2.1649-0.35162-3.7829-0.3583l-2.8122-0.0116-0.3216 0.77645c-0.2341 0.56527-0.6206 0.8711-1.4211 1.1245l-1.0996 0.34804-0.1592 5.8208c-0.1219 4.4532-0.2861 6.3803-0.6991 8.2021-0.2969 1.3097-0.689 3.381-0.8713 4.6028-0.265 1.7758-0.4786 2.3864-1.0648 3.0427-0.7226 0.80929-0.7669 0.82048-3.0704 0.77693-12.255-0.23173-13.46-0.2112-16.198 0.27605-3.5924 0.63942-5.3369 0.503-6.3829-0.49914-0.4317-0.41356-0.8437-0.93933-0.9157-1.1684-0.6958-2.2135-1.7102-12.241-1.7217-17.019 0-1.9925-0.068-2.3151-0.4516-2.3151-0.2453 0-0.7116-0.24957-1.0363-0.55461l-0.5903-0.5546-1.808 1.493c-2.9552 2.4403-4.3569 3.9112-4.9232 5.1663-0.4909 1.088-0.5201 1.5188-0.3589 5.2917 0.097 2.259 0.2903 4.8811 0.4305 5.827 0.7215 4.8686 0.1281 7.7696-2.3628 11.551-1.8605 2.8242-3.7025 4.5757-5.669 5.3908-1.3494 0.5593-1.4385 0.65744-1.8828 2.0754-0.6995 2.2325-1.2878 3.2397-2.6525 4.5417-0.6803 0.64901-2.3679 2.4875-3.7502 4.0855-2.9834 3.449-3.8728 4.1376-5.5705 4.3129l-1.2623 0.13036-2.7781 4.2392c-3.7896 5.7825-5.1739 6.8005-9.2482 6.8005h-1.2847l-0.8561 1.517c-1.3991 2.4792-10.588 11.163-13.126 12.405-2.0917 1.0234-5.0025 1.0401-6.9304 0.0399l-1.3822-0.7171-1.7766 1.4364c-2.6754 2.163-8.2269 5.4107-10.3 6.0256-1.3232 0.39245-2.6299 0.54029-4.9702 0.56235-3.2077 0.0302-4.6046-0.21019-6.939-1.1943-1.0817-0.45601-1.1558-0.45477-2.2693 0.0378-4.9504 2.1898-16.936 1.3585-19.382-1.3443-0.3659-0.40431-0.8183-0.512-2.1507-0.512-2.2275 0-3.1234-0.41539-4.7615-2.2077-2.9746-3.2547-5.1365-6.4544-5.4804-8.1111l-0.1373-0.66146-5.3689-4e-3c-5.6219-4e-3 -6.0573-0.0632-10.793-1.4565-3.4939-1.0279-3.691-1.1155-7.2608-3.228-4.8312-2.8589-5.5107-3.4291-7.9269-6.6521-6.4551-8.6108-12.251-19.966-13.658-26.759-0.678-3.2727 0.2023-12.104 2.0004-20.07 0.9924-4.3961 2.1915-6.6824 5.1358-9.7924 2.5849-2.7303 4.8767-3.911 9.3083-4.7954 1.2183-0.24314 3.108-0.66495 4.1994-0.93736s3.5918-0.74055 5.5563-1.0403c4.4719-0.68238 6.9464-1.3551 9.657-2.6253 2.4934-1.1685 3.3637-1.8906 6.6129-5.4872 2.9607-3.2772 4.0251-4.8532 5.3476-7.9176 2.1478-4.9767 8.6942-14.605 12.089-17.781 2.6397-2.4691 4.0039-3.0937 6.7745-3.1015 4.999-0.0141 6.2786 2.2502 4.7811 8.4603-0.8454 3.506-0.9677 5.9498-0.4311 8.6106 0.2481 1.2305 0.6641 2.7212 0.9244 3.3126 0.6857 1.5583 2.8639 3.6059 4.8599 4.5686 0.9492 0.45778 1.7758 0.9823 1.8369 1.1656 0.1499 0.44968 3.5427-2.3096 5.0123-4.0764 0.6273-0.75407 2.8212-3.1228 4.8755-5.2639 2.0542-2.141 5.2534-5.6622 7.1092-7.8247 3.4794-4.0545 12.114-12.606 17.193-17.029 1.5878-1.3824 4.0252-3.543 5.4166-4.8012 3.0053-2.7178 15.027-14.864 18.406-18.597 1.3087-1.4457 3.7062-3.9623 5.3277-5.5926 2.6846-2.699 2.9744-3.0862 3.2412-4.33 0.1611-0.75129 0.4654-1.6996 0.6763-2.1072 0.44-0.85101 1.9219-2.2177 3.0208-2.7859 0.7425-0.38393 0.7499-0.41157 0.6259-2.3437-0.078-1.2132-0.01-2.1721 0.1804-2.5269 0.7808-1.4589 3.1978 0.0824 3.1978 2.0391v1.064l1.5308-0.71292 1.5309-0.71293-0.5985-1.4552c-0.7025-1.708-0.7587-2.4586-0.2177-2.9076 0.6557-0.54418 1.6117-0.0806 2.9651 1.438l1.2849 1.4416 2.3746-0.90327c1.3061-0.49679 2.5979-0.90721 2.8708-0.91204 0.4184-7e-3 0.4686-0.14338 0.3203-0.86867-0.6239-3.052-0.4566-3.9026 0.7675-3.9026 0.6272 0 1.5554 1.1446 2.4154 2.9785 0.3057 0.65187 0.6084 0.95768 0.8793 0.88819 0.2272-0.0583 0.9908-0.25667 1.697-0.44084l1.2839-0.33486-0.183-1.953c-0.1984-2.117 0.025-2.7255 1.0002-2.7255 0.6728 0 2.7614 2.1374 2.9939 3.0638 0.1382 0.55059 0.2813 0.64985 0.7328 0.50828 0.3087-0.0968 1.8151-0.23991 3.3476-0.31811 2.7021-0.13787 2.8108-0.12167 3.5914 0.53522 0.9373 0.78862 1.4083 2.1572 1.5946 4.6334 0.1903 2.5272-0.2528 3.2296-3.0776 4.8788-1.237 0.72214-4.2731 2.6496-6.7469 4.2832-2.4739 1.6337-5.6886 3.6599-7.1438 4.5028s-4.5296 2.657-6.832 4.0315c-4.9843 2.9754-5.8037 3.3456-6.935 3.1334-0.7098-0.13317-0.9209-0.0498-1.2865 0.50813-0.7179 1.0956-10.291 11.076-19.167 19.981-4.5685 4.5839-9.513 9.6872-10.988 11.341-1.4747 1.6534-3.6933 3.7896-4.9302 4.7471-1.2369 0.95749-7.071 6.5699-12.965 12.472-5.8936 5.9021-13.365 13.35-16.603 16.552-3.2378 3.2014-5.8851 5.9397-5.8829 6.0853 0.01 0.47705 2.0329 4.8335 2.6507 5.7011 0.9225 1.2956 2.5429 1.8786 5.6547 2.0348 3.1754 0.15936 7.4415-0.58531 10.211-1.7824 0.9459-0.40882 2.196-0.87312 2.7781-1.0318 1.3403-0.36533 4.2413-0.37656 4.9094-0.019 1.3969 0.74758 1.7348 3.6954 0.6826 5.9549-0.7747 1.6636-3.198 4.3069-5.3088 5.7906-0.8834 0.62095-2.7372 1.5743-4.1197 2.1186-2.6914 1.0596-9.3483 4.5331-12.171 6.3506-0.9459 0.60907-2.8379 1.6957-4.2045 2.4148-1.8214 0.95836-2.8479 1.7086-3.8449 2.81-1.7182 1.8983-3.8736 5.4993-4.9478 8.2664-0.7677 1.9774-1.1694 3.5082-2.9825 11.364-0.8074 3.4985-1.6419 4.9861-4.5011 8.0242-3.0758 3.2682-6.0032 5.3654-10.648 7.6276-3.7395 1.8215-5.6863 2.5764-8.5193 3.3033-1.1474 0.29443-1.1501 0.29806-0.9698 1.2702 0.3579 1.9288 4.7407 7.7452 6.5356 8.6734 0.3949 0.20423 1.0796 0.37133 1.5215 0.37133h0.8036l-0.1469-1.9182c-0.2516-3.2869 1.0256-4.8286 4-4.8286 2.1289 0 2.6555 0.42764 2.5906 2.104-0.058 1.5089-0.3744 2.0842-2.14 3.8958l-1.4636 1.5018 0.8432 0.5128c1.62 0.98517 4.8508 1.5107 9.288 1.5107 3.292 0 4.375-0.0955 5.4901-0.48429 0.764-0.26635 1.389-0.52124 1.389-0.56642 0-0.0452-0.2355-0.60115-0.5233-1.2355-0.8605-1.8964-0.5824-4.2892 0.6953-5.9823 0.9852-1.3054 2.0188-1.7308 3.8791-1.5962 1.3211 0.0956 1.6885 0.23499 2.2066 0.83723 1.215 1.4126 0.5301 4.3623-1.5717 6.769l-0.8004 0.91649 0.7692 0.32542c2.7557 1.1658 7.89 1.1585 10.531-0.015 2.2633-1.0057 7.6174-4.3116 9.1403-5.6438l1.3098-1.1457-0.7442-1.1165c-1.068-1.6022-1.4176-2.9106-1.2945-4.844 0.1295-2.0336 0.7367-2.9932 2.2236-3.5139 0.8174-0.28628 1.2677-0.29869 2.1468-0.0592 3.4673 0.94461 4.1246 4.2169 1.605 7.99-0.5826 0.87241-1.0156 1.6246-0.9623 1.6715 1.171 1.0309 4.3848 1.2684 5.9945 0.44305 0.5399-0.27683 2.1251-1.5568 3.5227-2.8443 1.3975-1.2875 3.6373-3.338 4.9772-4.5566 2.1406-1.9469 4.7825-4.9666 4.4912-5.1335-0.057-0.0325-0.4578-0.24079-0.891-0.46281-1.0868-0.55689-1.9906-1.9839-1.9894-3.1412 0-2.7506 3.3217-4.7196 5.2098-3.0908 0.7064 0.60934 0.7409 0.74517 0.7128 2.8027l-0.03 2.1623 1.2202-0.17758c1.4029-0.20415 3.0292-1.0775 4.0281-2.163 0.896-0.97368 4.7327-6.4356 4.7327-6.7375 0-0.1273-0.2236-0.23145-0.4968-0.23145-0.8564 0-2.2864-0.72788-3.1349-1.5957-2.0457-2.0924-1.4777-5.9698 1.0729-7.3246 1.2575-0.66794 3.9012-0.62376 4.8536 0.0811 1.8373 1.3597 2.3111 3.0192 1.5676 5.4899-0.2685 0.89219-0.2868 1.233-0.066 1.2337 0.1677 5.8e-4 2.2889-1.9995 4.7137-4.4446 4.117-4.1513 4.4385-4.5472 4.8552-5.9806 0.2454-0.84425 0.345-1.6225 0.2213-1.7294s-0.7871-0.40126-1.4743-0.65407c-1.5634-0.57521-3.5167-2.6652-3.9319-4.207-0.5352-1.9875 0.078-3.6966 1.6899-4.708 0.6721-0.42174 1.1997-0.51308 2.5713-0.44514 3.009 0.14904 4.2219 1.5945 4.4389 5.29l0.1198 2.04 0.708-0.36609c1.5807-0.81743 4.4009-4.5633 5.3847-7.1521 0.585-1.5394 0.6578-4.0451 0.2268-7.8067-0.745-6.5032-0.8089-7.5767-0.5564-9.3418 0.2881-2.0134 0.7428-3.0543 1.9293-4.4165 0.8079-0.92763 4.2112-3.8658 6.0553-5.2278 0.8322-0.61459 0.9837-0.88088 0.9922-1.7437 0.01-0.79064 0.1938-1.19 0.8318-1.7859 0.4519-0.42219 0.9877-0.76761 1.1906-0.76761 0.2703 0 0.3689-0.38505 0.3689-1.4408 0-0.79244 0.1293-2.9535 0.2873-4.8023 0.2092-2.4482 0.2066-4.3301-0.01-6.9266-0.3534-4.2439-0.1851-5.0364 1.2606-5.9353l0.9753-0.60649h24.606l0.83 0.623c1.2323 0.92493 1.4676 1.6795 1.703 5.4624 0.1177 1.8918 0.3359 4.0592 0.485 4.8166s0.3516 2.624 0.4502 4.148c0.1718 2.6581 0.2056 2.7776 0.8304 2.9344 1.0887 0.27326 1.8868 0.93867 2.2153 1.8472l0.3122 0.8635 2.937 0.14631c1.6153 0.0805 3.4452 0.32228 4.0665 0.53736 1.5293 0.52941 3.732 1.8895 5.7035 3.5216 2.2196 1.8376 4.0272 2.7005 6.3275 3.0204 3.2539 0.45258 4.7293 0.0252 9.2167-2.6697 1.7058-1.0244 3.6567-1.9805 4.4035-2.1578l1.3407-0.31849 0.1226-1.2757c0.1395-1.4524 0.8635-2.4048 2.1934-2.8857l0.8455-0.30574 0.1782-2.5866c0.098-1.4226 0.3003-3.2797 0.4496-4.1267s0.3615-3.0935 0.4717-4.9922c0.2278-3.9264 0.5416-4.7427 2.176-5.6613 0.9898-0.55631 1.1743-0.56324 12.988-0.48795 10.87 0.0693 12.064 0.11984 12.84 0.54387 1.497 0.81809 1.6545 1.4625 1.4774 6.0451-0.086 2.2389-0.068 6.0658 0.04 8.5042l0.1972 4.4335 0.7543 0.44557c0.4149 0.24507 0.8855 0.76229 1.0459 1.1494 0.2843 0.68654 0.3641 0.70798 3.2523 0.87441 1.6285 0.0938 3.8792 0.17116 5.0016 0.17182 2.5678 2e-3 4.0244 0.55163 6.6998 2.5301 2.7603 2.0414 4.5628 2.8215 6.8596 2.9689 1.8514 0.11881 1.9201 0.0989 6.6291-1.9198 2.617-1.1219 5.1452-2.1039 5.6182-2.1821 0.8356-0.13825 0.8598-0.17931 0.8598-1.4567 0-1.1293 0.1158-1.4226 0.8218-2.082 0.4519-0.42219 0.9877-0.76761 1.1906-0.76761 0.2703 0 0.3689-0.38505 0.3689-1.4408 0-0.79244 0.1293-2.9535 0.2873-4.8023 0.2092-2.4482 0.2066-4.3301-0.01-6.9266-0.3534-4.2439-0.1851-5.0364 1.2606-5.9353l0.9753-0.60649h24.606l0.83 0.623c1.2323 0.92493 1.4676 1.6795 1.703 5.4624 0.1177 1.8918 0.3359 4.0592 0.485 4.8166s0.3512 2.617 0.4492 4.1325l0.1781 2.7554 1.0386 0.45823c0.6645 0.29318 1.1857 0.76674 1.4471 1.3148 0.2592 0.54365 0.728 0.97215 1.2832 1.1729 1.1919 0.431 2.8374 2.0848 4.1932 4.2142 2.3629 3.7113 3.3868 7.1512 3.4536 11.602 0.025 1.6895 0.169 3.1029 0.336 3.3073 0.6233 0.76259 1.1425 3.3657 1.4477 7.2583 0.3694 4.7108 0.1121 7.5295-0.9857 10.798l-0.6747 2.009 0.6379 0.86142c1.0154 1.3713 3.2151 5.4603 4.0013 7.4382 1.2554 3.1582 1.5205 4.9203 1.6362 10.874 0.1055 5.4369 0.1208 5.5638 0.7857 6.5232 0.3729 0.53816 1.0223 1.8648 1.4429 2.9481 1.9642 5.0585 2.9661 10.409 3.0093 16.072l0.025 3.3073 3.5422 1.7198c3.7745 1.8326 5.5752 3.1922 6.8073 5.1396l0.7329 1.1585 1.4703-0.66464c2.1906-0.9903 6.9144-2.4046 8.7098-2.6077 2.1793-0.24655 5.055 0.43614 7.9574 1.8891l2.3318 1.1673 1.7548-0.79565c2.7306-1.2381 4.6119-1.5741 8.8396-1.5784 3.8093-4e-3 6.8572 0.41942 8.7695 1.2181 0.8721 0.36428 1.0108 0.33526 3.3967-0.71111 1.368-0.59999 3.5782-1.316 4.9115-1.5912 2.6535-0.54761 6.6249-0.66028 8.168-0.23172 0.9133 0.25366 1.0875 0.20057 2.5135-0.76578 3.0281-2.0521 8.2515-4.3381 12.182-5.3314 1.0777-0.27237 1.1245-0.32629 1.1245-1.2976 0-1.3557 0.6886-5.2792 1.325-7.5492 0.2831-1.0099 0.4759-1.8751 0.4284-1.9225-0.047-0.0475-1.2307 0.21824-2.6294 0.59051-3.2757 0.87186-10.874 2.4044-13.643 2.7515-1.3197 0.16547-2.3984 0.17679-2.7865 0.0292-0.5215-0.19828-0.6573-0.14848-0.77 0.28236-0.1801 0.68886-0.6225 0.57842-5.5355-1.3818-2.1447-0.85571-4.0318-1.5558-4.1935-1.5558s-1.4767-0.47685-2.9222-1.0596c-1.4456-0.58281-3.6662-1.2922-4.9347-1.5765-1.5582-0.34919-3.8083-1.2159-6.9366-2.6717-2.5466-1.1852-6.0273-2.7284-7.7349-3.4294-5.2722-2.1643-9.6192-4.4443-9.9979-5.2438-0.4898-1.0342-0.8228-14.103-0.6794-26.664 0.6518-57.066 0.5411-53.678 2.0257-62.014 0.7143-4.0101 2.4794-11.065 3.1701-12.671 0.6414-1.4909 1.1312-1.8896 4.4169-3.5952 1.3449-0.69814 2.5799-1.4315 2.7444-1.6297s0.5256-0.36039 0.8025-0.36039c0.2768 0 1.3116-0.40701 2.2994-0.90448 4.5476-2.2901 10.268-4.3504 14.727-5.3043 2.3724-0.50749 5.7668-1.5438 9.1281-2.7869 3.3065-1.2228 7.1235-2.071 10.716-2.3813 4.9607-0.42846 14.848-2.0041 15.096-2.4057 0.082-0.13213 0.7069-0.24037 1.3896-0.24054 0.6826-1.8e-4 2.1341-0.18841 3.2255-0.4183s2.8462-0.51764 3.8995-0.63943c2.3616-0.27308 3.4099-0.48931 4.4349-0.91474 1.949-0.80898 4.7477-1.2813 8.8635-1.4958 8.4395-0.43992 15.012-1.356 22.622-3.1529 0.5821-0.13745 2.9633-0.48764 5.2917-0.77819 8.377-1.0454 8.9993-1.1372 9.2472-1.3651 0.1382-0.1271 0.6979-0.23109 1.2437-0.23109 1.1074 0 3.5136-0.43869 4.3257-0.78867 0.2911-0.12542 1.3493-0.29398 2.3516-0.37458s2.1161-0.33901 2.4751-0.57423c0.4455-0.29195 0.9344-0.37483 1.5404-0.26114 0.4976 0.0933 1.5611-6e-3 2.4197-0.22635 0.8426-0.21609 2.1868-0.47312 2.9872-0.57119 0.8004-0.0981 1.8124-0.33382 2.249-0.52389 0.4365-0.19008 1.27-0.39936 1.852-0.46507 0.5821-0.0657 2.1299-0.2661 3.4396-0.44532 1.3097-0.17921 3.2742-0.27289 4.3656-0.20817 2.3603 0.13996 7.1881 1.2562 10.319 2.3858 3.0349 1.095 4.6879 1.5167 5.9604 1.5205 0.5861 2e-3 1.3428 0.19729 1.6816 0.43459 0.7215 0.50539 1.3538 1.8824 1.3538 2.9483 0 0.41298 0.2313 1.4586 0.5139 2.3236 0.5868 1.7962 1.6673 9.1269 2.6564 18.022 0.1483 1.3346 0.6704 3.7158 1.1601 5.2917 1.0002 3.2186 1.7808 6.666 3.3447 14.771 1.0415 5.3977 1.4913 9.463 2.1076 19.05 0.2096 3.2602 0.4714 4.8426 1.4667 8.8635 0.6664 2.6921 1.4429 5.6687 1.7255 6.6146 0.2826 0.94589 0.6944 2.97 0.9151 4.4979s0.6316 3.8497 0.9131 5.1594c0.8684 4.0401 1.2841 6.4739 1.7402 10.186 0.2413 1.9645 0.7255 5.278 1.0759 7.3632s0.6366 4.2284 0.6361 4.7625c0 1.6448-0.7565 2.5181-2.8455 3.2924-1.0155 0.3764-2.3085 0.76937-2.8734 0.87326-0.5648 0.1039-2.074 0.58657-3.3537 1.0726-1.2796 0.48604-3.0656 1.0665-3.9687 1.2899-0.9032 0.2234-2.9518 0.87423-4.5525 1.4463-9.8993 3.5378-27.975 7.5589-39.291 8.7406-6.9695 0.72782-15.647 2.6342-27.059 5.9449-5.0909 1.4768-8.6237 2.3294-12.628 3.0477-1.6735 0.30015-4.7086 0.84457-6.7446 1.2098-2.036 0.36525-5.0721 1.0112-6.7469 1.4354-3.7791 0.95719-15.374 4.1684-15.468 4.2836-0.1127 0.13921-1.2544 4.4614-1.6297 6.1702-0.1919 0.87312-0.353 2.3316-0.3581 3.2411l-0.01 1.6536 1.5214 2e-3c3.4893 6e-3 6.4306 3.2284 5.343 5.854-0.4876 1.1771-1.6814 1.8142-3.4016 1.8154-2.4539 2e-3 -4.4442-1.5576-5.1791-4.0577-0.2311-0.7861-0.4836-1.1246-0.8832-1.1842-0.6669-0.0995-5.7136 1.5852-7.5869 2.5328-0.7276 0.36802-2.051 1.1288-2.9407 1.6907l-1.6178 1.0216 1.1247 1.1247c0.6416 0.64163 1.2621 1.5832 1.4445 2.1922 0.8584 2.8651-1.77 5.7956-4.3789 4.882-1.6108-0.56408-2.7697-3.5522-2.2591-5.8248 0.143-0.63642 0.2008-1.2528 0.1285-1.3698-0.072-0.11698-1.4991-0.21269-3.1706-0.21269-2.5171 0-3.4121 0.11619-5.2099 0.67633-1.6985 0.52918-4.7005 1.694-4.6809 1.8163 0 0.0115 0.359 0.7223 0.7937 1.5796 1.2218 2.4094 0.9818 4.3749-0.6952 5.694-0.5247 0.41273-1.0819 0.55252-2.2023 0.55252-1.347 0-1.5839-0.0877-2.3232-0.85989-1.5933-1.6641-1.6786-4.2216-0.1996-5.9793 0.3599-0.42781 0.6545-0.83646 0.6545-0.90811 0-0.42465-4.0248-0.84848-7.8052-0.82193-3.8571 0.0271-4.4077 0.0917-6.1946 0.72652-1.0787 0.38323-2.0181 0.75365-2.0876 0.82316-0.07 0.0695 0.3 0.59839 0.8212 1.1753 1.2382 1.3706 1.7072 2.8722 1.2452 3.9875-0.5543 1.3383-1.4458 1.8568-3.1923 1.8568-1.2784 0-1.6721-0.11824-2.3816-0.71525-1.5867-1.3351-2.0236-3.609-1.0445-5.4358l0.5273-0.98384-1.0092-0.51486c-4.3666-2.2276-8.0758-2.1556-14.39 0.27939-1.6962 0.6541-2.0612 0.89162-1.9135 1.2451 0.1004 0.24022 0.2412 0.98555 0.3129 1.6563 0.2625 2.4559-1.5167 4.469-3.9497 4.469-0.9535 0-1.3819-0.14038-1.8009-0.59004zm3.4395-3.7075v-0.8285l-0.7937 0.76046c-0.754 0.7224-1.0239 1.6661-0.5982 2.0918 0.3512 0.35121 1.3919-1.1619 1.3919-2.0237zm23.283 1.5592c0-0.64201-1.4096-2.8178-1.8255-2.8178-0.7451 0-0.7275 2.2006 0.023 2.9001 0.822 0.76583 1.8022 0.72108 1.8022-0.0823zm18.656 0.2556c0.6285-0.45956 0.6259-1.858-0.01-3.0795l-0.4546-0.87922-0.493 0.6411c-0.7421 0.96521-0.909 2.2401-0.3957 3.0235 0.4986 0.76086 0.6622 0.79653 1.3492 0.29413zm18.425-3.4508c0.3687-0.80927 0.1326-1.7746-0.6593-2.6952-0.8846-1.0284-1.338-0.63907-1.1457 0.98408 0.2643 2.2316 1.1746 3.0946 1.805 1.7111zm-75.61-7.2077c0.945-1.055 0.9797-1.1462 0.4366-1.1462-0.7478 0-2.3892 1.6193-2.3892 2.357 0 0.4735 0.07 0.51079 0.4631 0.24657 0.2546-0.17121 0.9249-0.82707 1.4895-1.4574zm95.098-1.3425c0.072-0.71569-0.045-0.86158-1.1028-1.3736-1.6064-0.77768-3.0788-1.0111-3.0788-0.48812 0 0.69316 1.1742 2.1769 2.0847 2.6342 1.1807 0.59303 1.9895 0.2951 2.0969-0.77246zm-375.34-9.0051c0.6016-1.3314 0.4409-2.109-0.4838-2.3411-1.9898-0.49939-3.6561 2.451-2.4668 4.3677l0.5552 0.89493 0.942-0.89493c0.5181-0.4922 1.1721-1.4042 1.4534-2.0266zm-19.629-1.7126c3e-4 -0.10914-0.3938-0.19844-0.8757-0.19844-1.3353 0-2.0369 0.80683-2.0221 2.3254l0.012 1.2465 1.4426-1.5875c0.7934-0.87313 1.4428-1.6768 1.443-1.7859zm368.96-2.249c-0.1867-0.5457-0.4122-1.8852-0.5011-2.9766-1.1218-13.77-2.0973-23.768-2.672-27.384-0.2081-1.3097-0.5675-3.7505-0.7986-5.424s-1.019-6.0788-1.751-9.7896c-0.7319-3.7108-1.5486-7.9375-1.8148-9.3927-0.8293-4.5333-1.839-13.853-2.5225-23.283-0.6327-8.7294-0.8847-10.867-1.7279-14.658-0.4336-1.9499-1.0824-5.998-1.4417-8.9958-0.3592-2.9978-0.9814-7.0579-1.3825-9.0225-0.6975-3.4156-0.7583-3.5734-1.3908-3.6063-0.3638-0.0189-1.5545-0.43239-2.6459-0.91883l-1.9843-0.88444-6.4611-0.0908c-3.5536-0.0499-6.7342-0.0222-7.068 0.0616-0.7809 0.19599-1.8387 2.0039-2.6294 4.4938-0.7737 2.4364-2.0619 8.6292-2.5907 12.454-0.2213 1.6007-0.4758 3.3867-0.5657 3.9688-0.1442 0.93372-0.356 14.81-0.8317 54.504-0.1221 10.192 0.082 18.061 0.6001 23.151 0.1327 1.3027 0.2785 1.5814 1.3915 2.6596 1.3435 1.3013 4.6712 3.0639 8.63 4.571 1.3096 0.49862 4.408 1.8008 6.8852 2.8937 3.0036 1.3252 5.2513 2.137 6.7469 2.4371 1.2336 0.24744 3.2549 0.8494 4.4918 1.3377 1.2369 0.4883 3.0824 1.1781 4.1011 1.5329 1.0186 0.3548 3.2808 1.2482 5.027 1.9854 1.7463 0.7372 3.1909 1.3466 3.2102 1.3542 0.019 8e-3 -0.1175-0.43266-0.3041-0.97837zm11.538-0.84259c4.1465-0.86626 9.213-2.2467 9.4943-2.5868 0.095-0.11472 0.3817-0.92295 0.6375-1.7961 0.2558-0.87312 0.7664-2.3742 1.1347-3.3358l0.6696-1.7483-0.9011-1.1806c-1.077-1.4109-2.596-4.8562-3.459-7.8454-0.5125-1.7752-0.782-2.2827-1.4889-2.8043-1.2254-0.90404-1.987-2.0051-3.6066-5.2141-2.1189-4.1983-2.4994-5.5419-2.6738-9.4434-0.088-1.9786-0.036-3.839 0.1273-4.538 0.2538-1.0844 0.2206-1.259-0.3908-2.0606-1.757-2.3036-3.2103-6.8444-3.4494-10.778-0.1577-2.5941-0.1781-2.6603-1.0427-3.3868-1.2748-1.0712-2.3438-3.5579-3.1239-7.2669-0.7918-3.7646-0.8469-5.5861-0.2572-8.5125 0.3938-1.9546 0.3927-2.2053-0.015-3.3788-0.6156-1.7719-0.9246-6.4581-0.6946-10.533 0.1693-2.9986 0.288-3.6306 0.918-4.8848 0.6678-1.3297 0.6998-1.533 0.4147-2.6412-0.1699-0.66035-0.4069-3.0461-0.5267-5.3017-0.21-3.9554-0.571-6.0854-1.0311-6.0854-0.1209 0-0.3626 0.17207-0.5371 0.38238-0.1746 0.2103-0.9117 0.57978-1.6381 0.82106-3.1994 1.0627-7.0862-0.83808-7.5493-3.6919-0.3303-2.036 1.2141-4.9617 3.1848-6.0333 1.7011-0.92497 3.9912-0.47474 5.8334 1.1468 1.5551 1.3688 2.0092 2.248 2.0092 3.8898 0 0.82107 0.1432 1.4225 0.3869 1.6248 0.2128 0.17659 0.6429 0.99484 0.9558 1.8183 0.4544 1.1958 0.6122 2.4027 0.7841 5.9952 0.1184 2.4738 0.224 4.5358 0.2348 4.5821 0.011 0.0463 0.3877-0.17793 0.8376-0.49825 1.9259-1.3714 5.1685-0.69543 5.7969 1.2084 0.4012 1.2158 0.2098 2.5075-0.5549 3.7448-1.1253 1.8208-3.5431 2.2022-5.6183 0.88618l-1.2495-0.7924-0.2675 0.70347c-0.4547 1.196-0.588 5.3674-0.2711 8.4848 0.3951 3.8866 0.3865 3.8673 1.4344 3.2283 0.6101-0.37204 1.3263-0.51134 2.6326-0.51206 2.9716-2e-3 4.4232 0.96068 4.4232 2.9322 0 2.0026-2.0488 3.0333-5.6224 2.8282-1.1278-0.0647-2.0528-0.048-2.0557 0.037 0 0.0851-0.1246 0.98048-0.2705 1.9898-0.4362 3.0181 0.7849 9.3759 2.176 11.329l0.5565 0.7816 0.3454-1.0047c0.7861-2.2864 2.4689-3.3368 4.4204-2.7591 1.8356 0.54343 2.8197 3.2832 1.8675 5.1994-0.7384 1.4858-1.7162 2.0807-3.42 2.0807h-1.4352l-8e-4 1.5378c-4e-4 0.84578 0.1681 2.0959 0.3745 2.7781 0.2064 0.68218 0.573 1.8952 0.8147 2.6955 0.2417 0.80037 0.7361 1.967 1.0986 2.5924l0.6591 1.1372 1.01-1.0407c1.7371-1.79 4.1021-2.0452 5.4233-0.58524 0.6922 0.76493 0.8297 2.6459 0.2784 3.8078-0.7156 1.508-1.9279 2.1082-3.9927 1.9768-1.6377-0.10428-1.7217-0.0802-1.8767 0.53731-0.089 0.35556-0.089 1.9214-2e-4 3.4796 0.1726 3.0154 0.7866 5.1834 2.3609 8.3354 0.8325 1.6668 2.5015 4.1059 2.8016 4.0942 0.097-4e-3 0.3951-0.48224 0.6631-1.0633 0.8943-1.9394 3.2378-3.0514 5.3261-2.5273 0.8412 0.21115 1.725 1.5925 1.7263 2.6984 0 1.7004-2.0284 3.5694-4.2934 3.952-0.6331 0.10698-0.9973 0.31283-0.9973 0.56382 0 0.63326 1.3257 4.321 2.1296 5.924 0.6672 1.3306 1.4755 2.3408 1.658 2.0724 0.8042-1.1826 2.0125-2.6218 2.5265-3.0096 0.9921-0.74832 3.133-0.82756 4.2031-0.15556 0.8111 0.50934 0.8599 0.62816 0.8599 2.0923 0 1.1716-0.146 1.7689-0.5953 2.4356-0.87 1.2909-2.8166 2.2038-4.7969 2.2496l-1.6192 0.0374-0.8625 2.4642c-0.4744 1.3553-0.8203 2.5064-0.7688 2.5579 0.052 0.0515 3.1185-0.74546 6.8156-1.771 6.6253-1.8379 11.274-2.8806 22.465-5.0389 3.2612-0.62897 8.624-1.9354 12.568-3.0615 12.478-3.5631 18.836-4.9112 27.252-5.7775 2.1828-0.22471 5.2784-0.63403 6.8792-0.9096 4.3945-0.75654 15.248-3.094 18.388-3.9603 1.528-0.42147 4.6236-1.27 6.8792-1.8856 2.2556-0.61559 5.1131-1.5094 6.35-1.9862s4.9016-1.7339 8.1436-2.7936c3.2421-1.0597 6.2365-2.1345 6.6541-2.3885 1.2425-0.75561 1.321-2.3008 0.4018-7.9103-0.2026-1.2369-0.5563-3.7968-0.7859-5.6885-0.2295-1.8918-0.879-5.7613-1.4433-8.599-0.5642-2.8376-1.1031-5.8142-1.1975-6.6146-0.094-0.80036-0.6971-3.4197-1.3394-5.8208-1.8894-7.0627-2.4431-9.9358-2.7539-14.288-0.5611-7.8584-1.081-13.374-1.434-15.214-2.2297-11.619-2.9827-14.964-4.168-18.518-0.8549-2.5631-1.1061-3.7831-1.3076-6.35-0.3035-3.865-0.6516-6.5685-1.2951-10.057-0.2684-1.4552-0.568-3.1221-0.6656-3.7042-0.098-0.58208-0.4055-1.709-0.684-2.5044-0.2786-0.79532-0.5065-1.943-0.5065-2.5504 0-0.68278-0.188-1.3366-0.4926-1.7127-1.1287-1.3939-6.0322-0.49634-19.88 3.6391-2.6921 0.80395-6.1449 1.811-7.6729 2.238-3.4873 0.97438-8.7922 2.7118-11.341 3.7144-1.0716 0.4215-3.2147 1.1324-4.7625 1.5796-2.678 0.77398-3.204 0.83034-10.884 1.1664-11.479 0.5023-21.379 1.4487-31.618 3.0224-2.7649 0.42498-6.7535 0.95962-8.8636 1.1881-7.259 0.78603-15.842 1.8441-20.505 2.5279-3.5259 0.51697-10.338 2.1742-14.684 3.5726-2.4011 0.77244-5.3182 1.6556-6.4823 1.9625-1.1642 0.30695-2.8766 0.93813-3.8054 1.4026l-1.6886 0.84453 0.1683 2.395c0.093 1.3172 0.3505 3.3453 0.5732 4.5067 0.2226 1.1614 0.696 4.5525 1.0521 7.5357 0.356 2.9832 0.9982 7.0313 1.4271 8.9958 0.8419 3.8569 1.1436 6.4217 1.7427 14.817 0.9317 13.054 1.7878 19.645 3.9863 30.692 0.9412 4.7294 1.944 10.325 2.2285 12.435 0.2844 2.11 0.6972 5.0219 0.9173 6.4708s0.5304 4.1873 0.6895 6.0854c0.1591 1.8981 0.5247 5.5347 0.8123 8.0813 0.2877 2.5466 0.6348 6.1185 0.7715 7.9375 0.3598 4.7901 0.493 5.5314 1.1038 6.1422 0.5051 0.50506 0.7566 0.53573 3.2221 0.39285 1.4709-0.0852 4.4115-0.51792 6.5349-0.96151zm56.332-32.746c-3.0262-0.1803-9.1197-1.4432-11.509-2.3853-3.0048-1.1846-8.967-4.1382-10.186-5.0461-1.7528-1.3052-4.6735-4.4264-5.9951-6.4069-0.7283-1.0914-2.014-3.4727-2.8572-5.2917-3.4103-7.3572-3.7119-8.8198-3.7097-17.992 0-6.9537 0.3478-10.079 1.569-14.169 0.8224-2.7544 5.3406-9.5534 8.3443-12.557 2.9286-2.9281 2.9134-2.921 15.84-7.4375 2.9618-1.0348 8.4392-2.0829 10.886-2.0829 2.6272-2e-5 6.6616 0.66531 7.0218 1.158 0.1554 0.21242 0.9797 0.63127 1.8318 0.93077 2.1784 0.76564 8.9916 4.908 10.691 6.5002 0.7813 0.732 2.1843 2.4025 3.1177 3.7122 0.9334 1.3097 2.2361 3.0361 2.895 3.8364 1.629 1.9789 3.9392 6.7604 4.602 9.525 0.4652 1.9405 0.5386 3.1141 0.5356 8.5569 0 6.7659-0.1764 8.9233-1.1802 14.752-0.7404 4.3002-1.5493 6.2685-4.0967 9.9691-3.4333 4.9874-5.1668 6.6259-11.181 10.568-5.709 3.7422-8.335 4.3519-16.618 3.8584zm7.8057-1.5207c3.1892-0.75228 6.6447-2.6374 11.648-6.3543 3.0306-2.2516 4.3092-3.5813 6.8792-7.1539 2.5173-3.4994 3.1869-5.1972 4.2867-10.868 0.9704-5.0032 0.9712-5.0136 0.9839-12.283 0.012-6.8317-0.025-7.4053-0.5977-9.3927-0.8849-3.0685-2.7359-6.6069-4.6529-8.8943-0.9192-1.0968-2.1055-2.6731-2.6364-3.5029-0.5308-0.8298-1.4675-2.0538-2.0816-2.72-1.4486-1.5716-7.1511-5.3138-10.007-6.5672-1.229-0.53935-2.4131-1.1405-2.6314-1.336-0.5377-0.48145-4.7319-1.1884-7.0114-1.1819-2.2219 6e-3 -7.4873 1.019-10.054 1.9335-1.0187 0.36291-3.7445 1.3284-6.0574 2.1455-5.8109 2.0529-7.3631 2.8615-9.425 4.9098-1.9238 1.9112-5.0497 6.4154-6.5915 9.4981-0.6223 1.2442-1.3382 3.3736-1.8771 5.5832-0.8005 3.282-0.8812 4.0063-0.9949 8.9253-0.203 8.7838 0.5087 12.409 3.6663 18.677 2.3412 4.6472 3.9634 7.0451 6.1499 9.0905 2.3536 2.2017 3.6586 3.0604 7.1402 4.6982 6.7914 3.1948 7.0648 3.2871 12.884 4.3512 4.9225 0.90012 8.4397 1.0418 10.981 0.44248zm-29.568-16.243c-2.4615-3.7017-4.9296-9.4789-5.6434-13.21-1.1767-6.1498 0.1879-14.783 3.2987-20.871 1.0945-2.1419 4.2469-5.9369 6.2478-7.5214 2.1682-1.7169 4.6809-2.326 4.8315-1.1713 0.055 0.41869-0.3044 0.70414-1.7198 1.3672-1.3423 0.62889-2.3318 1.3882-3.9645 3.0427-1.1966 1.2126-2.4908 2.6214-2.876 3.1307-1.1717 1.5494-2.6667 4.9942-3.5597 8.2021-0.765 2.7481-0.8594 3.4943-0.9752 7.7068-0.083 3.0037-0.02 5.1694 0.176 6.0834 0.5138 2.3958 3.4365 8.9012 5.1154 11.386 1.645 2.4346 1.8826 3.46 0.8365 3.6096-0.4217 0.0603-0.83-0.34515-1.7673-1.7547zm18.455-11.452c-2.415-0.54563-4.8999-3.3476-4.8909-5.515 0.01-1.3085 0.6732-4.0011 1.3486-5.4378 1.1293-2.4026 4.38-4.9512 6.7728-5.31 1.2472-0.18703 3.4351 0.24776 4.8393 0.96171 2.118 1.0768 4.1582 4.1798 4.4207 6.7234 0.2439 2.3635-0.4702 4.1782-2.406 6.114-1.3961 1.3961-1.9239 1.7336-3.447 2.204-1.9097 0.58985-4.6941 0.6988-6.6375 0.25972zm5.6245-1.6482c2.8321-0.73464 4.9056-2.9618 5.2386-5.6266 0.1608-1.2868 0.089-1.6295-0.6569-3.1451-0.982-1.9947-2.2783-3.1674-4.1027-3.7117-1.6624-0.49598-2.568-0.49125-3.7969 0.0198-2.5607 1.065-4.1109 2.7855-5.067 5.6238-0.7139 2.119-0.6899 3.0694 0.1122 4.438 1.3737 2.344 4.7343 3.3196 8.2727 2.4018zm-57.393-45.687c-2.5645-1.3548-3.0181-4.1762-1.1477-7.139 0.3634-0.57571 0.6608-1.2191 0.6608-1.4297 0-0.21061 0.3274-0.64306 0.7276-0.961 0.6485-0.51526 0.9503-0.56321 2.7768-0.44119 3.3644 0.22475 4.7703 1.4178 4.8082 4.08 0.018 1.253 0.1299 1.6187 0.6171 2.0133 0.3274 0.26522 0.5953 0.72659 0.5953 1.0253 0 0.45997-0.1192 0.51921-0.779 0.38725-0.6147-0.12295-0.8126-0.0497-0.9387 0.3475-0.246 0.7752-1.8596 2.0633-2.9714 2.3721-1.51 0.41931-3.2684 0.31643-4.349-0.25445zm4.9535-2.1264c0.8801-0.82682 0.81-1.2176-0.2545-1.4173-1.7445-0.32727-2.0961-1.8904-0.4173-1.8553 0.506 0.0106 1.1283 0.11262 1.3829 0.22674 0.3852 0.1726 0.4631 0.0717 0.4631-0.5998 0-1.5991-1.8471-2.7922-3.8644-2.4961-0.6816 0.10004-0.9164 0.38459-1.7689 2.1441-0.5406 1.1158-0.9826 2.2804-0.9822 2.588 1e-3 0.67193 1.1391 1.8737 1.9395 2.0481 1.2252 0.26695 2.8542-0.03 3.5018-0.63844zm14.8-0.994c-1.5737-0.73652-3.0427-2.4802-3.0427-3.6116 0-2.3052 1.8591-5.2682 4.0002-6.3754 0.4193-0.21682 0.7623-0.51021 0.7623-0.652 0-0.33912 0.9803-0.33353 1.1906 7e-3 0.09 0.14552 0.3713 0.26458 0.6251 0.26458 0.2539 0 1.0821 0.30917 1.8404 0.68704 3.414 1.7013 3.8448 6.3876 0.8488 9.2348-0.7698 0.73157-1.0048 0.79952-3.0008 0.8674-1.6771 0.057-2.4043-0.0381-3.2239-0.42167zm4.6572-1.7078c1.7495-1.1687 2.3999-3.889 1.2726-5.3221-0.5392-0.6855-1.7975-1.4856-2.3363-1.4856-0.155 0-0.2447 0.5739-0.2116 1.3524 0.043 1.0161-0.052 1.4235-0.3832 1.6383-0.7186 0.46606-1.2789-0.22083-1.2789-1.5679 0-0.63703-0.054-1.1582-0.1198-1.1582-1.0192 0-2.7906 2.6572-2.7906 4.186 0 0.90625 0.957 2.0305 2.1815 2.5627 1.2833 0.55776 2.6373 0.48184 3.6663-0.20558zm16.704-0.98136c-1.2655-0.30017-2.8945-1.4681-3.3935-2.433-0.4246-0.82102-0.41-1.8908 0.054-3.9782 0.144-0.6473 0.04-0.77511-1.0693-1.314-1.1949-0.58054-1.7455-1.4176-1.3517-2.0549 0.2727-0.44114 1.1916-0.32796 2.1508 0.26491l0.8811 0.54453 0.8152-0.60267c0.9895-0.73162 3.7488-0.97245 5.5607-0.48535 3.1683 0.85174 4.6282 5.1035 2.9046 8.4594-0.7108 1.384-1.7257 1.8634-3.8772 1.8312-0.9962-0.0149-2.2-0.11927-2.675-0.23195zm4.4778-2.0829c0.7381-0.65943 0.8592-0.95901 0.9619-2.3794 0.2017-2.7878-1.13-4.0073-4.3776-4.009-2.1601-1e-3 -2.407 0.27986-1.2567 1.4302 0.3638 0.3638 0.6614 0.8492 0.6614 1.0787 0 0.58225-0.7612 0.81276-1.3891 0.42063-0.6043-0.37737-0.8112-0.21393-1.1977 0.94597-0.2169 0.65108-0.1924 0.95569 0.1122 1.3906 0.7098 1.0132 2.6777 1.7955 4.6533 1.8497 0.7367 0.0202 1.2028-0.16482 1.8323-0.72734zm17.949 0.50118c-1.5129-0.3119-2.7236-0.94935-3.6475-1.9205-1.6283-1.7116-1.3943-3.9351 0.6691-6.3585 1.0721-1.2592 1.4341-1.5068 2.4426-1.6714 2.1758-0.35495 4.7975 0.79456 5.6728 2.4873 0.2057 0.39769 0.4587 1.1952 0.5623 1.7723 0.1151 0.64104 0.4501 1.2643 0.861 1.6022 0.8734 0.71809 0.6478 1.5713-0.3492 1.321-0.5286-0.13266-0.7104-0.0444-0.8955 0.43496-0.6591 1.7065-3.1181 2.7856-5.3156 2.3326zm2.1914-1.9547c0.4682-0.19574 1.0089-0.54589 1.2015-0.77812 0.3079-0.37123 0.228-0.44181-0.6615-0.58438-1.4141-0.22669-1.8053-0.49122-1.8053-1.2209 0-0.59974 0.079-0.62995 1.5213-0.58106 1.4985 0.0508 1.5214 0.0405 1.5214-0.68148 0-1.045-1.0282-1.8846-2.8172-2.3004-0.8395-0.19516-1.5444-0.33004-1.5663-0.29974-0.022 0.0303-0.5924 0.68416-1.2678 1.453-0.9212 1.0487-1.2279 1.6123-1.2279 2.2562 0 2.258 2.736 3.7258 5.1018 2.7369zm14.345-2.3989c-3.194-1.4196-3.2964-5.4539-0.2235-8.806 1.1864-1.2942 2.0308-1.6684 3.7649-1.6684 1.0121 0 1.3704-0.12929 1.8331-0.66146 1.0044-1.1551 1.9323-0.67905 1.4009 0.71868-0.2154 0.5667-0.1522 0.77669 0.3865 1.2828 1.2544 1.1784 1.3301 3.0183 0.2336 5.6737-0.6709 1.6248-1.6699 2.7845-2.8669 3.328-1.2698 0.57667-3.3899 0.63878-4.5286 0.13268zm4.0948-1.9596c0.7741-0.57369 1.728-2.1362 2.1612-3.5402 0.2337-0.7575 0.2254-1.1631-0.037-1.7959-0.4246-1.025-0.7644-0.91953-1.5428 0.47873-0.4621 0.83015-0.7768 1.105-1.265 1.105-0.9208 0-1.0859-0.71542-0.4381-1.898 0.9549-1.7434-0.3881-1.6743-2.0048 0.10319-1.3213 1.4527-1.6097 2.0225-1.6207 3.2013-0.012 1.2798 0.3364 1.9255 1.3966 2.5891 0.9893 0.61922 2.3166 0.52286 3.3503-0.24321zm11.923-1.1876c-1.2161-0.41965-2.4086-2.1342-2.5874-3.7199-0.2044-1.8139 0.8109-3.7196 2.7452-5.1527 1.7069-1.2646 2.6089-1.5752 3.3072-1.1391 0.2671 0.16681 0.6956 0.30374 0.9523 0.30428 0.7254 2e-3 2.1653 0.98613 2.4925 1.7044 0.2208 0.48462 0.5367 0.66843 1.2514 0.72821 1.2788 0.10696 1.4956 1.0377 0.352 1.5114-0.6004 0.2487-0.8612 0.62673-1.2221 1.7716-1.0451 3.3156-4.2176 5.0526-7.2911 3.992zm3.9578-2.0048c0.3638-0.26099 0.9292-0.95339 1.2563-1.5387l0.5948-1.0641-1.0691 0.28535c-1.2791 0.3414-1.9726 0.0239-1.9726-0.90295 0-0.52774 0.1927-0.6593 1.3141-0.89721 0.7228-0.15333 1.3017-0.39785 1.2865-0.54337-0.015-0.14552-0.5778-0.60271-1.2502-1.016l-1.2227-0.75139-1.152 0.67513c-2.6865 1.5744-3.4975 3.5444-2.1287 5.1711 1.1428 1.3582 2.9283 1.5974 4.3436 0.58212zm-438.39 125c0.9458-1.6489 0.9617-2.2595 0.086-3.3-1.9891-2.364-3.7638 0.9029-2.2213 4.0892 0.6839 1.4128 0.9226 1.3246 2.1351-0.78924zm-59.422-3.5849c0-0.60129-0.1283-0.67712-1.4101-0.83356-1.6459-0.20089-2.5618-0.91616-2.9779-2.3256-0.1886-0.6391-0.2027-2.6191-0.044-6.1592 0.2665-5.9404 0.2767-5.9679 2.5082-6.7091 1.8091-0.60088 3.4552-0.39156 4.4552 0.56651 0.8432 0.80785 3.24 6.5243 3.745 8.9321 0.5778 2.7544-0.2687 4.382-2.7075 5.2058-0.8232 0.27805-1.4894 0.67085-1.5379 0.90679-0.1186 0.57738 0.2873 0.52934 3.0247-0.35793 5.8373-1.892 12.697-5.9466 16.017-9.4676 2.4513-2.5994 3.9521-5.8303 4.5831-9.8665 0.3366-2.1534 1.7155-7.4124 2.3106-8.8127 0.3211-0.75556 1.4224-2.8492 2.4473-4.6525 2.3131-4.0698 4.0446-5.939 6.7635-7.3012 1.0895-0.54581 3.5287-1.9151 5.4204-3.0429 6.8255-4.0691 8.5121-4.9886 11.303-6.1618 1.5598-0.65581 3.4133-1.6162 4.119-2.1342 2.8542-2.0952 4.9218-5.044 5.1308-7.3176l0.085-0.92604-1.7198 0.0202c-1.4008 0.0165-2.1948 0.22378-4.2808 1.1176-2.7579 1.1816-7.3853 2.1695-10.163 2.1695-2.0827 0-4.777-0.49296-6.1246-1.1206-1.5459-0.71995-2.5793-1.9909-3.988-4.9046l-1.2023-2.4869-5.695 5.734-1.5715 0.0234c-1.4851 0.0221-1.6534 0.094-3.0587 1.3072-0.8179 0.70613-1.4871 1.3749-1.4871 1.4862 0 0.11131 0.4762 0.88224 1.0583 1.7132 1.1401 1.6275 1.3312 2.5821 0.5953 2.974-0.2546 0.13566-1.2369 0.3284-2.1828 0.42832-1.5596 0.16476-1.8098 0.12033-2.6873-0.47725l-0.9676-0.65892-4.2803 4.3301c-2.8347 2.8677-4.2147 4.4455-4.0863 4.6717 0.1067 0.18787 0.403 0.57971 0.6585 0.87075 0.6395 0.72865 0.999 2.2292 0.7516 3.1373-0.5005 1.8373-1.9197 2.3744-3.8615 1.4613-0.6984-0.3284-1.3488-0.60446-1.4453-0.61347-0.2105-0.0196-5.513 6.7689-5.513 7.058 0 0.11089 0.409 0.20162 0.9088 0.20162 2.0674 0 3.3217 1.2781 3.3235 3.3866 0 2.1362-1.2704 3.4926-3.2759 3.4926-1.4213 0-2.188-0.40816-3.0875-1.6437-0.673-0.92444-0.8019-1.3161-0.6968-2.1163 0.1113-0.8478-0.039-1.218-1.1013-2.7106-2.6539-3.7292-4.4724-5.9425-7.0202-8.5446-2.3344-2.384-2.764-2.712-3.5525-2.712-0.6734 0-1.1292-0.23234-1.8295-0.93262-0.8781-0.87815-0.9249-1.0123-0.8014-2.2978 0.1132-1.1779 0.2797-1.5037 1.2134-2.3747 0.8147-0.75993 1.3049-1.0095 1.9828-1.0095 1.8068 0 3.0744 1.9685 2.6668 4.1414l-0.1798 0.95851 0.8463-0.49941c0.4655-0.27467 2.1434-1.4589 3.7288-2.6316l2.8825-2.1322-1.0821-1.0822c-1.3087-1.3087-1.2534-1.9976 0.2401-2.9879 0.851-0.56432 1.3018-0.66146 3.0694-0.66146 1.5862 0 2.1443 0.0985 2.3812 0.42008 0.2676 0.36332 0.9683-0.0912 5.1852-3.3639 2.6817-2.0812 5.0431-3.9513 5.2476-4.1558 0.3195-0.31942 0.2187-0.57262-0.7143-1.7955-1.3492-1.7684-1.5931-2.5681-0.9309-3.0523 0.2676-0.19564 0.7971-0.35571 1.1768-0.35571 0.3796 0 0.8213-0.13111 0.9816-0.29135 0.5264-0.5264 2.0004 0.0357 3.0207 1.1518l0.9649 1.0557 1.5052-1.1364c0.9889-0.74667 1.4633-1.2794 1.3833-1.5534-0.7382-2.5289-0.8095-2.9778-0.5407-3.4046 0.1566-0.24859 0.51-0.49533 0.7855-0.5483 0.2754-0.053 1.3342-0.83341 2.3529-1.7343 1.0186-0.90088 3.1617-2.6934 4.7625-3.9833 1.6007-1.29 3.4137-2.8015 4.0289-3.3589l1.1186-1.0136h-1.146c-1.0541 0-1.307-0.14993-3.1518-1.868-1.1031-1.0274-2.3634-2.4264-2.8005-3.1089-2.0766-3.2418-2.577-8.9263-1.2853-14.602 0.6664-2.9287 0.6756-3.0774 0.2444-3.9688-1.174-2.4269-4.4516-2.3046-7.7488 0.28932-0.9594 0.75471-5.2841 5.9745-6.7752 8.1774-1.6496 2.437-4.0219 6.5747-5.461 9.525-1.1444 2.3463-2.1419 3.8603-4.3578 6.6146-3.6993 4.5981-5.4952 6.2463-8.2975 7.6154-2.6987 1.3184-5.0773 1.9876-9.6118 2.704-1.8918 0.29887-4.8683 0.88865-6.6146 1.3106-1.7462 0.42195-3.6512 0.84704-4.2333 0.94463-1.682 0.282-3.3948 0.81829-4.6547 1.4574-1.371 0.69546-5.3331 4.5995-6.5168 6.4213-0.9786 1.5061-2.0886 5.8295-3.138 12.223-0.6044 3.6819-0.6772 4.7503-0.559 8.2021 0.1508 4.4016 0.4742 5.8646 2.3224 10.507 2.416 6.0689 5.9896 12.618 9.6916 17.76 3.1067 4.3156 3.5959 4.7922 7.0421 6.8613 4.4357 2.6632 5.8176 3.2657 9.5288 4.1548 4.1118 0.98512 4.1752 0.99131 9.8315 0.95964l4.7625-0.0267zm11.608-14.216c-1.6275-0.28888-2.3941-2.6639-1.4544-4.5059 0.3047-0.59736 0.6709-1.1583 0.8138-1.2466 0.5504-0.34021 2.979 0.20599 3.7316 0.83927 2.3465 1.9745 0.1373 5.4862-3.091 4.9132zm5.9823-11.118c-0.6342-0.57233-0.84-1.0193-0.9645-2.0945-0.2347-2.028-0.019-2.5342 1.3632-3.206 1.7226-0.8369 2.5954-0.76311 3.7765 0.31929 0.885 0.81103 0.9883 1.0419 0.9883 2.2089 0 2.3026-1.1256 3.5-3.29 3.5-0.7925 0-1.2749-0.18735-1.8735-0.72761zm294.08 21.721c1.2183-1.2544 1.1907-1.5181-0.1401-1.3396-1.1827 0.15864-2.0961 0.81634-2.0961 1.5094 0 1.1374 1.0436 1.0582 2.2362-0.16978zm-311.88-0.15785c-1.0599-4.545-1.3157-6.1074-1.0653-6.507 0.3709-0.59187 1.248-0.6894 1.6663-0.1853 0.3461 0.41705 1.3202 5.2281 1.3281 6.56 0.01 0.83701-0.051 0.81152 0.9853 0.45037 1.8008-0.62775 1.7832-2.0818-0.083-6.8527-1.5769-4.0321-1.8731-4.2738-4.1607-3.3948-0.7278 0.27965-0.7445 0.32936-0.5945 1.7682 0.085 0.81425 0.05 2.7901-0.077 4.3909-0.2825 3.5543-0.01 4.3517 1.5152 4.3616 0.5126 3e-3 0.5992-0.10226 0.4852-0.59126zm413.46-2.4153c0.9416-0.3934 2.104-1.667 1.8688-2.0475-0.2885-0.46679-1.174-0.21505-2.0983 0.59655-1.8253 1.6026-1.7204 2.2657 0.2295 1.451zm-333.32-1.9137c0.1818-0.96949-0.2004-2.2194-0.6788-2.2194-0.4686 0-1.3286 1.0354-1.3286 1.5995 0 0.63048 1.2091 1.9416 1.5795 1.7127 0.1386-0.0857 0.3312-0.57747 0.4279-1.0928zm13.376-10.355c0.9422-2.3702 0.6681-3.9208-0.83-4.6956-1.7826-0.92182-3.4411 0.28667-3.4411 2.5074 0 1.4252 0.3845 1.9048 2.0019 2.4972 1.5395 0.56387 1.9441 0.50876 2.2692-0.30911zm314.61 0.15577c0.2513-0.12872 0.5904-0.48333 0.7534-0.78801 0.4048-0.75637-0.32-1.5578-1.0169-1.1244-0.4972 0.30928-1.6487 1.8904-1.6487 2.2638 0 0.24699 1.1601 0.0338 1.9122-0.35142zm-403.81-10.276c0-0.14552-0.119-0.26459-0.2645-0.26459-0.1456 0-0.2646 0.11907-0.2646 0.26459s0.119 0.26458 0.2646 0.26458c0.1455 0 0.2645-0.11906 0.2645-0.26458zm301.03-1.0554c0.473-0.28835 0.8599-0.63707 0.8599-0.77493 0-0.72155-2.8036-0.60779-3.0849 0.12517-0.4494 1.1712 0.7806 1.5304 2.225 0.64976zm-198.68-5.0544c-0.093-2.046-0.1369-2.1766-0.9904-2.9391-0.755-0.67463-1.0408-0.77406-1.8481-0.64305-1.1256 0.18266-1.6199 0.75575-1.6139 1.8713 0.01 1.8476 1.982 3.852 3.7899 3.852h0.7597zm-101.32-4.5665 1.1629-1.5108-0.6185-0.65839c-0.3402-0.36211-0.7223-0.6238-0.8491-0.58153-0.1268 0.0423-1.5219 1.5626-3.1002 3.3785l-2.8697 3.3017 0.7038 0.75076 0.7037 0.75076 1.8521-1.9601c1.0186-1.0781 2.3754-2.64 3.015-3.4709zm-5.1534-0.36999c1.3767-1.4188 2.7429-2.8891 3.0361-3.2673l0.5329-0.68759-0.8856-0.85838-0.8856-0.85839-1.0461 1.1491c-0.5754 0.63201-1.9484 2.1611-3.0512 3.3981l-2.0049 2.249 0.6912 0.72761c0.3802 0.40018 0.7855 0.7276 0.9006 0.7276 0.1152 0 1.3359-1.1609 2.7126-2.5797zm401.44 2.189c1.1351-0.79506 0.9862-2.6356-0.1883-2.3284-0.5461 0.14279-1.8393 1.5168-1.8393 1.9542 0 0.21221 0.8504 0.69049 1.3302 0.74815 0.077 9e-3 0.3906-0.15905 0.6974-0.37393zm-401.6-10.102-0.7077-0.70777-1.5375 1.1502c-0.8457 0.63258-2.3975 1.8563-3.4485 2.7194l-1.911 1.5692 0.985 1.147 0.9849 1.147 6.3426-6.3172zm10.902 6.565c0-0.26849-0.2188-0.68617-0.4862-0.92819-0.4547-0.41148-0.5158-0.4073-0.9428 0.0645-0.435 0.4806-0.4279 0.52465 0.1482 0.92818 0.7998 0.56021 1.2808 0.53598 1.2808-0.0645zm-2.7035-3.3939c-0.5944-0.59442-0.7707-0.65182-1.1178-0.36381-0.5558 0.46128-0.5192 0.79041 0.1694 1.5234l0.5815 0.6189 0.5363-0.53637 0.5364-0.53637zm214.05-0.59414c0.6254-0.12092 1.296-0.4371 1.4902-0.70263 0.4677-0.63962 1.0836-4.4543 1.663-10.299 0.5834-5.8859 0.6102-12.86 0.07-18.124-0.1271-1.2369-0.2617-4.8474-0.2992-8.0233-0.065-5.5092-0.093-5.7877-0.6091-6.0638-1.4507-0.7764-21.814-0.72605-22.757 0.0563-0.7389 0.61317-1.2003 1.7718-1.2003 3.0138 0 0.64897-0.2374 2.7682-0.5275 4.7095-0.3278 2.1938-0.5304 4.9314-0.5354 7.2337 0 2.0373-0.122 5.8473-0.2613 8.4667-0.2779 5.2253-0.058 9.0721 0.7729 13.494 0.2733 1.4552 0.5737 3.3017 0.6675 4.1033 0.266 2.2737 0.233 2.2538 3.153 1.895 3.2417-0.39838 10.175-0.36018 13.4 0.0738 3.1502 0.424 3.5723 0.43819 4.9737 0.16725zm-13.019-1.7677c-5.672-0.42615-7.0309-0.80086-7.8849-2.1743-0.5569-0.89564-0.6138-1.3382-0.7038-5.4724-0.085-3.8984 0.321-12.437 0.6479-13.635 0.3304-1.2105 2.5967-1.5691 6.5937-1.0432 1.0187 0.13404 3.0427 0.24384 4.4979 0.24402 2.0715 2.4e-4 3.2941 0.16889 5.6321 0.77693 3.3164 0.86251 4.1822 1.3077 4.5901 2.36 0.4057 1.0469 0.1481 15.506-0.2979 16.721-0.187 0.50932-0.6273 1.313-0.9784 1.7859l-0.6384 0.85989-3.36-0.0335c-1.848-0.0185-5.4922-0.19376-8.0983-0.38955zm11.128-4.7568c0.3359-3.1966 0.1981-11.119-0.2173-12.486-0.3074-1.0113-0.9882-1.412-3.4244-2.0158-1.4095-0.34934-2.8529-0.41853-7.4084-0.35509l-5.6578 0.0788-0.3057 2.6367c-0.1681 1.4502-0.3167 4.7202-0.3303 7.2669-0.021 3.9169 0.047 4.7708 0.438 5.5428 0.584 1.152 0.984 1.2568 6.1511 1.6105 2.2556 0.15439 5.4107 0.37649 7.0115 0.49354 1.6007 0.11705 3.0295 0.19131 3.175 0.16503 0.1455-0.0263 0.4012-1.3482 0.5683-2.9376zm-9.3469-20.535c-0.6992-0.33806-1.2526-1.5703-1.0259-2.2845 0.3025-0.95297 1.9171-2.428 2.6578-2.428 0.5682 0 0.7896 0.2159 1.2205 1.19 0.6981 1.5781 0.4771 2.9059-0.5742 3.4496-0.864 0.44682-1.4652 0.46608-2.2782 0.073zm-7.4361-4.974c-1.3974-0.63423-2.1594-2.1014-2.1681-4.1742 0-1.2073 0.1088-1.5176 0.8541-2.3287 0.7238-0.78764 1.1363-0.98291 2.6056-1.2336 1.5784-0.26929 1.8446-0.24671 2.7781 0.2356 3.1083 1.6059 3.6536 6.188 0.9002 7.5635-1.2435 0.62119-3.5267 0.59243-4.9699-0.0626zm4.3352-2.529c0.2459-0.97973 0.032-1.0101-0.8232-0.11721l-0.7578 0.79099h0.7059c0.5358 0 0.7467-0.1624 0.8751-0.67378zm-3.4717-1.1615c0.09-0.28182 0.4156-0.54971 0.7247-0.59531 0.3092-0.0456 0.6111-0.23167 0.671-0.4135 0.1452-0.44106-0.5723-0.69211-1.391-0.48665-0.5464 0.13714-0.6608 0.32535-0.6608 1.0869 0 0.99516 0.3924 1.2395 0.6561 0.40859zm12.621 2.9779c-1.8-0.88698-3.0054-3.4966-2.426-5.2521 0.4425-1.3407 1.6526-2.2424 2.9941-2.231 1.3666 0.0116 2.0647 0.3868 2.9361 1.5781 1.1168 1.5267 1.5244 2.6138 1.3233 3.5293-0.5251 2.3912-2.6621 3.4428-4.8275 2.3758zm1.0108-5.0277c0-0.22556-0.1931-0.35037-0.463-0.29925-0.318 0.0602-0.4852 0.37716-0.5339 1.0116l-0.071 0.92388 0.5338-0.62463c0.2937-0.34354 0.5339-0.79876 0.5339-1.0116zm-212.51 35.455-0.8481-0.875-0.6147 0.57745-0.6146 0.57745 0.848 0.875 0.8481 0.87499 1.2294-1.1549zm130.87 1.6337c3.7911-0.47286 10.065-0.51224 13.542-0.085 2.0208 0.24834 2.562 0.2429 2.7291-0.0274 0.1146-0.18546 0.4009-1.5452 0.6362-3.0218s0.6212-3.6966 0.8577-4.9335c0.2936-1.5358 0.4337-3.7592 0.4418-7.0115 0.016-6.2495-0.5115-19.028-0.8401-20.373-0.1422-0.58209-0.369-2.2899-0.504-3.7951-0.2172-2.4224-0.3244-2.8159-0.934-3.4254-0.6734-0.67347-0.7922-0.69274-5.3931-0.87503-5.572-0.22077-16.95 0.0834-17.643 0.47169-0.4419 0.24729-0.4965 0.76067-0.5892 5.5357-0.056 2.8947-0.2166 6.8705-0.3566 8.835-0.4705 6.6035-0.563 10.964-0.2862 13.494 0.1513 1.3824 0.3991 3.9423 0.5507 5.6885 0.1517 1.7462 0.4631 4.3656 0.6922 5.8208 0.5444 3.4585 0.8263 3.782 3.5351 4.0566 0.2183 0.0221 1.8211-0.13741 3.5619-0.35453zm-3.7677-1.5228c-1.3907-1.4803-1.4902-2.1413-1.5954-10.59-0.086-6.8864-0.045-7.9633 0.3249-8.5273 0.5823-0.88864 1.4273-1.2658 4.6513-2.0757 2.3177-0.58223 3.436-0.70526 6.7469-0.7422 9.1815-0.10246 8.8161-0.11668 9.2944 0.3618 0.6351 0.63544 1.0127 5.3129 1.0103 12.515 0 8.707 0.1211 8.5811-9.1141 9.2565-2.9831 0.21819-6.6235 0.39762-8.0898 0.39874-2.4286 2e-3 -2.7159-0.0512-3.2285-0.59688zm9.4663-2.1926c3.4197-0.22084 6.5398-0.46987 6.9336-0.55341 1.3086-0.27764 1.5882-1.1243 1.7275-5.2305 0.1463-4.3152-0.3715-10.602-0.9101-11.049-0.2197-0.18232-2.3548-0.33204-5.7047-0.40002-4.8942-0.0993-5.5437-0.0582-7.5684 0.47897-3.075 0.81584-3.0922 0.85097-3.3305 6.7945-0.166 4.1393 0.1231 9.7302 0.5378 10.401 0.062 0.10038 0.5592 0.13236 1.1049 0.0711 0.5457-0.0613 3.7901-0.29216 7.2099-0.513zm-2.2296-23.226c-0.4928-0.49285-0.6806-0.95822-0.6799-1.6851 0-1.3189 0.8563-2.7268 1.6488-2.7152 1.1461 0.0168 2.5836 1.7148 2.5836 3.0518 0 1.0145-0.6784 1.6735-1.9321 1.877-0.7737 0.12555-1.0596 0.0323-1.6204-0.52845zm5.4046-4.608c-2.7535-1.3755-2.2081-5.9576 0.9001-7.5635 0.9336-0.48231 1.1998-0.50489 2.7782-0.23561 1.4693 0.25068 1.8817 0.44595 2.6055 1.2336 0.7453 0.81107 0.8591 1.1214 0.8541 2.3287-0.01 2.0728-0.7707 3.54-2.1681 4.1742-1.4432 0.65504-3.7263 0.6838-4.9698 0.0626zm1.4578-2.7088c-0.8555-0.89293-1.069-0.86252-0.8231 0.11721 0.1283 0.51137 0.3393 0.67378 0.875 0.67378h0.7059zm3.3047-1.4529c0-0.76152-0.1145-0.94972-0.6609-1.0869-0.8186-0.20547-1.5362 0.0456-1.3909 0.48665 0.06 0.18182 0.3618 0.3679 0.6709 0.4135 0.3092 0.0456 0.6353 0.31349 0.7247 0.59531 0.2638 0.83093 0.6562 0.58657 0.6562-0.4086zm-16.661 3.7575c-0.8913-0.451-1.8601-1.9555-1.8601-2.8888 0-1.4329 1.6318-3.916 2.9256-4.4519 1.2477-0.51684 2.8989-0.17043 3.7552 0.78785 1.4676 1.6425 0.6669 4.9614-1.5039 6.2336-1.2332 0.72271-2.3139 0.82672-3.3168 0.31923zm3.0555-4.8322c-0.09-0.35756-0.3324-0.65011-0.5394-0.65011-0.6526 0-0.6846 0.44178-0.087 1.2014 0.6203 0.78857 0.9008 0.54169 0.6265-0.55133zm140.99 36.786c3.7911-0.47286 10.065-0.51224 13.542-0.085 2.0208 0.24834 2.5621 0.2429 2.7291-0.0274 0.1147-0.18546 0.4009-1.5452 0.6362-3.0218s0.6213-3.6966 0.8577-4.9335c0.2937-1.5358 0.4337-3.7592 0.4418-7.0115 0.015-6.2495-0.5115-19.028-0.8401-20.373-0.1422-0.58209-0.369-2.2899-0.504-3.7951-0.2171-2.4224-0.3244-2.8159-0.934-3.4254-0.6734-0.67347-0.7922-0.69274-5.3931-0.87503-5.5719-0.22077-16.95 0.0834-17.643 0.47169-0.4419 0.24729-0.4965 0.76067-0.5891 5.5357-0.056 2.8947-0.2167 6.8705-0.3566 8.835-0.4706 6.6035-0.5631 10.964-0.2863 13.494 0.1513 1.3824 0.3991 3.9423 0.5508 5.6885 0.1516 1.7462 0.463 4.3656 0.6921 5.8208 0.5444 3.4585 0.8264 3.782 3.5352 4.0566 0.2182 0.0221 1.8211-0.13741 3.5618-0.35453zm-3.7677-1.5228c-1.3906-1.4803-1.4902-2.1413-1.5954-10.59-0.086-6.8864-0.045-7.9633 0.3249-8.5273 0.5822-0.88848 1.4269-1.2656 4.6514-2.0762 2.2856-0.57465 3.4582-0.70718 6.6145-0.74759 8.5928-0.11 8.9634-0.0953 9.4338 0.37511 0.6273 0.62732 1.0056 5.3434 1.0032 12.508 0 8.707 0.1211 8.5811-9.114 9.2565-2.9832 0.21819-6.6236 0.39762-8.0899 0.39874-2.4286 2e-3 -2.7159-0.0512-3.2285-0.59688zm9.4663-2.1926c3.4197-0.22084 6.5399-0.46987 6.9336-0.55341 0.3938-0.0835 0.9151-0.45585 1.1585-0.82735 1.0279-1.5688 0.6558-14.302-0.4471-15.3-0.3912-0.35399-1.3767-0.4456-5.7882-0.53803-4.8738-0.10211-5.4952-0.0625-7.4582 0.47548-2.9876 0.81876-3.0143 0.87447-3.2512 6.784-0.166 4.1393 0.1231 9.7302 0.5378 10.401 0.062 0.10038 0.5593 0.13236 1.1049 0.0711 0.5457-0.0613 3.7901-0.29216 7.2099-0.513zm-2.2295-23.226c-0.4929-0.49285-0.6807-0.95822-0.6799-1.6851 0-1.3189 0.8562-2.7268 1.6487-2.7152 1.1461 0.0168 2.5836 1.7148 2.5836 3.0518 0 1.0145-0.6784 1.6735-1.9321 1.877-0.7737 0.12555-1.0596 0.0323-1.6203-0.52845zm5.1399-4.608c-2.7534-1.3755-2.2081-5.9576 0.9002-7.5635 0.9335-0.48231 1.1997-0.50489 2.7781-0.23561 1.4693 0.25068 1.8818 0.44595 2.6056 1.2336 0.7453 0.81107 0.8591 1.1214 0.854 2.3287-0.01 2.0728-0.7706 3.54-2.168 4.1742-1.4433 0.65504-3.7264 0.6838-4.9699 0.0626zm1.4579-2.7088c-0.8555-0.89293-1.0691-0.86252-0.8232 0.11721 0.1284 0.51137 0.3393 0.67378 0.875 0.67378h0.706zm3.3046-1.4529c0-0.76152-0.1144-0.94972-0.6609-1.0869-0.8186-0.20547-1.5362 0.0456-1.3909 0.48665 0.06 0.18182 0.3618 0.3679 0.671 0.4135 0.3091 0.0456 0.6352 0.31349 0.7247 0.59531 0.2637 0.83093 0.6561 0.58657 0.6561-0.4086zm-16.396 3.2284c-0.8913-0.451-1.8601-1.9555-1.8601-2.8888 0-1.4329 1.6318-3.916 2.9256-4.4519 1.2477-0.51684 2.8989-0.17043 3.7552 0.78785 1.4676 1.6425 0.6669 4.9614-1.5039 6.2336-1.2332 0.72271-2.3139 0.82672-3.3168 0.31923zm3.0555-4.8322c-0.09-0.35756-0.3324-0.65011-0.5394-0.65011-0.6526 0-0.6846 0.44178-0.087 1.2014 0.6202 0.78856 0.9008 0.54169 0.6264-0.55134zm-262.15 31.859 3.5453-3.6068-0.4277-0.82709-0.4278-0.8271-3.1219 3.2432c-1.7171 1.7838-3.7472 3.9397-4.5114 4.791l-1.3894 1.5477 1.197 1.2742 0.7953-0.99421c0.4374-0.54682 2.3907-2.6172 4.3406-4.601zm-1.8585-3.163c1.7827-1.9519 3.2412-3.6792 3.2412-3.8386s-0.2434-0.51009-0.541-0.77933c-0.535-0.4842-0.5925-0.43794-5.2868 4.2509l-4.7459 4.7404 0.8551 0.88945 0.855 0.88946 1.1906-1.3017c0.6549-0.71594 2.6492-2.8987 4.4318-4.8505zm-10.714 4.2068c-0.5652-0.56522-0.5912-0.56725-1.1213-0.0876l-0.5426 0.49106 0.5856 0.62327 0.5855 0.62327 1.0714-1.0714zm-2.0614-1.5282c0.2584-0.28562 0.3997-0.70222 0.314-0.92577-0.1389-0.3618-0.2584-0.35763-1.0881 0.038-0.8787 0.41901-0.9072 0.47208-0.4966 0.92577 0.5489 0.60656 0.6912 0.60231 1.2707-0.038zm7.9499-3.2111 3.7006-3.7304-4.0349 3.1056c-2.2191 1.7081-4.0349 3.2439-4.0349 3.4129 0 0.2267 0.495 0.94234 0.6518 0.94234 0.01 0 1.6821-1.6787 3.7174-3.7304zm388.48 2.09c0.4364-0.43641 0.3998-1.9306-0.057-2.3094-0.2959-0.24556-0.4893-0.18663-0.926 0.28208-0.3036 0.32588-0.5536 0.71888-0.5556 0.87334 0 0.15447-0.075 0.54873-0.1632 0.87616-0.1387 0.51775-0.059 0.59531 0.6122 0.59531 0.4244 0 0.9146-0.14288 1.0892-0.3175zm-374.05-1.733c-0.6423-1.1222-0.7091-1.1703-1.0514-0.75785-0.2687 0.32376-0.1958 0.46173 0.4203 0.79568 0.9473 0.51354 0.9468 0.51358 0.6311-0.0378zm-2.2267-2.5896c0.1893-0.49325-0.6981-1.5549-1.0258-1.2273-0.2596 0.25966 0.2781 1.634 0.6393 1.634 0.1267 0 0.3007-0.18302 0.3865-0.40673zm3.3607-2.9634 1.21-1.1211-0.6634-0.71591-0.6635-0.7159-1.2131 1.213-1.213 1.213 0.497 0.68117c0.2733 0.37464 0.5733 0.65543 0.6665 0.62399 0.093-0.0314 0.714-0.56169 1.3795-1.1783zm-5.7323-0.42543c-0.2078-0.31356-0.5837-0.61085-0.8352-0.66065-0.3906-0.0773-0.3702 0.0274 0.1398 0.71722 0.6632 0.89706 1.2935 0.84579 0.6954-0.0566zm3.6084-2.9811c0.5751-0.68341 0.6104-0.83799 0.2913-1.2744-0.3442-0.47082-0.4288-0.43607-1.6272 0.66834-1.2516 1.1535-1.3446 1.3837-0.8163 2.0202 0.3139 0.37827 1.0523-0.10689 2.1522-1.4141zm8.2478-1.635c1.4552-1.2788 3.3602-3.2272 4.2333-4.33 0.8732-1.1028 2.5576-3.2412 3.7432-4.752 1.1856-1.5108 3.3221-3.9972 4.7479-5.5251l2.5922-2.7781-3.1104 3.0427c-5.5691 5.4479-7.135 6.8637-10.09 9.1222-1.6008 1.2236-3.8034 3.0527-4.8948 4.0647l-1.9844 1.8399 0.7771 0.821c0.4274 0.45156 0.9037 0.82074 1.0583 0.82041 0.1547-3.3e-4 1.4719-1.0468 2.9271-2.3256zm-15.081 1.0033c-0.4183-0.43656-0.8663-0.79375-0.9957-0.79375-0.394 0 0.9682 1.5572 1.3759 1.5729 0.2395 9e-3 0.099-0.27919-0.3802-0.77911zm11.63-4.0349c1.34-1.2006 3.4386-2.974 4.6634-3.9409 1.2249-0.96696 4.013-3.3617 6.1958-5.3217 4.2152-3.7848 16.077-15.369 14.288-13.954-6.1522 4.8673-15.454 12.927-18.785 16.276-1.6007 1.6094-3.9224 3.7189-5.1594 4.6878-3.7621 2.9469-4.2886 3.4583-4.0905 3.9725 0.098 0.25466 0.24 0.46302 0.3153 0.46302 0.075 0 1.2333-0.98227 2.5733-2.1828zm-2.7404-1.5599c3.0556-2.1845 7.1969-6.0213 8.8108-8.1628 1.1127-1.4765 1.169-1.6037 0.3969-0.89714-0.4949 0.45285-2.388 1.9864-4.207 3.4079-4.7776 3.7336-7.4883 6.4844-6.3897 6.4844 0.1237 0 0.7488-0.37454 1.389-0.83231zm173.01-0.24807c0-0.6448-0.6183-0.55366-0.747 0.11012-0.051 0.26108 0.084 0.44109 0.3307 0.44109 0.2455 0 0.4163-0.22621 0.4163-0.55121zm-146.84-12.463c1.9646-1.7006 7.0247-6.6528 11.245-11.005s8.5659-8.6686 9.6573-9.5926c2.5322-2.1436 11.047-10.734 13.89-14.014 1.1986-1.3824 4.4228-4.7162 7.165-7.4083 5.5449-5.4437 11.407-11.689 9.7686-10.406-0.5821 0.45556-2.4312 2.1202-4.1092 3.6991-4.6176 4.3451-10.893 10.024-13.729 12.424-5.648 4.7801-12.662 12.165-21.665 22.81-1.7622 2.0835-3.9532 4.3846-4.8689 5.1134-4.3348 3.4503-11.382 10.092-15.352 14.468-1.547 1.7055-4.3843 5.3171-4.8167 6.1311-0.1159 0.21829 1.9163-1.7462 4.516-4.3656 2.5997-2.6194 6.3341-6.1539 8.2986-7.8546zm107.1 11.901c0.044-0.22429-0.1053-0.47858-0.3307-0.56508-0.3041-0.1167-0.4099 0.0169-0.4099 0.51792 0 0.72758 0.6012 0.76586 0.7406 0.0472zm140.81 0.0548c0-0.29104-0.119-0.52917-0.2646-0.52917-0.1455 0-0.2645 0.23813-0.2645 0.52917s0.119 0.52917 0.2645 0.52917c0.1456 0 0.2646-0.23813 0.2646-0.52917zm97.448 0.0195c0.4394-0.4458-0.4577-1.0791-1.5213-1.074-1.479 7e-3 -2.8888 1.1033-1.8162 1.4121 0.7911 0.22775 3.0004 4e-3 3.3375-0.33813zm-350.85-17.204c1.2734-1.0571 2.3151-1.9707 2.3151-2.0303 0-0.2246-3.3762 2.5728-5.045 4.1801-0.9558 0.92054-1.2534 1.2459-0.6614 0.72295 0.5919-0.52291 2.118-1.8156 3.3913-2.8728zm10.145-3.3162c2.7403-2.2763 3.7751-3.338 8.1275-8.3384 9.985-11.472 14.334-15.915 22.407-22.889 2.6922-2.3257 6.9784-6.2681 9.525-8.7608s5.4637-5.2219 6.4823-6.0648c1.0187-0.84292 2.0788-1.7805 2.3558-2.0836 0.2771-0.30305 1.1632-1.2325 1.9693-2.0654 0.806-0.83293 1.3928-1.5872 1.3039-1.676-0.089-0.0889-1.7492 1.3665-3.6896 3.2342-1.9405 1.8677-4.9566 4.654-6.7025 6.1917-1.7459 1.5377-4.365 3.8601-5.8202 5.1608-1.4552 1.3007-3.2604 2.7569-4.0116 3.236-1.5924 1.0157-14.188 13.969-18.939 19.477-1.7678 2.0495-3.8482 4.2621-4.6231 4.917-0.775 0.65484-2.193 2.0836-3.1512 3.175s-3.9012 4.2466-6.5399 7.0115-3.776 4.0699-2.5272 2.9001 2.9737-2.7112 3.8332-3.4252zm339.95 4.2104c0.4921-0.49204 0.5478-1.7276 0.098-2.1772-0.5261-0.52609-1.709-0.35922-2.5661 0.36201-0.7672 0.64552-0.7847 0.70311-0.351 1.1515 1.0561 1.0919 2.1363 1.3462 2.8188 0.66367zm-342.41-10.647c3.8625-4.1453 7.1718-7.4572 11.83-11.839 2.4444-2.2996 4.3431-4.3868 5.5434-6.0937 0.7436-1.0576 0.277-0.70049-2.5136 1.9233-1.8847 1.7721-6.1176 5.8797-9.4065 9.1281-5.3694 5.3034-7.2399 7.3507-10.705 11.717l-1.042 1.3129 1.0901-0.86653c0.5995-0.4766 2.9413-2.8534 5.2039-5.2817zm5.0399-0.75289c1.2859-1.0956 2.7147-2.5351 3.175-3.1987 0.4603-0.66364 1.7594-2.4516 2.8869-3.9732l2.05-2.7666-3.2137 3.0059c-3.8949 3.643-10.486 10.586-12.138 12.786-0.3834 0.51062 2.6386-1.9325 7.2398-5.8528zm327.91-3.3948 0.7424-0.65854-0.6615-0.5262c-0.3638-0.28941-0.8062-0.52884-0.9832-0.53208-0.1769-3e-3 -0.748-0.20916-1.269-0.45762-0.768-0.36621-0.9325-0.5791-0.8689-1.1245 0.066-0.5678 0.2316-0.68545 1.0601-0.75423 0.9187-0.0763 2.0321 0.14049 3.238 0.63043 0.9591 0.38964-0.5624-1.4026-1.8128-2.1354-1.6664-0.97654-2.7479-0.88532-3.9094 0.32971-1.1869 1.2416-1.5402 1.9244-1.5402 2.9766 0 1.1611 0.391 1.7662 1.5295 2.3674 1.4719 0.77722 3.5285 0.72412 4.475-0.11556zm-15.619-10.189c1.1075-0.70236 1.1736-0.79375 0.5739-0.79375-0.3727 0-2.0331-0.30973-3.6898-0.68829-2.4905-0.56912-3.7356-0.69511-7.1905-0.72761-3.9003-0.0367-4.2437 2.3e-4 -5.1594 0.55465l-0.9809 0.59396 4.8947 0.0112c4.8436 0.0111 4.9225 0.0205 7.5407 0.90217 1.4552 0.49005 2.6714 0.90234 2.7028 0.91622 0.031 0.0139 0.6201-0.33197 1.3085-0.76853zm7.1673-3.035c0.6185-0.1026 1.1245-0.2801 1.1245-0.39446 0-0.38232-4.8678-1.8267-7.0969-2.1057-1.2112-0.15163-3.0729-0.20207-4.1373-0.1121-1.1587 0.0979-2.2671 0.0479-2.7622-0.1247-0.711-0.24786-1.0769-0.18007-2.6096 0.48339l-1.7825 0.77166 1.1906 0.011c2.7607 0.0256 11.056 1.7774 11.457 2.4196 0.2536 0.40602 0.4023 0.39333 1.8834-0.16064 0.8845-0.33081 2.1142-0.68542 2.7326-0.78801zm-286.21-18.949c1.6735-1.5381 4.8286-4.3222 7.0115-6.187 2.1828-1.8648 4.5885-3.9891 5.3461-4.7208 1.2322-1.1902 1.3304-1.3646 0.9321-1.6559-0.5245-0.38358-1.3687 0.29153-7.4689 5.9732-2.11 1.9653-5.0271 4.5432-6.4823 5.7286-2.7133 2.2104-10.586 10.043-13.655 13.586-1.4043 1.6212-3.3096 4.0027-4.809 6.0112-0.1325 0.17745 3.4319-3.3361 7.9208-7.808s9.5308-9.389 11.204-10.927zm-13.229 15.386c0-0.0728-0.7143 0.57463-1.5875 1.4386-0.8731 0.86401-1.5875 1.6305-1.5875 1.7032 0 0.0728 0.7144-0.57463 1.5875-1.4386 0.8732-0.86401 1.5875-1.6305 1.5875-1.7032zm307.79 1.2483 2.9162-0.84027-1.9607-0.61017c-4.3805-1.3632-7.0862-1.9311-9.2012-1.9311-1.1647 0-2.3975-0.10639-2.7395-0.23643-0.5732-0.21791-5.0783 0.52231-5.4518 0.89575-0.074 0.0739 0.3914 0.13734 1.0342 0.1409 0.6427 4e-3 1.7043 0.12912 2.3592 0.27903 2.2841 0.5229 8.7865 2.7066 9.0884 3.0522 0.1673 0.19155 0.4696 0.29026 0.6716 0.21935 0.2021-0.0709 1.6797-0.50704 3.2836-0.9692zm8.4538-2.1099c1.5643-0.32145 2.8423-0.64979 2.8399-0.72964-0.01-0.26186-6.1116-2.7352-7.6351-3.0938-0.8188-0.19273-2.2626-0.36065-3.2085-0.37315s-1.9579-0.1168-2.2489-0.23179c-0.3387-0.13379-1.0531-0.0159-1.9844 0.32743-1.944 0.7167-2.0745 0.87844-0.8797 1.0902 2.1603 0.38281 8.9763 2.6018 9.4713 3.0834 0.287 0.27925 0.5846 0.50864 0.6614 0.50976 0.077 1e-3 1.4196-0.26097 2.984-0.58243zm8.7167-1.3577 2.036-0.31085-4.4173-1.9486c-2.7538-1.2148-5.1894-2.1024-6.4677-2.3568-1.1278-0.22451-2.0506-0.50848-2.0506-0.63104 0-0.26337-0.9263-0.28893-2.0835-0.0575-1.1526 0.2305-1.0318 0.51395 0.3692 0.86673 2.2056 0.55538 8.7021 3.4684 9.2405 4.1434 0.5777 0.7244 0.5659 0.72337 3.3734 0.29473zm8.2724-1.1146c0.8734-0.13576 0.736-0.23402-2.9766-2.129-3.5873-1.831-4.0677-2.0042-6.132-2.2114-1.2319-0.12361-2.2836-0.3562-2.3372-0.51685-0.1125-0.33773-1.6112-0.38669-2.1119-0.069-0.3928 0.24926 2.085 1.4411 6.9535 3.3447 1.7462 0.68279 3.3498 1.41 3.5635 1.6161 0.2459 0.23702 0.7075 0.32563 1.2568 0.24121 0.4775-0.0734 1.2802-0.19748 1.7839-0.27577zm7.7553-0.81026c2.0124-0.18331 2.6003-0.47156 1.5854-0.7773-0.3295-0.0993-1.7367-0.8781-3.1271-1.7307-3.195-1.9593-3.9225-2.2576-7.0281-2.8824-2.0501-0.41242-2.7899-0.4567-3.9012-0.23351l-1.3713 0.2754 4.3716 2.2412c2.4044 1.2327 4.6097 2.5403 4.9007 2.9059 0.4532 0.5692 0.6812 0.64398 1.5875 0.52065 0.5821-0.0792 1.9242-0.22288 2.9825-0.31928zm7.9977-1.1626c0-0.0924-0.4464-0.37908-0.9921-0.63706s-2.3822-1.301-4.0811-2.3179c-2.2774-1.3631-3.6329-1.985-5.1594-2.367-2.2509-0.56338-3.7259-0.58104-2.4117-0.0289 0.3945 0.16571 1.5851 0.8026 2.6459 1.4153 1.0607 0.61272 2.6511 1.5069 3.5342 1.987 1.7877 0.97211 2.6258 1.755 2.4287 2.2687-0.105 0.27354 0.2827 0.29232 1.9523 0.0946 1.1458-0.13572 2.0832-0.32236 2.0832-0.41476zm5.0271-0.65453c1.0914-0.19152 1.8246-0.36105 1.6292-0.37673-0.1953-0.0157-1.5645-0.82499-3.0427-1.7985-3.3671-2.2176-5.1981-3.1674-7.0531-3.659-1.5129-0.4009-3.2314-0.51194-3.5161-0.2272-0.1733 0.17333 2.8137 2.0447 6.1619 3.8604 2.4689 1.3389 2.6458 1.4788 2.6458 2.0927 0 0.58907 0.3643 0.60149 3.175 0.10825zm5.9457-0.81011 1.3156-0.17433-0.9187-0.76307c-2.0714-1.7206-6.054-4.1922-7.6655-4.7572-0.9459-0.33163-1.9207-0.77351-2.1663-0.98195-0.3216-0.27297-0.755-0.32685-1.5495-0.19262l-1.1031 0.18636 1.6521 0.91566c1.9592 1.0859 6.2259 3.9024 7.0694 4.6666 0.3274 0.29664 0.5953 0.76618 0.5953 1.0434 0 0.40655 0.1408 0.4777 0.7276 0.36778 0.4002-0.075 1.3196-0.21474 2.0431-0.31063zm6.57-0.65054c0.5997-4e-3 -5.7886-4.8315-7.6007-5.744-0.7387-0.372-1.3828-0.78025-1.4313-0.90721-0.1011-0.26475-1.1251-0.30706-1.7382-0.0718-0.2857 0.10965 0.5746 0.81339 2.7704 2.2663 1.7517 1.159 3.7441 2.6826 4.4277 3.3857 1.0978 1.1292 1.351 1.2666 2.1689 1.1762 0.5094-0.0562 1.1408-0.10357 1.4032-0.10517zm-350.92-6.868c5.2655-4.5002 12.819-11.625 12.579-11.865-0.065-0.0652-1.4636 1.0717-3.1077 2.5265-1.644 1.4548-4.8942 4.3217-7.2225 6.371-4.8695 4.2859-10.959 10.118-8.9958 8.6153 0.7276-0.55688 3.7637-3.0985 6.7468-5.6481zm357.89 6.2352c0.024-0.0175-0.7625-0.70661-1.7485-1.5313-1.9213-1.6071-5.1202-3.8199-6.6301-4.5863-0.5093-0.25853-0.9939-0.57462-1.0768-0.70241-0.084-0.13004-0.7834-0.13806-1.5875-0.0182l-1.4367 0.21412 1.1069 0.7088c0.6087 0.38985 1.7349 1.2666 2.5026 1.9484 0.7676 0.68179 2.115 1.7681 2.9941 2.414 0.8792 0.64594 1.6972 1.3481 1.8179 1.5603 0.1761 0.30969 0.5938 0.35018 2.1166 0.20515 1.0435-0.0994 1.9172-0.19502 1.9415-0.21252zm5.3762-1.1386c-0.7984-0.53612-2.1568-1.5601-3.0186-2.2755-2.294-1.9042-6.2278-4.4255-6.8713-4.4041-1.6269 0.0543-1.517 0.36202 0.6988 1.9569 3.3777 2.4312 5.7108 4.4478 5.9025 5.1021 0.1636 0.55788 0.3181 0.59531 2.4574 0.59531h2.2829zm6.1409 0.83465c0.3271-0.32707-6.1847-6.1042-8.6094-7.6381-1.3834-0.87512-1.6691-0.9596-2.7156-0.80267l-1.1695 0.17538 1.1281 0.72987c2.0836 1.3481 8.2691 6.4816 8.5329 7.0817 0.2162 0.4915 0.471 0.59394 1.4773 0.59394 0.6688 0 1.2791-0.063 1.3562-0.14011zm4.2853-0.41339 1.03-0.28597-0.6331-0.44409c-0.3482-0.24426-1.5527-1.3549-2.6767-2.4681s-2.9695-2.7759-4.1011-3.695c-1.1315-0.91906-2.097-1.7627-2.1456-1.8747-0.1162-0.26857-1.8961-0.26456-1.8961 4e-3 0 0.11438 0.4744 0.57258 1.0542 1.0182 0.5799 0.44565 1.9249 1.632 2.989 2.6363s2.6137 2.406 3.4436 3.115c0.8427 0.71974 1.509 1.5084 1.509 1.7859 0 0.57841 0.061 0.58732 1.4268 0.20811zm5.2623-1.5426c0.2021-0.19152-3.0393-3.0268-7.4222-6.4923-2.022-1.5987-2.8778-1.9999-3.3209-1.5569-0.095 0.0954 1.558 1.8389 3.6743 3.8745 2.619 2.5192 3.8945 3.9351 3.9943 4.434l0.1466 0.73301 1.3606-0.39817c0.7482-0.21899 1.4536-0.48638 1.5673-0.59419zm3.5316-1.2567 1.4036-0.44246-0.9835-0.8835c-0.8698-0.78138-5.4121-3.8968-8.1465-5.5876-0.5887-0.36401-1.2948-0.57696-1.7546-0.52917-0.7339 0.0763-0.668 0.1595 1.4254 1.7998 3.4432 2.6979 6.3016 5.2848 6.3016 5.7031 0 0.47915 0.048 0.47749 1.754-0.0602zm3.6283-3.3606c-2.405-2.2068-6.5387-5.1927-7.1888-5.1927-1.5212 0-1.3264 0.34476 1.2659 2.2406 3.1349 2.2927 4.8449 3.7717 5.2557 4.5456 0.2735 0.51504 0.402 0.54304 1.3677 0.29792l1.0658-0.27055zm5.3587 0.47705c0.7864-0.22861 1.4298-0.44747 1.4298-0.48636 0-0.15314-4.4456-3.5346-6.205-4.7197-1.2041-0.8111-2.146-1.2549-2.6585-1.2527-1.5707 7e-3 -1.5267 0.36978 0.1988 1.6407 2.3176 1.7072 4.8994 4.0951 5.0955 4.7131 0.1994 0.62823 0.3194 0.63412 2.1394 0.10501zm4.9143-1.4046c0.3255-0.12089-0.5607-0.91791-3.3649-3.0263-2.8491-2.1422-3.9108-2.8039-4.2205-2.6306-0.3369 0.18854-0.2032 0.38335 0.719 1.0477 2.0781 1.4969 4.7048 4.0773 4.7048 4.6219 0 0.45638 0.1149 0.50168 0.8599 0.33911 0.473-0.1032 1.0587-0.26149 1.3017-0.35175zm4.9155-1.6521c-0.1816-0.4569-3.9928-3.2545-5.5646-4.0846-1.3775-0.72749-1.9757-0.90814-2.5729-0.77698-0.764 0.16782-0.7261 0.21332 2.1056 2.5258 1.5859 1.2952 2.9549 2.5796 3.0421 2.8543 0.152 0.47883 0.2183 0.48185 1.6069 0.073 0.7967-0.23455 1.4189-0.50074 1.3829-0.59154zm4.292-1.0901c0.2275-0.0623-0.3215-0.52554-1.3229-1.1163-2.7743-1.6367-6.42-3.5918-6.5169-3.4949-0.049 0.0494 0.5353 0.52462 1.2993 1.056 2.1124 1.4693 3.9027 3.2306 3.9027 3.8396 0 0.51747 0.051 0.52564 1.1244 0.18191 0.6185-0.19793 1.2995-0.40779 1.5134-0.46634zm3.2913-0.95491c0.077-0.12416-0.3627-0.59015-0.9766-1.0355-0.6138-0.44537-1.6032-1.2825-2.1985-1.8603-0.8892-0.86302-1.3378-1.0849-2.5135-1.2434-0.7871-0.10605-1.3716-0.13568-1.2989-0.0658 0.073 0.0698 1.4003 0.91886 2.9501 1.8867 1.5497 0.96782 2.8855 1.9362 2.9682 2.1519 0.1633 0.42534 0.8437 0.53128 1.0692 0.16645zm4.076-0.9189 1.4062-0.32849-0.9733-0.46416c-0.5354-0.25529-1.6881-0.63089-2.5616-0.83466l-1.5881-0.37049 0.5269 0.57904c0.2898 0.31847 0.6651 0.84693 0.8339 1.1744 0.351 0.68074 0.446 0.69059 2.356 0.24441zm-393.52-3.2852c0.4366-0.22148 2.6392-1.5048 4.8948-2.8519s5.1726-3.0738 6.4823-3.8372 3.5124-2.1854 4.8948-3.1599 3.7775-2.5686 5.3223-3.5422c3.6858-2.3231 3.8058-2.4666 3.8058-4.5546 0-2.263-0.3794-2.6418-2.5908-2.5862-0.9034 0.0227-3.1903 0.40103-5.0821 0.84071-1.8918 0.43969-5.285 1.228-7.5406 1.7518-4.5585 1.0586-7.1248 2.025-13.362 5.0315-4.2977 2.0718-5.4197 2.8418-6.134 4.2099-0.3303 0.63266-0.3375 0.80035-0.043 0.98339 0.2456 0.15235 0.8062-0.21779 1.8109-1.1956 1.7351-1.6887 2.0997-1.8889 3.878-2.1289 1.2459-0.16819 1.3801-0.13472 1.5452 0.38538 0.2463 0.77605-0.5312 1.59-1.5187 1.59-0.5767 0-1.1491 0.35854-2.2284 1.3957-1.429 1.3732-1.444 1.4033-0.9311 1.8674 0.5084 0.46011 0.61 0.38543 4.1214-3.029 2.3982-2.3319 3.6003-3.6886 3.6003-4.0635 0-1.2014 1.3884-1.6195 2.2428-0.67535 0.8455 0.9343 1.3562 0.89621 2.8418-0.21194 1.5327-1.1433 2.8994-1.898 3.4375-1.898 0.1905 0 0.4997-0.24549 0.6871-0.54554 0.4401-0.70463 1.6507-0.5985 2.0357 0.17847l0.277 0.55897 0.9198-0.64275c1.8354-1.2827 2.9469-1.7281 3.9184-1.5705 0.51 0.0828 1.0244 0.30353 1.1431 0.49058 0.744 1.1727-0.4395 2.4722-1.9873 2.1818-0.7812-0.14655-1.1252 0.0259-3.2341 1.6212-1.298 0.98184-4.1459 3.2801-6.3287 5.1072s-5.2487 4.3857-6.813 5.6859c-2.081 1.7295-2.8443 2.5245-2.8443 2.9623 0 0.56361 0.058 0.5826 0.9922 0.32602 0.5457-0.14984 1.3494-0.45366 1.7859-0.67515zm-2.7444-2.9124c0.3292-0.41965 0.3198-0.42901-0.1-0.0999-0.2547 0.19972-0.4631 0.40808-0.4631 0.46302 0 0.21776 0.2173 0.0776 0.5629-0.36312zm4.1996-3.118c0.9459-0.75673 2.6729-2.2549 3.8378-3.3292 1.1648-1.0743 2.6829-2.4142 3.3734-2.9774 1.3574-1.1071 1.7126-1.84 0.5279-1.0892-1.7903 1.1347-5.3156 3.734-6.2405 4.6012-0.5582 0.52342-1.987 2.0226-3.175 3.3316-2.2834 2.5159-2.0434 2.439 1.6764-0.53693zm-4.8948 0.72102c2.485-2.3636 2.9154-3.0649 0.5954-0.97014-1.2734 1.1497-2.3152 2.1246-2.3152 2.1664 0 0.29131 0.5798-0.11198 1.7198-1.1963zm112.84 163.59c-0.5091-0.61342-0.139-5.7114 0.6908-9.5159 0.3809-1.7462 0.6913-3.5917 0.6898-4.101 0-0.50932 0.1052-1.0568 0.2372-1.2166 0.231-0.27964 1.3041-5.5856 2.7427-13.561 0.7707-4.2731 0.971-4.8012 1.8212-4.8012 0.7704 0 1.2343 0.47185 1.2343 1.2555 0 0.34125 0.4766 3.0077 1.0592 5.9254s1.182 6.7521 1.3319 8.5209c0.15 1.7688 0.5151 4.8233 0.8115 6.7879 0.302 2.0022 0.5015 4.4439 0.454 5.5562-0.083 1.9451-0.099 1.986-0.8139 2.0682-0.4287 0.0493-0.78-0.0597-0.8526-0.26459-0.124-0.34993-0.8278-5.6972-1.1082-8.4206l-0.1501-1.4576-2.3605 0.16692c-1.2983 0.0918-2.4003 0.21194-2.4489 0.26695-0.3744 0.42349-1.018 5.7711-1.0648 8.8477-0.031 2.0463-0.144 3.862-0.2509 4.0349-0.2777 0.44943-1.6242 0.38837-2.0227-0.0917zm7.9436-16.329c0-1.5562-0.6855-5.7784-1.2953-8.0036-0.2791-1.0186-0.5182-1.7582-0.5314-1.6435-0.013 0.11474-0.5031 2.3174-1.0888 4.8948-0.5856 2.5774-1.1237 4.9541-1.1956 5.2815-0.1271 0.57874-0.072 0.59531 1.9909 0.59531h2.1217zm-28.306 15.813c-0.3913-0.47148-0.1869-8.5643 0.4111-16.273 0.2087-2.6907 0.3795-7.2966 0.3795-10.235 0-5.6469 0.1663-6.7006 1.0574-6.7006 0.7437 0 0.9474 0.59287 1.727 5.0271 0.7369 4.191 2.4067 9.477 4.7558 15.055 0.772 1.8332 1.7862 4.262 2.2538 5.3973 0.4675 1.1353 0.9159 1.9984 0.9964 1.9179 0.4997-0.49967 1.1388-7.4768 1.3928-15.206 0.1551-4.7179 0.3985-8.7958 0.541-9.062 0.3122-0.58331 0.8532-0.62386 1.2906-0.0968 0.4889 0.58905-0.092 18.024-0.7403 22.235-0.7023 4.559-1.7275 6.5982-2.8492 5.6672-0.4997-0.41477-2.019-3.3973-2.4824-4.8735-0.1828-0.58209-1.0512-2.9038-1.9298-5.1594-0.8787-2.2556-2.1713-5.7679-2.8727-7.8052-0.7013-2.0373-1.2795-3.5851-1.285-3.4396-0.01 0.14552-0.1884 2.2291-0.4065 4.6302-0.2504 2.7558-0.3846 7.0159-0.3639 11.553 0.018 3.9528-0.047 7.3164-0.1448 7.4745-0.2587 0.41846-1.3512 0.3518-1.7308-0.1056zm-17.333-0.61645c-1.1472-0.53992-3.0137-2.4177-3.6758-3.6981-0.9085-1.7569-1.4542-4.7165-1.7419-9.4476-0.1593-2.6194-0.4202-5.8847-0.5797-7.2564-0.4275-3.6765-0.1744-8.1321 0.5467-9.6217 1.3353-2.7584 5.396-3.9304 8.4116-2.4278 2.0973 1.0451 3.2603 3.084 3.6437 6.3878 0.2217 1.91-0.094 2.7316-1.0483 2.7316-0.85 0-1.097-0.55197-1.2499-2.793-0.2292-3.3594-1.4083-4.6153-4.3331-4.6153-2.9043 0-3.6025 0.70181-4.113 4.134-0.2366 1.5905-0.2354 2.885 0.01 5.5203 0.1727 1.8934 0.4856 5.5262 0.6953 8.0728 0.2097 2.5466 0.5153 5.1065 0.6791 5.6886 0.8114 2.8818 2.9365 5.11 5.1071 5.3547 2.4576 0.27701 3.5953-1.5311 3.8097-6.0544 0.096-2.0151 0.2542-3.0273 0.5154-3.2885 0.3268-0.32678 0.074-0.37738-1.8855-0.37738-2.1961 0-2.2677-0.0196-2.4296-0.66489-0.3233-1.2878 0.1445-1.4518 4.1407-1.4518 3.8137 0 4.8234 0.1855 5.1127 0.93931 0.3237 0.84356-0.3234 1.1774-2.2823 1.1774-1.6035 0-1.8085 0.0525-1.5277 0.39082 0.2295 0.27655 0.297 1.3459 0.2308 3.6572-0.086 3.0155-0.1547 3.3861-0.8906 4.8244-1.0738 2.099-2.4878 3.0989-4.5593 3.2241-1.0929 0.066-1.8215-0.0486-2.5811-0.4061zm60.285-0.81698c-2.7453-0.17902-3.2648-0.47097-3.7561-2.1111-0.3317-1.1069-0.3687-8.3467-0.079-15.514 0.094-2.3308 0.1069-6.0813 0.028-8.3344-0.1599-4.5944-0.042-5.2872 0.8974-5.2872 1.31 0 1.3246 0.13822 0.9852 9.33-0.1732 4.6912-0.3379 11.053-0.366 14.138-0.059 6.515-0.419 5.8885 3.3885 5.9006 2.7434 9e-3 3.7042 0.35374 3.7042 1.3304 0 0.59452-0.1077 0.65596-1.1906 0.67923-0.6549 0.0141-2.2801-0.0455-3.6116-0.13229zm-94.681-1.0427c-1.9988-1.2237-3.4676-3.7275-3.2568-5.5515 0.064-0.55042 0.2436-0.72605 0.8109-0.7913 0.4363-0.0502 0.7691 0.0561 0.8287 0.26458 0.7497 2.623 1.0445 3.1415 2.2714 3.9946 1.3987 0.97261 5.0652 0.37293 6.695-1.095 1.5091-1.3592 2.0729-2.7794 2.0729-5.222 0-4.3748-1.5785-6.4957-5.9875-8.0448-3.3353-1.1718-4.84-2.1607-5.6366-3.7042-1.7148-3.3223 0.9777-8.2021 5.2033-9.4305 2.6635-0.77428 7.1868-0.0167 7.5959 1.2721 0.196 0.61766-0.5338 1.5438-1.2166 1.5438-0.2526 0-0.9783-0.23551-1.6127-0.52336-1.3735-0.62324-3.8275-0.70284-5.0644-0.16429-1.8971 0.82596-3.365 3.0138-3.365 5.0153 0 1.8446 1.2306 2.6885 7.0086 4.8057 1.8387 0.67375 3.8568 2.7432 4.5924 4.7092 0.7886 2.1077 0.8043 6.1485 0.032 8.213-0.6825 1.824-2.3376 3.713-3.9847 4.5476-1.0866 0.55061-1.6527 0.64878-3.7368 0.64794-1.9176-7.7e-4 -2.6302-0.10754-3.2499-0.48695zm19.348-0.63654c-0.086-0.47294-0.1865-7.2893-0.2221-15.147l-0.065-14.288h1.8364l0.021 14.817c0.012 8.1492-0.03 14.966-0.092 15.147-0.063 0.1819-0.3855 0.33073-0.7176 0.33073-0.4724 0-0.6378-0.18695-0.7609-0.8599zm109.28-0.37482c-0.7057-0.70563 1.0576-2.7058 7.2391-8.2118 1.8229-1.6238 3.688-3.4172 4.1446-3.9854l0.8302-1.0331-7.7165-0.37428c-4.47-0.21681-11.973-0.34928-17.834-0.31485l-10.117 0.0594-0.17-0.67714c-0.3622-1.4433-0.6224-1.4218 14.054-1.1582 7.4215 0.13332 14.982 0.29268 16.801 0.35414l3.3073 0.11173-0.7741-0.56532c-3.6428-2.6603-8.1009-6.0584-8.2369-6.2784-0.092-0.14858-0.094-0.56104 0-0.91657 0.1289-0.51363 0.3327-0.64643 0.9921-0.64643 0.8596 0 1.5953 0.46694 4.1871 2.6573 0.8004 0.67639 2.2887 1.8042 3.3073 2.5062 4.602 3.1715 5.2825 4.6757 3.3056 7.3066-0.9545 1.2704-5.1222 5.1904-10.301 9.6887-1.7601 1.5288-2.5674 1.9244-3.0146 1.4773zm257.97-1.8521c-0.3057-0.30567-0.1915-2.2182 0.3528-5.909 0.2897-1.9645 0.5273-4.0779 0.5279-4.6964v-1.1245l-1.1245-4e-3c-1.6699-5e-3 -2.3022-0.24947-2.4799-0.95748-0.3347-1.3337 0.033-1.4202 6.0354-1.4202 3.3138 0 5.747 0.1101 6.053 0.27389 0.2816 0.15069 0.5118 0.55168 0.5118 0.89143 0 0.75449-0.8596 0.94411-4.2995 0.94844l-2.3151 3e-3v0.75948c0 0.41771-0.2291 2.1144-0.509 3.7703-0.28 1.656-0.5924 3.7847-0.6942 4.7306-0.2516 2.3373-0.4997 2.9104-1.2597 2.9104-0.3431 0-0.7033-0.0794-0.8003-0.17639zm-13.005-1.191c-1.3519-1.0634-1.5529-1.9897-1.6708-7.7003-0.1157-5.5987-0.035-6.0136 1.1611-6.0136 1.0974 0 1.2601 0.78769 1.0905 5.2811-0.1802 4.7758-0.03 6.0052 0.8011 6.5568 0.5537 0.36749 0.65 0.33457 1.4956-0.51099 1.2197-1.2198 1.6739-2.9115 1.9005-7.0793 0.1926-3.5438 0.3893-4.1216 1.3405-3.9384 0.717 0.13809 0.9591 1.6463 0.8209 5.1147-0.1807 4.5358-1.3246 7.4083-3.3717 8.4669-1.126 0.58227-2.7019 0.50409-3.5677-0.17699zm-22.624-0.35005c-0.3501-0.42173-0.2668-1.4284 0.3942-4.7649 0.2017-1.0186 0.4492-2.8882 0.5498-4.1546l0.183-2.3025-1.1091 0.0442c-1.1343 0.0452-1.5952-0.28864-1.6034-1.1615-0.01-1.0152 0.5867-1.1089 5.4914-0.86296l4.691 0.23525v0.64953c0 0.81384-0.6214 1.0083-3.3355 1.0439l-2.0125 0.0264-0.1793 2.3151c-0.2794 3.6086-1.3255 8.5562-1.8974 8.9744-0.6125 0.44792-0.7701 0.44223-1.1722-0.0423zm11.706 0.21925c-0.2519-0.10163-0.3308-1.6666-0.3308-6.5613 0-5.4158 0.063-6.4802 0.4004-6.7601 0.2746-0.2279 0.981-0.29074 2.2487-0.20004 2.3058 0.16499 3.7653 1.0284 4.5097 2.6678 0.6576 1.4485 0.6409 2.1988-0.081 3.6306-0.6946 1.3774-2.3538 2.3712-3.9587 2.3712h-1.0023v2.0018c0 2.6934-0.4388 3.3937-1.7859 2.8501zm4.6227-8.2115c0.5228-0.79785 0.097-1.9121-0.9706-2.543-1.45-0.85652-1.6016-0.68796-1.6016 1.7804v2.2277l1.0855-0.42641c0.5971-0.23452 1.2661-0.7019 1.4867-1.0386zm-27.346 6.6688c-0.9714-0.76578-1.6884-2.3832-1.6745-3.7775 0.014-1.357 0.9117-7.5628 1.1504-7.9491 0.2739-0.44312 1.3576-0.38988 1.7527 0.0861 0.2652 0.31964 0.2664 0.86381 0.01 2.712-0.562 3.9843-0.6204 5.3093-0.2712 6.1526 0.3599 0.86866 1.3881 1.3007 2.0899 0.87811 0.802-0.48298 1.5317-2.4246 1.9865-5.2861 0.6855-4.3128 0.7341-4.4595 1.4763-4.4595 1.0371 0 1.1813 1.4651 0.5404 5.4899-0.8625 5.4157-1.8418 6.8132-4.7718 6.8093-1.1456-2e-3 -1.6316-0.14103-2.2844-0.65566zm-12.553-0.749c-1.6787-0.88776-2.2278-1.9752-2.2278-4.4122 0-1.686 0.1089-2.1696 0.7241-3.2161 0.7506-1.2769 2.0688-2.4658 3.6063-3.2527 0.7598-0.38882 1.1253-0.41465 2.4834-0.17543 1.9491 0.34333 2.7732 0.85512 3.2625 2.0262 1.1077 2.6513-0.6672 8.0085-3.0642 9.248-1.1792 0.60981-3.4116 0.50827-4.7843-0.21761zm4.3231-2.494c0.9737-1.0168 1.8475-3.1212 1.8298-4.4069-0.012-0.84015-0.1765-1.2223-0.7352-1.703-0.8785-0.75576-1.7761-0.64324-3.3449 0.41931-1.6792 1.1372-2.1839 1.9883-2.1839 3.6823 0 1.2702 0.096 1.5412 0.7423 2.0973 1.0798 0.92878 2.7559 0.88835 3.6919-0.089zm-370.66-8.4584c-0.3433-1.368-0.5193-1.3536 14.297-1.1703 12.595 0.15583 13.754 0.20755 14.017 0.62561 0.6841 1.0858 0.3118 1.116-14.263 1.1554l-13.888 0.0376zm-114.75-118.28c-0.6082-1.0106-2.2793-7.8727-2.4792-10.18-0.1713-1.9774 0.096-2.5862 1.1352-2.5862 0.8477 0 1.0682 0.55553 1.26 3.175 0.091 1.2369 0.4617 3.3801 0.8246 4.7625 0.7778 2.9629 0.8642 4.6315 0.252 4.8665-0.5567 0.21362-0.848 0.20251-0.9926-0.0378zm4.5354-0.13229c-0.3223-0.256-0.4649-1.1677-0.6309-4.0349-0.118-2.0373-0.2212-4.4781-0.2295-5.424-0.014-1.6041 0.026-1.7256 0.6007-1.807 1.106-0.15666 3.3193 1.2116 5.943 3.6741 1.4139 1.327 2.5176 2.2534 2.4528 2.0587-0.065-0.19466-0.4815-1.8802-0.9261-3.7457-0.8313-3.4881-0.8021-4.4135 0.1395-4.4135 0.499 0 0.9653 1.0958 1.693 3.9784 0.3109 1.2316 0.8405 3.1323 1.1769 4.2237 0.9282 3.0115 1.0308 3.8439 0.5351 4.3396-0.2326 0.23259-0.6143 0.42288-0.8483 0.42288s-2.3245-1.8752-4.6456-4.1672c-3.7232-3.6766-4.2017-4.0684-4.0644-3.3284 0.086 0.46132 0.2377 2.3924 0.338 4.2914 0.1385 2.6242 0.1016 3.5498-0.1539 3.8576-0.4078 0.49141-0.8267 0.51395-1.3803 0.0743zm13.926-4.3478c-0.676-1.5176-2.4986-7.5224-2.4986-8.2319 0-0.20058-0.3619-0.5013-0.8042-0.66827-0.9004-0.33986-1.2897-1.2892-0.7804-1.9028 0.2585-0.31142 1.0231-0.39102 3.6676-0.38183 4.4136 0.0153 6.1406 0.62668 6.4578 2.2861 0.3566 1.8657-1.2901 4.1161-3.646 4.9826-0.7276 0.2676-1.3686 0.52107-1.4245 0.56327-0.056 0.0422 0.1617 0.78094 0.4836 1.6416 0.7192 1.9231 0.6556 3.0479-0.179 3.1665-0.4933 0.0701-0.7039-0.17001-1.2763-1.4552zm1.4917-5.9158c2.1927-1.1186 2.7375-2.3592 1.2619-2.8736-1.1957-0.41684-3.1355-0.37831-3.1355 0.0623 0 0.55751 0.5907 3.3514 0.7085 3.3514 0.059 0 0.5828-0.24306 1.1651-0.54014zm9.1897 5.1755c-1.095-0.74406-1.9177-2.3048-2.9527-5.6014-1.1768-3.7485-1.2456-5.9739-0.1931-6.2492 0.9919-0.25938 1.5223 0.45055 1.6761 2.2433 0.1666 1.9425 1.3532 5.8415 2.0967 6.8895 0.2836 0.39983 0.8255 0.80474 1.2042 0.89978 1.7035 0.42754 2.1085-2.1206 1.1129-7.0022-0.4144-2.0316-0.4755-2.8004-0.2553-3.2118 0.3218-0.60133 1.183-0.72131 1.5085-0.21016 0.4557 0.71555 1.4095 4.9412 1.5678 6.9453 0.2146 2.7187-0.1423 4.0633-1.3632 5.1352-1.2268 1.0772-2.9608 1.1409-4.4019 0.16164zm12.436-0.73278c-0.4359-0.34827-0.6717-1.448-1.4522-6.7732l-0.4789-3.2675-1.0463 0.14034c-1.3113 0.17588-2.0016-0.17891-2.0016-1.0287 0-0.80045 0.387-0.97276 3.5719-1.5904 3.6099-0.70008 4.2204-0.74045 4.5834-0.30312 0.523 0.63021 0.1155 1.1141-1.3608 1.616-1.315 0.44697-1.3871 0.51843-1.3211 1.3087 0.038 0.45977 0.2637 2.696 0.5006 4.9694 0.3279 3.1461 0.3588 4.2679 0.1295 4.6964-0.3475 0.64929-0.5501 0.69113-1.1245 0.23215z"/></g></svg>
